<svg width="125" height="250" viewBox="0 0 125 250" fill="none" xmlns="http://www.w3.org/2000/svg">
<path d="M0.39502 22.5C0.39502 10.3497 10.2448 0.5 22.395 0.5H102.395C114.545 0.5 124.395 10.3497 124.395 22.5V227.5C124.395 239.65 114.545 249.5 102.395 249.5H22.395C10.2448 249.5 0.39502 239.65 0.39502 227.5V22.5Z" fill="#C5A869"/>
<path fill-rule="evenodd" clip-rule="evenodd" d="M102.395 11.5H22.395C16.3199 11.5 11.395 16.4249 11.395 22.5V227.5C11.395 233.575 16.3199 238.5 22.395 238.5H102.395C108.47 238.5 113.395 233.575 113.395 227.5V22.5C113.395 16.4249 108.47 11.5 102.395 11.5ZM22.395 0.5C10.2448 0.5 0.39502 10.3497 0.39502 22.5V227.5C0.39502 239.65 10.2448 249.5 22.395 249.5H102.395C114.545 249.5 124.395 239.65 124.395 227.5V22.5C124.395 10.3497 114.545 0.5 102.395 0.5H22.395Z" fill="#A68C55"/>
<path d="M24.061 185.5L62.061 155.861L100.061 185.5V174.139L62.061 144.5L24.061 174.139V185.5Z" fill="black"/>
<path d="M63.561 132.968C64.561 142.5 75.061 146.5 82.061 141.5C77.061 139 78.1208 137.5 74.8409 135.5C72.217 133.9 69.061 134 67.561 132.639C69.9769 132.355 72.5509 131.915 75.0561 131.363C75.9 131.177 76.7379 130.978 77.561 130.767C80.561 140.675 93.561 140 97.561 134.5C93.061 133.5 92.561 131.708 90.561 131C87.1695 129.8 83.061 130.387 81.8815 129.5C83.7753 128.863 85.4647 128.167 86.8004 127.439C93.061 129.5 102.061 122.5 100.561 111.5C98.561 113.5 96.061 114 93.061 116.5C90.061 119 87.561 123 86.3216 126.561C84.7314 127.428 82.5876 128.259 80.1658 129C80.561 127.5 83.061 126 85.061 122.5C87.061 119 87.561 115 89.561 112.5C85.561 111.5 81.061 115 78.561 119C76.061 123 75.561 125.5 77.3009 129.802C76.4949 130.008 75.6721 130.204 74.8409 130.387C71.8707 131.041 68.8154 131.533 66.061 131.792C67.561 128.5 70.061 128 72.061 124.5C74.061 121 75.061 115.5 76.061 114.5C72.061 114 68.561 116 65.561 120.5C62.061 126 64.061 128 63.7948 131.956C62.639 132.012 61.4829 132.012 60.3271 131.956C60.0609 128 62.0609 126 58.5609 120.5C55.5609 116 52.0609 114 48.0609 114.5C49.0609 115.5 50.0609 121 52.0609 124.5C54.0609 128 56.5609 128.5 58.0609 131.792C55.3065 131.533 52.2512 131.041 49.281 130.387C48.4498 130.204 47.627 130.008 46.821 129.802C48.5609 125.5 48.0609 123 45.5609 119C43.0609 115 38.5609 111.5 34.5609 112.5C36.5609 115 37.0609 119 39.0609 122.5C41.0609 126 43.5609 127.5 43.9561 129C41.5343 128.259 39.3905 127.428 37.8003 126.561C36.5609 123 34.0609 119 31.0609 116.5C28.0609 114 25.5609 113.5 23.5609 111.5C22.0609 122.5 31.0609 129.5 37.3215 127.439C38.6572 128.167 40.3466 128.863 42.2404 129.5C41.0609 130.387 36.9525 129.8 33.5609 131C31.5609 131.708 31.0609 133.5 26.5609 134.5C30.5609 140 43.5609 140.675 46.5609 130.767C47.384 130.978 48.2219 131.177 49.0658 131.363C51.571 131.915 54.145 132.355 56.5609 132.639C55.0609 134 51.9049 133.9 49.281 135.5C46.0011 137.5 47.0609 139 42.0609 141.5C49.0609 146.5 59.5609 142.5 60.5609 132.968C61.5964 133.01 62.5255 133.01 63.561 132.968Z" fill="black"/>
<path d="M66.061 114.5V105H75.5609V97H66.061V88H58.061V97H48.561V105H58.061V114.5H66.061Z" fill="black"/>
<path d="M41.0609 91.5L62.0609 75.5964L83.0609 91.5V85.4036L62.0609 69.5L41.0609 85.4036V91.5Z" fill="black"/>
<path d="M24.061 204.5L62.061 174.861L100.061 204.5V193.139L62.061 163.5L24.061 193.139V204.5Z" fill="black"/>
<path d="M24.061 84.5L62.061 54.8615L100.061 84.5V73.1385L62.061 43.5L24.061 73.1385V84.5Z" fill="black"/>
<path d="M24.061 63.5L62.061 33.8615L100.061 63.5V52.1385L62.061 22.5L24.061 52.1385V63.5Z" fill="black"/>
<path d="M24.061 208.5H100.061L100.061 216H24.061V208.5Z" fill="black"/>
<path d="M24.061 219.5H100.061L100.061 227H24.061V219.5Z" fill="black"/>
</svg>
