<svg width="174" height="242" viewBox="0 0 174 242" fill="none" xmlns="http://www.w3.org/2000/svg">
<path d="M143.068 0.819336H29.5699C17.6966 0.819336 7.96531 10.2408 7.58139 22.108L1.22888 218.469C0.826995 230.892 10.7883 241.181 23.2174 241.181H150.542C163.02 241.181 173 230.813 172.526 218.344L165.052 21.9826C164.603 10.1665 154.893 0.819336 143.068 0.819336Z" fill="#121212"/>
<path d="M91.1588 103.244V92.9419H100.056V85.4496H91.1588V75.6159H82.7304V85.4496H73.8333V92.9419H82.7304V103.244H91.1588Z" fill="#F6C808"/>
<path d="M86.9444 65.8159L106.567 77.6484V72.5623L86.9444 60.8335L67.3224 72.5623V77.6484L86.9444 65.8159Z" fill="#F6C808"/>
<path d="M86.9444 130.872L130.493 154.753V168.802L86.9444 145.388L43.3958 168.802V154.753L86.9444 130.872Z" fill="#F6C808"/>
<path d="M86.9449 108.863C88.8179 109.799 90.691 116.335 87.8814 119.155C89.3391 119.124 90.7446 119.02 92.0958 118.845C93.0324 114.082 89.7545 111.204 94.9054 106.99C94.4372 109.331 95.3737 109.331 95.3737 111.672C95.3737 114.014 92.5641 116.823 93.0324 118.711C94.5056 118.48 95.9113 118.162 97.2468 117.759C98.6516 113.077 95.0265 107.458 100.056 103.712C99.4681 106.359 101.006 106.122 100.993 109.799C100.993 112.609 98.1833 115.098 98.1833 117.459C98.4997 117.352 98.8119 117.24 99.1199 117.122C101.162 116.345 103.018 115.352 104.676 114.154C104.495 112.644 103.891 111.186 103.29 109.738C102.079 106.813 100.882 103.924 103.205 100.714C103.324 102.094 103.745 102.59 104.275 103.213C104.782 103.81 105.389 104.523 105.922 106.242C106.36 107.641 106.043 109.185 105.74 110.662C105.526 111.705 105.319 112.715 105.39 113.617C106.007 113.132 106.595 112.617 107.152 112.072C108.407 110.847 109.521 109.459 110.479 107.911C108.792 103.66 103.561 100.804 105.72 95.3097C106.619 97.8687 107.799 96.855 109.73 99.9851C111.006 102.038 110.391 104.988 110.988 107.049C112.143 104.99 113.038 102.669 113.646 100.086C112.799 98.8768 111.632 97.887 110.471 96.9031C108.056 94.8557 105.671 92.8336 106.27 88.9166C107.006 90.0898 107.608 90.3382 108.364 90.65C109.088 90.9488 109.953 91.3059 111.213 92.5913C112.243 93.6346 112.667 95.153 113.073 96.6054C113.31 97.4559 113.542 98.2838 113.885 98.9804C114.3 96.8809 114.532 94.6183 114.568 92.1934C113.713 90.7333 112.377 89.5999 111.049 88.4742C108.634 86.4268 106.249 84.4047 106.848 80.4878C107.584 81.6609 108.186 81.9093 108.941 82.2211C109.666 82.52 110.531 82.8771 111.791 84.1625C112.821 85.2057 113.245 86.7242 113.65 88.1766C113.953 89.2602 114.246 90.3072 114.772 91.0927C114.915 88.6828 114.222 86.4882 113.526 84.2832C112.26 80.2735 110.984 76.2295 114.704 70.7943C119.746 75.2877 118.819 80.6622 117.915 85.9012C117.617 87.6278 117.322 89.3398 117.243 91.0007C117.732 90.2264 118.014 89.2185 118.305 88.1766C118.71 86.7241 119.135 85.2057 120.164 84.1625C121.424 82.8771 122.29 82.52 123.014 82.2211C123.769 81.9093 124.371 81.6609 125.107 80.4878C125.706 84.4047 123.321 86.4268 120.906 88.4742C119.574 89.6041 118.232 90.7417 117.378 92.2097C117.348 94.2989 117.18 96.2924 116.879 98.1857C117.372 97.4935 117.729 96.6057 118.097 95.6906C118.66 94.2915 119.248 92.8288 120.386 91.9049C121.779 90.7656 122.678 90.5056 123.431 90.2881C124.216 90.0611 124.842 89.8803 125.702 88.795C125.868 92.7541 123.275 94.5021 120.65 96.272C119.128 97.2981 117.596 98.3315 116.583 99.8072C116.313 101.117 115.975 102.375 115.572 103.58C116.009 103.113 116.419 102.562 116.839 101.999C117.739 100.79 118.681 99.5251 120.017 98.9218C121.655 98.1753 122.591 98.1532 123.374 98.1347C124.191 98.1153 124.842 98.1 125.95 97.2698C125.101 101.14 122.149 102.17 119.159 103.212C117.716 103.715 116.264 104.222 115.036 105.052C114.495 106.425 113.862 107.722 113.141 108.941C113.827 108.535 114.486 107.943 115.163 107.334C116.285 106.325 117.457 105.271 118.886 104.943C120.639 104.534 121.561 104.697 122.332 104.833C123.137 104.975 123.778 105.088 125.029 104.493C123.433 108.12 120.336 108.548 117.199 108.98C115.527 109.211 113.844 109.443 112.372 110.163C111.585 111.337 110.709 112.431 109.747 113.442C110.53 113.186 111.324 112.716 112.141 112.233C113.439 111.466 114.796 110.664 116.262 110.623C118.061 110.568 118.932 110.909 119.662 111.195C120.423 111.493 121.03 111.73 122.373 111.393C120.094 114.634 116.973 114.443 113.813 114.249C112.066 114.142 110.307 114.034 108.672 114.505C107.472 115.619 106.164 116.611 104.754 117.478C105.68 117.504 106.703 117.219 107.76 116.925C109.212 116.52 110.731 116.096 112.157 116.437C113.909 116.85 114.662 117.405 115.293 117.87C115.951 118.355 116.475 118.741 117.86 118.763C114.819 121.304 111.854 120.31 108.852 119.304C107.103 118.718 105.341 118.128 103.544 118.23C102.533 118.782 101.519 119.2 100.418 119.633C100.139 119.742 99.8581 119.848 99.5742 119.95C100.414 120.193 101.404 120.219 102.425 120.246C103.932 120.285 105.508 120.327 106.771 121.071C108.324 121.98 108.882 122.732 109.348 123.361C109.835 124.018 110.222 124.542 111.539 124.969C107.886 126.505 105.344 124.684 102.77 122.841C101.373 121.841 99.9673 120.835 98.3695 120.353C98.3076 120.373 98.2455 120.392 98.1833 120.411C95.9425 121.096 93.5429 121.557 91.0036 121.792C91.469 123.052 92.6848 123.639 97.2468 123.639C101.809 123.639 102.74 125.371 103.669 127.706C95.3737 132.444 94.6552 125.945 86.9449 121.974C79.2345 125.945 78.5159 132.444 70.2207 127.706C71.1497 125.371 72.0809 123.639 76.6429 123.639C81.2049 123.639 82.4207 123.052 82.886 121.792C80.3467 121.557 77.9471 121.096 75.7063 120.411C75.6441 120.392 75.5821 120.373 75.5201 120.353C73.9224 120.835 72.5164 121.841 71.1198 122.841C68.5457 124.684 66.0033 126.505 62.3504 124.969C63.6676 124.542 64.0551 124.018 64.5417 123.361C65.008 122.732 65.5652 121.98 67.1188 121.071C68.3815 120.327 69.9575 120.285 71.4651 120.246C72.4861 120.219 73.4758 120.193 74.3154 119.95C74.0315 119.848 73.7504 119.742 73.4721 119.633C72.3703 119.2 71.3567 118.782 70.3459 118.23C68.549 118.128 66.7871 118.718 65.0377 119.304C62.0358 120.31 59.071 121.304 56.0301 118.763C57.4148 118.741 57.9389 118.355 58.5969 117.87C59.2275 117.405 59.9811 116.85 61.7331 116.437C63.1587 116.096 64.6774 116.52 66.1301 116.925C67.1871 117.219 68.2092 117.504 69.1352 117.478C67.7261 116.611 66.4175 115.619 65.2174 114.505C63.5824 114.034 61.8237 114.142 60.077 114.249C56.9169 114.443 53.7959 114.634 51.517 111.393C52.8601 111.73 53.4665 111.493 54.2276 111.195C54.9572 110.909 55.8289 110.568 57.6279 110.623C59.0932 110.664 60.4504 111.466 61.7486 112.233C62.5658 112.716 63.3597 113.186 64.1425 113.442C63.1808 112.431 62.3051 111.337 61.5181 110.163C60.0457 109.443 58.3625 109.211 56.6902 108.98C53.554 108.548 50.4564 108.12 48.8612 104.493C50.1114 105.088 50.7526 104.975 51.5576 104.833C52.3291 104.697 53.2511 104.534 55.0038 104.943C56.4324 105.271 57.6048 106.325 58.7263 107.334C59.4038 107.943 60.0627 108.535 60.7483 108.941C60.0276 107.722 59.3951 106.425 58.8538 105.052C57.6258 104.222 56.1738 103.715 54.7304 103.212C51.741 102.17 48.7884 101.14 47.9393 97.2698C49.0477 98.1 49.6987 98.1153 50.5159 98.1347C51.2991 98.1532 52.2351 98.1753 53.8728 98.9218C55.2087 99.5251 56.1504 100.79 57.0511 101.999C57.4703 102.562 57.8806 103.113 58.3177 103.58C57.9143 102.375 57.5768 101.117 57.3066 99.8072C56.2941 98.3315 54.7614 97.2981 53.2396 96.272C50.6146 94.5021 48.022 92.7541 48.1875 88.795C49.0477 89.8803 49.6732 90.0611 50.4585 90.2881C51.2112 90.5056 52.1105 90.7656 53.5039 91.9049C54.6419 92.8288 55.2301 94.2915 55.7929 95.6906C56.1609 96.6056 56.518 97.4935 57.0108 98.1857C56.7094 96.2924 56.5416 94.2989 56.512 92.2097C55.6577 90.7417 54.316 89.6041 52.9833 88.4742C50.5684 86.4268 48.1834 84.4047 48.7826 80.4878C49.5184 81.6609 50.1203 81.9093 50.8759 82.2211C51.6001 82.52 52.4656 82.8771 53.7254 84.1625C54.7551 85.2057 55.1792 86.7241 55.585 88.1766C55.876 89.2185 56.1576 90.2264 56.6463 91.0007C56.568 89.3398 56.2726 87.6278 55.9747 85.9012C55.0706 80.6622 54.1432 75.2877 59.1857 70.7943C62.9061 76.2295 61.6295 80.2735 60.3637 84.2832C59.6677 86.4882 58.9749 88.6828 59.1181 91.0927C59.6441 90.3072 59.9365 89.2602 60.2392 88.1766C60.645 86.7242 61.0691 85.2057 62.0988 84.1625C63.3586 82.8771 64.224 82.52 64.9483 82.2211C65.7039 81.9093 66.3058 81.6609 67.0416 80.4878C67.6408 84.4047 65.2557 86.4268 62.8409 88.4742C61.5131 89.5999 60.1764 90.7333 59.3217 92.1934C59.3572 94.6183 59.5898 96.8809 60.0051 98.9804C60.348 98.2838 60.5792 97.4559 60.8168 96.6054C61.2225 95.153 61.6467 93.6346 62.6764 92.5913C63.9362 91.3059 64.8016 90.9488 65.5258 90.65C66.2814 90.3382 66.8833 90.0898 67.6192 88.9166C68.2184 92.8336 65.8333 94.8557 63.4184 96.9031C62.2579 97.887 61.0905 98.8768 60.2441 100.086C60.8513 102.669 61.747 104.99 62.9017 107.049C63.499 104.988 62.8837 102.038 64.1599 99.9851C66.0907 96.855 67.2711 97.8687 68.1692 95.3097C70.3287 100.804 65.0981 103.66 63.4104 107.911C64.3687 109.459 65.4823 110.847 66.7372 112.072C67.2947 112.617 67.8825 113.132 68.5 113.617C68.5707 112.715 68.3634 111.705 68.1493 110.662C67.8462 109.185 67.5293 107.641 67.9681 106.242C68.501 104.523 69.1074 103.81 69.6149 103.213C70.1444 102.59 70.5661 102.094 70.6842 100.714C73.0078 103.924 71.811 106.813 70.5993 109.738C69.999 111.186 69.3951 112.644 69.2136 114.154C70.872 115.352 72.7279 116.345 74.7698 117.122C75.0778 117.24 75.3899 117.352 75.7063 117.459C75.7063 115.098 72.8967 112.609 72.8967 109.799C72.8839 106.122 74.4216 106.359 73.8333 103.712C78.8632 107.458 75.2381 113.077 76.6429 117.759C77.9783 118.162 79.384 118.48 80.8573 118.711C81.3256 116.823 78.5159 114.014 78.5159 111.672C78.5159 109.331 79.4525 109.331 78.9842 106.99C84.1352 111.204 80.8573 114.082 81.7938 118.845C83.1451 119.02 84.5506 119.124 86.0082 119.155C83.1986 116.335 85.0718 109.799 86.9449 108.863Z" fill="#F6C808"/>
<path d="M86.9444 151.872L130.493 175.753V189.801L86.9444 166.388L43.3958 189.801V175.753L86.9444 151.872Z" fill="#F6C808"/>
<path d="M86.9444 37.8716L130.493 61.7533V75.8014L86.9444 52.3879L43.3958 75.8014V61.7533L86.9444 37.8716Z" fill="#F6C808"/>
<path d="M86.9444 17.8716L130.493 41.7533V55.8014L86.9444 32.3879L43.3958 55.8014V41.7533L86.9444 17.8716Z" fill="#F6C808"/>
<path d="M130.493 194.701H43.3958V207.128H130.493V194.701Z" fill="#F6C808"/>
<path d="M130.493 211.701H43.3958V224.128H130.493V211.701Z" fill="#F6C808"/>
</svg>
