<svg width="173" height="242" viewBox="0 0 173 242" fill="none" xmlns="http://www.w3.org/2000/svg">
<path d="M142.672 0.819336H29.1734C17.3001 0.819336 7.56883 10.2408 7.18491 22.108L0.832395 218.469C0.430511 230.892 10.3918 241.181 22.8209 241.181H150.145C162.624 241.181 172.604 230.813 172.129 218.344L164.656 21.9826C164.206 10.1665 154.496 0.819336 142.672 0.819336Z" fill="#121212"/>
<path d="M90.7624 114.89V104.588H99.6595V97.0956H90.7624V87.2619H82.3339V97.0956H73.4368V104.588H82.3339V114.89H90.7624Z" fill="#F6C808"/>
<path d="M86.5479 77.4619L106.17 89.2944V84.2083L86.5479 72.4795L66.9259 84.2083V89.2944L86.5479 77.4619Z" fill="#F6C808"/>
<path d="M86.5479 142.518L130.097 166.399V180.448L86.5479 157.034L42.9993 180.448V166.399L86.5479 142.518Z" fill="#F6C808"/>
<path d="M86.5484 120.509C88.4215 121.445 90.2945 127.981 87.4849 130.801C88.9426 130.77 90.3481 130.666 91.6993 130.491C92.6359 125.728 89.358 122.85 94.509 118.636C94.0407 120.977 94.9772 120.977 94.9772 123.318C94.9772 125.66 92.1676 128.469 92.6359 130.357C94.1091 130.126 95.5149 129.808 96.8503 129.405C98.2551 124.723 94.63 119.104 99.6599 115.358C99.0716 118.005 100.609 117.768 100.596 121.445C100.596 124.255 97.7868 126.744 97.7868 129.105C98.1032 128.998 98.4154 128.886 98.7234 128.768C100.765 127.991 102.621 126.998 104.28 125.8C104.098 124.29 103.494 122.832 102.894 121.384C101.682 118.459 100.485 115.57 102.809 112.36C102.927 113.74 103.349 114.236 103.878 114.859C104.386 115.456 104.992 116.169 105.525 117.888C105.964 119.287 105.647 120.831 105.344 122.308C105.13 123.351 104.923 124.361 104.993 125.263C105.611 124.778 106.198 124.263 106.756 123.718C108.011 122.493 109.124 121.105 110.083 119.557C108.395 115.306 103.164 112.45 105.324 106.956C106.222 109.515 107.402 108.501 109.333 111.631C110.61 113.684 109.994 116.634 110.591 118.695C111.746 116.636 112.642 114.315 113.249 111.732C112.403 110.523 111.235 109.533 110.075 108.549C107.66 106.502 105.275 104.48 105.874 100.563C106.61 101.736 107.212 101.984 107.967 102.296C108.692 102.595 109.557 102.952 110.817 104.237C111.846 105.281 112.271 106.799 112.676 108.251C112.914 109.102 113.145 109.93 113.488 110.626C113.903 108.527 114.136 106.264 114.171 103.839C113.317 102.379 111.98 101.246 110.652 100.12C108.237 98.0728 105.852 96.0507 106.452 92.1338C107.187 93.3069 107.789 93.5553 108.545 93.8671C109.269 94.166 110.135 94.5231 111.394 95.8085C112.424 96.8517 112.848 98.3701 113.254 99.8226C113.557 100.906 113.849 101.953 114.375 102.739C114.518 100.329 113.825 98.1342 113.129 95.9292C111.864 91.9195 110.587 87.8755 114.307 82.4403C119.35 86.9337 118.423 92.3081 117.519 97.5471C117.221 99.2738 116.925 100.986 116.847 102.647C117.336 101.872 117.617 100.864 117.908 99.8226C118.314 98.3701 118.738 96.8517 119.768 95.8085C121.028 94.5231 121.893 94.166 122.617 93.8671C123.373 93.5553 123.975 93.3069 124.711 92.1338C125.31 96.0507 122.925 98.0728 120.51 100.12C119.177 101.25 117.835 102.388 116.981 103.856C116.952 105.945 116.784 107.938 116.482 109.832C116.975 109.14 117.332 108.252 117.7 107.337C118.263 105.937 118.851 104.475 119.989 103.551C121.383 102.412 122.282 102.152 123.035 101.934C123.82 101.707 124.445 101.526 125.306 100.441C125.471 104.4 122.879 106.148 120.254 107.918C118.732 108.944 117.199 109.977 116.187 111.453C115.916 112.763 115.579 114.021 115.175 115.226C115.613 114.759 116.023 114.208 116.442 113.645C117.343 112.436 118.284 111.171 119.62 110.568C121.258 109.821 122.194 109.799 122.977 109.781C123.794 109.761 124.445 109.746 125.554 108.916C124.705 112.786 121.752 113.816 118.763 114.858C117.319 115.361 115.867 115.868 114.639 116.698C114.098 118.071 113.466 119.368 112.745 120.587C113.43 120.181 114.089 119.589 114.767 118.98C115.888 117.971 117.061 116.917 118.489 116.589C120.242 116.18 121.164 116.343 121.936 116.479C122.741 116.621 123.382 116.734 124.632 116.139C123.037 119.766 119.939 120.194 116.803 120.626C115.131 120.857 113.447 121.089 111.975 121.809C111.188 122.983 110.312 124.077 109.351 125.088C110.133 124.832 110.927 124.362 111.745 123.879C113.043 123.112 114.4 122.31 115.865 122.269C117.664 122.214 118.536 122.555 119.266 122.841C120.027 123.139 120.633 123.376 121.976 123.039C119.697 126.28 116.576 126.089 113.416 125.895C111.669 125.788 109.911 125.68 108.276 126.151C107.076 127.265 105.767 128.257 104.358 129.124C105.284 129.15 106.306 128.865 107.363 128.571C108.816 128.166 110.334 127.742 111.76 128.083C113.512 128.496 114.266 129.051 114.896 129.516C115.554 130.001 116.078 130.387 117.463 130.409C114.422 132.95 111.457 131.956 108.455 130.95C106.706 130.364 104.944 129.774 103.147 129.876C102.137 130.428 101.123 130.846 100.021 131.279C99.7427 131.388 99.4616 131.494 99.1778 131.596C100.017 131.839 101.007 131.865 102.028 131.892C103.536 131.931 105.112 131.973 106.374 132.717C107.928 133.626 108.485 134.378 108.952 135.007C109.438 135.664 109.826 136.188 111.143 136.615C107.49 138.151 104.947 136.33 102.373 134.487C100.977 133.487 99.5708 132.481 97.973 131.999C97.9111 132.019 97.849 132.038 97.7868 132.057C95.5461 132.742 93.1464 133.203 90.6072 133.438C91.0725 134.698 92.2883 135.285 96.8503 135.285C101.412 135.285 102.343 137.017 103.272 139.352C94.9772 144.09 94.2587 137.591 86.5484 133.62C78.838 137.591 78.1195 144.09 69.8242 139.352C70.7533 137.017 71.6844 135.285 76.2464 135.285C80.8084 135.285 82.0242 134.698 82.4895 133.438C79.9503 133.203 77.5506 132.742 75.3098 132.057C75.2477 132.038 75.1856 132.019 75.1236 131.999C73.5259 132.481 72.1199 133.487 70.7233 134.487C68.1492 136.33 65.6069 138.151 61.954 136.615C63.2711 136.188 63.6586 135.664 64.1452 135.007C64.6115 134.378 65.1687 133.626 66.7223 132.717C67.9851 131.973 69.5611 131.931 71.0686 131.892C72.0896 131.865 73.0793 131.839 73.9189 131.596C73.635 131.494 73.3539 131.388 73.0757 131.279C71.9738 130.846 70.9602 130.428 69.9494 129.876C68.1525 129.774 66.3906 130.364 64.6413 130.95C61.6394 131.956 58.6745 132.95 55.6336 130.409C57.0183 130.387 57.5424 130.001 58.2004 129.516C58.831 129.051 59.5846 128.496 61.3366 128.083C62.7622 127.742 64.2809 128.166 65.7336 128.571C66.7906 128.865 67.8127 129.15 68.7387 129.124C67.3296 128.257 66.021 127.265 64.8209 126.151C63.1859 125.68 61.4272 125.788 59.6805 125.895C56.5204 126.089 53.3994 126.28 51.1205 123.039C52.4637 123.376 53.07 123.139 53.8312 122.841C54.5607 122.555 55.4325 122.214 57.2314 122.269C58.6967 122.31 60.0539 123.112 61.3521 123.879C62.1693 124.362 62.9632 124.832 63.7461 125.088C62.7844 124.077 61.9086 122.983 61.1216 121.809C59.6492 121.089 57.966 120.857 56.2937 120.626C53.1575 120.194 50.0599 119.766 48.4647 116.139C49.7149 116.734 50.3562 116.621 51.1611 116.479C51.9327 116.343 52.8546 116.18 54.6073 116.589C56.0359 116.917 57.2083 117.971 58.3298 118.98C59.0073 119.589 59.6662 120.181 60.3518 120.587C59.6311 119.368 58.9987 118.071 58.4573 116.698C57.2293 115.868 55.7773 115.361 54.334 114.858C51.3445 113.816 48.3919 112.786 47.5429 108.916C48.6513 109.746 49.3022 109.761 50.1194 109.781C50.9026 109.799 51.8386 109.821 53.4763 110.568C54.8122 111.171 55.7539 112.436 56.6546 113.645C57.0738 114.208 57.4841 114.759 57.9212 115.226C57.5179 114.021 57.1803 112.763 56.9101 111.453C55.8976 109.977 54.3649 108.944 52.8431 107.918C50.2181 106.148 47.6255 104.4 47.7911 100.441C48.6512 101.526 49.2768 101.707 50.062 101.934C50.8147 102.152 51.7141 102.412 53.1074 103.551C54.2454 104.475 54.8337 105.937 55.3964 107.337C55.7644 108.252 56.1215 109.14 56.6143 109.832C56.3129 107.938 56.1451 105.945 56.1155 103.856C55.2613 102.388 53.9195 101.25 52.5868 100.12C50.172 98.0728 47.7869 96.0507 48.3861 92.1338C49.1219 93.3069 49.7238 93.5553 50.4795 93.8671C51.2037 94.166 52.0691 94.5231 53.3289 95.8085C54.3586 96.8517 54.7827 98.3701 55.1885 99.8226C55.4795 100.864 55.7611 101.872 56.2498 102.647C56.1715 100.986 55.8761 99.2738 55.5782 97.5471C54.6742 92.3081 53.7468 86.9337 58.7893 82.4403C62.5096 87.8755 61.233 91.9195 59.9672 95.9292C59.2712 98.1342 58.5784 100.329 58.7216 102.739C59.2476 101.953 59.54 100.906 59.8428 99.8226C60.2485 98.3701 60.6726 96.8517 61.7023 95.8085C62.9622 94.5231 63.8276 94.166 64.5518 93.8671C65.3074 93.5553 65.9093 93.3069 66.6451 92.1338C67.2443 96.0507 64.8593 98.0728 62.4444 100.12C61.1167 101.246 59.7799 102.379 58.9252 103.839C58.9607 106.264 59.1933 108.527 59.6087 110.626C59.9515 109.93 60.1827 109.102 60.4203 108.251C60.826 106.799 61.2502 105.281 62.2799 104.237C63.5397 102.952 64.4051 102.595 65.1293 102.296C65.885 101.984 66.4869 101.736 67.2227 100.563C67.8219 104.48 65.4368 106.502 63.022 108.549C61.8614 109.533 60.694 110.523 59.8476 111.732C60.4548 114.315 61.3505 116.636 62.5052 118.695C63.1025 116.634 62.4872 113.684 63.7634 111.631C65.6942 108.501 66.8746 109.515 67.7728 106.956C69.9322 112.45 64.7016 115.306 63.0139 119.557C63.9722 121.105 65.0858 122.493 66.3407 123.718C66.8982 124.263 67.486 124.778 68.1035 125.263C68.1742 124.361 67.9669 123.351 67.7528 122.308C67.4497 120.831 67.1328 119.287 67.5716 117.888C68.1045 116.169 68.7109 115.456 69.2184 114.859C69.7479 114.236 70.1697 113.74 70.2878 112.36C72.6113 115.57 71.4145 118.459 70.2028 121.384C69.6025 122.832 68.9986 124.29 68.8171 125.8C70.4755 126.998 72.3315 127.991 74.3733 128.768C74.6813 128.886 74.9935 128.998 75.3098 129.105C75.3098 126.744 72.5002 124.255 72.5002 121.445C72.4874 117.768 74.0251 118.005 73.4368 115.358C78.4667 119.104 74.8416 124.723 76.2464 129.405C77.5818 129.808 78.9876 130.126 80.4608 130.357C80.9291 128.469 78.1195 125.66 78.1195 123.318C78.1195 120.977 79.056 120.977 78.5877 118.636C83.7387 122.85 80.4608 125.728 81.3973 130.491C82.7486 130.666 84.1541 130.77 85.6118 130.801C82.8021 127.981 84.6753 121.445 86.5484 120.509Z" fill="#F6C808"/>
<path d="M86.5479 163.518L130.097 187.399V201.447L86.5479 178.034L42.9993 201.447V187.399L86.5479 163.518Z" fill="#F6C808"/>
<path d="M86.5479 49.5176L130.097 73.3993V87.4474L86.5479 64.0339L42.9993 87.4474V73.3993L86.5479 49.5176Z" fill="#F6C808"/>
<path d="M86.5479 29.5176L130.097 53.3993V67.4474L86.5479 44.0339L42.9993 67.4474V53.3993L86.5479 29.5176Z" fill="#F6C808"/>
<path d="M130.097 206.347H42.9993V218.774H130.097V206.347Z" fill="#F6C808"/>
</svg>
