<svg width="174" height="242" viewBox="0 0 174 242" fill="none" xmlns="http://www.w3.org/2000/svg">
<path d="M142.87 0.819336H29.3716C17.4983 0.819336 7.76707 10.2408 7.38315 22.108L1.03064 218.469C0.628753 230.892 10.5901 241.181 23.0191 241.181H150.344C162.822 241.181 172.802 230.813 172.328 218.344L164.854 21.9826C164.404 10.1665 154.695 0.819336 142.87 0.819336Z" fill="#121212"/>
<path d="M90.9606 132.89V122.588H99.8577V115.095H90.9606V105.262H82.5321V115.095H73.635V122.588H82.5321V132.89H90.9606Z" fill="#F6C808"/>
<path d="M86.7462 95.4616L106.369 107.294V102.208L86.7462 90.4792L67.1241 102.208V107.294L86.7462 95.4616Z" fill="#F6C808"/>
<path d="M86.7462 160.517L130.295 184.399V198.447L86.7462 175.034L43.1975 198.447V184.399L86.7462 160.517Z" fill="#F6C808"/>
<path d="M86.7466 138.509C88.6197 139.445 90.4928 145.981 87.6832 148.801C89.1408 148.77 90.5463 148.666 91.8976 148.491C92.8341 143.728 89.5562 140.85 94.7072 136.636C94.2389 138.977 95.1755 138.977 95.1755 141.318C95.1755 143.66 92.3659 146.469 92.8341 148.357C94.3074 148.126 95.7131 147.808 97.0485 147.405C98.4534 142.723 94.8282 137.104 99.8582 133.358C99.2698 136.005 100.808 135.767 100.795 139.445C100.795 142.255 97.9851 144.744 97.9851 147.105C98.3015 146.998 98.6137 146.885 98.9216 146.768C100.963 145.99 102.819 144.997 104.478 143.8C104.296 142.29 103.692 140.832 103.092 139.383C101.88 136.458 100.684 133.57 103.007 130.36C103.125 131.74 103.547 132.236 104.077 132.858C104.584 133.455 105.19 134.169 105.723 135.888C106.162 137.286 105.845 138.831 105.542 140.308C105.328 141.351 105.121 142.361 105.191 143.262C105.809 142.778 106.397 142.263 106.954 141.718C108.209 140.492 109.323 139.105 110.281 137.557C108.593 133.305 103.363 130.45 105.522 124.955C106.42 127.514 107.601 126.501 109.531 129.631C110.808 131.684 110.192 134.634 110.79 136.694C111.944 134.636 112.84 132.314 113.447 129.731C112.601 128.523 111.434 127.533 110.273 126.549C107.858 124.501 105.473 122.479 106.072 118.562C106.808 119.736 107.41 119.984 108.166 120.296C108.89 120.595 109.755 120.952 111.015 122.237C112.045 123.28 112.469 124.799 112.875 126.251C113.112 127.102 113.343 127.93 113.686 128.626C114.102 126.527 114.334 124.264 114.37 121.839C113.515 120.379 112.178 119.246 110.851 118.12C108.436 116.073 106.051 114.05 106.65 110.134C107.386 111.307 107.988 111.555 108.743 111.867C109.467 112.166 110.333 112.523 111.593 113.808C112.622 114.851 113.046 116.37 113.452 117.822C113.755 118.906 114.047 119.953 114.573 120.738C114.717 118.329 114.024 116.134 113.328 113.929C112.062 109.919 110.785 105.875 114.506 100.44C119.548 104.933 118.621 110.308 117.717 115.547C117.419 117.274 117.123 118.986 117.045 120.646C117.534 119.872 117.815 118.864 118.106 117.822C118.512 116.37 118.936 114.851 119.966 113.808C121.226 112.523 122.091 112.166 122.815 111.867C123.571 111.555 124.173 111.307 124.909 110.134C125.508 114.05 123.123 116.073 120.708 118.12C119.375 119.25 118.034 120.387 117.179 121.855C117.15 123.945 116.982 125.938 116.681 127.831C117.173 127.139 117.531 126.251 117.899 125.336C118.461 123.937 119.05 122.475 120.188 121.551C121.581 120.411 122.48 120.151 123.233 119.934C124.018 119.707 124.644 119.526 125.504 118.441C125.669 122.4 123.077 124.148 120.452 125.918C118.93 126.944 117.397 127.977 116.385 129.453C116.115 130.763 115.777 132.021 115.374 133.225C115.811 132.759 116.221 132.208 116.64 131.645C117.541 130.435 118.483 129.171 119.819 128.568C121.456 127.821 122.392 127.799 123.176 127.78C123.993 127.761 124.644 127.746 125.752 126.916C124.903 130.786 121.95 131.815 118.961 132.858C117.518 133.361 116.066 133.867 114.838 134.698C114.296 136.07 113.664 137.367 112.943 138.586C113.629 138.181 114.288 137.588 114.965 136.979C116.087 135.971 117.259 134.917 118.688 134.589C120.44 134.18 121.362 134.343 122.134 134.479C122.939 134.621 123.58 134.734 124.83 134.139C123.235 137.766 120.137 138.193 117.001 138.626C115.329 138.857 113.646 139.089 112.173 139.808C111.386 140.983 110.511 142.077 109.549 143.088C110.332 142.831 111.126 142.362 111.943 141.879C113.241 141.112 114.598 140.309 116.063 140.269C117.862 140.214 118.734 140.555 119.464 140.84C120.225 141.138 120.831 141.376 122.174 141.038C119.896 144.28 116.775 144.089 113.614 143.895C111.868 143.787 110.109 143.68 108.474 144.15C107.274 145.265 105.965 146.257 104.556 147.123C105.482 147.15 106.504 146.865 107.561 146.57C109.014 146.165 110.533 145.742 111.958 146.083C113.71 146.495 114.464 147.051 115.095 147.516C115.753 148.001 116.277 148.387 117.661 148.409C114.62 150.95 111.656 149.956 108.654 148.95C106.904 148.364 105.142 147.774 103.346 147.876C102.335 148.428 101.321 148.846 100.219 149.279C99.941 149.388 99.6599 149.494 99.376 149.595C100.216 149.839 101.205 149.865 102.226 149.891C103.734 149.931 105.31 149.972 106.573 150.717C108.126 151.625 108.683 152.378 109.15 153.007C109.636 153.664 110.024 154.187 111.341 154.615C107.688 156.151 105.146 154.33 102.572 152.487C101.175 151.487 99.7691 150.48 98.1713 149.999C98.1093 150.019 98.0473 150.038 97.9851 150.057C95.7443 150.742 93.3447 151.203 90.8054 151.437C91.2707 152.698 92.4865 153.285 97.0485 153.285C101.611 153.285 102.542 155.016 103.471 157.352C95.1755 162.089 94.457 155.591 86.7466 151.62C79.0363 155.591 78.3177 162.089 70.0225 157.352C70.9515 155.016 71.8826 153.285 76.4446 153.285C81.0066 153.285 82.2224 152.698 82.6878 151.437C80.1485 151.203 77.7489 150.742 75.5081 150.057C75.4459 150.038 75.3838 150.019 75.3219 149.999C73.7241 150.48 72.3182 151.487 70.9216 152.487C68.3474 154.33 65.8051 156.151 62.1522 154.615C63.4693 154.187 63.8569 153.664 64.3434 153.007C64.8097 152.378 65.3669 151.625 66.9206 150.717C68.1833 149.972 69.7593 149.931 71.2668 149.891C72.2879 149.865 73.2775 149.839 74.1172 149.595C73.8333 149.494 73.5522 149.388 73.2739 149.279C72.172 148.846 71.1584 148.428 70.1477 147.876C68.3508 147.774 66.5888 148.364 64.8395 148.95C61.8376 149.956 58.8728 150.95 55.8319 148.409C57.2165 148.387 57.7407 148.001 58.3986 147.516C59.0293 147.051 59.7829 146.495 61.5348 146.083C62.9605 145.742 64.4791 146.165 65.9318 146.57C66.9889 146.865 68.011 147.15 68.9369 147.123C67.5279 146.257 66.2193 145.265 65.0191 144.15C63.3842 143.68 61.6255 143.787 59.8787 143.895C56.7187 144.089 53.5977 144.28 51.3188 141.038C52.6619 141.376 53.2682 141.138 54.0294 140.84C54.7589 140.555 55.6307 140.214 57.4297 140.269C58.895 140.309 60.2521 141.112 61.5503 141.879C62.3676 142.362 63.1615 142.831 63.9443 143.088C62.9826 142.077 62.1068 140.983 61.3198 139.808C59.8474 139.089 58.1642 138.857 56.492 138.626C53.3557 138.193 50.2582 137.766 48.6629 134.139C49.9132 134.734 50.5544 134.621 51.3594 134.479C52.1309 134.343 53.0528 134.18 54.8056 134.589C56.2342 134.917 57.4066 135.971 58.5281 136.979C59.2056 137.588 59.8645 138.181 60.5501 138.586C59.8293 137.367 59.1969 136.07 58.6555 134.698C57.4275 133.867 55.9756 133.361 54.5322 132.858C51.5427 131.815 48.5902 130.786 47.7411 126.916C48.8495 127.746 49.5005 127.761 50.3177 127.78C51.1009 127.799 52.0368 127.821 53.6745 128.568C55.0104 129.171 55.9521 130.435 56.8529 131.645C57.2721 132.208 57.6824 132.759 58.1195 133.225C57.7161 132.021 57.3785 130.763 57.1083 129.453C56.0958 127.977 54.5632 126.944 53.0414 125.918C50.4164 124.148 47.8237 122.4 47.9893 118.441C48.8495 119.526 49.475 119.707 50.2603 119.934C51.0129 120.151 51.9123 120.411 53.3056 121.551C54.4436 122.475 55.0319 123.937 55.5946 125.336C55.9627 126.251 56.3198 127.139 56.8126 127.831C56.5111 125.938 56.3434 123.945 56.3138 121.855C55.4595 120.387 54.1177 119.25 52.7851 118.12C50.3702 116.073 47.9852 114.05 48.5843 110.134C49.3202 111.307 49.9221 111.555 50.6777 111.867C51.4019 112.166 52.2673 112.523 53.5271 113.808C54.5568 114.851 54.981 116.37 55.3867 117.822C55.6778 118.864 55.9593 119.872 56.4481 120.646C56.3698 118.986 56.0744 117.274 55.7764 115.547C54.8724 110.308 53.945 104.933 58.9875 100.44C62.7079 105.875 61.4313 109.919 60.1655 113.929C59.4694 116.134 58.7766 118.329 58.9198 120.738C59.4458 119.953 59.7383 118.906 60.041 117.822C60.4467 116.37 60.8709 114.851 61.9006 113.808C63.1604 112.523 64.0258 112.166 64.75 111.867C65.5056 111.555 66.1075 111.307 66.8434 110.134C67.4426 114.05 65.0575 116.073 62.6426 118.12C61.3149 119.246 59.9782 120.379 59.1234 121.839C59.1589 124.264 59.3916 126.527 59.8069 128.626C60.1497 127.93 60.381 127.102 60.6186 126.251C61.0243 124.799 61.4484 123.28 62.4781 122.237C63.738 120.952 64.6034 120.595 65.3276 120.296C66.0832 119.984 66.6851 119.736 67.4209 118.562C68.0201 122.479 65.6351 124.501 63.2202 126.549C62.0597 127.533 60.8922 128.523 60.0459 129.731C60.6531 132.314 61.5487 134.636 62.7034 136.694C63.3007 134.634 62.6854 131.684 63.9617 129.631C65.8925 126.501 67.0729 127.514 67.971 124.955C70.1305 130.45 64.8998 133.305 63.2121 137.557C64.1704 139.105 65.284 140.492 66.539 141.718C67.0964 142.263 67.6843 142.778 68.3017 143.262C68.3724 142.361 68.1652 141.351 67.9511 140.308C67.6479 138.831 67.331 137.286 67.7699 135.888C68.3027 134.169 68.9091 133.455 69.4166 132.858C69.9461 132.236 70.3679 131.74 70.486 130.36C72.8096 133.57 71.6128 136.458 70.401 139.383C69.8008 140.832 69.1968 142.29 69.0153 143.8C70.6737 144.997 72.5297 145.99 74.5715 146.768C74.8795 146.885 75.1917 146.998 75.5081 147.105C75.5081 144.744 72.6985 142.255 72.6985 139.445C72.6856 135.767 74.2233 136.005 73.635 133.358C78.6649 137.104 75.0398 142.723 76.4446 147.405C77.7801 147.808 79.1858 148.126 80.659 148.357C81.1273 146.469 78.3177 143.66 78.3177 141.318C78.3177 138.977 79.2542 138.977 78.786 136.636C83.9369 140.85 80.659 143.728 81.5956 148.491C82.9469 148.666 84.3523 148.77 85.81 148.801C83.0004 145.981 84.8735 139.445 86.7466 138.509Z" fill="#F6C808"/>
<path d="M86.7462 181.517L130.295 205.399V219.447L86.7462 196.034L43.1975 219.447V205.399L86.7462 181.517Z" fill="#F6C808"/>
<path d="M86.7462 67.5173L130.295 91.3991V105.447L86.7462 82.0337L43.1975 105.447V91.3991L86.7462 67.5173Z" fill="#F6C808"/>
</svg>
