<svg width="125" height="250" viewBox="0 0 125 250" fill="none" xmlns="http://www.w3.org/2000/svg">
<path d="M0.0976562 22.5C0.0976562 10.3497 9.94739 0.5 22.0977 0.5H102.098C114.248 0.5 124.098 10.3497 124.098 22.5V227.5C124.098 239.65 114.248 249.5 102.098 249.5H22.0977C9.94739 249.5 0.0976562 239.65 0.0976562 227.5V22.5Z" fill="#C5A869"/>
<path fill-rule="evenodd" clip-rule="evenodd" d="M102.098 11.5H22.0977C16.0225 11.5 11.0977 16.4249 11.0977 22.5V227.5C11.0977 233.575 16.0225 238.5 22.0977 238.5H102.098C108.173 238.5 113.098 233.575 113.098 227.5V22.5C113.098 16.4249 108.173 11.5 102.098 11.5ZM22.0977 0.5C9.94739 0.5 0.0976562 10.3497 0.0976562 22.5V227.5C0.0976562 239.65 9.94739 249.5 22.0977 249.5H102.098C114.248 249.5 124.098 239.65 124.098 227.5V22.5C124.098 10.3497 114.248 0.5 102.098 0.5H22.0977Z" fill="#A68C55"/>
<path d="M23.7636 196.5L61.7636 166.861L99.7636 196.5V185.139L61.7636 155.5L23.7636 185.139V196.5Z" fill="black"/>
<path d="M63.2636 143.968C64.2636 153.5 74.7636 157.5 81.7636 152.5C76.7636 150 77.8234 148.5 74.5435 146.5C71.9196 144.9 68.7636 145 67.2636 143.639C69.6795 143.355 72.2536 142.915 74.7587 142.363C75.6026 142.177 76.4406 141.978 77.2636 141.767C80.2636 151.675 93.2636 151 97.2636 145.5C92.7636 144.5 92.2636 142.708 90.2636 142C86.8721 140.8 82.7636 141.387 81.5842 140.5C83.478 139.863 85.1674 139.167 86.5031 138.439C92.7636 140.5 101.764 133.5 100.264 122.5C98.2636 124.5 95.7636 125 92.7636 127.5C89.7636 130 87.2636 134 86.0242 137.561C84.4341 138.428 82.2903 139.259 79.8684 140C80.2636 138.5 82.7636 137 84.7636 133.5C86.7636 130 87.2636 126 89.2636 123.5C85.2636 122.5 80.7636 126 78.2636 130C75.7636 134 75.2636 136.5 77.0036 140.802C76.1975 141.008 75.3747 141.204 74.5435 141.387C71.5734 142.041 68.518 142.533 65.7636 142.792C67.2636 139.5 69.7636 139 71.7636 135.5C73.7636 132 74.7636 126.5 75.7636 125.5C71.7636 125 68.2636 127 65.2636 131.5C61.7636 137 63.7636 139 63.4974 142.956C62.3416 143.012 61.1855 143.012 60.0298 142.956C59.7636 139 61.7636 137 58.2636 131.5C55.2636 127 51.7636 125 47.7636 125.5C48.7636 126.5 49.7636 132 51.7636 135.5C53.7636 139 56.2636 139.5 57.7636 142.792C55.0091 142.533 51.9538 142.041 48.9837 141.387C48.1524 141.204 47.3296 141.008 46.5236 140.802C48.2636 136.5 47.7636 134 45.2636 130C42.7636 126 38.2636 122.5 34.2636 123.5C36.2636 126 36.7636 130 38.7636 133.5C40.7636 137 43.2636 138.5 43.6587 140C41.2369 139.259 39.0931 138.428 37.503 137.561C36.2636 134 33.7636 130 30.7636 127.5C27.7636 125 25.2636 124.5 23.2636 122.5C21.7636 133.5 30.7636 140.5 37.0241 138.439C38.3598 139.167 40.0492 139.863 41.943 140.5C40.7636 141.387 36.6551 140.8 33.2636 142C31.2636 142.708 30.7636 144.5 26.2636 145.5C30.2636 151 43.2636 151.675 46.2636 141.767C47.0866 141.978 47.9245 142.177 48.7684 142.363C51.2736 142.915 53.8476 143.355 56.2636 143.639C54.7636 145 51.6076 144.9 48.9837 146.5C45.7038 148.5 46.7636 150 41.7636 152.5C48.7636 157.5 59.2636 153.5 60.2636 143.968C61.2991 144.01 62.2281 144.01 63.2636 143.968Z" fill="black"/>
<path d="M65.7636 125.5V116H75.2635V108H65.7636V99H57.7636V108H48.2637V116H57.7636V125.5H65.7636Z" fill="black"/>
<path d="M40.7635 102.5L61.7635 86.5964L82.7635 102.5V96.4036L61.7635 80.5L40.7635 96.4036V102.5Z" fill="black"/>
<path d="M23.7636 215.5L61.7636 185.861L99.7636 215.5V204.139L61.7636 174.5L23.7636 204.139V215.5Z" fill="black"/>
<path d="M23.7637 95.5L61.7637 65.8615L99.7637 95.5V84.1385L61.7637 54.5L23.7637 84.1385V95.5Z" fill="black"/>
<path d="M23.7637 74.5L61.7637 44.8615L99.7637 74.5V63.1385L61.7637 33.5L23.7637 63.1385V74.5Z" fill="black"/>
</svg>
