<svg width="125" height="250" viewBox="0 0 125 250" fill="none" xmlns="http://www.w3.org/2000/svg">
<path d="M0.196777 22.5C0.196777 10.3497 10.0465 0.5 22.1968 0.5H102.197C114.347 0.5 124.197 10.3497 124.197 22.5V227.5C124.197 239.65 114.347 249.5 102.197 249.5H22.1968C10.0465 249.5 0.196777 239.65 0.196777 227.5V22.5Z" fill="#C5A869"/>
<path fill-rule="evenodd" clip-rule="evenodd" d="M102.197 11.5H22.1968C16.1216 11.5 11.1968 16.4249 11.1968 22.5V227.5C11.1968 233.575 16.1216 238.5 22.1968 238.5H102.197C108.272 238.5 113.197 233.575 113.197 227.5V22.5C113.197 16.4249 108.272 11.5 102.197 11.5ZM22.1968 0.5C10.0465 0.5 0.196777 10.3497 0.196777 22.5V227.5C0.196777 239.65 10.0465 249.5 22.1968 249.5H102.197C114.347 249.5 124.197 239.65 124.197 227.5V22.5C124.197 10.3497 114.347 0.5 102.197 0.5H22.1968Z" fill="#A68C55"/>
<path d="M23.8627 186.5L61.8627 156.861L99.8628 186.5V175.139L61.8627 145.5L23.8627 175.139V186.5Z" fill="black"/>
<path d="M63.3627 133.968C64.3627 143.5 74.8627 147.5 81.8627 142.5C76.8627 140 77.9225 138.5 74.6426 136.5C72.0187 134.9 68.8627 135 67.3627 133.639C69.7787 133.355 72.3527 132.915 74.8578 132.363C75.7018 132.177 76.5397 131.978 77.3627 131.767C80.3627 141.675 93.3628 141 97.3628 135.5C92.8628 134.5 92.3628 132.708 90.3628 132C86.9712 130.8 82.8627 131.387 81.6833 130.5C83.5771 129.863 85.2665 129.167 86.6022 128.439C92.8628 130.5 101.863 123.5 100.363 112.5C98.3628 114.5 95.8628 115 92.8628 117.5C89.8628 120 87.3627 124 86.1233 127.561C84.5332 128.428 82.3894 129.259 79.9675 130C80.3627 128.5 82.8627 127 84.8627 123.5C86.8627 120 87.3628 116 89.3628 113.5C85.3628 112.5 80.8627 116 78.3627 120C75.8627 124 75.3627 126.5 77.1027 130.802C76.2967 131.008 75.4739 131.204 74.6426 131.387C71.6725 132.041 68.6171 132.533 65.8627 132.792C67.3627 129.5 69.8627 129 71.8627 125.5C73.8627 122 74.8627 116.5 75.8627 115.5C71.8627 115 68.3627 117 65.3627 121.5C61.8627 127 63.8627 129 63.5965 132.956C62.4407 133.012 61.2847 133.012 60.1289 132.956C59.8627 129 61.8627 127 58.3627 121.5C55.3627 117 51.8627 115 47.8627 115.5C48.8627 116.5 49.8627 122 51.8627 125.5C53.8627 129 56.3627 129.5 57.8627 132.792C55.1083 132.533 52.0529 132.041 49.0828 131.387C48.2515 131.204 47.4288 131.008 46.6227 130.802C48.3627 126.5 47.8627 124 45.3627 120C42.8627 116 38.3627 112.5 34.3627 113.5C36.3627 116 36.8627 120 38.8627 123.5C40.8627 127 43.3627 128.5 43.7579 130C41.336 129.259 39.1922 128.428 37.6021 127.561C36.3627 124 33.8627 120 30.8627 117.5C27.8627 115 25.3627 114.5 23.3627 112.5C21.8627 123.5 30.8627 130.5 37.1233 128.439C38.4589 129.167 40.1483 129.863 42.0421 130.5C40.8627 131.387 36.7542 130.8 33.3627 132C31.3627 132.708 30.8627 134.5 26.3627 135.5C30.3627 141 43.3627 141.675 46.3627 131.767C47.1857 131.978 48.0237 132.177 48.8676 132.363C51.3727 132.915 53.9468 133.355 56.3627 133.639C54.8627 135 51.7067 134.9 49.0828 136.5C45.8029 138.5 46.8627 140 41.8627 142.5C48.8627 147.5 59.3627 143.5 60.3627 133.968C61.3982 134.01 62.3272 134.01 63.3627 133.968Z" fill="black"/>
<path d="M65.8627 115.5V106H75.3627V98H65.8627V89H57.8627V98H48.3628V106H57.8627V115.5H65.8627Z" fill="black"/>
<path d="M40.8627 92.5L61.8627 76.5964L82.8627 92.5V86.4036L61.8627 70.5L40.8627 86.4036V92.5Z" fill="black"/>
<path d="M23.8627 205.5L61.8627 175.861L99.8627 205.5V194.139L61.8627 164.5L23.8627 194.139V205.5Z" fill="black"/>
<path d="M23.8628 85.5L61.8628 55.8615L99.8628 85.5V74.1385L61.8628 44.5L23.8628 74.1385V85.5Z" fill="black"/>
</svg>
