<svg width="125" height="250" viewBox="0 0 125 250" fill="none" xmlns="http://www.w3.org/2000/svg">
<path d="M0.494141 22.5C0.494141 10.3497 10.3439 0.5 22.4941 0.5H102.494C114.644 0.5 124.494 10.3497 124.494 22.5V227.5C124.494 239.65 114.644 249.5 102.494 249.5H22.4941C10.3439 249.5 0.494141 239.65 0.494141 227.5V22.5Z" fill="#C5A869"/>
<path fill-rule="evenodd" clip-rule="evenodd" d="M102.494 11.5H22.4941C16.419 11.5 11.4941 16.4249 11.4941 22.5V227.5C11.4941 233.575 16.419 238.5 22.4941 238.5H102.494C108.569 238.5 113.494 233.575 113.494 227.5V22.5C113.494 16.4249 108.569 11.5 102.494 11.5ZM22.4941 0.5C10.3439 0.5 0.494141 10.3497 0.494141 22.5V227.5C0.494141 239.65 10.3439 249.5 22.4941 249.5H102.494C114.644 249.5 124.494 239.65 124.494 227.5V22.5C124.494 10.3497 114.644 0.5 102.494 0.5H22.4941Z" fill="#A68C55"/>
<path d="M24.1601 190.5L62.1601 160.861L100.16 190.5V179.139L62.1601 149.5L24.1601 179.139V190.5Z" fill="black"/>
<path d="M63.6601 137.968C64.6601 147.5 75.1601 151.5 82.1601 146.5C77.1601 144 78.2199 142.5 74.94 140.5C72.3161 138.9 69.1601 139 67.6601 137.639C70.076 137.355 72.65 136.915 75.1552 136.363C75.9991 136.177 76.837 135.978 77.6601 135.767C80.6601 145.675 93.6601 145 97.6601 139.5C93.1601 138.5 92.6601 136.708 90.6601 136C87.2686 134.8 83.1601 135.387 81.9807 134.5C83.8744 133.863 85.5639 133.167 86.8995 132.439C93.1601 134.5 102.16 127.5 100.66 116.5C98.6601 118.5 96.1601 119 93.1601 121.5C90.1601 124 87.6601 128 86.4207 131.561C84.8306 132.428 82.6867 133.259 80.2649 134C80.6601 132.5 83.1601 131 85.1601 127.5C87.1601 124 87.6601 120 89.6601 117.5C85.6601 116.5 81.1601 120 78.6601 124C76.1601 128 75.6601 130.5 77.4001 134.802C76.594 135.008 75.7712 135.204 74.94 135.387C71.9698 136.041 68.9145 136.533 66.1601 136.792C67.6601 133.5 70.1601 133 72.1601 129.5C74.1601 126 75.1601 120.5 76.1601 119.5C72.1601 119 68.6601 121 65.6601 125.5C62.1601 131 64.1601 133 63.8939 136.956C62.7381 137.012 61.582 137.012 60.4262 136.956C60.16 133 62.16 131 58.66 125.5C55.66 121 52.16 119 48.16 119.5C49.16 120.5 50.16 126 52.16 129.5C54.16 133 56.66 133.5 58.16 136.792C55.4056 136.533 52.3503 136.041 49.3801 135.387C48.5489 135.204 47.7261 135.008 46.9201 134.802C48.66 130.5 48.16 128 45.66 124C43.16 120 38.66 116.5 34.66 117.5C36.66 120 37.16 124 39.16 127.5C41.16 131 43.66 132.5 44.0552 134C41.6334 133.259 39.4896 132.428 37.8995 131.561C36.66 128 34.16 124 31.16 121.5C28.16 119 25.66 118.5 23.66 116.5C22.16 127.5 31.16 134.5 37.4206 132.439C38.7563 133.167 40.4457 133.863 42.3395 134.5C41.16 135.387 37.0516 134.8 33.66 136C31.66 136.708 31.16 138.5 26.66 139.5C30.66 145 43.66 145.675 46.66 135.767C47.4831 135.978 48.321 136.177 49.1649 136.363C51.6701 136.915 54.2441 137.355 56.66 137.639C55.16 139 52.0041 138.9 49.3801 140.5C46.1003 142.5 47.16 144 42.16 146.5C49.16 151.5 59.66 147.5 60.66 137.968C61.6955 138.01 62.6246 138.01 63.6601 137.968Z" fill="black"/>
<path d="M66.1601 119.5V110H75.66V102H66.1601V93H58.1601V102H48.6602V110H58.1601V119.5H66.1601Z" fill="black"/>
<path d="M41.16 96.5L62.16 80.5964L83.16 96.5V90.4036L62.16 74.5L41.16 90.4036V96.5Z" fill="black"/>
<path d="M24.1601 209.5L62.1601 179.861L100.16 209.5V198.139L62.1601 168.5L24.1601 198.139V209.5Z" fill="black"/>
<path d="M24.1602 89.5L62.1601 59.8615L100.16 89.5V78.1385L62.1601 48.5L24.1602 78.1385V89.5Z" fill="black"/>
<path d="M24.1602 68.5L62.1601 38.8615L100.16 68.5V57.1385L62.1601 27.5L24.1602 57.1385V68.5Z" fill="black"/>
<path d="M24.1601 213.5H100.16L100.16 221H24.1601V213.5Z" fill="black"/>
</svg>
