<svg width="174" height="242" viewBox="0 0 174 242" fill="none" xmlns="http://www.w3.org/2000/svg">
<path d="M142.771 0.819336H29.2725C17.3992 0.819336 7.66795 10.2408 7.28403 22.108L0.931516 218.469C0.529632 230.892 10.491 241.181 22.92 241.181H150.244C162.723 241.181 172.703 230.813 172.228 218.344L164.755 21.9826C164.305 10.1665 154.596 0.819336 142.771 0.819336Z" fill="#121212"/>
<path d="M90.8615 132.89V122.588H99.7586V115.096H90.8615V105.262H82.433V115.096H73.5359V122.588H82.433V132.89H90.8615Z" fill="#F6C808"/>
<path d="M86.6471 95.4619L106.269 107.294V102.208L86.6471 90.4795L67.025 102.208V107.294L86.6471 95.4619Z" fill="#F6C808"/>
<path d="M86.6471 160.518L130.196 184.399V198.448L86.6471 175.034L43.0984 198.448V184.399L86.6471 160.518Z" fill="#F6C808"/>
<path d="M86.6475 138.509C88.5206 139.445 90.3937 145.981 87.584 148.801C89.0417 148.77 90.4472 148.666 91.7985 148.491C92.735 143.728 89.4571 140.85 94.6081 136.636C94.1398 138.977 95.0763 138.977 95.0763 141.318C95.0763 143.66 92.2667 146.469 92.735 148.357C94.2082 148.126 95.614 147.808 96.9494 147.405C98.3542 142.723 94.7291 137.104 99.759 133.358C99.1707 136.005 100.708 135.768 100.696 139.445C100.696 142.255 97.886 144.744 97.886 147.105C98.2023 146.998 98.5145 146.886 98.8225 146.768C100.864 145.991 102.72 144.998 104.379 143.8C104.197 142.29 103.593 140.832 102.993 139.384C101.781 136.459 100.584 133.57 102.908 130.36C103.026 131.74 103.448 132.236 103.977 132.859C104.485 133.456 105.091 134.169 105.624 135.888C106.063 137.287 105.746 138.831 105.443 140.308C105.229 141.351 105.022 142.361 105.092 143.263C105.71 142.778 106.298 142.263 106.855 141.718C108.11 140.493 109.224 139.105 110.182 137.557C108.494 133.306 103.264 130.45 105.423 124.956C106.321 127.515 107.502 126.501 109.432 129.631C110.709 131.684 110.093 134.634 110.691 136.695C111.845 134.636 112.741 132.315 113.348 129.732C112.502 128.523 111.334 127.533 110.174 126.549C107.759 124.502 105.374 122.48 105.973 118.563C106.709 119.736 107.311 119.984 108.066 120.296C108.791 120.595 109.656 120.952 110.916 122.237C111.946 123.281 112.37 124.799 112.775 126.251C113.013 127.102 113.244 127.93 113.587 128.626C114.002 126.527 114.235 124.264 114.271 121.839C113.416 120.379 112.079 119.246 110.751 118.12C108.337 116.073 105.952 114.051 106.551 110.134C107.287 111.307 107.888 111.555 108.644 111.867C109.368 112.166 110.234 112.523 111.493 113.808C112.523 114.852 112.947 116.37 113.353 117.823C113.656 118.906 113.948 119.953 114.474 120.739C114.617 118.329 113.925 116.134 113.229 113.929C111.963 109.919 110.686 105.876 114.407 100.44C119.449 104.934 118.522 110.308 117.618 115.547C117.32 117.274 117.024 118.986 116.946 120.647C117.435 119.872 117.716 118.864 118.007 117.823C118.413 116.37 118.837 114.852 119.867 113.808C121.127 112.523 121.992 112.166 122.716 111.867C123.472 111.555 124.074 111.307 124.81 110.134C125.409 114.051 123.024 116.073 120.609 118.12C119.276 119.25 117.935 120.388 117.08 121.856C117.051 123.945 116.883 125.938 116.581 127.832C117.074 127.14 117.431 126.252 117.799 125.337C118.362 123.937 118.95 122.475 120.088 121.551C121.482 120.412 122.381 120.152 123.134 119.934C123.919 119.707 124.545 119.526 125.405 118.441C125.57 122.4 122.978 124.148 120.353 125.918C118.831 126.944 117.298 127.977 116.286 129.453C116.016 130.763 115.678 132.021 115.275 133.226C115.712 132.759 116.122 132.208 116.541 131.645C117.442 130.436 118.384 129.171 119.72 128.568C121.357 127.821 122.293 127.799 123.076 127.781C123.894 127.761 124.545 127.746 125.653 126.916C124.804 130.786 121.851 131.816 118.862 132.858C117.418 133.361 115.967 133.868 114.739 134.698C114.197 136.071 113.565 137.368 112.844 138.587C113.53 138.181 114.188 137.589 114.866 136.98C115.987 135.971 117.16 134.917 118.589 134.589C120.341 134.18 121.263 134.343 122.035 134.479C122.84 134.621 123.481 134.734 124.731 134.139C123.136 137.766 120.038 138.194 116.902 138.626C115.23 138.857 113.547 139.089 112.074 139.809C111.287 140.983 110.411 142.077 109.45 143.088C110.233 142.832 111.026 142.362 111.844 141.879C113.142 141.112 114.499 140.31 115.964 140.269C117.763 140.214 118.635 140.555 119.365 140.841C120.126 141.139 120.732 141.376 122.075 141.039C119.796 144.28 116.675 144.089 113.515 143.895C111.769 143.788 110.01 143.68 108.375 144.151C107.175 145.265 105.866 146.257 104.457 147.124C105.383 147.15 106.405 146.865 107.462 146.571C108.915 146.166 110.434 145.742 111.859 146.083C113.611 146.496 114.365 147.051 114.995 147.516C115.653 148.001 116.178 148.387 117.562 148.409C114.521 150.95 111.556 149.956 108.555 148.95C106.805 148.364 105.043 147.774 103.246 147.876C102.236 148.428 101.222 148.846 100.12 149.279C99.8419 149.388 99.5608 149.494 99.2769 149.596C100.117 149.839 101.106 149.865 102.127 149.892C103.635 149.931 105.211 149.973 106.473 150.717C108.027 151.626 108.584 152.378 109.051 153.007C109.537 153.664 109.925 154.188 111.242 154.615C107.589 156.151 105.047 154.33 102.472 152.487C101.076 151.487 99.6699 150.481 98.0722 149.999C98.0102 150.019 97.9482 150.038 97.886 150.057C95.6452 150.742 93.2455 151.203 90.7063 151.438C91.1716 152.698 92.3874 153.285 96.9494 153.285C101.511 153.285 102.443 155.017 103.372 157.352C95.0763 162.09 94.3579 155.591 86.6475 151.62C78.9372 155.591 78.2186 162.09 69.9234 157.352C70.8524 155.017 71.7835 153.285 76.3455 153.285C80.9075 153.285 82.1233 152.698 82.5887 151.438C80.0494 151.203 77.6497 150.742 75.409 150.057C75.3468 150.038 75.2847 150.019 75.2228 149.999C73.625 150.481 72.219 151.487 70.8224 152.487C68.2483 154.33 65.706 156.151 62.0531 154.615C63.3702 154.188 63.7578 153.664 64.2443 153.007C64.7106 152.378 65.2678 151.626 66.8214 150.717C68.0842 149.973 69.6602 149.931 71.1677 149.892C72.1888 149.865 73.1784 149.839 74.018 149.596C73.7342 149.494 73.4531 149.388 73.1748 149.279C72.0729 148.846 71.0593 148.428 70.0485 147.876C68.2516 147.774 66.4897 148.364 64.7404 148.95C61.7385 149.956 58.7736 150.95 55.7328 148.409C57.1174 148.387 57.6415 148.001 58.2995 147.516C58.9302 147.051 59.6837 146.496 61.4357 146.083C62.8614 145.742 64.38 146.166 65.8327 146.571C66.8897 146.865 67.9119 147.15 68.8378 147.124C67.4287 146.257 66.1201 145.265 64.92 144.151C63.2851 143.68 61.5264 143.788 59.7796 143.895C56.6195 144.089 53.4985 144.28 51.2197 141.039C52.5628 141.376 53.1691 141.139 53.9303 140.841C54.6598 140.555 55.5316 140.214 57.3306 140.269C58.7958 140.31 60.153 141.112 61.4512 141.879C62.2685 142.362 63.0624 142.832 63.8452 143.088C62.8835 142.077 62.0077 140.983 61.2207 139.809C59.7483 139.089 58.0651 138.857 56.3929 138.626C53.2566 138.194 50.159 137.766 48.5638 134.139C49.8141 134.734 50.4553 134.621 51.2603 134.479C52.0318 134.343 52.9537 134.18 54.7064 134.589C56.1351 134.917 57.3075 135.971 58.4289 136.98C59.1064 137.589 59.7654 138.181 60.4509 138.587C59.7302 137.368 59.0978 136.071 58.5564 134.698C57.3284 133.868 55.8764 133.361 54.4331 132.858C51.4436 131.816 48.491 130.786 47.642 126.916C48.7504 127.746 49.4013 127.761 50.2185 127.781C51.0018 127.799 51.9377 127.821 53.5754 128.568C54.9113 129.171 55.853 130.436 56.7538 131.645C57.1729 132.208 57.5833 132.759 58.0203 133.226C57.617 132.021 57.2794 130.763 57.0092 129.453C55.9967 127.977 54.464 126.944 52.9423 125.918C50.3172 124.148 47.7246 122.4 47.8902 118.441C48.7503 119.526 49.3759 119.707 50.1612 119.934C50.9138 120.152 51.8132 120.412 53.2065 121.551C54.3445 122.475 54.9328 123.937 55.4955 125.337C55.8635 126.252 56.2206 127.14 56.7134 127.832C56.412 125.938 56.2442 123.945 56.2147 121.856C55.3604 120.388 54.0186 119.25 52.686 118.12C50.2711 116.073 47.886 114.051 48.4852 110.134C49.221 111.307 49.8229 111.555 50.5786 111.867C51.3028 112.166 52.1682 112.523 53.428 113.808C54.4577 114.852 54.8819 116.37 55.2876 117.823C55.5786 118.864 55.8602 119.872 56.349 120.647C56.2707 118.986 55.9752 117.274 55.6773 115.547C54.7733 110.308 53.8459 104.934 58.8884 100.44C62.6088 105.876 61.3322 109.919 60.0664 113.929C59.3703 116.134 58.6775 118.329 58.8207 120.739C59.3467 119.953 59.6392 118.906 59.9419 117.823C60.3476 116.37 60.7717 114.852 61.8014 113.808C63.0613 112.523 63.9267 112.166 64.6509 111.867C65.4065 111.555 66.0084 111.307 66.7442 110.134C67.3434 114.051 64.9584 116.073 62.5435 118.12C61.2158 119.246 59.879 120.379 59.0243 121.839C59.0598 124.264 59.2925 126.527 59.7078 128.626C60.0506 127.93 60.2819 127.102 60.5194 126.251C60.9252 124.799 61.3493 123.281 62.379 122.237C63.6388 120.952 64.5042 120.595 65.2285 120.296C65.9841 119.984 66.586 119.736 67.3218 118.563C67.921 122.48 65.5359 124.502 63.1211 126.549C61.9605 127.533 60.7931 128.523 59.9467 129.732C60.554 132.315 61.4496 134.636 62.6043 136.695C63.2016 134.634 62.5863 131.684 63.8626 129.631C65.7933 126.501 66.9738 127.515 67.8719 124.956C70.0313 130.45 64.8007 133.306 63.113 137.557C64.0713 139.105 65.1849 140.493 66.4398 141.718C66.9973 142.263 67.5851 142.778 68.2026 143.263C68.2733 142.361 68.0661 141.351 67.852 140.308C67.5488 138.831 67.2319 137.287 67.6707 135.888C68.2036 134.169 68.81 133.456 69.3175 132.859C69.847 132.236 70.2688 131.74 70.3869 130.36C72.7105 133.57 71.5137 136.459 70.3019 139.384C69.7016 140.832 69.0977 142.29 68.9162 143.8C70.5746 144.998 72.4306 145.991 74.4724 146.768C74.7804 146.886 75.0926 146.998 75.409 147.105C75.409 144.744 72.5993 142.255 72.5993 139.445C72.5865 135.768 74.1242 136.005 73.5359 133.358C78.5658 137.104 74.9407 142.723 76.3455 147.405C77.6809 147.808 79.0867 148.126 80.5599 148.357C81.0282 146.469 78.2186 143.66 78.2186 141.318C78.2186 138.977 79.1551 138.977 78.6868 136.636C83.8378 140.85 80.5599 143.728 81.4965 148.491C82.8477 148.666 84.2532 148.77 85.7109 148.801C82.9013 145.981 84.7744 139.445 86.6475 138.509Z" fill="#F6C808"/>
<path d="M86.6471 181.518L130.196 205.399V219.447L86.6471 196.034L43.0984 219.447V205.399L86.6471 181.518Z" fill="#F6C808"/>
<path d="M86.6471 67.5176L130.196 91.3993V105.447L86.6471 82.0339L43.0984 105.447V91.3993L86.6471 67.5176Z" fill="#F6C808"/>
<path d="M86.6471 47.5176L130.196 71.3993V85.4474L86.6471 62.0339L43.0984 85.4474V71.3993L86.6471 47.5176Z" fill="#F6C808"/>
</svg>
