<svg width="124" height="242" viewBox="0 0 124 242" fill="none" xmlns="http://www.w3.org/2000/svg">
<path d="M95.3389 0.486816H27.5167C15.5627 0.486816 5.79623 10.0322 5.52249 21.9831L1.00959 219.009C0.726845 231.354 10.6563 241.513 23.0038 241.513H100.648C113.031 241.513 122.974 231.298 122.64 218.921L117.331 21.8942C117.01 9.97908 107.258 0.486816 95.3389 0.486816Z" fill="#121212"/>
<path d="M94.3471 113.16C97.1771 115.363 99.4835 118.72 101.256 122.85C101.225 121.694 101.256 120.475 101.352 119.227C99.7218 115.138 98.7069 113.059 96.738 109.609C96.4764 109.661 96.2016 109.693 95.9179 109.701C94.0825 109.749 92.5675 108.77 92.534 107.512C92.5005 106.255 93.9613 105.196 95.7968 105.147C97.6322 105.098 99.1472 106.078 99.1807 107.335C99.1952 107.88 98.9297 108.387 98.475 108.791C100.03 111.929 100.784 113.621 101.683 116.383C101.99 114.412 102.466 112.431 103.13 110.561C103.683 109.003 104.367 107.524 105.193 106.192C105.198 106.184 105.203 106.176 105.208 106.168C105.211 106.162 105.216 106.156 105.219 106.15C105.237 106.122 105.254 106.094 105.272 106.066C107.379 102.731 110.396 100.358 114.508 100.092C114.951 116.767 108.311 120.072 106.516 131.001C108.282 128.82 109.306 127.688 111.142 125.83C110.891 125.554 110.742 125.228 110.733 124.876C110.705 123.828 111.922 122.946 113.452 122.905C114.981 122.865 116.244 123.681 116.272 124.729C116.3 125.777 115.082 126.659 113.553 126.7C113.3 126.707 113.054 126.69 112.82 126.653C109.999 129.351 108.591 130.914 106.188 133.732C106.088 135.015 106.053 136.474 106.093 137.985C105.296 139.255 104.63 140.662 104.084 142.144C104.047 142.243 104.012 142.342 103.976 142.441C102.083 133.757 92.6565 132.952 92.3133 120.05C92.2527 117.773 92.7056 113.963 94.3471 113.16Z" fill="#F6C808"/>
<path d="M93.4991 81.2833C96.3291 83.4866 98.6355 86.843 100.408 90.9731C100.377 89.8171 100.408 88.5983 100.504 87.3499C98.8738 83.2613 97.8589 81.1822 95.89 77.7317C95.6284 77.7845 95.3536 77.8162 95.0699 77.8238C93.2345 77.8726 91.7195 76.8928 91.686 75.6353C91.6525 74.3777 93.1133 73.3188 94.9488 73.2699C96.7842 73.2211 98.2992 74.2009 98.3327 75.4584C98.3472 76.0028 98.0816 76.5099 97.627 76.914C99.1817 80.052 99.936 81.7441 100.835 84.506C101.127 82.6333 101.571 80.7507 102.184 78.9637C102.766 77.2674 103.501 75.6573 104.402 74.2237C106.511 70.8703 109.534 68.4822 113.66 68.2151C114.103 84.8906 107.463 88.1954 105.668 99.1242C107.434 96.9433 108.458 95.8107 110.294 93.9535C110.043 93.6775 109.894 93.3516 109.885 92.9996C109.857 91.9516 111.074 91.0691 112.604 91.0285C114.133 90.9878 115.396 91.8043 115.424 92.8522C115.452 93.9001 114.234 94.7826 112.705 94.8233C112.452 94.83 112.206 94.8133 111.972 94.7759C109.151 97.4746 107.743 99.0371 105.34 101.855C105.24 103.138 105.231 104.555 105.272 106.066C105.254 106.094 105.237 106.122 105.219 106.15L105.208 106.168L105.193 106.192C104.367 107.524 103.683 109.003 103.13 110.561C101.192 101.957 91.8074 101.033 91.4653 88.173C91.4047 85.8961 91.8576 82.0865 93.4991 81.2833Z" fill="#F6C808"/>
<path fill-rule="evenodd" clip-rule="evenodd" d="M103.517 43.1974L103.569 43.1139C103.552 43.1417 103.535 43.1695 103.517 43.1974Z" fill="#F6C808"/>
<path d="M92.6713 50.1655C95.5013 52.3687 97.8077 55.7252 99.5804 59.8553C99.5497 58.6993 99.5798 57.4804 99.6761 56.2321C98.046 52.1434 97.0311 50.0644 95.0622 46.6139C94.8006 46.6667 94.5258 46.6984 94.2421 46.7059C92.4067 46.7548 90.8916 45.7749 90.8582 44.5174C90.8247 43.2599 92.2855 42.2009 94.121 42.1521C95.9564 42.1033 97.4714 43.0831 97.5049 44.3406C97.5193 44.8849 97.2538 45.3921 96.7992 45.7962C98.3539 48.9342 99.1081 50.6263 100.007 53.3881C100.314 51.4177 100.79 49.4361 101.454 47.5665C102.007 46.0087 102.691 44.5286 103.517 43.1974L103.569 43.1139C105.678 39.7563 108.703 37.3646 112.832 37.0973C113.276 53.7728 106.635 57.0776 104.84 68.0063C106.606 65.8255 107.63 64.6929 109.466 62.8357C109.215 62.5596 109.066 62.2337 109.057 61.8817C109.029 60.8338 110.247 59.9513 111.776 59.9106C113.306 59.8699 114.568 60.6865 114.596 61.7344C114.624 62.7823 113.407 63.6648 111.877 63.7055C111.624 63.7122 111.378 63.6955 111.144 63.6581C108.323 66.3568 106.915 67.9193 104.512 70.737C104.428 71.8217 104.388 72.9791 104.402 74.2237C103.501 75.6573 102.766 77.2674 102.184 78.9637C100.013 70.8004 90.9731 69.6718 90.6374 57.0552C90.5769 54.7783 91.0298 50.9687 92.6713 50.1655Z" fill="#F6C808"/>
<path d="M95.1946 145.026C98.0246 147.229 100.331 150.586 102.104 154.716C102.073 153.56 102.103 152.341 102.199 151.092C100.569 147.004 99.5544 144.925 97.5855 141.474C97.3238 141.527 97.0491 141.559 96.7654 141.566C94.9299 141.615 93.4149 140.635 93.3815 139.378C93.348 138.12 94.8088 137.061 96.6442 137.012C98.4797 136.964 99.9947 137.943 100.028 139.201C100.043 139.745 99.7771 140.252 99.3224 140.657C100.877 143.795 101.631 145.487 102.53 148.248C102.838 146.278 103.313 144.296 103.977 142.427C104.53 140.869 105.214 139.389 106.04 138.058C106.045 138.05 106.05 138.042 106.055 138.034C106.059 138.028 106.063 138.022 106.067 138.016C106.084 137.988 106.102 137.96 106.119 137.932C108.227 134.597 111.244 132.224 115.355 131.958C115.799 148.633 109.158 151.938 107.363 162.867C109.129 160.686 110.153 159.553 111.99 157.696C111.738 157.42 111.59 157.094 111.58 156.742C111.553 155.694 112.77 154.812 114.299 154.771C115.829 154.73 117.091 155.547 117.119 156.595C117.147 157.643 115.93 158.525 114.4 158.566C114.147 158.573 113.901 158.556 113.667 158.518C110.847 161.217 109.439 162.78 107.036 165.597C106.935 166.881 106.9 168.34 106.941 169.851C106.143 171.12 105.477 172.527 104.931 174.01C104.895 174.109 104.859 174.208 104.824 174.307C102.93 165.623 93.504 164.818 93.1607 151.916C93.1002 149.639 93.5531 145.829 95.1946 145.026Z" fill="#F6C808"/>
<path d="M96.0426 176.903C98.8726 179.106 101.179 182.462 102.952 186.592C102.921 185.436 102.951 184.218 103.047 182.969C101.417 178.881 100.402 176.801 98.4335 173.351C98.1718 173.404 97.8971 173.435 97.6134 173.443C95.7779 173.492 94.2629 172.512 94.2295 171.255C94.196 169.997 95.6568 168.938 97.4922 168.889C99.3277 168.84 100.843 169.82 100.876 171.078C100.891 171.622 100.625 172.129 100.17 172.533C101.725 175.671 102.479 177.363 103.378 180.125C103.686 178.155 104.161 176.173 104.825 174.304C105.378 172.746 106.062 171.266 106.888 169.935C106.893 169.927 106.898 169.919 106.903 169.911C106.907 169.905 106.911 169.898 106.915 169.892C106.932 169.865 106.95 169.837 106.967 169.809C109.075 166.473 112.092 164.101 116.203 163.834C116.647 180.51 110.006 183.815 108.211 194.743C109.977 192.563 111.001 191.43 112.838 189.573C112.586 189.297 112.438 188.971 112.428 188.619C112.401 187.571 113.618 186.688 115.147 186.648C116.677 186.607 117.939 187.424 117.967 188.471C117.995 189.519 116.778 190.402 115.248 190.443C114.995 190.449 114.749 190.433 114.515 190.395C111.695 193.094 110.287 194.656 107.884 197.474C107.783 198.758 107.748 200.217 107.789 201.728C106.991 202.997 106.325 204.404 105.779 205.887C105.743 205.986 105.707 206.085 105.672 206.184C103.778 197.5 94.352 196.695 94.0087 183.792C93.9482 181.515 94.4011 177.706 96.0426 176.903Z" fill="#F6C808"/>
<path d="M96.8906 208.779C99.7206 210.983 102.027 214.339 103.8 218.469C103.769 217.313 103.799 216.094 103.895 214.846C102.265 210.757 101.25 208.678 99.2815 205.228C99.0198 205.281 98.7451 205.312 98.4614 205.32C96.626 205.369 95.1109 204.389 95.0775 203.131C95.044 201.874 96.5048 200.815 98.3402 200.766C100.176 200.717 101.691 201.697 101.724 202.954C101.739 203.499 101.473 204.006 101.018 204.41C102.573 207.548 103.327 209.24 104.226 212.002C104.534 210.032 105.009 208.05 105.673 206.18C106.226 204.623 106.91 203.143 107.736 201.812C107.741 201.804 107.746 201.796 107.751 201.787C107.755 201.782 107.759 201.775 107.763 201.769C107.78 201.741 107.798 201.714 107.815 201.686C109.923 198.35 112.94 195.977 117.051 195.711C117.495 212.387 110.854 215.691 109.059 226.62C110.825 224.439 111.849 223.307 113.686 221.45C113.434 221.174 113.286 220.848 113.276 220.496C113.249 219.448 114.466 218.565 115.995 218.525C117.525 218.484 118.787 219.3 118.815 220.348C118.843 221.396 117.626 222.279 116.096 222.319C115.843 222.326 115.597 222.309 115.363 222.272C112.543 224.971 111.135 226.533 108.732 229.351C108.631 230.634 108.596 232.094 108.637 233.605C107.839 234.874 107.173 236.281 106.627 237.764C106.591 237.862 106.555 237.961 106.52 238.061C104.626 229.377 95.2 228.572 94.8567 215.669C94.7962 213.392 95.2491 209.583 96.8906 208.779Z" fill="#F6C808"/>
<path d="M28.2047 113.16C25.3747 115.363 23.0682 118.72 21.2955 122.85C21.3263 121.694 21.2962 120.475 21.1999 119.227C22.83 115.138 23.8448 113.059 25.8137 109.609C26.0754 109.661 26.3502 109.693 26.6339 109.701C28.4693 109.749 29.9843 108.77 30.0178 107.512C30.0512 106.255 28.5904 105.196 26.755 105.147C24.9196 105.098 23.4046 106.078 23.3711 107.335C23.3566 107.88 23.6221 108.387 24.0768 108.791C22.5221 111.929 21.7678 113.621 20.8691 116.383C20.5617 114.412 20.0861 112.431 19.4222 110.561C18.869 109.003 18.1852 107.524 17.359 106.192C17.354 106.184 17.349 106.176 17.344 106.168C17.3403 106.162 17.3363 106.156 17.3326 106.15C17.3152 106.122 17.2977 106.094 17.2802 106.066C15.1723 102.731 12.1557 100.358 8.04393 100.092C7.60032 116.767 14.2412 120.072 16.0358 131.001C14.2702 128.82 13.2461 127.688 11.4095 125.83C11.6608 125.554 11.8095 125.228 11.8188 124.876C11.8467 123.828 10.6294 122.946 9.09988 122.905C7.57036 122.865 6.30784 123.681 6.27996 124.729C6.25208 125.777 7.46941 126.659 8.99893 126.7C9.25216 126.707 9.49807 126.69 9.73227 126.653C12.5527 129.351 13.9607 130.914 16.3635 133.732C16.4639 135.015 16.4988 136.474 16.4586 137.985C17.2559 139.255 17.9222 140.662 18.468 142.144C18.5043 142.243 18.5401 142.342 18.5754 142.441C20.4692 133.757 29.8953 132.952 30.2385 120.05C30.2991 117.773 29.8461 113.963 28.2047 113.16Z" fill="#F6C808"/>
<path d="M29.0527 81.2833C26.2227 83.4866 23.9162 86.843 22.1435 90.9731C22.1743 89.8171 22.1442 88.5983 22.0479 87.3499C23.678 83.2613 24.6929 81.1822 26.6617 77.7317C26.9234 77.7845 27.1982 77.8162 27.4819 77.8238C29.3173 77.8726 30.8323 76.8928 30.8658 75.6353C30.8992 74.3777 29.4384 73.3188 27.603 73.2699C25.7676 73.2211 24.2526 74.2009 24.2191 75.4584C24.2046 76.0028 24.4701 76.5099 24.9248 76.914C23.3701 80.052 22.6158 81.7441 21.7171 84.506C21.425 82.6333 20.9809 80.7507 20.3677 78.9637C19.7856 77.2674 19.0512 75.6573 18.1496 74.2237C16.0408 70.8703 13.0177 68.4822 8.89193 68.2151C8.44832 84.8906 15.0892 88.1954 16.8838 99.1242C15.1182 96.9433 14.0941 95.8107 12.2575 93.9535C12.5088 93.6775 12.6575 93.3516 12.6669 92.9996C12.6947 91.9516 11.4774 91.0691 9.94788 91.0285C8.41836 90.9878 7.15584 91.8043 7.12796 92.8522C7.10008 93.9001 8.31741 94.7826 9.84693 94.8233C10.1002 94.83 10.3461 94.8133 10.5803 94.7759C13.4007 97.4746 14.8087 99.0371 17.2115 101.855C17.3119 103.138 17.3204 104.555 17.2802 106.066C17.2977 106.094 17.3152 106.122 17.3326 106.15L17.344 106.168L17.359 106.192C18.1852 107.524 18.869 109.003 19.4222 110.561C21.3596 101.957 30.7444 101.033 31.0865 88.173C31.1471 85.8961 30.6942 82.0865 29.0527 81.2833Z" fill="#F6C808"/>
<path fill-rule="evenodd" clip-rule="evenodd" d="M19.0346 43.1974L18.9825 43.1139C18.9999 43.1417 19.0173 43.1695 19.0346 43.1974Z" fill="#F6C808"/>
<path d="M29.8805 50.1655C27.0505 52.3687 24.7441 55.7252 22.9713 59.8553C23.0021 58.6993 22.972 57.4804 22.8757 56.2321C24.5058 52.1434 25.5207 50.0644 27.4896 46.6139C27.7512 46.6667 28.026 46.6984 28.3097 46.7059C30.1451 46.7548 31.6601 45.7749 31.6936 44.5174C31.727 43.2599 30.2663 42.2009 28.4308 42.1521C26.5954 42.1033 25.0804 43.0831 25.0469 44.3406C25.0324 44.8849 25.2979 45.3921 25.7526 45.7962C24.1979 48.9342 23.4436 50.6263 22.5449 53.3881C22.2375 51.4177 21.7619 49.4361 21.098 47.5665C20.5448 46.0087 19.8608 44.5286 19.0346 43.1974L18.9825 43.1139C16.8734 39.7563 13.8488 37.3646 9.71974 37.0973C9.27613 53.7728 15.917 57.0776 17.7116 68.0063C15.946 65.8255 14.9219 64.6929 13.0853 62.8357C13.3366 62.5596 13.4853 62.2337 13.4947 61.8817C13.5225 60.8338 12.3052 59.9513 10.7757 59.9106C9.24617 59.8699 7.98365 60.6865 7.95577 61.7344C7.9279 62.7823 9.14522 63.6648 10.6747 63.7055C10.928 63.7122 11.1739 63.6955 11.4081 63.6581C14.2285 66.3568 15.6365 67.9193 18.0393 70.737C18.1242 71.8217 18.1637 72.9791 18.1496 74.2237C19.0512 75.6573 19.7856 77.2674 20.3677 78.9637C22.5388 70.8004 31.5787 69.6718 31.9143 57.0552C31.9749 54.7783 31.522 50.9687 29.8805 50.1655Z" fill="#F6C808"/>
<path d="M27.3572 145.026C24.5272 147.229 22.2208 150.586 20.4481 154.716C20.4788 153.56 20.4487 152.341 20.3524 151.092C21.9825 147.004 22.9974 144.925 24.9663 141.474C25.2279 141.527 25.5027 141.559 25.7864 141.566C27.6218 141.615 29.1369 140.635 29.1703 139.378C29.2038 138.12 27.743 137.061 25.9075 137.012C24.0721 136.964 22.5571 137.943 22.5236 139.201C22.5092 139.745 22.7747 140.252 23.2293 140.657C21.6746 143.795 20.9204 145.487 20.0216 148.248C19.7142 146.278 19.2386 144.296 18.5747 142.427C18.0215 140.869 17.3377 139.389 16.5116 138.058C16.5065 138.05 16.5015 138.042 16.4965 138.034C16.4929 138.028 16.4888 138.022 16.4851 138.016C16.4677 137.988 16.4502 137.96 16.4327 137.932C14.3248 134.597 11.3082 132.224 7.19647 131.958C6.75286 148.633 13.3937 151.938 15.1883 162.867C13.4227 160.686 12.3986 159.553 10.562 157.696C10.8133 157.42 10.962 157.094 10.9714 156.742C10.9993 155.694 9.78194 154.812 8.25242 154.771C6.72289 154.73 5.46037 155.547 5.4325 156.595C5.40462 157.643 6.62194 158.525 8.15146 158.566C8.40469 158.573 8.65061 158.556 8.88481 158.518C11.7053 161.217 13.1132 162.78 15.5161 165.597C15.6164 166.881 15.6514 168.34 15.6112 169.851C16.4084 171.12 17.0748 172.527 17.6205 174.01C17.6569 174.109 17.6927 174.208 17.7279 174.307C19.6218 165.623 29.0478 164.818 29.3911 151.916C29.4516 149.639 28.9987 145.829 27.3572 145.026Z" fill="#F6C808"/>
<path d="M26.5092 176.903C23.6792 179.106 21.3728 182.462 19.6001 186.592C19.6308 185.436 19.6007 184.218 19.5044 182.969C21.1345 178.881 22.1494 176.801 24.1183 173.351C24.3799 173.404 24.6547 173.435 24.9384 173.443C26.7738 173.492 28.2889 172.512 28.3223 171.255C28.3558 169.997 26.895 168.938 25.0595 168.889C23.2241 168.84 21.7091 169.82 21.6756 171.078C21.6612 171.622 21.9267 172.129 22.3813 172.533C20.8266 175.671 20.0724 177.363 19.1736 180.125C18.8662 178.155 18.3906 176.173 17.7267 174.304C17.1735 172.746 16.4897 171.266 15.6636 169.935C15.6585 169.927 15.6535 169.919 15.6485 169.911C15.6448 169.905 15.6408 169.898 15.6371 169.892C15.6197 169.865 15.6022 169.837 15.5847 169.809C13.4768 166.473 10.4602 164.101 6.34846 163.834C5.90485 180.51 12.5457 183.815 14.3403 194.743C12.5747 192.563 11.5506 191.43 9.71402 189.573C9.96534 189.297 10.114 188.971 10.1234 188.619C10.1513 187.571 8.93394 186.688 7.40441 186.648C5.87489 186.607 4.61237 187.424 4.58449 188.471C4.55662 189.519 5.77394 190.402 7.30346 190.443C7.55669 190.449 7.8026 190.433 8.03681 190.395C10.8572 193.094 12.2652 194.656 14.6681 197.474C14.7684 198.758 14.8034 200.217 14.7632 201.728C15.5604 202.997 16.2268 204.404 16.7725 205.887C16.8089 205.986 16.8447 206.085 16.8799 206.184C18.7738 197.5 28.1998 196.695 28.5431 183.792C28.6036 181.515 28.1507 177.706 26.5092 176.903Z" fill="#F6C808"/>
<path d="M25.6612 208.779C22.8312 210.983 20.5248 214.339 18.7521 218.469C18.7828 217.313 18.7527 216.094 18.6564 214.846C20.2865 210.757 21.3014 208.678 23.2703 205.228C23.5319 205.281 23.8067 205.312 24.0904 205.32C25.9258 205.369 27.4409 204.389 27.4743 203.131C27.5078 201.874 26.047 200.815 24.2115 200.766C22.3761 200.717 20.8611 201.697 20.8276 202.954C20.8132 203.499 21.0787 204.006 21.5333 204.41C19.9786 207.548 19.2244 209.24 18.3256 212.002C18.0182 210.032 17.5426 208.05 16.8787 206.18C16.3255 204.623 15.6417 203.143 14.8156 201.812C14.8105 201.804 14.8055 201.796 14.8005 201.787C14.7968 201.782 14.7928 201.775 14.7891 201.769C14.7717 201.741 14.7542 201.714 14.7367 201.686C12.6288 198.35 9.61224 195.977 5.50046 195.711C5.05685 212.387 11.6977 215.691 13.4923 226.62C11.7267 224.439 10.7026 223.307 8.86602 221.45C9.11734 221.174 9.26602 220.848 9.27538 220.496C9.30326 219.448 8.08594 218.565 6.55641 218.525C5.02689 218.484 3.76437 219.3 3.73649 220.348C3.70862 221.396 4.92594 222.279 6.45546 222.319C6.70869 222.326 6.9546 222.309 7.18881 222.272C10.0092 224.971 11.4172 226.533 13.8201 229.351C13.9204 230.634 13.9554 232.094 13.9152 233.605C14.7124 234.874 15.3788 236.281 15.9245 237.764C15.9609 237.862 15.9967 237.961 16.0319 238.061C17.9258 229.377 27.3518 228.572 27.695 215.669C27.7556 213.392 27.3027 209.583 25.6612 208.779Z" fill="#F6C808"/>
<path fill-rule="evenodd" clip-rule="evenodd" d="M67.7898 135.815L61.8716 145.692L55.9534 135.815L46.0897 137.79V126.926L37.7055 121L46.0897 115.074V104.21L55.9534 106.185L61.8716 96.3087L67.7898 106.185L77.6535 104.21V115.074L86.0376 121L77.6535 126.926V137.79L67.7898 135.815ZM64.8307 130.877H58.9125V123.963H52.0079V118.037H58.9125V111.124H64.8307V118.037H71.7353V123.963H64.8307V130.877Z" fill="#F9F5F3"/>
<path d="M64.8307 130.877V123.963H71.7353V118.037H64.8307V111.124H58.9125V118.037H52.0079V123.963H58.9125V130.877H64.8307Z" fill="#474E58"/>
<path fill-rule="evenodd" clip-rule="evenodd" d="M98.7324 27.9785C96.9597 23.8484 94.6533 20.492 91.8233 18.2887C90.1818 19.0919 89.7289 22.9015 89.7894 25.1784C89.9879 32.6387 93.2297 36.0822 96.2953 39.3386C98.514 41.6954 100.64 43.9541 101.454 47.5665C102.007 46.0087 102.691 44.5286 103.517 43.1974L103.569 43.1139C103.529 41.6028 103.564 40.1437 103.664 38.8602C106.067 36.0425 107.475 34.48 110.296 31.7813C110.53 31.8187 110.776 31.8354 111.029 31.8287C112.559 31.788 113.776 30.9055 113.748 29.8576C113.72 28.8097 112.458 27.9932 110.928 28.0338C109.399 28.0745 108.181 28.957 108.209 30.0049C108.218 30.357 108.367 30.6828 108.618 30.9589C106.782 32.8161 105.758 33.9487 103.992 36.1296C104.687 31.9008 106.107 28.8135 107.561 25.6514C109.638 21.1362 111.785 16.4684 111.989 8.10695C111.23 7.22859 110.402 6.41118 109.515 5.66284C103.401 7.51558 100.24 14.5818 99.1589 21.5114C98.2601 18.7495 97.5059 17.0574 95.9512 13.9194C96.4058 13.5153 96.6713 13.0081 96.6569 12.4638C96.6234 11.2063 95.1084 10.2265 93.2729 10.2753C91.4375 10.3241 89.9767 11.3831 90.0102 12.6406C90.0436 13.8981 91.5587 14.878 93.3941 14.8291C93.6778 14.8216 93.9526 14.7899 94.2142 14.7371C96.1831 18.1876 97.198 20.2666 98.8281 24.3553C98.7318 25.6036 98.7017 26.8225 98.7324 27.9785Z" fill="#F6C808"/>
<path fill-rule="evenodd" clip-rule="evenodd" d="M23.8193 27.9785C25.5921 23.8484 27.8985 20.492 30.7285 18.2887C32.37 19.0919 32.8229 22.9015 32.7623 25.1784C32.5639 32.6387 29.3221 36.0822 26.2565 39.3386C24.0378 41.6954 21.9114 43.9541 21.098 47.5665C20.5448 46.0087 19.8608 44.5286 19.0346 43.1974L18.9825 43.1139C19.0227 41.6028 18.9877 40.1437 18.8873 38.8602C16.4845 36.0425 15.0765 34.48 12.2561 31.7813C12.0219 31.8187 11.776 31.8354 11.5227 31.8287C9.99322 31.788 8.7759 30.9055 8.80377 29.8576C8.83165 28.8097 10.0942 27.9932 11.6237 28.0338C13.1532 28.0745 14.3705 28.957 14.3427 30.0049C14.3333 30.357 14.1846 30.6828 13.9333 30.9589C15.7699 32.8161 16.794 33.9487 18.5596 36.1296C17.8652 31.9008 16.4452 28.8135 14.9908 25.6514C12.943 21.1991 10.827 16.5985 10.5721 8.45446C11.3873 7.47121 12.2864 6.56033 13.2581 5.73265C19.2269 7.68722 22.325 14.666 23.3929 21.5114C24.2916 18.7495 25.0459 17.0574 26.6006 13.9194C26.1459 13.5153 25.8804 13.0081 25.8949 12.4638C25.9284 11.2063 27.4434 10.2265 29.2788 10.2753C31.1143 10.3241 32.575 11.3831 32.5416 12.6406C32.5081 13.8981 30.9931 14.878 29.1577 14.8291C28.874 14.8216 28.5992 14.7899 28.3376 14.7371C26.3687 18.1876 25.3538 20.2666 23.7237 24.3553C23.82 25.6036 23.8501 26.8225 23.8193 27.9785Z" fill="#F6C808"/>
</svg>
