<svg width="125" height="250" viewBox="0 0 125 250" fill="none" xmlns="http://www.w3.org/2000/svg">
<path d="M0.249023 22.5C0.249023 10.3497 10.0988 0.5 22.249 0.5H102.249C114.399 0.5 124.249 10.3497 124.249 22.5V227.5C124.249 239.65 114.399 249.5 102.249 249.5H22.249C10.0988 249.5 0.249023 239.65 0.249023 227.5V22.5Z" fill="#C5A869"/>
<path fill-rule="evenodd" clip-rule="evenodd" d="M102.249 11.5H22.249C16.1739 11.5 11.249 16.4249 11.249 22.5V227.5C11.249 233.575 16.1739 238.5 22.249 238.5H102.249C108.324 238.5 113.249 233.575 113.249 227.5V22.5C113.249 16.4249 108.324 11.5 102.249 11.5ZM22.249 0.5C10.0988 0.5 0.249023 10.3497 0.249023 22.5V227.5C0.249023 239.65 10.0988 249.5 22.249 249.5H102.249C114.399 249.5 124.249 239.65 124.249 227.5V22.5C124.249 10.3497 114.399 0.5 102.249 0.5H22.249Z" fill="#A68C55"/>
<path d="M27.1569 235.5C33.4237 231.126 38.6818 219.047 38.2208 212.936C32.2314 215.186 30.1537 218.244 27.1569 224.688C28.5399 213.876 36.3769 212.466 36.3769 196.483C36.3769 193.662 35.9159 188.962 34.5329 188.021C32.2279 190.842 30.3839 195.073 29.0009 200.244C29.0009 198.812 28.9489 197.304 28.8412 195.762C30.1065 190.647 30.9046 188.04 32.4657 183.704C32.6845 183.76 32.9138 183.791 33.1499 183.791C34.6775 183.791 35.9159 182.528 35.9159 180.97C35.9159 179.412 34.6775 178.15 33.1499 178.15C31.6223 178.15 30.3839 179.412 30.3839 180.97C30.3839 181.644 30.6159 182.263 31.003 182.749C29.7794 186.684 29.1895 188.804 28.5032 192.252C27.3173 182.627 23.931 172.874 17.476 172.509C17.476 193.165 23.0724 197.037 24.8067 210.507C23.29 207.865 22.4132 206.497 20.8446 204.258C21.0475 203.908 21.164 203.5 21.164 203.064C21.164 201.766 20.132 200.714 18.859 200.714C17.586 200.714 16.554 201.766 16.554 203.064C16.554 204.362 17.586 205.415 18.859 205.415C19.0697 205.415 19.2739 205.386 19.4679 205.332C21.8733 208.579 23.0789 210.467 25.1397 213.876C25.2516 215.462 25.3129 217.175 25.3129 219.047C23.469 214.346 20.242 211.056 14.249 209.645C15.632 221.397 21.164 228.919 27.1569 235.5Z" fill="black"/>
<path d="M25.3129 179.651C26.0501 181.299 26.6669 183.146 27.172 185.098C28.555 174.286 36.3769 172.979 36.3769 156.996C36.3769 154.175 35.9159 149.474 34.5329 148.534C32.2279 151.355 30.3839 155.585 29.0009 160.756C29.0009 159.324 28.9489 157.817 28.8412 156.274C30.1065 151.16 30.9046 148.553 32.4657 144.216C32.6845 144.273 32.9138 144.303 33.1499 144.303C34.6775 144.303 35.9159 143.041 35.9159 141.483C35.9159 139.925 34.6775 138.662 33.1499 138.662C31.6223 138.662 30.3839 139.925 30.3839 141.483C30.3839 142.157 30.6159 142.776 31.003 143.261C29.7794 147.197 29.1895 149.317 28.5032 152.765C28.2039 150.336 27.7645 147.899 27.1709 145.606C25.4126 138.815 22.3019 133.295 17.476 133.021C17.476 153.678 23.0724 157.55 24.8067 171.02C23.29 168.378 22.4132 167.01 20.8446 164.771C21.0475 164.421 21.164 164.013 21.164 163.577C21.164 162.279 20.132 161.227 18.859 161.227C17.586 161.227 16.554 162.279 16.554 163.577C16.554 164.875 17.586 165.927 18.859 165.927C19.0697 165.927 19.2739 165.898 19.4679 165.844C21.8733 169.092 23.0789 170.98 25.1397 174.389C25.2516 175.974 25.3129 177.779 25.3129 179.651Z" fill="black"/>
<path d="M34.5329 109.047C32.2279 111.868 30.3839 116.098 29.0009 121.269C29.0009 119.837 28.9489 118.329 28.8412 116.787C30.1065 111.672 30.9046 109.065 32.4657 104.729C32.6845 104.786 32.9138 104.816 33.1499 104.816C34.6775 104.816 35.9159 103.553 35.9159 101.996C35.9159 100.438 34.6775 99.1752 33.1499 99.1752C31.6223 99.1752 30.3839 100.438 30.3839 101.996C30.3839 102.67 30.6159 103.289 31.003 103.774C29.7794 107.71 29.1895 109.829 28.5032 113.278C28.2188 110.969 27.8078 108.653 27.2582 106.462C26.7366 104.381 26.0901 102.412 25.3086 100.667C23.4805 96.5855 20.9133 93.7289 17.476 93.5342C17.476 114.191 23.0724 118.063 24.8067 131.532C23.29 128.891 22.4132 127.523 20.8446 125.284C21.0475 124.934 21.164 124.526 21.164 124.09C21.164 122.792 20.132 121.739 18.859 121.739C17.586 121.739 16.554 122.792 16.554 124.09C16.554 125.388 17.586 126.44 18.859 126.44C19.0697 126.44 19.2739 126.411 19.4679 126.357C21.8733 129.605 23.0789 131.493 25.1397 134.902C25.2516 136.487 25.29 138.241 25.29 140.113C26.0367 141.772 26.6608 143.636 27.1709 145.606C28.5919 134.892 36.3769 133.438 36.3769 117.509C36.3769 114.688 35.9159 109.987 34.5329 109.047Z" fill="black"/>
<path d="M34.5329 70.5C32.2279 73.3205 30.3839 77.5513 29.0009 82.7222C29.0009 81.2902 28.9489 79.7824 28.8412 78.2402C30.1065 73.1254 30.9046 70.5184 32.4657 66.1823C32.6845 66.2391 32.9138 66.2692 33.1499 66.2692C34.6775 66.2692 35.9159 65.0064 35.9159 63.4487C35.9159 61.891 34.6775 60.6282 33.1499 60.6282C31.6223 60.6282 30.3839 61.891 30.3839 63.4487C30.3839 64.123 30.6159 64.742 31.003 65.2273C29.7794 69.1629 29.1895 71.2823 28.5032 74.7308C28.2039 72.3017 27.7645 69.8644 27.1709 67.572C25.4126 60.7809 22.3019 55.2606 17.476 54.9872C17.476 75.6438 23.0724 79.5161 24.8067 92.9853C23.29 90.3438 22.4132 88.9756 20.8446 86.7371C21.0475 86.3871 21.164 85.9788 21.164 85.5427C21.164 84.2446 20.132 83.1923 18.859 83.1923C17.586 83.1923 16.554 84.2446 16.554 85.5427C16.554 86.8408 17.586 87.8932 18.859 87.8932C19.0697 87.8932 19.2739 87.8643 19.4679 87.8103C21.8733 91.0581 23.0789 92.9459 25.1397 96.3547C25.2343 97.6947 25.2927 99.1261 25.3086 100.667C26.0901 102.412 26.7366 104.381 27.2582 106.462C28.8834 96.285 36.3769 94.5903 36.3769 78.9615C36.3769 76.141 35.9159 71.4402 34.5329 70.5Z" fill="black"/>
<path d="M34.5329 31.0128C32.2279 33.8333 30.3839 38.0641 29.0009 43.235C29.0009 41.803 28.9489 40.2952 28.8412 38.7531C30.1065 33.6382 30.9046 31.0312 32.4657 26.6951C32.6845 26.7519 32.9138 26.7821 33.1499 26.7821C34.6775 26.7821 35.9159 25.5193 35.9159 23.9615C35.9159 22.4038 34.6775 21.141 33.1499 21.141C31.6223 21.141 30.3839 22.4038 30.3839 23.9615C30.3839 24.6358 30.6159 25.2548 31.003 25.7401C29.7794 29.6757 29.1895 31.7951 28.5032 35.2436C27.3173 25.6186 23.931 15.8657 17.476 15.5C17.476 36.1566 23.0724 40.0289 24.8067 53.4981C23.29 50.8567 22.4132 49.4884 20.8446 47.2499C21.0475 46.8999 21.164 46.4916 21.164 46.0556C21.164 44.7575 20.132 43.7051 18.859 43.7051C17.586 43.7051 16.554 44.7575 16.554 46.0556C16.554 47.3537 17.586 48.406 18.859 48.406C19.0697 48.406 19.2739 48.3771 19.4679 48.3231C21.8733 51.5709 23.0789 53.4587 25.1397 56.8675C25.2516 58.4531 25.3129 60.2581 25.3129 62.1299C26.0495 63.7764 26.666 65.6218 27.1709 67.572C28.5919 56.858 36.3769 55.4042 36.3769 39.4744C36.3769 36.6538 35.9159 31.953 34.5329 31.0128Z" fill="black"/>
<path d="M98.3411 235.5C92.0744 231.126 86.8162 219.047 87.2772 212.936C93.2667 215.186 95.3444 218.244 98.3411 224.688C96.9581 213.876 89.1212 212.466 89.1212 196.483C89.1212 193.662 89.5822 188.962 90.9652 188.021C93.2702 190.842 95.1141 195.073 96.4971 200.244C96.4971 198.812 96.5491 197.304 96.6569 195.762C95.3916 190.647 94.5935 188.04 93.0323 183.704C92.8135 183.76 92.5843 183.791 92.3482 183.791C90.8206 183.791 89.5822 182.528 89.5822 180.97C89.5822 179.412 90.8206 178.15 92.3482 178.15C93.8758 178.15 95.1141 179.412 95.1141 180.97C95.1141 181.644 94.8821 182.263 94.495 182.749C95.7186 186.684 96.3085 188.804 96.9949 192.252C98.1807 182.627 101.567 172.874 108.022 172.509C108.022 193.165 102.426 197.037 100.691 210.507C102.208 207.865 103.085 206.497 104.653 204.258C104.451 203.908 104.334 203.5 104.334 203.064C104.334 201.766 105.366 200.714 106.639 200.714C107.912 200.714 108.944 201.766 108.944 203.064C108.944 204.362 107.912 205.415 106.639 205.415C106.428 205.415 106.224 205.386 106.03 205.332C103.625 208.579 102.419 210.467 100.358 213.876C100.246 215.462 100.185 217.175 100.185 219.047C102.029 214.346 105.256 211.056 111.249 209.645C109.866 221.397 104.334 228.919 98.3411 235.5Z" fill="black"/>
<path d="M100.185 179.651C99.448 181.299 98.8312 183.146 98.326 185.098C96.943 174.286 89.1212 172.979 89.1212 156.996C89.1212 154.175 89.5822 149.474 90.9652 148.534C93.2702 151.355 95.1141 155.585 96.4971 160.756C96.4971 159.324 96.5491 157.817 96.6569 156.274C95.3916 151.16 94.5935 148.553 93.0323 144.216C92.8135 144.273 92.5843 144.303 92.3482 144.303C90.8206 144.303 89.5822 143.041 89.5822 141.483C89.5822 139.925 90.8206 138.662 92.3482 138.662C93.8758 138.662 95.1141 139.925 95.1141 141.483C95.1141 142.157 94.8821 142.776 94.495 143.261C95.7186 147.197 96.3085 149.317 96.9949 152.765C97.2942 150.336 97.7336 147.899 98.3271 145.606C100.085 138.815 103.196 133.295 108.022 133.021C108.022 153.678 102.426 157.55 100.691 171.02C102.208 168.378 103.085 167.01 104.653 164.771C104.451 164.421 104.334 164.013 104.334 163.577C104.334 162.279 105.366 161.227 106.639 161.227C107.912 161.227 108.944 162.279 108.944 163.577C108.944 164.875 107.912 165.927 106.639 165.927C106.428 165.927 106.224 165.898 106.03 165.844C103.625 169.092 102.419 170.98 100.358 174.389C100.246 175.974 100.185 177.779 100.185 179.651Z" fill="black"/>
<path d="M90.9652 109.047C93.2702 111.868 95.1141 116.098 96.4971 121.269C96.4971 119.837 96.5491 118.329 96.6569 116.787C95.3916 111.672 94.5935 109.065 93.0323 104.729C92.8135 104.786 92.5843 104.816 92.3482 104.816C90.8206 104.816 89.5822 103.553 89.5822 101.996C89.5822 100.438 90.8206 99.1752 92.3482 99.1752C93.8758 99.1752 95.1141 100.438 95.1141 101.996C95.1141 102.67 94.8821 103.289 94.495 103.774C95.7186 107.71 96.3085 109.829 96.9949 113.278C97.2793 110.969 97.6903 108.653 98.2398 106.462C98.7615 104.381 99.4079 102.412 100.189 100.667C102.018 96.5855 104.585 93.7289 108.022 93.5342C108.022 114.191 102.426 118.063 100.691 131.532C102.208 128.891 103.085 127.523 104.653 125.284C104.451 124.934 104.334 124.526 104.334 124.09C104.334 122.792 105.366 121.739 106.639 121.739C107.912 121.739 108.944 122.792 108.944 124.09C108.944 125.388 107.912 126.44 106.639 126.44C106.428 126.44 106.224 126.411 106.03 126.357C103.625 129.605 102.419 131.493 100.358 134.902C100.246 136.487 100.208 138.241 100.208 140.113C99.4613 141.772 98.8373 143.636 98.3271 145.606C96.9061 134.892 89.1212 133.438 89.1212 117.509C89.1212 114.688 89.5822 109.987 90.9652 109.047Z" fill="black"/>
<path d="M90.9652 70.5C93.2702 73.3205 95.1141 77.5513 96.4971 82.7222C96.4971 81.2902 96.5491 79.7824 96.6569 78.2402C95.3916 73.1254 94.5935 70.5184 93.0323 66.1823C92.8135 66.2391 92.5843 66.2692 92.3482 66.2692C90.8206 66.2692 89.5822 65.0064 89.5822 63.4487C89.5822 61.891 90.8206 60.6282 92.3482 60.6282C93.8758 60.6282 95.1141 61.891 95.1141 63.4487C95.1141 64.123 94.8821 64.742 94.495 65.2273C95.7186 69.1629 96.3085 71.2823 96.9949 74.7308C97.2942 72.3017 97.7336 69.8644 98.3271 67.572C100.085 60.7809 103.196 55.2606 108.022 54.9872C108.022 75.6438 102.426 79.5161 100.691 92.9853C102.208 90.3438 103.085 88.9756 104.653 86.7371C104.451 86.3871 104.334 85.9788 104.334 85.5427C104.334 84.2446 105.366 83.1923 106.639 83.1923C107.912 83.1923 108.944 84.2446 108.944 85.5427C108.944 86.8408 107.912 87.8932 106.639 87.8932C106.428 87.8932 106.224 87.8643 106.03 87.8103C103.625 91.0581 102.419 92.9459 100.358 96.3547C100.264 97.6947 100.205 99.1261 100.189 100.667C99.4079 102.412 98.7615 104.381 98.2398 106.462C96.6147 96.285 89.1212 94.5903 89.1212 78.9615C89.1212 76.141 89.5822 71.4402 90.9652 70.5Z" fill="black"/>
<path d="M90.9652 31.0128C93.2702 33.8333 95.1141 38.0641 96.4971 43.235C96.4971 41.803 96.5491 40.2952 96.6569 38.7531C95.3916 33.6382 94.5935 31.0312 93.0323 26.6951C92.8135 26.7519 92.5843 26.7821 92.3482 26.7821C90.8206 26.7821 89.5822 25.5193 89.5822 23.9615C89.5822 22.4038 90.8206 21.141 92.3482 21.141C93.8758 21.141 95.1141 22.4038 95.1141 23.9615C95.1141 24.6358 94.8821 25.2548 94.495 25.7401C95.7186 29.6757 96.3085 31.7951 96.9949 35.2436C98.1807 25.6186 101.567 15.8657 108.022 15.5C108.022 36.1566 102.426 40.0289 100.691 53.4981C102.208 50.8567 103.085 49.4884 104.653 47.2499C104.451 46.8999 104.334 46.4916 104.334 46.0556C104.334 44.7575 105.366 43.7051 106.639 43.7051C107.912 43.7051 108.944 44.7575 108.944 46.0556C108.944 47.3537 107.912 48.406 106.639 48.406C106.428 48.406 106.224 48.3771 106.03 48.3231C103.625 51.5709 102.419 53.4587 100.358 56.8675C100.246 58.4531 100.185 60.2581 100.185 62.1299C99.4485 63.7764 98.8321 65.6218 98.3271 67.572C96.9061 56.858 89.1212 55.4042 89.1212 39.4744C89.1212 36.6538 89.5822 31.953 90.9652 31.0128Z" fill="black"/>
<path fill-rule="evenodd" clip-rule="evenodd" d="M63.249 151.5L68.8817 142.1L78.2694 143.98V133.64L86.249 128L78.2694 122.36V112.02L68.8817 113.9L63.249 104.5L57.6164 113.9L48.2286 112.02V122.36L40.249 128L48.2286 133.64V143.98L57.6164 142.1L63.249 151.5ZM77.8 128L72.6368 130.82V138.34L66.5347 137.4L63.249 142.1L59.9633 137.4L53.8613 138.34V130.82L48.698 128L53.8613 125.18V117.66L59.9633 118.6L63.249 113.9L66.5347 118.6L72.6368 117.66V125.18L77.8 128Z" fill="black"/>
<path fill-rule="evenodd" clip-rule="evenodd" d="M66.0654 130.82H72.6368V125.18H66.0654V118.6H63.249H60.4327V125.18H53.8613V130.82H60.4327V137.4H63.249H66.0654V130.82Z" fill="black"/>
</svg>
