<svg width="123" height="242" viewBox="0 0 123 242" fill="none" xmlns="http://www.w3.org/2000/svg">
<path d="M94.8487 0.486816H27.0265C15.0725 0.486816 5.30599 10.0322 5.03226 21.9831L0.519357 219.009C0.236611 231.354 10.1661 241.513 22.5136 241.513H100.158C112.54 241.513 122.484 231.298 122.15 218.921L116.841 21.8942C116.52 9.97908 106.768 0.486816 94.8487 0.486816Z" fill="#121212"/>
<path d="M93.8568 113.16C96.6868 115.363 98.9932 118.72 100.766 122.85C100.735 121.694 100.765 120.475 100.862 119.227C99.2315 115.138 98.2166 113.059 96.2477 109.609C95.9861 109.661 95.7113 109.693 95.4276 109.701C93.5922 109.749 92.0772 108.77 92.0437 107.512C92.0103 106.255 93.471 105.196 95.3065 105.147C97.1419 105.098 98.6569 106.078 98.6904 107.335C98.7049 107.88 98.4394 108.387 97.9847 108.791C99.5394 111.929 100.294 113.621 101.192 116.383C101.5 114.412 101.975 112.431 102.639 110.561C103.192 109.003 103.876 107.524 104.702 106.192C104.707 106.184 104.712 106.176 104.718 106.168C104.721 106.162 104.725 106.156 104.729 106.15C104.746 106.122 104.764 106.094 104.781 106.066C106.889 102.731 109.906 100.358 114.018 100.092C114.461 116.767 107.82 120.072 106.026 131.001C107.791 128.82 108.815 127.688 110.652 125.83C110.401 125.554 110.252 125.228 110.243 124.876C110.215 123.828 111.432 122.946 112.962 122.905C114.491 122.865 115.754 123.681 115.782 124.729C115.809 125.777 114.592 126.659 113.063 126.7C112.809 126.707 112.563 126.69 112.329 126.653C109.509 129.351 108.101 130.914 105.698 133.732C105.598 135.015 105.563 136.474 105.603 137.985C104.806 139.255 104.139 140.662 103.593 142.144C103.557 142.243 103.521 142.342 103.486 142.441C101.592 133.757 92.1662 132.952 91.823 120.05C91.7624 117.773 92.2153 113.963 93.8568 113.16Z" fill="#F6C808"/>
<path d="M93.0088 81.2833C95.8388 83.4866 98.1452 86.843 99.9179 90.9731C99.8872 89.8171 99.9173 88.5983 100.014 87.3499C98.3835 83.2613 97.3686 81.1822 95.3997 77.7317C95.1381 77.7845 94.8633 77.8162 94.5796 77.8238C92.7442 77.8726 91.2292 76.8928 91.1957 75.6353C91.1623 74.3777 92.623 73.3188 94.4585 73.2699C96.2939 73.2211 97.8089 74.2009 97.8424 75.4584C97.8569 76.0028 97.5914 76.5099 97.1367 76.914C98.6914 80.052 99.4457 81.7441 100.344 84.506C100.637 82.6333 101.081 80.7507 101.694 78.9637C102.276 77.2674 103.01 75.6573 103.912 74.2237C106.021 70.8703 109.044 68.4822 113.17 68.2151C113.613 84.8906 106.972 88.1954 105.178 99.1242C106.943 96.9433 107.967 95.8107 109.804 93.9535C109.553 93.6775 109.404 93.3516 109.395 92.9996C109.367 91.9516 110.584 91.0691 112.114 91.0285C113.643 90.9878 114.906 91.8043 114.934 92.8522C114.961 93.9001 113.744 94.7826 112.215 94.8233C111.961 94.83 111.715 94.8133 111.481 94.7759C108.661 97.4746 107.253 99.0371 104.85 101.855C104.75 103.138 104.741 104.555 104.781 106.066C104.764 106.094 104.746 106.122 104.729 106.15L104.718 106.168L104.702 106.192C103.876 107.524 103.192 109.003 102.639 110.561C100.702 101.957 91.3171 101.033 90.975 88.173C90.9144 85.8961 91.3673 82.0865 93.0088 81.2833Z" fill="#F6C808"/>
<path fill-rule="evenodd" clip-rule="evenodd" d="M103.027 43.1974L103.079 43.1139C103.062 43.1417 103.044 43.1695 103.027 43.1974Z" fill="#F6C808"/>
<path d="M92.181 50.1655C95.011 52.3687 97.3174 55.7252 99.0901 59.8553C99.0594 58.6993 99.0895 57.4804 99.1858 56.2321C97.5557 52.1434 96.5408 50.0644 94.5719 46.6139C94.3103 46.6667 94.0355 46.6984 93.7518 46.7059C91.9164 46.7548 90.4014 45.7749 90.3679 44.5174C90.3344 43.2599 91.7952 42.2009 93.6307 42.1521C95.4661 42.1033 96.9811 43.0831 97.0146 44.3406C97.029 44.8849 96.7635 45.3921 96.3089 45.7962C97.8636 48.9342 98.6178 50.6263 99.5166 53.3881C99.824 51.4177 100.3 49.4361 100.964 47.5665C101.517 46.0087 102.201 44.5286 103.027 43.1974L103.079 43.1139C105.188 39.7563 108.213 37.3646 112.342 37.0973C112.785 53.7728 106.144 57.0776 104.35 68.0063C106.116 65.8255 107.14 64.6929 108.976 62.8357C108.725 62.5596 108.576 62.2337 108.567 61.8817C108.539 60.8338 109.756 59.9513 111.286 59.9106C112.815 59.8699 114.078 60.6865 114.106 61.7344C114.134 62.7823 112.916 63.6648 111.387 63.7055C111.134 63.7122 110.888 63.6955 110.653 63.6581C107.833 66.3568 106.425 67.9193 104.022 70.737C103.937 71.8217 103.898 72.9791 103.912 74.2237C103.01 75.6573 102.276 77.2674 101.694 78.9637C99.5227 70.8004 90.4828 69.6718 90.1471 57.0552C90.0866 54.7783 90.5395 50.9687 92.181 50.1655Z" fill="#F6C808"/>
<path d="M94.7043 145.026C97.5343 147.229 99.8407 150.586 101.613 154.716C101.583 153.56 101.613 152.341 101.709 151.092C100.079 147.004 99.0641 144.925 97.0952 141.474C96.8335 141.527 96.5588 141.559 96.2751 141.566C94.4397 141.615 92.9246 140.635 92.8912 139.378C92.8577 138.12 94.3185 137.061 96.1539 137.012C97.9894 136.964 99.5044 137.943 99.5378 139.201C99.5523 139.745 99.2868 140.252 98.8321 140.657C100.387 143.795 101.141 145.487 102.04 148.248C102.347 146.278 102.823 144.296 103.487 142.427C104.04 140.869 104.724 139.389 105.55 138.058C105.555 138.05 105.56 138.042 105.565 138.034C105.569 138.028 105.573 138.022 105.576 138.016C105.594 137.988 105.611 137.96 105.629 137.932C107.737 134.597 110.753 132.224 114.865 131.958C115.309 148.633 108.668 151.938 106.873 162.867C108.639 160.686 109.663 159.553 111.499 157.696C111.248 157.42 111.099 157.094 111.09 156.742C111.062 155.694 112.28 154.812 113.809 154.771C115.339 154.73 116.601 155.547 116.629 156.595C116.657 157.643 115.44 158.525 113.91 158.566C113.657 158.573 113.411 158.556 113.177 158.518C110.356 161.217 108.948 162.78 106.545 165.597C106.445 166.881 106.41 168.34 106.45 169.851C105.653 171.12 104.987 172.527 104.441 174.01C104.405 174.109 104.369 174.208 104.334 174.307C102.44 165.623 93.0137 164.818 92.6704 151.916C92.6099 149.639 93.0628 145.829 94.7043 145.026Z" fill="#F6C808"/>
<path d="M95.5523 176.903C98.3823 179.106 100.689 182.462 102.461 186.592C102.431 185.436 102.461 184.218 102.557 182.969C100.927 178.881 99.9121 176.801 97.9432 173.351C97.6815 173.404 97.4068 173.435 97.1231 173.443C95.2877 173.492 93.7726 172.512 93.7392 171.255C93.7057 169.997 95.1665 168.938 97.0019 168.889C98.8374 168.84 100.352 169.82 100.386 171.078C100.4 171.622 100.135 172.129 99.6802 172.533C101.235 175.671 101.989 177.363 102.888 180.125C103.195 178.155 103.671 176.173 104.335 174.304C104.888 172.746 105.572 171.266 106.398 169.935C106.403 169.927 106.408 169.919 106.413 169.911C106.417 169.905 106.421 169.898 106.424 169.892C106.442 169.865 106.459 169.837 106.477 169.809C108.585 166.473 111.601 164.101 115.713 163.834C116.157 180.51 109.516 183.815 107.721 194.743C109.487 192.563 110.511 191.43 112.347 189.573C112.096 189.297 111.947 188.971 111.938 188.619C111.91 187.571 113.128 186.688 114.657 186.648C116.187 186.607 117.449 187.424 117.477 188.471C117.505 189.519 116.288 190.402 114.758 190.443C114.505 190.449 114.259 190.433 114.025 190.395C111.204 193.094 109.796 194.656 107.393 197.474C107.293 198.758 107.258 200.217 107.298 201.728C106.501 202.997 105.835 204.404 105.289 205.887C105.253 205.986 105.217 206.085 105.182 206.184C103.288 197.5 93.8617 196.695 93.5184 183.792C93.4579 181.515 93.9108 177.706 95.5523 176.903Z" fill="#F6C808"/>
<path d="M96.4003 208.779C99.2303 210.983 101.537 214.339 103.309 218.469C103.279 217.313 103.309 216.094 103.405 214.846C101.775 210.757 100.76 208.678 98.7912 205.228C98.5295 205.281 98.2548 205.312 97.9711 205.32C96.1357 205.369 94.6206 204.389 94.5872 203.131C94.5537 201.874 96.0145 200.815 97.8499 200.766C99.6854 200.717 101.2 201.697 101.234 202.954C101.248 203.499 100.983 204.006 100.528 204.41C102.083 207.548 102.837 209.24 103.736 212.002C104.043 210.032 104.519 208.05 105.183 206.18C105.736 204.623 106.42 203.143 107.246 201.812C107.251 201.804 107.256 201.796 107.261 201.787C107.265 201.782 107.269 201.775 107.272 201.769C107.29 201.741 107.307 201.714 107.325 201.686C109.433 198.35 112.449 195.977 116.561 195.711C117.005 212.387 110.364 215.691 108.569 226.62C110.335 224.439 111.359 223.307 113.195 221.45C112.944 221.174 112.795 220.848 112.786 220.496C112.758 219.448 113.976 218.565 115.505 218.525C117.035 218.484 118.297 219.3 118.325 220.348C118.353 221.396 117.136 222.279 115.606 222.319C115.353 222.326 115.107 222.309 114.873 222.272C112.052 224.971 110.644 226.533 108.241 229.351C108.141 230.634 108.106 232.094 108.146 233.605C107.349 234.874 106.683 236.281 106.137 237.764C106.101 237.862 106.065 237.961 106.03 238.061C104.136 229.377 94.7097 228.572 94.3664 215.669C94.3059 213.392 94.7588 209.583 96.4003 208.779Z" fill="#F6C808"/>
<path d="M27.7144 113.16C24.8844 115.363 22.5779 118.72 20.8052 122.85C20.836 121.694 20.8059 120.475 20.7096 119.227C22.3397 115.138 23.3546 113.059 25.3234 109.609C25.5851 109.661 25.8599 109.693 26.1436 109.701C27.979 109.749 29.494 108.77 29.5275 107.512C29.5609 106.255 28.1001 105.196 26.2647 105.147C24.4293 105.098 22.9143 106.078 22.8808 107.335C22.8663 107.88 23.1318 108.387 23.5865 108.791C22.0318 111.929 21.2775 113.621 20.3788 116.383C20.0714 114.412 19.5958 112.431 18.9319 110.561C18.3787 109.003 17.6949 107.524 16.8687 106.192C16.8637 106.184 16.8587 106.176 16.8537 106.168C16.85 106.162 16.846 106.156 16.8423 106.15C16.8249 106.122 16.8074 106.094 16.7899 106.066C14.682 102.731 11.6654 100.358 7.55363 100.092C7.11002 116.767 13.7509 120.072 15.5455 131.001C13.7799 128.82 12.7558 127.688 10.9192 125.83C11.1705 125.554 11.3192 125.228 11.3286 124.876C11.3564 123.828 10.1391 122.946 8.60958 122.905C7.08006 122.865 5.81754 123.681 5.78966 124.729C5.76179 125.777 6.97911 126.659 8.50863 126.7C8.76186 126.707 9.00777 126.69 9.24198 126.653C12.0624 129.351 13.4704 130.914 15.8732 133.732C15.9736 135.015 16.0085 136.474 15.9683 137.985C16.7656 139.255 17.4319 140.662 17.9777 142.144C18.014 142.243 18.0498 142.342 18.0851 142.441C19.9789 133.757 29.405 132.952 29.7482 120.05C29.8088 117.773 29.3559 113.963 27.7144 113.16Z" fill="#F6C808"/>
<path d="M28.5624 81.2833C25.7324 83.4866 23.426 86.843 21.6532 90.9731C21.684 89.8171 21.6539 88.5983 21.5576 87.3499C23.1877 83.2613 24.2026 81.1822 26.1714 77.7317C26.4331 77.7845 26.7079 77.8162 26.9916 77.8238C28.827 77.8726 30.342 76.8928 30.3755 75.6353C30.4089 74.3777 28.9481 73.3188 27.1127 73.2699C25.2773 73.2211 23.7623 74.2009 23.7288 75.4584C23.7143 76.0028 23.9798 76.5099 24.4345 76.914C22.8798 80.052 22.1255 81.7441 21.2268 84.506C20.9347 82.6333 20.4906 80.7507 19.8774 78.9637C19.2953 77.2674 18.5609 75.6573 17.6593 74.2237C15.5505 70.8703 12.5274 68.4822 8.40164 68.2151C7.95803 84.8906 14.5989 88.1954 16.3935 99.1242C14.6279 96.9433 13.6038 95.8107 11.7672 93.9535C12.0185 93.6775 12.1672 93.3516 12.1766 92.9996C12.2044 91.9516 10.9871 91.0691 9.45759 91.0285C7.92806 90.9878 6.66554 91.8043 6.63767 92.8522C6.60979 93.9001 7.82711 94.7826 9.35663 94.8233C9.60986 94.83 9.85578 94.8133 10.09 94.7759C12.9104 97.4746 14.3184 99.0371 16.7212 101.855C16.8216 103.138 16.8301 104.555 16.7899 106.066C16.8074 106.094 16.8249 106.122 16.8423 106.15L16.8537 106.168L16.8687 106.192C17.6949 107.524 18.3787 109.003 18.9319 110.561C20.8693 101.957 30.2541 101.033 30.5962 88.173C30.6568 85.8961 30.2039 82.0865 28.5624 81.2833Z" fill="#F6C808"/>
<path fill-rule="evenodd" clip-rule="evenodd" d="M18.5443 43.1974L18.4922 43.1139C18.5096 43.1417 18.527 43.1695 18.5443 43.1974Z" fill="#F6C808"/>
<path d="M29.3902 50.1655C26.5602 52.3687 24.2538 55.7252 22.481 59.8553C22.5118 58.6993 22.4817 57.4804 22.3854 56.2321C24.0155 52.1434 25.0304 50.0644 26.9993 46.6139C27.2609 46.6667 27.5357 46.6984 27.8194 46.7059C29.6548 46.7548 31.1698 45.7749 31.2033 44.5174C31.2367 43.2599 29.776 42.2009 27.9405 42.1521C26.1051 42.1033 24.5901 43.0831 24.5566 44.3406C24.5421 44.8849 24.8076 45.3921 25.2623 45.7962C23.7076 48.9342 22.9533 50.6263 22.0546 53.3881C21.7472 51.4177 21.2716 49.4361 20.6077 47.5665C20.0545 46.0087 19.3705 44.5286 18.5443 43.1974L18.4922 43.1139C16.3831 39.7563 13.3585 37.3646 9.22945 37.0973C8.78584 53.7728 15.4267 57.0776 17.2213 68.0063C15.4557 65.8255 14.4316 64.6929 12.595 62.8357C12.8463 62.5596 12.995 62.2337 13.0044 61.8817C13.0322 60.8338 11.8149 59.9513 10.2854 59.9106C8.75588 59.8699 7.49335 60.6865 7.46548 61.7344C7.4376 62.7823 8.65492 63.6648 10.1844 63.7055C10.4377 63.7122 10.6836 63.6955 10.9178 63.6581C13.7382 66.3568 15.1462 67.9193 17.549 70.737C17.6339 71.8217 17.6734 72.9791 17.6593 74.2237C18.5609 75.6573 19.2953 77.2674 19.8774 78.9637C22.0485 70.8004 31.0884 69.6718 31.424 57.0552C31.4846 54.7783 31.0317 50.9687 29.3902 50.1655Z" fill="#F6C808"/>
<path d="M26.8669 145.026C24.0369 147.229 21.7305 150.586 19.9578 154.716C19.9885 153.56 19.9584 152.341 19.8621 151.092C21.4922 147.004 22.5071 144.925 24.476 141.474C24.7376 141.527 25.0124 141.559 25.2961 141.566C27.1315 141.615 28.6466 140.635 28.68 139.378C28.7135 138.12 27.2527 137.061 25.4173 137.012C23.5818 136.964 22.0668 137.943 22.0333 139.201C22.0189 139.745 22.2844 140.252 22.739 140.657C21.1843 143.795 20.4301 145.487 19.5313 148.248C19.2239 146.278 18.7483 144.296 18.0844 142.427C17.5312 140.869 16.8474 139.389 16.0213 138.058C16.0162 138.05 16.0112 138.042 16.0062 138.034C16.0026 138.028 15.9985 138.022 15.9948 138.016C15.9774 137.988 15.9599 137.96 15.9424 137.932C13.8345 134.597 10.8179 132.224 6.70617 131.958C6.26256 148.633 12.9034 151.938 14.698 162.867C12.9324 160.686 11.9083 159.553 10.0717 157.696C10.323 157.42 10.4717 157.094 10.4811 156.742C10.509 155.694 9.29164 154.812 7.76212 154.771C6.2326 154.73 4.97008 155.547 4.9422 156.595C4.91432 157.643 6.13165 158.525 7.66117 158.566C7.9144 158.573 8.16031 158.556 8.39451 158.518C11.215 161.217 12.6229 162.78 15.0258 165.597C15.1261 166.881 15.1611 168.34 15.1209 169.851C15.9181 171.12 16.5845 172.527 17.1302 174.01C17.1666 174.109 17.2024 174.208 17.2376 174.307C19.1315 165.623 28.5575 164.818 28.9008 151.916C28.9613 149.639 28.5084 145.829 26.8669 145.026Z" fill="#F6C808"/>
<path d="M26.0189 176.903C23.1889 179.106 20.8825 182.462 19.1098 186.592C19.1405 185.436 19.1104 184.218 19.0141 182.969C20.6442 178.881 21.6591 176.801 23.628 173.351C23.8896 173.404 24.1644 173.435 24.4481 173.443C26.2835 173.492 27.7986 172.512 27.832 171.255C27.8655 169.997 26.4047 168.938 24.5692 168.889C22.7338 168.84 21.2188 169.82 21.1853 171.078C21.1709 171.622 21.4364 172.129 21.891 172.533C20.3363 175.671 19.5821 177.363 18.6833 180.125C18.3759 178.155 17.9003 176.173 17.2364 174.304C16.6832 172.746 15.9994 171.266 15.1733 169.935C15.1682 169.927 15.1632 169.919 15.1582 169.911C15.1546 169.905 15.1505 169.898 15.1468 169.892C15.1294 169.865 15.1119 169.837 15.0944 169.809C12.9865 166.473 9.96994 164.101 5.85817 163.834C5.41456 180.51 12.0554 183.815 13.85 194.743C12.0844 192.563 11.0603 191.43 9.22373 189.573C9.47504 189.297 9.62372 188.971 9.63309 188.619C9.66096 187.571 8.44364 186.688 6.91412 186.648C5.3846 186.607 4.12208 187.424 4.0942 188.471C4.06632 189.519 5.28364 190.402 6.81317 190.443C7.0664 190.449 7.31231 190.433 7.54651 190.395C10.367 193.094 11.7749 194.656 14.1778 197.474C14.2781 198.758 14.3131 200.217 14.2729 201.728C15.0701 202.997 15.7365 204.404 16.2822 205.887C16.3186 205.986 16.3544 206.085 16.3896 206.184C18.2835 197.5 27.7095 196.695 28.0528 183.792C28.1133 181.515 27.6604 177.706 26.0189 176.903Z" fill="#F6C808"/>
<path d="M25.1709 208.779C22.3409 210.983 20.0345 214.339 18.2618 218.469C18.2925 217.313 18.2624 216.094 18.1661 214.846C19.7962 210.757 20.8111 208.678 22.78 205.228C23.0416 205.281 23.3164 205.312 23.6001 205.32C25.4355 205.369 26.9506 204.389 26.984 203.131C27.0175 201.874 25.5567 200.815 23.7212 200.766C21.8858 200.717 20.3708 201.697 20.3373 202.954C20.3229 203.499 20.5884 204.006 21.043 204.41C19.4883 207.548 18.7341 209.24 17.8353 212.002C17.5279 210.032 17.0523 208.05 16.3884 206.18C15.8352 204.623 15.1514 203.143 14.3253 201.812C14.3202 201.804 14.3152 201.796 14.3102 201.787C14.3066 201.782 14.3025 201.775 14.2988 201.769C14.2814 201.741 14.2639 201.714 14.2464 201.686C12.1385 198.35 9.12194 195.977 5.01017 195.711C4.56656 212.387 11.2074 215.691 13.002 226.62C11.2364 224.439 10.2123 223.307 8.37573 221.45C8.62704 221.174 8.77572 220.848 8.78509 220.496C8.81296 219.448 7.59564 218.565 6.06612 218.525C4.5366 218.484 3.27407 219.3 3.2462 220.348C3.21832 221.396 4.43564 222.279 5.96517 222.319C6.2184 222.326 6.46431 222.309 6.69851 222.272C9.51895 224.971 10.9269 226.533 13.3298 229.351C13.4301 230.634 13.4651 232.094 13.4249 233.605C14.2221 234.874 14.8885 236.281 15.4342 237.764C15.4706 237.862 15.5064 237.961 15.5416 238.061C17.4355 229.377 26.8615 228.572 27.2048 215.669C27.2653 213.392 26.8124 209.583 25.1709 208.779Z" fill="#F6C808"/>
<path fill-rule="evenodd" clip-rule="evenodd" d="M98.2421 27.9785C96.4694 23.8484 94.163 20.492 91.333 18.2887C89.6915 19.0919 89.2386 22.9015 89.2991 25.1784C89.4976 32.6387 92.7394 36.0822 95.805 39.3386C98.0237 41.6954 100.15 43.9541 100.964 47.5665C101.517 46.0087 102.201 44.5286 103.027 43.1974L103.079 43.1139C103.039 41.6028 103.074 40.1437 103.174 38.8602C105.577 36.0425 106.985 34.48 109.805 31.7813C110.04 31.8187 110.286 31.8354 110.539 31.8287C112.068 31.788 113.286 30.9055 113.258 29.8576C113.23 28.8097 111.967 27.9932 110.438 28.0338C108.908 28.0745 107.691 28.957 107.719 30.0049C107.728 30.357 107.877 30.6828 108.128 30.9589C106.292 32.8161 105.268 33.9487 103.502 36.1296C104.196 31.9008 105.616 28.8135 107.071 25.6514C109.147 21.1362 111.294 16.4684 111.499 8.10695C110.74 7.22859 109.912 6.41118 109.025 5.66284C102.911 7.51558 99.7496 14.5818 98.6686 21.5114C97.7698 18.7495 97.0156 17.0574 95.4609 13.9194C95.9155 13.5153 96.181 13.0081 96.1666 12.4638C96.1331 11.2063 94.6181 10.2265 92.7827 10.2753C90.9472 10.3241 89.4864 11.3831 89.5199 12.6406C89.5534 13.8981 91.0684 14.878 92.9038 14.8291C93.1875 14.8216 93.4623 14.7899 93.7239 14.7371C95.6928 18.1876 96.7077 20.2666 98.3378 24.3553C98.2415 25.6036 98.2114 26.8225 98.2421 27.9785Z" fill="#F6C808"/>
<path fill-rule="evenodd" clip-rule="evenodd" d="M23.3291 27.9785C25.1018 23.8484 27.4082 20.492 30.2382 18.2887C31.8797 19.0919 32.3326 22.9015 32.272 25.1784C32.0736 32.6387 28.8318 36.0822 25.7662 39.3386C23.5475 41.6954 21.4211 43.9541 20.6077 47.5665C20.0545 46.0087 19.3705 44.5286 18.5443 43.1974L18.4922 43.1139C18.5324 41.6028 18.4974 40.1437 18.397 38.8602C15.9942 36.0425 14.5862 34.48 11.7658 31.7813C11.5316 31.8187 11.2857 31.8354 11.0324 31.8287C9.50293 31.788 8.2856 30.9055 8.31348 29.8576C8.34136 28.8097 9.60388 27.9932 11.1334 28.0338C12.6629 28.0745 13.8802 28.957 13.8524 30.0049C13.843 30.357 13.6943 30.6828 13.443 30.9589C15.2796 32.8161 16.3037 33.9487 18.0693 36.1296C17.3749 31.9008 15.9549 28.8135 14.5005 25.6514C12.4527 21.1991 10.3367 16.5985 10.0818 8.45446C10.897 7.47121 11.7961 6.56033 12.7678 5.73265C18.7366 7.68722 21.8347 14.666 22.9026 21.5114C23.8013 18.7495 24.5556 17.0574 26.1103 13.9194C25.6556 13.5153 25.3901 13.0081 25.4046 12.4638C25.4381 11.2063 26.9531 10.2265 28.7885 10.2753C30.624 10.3241 32.0847 11.3831 32.0513 12.6406C32.0178 13.8981 30.5028 14.878 28.6674 14.8291C28.3837 14.8216 28.1089 14.7899 27.8473 14.7371C25.8784 18.1876 24.8635 20.2666 23.2334 24.3553C23.3297 25.6036 23.3598 26.8225 23.3291 27.9785Z" fill="#F6C808"/>
<path fill-rule="evenodd" clip-rule="evenodd" d="M67.0545 194.373L61.1363 204.25L55.2181 194.373L45.3544 196.348V185.484L36.9702 179.558L45.3544 173.632V162.768L55.2181 164.743L61.1363 154.867L67.0545 164.743L76.9182 162.768V173.632L85.3023 179.558L76.9182 185.484V196.348L67.0545 194.373ZM64.0954 189.435H61.1363H58.1772V182.521H51.2726V176.595H58.1772V169.682H61.1363H64.0954V176.595H71V182.521H64.0954V189.435Z" fill="#F9F5F3"/>
<path d="M61.1363 189.435H64.0954V182.521H71V176.595H64.0954V169.682H61.1363H58.1772V176.595H51.2726V182.521H58.1772V189.435H61.1363Z" fill="#474E58"/>
<path fill-rule="evenodd" clip-rule="evenodd" d="M67.0545 135.815L61.1363 145.691L55.2181 135.815L45.3544 137.79V126.926L36.9702 121L45.3544 115.074V104.21L55.2181 106.185L61.1363 96.3086L67.0545 106.185L76.9182 104.21V115.074L85.3023 121L76.9182 126.926V137.79L67.0545 135.815ZM64.0954 130.877H61.1363H58.1772V123.963H51.2726V118.037H58.1772V111.123H61.1363H64.0954V118.037H71V123.963H64.0954V130.877Z" fill="#F9F5F3"/>
<path d="M61.1363 130.877H64.0954V123.963H71V118.037H64.0954V111.123H61.1363H58.1772V118.037H51.2726V123.963H58.1772V130.877H61.1363Z" fill="#474E58"/>
<path fill-rule="evenodd" clip-rule="evenodd" d="M67.0545 77.2582L61.1363 87.1348L55.2181 77.2582L45.3544 79.2335V68.3693L36.9702 62.4434L45.3544 56.5174V45.6532L55.2181 47.6285L61.1363 37.752L67.0545 47.6285L76.9182 45.6532V56.5174L85.3023 62.4434L76.9182 68.3693V79.2335L67.0545 77.2582ZM64.0954 72.3199H61.1363H58.1772V65.4063H51.2726V59.4804H58.1772V52.5668H61.1363H64.0954V59.4804H71V65.4063H64.0954V72.3199Z" fill="#F9F5F3"/>
<path d="M61.1363 72.3199H64.0954V65.4063H71V59.4804H64.0954V52.5668H61.1363H58.1772V59.4804H51.2726V65.4063H58.1772V72.3199H61.1363Z" fill="#474E58"/>
</svg>
