<svg width="125" height="250" viewBox="0 0 125 250" fill="none" xmlns="http://www.w3.org/2000/svg">
<path d="M0.758789 22.5C0.758789 10.3497 10.6085 0.5 22.7588 0.5H102.759C114.909 0.5 124.759 10.3497 124.759 22.5V227.5C124.759 239.65 114.909 249.5 102.759 249.5H22.7588C10.6085 249.5 0.758789 239.65 0.758789 227.5V22.5Z" fill="#C5A869"/>
<path fill-rule="evenodd" clip-rule="evenodd" d="M102.759 11.5H22.7588C16.6837 11.5 11.7588 16.4249 11.7588 22.5V227.5C11.7588 233.575 16.6837 238.5 22.7588 238.5H102.759C108.834 238.5 113.759 233.575 113.759 227.5V22.5C113.759 16.4249 108.834 11.5 102.759 11.5ZM22.7588 0.5C10.6085 0.5 0.758789 10.3497 0.758789 22.5V227.5C0.758789 239.65 10.6085 249.5 22.7588 249.5H102.759C114.909 249.5 124.759 239.65 124.759 227.5V22.5C124.759 10.3497 114.909 0.5 102.759 0.5H22.7588Z" fill="#A68C55"/>
<path d="M27.6667 235.5C33.9334 231.126 39.1916 219.047 38.7306 212.936C32.7411 215.186 30.6634 218.244 27.6667 224.688C29.0497 213.876 36.8866 212.466 36.8866 196.483C36.8866 193.662 36.4256 188.962 35.0426 188.021C32.7376 190.842 30.8937 195.073 29.5107 200.244C29.5107 198.812 29.4587 197.304 29.3509 195.762C30.6162 190.647 31.4143 188.04 32.9755 183.704C33.1943 183.76 33.4235 183.791 33.6596 183.791C35.1873 183.791 36.4256 182.528 36.4256 180.97C36.4256 179.412 35.1873 178.15 33.6596 178.15C32.132 178.15 30.8937 179.412 30.8937 180.97C30.8937 181.644 31.1257 182.263 31.5128 182.749C30.2892 186.684 29.6993 188.804 29.0129 192.252C27.8271 182.627 24.4407 172.874 17.9858 172.509C17.9858 193.165 23.5821 197.037 25.3165 210.507C23.7998 207.865 22.923 206.497 21.3544 204.258C21.5573 203.908 21.6737 203.5 21.6737 203.064C21.6737 201.766 20.6418 200.714 19.3688 200.714C18.0957 200.714 17.0638 201.766 17.0638 203.064C17.0638 204.362 18.0957 205.415 19.3688 205.415C19.5795 205.415 19.7837 205.386 19.9776 205.332C22.3831 208.579 23.5887 210.467 25.6495 213.876C25.7613 215.462 25.8227 217.175 25.8227 219.047C23.9787 214.346 20.7517 211.056 14.7588 209.645C16.1418 221.397 21.6737 228.919 27.6667 235.5Z" fill="black"/>
<path d="M25.8227 179.651C26.5598 181.299 27.1766 183.146 27.6818 185.098C29.0648 174.286 36.8866 172.979 36.8866 156.996C36.8866 154.175 36.4256 149.474 35.0426 148.534C32.7376 151.355 30.8937 155.585 29.5107 160.756C29.5107 159.324 29.4587 157.817 29.3509 156.274C30.6162 151.16 31.4143 148.553 32.9755 144.216C33.1943 144.273 33.4235 144.303 33.6596 144.303C35.1873 144.303 36.4256 143.041 36.4256 141.483C36.4256 139.925 35.1873 138.662 33.6596 138.662C32.132 138.662 30.8937 139.925 30.8937 141.483C30.8937 142.157 31.1257 142.776 31.5128 143.261C30.2892 147.197 29.6993 149.317 29.0129 152.765C28.7137 150.336 28.2742 147.899 27.6807 145.606C25.9224 138.815 22.8117 133.295 17.9858 133.021C17.9858 153.678 23.5821 157.55 25.3165 171.02C23.7998 168.378 22.923 167.01 21.3544 164.771C21.5573 164.421 21.6737 164.013 21.6737 163.577C21.6737 162.279 20.6418 161.227 19.3688 161.227C18.0957 161.227 17.0638 162.279 17.0638 163.577C17.0638 164.875 18.0957 165.927 19.3688 165.927C19.5795 165.927 19.7837 165.898 19.9776 165.844C22.3831 169.092 23.5887 170.98 25.6495 174.389C25.7613 175.974 25.8227 177.779 25.8227 179.651Z" fill="black"/>
<path d="M35.0426 109.047C32.7376 111.868 30.8937 116.098 29.5107 121.269C29.5107 119.837 29.4587 118.329 29.3509 116.787C30.6162 111.672 31.4143 109.065 32.9755 104.729C33.1943 104.786 33.4235 104.816 33.6596 104.816C35.1873 104.816 36.4256 103.553 36.4256 101.996C36.4256 100.438 35.1873 99.1752 33.6596 99.1752C32.132 99.1752 30.8937 100.438 30.8937 101.996C30.8937 102.67 31.1257 103.289 31.5128 103.774C30.2892 107.71 29.6993 109.829 29.0129 113.278C28.7285 110.969 28.3175 108.653 27.768 106.462C27.2463 104.381 26.5999 102.412 25.8183 100.667C23.9902 96.5855 21.4231 93.7289 17.9858 93.5342C17.9858 114.191 23.5821 118.063 25.3165 131.532C23.7998 128.891 22.923 127.523 21.3544 125.284C21.5573 124.934 21.6737 124.526 21.6737 124.09C21.6737 122.792 20.6418 121.739 19.3688 121.739C18.0957 121.739 17.0638 122.792 17.0638 124.09C17.0638 125.388 18.0957 126.44 19.3688 126.44C19.5795 126.44 19.7837 126.411 19.9776 126.357C22.3831 129.605 23.5887 131.493 25.6495 134.902C25.7613 136.487 25.7997 138.241 25.7997 140.113C26.5465 141.772 27.1705 143.636 27.6807 145.606C29.1017 134.892 36.8866 133.438 36.8866 117.509C36.8866 114.688 36.4256 109.987 35.0426 109.047Z" fill="black"/>
<path d="M35.0426 70.5C32.7376 73.3205 30.8937 77.5513 29.5107 82.7222C29.5107 81.2902 29.4587 79.7824 29.3509 78.2402C30.6162 73.1254 31.4143 70.5184 32.9755 66.1823C33.1943 66.2391 33.4235 66.2692 33.6596 66.2692C35.1873 66.2692 36.4256 65.0064 36.4256 63.4487C36.4256 61.891 35.1873 60.6282 33.6596 60.6282C32.132 60.6282 30.8937 61.891 30.8937 63.4487C30.8937 64.123 31.1257 64.742 31.5128 65.2273C30.2892 69.1629 29.6993 71.2823 29.0129 74.7308C28.7137 72.3017 28.2742 69.8644 27.6807 67.572C25.9224 60.7809 22.8117 55.2606 17.9858 54.9872C17.9858 75.6438 23.5821 79.5161 25.3165 92.9853C23.7998 90.3438 22.923 88.9756 21.3544 86.7371C21.5573 86.3871 21.6737 85.9788 21.6737 85.5427C21.6737 84.2446 20.6418 83.1923 19.3688 83.1923C18.0957 83.1923 17.0638 84.2446 17.0638 85.5427C17.0638 86.8408 18.0957 87.8932 19.3688 87.8932C19.5795 87.8932 19.7837 87.8643 19.9776 87.8103C22.3831 91.0581 23.5887 92.9459 25.6495 96.3547C25.744 97.6947 25.8025 99.1261 25.8183 100.667C26.5999 102.412 27.2463 104.381 27.768 106.462C29.3931 96.285 36.8866 94.5903 36.8866 78.9615C36.8866 76.141 36.4256 71.4402 35.0426 70.5Z" fill="black"/>
<path d="M35.0426 31.0128C32.7376 33.8333 30.8937 38.0641 29.5107 43.235C29.5107 41.803 29.4587 40.2952 29.3509 38.7531C30.6162 33.6382 31.4143 31.0312 32.9755 26.6951C33.1943 26.7519 33.4235 26.7821 33.6596 26.7821C35.1873 26.7821 36.4256 25.5193 36.4256 23.9615C36.4256 22.4038 35.1873 21.141 33.6596 21.141C32.132 21.141 30.8937 22.4038 30.8937 23.9615C30.8937 24.6358 31.1257 25.2548 31.5128 25.7401C30.2892 29.6757 29.6993 31.7951 29.0129 35.2436C27.8271 25.6186 24.4407 15.8657 17.9858 15.5C17.9858 36.1566 23.5821 40.0289 25.3165 53.4981C23.7998 50.8567 22.923 49.4884 21.3544 47.2499C21.5573 46.8999 21.6737 46.4916 21.6737 46.0556C21.6737 44.7575 20.6418 43.7051 19.3688 43.7051C18.0957 43.7051 17.0638 44.7575 17.0638 46.0556C17.0638 47.3537 18.0957 48.406 19.3688 48.406C19.5795 48.406 19.7837 48.3771 19.9776 48.3231C22.3831 51.5709 23.5887 53.4587 25.6495 56.8675C25.7613 58.4531 25.8227 60.2581 25.8227 62.1299C26.5593 63.7764 27.1758 65.6218 27.6807 67.572C29.1017 56.858 36.8866 55.4042 36.8866 39.4744C36.8866 36.6538 36.4256 31.953 35.0426 31.0128Z" fill="black"/>
<path d="M98.8509 235.5C92.5841 231.126 87.326 219.047 87.787 212.936C93.7765 215.186 95.8541 218.244 98.8509 224.688C97.4679 213.876 89.631 212.466 89.631 196.483C89.631 193.662 90.092 188.962 91.4749 188.021C93.7799 190.842 95.6239 195.073 97.0069 200.244C97.0069 198.812 97.0589 197.304 97.1666 195.762C95.9013 190.647 95.1033 188.04 93.5421 183.704C93.3233 183.76 93.0941 183.791 92.8579 183.791C91.3303 183.791 90.092 182.528 90.092 180.97C90.092 179.412 91.3303 178.15 92.8579 178.15C94.3855 178.15 95.6239 179.412 95.6239 180.97C95.6239 181.644 95.3919 182.263 95.0048 182.749C96.2284 186.684 96.8183 188.804 97.5047 192.252C98.6905 182.627 102.077 172.874 108.532 172.509C108.532 193.165 102.935 197.037 101.201 210.507C102.718 207.865 103.595 206.497 105.163 204.258C104.96 203.908 104.844 203.5 104.844 203.064C104.844 201.766 105.876 200.714 107.149 200.714C108.422 200.714 109.454 201.766 109.454 203.064C109.454 204.362 108.422 205.415 107.149 205.415C106.938 205.415 106.734 205.386 106.54 205.332C104.134 208.579 102.929 210.467 100.868 213.876C100.756 215.462 100.695 217.175 100.695 219.047C102.539 214.346 105.766 211.056 111.759 209.645C110.376 221.397 104.844 228.919 98.8509 235.5Z" fill="black"/>
<path d="M100.695 179.651C99.9578 181.299 99.3409 183.146 98.8358 185.098C97.4528 174.286 89.631 172.979 89.631 156.996C89.631 154.175 90.092 149.474 91.4749 148.534C93.7799 151.355 95.6239 155.585 97.0069 160.756C97.0069 159.324 97.0589 157.817 97.1666 156.274C95.9013 151.16 95.1033 148.553 93.5421 144.216C93.3233 144.273 93.0941 144.303 92.8579 144.303C91.3303 144.303 90.092 143.041 90.092 141.483C90.092 139.925 91.3303 138.662 92.8579 138.662C94.3855 138.662 95.6239 139.925 95.6239 141.483C95.6239 142.157 95.3919 142.776 95.0048 143.261C96.2284 147.197 96.8183 149.317 97.5047 152.765C97.8039 150.336 98.2433 147.899 98.8369 145.606C100.595 138.815 103.706 133.295 108.532 133.021C108.532 153.678 102.935 157.55 101.201 171.02C102.718 168.378 103.595 167.01 105.163 164.771C104.96 164.421 104.844 164.013 104.844 163.577C104.844 162.279 105.876 161.227 107.149 161.227C108.422 161.227 109.454 162.279 109.454 163.577C109.454 164.875 108.422 165.927 107.149 165.927C106.938 165.927 106.734 165.898 106.54 165.844C104.134 169.092 102.929 170.98 100.868 174.389C100.756 175.974 100.695 177.779 100.695 179.651Z" fill="black"/>
<path d="M91.4749 109.047C93.7799 111.868 95.6239 116.098 97.0069 121.269C97.0069 119.837 97.0589 118.329 97.1666 116.787C95.9013 111.672 95.1033 109.065 93.5421 104.729C93.3233 104.786 93.0941 104.816 92.8579 104.816C91.3303 104.816 90.092 103.553 90.092 101.996C90.092 100.438 91.3303 99.1752 92.8579 99.1752C94.3855 99.1752 95.6239 100.438 95.6239 101.996C95.6239 102.67 95.3919 103.289 95.0048 103.774C96.2284 107.71 96.8183 109.829 97.5047 113.278C97.7891 110.969 98.2001 108.653 98.7496 106.462C99.2712 104.381 99.9177 102.412 100.699 100.667C102.527 96.5855 105.095 93.7289 108.532 93.5342C108.532 114.191 102.935 118.063 101.201 131.532C102.718 128.891 103.595 127.523 105.163 125.284C104.96 124.934 104.844 124.526 104.844 124.09C104.844 122.792 105.876 121.739 107.149 121.739C108.422 121.739 109.454 122.792 109.454 124.09C109.454 125.388 108.422 126.44 107.149 126.44C106.938 126.44 106.734 126.411 106.54 126.357C104.134 129.605 102.929 131.493 100.868 134.902C100.756 136.487 100.718 138.241 100.718 140.113C99.9711 141.772 99.3471 143.636 98.8369 145.606C97.4159 134.892 89.631 133.438 89.631 117.509C89.631 114.688 90.092 109.987 91.4749 109.047Z" fill="black"/>
<path d="M91.4749 70.5C93.7799 73.3205 95.6239 77.5513 97.0069 82.7222C97.0069 81.2902 97.0589 79.7824 97.1666 78.2402C95.9013 73.1254 95.1033 70.5184 93.5421 66.1823C93.3233 66.2391 93.0941 66.2692 92.8579 66.2692C91.3303 66.2692 90.092 65.0064 90.092 63.4487C90.092 61.891 91.3303 60.6282 92.8579 60.6282C94.3855 60.6282 95.6239 61.891 95.6239 63.4487C95.6239 64.123 95.3919 64.742 95.0048 65.2273C96.2284 69.1629 96.8183 71.2823 97.5047 74.7308C97.8039 72.3017 98.2434 69.8644 98.8369 67.572C100.595 60.7809 103.706 55.2606 108.532 54.9872C108.532 75.6438 102.935 79.5161 101.201 92.9853C102.718 90.3438 103.595 88.9756 105.163 86.7371C104.96 86.3871 104.844 85.9788 104.844 85.5427C104.844 84.2446 105.876 83.1923 107.149 83.1923C108.422 83.1923 109.454 84.2446 109.454 85.5427C109.454 86.8408 108.422 87.8932 107.149 87.8932C106.938 87.8932 106.734 87.8643 106.54 87.8103C104.134 91.0581 102.929 92.9459 100.868 96.3547C100.774 97.6947 100.715 99.1261 100.699 100.667C99.9177 102.412 99.2712 104.381 98.7496 106.462C97.1245 96.285 89.631 94.5903 89.631 78.9615C89.631 76.141 90.092 71.4402 91.4749 70.5Z" fill="black"/>
<path d="M91.4749 31.0128C93.7799 33.8333 95.6239 38.0641 97.0069 43.235C97.0069 41.803 97.0589 40.2952 97.1666 38.7531C95.9013 33.6382 95.1033 31.0312 93.5421 26.6951C93.3233 26.7519 93.0941 26.7821 92.8579 26.7821C91.3303 26.7821 90.092 25.5193 90.092 23.9615C90.092 22.4038 91.3303 21.141 92.8579 21.141C94.3855 21.141 95.6239 22.4038 95.6239 23.9615C95.6239 24.6358 95.3919 25.2548 95.0048 25.7401C96.2284 29.6757 96.8183 31.7951 97.5047 35.2436C98.6905 25.6186 102.077 15.8657 108.532 15.5C108.532 36.1566 102.935 40.0289 101.201 53.4981C102.718 50.8567 103.595 49.4884 105.163 47.2499C104.96 46.8999 104.844 46.4916 104.844 46.0556C104.844 44.7575 105.876 43.7051 107.149 43.7051C108.422 43.7051 109.454 44.7575 109.454 46.0556C109.454 47.3537 108.422 48.406 107.149 48.406C106.938 48.406 106.734 48.3771 106.54 48.3231C104.134 51.5709 102.929 53.4587 100.868 56.8675C100.756 58.4531 100.695 60.2581 100.695 62.1299C99.9583 63.7764 99.3418 65.6218 98.8369 67.572C97.4159 56.858 89.631 55.4042 89.631 39.4744C89.631 36.6538 90.092 31.953 91.4749 31.0128Z" fill="black"/>
<path fill-rule="evenodd" clip-rule="evenodd" d="M63.7588 148.5L69.3914 139.1L78.7792 140.98V130.64L86.7588 125L78.7792 119.36V109.02L69.3914 110.9L63.7588 101.5L58.1261 110.9L48.7384 109.02V119.36L40.7588 125L48.7384 130.64V140.98L58.1261 139.1L63.7588 148.5ZM78.3098 125L73.1465 127.82V135.34L67.0445 134.4L63.7588 139.1L60.4731 134.4L54.371 135.34V127.82L49.2078 125L54.371 122.18V114.66L60.4731 115.6L63.7588 110.9L67.0445 115.6L73.1465 114.66V122.18L78.3098 125Z" fill="black"/>
<path fill-rule="evenodd" clip-rule="evenodd" d="M66.5751 127.82H73.1465V122.18H66.5751V115.6H63.7588H60.9425V122.18H54.371V127.82H60.9425V134.4H63.7588H66.5751V127.82Z" fill="black"/>
<path fill-rule="evenodd" clip-rule="evenodd" d="M63.7588 202.5L69.3914 193.1L78.7792 194.98V184.64L86.7588 179L78.7792 173.36V163.02L69.3914 164.9L63.7588 155.5L58.1261 164.9L48.7384 163.02V173.36L40.7588 179L48.7384 184.64V194.98L58.1261 193.1L63.7588 202.5ZM78.3098 179L73.1465 181.82V189.34L67.0445 188.4L63.7588 193.1L60.4731 188.4L54.371 189.34V181.82L49.2078 179L54.371 176.18V168.66L60.4731 169.6L63.7588 164.9L67.0445 169.6L73.1465 168.66V176.18L78.3098 179Z" fill="black"/>
<path fill-rule="evenodd" clip-rule="evenodd" d="M66.5751 181.82H73.1465V176.18H66.5751V169.6H63.7588H60.9425V176.18H54.371V181.82H60.9425V188.4H63.7588H66.5751V181.82Z" fill="black"/>
<path fill-rule="evenodd" clip-rule="evenodd" d="M63.7588 94.5L69.3914 85.1L78.7792 86.98V76.64L86.7588 71L78.7792 65.36V55.02L69.3914 56.9L63.7588 47.5L58.1261 56.9L48.7384 55.02V65.36L40.7588 71L48.7384 76.64V86.98L58.1261 85.1L63.7588 94.5ZM78.3098 71L73.1465 73.82V81.34L67.0445 80.4L63.7588 85.1L60.4731 80.4L54.371 81.34V73.82L49.2078 71L54.371 68.18V60.66L60.4731 61.6L63.7588 56.9L67.0445 61.6L73.1465 60.66V68.18L78.3098 71Z" fill="black"/>
<path fill-rule="evenodd" clip-rule="evenodd" d="M66.5751 73.82H73.1465V68.18H66.5751V61.6H63.7588H60.9425V68.18H54.371V73.82H60.9425V80.4H63.7588H66.5751V73.82Z" fill="black"/>
</svg>
