<svg width="124" height="250" viewBox="0 0 124 250" fill="none" xmlns="http://www.w3.org/2000/svg">
<path d="M0.00390625 22.5C0.00390625 10.3497 9.85364 0.5 22.0039 0.5H102.004C114.154 0.5 124.004 10.3497 124.004 22.5V227.5C124.004 239.65 114.154 249.5 102.004 249.5H22.0039C9.85364 249.5 0.00390625 239.65 0.00390625 227.5V22.5Z" fill="#C5A869"/>
<path fill-rule="evenodd" clip-rule="evenodd" d="M102.004 11.5H22.0039C15.9288 11.5 11.0039 16.4249 11.0039 22.5V227.5C11.0039 233.575 15.9288 238.5 22.0039 238.5H102.004C108.079 238.5 113.004 233.575 113.004 227.5V22.5C113.004 16.4249 108.079 11.5 102.004 11.5ZM22.0039 0.5C9.85364 0.5 0.00390625 10.3497 0.00390625 22.5V227.5C0.00390625 239.65 9.85364 249.5 22.0039 249.5H102.004C114.154 249.5 124.004 239.65 124.004 227.5V22.5C124.004 10.3497 114.154 0.5 102.004 0.5H22.0039Z" fill="#A68C55"/>
<path d="M26.9118 235.5C33.1786 231.126 38.4367 219.047 37.9757 212.936C31.9862 215.186 29.9086 218.244 26.9118 224.688C28.2948 213.876 36.1317 212.466 36.1317 196.483C36.1317 193.662 35.6707 188.962 34.2877 188.021C31.9828 190.842 30.1388 195.073 28.7558 200.244C28.7558 198.812 28.7038 197.304 28.596 195.762C29.8614 190.647 30.6594 188.04 32.2206 183.704C32.4394 183.76 32.6686 183.791 32.9048 183.791C34.4324 183.791 35.6707 182.528 35.6707 180.97C35.6707 179.412 34.4324 178.15 32.9048 178.15C31.3772 178.15 30.1388 179.412 30.1388 180.97C30.1388 181.644 30.3708 182.263 30.7579 182.749C29.5343 186.684 28.9444 188.804 28.258 192.252C27.0722 182.627 23.6858 172.874 17.2309 172.509C17.2309 193.165 22.8272 197.037 24.5616 210.507C23.0449 207.865 22.1681 206.497 20.5995 204.258C20.8024 203.908 20.9189 203.5 20.9189 203.064C20.9189 201.766 19.8869 200.714 18.6139 200.714C17.3409 200.714 16.3089 201.766 16.3089 203.064C16.3089 204.362 17.3409 205.415 18.6139 205.415C18.8246 205.415 19.0288 205.386 19.2227 205.332C21.6282 208.579 22.8338 210.467 24.8946 213.876C25.0065 215.462 25.0678 217.175 25.0678 219.047C23.2238 214.346 19.9969 211.056 14.0039 209.645C15.3869 221.397 20.9189 228.919 26.9118 235.5Z" fill="black"/>
<path d="M25.0678 179.651C25.8049 181.299 26.4218 183.146 26.9269 185.098C28.3099 174.286 36.1317 172.979 36.1317 156.996C36.1317 154.175 35.6707 149.474 34.2877 148.534C31.9828 151.355 30.1388 155.585 28.7558 160.756C28.7558 159.324 28.7038 157.817 28.596 156.274C29.8614 151.16 30.6594 148.553 32.2206 144.216C32.4394 144.273 32.6686 144.303 32.9048 144.303C34.4324 144.303 35.6707 143.041 35.6707 141.483C35.6707 139.925 34.4324 138.662 32.9048 138.662C31.3772 138.662 30.1388 139.925 30.1388 141.483C30.1388 142.157 30.3708 142.776 30.7579 143.261C29.5343 147.197 28.9444 149.317 28.258 152.765C27.9588 150.336 27.5193 147.899 26.9258 145.606C25.1675 138.815 22.0568 133.295 17.2309 133.021C17.2309 153.678 22.8272 157.55 24.5616 171.02C23.0449 168.378 22.1681 167.01 20.5995 164.771C20.8024 164.421 20.9189 164.013 20.9189 163.577C20.9189 162.279 19.8869 161.227 18.6139 161.227C17.3409 161.227 16.3089 162.279 16.3089 163.577C16.3089 164.875 17.3409 165.927 18.6139 165.927C18.8246 165.927 19.0288 165.898 19.2227 165.844C21.6282 169.092 22.8338 170.98 24.8946 174.389C25.0065 175.974 25.0678 177.779 25.0678 179.651Z" fill="black"/>
<path d="M34.2877 109.047C31.9828 111.868 30.1388 116.098 28.7558 121.269C28.7558 119.837 28.7038 118.329 28.596 116.787C29.8614 111.672 30.6594 109.065 32.2206 104.729C32.4394 104.786 32.6686 104.816 32.9048 104.816C34.4324 104.816 35.6707 103.553 35.6707 101.996C35.6707 100.438 34.4324 99.1752 32.9048 99.1752C31.3772 99.1752 30.1388 100.438 30.1388 101.996C30.1388 102.67 30.3708 103.289 30.7579 103.774C29.5343 107.71 28.9444 109.829 28.258 113.278C27.9736 110.969 27.5626 108.653 27.0131 106.462C26.4915 104.381 25.845 102.412 25.0634 100.667C23.2353 96.5855 20.6682 93.7289 17.2309 93.5342C17.2309 114.191 22.8272 118.063 24.5616 131.532C23.0449 128.891 22.1681 127.523 20.5995 125.284C20.8024 124.934 20.9189 124.526 20.9189 124.09C20.9189 122.792 19.8869 121.739 18.6139 121.739C17.3409 121.739 16.3089 122.792 16.3089 124.09C16.3089 125.388 17.3409 126.44 18.6139 126.44C18.8246 126.44 19.0288 126.411 19.2227 126.357C21.6282 129.605 22.8338 131.493 24.8946 134.902C25.0065 136.487 25.0449 138.241 25.0449 140.113C25.7916 141.772 26.4156 143.636 26.9258 145.606C28.3468 134.892 36.1317 133.438 36.1317 117.509C36.1317 114.688 35.6707 109.987 34.2877 109.047Z" fill="black"/>
<path d="M34.2877 70.5C31.9828 73.3205 30.1388 77.5513 28.7558 82.7222C28.7558 81.2902 28.7038 79.7824 28.596 78.2402C29.8614 73.1254 30.6594 70.5184 32.2206 66.1823C32.4394 66.2391 32.6686 66.2692 32.9048 66.2692C34.4324 66.2692 35.6707 65.0064 35.6707 63.4487C35.6707 61.891 34.4324 60.6282 32.9048 60.6282C31.3772 60.6282 30.1388 61.891 30.1388 63.4487C30.1388 64.123 30.3708 64.742 30.7579 65.2273C29.5343 69.1629 28.9444 71.2823 28.258 74.7308C27.9588 72.3017 27.5193 69.8644 26.9258 67.572C25.1675 60.7809 22.0568 55.2606 17.2309 54.9872C17.2309 75.6438 22.8272 79.5161 24.5616 92.9853C23.0449 90.3438 22.1681 88.9756 20.5995 86.7371C20.8024 86.3871 20.9189 85.9788 20.9189 85.5427C20.9189 84.2446 19.8869 83.1923 18.6139 83.1923C17.3409 83.1923 16.3089 84.2446 16.3089 85.5427C16.3089 86.8408 17.3409 87.8932 18.6139 87.8932C18.8246 87.8932 19.0288 87.8643 19.2227 87.8103C21.6282 91.0581 22.8338 92.9459 24.8946 96.3547C24.9891 97.6947 25.0476 99.1261 25.0634 100.667C25.845 102.412 26.4915 104.381 27.0131 106.462C28.6382 96.285 36.1317 94.5903 36.1317 78.9615C36.1317 76.141 35.6707 71.4402 34.2877 70.5Z" fill="black"/>
<path d="M34.2877 31.0128C31.9828 33.8333 30.1388 38.0641 28.7558 43.235C28.7558 41.803 28.7038 40.2952 28.596 38.7531C29.8614 33.6382 30.6594 31.0312 32.2206 26.6951C32.4394 26.7519 32.6686 26.7821 32.9048 26.7821C34.4324 26.7821 35.6707 25.5193 35.6707 23.9615C35.6707 22.4038 34.4324 21.141 32.9048 21.141C31.3772 21.141 30.1388 22.4038 30.1388 23.9615C30.1388 24.6358 30.3708 25.2548 30.7579 25.7401C29.5343 29.6757 28.9444 31.7951 28.258 35.2436C27.0722 25.6186 23.6858 15.8657 17.2309 15.5C17.2309 36.1566 22.8272 40.0289 24.5616 53.4981C23.0449 50.8567 22.1681 49.4884 20.5995 47.2499C20.8024 46.8999 20.9189 46.4916 20.9189 46.0556C20.9189 44.7575 19.8869 43.7051 18.6139 43.7051C17.3409 43.7051 16.3089 44.7575 16.3089 46.0556C16.3089 47.3537 17.3409 48.406 18.6139 48.406C18.8246 48.406 19.0288 48.3771 19.2227 48.3231C21.6282 51.5709 22.8338 53.4587 24.8946 56.8675C25.0065 58.4531 25.0678 60.2581 25.0678 62.1299C25.8044 63.7764 26.4209 65.6218 26.9258 67.572C28.3468 56.858 36.1317 55.4042 36.1317 39.4744C36.1317 36.6538 35.6707 31.953 34.2877 31.0128Z" fill="black"/>
<path d="M98.096 235.5C91.8292 231.126 86.5711 219.047 87.0321 212.936C93.0216 215.186 95.0993 218.244 98.096 224.688C96.713 213.876 88.8761 212.466 88.8761 196.483C88.8761 193.662 89.3371 188.962 90.7201 188.021C93.025 190.842 94.869 195.073 96.252 200.244C96.252 198.812 96.304 197.304 96.4118 195.762C95.1465 190.647 94.3484 188.04 92.7872 183.704C92.5684 183.76 92.3392 183.791 92.1031 183.791C90.5754 183.791 89.3371 182.528 89.3371 180.97C89.3371 179.412 90.5754 178.15 92.1031 178.15C93.6307 178.15 94.869 179.412 94.869 180.97C94.869 181.644 94.637 182.263 94.2499 182.749C95.4735 186.684 96.0634 188.804 96.7498 192.252C97.9356 182.627 101.322 172.874 107.777 172.509C107.777 193.165 102.181 197.037 100.446 210.507C101.963 207.865 102.84 206.497 104.408 204.258C104.205 203.908 104.089 203.5 104.089 203.064C104.089 201.766 105.121 200.714 106.394 200.714C107.667 200.714 108.699 201.766 108.699 203.064C108.699 204.362 107.667 205.415 106.394 205.415C106.183 205.415 105.979 205.386 105.785 205.332C103.38 208.579 102.174 210.467 100.113 213.876C100.001 215.462 99.94 217.175 99.94 219.047C101.784 214.346 105.011 211.056 111.004 209.645C109.621 221.397 104.089 228.919 98.096 235.5Z" fill="black"/>
<path d="M99.94 179.651C99.2029 181.299 98.586 183.146 98.0809 185.098C96.6979 174.286 88.8761 172.979 88.8761 156.996C88.8761 154.175 89.3371 149.474 90.7201 148.534C93.025 151.355 94.869 155.585 96.252 160.756C96.252 159.324 96.304 157.817 96.4118 156.274C95.1465 151.16 94.3484 148.553 92.7872 144.216C92.5684 144.273 92.3392 144.303 92.1031 144.303C90.5754 144.303 89.3371 143.041 89.3371 141.483C89.3371 139.925 90.5754 138.662 92.1031 138.662C93.6307 138.662 94.869 139.925 94.869 141.483C94.869 142.157 94.637 142.776 94.2499 143.261C95.4735 147.197 96.0634 149.317 96.7498 152.765C97.049 150.336 97.4885 147.899 98.082 145.606C99.8403 138.815 102.951 133.295 107.777 133.021C107.777 153.678 102.181 157.55 100.446 171.02C101.963 168.378 102.84 167.01 104.408 164.771C104.205 164.421 104.089 164.013 104.089 163.577C104.089 162.279 105.121 161.227 106.394 161.227C107.667 161.227 108.699 162.279 108.699 163.577C108.699 164.875 107.667 165.927 106.394 165.927C106.183 165.927 105.979 165.898 105.785 165.844C103.38 169.092 102.174 170.98 100.113 174.389C100.001 175.974 99.94 177.779 99.94 179.651Z" fill="black"/>
<path d="M90.7201 109.047C93.025 111.868 94.869 116.098 96.252 121.269C96.252 119.837 96.304 118.329 96.4118 116.787C95.1465 111.672 94.3484 109.065 92.7872 104.729C92.5684 104.786 92.3392 104.816 92.1031 104.816C90.5754 104.816 89.3371 103.553 89.3371 101.996C89.3371 100.438 90.5754 99.1752 92.1031 99.1752C93.6307 99.1752 94.869 100.438 94.869 101.996C94.869 102.67 94.637 103.289 94.2499 103.774C95.4735 107.71 96.0634 109.829 96.7498 113.278C97.0342 110.969 97.4452 108.653 97.9947 106.462C98.5164 104.381 99.1628 102.412 99.9444 100.667C101.772 96.5855 104.34 93.7289 107.777 93.5342C107.777 114.191 102.181 118.063 100.446 131.532C101.963 128.891 102.84 127.523 104.408 125.284C104.205 124.934 104.089 124.526 104.089 124.09C104.089 122.792 105.121 121.739 106.394 121.739C107.667 121.739 108.699 122.792 108.699 124.09C108.699 125.388 107.667 126.44 106.394 126.44C106.183 126.44 105.979 126.411 105.785 126.357C103.38 129.605 102.174 131.493 100.113 134.902C100.001 136.487 99.963 138.241 99.963 140.113C99.2162 141.772 98.5922 143.636 98.082 145.606C96.661 134.892 88.8761 133.438 88.8761 117.509C88.8761 114.688 89.3371 109.987 90.7201 109.047Z" fill="black"/>
<path d="M90.7201 70.5C93.025 73.3205 94.869 77.5513 96.252 82.7222C96.252 81.2902 96.304 79.7824 96.4118 78.2402C95.1465 73.1254 94.3484 70.5184 92.7872 66.1823C92.5684 66.2391 92.3392 66.2692 92.1031 66.2692C90.5754 66.2692 89.3371 65.0064 89.3371 63.4487C89.3371 61.891 90.5754 60.6282 92.1031 60.6282C93.6307 60.6282 94.869 61.891 94.869 63.4487C94.869 64.123 94.637 64.742 94.2499 65.2273C95.4735 69.1629 96.0634 71.2823 96.7498 74.7308C97.049 72.3017 97.4885 69.8644 98.082 67.572C99.8403 60.7809 102.951 55.2606 107.777 54.9872C107.777 75.6438 102.181 79.5161 100.446 92.9853C101.963 90.3438 102.84 88.9756 104.408 86.7371C104.205 86.3871 104.089 85.9788 104.089 85.5427C104.089 84.2446 105.121 83.1923 106.394 83.1923C107.667 83.1923 108.699 84.2446 108.699 85.5427C108.699 86.8408 107.667 87.8932 106.394 87.8932C106.183 87.8932 105.979 87.8643 105.785 87.8103C103.38 91.0581 102.174 92.9459 100.113 96.3547C100.019 97.6947 99.9602 99.1261 99.9444 100.667C99.1628 102.412 98.5164 104.381 97.9947 106.462C96.3696 96.285 88.8761 94.5903 88.8761 78.9615C88.8761 76.141 89.3371 71.4402 90.7201 70.5Z" fill="black"/>
<path d="M90.7201 31.0128C93.025 33.8333 94.869 38.0641 96.252 43.235C96.252 41.803 96.304 40.2952 96.4118 38.7531C95.1465 33.6382 94.3484 31.0312 92.7872 26.6951C92.5684 26.7519 92.3392 26.7821 92.1031 26.7821C90.5754 26.7821 89.3371 25.5193 89.3371 23.9615C89.3371 22.4038 90.5754 21.141 92.1031 21.141C93.6307 21.141 94.869 22.4038 94.869 23.9615C94.869 24.6358 94.637 25.2548 94.2499 25.7401C95.4735 29.6757 96.0634 31.7951 96.7498 35.2436C97.9356 25.6186 101.322 15.8657 107.777 15.5C107.777 36.1566 102.181 40.0289 100.446 53.4981C101.963 50.8567 102.84 49.4884 104.408 47.2499C104.205 46.8999 104.089 46.4916 104.089 46.0556C104.089 44.7575 105.121 43.7051 106.394 43.7051C107.667 43.7051 108.699 44.7575 108.699 46.0556C108.699 47.3537 107.667 48.406 106.394 48.406C106.183 48.406 105.979 48.3771 105.785 48.3231C103.38 51.5709 102.174 53.4587 100.113 56.8675C100.001 58.4531 99.94 60.2581 99.94 62.1299C99.2034 63.7764 98.5869 65.6218 98.082 67.572C96.661 56.858 88.8761 55.4042 88.8761 39.4744C88.8761 36.6538 89.3371 31.953 90.7201 31.0128Z" fill="black"/>
<path fill-rule="evenodd" clip-rule="evenodd" d="M63.0039 121.5L68.6366 112.1L78.0243 113.98V103.64L86.0039 98L78.0243 92.36V82.02L68.6366 83.9L63.0039 74.5L57.3713 83.9L47.9835 82.02V92.36L40.0039 98L47.9835 103.64V113.98L57.3713 112.1L63.0039 121.5ZM77.5549 98L72.3917 100.82V108.34L66.2896 107.4L63.0039 112.1L59.7182 107.4L53.6162 108.34V100.82L48.4529 98L53.6162 95.18V87.66L59.7182 88.6L63.0039 83.9L66.2896 88.6L72.3917 87.66V95.18L77.5549 98Z" fill="black"/>
<path fill-rule="evenodd" clip-rule="evenodd" d="M65.8202 100.82H72.3917V95.18H65.8202V88.6H63.0039H60.1876V95.18H53.6162V100.82H60.1876V107.4H63.0039H65.8202V100.82Z" fill="black"/>
<path fill-rule="evenodd" clip-rule="evenodd" d="M63.0039 175.5L68.6366 166.1L78.0243 167.98V157.64L86.0039 152L78.0243 146.36V136.02L68.6366 137.9L63.0039 128.5L57.3713 137.9L47.9835 136.02V146.36L40.0039 152L47.9835 157.64V167.98L57.3713 166.1L63.0039 175.5ZM77.5549 152L72.3917 154.82V162.34L66.2896 161.4L63.0039 166.1L59.7182 161.4L53.6162 162.34V154.82L48.4529 152L53.6162 149.18V141.66L59.7182 142.6L63.0039 137.9L66.2896 142.6L72.3917 141.66V149.18L77.5549 152Z" fill="black"/>
<path fill-rule="evenodd" clip-rule="evenodd" d="M65.8202 154.82H72.3917V149.18H65.8202V142.6H63.0039H60.1876V149.18H53.6162V154.82H60.1876V161.4H63.0039H65.8202V154.82Z" fill="black"/>
</svg>
