<svg width="123" height="242" viewBox="0 0 123 242" fill="none" xmlns="http://www.w3.org/2000/svg">
<path d="M95.0938 0.486816H27.2716C15.3176 0.486816 5.55111 10.0322 5.27737 21.9831L0.764474 219.009C0.481728 231.354 10.4112 241.513 22.7587 241.513H100.403C112.785 241.513 122.729 231.298 122.395 218.921L117.086 21.8942C116.765 9.97908 107.013 0.486816 95.0938 0.486816Z" fill="#121212"/>
<path d="M94.1019 113.16C96.9319 115.363 99.2384 118.72 101.011 122.85C100.98 121.694 101.01 120.475 101.107 119.227C99.4766 115.138 98.4618 113.059 96.4929 109.609C96.2312 109.661 95.9564 109.693 95.6727 109.701C93.8373 109.749 92.3223 108.77 92.2888 107.512C92.2554 106.255 93.7162 105.196 95.5516 105.147C97.387 105.098 98.902 106.078 98.9355 107.335C98.95 107.88 98.6845 108.387 98.2298 108.791C99.7845 111.929 100.539 113.621 101.437 116.383C101.745 114.412 102.221 112.431 102.884 110.561C103.438 109.003 104.121 107.524 104.948 106.192C104.953 106.184 104.958 106.176 104.963 106.168C104.966 106.162 104.97 106.156 104.974 106.15C104.991 106.122 105.009 106.094 105.026 106.066C107.134 102.731 110.151 100.358 114.263 100.092C114.706 116.767 108.065 120.072 106.271 131.001C108.036 128.82 109.061 127.688 110.897 125.83C110.646 125.554 110.497 125.228 110.488 124.876C110.46 123.828 111.677 122.946 113.207 122.905C114.736 122.865 115.999 123.681 116.027 124.729C116.055 125.777 114.837 126.659 113.308 126.7C113.054 126.707 112.809 126.69 112.574 126.653C109.754 129.351 108.346 130.914 105.943 133.732C105.843 135.015 105.808 136.474 105.848 137.985C105.051 139.255 104.384 140.662 103.839 142.144C103.802 142.243 103.766 142.342 103.731 142.441C101.837 133.757 92.4113 132.952 92.0681 120.05C92.0075 117.773 92.4604 113.963 94.1019 113.16Z" fill="#F6C808"/>
<path d="M93.2539 81.2833C96.0839 83.4866 98.3904 86.843 100.163 90.9731C100.132 89.8171 100.162 88.5983 100.259 87.3499C98.6286 83.2613 97.6138 81.1822 95.6449 77.7317C95.3832 77.7845 95.1084 77.8162 94.8247 77.8238C92.9893 77.8726 91.4743 76.8928 91.4408 75.6353C91.4074 74.3777 92.8682 73.3188 94.7036 73.2699C96.539 73.2211 98.054 74.2009 98.0875 75.4584C98.102 76.0028 97.8365 76.5099 97.3818 76.914C98.9365 80.052 99.6908 81.7441 100.589 84.506C100.882 82.6333 101.326 80.7507 101.939 78.9637C102.521 77.2674 103.255 75.6573 104.157 74.2237C106.266 70.8703 109.289 68.4822 113.415 68.2151C113.858 84.8906 107.217 88.1954 105.423 99.1242C107.188 96.9433 108.213 95.8107 110.049 93.9535C109.798 93.6775 109.649 93.3516 109.64 92.9996C109.612 91.9516 110.829 91.0691 112.359 91.0285C113.888 90.9878 115.151 91.8043 115.179 92.8522C115.207 93.9001 113.989 94.7826 112.46 94.8233C112.206 94.83 111.961 94.8133 111.726 94.7759C108.906 97.4746 107.498 99.0371 105.095 101.855C104.995 103.138 104.986 104.555 105.026 106.066C105.009 106.094 104.991 106.122 104.974 106.15L104.963 106.168L104.948 106.192C104.121 107.524 103.438 109.003 102.884 110.561C100.947 101.957 91.5622 101.033 91.2201 88.173C91.1595 85.8961 91.6124 82.0865 93.2539 81.2833Z" fill="#F6C808"/>
<path fill-rule="evenodd" clip-rule="evenodd" d="M103.272 43.1974L103.324 43.1139C103.307 43.1417 103.289 43.1695 103.272 43.1974Z" fill="#F6C808"/>
<path d="M92.4261 50.1655C95.2561 52.3687 97.5625 55.7252 99.3353 59.8553C99.3045 58.6993 99.3346 57.4804 99.4309 56.2321C97.8008 52.1434 96.7859 50.0644 94.817 46.6139C94.5554 46.6667 94.2806 46.6984 93.9969 46.7059C92.1615 46.7548 90.6465 45.7749 90.613 44.5174C90.5796 43.2599 92.0404 42.2009 93.8758 42.1521C95.7112 42.1033 97.2262 43.0831 97.2597 44.3406C97.2742 44.8849 97.0087 45.3921 96.554 45.7962C98.1087 48.9342 98.863 50.6263 99.7617 53.3881C100.069 51.4177 100.545 49.4361 101.209 47.5665C101.762 46.0087 102.446 44.5286 103.272 43.1974L103.324 43.1139C105.433 39.7563 108.458 37.3646 112.587 37.0973C113.03 53.7728 106.39 57.0776 104.595 68.0063C106.361 65.8255 107.385 64.6929 109.221 62.8357C108.97 62.5596 108.821 62.2337 108.812 61.8817C108.784 60.8338 110.001 59.9513 111.531 59.9106C113.06 59.8699 114.323 60.6865 114.351 61.7344C114.379 62.7823 113.161 63.6648 111.632 63.7055C111.379 63.7122 111.133 63.6955 110.899 63.6581C108.078 66.3568 106.67 67.9193 104.267 70.737C104.182 71.8217 104.143 72.9791 104.157 74.2237C103.255 75.6573 102.521 77.2674 101.939 78.9637C99.7678 70.8004 90.7279 69.6718 90.3923 57.0552C90.3317 54.7783 90.7846 50.9687 92.4261 50.1655Z" fill="#F6C808"/>
<path d="M94.9494 145.026C97.7794 147.229 100.086 150.586 101.859 154.716C101.828 153.56 101.858 152.341 101.954 151.092C100.324 147.004 99.3092 144.925 97.3403 141.474C97.0787 141.527 96.8039 141.559 96.5202 141.566C94.6848 141.615 93.1697 140.635 93.1363 139.378C93.1028 138.12 94.5636 137.061 96.3991 137.012C98.2345 136.964 99.7495 137.943 99.783 139.201C99.7974 139.745 99.5319 140.252 99.0773 140.657C100.632 143.795 101.386 145.487 102.285 148.248C102.592 146.278 103.068 144.296 103.732 142.427C104.285 140.869 104.969 139.389 105.795 138.058C105.8 138.05 105.805 138.042 105.81 138.034C105.814 138.028 105.818 138.022 105.821 138.016C105.839 137.988 105.856 137.96 105.874 137.932C107.982 134.597 110.998 132.224 115.11 131.958C115.554 148.633 108.913 151.938 107.118 162.867C108.884 160.686 109.908 159.553 111.745 157.696C111.493 157.42 111.345 157.094 111.335 156.742C111.307 155.694 112.525 154.812 114.054 154.771C115.584 154.73 116.846 155.547 116.874 156.595C116.902 157.643 115.685 158.525 114.155 158.566C113.902 158.573 113.656 158.556 113.422 158.518C110.601 161.217 109.193 162.78 106.791 165.597C106.69 166.881 106.655 168.34 106.695 169.851C105.898 171.12 105.232 172.527 104.686 174.01C104.65 174.109 104.614 174.208 104.579 174.307C102.685 165.623 93.2588 164.818 92.9156 151.916C92.855 149.639 93.3079 145.829 94.9494 145.026Z" fill="#F6C808"/>
<path d="M95.7974 176.903C98.6274 179.106 100.934 182.462 102.707 186.592C102.676 185.436 102.706 184.218 102.802 182.969C101.172 178.881 100.157 176.801 98.1883 173.351C97.9267 173.404 97.6519 173.435 97.3682 173.443C95.5328 173.492 94.0177 172.512 93.9843 171.255C93.9508 169.997 95.4116 168.938 97.2471 168.889C99.0825 168.84 100.598 169.82 100.631 171.078C100.645 171.622 100.38 172.129 99.9253 172.533C101.48 175.671 102.234 177.363 103.133 180.125C103.44 178.155 103.916 176.173 104.58 174.304C105.133 172.746 105.817 171.266 106.643 169.935C106.648 169.927 106.653 169.919 106.658 169.911C106.662 169.905 106.666 169.898 106.669 169.892C106.687 169.865 106.704 169.837 106.722 169.809C108.83 166.473 111.846 164.101 115.958 163.834C116.402 180.51 109.761 183.815 107.966 194.743C109.732 192.563 110.756 191.43 112.593 189.573C112.341 189.297 112.193 188.971 112.183 188.619C112.155 187.571 113.373 186.688 114.902 186.648C116.432 186.607 117.694 187.424 117.722 188.471C117.75 189.519 116.533 190.402 115.003 190.443C114.75 190.449 114.504 190.433 114.27 190.395C111.449 193.094 110.041 194.656 107.639 197.474C107.538 198.758 107.503 200.217 107.543 201.728C106.746 202.997 106.08 204.404 105.534 205.887C105.498 205.986 105.462 206.085 105.427 206.184C103.533 197.5 94.1068 196.695 93.7635 183.792C93.703 181.515 94.1559 177.706 95.7974 176.903Z" fill="#F6C808"/>
<path d="M96.6454 208.779C99.4754 210.983 101.782 214.339 103.555 218.469C103.524 217.313 103.554 216.094 103.65 214.846C102.02 210.757 101.005 208.678 99.0363 205.228C98.7747 205.281 98.4999 205.312 98.2162 205.32C96.3808 205.369 94.8657 204.389 94.8323 203.131C94.7988 201.874 96.2596 200.815 98.0951 200.766C99.9305 200.717 101.446 201.697 101.479 202.954C101.493 203.499 101.228 204.006 100.773 204.41C102.328 207.548 103.082 209.24 103.981 212.002C104.288 210.032 104.764 208.05 105.428 206.18C105.981 204.623 106.665 203.143 107.491 201.812C107.496 201.804 107.501 201.796 107.506 201.787C107.51 201.782 107.514 201.775 107.517 201.769C107.535 201.741 107.552 201.714 107.57 201.686C109.678 198.35 112.694 195.977 116.806 195.711C117.25 212.387 110.609 215.691 108.814 226.62C110.58 224.439 111.604 223.307 113.441 221.45C113.189 221.174 113.041 220.848 113.031 220.496C113.003 219.448 114.221 218.565 115.75 218.525C117.28 218.484 118.542 219.3 118.57 220.348C118.598 221.396 117.381 222.279 115.851 222.319C115.598 222.326 115.352 222.309 115.118 222.272C112.297 224.971 110.889 226.533 108.487 229.351C108.386 230.634 108.351 232.094 108.391 233.605C107.594 234.874 106.928 236.281 106.382 237.764C106.346 237.862 106.31 237.961 106.275 238.061C104.381 229.377 94.9548 228.572 94.6115 215.669C94.551 213.392 95.0039 209.583 96.6454 208.779Z" fill="#F6C808"/>
<path d="M27.9595 113.16C25.1295 115.363 22.8231 118.72 21.0504 122.85C21.0811 121.694 21.051 120.475 20.9547 119.227C22.5848 115.138 23.5997 113.059 25.5686 109.609C25.8302 109.661 26.105 109.693 26.3887 109.701C28.2241 109.749 29.7391 108.77 29.7726 107.512C29.806 106.255 28.3453 105.196 26.5098 105.147C24.6744 105.098 23.1594 106.078 23.1259 107.335C23.1114 107.88 23.3769 108.387 23.8316 108.791C22.2769 111.929 21.5226 113.621 20.6239 116.383C20.3165 114.412 19.8409 112.431 19.177 110.561C18.6238 109.003 17.94 107.524 17.1138 106.192C17.1088 106.184 17.1038 106.176 17.0988 106.168C17.0951 106.162 17.0911 106.156 17.0874 106.15C17.07 106.122 17.0525 106.094 17.035 106.066C14.9271 102.731 11.9105 100.358 7.79875 100.092C7.35514 116.767 13.996 120.072 15.7906 131.001C14.025 128.82 13.0009 127.688 11.1643 125.83C11.4156 125.554 11.5643 125.228 11.5737 124.876C11.6015 123.828 10.3842 122.946 8.8547 122.905C7.32518 122.865 6.06266 123.681 6.03478 124.729C6.0069 125.777 7.22423 126.659 8.75375 126.7C9.00698 126.707 9.25289 126.69 9.48709 126.653C12.3075 129.351 13.7155 130.914 16.1183 133.732C16.2187 135.015 16.2537 136.474 16.2135 137.985C17.0107 139.255 17.6771 140.662 18.2228 142.144C18.2592 142.243 18.2949 142.342 18.3302 142.441C20.2241 133.757 29.6501 132.952 29.9933 120.05C30.0539 117.773 29.601 113.963 27.9595 113.16Z" fill="#F6C808"/>
<path d="M28.8075 81.2833C25.9775 83.4866 23.6711 86.843 21.8984 90.9731C21.9291 89.8171 21.899 88.5983 21.8027 87.3499C23.4328 83.2613 24.4477 81.1822 26.4166 77.7317C26.6782 77.7845 26.953 77.8162 27.2367 77.8238C29.0721 77.8726 30.5871 76.8928 30.6206 75.6353C30.654 74.3777 29.1933 73.3188 27.3578 73.2699C25.5224 73.2211 24.0074 74.2009 23.9739 75.4584C23.9594 76.0028 24.2249 76.5099 24.6796 76.914C23.1249 80.052 22.3706 81.7441 21.4719 84.506C21.1798 82.6333 20.7357 80.7507 20.1225 78.9637C19.5404 77.2674 18.806 75.6573 17.9044 74.2237C15.7956 70.8703 12.7725 68.4822 8.64675 68.2151C8.20314 84.8906 14.844 88.1954 16.6386 99.1242C14.873 96.9433 13.8489 95.8107 12.0123 93.9535C12.2636 93.6775 12.4123 93.3516 12.4217 92.9996C12.4495 91.9516 11.2322 91.0691 9.7027 91.0285C8.17318 90.9878 6.91066 91.8043 6.88278 92.8522C6.85491 93.9001 8.07223 94.7826 9.60175 94.8233C9.85498 94.83 10.1009 94.8133 10.3351 94.7759C13.1555 97.4746 14.5635 99.0371 16.9663 101.855C17.0667 103.138 17.0752 104.555 17.035 106.066C17.0525 106.094 17.07 106.122 17.0874 106.15L17.0988 106.168L17.1138 106.192C17.94 107.524 18.6238 109.003 19.177 110.561C21.1144 101.957 30.4992 101.033 30.8413 88.173C30.9019 85.8961 30.449 82.0865 28.8075 81.2833Z" fill="#F6C808"/>
<path fill-rule="evenodd" clip-rule="evenodd" d="M18.7894 43.1974L18.7373 43.1139C18.7547 43.1417 18.7721 43.1695 18.7894 43.1974Z" fill="#F6C808"/>
<path d="M29.6353 50.1655C26.8053 52.3687 24.4989 55.7252 22.7262 59.8553C22.7569 58.6993 22.7268 57.4804 22.6305 56.2321C24.2606 52.1434 25.2755 50.0644 27.2444 46.6139C27.506 46.6667 27.7808 46.6984 28.0645 46.7059C29.8999 46.7548 31.415 45.7749 31.4484 44.5174C31.4819 43.2599 30.0211 42.2009 28.1856 42.1521C26.3502 42.1033 24.8352 43.0831 24.8017 44.3406C24.7873 44.8849 25.0528 45.3921 25.5074 45.7962C23.9527 48.9342 23.1985 50.6263 22.2997 53.3881C21.9923 51.4177 21.5167 49.4361 20.8528 47.5665C20.2996 46.0087 19.6157 44.5286 18.7894 43.1974L18.7373 43.1139C16.6282 39.7563 13.6036 37.3646 9.47456 37.0973C9.03095 53.7728 15.6718 57.0776 17.4664 68.0063C15.7008 65.8255 14.6767 64.6929 12.8401 62.8357C13.0914 62.5596 13.2401 62.2337 13.2495 61.8817C13.2774 60.8338 12.06 59.9513 10.5305 59.9106C9.00099 59.8699 7.73847 60.6865 7.71059 61.7344C7.68272 62.7823 8.90004 63.6648 10.4296 63.7055C10.6828 63.7122 10.9287 63.6955 11.1629 63.6581C13.9833 66.3568 15.3913 67.9193 17.7942 70.737C17.879 71.8217 17.9185 72.9791 17.9044 74.2237C18.806 75.6573 19.5404 77.2674 20.1225 78.9637C22.2937 70.8004 31.3335 69.6718 31.6692 57.0552C31.7297 54.7783 31.2768 50.9687 29.6353 50.1655Z" fill="#F6C808"/>
<path d="M27.112 145.026C24.282 147.229 21.9756 150.586 20.2029 154.716C20.2336 153.56 20.2036 152.341 20.1072 151.092C21.7373 147.004 22.7522 144.925 24.7211 141.474C24.9828 141.527 25.2575 141.559 25.5412 141.566C27.3767 141.615 28.8917 140.635 28.9251 139.378C28.9586 138.12 27.4978 137.061 25.6624 137.012C23.8269 136.964 22.3119 137.943 22.2785 139.201C22.264 139.745 22.5295 140.252 22.9842 140.657C21.4295 143.795 20.6752 145.487 19.7765 148.248C19.4691 146.278 18.9934 144.296 18.3295 142.427C17.7764 140.869 17.0925 139.389 16.2664 138.058C16.2614 138.05 16.2563 138.042 16.2513 138.034C16.2477 138.028 16.2436 138.022 16.24 138.016C16.2225 137.988 16.2051 137.96 16.1875 137.932C14.0797 134.597 11.0631 132.224 6.95129 131.958C6.50768 148.633 13.1486 151.938 14.9432 162.867C13.1775 160.686 12.1535 159.553 10.3168 157.696C10.5682 157.42 10.7168 157.094 10.7262 156.742C10.7541 155.694 9.53676 154.812 8.00724 154.771C6.47772 154.73 5.21519 155.547 5.18732 156.595C5.15944 157.643 6.37676 158.525 7.90628 158.566C8.15952 158.573 8.40543 158.556 8.63963 158.518C11.4601 161.217 12.868 162.78 15.2709 165.597C15.3712 166.881 15.4062 168.34 15.366 169.851C16.1632 171.12 16.8296 172.527 17.3754 174.01C17.4117 174.109 17.4475 174.208 17.4827 174.307C19.3766 165.623 28.8026 164.818 29.1459 151.916C29.2064 149.639 28.7535 145.829 27.112 145.026Z" fill="#F6C808"/>
<path d="M26.264 176.903C23.434 179.106 21.1276 182.462 19.3549 186.592C19.3856 185.436 19.3556 184.218 19.2592 182.969C20.8893 178.881 21.9042 176.801 23.8731 173.351C24.1348 173.404 24.4095 173.435 24.6932 173.443C26.5287 173.492 28.0437 172.512 28.0771 171.255C28.1106 169.997 26.6498 168.938 24.8144 168.889C22.9789 168.84 21.4639 169.82 21.4305 171.078C21.416 171.622 21.6815 172.129 22.1362 172.533C20.5815 175.671 19.8272 177.363 18.9285 180.125C18.6211 178.155 18.1454 176.173 17.4815 174.304C16.9284 172.746 16.2445 171.266 15.4184 169.935C15.4134 169.927 15.4083 169.919 15.4033 169.911C15.3997 169.905 15.3956 169.898 15.392 169.892C15.3745 169.865 15.3571 169.837 15.3395 169.809C13.2317 166.473 10.2151 164.101 6.10329 163.834C5.65968 180.51 12.3006 183.815 14.0952 194.743C12.3295 192.563 11.3055 191.43 9.46885 189.573C9.72016 189.297 9.86884 188.971 9.8782 188.619C9.90608 187.571 8.68876 186.688 7.15924 186.648C5.62971 186.607 4.36719 187.424 4.33932 188.471C4.31144 189.519 5.52876 190.402 7.05828 190.443C7.31151 190.449 7.55743 190.433 7.79163 190.395C10.6121 193.094 12.02 194.656 14.4229 197.474C14.5232 198.758 14.5582 200.217 14.518 201.728C15.3152 202.997 15.9816 204.404 16.5274 205.887C16.5637 205.986 16.5995 206.085 16.6347 206.184C18.5286 197.5 27.9546 196.695 28.2979 183.792C28.3584 181.515 27.9055 177.706 26.264 176.903Z" fill="#F6C808"/>
<path d="M25.416 208.779C22.586 210.983 20.2796 214.339 18.5069 218.469C18.5376 217.313 18.5076 216.094 18.4112 214.846C20.0413 210.757 21.0562 208.678 23.0251 205.228C23.2868 205.281 23.5615 205.312 23.8452 205.32C25.6806 205.369 27.1957 204.389 27.2291 203.131C27.2626 201.874 25.8018 200.815 23.9664 200.766C22.1309 200.717 20.6159 201.697 20.5825 202.954C20.568 203.499 20.8335 204.006 21.2882 204.41C19.7335 207.548 18.9792 209.24 18.0805 212.002C17.7731 210.032 17.2974 208.05 16.6335 206.18C16.0804 204.623 15.3965 203.143 14.5704 201.812C14.5654 201.804 14.5603 201.796 14.5553 201.787C14.5517 201.782 14.5476 201.775 14.544 201.769C14.5265 201.741 14.5091 201.714 14.4915 201.686C12.3837 198.35 9.36706 195.977 5.25528 195.711C4.81167 212.387 11.4526 215.691 13.2472 226.62C11.4815 224.439 10.4574 223.307 8.62084 221.45C8.87216 221.174 9.02084 220.848 9.0302 220.496C9.05808 219.448 7.84076 218.565 6.31124 218.525C4.78171 218.484 3.51919 219.3 3.49131 220.348C3.46344 221.396 4.68076 222.279 6.21028 222.319C6.46351 222.326 6.70943 222.309 6.94363 222.272C9.76407 224.971 11.172 226.533 13.5749 229.351C13.6752 230.634 13.7102 232.094 13.67 233.605C14.4672 234.874 15.1336 236.281 15.6794 237.764C15.7157 237.862 15.7515 237.961 15.7867 238.061C17.6806 229.377 27.1066 228.572 27.4499 215.669C27.5104 213.392 27.0575 209.583 25.416 208.779Z" fill="#F6C808"/>
<path fill-rule="evenodd" clip-rule="evenodd" d="M98.4873 27.9785C96.7145 23.8484 94.4081 20.492 91.5781 18.2887C89.9366 19.0919 89.4837 22.9015 89.5443 25.1784C89.7427 32.6387 92.9846 36.0822 96.0501 39.3386C98.2688 41.6954 100.395 43.9541 101.209 47.5665C101.762 46.0087 102.446 44.5286 103.272 43.1974L103.324 43.1139C103.284 41.6028 103.319 40.1437 103.419 38.8602C105.822 36.0425 107.23 34.48 110.051 31.7813C110.285 31.8187 110.531 31.8354 110.784 31.8287C112.313 31.788 113.531 30.9055 113.503 29.8576C113.475 28.8097 112.212 27.9932 110.683 28.0338C109.153 28.0745 107.936 28.957 107.964 30.0049C107.973 30.357 108.122 30.6828 108.373 30.9589C106.537 32.8161 105.513 33.9487 103.747 36.1296C104.441 31.9008 105.861 28.8135 107.316 25.6514C109.393 21.1362 111.539 16.4684 111.744 8.10695C110.985 7.22859 110.157 6.41118 109.27 5.66284C103.156 7.51558 99.9947 14.5818 98.9137 21.5114C98.015 18.7495 97.2607 17.0574 95.706 13.9194C96.1607 13.5153 96.4262 13.0081 96.4117 12.4638C96.3782 11.2063 94.8632 10.2265 93.0278 10.2753C91.1923 10.3241 89.7316 11.3831 89.765 12.6406C89.7985 13.8981 91.3135 14.878 93.1489 14.8291C93.4326 14.8216 93.7074 14.7899 93.969 14.7371C95.9379 18.1876 96.9528 20.2666 98.5829 24.3553C98.4866 25.6036 98.4565 26.8225 98.4873 27.9785Z" fill="#F6C808"/>
<path fill-rule="evenodd" clip-rule="evenodd" d="M23.5742 27.9785C25.3469 23.8484 27.6533 20.492 30.4833 18.2887C32.1248 19.0919 32.5777 22.9015 32.5172 25.1784C32.3187 32.6387 29.0769 36.0822 26.0113 39.3386C23.7926 41.6954 21.6662 43.9541 20.8528 47.5665C20.2996 46.0087 19.6157 44.5286 18.7894 43.1974L18.7373 43.1139C18.7775 41.6028 18.7425 40.1437 18.6422 38.8602C16.2393 36.0425 14.8314 34.48 12.0109 31.7813C11.7767 31.8187 11.5308 31.8354 11.2776 31.8287C9.74804 31.788 8.53072 30.9055 8.5586 29.8576C8.58647 28.8097 9.849 27.9932 11.3785 28.0338C12.908 28.0745 14.1254 28.957 14.0975 30.0049C14.0881 30.357 13.9394 30.6828 13.6881 30.9589C15.5247 32.8161 16.5488 33.9487 18.3144 36.1296C17.62 31.9008 16.2001 28.8135 14.7457 25.6514C12.6978 21.1991 10.5818 16.5985 10.3269 8.45446C11.1421 7.47121 12.0412 6.56033 13.013 5.73265C18.9817 7.68722 22.0798 14.666 23.1477 21.5114C24.0465 18.7495 24.8007 17.0574 26.3554 13.9194C25.9008 13.5153 25.6353 13.0081 25.6497 12.4638C25.6832 11.2063 27.1982 10.2265 29.0336 10.2753C30.8691 10.3241 32.3299 11.3831 32.2964 12.6406C32.263 13.8981 30.7479 14.878 28.9125 14.8291C28.6288 14.8216 28.354 14.7899 28.0924 14.7371C26.1235 18.1876 25.1086 20.2666 23.4785 24.3553C23.5748 25.6036 23.6049 26.8225 23.5742 27.9785Z" fill="#F6C808"/>
<path fill-rule="evenodd" clip-rule="evenodd" d="M67.2996 175.748L61.3814 185.625L55.4632 175.748L45.5995 177.724V166.86L37.2153 160.934L45.5995 155.008V144.143L55.4632 146.119L61.3814 136.242L67.2996 146.119L77.1633 144.143V155.008L85.5474 160.934L77.1633 166.86V177.724L67.2996 175.748ZM64.3405 170.81H61.3814H58.4223V163.897H51.5177V157.971H58.4223V151.057H61.3814H64.3405V157.971H71.2451V163.897H64.3405V170.81Z" fill="#F9F5F3"/>
<path d="M61.3814 170.81H64.3405V163.897H71.2451V157.971H64.3405V151.057H61.3814H58.4223V157.971H51.5177V163.897H58.4223V170.81H61.3814Z" fill="#474E58"/>
<path fill-rule="evenodd" clip-rule="evenodd" d="M67.2996 101.766L61.3814 111.642L55.4632 101.766L45.5995 103.741V92.8766L37.2153 86.9507L45.5995 81.0247V70.1605L55.4632 72.1358L61.3814 62.2593L67.2996 72.1358L77.1633 70.1605V81.0247L85.5474 86.9507L77.1633 92.8766V103.741L67.2996 101.766ZM64.3405 96.8272H61.3814H58.4223V89.9137H51.5177V83.9877H58.4223V77.0741H61.3814H64.3405V83.9877H71.2451V89.9137H64.3405V96.8272Z" fill="#F9F5F3"/>
<path d="M61.3814 96.8272H64.3405V89.9137H71.2451V83.9877H64.3405V77.0741H61.3814H58.4223V83.9877H51.5177V89.9137H58.4223V96.8272H61.3814Z" fill="#474E58"/>
</svg>
