<svg width="174" height="242" viewBox="0 0 174 242" fill="none" xmlns="http://www.w3.org/2000/svg">
<path d="M143.068 0.819336H29.5699C17.6966 0.819336 7.96531 10.2408 7.58139 22.108L1.22888 218.469C0.826995 230.892 10.7883 241.181 23.2174 241.181H150.542C163.02 241.181 173 230.813 172.526 218.344L165.052 21.9826C164.603 10.1665 154.893 0.819336 143.068 0.819336Z" fill="#121212"/>
<path d="M91.1588 137.992V127.69H100.056V120.198H91.1588V110.364H82.7304V120.198H73.8333V127.69H82.7304V137.992H91.1588Z" fill="#F6C808"/>
<path d="M86.9444 100.564L106.567 112.397V107.311L86.9444 95.582L67.3224 107.311V112.397L86.9444 100.564Z" fill="#F6C808"/>
<path d="M86.9444 165.62L130.493 189.502V203.55L86.9444 180.137L43.3958 203.55V189.502L86.9444 165.62Z" fill="#F6C808"/>
<path d="M86.9449 143.611C88.8179 144.548 90.691 151.084 87.8814 153.903C89.3391 153.872 90.7446 153.768 92.0958 153.593C93.0324 148.831 89.7545 145.953 94.9054 141.738C94.4372 144.08 95.3737 144.08 95.3737 146.421C95.3737 148.762 92.5641 151.572 93.0324 153.459C94.5056 153.228 95.9113 152.91 97.2468 152.508C98.6516 147.826 95.0265 142.207 100.056 138.46C99.4681 141.108 101.006 140.87 100.993 144.548C100.993 147.358 98.1833 149.847 98.1833 152.208C98.4997 152.101 98.8119 151.988 99.1199 151.871C101.162 151.093 103.018 150.1 104.676 148.903C104.495 147.393 103.891 145.935 103.29 144.486C102.079 141.561 100.882 138.672 103.205 135.463C103.324 136.842 103.745 137.338 104.275 137.961C104.782 138.558 105.389 139.271 105.922 140.991C106.36 142.389 106.043 143.933 105.74 145.411C105.526 146.454 105.319 147.464 105.39 148.365C106.007 147.88 106.595 147.365 107.152 146.821C108.407 145.595 109.521 144.208 110.479 142.66C108.792 138.408 103.561 135.553 105.72 130.058C106.619 132.617 107.799 131.604 109.73 134.734C111.006 136.787 110.391 139.736 110.988 141.797C112.143 139.739 113.038 137.417 113.646 134.834C112.799 133.625 111.632 132.636 110.471 131.652C108.056 129.604 105.671 127.582 106.27 123.665C107.006 124.838 107.608 125.087 108.364 125.399C109.088 125.697 109.953 126.054 111.213 127.34C112.243 128.383 112.667 129.902 113.073 131.354C113.31 132.204 113.542 133.032 113.885 133.729C114.3 131.629 114.532 129.367 114.568 126.942C113.713 125.482 112.377 124.348 111.049 123.223C108.634 121.175 106.249 119.153 106.848 115.236C107.584 116.409 108.186 116.658 108.941 116.97C109.666 117.269 110.531 117.626 111.791 118.911C112.821 119.954 113.245 121.473 113.65 122.925C113.953 124.009 114.246 125.056 114.772 125.841C114.915 123.431 114.222 121.237 113.526 119.032C112.26 115.022 110.984 110.978 114.704 105.543C119.746 110.036 118.819 115.411 117.915 120.65C117.617 122.376 117.322 124.088 117.243 125.749C117.732 124.975 118.014 123.967 118.305 122.925C118.71 121.473 119.135 119.954 120.164 118.911C121.424 117.626 122.29 117.269 123.014 116.97C123.769 116.658 124.371 116.409 125.107 115.236C125.706 119.153 123.321 121.175 120.906 123.223C119.574 124.353 118.232 125.49 117.378 126.958C117.348 129.047 117.18 131.041 116.879 132.934C117.372 132.242 117.729 131.354 118.097 130.439C118.66 129.04 119.248 127.577 120.386 126.653C121.779 125.514 122.678 125.254 123.431 125.037C124.216 124.81 124.842 124.629 125.702 123.544C125.868 127.503 123.275 129.251 120.65 131.021C119.128 132.047 117.596 133.08 116.583 134.556C116.313 135.865 115.975 137.123 115.572 138.328C116.009 137.861 116.419 137.31 116.839 136.748C117.739 135.538 118.681 134.274 120.017 133.67C121.655 132.924 122.591 132.902 123.374 132.883C124.191 132.864 124.842 132.849 125.95 132.018C125.101 135.889 122.149 136.918 119.159 137.961C117.716 138.464 116.264 138.97 115.036 139.801C114.495 141.173 113.862 142.47 113.141 143.689C113.827 143.284 114.486 142.691 115.163 142.082C116.285 141.074 117.457 140.02 118.886 139.692C120.639 139.283 121.561 139.445 122.332 139.582C123.137 139.724 123.778 139.837 125.029 139.241C123.433 142.869 120.336 143.296 117.199 143.729C115.527 143.959 113.844 144.192 112.372 144.911C111.585 146.086 110.709 147.18 109.747 148.191C110.53 147.934 111.324 147.465 112.141 146.982C113.439 146.214 114.796 145.412 116.262 145.372C118.061 145.316 118.932 145.658 119.662 145.943C120.423 146.241 121.03 146.479 122.373 146.141C120.094 149.383 116.973 149.191 113.813 148.997C112.066 148.89 110.307 148.782 108.672 149.253C107.472 150.368 106.164 151.359 104.754 152.226C105.68 152.253 106.703 151.968 107.76 151.673C109.212 151.268 110.731 150.845 112.157 151.186C113.909 151.598 114.662 152.154 115.293 152.618C115.951 153.103 116.475 153.49 117.86 153.512C114.819 156.053 111.854 155.059 108.852 154.053C107.103 153.467 105.341 152.876 103.544 152.979C102.533 153.531 101.519 153.948 100.418 154.382C100.139 154.491 99.8581 154.597 99.5742 154.698C100.414 154.941 101.404 154.967 102.425 154.994C103.932 155.034 105.508 155.075 106.771 155.819C108.324 156.728 108.882 157.48 109.348 158.11C109.835 158.767 110.222 159.29 111.539 159.718C107.886 161.253 105.344 159.433 102.77 157.59C101.373 156.59 99.9673 155.583 98.3695 155.102C98.3076 155.121 98.2455 155.141 98.1833 155.16C95.9425 155.844 93.5429 156.305 91.0036 156.54C91.469 157.801 92.6848 158.388 97.2468 158.388C101.809 158.388 102.74 160.119 103.669 162.455C95.3737 167.192 94.6552 160.694 86.9449 156.723C79.2345 160.694 78.5159 167.192 70.2207 162.455C71.1497 160.119 72.0809 158.388 76.6429 158.388C81.2049 158.388 82.4207 157.801 82.886 156.54C80.3467 156.305 77.9471 155.844 75.7063 155.16C75.6441 155.141 75.5821 155.121 75.5201 155.102C73.9224 155.583 72.5164 156.59 71.1198 157.59C68.5457 159.433 66.0033 161.253 62.3504 159.718C63.6676 159.29 64.0551 158.767 64.5417 158.11C65.008 157.48 65.5652 156.728 67.1188 155.819C68.3815 155.075 69.9575 155.034 71.4651 154.994C72.4861 154.967 73.4758 154.941 74.3154 154.698C74.0315 154.597 73.7504 154.491 73.4721 154.382C72.3703 153.948 71.3567 153.531 70.3459 152.979C68.549 152.876 66.7871 153.467 65.0377 154.053C62.0358 155.059 59.071 156.053 56.0301 153.512C57.4148 153.49 57.9389 153.103 58.5969 152.618C59.2275 152.154 59.9811 151.598 61.7331 151.186C63.1587 150.845 64.6774 151.268 66.1301 151.673C67.1871 151.968 68.2092 152.253 69.1352 152.226C67.7261 151.359 66.4175 150.368 65.2174 149.253C63.5824 148.782 61.8237 148.89 60.077 148.997C56.9169 149.191 53.7959 149.383 51.517 146.141C52.8601 146.479 53.4665 146.241 54.2276 145.943C54.9572 145.658 55.8289 145.316 57.6279 145.372C59.0932 145.412 60.4504 146.214 61.7486 146.982C62.5658 147.465 63.3597 147.934 64.1425 148.191C63.1808 147.18 62.3051 146.086 61.5181 144.911C60.0457 144.192 58.3625 143.959 56.6902 143.729C53.554 143.296 50.4564 142.869 48.8612 139.241C50.1114 139.837 50.7526 139.724 51.5576 139.582C52.3291 139.445 53.2511 139.283 55.0038 139.692C56.4324 140.02 57.6048 141.074 58.7263 142.082C59.4038 142.691 60.0627 143.284 60.7483 143.689C60.0276 142.47 59.3951 141.173 58.8538 139.801C57.6258 138.97 56.1738 138.464 54.7304 137.961C51.741 136.918 48.7884 135.889 47.9393 132.018C49.0477 132.849 49.6987 132.864 50.5159 132.883C51.2991 132.902 52.2351 132.924 53.8728 133.67C55.2087 134.274 56.1504 135.538 57.0511 136.748C57.4703 137.31 57.8806 137.861 58.3177 138.328C57.9143 137.123 57.5768 135.865 57.3066 134.556C56.2941 133.08 54.7614 132.047 53.2396 131.021C50.6146 129.251 48.022 127.503 48.1875 123.544C49.0477 124.629 49.6732 124.81 50.4585 125.037C51.2112 125.254 52.1105 125.514 53.5039 126.653C54.6419 127.577 55.2301 129.04 55.7929 130.439C56.1609 131.354 56.518 132.242 57.0108 132.934C56.7094 131.041 56.5416 129.047 56.512 126.958C55.6577 125.49 54.316 124.353 52.9833 123.223C50.5684 121.175 48.1834 119.153 48.7826 115.236C49.5184 116.409 50.1203 116.658 50.8759 116.97C51.6001 117.269 52.4656 117.626 53.7254 118.911C54.7551 119.954 55.1792 121.473 55.585 122.925C55.876 123.967 56.1576 124.975 56.6463 125.749C56.568 124.088 56.2726 122.376 55.9747 120.65C55.0706 115.411 54.1432 110.036 59.1857 105.543C62.9061 110.978 61.6295 115.022 60.3637 119.032C59.6677 121.237 58.9749 123.431 59.1181 125.841C59.6441 125.056 59.9365 124.009 60.2392 122.925C60.645 121.473 61.0691 119.954 62.0988 118.911C63.3586 117.626 64.224 117.269 64.9483 116.97C65.7039 116.658 66.3058 116.409 67.0416 115.236C67.6408 119.153 65.2557 121.175 62.8409 123.223C61.5131 124.348 60.1764 125.482 59.3217 126.942C59.3572 129.367 59.5898 131.629 60.0051 133.729C60.348 133.032 60.5792 132.204 60.8168 131.354C61.2225 129.902 61.6467 128.383 62.6764 127.34C63.9362 126.054 64.8016 125.697 65.5258 125.399C66.2814 125.087 66.8833 124.838 67.6192 123.665C68.2184 127.582 65.8333 129.604 63.4184 131.652C62.2579 132.636 61.0905 133.625 60.2441 134.834C60.8513 137.417 61.747 139.739 62.9017 141.797C63.499 139.736 62.8837 136.787 64.1599 134.734C66.0907 131.604 67.2711 132.617 68.1692 130.058C70.3287 135.553 65.0981 138.408 63.4104 142.66C64.3687 144.208 65.4823 145.595 66.7372 146.821C67.2947 147.365 67.8825 147.88 68.5 148.365C68.5707 147.464 68.3634 146.454 68.1493 145.411C67.8462 143.933 67.5293 142.389 67.9681 140.991C68.501 139.271 69.1074 138.558 69.6149 137.961C70.1444 137.338 70.5661 136.842 70.6842 135.463C73.0078 138.672 71.811 141.561 70.5993 144.486C69.999 145.935 69.3951 147.393 69.2136 148.903C70.872 150.1 72.7279 151.093 74.7698 151.871C75.0778 151.988 75.3899 152.101 75.7063 152.208C75.7063 149.847 72.8967 147.358 72.8967 144.548C72.8839 140.87 74.4216 141.108 73.8333 138.46C78.8632 142.207 75.2381 147.826 76.6429 152.508C77.9783 152.91 79.384 153.228 80.8573 153.459C81.3256 151.572 78.5159 148.762 78.5159 146.421C78.5159 144.08 79.4525 144.08 78.9842 141.738C84.1352 145.953 80.8573 148.831 81.7938 153.593C83.1451 153.768 84.5506 153.872 86.0082 153.903C83.1986 151.084 85.0718 144.548 86.9449 143.611Z" fill="#F6C808"/>
<path d="M86.9444 71.6201L130.493 95.5018V109.55L86.9444 86.1365L43.3958 109.55V95.5018L86.9444 71.6201Z" fill="#F6C808"/>
<path d="M130.493 208.017H43.3958V219.464H130.493V208.017Z" fill="#F6C808"/>
</svg>
