<svg width="125" height="250" viewBox="0 0 125 250" fill="none" xmlns="http://www.w3.org/2000/svg">
<path d="M0.39502 22.5C0.39502 10.3497 10.2448 0.5 22.395 0.5H102.395C114.545 0.5 124.395 10.3497 124.395 22.5V227.5C124.395 239.65 114.545 249.5 102.395 249.5H22.395C10.2448 249.5 0.39502 239.65 0.39502 227.5V22.5Z" fill="#C5A869"/>
<path fill-rule="evenodd" clip-rule="evenodd" d="M102.395 11.5H22.395C16.3199 11.5 11.395 16.4249 11.395 22.5V227.5C11.395 233.575 16.3199 238.5 22.395 238.5H102.395C108.47 238.5 113.395 233.575 113.395 227.5V22.5C113.395 16.4249 108.47 11.5 102.395 11.5ZM22.395 0.5C10.2448 0.5 0.39502 10.3497 0.39502 22.5V227.5C0.39502 239.65 10.2448 249.5 22.395 249.5H102.395C114.545 249.5 124.395 239.65 124.395 227.5V22.5C124.395 10.3497 114.545 0.5 102.395 0.5H22.395Z" fill="#A68C55"/>
<path d="M24.061 190.5L62.061 160.861L100.061 190.5V179.139L62.061 149.5L24.061 179.139V190.5Z" fill="black"/>
<path d="M63.561 137.968C64.561 147.5 75.061 151.5 82.061 146.5C77.061 144 78.1208 142.5 74.8409 140.5C72.217 138.9 69.061 139 67.561 137.639C69.9769 137.355 72.5509 136.915 75.0561 136.363C75.9 136.177 76.7379 135.978 77.561 135.767C80.561 145.675 93.561 145 97.561 139.5C93.061 138.5 92.561 136.708 90.561 136C87.1695 134.8 83.061 135.387 81.8815 134.5C83.7753 133.863 85.4647 133.167 86.8004 132.439C93.061 134.5 102.061 127.5 100.561 116.5C98.561 118.5 96.061 119 93.061 121.5C90.061 124 87.561 128 86.3216 131.561C84.7314 132.428 82.5876 133.259 80.1658 134C80.561 132.5 83.061 131 85.061 127.5C87.061 124 87.561 120 89.561 117.5C85.561 116.5 81.061 120 78.561 124C76.061 128 75.561 130.5 77.3009 134.802C76.4949 135.008 75.6721 135.204 74.8409 135.387C71.8707 136.041 68.8154 136.533 66.061 136.792C67.561 133.5 70.061 133 72.061 129.5C74.061 126 75.061 120.5 76.061 119.5C72.061 119 68.561 121 65.561 125.5C62.061 131 64.061 133 63.7948 136.956C62.639 137.012 61.4829 137.012 60.3271 136.956C60.0609 133 62.0609 131 58.5609 125.5C55.5609 121 52.0609 119 48.0609 119.5C49.0609 120.5 50.0609 126 52.0609 129.5C54.0609 133 56.5609 133.5 58.0609 136.792C55.3065 136.533 52.2512 136.041 49.281 135.387C48.4498 135.204 47.627 135.008 46.821 134.802C48.5609 130.5 48.0609 128 45.5609 124C43.0609 120 38.5609 116.5 34.5609 117.5C36.5609 120 37.0609 124 39.0609 127.5C41.0609 131 43.5609 132.5 43.9561 134C41.5343 133.259 39.3905 132.428 37.8003 131.561C36.5609 128 34.0609 124 31.0609 121.5C28.0609 119 25.5609 118.5 23.5609 116.5C22.0609 127.5 31.0609 134.5 37.3215 132.439C38.6572 133.167 40.3466 133.863 42.2404 134.5C41.0609 135.387 36.9525 134.8 33.5609 136C31.5609 136.708 31.0609 138.5 26.5609 139.5C30.5609 145 43.5609 145.675 46.5609 135.767C47.384 135.978 48.2219 136.177 49.0658 136.363C51.571 136.915 54.145 137.355 56.5609 137.639C55.0609 139 51.9049 138.9 49.281 140.5C46.0011 142.5 47.0609 144 42.0609 146.5C49.0609 151.5 59.5609 147.5 60.5609 137.968C61.5964 138.01 62.5255 138.01 63.561 137.968Z" fill="black"/>
<path d="M66.061 119.5V110H75.5609V102H66.061V93H58.061V102H48.561V110H58.061V119.5H66.061Z" fill="black"/>
<path d="M41.0609 96.5L62.0609 80.5964L83.0609 96.5V90.4036L62.0609 74.5L41.0609 90.4036V96.5Z" fill="black"/>
<path d="M24.061 88.5L62.061 58.8615L100.061 88.5V77.1385L62.061 47.5L24.061 77.1385V88.5Z" fill="black"/>
<path d="M24.061 194.5H100.061V202.5H24.061V194.5Z" fill="black"/>
</svg>
