<svg width="125" height="250" viewBox="0 0 125 250" fill="none" xmlns="http://www.w3.org/2000/svg">
<path d="M0.513672 22.5C0.513672 10.3497 10.3634 0.5 22.5137 0.5H102.514C114.664 0.5 124.514 10.3497 124.514 22.5V227.5C124.514 239.65 114.664 249.5 102.514 249.5H22.5137C10.3634 249.5 0.513672 239.65 0.513672 227.5V22.5Z" fill="#C5A869"/>
<path fill-rule="evenodd" clip-rule="evenodd" d="M102.514 11.5H22.5137C16.4385 11.5 11.5137 16.4249 11.5137 22.5V227.5C11.5137 233.575 16.4385 238.5 22.5137 238.5H102.514C108.589 238.5 113.514 233.575 113.514 227.5V22.5C113.514 16.4249 108.589 11.5 102.514 11.5ZM22.5137 0.5C10.3634 0.5 0.513672 10.3497 0.513672 22.5V227.5C0.513672 239.65 10.3634 249.5 22.5137 249.5H102.514C114.664 249.5 124.514 239.65 124.514 227.5V22.5C124.514 10.3497 114.664 0.5 102.514 0.5H22.5137Z" fill="#A68C55"/>
<path d="M27.4216 235.5C33.6883 231.126 38.9465 219.047 38.4855 212.936C32.496 215.186 30.4183 218.244 27.4216 224.688C28.8046 213.876 36.6415 212.466 36.6415 196.483C36.6415 193.662 36.1805 188.962 34.7975 188.021C32.4925 190.842 30.6485 195.073 29.2656 200.244C29.2656 198.812 29.2136 197.304 29.1058 195.762C30.3711 190.647 31.1692 188.04 32.7304 183.704C32.9492 183.76 33.1784 183.791 33.4145 183.791C34.9421 183.791 36.1805 182.528 36.1805 180.97C36.1805 179.412 34.9421 178.15 33.4145 178.15C31.8869 178.15 30.6485 179.412 30.6485 180.97C30.6485 181.644 30.8806 182.263 31.2677 182.749C30.0441 186.684 29.4542 188.804 28.7678 192.252C27.582 182.627 24.1956 172.874 17.7406 172.509C17.7406 193.165 23.337 197.037 25.0714 210.507C23.5546 207.865 22.6779 206.497 21.1093 204.258C21.3122 203.908 21.4286 203.5 21.4286 203.064C21.4286 201.766 20.3966 200.714 19.1236 200.714C17.8506 200.714 16.8187 201.766 16.8187 203.064C16.8187 204.362 17.8506 205.415 19.1236 205.415C19.3344 205.415 19.5386 205.386 19.7325 205.332C22.138 208.579 23.3436 210.467 25.4044 213.876C25.5162 215.462 25.5776 217.175 25.5776 219.047C23.7336 214.346 20.5066 211.056 14.5137 209.645C15.8967 221.397 21.4286 228.919 27.4216 235.5Z" fill="black"/>
<path d="M25.5776 179.651C26.3147 181.299 26.9315 183.146 27.4367 185.098C28.8197 174.286 36.6415 172.979 36.6415 156.996C36.6415 154.175 36.1805 149.474 34.7975 148.534C32.4925 151.355 30.6485 155.585 29.2656 160.756C29.2656 159.324 29.2136 157.817 29.1058 156.274C30.3711 151.16 31.1692 148.553 32.7304 144.216C32.9492 144.273 33.1784 144.303 33.4145 144.303C34.9421 144.303 36.1805 143.041 36.1805 141.483C36.1805 139.925 34.9421 138.662 33.4145 138.662C31.8869 138.662 30.6485 139.925 30.6485 141.483C30.6485 142.157 30.8806 142.776 31.2677 143.261C30.0441 147.197 29.4542 149.317 28.7678 152.765C28.4685 150.336 28.0291 147.899 27.4356 145.606C25.6773 138.815 22.5665 133.295 17.7406 133.021C17.7406 153.678 23.337 157.55 25.0714 171.02C23.5546 168.378 22.6779 167.01 21.1093 164.771C21.3122 164.421 21.4286 164.013 21.4286 163.577C21.4286 162.279 20.3966 161.227 19.1236 161.227C17.8506 161.227 16.8187 162.279 16.8187 163.577C16.8187 164.875 17.8506 165.927 19.1236 165.927C19.3344 165.927 19.5386 165.898 19.7325 165.844C22.138 169.092 23.3436 170.98 25.4044 174.389C25.5162 175.974 25.5776 177.779 25.5776 179.651Z" fill="black"/>
<path d="M34.7975 109.047C32.4925 111.868 30.6485 116.098 29.2656 121.269C29.2656 119.837 29.2136 118.329 29.1058 116.787C30.3711 111.672 31.1692 109.065 32.7304 104.729C32.9492 104.786 33.1784 104.816 33.4145 104.816C34.9421 104.816 36.1805 103.553 36.1805 101.996C36.1805 100.438 34.9421 99.1752 33.4145 99.1752C31.8869 99.1752 30.6485 100.438 30.6485 101.996C30.6485 102.67 30.8806 103.289 31.2677 103.774C30.0441 107.71 29.4542 109.829 28.7678 113.278C28.4834 110.969 28.0724 108.653 27.5229 106.462C27.0012 104.381 26.3548 102.412 25.5732 100.667C23.7451 96.5855 21.1779 93.7289 17.7406 93.5342C17.7406 114.191 23.337 118.063 25.0714 131.532C23.5546 128.891 22.6779 127.523 21.1093 125.284C21.3122 124.934 21.4286 124.526 21.4286 124.09C21.4286 122.792 20.3966 121.739 19.1236 121.739C17.8506 121.739 16.8187 122.792 16.8187 124.09C16.8187 125.388 17.8506 126.44 19.1236 126.44C19.3344 126.44 19.5386 126.411 19.7325 126.357C22.138 129.605 23.3436 131.493 25.4044 134.902C25.5162 136.487 25.5546 138.241 25.5546 140.113C26.3014 141.772 26.9254 143.636 27.4356 145.606C28.8566 134.892 36.6415 133.438 36.6415 117.509C36.6415 114.688 36.1805 109.987 34.7975 109.047Z" fill="black"/>
<path d="M34.7975 70.5C32.4925 73.3205 30.6485 77.5513 29.2656 82.7222C29.2656 81.2902 29.2136 79.7824 29.1058 78.2402C30.3711 73.1254 31.1692 70.5184 32.7304 66.1823C32.9492 66.2391 33.1784 66.2692 33.4145 66.2692C34.9421 66.2692 36.1805 65.0064 36.1805 63.4487C36.1805 61.891 34.9421 60.6282 33.4145 60.6282C31.8869 60.6282 30.6485 61.891 30.6485 63.4487C30.6485 64.123 30.8806 64.742 31.2677 65.2273C30.0441 69.1629 29.4542 71.2823 28.7678 74.7308C28.4685 72.3017 28.0291 69.8644 27.4356 67.572C25.6773 60.7809 22.5665 55.2606 17.7406 54.9872C17.7406 75.6438 23.337 79.5161 25.0714 92.9853C23.5546 90.3438 22.6779 88.9756 21.1093 86.7371C21.3122 86.3871 21.4286 85.9788 21.4286 85.5427C21.4286 84.2446 20.3966 83.1923 19.1236 83.1923C17.8506 83.1923 16.8187 84.2446 16.8187 85.5427C16.8187 86.8408 17.8506 87.8932 19.1236 87.8932C19.3344 87.8932 19.5386 87.8643 19.7325 87.8103C22.138 91.0581 23.3436 92.9459 25.4044 96.3547C25.4989 97.6947 25.5574 99.1261 25.5732 100.667C26.3548 102.412 27.0012 104.381 27.5229 106.462C29.148 96.285 36.6415 94.5903 36.6415 78.9615C36.6415 76.141 36.1805 71.4402 34.7975 70.5Z" fill="black"/>
<path d="M34.7975 31.0128C32.4925 33.8333 30.6485 38.0641 29.2656 43.235C29.2656 41.803 29.2136 40.2952 29.1058 38.7531C30.3711 33.6382 31.1692 31.0312 32.7304 26.6951C32.9492 26.7519 33.1784 26.7821 33.4145 26.7821C34.9421 26.7821 36.1805 25.5193 36.1805 23.9615C36.1805 22.4038 34.9421 21.141 33.4145 21.141C31.8869 21.141 30.6485 22.4038 30.6485 23.9615C30.6485 24.6358 30.8806 25.2548 31.2677 25.7401C30.0441 29.6757 29.4542 31.7951 28.7678 35.2436C27.582 25.6186 24.1956 15.8657 17.7406 15.5C17.7406 36.1566 23.337 40.0289 25.0714 53.4981C23.5546 50.8567 22.6779 49.4884 21.1093 47.2499C21.3122 46.8999 21.4286 46.4916 21.4286 46.0556C21.4286 44.7575 20.3966 43.7051 19.1236 43.7051C17.8506 43.7051 16.8187 44.7575 16.8187 46.0556C16.8187 47.3537 17.8506 48.406 19.1236 48.406C19.3344 48.406 19.5386 48.3771 19.7325 48.3231C22.138 51.5709 23.3436 53.4587 25.4044 56.8675C25.5162 58.4531 25.5776 60.2581 25.5776 62.1299C26.3142 63.7764 26.9306 65.6218 27.4356 67.572C28.8566 56.858 36.6415 55.4042 36.6415 39.4744C36.6415 36.6538 36.1805 31.953 34.7975 31.0128Z" fill="black"/>
<path d="M98.6058 235.5C92.339 231.126 87.0809 219.047 87.5419 212.936C93.5313 215.186 95.609 218.244 98.6058 224.688C97.2228 213.876 89.3858 212.466 89.3858 196.483C89.3858 193.662 89.8468 188.962 91.2298 188.021C93.5348 190.842 95.3788 195.073 96.7618 200.244C96.7618 198.812 96.8138 197.304 96.9215 195.762C95.6562 190.647 94.8581 188.04 93.297 183.704C93.0782 183.76 92.8489 183.791 92.6128 183.791C91.0852 183.791 89.8468 182.528 89.8468 180.97C89.8468 179.412 91.0852 178.15 92.6128 178.15C94.1404 178.15 95.3788 179.412 95.3788 180.97C95.3788 181.644 95.1468 182.263 94.7597 182.749C95.9833 186.684 96.5732 188.804 97.2595 192.252C98.4454 182.627 101.832 172.874 108.287 172.509C108.287 193.165 102.69 197.037 100.956 210.507C102.473 207.865 103.349 206.497 104.918 204.258C104.715 203.908 104.599 203.5 104.599 203.064C104.599 201.766 105.631 200.714 106.904 200.714C108.177 200.714 109.209 201.766 109.209 203.064C109.209 204.362 108.177 205.415 106.904 205.415C106.693 205.415 106.489 205.386 106.295 205.332C103.889 208.579 102.684 210.467 100.623 213.876C100.511 215.462 100.45 217.175 100.45 219.047C102.294 214.346 105.521 211.056 111.514 209.645C110.131 221.397 104.599 228.919 98.6058 235.5Z" fill="black"/>
<path d="M100.45 179.651C99.7126 181.299 99.0958 183.146 98.5907 185.098C97.2077 174.286 89.3858 172.979 89.3858 156.996C89.3858 154.175 89.8468 149.474 91.2298 148.534C93.5348 151.355 95.3788 155.585 96.7618 160.756C96.7618 159.324 96.8138 157.817 96.9215 156.274C95.6562 151.16 94.8581 148.553 93.297 144.216C93.0782 144.273 92.8489 144.303 92.6128 144.303C91.0852 144.303 89.8468 143.041 89.8468 141.483C89.8468 139.925 91.0852 138.662 92.6128 138.662C94.1404 138.662 95.3788 139.925 95.3788 141.483C95.3788 142.157 95.1468 142.776 94.7597 143.261C95.9833 147.197 96.5732 149.317 97.2595 152.765C97.5588 150.336 97.9982 147.899 98.5918 145.606C100.35 138.815 103.461 133.295 108.287 133.021C108.287 153.678 102.69 157.55 100.956 171.02C102.473 168.378 103.349 167.01 104.918 164.771C104.715 164.421 104.599 164.013 104.599 163.577C104.599 162.279 105.631 161.227 106.904 161.227C108.177 161.227 109.209 162.279 109.209 163.577C109.209 164.875 108.177 165.927 106.904 165.927C106.693 165.927 106.489 165.898 106.295 165.844C103.889 169.092 102.684 170.98 100.623 174.389C100.511 175.974 100.45 177.779 100.45 179.651Z" fill="black"/>
<path d="M91.2298 109.047C93.5348 111.868 95.3788 116.098 96.7618 121.269C96.7618 119.837 96.8138 118.329 96.9215 116.787C95.6562 111.672 94.8581 109.065 93.297 104.729C93.0782 104.786 92.8489 104.816 92.6128 104.816C91.0852 104.816 89.8468 103.553 89.8468 101.996C89.8468 100.438 91.0852 99.1752 92.6128 99.1752C94.1404 99.1752 95.3788 100.438 95.3788 101.996C95.3788 102.67 95.1468 103.289 94.7597 103.774C95.9833 107.71 96.5732 109.829 97.2595 113.278C97.5439 110.969 97.9549 108.653 98.5045 106.462C99.0261 104.381 99.6726 102.412 100.454 100.667C102.282 96.5855 104.849 93.7289 108.287 93.5342C108.287 114.191 102.69 118.063 100.956 131.532C102.473 128.891 103.349 127.523 104.918 125.284C104.715 124.934 104.599 124.526 104.599 124.09C104.599 122.792 105.631 121.739 106.904 121.739C108.177 121.739 109.209 122.792 109.209 124.09C109.209 125.388 108.177 126.44 106.904 126.44C106.693 126.44 106.489 126.411 106.295 126.357C103.889 129.605 102.684 131.493 100.623 134.902C100.511 136.487 100.473 138.241 100.473 140.113C99.726 141.772 99.1019 143.636 98.5918 145.606C97.1708 134.892 89.3858 133.438 89.3858 117.509C89.3858 114.688 89.8468 109.987 91.2298 109.047Z" fill="black"/>
<path d="M91.2298 70.5C93.5348 73.3205 95.3788 77.5513 96.7618 82.7222C96.7618 81.2902 96.8138 79.7824 96.9215 78.2402C95.6562 73.1254 94.8581 70.5184 93.297 66.1823C93.0782 66.2391 92.8489 66.2692 92.6128 66.2692C91.0852 66.2692 89.8468 65.0064 89.8468 63.4487C89.8468 61.891 91.0852 60.6282 92.6128 60.6282C94.1404 60.6282 95.3788 61.891 95.3788 63.4487C95.3788 64.123 95.1468 64.742 94.7597 65.2273C95.9833 69.1629 96.5732 71.2823 97.2595 74.7308C97.5588 72.3017 97.9982 69.8644 98.5918 67.572C100.35 60.7809 103.461 55.2606 108.287 54.9872C108.287 75.6438 102.69 79.5161 100.956 92.9853C102.473 90.3438 103.349 88.9756 104.918 86.7371C104.715 86.3871 104.599 85.9788 104.599 85.5427C104.599 84.2446 105.631 83.1923 106.904 83.1923C108.177 83.1923 109.209 84.2446 109.209 85.5427C109.209 86.8408 108.177 87.8932 106.904 87.8932C106.693 87.8932 106.489 87.8643 106.295 87.8103C103.889 91.0581 102.684 92.9459 100.623 96.3547C100.528 97.6947 100.47 99.1261 100.454 100.667C99.6726 102.412 99.0261 104.381 98.5045 106.462C96.8793 96.285 89.3858 94.5903 89.3858 78.9615C89.3858 76.141 89.8468 71.4402 91.2298 70.5Z" fill="black"/>
<path d="M91.2298 31.0128C93.5348 33.8333 95.3788 38.0641 96.7618 43.235C96.7618 41.803 96.8138 40.2952 96.9215 38.7531C95.6562 33.6382 94.8581 31.0312 93.297 26.6951C93.0782 26.7519 92.8489 26.7821 92.6128 26.7821C91.0852 26.7821 89.8468 25.5193 89.8468 23.9615C89.8468 22.4038 91.0852 21.141 92.6128 21.141C94.1404 21.141 95.3788 22.4038 95.3788 23.9615C95.3788 24.6358 95.1468 25.2548 94.7597 25.7401C95.9833 29.6757 96.5732 31.7951 97.2595 35.2436C98.4454 25.6186 101.832 15.8657 108.287 15.5C108.287 36.1566 102.69 40.0289 100.956 53.4981C102.473 50.8567 103.349 49.4884 104.918 47.2499C104.715 46.8999 104.599 46.4916 104.599 46.0556C104.599 44.7575 105.631 43.7051 106.904 43.7051C108.177 43.7051 109.209 44.7575 109.209 46.0556C109.209 47.3537 108.177 48.406 106.904 48.406C106.693 48.406 106.489 48.3771 106.295 48.3231C103.889 51.5709 102.684 53.4587 100.623 56.8675C100.511 58.4531 100.45 60.2581 100.45 62.1299C99.7132 63.7764 99.0967 65.6218 98.5918 67.572C97.1708 56.858 89.3858 55.4042 89.3858 39.4744C89.3858 36.6538 89.8468 31.953 91.2298 31.0128Z" fill="black"/>
<path fill-rule="evenodd" clip-rule="evenodd" d="M62.5137 121.5L68.1463 112.1L77.5341 113.98V103.64L85.5137 98L77.5341 92.36V82.02L68.1463 83.9L62.5137 74.5L56.881 83.9L47.4933 82.02V92.36L39.5137 98L47.4933 103.64V113.98L56.881 112.1L62.5137 121.5ZM77.0647 98L71.9014 100.82V108.34L65.7994 107.4L62.5137 112.1L59.228 107.4L53.1259 108.34V100.82L47.9627 98L53.1259 95.18V87.66L59.228 88.6L62.5137 83.9L65.7994 88.6L71.9014 87.66V95.18L77.0647 98Z" fill="black"/>
<path fill-rule="evenodd" clip-rule="evenodd" d="M65.33 100.82H71.9014V95.18H65.33V88.6H62.5137H59.6973V95.18H53.1259V100.82H59.6973V107.4H62.5137H65.33V100.82Z" fill="black"/>
<path fill-rule="evenodd" clip-rule="evenodd" d="M62.5137 175.5L68.1463 166.1L77.5341 167.98V157.64L85.5137 152L77.5341 146.36V136.02L68.1463 137.9L62.5137 128.5L56.881 137.9L47.4933 136.02V146.36L39.5137 152L47.4933 157.64V167.98L56.881 166.1L62.5137 175.5ZM77.0647 152L71.9014 154.82V162.34L65.7994 161.4L62.5137 166.1L59.228 161.4L53.1259 162.34V154.82L47.9627 152L53.1259 149.18V141.66L59.228 142.6L62.5137 137.9L65.7994 142.6L71.9014 141.66V149.18L77.0647 152Z" fill="black"/>
<path fill-rule="evenodd" clip-rule="evenodd" d="M65.33 154.82H71.9014V149.18H65.33V142.6H62.5137H59.6973V149.18H53.1259V154.82H59.6973V161.4H62.5137H65.33V154.82Z" fill="black"/>
<path fill-rule="evenodd" clip-rule="evenodd" d="M62.5137 229.5L68.1463 220.1L77.5341 221.98V211.64L85.5137 206L77.5341 200.36V190.02L68.1463 191.9L62.5137 182.5L56.881 191.9L47.4933 190.02V200.36L39.5137 206L47.4933 211.64V221.98L56.881 220.1L62.5137 229.5ZM77.0647 206L71.9014 208.82V216.34L65.7994 215.4L62.5137 220.1L59.228 215.4L53.1259 216.34V208.82L47.9627 206L53.1259 203.18V195.66L59.228 196.6L62.5137 191.9L65.7994 196.6L71.9014 195.66V203.18L77.0647 206Z" fill="black"/>
<path fill-rule="evenodd" clip-rule="evenodd" d="M65.33 208.82H71.9014V203.18H65.33V196.6H62.5137H59.6973V203.18H53.1259V208.82H59.6973V215.4H62.5137H65.33V208.82Z" fill="black"/>
<path fill-rule="evenodd" clip-rule="evenodd" d="M62.5137 67.5L68.1463 58.1L77.5341 59.98V49.64L85.5137 44L77.5341 38.36V28.02L68.1463 29.9L62.5137 20.5L56.881 29.9L47.4933 28.02V38.36L39.5137 44L47.4933 49.64V59.98L56.881 58.1L62.5137 67.5ZM77.0647 44L71.9014 46.82V54.34L65.7994 53.4L62.5137 58.1L59.228 53.4L53.1259 54.34V46.82L47.9627 44L53.1259 41.18V33.66L59.228 34.6L62.5137 29.9L65.7994 34.6L71.9014 33.66V41.18L77.0647 44Z" fill="black"/>
<path fill-rule="evenodd" clip-rule="evenodd" d="M65.33 46.82H71.9014V41.18H65.33V34.6H62.5137H59.6973V41.18H53.1259V46.82H59.6973V53.4H62.5137H65.33V46.82Z" fill="black"/>
</svg>
