<svg width="124" height="242" viewBox="0 0 124 242" fill="none" xmlns="http://www.w3.org/2000/svg">
<path d="M95.6036 0.486816H27.7814C15.8274 0.486816 6.06087 10.0322 5.78714 21.9831L1.27424 219.009C0.991494 231.354 10.921 241.513 23.2685 241.513H100.913C113.295 241.513 123.238 231.298 122.905 218.921L117.596 21.8942C117.274 9.97908 107.523 0.486816 95.6036 0.486816Z" fill="#121212"/>
<path d="M94.6118 113.16C97.4418 115.363 99.7482 118.72 101.521 122.85C101.49 121.694 101.52 120.475 101.617 119.227C99.9865 115.138 98.9716 113.059 97.0027 109.609C96.7411 109.661 96.4663 109.693 96.1826 109.701C94.3472 109.749 92.8322 108.77 92.7987 107.512C92.7653 106.255 94.2261 105.196 96.0615 105.147C97.8969 105.098 99.4119 106.078 99.4454 107.335C99.4599 107.88 99.1944 108.387 98.7397 108.791C100.294 111.929 101.049 113.621 101.947 116.383C102.255 114.412 102.73 112.431 103.394 110.561C103.947 109.003 104.631 107.524 105.457 106.192C105.462 106.184 105.467 106.176 105.473 106.168C105.476 106.162 105.48 106.156 105.484 106.15C105.501 106.122 105.519 106.094 105.536 106.066C107.644 102.731 110.661 100.358 114.773 100.092C115.216 116.767 108.575 120.072 106.781 131.001C108.546 128.82 109.57 127.688 111.407 125.83C111.156 125.554 111.007 125.228 110.998 124.876C110.97 123.828 112.187 122.946 113.717 122.905C115.246 122.865 116.509 123.681 116.537 124.729C116.564 125.777 115.347 126.659 113.818 126.7C113.564 126.707 113.318 126.69 113.084 126.653C110.264 129.351 108.856 130.914 106.453 133.732C106.353 135.015 106.318 136.474 106.358 137.985C105.561 139.255 104.894 140.662 104.348 142.144C104.312 142.243 104.276 142.342 104.241 142.441C102.347 133.757 92.9212 132.952 92.578 120.05C92.5174 117.773 92.9703 113.963 94.6118 113.16Z" fill="#F6C808"/>
<path d="M93.7638 81.2833C96.5938 83.4866 98.9002 86.843 100.673 90.9731C100.642 89.8171 100.672 88.5983 100.769 87.3499C99.1385 83.2613 98.1236 81.1822 96.1547 77.7317C95.8931 77.7845 95.6183 77.8162 95.3346 77.8238C93.4992 77.8726 91.9842 76.8928 91.9507 75.6353C91.9173 74.3777 93.3781 73.3188 95.2135 73.2699C97.0489 73.2211 98.5639 74.2009 98.5974 75.4584C98.6119 76.0028 98.3464 76.5099 97.8917 76.914C99.4464 80.052 100.201 81.7441 101.099 84.506C101.392 82.6333 101.836 80.7507 102.449 78.9637C103.031 77.2674 103.765 75.6573 104.667 74.2237C106.776 70.8703 109.799 68.4822 113.925 68.2151C114.368 84.8906 107.727 88.1954 105.933 99.1242C107.698 96.9433 108.722 95.8107 110.559 93.9535C110.308 93.6775 110.159 93.3516 110.15 92.9996C110.122 91.9516 111.339 91.0691 112.869 91.0285C114.398 90.9878 115.661 91.8043 115.689 92.8522C115.716 93.9001 114.499 94.7826 112.97 94.8233C112.716 94.83 112.47 94.8133 112.236 94.7759C109.416 97.4746 108.008 99.0371 105.605 101.855C105.505 103.138 105.496 104.555 105.536 106.066C105.519 106.094 105.501 106.122 105.484 106.15L105.473 106.168L105.457 106.192C104.631 107.524 103.947 109.003 103.394 110.561C101.457 101.957 92.0721 101.033 91.73 88.173C91.6694 85.8961 92.1223 82.0865 93.7638 81.2833Z" fill="#F6C808"/>
<path fill-rule="evenodd" clip-rule="evenodd" d="M103.782 43.1974L103.834 43.1139C103.817 43.1417 103.799 43.1695 103.782 43.1974Z" fill="#F6C808"/>
<path d="M92.936 50.1655C95.766 52.3687 98.0724 55.7252 99.8451 59.8553C99.8144 58.6993 99.8445 57.4804 99.9408 56.2321C98.3107 52.1434 97.2958 50.0644 95.3269 46.6139C95.0653 46.6667 94.7905 46.6984 94.5068 46.7059C92.6714 46.7548 91.1564 45.7749 91.1229 44.5174C91.0894 43.2599 92.5502 42.2009 94.3857 42.1521C96.2211 42.1033 97.7361 43.0831 97.7696 44.3406C97.784 44.8849 97.5185 45.3921 97.0639 45.7962C98.6186 48.9342 99.3728 50.6263 100.272 53.3881C100.579 51.4177 101.055 49.4361 101.719 47.5665C102.272 46.0087 102.956 44.5286 103.782 43.1974L103.834 43.1139C105.943 39.7563 108.968 37.3646 113.097 37.0973C113.54 53.7728 106.899 57.0776 105.105 68.0063C106.871 65.8255 107.895 64.6929 109.731 62.8357C109.48 62.5596 109.331 62.2337 109.322 61.8817C109.294 60.8338 110.511 59.9513 112.041 59.9106C113.57 59.8699 114.833 60.6865 114.861 61.7344C114.889 62.7823 113.671 63.6648 112.142 63.7055C111.889 63.7122 111.643 63.6955 111.408 63.6581C108.588 66.3568 107.18 67.9193 104.777 70.737C104.692 71.8217 104.653 72.9791 104.667 74.2237C103.765 75.6573 103.031 77.2674 102.449 78.9637C100.278 70.8004 91.2378 69.6718 90.9022 57.0552C90.8416 54.7783 91.2945 50.9687 92.936 50.1655Z" fill="#F6C808"/>
<path d="M95.4593 145.026C98.2893 147.229 100.596 150.586 102.368 154.716C102.338 153.56 102.368 152.341 102.464 151.092C100.834 147.004 99.8191 144.925 97.8502 141.474C97.5885 141.527 97.3138 141.559 97.0301 141.566C95.1947 141.615 93.6796 140.635 93.6462 139.378C93.6127 138.12 95.0735 137.061 96.9089 137.012C98.7444 136.964 100.259 137.943 100.293 139.201C100.307 139.745 100.042 140.252 99.5872 140.657C101.142 143.795 101.896 145.487 102.795 148.248C103.102 146.278 103.578 144.296 104.242 142.427C104.795 140.869 105.479 139.389 106.305 138.058C106.31 138.05 106.315 138.042 106.32 138.034C106.324 138.028 106.328 138.022 106.331 138.016C106.349 137.988 106.366 137.96 106.384 137.932C108.492 134.597 111.508 132.224 115.62 131.958C116.064 148.633 109.423 151.938 107.628 162.867C109.394 160.686 110.418 159.553 112.254 157.696C112.003 157.42 111.854 157.094 111.845 156.742C111.817 155.694 113.035 154.812 114.564 154.771C116.094 154.73 117.356 155.547 117.384 156.595C117.412 157.643 116.195 158.525 114.665 158.566C114.412 158.573 114.166 158.556 113.932 158.518C111.111 161.217 109.703 162.78 107.3 165.597C107.2 166.881 107.165 168.34 107.205 169.851C106.408 171.12 105.742 172.527 105.196 174.01C105.16 174.109 105.124 174.208 105.089 174.307C103.195 165.623 93.7687 164.818 93.4254 151.916C93.3649 149.639 93.8178 145.829 95.4593 145.026Z" fill="#F6C808"/>
<path d="M96.3073 176.903C99.1373 179.106 101.444 182.462 103.216 186.592C103.186 185.436 103.216 184.218 103.312 182.969C101.682 178.881 100.667 176.801 98.6982 173.351C98.4365 173.404 98.1618 173.435 97.8781 173.443C96.0427 173.492 94.5276 172.512 94.4942 171.255C94.4607 169.997 95.9215 168.938 97.7569 168.889C99.5924 168.84 101.107 169.82 101.141 171.078C101.155 171.622 100.89 172.129 100.435 172.533C101.99 175.671 102.744 177.363 103.643 180.125C103.95 178.155 104.426 176.173 105.09 174.304C105.643 172.746 106.327 171.266 107.153 169.935C107.158 169.927 107.163 169.919 107.168 169.911C107.172 169.905 107.176 169.898 107.179 169.892C107.197 169.865 107.214 169.837 107.232 169.809C109.34 166.473 112.356 164.101 116.468 163.834C116.912 180.51 110.271 183.815 108.476 194.743C110.242 192.563 111.266 191.43 113.102 189.573C112.851 189.297 112.702 188.971 112.693 188.619C112.665 187.571 113.883 186.688 115.412 186.648C116.942 186.607 118.204 187.424 118.232 188.471C118.26 189.519 117.043 190.402 115.513 190.443C115.26 190.449 115.014 190.433 114.78 190.395C111.959 193.094 110.551 194.656 108.148 197.474C108.048 198.758 108.013 200.217 108.053 201.728C107.256 202.997 106.59 204.404 106.044 205.887C106.008 205.986 105.972 206.085 105.937 206.184C104.043 197.5 94.6167 196.695 94.2734 183.792C94.2129 181.515 94.6658 177.706 96.3073 176.903Z" fill="#F6C808"/>
<path d="M97.1553 208.779C99.9853 210.983 102.292 214.339 104.064 218.469C104.034 217.313 104.064 216.094 104.16 214.846C102.53 210.757 101.515 208.678 99.5462 205.228C99.2845 205.281 99.0098 205.312 98.7261 205.32C96.8907 205.369 95.3756 204.389 95.3422 203.131C95.3087 201.874 96.7695 200.815 98.6049 200.766C100.44 200.717 101.955 201.697 101.989 202.954C102.003 203.499 101.738 204.006 101.283 204.41C102.838 207.548 103.592 209.24 104.491 212.002C104.798 210.032 105.274 208.05 105.938 206.18C106.491 204.623 107.175 203.143 108.001 201.812C108.006 201.804 108.011 201.796 108.016 201.787C108.02 201.782 108.024 201.775 108.027 201.769C108.045 201.741 108.062 201.714 108.08 201.686C110.188 198.35 113.204 195.977 117.316 195.711C117.76 212.387 111.119 215.691 109.324 226.62C111.09 224.439 112.114 223.307 113.95 221.45C113.699 221.174 113.55 220.848 113.541 220.496C113.513 219.448 114.731 218.565 116.26 218.525C117.79 218.484 119.052 219.3 119.08 220.348C119.108 221.396 117.891 222.279 116.361 222.319C116.108 222.326 115.862 222.309 115.628 222.272C112.807 224.971 111.399 226.533 108.996 229.351C108.896 230.634 108.861 232.094 108.901 233.605C108.104 234.874 107.438 236.281 106.892 237.764C106.856 237.862 106.82 237.961 106.785 238.061C104.891 229.377 95.4647 228.572 95.1214 215.669C95.0609 213.392 95.5138 209.583 97.1553 208.779Z" fill="#F6C808"/>
<path d="M28.4694 113.16C25.6394 115.363 23.333 118.72 21.5602 122.85C21.591 121.694 21.5609 120.475 21.4646 119.227C23.0947 115.138 24.1096 113.059 26.0784 109.609C26.3401 109.661 26.6149 109.693 26.8986 109.701C28.734 109.749 30.249 108.77 30.2825 107.512C30.3159 106.255 28.8551 105.196 27.0197 105.147C25.1843 105.098 23.6693 106.078 23.6358 107.335C23.6213 107.88 23.8868 108.387 24.3415 108.791C22.7868 111.929 22.0325 113.621 21.1338 116.383C20.8264 114.412 20.3508 112.431 19.6869 110.561C19.1337 109.003 18.4499 107.524 17.6237 106.192C17.6187 106.184 17.6137 106.176 17.6087 106.168C17.605 106.162 17.601 106.156 17.5973 106.15C17.5799 106.122 17.5624 106.094 17.5449 106.066C15.437 102.731 12.4204 100.358 8.30864 100.092C7.86503 116.767 14.5059 120.072 16.3005 131.001C14.5349 128.82 13.5108 127.688 11.6742 125.83C11.9255 125.554 12.0742 125.228 12.0836 124.876C12.1114 123.828 10.8941 122.946 9.36459 122.905C7.83507 122.865 6.57255 123.681 6.54467 124.729C6.51679 125.777 7.73411 126.659 9.26364 126.7C9.51687 126.707 9.76278 126.69 9.99698 126.653C12.8174 129.351 14.2254 130.914 16.6282 133.732C16.7286 135.015 16.7636 136.474 16.7234 137.985C17.5206 139.255 18.187 140.662 18.7327 142.144C18.769 142.243 18.8048 142.342 18.8401 142.441C20.7339 133.757 30.16 132.952 30.5032 120.05C30.5638 117.773 30.1109 113.963 28.4694 113.16Z" fill="#F6C808"/>
<path d="M29.3174 81.2833C26.4874 83.4866 24.181 86.843 22.4082 90.9731C22.439 89.8171 22.4089 88.5983 22.3126 87.3499C23.9427 83.2613 24.9576 81.1822 26.9265 77.7317C27.1881 77.7845 27.4629 77.8162 27.7466 77.8238C29.582 77.8726 31.097 76.8928 31.1305 75.6353C31.1639 74.3777 29.7031 73.3188 27.8677 73.2699C26.0323 73.2211 24.5173 74.2009 24.4838 75.4584C24.4693 76.0028 24.7348 76.5099 25.1895 76.914C23.6348 80.052 22.8805 81.7441 21.9818 84.506C21.6897 82.6333 21.2456 80.7507 20.6324 78.9637C20.0503 77.2674 19.3159 75.6573 18.4143 74.2237C16.3055 70.8703 13.2824 68.4822 9.15664 68.2151C8.71303 84.8906 15.3539 88.1954 17.1485 99.1242C15.3829 96.9433 14.3588 95.8107 12.5222 93.9535C12.7735 93.6775 12.9222 93.3516 12.9316 92.9996C12.9594 91.9516 11.7421 91.0691 10.2126 91.0285C8.68307 90.9878 7.42055 91.8043 7.39267 92.8522C7.36479 93.9001 8.58212 94.7826 10.1116 94.8233C10.3649 94.83 10.6108 94.8133 10.845 94.7759C13.6654 97.4746 15.0734 99.0371 17.4762 101.855C17.5766 103.138 17.5851 104.555 17.5449 106.066C17.5624 106.094 17.5799 106.122 17.5973 106.15L17.6087 106.168L17.6237 106.192C18.4499 107.524 19.1337 109.003 19.6869 110.561C21.6243 101.957 31.0091 101.033 31.3512 88.173C31.4118 85.8961 30.9589 82.0865 29.3174 81.2833Z" fill="#F6C808"/>
<path fill-rule="evenodd" clip-rule="evenodd" d="M19.2993 43.1974L19.2472 43.1139C19.2646 43.1417 19.282 43.1695 19.2993 43.1974Z" fill="#F6C808"/>
<path d="M30.1452 50.1655C27.3152 52.3687 25.0088 55.7252 23.2361 59.8553C23.2668 58.6993 23.2367 57.4804 23.1404 56.2321C24.7705 52.1434 25.7854 50.0644 27.7543 46.6139C28.0159 46.6667 28.2907 46.6984 28.5744 46.7059C30.4098 46.7548 31.9248 45.7749 31.9583 44.5174C31.9917 43.2599 30.531 42.2009 28.6955 42.1521C26.8601 42.1033 25.3451 43.0831 25.3116 44.3406C25.2971 44.8849 25.5626 45.3921 26.0173 45.7962C24.4626 48.9342 23.7083 50.6263 22.8096 53.3881C22.5022 51.4177 22.0266 49.4361 21.3627 47.5665C20.8095 46.0087 20.1255 44.5286 19.2993 43.1974L19.2472 43.1139C17.1381 39.7563 14.1135 37.3646 9.98445 37.0973C9.54084 53.7728 16.1817 57.0776 17.9763 68.0063C16.2107 65.8255 15.1866 64.6929 13.35 62.8357C13.6013 62.5596 13.75 62.2337 13.7594 61.8817C13.7872 60.8338 12.5699 59.9513 11.0404 59.9106C9.51088 59.8699 8.24836 60.6865 8.22048 61.7344C8.1926 62.7823 9.40993 63.6648 10.9394 63.7055C11.1927 63.7122 11.4386 63.6955 11.6728 63.6581C14.4932 66.3568 15.9012 67.9193 18.304 70.737C18.3889 71.8217 18.4284 72.9791 18.4143 74.2237C19.3159 75.6573 20.0503 77.2674 20.6324 78.9637C22.8035 70.8004 31.8434 69.6718 32.179 57.0552C32.2396 54.7783 31.7867 50.9687 30.1452 50.1655Z" fill="#F6C808"/>
<path d="M27.6219 145.026C24.7919 147.229 22.4855 150.586 20.7128 154.716C20.7435 153.56 20.7134 152.341 20.6171 151.092C22.2472 147.004 23.2621 144.925 25.231 141.474C25.4927 141.527 25.7674 141.559 26.0511 141.566C27.8865 141.615 29.4016 140.635 29.435 139.378C29.4685 138.12 28.0077 137.061 26.1723 137.012C24.3368 136.964 22.8218 137.943 22.7883 139.201C22.7739 139.745 23.0394 140.252 23.494 140.657C21.9393 143.795 21.1851 145.487 20.2863 148.248C19.9789 146.278 19.5033 144.296 18.8394 142.427C18.2863 140.869 17.6024 139.389 16.7763 138.058C16.7713 138.05 16.7662 138.042 16.7612 138.034C16.7576 138.028 16.7535 138.022 16.7498 138.016C16.7324 137.988 16.7149 137.96 16.6974 137.932C14.5895 134.597 11.573 132.224 7.46117 131.958C7.01757 148.633 13.6585 151.938 15.4531 162.867C13.6874 160.686 12.6633 159.553 10.8267 157.696C11.0781 157.42 11.2267 157.094 11.2361 156.742C11.264 155.694 10.0466 154.812 8.51713 154.771C6.9876 154.73 5.72508 155.547 5.69721 156.595C5.66933 157.643 6.88665 158.525 8.41617 158.566C8.6694 158.573 8.91532 158.556 9.14952 158.518C11.97 161.217 13.3779 162.78 15.7808 165.597C15.8811 166.881 15.9161 168.34 15.8759 169.851C16.6731 171.12 17.3395 172.527 17.8853 174.01C17.9216 174.109 17.9574 174.208 17.9926 174.307C19.8865 165.623 29.3125 164.818 29.6558 151.916C29.7163 149.639 29.2634 145.829 27.6219 145.026Z" fill="#F6C808"/>
<path d="M26.7739 176.903C23.9439 179.106 21.6375 182.462 19.8648 186.592C19.8955 185.436 19.8654 184.218 19.7691 182.969C21.3992 178.881 22.4141 176.801 24.383 173.351C24.6447 173.404 24.9194 173.435 25.2031 173.443C27.0385 173.492 28.5536 172.512 28.587 171.255C28.6205 169.997 27.1597 168.938 25.3243 168.889C23.4888 168.84 21.9738 169.82 21.9403 171.078C21.9259 171.622 22.1914 172.129 22.646 172.533C21.0913 175.671 20.3371 177.363 19.4383 180.125C19.1309 178.155 18.6553 176.173 17.9914 174.304C17.4382 172.746 16.7544 171.266 15.9283 169.935C15.9233 169.927 15.9182 169.919 15.9132 169.911C15.9096 169.905 15.9055 169.898 15.9018 169.892C15.8844 169.865 15.8669 169.837 15.8494 169.809C13.7415 166.473 10.7249 164.101 6.61317 163.834C6.16956 180.51 12.8105 183.815 14.6051 194.743C12.8394 192.563 11.8153 191.43 9.97873 189.573C10.23 189.297 10.3787 188.971 10.3881 188.619C10.416 187.571 9.19865 186.688 7.66912 186.648C6.1396 186.607 4.87708 187.424 4.8492 188.471C4.82133 189.519 6.03865 190.402 7.56817 190.443C7.8214 190.449 8.06731 190.433 8.30152 190.395C11.122 193.094 12.5299 194.656 14.9328 197.474C15.0331 198.758 15.0681 200.217 15.0279 201.728C15.8251 202.997 16.4915 204.404 17.0372 205.887C17.0736 205.986 17.1094 206.085 17.1446 206.184C19.0385 197.5 28.4645 196.695 28.8078 183.792C28.8683 181.515 28.4154 177.706 26.7739 176.903Z" fill="#F6C808"/>
<path d="M25.9259 208.779C23.0959 210.983 20.7895 214.339 19.0168 218.469C19.0475 217.313 19.0174 216.094 18.9211 214.846C20.5512 210.757 21.5661 208.678 23.535 205.228C23.7966 205.281 24.0714 205.312 24.3551 205.32C26.1905 205.369 27.7056 204.389 27.739 203.131C27.7725 201.874 26.3117 200.815 24.4763 200.766C22.6408 200.717 21.1258 201.697 21.0923 202.954C21.0779 203.499 21.3434 204.006 21.798 204.41C20.2433 207.548 19.4891 209.24 18.5903 212.002C18.2829 210.032 17.8073 208.05 17.1434 206.18C16.5902 204.623 15.9064 203.143 15.0803 201.812C15.0752 201.804 15.0702 201.796 15.0652 201.787C15.0616 201.782 15.0575 201.775 15.0538 201.769C15.0364 201.741 15.0189 201.714 15.0014 201.686C12.8935 198.35 9.87695 195.977 5.76517 195.711C5.32156 212.387 11.9624 215.691 13.757 226.62C11.9914 224.439 10.9673 223.307 9.13073 221.45C9.38205 221.174 9.53073 220.848 9.54009 220.496C9.56797 219.448 8.35065 218.565 6.82112 218.525C5.2916 218.484 4.02908 219.3 4.0012 220.348C3.97332 221.396 5.19065 222.279 6.72017 222.319C6.9734 222.326 7.21931 222.309 7.45352 222.272C10.274 224.971 11.6819 226.533 14.0848 229.351C14.1851 230.634 14.2201 232.094 14.1799 233.605C14.9771 234.874 15.6435 236.281 16.1892 237.764C16.2256 237.862 16.2614 237.961 16.2966 238.061C18.1905 229.377 27.6165 228.572 27.9598 215.669C28.0203 213.392 27.5674 209.583 25.9259 208.779Z" fill="#F6C808"/>
<path fill-rule="evenodd" clip-rule="evenodd" d="M98.9971 27.9785C97.2244 23.8484 94.918 20.492 92.088 18.2887C90.4465 19.0919 89.9936 22.9015 90.0542 25.1784C90.2526 32.6387 93.4944 36.0822 96.56 39.3386C98.7787 41.6954 100.905 43.9541 101.719 47.5665C102.272 46.0087 102.956 44.5286 103.782 43.1974L103.834 43.1139C103.794 41.6028 103.829 40.1437 103.929 38.8602C106.332 36.0425 107.74 34.48 110.56 31.7813C110.795 31.8187 111.041 31.8354 111.294 31.8287C112.823 31.788 114.041 30.9055 114.013 29.8576C113.985 28.8097 112.722 27.9932 111.193 28.0338C109.663 28.0745 108.446 28.957 108.474 30.0049C108.483 30.357 108.632 30.6828 108.883 30.9589C107.047 32.8161 106.023 33.9487 104.257 36.1296C104.951 31.9008 106.371 28.8135 107.826 25.6514C109.902 21.1362 112.049 16.4684 112.254 8.10695C111.495 7.22859 110.667 6.41118 109.78 5.66284C103.666 7.51558 100.505 14.5818 99.4236 21.5114C98.5248 18.7495 97.7706 17.0574 96.2159 13.9194C96.6705 13.5153 96.9361 13.0081 96.9216 12.4638C96.8881 11.2063 95.3731 10.2265 93.5377 10.2753C91.7022 10.3241 90.2414 11.3831 90.2749 12.6406C90.3084 13.8981 91.8234 14.878 93.6588 14.8291C93.9425 14.8216 94.2173 14.7899 94.4789 14.7371C96.4478 18.1876 97.4627 20.2666 99.0928 24.3553C98.9965 25.6036 98.9664 26.8225 98.9971 27.9785Z" fill="#F6C808"/>
<path fill-rule="evenodd" clip-rule="evenodd" d="M24.0841 27.9785C25.8568 23.8484 28.1632 20.492 30.9932 18.2887C32.6347 19.0919 33.0876 22.9015 33.027 25.1784C32.8286 32.6387 29.5868 36.0822 26.5212 39.3386C24.3025 41.6954 22.1761 43.9541 21.3627 47.5665C20.8095 46.0087 20.1255 44.5286 19.2993 43.1974L19.2472 43.1139C19.2874 41.6028 19.2524 40.1437 19.1521 38.8602C16.7492 36.0425 15.3412 34.48 12.5208 31.7813C12.2866 31.8187 12.0407 31.8354 11.7875 31.8287C10.2579 31.788 9.04061 30.9055 9.06848 29.8576C9.09636 28.8097 10.3589 27.9932 11.8884 28.0338C13.4179 28.0745 14.6353 28.957 14.6074 30.0049C14.598 30.357 14.4493 30.6828 14.198 30.9589C16.0346 32.8161 17.0587 33.9487 18.8243 36.1296C18.1299 31.9008 16.7099 28.8135 15.2555 25.6514C13.2077 21.1991 11.0917 16.5985 10.8368 8.45446C11.652 7.47121 12.5511 6.56033 13.5229 5.73265C19.4916 7.68722 22.5897 14.666 23.6576 21.5114C24.5564 18.7495 25.3106 17.0574 26.8653 13.9194C26.4107 13.5153 26.1451 13.0081 26.1596 12.4638C26.1931 11.2063 27.7081 10.2265 29.5435 10.2753C31.379 10.3241 32.8398 11.3831 32.8063 12.6406C32.7728 13.8981 31.2578 14.878 29.4224 14.8291C29.1387 14.8216 28.8639 14.7899 28.6023 14.7371C26.6334 18.1876 25.6185 20.2666 23.9884 24.3553C24.0847 25.6036 24.1148 26.8225 24.0841 27.9785Z" fill="#F6C808"/>
<path fill-rule="evenodd" clip-rule="evenodd" d="M67.8094 163.481L61.8912 173.358L55.9729 163.481L46.1092 165.457V154.592L37.7251 148.667L46.1092 142.741V131.876L55.9729 133.852L61.8912 123.975L67.8094 133.852L77.6731 131.876V142.741L86.0572 148.667L77.6731 154.592V165.457L67.8094 163.481ZM64.8503 158.543H61.8912H58.932V151.629H52.0275V145.704H58.932V138.79H61.8912H64.8503V145.704H71.7549V151.629H64.8503V158.543Z" fill="#F9F5F3"/>
<path d="M61.8912 158.543H64.8503V151.629H71.7549V145.704H64.8503V138.79H61.8912H58.932V145.704H52.0275V151.629H58.932V158.543H61.8912Z" fill="#474E58"/>
<path fill-rule="evenodd" clip-rule="evenodd" d="M67.8094 217.415L61.8912 227.292L55.9729 217.415L46.1092 219.39V208.526L37.7251 202.6L46.1092 196.674V185.81L55.9729 187.785L61.8912 177.909L67.8094 187.785L77.6731 185.81V196.674L86.0572 202.6L77.6731 208.526V219.39L67.8094 217.415ZM64.8503 212.477H61.8912H58.932V205.563H52.0275V199.637H58.932V192.724H61.8912H64.8503V199.637H71.7549V205.563H64.8503V212.477Z" fill="#F9F5F3"/>
<path d="M61.8912 212.477H64.8503V205.563H71.7549V199.637H64.8503V192.724H61.8912H58.932V199.637H52.0275V205.563H58.932V212.477H61.8912Z" fill="#474E58"/>
<path fill-rule="evenodd" clip-rule="evenodd" d="M67.8094 105.076L61.8912 114.952L55.9729 105.076L46.1092 107.051V96.1867L37.7251 90.2607L46.1092 84.3348V73.4706L55.9729 75.4459L61.8912 65.5693L67.8094 75.4459L77.6731 73.4706V84.3348L86.0572 90.2607L77.6731 96.1867V107.051L67.8094 105.076ZM64.8503 100.137H61.8912H58.932V93.2237H52.0275V87.2978H58.932V80.3842H61.8912H64.8503V87.2978H71.7549V93.2237H64.8503V100.137Z" fill="#F9F5F3"/>
<path d="M61.8912 100.137H64.8503V93.2237H71.7549V87.2978H64.8503V80.3842H61.8912H58.932V87.2978H52.0275V93.2237H58.932V100.137H61.8912Z" fill="#474E58"/>
<path fill-rule="evenodd" clip-rule="evenodd" d="M67.8094 49.0004L61.8912 58.877L55.9729 49.0004L46.1092 50.9757V40.1115L37.7251 34.1855L46.1092 28.2596V17.3954L55.9729 19.3707L61.8912 9.49414L67.8094 19.3707L77.6731 17.3954V28.2596L86.0572 34.1855L77.6731 40.1115V50.9757L67.8094 49.0004ZM64.8503 44.0621H61.8912H58.932V37.1485H52.0275V31.2226H58.932V24.309H61.8912H64.8503V31.2226H71.7549V37.1485H64.8503V44.0621Z" fill="#F9F5F3"/>
<path d="M61.8912 44.0621H64.8503V37.1485H71.7549V31.2226H64.8503V24.309H61.8912H58.932V31.2226H52.0275V37.1485H58.932V44.0621H61.8912Z" fill="#474E58"/>
</svg>
