<svg width="125" height="250" viewBox="0 0 125 250" fill="none" xmlns="http://www.w3.org/2000/svg">
<path d="M0.39502 22.5C0.39502 10.3497 10.2448 0.5 22.395 0.5H102.395C114.545 0.5 124.395 10.3497 124.395 22.5V227.5C124.395 239.65 114.545 249.5 102.395 249.5H22.395C10.2448 249.5 0.39502 239.65 0.39502 227.5V22.5Z" fill="#C5A869"/>
<path fill-rule="evenodd" clip-rule="evenodd" d="M102.395 11.5H22.395C16.3199 11.5 11.395 16.4249 11.395 22.5V227.5C11.395 233.575 16.3199 238.5 22.395 238.5H102.395C108.47 238.5 113.395 233.575 113.395 227.5V22.5C113.395 16.4249 108.47 11.5 102.395 11.5ZM22.395 0.5C10.2448 0.5 0.39502 10.3497 0.39502 22.5V227.5C0.39502 239.65 10.2448 249.5 22.395 249.5H102.395C114.545 249.5 124.395 239.65 124.395 227.5V22.5C124.395 10.3497 114.545 0.5 102.395 0.5H22.395Z" fill="#A68C55"/>
<path d="M11.395 179.5V202.5H113.395V179.5H11.395Z" fill="black"/>
</svg>
