<svg width="125" height="250" viewBox="0 0 125 250" fill="none" xmlns="http://www.w3.org/2000/svg">
<path d="M0.494141 22.5C0.494141 10.3497 10.3439 0.5 22.4941 0.5H102.494C114.644 0.5 124.494 10.3497 124.494 22.5V227.5C124.494 239.65 114.644 249.5 102.494 249.5H22.4941C10.3439 249.5 0.494141 239.65 0.494141 227.5V22.5Z" fill="#C5A869"/>
<path fill-rule="evenodd" clip-rule="evenodd" d="M102.494 11.5H22.4941C16.419 11.5 11.4941 16.4249 11.4941 22.5V227.5C11.4941 233.575 16.419 238.5 22.4941 238.5H102.494C108.569 238.5 113.494 233.575 113.494 227.5V22.5C113.494 16.4249 108.569 11.5 102.494 11.5ZM22.4941 0.5C10.3439 0.5 0.494141 10.3497 0.494141 22.5V227.5C0.494141 239.65 10.3439 249.5 22.4941 249.5H102.494C114.644 249.5 124.494 239.65 124.494 227.5V22.5C124.494 10.3497 114.644 0.5 102.494 0.5H22.4941Z" fill="#A68C55"/>
<path d="M60.1301 93.3787C61.3017 92.2071 63.2012 92.2071 64.3727 93.3787L93.13 122.136C94.3016 123.308 94.3016 125.207 93.13 126.379L64.3727 155.136C63.2012 156.307 61.3017 156.307 60.1301 155.136L31.3728 126.379C30.2012 125.207 30.2012 123.308 31.3728 122.136L60.1301 93.3787Z" fill="black"/>
</svg>
