<svg width="190" height="198" viewBox="0 0 190 198" fill="none" xmlns="http://www.w3.org/2000/svg">
<path d="M158.585 0.75H30.0631C18.2826 0.75 8.59273 10.0298 8.08361 21.7993L1.48692 174.299C0.945705 186.811 10.943 197.25 23.4664 197.25H166.346C178.936 197.25 188.958 186.705 188.318 174.132L180.557 21.6319C179.961 9.93132 170.301 0.75 158.585 0.75Z" fill="#121212"/>
<path d="M99.494 80.3168V69.3169H108.994V61.3169H99.494V50.8169H90.4944V61.3169H80.9944V69.3169H90.4944V80.3168H99.494Z" fill="#F6C808"/>
<path d="M94.994 40.3527L115.946 52.9871V47.5562L94.994 35.0327L74.0423 47.5562V52.9871L94.994 40.3527Z" fill="#F6C808"/>
<path d="M94.994 109.817L141.494 135.317V150.317L94.994 125.317L48.4944 150.317V135.317L94.994 109.817Z" fill="#F6C808"/>
<path d="M94.9945 86.3166C96.9945 87.3166 98.9945 94.2954 95.9945 97.306C97.5509 97.2728 99.0516 97.1618 100.494 96.975C101.494 91.8897 97.9945 88.8166 103.494 84.3166C102.994 86.8166 103.994 86.8166 103.994 89.3166C103.994 91.8166 100.994 94.8166 101.494 96.832C103.068 96.5853 104.569 96.2457 105.994 95.816C107.494 90.8166 103.624 84.8166 108.994 80.8166C108.366 83.6435 110.008 83.3897 109.994 87.3166C109.994 90.3166 106.994 92.9746 106.994 95.4958C107.332 95.3811 107.666 95.261 107.994 95.1358C110.175 94.3055 112.156 93.245 113.927 91.9664C113.733 90.3541 113.089 88.7976 112.448 87.2506C111.154 84.1275 109.876 81.043 112.357 77.6157C112.483 79.089 112.933 79.6187 113.499 80.2836C114.041 80.9209 114.688 81.6825 115.257 83.5181C115.726 85.0115 115.387 86.6605 115.064 88.2379C114.835 89.3519 114.614 90.4301 114.689 91.3926C115.348 90.8749 115.976 90.325 116.571 89.7435C117.911 88.4347 119.1 86.9535 120.124 85.3007C118.322 80.7608 112.736 77.7122 115.042 71.845C116.001 74.5775 117.262 73.4951 119.323 76.8373C120.686 79.0294 120.029 82.179 120.667 84.3795C121.9 82.1818 122.856 79.7028 123.504 76.9445C122.601 75.6539 121.354 74.5971 120.115 73.5464C117.536 71.3603 114.99 69.2012 115.63 65.0188C116.415 66.2715 117.058 66.5367 117.865 66.8696C118.638 67.1887 119.562 67.57 120.907 68.9425C122.007 70.0565 122.46 71.6778 122.893 73.2286C123.147 74.1368 123.394 75.0207 123.76 75.7645C124.203 73.5228 124.451 71.1068 124.489 68.5176C123.577 66.9585 122.149 65.7484 120.732 64.5464C118.153 62.3603 115.607 60.2012 116.246 56.0188C117.032 57.2715 117.675 57.5367 118.482 57.8696C119.255 58.1887 120.179 58.57 121.524 59.9425C122.624 61.0565 123.076 62.6778 123.51 64.2286C123.833 65.3857 124.145 66.5036 124.707 67.3423C124.86 64.7691 124.12 62.4258 123.377 60.0714C122.025 55.79 120.662 51.472 124.635 45.6685C130.019 50.4664 129.028 56.205 128.063 61.799C127.745 63.6427 127.43 65.4707 127.346 67.2441C127.868 66.4173 128.169 65.3411 128.479 64.2286C128.913 62.6778 129.365 61.0565 130.465 59.9425C131.81 58.57 132.734 58.1887 133.507 57.8696C134.314 57.5367 134.957 57.2715 135.743 56.0188C136.382 60.2012 133.836 62.3603 131.257 64.5464C129.834 65.7529 128.402 66.9675 127.489 68.535C127.458 70.7658 127.279 72.8944 126.957 74.916C127.483 74.1769 127.864 73.2289 128.257 72.2518C128.858 70.7579 129.486 69.1961 130.701 68.2095C132.189 66.993 133.149 66.7155 133.953 66.4832C134.792 66.2408 135.46 66.0478 136.378 64.8889C136.555 69.1163 133.786 70.9828 130.984 72.8726C129.359 73.9682 127.722 75.0716 126.641 76.6474C126.353 78.0458 125.992 79.3891 125.561 80.6755C126.028 80.177 126.466 79.5887 126.914 78.9877C127.876 77.6963 128.881 76.3462 130.308 75.702C132.056 74.9048 133.056 74.8812 133.892 74.8615C134.764 74.8409 135.459 74.8244 136.643 73.938C135.736 78.0707 132.584 79.17 129.392 80.2829C127.851 80.8203 126.3 81.3609 124.989 82.2476C124.411 83.7132 123.736 85.0981 122.966 86.3996C123.698 85.9665 124.402 85.334 125.125 84.6837C126.323 83.6071 127.574 82.4817 129.1 82.1313C130.971 81.6945 131.956 81.8683 132.78 82.0137C133.639 82.1655 134.324 82.2864 135.659 81.6506C133.955 85.5236 130.648 85.9799 127.299 86.4419C125.514 86.6883 123.716 86.9362 122.144 87.7046C121.304 88.9586 120.369 90.1268 119.342 91.2064C120.178 90.9324 121.025 90.4313 121.898 89.9154C123.284 89.096 124.733 88.2394 126.298 88.1965C128.219 88.1371 129.15 88.5015 129.929 88.8065C130.741 89.1247 131.389 89.3781 132.823 89.0179C130.39 92.4793 127.057 92.2747 123.683 92.0677C121.818 91.9532 119.94 91.8379 118.194 92.3406C116.913 93.5311 115.515 94.5896 114.011 95.5152C115 95.5433 116.091 95.2392 117.22 94.9246C118.771 94.4923 120.392 94.0403 121.915 94.4042C123.785 94.8445 124.59 95.4377 125.263 95.934C125.966 96.4519 126.525 96.8644 128.004 96.8881C124.757 99.6008 121.591 98.5399 118.386 97.4658C116.518 96.8398 114.637 96.2093 112.718 96.3185C111.639 96.9083 110.557 97.3541 109.38 97.8166C109.083 97.9334 108.783 98.0461 108.48 98.1548C109.376 98.4143 110.433 98.442 111.523 98.4706C113.133 98.5129 114.816 98.5571 116.164 99.352C117.823 100.322 118.418 101.125 118.916 101.798C119.435 102.499 119.849 103.058 121.255 103.515C117.355 105.154 114.64 103.21 111.892 101.242C110.401 100.174 108.899 99.0995 107.193 98.5859C107.127 98.6065 107.061 98.627 106.994 98.6473C104.602 99.3786 102.04 99.8707 99.3283 100.121C99.8251 101.468 101.123 102.094 105.994 102.094C110.866 102.094 111.86 103.943 112.852 106.437C103.994 111.495 103.227 104.557 94.9945 100.317C86.7617 104.557 85.9944 111.495 77.1371 106.437C78.129 103.943 79.1232 102.094 83.9944 102.094C88.8655 102.094 90.1637 101.468 90.6606 100.121C87.9492 99.8707 85.387 99.3786 82.9944 98.6473C82.928 98.627 82.8617 98.6065 82.7956 98.5859C81.0895 99.0995 79.5883 100.174 78.0971 101.242C75.3485 103.21 72.6339 105.154 68.7335 103.515C70.1398 103.058 70.5537 102.499 71.0732 101.798C71.5711 101.125 72.1661 100.322 73.825 99.352C75.1733 98.5571 76.856 98.5129 78.4657 98.4706C79.556 98.442 80.6127 98.4143 81.5092 98.1548C81.2061 98.0461 80.9059 97.9334 80.6088 97.8166C79.4323 97.3541 78.35 96.9083 77.2707 96.3185C75.3521 96.2093 73.4708 96.8398 71.6029 97.4658C68.3976 98.5399 65.2318 99.6008 61.9849 96.8881C63.4634 96.8644 64.023 96.4519 64.7256 95.934C65.3989 95.4377 66.2036 94.8445 68.0743 94.4042C69.5965 94.0403 71.2181 94.4923 72.7692 94.9246C73.8979 95.2392 74.9893 95.5433 75.9779 95.5152C74.4734 94.5896 73.0761 93.5311 71.7947 92.3406C70.0489 91.8379 68.1711 91.9532 66.3059 92.0677C62.9318 92.2747 59.5993 92.4793 57.166 89.0179C58.6001 89.3781 59.2475 89.1247 60.0603 88.8065C60.8392 88.5015 61.7701 88.1371 63.6909 88.1965C65.2555 88.2394 66.7046 89.096 68.0908 89.9154C68.9635 90.4313 69.8112 90.9324 70.647 91.2064C69.6201 90.1268 68.685 88.9586 67.8447 87.7046C66.2725 86.9362 64.4753 86.6883 62.6897 86.4419C59.3409 85.9799 56.0335 85.5236 54.3301 81.6506C55.6651 82.2864 56.3498 82.1655 57.2093 82.0137C58.0331 81.8683 59.0175 81.6945 60.889 82.1313C62.4144 82.4817 63.6663 83.6071 64.8638 84.6837C65.5872 85.334 66.2907 85.9665 67.0228 86.3996C66.2532 85.0981 65.5779 83.7132 64.9999 82.2476C63.6887 81.3609 62.1383 80.8203 60.5971 80.2829C57.4051 79.17 54.2525 78.0707 53.3459 73.938C54.5294 74.8244 55.2244 74.8409 56.097 74.8615C56.9333 74.8812 57.9327 74.9048 59.6813 75.702C61.1078 76.3462 62.1133 77.6963 63.0751 78.9877C63.5227 79.5887 63.9608 80.177 64.4275 80.6755C63.9968 79.3891 63.6363 78.0458 63.3478 76.6474C62.2667 75.0716 60.6302 73.9682 59.0053 72.8726C56.2024 70.9828 53.4341 69.1163 53.6109 64.8889C54.5293 66.0478 55.1972 66.2408 56.0357 66.4832C56.8394 66.7155 57.7997 66.993 59.2875 68.2095C60.5026 69.1961 61.1307 70.7579 61.7316 72.2518C62.1245 73.2288 62.5058 74.1769 63.032 74.916C62.7102 72.8944 62.531 70.7658 62.4994 68.535C61.5873 66.9675 60.1546 65.7529 58.7316 64.5464C56.1531 62.3603 53.6064 60.2012 54.2462 56.0188C55.0319 57.2715 55.6746 57.5367 56.4814 57.8696C57.2547 58.1887 58.1788 58.57 59.524 59.9425C60.6234 61.0565 61.0763 62.6778 61.5096 64.2286C61.8203 65.3411 62.1209 66.4173 62.6428 67.2441C62.5592 65.4707 62.2438 63.6427 61.9257 61.799C60.9604 56.205 59.9701 50.4664 65.3543 45.6685C69.3268 51.472 67.9637 55.79 66.6121 60.0714C65.8689 62.4258 65.1292 64.7691 65.2821 67.3423C65.8437 66.5036 66.156 65.3857 66.4792 64.2286C66.9124 62.6778 67.3653 61.0565 68.4648 59.9425C69.81 58.57 70.734 58.1887 71.5073 57.8696C72.3142 57.5367 72.9568 57.2715 73.7425 56.0188C74.3823 60.2012 71.8357 62.3603 69.2571 64.5464C67.8394 65.7484 66.4121 66.9585 65.4995 68.5176C65.5374 71.1068 65.7858 73.5228 66.2293 75.7645C66.5953 75.0207 66.8422 74.1368 67.0959 73.2286C67.5291 71.6778 67.982 70.0565 69.0815 68.9425C70.4267 67.57 71.3507 67.1887 72.124 66.8696C72.9309 66.5367 73.5735 66.2715 74.3592 65.0188C74.999 69.2012 72.4524 71.3603 69.8738 73.5464C68.6347 74.5971 67.3882 75.6539 66.4844 76.9445C67.1328 79.7028 68.0891 82.1818 69.3221 84.3795C69.9598 82.179 69.3028 79.0294 70.6656 76.8373C72.7272 73.4951 73.9876 74.5775 74.9466 71.845C77.2524 77.7122 71.6673 80.7608 69.8652 85.3007C70.8885 86.9535 72.0775 88.4347 73.4175 89.7435C74.0128 90.325 74.6404 90.8749 75.2997 91.3926C75.3752 90.4301 75.1539 89.3519 74.9253 88.2379C74.6016 86.6605 74.2632 85.0115 74.7318 83.5181C75.3008 81.6825 75.9483 80.9209 76.4902 80.2836C77.0555 79.6187 77.5059 79.089 77.632 77.6157C80.113 81.043 78.8351 84.1275 77.5413 87.2506C76.9003 88.7976 76.2555 90.3541 76.0617 91.9664C77.8325 93.245 79.8142 94.3055 81.9944 95.1358C82.3232 95.261 82.6566 95.3811 82.9944 95.4958C82.9944 92.9746 79.9944 90.3166 79.9944 87.3166C79.9807 83.3897 81.6226 83.6435 80.9944 80.8166C86.3652 84.8166 82.4944 90.8166 83.9944 95.816C85.4203 96.2457 86.9213 96.5853 88.4944 96.832C88.9944 94.8166 85.9944 91.8166 85.9944 89.3166C85.9944 86.8166 86.9944 86.8166 86.4944 84.3166C91.9944 88.8166 88.4944 91.8897 89.4944 96.975C90.9372 97.1618 92.4379 97.2728 93.9944 97.306C90.9944 94.2954 92.9945 87.3166 94.9945 86.3166Z" fill="#F6C808"/>
<path d="M141.494 155.896H48.4944V170.122H141.494V155.896Z" fill="#F6C808"/>
</svg>
