<svg width="174" height="242" viewBox="0 0 174 242" fill="none" xmlns="http://www.w3.org/2000/svg">
<path d="M142.969 0.819336H29.4708C17.5974 0.819336 7.86619 10.2408 7.48227 22.108L1.12976 218.469C0.727874 230.892 10.6892 241.181 23.1183 241.181H150.443C162.921 241.181 172.901 230.813 172.427 218.344L164.953 21.9826C164.503 10.1665 154.794 0.819336 142.969 0.819336Z" fill="#121212"/>
<path d="M91.0597 113.45V103.148H99.9568V95.6559H91.0597V85.8222H82.6312V95.6559H73.7341V103.148H82.6312V113.45H91.0597Z" fill="#F6C808"/>
<path d="M86.8453 76.0222L106.468 87.8547V82.7686L86.8453 71.0398L67.2233 82.7686V87.8547L86.8453 76.0222Z" fill="#F6C808"/>
<path d="M86.8453 141.078L130.394 164.96V179.008L86.8453 155.594L43.2966 179.008V164.96L86.8453 141.078Z" fill="#F6C808"/>
<path d="M86.8457 119.069C88.7188 120.006 90.5919 126.542 87.7823 129.361C89.2399 129.33 90.6454 129.226 91.9967 129.051C92.9332 124.289 89.6554 121.41 94.8063 117.196C94.3381 119.537 95.2746 119.537 95.2746 121.879C95.2746 124.22 92.465 127.03 92.9332 128.917C94.4065 128.686 95.8122 128.368 97.1477 127.966C98.5525 123.284 94.9274 117.664 99.9573 113.918C99.3689 116.566 100.907 116.328 100.894 120.006C100.894 122.815 98.0842 125.305 98.0842 127.666C98.4006 127.558 98.7128 127.446 99.0207 127.329C101.063 126.551 102.919 125.558 104.577 124.36C104.395 122.85 103.792 121.393 103.191 119.944C101.98 117.019 100.783 114.13 103.106 110.92C103.224 112.3 103.646 112.796 104.176 113.419C104.683 114.016 105.29 114.729 105.822 116.448C106.261 117.847 105.944 119.391 105.641 120.868C105.427 121.912 105.22 122.922 105.291 123.823C105.908 123.338 106.496 122.823 107.053 122.279C108.308 121.053 109.422 119.666 110.38 118.118C108.692 113.866 103.462 111.011 105.621 105.516C106.519 108.075 107.7 107.061 109.631 110.191C110.907 112.244 110.292 115.194 110.889 117.255C112.044 115.197 112.939 112.875 113.546 110.292C112.7 109.083 111.533 108.093 110.372 107.109C107.957 105.062 105.572 103.04 106.171 99.1229C106.907 100.296 107.509 100.544 108.265 100.856C108.989 101.155 109.854 101.512 111.114 102.798C112.144 103.841 112.568 105.359 112.974 106.812C113.211 107.662 113.443 108.49 113.785 109.187C114.201 107.087 114.433 104.825 114.469 102.4C113.614 100.94 112.277 99.8062 110.95 98.6805C108.535 96.6331 106.15 94.611 106.749 90.6941C107.485 91.8672 108.087 92.1156 108.842 92.4274C109.566 92.7263 110.432 93.0834 111.692 94.3688C112.721 95.412 113.146 96.9304 113.551 98.3829C113.854 99.4665 114.146 100.513 114.672 101.299C114.816 98.8891 114.123 96.6945 113.427 94.4895C112.161 90.4798 110.884 86.4358 114.605 81.0006C119.647 85.494 118.72 90.8685 117.816 96.1075C117.518 97.8341 117.223 99.5461 117.144 101.207C117.633 100.433 117.915 99.4248 118.206 98.3829C118.611 96.9304 119.035 95.412 120.065 94.3688C121.325 93.0834 122.19 92.7263 122.915 92.4274C123.67 92.1156 124.272 91.8672 125.008 90.6941C125.607 94.611 123.222 96.6331 120.807 98.6805C119.475 99.8104 118.133 100.948 117.278 102.416C117.249 104.505 117.081 106.499 116.78 108.392C117.273 107.7 117.63 106.812 117.998 105.897C118.56 104.498 119.149 103.035 120.287 102.111C121.68 100.972 122.579 100.712 123.332 100.494C124.117 100.267 124.743 100.087 125.603 99.0013C125.769 102.96 123.176 104.708 120.551 106.478C119.029 107.504 117.496 108.538 116.484 110.014C116.214 111.323 115.876 112.581 115.473 113.786C115.91 113.319 116.32 112.768 116.739 112.205C117.64 110.996 118.582 109.731 119.918 109.128C121.555 108.382 122.491 108.359 123.275 108.341C124.092 108.322 124.743 108.306 125.851 107.476C125.002 111.347 122.05 112.376 119.06 113.418C117.617 113.922 116.165 114.428 114.937 115.258C114.395 116.631 113.763 117.928 113.042 119.147C113.728 118.741 114.387 118.149 115.064 117.54C116.186 116.532 117.358 115.478 118.787 115.149C120.539 114.74 121.461 114.903 122.233 115.039C123.038 115.181 123.679 115.295 124.929 114.699C123.334 118.326 120.237 118.754 117.1 119.186C115.428 119.417 113.745 119.649 112.272 120.369C111.485 121.543 110.61 122.638 109.648 123.649C110.431 123.392 111.225 122.923 112.042 122.44C113.34 121.672 114.697 120.87 116.163 120.83C117.962 120.774 118.833 121.115 119.563 121.401C120.324 121.699 120.93 121.936 122.273 121.599C119.995 124.841 116.874 124.649 113.714 124.455C111.967 124.348 110.208 124.24 108.573 124.711C107.373 125.826 106.064 126.817 104.655 127.684C105.581 127.71 106.603 127.425 107.66 127.131C109.113 126.726 110.632 126.303 112.057 126.644C113.809 127.056 114.563 127.611 115.194 128.076C115.852 128.561 116.376 128.948 117.76 128.97C114.72 131.51 111.755 130.517 108.753 129.511C107.003 128.925 105.242 128.334 103.445 128.436C102.434 128.989 101.42 129.406 100.318 129.839C100.04 129.949 99.759 130.054 99.4751 130.156C100.315 130.399 101.304 130.425 102.325 130.452C103.833 130.491 105.409 130.533 106.672 131.277C108.225 132.186 108.783 132.938 109.249 133.568C109.735 134.225 110.123 134.748 111.44 135.176C107.787 136.711 105.245 134.891 102.671 133.048C101.274 132.048 99.8682 131.041 98.2704 130.56C98.2085 130.579 98.1464 130.598 98.0842 130.617C95.8434 131.302 93.4438 131.763 90.9045 131.998C91.3699 133.259 92.5857 133.846 97.1477 133.846C101.71 133.846 102.641 135.577 103.57 137.912C95.2746 142.65 94.5561 136.152 86.8457 132.181C79.1354 136.152 78.4168 142.65 70.1216 137.912C71.0506 135.577 71.9817 133.846 76.5437 133.846C81.1058 133.846 82.3216 133.259 82.7869 131.998C80.2476 131.763 77.848 131.302 75.6072 130.617C75.545 130.598 75.4829 130.579 75.421 130.56C73.8232 131.041 72.4173 132.048 71.0207 133.048C68.4466 134.891 65.9042 136.711 62.2513 135.176C63.5684 134.748 63.956 134.225 64.4425 133.568C64.9088 132.938 65.4661 132.186 67.0197 131.277C68.2824 130.533 69.8584 130.491 71.366 130.452C72.387 130.425 73.3767 130.399 74.2163 130.156C73.9324 130.054 73.6513 129.949 73.373 129.839C72.2711 129.406 71.2575 128.989 70.2468 128.436C68.4499 128.334 66.688 128.925 64.9386 129.511C61.9367 130.517 58.9719 131.51 55.931 128.97C57.3157 128.948 57.8398 128.561 58.4978 128.076C59.1284 127.611 59.882 127.056 61.6339 126.644C63.0596 126.303 64.5783 126.726 66.0309 127.131C67.088 127.425 68.1101 127.71 69.036 127.684C67.627 126.817 66.3184 125.826 65.1183 124.711C63.4833 124.24 61.7246 124.348 59.9778 124.455C56.8178 124.649 53.6968 124.841 51.4179 121.599C52.761 121.936 53.3674 121.699 54.1285 121.401C54.8581 121.115 55.7298 120.774 57.5288 120.83C58.9941 120.87 60.3512 121.672 61.6494 122.44C62.4667 122.923 63.2606 123.392 64.0434 123.649C63.0817 122.638 62.206 121.543 61.419 120.369C59.9466 119.649 58.2633 119.417 56.5911 119.186C53.4548 118.754 50.3573 118.326 48.762 114.699C50.0123 115.295 50.6535 115.181 51.4585 115.039C52.23 114.903 53.152 114.74 54.9047 115.149C56.3333 115.478 57.5057 116.532 58.6272 117.54C59.3047 118.149 59.9636 118.741 60.6492 119.147C59.9285 117.928 59.296 116.631 58.7546 115.258C57.5267 114.428 56.0747 113.922 54.6313 113.418C51.6418 112.376 48.6893 111.347 47.8402 107.476C48.9486 108.306 49.5996 108.322 50.4168 108.341C51.2 108.359 52.1359 108.382 53.7737 109.128C55.1096 109.731 56.0512 110.996 56.952 112.205C57.3712 112.768 57.7815 113.319 58.2186 113.786C57.8152 112.581 57.4776 111.323 57.2074 110.014C56.1949 108.538 54.6623 107.504 53.1405 106.478C50.5155 104.708 47.9229 102.96 48.0884 99.0013C48.9486 100.087 49.5741 100.267 50.3594 100.494C51.112 100.712 52.0114 100.972 53.4048 102.111C54.5428 103.035 55.131 104.498 55.6938 105.897C56.0618 106.812 56.4189 107.7 56.9117 108.392C56.6103 106.499 56.4425 104.505 56.4129 102.416C55.5586 100.948 54.2169 99.8104 52.8842 98.6805C50.4693 96.6331 48.0843 94.611 48.6835 90.6941C49.4193 91.8672 50.0212 92.1156 50.7768 92.4274C51.501 92.7263 52.3664 93.0834 53.6263 94.3688C54.656 95.412 55.0801 96.9304 55.4858 98.3829C55.7769 99.4248 56.0584 100.433 56.5472 101.207C56.4689 99.5461 56.1735 97.8341 55.8755 96.1075C54.9715 90.8685 54.0441 85.494 59.0866 81.0006C62.807 86.4358 61.5304 90.4798 60.2646 94.4895C59.5686 96.6945 58.8758 98.8891 59.0189 101.299C59.545 100.513 59.8374 99.4665 60.1401 98.3829C60.5458 96.9304 60.97 95.412 61.9997 94.3688C63.2595 93.0834 64.1249 92.7263 64.8491 92.4274C65.6048 92.1156 66.2067 91.8672 66.9425 90.6941C67.5417 94.611 65.1566 96.6331 62.7418 98.6805C61.414 99.8062 60.0773 100.94 59.2226 102.4C59.2581 104.825 59.4907 107.087 59.906 109.187C60.2488 108.49 60.4801 107.662 60.7177 106.812C61.1234 105.359 61.5476 103.841 62.5772 102.798C63.8371 101.512 64.7025 101.155 65.4267 100.856C66.1823 100.544 66.7842 100.296 67.52 99.1229C68.1192 103.04 65.7342 105.062 63.3193 107.109C62.1588 108.093 60.9914 109.083 60.145 110.292C60.7522 112.875 61.6478 115.197 62.8025 117.255C63.3999 115.194 62.7845 112.244 64.0608 110.191C65.9916 107.061 67.172 108.075 68.0701 105.516C70.2296 111.011 64.9989 113.866 63.3112 118.118C64.2696 119.666 65.3832 121.053 66.6381 122.279C67.1956 122.823 67.7834 123.338 68.4008 123.823C68.4715 122.922 68.2643 121.912 68.0502 120.868C67.7471 119.391 67.4301 117.847 67.869 116.448C68.4018 114.729 69.0083 114.016 69.5157 113.419C70.0452 112.796 70.467 112.3 70.5851 110.92C72.9087 114.13 71.7119 117.019 70.5001 119.944C69.8999 121.393 69.296 122.85 69.1144 124.36C70.7729 125.558 72.6288 126.551 74.6707 127.329C74.9786 127.446 75.2908 127.558 75.6072 127.666C75.6072 125.305 72.7976 122.815 72.7976 120.006C72.7847 116.328 74.3225 116.566 73.7341 113.918C78.7641 117.664 75.1389 123.284 76.5437 127.966C77.8792 128.368 79.2849 128.686 80.7582 128.917C81.2264 127.03 78.4168 124.22 78.4168 121.879C78.4168 119.537 79.3534 119.537 78.8851 117.196C84.0361 121.41 80.7582 124.289 81.6947 129.051C83.046 129.226 84.4515 129.33 85.9091 129.361C83.0995 126.542 84.9727 120.006 86.8457 119.069Z" fill="#F6C808"/>
<path d="M130.394 205.643H43.2966V217.091H130.394V205.643Z" fill="#F6C808"/>
<path d="M86.8453 162.078L130.394 185.96V200.008L86.8453 176.594L43.2966 200.008V185.96L86.8453 162.078Z" fill="#F6C808"/>
</svg>
