<svg width="125" height="250" viewBox="0 0 125 250" fill="none" xmlns="http://www.w3.org/2000/svg">
<path d="M0.494141 22.5C0.494141 10.3497 10.3439 0.5 22.4941 0.5H102.494C114.644 0.5 124.494 10.3497 124.494 22.5V227.5C124.494 239.65 114.644 249.5 102.494 249.5H22.4941C10.3439 249.5 0.494141 239.65 0.494141 227.5V22.5Z" fill="#C5A869"/>
<path fill-rule="evenodd" clip-rule="evenodd" d="M102.494 11.5H22.4941C16.419 11.5 11.4941 16.4249 11.4941 22.5V227.5C11.4941 233.575 16.419 238.5 22.4941 238.5H102.494C108.569 238.5 113.494 233.575 113.494 227.5V22.5C113.494 16.4249 108.569 11.5 102.494 11.5ZM22.4941 0.5C10.3439 0.5 0.494141 10.3497 0.494141 22.5V227.5C0.494141 239.65 10.3439 249.5 22.4941 249.5H102.494C114.644 249.5 124.494 239.65 124.494 227.5V22.5C124.494 10.3497 114.644 0.5 102.494 0.5H22.4941Z" fill="#A68C55"/>
<path d="M24.1601 170.5L62.1601 140.861L100.16 170.5V159.139L62.1601 129.5L24.1601 159.139V170.5Z" fill="black"/>
<path d="M63.6601 117.968C64.6601 127.5 75.1601 131.5 82.1601 126.5C77.1601 124 78.2199 122.5 74.94 120.5C72.3161 118.9 69.1601 119 67.6601 117.639C70.076 117.355 72.65 116.915 75.1552 116.363C75.9991 116.177 76.837 115.978 77.6601 115.767C80.6601 125.675 93.6601 125 97.6601 119.5C93.1601 118.5 92.6601 116.708 90.6601 116C87.2686 114.8 83.1601 115.387 81.9807 114.5C83.8744 113.863 85.5639 113.167 86.8995 112.439C93.1601 114.5 102.16 107.5 100.66 96.5C98.6601 98.5 96.1601 99 93.1601 101.5C90.1601 104 87.6601 108 86.4207 111.561C84.8306 112.428 82.6867 113.259 80.2649 114C80.6601 112.5 83.1601 111 85.1601 107.5C87.1601 104 87.6601 100 89.6601 97.5C85.6601 96.5 81.1601 100 78.6601 104C76.1601 108 75.6601 110.5 77.4001 114.802C76.594 115.008 75.7712 115.204 74.94 115.387C71.9698 116.041 68.9145 116.533 66.1601 116.792C67.6601 113.5 70.1601 113 72.1601 109.5C74.1601 106 75.1601 100.5 76.1601 99.5C72.1601 99 68.6601 101 65.6601 105.5C62.1601 111 64.1601 113 63.8939 116.956C62.7381 117.012 61.582 117.012 60.4262 116.956C60.16 113 62.16 111 58.66 105.5C55.66 101 52.16 99 48.16 99.5C49.16 100.5 50.16 106 52.16 109.5C54.16 113 56.66 113.5 58.16 116.792C55.4056 116.533 52.3503 116.041 49.3801 115.387C48.5489 115.204 47.7261 115.008 46.9201 114.802C48.66 110.5 48.16 108 45.66 104C43.16 100 38.66 96.5 34.66 97.5C36.66 100 37.16 104 39.16 107.5C41.16 111 43.66 112.5 44.0552 114C41.6334 113.259 39.4896 112.428 37.8995 111.561C36.66 108 34.16 104 31.16 101.5C28.16 99 25.66 98.5 23.66 96.5C22.16 107.5 31.16 114.5 37.4206 112.439C38.7563 113.167 40.4457 113.863 42.3395 114.5C41.16 115.387 37.0516 114.8 33.66 116C31.66 116.708 31.16 118.5 26.66 119.5C30.66 125 43.66 125.675 46.66 115.767C47.4831 115.978 48.321 116.177 49.1649 116.363C51.6701 116.915 54.2441 117.355 56.66 117.639C55.16 119 52.0041 118.9 49.3801 120.5C46.1003 122.5 47.16 124 42.16 126.5C49.16 131.5 59.66 127.5 60.66 117.968C61.6955 118.01 62.6246 118.01 63.6601 117.968Z" fill="black"/>
<path d="M66.1601 99.5V90H75.66V82H66.1601V73H58.1601V82H48.6602V90H58.1601V99.5H66.1601Z" fill="black"/>
<path d="M41.16 76.5L62.16 60.5964L83.16 76.5V70.4036L62.16 54.5L41.16 70.4036V76.5Z" fill="black"/>
<path d="M23.4941 187.5H101.494V194.5H23.4941V187.5Z" fill="black"/>
</svg>
