<svg width="125" height="250" viewBox="0 0 125 250" fill="none" xmlns="http://www.w3.org/2000/svg">
<path d="M0.494141 22.5C0.494141 10.3497 10.3439 0.5 22.4941 0.5H102.494C114.644 0.5 124.494 10.3497 124.494 22.5V227.5C124.494 239.65 114.644 249.5 102.494 249.5H22.4941C10.3439 249.5 0.494141 239.65 0.494141 227.5V22.5Z" fill="#C5A869"/>
<path fill-rule="evenodd" clip-rule="evenodd" d="M102.494 11.5H22.4941C16.419 11.5 11.4941 16.4249 11.4941 22.5V227.5C11.4941 233.575 16.419 238.5 22.4941 238.5H102.494C108.569 238.5 113.494 233.575 113.494 227.5V22.5C113.494 16.4249 108.569 11.5 102.494 11.5ZM22.4941 0.5C10.3439 0.5 0.494141 10.3497 0.494141 22.5V227.5C0.494141 239.65 10.3439 249.5 22.4941 249.5H102.494C114.644 249.5 124.494 239.65 124.494 227.5V22.5C124.494 10.3497 114.644 0.5 102.494 0.5H22.4941Z" fill="#A68C55"/>
<path d="M24.1601 182.5L62.1601 152.861L100.16 182.5V171.139L62.1601 141.5L24.1601 171.139V182.5Z" fill="black"/>
<path d="M63.6601 129.968C64.6601 139.5 75.1601 143.5 82.1601 138.5C77.1601 136 78.2199 134.5 74.94 132.5C72.3161 130.9 69.1601 131 67.6601 129.639C70.076 129.355 72.65 128.915 75.1552 128.363C75.9991 128.177 76.837 127.978 77.6601 127.767C80.6601 137.675 93.6601 137 97.6601 131.5C93.1601 130.5 92.6601 128.708 90.6601 128C87.2686 126.8 83.1601 127.387 81.9807 126.5C83.8744 125.863 85.5639 125.167 86.8995 124.439C93.1601 126.5 102.16 119.5 100.66 108.5C98.6601 110.5 96.1601 111 93.1601 113.5C90.1601 116 87.6601 120 86.4207 123.561C84.8306 124.428 82.6867 125.259 80.2649 126C80.6601 124.5 83.1601 123 85.1601 119.5C87.1601 116 87.6601 112 89.6601 109.5C85.6601 108.5 81.1601 112 78.6601 116C76.1601 120 75.6601 122.5 77.4001 126.802C76.594 127.008 75.7712 127.204 74.94 127.387C71.9698 128.041 68.9145 128.533 66.1601 128.792C67.6601 125.5 70.1601 125 72.1601 121.5C74.1601 118 75.1601 112.5 76.1601 111.5C72.1601 111 68.6601 113 65.6601 117.5C62.1601 123 64.1601 125 63.8939 128.956C62.7381 129.012 61.582 129.012 60.4262 128.956C60.16 125 62.16 123 58.66 117.5C55.66 113 52.16 111 48.16 111.5C49.16 112.5 50.16 118 52.16 121.5C54.16 125 56.66 125.5 58.16 128.792C55.4056 128.533 52.3503 128.041 49.3801 127.387C48.5489 127.204 47.7261 127.008 46.9201 126.802C48.66 122.5 48.16 120 45.66 116C43.16 112 38.66 108.5 34.66 109.5C36.66 112 37.16 116 39.16 119.5C41.16 123 43.66 124.5 44.0552 126C41.6334 125.259 39.4896 124.428 37.8995 123.561C36.66 120 34.16 116 31.16 113.5C28.16 111 25.66 110.5 23.66 108.5C22.16 119.5 31.16 126.5 37.4206 124.439C38.7563 125.167 40.4457 125.863 42.3395 126.5C41.16 127.387 37.0516 126.8 33.66 128C31.66 128.708 31.16 130.5 26.66 131.5C30.66 137 43.66 137.675 46.66 127.767C47.4831 127.978 48.321 128.177 49.1649 128.363C51.6701 128.915 54.2441 129.355 56.66 129.639C55.16 131 52.0041 130.9 49.3801 132.5C46.1003 134.5 47.16 136 42.16 138.5C49.16 143.5 59.66 139.5 60.66 129.968C61.6955 130.01 62.6246 130.01 63.6601 129.968Z" fill="black"/>
<path d="M66.1601 111.5V102H75.66V94H66.1601V85H58.1601V94H48.6602V102H58.1601V111.5H66.1601Z" fill="black"/>
<path d="M41.16 88.5L62.16 72.5964L83.16 88.5V82.4036L62.16 66.5L41.16 82.4036V88.5Z" fill="black"/>
</svg>
