<svg width="190" height="198" viewBox="0 0 190 198" fill="none" xmlns="http://www.w3.org/2000/svg">
<path d="M158.585 0.75H30.0631C18.2826 0.75 8.59273 10.0298 8.08361 21.7993L1.48692 174.299C0.945705 186.811 10.943 197.25 23.4664 197.25H166.346C178.936 197.25 188.958 186.705 188.318 174.132L180.557 21.6319C179.961 9.93132 170.301 0.75 158.585 0.75Z" fill="#121212"/>
<path d="M96.4937 105.75V94.75H105.994V86.75H96.4937V76.25H87.4941V86.75H77.9941V94.75H87.4941V105.75H96.4937Z" fill="#F6C808"/>
<path d="M91.9937 65.7858L112.946 78.4202V72.9894L91.9937 60.4658L71.0421 72.9894V78.4202L91.9937 65.7858Z" fill="#F6C808"/>
<path d="M91.9937 135.25L138.494 160.75V175.75L91.9937 150.75L45.4941 175.75V160.75L91.9937 135.25Z" fill="#F6C808"/>
<path d="M91.9942 111.75C93.9942 112.75 95.9942 119.729 92.9942 122.739C94.5507 122.706 96.0514 122.595 97.4942 122.408C98.4942 117.323 94.9942 114.25 100.494 109.75C99.9942 112.25 100.994 112.25 100.994 114.75C100.994 117.25 97.9942 120.25 98.4942 122.265C100.067 122.018 101.568 121.679 102.994 121.249C104.494 116.25 100.623 110.25 105.994 106.25C105.366 109.077 107.008 108.823 106.994 112.75C106.994 115.75 103.994 118.408 103.994 120.929C104.332 120.814 104.665 120.694 104.994 120.569C107.174 119.739 109.156 118.678 110.927 117.4C110.733 115.787 110.088 114.231 109.447 112.684C108.153 109.561 106.876 106.476 109.357 103.049C109.483 104.522 109.933 105.052 110.498 105.717C111.04 106.354 111.688 107.116 112.257 108.951C112.725 110.445 112.387 112.094 112.063 113.671C111.835 114.785 111.613 115.863 111.689 116.826C112.348 116.308 112.976 115.758 113.571 115.177C114.911 113.868 116.1 112.387 117.123 110.734C115.321 106.194 109.736 103.145 112.042 97.2781C113.001 100.011 114.261 98.9282 116.323 102.27C117.686 104.463 117.029 107.612 117.667 109.813C118.899 107.615 119.856 105.136 120.504 102.378C119.6 101.087 118.354 100.03 117.115 98.9796C114.536 96.7934 111.99 94.6343 112.629 90.4519C113.415 91.7046 114.058 91.9698 114.865 92.3027C115.638 92.6218 116.562 93.0031 117.907 94.3756C119.007 95.4896 119.459 97.1109 119.893 98.6617C120.146 99.5699 120.393 100.454 120.759 101.198C121.203 98.9559 121.451 96.5399 121.489 93.9507C120.576 92.3916 119.149 91.1815 117.731 89.9796C115.153 87.7934 112.606 85.6343 113.246 81.4519C114.032 82.7046 114.674 82.9698 115.481 83.3027C116.255 83.6218 117.179 84.0031 118.524 85.3756C119.623 86.4896 120.076 88.1109 120.509 89.6617C120.833 90.8188 121.145 91.9367 121.707 92.7754C121.859 90.2022 121.12 87.8589 120.376 85.5045C119.025 81.2231 117.662 76.9051 121.634 71.1016C127.018 75.8995 126.028 81.6381 125.063 87.2321C124.745 89.0758 124.429 90.9038 124.346 92.6772C124.868 91.8504 125.168 90.7742 125.479 89.6617C125.912 88.1109 126.365 86.4896 127.465 85.3756C128.81 84.0031 129.734 83.6218 130.507 83.3027C131.314 82.9698 131.957 82.7046 132.742 81.4519C133.382 85.6343 130.835 87.7934 128.257 89.9796C126.834 91.186 125.401 92.4007 124.489 93.9681C124.458 96.1989 124.278 98.3275 123.957 100.349C124.483 99.61 124.864 98.662 125.257 97.6849C125.858 96.191 126.486 94.6292 127.701 93.6426C129.189 92.4261 130.149 92.1486 130.953 91.9163C131.791 91.6739 132.459 91.4809 133.378 90.322C133.555 94.5494 130.786 96.4159 127.983 98.3058C126.358 99.4013 124.722 100.505 123.641 102.08C123.352 103.479 122.992 104.822 122.561 106.109C123.028 105.61 123.466 105.022 123.914 104.421C124.875 103.129 125.881 101.779 127.307 101.135C129.056 100.338 130.055 100.314 130.892 100.295C131.764 100.274 132.459 100.258 133.643 99.3711C132.736 103.504 129.584 104.603 126.391 105.716C124.85 106.253 123.3 106.794 121.989 107.681C121.411 109.146 120.735 110.531 119.966 111.833C120.698 111.4 121.401 110.767 122.125 110.117C123.322 109.04 124.574 107.915 126.1 107.564C127.971 107.128 128.955 107.301 129.779 107.447C130.639 107.599 131.323 107.719 132.658 107.084C130.955 110.957 127.648 111.413 124.299 111.875C122.513 112.121 120.716 112.369 119.144 113.138C118.304 114.392 117.368 115.56 116.342 116.64C117.177 116.365 118.025 115.864 118.898 115.349C120.284 114.529 121.733 113.672 123.298 113.63C125.219 113.57 126.149 113.935 126.928 114.24C127.741 114.558 128.389 114.811 129.823 114.451C127.389 117.912 124.057 117.708 120.683 117.501C118.818 117.386 116.94 117.271 115.194 117.774C113.912 118.964 112.515 120.023 111.011 120.948C111.999 120.976 113.091 120.672 114.219 120.358C115.771 119.925 117.392 119.473 118.914 119.837C120.785 120.278 121.59 120.871 122.263 121.367C122.966 121.885 123.525 122.298 125.004 122.321C121.757 125.034 118.591 123.973 115.386 122.899C113.518 122.273 111.637 121.642 109.718 121.752C108.639 122.341 107.556 122.787 106.38 123.25C106.083 123.367 105.783 123.479 105.479 123.588C106.376 123.847 107.433 123.875 108.523 123.904C110.133 123.946 111.815 123.99 113.164 124.785C114.823 125.755 115.418 126.559 115.915 127.231C116.435 127.932 116.849 128.491 118.255 128.948C114.355 130.587 111.64 128.643 108.892 126.675C107.4 125.608 105.899 124.533 104.193 124.019C104.127 124.04 104.061 124.06 103.994 124.08C101.602 124.812 99.0394 125.304 96.328 125.555C96.8249 126.901 98.1231 127.528 102.994 127.528C107.865 127.528 108.86 129.376 109.852 131.87C100.994 136.928 100.227 129.99 91.9942 125.75C83.7614 129.99 82.9941 136.928 74.1368 131.87C75.1288 129.376 76.123 127.528 80.9941 127.528C85.8653 127.528 87.1635 126.901 87.6603 125.555C84.949 125.304 82.3868 124.812 79.9941 124.08C79.9277 124.06 79.8615 124.04 79.7953 124.019C78.0893 124.533 76.5881 125.608 75.0968 126.675C72.3483 128.643 69.6337 130.587 65.7332 128.948C67.1396 128.491 67.5534 127.932 68.0729 127.231C68.5708 126.559 69.1658 125.755 70.8247 124.785C72.173 123.99 73.8558 123.946 75.4655 123.904C76.5557 123.875 77.6124 123.847 78.509 123.588C78.2059 123.479 77.9057 123.367 77.6086 123.25C76.432 122.787 75.3497 122.341 74.2705 121.752C72.3518 121.642 70.4705 122.273 68.6026 122.899C65.3973 123.973 62.2316 125.034 58.9846 122.321C60.4631 122.298 61.0228 121.885 61.7253 121.367C62.3987 120.871 63.2033 120.278 65.074 119.837C66.5963 119.473 68.2178 119.925 69.769 120.358C70.8976 120.672 71.989 120.976 72.9777 120.948C71.4732 120.023 70.0759 118.964 68.7945 117.774C67.0487 117.271 65.1708 117.386 63.3057 117.501C59.9315 117.708 56.599 117.912 54.1657 114.451C55.5999 114.811 56.2473 114.558 57.06 114.24C57.839 113.935 58.7698 113.57 60.6907 113.63C62.2553 113.672 63.7044 114.529 65.0906 115.349C65.9632 115.864 66.8109 116.365 67.6468 116.64C66.6199 115.56 65.6848 114.392 64.8445 113.138C63.2723 112.369 61.475 112.121 59.6895 111.875C56.3407 111.413 53.0332 110.957 51.3299 107.084C52.6649 107.719 53.3496 107.599 54.2091 107.447C55.0329 107.301 56.0173 107.128 57.8888 107.564C59.4142 107.915 60.666 109.04 61.8635 110.117C62.5869 110.767 63.2905 111.4 64.0225 111.833C63.253 110.531 62.5777 109.146 61.9996 107.681C60.6884 106.794 59.1381 106.253 57.5969 105.716C54.4048 104.603 51.2522 103.504 50.3456 99.3711C51.5291 100.258 52.2242 100.274 53.0968 100.295C53.9331 100.314 54.9324 100.338 56.6811 101.135C58.1075 101.779 59.113 103.129 60.0748 104.421C60.5224 105.022 60.9605 105.61 61.4272 106.109C60.9965 104.822 60.6361 103.479 60.3476 102.08C59.2665 100.505 57.6299 99.4013 56.0051 98.3058C53.2021 96.4159 50.4338 94.5494 50.6106 90.322C51.5291 91.4809 52.197 91.6739 53.0355 91.9163C53.8391 92.1486 54.7995 92.4261 56.2872 93.6426C57.5023 94.6292 58.1305 96.191 58.7313 97.6849C59.1243 98.662 59.5056 99.61 60.0318 100.349C59.7099 98.3275 59.5308 96.1989 59.4992 93.9681C58.587 92.4007 57.1544 91.186 55.7314 89.9796C53.1529 87.7934 50.6062 85.6343 51.246 81.4519C52.0317 82.7046 52.6744 82.9698 53.4812 83.3027C54.2545 83.6218 55.1785 84.0031 56.5237 85.3756C57.6232 86.4896 58.0761 88.1109 58.5093 89.6617C58.8201 90.7742 59.1207 91.8504 59.6426 92.6772C59.559 90.9038 59.2436 89.0758 58.9254 87.2321C57.9601 81.6381 56.9699 75.8995 62.3541 71.1016C66.3266 76.9051 64.9635 81.2231 63.6119 85.5045C62.8687 87.8589 62.1289 90.2022 62.2818 92.7754C62.8435 91.9367 63.1558 90.8188 63.479 89.6617C63.9122 88.1109 64.3651 86.4896 65.4646 85.3756C66.8097 84.0031 67.7338 83.6218 68.5071 83.3027C69.3139 82.9698 69.9566 82.7046 70.7423 81.4519C71.3821 85.6343 68.8354 87.7934 66.2569 89.9796C64.8392 91.1815 63.4119 92.3916 62.4992 93.9507C62.5371 96.5399 62.7855 98.9559 63.229 101.198C63.5951 100.454 63.842 99.5699 64.0957 98.6617C64.5289 97.1109 64.9818 95.4896 66.0812 94.3756C67.4264 93.0031 68.3505 92.6218 69.1238 92.3027C69.9306 91.9698 70.5733 91.7046 71.359 90.4519C71.9988 94.6343 69.4521 96.7934 66.8736 98.9796C65.6344 100.03 64.3879 101.087 63.4842 102.378C64.1325 105.136 65.0889 107.615 66.3218 109.813C66.9596 107.612 66.3026 104.463 67.6653 102.27C69.7269 98.9282 70.9874 100.011 71.9463 97.2781C74.2521 103.145 68.667 106.194 66.865 110.734C67.8882 112.387 69.0773 113.868 70.4172 115.177C71.0125 115.758 71.6402 116.308 72.2995 116.826C72.3749 115.863 72.1537 114.785 71.9251 113.671C71.6014 112.094 71.263 110.445 71.7316 108.951C72.3005 107.116 72.948 106.354 73.4899 105.717C74.0553 105.052 74.5056 104.522 74.6318 103.049C77.1128 106.476 75.8349 109.561 74.541 112.684C73.9001 114.231 73.2552 115.787 73.0614 117.4C74.8322 118.678 76.8139 119.739 78.9941 120.569C79.323 120.694 79.6563 120.814 79.9941 120.929C79.9941 118.408 76.9941 115.75 76.9941 112.75C76.9804 108.823 78.6223 109.077 77.9941 106.25C83.3649 110.25 79.4941 116.25 80.9941 121.249C82.4201 121.679 83.9211 122.018 85.4941 122.265C85.9941 120.25 82.9941 117.25 82.9941 114.75C82.9941 112.25 83.9941 112.25 83.4941 109.75C88.9941 114.25 85.4941 117.323 86.4941 122.408C87.937 122.595 89.4377 122.706 90.9941 122.739C87.9941 119.729 89.9942 112.75 91.9942 111.75Z" fill="#F6C808"/>
</svg>
