<svg width="125" height="250" viewBox="0 0 125 250" fill="none" xmlns="http://www.w3.org/2000/svg">
<path d="M0.39502 22.5C0.39502 10.3497 10.2448 0.5 22.395 0.5H102.395C114.545 0.5 124.395 10.3497 124.395 22.5V227.5C124.395 239.65 114.545 249.5 102.395 249.5H22.395C10.2448 249.5 0.39502 239.65 0.39502 227.5V22.5Z" fill="#C5A869"/>
<path fill-rule="evenodd" clip-rule="evenodd" d="M102.395 11.5H22.395C16.3199 11.5 11.395 16.4249 11.395 22.5V227.5C11.395 233.575 16.3199 238.5 22.395 238.5H102.395C108.47 238.5 113.395 233.575 113.395 227.5V22.5C113.395 16.4249 108.47 11.5 102.395 11.5ZM22.395 0.5C10.2448 0.5 0.39502 10.3497 0.39502 22.5V227.5C0.39502 239.65 10.2448 249.5 22.395 249.5H102.395C114.545 249.5 124.395 239.65 124.395 227.5V22.5C124.395 10.3497 114.545 0.5 102.395 0.5H22.395Z" fill="#A68C55"/>
<path d="M24.061 173.5L62.061 143.861L100.061 173.5V162.139L62.061 132.5L24.061 162.139V173.5Z" fill="black"/>
<path d="M63.561 120.968C64.561 130.5 75.061 134.5 82.061 129.5C77.061 127 78.1208 125.5 74.8409 123.5C72.217 121.9 69.061 122 67.561 120.639C69.9769 120.355 72.5509 119.915 75.0561 119.363C75.9 119.177 76.7379 118.978 77.561 118.767C80.561 128.675 93.561 128 97.561 122.5C93.061 121.5 92.561 119.708 90.561 119C87.1695 117.8 83.061 118.387 81.8815 117.5C83.7753 116.863 85.4647 116.167 86.8004 115.439C93.061 117.5 102.061 110.5 100.561 99.5C98.561 101.5 96.061 102 93.061 104.5C90.061 107 87.561 111 86.3216 114.561C84.7314 115.428 82.5876 116.259 80.1658 117C80.561 115.5 83.061 114 85.061 110.5C87.061 107 87.561 103 89.561 100.5C85.561 99.5 81.061 103 78.561 107C76.061 111 75.561 113.5 77.3009 117.802C76.4949 118.008 75.6721 118.204 74.8409 118.387C71.8707 119.041 68.8154 119.533 66.061 119.792C67.561 116.5 70.061 116 72.061 112.5C74.061 109 75.061 103.5 76.061 102.5C72.061 102 68.561 104 65.561 108.5C62.061 114 64.061 116 63.7948 119.956C62.639 120.012 61.4829 120.012 60.3271 119.956C60.0609 116 62.0609 114 58.5609 108.5C55.5609 104 52.0609 102 48.0609 102.5C49.0609 103.5 50.0609 109 52.0609 112.5C54.0609 116 56.5609 116.5 58.0609 119.792C55.3065 119.533 52.2512 119.041 49.281 118.387C48.4498 118.204 47.627 118.008 46.821 117.802C48.5609 113.5 48.0609 111 45.5609 107C43.0609 103 38.5609 99.5 34.5609 100.5C36.5609 103 37.0609 107 39.0609 110.5C41.0609 114 43.5609 115.5 43.9561 117C41.5343 116.259 39.3905 115.428 37.8003 114.561C36.5609 111 34.0609 107 31.0609 104.5C28.0609 102 25.5609 101.5 23.5609 99.5C22.0609 110.5 31.0609 117.5 37.3215 115.439C38.6572 116.167 40.3466 116.863 42.2404 117.5C41.0609 118.387 36.9525 117.8 33.5609 119C31.5609 119.708 31.0609 121.5 26.5609 122.5C30.5609 128 43.5609 128.675 46.5609 118.767C47.384 118.978 48.2219 119.177 49.0658 119.363C51.571 119.915 54.145 120.355 56.5609 120.639C55.0609 122 51.9049 121.9 49.281 123.5C46.0011 125.5 47.0609 127 42.0609 129.5C49.0609 134.5 59.5609 130.5 60.5609 120.968C61.5964 121.01 62.5255 121.01 63.561 120.968Z" fill="black"/>
<path d="M66.061 102.5V93H75.5609V85H66.061V76H58.061V85H48.561V93H58.061V102.5H66.061Z" fill="black"/>
<path d="M41.0609 79.5L62.0609 63.5964L83.0609 79.5V73.4036L62.0609 57.5L41.0609 73.4036V79.5Z" fill="black"/>
<path d="M24.061 192.5L62.061 162.861L100.061 192.5V181.139L62.061 151.5L24.061 181.139V192.5Z" fill="black"/>
</svg>
