<svg width="125" height="250" viewBox="0 0 125 250" fill="none" xmlns="http://www.w3.org/2000/svg">
<path d="M0.295898 22.5C0.295898 10.3497 10.1456 0.5 22.2959 0.5H102.296C114.446 0.5 124.296 10.3497 124.296 22.5V227.5C124.296 239.65 114.446 249.5 102.296 249.5H22.2959C10.1456 249.5 0.295898 239.65 0.295898 227.5V22.5Z" fill="#C5A869"/>
<path fill-rule="evenodd" clip-rule="evenodd" d="M102.296 11.5H22.2959C16.2208 11.5 11.2959 16.4249 11.2959 22.5V227.5C11.2959 233.575 16.2208 238.5 22.2959 238.5H102.296C108.371 238.5 113.296 233.575 113.296 227.5V22.5C113.296 16.4249 108.371 11.5 102.296 11.5ZM22.2959 0.5C10.1456 0.5 0.295898 10.3497 0.295898 22.5V227.5C0.295898 239.65 10.1456 249.5 22.2959 249.5H102.296C114.446 249.5 124.296 239.65 124.296 227.5V22.5C124.296 10.3497 114.446 0.5 102.296 0.5H22.2959Z" fill="#A68C55"/>
<path d="M23.9619 166.5L61.9619 136.861L99.9619 166.5V155.139L61.9619 125.5L23.9619 155.139V166.5Z" fill="black"/>
<path d="M63.4619 113.968C64.4619 123.5 74.9619 127.5 81.9619 122.5C76.9619 120 78.0216 118.5 74.7417 116.5C72.1178 114.9 68.9619 115 67.4619 113.639C69.8778 113.355 72.4518 112.915 74.957 112.363C75.8009 112.177 76.6388 111.978 77.4619 111.767C80.4619 121.675 93.4619 121 97.4619 115.5C92.9619 114.5 92.4619 112.708 90.4619 112C87.0703 110.8 82.9619 111.387 81.7824 110.5C83.6762 109.863 85.3656 109.167 86.7013 108.439C92.9619 110.5 101.962 103.5 100.462 92.5C98.4619 94.5 95.9619 95 92.9619 97.5C89.9619 100 87.4619 104 86.2224 107.561C84.6323 108.428 82.4885 109.259 80.0667 110C80.4619 108.5 82.9619 107 84.9619 103.5C86.9619 100 87.4619 96 89.4619 93.5C85.4619 92.5 80.9619 96 78.4619 100C75.9619 104 75.4619 106.5 77.2018 110.802C76.3958 111.008 75.573 111.204 74.7417 111.387C71.7716 112.041 68.7163 112.533 65.9619 112.792C67.4619 109.5 69.9619 109 71.9619 105.5C73.9619 102 74.9619 96.5 75.9619 95.5C71.9619 95 68.4619 97 65.4619 101.5C61.9619 107 63.9619 109 63.6956 112.956C62.5399 113.012 61.3838 113.012 60.228 112.956C59.9618 109 61.9618 107 58.4618 101.5C55.4618 97 51.9618 95 47.9618 95.5C48.9618 96.5 49.9618 102 51.9618 105.5C53.9618 109 56.4618 109.5 57.9618 112.792C55.2074 112.533 52.152 112.041 49.1819 111.387C48.3507 111.204 47.5279 111.008 46.7218 110.802C48.4618 106.5 47.9618 104 45.4618 100C42.9618 96 38.4618 92.5 34.4618 93.5C36.4618 96 36.9618 100 38.9618 103.5C40.9618 107 43.4618 108.5 43.857 110C41.4352 109.259 39.2913 108.428 37.7012 107.561C36.4618 104 33.9618 100 30.9618 97.5C27.9618 95 25.4618 94.5 23.4618 92.5C21.9618 103.5 30.9618 110.5 37.2224 108.439C38.5581 109.167 40.2474 109.863 42.1412 110.5C40.9618 111.387 36.8533 110.8 33.4618 112C31.4618 112.708 30.9618 114.5 26.4618 115.5C30.4618 121 43.4618 121.675 46.4618 111.767C47.2849 111.978 48.1228 112.177 48.9667 112.363C51.4719 112.915 54.0459 113.355 56.4618 113.639C54.9618 115 51.8058 114.9 49.1819 116.5C45.902 118.5 46.9618 120 41.9618 122.5C48.9618 127.5 59.4618 123.5 60.4618 113.968C61.4973 114.01 62.4263 114.01 63.4619 113.968Z" fill="black"/>
<path d="M65.9619 95.5V86H75.4618V78H65.9619V69H57.9619V78H48.4619V86H57.9619V95.5H65.9619Z" fill="black"/>
<path d="M40.9618 72.5L61.9618 56.5964L82.9618 72.5V66.4036L61.9618 50.5L40.9618 66.4036V72.5Z" fill="black"/>
<path d="M23.9619 185.5L61.9618 155.861L99.9619 185.5V174.139L61.9618 144.5L23.9619 174.139V185.5Z" fill="black"/>
<path d="M23.9619 190H99.9619L99.9619 198H23.9619L23.9619 190Z" fill="black"/>
</svg>
