<svg width="167" height="247" viewBox="0 0 167 247" fill="none" xmlns="http://www.w3.org/2000/svg">
<path d="M13.5642 95.2361L69.3245 24.8558C75.8688 16.5955 88.3739 16.5038 95.0387 24.6672L152.532 95.088C156.906 100.446 157.475 107.963 153.956 113.917L96.4908 211.166C90.0557 222.056 74.2641 221.953 67.9718 210.98L12.1835 113.69C8.82616 107.835 9.37303 100.526 13.5642 95.2361Z" stroke="#1D1D1D" stroke-width="11"/>
<path d="M81.7351 56.1028C80.681 58.5619 79.9281 61.5908 79.4764 65.2195L79.1752 67.6486L77.6393 66.0292C76.1335 64.4398 72.4293 61.7408 71.7366 61.7408C70.9536 61.7408 71.827 67.3487 73.0918 70.1977C74.0555 72.3269 75.7119 74.906 77.1274 76.3454L78.061 77.3351H75.5312C73.7243 77.3351 72.881 77.455 72.6401 77.7549C72.3992 78.0248 72.3088 79.0445 72.3691 80.5439L72.4594 82.8831L75.8625 82.973C77.6996 83.003 79.2355 83.123 79.2355 83.2129C79.2355 83.3029 78.844 83.6928 78.3922 84.0826C76.9165 85.3122 75.8324 87.7113 75.8324 89.6606C75.8324 91.6998 76.9467 94.1889 78.3621 95.2685C79.4162 96.1082 82.0664 97.1279 83.1505 97.1279C83.9938 97.1279 85.5598 96.588 86.915 95.8683C89.5351 94.4588 90.7698 91.25 90.0471 87.8013C89.776 86.4817 89.4146 85.9119 88.2401 84.7124C87.427 83.9027 86.7644 83.2129 86.7644 83.153C86.7644 83.093 88.3304 83.033 90.2277 83.033H93.7212L93.5405 77.485L88.2702 77.3051L89.7459 75.5657C92.4262 72.3269 93.9922 68.8782 94.5945 64.8896C94.986 62.0707 94.986 61.7408 94.4138 61.7408C93.6609 61.7408 90.4084 64.1099 88.5714 65.9992L86.8247 67.7686L86.6138 65.2795C86.4934 63.9 86.2223 61.8907 85.9814 60.7811C85.3791 58.1421 83.6926 54.1236 83.1204 54.0036C82.8193 53.9436 82.3675 54.6334 81.7351 56.1028Z" fill="#1D1D1D"/>
<path d="M117.874 85.2522C117.242 85.762 115.856 86.8716 114.772 87.7113C113.688 88.551 110.586 90.9801 107.846 93.1093C100.497 98.8972 86.6741 109.453 84.0541 111.313L82.8795 112.152L77.0672 107.774C72.0378 103.995 69.749 102.256 63.6958 97.5777C59.2386 94.159 53.5467 89.6906 50.5653 87.3215C48.6378 85.792 46.8309 84.5325 46.59 84.5325C46.078 84.5325 44 86.9616 44 87.5614C44 87.8013 46.1985 89.8105 48.9089 92.0297C51.5892 94.2489 55.6849 97.6377 58.0039 99.587C67.0085 107.054 73.7544 112.632 75.712 114.192C76.8263 115.091 77.7297 115.901 77.7297 116.021C77.7297 116.111 77.1274 116.771 76.4046 117.46C75.6819 118.15 74.7784 119.38 74.417 120.159C72.7004 123.878 72.3089 124.178 68.7853 124.328C67.3097 124.418 65.8039 124.598 65.3822 124.748C64.9606 124.928 62.2803 127.927 59.3591 131.525C56.468 135.064 53.8479 138.243 53.5768 138.573C52.9143 139.352 53.1251 139.922 55.7151 143.731C58.1544 147.33 59.0278 148.979 59.5097 150.778L59.8409 152.128L60.4734 151.228C60.8046 150.748 62.3405 147.929 63.8764 144.96C68.5745 135.844 70.5622 132.095 70.8633 131.705C71.0139 131.525 72.3992 130.866 73.9653 130.266C75.5012 129.666 77.3382 128.796 78.0309 128.287C79.3861 127.297 80.4402 125.318 80.4402 123.728C80.4402 122.139 80.7112 121.599 81.9158 120.759L83.0602 119.95L84.1745 120.909C85.1683 121.779 85.2888 122.079 85.5297 124.028C85.7104 125.408 86.0417 126.517 86.4332 127.087C87.1861 128.107 89.1135 129.276 91.8842 130.296C92.9683 130.716 94.1429 131.225 94.4741 131.465C94.8355 131.705 95.7691 133.145 96.5521 134.674C97.3351 136.204 98.6301 138.663 99.4131 140.162C100.196 141.632 101.822 144.75 103.027 147.06C104.232 149.369 105.346 151.438 105.497 151.618C105.978 152.188 106.249 151.828 106.46 150.418C106.671 149.129 107.755 147.09 110.195 143.581C111.399 141.872 112.664 139.652 112.664 139.292C112.664 139.203 112.002 138.363 111.219 137.403C110.436 136.444 108.026 133.505 105.888 130.866C103.75 128.227 101.792 125.857 101.521 125.587C100.708 124.718 99.7745 124.418 97.817 124.418C96.7328 124.418 95.4378 124.328 94.9259 124.238C93.6008 123.968 92.3058 122.589 91.6734 120.729C91.2819 119.62 90.6494 118.69 89.505 117.58C88.6015 116.711 87.939 115.961 87.9992 115.931C88.1799 115.811 97.0942 108.404 97.4857 108.074C97.6664 107.894 98.2687 107.414 98.8409 106.964C99.4131 106.544 102.636 103.845 106.039 101.026C109.442 98.2075 112.815 95.3885 113.568 94.7887C116.91 92.0897 122 87.7413 122 87.6213C122 87.3514 119.741 84.5625 119.38 84.4125C119.199 84.3525 118.537 84.7124 117.874 85.2522Z" fill="#1D1D1D"/>
<path d="M84.4243 145.35C84.4243 147.27 87.1649 150.179 91.622 152.968C92.6761 153.627 94.0012 154.617 94.6035 155.187C95.9587 156.506 97.073 159.055 97.073 160.855C97.073 162.264 97.073 162.264 98.6992 163.104C100.536 164.064 104.062 168.034 102.29 169.434C101.833 169.796 101.109 168.352 100.175 167.482L98.4884 165.893L97.8861 166.793C95.7479 169.762 91.5317 172.521 87.9178 173.36C85.2375 173.96 81.9548 174.2 81.4128 173.81C81.0213 173.54 81.1417 173.33 82.1657 172.521C82.7866 172.043 83.9895 170.985 84.981 170.114L85.1772 169.941C87.3155 168.052 88.9116 167.212 91.9533 166.343C95.8081 165.233 96.4707 165.023 96.4707 164.813C96.4707 164.214 93.1579 163.254 90.568 163.104C87.9178 162.954 87.7973 162.954 87.5865 163.584C87.2251 164.693 84.5448 167.662 83.0089 168.652C78.883 171.291 73.4923 172.071 70.9626 170.451C69.6676 169.612 69.0653 168.832 69.0653 167.992C69.0653 167.602 69.2158 167.572 70.3301 167.992C71.8962 168.532 72.8599 168.352 74.0344 167.242C75.7209 165.713 77.317 164.843 79.3046 164.513C81.1116 164.184 83.1294 163.434 82.8583 163.164C82.6776 162.984 75.5703 163.584 73.6128 163.914C70.8421 164.423 68.0714 164.274 66.144 163.584C64.4575 162.954 62.229 161.455 61.1448 160.195C59.6691 158.456 59.3379 155.877 60.3317 153.597C60.9942 152.068 61.446 151.858 61.717 152.968C62.1085 154.557 65.873 157.046 69.2158 157.916C71.4444 158.516 73.3718 159.535 74.4259 160.765C75.3896 161.814 75.4197 161.844 77.4375 161.754L79.4552 161.664L77.5579 160.645C74.8776 159.205 71.866 156.566 70.6614 154.557C69.8182 153.208 69.5772 152.428 69.4568 150.898C69.3664 149.759 69.3965 148.919 69.5772 148.919C69.7278 148.919 70.4506 149.549 71.1734 150.299C72.7394 151.858 74.8174 153.148 78.2506 154.587C81.5633 155.997 83.7618 157.526 84.846 159.145C85.3579 159.895 85.9 160.705 86.0807 160.945C86.3216 161.275 87.1649 161.335 90.2969 161.215L94.212 161.065L92.405 159.835C91.4112 159.175 89.4537 158.036 88.0684 157.286C86.7131 156.566 84.7857 155.247 83.822 154.377C81.8645 152.638 81.2923 151.168 81.7139 148.949C82.1054 146.73 84.4243 143.671 84.4243 145.35Z" fill="#1D1D1D"/>
</svg>
