<svg width="362" height="155" viewBox="0 0 362 155" fill="none" xmlns="http://www.w3.org/2000/svg">
<path d="M27.5 120V120C27.5 131.874 37.1259 141.5 49 141.5H264.444M27.5 120V105.409C27.5 101.538 26.4788 97.736 24.5394 94.3862L8.46062 66.6138C6.52124 63.264 5.5 59.4617 5.5 55.591V46.7711C5.5 37.1022 11.8128 28.5667 21.0578 25.7354L82.3511 6.96435C84.4387 6.32501 86.6099 6 88.7933 6H144.08C145.688 6 147.292 6.17645 148.862 6.52618L251.91 29.4777C254.936 30.1516 257.785 31.4573 260.271 33.3093L347.643 98.4019C353.216 102.554 356.5 109.095 356.5 116.044V120.887C356.5 126.722 354.182 132.318 350.056 136.444L343.944 142.556C339.818 146.682 334.222 149 328.387 149H285.027C281.718 149 278.452 148.254 275.472 146.817L264.444 141.5M27.5 120H219.852M236 87H209.206C201.913 87 196 92.9126 196 100.206V100.206C196 105.277 198.903 109.9 203.471 112.102L219.852 120M219.852 120L240.593 130L264.444 141.5" stroke="#1D1D1D" stroke-width="11"/>
</svg>
