<svg width="175" height="175" viewBox="0 0 175 175" fill="none" xmlns="http://www.w3.org/2000/svg">
<path fill-rule="evenodd" clip-rule="evenodd" d="M83.2111 11.5C79.4448 11.5 76.1906 14.1582 75.4372 17.8566C72.7695 30.953 57.716 37.2534 46.5242 29.9128C43.3875 27.8555 39.2375 28.2822 36.585 30.9347L30.7414 36.7783C28.08 39.4397 27.6579 43.6474 29.754 46.8095C37.1345 57.9434 30.9702 73.1161 17.8122 75.7965C14.1389 76.5447 11.5 79.7754 11.5 83.5241V91.7888C11.5 95.5551 14.1582 98.8093 17.8566 99.5627C30.953 102.23 37.2534 117.284 29.9128 128.476C27.8555 131.612 28.2822 135.762 30.9347 138.415L36.7783 144.259C39.4397 146.92 43.6475 147.342 46.8096 145.246C57.9435 137.865 73.1163 144.03 75.7966 157.188C76.5449 160.861 79.7756 163.5 83.5243 163.5H91.789C95.5553 163.5 98.8094 160.842 99.5628 157.143C102.231 144.047 117.284 137.747 128.476 145.087C131.612 147.144 135.762 146.718 138.415 144.065L144.259 138.222C146.92 135.56 147.342 131.352 145.246 128.19C137.865 117.056 144.03 101.884 157.188 99.2034C160.861 98.4551 163.5 95.2245 163.5 91.4757V83.211C163.5 79.4448 160.842 76.1906 157.143 75.4372C144.047 72.7694 137.747 57.716 145.087 46.5242C147.144 43.3875 146.718 39.2375 144.065 36.585L138.222 30.7414C135.56 28.08 131.353 27.6579 128.19 29.754C117.057 37.1345 101.884 30.9702 99.2035 17.8122C98.4552 14.1389 95.2245 11.5 91.4758 11.5H83.2111ZM64.6586 15.661C66.454 6.84694 74.2079 0.5 83.2111 0.5H91.4758C100.453 0.5 108.19 6.81972 109.982 15.6166C111.091 21.0622 117.422 23.6949 122.113 20.5855C129.611 15.6149 139.617 16.5805 146 22.9632L151.844 28.8068C158.182 35.1451 159.201 45.0618 154.285 52.5571C151.221 57.2295 153.845 63.5394 159.339 64.6586C168.153 66.454 174.5 74.2078 174.5 83.211V91.4757C174.5 100.453 168.18 108.19 159.383 109.982C153.938 111.091 151.305 117.422 154.414 122.113C159.385 129.611 158.419 139.617 152.037 146L146.193 151.843C139.855 158.182 129.938 159.201 122.443 154.285C117.771 151.221 111.461 153.845 110.341 159.339C108.546 168.153 100.792 174.5 91.789 174.5H83.5243C74.5468 174.5 66.8099 168.18 65.018 159.383C63.9087 153.938 57.578 151.305 52.8873 154.414C45.3888 159.385 35.3828 158.419 29.0001 152.037L23.1565 146.193C16.8182 139.855 15.7987 129.938 20.7148 122.443C23.7794 117.77 21.1548 111.46 15.661 110.341C6.84692 108.546 0.5 100.792 0.5 91.7888V83.5241C0.5 74.5466 6.81971 66.8098 15.6166 65.0178C21.0622 63.9085 23.6949 57.5779 20.5855 52.8872C15.6149 45.3887 16.5805 35.3828 22.9632 29.0002L28.8068 23.1565C35.1451 16.8182 45.0618 15.7987 52.5571 20.7148C57.2295 23.7793 63.5395 21.1548 64.6586 15.661ZM88 56.5C71.1553 56.5 57.5 70.1553 57.5 87C57.5 103.845 71.1553 117.5 88 117.5C104.845 117.5 118.5 103.845 118.5 87C118.5 70.1553 104.845 56.5 88 56.5ZM46.5 87C46.5 64.0802 65.0802 45.5 88 45.5C110.92 45.5 129.5 64.0802 129.5 87C129.5 109.92 110.92 128.5 88 128.5C65.0802 128.5 46.5 109.92 46.5 87Z" fill="#1D1D1D"/>
</svg>
