<svg width="314" height="93" viewBox="0 0 314 93" fill="none" xmlns="http://www.w3.org/2000/svg">
<path fill-rule="evenodd" clip-rule="evenodd" d="M0.557129 28C0.557129 12.8122 12.8693 0.5 28.0571 0.5H285.647C300.835 0.5 313.147 12.8122 313.147 28V65C313.147 80.1878 300.835 92.5 285.647 92.5H28.0571C12.8693 92.5 0.557129 80.1878 0.557129 65V28ZM28.0571 11.5C18.9444 11.5 11.5571 18.8873 11.5571 28V65C11.5571 74.1127 18.9444 81.5 28.0571 81.5H114.292V11.5H28.0571ZM125.292 11.5V81.5H188.413V11.5H125.292ZM199.413 11.5V81.5H285.647C294.76 81.5 302.147 74.1127 302.147 65V28C302.147 18.8873 294.76 11.5 285.647 11.5H199.413Z" fill="#1D1D1D"/>
</svg>
