<svg width="187" height="197" viewBox="0 0 187 197" fill="none" xmlns="http://www.w3.org/2000/svg">
<path fill-rule="evenodd" clip-rule="evenodd" d="M157.119 11H28.5971C22.7069 11 17.862 15.6399 17.6074 21.5246L11.0107 174.025C10.7401 180.28 15.7387 185.5 22.0004 185.5H164.88C171.175 185.5 176.186 180.228 175.866 173.941L168.105 21.4409C167.807 15.5907 162.977 11 157.119 11ZM28.5971 0H157.119C168.835 0 178.495 9.18132 179.091 20.8819L186.852 173.382C187.492 185.955 177.47 196.5 164.88 196.5H22.0004C9.47707 196.5 -0.520233 186.061 0.0209838 173.549L6.61768 21.0493C7.12679 9.27977 16.8166 0 28.5971 0Z" fill="#1D1D1D"/>
<path d="M46.5282 119V134L137.528 85.5V69L46.5282 119Z" fill="#1D1D1D"/>
</svg>
