<svg width="173" height="176" viewBox="0 0 173 176" fill="none" xmlns="http://www.w3.org/2000/svg">
<path d="M92.7512 161.745C90.6898 161.914 88.605 162 86.5 162C84.395 162 82.3102 161.914 80.2488 161.745C80.2361 165.612 79.0373 169.345 76.933 172.477C80.0744 172.823 83.2665 173 86.5 173C89.7335 173 92.9256 172.823 96.067 172.477C93.9627 169.345 92.7639 165.612 92.7512 161.745Z" fill="#1D1D1D"/>
<path fill-rule="evenodd" clip-rule="evenodd" d="M112.079 165C109.595 165 108 162.359 109.157 160.16C109.464 159.577 109.727 158.992 109.948 158.407L109.958 158.381C109.968 158.355 109.977 158.33 109.986 158.305C109.99 158.294 109.994 158.283 109.999 158.272C111.198 155.002 111.1 151.737 110.08 148.853L110.071 148.825C110.058 148.789 110.045 148.753 110.031 148.717C108.672 144.994 105.775 141.923 102.162 140.323C101.894 140.205 101.622 140.094 101.347 139.992C98.2038 138.827 94.5917 138.76 91.0078 140.287L90.9742 140.301C90.9436 140.315 90.913 140.328 90.8824 140.341C90.5345 140.493 90.1869 140.66 89.84 140.843L87.6637 141.988C87.2767 141.996 86.8888 142 86.5 142C86.1112 142 85.7233 141.996 85.3363 141.988L83.16 140.843C82.8131 140.66 82.4655 140.493 82.1176 140.341L82.0889 140.329L82.0258 140.301L81.9922 140.287C78.4083 138.76 74.7962 138.827 71.6533 139.992C71.3778 140.094 71.1059 140.205 70.838 140.323C67.2247 141.923 64.3278 144.994 62.9686 148.717C62.9554 148.753 62.9424 148.789 62.9295 148.825L62.9196 148.853C61.9001 151.737 61.8017 155.002 63.0014 158.272C63.0148 158.308 63.0283 158.344 63.0419 158.381L63.052 158.407C63.2731 158.992 63.5359 159.577 63.8426 160.16C64.9999 162.359 63.4054 165 60.9205 165H57L57 167.839L57 176H60.9205C61.2849 176 61.6448 175.987 62 175.961C65.6967 175.694 68.8808 174.062 71.1997 171.651L71.2067 171.644L71.2093 171.641L71.2103 171.64C73.8619 168.877 75.3789 165.093 75.2324 161.165C75.2299 161.098 75.227 161.032 75.2235 160.966C75.1213 158.985 74.5949 156.971 73.5767 155.037C72.9667 153.878 73.1085 152.681 73.6834 151.766C77.8306 152.576 82.1158 153 86.5 153C90.8842 153 95.1694 152.576 99.3166 151.766C99.8915 152.681 100.033 153.878 99.4233 155.037C98.4051 156.971 97.8787 158.985 97.7765 160.966C97.773 161.032 97.7701 161.098 97.7676 161.165C97.6211 165.093 99.1381 168.877 101.79 171.64L101.791 171.641L101.793 171.644L101.8 171.651C104.119 174.062 107.303 175.694 111 175.961C111.355 175.987 111.715 176 112.079 176H116L116 167.839L116 165H112.079Z" fill="#1D1D1D"/>
<path d="M86.5 11C128.198 11 162 44.8025 162 86.5C162 117.849 142.894 144.735 115.691 156.15C115.5 157.424 115.172 158.712 114.695 160H121V165.846C151.604 152.521 173 122.009 173 86.5C173 38.7274 134.273 0 86.5 0C38.7274 0 0 38.7274 0 86.5C0 122.009 21.3965 152.521 52 165.846V160H58.3048C57.8276 158.712 57.4998 157.424 57.3088 156.15C30.106 144.735 11 117.849 11 86.5C11 44.8025 44.8025 11 86.5 11Z" fill="#1D1D1D"/>
<path d="M86.5 31C117.152 31 142 55.8482 142 86.5C142 109.629 127.852 129.453 107.739 137.791C110.835 140.039 113.278 143.167 114.656 146.763C137.308 136.161 153 113.163 153 86.5C153 49.7731 123.227 20 86.5 20C49.7731 20 20 49.7731 20 86.5C20 113.163 35.6917 136.161 58.344 146.763C59.7215 143.167 62.1655 140.039 65.2613 137.791C45.1478 129.453 31 109.629 31 86.5C31 55.8482 55.8482 31 86.5 31Z" fill="#1D1D1D"/>
</svg>
