<svg width="124" height="249" viewBox="0 0 124 249" fill="none" xmlns="http://www.w3.org/2000/svg">
<rect x="5.5" y="5.5" width="113" height="238" rx="16.5" stroke="#1D1D1D" stroke-width="11"/>
<path d="M61.0027 67.0707C59.9691 69.4923 59.2309 72.475 58.7879 76.0483L58.4926 78.4403L56.9865 76.8456C55.5099 75.2805 51.8776 72.6226 51.1983 72.6226C50.4305 72.6226 51.2869 78.145 52.5272 80.9505C53.4722 83.0472 55.0965 85.5869 56.4844 87.0044L57.3999 87.9789H54.9193C53.1474 87.9789 52.3205 88.0971 52.0843 88.3924C51.848 88.6582 51.7594 89.6622 51.8185 91.1388L51.9071 93.4422L55.2441 93.5308C57.0455 93.5604 58.5516 93.6785 58.5516 93.7671C58.5516 93.8557 58.1677 94.2396 57.7248 94.6235C56.2777 95.8343 55.2146 98.1968 55.2146 100.116C55.2146 102.124 56.3073 104.576 57.6952 105.639C58.7288 106.466 61.3276 107.47 62.3907 107.47C63.2176 107.47 64.7532 106.938 66.0821 106.229C68.6514 104.841 69.8622 101.681 69.1534 98.2854C68.8876 96.986 68.5332 96.4249 67.3815 95.2437C66.5842 94.4463 65.9345 93.7671 65.9345 93.708C65.9345 93.649 67.4701 93.5899 69.3306 93.5899H72.7562L72.579 88.1266L67.411 87.9494L68.8581 86.2366C71.4864 83.0472 73.022 79.6511 73.6126 75.7234C73.9965 72.9475 73.9965 72.6226 73.4354 72.6226C72.6972 72.6226 69.5078 74.9556 67.7064 76.8161L65.9935 78.5584L65.7868 76.1073C65.6687 74.7489 65.4029 72.7703 65.1667 71.6776C64.576 69.0789 62.9223 65.1217 62.3612 65.0035C62.0659 64.9445 61.6229 65.6237 61.0027 67.0707Z" fill="#1D1D1D"/>
<path d="M96.4404 95.7752C95.8203 96.2773 94.4618 97.3699 93.3987 98.1968C92.3356 99.0237 89.2938 101.416 86.6065 103.512C79.4008 109.212 65.8459 119.607 63.2767 121.438L62.125 122.265L56.4254 117.953C51.4937 114.232 49.2493 112.52 43.3135 107.913C38.9429 104.546 33.3614 100.146 30.4378 97.8129C28.5478 96.3068 26.7759 95.0665 26.5397 95.0665C26.0377 95.0665 24 97.4585 24 98.0492C24 98.2854 26.1558 100.264 28.8136 102.449C31.4419 104.635 35.4582 107.972 37.7321 109.891C46.562 117.245 53.177 122.737 55.0965 124.273C56.1892 125.159 57.0751 125.956 57.0751 126.074C57.0751 126.163 56.4845 126.813 55.7757 127.492C55.067 128.171 54.1811 129.382 53.8267 130.15C52.1434 133.812 51.7595 134.107 48.3043 134.255C46.8573 134.343 45.3807 134.52 44.9673 134.668C44.5538 134.845 41.9255 137.798 39.061 141.342C36.226 144.827 33.6568 147.957 33.391 148.282C32.7413 149.05 32.948 149.611 35.4877 153.361C37.8797 156.905 38.7362 158.529 39.2087 160.301L39.5335 161.63L40.1537 160.744C40.4785 160.272 41.9846 157.496 43.4907 154.572C48.0976 145.595 50.0467 141.903 50.342 141.519C50.4896 141.342 51.8481 140.692 53.3837 140.102C54.8898 139.511 56.6912 138.655 57.3704 138.153C58.6994 137.178 59.7329 135.229 59.7329 133.664C59.7329 132.099 59.9987 131.567 61.18 130.74L62.3022 129.943L63.3948 130.888C64.3694 131.744 64.4875 132.04 64.7237 133.959C64.9009 135.318 65.2258 136.41 65.6097 136.971C66.348 137.976 68.238 139.127 70.9549 140.131C72.018 140.545 73.1697 141.047 73.4946 141.283C73.8489 141.519 74.7644 142.937 75.5322 144.443C76.3 145.949 77.5699 148.371 78.3377 149.847C79.1055 151.294 80.7002 154.365 81.8815 156.639C83.0627 158.913 84.1554 160.951 84.303 161.128C84.7755 161.689 85.0413 161.335 85.2481 159.947C85.4548 158.677 86.5179 156.669 88.9099 153.214C90.0912 151.53 91.3315 149.345 91.3315 148.991C91.3315 148.902 90.6818 148.075 89.914 147.13C89.1462 146.185 86.7837 143.291 84.6869 140.692C82.5902 138.094 80.6707 135.761 80.4049 135.495C79.6076 134.639 78.6921 134.343 76.7725 134.343C75.7094 134.343 74.4396 134.255 73.9375 134.166C72.6382 133.9 71.3683 132.542 70.7481 130.711C70.3642 129.618 69.7441 128.703 68.6219 127.61C67.736 126.754 67.0863 126.015 67.1453 125.986C67.3225 125.868 76.0638 118.573 76.4477 118.249C76.6249 118.071 77.2155 117.599 77.7766 117.156C78.3377 116.743 81.4976 114.085 84.8346 111.309C88.1717 108.533 91.4792 105.757 92.2175 105.166C95.4954 102.508 100.486 98.2263 100.486 98.1082C100.486 97.8424 98.2714 95.096 97.917 94.9484C97.7398 94.8893 97.0901 95.2437 96.4404 95.7752Z" fill="#1D1D1D"/>
<path d="M62.6861 156.226C62.6861 158.116 59.9988 160.981 55.6282 163.727C54.5946 164.377 53.2952 165.351 52.7045 165.912C51.3756 167.212 50.283 169.722 50.283 171.494C50.283 172.882 50.283 172.882 48.6883 173.709C46.8869 174.654 42.9592 177.902 42.1619 179.113C41.2464 180.501 41.6008 182.775 42.7525 182.775C42.9592 182.775 43.668 182.066 44.3472 181.18C45.0264 180.294 46.3258 178.877 47.2412 178.02L48.895 176.455L49.4856 177.341C51.5824 180.265 55.7167 182.982 59.2605 183.808C61.8888 184.399 65.1077 184.635 65.6393 184.251C66.0232 183.986 65.9051 183.779 64.901 182.982C64.2513 182.48 62.9519 181.328 61.9479 180.442C59.8511 178.581 58.286 177.754 55.3033 176.898C51.5233 175.805 50.8736 175.599 50.8736 175.392C50.8736 174.801 54.1221 173.856 56.6618 173.709C59.2605 173.561 59.3786 173.561 59.5854 174.181C59.9397 175.274 62.568 178.197 64.0741 179.172C68.1199 181.771 73.406 182.539 75.8867 180.944C77.1565 180.117 77.7471 179.349 77.7471 178.522C77.7471 178.138 77.5995 178.109 76.5068 178.522C74.9712 179.054 74.0262 178.877 72.8745 177.784C71.2207 176.278 69.6556 175.422 67.7065 175.097C65.9346 174.772 63.956 174.034 64.2218 173.768C64.399 173.591 71.3684 174.181 73.2879 174.506C76.0048 175.008 78.7217 174.86 80.6117 174.181C82.2654 173.561 84.4508 172.084 85.5139 170.844C86.9609 169.131 87.2858 166.592 86.3112 164.347C85.6616 162.841 85.2186 162.634 84.9528 163.727C84.5689 165.292 80.8775 167.743 77.5995 168.6C75.4142 169.19 73.5242 170.194 72.4906 171.405C71.5456 172.439 71.516 172.468 69.5374 172.38L67.5588 172.291L69.4193 171.287C72.0476 169.87 75.0007 167.271 76.182 165.292C77.0089 163.963 77.2451 163.196 77.3632 161.689C77.4518 160.567 77.4223 159.74 77.2451 159.74C77.0975 159.74 76.3887 160.361 75.68 161.099C74.1443 162.634 72.1067 163.904 68.7401 165.322C65.4916 166.71 63.3358 168.216 62.2727 169.811C61.7707 170.549 61.2391 171.346 61.0619 171.582C60.8257 171.907 59.9988 171.966 56.9275 171.848L53.0885 171.701L54.8603 170.49C55.8349 169.84 57.7544 168.718 59.1129 167.98C60.4418 167.271 62.3318 165.971 63.2768 165.115C65.1963 163.402 65.7574 161.955 65.344 159.77C64.9601 157.585 62.6861 154.572 62.6861 156.226Z" fill="#1D1D1D"/>
</svg>
