<svg width="307" height="124" viewBox="0 0 307 124" fill="none" xmlns="http://www.w3.org/2000/svg">
<path fill-rule="evenodd" clip-rule="evenodd" d="M284.989 11.0059H22.3396C16.2612 11.0059 11.3337 15.9334 11.3337 22.0118V101.988C11.3337 108.067 16.2612 112.994 22.3396 112.994H284.989C291.067 112.994 295.995 108.067 295.995 101.988V22.0118C295.995 15.9334 291.067 11.0059 284.989 11.0059ZM22.3396 0C10.1828 0 0.327774 9.85503 0.327774 22.0118V101.988C0.327774 114.145 10.1828 124 22.3396 124H284.989C297.146 124 307.001 114.145 307.001 101.988V22.0118C307.001 9.85503 297.146 0 284.989 0H22.3396Z" fill="#1D1D1D"/>
<path fill-rule="evenodd" clip-rule="evenodd" d="M265.789 43.3583C265.056 43.3583 264.268 43.6054 263.51 43.9573C262.744 44.3129 261.966 44.7963 261.239 45.3158C259.79 46.3518 258.493 47.571 257.853 48.3147C257.521 48.7006 257.187 49.1965 256.854 49.716C256.716 49.9313 256.58 50.1472 256.444 50.3649C256.442 50.3686 256.439 50.3723 256.437 50.376C256.436 50.3778 256.435 50.3796 256.434 50.3814L256.431 50.3849L256.431 50.3863C256.23 50.706 256.027 51.0297 255.81 51.3612C255.073 52.4904 254.324 53.4727 253.535 53.9626C252.716 54.4711 251.33 55.5751 250.627 56.7486C250.277 57.3314 250.022 58.057 250.266 58.7704C250.517 59.5025 251.211 59.9936 252.22 60.289C253.085 60.542 254.267 60.6797 255.832 60.6797C257.573 60.6797 259.933 60.2493 261.981 59.3275C264.01 58.4141 265.878 56.9477 266.36 54.7909C266.76 53.006 267.538 51.6829 268.256 50.5555C268.326 50.4463 268.395 50.3375 268.465 50.2296L268.467 50.2259C268.749 49.7882 269.023 49.3624 269.237 48.9599C269.932 47.6594 270.125 45.8394 269.527 44.1619C268.853 43.5846 266.941 43.3583 265.789 43.3583ZM261.92 46.2678C260.538 47.2562 259.312 48.4136 258.741 49.078C258.467 49.3961 258.17 49.8311 257.839 50.3472C257.711 50.5471 257.576 50.7633 257.435 50.9867L257.435 50.9881C257.434 50.9892 257.433 50.9903 257.433 50.9914C257.225 51.3223 257.007 51.6688 256.79 52.0013C256.06 53.1185 255.188 54.3138 254.152 54.9569C253.404 55.4212 252.196 56.4058 251.63 57.3502C251.345 57.8265 251.297 58.1672 251.373 58.3917C251.433 58.5672 251.625 58.8243 252.209 59.0511C253.893 57.2502 255.374 56.6982 256.887 56.1341L256.889 56.1332C257.213 56.0122 257.54 55.8905 257.87 55.7558C258.69 55.421 259.077 54.9032 259.472 54.13C259.565 53.9496 259.659 53.7512 259.759 53.5384L259.76 53.5371C260.089 52.8415 260.492 51.9913 261.149 51.1074C262.026 49.9293 263.432 48.739 264.872 47.8053C265.411 47.4554 266.064 47.151 266.673 46.8674C268.022 46.2391 269.152 45.7127 268.342 45.0187C267.92 44.6571 266.719 44.5285 265.789 44.5285C265.299 44.5285 264.69 44.6995 264.003 45.0187C263.324 45.3343 262.609 45.7751 261.92 46.2678Z" fill="#1D1D1D"/>
<path fill-rule="evenodd" clip-rule="evenodd" d="M265.789 80.8893C265.056 80.8893 264.268 80.6422 263.51 80.2902C262.744 79.9346 261.966 79.4512 261.239 78.9317C259.79 77.8957 258.493 76.6766 257.853 75.9329C257.521 75.5469 257.187 75.051 256.854 74.5316C256.712 74.3106 256.573 74.0891 256.433 73.8656L256.431 73.8627C256.231 73.5424 256.027 73.2183 255.81 72.8863C255.073 71.7572 254.324 70.7748 253.535 70.2849C252.716 69.7764 251.33 68.6725 250.627 67.4989C250.277 66.9162 250.022 66.1905 250.266 65.4771C250.517 64.7451 251.211 64.2539 252.22 63.9585C253.085 63.7055 254.267 63.5678 255.832 63.5678C257.573 63.5678 259.933 63.9983 261.981 64.9201C264.01 65.8335 265.878 67.2998 266.36 69.4567C266.76 71.2415 267.538 72.5646 268.256 73.692C268.326 73.8013 268.395 73.91 268.465 74.018C268.747 74.457 269.022 74.8841 269.237 75.2877C269.932 76.5881 270.125 78.4081 269.527 80.0857C268.853 80.6629 266.941 80.8893 265.789 80.8893ZM261.92 77.9797C260.538 76.9913 259.312 75.8339 258.741 75.1696C258.467 74.8514 258.17 74.4165 257.839 73.9003C257.711 73.7005 257.576 73.4842 257.435 73.2608L257.435 73.2594L257.433 73.257C257.225 72.9258 257.008 72.579 256.79 72.2463C256.06 71.129 255.188 69.9337 254.152 69.2906C253.404 68.8263 252.196 67.8417 251.63 66.8973C251.345 66.421 251.297 66.0804 251.373 65.8559C251.433 65.6804 251.625 65.4232 252.209 65.1964C253.893 66.9973 255.374 67.5494 256.887 68.1135C257.212 68.2348 257.539 68.3568 257.87 68.4917C258.69 68.8266 259.077 69.3444 259.472 70.1175C259.565 70.298 259.659 70.4964 259.759 70.7094L259.76 70.7105C260.089 71.4061 260.492 72.2562 261.149 73.1401C262.026 74.3183 263.432 75.5085 264.872 76.4423C265.411 76.7921 266.064 77.0965 266.673 77.3801C268.022 78.0084 269.152 78.5349 268.342 79.2288C267.92 79.5904 266.719 79.719 265.789 79.719C265.299 79.719 264.69 79.548 264.003 79.2288C263.324 78.9133 262.609 78.4725 261.92 77.9797Z" fill="#1D1D1D"/>
<path d="M254.343 74.024C254.343 73.0162 253.526 72.1992 252.518 72.1992C252.197 72.1992 251.896 72.2819 251.634 72.427C249.393 69.5573 248.284 67.7983 246.533 64.429H244.867C246.968 68.1566 248.251 70.1266 250.849 73.2849C250.749 73.5109 250.693 73.7609 250.693 74.024C250.693 75.0317 251.51 75.8487 252.518 75.8487C253.526 75.8487 254.343 75.0317 254.343 74.024Z" fill="#1D1D1D"/>
<path d="M254.343 50.2236C254.343 51.2314 253.526 52.0483 252.518 52.0483C252.197 52.0483 251.896 51.9657 251.634 51.8205C249.393 54.6903 248.284 56.4492 246.533 59.8185H244.867C246.968 56.0909 248.251 54.121 250.849 50.9626C250.749 50.7367 250.693 50.4866 250.693 50.2236C250.693 49.2158 251.51 48.3988 252.518 48.3988C253.526 48.3988 254.343 49.2158 254.343 50.2236Z" fill="#1D1D1D"/>
<path fill-rule="evenodd" clip-rule="evenodd" d="M245.547 43.3583C244.814 43.3583 244.026 43.6054 243.268 43.9573C242.502 44.3129 241.724 44.7963 240.997 45.3158C239.548 46.3518 238.251 47.571 237.611 48.3147C237.279 48.7006 236.944 49.1965 236.612 49.716C236.47 49.9367 236.331 50.1588 236.191 50.382C236.19 50.383 236.19 50.3839 236.189 50.3849C236.188 50.387 236.187 50.3892 236.185 50.3913C235.986 50.7095 235.784 51.0315 235.568 51.3612C234.831 52.4904 234.082 53.4727 233.293 53.9626C232.473 54.4711 231.088 55.5751 230.384 56.7486C230.035 57.3314 229.78 58.057 230.024 58.7704C230.274 59.5025 230.969 59.9936 231.978 60.289C232.843 60.542 234.024 60.6797 235.59 60.6797C237.331 60.6797 239.691 60.2493 241.739 59.3275C243.767 58.4141 245.636 56.9477 246.118 54.7909C246.518 53.006 247.295 51.6829 248.014 50.5555C248.083 50.4474 248.152 50.3398 248.221 50.2329L248.223 50.2296C248.505 49.7906 248.78 49.3635 248.995 48.9599C249.69 47.6594 249.882 45.8394 249.285 44.1619C248.611 43.5846 246.699 43.3583 245.547 43.3583ZM241.678 46.2678C240.295 47.2562 239.07 48.4136 238.498 49.078C238.225 49.3961 237.928 49.8311 237.597 50.3472C237.469 50.5471 237.333 50.7633 237.193 50.9867L237.192 50.9881L237.191 50.9896C236.983 51.321 236.766 51.6683 236.548 52.0013C235.818 53.1185 234.946 54.3138 233.91 54.9569C233.162 55.4212 231.954 56.4058 231.388 57.3502C231.103 57.8265 231.054 58.1672 231.131 58.3917C231.191 58.5672 231.382 58.8243 231.966 59.0511C233.651 57.2502 235.131 56.6982 236.644 56.1341L236.645 56.1337C236.97 56.0125 237.297 55.8907 237.627 55.7558C238.448 55.421 238.835 54.9032 239.23 54.13C239.322 53.95 239.416 53.7521 239.516 53.5398L239.518 53.5371C239.847 52.8415 240.249 51.9913 240.907 51.1074C241.784 49.9293 243.19 48.739 244.629 47.8053C245.169 47.4554 245.822 47.1511 246.431 46.8674C247.779 46.2392 248.91 45.7127 248.1 45.0187C247.678 44.6571 246.477 44.5285 245.547 44.5285C245.057 44.5285 244.448 44.6995 243.761 45.0187C243.081 45.3343 242.367 45.7751 241.678 46.2678Z" fill="#1D1D1D"/>
<path fill-rule="evenodd" clip-rule="evenodd" d="M245.547 80.8893C244.814 80.8893 244.026 80.6422 243.268 80.2902C242.502 79.9346 241.724 79.4512 240.997 78.9317C239.548 77.8957 238.251 76.6766 237.611 75.9329C237.279 75.5469 236.944 75.051 236.612 74.5316C236.537 74.4157 236.464 74.2994 236.39 74.1828C236.324 74.0779 236.258 73.9727 236.192 73.8673C236.192 73.8663 236.191 73.8654 236.19 73.8644L236.189 73.8627C236.188 73.8608 236.187 73.8589 236.186 73.857L236.185 73.856C235.986 73.5379 235.784 73.216 235.568 72.8863C234.831 71.7572 234.082 70.7748 233.293 70.2849C232.473 69.7764 231.088 68.6725 230.384 67.4989C230.035 66.9162 229.78 66.1905 230.024 65.4771C230.274 64.7451 230.969 64.2539 231.978 63.9585C232.843 63.7055 234.024 63.5678 235.59 63.5678C237.331 63.5678 239.691 63.9983 241.739 64.9201C243.767 65.8335 245.636 67.2998 246.118 69.4567C246.518 71.2415 247.295 72.5646 248.014 73.692C248.041 73.7343 248.068 73.7765 248.095 73.8187C248.115 73.8504 248.135 73.8822 248.156 73.9138C248.178 73.9486 248.2 73.9833 248.223 74.018C248.505 74.457 248.78 74.8841 248.995 75.2877C249.69 76.5881 249.882 78.4081 249.285 80.0857C248.611 80.6629 246.699 80.8893 245.547 80.8893ZM241.678 77.9797C240.295 76.9913 239.07 75.8339 238.498 75.1696C238.225 74.8514 237.928 74.4165 237.597 73.9003C237.554 73.8333 237.51 73.7644 237.466 73.694C237.423 73.6261 237.379 73.5568 237.335 73.4864C237.288 73.4123 237.241 73.3369 237.193 73.2608L237.192 73.2594C236.984 72.9275 236.766 72.5798 236.548 72.2463C235.818 71.129 234.946 69.9337 233.91 69.2906C233.162 68.8263 231.954 67.8417 231.388 66.8973C231.103 66.421 231.054 66.0804 231.131 65.8559C231.191 65.6804 231.382 65.4232 231.966 65.1964C233.651 66.9973 235.131 67.5494 236.644 68.1135C236.97 68.2348 237.297 68.3568 237.627 68.4917C238.448 68.8266 238.835 69.3444 239.23 70.1175C239.323 70.2982 239.417 70.4972 239.518 70.7105C239.847 71.4061 240.249 72.2562 240.907 73.1401C241.784 74.3183 243.19 75.5085 244.629 76.4423C245.169 76.7921 245.822 77.0965 246.431 77.3801C247.779 78.0084 248.91 78.5349 248.1 79.2288C247.678 79.5904 246.477 79.719 245.547 79.719C245.057 79.719 244.448 79.548 243.761 79.2288C243.081 78.9133 242.367 78.4725 241.678 77.9797Z" fill="#1D1D1D"/>
<path fill-rule="evenodd" clip-rule="evenodd" d="M184.821 80.8893C184.087 80.8893 183.299 80.6422 182.541 80.2902C181.775 79.9346 180.997 79.4512 180.27 78.9317C178.821 77.8957 177.524 76.6766 176.885 75.9329C176.552 75.5469 176.218 75.051 175.885 74.5316C175.743 74.3102 175.604 74.0883 175.464 73.8644L175.463 73.8627C175.461 73.8608 175.46 73.8589 175.459 73.857L175.458 73.856C175.259 73.5379 175.057 73.216 174.842 72.8863C174.104 71.7572 173.355 70.7748 172.566 70.2849C171.747 69.7764 170.361 68.6725 169.658 67.4989C169.308 66.9162 169.053 66.1905 169.297 65.4771C169.548 64.7451 170.242 64.2539 171.252 63.9585C172.116 63.7055 173.298 63.5678 174.863 63.5678C176.604 63.5678 178.965 63.9983 181.012 64.9201C183.041 65.8335 184.909 67.2998 185.392 69.4567C185.791 71.2415 186.569 72.5646 187.287 73.692C187.357 73.8013 187.427 73.91 187.496 74.018C187.778 74.457 188.053 74.8841 188.269 75.2877C188.963 76.5881 189.156 78.4081 188.558 80.0857C187.884 80.6629 185.972 80.8893 184.821 80.8893ZM180.951 77.9797C179.569 76.9913 178.343 75.8339 177.772 75.1696C177.498 74.8514 177.201 74.4165 176.87 73.9003C176.743 73.701 176.607 73.4855 176.468 73.2627L176.467 73.2608C176.258 72.9285 176.039 72.5803 175.821 72.2463C175.091 71.129 174.219 69.9337 173.183 69.2906C172.435 68.8263 171.228 67.8417 170.662 66.8973C170.376 66.421 170.328 66.0804 170.404 65.8559C170.465 65.6804 170.656 65.4232 171.24 65.1964C172.924 66.9973 174.405 67.5494 175.918 68.1135C176.243 68.2348 176.57 68.3567 176.901 68.4917C177.721 68.8266 178.108 69.3444 178.503 70.1175C178.596 70.2975 178.689 70.4957 178.79 70.708L178.791 70.7105C179.12 71.4061 179.523 72.2562 180.18 73.1401C181.057 74.3183 182.463 75.5085 183.903 76.4423C184.442 76.7921 185.095 77.0965 185.704 77.3801C187.053 78.0084 188.183 78.5349 187.373 79.2288C186.951 79.5904 185.75 79.719 184.821 79.719C184.33 79.719 183.721 79.548 183.034 79.2288C182.355 78.9133 181.64 78.4725 180.951 77.9797Z" fill="#1D1D1D"/>
<path fill-rule="evenodd" clip-rule="evenodd" d="M184.821 43.3583C184.087 43.3583 183.299 43.6054 182.541 43.9573C181.775 44.3129 180.997 44.7963 180.27 45.3158C178.821 46.3518 177.524 47.571 176.885 48.3147C176.552 48.7006 176.218 49.1965 175.885 49.716C175.746 49.9336 175.609 50.1519 175.471 50.3719C175.469 50.3739 175.468 50.3758 175.467 50.3777L175.464 50.3826L175.463 50.3849C175.461 50.387 175.46 50.3892 175.458 50.3913C175.259 50.7095 175.057 51.0315 174.842 51.3612C174.104 52.4904 173.355 53.4727 172.566 53.9626C171.747 54.4711 170.361 55.5751 169.658 56.7486C169.308 57.3314 169.053 58.057 169.297 58.7704C169.548 59.5025 170.242 59.9936 171.252 60.289C172.116 60.542 173.298 60.6797 174.863 60.6797C176.604 60.6797 178.965 60.2493 181.012 59.3275C183.041 58.4141 184.909 56.9477 185.392 54.7909C185.791 53.006 186.569 51.6829 187.287 50.5555C187.323 50.4989 187.359 50.4425 187.395 50.3862C187.429 50.3339 187.463 50.2816 187.496 50.2296C187.778 49.7906 188.053 49.3635 188.269 48.9599C188.963 47.6594 189.156 45.8394 188.558 44.1619C187.884 43.5846 185.972 43.3583 184.821 43.3583ZM180.951 46.2678C179.569 47.2562 178.343 48.4136 177.772 49.078C177.498 49.3961 177.201 49.8311 176.87 50.3472C176.742 50.5471 176.607 50.7633 176.467 50.9867C176.258 51.319 176.039 51.6672 175.821 52.0013C175.091 53.1185 174.219 54.3138 173.183 54.9569C172.435 55.4212 171.228 56.4058 170.662 57.3502C170.376 57.8265 170.328 58.1672 170.404 58.3917C170.465 58.5672 170.656 58.8243 171.24 59.0511C172.924 57.2502 174.405 56.6982 175.918 56.1341C176.243 56.0127 176.57 55.8908 176.901 55.7558C177.721 55.421 178.108 54.9032 178.503 54.13C178.595 53.9504 178.689 53.753 178.789 53.5412C178.79 53.5398 178.79 53.5384 178.791 53.5371C179.12 52.8415 179.523 51.9913 180.18 51.1074C181.057 49.9293 182.463 48.739 183.903 47.8053C184.442 47.4554 185.095 47.1511 185.704 46.8674C187.053 46.2392 188.183 45.7127 187.373 45.0187C186.951 44.6571 185.75 44.5285 184.821 44.5285C184.33 44.5285 183.721 44.6995 183.034 45.0187C182.355 45.3343 181.64 45.7751 180.951 46.2678Z" fill="#1D1D1D"/>
<path d="M193.616 50.2236C193.616 51.2314 192.799 52.0483 191.791 52.0483C191.471 52.0483 191.169 51.9657 190.908 51.8205C188.666 54.6903 187.557 56.4492 185.806 59.8185H184.14C186.241 56.0909 187.524 54.121 190.122 50.9626C190.022 50.7367 189.967 50.4866 189.967 50.2236C189.967 49.2158 190.783 48.3988 191.791 48.3988C192.799 48.3988 193.616 49.2158 193.616 50.2236Z" fill="#1D1D1D"/>
<path d="M193.616 74.024C193.616 73.0162 192.799 72.1992 191.791 72.1992C191.471 72.1992 191.169 72.2819 190.908 72.427C188.666 69.5573 187.557 67.7983 185.806 64.429H184.14C186.241 68.1566 187.524 70.1266 190.122 73.2849C190.022 73.5109 189.967 73.7609 189.967 74.024C189.967 75.0317 190.783 75.8487 191.791 75.8487C192.799 75.8487 193.616 75.0317 193.616 74.024Z" fill="#1D1D1D"/>
<path fill-rule="evenodd" clip-rule="evenodd" d="M205.063 80.8893C204.329 80.8893 203.541 80.6422 202.783 80.2902C202.018 79.9346 201.239 79.4512 200.513 78.9317C199.064 77.8957 197.767 76.6766 197.127 75.9329C196.795 75.5469 196.46 75.051 196.127 74.5316C195.986 74.3106 195.847 74.0891 195.707 73.8656L195.705 73.8627L195.703 73.8602C195.503 73.5408 195.3 73.2174 195.084 72.8863C194.346 71.7572 193.597 70.7748 192.808 70.2849C191.989 69.7764 190.603 68.6725 189.9 67.4989C189.551 66.9162 189.295 66.1905 189.539 65.4771C189.79 64.7451 190.484 64.2539 191.494 63.9585C192.359 63.7055 193.54 63.5678 195.105 63.5678C196.846 63.5678 199.207 63.9983 201.254 64.9201C203.283 65.8335 205.151 67.2998 205.634 69.4567C206.033 71.2415 206.811 72.5646 207.529 73.692C207.598 73.8004 207.668 73.9083 207.737 74.0155L207.738 74.018C208.021 74.457 208.295 74.8841 208.511 75.2877C209.205 76.5881 209.398 78.4081 208.8 80.0857C208.127 80.6629 206.215 80.8893 205.063 80.8893ZM201.193 77.9797C199.811 76.9913 198.586 75.8339 198.014 75.1696C197.74 74.8514 197.443 74.4165 197.113 73.9003C196.985 73.7005 196.849 73.4842 196.709 73.2608L196.707 73.2588C196.499 72.9271 196.281 72.5796 196.064 72.2463C195.334 71.129 194.461 69.9337 193.425 69.2906C192.677 68.8263 191.47 67.8417 190.904 66.8973C190.618 66.421 190.57 66.0804 190.647 65.8559C190.707 65.6804 190.898 65.4232 191.482 65.1964C193.167 66.9973 194.647 67.5494 196.16 68.1135C196.485 68.2348 196.812 68.3567 197.143 68.4917C197.963 68.8266 198.35 69.3444 198.746 70.1175C198.838 70.2982 198.932 70.4972 199.033 70.7105C199.363 71.4061 199.765 72.2562 200.423 73.1401C201.299 74.3183 202.705 75.5085 204.145 76.4423C204.684 76.7921 205.338 77.0965 205.946 77.3801C207.295 78.0084 208.425 78.5349 207.615 79.2288C207.193 79.5904 205.992 79.719 205.063 79.719C204.572 79.719 203.963 79.548 203.276 79.2288C202.597 78.9133 201.882 78.4725 201.193 77.9797Z" fill="#1D1D1D"/>
<path fill-rule="evenodd" clip-rule="evenodd" d="M205.063 43.3583C204.329 43.3583 203.541 43.6054 202.783 43.9573C202.018 44.3129 201.239 44.7963 200.513 45.3158C199.064 46.3518 197.767 47.571 197.127 48.3147C196.795 48.7006 196.46 49.1965 196.127 49.716C195.986 49.9371 195.846 50.1589 195.706 50.3826L195.705 50.3849L195.703 50.3874L195.701 50.3916C195.501 50.7096 195.299 51.0316 195.084 51.3612C194.346 52.4904 193.597 53.4727 192.808 53.9626C191.989 54.4711 190.603 55.5751 189.9 56.7486C189.551 57.3314 189.295 58.057 189.539 58.7704C189.79 59.5025 190.484 59.9936 191.494 60.289C192.359 60.542 193.54 60.6797 195.105 60.6797C196.846 60.6797 199.207 60.2493 201.254 59.3275C203.283 58.4141 205.151 56.9477 205.634 54.7909C206.033 53.006 206.811 51.6829 207.529 50.5555C207.599 50.4463 207.669 50.3375 207.738 50.2296C208.021 49.7906 208.295 49.3635 208.511 48.9599C209.205 47.6594 209.398 45.8394 208.8 44.1619C208.127 43.5846 206.215 43.3583 205.063 43.3583ZM201.193 46.2678C199.811 47.2562 198.586 48.4136 198.014 49.078C197.74 49.3961 197.443 49.8311 197.113 50.3472C196.985 50.5471 196.849 50.7633 196.709 50.9867C196.708 50.9876 196.708 50.9884 196.707 50.9893C196.499 51.3208 196.281 51.6681 196.064 52.0013C195.334 53.1185 194.461 54.3138 193.425 54.9569C192.677 55.4212 191.47 56.4058 190.904 57.3502C190.618 57.8265 190.57 58.1672 190.647 58.3917C190.707 58.5672 190.898 58.8243 191.482 59.0511C193.167 57.2502 194.647 56.6982 196.16 56.1341C196.485 56.0127 196.812 55.8908 197.143 55.7558C197.963 55.421 198.35 54.9032 198.746 54.13C198.838 53.9504 198.931 53.753 199.031 53.5412C199.032 53.5398 199.033 53.5384 199.033 53.5371C199.363 52.8415 199.765 51.9913 200.423 51.1074C201.299 49.9293 202.705 48.739 204.145 47.8053C204.684 47.4554 205.338 47.1511 205.946 46.8674C207.295 46.2392 208.425 45.7127 207.615 45.0187C207.193 44.6571 205.992 44.5285 205.063 44.5285C204.572 44.5285 203.963 44.6995 203.276 45.0187C202.597 45.3343 201.882 45.7751 201.193 46.2678Z" fill="#1D1D1D"/>
<path fill-rule="evenodd" clip-rule="evenodd" d="M225.305 43.3583C224.571 43.3583 223.783 43.6054 223.026 43.9573C222.26 44.3129 221.481 44.7963 220.755 45.3158C219.306 46.3518 218.009 47.571 217.369 48.3147C217.037 48.7006 216.702 49.1965 216.369 49.716C216.229 49.935 216.091 50.1547 215.952 50.3762C215.952 50.3772 215.951 50.3783 215.95 50.3793L215.949 50.3814L215.947 50.3849C215.746 50.7051 215.543 51.0293 215.326 51.3612C214.588 52.4904 213.84 53.4727 213.05 53.9626C212.231 54.4711 210.846 55.5751 210.142 56.7486C209.793 57.3314 209.538 58.057 209.782 58.7704C210.032 59.5025 210.726 59.9936 211.736 60.289C212.601 60.542 213.782 60.6797 215.347 60.6797C217.088 60.6797 219.449 60.2493 221.497 59.3275C223.525 58.4141 225.394 56.9477 225.876 54.7909C226.275 53.006 227.053 51.6829 227.771 50.5555C227.841 50.4463 227.911 50.3375 227.98 50.2296C228.263 49.7906 228.538 49.3635 228.753 48.9599C229.447 47.6594 229.64 45.8394 229.043 44.1619C228.369 43.5846 226.457 43.3583 225.305 43.3583ZM221.436 46.2678C220.053 47.2562 218.828 48.4136 218.256 49.078C217.982 49.3961 217.686 49.8311 217.355 50.3472C217.228 50.5459 217.093 50.7607 216.954 50.9826L216.953 50.9842L216.951 50.9867L216.95 50.9881C216.949 50.9898 216.948 50.9915 216.947 50.9931C216.946 50.9952 216.944 50.9973 216.943 50.9993C216.737 51.3278 216.521 51.6715 216.306 52.0013C215.576 53.1185 214.704 54.3138 213.668 54.9569C212.92 55.4212 211.712 56.4058 211.146 57.3502C210.861 57.8265 210.812 58.1672 210.889 58.3917C210.949 58.5672 211.14 58.8243 211.724 59.0511C213.409 57.2502 214.889 56.6982 216.402 56.1341C216.727 56.0127 217.054 55.8908 217.385 55.7558C218.206 55.421 218.592 54.9032 218.988 54.13C219.08 53.9492 219.174 53.7504 219.275 53.5371C219.605 52.8415 220.007 51.9913 220.665 51.1074C221.541 49.9293 222.947 48.739 224.387 47.8053C224.927 47.4554 225.58 47.1511 226.189 46.8674C227.537 46.2392 228.667 45.7127 227.857 45.0187C227.435 44.6571 226.234 44.5285 225.305 44.5285C224.815 44.5285 224.206 44.6995 223.518 45.0187C222.839 45.3343 222.125 45.7751 221.436 46.2678Z" fill="#1D1D1D"/>
<path fill-rule="evenodd" clip-rule="evenodd" d="M225.305 80.8893C224.571 80.8893 223.783 80.6422 223.026 80.2902C222.26 79.9346 221.481 79.4512 220.755 78.9317C219.306 77.8957 218.009 76.6766 217.369 75.9329C217.037 75.5469 216.702 75.051 216.369 74.5316C216.231 74.3152 216.095 74.0982 215.958 73.8794C215.956 73.8767 215.954 73.8739 215.952 73.8711C215.951 73.8693 215.95 73.8674 215.949 73.8656L215.947 73.8627C215.746 73.5424 215.543 73.2183 215.326 72.8863C214.588 71.7572 213.84 70.7748 213.05 70.2849C212.231 69.7764 210.846 68.6725 210.142 67.4989C209.793 66.9162 209.538 66.1905 209.782 65.4771C210.032 64.7451 210.726 64.2539 211.736 63.9585C212.601 63.7055 213.782 63.5678 215.347 63.5678C217.088 63.5678 219.449 63.9983 221.497 64.9201C223.525 65.8335 225.394 67.2998 225.876 69.4567C226.275 71.2415 227.053 72.5646 227.771 73.692C227.841 73.8013 227.911 73.91 227.98 74.018C228.263 74.457 228.538 74.8841 228.753 75.2877C229.447 76.5881 229.64 78.4081 229.043 80.0857C228.369 80.6629 226.457 80.8893 225.305 80.8893ZM221.436 77.9797C220.053 76.9913 218.828 75.8339 218.256 75.1696C217.982 74.8514 217.686 74.4165 217.355 73.9003C217.227 73.701 217.092 73.4855 216.952 73.2627L216.951 73.2608L216.95 73.2594C216.949 73.258 216.948 73.2566 216.947 73.2552C216.947 73.2542 216.946 73.2532 216.946 73.2522C216.739 72.9225 216.522 72.5774 216.306 72.2463C215.576 71.129 214.704 69.9337 213.668 69.2906C212.92 68.8263 211.712 67.8417 211.146 66.8973C210.861 66.421 210.812 66.0804 210.889 65.8559C210.949 65.6804 211.14 65.4232 211.724 65.1964C213.409 66.9973 214.889 67.5494 216.402 68.1135C216.727 68.2348 217.054 68.3568 217.385 68.4917C218.206 68.8266 218.592 69.3444 218.988 70.1175C219.08 70.2982 219.175 70.4972 219.275 70.7105C219.605 71.4061 220.007 72.2562 220.665 73.1401C221.541 74.3183 222.947 75.5085 224.387 76.4423C224.927 76.7921 225.58 77.0965 226.189 77.3801C227.537 78.0084 228.667 78.5349 227.857 79.2288C227.435 79.5904 226.234 79.719 225.305 79.719C224.815 79.719 224.206 79.548 223.518 79.2288C222.839 78.9133 222.125 78.4725 221.436 77.9797Z" fill="#1D1D1D"/>
<path d="M213.858 74.024C213.858 73.0162 213.041 72.1992 212.033 72.1992C211.713 72.1992 211.412 72.2819 211.15 72.427C208.909 69.5573 207.799 67.7983 206.048 64.429H204.383C206.484 68.1566 207.766 70.1266 210.365 73.2849C210.264 73.5109 210.209 73.7609 210.209 74.024C210.209 75.0317 211.026 75.8487 212.033 75.8487C213.041 75.8487 213.858 75.0317 213.858 74.024Z" fill="#1D1D1D"/>
<path d="M213.858 50.2236C213.858 51.2314 213.041 52.0483 212.033 52.0483C211.713 52.0483 211.412 51.9657 211.15 51.8205C208.909 54.6903 207.799 56.4492 206.048 59.8185H204.383C206.484 56.0909 207.766 54.121 210.365 50.9626C210.264 50.7367 210.209 50.4866 210.209 50.2236C210.209 49.2158 211.026 48.3988 212.033 48.3988C213.041 48.3988 213.858 49.2158 213.858 50.2236Z" fill="#1D1D1D"/>
<path d="M234.1 50.2236C234.1 51.2314 233.283 52.0483 232.276 52.0483C231.955 52.0483 231.654 51.9657 231.392 51.8205C229.151 54.6903 228.041 56.4492 226.29 59.8185H224.625C226.726 56.0909 228.008 54.121 230.607 50.9626C230.507 50.7367 230.451 50.4866 230.451 50.2236C230.451 49.2158 231.268 48.3988 232.276 48.3988C233.283 48.3988 234.1 49.2158 234.1 50.2236Z" fill="#1D1D1D"/>
<path d="M234.1 74.024C234.1 73.0162 233.283 72.1992 232.276 72.1992C231.955 72.1992 231.654 72.2819 231.392 72.427C229.151 69.5573 228.041 67.7983 226.29 64.429H224.625C226.726 68.1566 228.008 70.1266 230.607 73.2849C230.507 73.5109 230.451 73.7609 230.451 74.024C230.451 75.0317 231.268 75.8487 232.276 75.8487C233.283 75.8487 234.1 75.0317 234.1 74.024Z" fill="#1D1D1D"/>
<path fill-rule="evenodd" clip-rule="evenodd" d="M41.5393 43.3583C42.2729 43.3583 43.061 43.6054 43.8188 43.9573C44.5844 44.3129 45.3629 44.7963 46.0894 45.3158C47.5384 46.3518 48.8354 47.571 49.4753 48.3147C49.8074 48.7006 50.1421 49.1965 50.4748 49.716C50.6168 49.9377 50.7567 50.1606 50.8973 50.3849C51.0981 50.7051 51.3014 51.0293 51.5183 51.3612C52.2559 52.4904 53.0047 53.4727 53.7939 53.9626C54.6132 54.4711 55.9987 55.5751 56.7021 56.7486C57.0513 57.3314 57.3067 58.057 57.0626 58.7705C56.8122 59.5025 56.118 59.9936 55.1083 60.289C54.2435 60.542 53.0622 60.6797 51.4969 60.6797C49.7559 60.6797 47.3953 60.2493 45.3478 59.3275C43.3191 58.4141 41.4507 56.9477 40.9683 54.7909C40.569 53.006 39.7911 51.6829 39.0728 50.5555C39.0049 50.449 38.9368 50.343 38.8691 50.2377L38.8683 50.2366L38.8659 50.2329L38.8638 50.2296C38.5815 49.7906 38.3068 49.3635 38.0913 48.9599C37.397 47.6594 37.2042 45.8394 37.8018 44.1619C38.4755 43.5846 40.3876 43.3583 41.5393 43.3583ZM45.4088 46.2678C46.7912 47.2563 48.0165 48.4136 48.5882 49.078C48.862 49.3961 49.1587 49.8311 49.4894 50.3472C49.6174 50.5471 49.7531 50.7633 49.8933 50.9868L49.8942 50.9882L49.8948 50.9891C50.1029 51.3207 50.3209 51.668 50.5385 52.0013C51.2684 53.1185 52.1407 54.3138 53.1768 54.9569C53.9248 55.4212 55.1323 56.4058 55.6983 57.3502C55.9837 57.8265 56.0321 58.1672 55.9553 58.3917C55.8953 58.5672 55.704 58.8243 55.1202 59.0511C53.4355 57.2502 51.9551 56.6982 50.4422 56.1341L50.4409 56.1336C50.1161 56.0124 49.7893 55.8906 49.4591 55.7558C48.6388 55.421 48.252 54.9032 47.8564 54.13C47.7639 53.9493 47.6698 53.7504 47.5688 53.5371C47.2395 52.8415 46.837 51.9914 46.1794 51.1074C45.3028 49.9293 43.8968 48.739 42.4571 47.8053C41.9177 47.4554 41.2644 47.1511 40.6557 46.8675C39.3071 46.2392 38.177 45.7127 38.9869 45.0187C39.409 44.6571 40.6098 44.5285 41.5393 44.5285C42.0296 44.5285 42.6386 44.6995 43.3258 45.0187C44.0052 45.3343 44.7196 45.7751 45.4088 46.2678Z" fill="#1D1D1D"/>
<path fill-rule="evenodd" clip-rule="evenodd" d="M41.5393 80.8893C42.2729 80.8893 43.061 80.6422 43.8188 80.2902C44.5844 79.9346 45.3629 79.4512 46.0894 78.9317C47.5384 77.8957 48.8354 76.6766 49.4753 75.9329C49.8074 75.547 50.1421 75.0511 50.4748 74.5316C50.6168 74.3099 50.7567 74.0869 50.8973 73.8627L50.8982 73.8612L50.8992 73.8597C51.0994 73.5405 51.3021 73.2173 51.5183 72.8864C52.2559 71.7572 53.0047 70.7748 53.7939 70.285C54.6132 69.7764 55.9987 68.6725 56.7021 67.4989C57.0513 66.9162 57.3067 66.1905 57.0626 65.4771C56.8122 64.7451 56.118 64.254 55.1083 63.9586C54.2435 63.7055 53.0622 63.5678 51.4969 63.5678C49.7559 63.5678 47.3953 63.9983 45.3478 64.9201C43.3191 65.8335 41.4507 67.2998 40.9683 69.4567C40.569 71.2416 39.7911 72.5646 39.0728 73.692C39.0032 73.8013 38.9333 73.91 38.8638 74.018C38.5815 74.457 38.3068 74.8841 38.0913 75.2877C37.397 76.5881 37.2042 78.4081 37.8018 80.0857C38.4755 80.6629 40.3876 80.8893 41.5393 80.8893ZM45.4088 77.9798C46.7912 76.9913 48.0165 75.834 48.5882 75.1696C48.862 74.8514 49.1587 74.4165 49.4894 73.9003C49.6174 73.7005 49.7531 73.4843 49.8933 73.2608L49.8942 73.2594C50.1024 72.9276 50.3206 72.5799 50.5385 72.2463C51.2684 71.129 52.1407 69.9337 53.1768 69.2906C53.9248 68.8263 55.1323 67.8417 55.6983 66.8973C55.9837 66.4211 56.0321 66.0804 55.9553 65.8559C55.8953 65.6804 55.704 65.4233 55.1202 65.1964C53.4355 66.9974 51.9551 67.5494 50.4422 68.1135C50.117 68.2348 49.7897 68.3568 49.4591 68.4917C48.6388 68.8266 48.252 69.3444 47.8564 70.1175C47.7639 70.2983 47.6698 70.4971 47.5688 70.7105C47.2395 71.4061 46.837 72.2562 46.1794 73.1402C45.3028 74.3183 43.8968 75.5086 42.4571 76.4423C41.9177 76.7922 41.2644 77.0965 40.6556 77.3801C39.3071 78.0084 38.177 78.5349 38.9869 79.2288C39.409 79.5905 40.6098 79.719 41.5393 79.719C42.0296 79.719 42.6386 79.548 43.3258 79.2288C44.0052 78.9133 44.7196 78.4725 45.4088 77.9798Z" fill="#1D1D1D"/>
<path d="M52.9861 74.024C52.9861 73.0162 53.803 72.1992 54.8108 72.1992C55.1314 72.1992 55.4326 72.2819 55.6944 72.4271C57.9356 69.5573 59.045 67.7983 60.7962 64.429H62.4618C60.3607 68.1566 59.0782 70.1266 56.4797 73.285C56.5799 73.5109 56.6356 73.7609 56.6356 74.024C56.6356 75.0318 55.8186 75.8487 54.8108 75.8487C53.803 75.8487 52.9861 75.0318 52.9861 74.024Z" fill="#1D1D1D"/>
<path d="M52.9861 50.2236C52.9861 51.2314 53.803 52.0483 54.8108 52.0483C55.1314 52.0483 55.4326 51.9657 55.6944 51.8205C57.9356 54.6903 59.045 56.4492 60.7962 59.8186H62.4618C60.3607 56.091 59.0782 54.121 56.4797 50.9626C56.5799 50.7367 56.6356 50.4866 56.6356 50.2236C56.6356 49.2158 55.8186 48.3988 54.8108 48.3988C53.803 48.3988 52.9861 49.2158 52.9861 50.2236Z" fill="#1D1D1D"/>
<path fill-rule="evenodd" clip-rule="evenodd" d="M61.7815 43.3583C62.5152 43.3583 63.3032 43.6054 64.061 43.9573C64.8266 44.3129 65.6051 44.7963 66.3317 45.3158C67.7806 46.3518 69.0776 47.571 69.7175 48.3147C70.0496 48.7006 70.3843 49.1965 70.717 49.716C70.8583 49.9365 70.997 50.1576 71.1368 50.3806L71.1395 50.3849C71.3404 50.7051 71.5437 51.0293 71.7605 51.3612C72.4982 52.4904 73.2469 53.4727 74.0361 53.9626C74.8554 54.4711 76.241 55.5751 76.9443 56.7486C77.2936 57.3314 77.5489 58.057 77.3049 58.7705C77.0545 59.5025 76.3602 59.9936 75.3505 60.289C74.4858 60.542 73.3044 60.6797 71.7391 60.6797C69.9982 60.6797 67.6375 60.2493 65.59 59.3275C63.5613 58.4141 61.693 56.9477 61.2105 54.7909C60.8112 53.006 60.0334 51.6829 59.315 50.5555C59.2461 50.4474 59.1769 50.3398 59.1082 50.2329L59.106 50.2296C58.8237 49.7906 58.549 49.3635 58.3335 48.9599C57.6392 47.6594 57.4464 45.8394 58.044 44.1619C58.7177 43.5846 60.6298 43.3583 61.7815 43.3583ZM65.651 46.2678C67.0334 47.2563 68.2588 48.4136 68.8305 49.078C69.1042 49.3961 69.401 49.8311 69.7316 50.3472C69.8597 50.5471 69.9953 50.7633 70.1356 50.9868L70.1364 50.9882L70.1372 50.9894L70.138 50.9907C70.3458 51.3218 70.5634 51.6686 70.7808 52.0013C71.5107 53.1185 72.3829 54.3138 73.419 54.9569C74.167 55.4212 75.3745 56.4058 75.9405 57.3502C76.2259 57.8265 76.2744 58.1672 76.1976 58.3917C76.1375 58.5672 75.9463 58.8243 75.3624 59.0511C73.6777 57.2502 72.1973 56.6982 70.6845 56.1341C70.359 56.0127 70.0321 55.8908 69.7014 55.7558C68.881 55.421 68.4942 54.9032 68.0986 54.13C68.0062 53.9493 67.912 53.7504 67.811 53.5371C67.4817 52.8415 67.0793 51.9914 66.4216 51.1074C65.5451 49.9293 64.139 48.739 62.6993 47.8053C62.1599 47.4554 61.5066 47.1511 60.8979 46.8675C59.5493 46.2392 58.4192 45.7127 59.2292 45.0187C59.6512 44.6571 60.8521 44.5285 61.7815 44.5285C62.2718 44.5285 62.8808 44.6995 63.568 45.0187C64.2474 45.3343 64.9619 45.7751 65.651 46.2678Z" fill="#1D1D1D"/>
<path fill-rule="evenodd" clip-rule="evenodd" d="M61.7815 80.8893C62.5152 80.8893 63.3032 80.6422 64.061 80.2902C64.8266 79.9346 65.6051 79.4512 66.3317 78.9317C67.7806 77.8957 69.0776 76.6766 69.7175 75.9329C70.0496 75.547 70.3843 75.0511 70.717 74.5316C70.8578 74.3119 70.996 74.0916 71.1353 73.8694L71.1377 73.8657L71.1395 73.8627C71.3404 73.5425 71.5437 73.2183 71.7605 72.8864C72.4982 71.7572 73.2469 70.7748 74.0361 70.285C74.8554 69.7764 76.241 68.6725 76.9443 67.4989C77.2936 66.9162 77.5489 66.1905 77.3049 65.4771C77.0545 64.7451 76.3602 64.254 75.3505 63.9586C74.4858 63.7055 73.3044 63.5678 71.7391 63.5678C69.9982 63.5678 67.6375 63.9983 65.59 64.9201C63.5613 65.8335 61.693 67.2998 61.2105 69.4567C60.8112 71.2416 60.0334 72.5646 59.315 73.692C59.2773 73.7512 59.2396 73.8102 59.2018 73.869C59.1706 73.9176 59.1394 73.9661 59.1083 74.0145C59.1077 74.0153 59.1072 74.0162 59.1067 74.017L59.106 74.018C58.8237 74.457 58.549 74.8841 58.3335 75.2877C57.6392 76.5881 57.4464 78.4081 58.044 80.0857C58.7177 80.6629 60.6298 80.8893 61.7815 80.8893ZM65.651 77.9798C67.0334 76.9913 68.2588 75.834 68.8305 75.1696C69.1042 74.8514 69.401 74.4165 69.7316 73.9003C69.8597 73.7005 69.9953 73.4843 70.1356 73.2608L70.1364 73.2594L70.1372 73.2582C70.3452 72.9267 70.5631 72.5794 70.7808 72.2463C71.5107 71.129 72.3829 69.9337 73.419 69.2906C74.167 68.8263 75.3745 67.8417 75.9405 66.8973C76.2259 66.4211 76.2744 66.0804 76.1976 65.8559C76.1375 65.6804 75.9463 65.4233 75.3624 65.1964C73.6777 66.9974 72.1973 67.5494 70.6845 68.1135C70.3591 68.2348 70.032 68.3568 69.7014 68.4917C68.881 68.8266 68.4942 69.3444 68.0986 70.1175C68.0062 70.2982 67.912 70.4973 67.811 70.7105C67.4817 71.4061 67.0793 72.2562 66.4216 73.1402C65.5451 74.3183 64.139 75.5086 62.6993 76.4423C62.1599 76.7922 61.5066 77.0965 60.8979 77.3801C59.5493 78.0084 58.4192 78.5349 59.2292 79.2288C59.6512 79.5905 60.8521 79.719 61.7815 79.719C62.2718 79.719 62.8808 79.548 63.568 79.2288C64.2474 78.9133 64.9619 78.4725 65.651 77.9798Z" fill="#1D1D1D"/>
<path fill-rule="evenodd" clip-rule="evenodd" d="M122.508 80.8893C123.242 80.8893 124.03 80.6422 124.788 80.2902C125.553 79.9346 126.332 79.4512 127.058 78.9317C128.507 77.8957 129.804 76.6766 130.444 75.9329C130.776 75.547 131.111 75.0511 131.444 74.5316C131.585 74.3117 131.723 74.0912 131.862 73.8688L131.865 73.8645L131.866 73.8627L131.867 73.8613C132.067 73.5418 132.271 73.2176 132.487 72.8864C133.225 71.7572 133.974 70.7748 134.763 70.285C135.582 69.7764 136.968 68.6725 137.671 67.4989C138.02 66.9162 138.276 66.1905 138.032 65.4771C137.781 64.7451 137.087 64.254 136.077 63.9586C135.212 63.7055 134.031 63.5678 132.466 63.5678C130.725 63.5678 128.364 63.9983 126.317 64.9201C124.288 65.8335 122.42 67.2998 121.937 69.4567C121.538 71.2416 120.76 72.5646 120.042 73.692C119.972 73.801 119.903 73.9094 119.833 74.017L119.833 74.018C119.55 74.457 119.276 74.8841 119.06 75.2877C118.366 76.5881 118.173 78.4081 118.771 80.0857C119.444 80.6629 121.356 80.8893 122.508 80.8893ZM126.378 77.9798C127.76 76.9913 128.985 75.834 129.557 75.1696C129.831 74.8514 130.128 74.4165 130.458 73.9003C130.586 73.701 130.721 73.4855 130.861 73.2627L130.862 73.2608C131.071 72.9285 131.289 72.5803 131.507 72.2463C132.237 71.129 133.11 69.9337 134.146 69.2906C134.894 68.8263 136.101 67.8417 136.667 66.8973C136.953 66.4211 137.001 66.0804 136.924 65.8559C136.864 65.6804 136.673 65.4233 136.089 65.1964C134.404 66.9974 132.924 67.5494 131.411 68.1135C131.086 68.2348 130.759 68.3567 130.428 68.4917C129.608 68.8266 129.221 69.3444 128.825 70.1175C128.733 70.2982 128.639 70.4973 128.538 70.7105C128.208 71.4061 127.806 72.2562 127.148 73.1402C126.272 74.3183 124.866 75.5086 123.426 76.4423C122.887 76.7922 122.233 77.0965 121.625 77.3801C120.276 78.0084 119.146 78.5349 119.956 79.2288C120.378 79.5905 121.579 79.719 122.508 79.719C122.998 79.719 123.607 79.548 124.295 79.2288C124.974 78.9133 125.689 78.4725 126.378 77.9798Z" fill="#1D1D1D"/>
<path fill-rule="evenodd" clip-rule="evenodd" d="M122.508 43.3583C123.242 43.3583 124.03 43.6054 124.788 43.9573C125.553 44.3129 126.332 44.7963 127.058 45.3158C128.507 46.3518 129.804 47.571 130.444 48.3147C130.776 48.7006 131.111 49.1965 131.444 49.716C131.585 49.9358 131.723 50.1562 131.862 50.3785L131.864 50.3811L131.865 50.3826L131.866 50.3849L131.867 50.386C132.068 50.7058 132.271 51.0296 132.487 51.3612C133.225 52.4904 133.974 53.4727 134.763 53.9626C135.582 54.4711 136.968 55.5751 137.671 56.7486C138.02 57.3314 138.276 58.057 138.032 58.7705C137.781 59.5025 137.087 59.9936 136.077 60.289C135.212 60.542 134.031 60.6797 132.466 60.6797C130.725 60.6797 128.364 60.2493 126.317 59.3275C124.288 58.4141 122.42 56.9477 121.937 54.7909C121.538 53.006 120.76 51.6829 120.042 50.5555C119.972 50.4463 119.902 50.3376 119.833 50.2296C119.55 49.7906 119.276 49.3635 119.06 48.9599C118.366 47.6594 118.173 45.8394 118.771 44.1619C119.444 43.5846 121.356 43.3583 122.508 43.3583ZM126.378 46.2678C127.76 47.2563 128.985 48.4136 129.557 49.078C129.831 49.3961 130.128 49.8311 130.458 50.3472C130.586 50.5471 130.722 50.7633 130.862 50.9868C131.071 51.319 131.289 51.6672 131.507 52.0013C132.237 53.1185 133.11 54.3138 134.146 54.9569C134.894 55.4212 136.101 56.4058 136.667 57.3502C136.953 57.8265 137.001 58.1672 136.924 58.3917C136.864 58.5672 136.673 58.8243 136.089 59.0511C134.404 57.2502 132.924 56.6982 131.411 56.1341L131.41 56.1337C131.085 56.0125 130.758 55.8907 130.428 55.7558C129.608 55.421 129.221 54.9032 128.825 54.13C128.733 53.9493 128.639 53.7504 128.538 53.5371C128.208 52.8415 127.806 51.9914 127.148 51.1074C126.272 49.9293 124.866 48.739 123.426 47.8053C122.887 47.4554 122.233 47.1511 121.625 46.8675C120.276 46.2392 119.146 45.7127 119.956 45.0187C120.378 44.6571 121.579 44.5285 122.508 44.5285C122.998 44.5285 123.607 44.6995 124.295 45.0187C124.974 45.3343 125.689 45.7751 126.378 46.2678Z" fill="#1D1D1D"/>
<path d="M113.713 50.2236C113.713 51.2314 114.53 52.0483 115.537 52.0483C115.858 52.0483 116.159 51.9657 116.421 51.8205C118.662 54.6903 119.772 56.4492 121.523 59.8186H123.188C121.087 56.091 119.805 54.121 117.206 50.9626C117.307 50.7367 117.362 50.4866 117.362 50.2236C117.362 49.2158 116.545 48.3988 115.537 48.3988C114.53 48.3988 113.713 49.2158 113.713 50.2236Z" fill="#1D1D1D"/>
<path d="M113.713 74.024C113.713 73.0162 114.53 72.1992 115.537 72.1992C115.858 72.1992 116.159 72.2819 116.421 72.4271C118.662 69.5573 119.772 67.7983 121.523 64.429H123.188C121.087 68.1566 119.805 70.1266 117.206 73.285C117.307 73.5109 117.362 73.7609 117.362 74.024C117.362 75.0318 116.545 75.8487 115.537 75.8487C114.53 75.8487 113.713 75.0318 113.713 74.024Z" fill="#1D1D1D"/>
<path fill-rule="evenodd" clip-rule="evenodd" d="M102.266 80.8893C103 80.8893 103.788 80.6422 104.545 80.2902C105.311 79.9346 106.09 79.4512 106.816 78.9317C108.265 77.8957 109.562 76.6766 110.202 75.9329C110.534 75.547 110.869 75.0511 111.202 74.5316C111.342 74.3119 111.48 74.0916 111.62 73.8694L111.622 73.8657L111.624 73.8627C111.825 73.5425 112.028 73.2183 112.245 72.8864C112.983 71.7572 113.731 70.7748 114.521 70.285C115.34 69.7764 116.725 68.6725 117.429 67.4989C117.778 66.9162 118.033 66.1905 117.789 65.4771C117.539 64.7451 116.845 64.254 115.835 63.9586C114.97 63.7055 113.789 63.5678 112.224 63.5678C110.483 63.5678 108.122 63.9983 106.074 64.9201C104.046 65.8335 102.177 67.2998 101.695 69.4567C101.296 71.2416 100.518 72.5646 99.7995 73.692C99.7304 73.8005 99.661 73.9083 99.5921 74.0155L99.5905 74.018C99.3081 74.457 99.0335 74.8841 98.818 75.2877C98.1236 76.5881 97.9308 78.4081 98.5285 80.0857C99.2022 80.6629 101.114 80.8893 102.266 80.8893ZM106.135 77.9798C107.518 76.9913 108.743 75.834 109.315 75.1696C109.589 74.8514 109.885 74.4165 110.216 73.9003C110.344 73.7005 110.48 73.4843 110.62 73.2608C110.829 72.9285 111.047 72.5803 111.265 72.2463C111.995 71.129 112.867 69.9337 113.903 69.2906C114.651 68.8263 115.859 67.8417 116.425 66.8973C116.71 66.4211 116.759 66.0804 116.682 65.8559C116.622 65.6804 116.431 65.4233 115.847 65.1964C114.162 66.9974 112.682 67.5494 111.169 68.1135C110.844 68.2348 110.517 68.3567 110.186 68.4917C109.365 68.8266 108.979 69.3444 108.583 70.1175C108.491 70.2982 108.396 70.4973 108.295 70.7105C107.966 71.4061 107.564 72.2562 106.906 73.1402C106.029 74.3183 104.623 75.5086 103.184 76.4423C102.644 76.7922 101.991 77.0965 101.382 77.3801C100.034 78.0084 98.9037 78.5349 99.7136 79.2288C100.136 79.5905 101.337 79.719 102.266 79.719C102.756 79.719 103.365 79.548 104.052 79.2288C104.732 78.9133 105.446 78.4725 106.135 77.9798Z" fill="#1D1D1D"/>
<path fill-rule="evenodd" clip-rule="evenodd" d="M102.266 43.3583C103 43.3583 103.788 43.6054 104.545 43.9573C105.311 44.3129 106.09 44.7963 106.816 45.3158C108.265 46.3518 109.562 47.571 110.202 48.3147C110.534 48.7006 110.869 49.1965 111.202 49.716C111.343 49.9361 111.481 50.1568 111.621 50.3794L111.623 50.3826L111.624 50.3849C111.825 50.7051 112.028 51.0293 112.245 51.3612C112.983 52.4904 113.731 53.4727 114.521 53.9626C115.34 54.4711 116.725 55.5751 117.429 56.7486C117.778 57.3314 118.033 58.057 117.789 58.7705C117.539 59.5025 116.845 59.9936 115.835 60.289C114.97 60.542 113.789 60.6797 112.224 60.6797C110.483 60.6797 108.122 60.2493 106.074 59.3275C104.046 58.4141 102.177 56.9477 101.695 54.7909C101.296 53.006 100.518 51.6829 99.7995 50.5555C99.7299 50.4463 99.6599 50.3376 99.5905 50.2296C99.3081 49.7906 99.0335 49.3635 98.818 48.9599C98.1236 47.6594 97.9308 45.8394 98.5285 44.1619C99.2022 43.5846 101.114 43.3583 102.266 43.3583ZM106.135 46.2678C107.518 47.2563 108.743 48.4136 109.315 49.078C109.589 49.3961 109.885 49.8311 110.216 50.3472C110.344 50.5471 110.48 50.7633 110.62 50.9868C110.829 51.319 111.047 51.6672 111.265 52.0013C111.995 53.1185 112.867 54.3138 113.903 54.9569C114.651 55.4212 115.859 56.4058 116.425 57.3502C116.71 57.8265 116.759 58.1672 116.682 58.3917C116.622 58.5672 116.431 58.8243 115.847 59.0511C114.162 57.2502 112.682 56.6982 111.169 56.1341C110.844 56.0127 110.517 55.8908 110.186 55.7558C109.365 55.421 108.979 54.9032 108.583 54.13C108.491 53.9493 108.396 53.7504 108.295 53.5371C107.966 52.8415 107.564 51.9914 106.906 51.1074C106.029 49.9293 104.623 48.739 103.184 47.8053C102.644 47.4554 101.991 47.1511 101.382 46.8675C100.034 46.2392 98.9037 45.7127 99.7136 45.0187C100.136 44.6571 101.337 44.5285 102.266 44.5285C102.756 44.5285 103.365 44.6995 104.052 45.0187C104.732 45.3343 105.446 45.7751 106.135 46.2678Z" fill="#1D1D1D"/>
<path fill-rule="evenodd" clip-rule="evenodd" d="M82.0238 43.3583C82.7574 43.3583 83.5454 43.6054 84.3032 43.9573C85.0688 44.3129 85.8473 44.7963 86.5739 45.3158C88.0228 46.3518 89.3198 47.571 89.9598 48.3147C90.2918 48.7006 90.6265 49.1965 90.9593 49.716C91.1005 49.9365 91.2392 50.1576 91.3791 50.3806L91.3818 50.3849C91.5826 50.7051 91.7859 51.0293 92.0027 51.3612C92.7404 52.4904 93.4892 53.4727 94.2784 53.9626C95.0977 54.4711 96.4832 55.5751 97.1865 56.7486C97.5358 57.3314 97.7911 58.057 97.5471 58.7705C97.2967 59.5025 96.6024 59.9936 95.5928 60.289C94.728 60.542 93.5466 60.6797 91.9813 60.6797C90.2404 60.6797 87.8797 60.2493 85.8322 59.3275C83.8035 58.4141 81.9352 56.9477 81.4527 54.7909C81.0535 53.006 80.2756 51.6829 79.5572 50.5555C79.4883 50.4474 79.4192 50.3398 79.3504 50.2329L79.3483 50.2296C79.0659 49.7906 78.7912 49.3635 78.5757 48.9599C77.8814 47.6594 77.6886 45.8394 78.2862 44.1619C78.96 43.5846 80.872 43.3583 82.0238 43.3583ZM85.8932 46.2678C87.2757 47.2563 88.501 48.4136 89.0727 49.078C89.3464 49.3961 89.6432 49.8311 89.9738 50.3472C90.1014 50.5463 90.2365 50.7617 90.3762 50.9842C90.3767 50.9851 90.3772 50.9859 90.3778 50.9868L90.3786 50.9882L90.3795 50.9896C90.5875 51.321 90.8054 51.6682 91.023 52.0013C91.7529 53.1185 92.6251 54.3138 93.6612 54.9569C94.4092 55.4212 95.6167 56.4058 96.1827 57.3502C96.4682 57.8265 96.5166 58.1672 96.4398 58.3917C96.3798 58.5672 96.1885 58.8243 95.6046 59.0511C93.92 57.2502 92.4396 56.6982 90.9267 56.1341C90.6013 56.0127 90.2744 55.8908 89.9436 55.7558C89.1232 55.421 88.7364 54.9032 88.3409 54.13C88.2484 53.9493 88.1543 53.7504 88.0533 53.5371C87.724 52.8415 87.3215 51.9914 86.6638 51.1074C85.7873 49.9293 84.3813 48.739 82.9416 47.8053C82.4021 47.4554 81.7488 47.1511 81.1401 46.8675C79.7915 46.2392 78.6615 45.7127 79.4714 45.0187C79.8934 44.6571 81.0943 44.5285 82.0238 44.5285C82.514 44.5285 83.123 44.6995 83.8102 45.0187C84.4897 45.3343 85.2041 45.7751 85.8932 46.2678Z" fill="#1D1D1D"/>
<path fill-rule="evenodd" clip-rule="evenodd" d="M82.0238 80.8893C82.7574 80.8893 83.5454 80.6422 84.3032 80.2902C85.0688 79.9346 85.8473 79.4512 86.5739 78.9317C88.0228 77.8957 89.3198 76.6766 89.9598 75.9329C90.2918 75.547 90.6265 75.0511 90.9593 74.5316C91.1006 74.311 91.2397 74.0892 91.3796 73.8662C91.3803 73.865 91.381 73.8639 91.3818 73.8627C91.5826 73.5425 91.7859 73.2183 92.0027 72.8864C92.7404 71.7572 93.4892 70.7748 94.2784 70.285C95.0977 69.7764 96.4832 68.6725 97.1865 67.4989C97.5358 66.9162 97.7911 66.1905 97.5471 65.4771C97.2967 64.7451 96.6024 64.254 95.5928 63.9586C94.728 63.7055 93.5466 63.5678 91.9813 63.5678C90.2404 63.5678 87.8797 63.9983 85.8322 64.9201C83.8035 65.8335 81.9352 67.2998 81.4527 69.4567C81.0535 71.2416 80.2756 72.5646 79.5572 73.692C79.4876 73.8013 79.4177 73.91 79.3483 74.018C79.0659 74.457 78.7912 74.8841 78.5757 75.2877C77.8814 76.5881 77.6886 78.4081 78.2862 80.0857C78.96 80.6629 80.872 80.8893 82.0238 80.8893ZM85.8932 77.9798C87.2757 76.9913 88.501 75.834 89.0727 75.1696C89.3464 74.8514 89.6432 74.4165 89.9738 73.9003C90.1019 73.7005 90.2376 73.4843 90.3778 73.2608L90.3786 73.2594C90.5869 72.9276 90.8051 72.5799 91.023 72.2463C91.7529 71.129 92.6251 69.9337 93.6612 69.2906C94.4092 68.8263 95.6167 67.8417 96.1827 66.8973C96.4682 66.4211 96.5166 66.0804 96.4398 65.8559C96.3798 65.6804 96.1885 65.4233 95.6046 65.1964C93.92 66.9974 92.4396 67.5494 90.9267 68.1135C90.6014 68.2348 90.2743 68.3568 89.9436 68.4917C89.1232 68.8266 88.7364 69.3444 88.3409 70.1175C88.2484 70.2982 88.1542 70.4973 88.0533 70.7105C87.724 71.4061 87.3215 72.2562 86.6638 73.1402C85.7873 74.3183 84.3813 75.5086 82.9416 76.4423C82.4021 76.7922 81.7488 77.0965 81.1401 77.3801C79.7915 78.0084 78.6615 78.5349 79.4714 79.2288C79.8934 79.5905 81.0943 79.719 82.0238 79.719C82.514 79.719 83.123 79.548 83.8102 79.2288C84.4897 78.9133 85.2041 78.4725 85.8932 77.9798Z" fill="#1D1D1D"/>
<path d="M93.4705 74.024C93.4705 73.0162 94.2875 72.1992 95.2953 72.1992C95.6158 72.1992 95.9171 72.2819 96.1789 72.4271C98.42 69.5573 99.5295 67.7983 101.281 64.429H102.946C100.845 68.1566 99.5627 70.1266 96.9642 73.285C97.0644 73.5109 97.12 73.7609 97.12 74.024C97.12 75.0318 96.303 75.8487 95.2953 75.8487C94.2875 75.8487 93.4705 75.0318 93.4705 74.024Z" fill="#1D1D1D"/>
<path d="M93.4705 50.2236C93.4705 51.2314 94.2875 52.0483 95.2953 52.0483C95.6158 52.0483 95.9171 51.9657 96.1789 51.8205C98.42 54.6903 99.5295 56.4492 101.281 59.8186H102.946C100.845 56.091 99.5627 54.121 96.9642 50.9626C97.0644 50.7367 97.12 50.4866 97.12 50.2236C97.12 49.2158 96.303 48.3988 95.2953 48.3988C94.2875 48.3988 93.4705 49.2158 93.4705 50.2236Z" fill="#1D1D1D"/>
<path d="M73.2283 50.2236C73.2283 51.2314 74.0453 52.0483 75.053 52.0483C75.3736 52.0483 75.6748 51.9657 75.9366 51.8205C78.1778 54.6903 79.2873 56.4492 81.0385 59.8186H82.704C80.6029 56.091 79.3204 54.121 76.7219 50.9626C76.8221 50.7367 76.8778 50.4866 76.8778 50.2236C76.8778 49.2158 76.0608 48.3988 75.053 48.3988C74.0453 48.3988 73.2283 49.2158 73.2283 50.2236Z" fill="#1D1D1D"/>
<path d="M73.2283 74.024C73.2283 73.0162 74.0453 72.1992 75.053 72.1992C75.3736 72.1992 75.6748 72.2819 75.9366 72.4271C78.1778 69.5573 79.2873 67.7983 81.0385 64.429H82.704C80.6029 68.1566 79.3204 70.1266 76.7219 73.285C76.8221 73.5109 76.8778 73.7609 76.8778 74.024C76.8778 75.0318 76.0608 75.8487 75.053 75.8487C74.0453 75.8487 73.2283 75.0318 73.2283 74.024Z" fill="#1D1D1D"/>
<path fill-rule="evenodd" clip-rule="evenodd" d="M170.171 48.3694C166.52 45.375 160.236 43.1109 153.663 43.1109C147.09 43.1109 140.809 45.375 137.158 48.3694C137.188 48.5267 137.218 48.6854 137.248 48.8454C137.271 48.9645 137.294 49.0842 137.317 49.2047C137.318 49.2123 137.32 49.2199 137.321 49.2275L137.326 49.251C138.013 52.8655 138.815 57.0811 140.121 61.2205H43.7087C41.6076 57.4929 38.836 54.121 36.2375 50.9626C36.3377 50.7367 36.3933 50.4866 36.3933 50.2236C36.3933 49.2158 35.5764 48.3988 34.5686 48.3988C33.5608 48.3988 32.7439 49.2158 32.7439 50.2236C32.7439 51.2314 33.5608 52.0483 34.5686 52.0483C34.8892 52.0483 35.1904 51.9657 35.4522 51.8205C37.6933 54.6903 39.5472 57.3104 41.2984 60.6797C40.2226 60.1713 39.3312 59.3691 38.4306 58.5586C36.887 57.1694 35.3163 55.7558 32.7439 55.7558C23.0306 55.7558 21.5726 62.3644 21.5726 62.3644C21.5726 62.3644 23.5201 68.4917 32.1911 68.4917C34.2685 68.4917 36.2906 67.007 38.2584 65.5621C39.1734 64.8903 40.0766 64.227 40.9683 63.7257C39.2171 67.095 37.6933 69.5573 35.4522 72.4271C35.1904 72.2819 34.8892 72.1992 34.5686 72.1992C33.5608 72.1992 32.7439 73.0162 32.7439 74.024C32.7439 75.0318 33.5608 75.8487 34.5686 75.8487C35.5764 75.8487 36.3933 75.0318 36.3933 74.024C36.3933 73.7609 36.3377 73.5109 36.2375 73.285C38.836 70.1266 41.6076 66.5865 43.7087 62.8589H140.667C143.002 69.4895 146.787 75.688 153.663 78.6051C160.539 75.688 164.326 69.4895 166.662 62.8589H263.62C265.721 66.5864 268.493 70.1266 271.091 73.2849C270.991 73.5109 270.935 73.7609 270.935 74.024C270.935 75.0317 271.752 75.8487 272.76 75.8487C273.768 75.8487 274.585 75.0317 274.585 74.024C274.585 73.0162 273.768 72.1992 272.76 72.1992C272.44 72.1992 272.138 72.2819 271.877 72.427C269.635 69.5573 268.112 67.095 266.36 63.7257C267.252 64.227 268.155 64.8902 269.07 65.5621C271.038 67.007 273.06 68.4917 275.138 68.4917C283.809 68.4917 285.756 62.3644 285.756 62.3644C285.756 62.3644 284.298 55.7558 274.585 55.7558C272.012 55.7558 270.442 57.1694 268.898 58.5586C267.997 59.3691 267.106 60.1713 266.03 60.6797C267.782 57.3104 269.635 54.6903 271.877 51.8205C272.138 51.9657 272.44 52.0483 272.76 52.0483C273.768 52.0483 274.585 51.2314 274.585 50.2236C274.585 49.2158 273.768 48.3988 272.76 48.3988C271.752 48.3988 270.935 49.2158 270.935 50.2236C270.935 50.4866 270.991 50.7367 271.091 50.9626C268.493 54.121 265.721 57.4929 263.62 61.2205H167.208C168.514 57.0811 169.316 52.8655 170.003 49.251C170.06 48.9529 170.116 48.6589 170.171 48.3694ZM156.831 62.8548V68.4891L150.498 68.4891V62.8548H144.864V56.524H150.498V50.8897L156.831 50.8897V56.524H162.465V62.8548H156.831ZM284.319 61.6599C284.061 61.1311 283.62 60.4178 282.901 59.7016C281.474 58.2823 278.892 56.7944 274.274 56.7944C272.503 56.7944 271.298 57.6401 270.133 58.7355C269.864 58.988 269.602 59.2491 269.334 59.516L269.261 59.5887C268.971 59.8784 268.673 60.1739 268.365 60.4554C267.751 61.0177 267.075 61.5483 266.277 61.9066C275.912 61.4439 280.42 61.4295 284.636 62.4548C284.605 62.3481 284.514 62.0564 284.319 61.6599ZM23.0092 61.6599C23.2682 61.1311 23.7083 60.4178 24.4281 59.7016C25.8544 58.2823 28.4368 56.7944 33.0549 56.7944C34.8256 56.7944 36.0303 57.6401 37.1961 58.7355C37.4648 58.988 37.7267 59.2491 37.9944 59.516L38.0674 59.5887C38.3581 59.8784 38.6562 60.1739 38.9637 60.4554C39.5778 61.0177 40.2541 61.5483 41.0514 61.9066C31.4167 61.4439 26.9089 61.4295 22.6932 62.4548C22.7235 62.3481 22.8151 62.0564 23.0092 61.6599Z" fill="#1D1D1D"/>
<path fill-rule="evenodd" clip-rule="evenodd" d="M0.327774 22.0118C0.327774 9.85503 10.1828 0 22.3396 0H284.989C297.146 0 307.001 9.85503 307.001 22.0118V101.988C307.001 114.145 297.146 124 284.989 124H22.3396C10.1828 124 0.327774 114.145 0.327774 101.988V22.0118ZM22.3396 11.0059H284.989C291.067 11.0059 295.995 15.9334 295.995 22.0118V101.988C295.995 108.067 291.067 112.994 284.989 112.994H22.3396C16.2612 112.994 11.3337 108.067 11.3337 101.988V22.0118C11.3337 15.9334 16.2612 11.0059 22.3396 11.0059ZM153.663 43.1109C160.236 43.1109 166.52 45.375 170.171 48.3694C170.116 48.6589 170.06 48.9529 170.003 49.251C169.316 52.8655 168.514 57.0811 167.208 61.2205H263.62C265.721 57.4929 268.493 54.121 271.091 50.9626C270.991 50.7367 270.935 50.4866 270.935 50.2236C270.935 49.2158 271.752 48.3988 272.76 48.3988C273.768 48.3988 274.585 49.2158 274.585 50.2236C274.585 51.2314 273.768 52.0483 272.76 52.0483C272.44 52.0483 272.138 51.9657 271.877 51.8205C269.635 54.6903 267.782 57.3104 266.03 60.6797C267.106 60.1713 267.997 59.3691 268.898 58.5586C270.442 57.1694 272.012 55.7558 274.585 55.7558C284.298 55.7558 285.756 62.3644 285.756 62.3644C285.756 62.3644 283.809 68.4917 275.138 68.4917C273.06 68.4917 271.038 67.007 269.07 65.5621C268.155 64.8902 267.252 64.227 266.36 63.7257C268.112 67.095 269.635 69.5573 271.877 72.427C272.138 72.2819 272.44 72.1992 272.76 72.1992C273.768 72.1992 274.585 73.0162 274.585 74.024C274.585 75.0317 273.768 75.8487 272.76 75.8487C271.752 75.8487 270.935 75.0317 270.935 74.024C270.935 73.7609 270.991 73.5109 271.091 73.2849C268.493 70.1266 265.721 66.5864 263.62 62.8589H166.662C164.326 69.4895 160.539 75.688 153.663 78.6051C146.787 75.688 143.002 69.4895 140.667 62.8589H43.7087C41.6076 66.5865 38.836 70.1266 36.2375 73.285C36.3377 73.5109 36.3933 73.7609 36.3933 74.024C36.3933 75.0318 35.5764 75.8487 34.5686 75.8487C33.5608 75.8487 32.7439 75.0318 32.7439 74.024C32.7439 73.0162 33.5608 72.1992 34.5686 72.1992C34.8892 72.1992 35.1904 72.2819 35.4522 72.4271C37.6933 69.5573 39.2171 67.095 40.9683 63.7257C40.0766 64.227 39.1734 64.8903 38.2584 65.5621C36.2906 67.007 34.2685 68.4917 32.1911 68.4917C23.5201 68.4917 21.5726 62.3644 21.5726 62.3644C21.5726 62.3644 23.0306 55.7558 32.7439 55.7558C35.3163 55.7558 36.887 57.1694 38.4306 58.5586C39.3312 59.3691 40.2226 60.1713 41.2984 60.6797C39.5472 57.3104 37.6933 54.6903 35.4522 51.8205C35.1904 51.9657 34.8892 52.0483 34.5686 52.0483C33.5608 52.0483 32.7439 51.2314 32.7439 50.2236C32.7439 49.2158 33.5608 48.3988 34.5686 48.3988C35.5764 48.3988 36.3933 49.2158 36.3933 50.2236C36.3933 50.4866 36.3377 50.7367 36.2375 50.9626C38.836 54.121 41.6076 57.4929 43.7087 61.2205H140.121C138.815 57.0811 138.013 52.8655 137.326 49.251L137.321 49.2275L137.317 49.2047L137.248 48.8454L137.158 48.3694C140.809 45.375 147.09 43.1109 153.663 43.1109ZM191.791 52.0483C192.799 52.0483 193.616 51.2314 193.616 50.2236C193.616 49.2158 192.799 48.3988 191.791 48.3988C190.783 48.3988 189.967 49.2158 189.967 50.2236C189.967 50.4866 190.022 50.7367 190.122 50.9626C187.524 54.121 186.241 56.0909 184.14 59.8185H185.806C187.557 56.4492 188.666 54.6903 190.908 51.8205C191.169 51.9657 191.471 52.0483 191.791 52.0483ZM182.541 43.9573C183.299 43.6054 184.087 43.3583 184.821 43.3583C185.972 43.3583 187.884 43.5846 188.558 44.1619C189.156 45.8394 188.963 47.6594 188.269 48.9599C188.053 49.3635 187.778 49.7906 187.496 50.2296L187.395 50.3862C187.359 50.4425 187.323 50.4989 187.287 50.5555C186.569 51.6829 185.791 53.006 185.392 54.7909C184.909 56.9477 183.041 58.4141 181.012 59.3275C178.965 60.2493 176.604 60.6797 174.863 60.6797C173.298 60.6797 172.116 60.542 171.252 60.289C170.242 59.9936 169.548 59.5025 169.297 58.7704C169.053 58.057 169.308 57.3314 169.658 56.7486C170.361 55.5751 171.747 54.4711 172.566 53.9626C173.355 53.4727 174.104 52.4904 174.842 51.3612C175.057 51.0315 175.259 50.7095 175.458 50.3913L175.463 50.3849L175.464 50.3826L175.467 50.3777L175.471 50.3719C175.609 50.1519 175.746 49.9336 175.885 49.716C176.218 49.1965 176.552 48.7006 176.885 48.3147C177.524 47.571 178.821 46.3518 180.27 45.3158C180.997 44.7963 181.775 44.3129 182.541 43.9573ZM212.033 52.0483C213.041 52.0483 213.858 51.2314 213.858 50.2236C213.858 49.2158 213.041 48.3988 212.033 48.3988C211.026 48.3988 210.209 49.2158 210.209 50.2236C210.209 50.4866 210.264 50.7367 210.365 50.9626C207.766 54.121 206.484 56.0909 204.383 59.8185H206.048C207.799 56.4492 208.909 54.6903 211.15 51.8205C211.412 51.9657 211.713 52.0483 212.033 52.0483ZM202.783 43.9573C203.541 43.6054 204.329 43.3583 205.063 43.3583C206.215 43.3583 208.127 43.5846 208.8 44.1619C209.398 45.8394 209.205 47.6594 208.511 48.9599C208.295 49.3635 208.021 49.7906 207.738 50.2296C207.669 50.3375 207.599 50.4463 207.529 50.5555C206.811 51.6829 206.033 53.006 205.634 54.7909C205.151 56.9477 203.283 58.4141 201.254 59.3275C199.207 60.2493 196.846 60.6797 195.105 60.6797C193.54 60.6797 192.359 60.542 191.494 60.289C190.484 59.9936 189.79 59.5025 189.539 58.7704C189.295 58.057 189.551 57.3314 189.9 56.7486C190.603 55.5751 191.989 54.4711 192.808 53.9626C193.597 53.4727 194.346 52.4904 195.084 51.3612C195.299 51.0316 195.501 50.7096 195.701 50.3916L195.703 50.3874L195.705 50.3849L195.706 50.3826C195.846 50.1589 195.986 49.9371 196.127 49.716C196.46 49.1965 196.795 48.7006 197.127 48.3147C197.767 47.571 199.064 46.3518 200.513 45.3158C201.239 44.7963 202.018 44.3129 202.783 43.9573ZM232.276 52.0483C233.283 52.0483 234.1 51.2314 234.1 50.2236C234.1 49.2158 233.283 48.3988 232.276 48.3988C231.268 48.3988 230.451 49.2158 230.451 50.2236C230.451 50.4866 230.507 50.7367 230.607 50.9626C228.008 54.121 226.726 56.0909 224.625 59.8185H226.29C228.041 56.4492 229.151 54.6903 231.392 51.8205C231.654 51.9657 231.955 52.0483 232.276 52.0483ZM223.026 43.9573C223.783 43.6054 224.571 43.3583 225.305 43.3583C226.457 43.3583 228.369 43.5846 229.043 44.1619C229.64 45.8394 229.447 47.6594 228.753 48.9599C228.538 49.3635 228.263 49.7906 227.98 50.2296C227.911 50.3375 227.841 50.4463 227.771 50.5555C227.053 51.6829 226.275 53.006 225.876 54.7909C225.394 56.9477 223.525 58.4141 221.497 59.3275C219.449 60.2493 217.088 60.6797 215.347 60.6797C213.782 60.6797 212.601 60.542 211.736 60.289C210.726 59.9936 210.032 59.5025 209.782 58.7704C209.538 58.057 209.793 57.3314 210.142 56.7486C210.846 55.5751 212.231 54.4711 213.05 53.9626C213.84 53.4727 214.588 52.4904 215.326 51.3612C215.543 51.0293 215.746 50.7051 215.947 50.3849L215.949 50.3814L215.95 50.3793L215.952 50.3762C216.091 50.1547 216.229 49.935 216.369 49.716C216.702 49.1965 217.037 48.7006 217.369 48.3147C218.009 47.571 219.306 46.3518 220.755 45.3158C221.481 44.7963 222.26 44.3129 223.026 43.9573ZM252.518 52.0483C253.526 52.0483 254.343 51.2314 254.343 50.2236C254.343 49.2158 253.526 48.3988 252.518 48.3988C251.51 48.3988 250.693 49.2158 250.693 50.2236C250.693 50.4866 250.749 50.7367 250.849 50.9626C248.251 54.121 246.968 56.0909 244.867 59.8185H246.533C248.284 56.4492 249.393 54.6903 251.634 51.8205C251.896 51.9657 252.197 52.0483 252.518 52.0483ZM243.268 43.9573C244.026 43.6054 244.814 43.3583 245.547 43.3583C246.699 43.3583 248.611 43.5846 249.285 44.1619C249.882 45.8394 249.69 47.6594 248.995 48.9599C248.78 49.3635 248.505 49.7906 248.223 50.2296L248.221 50.2329C248.152 50.3398 248.083 50.4474 248.014 50.5555C247.295 51.6829 246.518 53.006 246.118 54.7909C245.636 56.9477 243.767 58.4141 241.739 59.3275C239.691 60.2493 237.331 60.6797 235.59 60.6797C234.024 60.6797 232.843 60.542 231.978 60.289C230.969 59.9936 230.274 59.5025 230.024 58.7704C229.78 58.057 230.035 57.3314 230.384 56.7486C231.088 55.5751 232.473 54.4711 233.293 53.9626C234.082 53.4727 234.831 52.4904 235.568 51.3612C235.784 51.0315 235.986 50.7095 236.185 50.3913L236.189 50.3849L236.191 50.382C236.331 50.1588 236.47 49.9367 236.612 49.716C236.944 49.1965 237.279 48.7006 237.611 48.3147C238.251 47.571 239.548 46.3518 240.997 45.3158C241.724 44.7963 242.502 44.3129 243.268 43.9573ZM263.51 43.9573C264.268 43.6054 265.056 43.3583 265.789 43.3583C266.941 43.3583 268.853 43.5846 269.527 44.1619C270.125 45.8394 269.932 47.6594 269.237 48.9599C269.023 49.3624 268.749 49.7882 268.467 50.2259L268.465 50.2296C268.395 50.3375 268.326 50.4463 268.256 50.5555C267.538 51.6829 266.76 53.006 266.36 54.7909C265.878 56.9477 264.01 58.4141 261.981 59.3275C259.933 60.2493 257.573 60.6797 255.832 60.6797C254.267 60.6797 253.085 60.542 252.22 60.289C251.211 59.9936 250.517 59.5025 250.266 58.7704C250.022 58.057 250.277 57.3314 250.627 56.7486C251.33 55.5751 252.716 54.4711 253.535 53.9626C254.324 53.4727 255.073 52.4904 255.81 51.3612C256.027 51.0297 256.23 50.706 256.431 50.3863L256.431 50.3849L256.434 50.3814L256.437 50.376L256.444 50.3649C256.58 50.1472 256.716 49.9313 256.854 49.716C257.187 49.1965 257.521 48.7006 257.853 48.3147C258.493 47.571 259.79 46.3518 261.239 45.3158C261.966 44.7963 262.744 44.3129 263.51 43.9573ZM191.791 72.1992C192.799 72.1992 193.616 73.0162 193.616 74.024C193.616 75.0317 192.799 75.8487 191.791 75.8487C190.783 75.8487 189.967 75.0317 189.967 74.024C189.967 73.7609 190.022 73.5109 190.122 73.2849C187.524 70.1266 186.241 68.1566 184.14 64.429H185.806C187.557 67.7983 188.666 69.5573 190.908 72.427C191.169 72.2819 191.471 72.1992 191.791 72.1992ZM182.541 80.2902C183.299 80.6422 184.087 80.8893 184.821 80.8893C185.972 80.8893 187.884 80.6629 188.558 80.0857C189.156 78.4081 188.963 76.5881 188.269 75.2877C188.053 74.8841 187.778 74.457 187.496 74.018C187.427 73.91 187.357 73.8013 187.287 73.692C186.569 72.5646 185.791 71.2415 185.392 69.4567C184.909 67.2998 183.041 65.8335 181.012 64.9201C178.965 63.9983 176.604 63.5678 174.863 63.5678C173.298 63.5678 172.116 63.7055 171.252 63.9585C170.242 64.2539 169.548 64.7451 169.297 65.4771C169.053 66.1905 169.308 66.9162 169.658 67.4989C170.361 68.6725 171.747 69.7764 172.566 70.2849C173.355 70.7748 174.104 71.7572 174.842 72.8863C175.057 73.216 175.259 73.5379 175.458 73.856L175.459 73.857L175.463 73.8627L175.464 73.8644C175.604 74.0883 175.743 74.3102 175.885 74.5316C176.218 75.051 176.552 75.5469 176.885 75.9329C177.524 76.6766 178.821 77.8957 180.27 78.9317C180.997 79.4512 181.775 79.9346 182.541 80.2902ZM212.033 72.1992C213.041 72.1992 213.858 73.0162 213.858 74.024C213.858 75.0317 213.041 75.8487 212.033 75.8487C211.026 75.8487 210.209 75.0317 210.209 74.024C210.209 73.7609 210.264 73.5109 210.365 73.2849C207.766 70.1266 206.484 68.1566 204.383 64.429H206.048C207.799 67.7983 208.909 69.5573 211.15 72.427C211.412 72.2819 211.713 72.1992 212.033 72.1992ZM202.783 80.2902C203.541 80.6422 204.329 80.8893 205.063 80.8893C206.215 80.8893 208.127 80.6629 208.8 80.0857C209.398 78.4081 209.205 76.5881 208.511 75.2877C208.295 74.8841 208.021 74.457 207.738 74.018L207.737 74.0155C207.668 73.9083 207.598 73.8004 207.529 73.692C206.811 72.5646 206.033 71.2415 205.634 69.4567C205.151 67.2998 203.283 65.8335 201.254 64.9201C199.207 63.9983 196.846 63.5678 195.105 63.5678C193.54 63.5678 192.359 63.7055 191.494 63.9585C190.484 64.2539 189.79 64.7451 189.539 65.4771C189.295 66.1905 189.551 66.9162 189.9 67.4989C190.603 68.6725 191.989 69.7764 192.808 70.2849C193.597 70.7748 194.346 71.7572 195.084 72.8863C195.3 73.2174 195.503 73.5408 195.703 73.8602L195.705 73.8627L195.707 73.8656C195.847 74.0891 195.986 74.3106 196.127 74.5316C196.46 75.051 196.795 75.5469 197.127 75.9329C197.767 76.6766 199.064 77.8957 200.513 78.9317C201.239 79.4512 202.018 79.9346 202.783 80.2902ZM232.276 72.1992C233.283 72.1992 234.1 73.0162 234.1 74.024C234.1 75.0317 233.283 75.8487 232.276 75.8487C231.268 75.8487 230.451 75.0317 230.451 74.024C230.451 73.7609 230.507 73.5109 230.607 73.2849C228.008 70.1266 226.726 68.1566 224.625 64.429H226.29C228.041 67.7983 229.151 69.5573 231.392 72.427C231.654 72.2819 231.955 72.1992 232.276 72.1992ZM223.026 80.2902C223.783 80.6422 224.571 80.8893 225.305 80.8893C226.457 80.8893 228.369 80.6629 229.043 80.0857C229.64 78.4081 229.447 76.5881 228.753 75.2877C228.538 74.8841 228.263 74.457 227.98 74.018C227.911 73.91 227.841 73.8013 227.771 73.692C227.053 72.5646 226.275 71.2415 225.876 69.4567C225.394 67.2998 223.525 65.8335 221.497 64.9201C219.449 63.9983 217.088 63.5678 215.347 63.5678C213.782 63.5678 212.601 63.7055 211.736 63.9585C210.726 64.2539 210.032 64.7451 209.782 65.4771C209.538 66.1905 209.793 66.9162 210.142 67.4989C210.846 68.6725 212.231 69.7764 213.05 70.2849C213.84 70.7748 214.588 71.7572 215.326 72.8863C215.543 73.2183 215.746 73.5424 215.947 73.8627L215.949 73.8656L215.952 73.8711L215.958 73.8794C216.095 74.0982 216.231 74.3152 216.369 74.5316C216.702 75.051 217.037 75.5469 217.369 75.9329C218.009 76.6766 219.306 77.8957 220.755 78.9317C221.481 79.4512 222.26 79.9346 223.026 80.2902ZM252.518 72.1992C253.526 72.1992 254.343 73.0162 254.343 74.024C254.343 75.0317 253.526 75.8487 252.518 75.8487C251.51 75.8487 250.693 75.0317 250.693 74.024C250.693 73.7609 250.749 73.5109 250.849 73.2849C248.251 70.1266 246.968 68.1566 244.867 64.429H246.533C248.284 67.7983 249.393 69.5573 251.634 72.427C251.896 72.2819 252.197 72.1992 252.518 72.1992ZM243.268 80.2902C244.026 80.6422 244.814 80.8893 245.547 80.8893C246.699 80.8893 248.611 80.6629 249.285 80.0857C249.882 78.4081 249.69 76.5881 248.995 75.2877C248.78 74.8841 248.505 74.457 248.223 74.018L248.156 73.9138L248.095 73.8187L248.014 73.692C247.295 72.5646 246.518 71.2415 246.118 69.4567C245.636 67.2998 243.767 65.8335 241.739 64.9201C239.691 63.9983 237.331 63.5678 235.59 63.5678C234.024 63.5678 232.843 63.7055 231.978 63.9585C230.969 64.2539 230.274 64.7451 230.024 65.4771C229.78 66.1905 230.035 66.9162 230.384 67.4989C231.088 68.6725 232.473 69.7764 233.293 70.2849C234.082 70.7748 234.831 71.7572 235.568 72.8863C235.784 73.216 235.986 73.5379 236.185 73.856L236.186 73.857L236.189 73.8627L236.19 73.8644L236.192 73.8673C236.258 73.9727 236.324 74.0779 236.39 74.1828C236.464 74.2994 236.537 74.4157 236.612 74.5316C236.944 75.051 237.279 75.5469 237.611 75.9329C238.251 76.6766 239.548 77.8957 240.997 78.9317C241.724 79.4512 242.502 79.9346 243.268 80.2902ZM263.51 80.2902C264.268 80.6422 265.056 80.8893 265.789 80.8893C266.941 80.8893 268.853 80.6629 269.527 80.0857C270.125 78.4081 269.932 76.5881 269.237 75.2877C269.022 74.8841 268.747 74.457 268.465 74.018C268.395 73.91 268.326 73.8013 268.256 73.692C267.538 72.5646 266.76 71.2415 266.36 69.4567C265.878 67.2998 264.01 65.8335 261.981 64.9201C259.933 63.9983 257.573 63.5678 255.832 63.5678C254.267 63.5678 253.085 63.7055 252.22 63.9585C251.211 64.2539 250.517 64.7451 250.266 65.4771C250.022 66.1905 250.277 66.9162 250.627 67.4989C251.33 68.6725 252.716 69.7764 253.535 70.2849C254.324 70.7748 255.073 71.7572 255.81 72.8863C256.027 73.2183 256.231 73.5424 256.431 73.8627L256.433 73.8656C256.573 74.0891 256.712 74.3106 256.854 74.5316C257.187 75.051 257.521 75.5469 257.853 75.9329C258.493 76.6766 259.79 77.8957 261.239 78.9317C261.966 79.4512 262.744 79.9346 263.51 80.2902ZM115.537 52.0483C114.53 52.0483 113.713 51.2314 113.713 50.2236C113.713 49.2158 114.53 48.3988 115.537 48.3988C116.545 48.3988 117.362 49.2158 117.362 50.2236C117.362 50.4866 117.307 50.7367 117.206 50.9626C119.805 54.121 121.087 56.091 123.188 59.8186H121.523C119.772 56.4492 118.662 54.6903 116.421 51.8205C116.159 51.9657 115.858 52.0483 115.537 52.0483ZM124.788 43.9573C124.03 43.6054 123.242 43.3583 122.508 43.3583C121.356 43.3583 119.444 43.5846 118.771 44.1619C118.173 45.8394 118.366 47.6594 119.06 48.9599C119.276 49.3635 119.55 49.7906 119.833 50.2296C119.902 50.3376 119.972 50.4463 120.042 50.5555C120.76 51.6829 121.538 53.006 121.937 54.7909C122.42 56.9477 124.288 58.4141 126.317 59.3275C128.364 60.2493 130.725 60.6797 132.466 60.6797C134.031 60.6797 135.212 60.542 136.077 60.289C137.087 59.9936 137.781 59.5025 138.032 58.7705C138.276 58.057 138.02 57.3314 137.671 56.7486C136.968 55.5751 135.582 54.4711 134.763 53.9626C133.974 53.4727 133.225 52.4904 132.487 51.3612C132.271 51.0296 132.068 50.7058 131.867 50.386L131.866 50.3849L131.865 50.3826L131.864 50.3811L131.862 50.3785C131.723 50.1562 131.585 49.9358 131.444 49.716C131.111 49.1965 130.776 48.7006 130.444 48.3147C129.804 47.571 128.507 46.3518 127.058 45.3158C126.332 44.7963 125.553 44.3129 124.788 43.9573ZM95.2953 52.0483C94.2875 52.0483 93.4705 51.2314 93.4705 50.2236C93.4705 49.2158 94.2875 48.3988 95.2953 48.3988C96.303 48.3988 97.12 49.2158 97.12 50.2236C97.12 50.4866 97.0644 50.7367 96.9642 50.9626C99.5627 54.121 100.845 56.091 102.946 59.8186H101.281C99.5295 56.4492 98.42 54.6903 96.1789 51.8205C95.9171 51.9657 95.6158 52.0483 95.2953 52.0483ZM104.545 43.9573C103.788 43.6054 103 43.3583 102.266 43.3583C101.114 43.3583 99.2022 43.5846 98.5285 44.1619C97.9308 45.8394 98.1236 47.6594 98.818 48.9599C99.0335 49.3635 99.3081 49.7906 99.5905 50.2296C99.6599 50.3376 99.7299 50.4463 99.7995 50.5555C100.518 51.6829 101.296 53.006 101.695 54.7909C102.177 56.9477 104.046 58.4141 106.074 59.3275C108.122 60.2493 110.483 60.6797 112.224 60.6797C113.789 60.6797 114.97 60.542 115.835 60.289C116.845 59.9936 117.539 59.5025 117.789 58.7705C118.033 58.057 117.778 57.3314 117.429 56.7486C116.725 55.5751 115.34 54.4711 114.521 53.9626C113.731 53.4727 112.983 52.4904 112.245 51.3612C112.028 51.0293 111.825 50.7051 111.624 50.3849L111.623 50.3826L111.621 50.3794C111.481 50.1568 111.343 49.9361 111.202 49.716C110.869 49.1965 110.534 48.7006 110.202 48.3147C109.562 47.571 108.265 46.3518 106.816 45.3158C106.09 44.7963 105.311 44.3129 104.545 43.9573ZM75.053 52.0483C74.0453 52.0483 73.2283 51.2314 73.2283 50.2236C73.2283 49.2158 74.0453 48.3988 75.053 48.3988C76.0608 48.3988 76.8778 49.2158 76.8778 50.2236C76.8778 50.4866 76.8221 50.7367 76.7219 50.9626C79.3204 54.121 80.6029 56.091 82.704 59.8186H81.0385C79.2873 56.4492 78.1778 54.6903 75.9366 51.8205C75.6748 51.9657 75.3736 52.0483 75.053 52.0483ZM84.3032 43.9573C83.5454 43.6054 82.7574 43.3583 82.0238 43.3583C80.872 43.3583 78.96 43.5846 78.2862 44.1619C77.6886 45.8394 77.8814 47.6594 78.5757 48.9599C78.7912 49.3635 79.0659 49.7906 79.3483 50.2296L79.3504 50.2329C79.4192 50.3398 79.4883 50.4474 79.5572 50.5555C80.2756 51.6829 81.0535 53.006 81.4527 54.7909C81.9352 56.9477 83.8035 58.4141 85.8322 59.3275C87.8797 60.2493 90.2404 60.6797 91.9813 60.6797C93.5466 60.6797 94.728 60.542 95.5928 60.289C96.6024 59.9936 97.2967 59.5025 97.5471 58.7705C97.7911 58.057 97.5358 57.3314 97.1865 56.7486C96.4832 55.5751 95.0977 54.4711 94.2784 53.9626C93.4892 53.4727 92.7404 52.4904 92.0027 51.3612C91.7859 51.0293 91.5826 50.7051 91.3818 50.3849L91.3791 50.3806C91.2392 50.1576 91.1005 49.9365 90.9593 49.716C90.6265 49.1965 90.2918 48.7006 89.9598 48.3147C89.3198 47.571 88.0228 46.3518 86.5739 45.3158C85.8473 44.7963 85.0688 44.3129 84.3032 43.9573ZM54.8108 52.0483C53.803 52.0483 52.9861 51.2314 52.9861 50.2236C52.9861 49.2158 53.803 48.3988 54.8108 48.3988C55.8186 48.3988 56.6356 49.2158 56.6356 50.2236C56.6356 50.4866 56.5799 50.7367 56.4797 50.9626C59.0782 54.121 60.3607 56.091 62.4618 59.8186H60.7962C59.045 56.4492 57.9356 54.6903 55.6944 51.8205C55.4326 51.9657 55.1314 52.0483 54.8108 52.0483ZM64.061 43.9573C63.3032 43.6054 62.5152 43.3583 61.7815 43.3583C60.6298 43.3583 58.7177 43.5846 58.044 44.1619C57.4464 45.8394 57.6392 47.6594 58.3335 48.9599C58.549 49.3635 58.8237 49.7906 59.106 50.2296L59.1082 50.2329C59.1769 50.3398 59.2461 50.4474 59.315 50.5555C60.0334 51.6829 60.8112 53.006 61.2105 54.7909C61.693 56.9477 63.5613 58.4141 65.59 59.3275C67.6375 60.2493 69.9982 60.6797 71.7391 60.6797C73.3044 60.6797 74.4858 60.542 75.3505 60.289C76.3602 59.9936 77.0545 59.5025 77.3049 58.7705C77.5489 58.057 77.2936 57.3314 76.9443 56.7486C76.241 55.5751 74.8554 54.4711 74.0361 53.9626C73.2469 53.4727 72.4982 52.4904 71.7605 51.3612C71.5437 51.0293 71.3404 50.7051 71.1395 50.3849L71.1368 50.3806C70.997 50.1576 70.8583 49.9365 70.717 49.716C70.3843 49.1965 70.0496 48.7006 69.7175 48.3147C69.0776 47.571 67.7806 46.3518 66.3317 45.3158C65.6051 44.7963 64.8266 44.3129 64.061 43.9573ZM43.8188 43.9573C43.061 43.6054 42.2729 43.3583 41.5393 43.3583C40.3876 43.3583 38.4755 43.5846 37.8018 44.1619C37.2042 45.8394 37.397 47.6594 38.0913 48.9599C38.3068 49.3635 38.5815 49.7906 38.8638 50.2296L38.8659 50.2329L38.8683 50.2366L38.8691 50.2377C38.9368 50.343 39.0049 50.449 39.0728 50.5555C39.7911 51.6829 40.569 53.006 40.9683 54.7909C41.4507 56.9477 43.3191 58.4141 45.3478 59.3275C47.3953 60.2493 49.7559 60.6797 51.4969 60.6797C53.0622 60.6797 54.2435 60.542 55.1083 60.289C56.118 59.9936 56.8122 59.5025 57.0626 58.7705C57.3067 58.057 57.0513 57.3314 56.7021 56.7486C55.9987 55.5751 54.6132 54.4711 53.7939 53.9626C53.0047 53.4727 52.2559 52.4904 51.5183 51.3612C51.3014 51.0293 51.0981 50.7051 50.8973 50.3849C50.7567 50.1606 50.6168 49.9377 50.4748 49.716C50.1421 49.1965 49.8074 48.7006 49.4753 48.3147C48.8354 47.571 47.5384 46.3518 46.0894 45.3158C45.3629 44.7963 44.5844 44.3129 43.8188 43.9573ZM115.537 72.1992C114.53 72.1992 113.713 73.0162 113.713 74.024C113.713 75.0318 114.53 75.8487 115.537 75.8487C116.545 75.8487 117.362 75.0318 117.362 74.024C117.362 73.7609 117.307 73.5109 117.206 73.285C119.805 70.1266 121.087 68.1566 123.188 64.429H121.523C119.772 67.7983 118.662 69.5573 116.421 72.4271C116.159 72.2819 115.858 72.1992 115.537 72.1992ZM124.788 80.2902C124.03 80.6422 123.242 80.8893 122.508 80.8893C121.356 80.8893 119.444 80.6629 118.771 80.0857C118.173 78.4081 118.366 76.5881 119.06 75.2877C119.276 74.8841 119.55 74.457 119.833 74.018L119.833 74.017C119.903 73.9094 119.972 73.801 120.042 73.692C120.76 72.5646 121.538 71.2416 121.937 69.4567C122.42 67.2998 124.288 65.8335 126.317 64.9201C128.364 63.9983 130.725 63.5678 132.466 63.5678C134.031 63.5678 135.212 63.7055 136.077 63.9586C137.087 64.254 137.781 64.7451 138.032 65.4771C138.276 66.1905 138.02 66.9162 137.671 67.4989C136.968 68.6725 135.582 69.7764 134.763 70.285C133.974 70.7748 133.225 71.7572 132.487 72.8864C132.271 73.2176 132.067 73.5418 131.867 73.8613L131.866 73.8627L131.865 73.8645L131.862 73.8688C131.723 74.0912 131.585 74.3117 131.444 74.5316C131.111 75.0511 130.776 75.547 130.444 75.9329C129.804 76.6766 128.507 77.8957 127.058 78.9317C126.332 79.4512 125.553 79.9346 124.788 80.2902ZM95.2953 72.1992C94.2875 72.1992 93.4705 73.0162 93.4705 74.024C93.4705 75.0318 94.2875 75.8487 95.2953 75.8487C96.303 75.8487 97.12 75.0318 97.12 74.024C97.12 73.7609 97.0644 73.5109 96.9642 73.285C99.5627 70.1266 100.845 68.1566 102.946 64.429H101.281C99.5295 67.7983 98.42 69.5573 96.1789 72.4271C95.9171 72.2819 95.6158 72.1992 95.2953 72.1992ZM104.545 80.2902C103.788 80.6422 103 80.8893 102.266 80.8893C101.114 80.8893 99.2022 80.6629 98.5285 80.0857C97.9308 78.4081 98.1236 76.5881 98.818 75.2877C99.0335 74.8841 99.3081 74.457 99.5905 74.018L99.5921 74.0155C99.661 73.9083 99.7304 73.8005 99.7995 73.692C100.518 72.5646 101.296 71.2416 101.695 69.4567C102.177 67.2998 104.046 65.8335 106.074 64.9201C108.122 63.9983 110.483 63.5678 112.224 63.5678C113.789 63.5678 114.97 63.7055 115.835 63.9586C116.845 64.254 117.539 64.7451 117.789 65.4771C118.033 66.1905 117.778 66.9162 117.429 67.4989C116.725 68.6725 115.34 69.7764 114.521 70.285C113.731 70.7748 112.983 71.7572 112.245 72.8864C112.028 73.2183 111.825 73.5425 111.624 73.8627L111.622 73.8657L111.62 73.8694C111.48 74.0916 111.342 74.3119 111.202 74.5316C110.869 75.0511 110.534 75.547 110.202 75.9329C109.562 76.6766 108.265 77.8957 106.816 78.9317C106.09 79.4512 105.311 79.9346 104.545 80.2902ZM75.053 72.1992C74.0453 72.1992 73.2283 73.0162 73.2283 74.024C73.2283 75.0318 74.0453 75.8487 75.053 75.8487C76.0608 75.8487 76.8778 75.0318 76.8778 74.024C76.8778 73.7609 76.8221 73.5109 76.7219 73.285C79.3204 70.1266 80.6029 68.1566 82.704 64.429H81.0385C79.2873 67.7983 78.1778 69.5573 75.9366 72.4271C75.6748 72.2819 75.3736 72.1992 75.053 72.1992ZM84.3032 80.2902C83.5454 80.6422 82.7574 80.8893 82.0238 80.8893C80.872 80.8893 78.96 80.6629 78.2862 80.0857C77.6886 78.4081 77.8814 76.5881 78.5757 75.2877C78.7912 74.8841 79.0659 74.457 79.3483 74.018C79.4177 73.91 79.4876 73.8013 79.5572 73.692C80.2756 72.5646 81.0535 71.2416 81.4527 69.4567C81.9352 67.2998 83.8035 65.8335 85.8322 64.9201C87.8797 63.9983 90.2404 63.5678 91.9813 63.5678C93.5466 63.5678 94.728 63.7055 95.5928 63.9586C96.6024 64.254 97.2967 64.7451 97.5471 65.4771C97.7911 66.1905 97.5358 66.9162 97.1865 67.4989C96.4832 68.6725 95.0977 69.7764 94.2784 70.285C93.4892 70.7748 92.7404 71.7572 92.0027 72.8864C91.7859 73.2183 91.5826 73.5425 91.3818 73.8627L91.3796 73.8662C91.2397 74.0892 91.1006 74.311 90.9593 74.5316C90.6265 75.0511 90.2918 75.547 89.9598 75.9329C89.3198 76.6766 88.0228 77.8957 86.5739 78.9317C85.8473 79.4512 85.0688 79.9346 84.3032 80.2902ZM54.8108 72.1992C53.803 72.1992 52.9861 73.0162 52.9861 74.024C52.9861 75.0318 53.803 75.8487 54.8108 75.8487C55.8186 75.8487 56.6356 75.0318 56.6356 74.024C56.6356 73.7609 56.5799 73.5109 56.4797 73.285C59.0782 70.1266 60.3607 68.1566 62.4618 64.429H60.7962C59.045 67.7983 57.9356 69.5573 55.6944 72.4271C55.4326 72.2819 55.1314 72.1992 54.8108 72.1992ZM64.061 80.2902C63.3032 80.6422 62.5152 80.8893 61.7815 80.8893C60.6298 80.8893 58.7177 80.6629 58.044 80.0857C57.4464 78.4081 57.6392 76.5881 58.3335 75.2877C58.549 74.8841 58.8237 74.457 59.106 74.018L59.1067 74.017L59.1083 74.0145L59.2018 73.869C59.2396 73.8102 59.2773 73.7512 59.315 73.692C60.0334 72.5646 60.8112 71.2416 61.2105 69.4567C61.693 67.2998 63.5613 65.8335 65.59 64.9201C67.6375 63.9983 69.9982 63.5678 71.7391 63.5678C73.3044 63.5678 74.4858 63.7055 75.3505 63.9586C76.3602 64.254 77.0545 64.7451 77.3049 65.4771C77.5489 66.1905 77.2936 66.9162 76.9443 67.4989C76.241 68.6725 74.8554 69.7764 74.0361 70.285C73.2469 70.7748 72.4982 71.7572 71.7605 72.8864C71.5437 73.2183 71.3404 73.5425 71.1395 73.8627L71.1377 73.8657L71.1353 73.8694C70.996 74.0916 70.8578 74.3119 70.717 74.5316C70.3843 75.0511 70.0496 75.547 69.7175 75.9329C69.0776 76.6766 67.7806 77.8957 66.3317 78.9317C65.6051 79.4512 64.8266 79.9346 64.061 80.2902ZM43.8188 80.2902C43.061 80.6422 42.2729 80.8893 41.5393 80.8893C40.3876 80.8893 38.4755 80.6629 37.8018 80.0857C37.2042 78.4081 37.397 76.5881 38.0913 75.2877C38.3068 74.8841 38.5815 74.457 38.8638 74.018C38.9333 73.91 39.0032 73.8013 39.0728 73.692C39.7911 72.5646 40.569 71.2416 40.9683 69.4567C41.4507 67.2998 43.3191 65.8335 45.3478 64.9201C47.3953 63.9983 49.7559 63.5678 51.4969 63.5678C53.0622 63.5678 54.2435 63.7055 55.1083 63.9586C56.118 64.254 56.8122 64.7451 57.0626 65.4771C57.3067 66.1905 57.0513 66.9162 56.7021 67.4989C55.9987 68.6725 54.6132 69.7764 53.7939 70.285C53.0047 70.7748 52.2559 71.7572 51.5183 72.8864C51.3021 73.2173 51.0994 73.5405 50.8992 73.8597L50.8982 73.8612L50.8973 73.8627C50.7567 74.0869 50.6168 74.3099 50.4748 74.5316C50.1421 75.0511 49.8074 75.547 49.4753 75.9329C48.8354 76.6766 47.5384 77.8957 46.0894 78.9317C45.3629 79.4512 44.5844 79.9346 43.8188 80.2902ZM156.831 62.8548V68.4891L150.498 68.4891V62.8548H144.864V56.524H150.498V50.8897L156.831 50.8897V56.524H162.465V62.8548H156.831ZM177.772 49.078C178.343 48.4136 179.569 47.2562 180.951 46.2678C181.64 45.7751 182.355 45.3343 183.034 45.0187C183.721 44.6995 184.33 44.5285 184.821 44.5285C185.75 44.5285 186.951 44.6571 187.373 45.0187C188.183 45.7127 187.053 46.2392 185.704 46.8674C185.095 47.1511 184.442 47.4554 183.903 47.8053C182.463 48.739 181.057 49.9293 180.18 51.1074C179.523 51.9913 179.12 52.8415 178.791 53.5371L178.789 53.5412C178.689 53.753 178.595 53.9504 178.503 54.13C178.108 54.9032 177.721 55.421 176.901 55.7558C176.57 55.8908 176.243 56.0127 175.918 56.1341C174.405 56.6982 172.924 57.2502 171.24 59.0511C170.656 58.8243 170.465 58.5672 170.404 58.3917C170.328 58.1672 170.376 57.8265 170.662 57.3502C171.228 56.4058 172.435 55.4212 173.183 54.9569C174.219 54.3138 175.091 53.1185 175.821 52.0013C176.039 51.6672 176.258 51.319 176.467 50.9867C176.607 50.7633 176.742 50.5471 176.87 50.3472C177.201 49.8311 177.498 49.3961 177.772 49.078ZM201.193 46.2678C199.811 47.2562 198.586 48.4136 198.014 49.078C197.74 49.3961 197.443 49.8311 197.113 50.3472C196.985 50.5471 196.849 50.7633 196.709 50.9867L196.707 50.9893C196.499 51.3208 196.281 51.6681 196.064 52.0013C195.334 53.1185 194.461 54.3138 193.425 54.9569C192.677 55.4212 191.47 56.4058 190.904 57.3502C190.618 57.8265 190.57 58.1672 190.647 58.3917C190.707 58.5672 190.898 58.8243 191.482 59.0511C193.167 57.2502 194.647 56.6982 196.16 56.1341C196.485 56.0127 196.812 55.8908 197.143 55.7558C197.963 55.421 198.35 54.9032 198.746 54.13C198.838 53.9504 198.931 53.753 199.031 53.5412L199.033 53.5371C199.363 52.8415 199.765 51.9913 200.423 51.1074C201.299 49.9293 202.705 48.739 204.145 47.8053C204.684 47.4554 205.338 47.1511 205.946 46.8674C207.295 46.2392 208.425 45.7127 207.615 45.0187C207.193 44.6571 205.992 44.5285 205.063 44.5285C204.572 44.5285 203.963 44.6995 203.276 45.0187C202.597 45.3343 201.882 45.7751 201.193 46.2678ZM218.256 49.078C218.828 48.4136 220.053 47.2562 221.436 46.2678C222.125 45.7751 222.839 45.3343 223.518 45.0187C224.206 44.6995 224.815 44.5285 225.305 44.5285C226.234 44.5285 227.435 44.6571 227.857 45.0187C228.667 45.7127 227.537 46.2392 226.189 46.8674C225.58 47.1511 224.927 47.4554 224.387 47.8053C222.947 48.739 221.541 49.9293 220.665 51.1074C220.007 51.9913 219.605 52.8415 219.275 53.5371C219.174 53.7504 219.08 53.9492 218.988 54.13C218.592 54.9032 218.206 55.421 217.385 55.7558C217.054 55.8908 216.727 56.0127 216.402 56.1341C214.889 56.6982 213.409 57.2502 211.724 59.0511C211.14 58.8243 210.949 58.5672 210.889 58.3917C210.812 58.1672 210.861 57.8265 211.146 57.3502C211.712 56.4058 212.92 55.4212 213.668 54.9569C214.704 54.3138 215.576 53.1185 216.306 52.0013C216.521 51.6715 216.737 51.3278 216.943 50.9993L216.947 50.9931L216.95 50.9881L216.951 50.9867L216.953 50.9842L216.954 50.9826C217.093 50.7607 217.228 50.5459 217.355 50.3472C217.686 49.8311 217.982 49.3961 218.256 49.078ZM241.678 46.2678C240.295 47.2562 239.07 48.4136 238.498 49.078C238.225 49.3961 237.928 49.8311 237.597 50.3472C237.469 50.5471 237.333 50.7633 237.193 50.9867L237.192 50.9881L237.191 50.9896C236.983 51.321 236.766 51.6683 236.548 52.0013C235.818 53.1185 234.946 54.3138 233.91 54.9569C233.162 55.4212 231.954 56.4058 231.388 57.3502C231.103 57.8265 231.054 58.1672 231.131 58.3917C231.191 58.5672 231.382 58.8243 231.966 59.0511C233.651 57.2502 235.131 56.6982 236.644 56.1341L236.645 56.1337C236.97 56.0125 237.297 55.8907 237.627 55.7558C238.448 55.421 238.835 54.9032 239.23 54.13C239.322 53.95 239.416 53.7521 239.516 53.5398L239.518 53.5371C239.847 52.8415 240.249 51.9913 240.907 51.1074C241.784 49.9293 243.19 48.739 244.629 47.8053C245.169 47.4554 245.822 47.1511 246.431 46.8674C247.779 46.2392 248.91 45.7127 248.1 45.0187C247.678 44.6571 246.477 44.5285 245.547 44.5285C245.057 44.5285 244.448 44.6995 243.761 45.0187C243.081 45.3343 242.367 45.7751 241.678 46.2678ZM258.741 49.078C259.312 48.4136 260.538 47.2562 261.92 46.2678C262.609 45.7751 263.324 45.3343 264.003 45.0187C264.69 44.6995 265.299 44.5285 265.789 44.5285C266.719 44.5285 267.92 44.6571 268.342 45.0187C269.152 45.7127 268.022 46.2391 266.673 46.8674C266.064 47.151 265.411 47.4554 264.872 47.8053C263.432 48.739 262.026 49.9293 261.149 51.1074C260.492 51.9913 260.089 52.8415 259.76 53.5371L259.759 53.5384C259.659 53.7512 259.565 53.9496 259.472 54.13C259.077 54.9032 258.69 55.421 257.87 55.7558C257.54 55.8905 257.213 56.0122 256.889 56.1332L256.887 56.1341C255.374 56.6982 253.893 57.2502 252.209 59.0511C251.625 58.8243 251.433 58.5672 251.373 58.3917C251.297 58.1672 251.345 57.8265 251.63 57.3502C252.196 56.4058 253.404 55.4212 254.152 54.9569C255.188 54.3138 256.06 53.1185 256.79 52.0013C257.007 51.6688 257.225 51.3223 257.433 50.9914L257.435 50.9881L257.435 50.9867C257.576 50.7633 257.711 50.5471 257.839 50.3472C258.17 49.8311 258.467 49.3961 258.741 49.078ZM284.319 61.6599C284.061 61.1311 283.62 60.4178 282.901 59.7016C281.474 58.2823 278.892 56.7944 274.274 56.7944C272.503 56.7944 271.298 57.6401 270.133 58.7355C269.864 58.988 269.602 59.2491 269.334 59.516L269.261 59.5887C268.971 59.8784 268.673 60.1739 268.365 60.4554C267.751 61.0177 267.075 61.5483 266.277 61.9066C275.912 61.4439 280.42 61.4295 284.636 62.4548C284.605 62.3481 284.514 62.0564 284.319 61.6599ZM258.741 75.1696C259.312 75.8339 260.538 76.9913 261.92 77.9797C262.609 78.4725 263.324 78.9133 264.003 79.2288C264.69 79.548 265.299 79.719 265.789 79.719C266.719 79.719 267.92 79.5904 268.342 79.2288C269.152 78.5349 268.022 78.0084 266.673 77.3801C266.064 77.0965 265.411 76.7921 264.872 76.4423C263.432 75.5085 262.026 74.3183 261.149 73.1401C260.492 72.2562 260.089 71.4061 259.76 70.7105L259.759 70.7094C259.659 70.4964 259.565 70.298 259.472 70.1175C259.077 69.3444 258.69 68.8266 257.87 68.4917C257.539 68.3568 257.212 68.2348 256.887 68.1135C255.374 67.5494 253.893 66.9973 252.209 65.1964C251.625 65.4232 251.433 65.6804 251.373 65.8559C251.297 66.0804 251.345 66.421 251.63 66.8973C252.196 67.8417 253.404 68.8263 254.152 69.2906C255.188 69.9337 256.06 71.129 256.79 72.2463C257.008 72.579 257.225 72.9258 257.433 73.257L257.435 73.2594L257.435 73.2608C257.576 73.4842 257.711 73.7005 257.839 73.9003C258.17 74.4165 258.467 74.8514 258.741 75.1696ZM241.678 77.9797C240.295 76.9913 239.07 75.8339 238.498 75.1696C238.225 74.8514 237.928 74.4165 237.597 73.9003C237.554 73.8333 237.51 73.7644 237.466 73.694C237.423 73.6261 237.379 73.5568 237.335 73.4864L237.193 73.2608L237.192 73.2594C236.984 72.9275 236.766 72.5798 236.548 72.2463C235.818 71.129 234.946 69.9337 233.91 69.2906C233.162 68.8263 231.954 67.8417 231.388 66.8973C231.103 66.421 231.054 66.0804 231.131 65.8559C231.191 65.6804 231.382 65.4232 231.966 65.1964C233.651 66.9973 235.131 67.5494 236.644 68.1135C236.97 68.2348 237.297 68.3568 237.627 68.4917C238.448 68.8266 238.835 69.3444 239.23 70.1175C239.323 70.2982 239.417 70.4972 239.518 70.7105C239.847 71.4061 240.249 72.2562 240.907 73.1401C241.784 74.3183 243.19 75.5085 244.629 76.4423C245.169 76.7921 245.822 77.0965 246.431 77.3801C247.779 78.0084 248.91 78.5349 248.1 79.2288C247.678 79.5904 246.477 79.719 245.547 79.719C245.057 79.719 244.448 79.548 243.761 79.2288C243.081 78.9133 242.367 78.4725 241.678 77.9797ZM218.256 75.1696C218.828 75.8339 220.053 76.9913 221.436 77.9797C222.125 78.4725 222.839 78.9133 223.518 79.2288C224.206 79.548 224.815 79.719 225.305 79.719C226.234 79.719 227.435 79.5904 227.857 79.2288C228.667 78.5349 227.537 78.0084 226.189 77.3801C225.58 77.0965 224.927 76.7921 224.387 76.4423C222.947 75.5085 221.541 74.3183 220.665 73.1401C220.007 72.2562 219.605 71.4061 219.275 70.7105C219.175 70.4972 219.08 70.2982 218.988 70.1175C218.592 69.3444 218.206 68.8266 217.385 68.4917C217.054 68.3568 216.727 68.2348 216.402 68.1135C214.889 67.5494 213.409 66.9973 211.724 65.1964C211.14 65.4232 210.949 65.6804 210.889 65.8559C210.812 66.0804 210.861 66.421 211.146 66.8973C211.712 67.8417 212.92 68.8263 213.668 69.2906C214.704 69.9337 215.576 71.129 216.306 72.2463C216.522 72.5774 216.739 72.9225 216.946 73.2522L216.947 73.2552L216.95 73.2594L216.951 73.2608L216.952 73.2627C217.092 73.4855 217.227 73.701 217.355 73.9003C217.686 74.4165 217.982 74.8514 218.256 75.1696ZM201.193 77.9797C199.811 76.9913 198.586 75.8339 198.014 75.1696C197.74 74.8514 197.443 74.4165 197.113 73.9003C196.985 73.7005 196.849 73.4842 196.709 73.2608L196.707 73.2588C196.499 72.9271 196.281 72.5796 196.064 72.2463C195.334 71.129 194.461 69.9337 193.425 69.2906C192.677 68.8263 191.47 67.8417 190.904 66.8973C190.618 66.421 190.57 66.0804 190.647 65.8559C190.707 65.6804 190.898 65.4232 191.482 65.1964C193.167 66.9973 194.647 67.5494 196.16 68.1135C196.485 68.2348 196.812 68.3567 197.143 68.4917C197.963 68.8266 198.35 69.3444 198.746 70.1175C198.838 70.2982 198.932 70.4972 199.033 70.7105C199.363 71.4061 199.765 72.2562 200.423 73.1401C201.299 74.3183 202.705 75.5085 204.145 76.4423C204.684 76.7921 205.338 77.0965 205.946 77.3801C207.295 78.0084 208.425 78.5349 207.615 79.2288C207.193 79.5904 205.992 79.719 205.063 79.719C204.572 79.719 203.963 79.548 203.276 79.2288C202.597 78.9133 201.882 78.4725 201.193 77.9797ZM177.772 75.1696C178.343 75.8339 179.569 76.9913 180.951 77.9797C181.64 78.4725 182.355 78.9133 183.034 79.2288C183.721 79.548 184.33 79.719 184.821 79.719C185.75 79.719 186.951 79.5904 187.373 79.2288C188.183 78.5349 187.053 78.0084 185.704 77.3801C185.095 77.0965 184.442 76.7921 183.903 76.4423C182.463 75.5085 181.057 74.3183 180.18 73.1401C179.523 72.2562 179.12 71.4061 178.791 70.7105L178.79 70.708C178.689 70.4957 178.596 70.2975 178.503 70.1175C178.108 69.3444 177.721 68.8266 176.901 68.4917C176.57 68.3567 176.243 68.2348 175.918 68.1135C174.405 67.5494 172.924 66.9973 171.24 65.1964C170.656 65.4232 170.465 65.6804 170.404 65.8559C170.328 66.0804 170.376 66.421 170.662 66.8973C171.228 67.8417 172.435 68.8263 173.183 69.2906C174.219 69.9337 175.091 71.129 175.821 72.2463C176.039 72.5803 176.258 72.9285 176.467 73.2608L176.468 73.2627C176.607 73.4855 176.743 73.701 176.87 73.9003C177.201 74.4165 177.498 74.8514 177.772 75.1696ZM23.0092 61.6599C23.2682 61.1311 23.7083 60.4178 24.4281 59.7016C25.8544 58.2823 28.4368 56.7944 33.0549 56.7944C34.8256 56.7944 36.0303 57.6401 37.1961 58.7355C37.4648 58.988 37.7267 59.2491 37.9944 59.516L38.0674 59.5887C38.3581 59.8784 38.6562 60.1739 38.9637 60.4554C39.5778 61.0177 40.2541 61.5483 41.0514 61.9066C31.4167 61.4439 26.9089 61.4295 22.6932 62.4548C22.7235 62.3481 22.8151 62.0564 23.0092 61.6599ZM48.5882 49.078C48.0165 48.4136 46.7912 47.2563 45.4088 46.2678C44.7196 45.7751 44.0052 45.3343 43.3258 45.0187C42.6386 44.6995 42.0296 44.5285 41.5393 44.5285C40.6098 44.5285 39.409 44.6571 38.9869 45.0187C38.177 45.7127 39.3071 46.2392 40.6557 46.8675C41.2644 47.1511 41.9177 47.4554 42.4571 47.8053C43.8968 48.739 45.3028 49.9293 46.1794 51.1074C46.837 51.9914 47.2395 52.8415 47.5688 53.5371C47.6698 53.7504 47.7639 53.9493 47.8564 54.13C48.252 54.9032 48.6388 55.421 49.4591 55.7558C49.7893 55.8906 50.1161 56.0124 50.4409 56.1336L50.4422 56.1341C51.9551 56.6982 53.4355 57.2502 55.1202 59.0511C55.704 58.8243 55.8953 58.5672 55.9553 58.3917C56.0321 58.1672 55.9837 57.8265 55.6983 57.3502C55.1323 56.4058 53.9248 55.4212 53.1768 54.9569C52.1407 54.3138 51.2684 53.1185 50.5385 52.0013C50.3209 51.668 50.1029 51.3207 49.8948 50.9891L49.8942 50.9882L49.8933 50.9868C49.7531 50.7633 49.6174 50.5471 49.4894 50.3472C49.1587 49.8311 48.862 49.3961 48.5882 49.078ZM45.4088 77.9798C46.7912 76.9913 48.0165 75.834 48.5882 75.1696C48.862 74.8514 49.1587 74.4165 49.4894 73.9003C49.6174 73.7005 49.7531 73.4843 49.8933 73.2608L49.8942 73.2594C50.1024 72.9276 50.3206 72.5799 50.5385 72.2463C51.2684 71.129 52.1407 69.9337 53.1768 69.2906C53.9248 68.8263 55.1323 67.8417 55.6983 66.8973C55.9837 66.4211 56.0321 66.0804 55.9553 65.8559C55.8953 65.6804 55.704 65.4233 55.1202 65.1964C53.4355 66.9974 51.9551 67.5494 50.4422 68.1135C50.117 68.2348 49.7897 68.3568 49.4591 68.4917C48.6388 68.8266 48.252 69.3444 47.8564 70.1175C47.7639 70.2983 47.6698 70.4971 47.5688 70.7105C47.2395 71.4061 46.837 72.2562 46.1794 73.1402C45.3028 74.3183 43.8968 75.5086 42.4571 76.4423C41.9177 76.7922 41.2644 77.0965 40.6556 77.3801C39.3071 78.0084 38.177 78.5349 38.9869 79.2288C39.409 79.5905 40.6098 79.719 41.5393 79.719C42.0296 79.719 42.6386 79.548 43.3258 79.2288C44.0052 78.9133 44.7196 78.4725 45.4088 77.9798ZM68.8305 75.1696C68.2588 75.834 67.0334 76.9913 65.651 77.9798C64.9619 78.4725 64.2474 78.9133 63.568 79.2288C62.8808 79.548 62.2718 79.719 61.7815 79.719C60.8521 79.719 59.6512 79.5905 59.2292 79.2288C58.4192 78.5349 59.5493 78.0084 60.8979 77.3801C61.5066 77.0965 62.1599 76.7922 62.6993 76.4423C64.139 75.5086 65.5451 74.3183 66.4216 73.1402C67.0793 72.2562 67.4817 71.4061 67.811 70.7105C67.912 70.4973 68.0062 70.2982 68.0986 70.1175C68.4942 69.3444 68.881 68.8266 69.7014 68.4917C70.032 68.3568 70.3591 68.2348 70.6845 68.1135C72.1973 67.5494 73.6777 66.9974 75.3624 65.1964C75.9463 65.4233 76.1375 65.6804 76.1976 65.8559C76.2744 66.0804 76.2259 66.4211 75.9405 66.8973C75.3745 67.8417 74.167 68.8263 73.419 69.2906C72.3829 69.9337 71.5107 71.129 70.7808 72.2463C70.5631 72.5794 70.3452 72.9267 70.1372 73.2582L70.1364 73.2594L70.1356 73.2608C69.9953 73.4843 69.8597 73.7005 69.7316 73.9003C69.401 74.4165 69.1042 74.8514 68.8305 75.1696ZM85.8932 77.9798C87.2757 76.9913 88.501 75.834 89.0727 75.1696C89.3464 74.8514 89.6432 74.4165 89.9738 73.9003C90.1019 73.7005 90.2376 73.4843 90.3778 73.2608L90.3786 73.2594C90.5869 72.9276 90.8051 72.5799 91.023 72.2463C91.7529 71.129 92.6251 69.9337 93.6612 69.2906C94.4092 68.8263 95.6167 67.8417 96.1827 66.8973C96.4682 66.4211 96.5166 66.0804 96.4398 65.8559C96.3798 65.6804 96.1885 65.4233 95.6046 65.1964C93.92 66.9974 92.4396 67.5494 90.9267 68.1135C90.6014 68.2348 90.2743 68.3568 89.9436 68.4917C89.1232 68.8266 88.7364 69.3444 88.3409 70.1175C88.2484 70.2982 88.1542 70.4973 88.0533 70.7105C87.724 71.4061 87.3215 72.2562 86.6638 73.1402C85.7873 74.3183 84.3813 75.5086 82.9416 76.4423C82.4021 76.7922 81.7488 77.0965 81.1401 77.3801C79.7915 78.0084 78.6615 78.5349 79.4714 79.2288C79.8934 79.5905 81.0943 79.719 82.0238 79.719C82.514 79.719 83.123 79.548 83.8102 79.2288C84.4897 78.9133 85.2041 78.4725 85.8932 77.9798ZM109.315 75.1696C108.743 75.834 107.518 76.9913 106.135 77.9798C105.446 78.4725 104.732 78.9133 104.052 79.2288C103.365 79.548 102.756 79.719 102.266 79.719C101.337 79.719 100.136 79.5905 99.7136 79.2288C98.9037 78.5349 100.034 78.0084 101.382 77.3801C101.991 77.0965 102.644 76.7922 103.184 76.4423C104.623 75.5086 106.029 74.3183 106.906 73.1402C107.564 72.2562 107.966 71.4061 108.295 70.7105C108.396 70.4973 108.491 70.2982 108.583 70.1175C108.979 69.3444 109.365 68.8266 110.186 68.4917C110.517 68.3567 110.844 68.2348 111.169 68.1135C112.682 67.5494 114.162 66.9974 115.847 65.1964C116.431 65.4233 116.622 65.6804 116.682 65.8559C116.759 66.0804 116.71 66.4211 116.425 66.8973C115.859 67.8417 114.651 68.8263 113.903 69.2906C112.867 69.9337 111.995 71.129 111.265 72.2463C111.047 72.5803 110.829 72.9285 110.62 73.2608C110.48 73.4843 110.344 73.7005 110.216 73.9003C109.885 74.4165 109.589 74.8514 109.315 75.1696ZM126.378 77.9798C127.76 76.9913 128.985 75.834 129.557 75.1696C129.831 74.8514 130.128 74.4165 130.458 73.9003C130.586 73.701 130.721 73.4855 130.861 73.2627L130.862 73.2608C131.071 72.9285 131.289 72.5803 131.507 72.2463C132.237 71.129 133.11 69.9337 134.146 69.2906C134.894 68.8263 136.101 67.8417 136.667 66.8973C136.953 66.4211 137.001 66.0804 136.924 65.8559C136.864 65.6804 136.673 65.4233 136.089 65.1964C134.404 66.9974 132.924 67.5494 131.411 68.1135C131.086 68.2348 130.759 68.3567 130.428 68.4917C129.608 68.8266 129.221 69.3444 128.825 70.1175C128.733 70.2982 128.639 70.4973 128.538 70.7105C128.208 71.4061 127.806 72.2562 127.148 73.1402C126.272 74.3183 124.866 75.5086 123.426 76.4423C122.887 76.7922 122.233 77.0965 121.625 77.3801C120.276 78.0084 119.146 78.5349 119.956 79.2288C120.378 79.5905 121.579 79.719 122.508 79.719C122.998 79.719 123.607 79.548 124.295 79.2288C124.974 78.9133 125.689 78.4725 126.378 77.9798ZM129.557 49.078C128.985 48.4136 127.76 47.2563 126.378 46.2678C125.689 45.7751 124.974 45.3343 124.295 45.0187C123.607 44.6995 122.998 44.5285 122.508 44.5285C121.579 44.5285 120.378 44.6571 119.956 45.0187C119.146 45.7127 120.276 46.2392 121.625 46.8675C122.233 47.1511 122.887 47.4554 123.426 47.8053C124.866 48.739 126.272 49.9293 127.148 51.1074C127.806 51.9914 128.208 52.8415 128.538 53.5371C128.639 53.7504 128.733 53.9493 128.825 54.13C129.221 54.9032 129.608 55.421 130.428 55.7558C130.758 55.8907 131.085 56.0125 131.41 56.1337L131.411 56.1341C132.924 56.6982 134.404 57.2502 136.089 59.0511C136.673 58.8243 136.864 58.5672 136.924 58.3917C137.001 58.1672 136.953 57.8265 136.667 57.3502C136.101 56.4058 134.894 55.4212 134.146 54.9569C133.11 54.3138 132.237 53.1185 131.507 52.0013C131.289 51.6672 131.071 51.319 130.862 50.9868C130.722 50.7633 130.586 50.5471 130.458 50.3472C130.128 49.8311 129.831 49.3961 129.557 49.078ZM106.135 46.2678C107.518 47.2563 108.743 48.4136 109.315 49.078C109.589 49.3961 109.885 49.8311 110.216 50.3472C110.344 50.5471 110.48 50.7633 110.62 50.9868C110.829 51.319 111.047 51.6672 111.265 52.0013C111.995 53.1185 112.867 54.3138 113.903 54.9569C114.651 55.4212 115.859 56.4058 116.425 57.3502C116.71 57.8265 116.759 58.1672 116.682 58.3917C116.622 58.5672 116.431 58.8243 115.847 59.0511C114.162 57.2502 112.682 56.6982 111.169 56.1341C110.844 56.0127 110.517 55.8908 110.186 55.7558C109.365 55.421 108.979 54.9032 108.583 54.13C108.491 53.9493 108.396 53.7504 108.295 53.5371C107.966 52.8415 107.564 51.9914 106.906 51.1074C106.029 49.9293 104.623 48.739 103.184 47.8053C102.644 47.4554 101.991 47.1511 101.382 46.8675C100.034 46.2392 98.9037 45.7127 99.7136 45.0187C100.136 44.6571 101.337 44.5285 102.266 44.5285C102.756 44.5285 103.365 44.6995 104.052 45.0187C104.732 45.3343 105.446 45.7751 106.135 46.2678ZM89.0727 49.078C88.501 48.4136 87.2757 47.2563 85.8932 46.2678C85.2041 45.7751 84.4897 45.3343 83.8102 45.0187C83.123 44.6995 82.514 44.5285 82.0238 44.5285C81.0943 44.5285 79.8934 44.6571 79.4714 45.0187C78.6615 45.7127 79.7915 46.2392 81.1401 46.8675C81.7488 47.1511 82.4021 47.4554 82.9416 47.8053C84.3813 48.739 85.7873 49.9293 86.6638 51.1074C87.3215 51.9914 87.724 52.8415 88.0533 53.5371C88.1543 53.7504 88.2484 53.9493 88.3409 54.13C88.7364 54.9032 89.1232 55.421 89.9436 55.7558C90.2744 55.8908 90.6013 56.0127 90.9267 56.1341C92.4396 56.6982 93.92 57.2502 95.6046 59.0511C96.1885 58.8243 96.3798 58.5672 96.4398 58.3917C96.5166 58.1672 96.4682 57.8265 96.1827 57.3502C95.6167 56.4058 94.4092 55.4212 93.6612 54.9569C92.6251 54.3138 91.7529 53.1185 91.023 52.0013C90.8054 51.6682 90.5875 51.321 90.3795 50.9896L90.3786 50.9882L90.3778 50.9868L90.3762 50.9842C90.2365 50.7617 90.1014 50.5463 89.9738 50.3472C89.6432 49.8311 89.3464 49.3961 89.0727 49.078ZM65.651 46.2678C67.0334 47.2563 68.2588 48.4136 68.8305 49.078C69.1042 49.3961 69.401 49.8311 69.7316 50.3472C69.8597 50.5471 69.9953 50.7633 70.1356 50.9868L70.1364 50.9882L70.1372 50.9894L70.138 50.9907C70.3458 51.3218 70.5634 51.6686 70.7808 52.0013C71.5107 53.1185 72.3829 54.3138 73.419 54.9569C74.167 55.4212 75.3745 56.4058 75.9405 57.3502C76.2259 57.8265 76.2744 58.1672 76.1976 58.3917C76.1375 58.5672 75.9463 58.8243 75.3624 59.0511C73.6777 57.2502 72.1973 56.6982 70.6845 56.1341C70.359 56.0127 70.0321 55.8908 69.7014 55.7558C68.881 55.421 68.4942 54.9032 68.0986 54.13C68.0062 53.9493 67.912 53.7504 67.811 53.5371C67.4817 52.8415 67.0793 51.9914 66.4216 51.1074C65.5451 49.9293 64.139 48.739 62.6993 47.8053C62.1599 47.4554 61.5066 47.1511 60.8979 46.8675C59.5493 46.2392 58.4192 45.7127 59.2292 45.0187C59.6512 44.6571 60.8521 44.5285 61.7815 44.5285C62.2718 44.5285 62.8808 44.6995 63.568 45.0187C64.2474 45.3343 64.9619 45.7751 65.651 46.2678Z" fill="#1D1D1D"/>
</svg>
