<svg width="406" height="110" viewBox="0 0 406 110" fill="none" xmlns="http://www.w3.org/2000/svg">
<path d="M400.5 22V87.5556C400.5 96.6683 393.113 104.056 384 104.056H274.169C265.057 104.056 257.669 96.6683 257.669 87.5556V22C257.669 12.8873 265.057 5.5 274.169 5.5H384C393.113 5.5 400.5 12.8873 400.5 22ZM5.5 87.5555V22C5.5 12.8873 12.8873 5.5 22 5.5H129.919C139.032 5.5 146.419 12.8873 146.419 22V87.5556C146.419 96.6683 139.032 104.056 129.919 104.056H22C12.8873 104.056 5.5 96.6683 5.5 87.5555Z" stroke="#1D1D1D" stroke-width="11"/>
<path fill-rule="evenodd" clip-rule="evenodd" d="M133.722 109.556V0H272.278V109.556H133.722ZM197.177 101.506C198.982 101.715 200.817 101.822 202.677 101.822C204.538 101.822 206.373 101.715 208.177 101.506C209.365 101.369 210.54 101.187 211.7 100.964C215.094 100.309 218.358 99.2926 221.452 97.9554C236.667 91.3796 247.751 77.0547 249.728 59.9554C249.937 58.151 250.044 56.3157 250.044 54.4554C250.044 52.5951 249.937 50.7598 249.728 48.9554C247.751 31.8561 236.667 17.5312 221.452 10.9554C218.358 9.6182 215.094 8.60145 211.7 7.94695C210.54 7.72333 209.365 7.54199 208.177 7.40462C206.373 7.19597 204.538 7.08872 202.677 7.08872C200.817 7.08872 198.982 7.19597 197.177 7.40462C195.989 7.54199 194.815 7.72333 193.655 7.94695C190.261 8.60145 186.997 9.6182 183.903 10.9554C168.687 17.5312 157.604 31.8561 155.627 48.9554C155.418 50.7598 155.311 52.5951 155.311 54.4554C155.311 56.3157 155.418 58.151 155.627 59.9554C157.604 77.0547 168.687 91.3796 183.903 97.9554C186.997 99.2926 190.261 100.309 193.655 100.964C194.815 101.187 195.989 101.369 197.177 101.506ZM209.617 90.1628C209.141 90.2547 208.661 90.3373 208.177 90.4104V59.9554H238.631C236.727 72.506 228.407 82.9661 217.088 87.8581C214.718 88.8825 212.217 89.6613 209.617 90.1628ZM197.177 59.9554V90.4104C196.694 90.3373 196.214 90.2547 195.738 90.1628C193.138 89.6613 190.637 88.8825 188.267 87.8581C176.947 82.9661 168.628 72.506 166.724 59.9554H197.177ZM238.631 48.9554H208.177V18.5004C208.661 18.5735 209.141 18.6561 209.617 18.7479C212.217 19.2495 214.718 20.0282 217.088 21.0527C228.407 25.9447 236.727 36.4048 238.631 48.9554ZM197.177 18.5004V48.9554H166.724C168.628 36.4048 176.947 25.9447 188.267 21.0527C190.637 20.0282 193.138 19.2495 195.738 18.7479C196.214 18.6561 196.694 18.5735 197.177 18.5004Z" fill="#1D1D1D"/>
</svg>
