<svg width="163" height="124" viewBox="0 0 163 124" fill="none" xmlns="http://www.w3.org/2000/svg">
<path fill-rule="evenodd" clip-rule="evenodd" d="M141.015 11H22.0973C16.0263 11 11.1048 15.9249 11.1048 22V102C11.1048 108.075 16.0263 113 22.0973 113H141.015C147.086 113 152.008 108.075 152.008 102V22C152.008 15.9249 147.086 11 141.015 11ZM22.0973 0C9.95537 0 0.112427 9.84974 0.112427 22V102C0.112427 114.15 9.95537 124 22.0973 124H141.015C153.157 124 163 114.15 163 102V22C163 9.84974 153.157 0 141.015 0H22.0973Z" fill="#1D1D1D"/>
<path d="M114.362 30.8805C113.767 31.361 112.463 32.4069 111.444 33.1984C110.986 33.5538 110.145 34.2111 109.125 35.0092C107.872 35.9888 106.348 37.1806 104.928 38.2866C98.0155 43.7422 85.0124 53.6924 82.5477 55.445L81.4429 56.2365L75.9754 52.1094C71.2444 48.5477 69.0913 46.9082 63.3972 42.4985C59.2044 39.2759 53.8502 35.0641 51.0456 32.8309C49.2325 31.3893 47.5328 30.2021 47.3061 30.2021C46.8245 30.2021 44.8698 32.4917 44.8698 33.0571C44.8698 33.2832 46.9379 35.1772 49.4875 37.269C49.6568 37.4095 49.8322 37.5549 50.0127 37.7046C52.5188 39.7837 56.0081 42.6784 58.0429 44.3924C66.5134 51.431 72.8591 56.6888 74.7005 58.1587C75.7487 59.0067 76.5986 59.7699 76.5986 59.883C76.5986 59.9678 76.032 60.5897 75.3521 61.2398C74.6722 61.89 73.8223 63.049 73.4824 63.7839C71.8676 67.2891 71.4993 67.5718 68.1848 67.7131C66.7967 67.7979 65.3802 67.9675 64.9836 68.1089C64.587 68.2785 62.0657 71.1052 59.3177 74.4973C56.9575 77.3921 54.7894 80.0314 54.0909 80.8817C53.9845 81.0111 53.9122 81.0991 53.8785 81.1402C53.2553 81.8752 53.4536 82.4123 55.8899 86.0022C58.1846 89.3944 59.0061 90.9491 59.4594 92.6451L59.771 93.9172L60.3659 93.0691C60.6776 92.6169 62.1223 89.9597 63.5671 87.1612C67.9865 78.5679 69.8562 75.0344 70.1395 74.667C70.2812 74.4973 71.5843 73.8755 73.0574 73.3101C74.5022 72.7448 76.2303 71.925 76.8819 71.4445C78.1567 70.5116 79.1482 68.646 79.1482 67.1478C79.1482 65.6496 79.4032 65.1408 80.5364 64.3493L81.6129 63.5861L82.6611 64.4906C83.5959 65.3104 83.7092 65.5931 83.9359 67.4304C84.1058 68.7308 84.4175 69.7767 84.7858 70.3137C85.494 71.2748 87.3071 72.3773 89.9133 73.3384C90.9332 73.7341 92.038 74.2147 92.3497 74.4408C92.6896 74.667 93.5678 76.0238 94.3044 77.4654C94.8418 78.5173 95.6357 80.0358 96.3117 81.3289C96.5622 81.8081 96.7965 82.2563 96.9957 82.6384C97.6996 83.9622 99.1282 86.7062 100.243 88.8467C100.244 88.849 100.245 88.8513 100.246 88.8537C100.296 88.9504 100.346 89.0459 100.395 89.14C101.528 91.3166 102.577 93.267 102.718 93.4366C103.171 93.9737 103.426 93.6345 103.625 92.3059C103.823 91.0904 104.843 89.1682 107.138 85.8609C108.271 84.2497 109.461 82.1579 109.461 81.8186C109.461 81.7338 108.837 80.9424 108.101 80.0378C107.932 79.8303 107.682 79.5246 107.374 79.1466C106.338 77.8771 104.636 75.7924 103.086 73.8755C101.075 71.3879 99.2337 69.1548 98.9787 68.9004C98.2138 68.0806 97.3356 67.7979 95.4942 67.7979C94.4744 67.7979 93.2562 67.7131 92.7746 67.6283C91.5281 67.3739 90.31 66.0736 89.715 64.321C89.3468 63.2751 88.7519 62.3988 87.6753 61.3529C86.8255 60.5332 86.2022 59.8265 86.2589 59.7982C86.4288 59.6851 94.8143 52.703 95.1826 52.3921C95.3526 52.2225 95.9192 51.7702 96.4574 51.3462C96.8444 51.0617 98.5202 49.6665 100.621 47.9172C101.443 47.2335 102.329 46.4958 103.228 45.7492C104.431 44.7508 105.63 43.7524 106.695 42.8649C108.466 41.3905 109.868 40.2225 110.31 39.8696C113.455 37.3255 118.243 33.2267 118.243 33.1136C118.243 32.8592 116.118 30.2303 115.778 30.089C115.608 30.0324 114.985 30.3717 114.362 30.8805Z" fill="#1D1D1D"/>
<path fill-rule="evenodd" clip-rule="evenodd" d="M22.0973 0C9.95537 0 0.112427 9.84974 0.112427 22V102C0.112427 114.15 9.95537 124 22.0973 124H141.015C153.157 124 163 114.15 163 102V22C163 9.84974 153.157 0 141.015 0H22.0973ZM141.015 11H22.0973C16.0263 11 11.1048 15.9249 11.1048 22V102C11.1048 108.075 16.0263 113 22.0973 113H141.015C147.086 113 152.008 108.075 152.008 102V22C152.008 15.9249 147.086 11 141.015 11ZM114.362 30.8805C113.767 31.361 112.463 32.4069 111.444 33.1984C110.986 33.5538 110.145 34.2111 109.125 35.0092C107.872 35.9888 106.348 37.1806 104.928 38.2866C98.0155 43.7422 85.0124 53.6924 82.5477 55.445L81.4429 56.2365L75.9754 52.1094C71.2444 48.5477 69.0913 46.9082 63.3972 42.4985C59.2044 39.2759 53.8502 35.0641 51.0456 32.8309C49.2325 31.3893 47.5328 30.2021 47.3061 30.2021C46.8245 30.2021 44.8698 32.4917 44.8698 33.0571C44.8698 33.2832 46.9379 35.1772 49.4875 37.269L50.0127 37.7046C52.5188 39.7837 56.0081 42.6784 58.0429 44.3924C66.5134 51.431 72.8591 56.6888 74.7005 58.1587C75.7487 59.0067 76.5986 59.7699 76.5986 59.883C76.5986 59.9678 76.032 60.5897 75.3521 61.2398C74.6722 61.89 73.8223 63.049 73.4824 63.7839C71.8676 67.2891 71.4993 67.5718 68.1848 67.7131C66.7967 67.7979 65.3802 67.9675 64.9836 68.1089C64.587 68.2785 62.0657 71.1052 59.3177 74.4973C56.9575 77.3921 54.7894 80.0314 54.0909 80.8817C53.9845 81.0111 53.9122 81.0991 53.8785 81.1402C53.2553 81.8752 53.4536 82.4123 55.8899 86.0022C58.1846 89.3944 59.0061 90.9491 59.4594 92.6451L59.771 93.9172L60.3659 93.0691C60.6776 92.6169 62.1223 89.9597 63.5671 87.1612C67.9865 78.5679 69.8562 75.0344 70.1395 74.667C70.2812 74.4973 71.5843 73.8755 73.0574 73.3101C74.5022 72.7448 76.2303 71.925 76.8819 71.4445C78.1567 70.5116 79.1482 68.646 79.1482 67.1478C79.1482 65.6496 79.4032 65.1408 80.5364 64.3493L81.6129 63.5861L82.6611 64.4906C83.5959 65.3104 83.7092 65.5931 83.9359 67.4304C84.1058 68.7308 84.4175 69.7767 84.7858 70.3137C85.494 71.2748 87.3071 72.3773 89.9133 73.3384C90.9332 73.7341 92.038 74.2147 92.3497 74.4408C92.6896 74.667 93.5678 76.0238 94.3044 77.4654C94.8418 78.5173 95.6357 80.0358 96.3117 81.3289C96.5622 81.8081 96.7965 82.2563 96.9957 82.6384C97.6996 83.9622 99.1282 86.7062 100.243 88.8467L100.246 88.8537L100.395 89.14C101.528 91.3166 102.577 93.267 102.718 93.4366C103.171 93.9737 103.426 93.6345 103.625 92.3059C103.823 91.0904 104.843 89.1682 107.138 85.8609C108.271 84.2497 109.461 82.1579 109.461 81.8186C109.461 81.7338 108.837 80.9424 108.101 80.0378C107.932 79.8303 107.682 79.5246 107.374 79.1466C106.338 77.8771 104.636 75.7924 103.086 73.8755C101.075 71.3879 99.2337 69.1548 98.9787 68.9004C98.2138 68.0806 97.3356 67.7979 95.4942 67.7979C94.4744 67.7979 93.2562 67.7131 92.7746 67.6283C91.5281 67.3739 90.31 66.0736 89.715 64.321C89.3468 63.2751 88.7519 62.3988 87.6753 61.3529C86.8255 60.5332 86.2022 59.8265 86.2589 59.7982C86.4288 59.6851 94.8143 52.703 95.1826 52.3921C95.3526 52.2225 95.9192 51.7702 96.4574 51.3462C96.8444 51.0617 98.5202 49.6665 100.621 47.9172C101.443 47.2335 102.329 46.4958 103.228 45.7492C104.431 44.7508 105.63 43.7524 106.695 42.8649C108.466 41.3905 109.868 40.2225 110.31 39.8696C113.455 37.3255 118.243 33.2267 118.243 33.1136C118.243 32.8592 116.118 30.2303 115.778 30.089C115.608 30.0324 114.985 30.3717 114.362 30.8805Z" fill="#1D1D1D"/>
</svg>
