<svg width="369" height="158" viewBox="0 0 369 158" fill="none" xmlns="http://www.w3.org/2000/svg">
<path fill-rule="evenodd" clip-rule="evenodd" d="M55.9455 9.04943C70.6482 4.58836 87.6803 0.5 101.292 0.5C109.118 0.5 121.834 2.34939 136.321 5.06276C150.952 7.80317 167.825 11.5118 184.189 15.3989C200.557 19.2872 216.463 23.3653 229.17 26.8523C241.695 30.2893 251.538 33.2645 255.459 34.9447C262.721 38.0572 275.298 44.4182 287.979 51.7364C300.592 59.0156 313.771 67.505 321.979 74.9184C336.972 88.4608 346.477 93.1849 354.634 97.0235C357.71 98.4707 360.654 101.035 362.929 103.902C365.209 106.775 367.223 110.465 367.851 114.458C368.51 118.648 367.613 123.281 363.881 126.947C360.383 130.384 355.074 132.286 348.351 132.972C344.046 133.411 340.075 133.852 336.509 134.249C332.144 134.734 328.385 135.152 325.358 135.417C324.47 135.494 323.612 135.562 322.79 135.616C322.716 136.935 322.316 138.313 321.403 139.655C320.088 141.59 318.022 142.863 316.505 143.746C315.453 144.358 314.11 145.078 312.609 145.882C311.757 146.338 310.855 146.822 309.926 147.328C306.924 148.966 302.443 150.148 297.797 151.075C292.965 152.039 287.294 152.847 281.496 153.514C269.892 154.849 257.456 155.658 249.526 155.995L249.5 155.996L249.473 155.997C215.953 157.101 165.749 157.545 122.956 157.492C101.554 157.466 81.9763 157.315 67.2387 157.059C59.8737 156.931 53.6917 156.776 49.0851 156.596C46.7851 156.507 44.8444 156.41 43.3304 156.304C41.9597 156.208 40.5614 156.083 39.596 155.868C32.6513 154.321 28.3664 150.522 26.0742 145.829C23.9551 141.491 23.7924 136.878 23.7924 134C23.7924 132.751 23.7649 131.346 23.7017 129.713C23.5025 124.569 22.9528 117.257 21.818 105.53C21.2088 99.2351 17.2457 92.2461 12.2291 83.6463C12.1349 83.4848 12.0404 83.3228 11.9455 83.1601C7.35856 75.3 1.97297 66.0713 0.832418 56.6618C-0.301876 47.3039 1.50912 39.5483 5.68077 33.4089C9.79461 27.3546 15.8436 23.4 22.2883 20.8782C28.0654 18.6176 41.1052 13.5523 55.9455 9.04943ZM322.064 124.64C322.77 124.593 323.548 124.533 324.401 124.458C327.369 124.199 330.881 123.808 335.073 123.341C338.615 122.946 342.642 122.497 347.234 122.028C352.761 121.464 355.201 120.054 356.172 119.1C356.91 118.376 357.2 117.54 356.984 116.167C356.737 114.597 355.813 112.631 354.312 110.739C352.806 108.84 351.125 107.529 349.951 106.977C341.108 102.815 330.613 97.5392 314.606 83.0816C307.314 76.495 294.993 68.4844 282.481 61.2636C270.036 54.0818 257.863 47.9428 251.126 45.0553C248.046 43.7355 239.015 40.9607 226.259 37.4602C213.685 34.0097 197.903 29.9628 181.646 26.1011C165.385 22.2382 148.695 18.5718 134.296 15.8747C119.751 13.1506 107.967 11.5 101.292 11.5C89.4047 11.5 73.6867 15.1616 59.1394 19.5756C44.7297 23.9477 32.0195 28.8824 26.2966 31.1218C21.2413 33.1 17.2903 35.8954 14.7791 39.5911C12.3258 43.2017 10.8868 48.1961 11.7525 55.3382C12.5883 62.2339 16.7516 69.5681 21.7307 78.1037C21.8607 78.3266 21.9915 78.5506 22.1229 78.7756C26.6479 86.5264 31.9011 95.5247 32.7668 104.47C33.5987 113.067 34.1299 119.421 34.4385 124.355C83.1798 127.581 181.411 128.472 215.981 126.509C260.133 124.001 276.733 120.071 289.175 116.243C293.459 114.925 297.389 114.348 300.989 114.544C298.528 113.145 295.629 111.618 292.274 109.889C284.718 105.997 273.453 102.865 262.423 100.572C251.504 98.3028 241.329 96.957 236.271 96.4752C231.657 96.0358 225.899 96.4828 221.346 97.5934C219.547 98.0321 218.129 98.5286 217.123 99.0052C217.669 99.6748 218.391 100.432 219.239 101.22C220.361 102.262 221.557 103.221 222.556 103.938C223.055 104.296 223.465 104.565 223.758 104.741C223.843 104.792 223.906 104.828 223.95 104.853L228.957 106.521L225.478 116.957L220.261 115.218C219.41 114.934 218.613 114.483 218.097 114.173C217.484 113.805 216.818 113.36 216.142 112.875C214.789 111.904 213.233 110.654 211.753 109.28C210.299 107.93 208.764 106.315 207.577 104.607C206.566 103.152 205.012 100.528 205.32 97.4527C205.717 93.4778 208.767 91.1166 210.793 89.9203C213.081 88.569 215.908 87.5972 218.739 86.9066C224.436 85.5172 231.428 84.9642 237.314 85.5248C242.756 86.043 253.331 87.4472 264.662 89.8026C275.882 92.1349 288.367 95.503 297.311 100.111C305.287 104.22 312.711 108.127 317.152 112.644C319.51 115.042 321.439 118 321.963 121.657C322.107 122.661 322.136 123.656 322.064 124.64ZM34.8169 135.403C34.8954 137.489 35.1826 139.413 35.9581 141.001C36.7318 142.585 38.1968 144.287 41.9888 145.132C41.9796 145.13 41.9748 145.128 41.9748 145.128C41.9748 145.128 42.1215 145.154 42.4939 145.195C42.889 145.237 43.42 145.283 44.0975 145.331C45.4505 145.425 47.2648 145.517 49.5137 145.605C54.0051 145.78 60.0969 145.933 67.4297 146.06C82.0877 146.315 101.602 146.466 122.97 146.492C165.708 146.545 215.752 146.101 249.085 145.004C256.824 144.674 268.973 143.883 280.239 142.586C285.883 141.937 291.224 141.169 295.644 140.288C300.25 139.369 303.261 138.434 304.659 137.672C305.819 137.039 306.815 136.505 307.688 136.038C309.023 135.324 310.069 134.764 310.971 134.239C311.027 134.206 311.082 134.174 311.135 134.143C310.875 133.678 310.531 133.087 310.076 132.33C308.154 129.126 306.191 127.218 303.894 126.277C301.623 125.346 298.13 124.997 292.41 126.757C278.851 130.929 261.309 134.952 216.604 137.491C181.799 139.468 84.3567 138.598 34.8169 135.403Z" fill="#1D1D1D"/>
</svg>
