<svg width="308" height="125" viewBox="0 0 308 125" fill="none" xmlns="http://www.w3.org/2000/svg">
<path d="M0.823242 22.5118C0.823242 10.355 10.6783 0.5 22.8351 0.5H285.485C297.641 0.5 307.496 10.355 307.496 22.5118V102.488C307.496 114.645 297.641 124.5 285.485 124.5H22.8351C10.6783 124.5 0.823242 114.645 0.823242 102.488V22.5118Z" fill="#C5A869"/>
<path fill-rule="evenodd" clip-rule="evenodd" d="M285.485 11.5059H22.8351C16.7567 11.5059 11.8292 16.4334 11.8292 22.5118V102.488C11.8292 108.567 16.7567 113.494 22.8351 113.494H285.485C291.563 113.494 296.49 108.567 296.49 102.488V22.5118C296.49 16.4334 291.563 11.5059 285.485 11.5059ZM22.8351 0.5C10.6783 0.5 0.823242 10.355 0.823242 22.5118V102.488C0.823242 114.645 10.6783 124.5 22.8351 124.5H285.485C297.641 124.5 307.496 114.645 307.496 102.488V22.5118C307.496 10.355 297.641 0.5 285.485 0.5H22.8351Z" fill="#A68C55"/>
<path d="M135.679 51.6693L185.767 78.4533C189.631 80.2471 185.475 90.773 181.988 88.9464L132.457 63.5991C131.158 62.8826 129.504 61.3732 130.196 59.0241C130.756 57.1182 133.115 57.0396 133.912 57.5541C134.708 58.0686 134.797 59.3916 134.354 59.8694C133.912 60.3471 133.292 60.1634 133.115 59.4651C132.894 58.0711 131.832 58.4361 131.744 59.4651C131.598 61.1641 132.144 62.7359 133.912 62.7359C135.679 62.7359 137.141 61.8907 137.407 59.4651C137.559 58.0743 136.699 53.681 132.894 53.681C129.09 53.681 129.881 57.242 129.355 58.7301C127.939 62.7359 127.58 63.1544 130.992 64.6837L180.456 89.8301C178.052 92.7085 175.017 93.8432 173.591 93.897C172.166 93.9509 169.8 93.9239 169.119 91.6627C168.439 89.4015 170.254 88.4705 170.772 88.1363C171.291 87.8021 172.652 87.571 171.842 87.2479C171.031 86.9249 170.059 87.221 168.097 88.4705C149.867 76.6886 147.22 75.0897 126.774 64.6837C125.371 63.8249 124.287 63.3545 125.381 61.7016C125.381 61.7016 127.693 58.6515 128.509 53.681C129.121 51.6693 132.457 49.7271 135.679 51.6693Z" fill="black"/>
<path d="M159.411 100.058C159.411 102.251 157.272 104.028 154.633 104.028C151.993 104.028 149.854 102.251 149.854 100.058C149.854 97.8658 151.993 96.0885 154.633 96.0885C157.272 96.0885 159.411 97.8658 159.411 100.058Z" fill="black"/>
<path d="M158.469 93.6617C159.712 93.6617 159.737 95.5608 158.469 95.5608L150.796 95.5607C149.528 95.5607 149.553 93.6617 150.796 93.6617L158.469 93.6617Z" fill="black"/>
<path d="M169.843 42.3775C169.843 35.3632 164.967 31.6651 162.291 29.4422C159.615 27.2192 157.701 21.9447 152.508 20.9719C152.508 22.8751 153.145 26.3644 150.592 28.1883C150.365 26.8855 149.268 26.3833 148.31 26.3833C148.536 27.1323 148.477 28.5291 148.147 29.4422C146.879 32.9428 145.14 32.8074 143.04 34.5839C140.941 36.3605 139.336 39.9647 139.423 42.3775C140.144 42.5423 140.971 43.0817 141.555 43.5199C142.309 38.0569 150.592 32.4429 153.914 28.1883C160.102 33.2813 165.236 33.9011 167.711 43.5199C168.294 43.0817 169.122 42.5423 169.843 42.3775Z" fill="black"/>
<path d="M139.631 90.9174C138.004 91.5987 135.997 91.3955 135.155 90.0089C134.525 88.9692 134.708 87.6317 136.168 87.0203C137.337 86.5312 136.692 85.6705 136.224 85.3013L129.726 80.1102C129.461 79.9893 128.75 79.4495 128.026 78.257C127.122 76.7663 127.856 74.6985 129.755 73.9037C131.654 73.1089 133.966 73.9882 134.744 75.2708C135.522 76.5535 134.442 78.1361 133.44 78.5554C132.439 78.9747 132.442 79.756 133.301 80.4828C134.161 81.2097 138.855 84.7217 139.924 85.4481C140.779 86.0291 141.483 86.1038 142.091 87.1057C142.848 88.3537 141.259 90.2361 139.631 90.9174Z" fill="black"/>
<path fill-rule="evenodd" clip-rule="evenodd" d="M128.268 80.3211C128.516 80.5537 128.767 80.7461 129.002 80.8786L129.752 81.4782C129.705 82.2205 129.737 83.187 129.827 84.1494C129.952 85.4895 130.197 86.9076 130.545 87.8027C130.644 88.0579 130.973 88.198 131.28 88.1156C131.587 88.0333 131.756 87.7597 131.657 87.5045C131.353 86.7217 131.115 85.3966 130.992 84.0744C130.937 83.4809 130.906 82.9052 130.9 82.3952L135.417 86.0034L135.42 86.0055C135.473 86.048 135.537 86.1094 135.589 86.1758C134.585 86.6114 133.975 87.3173 133.747 88.1072C127.83 90.1258 120.092 91.6969 118.676 89.3635C117.134 86.8209 123.399 82.6084 128.268 80.3211ZM127.385 81.8581C127.705 81.8949 127.928 82.1401 127.884 82.4056C127.739 83.2742 127.818 84.3861 128.048 85.4613C128.279 86.5383 128.649 87.5273 129.047 88.1551C129.198 88.3923 129.088 88.6859 128.803 88.8109C128.517 88.9358 128.164 88.8449 128.013 88.6077C127.539 87.8591 127.14 86.7632 126.898 85.6313C126.655 84.4976 126.558 83.2764 126.726 82.2723C126.77 82.0067 127.065 81.8213 127.385 81.8581ZM124.652 82.9491C124.974 82.9317 125.252 83.1344 125.273 83.402C125.319 83.9863 125.501 85.0575 125.751 86.1392C126.002 87.2303 126.309 88.2707 126.589 88.8178C126.715 89.0646 126.577 89.3496 126.28 89.4544C125.983 89.5592 125.639 89.4441 125.513 89.1974C125.179 88.5445 124.854 87.4112 124.603 86.3219C124.349 85.2231 124.157 84.1072 124.107 83.465C124.086 83.1974 124.33 82.9664 124.652 82.9491ZM122.684 84.8131C123.006 84.8253 123.256 85.0523 123.241 85.3201C123.16 86.796 123.603 88.2405 123.971 88.9644C124.097 89.2113 123.958 89.4962 123.661 89.6006C123.363 89.7051 123.02 89.5896 122.895 89.3427C122.466 88.5003 121.983 86.9118 122.073 85.2759C122.088 85.008 122.361 84.8008 122.684 84.8131ZM120.337 86.6801C120.659 86.6534 120.945 86.8481 120.977 87.1149C121.009 87.3764 121.129 87.7705 121.282 88.1818C121.433 88.5841 121.601 88.9689 121.709 89.1969C121.827 89.4464 121.679 89.7282 121.379 89.8263C121.079 89.9244 120.739 89.8016 120.621 89.552C120.504 89.3043 120.326 88.8969 120.166 88.4693C120.01 88.0506 119.858 87.577 119.814 87.2114C119.782 86.9446 120.016 86.7067 120.337 86.6801Z" fill="black"/>
<path fill-rule="evenodd" clip-rule="evenodd" d="M158.469 92.8323H156.846L157.377 82.8145C158.019 83.2213 158.682 83.6429 159.369 84.0815L158.469 92.8323ZM155.4 92.8323L155.747 81.7868C154.964 81.2958 154.21 80.8258 153.474 80.372L153.865 92.8322L155.4 92.8323ZM151.702 79.2878L152.419 92.8322H150.796L149.253 77.823C150.061 78.2997 150.873 78.7854 151.702 79.2878ZM142.995 74.2739C144.486 75.0891 145.889 75.8745 147.268 76.6677L136.113 81.3377C135.194 80.6415 134.426 80.0482 134.135 79.8025C133.991 79.6803 133.912 79.5804 133.873 79.5128C133.87 79.5087 133.868 79.5048 133.866 79.501L133.863 79.4956C133.86 79.4894 133.857 79.4837 133.855 79.4785C133.878 79.4639 133.914 79.4445 133.966 79.4225C134.784 79.0801 135.468 78.3657 135.842 77.603C135.918 77.4473 135.985 77.2822 136.039 77.1102C137.938 76.3362 140.332 75.3602 142.995 74.2739ZM173.233 70.596C175.422 69.6629 177.163 68.9238 178.213 68.4844C184.86 65.7016 187.086 61.4373 186.6 60.6358C186.114 59.8348 180.664 58.7841 174.016 61.567C172.284 62.2921 168.574 63.8177 164.035 65.6774L168.201 67.905L178.523 63.5839C182.136 62.0713 183.916 61.7598 183.916 61.7598C183.916 61.7598 182.558 62.7668 178.945 64.2793C177.943 64.6987 174.13 66.3054 169.143 68.4087L173.233 70.596ZM161.406 64.2717L161.642 61.9772C162.215 61.6898 163.361 60.8418 163.361 59.7497C163.361 58.6576 161.983 57.3444 161.295 56.8244L162.985 55.0302H164.018L166.225 52.1829C167.512 52.1829 168.311 51.1659 168.009 50.4277L169.843 49.4165L169.219 46.5328L170.506 42.3532C170.304 42.3097 170.079 42.3234 169.843 42.3775C169.122 42.5423 168.294 43.0817 167.711 43.5199C167.261 43.8576 166.956 44.1352 166.956 44.1352C166.956 44.1352 165.569 41.932 164.741 41.932C163.913 41.932 161.925 43.714 161.925 43.714C161.925 43.714 159.873 41.2192 159.195 41.2192C158.517 41.2192 156.738 43.3252 156.738 43.3252C156.426 42.688 155.57 41.4135 154.632 41.4135C153.695 41.4135 152.839 42.688 152.528 43.3252C152.528 43.3252 150.749 41.2191 150.071 41.2191C149.392 41.2191 147.34 43.714 147.34 43.714C147.34 43.714 145.352 41.9319 144.524 41.9319C143.696 41.9319 142.309 44.1352 142.309 44.1352C142.309 44.1352 142.004 43.8576 141.555 43.5199C140.971 43.0817 140.144 42.5423 139.423 42.3775C139.186 42.3234 138.961 42.3097 138.76 42.3531L140.047 46.5328L139.423 49.4164L141.256 50.4276C140.955 51.1658 141.753 52.1828 143.04 52.1828L145.247 55.0301H146.28L147.97 56.8243C147.909 56.8705 147.843 56.923 147.772 56.9811L150.494 58.4368C151.61 58.2729 153.078 58.1211 154.632 58.1211C157.295 58.1211 159.702 58.5665 160.527 58.755C161.352 58.9434 161.414 59.4058 161.295 59.6114C161.176 59.8169 160.671 59.9197 160.032 59.7497C159.393 59.5796 156.399 59.2002 154.632 59.2002C153.935 59.2002 153.046 59.2594 152.186 59.3415L156.382 61.5851L156.4 61.0101C157.197 61.0537 157.894 61.1267 158.521 61.2212L158.443 62.6874L161.406 64.2717ZM154.632 56.9919C156.125 56.9919 158.754 57.2433 159.393 57.3941C160.032 57.5449 160.321 57.025 159.615 56.8244C158.848 56.6065 156.125 56.2881 154.632 56.2881C153.139 56.2881 150.417 56.6065 149.65 56.8243C148.944 57.025 149.233 57.5448 149.872 57.394C150.511 57.2432 153.14 56.9919 154.632 56.9919ZM154.632 54.2416C157.66 54.2416 159.537 54.6378 160.032 54.834C160.527 55.0302 160.804 54.3804 160.275 54.2417C159.746 54.103 157.729 53.6795 154.632 53.6795C151.536 53.6795 149.519 54.1029 148.99 54.2416C148.461 54.3803 148.738 55.0301 149.233 54.8339C149.728 54.6377 151.605 54.2416 154.632 54.2416ZM154.632 50.9624C158.521 50.9624 163.935 51.7903 164.303 51.9206C164.672 52.0509 165.341 51.5139 164.741 51.2646C164.141 51.0153 158.914 50.284 154.633 50.284C150.351 50.284 145.124 51.0153 144.524 51.2646C143.924 51.5139 144.593 52.0508 144.962 51.9205C145.33 51.7902 150.744 50.9624 154.632 50.9624ZM157.699 44.7903C157.699 44.7903 158.614 43.2092 159.264 43.2092C159.915 43.2092 161.083 45.212 161.083 45.212C161.083 45.212 159.777 46.6877 159.264 46.6877C158.751 46.6877 157.699 44.7903 157.699 44.7903ZM162.291 45.212C162.291 45.212 163.685 43.326 164.507 43.52C165.33 43.714 166.381 45.8736 166.381 45.8736C166.381 45.8736 164.941 47.2781 164.018 47.2022C163.095 47.1263 162.291 45.212 162.291 45.212ZM154.632 46.6877C155.413 46.6877 156.373 45.0195 156.373 45.0195C156.373 45.0195 155.482 42.8556 154.632 42.8177C153.783 42.8556 152.892 45.0194 152.892 45.0194C152.892 45.0194 153.852 46.6877 154.632 46.6877ZM154.632 48.2184C155.704 48.2184 156.738 46.6877 156.738 46.6877C156.738 46.6877 158.425 48.2185 159.264 48.2185C160.104 48.2185 161.488 46.9299 161.488 46.9299C161.488 46.9299 163.181 48.6961 164.018 48.6961C164.855 48.6961 166.381 47.6757 166.381 47.6757L168.324 49.1958L167.496 49.7493C162.967 48.8028 160.133 48.5601 154.633 48.578C149.133 48.5601 146.298 48.8027 141.77 49.7492L140.941 49.1957L142.885 47.6756C142.885 47.6756 144.41 48.6961 145.247 48.6961C146.084 48.6961 147.777 46.9299 147.777 46.9299C147.777 46.9299 149.162 48.2184 150.001 48.2184C150.841 48.2184 152.528 46.6877 152.528 46.6877C152.528 46.6877 153.561 48.2184 154.632 48.2184ZM151.566 44.7903C151.566 44.7903 150.651 43.2091 150.001 43.2091C149.351 43.2091 148.182 45.2119 148.182 45.2119C148.182 45.2119 149.488 46.6877 150.001 46.6877C150.514 46.6877 151.566 44.7903 151.566 44.7903ZM146.974 45.2119C146.974 45.2119 145.581 43.3259 144.758 43.5199C143.936 43.714 142.885 45.8735 142.885 45.8735C142.885 45.8735 144.324 47.2781 145.247 47.2022C146.17 47.1262 146.974 45.2119 146.974 45.2119ZM140.548 84.6168C142.551 83.7555 145.306 82.5708 148.432 81.2275L148.03 77.3159C143.265 79.3267 139.194 81.0444 136.969 81.9837C138.38 83.0437 139.899 84.1653 140.548 84.6168Z" fill="black"/>
<path d="M120.288 84.0415C119.456 84.7472 118.716 85.499 118.194 86.2673C115.599 84.2822 113.47 81.1889 113.47 81.1889C113.47 81.1889 116.46 78.6375 121.611 80.5304C122.399 80.8199 123.082 81.1891 123.687 81.6162C122.629 82.2696 121.613 82.9687 120.723 83.6826C119.654 83.2121 118.536 82.8638 117.071 82.5121C117.071 82.5121 118.546 83.3685 120.288 84.0415Z" fill="black"/>
<path fill-rule="evenodd" clip-rule="evenodd" d="M126.93 91.034C123.007 93.7791 121.307 93.5769 119.436 93.3546C118.522 93.2458 117.566 93.1323 116.291 93.3561C112.261 94.0632 107.463 98.9 107.463 98.9C107.463 98.9 110.188 102.23 116.105 101.192C119.608 100.577 122.088 97.7224 124.421 95.0376C125.907 93.3264 127.334 91.6843 128.927 90.735C130.808 90.7668 132.642 90.7823 134.423 90.7878C134.367 90.7115 134.315 90.6321 134.265 90.5495C134.066 90.2226 133.918 89.861 133.838 89.4826C133.533 89.4812 133.226 89.4796 132.919 89.4777C130.978 90.0958 128.898 90.6513 126.93 91.034ZM111.599 98.1744C111.599 98.1744 113.555 97.466 115.698 97.09C117.84 96.7142 119.786 96.2079 119.786 96.2079C116.702 97.5387 114.908 97.9856 111.599 98.1744Z" fill="black"/>
<path fill-rule="evenodd" clip-rule="evenodd" d="M142.842 89.4585C143.805 89.4524 144.743 89.4465 145.655 89.4423C144.73 88.6089 143.973 88.0746 143.329 87.7483C143.32 87.356 143.218 86.9548 142.982 86.5652C142.589 85.9184 142.147 85.5414 141.692 85.2595L143.036 84.6818C143.409 85.1668 143.762 85.664 144.114 86.1581C144.955 87.3408 145.782 88.505 146.829 89.4379C147.247 89.4367 147.66 89.4361 148.067 89.4361C148.426 89.4361 148.718 89.7276 148.718 90.0874C148.718 90.4472 148.426 90.7388 148.067 90.7388C147.42 90.7388 146.757 90.7405 146.078 90.7433C145.292 90.7465 144.484 90.7512 143.656 90.7564C142.138 91.8309 141.034 93.3438 139.909 94.8859C138.172 97.266 136.385 99.7157 132.947 100.731C127.185 102.432 124.101 99.4324 124.101 99.4324C124.101 99.4324 128.32 94.0834 132.245 92.9245C133.694 92.4964 134.624 92.8459 135.517 93.1813C137.041 93.7538 138.456 94.2855 142.161 90.8396L142.755 90.7621L142.706 90.7624H142.698C142.388 90.7644 142.076 90.7664 141.761 90.7684C142.08 90.4798 142.367 90.1618 142.605 89.828C142.686 89.7129 142.767 89.5892 142.842 89.4585ZM132.078 96.7016C129.992 97.3178 128.128 98.2431 128.128 98.2431C131.394 97.6809 133.126 97.0337 136.04 95.3622C136.04 95.3622 134.164 96.0856 132.078 96.7016Z" fill="black"/>
<path fill-rule="evenodd" clip-rule="evenodd" d="M164.322 87.2735C163.738 88.0576 163.126 88.8015 162.412 89.4379L161.781 89.4365L161.174 89.4361C160.815 89.4361 160.523 89.7276 160.523 90.0874C160.523 90.4472 160.815 90.7388 161.174 90.7388C162.57 90.7388 164.043 90.7468 165.585 90.7564C167.103 91.8309 168.207 93.3438 169.332 94.8859C171.069 97.266 172.856 99.7157 176.294 100.731C182.056 102.432 185.14 99.4324 185.14 99.4324C185.14 99.4324 181.635 94.9885 178.042 93.3242C176.344 94.4001 174.703 94.898 173.631 94.9385C172.913 94.9656 171.798 94.9845 170.749 94.6375C169.64 94.2707 168.579 93.4821 168.122 91.9631C168.094 91.8724 168.07 91.7831 168.049 91.6949C167.744 91.4416 167.422 91.1575 167.08 90.8396L166.486 90.7621L166.535 90.7624H166.543C166.999 90.7653 167.46 90.7683 167.927 90.7711C167.921 90.382 167.974 90.0233 168.072 89.6954L167.718 89.4669C167.328 89.4645 166.941 89.462 166.559 89.4596L163.586 89.4423C164.3 88.7983 164.915 88.333 165.454 88.0042C165.07 87.7559 164.693 87.5124 164.322 87.2735ZM181.113 98.2431C181.113 98.2431 179.249 97.3178 177.163 96.7016C175.077 96.0856 173.201 95.3622 173.201 95.3622C176.115 97.0337 177.847 97.6809 181.113 98.2431Z" fill="black"/>
<path d="M188.239 80.3238C188.285 80.5552 188.317 80.789 188.336 81.0213C188.411 81.9321 188.308 82.9178 188.081 83.8834C189.287 83.3075 190.504 82.9119 192.17 82.5121C192.17 82.5121 190.527 83.4661 188.661 84.1515C188.416 84.2415 188.175 84.3329 187.94 84.424C187.844 84.7641 187.732 85.0994 187.609 85.4256C187.299 86.2465 186.898 87.0501 186.424 87.7563C187.068 87.9055 187.787 87.9525 188.734 87.6044C192.242 86.3152 195.771 81.1889 195.771 81.1889C195.771 81.1889 193.016 78.8379 188.239 80.3238Z" fill="black"/>
<path fill-rule="evenodd" clip-rule="evenodd" d="M181.702 89.9645C182.946 90.5103 184.141 90.0507 185.045 89.3165C187.322 89.2428 189.65 89.1396 192.018 88.9966L193.744 88.8857L195.981 88.7333C198.234 88.5272 199.291 87.9805 200.34 87.4385L200.341 87.4379C201.353 86.9145 202.357 86.3958 204.419 86.1912C208.618 85.7747 213.506 86.5529 213.506 86.5529C213.506 86.5529 210.522 92.4831 205.152 93.0156C199.782 93.5481 196.05 90.034 196.05 90.034L195.331 90.0777C190.679 90.4278 186.154 90.6127 181.85 90.7055C186.104 93.7945 187.863 93.5855 189.805 93.3546C190.719 93.2458 191.675 93.1323 192.95 93.3561C196.98 94.0632 201.778 98.9 201.778 98.9C201.778 98.9 199.053 102.23 193.136 101.192C189.633 100.577 187.153 97.7224 184.82 95.0376C183.481 93.4959 182.19 92.0102 180.782 91.0368C180.943 90.8637 181.101 90.6842 181.256 90.4982L181.702 89.9645ZM197.642 98.1744C197.642 98.1744 195.686 97.466 193.543 97.09C191.4 96.7142 189.455 96.2079 189.455 96.2079C192.539 97.5387 194.333 97.9856 197.642 98.1744ZM199.747 89.9902C203.026 89.1695 204.826 88.8801 207.956 88.8184C207.956 88.8184 205.901 89.6795 204.178 90.0125C202.455 90.3459 199.747 89.9902 199.747 89.9902Z" fill="black"/>
<path fill-rule="evenodd" clip-rule="evenodd" d="M117.44 89.0096C117.496 89.3097 117.607 89.6098 117.786 89.904C117.886 90.0699 118.002 90.2194 118.131 90.3541C116.737 90.276 115.33 90.1846 113.91 90.0777L113.254 90.0273L112.535 89.9696L112.019 89.9126C112.019 89.9126 108.075 93.1873 102.749 92.3213C97.4232 91.4554 94.8135 85.3508 94.8135 85.3508C94.8135 85.3508 99.7408 84.8786 103.906 85.5558C105.951 85.8882 106.92 86.4687 107.897 87.0538L107.898 87.0541C108.911 87.6608 109.933 88.2724 112.169 88.6184L112.401 88.6516C113.439 88.7379 114.471 88.8157 115.497 88.8857L117.223 88.9966C117.263 88.999 117.303 89.0014 117.342 89.0038L117.44 89.0096ZM100.212 87.9576C103.333 88.214 105.111 88.615 108.332 89.6384C108.332 89.6384 105.607 89.8246 103.909 89.3848C102.21 88.9449 100.212 87.9576 100.212 87.9576Z" fill="black"/>
</svg>
