<svg width="308" height="125" viewBox="0 0 308 125" fill="none" xmlns="http://www.w3.org/2000/svg">
<path d="M0.823242 22.5118C0.823242 10.355 10.6783 0.5 22.8351 0.5H285.485C297.641 0.5 307.496 10.355 307.496 22.5118V102.488C307.496 114.645 297.641 124.5 285.485 124.5H22.8351C10.6783 124.5 0.823242 114.645 0.823242 102.488V22.5118Z" fill="#C5A869"/>
<path fill-rule="evenodd" clip-rule="evenodd" d="M285.485 11.5059H22.8351C16.7567 11.5059 11.8292 16.4334 11.8292 22.5118V102.488C11.8292 108.567 16.7567 113.494 22.8351 113.494H285.485C291.563 113.494 296.49 108.567 296.49 102.488V22.5118C296.49 16.4334 291.563 11.5059 285.485 11.5059ZM22.8351 0.5C10.6783 0.5 0.823242 10.355 0.823242 22.5118V102.488C0.823242 114.645 10.6783 124.5 22.8351 124.5H285.485C297.641 124.5 307.496 114.645 307.496 102.488V22.5118C307.496 10.355 297.641 0.5 285.485 0.5H22.8351Z" fill="#A68C55"/>
<path d="M136.961 52.6685L187.05 79.4525C190.913 81.2464 186.757 91.7723 183.27 89.9457L133.739 64.5983C132.44 63.8819 130.786 62.3725 131.478 60.0234C132.038 58.1175 134.398 58.0389 135.194 58.5534C135.99 59.0679 136.079 60.3909 135.636 60.8686C135.194 61.3464 134.574 61.1627 134.398 60.4644C134.176 59.0704 133.115 59.4354 133.026 60.4644C132.88 62.1634 133.427 63.7352 135.194 63.7352C136.961 63.7352 138.423 62.8899 138.689 60.4644C138.841 59.0736 137.981 54.6802 134.176 54.6802C130.372 54.6802 131.163 58.2413 130.637 59.7294C129.221 63.7352 128.862 64.1536 132.274 65.6829L181.738 90.8294C179.334 93.7077 176.299 94.8424 174.873 94.8963C173.448 94.9501 171.082 94.9232 170.402 92.662C169.721 90.4007 171.536 89.4697 172.054 89.1355C172.573 88.8014 173.934 88.5702 173.124 88.2472C172.313 87.9242 171.341 88.2203 169.379 89.4697C151.149 77.6879 148.502 76.089 128.056 65.6829C126.653 64.8241 125.569 64.3537 126.663 62.7008C126.663 62.7008 128.975 59.6508 129.791 54.6802C130.403 52.6685 133.739 50.7263 136.961 52.6685Z" fill="black"/>
<path d="M160.694 101.058C160.694 103.25 158.554 105.027 155.915 105.027C153.276 105.027 151.136 103.25 151.136 101.057C151.136 98.865 153.276 97.0878 155.915 97.0878C158.554 97.0878 160.694 98.8651 160.694 101.058Z" fill="black"/>
<path d="M159.751 94.661C160.994 94.661 161.019 96.5601 159.751 96.5601L152.078 96.56C150.81 96.56 150.835 94.6609 152.078 94.6609L159.751 94.661Z" fill="black"/>
<path d="M171.125 43.3768C171.125 36.3625 166.249 32.6644 163.573 30.4414C160.897 28.2185 158.983 22.944 153.79 21.9712C153.79 23.8744 154.427 27.3636 151.874 29.1875C151.647 27.8847 150.55 27.3826 149.592 27.3826C149.818 28.1316 149.759 29.5283 149.429 30.4414C148.161 33.942 146.422 33.8066 144.323 35.5832C142.223 37.3598 140.618 40.964 140.705 43.3768C141.426 43.5416 142.253 44.081 142.837 44.5192C143.591 39.0562 151.874 33.4421 155.197 29.1875C161.384 34.2806 166.519 34.9003 168.993 44.5192C169.576 44.0809 170.404 43.5415 171.125 43.3768Z" fill="black"/>
<path d="M140.913 91.9167C139.286 92.598 137.279 92.3947 136.437 91.0082C135.807 89.9685 135.99 88.631 137.45 88.0196C138.619 87.5304 137.974 86.6697 137.506 86.3006L131.008 81.1094C130.743 80.9886 130.032 80.4488 129.308 79.2563C128.404 77.7656 129.138 75.6978 131.037 74.903C132.936 74.1081 135.248 74.9874 136.026 76.2701C136.805 77.5528 135.724 79.1354 134.722 79.5547C133.721 79.9739 133.724 80.7552 134.583 81.4821C135.443 82.209 140.137 85.721 141.206 86.4473C142.061 87.0284 142.765 87.103 143.373 88.1049C144.13 89.3529 142.541 91.2354 140.913 91.9167Z" fill="black"/>
<path fill-rule="evenodd" clip-rule="evenodd" d="M129.55 81.3203C129.798 81.553 130.049 81.7454 130.284 81.8779L131.034 82.4775C130.987 83.2198 131.019 84.1862 131.109 85.1487C131.234 86.4887 131.479 87.9069 131.827 88.802C131.926 89.0572 132.255 89.1972 132.562 89.1149C132.869 89.0325 133.038 88.7589 132.939 88.5038C132.635 87.721 132.397 86.3958 132.274 85.0736C132.219 84.4802 132.188 83.9044 132.182 83.3945L136.699 87.0026L136.702 87.0048C136.755 87.0473 136.82 87.1086 136.871 87.1751C135.867 87.6106 135.257 88.3165 135.029 89.1064C129.112 91.1251 121.374 92.6962 119.958 90.3628C118.416 87.8202 124.682 83.6077 129.55 81.3203ZM128.667 82.8574C128.987 82.8942 129.21 83.1393 129.166 83.4049C129.021 84.2735 129.1 85.3853 129.33 86.4606C129.561 87.5376 129.931 88.5266 130.33 89.1543C130.48 89.3915 130.371 89.6851 130.085 89.8101C129.799 89.9351 129.446 89.8441 129.296 89.607C128.821 88.8584 128.422 87.7625 128.18 86.6305C127.937 85.4968 127.84 84.2757 128.008 83.2715C128.052 83.006 128.347 82.8205 128.667 82.8574ZM125.934 83.9483C126.256 83.9309 126.535 84.1337 126.555 84.4013C126.601 84.9856 126.783 86.0568 127.033 87.1384C127.284 88.2296 127.591 89.27 127.871 89.8171C127.997 90.0638 127.859 90.3489 127.562 90.4537C127.265 90.5585 126.922 90.4434 126.795 90.1966C126.462 89.5438 126.136 88.4104 125.885 87.3212C125.631 86.2224 125.439 85.1065 125.389 84.4642C125.368 84.1967 125.612 83.9657 125.934 83.9483ZM123.966 85.8123C124.288 85.8245 124.538 86.0516 124.523 86.3194C124.442 87.7953 124.885 89.2398 125.253 89.9637C125.379 90.2106 125.24 90.4954 124.943 90.5999C124.645 90.7044 124.303 90.5889 124.177 90.342C123.748 89.4996 123.266 87.9111 123.355 86.2752C123.37 86.0073 123.643 85.8001 123.966 85.8123ZM121.62 87.6794C121.941 87.6527 122.227 87.8473 122.259 88.1141C122.291 88.3756 122.411 88.7698 122.565 89.1811C122.715 89.5834 122.883 89.9681 122.991 90.1962C123.109 90.4457 122.961 90.7275 122.661 90.8256C122.361 90.9236 122.021 90.8008 121.903 90.5513C121.786 90.3036 121.608 89.8962 121.448 89.4685C121.292 89.0499 121.14 88.5763 121.096 88.2107C121.064 87.9439 121.298 87.706 121.62 87.6794Z" fill="black"/>
<path fill-rule="evenodd" clip-rule="evenodd" d="M159.751 93.8316H158.128L158.659 83.8137C159.301 84.2205 159.964 84.6421 160.651 85.0808L159.751 93.8316ZM156.682 93.8316L157.029 82.7861C156.246 82.2951 155.492 81.825 154.756 81.3713L155.147 93.8315L156.682 93.8316ZM152.984 80.287L153.701 93.8315H152.078L150.535 78.8222C151.343 79.2989 152.155 79.7846 152.984 80.287ZM144.277 75.2732C145.768 76.0884 147.171 76.8738 148.55 77.667L137.395 82.337C136.476 81.6408 135.708 81.0475 135.417 80.8018C135.273 80.6796 135.194 80.5797 135.155 80.5121C135.152 80.508 135.15 80.504 135.148 80.5003L135.145 80.4949C135.142 80.4887 135.139 80.483 135.137 80.4778C135.16 80.4632 135.196 80.4438 135.248 80.4218C136.066 80.0794 136.751 79.3649 137.124 78.6023C137.201 78.4465 137.267 78.2815 137.321 78.1095C139.22 77.3354 141.614 76.3595 144.277 75.2732ZM174.515 71.5953C176.704 70.6622 178.445 69.9231 179.495 69.4837C186.142 66.7009 188.368 62.4365 187.883 61.6351C187.396 60.834 181.946 59.7834 175.298 62.5662C173.566 63.2913 169.856 64.8169 165.317 66.6767L169.483 68.9043L179.805 64.5832C183.418 63.0706 185.198 62.7591 185.198 62.7591C185.198 62.7591 183.84 63.766 180.227 65.2786C179.225 65.698 175.412 67.3046 170.425 69.408L174.515 71.5953ZM162.688 65.271L162.924 62.9765C163.497 62.689 164.643 61.8411 164.643 60.7489C164.643 59.6568 163.266 58.3437 162.577 57.8236L164.267 56.0294H165.3L167.507 53.1821C168.794 53.1821 169.593 52.1652 169.291 51.427L171.125 50.4157L170.501 47.5321L171.788 43.3525C171.586 43.309 171.361 43.3227 171.125 43.3768C170.404 43.5415 169.576 44.0809 168.993 44.5192C168.543 44.8569 168.238 45.1345 168.238 45.1345C168.238 45.1345 166.851 42.9313 166.023 42.9313C165.195 42.9313 163.207 44.7133 163.207 44.7133C163.207 44.7133 161.155 42.2185 160.477 42.2185C159.799 42.2185 158.02 44.3245 158.02 44.3245C157.709 43.6873 156.852 42.4128 155.915 42.4128C154.977 42.4128 154.121 43.6872 153.81 44.3244C153.81 44.3244 152.031 42.2184 151.353 42.2184C150.675 42.2184 148.622 44.7132 148.622 44.7132C148.622 44.7132 146.634 42.9312 145.806 42.9312C144.978 42.9312 143.591 45.1344 143.591 45.1344C143.591 45.1344 143.286 44.8568 142.837 44.5192C142.253 44.081 141.426 43.5416 140.705 43.3768C140.468 43.3227 140.243 43.3089 140.042 43.3524L141.329 47.532L140.705 50.4157L142.538 51.4269C142.237 52.1651 143.035 53.1821 144.323 53.1821L146.529 56.0294H147.562L149.253 57.8236C149.191 57.8698 149.125 57.9223 149.054 57.9804L151.776 59.4361C152.892 59.2722 154.36 59.1204 155.915 59.1204C158.577 59.1204 160.984 59.5658 161.809 59.7542C162.634 59.9426 162.696 60.4051 162.577 60.6107C162.458 60.8162 161.953 60.919 161.314 60.7489C160.675 60.5789 157.682 60.1995 155.915 60.1995C155.217 60.1995 154.328 60.2587 153.468 60.3407L157.664 62.5843L157.682 62.0094C158.479 62.0529 159.176 62.1259 159.803 62.2205L159.725 63.6866L162.688 65.271ZM155.915 57.9911C157.407 57.9911 160.036 58.2425 160.675 58.3933C161.314 58.5442 161.603 58.0243 160.897 57.8236C160.13 57.6058 157.408 57.2874 155.915 57.2874C154.422 57.2874 151.699 57.6057 150.932 57.8236C150.226 58.0243 150.515 58.5441 151.154 58.3933C151.794 58.2425 154.422 57.9911 155.915 57.9911ZM155.915 55.2409C158.942 55.2409 160.819 55.637 161.314 55.8332C161.809 56.0294 162.086 55.3797 161.557 55.241C161.028 55.1022 159.011 54.6788 155.915 54.6788C152.818 54.6788 150.801 55.1022 150.272 55.2409C149.743 55.3796 150.02 56.0294 150.515 55.8332C151.01 55.637 152.887 55.2409 155.915 55.2409ZM155.915 51.9616C159.803 51.9616 165.217 52.7895 165.585 52.9198C165.954 53.0502 166.624 52.5132 166.023 52.2639C165.423 52.0146 160.196 51.2833 155.915 51.2833C151.633 51.2833 146.406 52.0145 145.806 52.2638C145.206 52.5131 145.875 53.0501 146.244 52.9198C146.612 52.7895 152.027 51.9616 155.915 51.9616ZM158.981 45.7896C158.981 45.7896 159.896 44.2084 160.546 44.2084C161.197 44.2084 162.365 46.2113 162.365 46.2113C162.365 46.2113 161.06 47.687 160.546 47.687C160.033 47.687 158.981 45.7896 158.981 45.7896ZM163.573 46.2113C163.573 46.2113 164.967 44.3252 165.789 44.5193C166.612 44.7133 167.663 46.8729 167.663 46.8729C167.663 46.8729 166.223 48.2774 165.3 48.2015C164.377 48.1256 163.573 46.2113 163.573 46.2113ZM155.915 47.6869C156.695 47.6869 157.655 46.0187 157.655 46.0187C157.655 46.0187 156.764 43.8549 155.915 43.8169C155.065 43.8549 154.174 46.0187 154.174 46.0187C154.174 46.0187 155.134 47.6869 155.915 47.6869ZM155.915 49.2177C156.986 49.2177 158.02 47.687 158.02 47.687C158.02 47.687 159.707 49.2178 160.546 49.2178C161.386 49.2178 162.77 47.9292 162.77 47.9292C162.77 47.9292 164.463 49.6954 165.3 49.6954C166.137 49.6954 167.663 48.6749 167.663 48.6749L169.606 50.195L168.778 50.7485C164.25 49.802 161.415 49.5594 155.915 49.5773C150.415 49.5594 147.58 49.802 143.052 50.7485L142.223 50.195L144.167 48.6749C144.167 48.6749 145.692 49.6953 146.529 49.6953C147.366 49.6953 149.059 47.9291 149.059 47.9291C149.059 47.9291 150.444 49.2177 151.283 49.2177C152.123 49.2177 153.81 47.6869 153.81 47.6869C153.81 47.6869 154.843 49.2177 155.915 49.2177ZM152.848 45.7896C152.848 45.7896 151.934 44.2084 151.283 44.2084C150.633 44.2084 149.464 46.2112 149.464 46.2112C149.464 46.2112 150.77 47.6869 151.283 47.6869C151.796 47.6869 152.848 45.7896 152.848 45.7896ZM148.257 46.2112C148.257 46.2112 146.863 44.3252 146.04 44.5192C145.218 44.7132 144.167 46.8728 144.167 46.8728C144.167 46.8728 145.606 48.2774 146.529 48.2014C147.452 48.1255 148.257 46.2112 148.257 46.2112ZM141.83 85.6161C143.833 84.7547 146.588 83.57 149.714 82.2267L149.312 78.3152C144.547 80.3259 140.477 82.0437 138.251 82.9829C139.662 84.043 141.181 85.1646 141.83 85.6161Z" fill="black"/>
</svg>
