<svg width="308" height="125" viewBox="0 0 308 125" fill="none" xmlns="http://www.w3.org/2000/svg">
<path d="M0.823242 22.5118C0.823242 10.355 10.6783 0.5 22.8351 0.5H285.485C297.641 0.5 307.496 10.355 307.496 22.5118V102.488C307.496 114.645 297.641 124.5 285.485 124.5H22.8351C10.6783 124.5 0.823242 114.645 0.823242 102.488V22.5118Z" fill="#C5A869"/>
<path fill-rule="evenodd" clip-rule="evenodd" d="M285.485 11.5059H22.8351C16.7567 11.5059 11.8292 16.4334 11.8292 22.5118V102.488C11.8292 108.567 16.7567 113.494 22.8351 113.494H285.485C291.563 113.494 296.49 108.567 296.49 102.488V22.5118C296.49 16.4334 291.563 11.5059 285.485 11.5059ZM22.8351 0.5C10.6783 0.5 0.823242 10.355 0.823242 22.5118V102.488C0.823242 114.645 10.6783 124.5 22.8351 124.5H285.485C297.641 124.5 307.496 114.645 307.496 102.488V22.5118C307.496 10.355 297.641 0.5 285.485 0.5H22.8351Z" fill="#A68C55"/>
<path d="M135.218 51.6693L185.307 78.4533C189.17 80.2471 185.015 90.773 181.527 88.9464L131.997 63.5991C130.697 62.8826 129.044 61.3732 129.735 59.0241C130.296 57.1182 132.655 57.0396 133.451 57.5541C134.247 58.0686 134.336 59.3916 133.894 59.8694C133.451 60.3471 132.832 60.1634 132.655 59.4651C132.434 58.0711 131.372 58.4361 131.283 59.4651C131.137 61.1641 131.684 62.7359 133.451 62.7359C135.218 62.7359 136.681 61.8907 136.946 59.4651C137.098 58.0743 136.238 53.681 132.434 53.681C128.629 53.681 129.42 57.242 128.894 58.7301C127.479 62.7359 127.12 63.1544 130.531 64.6837L179.995 89.8301C177.592 92.7085 174.557 93.8432 173.131 93.897C171.705 93.9509 169.339 93.9239 168.659 91.6627C167.978 89.4015 169.793 88.4705 170.312 88.1363C170.83 87.8021 172.191 87.571 171.381 87.2479C170.571 86.9249 169.599 87.221 167.636 88.4705C149.407 76.6886 146.759 75.0897 126.313 64.6837C124.91 63.8249 123.826 63.3545 124.92 61.7016C124.92 61.7016 127.232 58.6515 128.048 53.681C128.66 51.6693 131.997 49.7271 135.218 51.6693Z" fill="black"/>
<path d="M158.951 100.058C158.951 102.251 156.811 104.028 154.172 104.028C151.533 104.028 149.393 102.251 149.393 100.058C149.393 97.8658 151.533 96.0885 154.172 96.0885C156.811 96.0885 158.951 97.8658 158.951 100.058Z" fill="black"/>
<path d="M158.009 93.6617C159.252 93.6617 159.276 95.5608 158.009 95.5608L150.335 95.5607C149.068 95.5607 149.092 93.6617 150.335 93.6617L158.009 93.6617Z" fill="black"/>
<path d="M169.382 42.3775C169.382 35.3632 164.506 31.6651 161.83 29.4422C159.154 27.2192 157.241 21.9447 152.048 20.9719C152.048 22.8751 152.684 26.3644 150.132 28.1883C149.905 26.8855 148.808 26.3833 147.85 26.3833C148.075 27.1323 148.017 28.5291 147.686 29.4422C146.418 32.9428 144.679 32.8074 142.58 34.5839C140.481 36.3605 138.875 39.9647 138.962 42.3775C139.683 42.5423 140.511 43.0817 141.094 43.5199C141.848 38.0569 150.132 32.4429 153.454 28.1883C159.642 33.2813 164.776 33.9011 167.25 43.5199C167.834 43.0817 168.661 42.5423 169.382 42.3775Z" fill="black"/>
<path d="M139.171 90.9174C137.543 91.5987 135.536 91.3955 134.695 90.0089C134.064 88.9692 134.247 87.6317 135.708 87.0203C136.876 86.5312 136.232 85.6705 135.764 85.3013L129.266 80.1102C129 79.9893 128.289 79.4495 127.566 78.257C126.661 76.7663 127.396 74.6985 129.294 73.9037C131.193 73.1089 133.506 73.9882 134.284 75.2708C135.062 76.5535 133.981 78.1361 132.98 78.5554C131.978 78.9747 131.981 79.756 132.841 80.4828C133.7 81.2097 138.395 84.7217 139.463 85.4481C140.318 86.0291 141.022 86.1038 141.63 87.1057C142.387 88.3537 140.798 90.2361 139.171 90.9174Z" fill="black"/>
<path fill-rule="evenodd" clip-rule="evenodd" d="M127.808 80.3211C128.056 80.5537 128.306 80.7461 128.541 80.8786L129.292 81.4782C129.244 82.2205 129.276 83.187 129.366 84.1494C129.491 85.4895 129.736 86.9076 130.084 87.8027C130.183 88.0579 130.512 88.198 130.82 88.1156C131.127 88.0333 131.295 87.7597 131.196 87.5045C130.892 86.7217 130.655 85.3966 130.531 84.0744C130.476 83.4809 130.445 82.9052 130.44 82.3952L134.956 86.0034L134.959 86.0055C135.013 86.048 135.077 86.1094 135.129 86.1758C134.125 86.6114 133.515 87.3173 133.286 88.1072C127.369 90.1258 119.631 91.6969 118.216 89.3635C116.673 86.8209 122.939 82.6084 127.808 80.3211ZM126.925 81.8581C127.244 81.8949 127.467 82.1401 127.423 82.4056C127.278 83.2742 127.358 84.3861 127.588 85.4613C127.818 86.5383 128.189 87.5273 128.587 88.1551C128.737 88.3923 128.628 88.6859 128.342 88.8109C128.057 88.9358 127.703 88.8449 127.553 88.6077C127.078 87.8591 126.679 86.7632 126.437 85.6313C126.194 84.4976 126.098 83.2764 126.265 82.2723C126.31 82.0067 126.605 81.8213 126.925 81.8581ZM124.192 82.9491C124.514 82.9317 124.792 83.1344 124.813 83.402C124.859 83.9863 125.04 85.0575 125.29 86.1392C125.542 87.2303 125.849 88.2707 126.128 88.8178C126.255 89.0646 126.116 89.3496 125.819 89.4544C125.522 89.5592 125.179 89.4441 125.053 89.1974C124.719 88.5445 124.393 87.4112 124.142 86.3219C123.889 85.2231 123.697 84.1072 123.646 83.465C123.626 83.1974 123.87 82.9664 124.192 82.9491ZM122.223 84.8131C122.546 84.8253 122.795 85.0523 122.78 85.3201C122.699 86.796 123.142 88.2405 123.511 88.9644C123.636 89.2113 123.497 89.4962 123.2 89.6006C122.903 89.7051 122.56 89.5896 122.434 89.3427C122.005 88.5003 121.523 86.9118 121.613 85.2759C121.627 85.008 121.901 84.8008 122.223 84.8131ZM119.877 86.6801C120.198 86.6534 120.484 86.8481 120.517 87.1149C120.548 87.3764 120.668 87.7705 120.822 88.1818C120.972 88.5841 121.141 88.9689 121.249 89.1969C121.367 89.4464 121.219 89.7282 120.918 89.8263C120.618 89.9244 120.279 89.8016 120.161 89.552C120.044 89.3043 119.865 88.8969 119.706 88.4693C119.549 88.0506 119.398 87.577 119.354 87.2114C119.321 86.9446 119.556 86.7067 119.877 86.6801Z" fill="black"/>
<path fill-rule="evenodd" clip-rule="evenodd" d="M158.009 92.8323H156.385L156.916 82.8145C157.559 83.2213 158.221 83.6429 158.909 84.0815L158.009 92.8323ZM154.939 92.8323L155.286 81.7868C154.504 81.2958 153.749 80.8258 153.013 80.372L153.405 92.8322L154.939 92.8323ZM151.241 79.2878L151.959 92.8322H150.335L148.792 77.823C149.601 78.2997 150.413 78.7854 151.241 79.2878ZM142.534 74.2739C144.026 75.0891 145.428 75.8745 146.808 76.6677L135.652 81.3377C134.733 80.6415 133.965 80.0482 133.674 79.8025C133.53 79.6803 133.451 79.5804 133.412 79.5128C133.41 79.5087 133.407 79.5048 133.405 79.501L133.402 79.4956C133.399 79.4894 133.396 79.4837 133.394 79.4785C133.417 79.4639 133.453 79.4445 133.506 79.4225C134.323 79.0801 135.008 78.3657 135.382 77.603C135.458 77.4473 135.525 77.2822 135.578 77.1102C137.478 76.3362 139.871 75.3602 142.534 74.2739ZM172.772 70.596C174.961 69.6629 176.702 68.9238 177.752 68.4844C184.4 65.7016 186.625 61.4373 186.14 60.6358C185.653 59.8348 180.203 58.7841 173.556 61.567C171.824 62.2921 168.114 63.8177 163.574 65.6774L167.74 67.905L178.062 63.5839C181.675 62.0713 183.455 61.7598 183.455 61.7598C183.455 61.7598 182.097 62.7668 178.484 64.2793C177.482 64.6987 173.67 66.3054 168.682 68.4087L172.772 70.596ZM160.945 64.2717L161.181 61.9772C161.754 61.6898 162.9 60.8418 162.9 59.7497C162.9 58.6576 161.523 57.3444 160.834 56.8244L162.525 55.0302H163.558L165.764 52.1829C167.051 52.1829 167.85 51.1659 167.548 50.4277L169.382 49.4165L168.758 46.5328L170.045 42.3532C169.844 42.3097 169.619 42.3234 169.382 42.3775C168.661 42.5423 167.834 43.0817 167.25 43.5199C166.801 43.8576 166.496 44.1352 166.496 44.1352C166.496 44.1352 165.108 41.932 164.281 41.932C163.453 41.932 161.464 43.714 161.464 43.714C161.464 43.714 159.412 41.2192 158.734 41.2192C158.056 41.2192 156.277 43.3252 156.277 43.3252C155.966 42.688 155.109 41.4135 154.172 41.4135C153.235 41.4135 152.378 42.688 152.067 43.3252C152.067 43.3252 150.288 41.2191 149.61 41.2191C148.932 41.2191 146.88 43.714 146.88 43.714C146.88 43.714 144.891 41.9319 144.063 41.9319C143.236 41.9319 141.848 44.1352 141.848 44.1352C141.848 44.1352 141.544 43.8576 141.094 43.5199C140.511 43.0817 139.683 42.5423 138.962 42.3775C138.726 42.3234 138.5 42.3097 138.299 42.3531L139.586 46.5328L138.962 49.4164L140.796 50.4276C140.494 51.1658 141.293 52.1828 142.58 52.1828L144.787 55.0301H145.82L147.51 56.8243C147.449 56.8705 147.382 56.923 147.311 56.9811L150.034 58.4368C151.15 58.2729 152.617 58.1211 154.172 58.1211C156.835 58.1211 159.242 58.5665 160.066 58.755C160.891 58.9434 160.953 59.4058 160.834 59.6114C160.715 59.8169 160.211 59.9197 159.572 59.7497C158.932 59.5796 155.939 59.2002 154.172 59.2002C153.474 59.2002 152.585 59.2594 151.725 59.3415L155.921 61.5851L155.939 61.0101C156.737 61.0537 157.434 61.1267 158.06 61.2212L157.983 62.6874L160.945 64.2717ZM154.172 56.9919C155.664 56.9919 158.293 57.2433 158.932 57.3941C159.572 57.5449 159.86 57.025 159.154 56.8244C158.388 56.6065 155.665 56.2881 154.172 56.2881C152.679 56.2881 149.956 56.6065 149.19 56.8243C148.484 57.025 148.773 57.5448 149.412 57.394C150.051 57.2432 152.68 56.9919 154.172 56.9919ZM154.172 54.2416C157.199 54.2416 159.077 54.6378 159.572 54.834C160.066 55.0302 160.343 54.3804 159.814 54.2417C159.285 54.103 157.269 53.6795 154.172 53.6795C151.075 53.6795 149.059 54.1029 148.53 54.2416C148.001 54.3803 148.278 55.0301 148.773 54.8339C149.267 54.6377 151.145 54.2416 154.172 54.2416ZM154.172 50.9624C158.06 50.9624 163.474 51.7903 163.843 51.9206C164.211 52.0509 164.881 51.5139 164.281 51.2646C163.68 51.0153 158.454 50.284 154.172 50.284C149.891 50.284 144.664 51.0153 144.063 51.2646C143.463 51.5139 144.133 52.0508 144.501 51.9205C144.87 51.7902 150.284 50.9624 154.172 50.9624ZM157.239 44.7903C157.239 44.7903 158.153 43.2092 158.804 43.2092C159.454 43.2092 160.622 45.212 160.622 45.212C160.622 45.212 159.317 46.6877 158.804 46.6877C158.29 46.6877 157.239 44.7903 157.239 44.7903ZM161.83 45.212C161.83 45.212 163.224 43.326 164.047 43.52C164.869 43.714 165.92 45.8736 165.92 45.8736C165.92 45.8736 164.481 47.2781 163.558 47.2022C162.634 47.1263 161.83 45.212 161.83 45.212ZM154.172 46.6877C154.953 46.6877 155.912 45.0195 155.912 45.0195C155.912 45.0195 155.021 42.8556 154.172 42.8177C153.323 42.8556 152.432 45.0194 152.432 45.0194C152.432 45.0194 153.391 46.6877 154.172 46.6877ZM154.172 48.2184C155.243 48.2184 156.277 46.6877 156.277 46.6877C156.277 46.6877 157.964 48.2185 158.804 48.2185C159.643 48.2185 161.027 46.9299 161.027 46.9299C161.027 46.9299 162.721 48.6961 163.558 48.6961C164.394 48.6961 165.92 47.6757 165.92 47.6757L167.864 49.1958L167.035 49.7493C162.507 48.8028 159.672 48.5601 154.172 48.578C148.672 48.5601 145.837 48.8027 141.309 49.7492L140.481 49.1957L142.424 47.6756C142.424 47.6756 143.95 48.6961 144.787 48.6961C145.624 48.6961 147.317 46.9299 147.317 46.9299C147.317 46.9299 148.701 48.2184 149.541 48.2184C150.38 48.2184 152.067 46.6877 152.067 46.6877C152.067 46.6877 153.1 48.2184 154.172 48.2184ZM151.106 44.7903C151.106 44.7903 150.191 43.2091 149.541 43.2091C148.89 43.2091 147.722 45.2119 147.722 45.2119C147.722 45.2119 149.027 46.6877 149.541 46.6877C150.054 46.6877 151.106 44.7903 151.106 44.7903ZM146.514 45.2119C146.514 45.2119 145.12 43.3259 144.298 43.5199C143.475 43.714 142.424 45.8735 142.424 45.8735C142.424 45.8735 143.863 47.2781 144.787 47.2022C145.71 47.1262 146.514 45.2119 146.514 45.2119ZM140.088 84.6168C142.09 83.7555 144.845 82.5708 147.971 81.2275L147.569 77.3159C142.804 79.3267 138.734 81.0444 136.508 81.9837C137.919 83.0437 139.439 84.1653 140.088 84.6168Z" fill="black"/>
<path d="M119.827 84.0415C118.996 84.7472 118.255 85.499 117.734 86.2673C115.139 84.2822 113.01 81.1889 113.01 81.1889C113.01 81.1889 115.999 78.6375 121.15 80.5304C121.938 80.8199 122.621 81.1891 123.227 81.6162C122.168 82.2696 121.152 82.9687 120.262 83.6826C119.194 83.2121 118.076 82.8638 116.61 82.5121C116.61 82.5121 118.086 83.3685 119.827 84.0415Z" fill="black"/>
<path fill-rule="evenodd" clip-rule="evenodd" d="M116.98 89.0096C117.036 89.3097 117.147 89.6098 117.325 89.904C117.425 90.0699 117.542 90.2194 117.67 90.3541C116.277 90.276 114.869 90.1846 113.45 90.0777C112.023 91.0239 110.686 92.4646 109.296 93.9624C106.859 96.5889 104.258 99.3913 100.724 100.011C94.8064 101.05 92.0816 97.7197 92.0816 97.7197C92.0816 97.7197 96.8794 92.8829 100.91 92.1758C102.217 91.9465 103.219 92.1003 104.197 92.2503C106.163 92.5519 108.03 92.8383 112.075 89.9696C108.348 89.664 104.549 89.2489 100.725 88.6872C100.123 88.5988 99.5213 88.5068 98.9188 88.4111C97.2219 90.6623 95.9787 92.0264 93.7917 93.737C93.806 93.8219 93.8133 93.9091 93.8133 93.9981C93.8133 94.8621 93.1129 95.5627 92.2488 95.5627C91.3847 95.5627 90.6842 94.8621 90.6842 93.9981C90.6842 93.134 91.3847 92.4335 92.2488 92.4335C92.3289 92.4335 92.4075 92.4395 92.4844 92.4511C92.5152 92.4558 92.5459 92.4613 92.5762 92.4678C92.5999 92.4728 92.6233 92.4784 92.6465 92.4844C92.7925 92.5227 92.9304 92.5817 93.0566 92.658C94.9171 91.1958 96.0471 90.0043 97.4626 88.1724C96.5646 88.0206 95.6657 87.8602 94.767 87.6906C93.0067 88.474 91.217 89.9283 89.3448 91.4495L89.3433 91.4509L89.3417 91.4524C86.1991 94.0066 82.8249 96.7489 78.9721 96.8221C72.4963 96.9452 70.1467 92.9455 70.1467 92.9455C70.1467 92.9455 76.061 88.5898 80.4718 88.506C81.8031 88.4807 82.8364 88.7112 83.8412 88.9354C86.0953 89.4381 88.2059 89.909 93.2144 87.3886C89.4916 86.6422 85.7724 85.7343 82.1026 84.6307C79.3619 85.8179 77.5801 86.4091 74.7384 86.8205C74.7087 86.9012 74.6718 86.9806 74.6275 87.0578C74.1982 87.8077 73.2423 88.0675 72.4925 87.6382C71.7426 87.2088 71.4828 86.2528 71.9121 85.5029C72.3413 84.7531 73.2975 84.4932 74.0474 84.9226C74.1626 84.9886 74.2664 85.0671 74.3578 85.1553C74.4697 85.2634 74.5631 85.3863 74.6369 85.5188C76.7831 85.2031 78.2833 84.7797 80.166 84.0285C78.5882 83.5213 77.0208 82.9764 75.4679 82.3911C73.6927 82.8335 72.0795 83.752 70.4378 84.6867C67.6771 86.2584 64.836 87.8762 61.0071 87.3535C54.5895 86.4774 52.8842 82.1635 52.8842 82.1635C52.8842 82.1635 59.3988 78.7709 63.7699 79.3676C65.3846 79.5881 66.1443 80.3431 66.8738 81.0678C68.0855 82.2718 69.2132 83.3921 74.0367 81.8385C70.2302 80.3331 66.5171 78.5766 62.9518 76.5275C60.4995 77.5658 58.7695 78.1074 56.1136 78.4918C56.0839 78.5726 56.047 78.652 56.0027 78.7292C55.5735 79.479 54.6175 79.7388 53.8677 79.3095C53.1178 78.8801 52.858 77.9242 53.2873 77.1743C53.7165 76.4244 54.6727 76.1646 55.4226 76.5939C55.6791 76.7408 55.8783 76.9494 56.0121 77.1902C58.1596 76.8743 59.6603 76.4506 61.5445 75.6986C60.7814 75.2381 60.0257 74.7637 59.2779 74.2749C57.754 74.2266 56.2475 74.5843 54.7147 74.9483C52.0962 75.5701 49.4012 76.2101 46.4117 74.8747C41.4012 72.6363 41.0401 68.7227 41.0401 68.7227C41.0401 68.7227 47.1445 67.5128 50.5574 69.0373C51.8181 69.6006 52.2565 70.3952 52.6774 71.158C53.3646 72.404 54.0051 73.5648 58.1059 73.4926C55.4401 71.6755 52.8797 69.6684 50.4505 67.4518L49.9693 67.0127C49.9693 67.0127 44.8558 67.3653 41.0401 63.5497C37.2245 59.7341 38.6748 53.2555 38.6748 53.2555C38.6748 53.2555 42.949 55.7521 45.9326 58.7358C47.3979 60.201 47.8452 61.2388 48.2964 62.285C48.7638 63.3693 49.2353 64.4626 50.8477 66.0504L51.3288 66.4895C53.3768 68.3584 55.5213 70.0766 57.7469 71.6559C57.4263 67.4327 56.1938 66.9057 54.8697 66.3397C54.0687 65.9972 53.2341 65.6404 52.5479 64.4423C50.6899 61.1989 51.2835 55.0041 51.2835 55.0041C51.2835 55.0041 55.2137 54.9723 57.9416 59.7341C59.569 62.5751 59.2016 65.3206 58.8446 67.9881C58.6517 69.4292 58.4619 70.8476 58.5914 72.2459C59.653 72.9761 60.7321 73.6757 61.8272 74.3458C61.5282 73.2994 61.3061 72.2241 61.1216 70.9289C61.088 70.9164 61.0547 70.9027 61.0214 70.8877C60.975 70.8667 60.9295 70.8433 60.8845 70.8175C60.1356 70.3863 59.8781 69.4298 60.3094 68.6809C60.7405 67.932 61.6972 67.6745 62.446 68.1057C63.1948 68.5368 63.4523 69.4934 63.0213 70.2423C62.8737 70.4984 62.6646 70.6971 62.4236 70.8304C62.6768 72.5803 63.0025 73.9013 63.5187 75.3504C66.872 77.2834 70.3625 78.9546 73.9448 80.399C72.669 76.1387 71.3279 75.8962 69.8852 75.6353C69.0279 75.4804 68.1348 75.3189 67.1982 74.3042C64.6632 71.5575 63.8589 65.3865 63.8589 65.3865C63.8589 65.3865 67.6827 64.478 71.405 68.5107C73.6258 70.9167 73.8804 73.675 74.128 76.3551C74.269 77.8823 74.4077 79.3839 74.9064 80.7805C75.7806 81.1217 76.6597 81.4496 77.5437 81.7648C77.0129 80.7654 76.5605 79.7262 76.1 78.4459C76.0147 78.4328 75.9297 78.4125 75.8453 78.3847C75.0244 78.1141 74.5786 77.2295 74.8494 76.4088C75.1198 75.5882 76.0045 75.1423 76.8251 75.4129C77.6457 75.6835 78.0915 76.5681 77.821 77.3888C77.7284 77.6695 77.564 77.9064 77.3549 78.0857C77.9755 79.7992 78.5795 81.0508 79.4166 82.4118C82.9926 83.6078 86.6339 84.6045 90.2974 85.4343C88.1929 81.838 86.8614 81.8997 85.4314 81.9659C84.5612 82.0062 83.6547 82.0482 82.5153 81.2682C79.4309 79.1568 77.2694 73.3211 77.2694 73.3211C77.2694 73.3211 80.7939 71.5819 85.3223 74.6819C88.0242 76.5313 88.8883 79.1632 89.728 81.7203C90.1822 83.1038 90.6292 84.4655 91.3564 85.6695C92.9393 86.0139 94.5255 86.3279 96.1117 86.614C94.8321 85.4791 93.8192 84.3757 92.6434 82.7917C92.5582 82.8038 92.4709 82.809 92.3818 82.8068C91.518 82.785 90.8356 82.067 90.8572 81.2031C90.8791 80.3394 91.5971 79.6568 92.461 79.6786C93.3248 79.7005 94.0072 80.4184 93.9856 81.2822C93.9808 81.4653 93.9449 81.6404 93.8828 81.8023C93.8449 81.9016 93.7971 81.9959 93.7406 82.0841C95.2975 84.1716 96.5491 85.3663 98.6747 87.0525C99.4218 87.1735 100.168 87.2887 100.914 87.3982C103.632 87.7976 106.338 88.1223 109.014 88.3859C106.665 85.4579 105.397 85.6758 104.04 85.9092C103.182 86.0568 102.288 86.2107 101.06 85.5777C97.7384 83.8642 94.8713 78.3408 94.8713 78.3408C94.8713 78.3408 98.1536 76.1788 103.031 78.6946C105.941 80.1955 107.124 82.7003 108.274 85.1339C108.829 86.3098 109.377 87.469 110.107 88.4904C110.72 88.5472 111.331 88.6009 111.94 88.6516C112.978 88.7379 114.011 88.8157 115.037 88.8857C113.713 87.1989 112.604 86.0525 110.834 84.6608C110.598 84.8033 110.321 84.8853 110.026 84.8853C109.162 84.8853 108.461 84.1848 108.461 83.3207C108.461 82.4566 109.162 81.7561 110.026 81.7561C110.89 81.7561 111.59 82.4566 111.59 83.3207C111.59 83.3561 111.589 83.3912 111.587 83.426L111.581 83.488C111.578 83.5196 111.574 83.5508 111.569 83.5818C113.784 85.3148 115.031 86.6922 116.763 88.9966C116.835 89.001 116.907 89.0053 116.98 89.0096ZM41.5317 58.5259C43.9141 60.5579 45.1227 61.9226 47.1381 64.6356C47.1381 64.6356 44.8184 63.1942 43.697 61.8444C42.5757 60.4946 41.5317 58.5259 41.5317 58.5259ZM100.317 95.9097C98.174 96.2857 96.2178 96.9941 96.2178 96.9941C99.5264 96.8053 101.32 96.3584 104.405 95.0276C104.405 95.0276 102.459 95.5339 100.317 95.9097ZM57.3701 82.7759C57.3701 82.7759 59.6115 82.6904 61.9353 83.0076C64.2592 83.3248 66.4232 83.4434 66.4232 83.4434C62.819 83.7978 60.8298 83.6679 57.3701 82.7759ZM48.1999 71.5612C46.3855 70.7507 44.5425 70.2872 44.5425 70.2872C47.144 71.8354 48.7307 72.414 51.7459 72.9827C51.7459 72.9827 50.0141 72.3717 48.1999 71.5612ZM53.1903 58.3326C53.1903 58.3326 53.8356 60.1202 54.8234 61.8444C55.8111 63.5686 56.5923 65.2305 56.5923 65.2305C55.7249 62.2873 54.9908 60.7663 53.1903 58.3326ZM68.8366 71.2639C67.4888 69.8037 66.4606 68.2052 66.4606 68.2052C68.759 70.1757 69.8142 71.4943 71.3167 74.1697C71.3167 74.1697 70.1844 72.724 68.8366 71.2639ZM98.2806 80.0992C98.2806 80.0992 99.7935 81.2494 101.559 82.1604C103.325 83.0713 104.884 84.0422 104.884 84.0422C102.557 82.0424 101.114 81.1644 98.2806 80.0992ZM80.4347 75.4879C80.4347 75.4879 81.7937 76.8164 83.4335 77.9389C85.0732 79.0614 86.4996 80.2177 86.4996 80.2177C84.4378 77.9452 83.1147 76.8955 80.4347 75.4879ZM74.6733 92.8595C74.6733 92.8595 76.8747 92.4297 79.2197 92.3852C81.5647 92.3406 83.7211 92.1244 83.7211 92.1244C80.2146 93.0298 78.2291 93.2079 74.6733 92.8595Z" fill="black"/>
<path fill-rule="evenodd" clip-rule="evenodd" d="M126.469 91.034C122.546 93.7791 120.846 93.5769 118.976 93.3546C118.061 93.2458 117.106 93.1323 115.83 93.3561C111.8 94.0632 107.002 98.9 107.002 98.9C107.002 98.9 109.727 102.23 115.644 101.192C119.148 100.577 121.628 97.7224 123.96 95.0376C125.447 93.3264 126.873 91.6843 128.467 90.735C130.347 90.7668 132.182 90.7823 133.962 90.7878C133.907 90.7115 133.854 90.6321 133.804 90.5495C133.606 90.2226 133.457 89.861 133.377 89.4826C133.072 89.4812 132.766 89.4796 132.458 89.4777C130.518 90.0958 128.438 90.6513 126.469 91.034ZM111.138 98.1744C111.138 98.1744 113.095 97.466 115.237 97.09C117.38 96.7142 119.325 96.2079 119.325 96.2079C116.241 97.5387 114.447 97.9856 111.138 98.1744Z" fill="black"/>
<path fill-rule="evenodd" clip-rule="evenodd" d="M142.381 89.4585C143.344 89.4524 144.282 89.4465 145.194 89.4423C144.27 88.6089 143.513 88.0746 142.869 87.7483C142.859 87.356 142.758 86.9548 142.521 86.5652C142.129 85.9184 141.686 85.5414 141.232 85.2595L142.575 84.6818C142.948 85.1668 143.302 85.664 143.653 86.1581C144.494 87.3408 145.322 88.505 146.368 89.4379C146.787 89.4367 147.2 89.4361 147.606 89.4361C147.966 89.4361 148.257 89.7276 148.257 90.0874C148.257 90.4472 147.966 90.7388 147.606 90.7388C146.96 90.7388 146.297 90.7405 145.618 90.7433C144.831 90.7465 144.023 90.7512 143.195 90.7564C141.678 91.8309 140.574 93.3438 139.448 94.8859C137.712 97.266 135.924 99.7157 132.487 100.731C126.725 102.432 123.641 99.4324 123.641 99.4324C123.641 99.4324 127.86 94.0834 131.784 92.9245C133.234 92.4964 134.164 92.8459 135.057 93.1813C136.58 93.7538 137.995 94.2855 141.7 90.8396L142.295 90.7621L142.245 90.7624H142.238C141.928 90.7644 141.615 90.7664 141.3 90.7684C141.62 90.4798 141.907 90.1618 142.144 89.828C142.226 89.7129 142.306 89.5892 142.381 89.4585ZM131.618 96.7016C129.531 97.3178 127.668 98.2431 127.668 98.2431C130.934 97.6809 132.666 97.0337 135.58 95.3622C135.58 95.3622 133.704 96.0856 131.618 96.7016Z" fill="black"/>
<path fill-rule="evenodd" clip-rule="evenodd" d="M163.862 87.2735C163.278 88.0576 162.666 88.8015 161.952 89.4379L161.321 89.4365L160.714 89.4361C160.354 89.4361 160.062 89.7276 160.062 90.0874C160.062 90.4472 160.354 90.7388 160.714 90.7388C162.109 90.7388 163.583 90.7468 165.125 90.7564C166.642 91.8309 167.746 93.3438 168.872 94.8859C170.608 97.266 172.396 99.7157 175.833 100.731C181.595 102.432 184.679 99.4324 184.679 99.4324C184.679 99.4324 181.174 94.9885 177.582 93.3242C175.883 94.4001 174.242 94.898 173.17 94.9385C172.453 94.9656 171.338 94.9845 170.288 94.6375C169.179 94.2707 168.118 93.4821 167.661 91.9631C167.634 91.8724 167.61 91.7831 167.588 91.6949C167.284 91.4416 166.961 91.1575 166.619 90.8396L166.025 90.7621L166.075 90.7624H166.082C166.538 90.7653 167 90.7683 167.467 90.7711C167.46 90.382 167.513 90.0233 167.611 89.6954L167.258 89.4669C166.868 89.4645 166.481 89.462 166.098 89.4596L163.126 89.4423C163.84 88.7983 164.454 88.333 164.994 88.0042C164.609 87.7559 164.232 87.5124 163.862 87.2735ZM180.652 98.2431C180.652 98.2431 178.788 97.3178 176.702 96.7016C174.616 96.0856 172.741 95.3622 172.741 95.3622C175.654 97.0337 177.386 97.6809 180.652 98.2431Z" fill="black"/>
<path d="M187.779 80.3238C187.825 80.5552 187.856 80.789 187.875 81.0213C187.95 81.9321 187.847 82.9178 187.62 83.8834C188.826 83.3075 190.043 82.9119 191.71 82.5121C191.71 82.5121 190.066 83.4661 188.201 84.1515C187.956 84.2415 187.715 84.3329 187.48 84.424C187.383 84.7641 187.272 85.0994 187.149 85.4256C186.839 86.2465 186.438 87.0501 185.964 87.7563C186.607 87.9055 187.326 87.9525 188.273 87.6044C191.782 86.3152 195.31 81.1889 195.31 81.1889C195.31 81.1889 192.556 78.8379 187.779 80.3238Z" fill="black"/>
<path fill-rule="evenodd" clip-rule="evenodd" d="M184.584 89.3165C183.681 90.0507 182.485 90.5103 181.241 89.9645L180.795 90.4982C180.64 90.6842 180.482 90.8637 180.322 91.0368C181.73 92.0102 183.02 93.4959 184.36 95.0376C186.692 97.7224 189.172 100.577 192.676 101.192C198.593 102.23 201.318 98.9 201.318 98.9C201.318 98.9 196.52 94.0632 192.49 93.3561C191.214 93.1323 190.259 93.2458 189.344 93.3546C187.402 93.5855 185.643 93.7945 181.39 90.7055C185.693 90.6127 190.219 90.4278 194.87 90.0777C196.296 91.0236 197.633 92.4637 199.022 93.9611L199.024 93.9625C201.461 96.589 204.062 99.3913 207.596 100.011C213.514 101.05 216.238 97.7197 216.238 97.7197C216.238 97.7197 211.44 92.8829 207.41 92.1758C206.103 91.9465 205.101 92.1003 204.123 92.2503C202.157 92.5519 200.29 92.8383 196.245 89.9696C199.972 89.664 203.772 89.2489 207.595 88.6872C208.196 88.5988 208.798 88.5068 209.401 88.4111C211.098 90.6623 212.341 92.0264 214.528 93.737C214.514 93.8219 214.507 93.9091 214.507 93.9981C214.507 94.8621 215.207 95.5627 216.071 95.5627C216.935 95.5627 217.636 94.8621 217.636 93.9981C217.636 93.134 216.935 92.4335 216.071 92.4335C215.776 92.4335 215.499 92.5155 215.263 92.658C213.403 91.1958 212.273 90.0043 210.857 88.1724C211.755 88.0206 212.654 87.8602 213.553 87.6906C215.314 88.4745 217.105 89.9301 218.978 91.4524C222.121 94.0066 225.495 96.7489 229.348 96.8221C235.824 96.9452 238.173 92.9455 238.173 92.9455C238.173 92.9455 232.259 88.5898 227.848 88.506C226.517 88.4807 225.484 88.7112 224.479 88.9354C222.225 89.4381 220.114 89.909 215.105 87.3886C218.829 86.6422 222.547 85.7343 226.218 84.6307C228.958 85.8179 230.74 86.4091 233.581 86.8205C233.611 86.9012 233.648 86.9806 233.692 87.0578C234.122 87.8077 235.078 88.0675 235.827 87.6382C236.578 87.2088 236.837 86.2528 236.408 85.5029C235.979 84.7531 235.022 84.4932 234.273 84.9226C234.147 84.9947 234.035 85.0817 233.937 85.1802C233.836 85.2821 233.751 85.3963 233.683 85.5188C231.537 85.2031 230.036 84.7797 228.154 84.0285C229.732 83.5213 231.299 82.9764 232.852 82.3911C234.627 82.8335 236.241 83.752 237.882 84.6867C240.643 86.2584 243.484 87.8762 247.312 87.3535C253.731 86.4774 255.436 82.1635 255.436 82.1635C255.436 82.1635 248.921 78.7709 244.55 79.3676C242.935 79.588 242.175 80.343 241.446 81.0677C240.234 82.2718 239.107 83.3922 234.283 81.8385C238.09 80.3331 241.803 78.5767 245.368 76.5275C247.82 77.5658 249.551 78.1074 252.206 78.4918C252.236 78.5726 252.273 78.652 252.317 78.7292C252.746 79.479 253.703 79.7388 254.452 79.3095C255.202 78.8801 255.462 77.9242 255.032 77.1743C254.603 76.4244 253.647 76.1646 252.898 76.5939C252.641 76.7408 252.442 76.9494 252.308 77.1902C250.16 76.8743 248.659 76.4506 246.775 75.6986C247.538 75.2381 248.294 74.7637 249.042 74.2749C250.566 74.2266 252.072 74.5843 253.605 74.9483C256.224 75.5701 258.918 76.2101 261.908 74.8747C266.919 72.6363 267.28 68.7227 267.28 68.7227C267.28 68.7227 261.175 67.5128 257.763 69.0373C256.502 69.6005 256.063 70.3951 255.642 71.1579C254.955 72.4039 254.315 73.5648 250.214 73.4926C252.88 71.6755 255.44 69.6684 257.869 67.4518L258.35 67.0127C258.35 67.0127 263.464 67.3653 267.28 63.5497C271.095 59.7341 269.645 53.2555 269.645 53.2555C269.645 53.2555 265.371 55.7521 262.387 58.7358C260.922 60.201 260.474 61.2388 260.024 62.285C259.556 63.3693 259.085 64.4626 257.472 66.0504L256.991 66.4895C254.943 68.3584 252.798 70.0766 250.573 71.6559C250.894 67.4326 252.126 66.9057 253.45 66.3396C254.251 65.9972 255.086 65.6404 255.772 64.4423C257.63 61.1989 257.036 55.0041 257.036 55.0041C257.036 55.0041 253.106 54.9723 250.378 59.7341C248.751 62.5753 249.118 65.321 249.475 67.9887C249.668 69.4296 249.858 70.8478 249.729 72.2459C249.581 72.3475 249.433 72.4484 249.285 72.5488C248.928 72.7905 248.568 73.0289 248.207 73.2638C248.041 73.3719 247.875 73.4792 247.708 73.5858C247.503 73.7169 247.297 73.847 247.091 73.976C246.892 74.1003 246.692 74.2235 246.493 74.3459C246.791 73.2995 247.014 72.2242 247.198 70.9289C247.241 70.9129 247.284 70.8948 247.326 70.8747C247.35 70.8637 247.373 70.8519 247.395 70.8396L247.435 70.8175C248.184 70.3863 248.442 69.4298 248.011 68.6809C247.579 67.932 246.623 67.6745 245.874 68.1057C245.125 68.5368 244.868 69.4934 245.299 70.2423C245.446 70.4984 245.655 70.6971 245.896 70.8304C245.643 72.5803 245.317 73.9014 244.801 75.3505C241.448 77.2834 237.958 78.9546 234.375 80.399C235.651 76.1387 236.992 75.8962 238.435 75.6353C239.292 75.4804 240.185 75.3189 241.121 74.3042C243.657 71.5575 244.461 65.3865 244.461 65.3865C244.461 65.3865 240.637 64.478 236.915 68.5107C234.695 70.9165 234.44 73.6746 234.192 76.3544C234.051 77.8818 233.912 79.3837 233.413 80.7805C232.539 81.1217 231.66 81.4496 230.776 81.7648C231.307 80.7654 231.759 79.7262 232.22 78.4459C232.305 78.4328 232.39 78.4125 232.475 78.3847C233.295 78.1141 233.741 77.2295 233.471 76.4088C233.2 75.5882 232.316 75.1423 231.495 75.4129C230.674 75.6835 230.228 76.5681 230.499 77.3888C230.591 77.6695 230.756 77.9064 230.965 78.0857C230.344 79.7992 229.741 81.0508 228.903 82.4118C225.328 83.6078 221.686 84.6045 218.022 85.4343C220.127 81.838 221.458 81.8997 222.888 81.9659C223.759 82.0062 224.665 82.0482 225.804 81.2682C228.889 79.1568 231.05 73.3211 231.05 73.3211C231.05 73.3211 227.526 71.5819 222.997 74.6819C220.296 76.5313 219.432 79.1632 218.592 81.7203C218.138 83.1038 217.691 84.4655 216.963 85.6695C215.381 86.0139 213.795 86.3279 212.208 86.614C213.488 85.4791 214.501 84.3757 215.676 82.7917C215.761 82.8038 215.849 82.809 215.938 82.8068C216.802 82.785 217.485 82.067 217.463 81.2031C217.441 80.3394 216.723 79.6568 215.859 79.6786C214.995 79.7005 214.313 80.4184 214.335 81.2822C214.336 81.3192 214.338 81.3559 214.341 81.3923C214.346 81.4419 214.352 81.4907 214.362 81.5387C214.372 81.5912 214.384 81.6427 214.4 81.6931C214.441 81.8328 214.502 81.9641 214.579 82.0841C213.023 84.1716 211.771 85.3663 209.645 87.0525C208.898 87.1735 208.152 87.2887 207.406 87.3982C204.688 87.7976 201.982 88.1223 199.306 88.3859C201.656 85.4579 202.923 85.6758 204.279 85.9092C205.138 86.0568 206.032 86.2107 207.259 85.5777C210.581 83.8642 213.449 78.3408 213.449 78.3408C213.449 78.3408 210.166 76.1788 205.289 78.6946C202.379 80.1955 201.196 82.7003 200.046 85.1339C199.491 86.3098 198.943 87.469 198.212 88.4904C196.556 88.644 194.911 88.7746 193.283 88.8857C194.606 87.1989 195.716 86.0525 197.486 84.6608C197.722 84.8033 197.998 84.8853 198.294 84.8853C199.158 84.8853 199.859 84.1848 199.859 83.3207C199.859 82.4566 199.158 81.7561 198.294 81.7561C197.43 81.7561 196.73 82.4566 196.73 83.3207C196.73 83.4097 196.737 83.4969 196.751 83.5818C194.536 85.3148 193.288 86.6922 191.557 88.9966C189.19 89.1396 186.861 89.2428 184.584 89.3165ZM261.182 64.6356C263.197 61.9226 264.406 60.5579 266.788 58.5259C266.788 58.5259 265.744 60.4946 264.623 61.8444C263.502 63.1942 261.182 64.6356 261.182 64.6356ZM253.497 61.8444C254.484 60.1202 255.13 58.3326 255.13 58.3326C253.329 60.7663 252.595 62.2873 251.728 65.2305C251.728 65.2305 252.509 63.5686 253.497 61.8444ZM263.778 70.2872C263.778 70.2872 261.934 70.7507 260.12 71.5612C258.306 72.3717 256.574 72.9827 256.574 72.9827C259.589 72.414 261.176 71.8354 263.778 70.2872ZM246.385 83.0076C248.708 82.6904 250.95 82.7759 250.95 82.7759C247.49 83.6679 245.501 83.7978 241.897 83.4434C241.897 83.4434 244.061 83.3248 246.385 83.0076ZM212.102 96.9941C212.102 96.9941 210.146 96.2857 208.003 95.9097C205.861 95.5339 203.915 95.0276 203.915 95.0276C206.999 96.3584 208.793 96.8053 212.102 96.9941ZM197.181 98.1744C197.181 98.1744 195.225 97.466 193.083 97.09C190.94 96.7142 188.995 96.2079 188.995 96.2079C192.079 97.5387 193.873 97.9856 197.181 98.1744ZM241.859 68.2052C241.859 68.2052 240.831 69.8037 239.483 71.2639C238.136 72.724 237.003 74.1697 237.003 74.1697C238.506 71.4943 239.561 70.1757 241.859 68.2052ZM206.76 82.1604C208.527 81.2494 210.04 80.0992 210.04 80.0992C207.206 81.1644 205.763 82.0424 203.436 84.0422C203.436 84.0422 204.994 83.0713 206.76 82.1604ZM224.886 77.9389C226.526 76.8164 227.885 75.4879 227.885 75.4879C225.205 76.8955 223.882 77.9452 221.82 80.2177C221.82 80.2177 223.247 79.0614 224.886 77.9389ZM229.1 92.3852C231.445 92.4297 233.646 92.8595 233.646 92.8595C230.091 93.2079 228.105 93.0298 224.599 92.1244C224.599 92.1244 226.755 92.3406 229.1 92.3852Z" fill="black"/>
</svg>
