<svg width="308" height="125" viewBox="0 0 308 125" fill="none" xmlns="http://www.w3.org/2000/svg">
<path d="M0.823242 22.5118C0.823242 10.355 10.6783 0.5 22.8351 0.5H285.485C297.641 0.5 307.496 10.355 307.496 22.5118V102.488C307.496 114.645 297.641 124.5 285.485 124.5H22.8351C10.6783 124.5 0.823242 114.645 0.823242 102.488V22.5118Z" fill="#C5A869"/>
<path fill-rule="evenodd" clip-rule="evenodd" d="M285.485 11.5059H22.8351C16.7567 11.5059 11.8292 16.4334 11.8292 22.5118V102.488C11.8292 108.567 16.7567 113.494 22.8351 113.494H285.485C291.563 113.494 296.49 108.567 296.49 102.488V22.5118C296.49 16.4334 291.563 11.5059 285.485 11.5059ZM22.8351 0.5C10.6783 0.5 0.823242 10.355 0.823242 22.5118V102.488C0.823242 114.645 10.6783 124.5 22.8351 124.5H285.485C297.641 124.5 307.496 114.645 307.496 102.488V22.5118C307.496 10.355 297.641 0.5 285.485 0.5H22.8351Z" fill="#A68C55"/>
<path d="M138.04 51.6218L180.63 74.3958C183.915 75.9211 180.381 84.8711 177.416 83.318L135.301 61.7655C134.196 61.1563 132.79 59.8729 133.378 57.8755C133.855 56.255 135.86 56.1881 136.538 56.6256C137.215 57.063 137.29 58.188 136.914 58.5942C136.538 59.0004 136.011 58.8442 135.86 58.2505C135.672 57.0652 134.77 57.3755 134.694 58.2505C134.57 59.6951 135.035 61.0316 136.538 61.0316C138.04 61.0316 139.284 60.3129 139.509 58.2505C139.639 57.0679 138.907 53.3323 135.672 53.3323C132.437 53.3323 133.11 56.3602 132.663 57.6255C131.459 61.0316 131.154 61.3874 134.055 62.6877L176.113 84.0694C174.07 86.5168 171.489 87.4816 170.277 87.5274C169.064 87.5732 167.053 87.5503 166.474 85.6276C165.896 83.7049 167.439 82.9133 167.879 82.6292C168.32 82.345 169.478 82.1485 168.789 81.8738C168.1 81.5991 167.273 81.8509 165.604 82.9133C150.104 72.8953 147.853 71.5359 130.468 62.6877C129.275 61.9575 128.354 61.5575 129.284 60.1521C129.284 60.1521 131.25 57.5587 131.943 53.3323C132.464 51.6218 135.301 49.9704 138.04 51.6218Z" fill="black"/>
<path d="M158.22 92.7663C158.22 94.6305 156.4 96.1417 154.156 96.1417C151.912 96.1417 150.093 94.6304 150.093 92.7662C150.093 90.902 151.912 89.3908 154.156 89.3908C156.4 89.3908 158.22 90.902 158.22 92.7663Z" fill="black"/>
<path d="M157.418 87.3274C158.476 87.3274 158.496 88.9421 157.418 88.9421L150.894 88.9421C149.816 88.9421 149.837 87.3273 150.894 87.3273L157.418 87.3274Z" fill="black"/>
<path d="M167.089 43.7211C167.089 37.757 162.943 34.6125 160.668 32.7224C158.393 30.8323 156.765 26.3474 152.35 25.5203C152.35 27.1385 152.891 30.1054 150.721 31.6562C150.528 30.5485 149.595 30.1215 148.781 30.1215C148.972 30.7583 148.923 31.946 148.641 32.7224C147.563 35.6989 146.085 35.5838 144.3 37.0944C142.515 38.605 141.15 41.6696 141.224 43.7211C141.837 43.8613 142.54 44.3199 143.036 44.6925C143.678 40.0474 150.721 35.2738 153.546 31.6562C158.807 35.9868 163.173 36.5137 165.276 44.6925C165.773 44.3199 166.476 43.8612 167.089 43.7211Z" fill="black"/>
<path d="M141.401 84.9939C140.017 85.5732 138.31 85.4004 137.595 84.2215C137.059 83.3374 137.214 82.2001 138.456 81.6803C139.45 81.2643 138.902 80.5325 138.504 80.2186L132.979 75.8047C132.753 75.7019 132.148 75.243 131.533 74.229C130.764 72.9614 131.389 71.2032 133.003 70.5274C134.617 69.8516 136.584 70.5992 137.246 71.6899C137.907 72.7805 136.988 74.1262 136.137 74.4827C135.285 74.8392 135.288 75.5035 136.018 76.1216C136.749 76.7396 140.741 79.7258 141.65 80.3434C142.376 80.8375 142.975 80.9009 143.492 81.7529C144.136 82.814 142.784 84.4146 141.401 84.9939Z" fill="black"/>
<path fill-rule="evenodd" clip-rule="evenodd" d="M131.739 75.984C131.95 76.1818 132.163 76.3454 132.363 76.458L133.001 76.9679C132.961 77.5991 132.988 78.4208 133.064 79.2392C133.17 80.3786 133.379 81.5844 133.674 82.3456C133.759 82.5625 134.039 82.6816 134.3 82.6116C134.561 82.5416 134.705 82.3089 134.62 82.092C134.362 81.4263 134.16 80.2996 134.055 79.1754C134.008 78.6708 133.982 78.1812 133.977 77.7476L137.817 80.8156L137.82 80.8174C137.865 80.8535 137.92 80.9057 137.964 80.9622C137.11 81.3325 136.592 81.9328 136.397 82.6044C131.366 84.3208 124.787 85.6567 123.583 83.6726C122.272 81.5107 127.599 77.9289 131.739 75.984ZM130.988 77.2909C131.26 77.3222 131.45 77.5307 131.412 77.7565C131.289 78.495 131.356 79.4404 131.552 80.3547C131.748 81.2704 132.063 82.1114 132.402 82.6451C132.529 82.8468 132.436 83.0965 132.194 83.2027C131.951 83.309 131.65 83.2317 131.522 83.03C131.119 82.3935 130.78 81.4617 130.574 80.4992C130.367 79.5352 130.285 78.4969 130.428 77.6431C130.465 77.4173 130.716 77.2596 130.988 77.2909ZM128.664 78.2185C128.938 78.2037 129.175 78.3762 129.192 78.6037C129.231 79.1005 129.386 80.0113 129.598 80.931C129.812 81.8588 130.073 82.7435 130.311 83.2086C130.418 83.4185 130.301 83.6608 130.048 83.7499C129.795 83.8391 129.504 83.7412 129.396 83.5314C129.113 82.9763 128.836 82.0126 128.622 81.0864C128.407 80.1521 128.244 79.2033 128.201 78.6572C128.183 78.4297 128.391 78.2333 128.664 78.2185ZM126.991 79.8035C127.265 79.8139 127.477 80.0069 127.464 80.2346C127.395 81.4895 127.772 82.7178 128.085 83.3333C128.192 83.5433 128.074 83.7855 127.821 83.8743C127.568 83.9631 127.277 83.8649 127.17 83.655C126.805 82.9387 126.395 81.588 126.472 80.197C126.484 79.9693 126.716 79.7931 126.991 79.8035ZM124.996 81.391C125.269 81.3683 125.512 81.5338 125.539 81.7607C125.566 81.983 125.669 82.3182 125.799 82.6679C125.927 83.01 126.07 83.3371 126.162 83.531C126.262 83.7432 126.137 83.9828 125.881 84.0662C125.626 84.1495 125.337 84.0451 125.237 83.833C125.137 83.6223 124.986 83.2759 124.85 82.9123C124.717 82.5563 124.588 82.1536 124.551 81.8428C124.523 81.6159 124.722 81.4136 124.996 81.391Z" fill="black"/>
<path fill-rule="evenodd" clip-rule="evenodd" d="M157.418 86.6221H156.038L156.49 78.1041C157.036 78.45 157.599 78.8085 158.184 79.1815L157.418 86.6221ZM154.809 86.6221L155.104 77.2303C154.438 76.8128 153.796 76.4131 153.171 76.0273L153.504 86.6221L154.809 86.6221ZM151.664 75.1054L152.274 86.6221H150.894L149.582 73.8599C150.269 74.2652 150.96 74.6782 151.664 75.1054ZM144.261 70.8422C145.529 71.5353 146.721 72.2031 147.895 72.8776L138.409 76.8484C137.628 76.2565 136.974 75.752 136.727 75.5431C136.605 75.4392 136.538 75.3543 136.504 75.2967C136.502 75.2932 136.5 75.2899 136.499 75.2867L136.496 75.2821C136.493 75.2768 136.491 75.272 136.489 75.2676C136.509 75.2551 136.539 75.2387 136.584 75.2199C137.279 74.9288 137.861 74.3213 138.179 73.6729C138.244 73.5404 138.301 73.4001 138.346 73.2539C139.961 72.5957 141.996 71.7659 144.261 70.8422ZM169.972 67.7149C171.833 66.9215 173.313 66.2931 174.206 65.9195C179.858 63.5533 181.751 59.9274 181.338 59.2459C180.924 58.5648 176.29 57.6715 170.638 60.0377C169.165 60.6542 166.011 61.9514 162.151 63.5327L165.693 65.4268L174.47 61.7526C177.542 60.4665 179.055 60.2016 179.055 60.2016C179.055 60.2016 177.901 61.0578 174.828 62.3439C173.977 62.7005 170.735 64.0666 166.494 65.8551L169.972 67.7149ZM159.916 62.3375L160.116 60.3865C160.603 60.1421 161.578 59.421 161.578 58.4924C161.578 57.5638 160.407 56.4473 159.821 56.0051L161.258 54.4795H162.137L164.013 52.0585C165.107 52.0585 165.786 51.1938 165.53 50.5661L167.089 49.7062L166.558 47.2543L167.653 43.7005C167.482 43.6635 167.29 43.6752 167.089 43.7211C166.476 43.8612 165.773 44.3199 165.276 44.6925C164.894 44.9796 164.635 45.2157 164.635 45.2157C164.635 45.2157 163.455 43.3423 162.751 43.3423C162.048 43.3423 160.357 44.8575 160.357 44.8575C160.357 44.8575 158.612 42.7362 158.035 42.7362C157.459 42.7362 155.946 44.5269 155.946 44.5269C155.682 43.9851 154.953 42.9015 154.156 42.9015C153.359 42.9015 152.631 43.9851 152.366 44.5269C152.366 44.5269 150.854 42.7362 150.277 42.7362C149.701 42.7362 147.956 44.8575 147.956 44.8575C147.956 44.8575 146.265 43.3423 145.561 43.3423C144.857 43.3423 143.678 45.2156 143.678 45.2156C143.678 45.2156 143.418 44.9796 143.036 44.6925C142.54 44.3199 141.837 43.8613 141.224 43.7211C141.022 43.6751 140.831 43.6634 140.66 43.7004L141.754 47.2543L141.223 49.7062L142.782 50.566C142.526 51.1937 143.205 52.0584 144.3 52.0584L146.176 54.4795H147.054L148.491 56.005C148.439 56.0443 148.383 56.089 148.323 56.1383L150.637 57.3761C151.586 57.2368 152.834 57.1077 154.156 57.1077C156.42 57.1077 158.467 57.4864 159.168 57.6466C159.869 57.8068 159.922 58.2001 159.821 58.3749C159.72 58.5496 159.291 58.637 158.747 58.4924C158.204 58.3479 155.659 58.0253 154.156 58.0253C153.563 58.0253 152.807 58.0756 152.076 58.1453L155.643 60.053L155.659 59.5642C156.337 59.6012 156.93 59.6633 157.462 59.7436L157.396 60.9903L159.916 62.3375ZM154.156 56.1475C155.425 56.1475 157.66 56.3613 158.204 56.4895C158.747 56.6177 158.993 56.1757 158.393 56.0051C157.741 55.8199 155.426 55.5491 154.156 55.5491C152.887 55.5491 150.572 55.8198 149.92 56.005C149.319 56.1757 149.565 56.6177 150.109 56.4895C150.652 56.3612 152.887 56.1475 154.156 56.1475ZM154.156 53.809C156.73 53.809 158.327 54.1458 158.747 54.3127C159.168 54.4795 159.404 53.927 158.954 53.8091C158.504 53.6911 156.789 53.3311 154.156 53.3311C151.523 53.3311 149.808 53.6911 149.359 53.809C148.909 53.927 149.144 54.4795 149.565 54.3126C149.986 54.1458 151.582 53.809 154.156 53.809ZM154.156 51.0207C157.462 51.0207 162.066 51.7247 162.379 51.8355C162.693 51.9463 163.262 51.4897 162.751 51.2777C162.241 51.0657 157.797 50.4439 154.156 50.4439C150.516 50.4439 146.071 51.0657 145.561 51.2777C145.051 51.4896 145.62 51.9462 145.933 51.8354C146.247 51.7246 150.85 51.0207 154.156 51.0207ZM156.764 45.7727C156.764 45.7727 157.541 44.4283 158.094 44.4283C158.647 44.4283 159.641 46.1312 159.641 46.1312C159.641 46.1312 158.531 47.386 158.094 47.386C157.658 47.386 156.764 45.7727 156.764 45.7727ZM160.668 46.1312C160.668 46.1312 161.853 44.5276 162.552 44.6926C163.252 44.8575 164.145 46.6938 164.145 46.6938C164.145 46.6938 162.921 47.8881 162.137 47.8235C161.352 47.759 160.668 46.1312 160.668 46.1312ZM154.156 47.386C154.82 47.386 155.636 45.9675 155.636 45.9675C155.636 45.9675 154.878 44.1277 154.156 44.0954C153.434 44.1277 152.676 45.9675 152.676 45.9675C152.676 45.9675 153.492 47.386 154.156 47.386ZM154.156 48.6876C155.067 48.6876 155.946 47.386 155.946 47.386C155.946 47.386 157.381 48.6876 158.094 48.6876C158.808 48.6876 159.985 47.592 159.985 47.592C159.985 47.592 161.425 49.0938 162.137 49.0938C162.848 49.0938 164.145 48.2261 164.145 48.2261L165.798 49.5186L165.093 49.9892C161.243 49.1844 158.833 48.9781 154.156 48.9933C149.48 48.9781 147.069 49.1844 143.219 49.9892L142.515 49.5186L144.167 48.226C144.167 48.226 145.464 49.0937 146.176 49.0937C146.888 49.0937 148.327 47.5919 148.327 47.5919C148.327 47.5919 149.504 48.6876 150.218 48.6876C150.932 48.6876 152.366 47.386 152.366 47.386C152.366 47.386 153.245 48.6876 154.156 48.6876ZM151.549 45.7727C151.549 45.7727 150.771 44.4282 150.218 44.4282C149.665 44.4282 148.672 46.1312 148.672 46.1312C148.672 46.1312 149.782 47.386 150.218 47.386C150.655 47.386 151.549 45.7727 151.549 45.7727ZM147.645 46.1312C147.645 46.1312 146.459 44.5275 145.76 44.6925C145.061 44.8575 144.167 46.6937 144.167 46.6937C144.167 46.6937 145.391 47.888 146.176 47.8235C146.961 47.7589 147.645 46.1312 147.645 46.1312ZM142.18 79.6366C143.883 78.9042 146.226 77.8969 148.884 76.7547L148.542 73.4287C144.49 75.1385 141.029 76.599 139.137 77.3977C140.337 78.299 141.629 79.2527 142.18 79.6366Z" fill="black"/>
<path d="M179.252 64.1491C178.076 65.1111 176.543 66.0697 174.608 66.8797C173.881 67.1842 172.759 67.6593 171.356 68.2566L177.025 71.2879H257.58L260.753 64.1491H179.252Z" fill="black"/>
<path d="M130.639 71.2879C131.06 70.5492 131.739 69.928 132.601 69.5671C133.672 69.1186 134.823 69.1545 135.788 69.4512C136.734 69.7423 137.637 70.3284 138.135 71.1499C138.163 71.1958 138.189 71.2418 138.214 71.2879H140.411C141.182 70.9734 142.005 70.6378 142.868 70.2858C139.716 68.5902 136.024 66.6863 131.044 64.1491H54.2548L50.5532 71.2879H130.639Z" fill="black"/>
</svg>
