<svg width="308" height="125" viewBox="0 0 308 125" fill="none" xmlns="http://www.w3.org/2000/svg">
<path d="M0.823242 22.5118C0.823242 10.355 10.6783 0.5 22.8351 0.5H285.485C297.641 0.5 307.496 10.355 307.496 22.5118V102.488C307.496 114.645 297.641 124.5 285.485 124.5H22.8351C10.6783 124.5 0.823242 114.645 0.823242 102.488V22.5118Z" fill="#C5A869"/>
<path fill-rule="evenodd" clip-rule="evenodd" d="M285.485 11.5059H22.8351C16.7567 11.5059 11.8292 16.4334 11.8292 22.5118V102.488C11.8292 108.567 16.7567 113.494 22.8351 113.494H285.485C291.563 113.494 296.49 108.567 296.49 102.488V22.5118C296.49 16.4334 291.563 11.5059 285.485 11.5059ZM22.8351 0.5C10.6783 0.5 0.823242 10.355 0.823242 22.5118V102.488C0.823242 114.645 10.6783 124.5 22.8351 124.5H285.485C297.641 124.5 307.496 114.645 307.496 102.488V22.5118C307.496 10.355 297.641 0.5 285.485 0.5H22.8351Z" fill="#A68C55"/>
<path d="M138.77 47.2984L185.486 72.2792C189.089 73.9522 185.213 83.7695 181.961 82.0659L135.765 58.425C134.553 57.7568 133.011 56.3491 133.656 54.1581C134.179 52.3805 136.379 52.3072 137.122 52.787C137.864 53.2669 137.947 54.5009 137.534 54.9464C137.122 55.392 136.544 55.2207 136.379 54.5694C136.173 53.2693 135.182 53.6097 135.1 54.5694C134.963 56.154 135.473 57.62 137.122 57.62C138.77 57.62 140.134 56.8316 140.381 54.5694C140.523 53.2723 139.721 49.1747 136.173 49.1747C132.624 49.1747 133.362 52.4959 132.872 53.8839C131.551 57.62 131.216 58.0103 134.398 59.4366L180.532 82.8901C178.29 85.5747 175.46 86.633 174.13 86.6832C172.8 86.7334 170.594 86.7083 169.959 84.5993C169.324 82.4903 171.017 81.622 171.5 81.3103C171.984 80.9986 173.253 80.783 172.498 80.4818C171.742 80.1805 170.835 80.4566 169.005 81.622C152.003 70.6333 149.534 69.1421 130.464 59.4366C129.156 58.6356 128.145 58.1969 129.165 56.6553C129.165 56.6553 131.321 53.8105 132.082 49.1747C132.653 47.2984 135.765 45.487 138.77 47.2984Z" fill="black"/>
<path d="M160.905 92.4296C160.905 94.4745 158.909 96.1321 156.447 96.1321C153.986 96.1321 151.99 94.4744 151.99 92.4296C151.99 90.3848 153.986 88.7271 156.447 88.7271C158.909 88.7271 160.905 90.3848 160.905 92.4296Z" fill="black"/>
<path d="M160.026 86.4637C161.185 86.4637 161.208 88.235 160.026 88.235L152.869 88.2349C151.687 88.2349 151.71 86.4637 152.869 86.4637L160.026 86.4637Z" fill="black"/>
<path d="M170.633 38.6322C170.633 32.0901 166.086 28.641 163.59 26.5677C161.094 24.4944 159.309 19.575 154.466 18.6677C154.466 20.4428 155.06 23.6971 152.679 25.3982C152.467 24.1831 151.444 23.7148 150.551 23.7148C150.761 24.4134 150.707 25.7161 150.398 26.5677C149.216 29.8326 147.594 29.7064 145.636 31.3633C143.678 33.0203 142.18 36.3819 142.262 38.6322C142.934 38.7859 143.706 39.289 144.25 39.6977C144.953 34.6025 152.679 29.3664 155.778 25.3982C161.549 30.1484 166.337 30.7264 168.645 39.6977C169.189 39.2889 169.961 38.7859 170.633 38.6322Z" fill="black"/>
<path d="M142.456 83.9042C140.938 84.5396 139.066 84.3501 138.281 83.0569C137.693 82.0872 137.864 80.8397 139.226 80.2694C140.316 79.8132 139.715 79.0105 139.278 78.6662L133.218 73.8245C132.97 73.7118 132.307 73.2084 131.632 72.0961C130.789 70.7058 131.474 68.7772 133.244 68.0359C135.015 67.2946 137.172 68.1147 137.898 69.311C138.624 70.5073 137.616 71.9834 136.682 72.3744C135.748 72.7655 135.75 73.4942 136.552 74.1721C137.354 74.8501 141.732 78.1256 142.729 78.8031C143.526 79.345 144.183 79.4146 144.75 80.3491C145.456 81.513 143.974 83.2688 142.456 83.9042Z" fill="black"/>
<path fill-rule="evenodd" clip-rule="evenodd" d="M131.858 74.0212C132.089 74.2382 132.323 74.4177 132.542 74.5412L133.242 75.1005C133.198 75.7928 133.228 76.6942 133.312 77.5918C133.428 78.8417 133.657 80.1643 133.981 80.9992C134.073 81.2372 134.381 81.3678 134.667 81.291C134.954 81.2142 135.111 80.9591 135.018 80.7211C134.735 79.9909 134.513 78.755 134.398 77.5219C134.347 76.9683 134.318 76.4314 134.313 75.9557L138.525 79.321L138.528 79.323C138.578 79.3626 138.638 79.4198 138.686 79.4818C137.75 79.888 137.181 80.5464 136.968 81.2832C131.449 83.1659 124.232 84.6312 122.912 82.4549C121.473 80.0835 127.317 76.1546 131.858 74.0212ZM131.034 75.4548C131.332 75.4891 131.541 75.7178 131.499 75.9655C131.364 76.7755 131.438 77.8126 131.653 78.8154C131.868 79.8199 132.213 80.7423 132.585 81.3278C132.725 81.549 132.623 81.8229 132.357 81.9395C132.09 82.056 131.761 81.9712 131.62 81.75C131.177 81.0518 130.806 80.0297 130.58 78.9739C130.353 77.9166 130.263 76.7776 130.42 75.8411C130.461 75.5934 130.736 75.4204 131.034 75.4548ZM128.485 76.4723C128.786 76.4561 129.045 76.6452 129.065 76.8947C129.107 77.4397 129.277 78.4388 129.51 79.4476C129.745 80.4653 130.031 81.4357 130.292 81.9459C130.409 82.1761 130.28 82.4419 130.003 82.5397C129.726 82.6374 129.406 82.5301 129.288 82.3C128.977 81.6911 128.674 80.634 128.439 79.6181C128.203 78.5933 128.024 77.5525 127.977 76.9535C127.957 76.7039 128.185 76.4885 128.485 76.4723ZM126.649 78.2108C126.95 78.2222 127.183 78.434 127.169 78.6838C127.093 80.0602 127.506 81.4075 127.85 82.0827C127.967 82.313 127.838 82.5786 127.561 82.6761C127.283 82.7735 126.964 82.6658 126.846 82.4355C126.446 81.6498 125.996 80.1683 126.08 78.6425C126.094 78.3927 126.349 78.1994 126.649 78.2108ZM124.461 79.9521C124.761 79.9273 125.028 80.1088 125.058 80.3576C125.087 80.6016 125.199 80.9692 125.343 81.3528C125.483 81.728 125.64 82.0868 125.74 82.2995C125.851 82.5323 125.713 82.7951 125.433 82.8865C125.152 82.978 124.836 82.8635 124.726 82.6307C124.617 82.3997 124.45 82.0197 124.301 81.6209C124.156 81.2304 124.014 80.7887 123.973 80.4477C123.943 80.1989 124.162 79.977 124.461 79.9521Z" fill="black"/>
<path fill-rule="evenodd" clip-rule="evenodd" d="M160.026 85.6902H158.512L159.007 76.3468C159.606 76.7262 160.224 77.1194 160.865 77.5285L160.026 85.6902ZM157.163 85.6902L157.487 75.3883C156.757 74.9303 156.053 74.492 155.367 74.0687L155.732 85.6901L157.163 85.6902ZM153.714 73.0575L154.383 85.6901H152.869L151.43 71.6913C152.184 72.1359 152.941 72.5889 153.714 73.0575ZM145.593 68.3812C146.984 69.1415 148.292 69.874 149.579 70.6138L139.174 74.9694C138.317 74.3201 137.601 73.7667 137.33 73.5376C137.195 73.4236 137.122 73.3305 137.085 73.2674C137.083 73.2635 137.081 73.2599 137.079 73.2564L137.076 73.2514C137.073 73.2456 137.07 73.2402 137.068 73.2354C137.09 73.2218 137.123 73.2037 137.172 73.1832C137.935 72.8638 138.573 72.1975 138.922 71.4861C138.993 71.3409 139.056 71.187 139.106 71.0266C140.877 70.3046 143.109 69.3944 145.593 68.3812ZM173.796 64.9509C175.837 64.0806 177.461 63.3913 178.44 62.9815C184.64 60.386 186.716 56.4088 186.263 55.6613C185.809 54.9142 180.726 53.9343 174.526 56.5298C172.911 57.206 169.45 58.6289 165.217 60.3634L169.102 62.4411L178.729 58.4109C182.099 57.0002 183.759 56.7096 183.759 56.7096C183.759 56.7096 182.492 57.6488 179.123 59.0595C178.188 59.4506 174.632 60.9491 169.98 62.9109L173.796 64.9509ZM162.765 59.0524L162.985 56.9124C163.519 56.6443 164.588 55.8534 164.588 54.8348C164.588 53.8162 163.303 52.5915 162.661 52.1064L164.238 50.433H165.201L167.259 47.7774C168.46 47.7774 169.205 46.8289 168.923 46.1404L170.633 45.1973L170.051 42.5078L171.252 38.6095C171.064 38.569 170.854 38.5818 170.633 38.6322C169.961 38.7859 169.189 39.2889 168.645 39.6977C168.226 40.0126 167.941 40.2716 167.941 40.2716C167.941 40.2716 166.648 38.2167 165.875 38.2167C165.103 38.2167 163.249 39.8787 163.249 39.8787C163.249 39.8787 161.335 37.5519 160.702 37.5519C160.07 37.5519 158.411 39.5161 158.411 39.5161C158.12 38.9218 157.321 37.7331 156.447 37.7331C155.573 37.7331 154.774 38.9217 154.484 39.516C154.484 39.516 152.825 37.5518 152.192 37.5518C151.56 37.5518 149.646 39.8787 149.646 39.8787C149.646 39.8787 147.791 38.2166 147.019 38.2166C146.247 38.2166 144.953 40.2715 144.953 40.2715C144.953 40.2715 144.669 40.0126 144.25 39.6977C143.706 39.289 142.934 38.7859 142.262 38.6322C142.041 38.5817 141.831 38.5689 141.643 38.6095L142.843 42.5077L142.261 45.1972L143.972 46.1403C143.69 46.8289 144.435 47.7774 145.636 47.7774L147.694 50.433H148.657L150.234 52.1064C150.177 52.1495 150.114 52.1985 150.049 52.2526L152.588 53.6103C153.629 53.4575 154.997 53.3159 156.447 53.3159C158.931 53.3159 161.176 53.7313 161.945 53.907C162.714 54.0828 162.772 54.5141 162.661 54.7058C162.55 54.8975 162.08 54.9934 161.483 54.8348C160.887 54.6762 158.095 54.3224 156.447 54.3224C155.796 54.3224 154.967 54.3775 154.165 54.4541L158.079 56.5466L158.096 56.0104C158.839 56.051 159.49 56.1191 160.074 56.2072L160.001 57.5747L162.765 59.0524ZM156.447 52.2627C157.839 52.2627 160.291 52.4971 160.887 52.6378C161.483 52.7785 161.753 52.2936 161.094 52.1064C160.379 51.9033 157.84 51.6063 156.447 51.6063C155.055 51.6063 152.516 51.9032 151.801 52.1064C151.142 52.2935 151.411 52.7784 152.008 52.6377C152.604 52.4971 155.055 52.2627 156.447 52.2627ZM156.447 49.6976C159.271 49.6976 161.022 50.067 161.483 50.25C161.945 50.433 162.203 49.827 161.71 49.6976C161.216 49.5682 159.335 49.1733 156.447 49.1733C153.559 49.1733 151.678 49.5682 151.185 49.6976C150.692 49.827 150.95 50.433 151.411 50.25C151.873 50.067 153.624 49.6976 156.447 49.6976ZM156.447 46.6391C160.074 46.6391 165.123 47.4112 165.467 47.5328C165.811 47.6543 166.435 47.1535 165.875 46.921C165.316 46.6885 160.441 46.0064 156.448 46.0064C152.454 46.0064 147.579 46.6884 147.019 46.9209C146.46 47.1535 147.084 47.6543 147.428 47.5327C147.771 47.4112 152.821 46.6391 156.447 46.6391ZM159.307 40.8826C159.307 40.8826 160.161 39.4079 160.767 39.4079C161.374 39.4079 162.463 41.2758 162.463 41.2758C162.463 41.2758 161.246 42.6522 160.767 42.6522C160.288 42.6522 159.307 40.8826 159.307 40.8826ZM163.59 41.2758C163.59 41.2758 164.89 39.5168 165.657 39.6978C166.424 39.8787 167.405 41.8929 167.405 41.8929C167.405 41.8929 166.062 43.2029 165.201 43.1321C164.34 43.0613 163.59 41.2758 163.59 41.2758ZM156.447 42.6522C157.175 42.6522 158.071 41.0963 158.071 41.0963C158.071 41.0963 157.239 39.0781 156.447 39.0427C155.655 39.0781 154.824 41.0962 154.824 41.0962C154.824 41.0962 155.719 42.6522 156.447 42.6522ZM156.447 44.0799C157.447 44.0799 158.411 42.6522 158.411 42.6522C158.411 42.6522 159.984 44.0799 160.767 44.0799C161.55 44.0799 162.841 42.8781 162.841 42.8781C162.841 42.8781 164.42 44.5254 165.201 44.5254C165.982 44.5254 167.405 43.5737 167.405 43.5737L169.217 44.9914L168.444 45.5076C164.221 44.6249 161.577 44.3986 156.448 44.4153C151.318 44.3986 148.674 44.6248 144.45 45.5076L143.678 44.9914L145.49 43.5736C145.49 43.5736 146.913 44.5254 147.694 44.5254C148.474 44.5254 150.054 42.8781 150.054 42.8781C150.054 42.8781 151.345 44.0799 152.128 44.0799C152.911 44.0799 154.484 42.6522 154.484 42.6522C154.484 42.6522 155.448 44.0799 156.447 44.0799ZM153.587 40.8825C153.587 40.8825 152.734 39.4078 152.128 39.4078C151.521 39.4078 150.431 41.2758 150.431 41.2758C150.431 41.2758 151.649 42.6522 152.128 42.6522C152.606 42.6522 153.587 40.8825 153.587 40.8825ZM149.305 41.2758C149.305 41.2758 148.005 39.5168 147.238 39.6977C146.471 39.8787 145.49 41.8928 145.49 41.8928C145.49 41.8928 146.833 43.2028 147.694 43.132C148.555 43.0612 149.305 41.2758 149.305 41.2758ZM143.311 78.0278C145.179 77.2244 147.749 76.1195 150.664 74.8666L150.289 71.2184C145.845 73.0938 142.049 74.6959 139.973 75.5719C141.289 76.5606 142.706 77.6067 143.311 78.0278Z" fill="black"/>
<path d="M263.888 56.6215H187.276C187.223 56.8154 187.151 57.0114 187.066 57.2051C186.785 57.8427 186.309 58.58 185.637 59.3465C184.695 60.4223 183.336 61.5922 181.5 62.6616H226.305L187.965 75.8035C187.849 77.5409 187.188 79.4356 186.28 80.8584C185.751 81.6888 185.082 82.4472 184.295 82.9042C183.537 83.3441 182.627 83.5184 181.72 83.1421L181.337 83.6004C178.933 86.4799 175.837 87.7058 174.171 87.7687C173.502 87.794 172.45 87.8124 171.458 87.4844C170.406 87.1365 169.396 86.3862 168.961 84.9427C168.719 84.1383 168.732 83.4354 168.9 82.8371L168.396 82.511L161.145 84.9963L161.067 85.76C161.212 85.8522 161.344 85.9645 161.458 86.0945C161.792 86.4722 161.94 86.9458 161.942 87.387C161.945 87.8282 161.804 88.3075 161.467 88.691C161.214 88.9784 160.882 89.1764 160.502 89.2666C161.384 90.0872 161.943 91.193 161.943 92.4763C161.943 92.4812 161.943 92.4861 161.943 92.491L263.888 56.6215Z" fill="black"/>
<path d="M44.4326 56.6215L122.427 83.5649C122.265 83.4121 122.121 83.2373 122 83.0375C121.364 81.989 121.626 80.866 122.137 79.9642C122.644 79.0691 123.492 78.1939 124.454 77.3893C124.61 77.2589 124.771 77.1288 124.936 76.9993L81.7915 62.6616H134.412C133.036 61.9571 131.563 61.2058 129.974 60.3971L129.938 60.3785L129.903 60.3572C129.824 60.3087 129.74 60.2582 129.654 60.2064C129.422 60.0669 129.175 59.918 128.964 59.7755C128.671 59.5772 128.33 59.316 128.076 58.9624C127.797 58.5729 127.642 58.097 127.699 57.5501C127.732 57.231 127.834 56.9216 127.982 56.6215H44.4326Z" fill="black"/>
<path d="M128.475 84.468C127.392 84.6022 126.351 84.6612 125.428 84.6018L151.053 93.454C150.979 93.1418 150.94 92.8152 150.94 92.4762C150.94 91.1929 151.5 90.0872 152.381 89.2666C152.002 89.1764 151.67 88.9783 151.417 88.6909C151.08 88.3075 150.938 87.8281 150.941 87.3869C150.944 86.9458 151.091 86.4721 151.425 86.0944C151.495 86.0154 151.571 85.9429 151.652 85.8775L144.76 83.5871C144.217 84.1469 143.54 84.6178 142.846 84.9083C141.924 85.2946 140.875 85.4404 139.904 85.2739C138.927 85.1062 137.961 84.604 137.376 83.6398C137.155 83.2741 136.998 82.8617 136.935 82.4307C134.217 83.3378 131.115 84.1408 128.475 84.468Z" fill="black"/>
</svg>
