<svg width="308" height="125" viewBox="0 0 308 125" fill="none" xmlns="http://www.w3.org/2000/svg">
<path d="M0.823242 22.5118C0.823242 10.355 10.6783 0.5 22.8351 0.5H285.485C297.641 0.5 307.496 10.355 307.496 22.5118V102.488C307.496 114.645 297.641 124.5 285.485 124.5H22.8351C10.6783 124.5 0.823242 114.645 0.823242 102.488V22.5118Z" fill="#C5A869"/>
<path fill-rule="evenodd" clip-rule="evenodd" d="M285.485 11.5059H22.8351C16.7567 11.5059 11.8292 16.4334 11.8292 22.5118V102.488C11.8292 108.567 16.7567 113.494 22.8351 113.494H285.485C291.563 113.494 296.49 108.567 296.49 102.488V22.5118C296.49 16.4334 291.563 11.5059 285.485 11.5059ZM22.8351 0.5C10.6783 0.5 0.823242 10.355 0.823242 22.5118V102.488C0.823242 114.645 10.6783 124.5 22.8351 124.5H285.485C297.641 124.5 307.496 114.645 307.496 102.488V22.5118C307.496 10.355 297.641 0.5 285.485 0.5H22.8351Z" fill="#A68C55"/>
<path fill-rule="evenodd" clip-rule="evenodd" d="M164.028 90.5814C164.028 96.0312 159.61 100.449 154.16 100.449C148.711 100.449 144.292 96.0313 144.292 90.5814C144.292 86.9365 146.268 83.7531 149.207 82.0443C149.207 82.0443 131.02 52.2145 128.775 48.5319C126.53 44.8493 126.125 38.2477 130.482 33.8915C134.838 29.5354 142.068 24.5505 154.16 24.5505C166.251 24.5505 173.482 29.5353 177.838 33.8915C182.195 38.2476 181.79 44.8493 179.545 48.5319C177.299 52.2145 159.113 82.0443 159.113 82.0443C162.052 83.753 164.028 86.9364 164.028 90.5814ZM159.919 43.1814C159.741 44.9263 156.457 77.8896 156.457 77.8896C156.457 77.8896 166.861 46.4395 167.408 44.7729C167.955 43.1064 166.712 41.1357 164.429 40.3751C162.034 40.1416 160.097 41.4365 159.919 43.1814ZM169.14 45.7498C168.605 47.4203 158.582 78.9939 158.582 78.9939C158.582 78.9939 175.259 50.3718 176.139 48.8541C177.018 47.3365 176.209 45.1515 174.132 43.9357C171.837 43.2125 169.675 44.0793 169.14 45.7498ZM157.989 42.6038C157.8 44.3476 154.16 77.2735 154.16 77.2735C154.16 77.2735 150.52 44.3477 150.331 42.6039C150.143 40.86 151.639 38.9213 154.16 38.9213C156.682 38.9213 158.177 40.86 157.989 42.6038ZM148.401 43.1815C148.579 44.9264 151.863 77.8896 151.863 77.8896C151.863 77.8896 141.459 46.4396 140.912 44.773C140.365 43.1064 141.608 41.1357 143.891 40.3751C146.286 40.1417 148.223 41.4365 148.401 43.1815ZM139.18 45.7498C139.715 47.4203 149.738 78.994 149.738 78.994C149.738 78.994 133.061 50.3718 132.181 48.8542C131.302 47.3366 132.111 45.1516 134.188 43.9358C136.483 43.2126 138.645 44.0794 139.18 45.7498Z" fill="black"/>
<path fill-rule="evenodd" clip-rule="evenodd" d="M182.432 85.6119L173.472 79.2829L175.561 77.6088L177.832 75.7883L183.473 79.6227H232.723L225.567 85.6119H182.432Z" fill="black"/>
<path fill-rule="evenodd" clip-rule="evenodd" d="M182.432 72.1097H241.699L235.129 77.6088H184.367L179.675 74.3145L182.432 72.1097Z" fill="black"/>
<path fill-rule="evenodd" clip-rule="evenodd" d="M185.303 69.4538L193.603 62.8143H252.805L244.872 69.4538H185.303Z" fill="black"/>
<path fill-rule="evenodd" clip-rule="evenodd" d="M171.85 77.6088L167.944 72.1097L190.722 54.1583H263.148L255.945 60.1863H193.127L171.85 77.6088Z" fill="black"/>
<path fill-rule="evenodd" clip-rule="evenodd" d="M125.887 85.6119L134.848 79.2829L132.759 77.6088L130.487 75.7883L124.846 79.6227H75.5969L82.7528 85.6119H125.887Z" fill="black"/>
<path fill-rule="evenodd" clip-rule="evenodd" d="M125.887 72.1097H66.6203L73.1906 77.6088H123.952L128.644 74.3145L125.887 72.1097Z" fill="black"/>
<path fill-rule="evenodd" clip-rule="evenodd" d="M123.016 69.4538L114.717 62.8143H55.5141L63.4471 69.4538H123.016Z" fill="black"/>
<path fill-rule="evenodd" clip-rule="evenodd" d="M136.47 77.6088L140.375 72.1097L117.597 54.1583H45.1719L52.3742 60.1863H115.192L136.47 77.6088Z" fill="black"/>
</svg>
