<svg width="308" height="125" viewBox="0 0 308 125" fill="none" xmlns="http://www.w3.org/2000/svg">
<path d="M0.823242 22.5118C0.823242 10.355 10.6783 0.5 22.8351 0.5H285.485C297.641 0.5 307.496 10.355 307.496 22.5118V102.488C307.496 114.645 297.641 124.5 285.485 124.5H22.8351C10.6783 124.5 0.823242 114.645 0.823242 102.488V22.5118Z" fill="#C5A869"/>
<path fill-rule="evenodd" clip-rule="evenodd" d="M285.485 11.5059H22.8351C16.7567 11.5059 11.8292 16.4334 11.8292 22.5118V102.488C11.8292 108.567 16.7567 113.494 22.8351 113.494H285.485C291.563 113.494 296.49 108.567 296.49 102.488V22.5118C296.49 16.4334 291.563 11.5059 285.485 11.5059ZM22.8351 0.5C10.6783 0.5 0.823242 10.355 0.823242 22.5118V102.488C0.823242 114.645 10.6783 124.5 22.8351 124.5H285.485C297.641 124.5 307.496 114.645 307.496 102.488V22.5118C307.496 10.355 297.641 0.5 285.485 0.5H22.8351Z" fill="#A68C55"/>
<path fill-rule="evenodd" clip-rule="evenodd" d="M266.285 43.8584C265.552 43.8584 264.763 44.1055 264.006 44.4575C263.24 44.8131 262.462 45.2965 261.735 45.816C260.286 46.852 258.989 48.0711 258.349 48.8148C258.017 49.2007 257.682 49.6966 257.35 50.2161C257.208 50.4378 257.068 50.6601 256.928 50.8843L256.927 50.885C256.726 51.2052 256.523 51.5294 256.306 51.8614C255.569 52.9905 254.82 53.9729 254.031 54.4627C253.211 54.9713 251.826 56.0752 251.122 57.2488C250.773 57.8315 250.518 58.5572 250.762 59.2706C251.012 60.0026 251.707 60.4938 252.716 60.7892C253.581 61.0422 254.762 61.1799 256.328 61.1799C258.069 61.1799 260.429 60.7494 262.477 59.8276C264.505 58.9142 266.374 57.4479 266.856 55.291C267.255 53.5062 268.033 52.1831 268.752 51.0557C268.821 50.9464 268.891 50.8377 268.961 50.7297C269.243 50.2907 269.518 49.8636 269.733 49.46C270.428 48.1596 270.62 46.3396 270.023 44.662C269.349 44.0848 267.437 43.8584 266.285 43.8584ZM262.416 46.768C261.033 47.7564 259.808 48.9137 259.236 49.5781C258.963 49.8963 258.666 50.3312 258.335 50.8474C258.207 51.0472 258.071 51.2635 257.931 51.4869L257.93 51.4883C257.722 51.8202 257.504 52.1679 257.286 52.5014C256.556 53.6187 255.684 54.814 254.648 55.4571C253.9 55.9214 252.692 56.906 252.126 57.8504C251.841 58.3266 251.792 58.6673 251.869 58.8918C251.929 59.0673 252.12 59.3245 252.704 59.5513C254.389 57.7503 255.869 57.1983 257.382 56.6342L257.383 56.6341C257.708 56.5128 258.035 56.3909 258.365 56.256C259.186 55.9211 259.573 55.4033 259.968 54.6302C260.061 54.4494 260.155 54.2506 260.256 54.0372C260.585 53.3416 260.987 52.4915 261.645 51.6075C262.522 50.4294 263.928 49.2392 265.367 48.3054C267.102 47.1805 270.013 46.526 268.838 45.5189C268.415 45.1573 267.215 45.0287 266.285 45.0287C265.795 45.0287 265.186 45.1997 264.499 45.5189C263.819 45.8344 263.105 46.2752 262.416 46.768Z" fill="black"/>
<path fill-rule="evenodd" clip-rule="evenodd" d="M266.285 81.3894C265.552 81.3894 264.763 81.1423 264.006 80.7904C263.24 80.4348 262.462 79.9514 261.735 79.4319C260.286 78.3959 258.989 77.1767 258.349 76.433C258.017 76.0471 257.682 75.5512 257.35 75.0317C257.208 74.81 257.068 74.5877 256.928 74.3635L256.927 74.3628C256.726 74.0426 256.523 73.7184 256.306 73.3865C255.569 72.2573 254.82 71.275 254.031 70.7851C253.211 70.2766 251.826 69.1726 251.122 67.9991C250.773 67.4163 250.518 66.6907 250.762 65.9772C251.012 65.2452 251.707 64.7541 252.716 64.4587C253.581 64.2057 254.762 64.068 256.328 64.068C258.069 64.068 260.429 64.4984 262.477 65.4202C264.505 66.3336 266.374 67.8 266.856 69.9568C267.255 71.7417 268.033 73.0647 268.752 74.1922C268.821 74.3014 268.891 74.4101 268.961 74.5181C269.243 74.9571 269.518 75.3842 269.733 75.7878C270.428 77.0883 270.62 78.9083 270.023 80.5858C269.349 81.1631 267.437 81.3894 266.285 81.3894ZM262.416 78.4799C261.033 77.4914 259.808 76.3341 259.236 75.6697C258.963 75.3516 258.666 74.9166 258.335 74.4005C258.207 74.2006 258.071 73.9844 257.931 73.7609L257.93 73.7595C257.722 73.4277 257.504 73.08 257.286 72.7464C256.556 71.6292 255.684 70.4339 254.648 69.7908C253.9 69.3265 252.692 68.3419 252.126 67.3975C251.841 66.9212 251.792 66.5805 251.869 66.356C251.929 66.1805 252.12 65.9234 252.704 65.6966C254.389 67.4975 255.869 68.0495 257.382 68.6136L257.383 68.6138C257.708 68.7351 258.035 68.8569 258.365 68.9919C259.186 69.3267 259.573 69.8445 259.968 70.6177C260.061 70.7984 260.155 70.9973 260.256 71.2106C260.585 71.9062 260.987 72.7563 261.645 73.6403C262.522 74.8184 263.928 76.0087 265.367 76.9424C267.102 78.0673 270.013 78.7218 268.838 79.729C268.415 80.0906 267.215 80.2192 266.285 80.2192C265.795 80.2192 265.186 80.0482 264.499 79.729C263.819 79.4134 263.105 78.9726 262.416 78.4799Z" fill="black"/>
<path d="M254.838 74.5241C254.838 73.5163 254.021 72.6994 253.014 72.6994C252.693 72.6994 252.392 72.782 252.13 72.9272C249.889 70.0574 248.779 68.2985 247.028 64.9292H245.363C247.464 68.6567 248.746 70.6267 251.345 73.7851C251.245 74.011 251.189 74.2611 251.189 74.5241C251.189 75.5319 252.006 76.3489 253.014 76.3489C254.021 76.3489 254.838 75.5319 254.838 74.5241Z" fill="black"/>
<path d="M254.838 50.7237C254.838 51.7315 254.021 52.5485 253.014 52.5485C252.693 52.5485 252.392 52.4658 252.13 52.3207C249.889 55.1904 248.779 56.9494 247.028 60.3187H245.363C247.464 56.5911 248.746 54.6211 251.345 51.4627C251.245 51.2368 251.189 50.9868 251.189 50.7237C251.189 49.7159 252.006 48.899 253.014 48.899C254.021 48.899 254.838 49.7159 254.838 50.7237Z" fill="black"/>
<path fill-rule="evenodd" clip-rule="evenodd" d="M246.043 43.8584C245.309 43.8584 244.521 44.1055 243.763 44.4575C242.998 44.8131 242.219 45.2965 241.493 45.816C240.044 46.852 238.747 48.0711 238.107 48.8148C237.775 49.2007 237.44 49.6966 237.107 50.2161C236.965 50.4378 236.826 50.6601 236.685 50.8843L236.685 50.885C236.484 51.2052 236.281 51.5294 236.064 51.8614C235.326 52.9905 234.578 53.9729 233.788 54.4627C232.969 54.9713 231.584 56.0752 230.88 57.2488C230.531 57.8315 230.276 58.5572 230.52 59.2706C230.77 60.0026 231.464 60.4938 232.474 60.7892C233.339 61.0422 234.52 61.1799 236.085 61.1799C237.826 61.1799 240.187 60.7494 242.234 59.8276C244.263 58.9142 246.132 57.4479 246.614 55.291C247.013 53.5062 247.791 52.1831 248.509 51.0557C248.578 50.9475 248.648 50.8399 248.716 50.733L248.718 50.7297C249.001 50.2907 249.275 49.8636 249.491 49.46C250.185 48.1596 250.378 46.3396 249.78 44.662C249.107 44.0848 247.195 43.8584 246.043 43.8584ZM242.174 46.768C240.791 47.7564 239.566 48.9137 238.994 49.5781C238.72 49.8963 238.424 50.3312 238.093 50.8474C237.965 51.0472 237.829 51.2635 237.689 51.4869L237.688 51.4883C237.48 51.8202 237.262 52.1679 237.044 52.5014C236.314 53.6187 235.442 54.814 234.406 55.4571C233.658 55.9214 232.45 56.906 231.884 57.8504C231.599 58.3266 231.55 58.6673 231.627 58.8918C231.687 59.0673 231.878 59.3245 232.462 59.5513C234.147 57.7503 235.627 57.1983 237.14 56.6342C237.465 56.5129 237.792 56.391 238.123 56.256C238.943 55.9211 239.33 55.4033 239.726 54.6302C239.818 54.4494 239.912 54.2506 240.013 54.0372C240.343 53.3416 240.745 52.4915 241.403 51.6075C242.279 50.4294 243.685 49.2392 245.125 48.3054C246.86 47.1805 249.771 46.526 248.595 45.5189C248.173 45.1573 246.972 45.0287 246.043 45.0287C245.553 45.0287 244.944 45.1997 244.256 45.5189C243.577 45.8344 242.863 46.2752 242.174 46.768Z" fill="black"/>
<path fill-rule="evenodd" clip-rule="evenodd" d="M246.043 81.3894C245.309 81.3894 244.521 81.1423 243.763 80.7904C242.998 80.4348 242.219 79.9514 241.493 79.4319C240.044 78.3959 238.747 77.1767 238.107 76.433C237.775 76.0471 237.44 75.5512 237.107 75.0317C236.965 74.81 236.826 74.5877 236.685 74.3635L236.685 74.3628C236.484 74.0426 236.281 73.7184 236.064 73.3865C235.326 72.2573 234.578 71.275 233.788 70.7851C232.969 70.2766 231.584 69.1726 230.88 67.9991C230.531 67.4163 230.276 66.6907 230.52 65.9772C230.77 65.2452 231.464 64.7541 232.474 64.4587C233.339 64.2057 234.52 64.068 236.085 64.068C237.826 64.068 240.187 64.4984 242.234 65.4202C244.263 66.3336 246.132 67.8 246.614 69.9568C247.013 71.7417 247.791 73.0647 248.509 74.1922C248.579 74.3014 248.649 74.4101 248.718 74.5181C249.001 74.9571 249.275 75.3842 249.491 75.7878C250.185 77.0883 250.378 78.9083 249.78 80.5858C249.107 81.1631 247.195 81.3894 246.043 81.3894ZM242.174 78.4799C240.791 77.4914 239.566 76.3341 238.994 75.6697C238.72 75.3516 238.424 74.9166 238.093 74.4005C237.965 74.2006 237.829 73.9844 237.689 73.7609L237.688 73.7595C237.48 73.4277 237.262 73.08 237.044 72.7464C236.314 71.6292 235.442 70.4339 234.406 69.7908C233.658 69.3265 232.45 68.3419 231.884 67.3975C231.599 66.9212 231.55 66.5805 231.627 66.356C231.687 66.1805 231.878 65.9234 232.462 65.6966C234.147 67.4975 235.627 68.0495 237.14 68.6136C237.465 68.7349 237.792 68.8569 238.123 68.9919C238.943 69.3267 239.33 69.8445 239.726 70.6177C239.818 70.7984 239.913 70.9974 240.013 71.2106C240.343 71.9062 240.745 72.7563 241.403 73.6403C242.279 74.8184 243.685 76.0087 245.125 76.9424C246.86 78.0673 249.771 78.7218 248.595 79.729C248.173 80.0906 246.972 80.2192 246.043 80.2192C245.553 80.2192 244.944 80.0482 244.256 79.729C243.577 79.4134 242.863 78.9726 242.174 78.4799Z" fill="black"/>
<path fill-rule="evenodd" clip-rule="evenodd" d="M185.316 81.3894C184.583 81.3894 183.795 81.1423 183.037 80.7904C182.271 80.4348 181.493 79.9514 180.766 79.4319C179.317 78.3959 178.02 77.1767 177.38 76.433C177.048 76.0471 176.714 75.5512 176.381 75.0317C176.239 74.8104 176.1 74.5885 175.959 74.3646L175.959 74.3635L175.958 74.3628C175.757 74.0426 175.554 73.7184 175.337 73.3865C174.6 72.2573 173.851 71.275 173.062 70.7851C172.242 70.2766 170.857 69.1726 170.153 67.9991C169.804 67.4163 169.549 66.6907 169.793 65.9772C170.043 65.2452 170.738 64.7541 171.747 64.4587C172.612 64.2057 173.793 64.068 175.359 64.068C177.1 64.068 179.46 64.4984 181.508 65.4202C183.536 66.3336 185.405 67.8 185.887 69.9568C186.287 71.7417 187.064 73.0647 187.783 74.1922C187.852 74.3014 187.922 74.4101 187.992 74.5181C188.274 74.9571 188.549 75.3842 188.764 75.7878C189.459 77.0883 189.651 78.9083 189.054 80.5858C188.38 81.1631 186.468 81.3894 185.316 81.3894ZM181.447 78.4799C180.064 77.4914 178.839 76.3341 178.267 75.6697C177.994 75.3516 177.697 74.9166 177.366 74.4005C177.238 74.2006 177.102 73.9844 176.962 73.7609C176.754 73.4287 176.535 73.0805 176.317 72.7464C175.587 71.6292 174.715 70.4339 173.679 69.7908C172.931 69.3265 171.723 68.3419 171.157 67.3975C170.872 66.9212 170.823 66.5805 170.9 66.356C170.96 66.1805 171.152 65.9234 171.735 65.6966C173.42 67.4975 174.9 68.0495 176.413 68.6136C176.739 68.735 177.066 68.8569 177.396 68.9919C178.217 69.3267 178.604 69.8445 178.999 70.6177C179.092 70.7984 179.186 70.9974 179.287 71.2106C179.616 71.9062 180.019 72.7563 180.676 73.6403C181.553 74.8184 182.959 76.0087 184.398 76.9424C186.133 78.0673 189.044 78.7218 187.869 79.729C187.447 80.0906 186.246 80.2192 185.316 80.2192C184.826 80.2192 184.217 80.0482 183.53 79.729C182.85 79.4134 182.136 78.9726 181.447 78.4799Z" fill="black"/>
<path fill-rule="evenodd" clip-rule="evenodd" d="M185.316 43.8584C184.583 43.8584 183.795 44.1055 183.037 44.4575C182.271 44.8131 181.493 45.2965 180.766 45.816C179.317 46.852 178.02 48.0711 177.38 48.8148C177.048 49.2007 176.714 49.6966 176.381 50.2161C176.239 50.4373 176.1 50.6591 175.96 50.8827L175.959 50.8843L175.958 50.885C175.757 51.2052 175.554 51.5294 175.337 51.8614C174.6 52.9905 173.851 53.9729 173.062 54.4627C172.242 54.9713 170.857 56.0752 170.153 57.2488C169.804 57.8315 169.549 58.5572 169.793 59.2706C170.043 60.0026 170.738 60.4938 171.747 60.7892C172.612 61.0422 173.793 61.1799 175.359 61.1799C177.1 61.1799 179.46 60.7494 181.508 59.8276C183.536 58.9142 185.405 57.4479 185.887 55.291C186.287 53.5062 187.064 52.1831 187.783 51.0557C187.852 50.9464 187.922 50.8377 187.992 50.7297C188.274 50.2907 188.549 49.8636 188.764 49.46C189.459 48.1596 189.651 46.3396 189.054 44.662C188.38 44.0848 186.468 43.8584 185.316 43.8584ZM181.447 46.768C180.064 47.7564 178.839 48.9137 178.267 49.5781C177.994 49.8963 177.697 50.3312 177.366 50.8474C177.238 51.0472 177.102 51.2635 176.962 51.4869C176.754 51.8192 176.535 52.1674 176.317 52.5014C175.587 53.6187 174.715 54.814 173.679 55.4571C172.931 55.9214 171.723 56.906 171.157 57.8504C170.872 58.3266 170.823 58.6673 170.9 58.8918C170.96 59.0673 171.152 59.3245 171.735 59.5513C173.42 57.7503 174.9 57.1983 176.413 56.6342C176.739 56.5129 177.066 56.391 177.396 56.256C178.217 55.9211 178.604 55.4033 178.999 54.6302C179.092 54.4494 179.186 54.2506 179.287 54.0372C179.616 53.3416 180.019 52.4915 180.676 51.6075C181.553 50.4294 182.959 49.2392 184.398 48.3054C186.133 47.1805 189.044 46.526 187.869 45.5189C187.447 45.1573 186.246 45.0287 185.316 45.0287C184.826 45.0287 184.217 45.1997 183.53 45.5189C182.85 45.8344 182.136 46.2752 181.447 46.768Z" fill="black"/>
<path d="M194.112 50.7237C194.112 51.7315 193.295 52.5485 192.287 52.5485C191.966 52.5485 191.665 52.4658 191.403 52.3207C189.162 55.1904 188.053 56.9494 186.302 60.3187H184.636C186.737 56.5911 188.02 54.6211 190.618 51.4627C190.518 51.2368 190.462 50.9868 190.462 50.7237C190.462 49.7159 191.279 48.899 192.287 48.899C193.295 48.899 194.112 49.7159 194.112 50.7237Z" fill="black"/>
<path d="M194.112 74.5241C194.112 73.5163 193.295 72.6994 192.287 72.6994C191.966 72.6994 191.665 72.782 191.403 72.9272C189.162 70.0574 188.053 68.2985 186.302 64.9292H184.636C186.737 68.6567 188.02 70.6267 190.618 73.7851C190.518 74.011 190.462 74.2611 190.462 74.5241C190.462 75.5319 191.279 76.3489 192.287 76.3489C193.295 76.3489 194.112 75.5319 194.112 74.5241Z" fill="black"/>
<path fill-rule="evenodd" clip-rule="evenodd" d="M205.559 81.3894C204.825 81.3894 204.037 81.1423 203.279 80.7904C202.513 80.4348 201.735 79.9514 201.008 79.4319C199.559 78.3959 198.262 77.1767 197.622 76.433C197.29 76.0471 196.956 75.5512 196.623 75.0317C196.481 74.81 196.342 74.5877 196.201 74.3635L196.2 74.3628C196 74.0426 195.796 73.7184 195.58 73.3865C194.842 72.2573 194.093 71.275 193.304 70.7851C192.485 70.2766 191.099 69.1726 190.396 67.9991C190.046 67.4163 189.791 66.6907 190.035 65.9772C190.286 65.2452 190.98 64.7541 191.989 64.4587C192.854 64.2057 194.036 64.068 195.601 64.068C197.342 64.068 199.703 64.4984 201.75 65.4202C203.779 66.3336 205.647 67.8 206.13 69.9568C206.529 71.7417 207.307 73.0647 208.025 74.1922C208.094 74.3006 208.163 74.4085 208.232 74.5156L208.234 74.5181C208.516 74.9571 208.791 75.3842 209.007 75.7878C209.701 77.0883 209.894 78.9083 209.296 80.5858C208.622 81.1631 206.71 81.3894 205.559 81.3894ZM201.689 78.4799C200.307 77.4914 199.081 76.3341 198.51 75.6697C198.236 75.3516 197.939 74.9166 197.608 74.4005C197.48 74.2006 197.345 73.9844 197.204 73.7609C196.996 73.4287 196.777 73.0805 196.559 72.7464C195.829 71.6292 194.957 70.4339 193.921 69.7908C193.173 69.3265 191.966 68.3419 191.4 67.3975C191.114 66.9212 191.066 66.5805 191.142 66.356C191.202 66.1805 191.394 65.9234 191.978 65.6966C193.662 67.4975 195.143 68.0495 196.656 68.6136C196.981 68.735 197.308 68.8569 197.639 68.9919C198.459 69.3267 198.846 69.8445 199.241 70.6177C199.334 70.7984 199.428 70.9974 199.529 71.2106C199.858 71.9062 200.261 72.7563 200.918 73.6403C201.795 74.8184 203.201 76.0087 204.641 76.9424C206.375 78.0673 209.286 78.7218 208.111 79.729C207.689 80.0906 206.488 80.2192 205.559 80.2192C205.068 80.2192 204.459 80.0482 203.772 79.729C203.093 79.4134 202.378 78.9726 201.689 78.4799Z" fill="black"/>
<path fill-rule="evenodd" clip-rule="evenodd" d="M205.559 43.8584C204.825 43.8584 204.037 44.1055 203.279 44.4575C202.513 44.8131 201.735 45.2965 201.008 45.816C199.559 46.852 198.262 48.0711 197.622 48.8148C197.29 49.2007 196.956 49.6966 196.623 50.2161C196.481 50.4373 196.342 50.6591 196.202 50.8827L196.201 50.8843L196.2 50.885C196 51.2052 195.796 51.5294 195.58 51.8614C194.842 52.9905 194.093 53.9729 193.304 54.4627C192.485 54.9713 191.099 56.0752 190.396 57.2488C190.046 57.8315 189.791 58.5572 190.035 59.2706C190.286 60.0026 190.98 60.4938 191.989 60.7892C192.854 61.0422 194.036 61.1799 195.601 61.1799C197.342 61.1799 199.703 60.7494 201.75 59.8276C203.779 58.9142 205.647 57.4479 206.13 55.291C206.529 53.5062 207.307 52.1831 208.025 51.0557C208.095 50.9464 208.165 50.8377 208.234 50.7297C208.516 50.2907 208.791 49.8636 209.007 49.46C209.701 48.1596 209.894 46.3396 209.296 44.662C208.622 44.0848 206.71 43.8584 205.559 43.8584ZM201.689 46.768C200.307 47.7564 199.081 48.9137 198.51 49.5781C198.236 49.8963 197.939 50.3312 197.608 50.8474C197.48 51.0472 197.345 51.2635 197.204 51.4869C196.996 51.8192 196.777 52.1674 196.559 52.5014C195.829 53.6187 194.957 54.814 193.921 55.4571C193.173 55.9214 191.966 56.906 191.4 57.8504C191.114 58.3266 191.066 58.6673 191.142 58.8918C191.202 59.0673 191.394 59.3245 191.978 59.5513C193.662 57.7503 195.143 57.1983 196.656 56.6342C196.981 56.5129 197.308 56.391 197.639 56.256C198.459 55.9211 198.846 55.4033 199.241 54.6302C199.334 54.4494 199.428 54.2506 199.529 54.0372C199.858 53.3416 200.261 52.4915 200.918 51.6075C201.795 50.4294 203.201 49.2392 204.641 48.3054C206.375 47.1805 209.286 46.526 208.111 45.5189C207.689 45.1573 206.488 45.0287 205.559 45.0287C205.068 45.0287 204.459 45.1997 203.772 45.5189C203.093 45.8344 202.378 46.2752 201.689 46.768Z" fill="black"/>
<path fill-rule="evenodd" clip-rule="evenodd" d="M225.801 43.8584C225.067 43.8584 224.279 44.1055 223.521 44.4575C222.756 44.8131 221.977 45.2965 221.251 45.816C219.802 46.852 218.505 48.0711 217.865 48.8148C217.533 49.2007 217.198 49.6966 216.865 50.2161C216.723 50.4378 216.584 50.6601 216.443 50.8843L216.443 50.885C216.242 51.2052 216.039 51.5294 215.822 51.8614C215.084 52.9905 214.335 53.9729 213.546 54.4627C212.727 54.9713 211.341 56.0752 210.638 57.2488C210.289 57.8315 210.033 58.5572 210.277 59.2706C210.528 60.0026 211.222 60.4938 212.232 60.7892C213.097 61.0422 214.278 61.1799 215.843 61.1799C217.584 61.1799 219.945 60.7494 221.992 59.8276C224.021 58.9142 225.889 57.4479 226.372 55.291C226.771 53.5062 227.549 52.1831 228.267 51.0557C228.337 50.9464 228.407 50.8377 228.476 50.7297C228.759 50.2907 229.033 49.8636 229.249 49.46C229.943 48.1596 230.136 46.3396 229.538 44.662C228.865 44.0848 226.952 43.8584 225.801 43.8584ZM221.931 46.768C220.549 47.7564 219.323 48.9137 218.752 49.5781C218.478 49.8963 218.181 50.3312 217.851 50.8474C217.723 51.0472 217.587 51.2635 217.447 51.4869L217.446 51.4883C217.238 51.8202 217.019 52.1679 216.802 52.5014C216.072 53.6187 215.199 54.814 214.163 55.4571C213.415 55.9214 212.208 56.906 211.642 57.8504C211.356 58.3266 211.308 58.6673 211.385 58.8918C211.445 59.0673 211.636 59.3245 212.22 59.5513C213.904 57.7503 215.385 57.1983 216.898 56.6342C217.223 56.5129 217.55 56.391 217.881 56.256C218.701 55.9211 219.088 55.4033 219.484 54.6302C219.576 54.4494 219.67 54.2506 219.771 54.0372C220.101 53.3416 220.503 52.4915 221.161 51.6075C222.037 50.4294 223.443 49.2392 224.883 48.3054C226.617 47.1805 229.529 46.526 228.353 45.5189C227.931 45.1573 226.73 45.0287 225.801 45.0287C225.31 45.0287 224.701 45.1997 224.014 45.5189C223.335 45.8344 222.62 46.2752 221.931 46.768Z" fill="black"/>
<path fill-rule="evenodd" clip-rule="evenodd" d="M225.801 81.3894C225.067 81.3894 224.279 81.1423 223.521 80.7904C222.756 80.4348 221.977 79.9514 221.251 79.4319C219.802 78.3959 218.505 77.1767 217.865 76.433C217.533 76.0471 217.198 75.5512 216.865 75.0317C216.723 74.81 216.584 74.5877 216.443 74.3635L216.443 74.3628C216.242 74.0426 216.039 73.7184 215.822 73.3865C215.084 72.2573 214.335 71.275 213.546 70.7851C212.727 70.2766 211.341 69.1726 210.638 67.9991C210.289 67.4163 210.033 66.6907 210.277 65.9772C210.528 65.2452 211.222 64.7541 212.232 64.4587C213.097 64.2057 214.278 64.068 215.843 64.068C217.584 64.068 219.945 64.4984 221.992 65.4202C224.021 66.3336 225.889 67.8 226.372 69.9568C226.771 71.7417 227.549 73.0647 228.267 74.1922C228.337 74.3014 228.407 74.4101 228.476 74.5181C228.759 74.9571 229.033 75.3842 229.249 75.7878C229.943 77.0883 230.136 78.9083 229.538 80.5858C228.865 81.1631 226.952 81.3894 225.801 81.3894ZM221.931 78.4799C220.549 77.4914 219.323 76.3341 218.752 75.6697C218.478 75.3516 218.181 74.9166 217.851 74.4005C217.723 74.2006 217.587 73.9844 217.447 73.7609L217.446 73.7595C217.238 73.4277 217.019 73.08 216.802 72.7464C216.072 71.6292 215.199 70.4339 214.163 69.7908C213.415 69.3265 212.208 68.3419 211.642 67.3975C211.356 66.9212 211.308 66.5805 211.385 66.356C211.445 66.1805 211.636 65.9234 212.22 65.6966C213.904 67.4975 215.385 68.0495 216.898 68.6136C217.223 68.7349 217.55 68.8569 217.881 68.9919C218.701 69.3267 219.088 69.8445 219.484 70.6177C219.576 70.7984 219.67 70.9974 219.771 71.2106C220.101 71.9062 220.503 72.7563 221.161 73.6403C222.037 74.8184 223.443 76.0087 224.883 76.9424C226.617 78.0673 229.529 78.7218 228.353 79.729C227.931 80.0906 226.73 80.2192 225.801 80.2192C225.31 80.2192 224.701 80.0482 224.014 79.729C223.335 79.4134 222.62 78.9726 221.931 78.4799Z" fill="black"/>
<path d="M214.354 74.5241C214.354 73.5163 213.537 72.6994 212.529 72.6994C212.209 72.6994 211.907 72.782 211.646 72.9272C209.404 70.0574 208.295 68.2985 206.544 64.9292H204.878C206.979 68.6567 208.262 70.6267 210.86 73.7851C210.76 74.011 210.704 74.2611 210.704 74.5241C210.704 75.5319 211.521 76.3489 212.529 76.3489C213.537 76.3489 214.354 75.5319 214.354 74.5241Z" fill="black"/>
<path d="M214.354 50.7237C214.354 51.7315 213.537 52.5485 212.529 52.5485C212.209 52.5485 211.907 52.4658 211.646 52.3207C209.404 55.1904 208.295 56.9494 206.544 60.3187H204.878C206.979 56.5911 208.262 54.6211 210.86 51.4627C210.76 51.2368 210.704 50.9868 210.704 50.7237C210.704 49.7159 211.521 48.899 212.529 48.899C213.537 48.899 214.354 49.7159 214.354 50.7237Z" fill="black"/>
<path d="M234.596 50.7237C234.596 51.7315 233.779 52.5485 232.771 52.5485C232.451 52.5485 232.15 52.4658 231.888 52.3207C229.647 55.1904 228.537 56.9494 226.786 60.3187H225.12C227.222 56.5911 228.504 54.6211 231.103 51.4627C231.002 51.2368 230.947 50.9868 230.947 50.7237C230.947 49.7159 231.764 48.899 232.771 48.899C233.779 48.899 234.596 49.7159 234.596 50.7237Z" fill="black"/>
<path d="M234.596 74.5241C234.596 73.5163 233.779 72.6994 232.771 72.6994C232.451 72.6994 232.15 72.782 231.888 72.9272C229.647 70.0574 228.537 68.2985 226.786 64.9292H225.12C227.222 68.6567 228.504 70.6267 231.103 73.7851C231.002 74.011 230.947 74.2611 230.947 74.5241C230.947 75.5319 231.764 76.3489 232.771 76.3489C233.779 76.3489 234.596 75.5319 234.596 74.5241Z" fill="black"/>
<path fill-rule="evenodd" clip-rule="evenodd" d="M42.035 43.8584C42.7687 43.8584 43.5567 44.1055 44.3145 44.4575C45.0801 44.8131 45.8586 45.2965 46.5852 45.816C48.0341 46.852 49.3311 48.0711 49.9711 48.8148C50.3031 49.2007 50.6378 49.6966 50.9706 50.2161C51.1126 50.4378 51.252 50.6601 51.3926 50.8843L51.393 50.885C51.5939 51.2052 51.7972 51.5294 52.014 51.8614C52.7517 52.9905 53.5004 53.9729 54.2896 54.4628C55.1089 54.9713 56.4945 56.0752 57.1978 57.2488C57.5471 57.8315 57.8024 58.5572 57.5584 59.2706C57.308 60.0026 56.6137 60.4938 55.6041 60.7892C54.7393 61.0422 53.5579 61.1799 51.9926 61.1799C50.2517 61.1799 47.891 60.7494 45.8435 59.8276C43.8148 58.9142 41.9465 57.4479 41.464 55.291C41.0647 53.5062 40.2869 52.1831 39.5685 51.0557C39.4989 50.9464 39.429 50.8377 39.3595 50.7297C39.0772 50.2907 38.8025 49.8636 38.587 49.46C37.8927 48.1596 37.6999 46.3396 38.2975 44.662C38.9713 44.0848 40.8833 43.8584 42.035 43.8584ZM45.9045 46.768C47.2869 47.7564 48.5123 48.9137 49.084 49.5781C49.3577 49.8963 49.6545 50.3312 49.9851 50.8474C50.1132 51.0472 50.2488 51.2635 50.3891 51.4869L50.3899 51.4883C50.5982 51.8202 50.8164 52.1679 51.0343 52.5014C51.7642 53.6187 52.6364 54.814 53.6725 55.4571C54.4205 55.9214 55.628 56.906 56.194 57.8504C56.4795 58.3267 56.5279 58.6673 56.4511 58.8918C56.3911 59.0673 56.1998 59.3245 55.6159 59.5513C53.9312 57.7504 52.4508 57.1983 50.938 56.6342L50.9376 56.6341C50.6123 56.5128 50.2855 56.3909 49.9549 56.256C49.1345 55.9211 48.7477 55.4033 48.3522 54.6302C48.2597 54.4494 48.1655 54.2506 48.0645 54.0372C47.7352 53.3416 47.3328 52.4915 46.6751 51.6075C45.7986 50.4294 44.3925 49.2392 42.9528 48.3054C41.2183 47.1805 38.3071 46.526 39.4827 45.5189C39.9047 45.1573 41.1056 45.0287 42.035 45.0287C42.5253 45.0287 43.1343 45.1997 43.8215 45.5189C44.5009 45.8344 45.2154 46.2752 45.9045 46.768Z" fill="black"/>
<path fill-rule="evenodd" clip-rule="evenodd" d="M42.035 81.3895C42.7687 81.3895 43.5567 81.1424 44.3145 80.7904C45.0801 80.4348 45.8586 79.9514 46.5852 79.4319C48.0341 78.3959 49.3311 77.1768 49.9711 76.433C50.3031 76.0471 50.6378 75.5512 50.9706 75.0318C51.1126 74.8101 51.252 74.5878 51.3926 74.3636L51.393 74.3628C51.5939 74.0426 51.7972 73.7185 52.014 73.3865C52.7517 72.2573 53.5004 71.275 54.2896 70.7851C55.1089 70.2766 56.4945 69.1727 57.1978 67.9991C57.5471 67.4163 57.8024 66.6907 57.5584 65.9773C57.308 65.2452 56.6137 64.7541 55.6041 64.4587C54.7393 64.2057 53.5579 64.068 51.9926 64.068C50.2517 64.068 47.891 64.4984 45.8435 65.4203C43.8148 66.3336 41.9465 67.8 41.464 69.9568C41.0647 71.7417 40.2869 73.0648 39.5685 74.1922C39.4989 74.3015 39.429 74.4102 39.3595 74.5182C39.0772 74.9572 38.8025 75.3842 38.587 75.7878C37.8927 77.0883 37.6999 78.9083 38.2975 80.5858C38.9713 81.1631 40.8833 81.3895 42.035 81.3895ZM45.9045 78.4799C47.2869 77.4915 48.5123 76.3341 49.084 75.6697C49.3577 75.3516 49.6545 74.9167 49.9851 74.4005C50.1132 74.2006 50.2488 73.9844 50.3891 73.761L50.3899 73.7596C50.5982 73.4277 50.8164 73.08 51.0343 72.7465C51.7642 71.6292 52.6364 70.4339 53.6725 69.7908C54.4205 69.3265 55.628 68.3419 56.194 67.3975C56.4795 66.9212 56.5279 66.5805 56.4511 66.356C56.3911 66.1805 56.1998 65.9234 55.6159 65.6966C53.9312 67.4975 52.4508 68.0495 50.938 68.6136L50.9375 68.6138C50.6122 68.7351 50.2855 68.857 49.9549 68.9919C49.1345 69.3267 48.7477 69.8446 48.3522 70.6177C48.2597 70.7985 48.1655 70.9973 48.0645 71.2106C47.7352 71.9062 47.3328 72.7564 46.6751 73.6403C45.7986 74.8185 44.3925 76.0087 42.9528 76.9424C41.2183 78.0674 38.3071 78.7218 39.4827 79.729C39.9047 80.0906 41.1056 80.2192 42.035 80.2192C42.5253 80.2192 43.1343 80.0482 43.8215 79.729C44.5009 79.4134 45.2154 78.9726 45.9045 78.4799Z" fill="black"/>
<path d="M53.4818 74.5241C53.4818 73.5164 54.2988 72.6994 55.3065 72.6994C55.6271 72.6994 55.9283 72.782 56.1901 72.9272C58.4313 70.0574 59.5408 68.2985 61.292 64.9292H62.9575C60.8564 68.6568 59.5739 70.6267 56.9754 73.7851C57.0756 74.011 57.1313 74.2611 57.1313 74.5241C57.1313 75.5319 56.3143 76.3489 55.3065 76.3489C54.2988 76.3489 53.4818 75.5319 53.4818 74.5241Z" fill="black"/>
<path d="M53.4818 50.7237C53.4818 51.7315 54.2988 52.5485 55.3065 52.5485C55.6271 52.5485 55.9283 52.4658 56.1901 52.3207C58.4313 55.1904 59.5408 56.9494 61.292 60.3187H62.9575C60.8564 56.5911 59.5739 54.6211 56.9754 51.4628C57.0756 51.2368 57.1313 50.9868 57.1313 50.7237C57.1313 49.716 56.3143 48.899 55.3065 48.899C54.2988 48.899 53.4818 49.716 53.4818 50.7237Z" fill="black"/>
<path fill-rule="evenodd" clip-rule="evenodd" d="M62.2773 43.8584C63.0109 43.8584 63.799 44.1055 64.5567 44.4575C65.3223 44.8131 66.1008 45.2965 66.8274 45.816C68.2763 46.852 69.5733 48.0711 70.2133 48.8148C70.5453 49.2007 70.88 49.6966 71.2128 50.2161C71.3548 50.4378 71.4942 50.6601 71.6348 50.8843L71.6353 50.885C71.8361 51.2052 72.0394 51.5294 72.2563 51.8614C72.9939 52.9905 73.7427 53.9729 74.5319 54.4628C75.3512 54.9713 76.7367 56.0752 77.4401 57.2488C77.7893 57.8315 78.0446 58.5572 77.8006 59.2706C77.5502 60.0026 76.8559 60.4938 75.8463 60.7892C74.9815 61.0422 73.8002 61.1799 72.2348 61.1799C70.4939 61.1799 68.1332 60.7494 66.0858 59.8276C64.057 58.9142 62.1887 57.4479 61.7062 55.291C61.307 53.5062 60.5291 52.1831 59.8108 51.0557C59.7419 50.9475 59.6727 50.8399 59.6039 50.733L59.6018 50.7297C59.3194 50.2907 59.0447 49.8636 58.8292 49.46C58.1349 48.1596 57.9421 46.3396 58.5397 44.662C59.2135 44.0848 61.1255 43.8584 62.2773 43.8584ZM66.1467 46.768C67.5292 47.7564 68.7545 48.9137 69.3262 49.5781C69.5999 49.8963 69.8967 50.3312 70.2273 50.8474C70.3554 51.0472 70.4911 51.2635 70.6313 51.4869L70.6322 51.4883C70.8404 51.8202 71.0586 52.1679 71.2765 52.5014C72.0064 53.6187 72.8786 54.814 73.9147 55.4571C74.6627 55.9214 75.8702 56.906 76.4362 57.8504C76.7217 58.3267 76.7701 58.6673 76.6933 58.8918C76.6333 59.0673 76.442 59.3245 75.8581 59.5513C74.1735 57.7504 72.6931 57.1983 71.1802 56.6342C70.8548 56.5129 70.5279 56.391 70.1971 56.256C69.3767 55.9211 68.9899 55.4033 68.5944 54.6302C68.5019 54.4494 68.4078 54.2506 68.3068 54.0372C67.9775 53.3416 67.575 52.4915 66.9173 51.6075C66.0408 50.4294 64.6348 49.2392 63.1951 48.3054C61.4606 47.1805 58.5494 46.526 59.7249 45.5189C60.1469 45.1573 61.3478 45.0287 62.2773 45.0287C62.7675 45.0287 63.3766 45.1997 64.0638 45.5189C64.7432 45.8344 65.4576 46.2752 66.1467 46.768Z" fill="black"/>
<path fill-rule="evenodd" clip-rule="evenodd" d="M62.2773 81.3895C63.0109 81.3895 63.799 81.1424 64.5567 80.7904C65.3223 80.4348 66.1008 79.9514 66.8274 79.4319C68.2763 78.3959 69.5733 77.1768 70.2133 76.433C70.5453 76.0471 70.88 75.5512 71.2128 75.0318C71.3548 74.8101 71.4942 74.5878 71.6348 74.3636L71.6353 74.3628C71.8361 74.0426 72.0394 73.7185 72.2563 73.3865C72.9939 72.2573 73.7427 71.275 74.5319 70.7851C75.3512 70.2766 76.7367 69.1727 77.4401 67.9991C77.7893 67.4163 78.0446 66.6907 77.8006 65.9773C77.5502 65.2452 76.8559 64.7541 75.8463 64.4587C74.9815 64.2057 73.8002 64.068 72.2348 64.068C70.4939 64.068 68.1332 64.4984 66.0858 65.4203C64.057 66.3336 62.1887 67.8 61.7062 69.9568C61.307 71.7417 60.5291 73.0648 59.8108 74.1922C59.7411 74.3015 59.6712 74.4102 59.6018 74.5182C59.3194 74.9572 59.0447 75.3842 58.8292 75.7878C58.1349 77.0883 57.9421 78.9083 58.5397 80.5858C59.2135 81.1631 61.1255 81.3895 62.2773 81.3895ZM66.1467 78.4799C67.5292 77.4915 68.7545 76.3341 69.3262 75.6697C69.5999 75.3516 69.8967 74.9167 70.2273 74.4005C70.3554 74.2006 70.4911 73.9844 70.6313 73.761L70.6322 73.7596C70.8404 73.4277 71.0586 73.08 71.2765 72.7465C72.0064 71.6292 72.8786 70.4339 73.9147 69.7908C74.6627 69.3265 75.8702 68.3419 76.4362 67.3975C76.7217 66.9212 76.7701 66.5805 76.6933 66.356C76.6333 66.1805 76.442 65.9234 75.8581 65.6966C74.1735 67.4975 72.6931 68.0495 71.1802 68.6136C70.8549 68.735 70.5278 68.8569 70.1971 68.9919C69.3767 69.3267 68.9899 69.8446 68.5944 70.6177C68.5019 70.7984 68.4077 70.9974 68.3068 71.2106C67.9775 71.9062 67.575 72.7564 66.9173 73.6403C66.0408 74.8185 64.6348 76.0087 63.1951 76.9424C61.4606 78.0674 58.5494 78.7218 59.7249 79.729C60.1469 80.0906 61.3478 80.2192 62.2773 80.2192C62.7675 80.2192 63.3766 80.0482 64.0638 79.729C64.7432 79.4134 65.4576 78.9726 66.1467 78.4799Z" fill="black"/>
<path fill-rule="evenodd" clip-rule="evenodd" d="M123.004 81.3895C123.738 81.3895 124.526 81.1424 125.283 80.7904C126.049 80.4348 126.828 79.9514 127.554 79.4319C129.003 78.3959 130.3 77.1768 130.94 76.433C131.272 76.0471 131.607 75.5512 131.939 75.0318C132.081 74.8104 132.22 74.5885 132.361 74.3646L132.362 74.3636L132.362 74.3628C132.563 74.0426 132.766 73.7185 132.983 73.3865C133.721 72.2573 134.469 71.275 135.259 70.7851C136.078 70.2766 137.463 69.1727 138.167 67.9991C138.516 67.4163 138.771 66.6907 138.527 65.9773C138.277 65.2452 137.583 64.7541 136.573 64.4587C135.708 64.2057 134.527 64.068 132.962 64.068C131.221 64.068 128.86 64.4984 126.812 65.4203C124.784 66.3336 122.915 67.8 122.433 69.9568C122.034 71.7417 121.256 73.0648 120.537 74.1922C120.468 74.3015 120.398 74.4102 120.328 74.5182C120.046 74.9572 119.771 75.3842 119.556 75.7878C118.862 77.0883 118.669 78.9083 119.266 80.5858C119.94 81.1631 121.852 81.3895 123.004 81.3895ZM126.873 78.4799C128.256 77.4915 129.481 76.3341 130.053 75.6697C130.327 75.3516 130.623 74.9167 130.954 74.4005C131.082 74.2006 131.218 73.9844 131.358 73.761C131.566 73.4287 131.785 73.0805 132.003 72.7465C132.733 71.6292 133.605 70.4339 134.641 69.7908C135.389 69.3265 136.597 68.3419 137.163 67.3975C137.448 66.9212 137.497 66.5805 137.42 66.356C137.36 66.1805 137.169 65.9234 136.585 65.6966C134.9 67.4975 133.42 68.0495 131.907 68.6136C131.581 68.735 131.255 68.8569 130.924 68.9919C130.103 69.3267 129.717 69.8446 129.321 70.6177C129.229 70.7984 129.134 70.9974 129.033 71.2106C128.704 71.9062 128.302 72.7564 127.644 73.6403C126.767 74.8185 125.361 76.0087 123.922 76.9424C122.187 78.0674 119.276 78.7218 120.452 79.729C120.874 80.0906 122.074 80.2192 123.004 80.2192C123.494 80.2192 124.103 80.0482 124.79 79.729C125.47 79.4134 126.184 78.9726 126.873 78.4799Z" fill="black"/>
<path fill-rule="evenodd" clip-rule="evenodd" d="M123.004 43.8584C123.738 43.8584 124.526 44.1055 125.283 44.4575C126.049 44.8131 126.828 45.2965 127.554 45.816C129.003 46.852 130.3 48.0711 130.94 48.8148C131.272 49.2007 131.607 49.6966 131.939 50.2161C132.081 50.4373 132.22 50.6591 132.361 50.8827L132.362 50.8843L132.362 50.885C132.563 51.2052 132.766 51.5294 132.983 51.8614C133.721 52.9905 134.469 53.9729 135.259 54.4628C136.078 54.9713 137.463 56.0752 138.167 57.2488C138.516 57.8315 138.771 58.5572 138.527 59.2706C138.277 60.0026 137.583 60.4938 136.573 60.7892C135.708 61.0422 134.527 61.1799 132.962 61.1799C131.221 61.1799 128.86 60.7494 126.812 59.8276C124.784 58.9142 122.915 57.4479 122.433 55.291C122.034 53.5062 121.256 52.1831 120.537 51.0557C120.468 50.9464 120.398 50.8377 120.328 50.7297C120.046 50.2907 119.771 49.8636 119.556 49.46C118.862 48.1596 118.669 46.3396 119.266 44.662C119.94 44.0848 121.852 43.8584 123.004 43.8584ZM126.873 46.768C128.256 47.7564 129.481 48.9137 130.053 49.5781C130.327 49.8963 130.623 50.3312 130.954 50.8474C131.082 51.0472 131.218 51.2635 131.358 51.4869C131.566 51.8192 131.785 52.1674 132.003 52.5014C132.733 53.6187 133.605 54.814 134.641 55.4571C135.389 55.9214 136.597 56.906 137.163 57.8504C137.448 58.3267 137.497 58.6673 137.42 58.8918C137.36 59.0673 137.169 59.3245 136.585 59.5513C134.9 57.7504 133.42 57.1983 131.907 56.6342C131.581 56.5129 131.255 56.391 130.924 56.256C130.103 55.9211 129.717 55.4033 129.321 54.6302C129.229 54.4494 129.134 54.2506 129.033 54.0372C128.704 53.3416 128.302 52.4915 127.644 51.6075C126.767 50.4294 125.361 49.2392 123.922 48.3054C122.187 47.1805 119.276 46.526 120.452 45.5189C120.874 45.1573 122.074 45.0287 123.004 45.0287C123.494 45.0287 124.103 45.1997 124.79 45.5189C125.47 45.8344 126.184 46.2752 126.873 46.768Z" fill="black"/>
<path d="M114.208 50.7237C114.208 51.7315 115.025 52.5485 116.033 52.5485C116.354 52.5485 116.655 52.4658 116.917 52.3207C119.158 55.1904 120.267 56.9494 122.019 60.3187H123.684C121.583 56.5911 120.301 54.6211 117.702 51.4628C117.802 51.2368 117.858 50.9868 117.858 50.7237C117.858 49.716 117.041 48.899 116.033 48.899C115.025 48.899 114.208 49.716 114.208 50.7237Z" fill="black"/>
<path d="M114.208 74.5241C114.208 73.5164 115.025 72.6994 116.033 72.6994C116.354 72.6994 116.655 72.782 116.917 72.9272C119.158 70.0574 120.267 68.2985 122.019 64.9292H123.684C121.583 68.6568 120.301 70.6267 117.702 73.7851C117.802 74.011 117.858 74.2611 117.858 74.5241C117.858 75.5319 117.041 76.3489 116.033 76.3489C115.025 76.3489 114.208 75.5319 114.208 74.5241Z" fill="black"/>
<path fill-rule="evenodd" clip-rule="evenodd" d="M102.762 81.3895C103.495 81.3895 104.283 81.1424 105.041 80.7904C105.807 80.4348 106.585 79.9514 107.312 79.4319C108.761 78.3959 110.058 77.1768 110.698 76.433C111.03 76.0471 111.364 75.5512 111.697 75.0318C111.839 74.8101 111.979 74.5878 112.119 74.3636L112.12 74.3628C112.321 74.0426 112.524 73.7185 112.741 73.3865C113.478 72.2573 114.227 71.275 115.016 70.7851C115.836 70.2766 117.221 69.1727 117.924 67.9991C118.274 67.4163 118.529 66.6907 118.285 65.9773C118.035 65.2452 117.34 64.7541 116.331 64.4587C115.466 64.2057 114.285 64.068 112.719 64.068C110.978 64.068 108.618 64.4984 106.57 65.4203C104.541 66.3336 102.673 67.8 102.191 69.9568C101.791 71.7417 101.014 73.0648 100.295 74.1922C100.226 74.3006 100.157 74.4085 100.088 74.5156L100.086 74.5182C99.8039 74.9572 99.5292 75.3842 99.3137 75.7878C98.6194 77.0883 98.4266 78.9083 99.0242 80.5858C99.6979 81.1631 101.61 81.3895 102.762 81.3895ZM106.631 78.4799C108.014 77.4915 109.239 76.3341 109.811 75.6697C110.084 75.3516 110.381 74.9167 110.712 74.4005C110.84 74.2006 110.976 73.9844 111.116 73.761C111.324 73.4287 111.543 73.0805 111.761 72.7465C112.491 71.6292 113.363 70.4339 114.399 69.7908C115.147 69.3265 116.355 68.3419 116.921 67.3975C117.206 66.9212 117.255 66.5805 117.178 66.356C117.118 66.1805 116.926 65.9234 116.343 65.6966C114.658 67.4975 113.178 68.0495 111.665 68.6136C111.339 68.735 111.012 68.8569 110.682 68.9919C109.861 69.3267 109.474 69.8446 109.079 70.6177C108.986 70.7984 108.892 70.9974 108.791 71.2106C108.462 71.9062 108.059 72.7564 107.402 73.6403C106.525 74.8185 105.119 76.0087 103.68 76.9424C101.945 78.0674 99.0338 78.7218 100.209 79.729C100.631 80.0906 101.832 80.2192 102.762 80.2192C103.252 80.2192 103.861 80.0482 104.548 79.729C105.228 79.4134 105.942 78.9726 106.631 78.4799Z" fill="black"/>
<path fill-rule="evenodd" clip-rule="evenodd" d="M102.762 43.8584C103.495 43.8584 104.283 44.1055 105.041 44.4575C105.807 44.8131 106.585 45.2965 107.312 45.816C108.761 46.852 110.058 48.0711 110.698 48.8148C111.03 49.2007 111.364 49.6966 111.697 50.2161C111.839 50.4373 111.978 50.6591 112.118 50.8827L112.119 50.8843L112.12 50.885C112.321 51.2052 112.524 51.5294 112.741 51.8614C113.478 52.9905 114.227 53.9729 115.016 54.4628C115.836 54.9713 117.221 56.0752 117.924 57.2488C118.274 57.8315 118.529 58.5572 118.285 59.2706C118.035 60.0026 117.34 60.4938 116.331 60.7892C115.466 61.0422 114.285 61.1799 112.719 61.1799C110.978 61.1799 108.618 60.7494 106.57 59.8276C104.541 58.9142 102.673 57.4479 102.191 55.291C101.791 53.5062 101.014 52.1831 100.295 51.0557C100.226 50.9464 100.156 50.8377 100.086 50.7297C99.8039 50.2907 99.5292 49.8636 99.3137 49.46C98.6194 48.1596 98.4266 46.3396 99.0242 44.662C99.6979 44.0848 101.61 43.8584 102.762 43.8584ZM106.631 46.768C108.014 47.7564 109.239 48.9137 109.811 49.5781C110.084 49.8963 110.381 50.3312 110.712 50.8474C110.84 51.0472 110.976 51.2635 111.116 51.4869C111.324 51.8192 111.543 52.1674 111.761 52.5014C112.491 53.6187 113.363 54.814 114.399 55.4571C115.147 55.9214 116.355 56.906 116.921 57.8504C117.206 58.3267 117.255 58.6673 117.178 58.8918C117.118 59.0673 116.926 59.3245 116.343 59.5513C114.658 57.7504 113.178 57.1983 111.665 56.6342C111.339 56.5129 111.012 56.391 110.682 56.256C109.861 55.9211 109.474 55.4033 109.079 54.6302C108.986 54.4494 108.892 54.2506 108.791 54.0372C108.462 53.3416 108.059 52.4915 107.402 51.6075C106.525 50.4294 105.119 49.2392 103.68 48.3054C101.945 47.1805 99.0338 46.526 100.209 45.5189C100.631 45.1573 101.832 45.0287 102.762 45.0287C103.252 45.0287 103.861 45.1997 104.548 45.5189C105.228 45.8344 105.942 46.2752 106.631 46.768Z" fill="black"/>
<path fill-rule="evenodd" clip-rule="evenodd" d="M82.5195 43.8584C83.2531 43.8584 84.0412 44.1055 84.799 44.4575C85.5646 44.8131 86.3431 45.2965 87.0696 45.816C88.5186 46.852 89.8156 48.0711 90.4555 48.8148C90.7876 49.2007 91.1222 49.6966 91.455 50.2161C91.597 50.4378 91.7364 50.6601 91.8771 50.8843L91.8775 50.885C92.0783 51.2052 92.2816 51.5294 92.4985 51.8614C93.2361 52.9905 93.9849 53.9729 94.7741 54.4628C95.5934 54.9713 96.9789 56.0752 97.6823 57.2488C98.0315 57.8315 98.2869 58.5572 98.0428 59.2706C97.7924 60.0026 97.0982 60.4938 96.0885 60.7892C95.2237 61.0422 94.0424 61.1799 92.4771 61.1799C90.7361 61.1799 88.3754 60.7494 86.328 59.8276C84.2992 58.9142 82.4309 57.4479 81.9485 55.291C81.5492 53.5062 80.7713 52.1831 80.053 51.0557C79.9834 50.9464 79.9134 50.8377 79.844 50.7297C79.5616 50.2907 79.287 49.8636 79.0715 49.46C78.3771 48.1596 78.1843 46.3396 78.782 44.662C79.4557 44.0848 81.3677 43.8584 82.5195 43.8584ZM86.389 46.768C87.7714 47.7564 88.9967 48.9137 89.5684 49.5781C89.8422 49.8963 90.1389 50.3312 90.4696 50.8474C90.5976 51.0472 90.7333 51.2635 90.8735 51.4869L90.8744 51.4883C91.0826 51.8202 91.3008 52.1679 91.5187 52.5014C92.2486 53.6187 93.1208 54.814 94.1569 55.4571C94.905 55.9214 96.1124 56.906 96.6785 57.8504C96.9639 58.3267 97.0123 58.6673 96.9355 58.8918C96.8755 59.0673 96.6842 59.3245 96.1003 59.5513C94.4157 57.7504 92.9353 57.1983 91.4224 56.6342C91.097 56.5129 90.7701 56.391 90.4393 56.256C89.6189 55.9211 89.2321 55.4033 88.8366 54.6302C88.7441 54.4494 88.65 54.2506 88.549 54.0372C88.2197 53.3416 87.8172 52.4915 87.1595 51.6075C86.283 50.4294 84.877 49.2392 83.4373 48.3054C81.7028 47.1805 78.7916 46.526 79.9671 45.5189C80.3892 45.1573 81.59 45.0287 82.5195 45.0287C83.0098 45.0287 83.6188 45.1997 84.306 45.5189C84.9854 45.8344 85.6998 46.2752 86.389 46.768Z" fill="black"/>
<path fill-rule="evenodd" clip-rule="evenodd" d="M82.5195 81.3895C83.2531 81.3895 84.0412 81.1424 84.799 80.7904C85.5646 80.4348 86.3431 79.9514 87.0696 79.4319C88.5186 78.3959 89.8156 77.1768 90.4555 76.433C90.7876 76.0471 91.1222 75.5512 91.455 75.0318C91.597 74.8101 91.7364 74.5878 91.8771 74.3636L91.8775 74.3628C92.0783 74.0426 92.2816 73.7185 92.4985 73.3865C93.2361 72.2573 93.9849 71.275 94.7741 70.7851C95.5934 70.2766 96.9789 69.1727 97.6823 67.9991C98.0315 67.4163 98.2869 66.6907 98.0428 65.9773C97.7924 65.2452 97.0982 64.7541 96.0885 64.4587C95.2237 64.2057 94.0424 64.068 92.4771 64.068C90.7361 64.068 88.3754 64.4984 86.328 65.4203C84.2992 66.3336 82.4309 67.8 81.9485 69.9568C81.5492 71.7417 80.7713 73.0648 80.053 74.1922C79.9834 74.3015 79.9134 74.4102 79.844 74.5182C79.5616 74.9572 79.287 75.3842 79.0715 75.7878C78.3771 77.0883 78.1843 78.9083 78.782 80.5858C79.4557 81.1631 81.3677 81.3895 82.5195 81.3895ZM86.389 78.4799C87.7714 77.4915 88.9967 76.3341 89.5684 75.6697C89.8422 75.3516 90.1389 74.9167 90.4696 74.4005C90.5976 74.2006 90.7333 73.9844 90.8735 73.761L90.8744 73.7596C91.0826 73.4277 91.3008 73.08 91.5187 72.7465C92.2486 71.6292 93.1208 70.4339 94.1569 69.7908C94.905 69.3265 96.1124 68.3419 96.6785 67.3975C96.9639 66.9212 97.0123 66.5805 96.9355 66.356C96.8755 66.1805 96.6842 65.9234 96.1003 65.6966C94.4157 67.4975 92.9353 68.0495 91.4224 68.6136C91.0971 68.735 90.77 68.8569 90.4393 68.9919C89.6189 69.3267 89.2321 69.8446 88.8366 70.6177C88.7442 70.7984 88.6499 70.9974 88.549 71.2106C88.2197 71.9062 87.8172 72.7564 87.1595 73.6403C86.283 74.8185 84.877 76.0087 83.4373 76.9424C81.7028 78.0674 78.7916 78.7218 79.9671 79.729C80.3892 80.0906 81.59 80.2192 82.5195 80.2192C83.0098 80.2192 83.6188 80.0482 84.306 79.729C84.9854 79.4134 85.6998 78.9726 86.389 78.4799Z" fill="black"/>
<path d="M93.9662 74.5241C93.9662 73.5164 94.7832 72.6994 95.791 72.6994C96.1115 72.6994 96.4128 72.782 96.6746 72.9272C98.9158 70.0574 100.025 68.2985 101.776 64.9292H103.442C101.341 68.6568 100.058 70.6267 97.4599 73.7851C97.5601 74.011 97.6157 74.2611 97.6157 74.5241C97.6157 75.5319 96.7988 76.3489 95.791 76.3489C94.7832 76.3489 93.9662 75.5319 93.9662 74.5241Z" fill="black"/>
<path d="M93.9662 50.7237C93.9662 51.7315 94.7832 52.5485 95.791 52.5485C96.1115 52.5485 96.4128 52.4658 96.6746 52.3207C98.9158 55.1904 100.025 56.9494 101.776 60.3187H103.442C101.341 56.5911 100.058 54.6211 97.4599 51.4628C97.5601 51.2368 97.6157 50.9868 97.6157 50.7237C97.6157 49.716 96.7988 48.899 95.791 48.899C94.7832 48.899 93.9662 49.716 93.9662 50.7237Z" fill="black"/>
<path d="M73.724 50.7237C73.724 51.7315 74.541 52.5485 75.5488 52.5485C75.8693 52.5485 76.1706 52.4658 76.4324 52.3207C78.6735 55.1904 79.783 56.9494 81.5342 60.3187H83.1997C81.0986 56.5911 79.8162 54.6211 77.2177 51.4628C77.3179 51.2368 77.3735 50.9868 77.3735 50.7237C77.3735 49.716 76.5566 48.899 75.5488 48.899C74.541 48.899 73.724 49.716 73.724 50.7237Z" fill="black"/>
<path d="M73.724 74.5241C73.724 73.5164 74.541 72.6994 75.5488 72.6994C75.8693 72.6994 76.1706 72.782 76.4324 72.9272C78.6735 70.0574 79.783 68.2985 81.5342 64.9292H83.1997C81.0986 68.6568 79.8162 70.6267 77.2177 73.7851C77.3179 74.011 77.3735 74.2611 77.3735 74.5241C77.3735 75.5319 76.5566 76.3489 75.5488 76.3489C74.541 76.3489 73.724 75.5319 73.724 74.5241Z" fill="black"/>
<path fill-rule="evenodd" clip-rule="evenodd" d="M170.667 48.8695C167.015 45.8751 160.732 43.6111 154.159 43.6111C147.586 43.6111 141.305 45.8751 137.653 48.8695C137.707 49.1514 137.762 49.4376 137.817 49.7276L137.821 49.7512C138.509 53.3657 139.31 57.5812 140.617 61.7206H44.2044C42.1033 57.993 39.3317 54.6211 36.7332 51.4628C36.8334 51.2368 36.8891 50.9868 36.8891 50.7237C36.8891 49.716 36.0721 48.899 35.0643 48.899C34.0565 48.899 33.2396 49.716 33.2396 50.7237C33.2396 51.7315 34.0565 52.5485 35.0643 52.5485C35.3849 52.5485 35.6861 52.4658 35.9479 52.3207C38.1891 55.1904 40.0429 57.8106 41.7941 61.1799C38.8744 59.7999 37.3128 56.256 33.2396 56.256C23.5263 56.256 22.0684 62.8645 22.0684 62.8645C22.0684 62.8645 24.0158 68.9919 32.6868 68.9919C35.7302 68.9919 38.6547 65.8055 41.464 64.2258C39.7128 67.5951 38.1891 70.0574 35.9479 72.9272C35.6861 72.782 35.3849 72.6994 35.0643 72.6994C34.0565 72.6994 33.2396 73.5164 33.2396 74.5241C33.2396 75.5319 34.0565 76.3489 35.0643 76.3489C36.0721 76.3489 36.8891 75.5319 36.8891 74.5241C36.8891 74.2611 36.8334 74.011 36.7332 73.7851C39.3317 70.6267 42.1033 67.0866 44.2044 63.359H141.163C143.498 69.9897 147.283 76.1882 154.159 79.1052C161.035 76.1882 164.822 69.9896 167.157 63.359H264.116C266.217 67.0866 268.988 70.6267 271.587 73.7851C271.487 74.011 271.431 74.2611 271.431 74.5241C271.431 75.5319 272.248 76.3489 273.256 76.3489C274.264 76.3489 275.081 75.5319 275.081 74.5241C275.081 73.5163 274.264 72.6994 273.256 72.6994C272.935 72.6994 272.634 72.782 272.372 72.9272C270.131 70.0574 268.607 67.5951 266.856 64.2258C269.666 65.8055 272.59 68.9919 275.633 68.9919C284.304 68.9919 286.252 62.8645 286.252 62.8645C286.252 62.8645 284.794 56.256 275.081 56.256C271.007 56.256 269.446 59.7999 266.526 61.1799C268.277 57.8105 270.131 55.1904 272.372 52.3207C272.634 52.4658 272.935 52.5485 273.256 52.5485C274.264 52.5485 275.081 51.7315 275.081 50.7237C275.081 49.7159 274.264 48.899 273.256 48.899C272.248 48.899 271.431 49.7159 271.431 50.7237C271.431 50.9868 271.487 51.2368 271.587 51.4627C268.988 54.6211 266.217 57.993 264.116 61.7206H167.704C169.01 57.5812 169.812 53.3656 170.499 49.7512C170.556 49.4531 170.612 49.159 170.667 48.8695ZM157.327 63.3549V68.9892H154.161L150.993 68.9892V63.3549H145.359V57.0241H150.993V51.3898H154.159L157.327 51.3898V57.0241H162.961V63.3549H157.327ZM284.815 62.1601C284.556 61.6313 284.116 60.9179 283.396 60.2017C281.97 58.7824 279.388 57.2945 274.77 57.2945C272.999 57.2945 271.794 58.1402 270.628 59.2357C270.36 59.4881 270.098 59.7492 269.83 60.0162L269.757 60.0889C269.466 60.3786 269.168 60.674 268.861 60.9556C268.247 61.5178 267.57 62.0485 266.773 62.4067C276.408 61.944 280.916 61.9296 285.131 62.955C285.101 62.8483 285.009 62.5565 284.815 62.1601ZM23.505 62.1601C23.7639 61.6313 24.2041 60.9179 24.9238 60.2017C26.3501 58.7825 28.9325 57.2945 33.5506 57.2945C35.3214 57.2945 36.5261 58.1402 37.6919 59.2357C37.9605 59.4881 38.2224 59.7492 38.4902 60.0162L38.5631 60.0889C38.8538 60.3786 39.152 60.674 39.4594 60.9556C40.0735 61.5178 40.7499 62.0485 41.5471 62.4068C31.9124 61.944 27.4046 61.9297 23.1889 62.955C23.2192 62.8483 23.3108 62.5565 23.505 62.1601Z" fill="black"/>
</svg>
