<svg width="308" height="125" viewBox="0 0 308 125" fill="none" xmlns="http://www.w3.org/2000/svg">
<path d="M0.823242 22.5118C0.823242 10.355 10.6783 0.5 22.8351 0.5H285.485C297.641 0.5 307.496 10.355 307.496 22.5118V102.488C307.496 114.645 297.641 124.5 285.485 124.5H22.8351C10.6783 124.5 0.823242 114.645 0.823242 102.488V22.5118Z" fill="#C5A869"/>
<path fill-rule="evenodd" clip-rule="evenodd" d="M285.485 11.5059H22.8351C16.7567 11.5059 11.8292 16.4334 11.8292 22.5118V102.488C11.8292 108.567 16.7567 113.494 22.8351 113.494H285.485C291.563 113.494 296.49 108.567 296.49 102.488V22.5118C296.49 16.4334 291.563 11.5059 285.485 11.5059ZM22.8351 0.5C10.6783 0.5 0.823242 10.355 0.823242 22.5118V102.488C0.823242 114.645 10.6783 124.5 22.8351 124.5H285.485C297.641 124.5 307.496 114.645 307.496 102.488V22.5118C307.496 10.355 297.641 0.5 285.485 0.5H22.8351Z" fill="#A68C55"/>
<path d="M137.817 84.3687L145.93 67.1414L130.855 56.1509H148.869L154.16 40.6311L159.451 56.1509H177.465L162.39 67.1414L170.503 84.3687L154.16 73.4758L137.817 84.3687Z" fill="black"/>
<path fill-rule="evenodd" clip-rule="evenodd" d="M127.317 83.2995L136.278 76.9705L134.189 75.2963L131.917 73.4758L126.277 77.3103H75.6794L82.8353 83.2995H127.317Z" fill="black"/>
<path fill-rule="evenodd" clip-rule="evenodd" d="M127.317 69.7972H66.7028L73.2731 75.2963H125.383L130.074 72.0021L127.317 69.7972Z" fill="black"/>
<path fill-rule="evenodd" clip-rule="evenodd" d="M124.446 67.1414L116.147 60.5019H55.5967L63.5296 67.1414H124.446Z" fill="black"/>
<path fill-rule="evenodd" clip-rule="evenodd" d="M137.9 75.2963L141.805 69.7972L119.027 51.8458H45.2544L52.4567 57.8739H116.623L137.9 75.2963Z" fill="black"/>
<path fill-rule="evenodd" clip-rule="evenodd" d="M181.003 83.2995L172.042 76.9705L176.403 73.4758L182.043 77.3103H232.641L225.485 83.2995H181.003Z" fill="black"/>
<path fill-rule="evenodd" clip-rule="evenodd" d="M181.003 69.7972H241.617L235.047 75.2963H182.937L178.246 72.0021L181.003 69.7972Z" fill="black"/>
<path fill-rule="evenodd" clip-rule="evenodd" d="M183.874 67.1414L192.173 60.5019H252.723L244.79 67.1414H183.874Z" fill="black"/>
<path fill-rule="evenodd" clip-rule="evenodd" d="M170.42 75.2963L166.515 69.7972L189.292 51.8458H263.066L255.863 57.8739H191.697L170.42 75.2963Z" fill="black"/>
</svg>
