<svg width="308" height="125" viewBox="0 0 308 125" fill="none" xmlns="http://www.w3.org/2000/svg">
<path d="M0.823242 22.5118C0.823242 10.355 10.6783 0.5 22.8351 0.5H285.485C297.641 0.5 307.496 10.355 307.496 22.5118V102.488C307.496 114.645 297.641 124.5 285.485 124.5H22.8351C10.6783 124.5 0.823242 114.645 0.823242 102.488V22.5118Z" fill="#C5A869"/>
<path fill-rule="evenodd" clip-rule="evenodd" d="M285.485 11.5059H22.8351C16.7567 11.5059 11.8292 16.4334 11.8292 22.5118V102.488C11.8292 108.567 16.7567 113.494 22.8351 113.494H285.485C291.563 113.494 296.49 108.567 296.49 102.488V22.5118C296.49 16.4334 291.563 11.5059 285.485 11.5059ZM22.8351 0.5C10.6783 0.5 0.823242 10.355 0.823242 22.5118V102.488C0.823242 114.645 10.6783 124.5 22.8351 124.5H285.485C297.641 124.5 307.496 114.645 307.496 102.488V22.5118C307.496 10.355 297.641 0.5 285.485 0.5H22.8351Z" fill="#A68C55"/>
<path d="M159.92 62.3512C159.92 65.5321 157.341 68.1108 154.16 68.1108C150.979 68.1108 148.4 65.5321 148.4 62.3512C148.4 59.1703 150.979 56.5916 154.16 56.5916C157.341 56.5916 159.92 59.1703 159.92 62.3512Z" fill="black"/>
<path d="M155.898 55.7736C155.343 55.6273 154.761 55.5494 154.16 55.5494C153.559 55.5494 152.976 55.6273 152.421 55.7736C151.449 53.6131 148.736 47.1342 148.736 42.0658C148.736 35.8902 151.781 26.5999 154.16 26.5999C156.539 26.5999 159.584 35.8902 159.584 42.0658C159.584 47.1342 156.871 53.6131 155.898 55.7736Z" fill="black"/>
<path d="M151.145 56.2524L135.283 43.7512H61.5098L68.7121 49.7792H132.878L147.393 61.6573C147.634 59.2812 149.098 57.2664 151.145 56.2524Z" fill="black"/>
<path d="M148.095 65.4339L142.532 69.2156H91.9348L99.0907 75.2048H143.573L152.448 68.9358C150.547 68.4428 148.968 67.1481 148.095 65.4339Z" fill="black"/>
<path d="M152.542 68.9595C151.7 70.7962 148.736 77.6358 148.736 82.9341C148.736 89.1097 151.781 98.4 154.16 98.4C156.539 98.4 159.584 89.1097 159.584 82.9341C159.584 77.6359 156.619 70.7964 155.777 68.9596C155.259 69.086 154.717 69.153 154.16 69.153C153.603 69.153 153.061 69.086 152.542 68.9595Z" fill="black"/>
<path d="M155.872 68.9358L164.747 75.2048H209.229L216.385 69.2156H165.788L160.225 65.4339C159.352 67.1481 157.773 68.4428 155.872 68.9358Z" fill="black"/>
<path d="M160.927 61.6573L175.442 49.7792H239.608L246.81 43.7512H173.037L157.175 56.2524C159.222 57.2664 160.686 59.2812 160.927 61.6573Z" fill="black"/>
<path d="M132.402 52.4072L140.702 59.0468H79.785L71.852 52.4072H132.402Z" fill="black"/>
<path d="M143.573 61.7026H82.9582L89.5285 67.2017H141.638L146.33 63.9075L143.573 61.7026Z" fill="black"/>
<path d="M225.362 61.7026H164.747L161.99 63.9075L166.682 67.2017H218.791L225.362 61.7026Z" fill="black"/>
<path d="M167.618 59.0468L175.918 52.4072H236.468L228.535 59.0468H167.618Z" fill="black"/>
</svg>
