<svg width="124" height="249" viewBox="0 0 124 249" fill="none" xmlns="http://www.w3.org/2000/svg">
<rect x="5.49805" y="5.5" width="113" height="238" rx="16.5" fill="#C5A869" stroke="#A68C55" stroke-width="11"/>
<path d="M93.998 99.5L95.498 90L85.498 91.5L87.998 94.5L73.998 109.5L77.498 110.5L67.998 120H73.998L85.498 108.5L81.498 108L90.998 97L93.998 99.5Z" fill="black"/>
<path d="M76.998 91L74.998 83L66.998 89L69.998 90.5L61.998 110.5H65.498L61.998 120H65.998L73.498 104.5H69.498L73.998 91H76.998Z" fill="black"/>
<path d="M74.998 121.5H61.498H47.998C46.498 121.5 46.498 124 47.998 124H61.498H74.998C76.498 124 76.498 121.5 74.998 121.5Z" fill="black"/>
<path d="M73.998 125H61.498H48.998C48.498 125.5 48.498 127 49.998 127H61.498H72.998C74.498 127 74.498 125.5 73.998 125Z" fill="black"/>
<path d="M71.498 128H61.498H51.498C50.998 129 51.998 130 53.998 130H61.498H68.998C70.998 130 71.998 129 71.498 128Z" fill="black"/>
<path d="M73.998 138L66.498 131.5H72.498L82.498 138.5L78.998 139L93.498 148L87.498 156L70.498 138H73.998Z" fill="black"/>
<path d="M62.498 137.5V131.5H64.498L73.998 149.5H70.998L78.498 163.5L70.498 167.5L63.498 144.5L66.998 145L62.498 137.5Z" fill="black"/>
<path d="M28.998 99.5L27.498 90L37.498 91.5L34.998 94.5L48.998 109.5L45.498 110.5L54.998 120H48.998L37.498 108.5L41.498 108L31.998 97L28.998 99.5Z" fill="black"/>
<path d="M45.998 91L47.998 83L55.998 89L52.998 90.5L60.998 110.5H57.498L60.998 120H56.998L49.498 104.5H53.498L48.998 91H45.998Z" fill="black"/>
<path d="M48.998 138L56.498 131.5H50.498L40.498 138.5L43.998 139L29.498 148L35.498 156L52.498 138H48.998Z" fill="black"/>
<path d="M60.498 137.5V131.5H58.498L48.998 149.5H51.998L44.498 163.5L52.498 167.5L59.498 144.5L55.998 145L60.498 137.5Z" fill="black"/>
</svg>
