<svg width="167" height="247" viewBox="0 0 167 247" fill="none" xmlns="http://www.w3.org/2000/svg">
<path d="M143.896 105.247L82.7446 208.735L23.382 105.212L82.7204 30.3155L143.896 105.247Z" fill="#BBC0BD"/>
<path fill-rule="evenodd" clip-rule="evenodd" d="M82.498 0L0.498047 103.5L82.498 246.5L166.998 103.5L82.498 0ZM153.623 104.511L82.6408 224.636L13.7466 104.491L82.6268 17.5511L153.623 104.511Z" fill="#BBC0BD"/>
<path fill-rule="evenodd" clip-rule="evenodd" d="M82.6408 224.636L153.623 104.511L82.6268 17.5511L13.7466 104.491L82.6408 224.636ZM82.7446 208.735L143.896 105.247L82.7204 30.3155L23.382 105.212L82.7446 208.735Z" fill="#F6C808"/>
<path fill-rule="evenodd" clip-rule="evenodd" d="M82.6407 224.636L153.623 104.512L82.6267 17.5513L13.7466 104.491L82.6407 224.636ZM82.7446 208.735L143.896 105.247L82.7203 30.3157L23.3819 105.212L82.7446 208.735Z" fill="#F6C808"/>
<path d="M81.7733 225.134L82.6278 226.624L83.5017 225.145L154.484 105.02L154.839 104.42L154.398 103.879L83.4013 16.9188L82.615 15.9557L81.8429 16.9303L12.9628 103.87L12.5422 104.401L12.8791 104.989L81.7733 225.134ZM82.732 31.9113L142.68 105.339L82.7575 206.747L24.5863 105.302L82.732 31.9113Z" stroke="#AC8D09" stroke-width="2"/>
<path d="M117.246 90.5365L118.601 91.6689L118.876 89.9247L120.486 79.6939L120.698 78.3467L119.349 78.5496L108.614 80.165L106.86 80.4288L107.994 81.7928L110.115 84.3472L95.685 99.8573L94.5747 101.051L96.1416 101.5L98.2698 102.11L89.2909 111.117L96.7811 95.5883L97.473 94.1538H95.8804H92.9723L97.1386 81.6154H99.6377H100.918L100.608 80.3736L98.461 71.7582L98.0959 70.2932L96.8895 71.2009L88.3012 77.6624L87.0123 78.6322L88.4541 79.3554L90.8542 80.5592L82.998 100.262L75.1419 80.5592L77.542 79.3554L78.9838 78.6322L77.6948 77.6624L69.1066 71.2009L67.9002 70.2932L67.5351 71.7582L65.388 80.3736L65.0785 81.6154H66.3583H68.8575L73.0238 94.1538H70.1157H68.5231L69.215 95.5883L76.7052 111.117L67.7263 102.11L69.8545 101.5L71.4213 101.051L70.3111 99.8573L55.8806 84.3472L58.0026 81.7928L59.1356 80.4288L57.3821 80.165L46.6468 78.5496L45.2981 78.3467L45.5102 79.6939L47.1205 89.9247L47.395 91.6689L48.7497 90.5365L51.2141 88.4763L59.5534 98.1628L57.1089 98.4693L55.0852 98.7231L56.5251 100.168L68.7804 112.462H68.5054C67.7913 112.462 67.2042 112.774 66.8178 113.259C66.4517 113.718 66.2977 114.285 66.2977 114.808C66.2977 115.33 66.4517 115.898 66.8178 116.357C67.1947 116.829 67.7625 117.138 68.453 117.153C68.236 117.66 68.1998 118.26 68.3488 118.784C68.4683 119.203 68.7179 119.622 69.1387 119.93C69.5596 120.239 70.0798 120.385 70.6525 120.385H71.2204C71.1133 120.737 71.0938 121.109 71.1797 121.479C71.2948 121.974 71.5804 122.386 71.9463 122.701C72.1963 122.916 72.4902 123.092 72.8186 123.231H71.1892H70.8732L70.6145 123.412L59.8793 130.951L57.814 132.401L60.3121 132.759L61.3544 132.909L48.1165 141.151L47.1922 141.727L47.8442 142.599L54.2854 151.214L54.9983 152.168L55.8144 151.301L74.0644 131.916L75.2877 130.617L68.6939 143.15L67.9229 144.615H69.5789H71.1318L63.8659 158.221L63.3827 159.126L64.2997 159.586L72.8879 163.894L73.9487 164.426L74.2932 163.29L81.8079 138.521L82.2639 137.018L80.7091 137.241L79.029 137.482L82.7827 131.206L82.9245 130.969V130.692V124.231V123.615H82.998H83.0716V124.231V130.692V130.969L83.2134 131.206L86.9671 137.482L85.287 137.241L83.7322 137.018L84.1882 138.521L91.7029 163.29L92.0474 164.426L93.1082 163.894L101.696 159.586L102.613 159.126L102.13 158.221L94.8643 144.615H96.4172H98.0732L97.3022 143.15L90.7084 130.617L91.9317 131.916L110.182 151.301L110.998 152.168L111.711 151.214L118.152 142.599L118.804 141.727L117.88 141.151L104.642 132.909L105.684 132.759L108.182 132.401L106.117 130.951L95.3815 123.412L95.1229 123.231H94.8069H93.1775C93.5059 123.092 93.7998 122.916 94.0498 122.701C94.4157 122.386 94.7013 121.974 94.8164 121.479C94.9023 121.109 94.8828 120.737 94.7757 120.385H95.3436C95.9163 120.385 96.4365 120.239 96.8574 119.93C97.2782 119.622 97.5278 119.203 97.6473 118.784C97.7963 118.26 97.7601 117.66 97.5431 117.153C98.2336 117.138 98.8013 116.829 99.1783 116.357C99.5444 115.898 99.6984 115.33 99.6984 114.808C99.6984 114.285 99.5444 113.718 99.1783 113.259C98.7918 112.774 98.2048 112.462 97.4907 112.462H97.2157L109.471 100.168L110.911 98.7231L108.887 98.4693L106.443 98.1628L114.782 88.4763L117.246 90.5365ZM85.8596 102.615L82.998 110.407L80.1365 102.615H82.0595H82.4613H83.5348H83.9366H85.8596ZM73.3363 130.231H72.2533L78.2201 125.043L75.4908 130.231H73.3363ZM90.5053 130.231L87.776 125.043L93.7428 130.231H92.6598H90.5053Z" fill="#F6C808" stroke="#AC8D09" stroke-width="2"/>
</svg>
