<svg width="167" height="247" viewBox="0 0 167 247" fill="none" xmlns="http://www.w3.org/2000/svg">
<path d="M143.396 105.247L82.2446 208.735L22.882 105.212L82.2204 30.3155L143.396 105.247Z" fill="#9A1B26"/>
<path fill-rule="evenodd" clip-rule="evenodd" d="M81.998 0L-0.00195312 103.5L81.998 246.5L166.498 103.5L81.998 0ZM153.123 104.511L82.1408 224.636L13.2466 104.491L82.1268 17.5511L153.123 104.511Z" fill="#9A1B26"/>
<path fill-rule="evenodd" clip-rule="evenodd" d="M82.1408 224.636L153.123 104.511L82.1268 17.5511L13.2466 104.491L82.1408 224.636ZM82.2446 208.735L143.396 105.247L82.2204 30.3155L22.882 105.212L82.2446 208.735Z" fill="#F6C808"/>
<path d="M51.998 89.9923C51.998 102.863 73.1879 105.503 76.7196 113.094C79.4664 107.813 72.3246 102.863 68.8715 100.223C64.555 96.9228 59.0613 91.9724 59.0613 87.6821C59.0613 84.2499 61.1542 80.5317 62.2006 79.1016C57.4917 79.7616 51.998 83.7219 51.998 89.9923Z" fill="#F6C808"/>
<path d="M62.9854 86.362C62.9854 98.5729 78.2892 100.553 80.2512 113.094C82.998 100.223 71.6183 95.6027 71.6183 85.042C71.6183 79.1016 71.6183 76.7914 75.1499 72.8311C71.2259 72.8311 62.9854 75.8013 62.9854 86.362Z" fill="#F6C808"/>
<path d="M82.998 113.094C84.1753 100.223 90.0613 93.9526 90.0613 80.4216C90.0613 69.2009 86.9221 63.2605 82.998 56C79.074 63.2605 75.9348 69.2009 75.9348 80.4216C75.9348 93.9526 81.8208 100.223 82.998 113.094Z" fill="#F6C808"/>
<path d="M85.7449 113.094C87.7069 100.553 103.011 98.5729 103.011 86.362C103.011 75.8013 94.7702 72.8311 90.8461 72.8311C94.3778 76.7914 94.3778 79.1016 94.3778 85.042C94.3778 95.6027 82.998 100.223 85.7449 113.094Z" fill="#F6C808"/>
<path d="M89.2765 113.094C92.8082 105.503 113.998 102.863 113.998 89.9923C113.998 83.7219 108.504 79.7616 103.796 79.1016C104.842 80.5317 106.935 84.2499 106.935 87.6821C106.935 91.9724 101.441 96.9228 97.1246 100.223C93.6715 102.863 86.5297 107.813 89.2765 113.094Z" fill="#F6C808"/>
<path d="M100.656 147.457C100.656 157.139 92.7501 164.988 82.9977 164.988C73.2454 164.988 65.3395 157.139 65.3395 147.457C65.3395 137.775 73.2454 129.926 82.9977 129.926C92.7501 129.926 100.656 137.775 100.656 147.457Z" fill="#F6C808"/>
<path fill-rule="evenodd" clip-rule="evenodd" d="M82.9977 172C96.6511 172 107.719 161.012 107.719 147.457C107.719 133.902 96.6511 122.913 82.9977 122.913C69.3444 122.913 58.2762 133.902 58.2762 147.457C58.2762 161.012 69.3444 172 82.9977 172ZM82.9977 167.325C94.0504 167.325 103.01 158.43 103.01 147.457C103.01 136.484 94.0504 127.588 82.9977 127.588C71.9451 127.588 62.9851 136.484 62.9851 147.457C62.9851 158.43 71.9451 167.325 82.9977 167.325ZM100.656 147.457C100.656 157.139 92.7501 164.988 82.9977 164.988C73.2454 164.988 65.3395 157.139 65.3395 147.457C65.3395 137.775 73.2454 129.926 82.9977 129.926C92.7501 129.926 100.656 137.775 100.656 147.457Z" fill="#F6C808"/>
<path d="M63.7699 113.563H102.226V119.797H63.7699V113.563Z" fill="#F6C808"/>
</svg>
