<svg width="125" height="249" viewBox="0 0 125 249" fill="none" xmlns="http://www.w3.org/2000/svg">
<rect x="5.99805" y="5.5" width="113" height="238" rx="16.5" fill="#C5A869" stroke="#A68C55" stroke-width="11"/>
<path d="M84.498 175.5C84.498 187.926 74.4245 198 61.998 198C49.5716 198 39.498 187.926 39.498 175.5C39.498 163.074 49.5716 153 61.998 153C74.4245 153 84.498 163.074 84.498 175.5Z" fill="black"/>
<path fill-rule="evenodd" clip-rule="evenodd" d="M61.998 207C79.395 207 93.498 192.897 93.498 175.5C93.498 158.103 79.395 144 61.998 144C44.6011 144 30.498 158.103 30.498 175.5C30.498 192.897 44.6011 207 61.998 207ZM61.998 201C76.0813 201 87.498 189.583 87.498 175.5C87.498 161.417 76.0813 150 61.998 150C47.9148 150 36.498 161.417 36.498 175.5C36.498 189.583 47.9148 201 61.998 201ZM84.498 175.5C84.498 187.926 74.4245 198 61.998 198C49.5716 198 39.498 187.926 39.498 175.5C39.498 163.074 49.5716 153 61.998 153C74.4245 153 84.498 163.074 84.498 175.5Z" fill="black"/>
<path d="M37.498 132H86.498V140H37.498V132Z" fill="black"/>
<path d="M22.498 94.5C22.498 114 49.498 118 53.998 129.5C57.498 121.5 48.398 114 43.998 110C38.498 105 31.498 97.5 31.498 91C31.498 85.8 34.1647 80.1667 35.498 78C29.498 79 22.498 85 22.498 94.5Z" fill="black"/>
<path d="M36.498 89C36.498 107.5 55.998 110.5 58.498 129.5C61.998 110 47.498 103 47.498 87C47.498 78 47.498 74.5 51.998 68.5C46.998 68.5 36.498 73 36.498 89Z" fill="black"/>
<path d="M61.998 129.5C63.498 110 70.998 100.5 70.998 80C70.998 63 66.998 54 61.998 43C56.998 54 52.998 63 52.998 80C52.998 100.5 60.498 110 61.998 129.5Z" fill="black"/>
<path d="M65.498 129.5C67.998 110.5 87.498 107.5 87.498 89C87.498 73 76.998 68.5 71.998 68.5C76.498 74.5 76.498 78 76.498 87C76.498 103 61.998 110 65.498 129.5Z" fill="black"/>
<path d="M69.998 129.5C74.498 118 101.498 114 101.498 94.5C101.498 85 94.498 79 88.498 78C89.8314 80.1667 92.498 85.8 92.498 91C92.498 97.5 85.498 105 79.998 110C75.598 114 66.498 121.5 69.998 129.5Z" fill="black"/>
</svg>
