<svg width="167" height="247" viewBox="0 0 167 247" fill="none" xmlns="http://www.w3.org/2000/svg">
<path d="M143.896 105.247L82.7446 208.735L23.382 105.212L82.7204 30.3155L143.896 105.247Z" fill="#191516"/>
<path fill-rule="evenodd" clip-rule="evenodd" d="M82.498 0L0.498047 103.5L82.498 246.5L166.998 103.5L82.498 0ZM153.623 104.511L82.6408 224.636L13.7466 104.491L82.6268 17.5511L153.623 104.511Z" fill="#191516"/>
<path fill-rule="evenodd" clip-rule="evenodd" d="M82.6408 224.636L153.623 104.511L82.6268 17.5511L13.7466 104.491L82.6408 224.636ZM82.7446 208.735L143.896 105.247L82.7204 30.3155L23.382 105.212L82.7446 208.735Z" fill="#F6C808"/>
<path fill-rule="evenodd" clip-rule="evenodd" d="M79.6847 68H88.0047V90.7114L83.8448 94.8932L79.6847 90.7113V68ZM88.9853 91.697H109.498V100.061H88.9852L84.8253 95.8788L88.9853 91.697ZM88.0047 101.046V160H79.6847V101.046L83.8448 96.8645L88.0047 101.046ZM78.7043 100.061H57.498V91.697H78.7042L82.8642 95.8788L78.7043 100.061Z" fill="#F6C808"/>
</svg>
