<svg width="167" height="247" viewBox="0 0 167 247" fill="none" xmlns="http://www.w3.org/2000/svg">
<path d="M143.396 105.247L82.2446 208.735L22.882 105.212L82.2204 30.3155L143.396 105.247Z" fill="#191516"/>
<path fill-rule="evenodd" clip-rule="evenodd" d="M81.998 0L-0.00195312 103.5L81.998 246.5L166.498 103.5L81.998 0ZM153.123 104.511L82.1408 224.636L13.2466 104.491L82.1268 17.5511L153.123 104.511Z" fill="#191516"/>
<path fill-rule="evenodd" clip-rule="evenodd" d="M82.1408 224.636L153.123 104.511L82.1268 17.5511L13.2466 104.491L82.1408 224.636ZM82.2446 208.735L143.396 105.247L82.2204 30.3155L22.882 105.212L82.2446 208.735Z" fill="#F6C808"/>
<path fill-rule="evenodd" clip-rule="evenodd" d="M68.1477 68.555C60.3913 68.555 55.5968 75.5094 55.5968 80.9864V139.445H80.6986V80.9864C80.6986 78.7679 79.5666 75.5986 77.3077 72.9729C75.0935 70.3991 71.9803 68.555 68.1477 68.555ZM82.9963 73.1255C82.3782 72.0406 81.645 70.9915 80.8081 70.0186C77.9206 66.6622 73.6086 64 68.1477 64C57.3174 64 50.998 73.5575 50.998 80.9864V141.722C50.998 141.722 50.998 141.722 53.2974 141.722L50.998 141.722V144H114.998V141.722H112.699C114.998 141.722 114.998 141.722 114.998 141.722V80.9864C114.998 77.8357 113.262 73.6589 110.438 70.3184C107.562 66.9168 103.233 64 97.7525 64C92.3317 64 88.0437 66.6702 85.1725 70.0238C84.3409 70.995 83.6116 72.0424 82.9963 73.1255ZM85.2975 80.9864V139.445H110.399V80.9864C110.399 79.1999 109.261 76.0222 106.912 73.2426C104.614 70.5241 101.47 68.555 97.7525 68.555C93.9758 68.555 90.8865 70.3924 88.6799 72.9698C86.43 75.5978 85.2975 78.7686 85.2975 80.9864Z" fill="#F6C808"/>
<path d="M96.2199 79.0885H92.3875C92.7708 80.2272 94.6869 81.1382 94.6869 81.7456C94.6869 82.3529 91.2374 84.4027 92.0043 86.3006H94.6869C94.8147 85.5414 95.3768 84.0231 96.6031 84.0231C97.8295 84.0231 98.3915 85.5414 98.5193 86.3006C99.669 86.4271 102.351 86.3006 102.351 86.3006C102.735 84.7822 99.669 84.4027 99.669 83.2639C99.669 82.169 102.735 80.6068 102.735 79.0885H99.669C99.5412 79.7211 99.1325 80.9864 98.5193 80.9864C97.9061 80.9864 96.7309 79.7211 96.2199 79.0885Z" fill="#F6C808"/>
<path d="M97.3691 93.1331C95.4529 93.8923 92.3875 91.6148 93.5368 90.476C93.92 90.0964 94.6865 91.2352 95.8362 91.2352C96.7559 91.2352 97.3691 90.8556 98.1356 90.476C98.9021 90.0964 100.435 90.0964 100.435 90.0964V98.0677C100.435 99.2065 99.8985 99.586 99.2853 99.586C98.6721 99.586 98.2633 99.0799 98.1356 98.8269H93.92C93.5368 98.8269 93.1535 98.4473 93.1535 98.0677C93.1535 97.1567 95.9639 96.9289 97.3691 96.9289C98.0078 95.4106 98.9021 92.5258 97.3691 93.1331Z" fill="#F6C808"/>
<path d="M100.435 106.039C99.6685 102.623 98.136 103.382 95.8362 103.382C93.5363 103.382 93.1535 104.521 93.92 105.28C94.6865 106.039 96.9859 104.521 96.9859 106.039C96.9859 107.557 94.6869 107.937 93.5368 109.076C92.3866 110.214 93.5368 111.353 94.6869 111.353C95.8371 111.353 95.8362 109.835 96.9859 109.835C98.1356 109.835 98.1356 110.214 98.9021 111.353C99.6685 111.353 100.818 111.353 101.201 110.974C101.585 110.594 101.201 109.455 100.435 106.039Z" fill="#F6C808"/>
<path d="M97.3691 118.945V122.361C97.3691 122.867 97.5991 123.879 98.5193 123.879C99.6694 123.879 100.435 122.361 100.435 119.324C100.435 116.288 102.351 117.427 102.351 116.667C102.351 115.908 100.052 115.149 98.5193 115.149C96.9868 115.149 94.6869 115.529 93.92 115.529C93.1531 115.529 92.3871 116.667 92.3871 117.047C92.3871 117.427 92.7703 118.186 93.5368 118.186C94.3032 118.186 94.6869 117.427 95.4529 117.427C96.219 117.427 97.3691 117.427 97.3691 118.945Z" fill="#F6C808"/>
<path d="M101.585 129.194C101.585 127.675 101.201 126.916 98.5193 126.916C97.7533 126.891 95.8362 127.296 94.6869 127.296C93.5377 127.296 93.1535 126.157 92.3871 126.916C91.6206 127.675 92.3871 129.573 93.92 129.573C95.4529 129.573 98.5193 128.814 98.5193 129.953V133.749C98.5193 134.508 98.1356 135.647 98.9021 135.647C99.6685 135.647 101.585 134.508 101.585 134.128V129.194Z" fill="#F6C808"/>
<path d="M95.4529 133.369C95.4529 131.851 95.0697 131.851 93.92 131.851C92.3871 131.851 92.3871 131.851 92.3871 133.369C92.3871 134.887 92.3871 134.887 93.92 134.887C95.4529 134.887 95.4529 134.887 95.4529 133.369Z" fill="#F6C808"/>
<path d="M69.3931 86.3006V80.6068C69.3931 78.3293 65.9443 79.0885 65.1778 79.8476C64.4113 80.6068 64.7946 81.7456 65.561 81.7456C66.1742 81.7456 66.3273 82.2517 66.3272 82.5047V86.6802C66.1995 87.1863 66.1739 88.1985 67.0937 88.1985C68.2434 88.1985 69.3931 87.4393 69.3931 86.3006Z" fill="#F6C808"/>
<path d="M69.7765 91.2352C68.2436 91.2352 64.7945 91.9943 64.7945 93.1331C64.7945 94.2719 67.0937 93.1331 67.0937 94.2719C67.0937 95.4106 65.561 95.031 65.561 96.9289C65.561 98.8269 66.7106 100.725 68.6268 100.725C69.3933 100.725 69.7765 100.345 69.7765 99.2065C69.7765 98.0677 68.6268 99.586 68.6268 96.5494C68.6268 94.2719 71.3094 93.5127 71.3094 92.7535C71.3094 91.9943 71.3094 91.2352 69.7765 91.2352Z" fill="#F6C808"/>
<path d="M66.3274 111.353C66.3274 112.871 65.561 113.251 64.028 112.492C63.6448 112.239 62.8783 111.657 62.8783 111.353V105.659C62.8783 103.761 65.1777 103.761 67.8603 103.761C70.543 103.761 73.2256 107.178 73.2256 107.557V110.974C73.2256 112.871 71.6927 112.871 70.9262 112.492C70.1597 112.112 69.3933 111.733 69.3933 111.353V108.316C69.3933 107.178 67.4771 106.039 67.0937 106.039C66.7102 106.039 66.3274 106.798 66.3274 107.557V111.353Z" fill="#F6C808"/>
<path d="M65.9442 124.639C63.6448 124.639 62.4951 120.843 62.4951 117.806C62.4951 116.667 63.4148 116.667 64.028 116.667C64.7945 116.667 65.9442 117.427 65.9442 118.565C65.9442 119.704 66.3274 121.982 67.4771 121.982C68.6268 121.982 70.543 119.704 70.543 119.324C70.543 118.945 70.1597 118.565 68.2436 118.565C66.3274 118.565 67.4771 116.288 69.01 116.288C70.543 116.288 73.6088 117.427 73.6088 119.704C73.6088 121.982 67.8603 124.639 65.9442 124.639Z" fill="#F6C808"/>
<path d="M70.1597 129.573C70.1597 129.194 70.543 128.055 69.01 128.055C67.4771 128.055 67.0939 128.814 65.5609 128.814C64.028 128.814 64.7945 130.332 65.5609 130.332C66.3274 130.332 66.7106 130.712 66.7106 131.851C66.7106 132.989 67.0939 133.369 68.2436 133.369C69.3933 133.369 70.1597 133.369 70.1597 132.61V129.573Z" fill="#F6C808"/>
</svg>
