<svg width="167" height="247" viewBox="0 0 167 247" fill="none" xmlns="http://www.w3.org/2000/svg">
<path d="M143.896 105.247L82.7446 208.735L23.382 105.212L82.7204 30.3155L143.896 105.247Z" fill="#191516"/>
<path fill-rule="evenodd" clip-rule="evenodd" d="M82.498 0L0.498047 103.5L82.498 246.5L166.998 103.5L82.498 0ZM153.623 104.511L82.6408 224.636L13.7466 104.491L82.6268 17.5511L153.623 104.511Z" fill="#191516"/>
<path fill-rule="evenodd" clip-rule="evenodd" d="M82.6408 224.636L153.623 104.511L82.6268 17.5511L13.7466 104.491L82.6408 224.636ZM82.7446 208.735L143.896 105.247L82.7204 30.3155L23.382 105.212L82.7446 208.735Z" fill="#F6C808"/>
<path d="M67.9517 143.552C86.8781 143.552 102.221 128.306 102.221 109.5C102.221 90.6938 86.8781 75.4483 67.9517 75.4483C64.6725 75.4483 61.5009 75.9059 58.498 76.7604C64.8468 72.4925 72.5032 70 80.7456 70C102.7 70 120.498 87.6848 120.498 109.5C120.498 131.315 102.7 149 80.7456 149C72.5033 149 64.8468 146.507 58.4981 142.24C61.5009 143.094 64.6725 143.552 67.9517 143.552Z" fill="#F6C808"/>
</svg>
