<svg width="125" height="249" viewBox="0 0 125 249" fill="none" xmlns="http://www.w3.org/2000/svg">
<rect x="5.99805" y="5.5" width="113" height="238" rx="16.5" fill="#C5A869" stroke="#A68C55" stroke-width="11"/>
<path fill-rule="evenodd" clip-rule="evenodd" d="M42.873 78C32.7533 78 26.498 87.1606 26.498 94.375V171.378H59.248V94.375C59.248 91.4527 57.7711 87.2781 54.824 83.8194C51.9351 80.429 47.8733 78 42.873 78ZM62.2457 84.0204C61.4394 82.5913 60.4828 81.2094 59.3909 79.9279C55.6235 75.5067 49.9978 72 42.873 72C28.7428 72 20.498 84.5894 20.498 94.375V174.378C20.498 174.378 20.498 174.378 23.498 174.378L20.498 174.378V177.378H103.998V174.378H100.998C103.998 174.378 103.998 174.378 103.998 174.378V94.375C103.998 90.2248 101.733 84.7231 98.0482 80.3228C94.2965 75.8421 88.6485 72 81.498 72C74.4255 72 68.831 75.5172 65.085 79.9347C64.0001 81.2141 63.0485 82.5937 62.2457 84.0204ZM65.248 94.375V171.378H97.998V94.375C97.998 92.0218 96.5135 87.836 93.4479 84.1746C90.4496 80.5937 86.3476 78 81.498 78C76.5705 78 72.5401 80.4203 69.6611 83.8153C66.7257 87.2769 65.248 91.4537 65.248 94.375Z" fill="black"/>
<path d="M79.4984 91.875H74.4984C74.9984 93.375 77.4984 94.575 77.4984 95.375C77.4984 96.175 72.9979 98.875 73.9984 101.375H77.4984C77.6651 100.375 78.3984 98.375 79.9984 98.375C81.5984 98.375 82.3317 100.375 82.4984 101.375C83.9984 101.542 87.4978 101.375 87.4978 101.375C87.9984 99.375 83.9984 98.875 83.9984 97.375C83.9984 95.9328 87.9984 93.875 87.9984 91.875H83.9984C83.8317 92.7083 83.2984 94.375 82.4984 94.375C81.6984 94.375 80.1651 92.7083 79.4984 91.875Z" fill="black"/>
<path d="M80.9978 110.375C78.4978 111.375 74.4984 108.375 75.9978 106.875C76.4978 106.375 77.4978 107.875 78.9978 107.875C80.1978 107.875 80.9978 107.375 81.9978 106.875C82.9978 106.375 84.9978 106.375 84.9978 106.375V116.875C84.9978 118.375 84.2978 118.875 83.4978 118.875C82.6978 118.875 82.1645 118.208 81.9978 117.875H76.4978C75.9978 117.875 75.4978 117.375 75.4978 116.875C75.4978 115.675 79.1645 115.375 80.9978 115.375C81.8311 113.375 82.9978 109.575 80.9978 110.375Z" fill="black"/>
<path d="M84.9978 127.375C83.9978 122.875 81.9984 123.875 78.9978 123.875C75.9972 123.875 75.4978 125.375 76.4978 126.375C77.4978 127.375 80.4978 125.375 80.4978 127.375C80.4978 129.375 77.4984 129.875 75.9978 131.375C74.4972 132.875 75.9978 134.375 77.4984 134.375C78.999 134.375 78.9978 132.375 80.4978 132.375C81.9978 132.375 81.9978 132.875 82.9978 134.375C83.9978 134.375 85.4978 134.375 85.9978 133.875C86.4978 133.375 85.9978 131.875 84.9978 127.375Z" fill="black"/>
<path d="M80.9978 144.375V148.875C80.9978 149.542 81.2979 150.875 82.4984 150.875C83.999 150.875 84.9978 148.875 84.9978 144.875C84.9978 140.875 87.4978 142.375 87.4978 141.375C87.4978 140.375 84.4978 139.375 82.4984 139.375C80.499 139.375 77.4984 139.875 76.4978 139.875C75.4972 139.875 74.4978 141.375 74.4978 141.875C74.4978 142.375 74.9978 143.375 75.9978 143.375C76.9978 143.375 77.4984 142.375 78.4978 142.375C79.4972 142.375 80.9978 142.375 80.9978 144.375Z" fill="black"/>
<path d="M86.4978 157.875C86.4978 155.875 85.9978 154.875 82.4984 154.875C81.499 154.842 78.9978 155.375 77.4984 155.375C75.999 155.375 75.4978 153.875 74.4978 154.875C73.4978 155.875 74.4978 158.375 76.4978 158.375C78.4978 158.375 82.4984 157.375 82.4984 158.875V163.875C82.4984 164.875 81.9978 166.375 82.9978 166.375C83.9978 166.375 86.4978 164.875 86.4978 164.375V157.875Z" fill="black"/>
<path d="M78.4978 163.375C78.4978 161.375 77.9978 161.375 76.4978 161.375C74.4978 161.375 74.4978 161.375 74.4978 163.375C74.4978 165.375 74.4978 165.375 76.4978 165.375C78.4978 165.375 78.4978 165.375 78.4978 163.375Z" fill="black"/>
<path d="M44.4978 101.375V93.875C44.4978 90.875 39.9982 91.875 38.9982 92.875C37.9982 93.875 38.4982 95.375 39.4982 95.375C40.2982 95.375 40.4979 96.0417 40.4978 96.375V101.875C40.3311 102.542 40.2978 103.875 41.4978 103.875C42.9978 103.875 44.4978 102.875 44.4978 101.375Z" fill="black"/>
<path d="M44.998 107.875C42.998 107.875 38.498 108.875 38.498 110.375C38.498 111.875 41.4978 110.375 41.4978 111.875C41.4978 113.375 39.4982 112.875 39.4982 115.375C39.4982 117.875 40.998 120.375 43.498 120.375C44.498 120.375 44.998 119.875 44.998 118.375C44.998 116.875 43.498 118.875 43.498 114.875C43.498 111.875 46.998 110.875 46.998 109.875C46.998 108.875 46.998 107.875 44.998 107.875Z" fill="black"/>
<path d="M40.498 134.375C40.498 136.375 39.4982 136.875 37.498 135.875C36.998 135.542 35.998 134.775 35.998 134.375V126.875C35.998 124.375 38.998 124.375 42.498 124.375C45.998 124.375 49.498 128.875 49.498 129.375V133.875C49.498 136.375 47.498 136.375 46.498 135.875C45.498 135.375 44.498 134.875 44.498 134.375V130.375C44.498 128.875 41.998 127.375 41.4978 127.375C40.9976 127.375 40.498 128.375 40.498 129.375V134.375Z" fill="black"/>
<path d="M39.998 151.875C36.998 151.875 35.498 146.875 35.498 142.875C35.498 141.375 36.698 141.375 37.498 141.375C38.498 141.375 39.998 142.375 39.998 143.875C39.998 145.375 40.498 148.375 41.998 148.375C43.498 148.375 45.998 145.375 45.998 144.875C45.998 144.375 45.498 143.875 42.998 143.875C40.498 143.875 41.998 140.875 43.998 140.875C45.998 140.875 49.998 142.375 49.998 145.375C49.998 148.375 42.498 151.875 39.998 151.875Z" fill="black"/>
<path d="M45.498 158.375C45.498 157.875 45.998 156.375 43.998 156.375C41.998 156.375 41.498 157.375 39.498 157.375C37.498 157.375 38.498 159.375 39.498 159.375C40.498 159.375 40.998 159.875 40.998 161.375C40.998 162.875 41.498 163.375 42.998 163.375C44.498 163.375 45.498 163.375 45.498 162.375V158.375Z" fill="black"/>
</svg>
