<svg width="167" height="247" viewBox="0 0 167 247" fill="none" xmlns="http://www.w3.org/2000/svg">
<path d="M143.396 105.247L82.2446 208.735L22.882 105.212L82.2204 30.3155L143.396 105.247Z" fill="#1D5A8D"/>
<path fill-rule="evenodd" clip-rule="evenodd" d="M81.998 0L-0.00195312 103.5L81.998 246.5L166.498 103.5L81.998 0ZM153.123 104.511L82.1408 224.636L13.2466 104.491L82.1268 17.5511L153.123 104.511Z" fill="#1D5A8D"/>
<path fill-rule="evenodd" clip-rule="evenodd" d="M82.1408 224.636L153.123 104.511L82.1268 17.5511L13.2466 104.491L82.1408 224.636ZM82.2446 208.735L143.396 105.247L82.2204 30.3155L22.882 105.212L82.2446 208.735Z" fill="#F6C808"/>
<path fill-rule="evenodd" clip-rule="evenodd" d="M119.998 107C119.998 127.435 103.433 144 82.998 144C62.5635 144 45.998 127.435 45.998 107C45.998 86.5655 62.5635 70 82.998 70C103.433 70 119.998 86.5655 119.998 107ZM90.498 80.5H75.998V98.5H56.498V114.5H75.998V135.5H90.498V114.5H109.498V98.5H90.498V80.5Z" fill="white"/>
<path d="M75.998 80.5H90.498V98.5H109.498V114.5H90.498V135.5H75.998V114.5H56.498V98.5H75.998V80.5Z" fill="#E5383C"/>
</svg>
