<svg width="125" height="249" viewBox="0 0 125 249" fill="none" xmlns="http://www.w3.org/2000/svg">
<rect x="5.99805" y="5.5" width="113" height="238" rx="16.5" fill="#C5A869" stroke="#A68C55" stroke-width="11"/>
<path d="M87.4991 158.508L92.4991 154.008L89.0022 150.023L93.4991 146.008L83.2848 143.508L71.3864 129.949L75.4991 126.008L64.9991 122.671L49.4991 105.008C45.9991 101.008 39.9991 98.0078 39.9991 98.0078C39.9991 98.0078 41.9991 104.508 45.4991 108.508L60.6191 126.508L63.4991 137.508L67.0227 134.131L78.2591 147.508L79.4991 158.508L84.0705 154.426L87.4991 158.508Z" fill="black"/>
<path d="M37.498 158.508L32.498 154.008L35.9949 150.023L31.498 146.008L41.7123 143.508L53.6107 129.949L49.498 126.008L59.998 122.671L75.498 105.008C78.998 101.008 84.998 98.0078 84.998 98.0078C84.998 98.0078 82.998 104.508 79.498 108.508L64.378 126.508L61.498 137.508L57.9745 134.131L46.738 147.508L45.498 158.508L40.9266 154.426L37.498 158.508Z" fill="black"/>
<path d="M66.998 161.008C66.998 163.493 64.9833 165.508 62.498 165.508C60.0127 165.508 57.998 163.493 57.998 161.008C57.998 158.523 60.0127 156.508 62.498 156.508C64.9833 156.508 66.998 158.523 66.998 161.008Z" fill="black"/>
<path d="M57.998 152.508C57.998 151.403 58.8934 150.508 59.998 150.508H64.998C66.1026 150.508 66.998 151.403 66.998 152.508V153.508C66.998 154.612 66.1026 155.508 64.998 155.508H59.998C58.8934 155.508 57.998 154.612 57.998 153.508V152.508Z" fill="black"/>
<path d="M62.498 149.508C64.998 149.508 65.498 147.008 65.498 144.508V98.5078H59.498V144.508C59.498 147.008 59.998 149.508 62.498 149.508Z" fill="black"/>
<path d="M15.1074 102.172C31.4355 91.2864 53.5059 88.8445 62.4617 89.0073L62.498 89.008L62.5344 89.0073C71.4902 88.8445 93.5606 91.2864 109.889 102.172V97.4317C92.9391 87.137 71.5008 84.8508 62.498 85.0073C53.4953 84.8508 32.0569 87.137 15.1074 97.4317V102.172Z" fill="black"/>
</svg>
