<svg width="167" height="247" viewBox="0 0 167 247" fill="none" xmlns="http://www.w3.org/2000/svg">
<path d="M143.896 105.247L82.7446 208.735L23.382 105.212L82.7204 30.3155L143.896 105.247Z" fill="#0C2D59"/>
<path fill-rule="evenodd" clip-rule="evenodd" d="M82.498 0L0.498047 103.5L82.498 246.5L166.998 103.5L82.498 0ZM153.623 104.511L82.6408 224.636L13.7466 104.491L82.6268 17.5511L153.623 104.511Z" fill="#0C2D59"/>
<path fill-rule="evenodd" clip-rule="evenodd" d="M82.6408 224.636L153.623 104.511L82.6268 17.5511L13.7466 104.491L82.6408 224.636ZM82.7446 208.735L143.896 105.247L82.7204 30.3155L23.382 105.212L82.7446 208.735Z" fill="#F6C808"/>
<path d="M107.745 155.829L112.68 151.219L109.229 147.137L113.667 143.024L103.586 140.463L91.8418 126.573L95.901 122.536L85.5375 119.117L70.239 101.023C66.7845 96.9258 60.8625 93.8526 60.8625 93.8526C60.8625 93.8526 62.8365 100.511 66.291 104.609L81.2145 123.048L84.057 134.317L87.5348 130.857L98.6252 144.561L99.8491 155.829L104.361 151.648L107.745 155.829Z" fill="#F6C808"/>
<path d="M58.3939 155.829L53.4588 151.219L56.9103 147.137L52.4718 143.024L62.5534 140.463L74.2971 126.573L70.2379 122.536L80.6014 119.117L95.8999 101.023C99.3544 96.9258 105.276 93.8526 105.276 93.8526C105.276 93.8526 103.302 100.511 99.8479 104.609L84.9245 123.048L82.0819 134.317L78.6042 130.857L67.5138 144.561L66.2899 155.829L61.7779 151.648L58.3939 155.829Z" fill="#F6C808"/>
<path d="M87.5104 158.39C87.5104 160.936 85.5219 163 83.0689 163C80.6159 163 78.6274 160.936 78.6274 158.39C78.6274 155.844 80.6159 153.78 83.0689 153.78C85.5219 153.78 87.5104 155.844 87.5104 158.39Z" fill="#F6C808"/>
<path d="M78.6274 149.683C78.6274 148.551 79.5112 147.634 80.6014 147.634H85.5364C86.6266 147.634 87.5104 148.551 87.5104 149.683V150.707C87.5104 151.839 86.6266 152.756 85.5364 152.756H80.6014C79.5112 152.756 78.6274 151.839 78.6274 150.707V149.683Z" fill="#F6C808"/>
<path d="M83.0689 146.609C85.5364 146.609 86.0299 144.048 86.0299 141.487V94.3648H80.1079V141.487C80.1079 144.048 80.6014 146.609 83.0689 146.609Z" fill="#F6C808"/>
<path fill-rule="evenodd" clip-rule="evenodd" d="M83.498 86.7937C63.9857 86.7937 42.9763 90.5369 25.0959 109L22.498 106.317C41.3568 86.8441 63.5158 83 83.498 83C103.48 83 125.639 86.8441 144.498 106.317L141.9 109C124.02 90.5369 103.01 86.7937 83.498 86.7937Z" fill="#F6C808"/>
</svg>
