<svg width="124" height="249" viewBox="0 0 124 249" fill="none" xmlns="http://www.w3.org/2000/svg">
<rect x="5.49805" y="5.5" width="113" height="238" rx="16.5" fill="#C5A869" stroke="#A68C55" stroke-width="11"/>
<path d="M82.998 140.5L51.998 109.5C48.498 106.5 45.998 105 39.498 105C32.998 105 27.498 111.5 27.498 118.5C27.498 123.5 29.998 130 38.498 130C46.998 130 49.498 121 49.498 119C49.498 117 46.998 115.5 47.998 114.5C48.998 113.5 52.498 117 52.498 117L80.498 144C84.498 147.5 86.498 144 82.998 140.5Z" fill="black"/>
<path d="M40.998 140.5L71.998 109.5C75.498 106.5 77.998 105 84.498 105C90.998 105 96.498 111.5 96.498 118.5C96.498 123.5 93.998 130 85.498 130C76.998 130 74.498 121 74.498 119C74.498 117 76.998 115.5 75.998 114.5C74.998 113.5 71.498 117 71.498 117L43.498 144C39.498 147.5 37.498 144 40.998 140.5Z" fill="black"/>
</svg>
