<svg width="167" height="247" viewBox="0 0 167 247" fill="none" xmlns="http://www.w3.org/2000/svg">
<path d="M143.896 105.247L82.7446 208.735L23.382 105.212L82.7204 30.3155L143.896 105.247Z" fill="#D0BD44"/>
<path fill-rule="evenodd" clip-rule="evenodd" d="M82.498 0L0.498047 103.5L82.498 246.5L166.998 103.5L82.498 0ZM153.623 104.511L82.6408 224.636L13.7466 104.491L82.6268 17.5511L153.623 104.511Z" fill="#D0BD44"/>
<path fill-rule="evenodd" clip-rule="evenodd" d="M82.6408 224.636L153.623 104.511L82.6268 17.5511L13.7466 104.491L82.6408 224.636ZM82.7446 208.735L143.896 105.247L82.7204 30.3155L23.382 105.212L82.7446 208.735Z" fill="#F6C808"/>
<path fill-rule="evenodd" clip-rule="evenodd" d="M82.6407 224.636L153.623 104.512L82.6267 17.5513L13.7466 104.491L82.6407 224.636ZM82.7446 208.735L143.896 105.247L82.7203 30.3157L23.3819 105.212L82.7446 208.735Z" fill="#F6C808"/>
<path d="M81.7733 225.134L82.6278 226.624L83.5017 225.145L154.484 105.02L154.839 104.42L154.398 103.879L83.4013 16.9188L82.615 15.9557L81.8429 16.9303L12.9628 103.87L12.5422 104.401L12.8791 104.989L81.7733 225.134ZM82.732 31.9113L142.68 105.339L82.7575 206.747L24.5863 105.302L82.732 31.9113Z" stroke="#AC8D09" stroke-width="2"/>
<path d="M71.1573 92.0843L71.1328 92.0548L71.1061 92.0274C68.8842 89.7436 66.8912 87.9344 64.3599 86.7202C61.8169 85.5005 58.8183 84.9209 54.6285 84.9209C50.1109 84.9209 46.0603 87.6239 43.1821 91.5683C40.2967 95.5225 38.498 100.833 38.498 106.332C38.498 110.224 39.3051 114.777 41.566 118.391C43.8624 122.063 47.6385 124.72 53.3676 124.72C59.2336 124.72 62.9737 120.971 65.1928 117.029C67.3984 113.11 68.2372 108.785 68.2372 107.088C68.2372 105.402 67.7174 103.571 67.2332 102.216C67.1468 101.974 67.0605 101.745 66.9768 101.53C67.2917 101.753 67.6345 102.034 67.987 102.351C68.5849 102.889 69.1521 103.478 69.5736 103.937C69.7833 104.166 69.9546 104.36 70.0728 104.496C70.1318 104.564 70.1775 104.617 70.208 104.653L70.242 104.693L70.25 104.703L70.2517 104.705L70.2518 104.705L70.2519 104.705L70.2519 104.705L70.2575 104.712L70.2634 104.719L77.4106 112.983L55.7518 138.955C54.569 140.373 53.8223 141.825 53.4744 143.144C53.1337 144.436 53.1493 145.715 53.6683 146.683C53.9358 147.182 54.3398 147.597 54.8788 147.843C55.4152 148.089 56.0125 148.134 56.6165 148.02C57.7915 147.798 59.0731 146.965 60.3958 145.577L60.4125 145.56L60.4283 145.541L82.998 119.444L105.568 145.541L105.584 145.56L105.6 145.577C106.923 146.965 108.205 147.798 109.38 148.02C109.984 148.134 110.581 148.089 111.117 147.843C111.656 147.597 112.06 147.182 112.328 146.683C112.847 145.715 112.862 144.436 112.522 143.144C112.174 141.825 111.427 140.373 110.244 138.955L88.5854 112.983L95.7327 104.719L95.7386 104.712L95.7442 104.705L95.7442 104.705L95.7443 104.705L95.7444 104.705L95.7461 104.703L95.7541 104.693L95.7881 104.653C95.8186 104.617 95.8643 104.564 95.9233 104.496C96.0415 104.36 96.2128 104.166 96.4225 103.937C96.844 103.478 97.4112 102.889 98.0091 102.351C98.3616 102.034 98.7044 101.753 99.0193 101.53C98.9356 101.745 98.8493 101.974 98.7629 102.216C98.2787 103.571 97.7589 105.402 97.7589 107.088C97.7589 108.785 98.5977 113.11 100.803 117.029C103.022 120.971 106.762 124.72 112.628 124.72C118.358 124.72 122.134 122.063 124.43 118.391C126.691 114.777 127.498 110.224 127.498 106.332C127.498 100.833 125.699 95.5225 122.814 91.5683C119.936 87.6239 115.885 84.9209 111.368 84.9209C107.178 84.9209 104.179 85.5005 101.636 86.7202C99.1049 87.9344 97.1119 89.7436 94.89 92.0274L94.8633 92.0548L94.8387 92.0843L82.998 106.283L71.1573 92.0843Z" fill="#F6C808" stroke="#AC8D09" stroke-width="2"/>
</svg>
