<svg width="167" height="247" viewBox="0 0 167 247" fill="none" xmlns="http://www.w3.org/2000/svg">
<path d="M143.396 105.247L82.2446 208.735L22.882 105.212L82.2204 30.3155L143.396 105.247Z" fill="#191516"/>
<path fill-rule="evenodd" clip-rule="evenodd" d="M81.998 0L-0.00195312 103.5L81.998 246.5L166.498 103.5L81.998 0ZM153.123 104.511L82.1408 224.636L13.2466 104.491L82.1268 17.5511L153.123 104.511Z" fill="#191516"/>
<path fill-rule="evenodd" clip-rule="evenodd" d="M82.1408 224.636L153.123 104.511L82.1268 17.5511L13.2466 104.491L82.1408 224.636ZM82.2446 208.735L143.396 105.247L82.2204 30.3155L22.882 105.212L82.2446 208.735Z" fill="#F6C808"/>
<path d="M82.998 95.7115C79.5336 91.416 75.2117 88.2143 71.2353 86.4532C74.5511 81.5722 78.6892 77.9759 82.9979 75.0798C87.3068 77.9759 91.445 81.5722 94.7608 86.4532C90.7844 88.2143 86.4625 91.416 82.998 95.7115Z" fill="#F6C808"/>
<path d="M43.998 90.0299L64.9774 65C69.0663 67.5224 74.2883 69.8165 79.5156 72.8945C80.6803 73.5803 81.8452 74.305 82.9979 75.0798C78.6892 77.9759 74.5511 81.5722 71.2353 86.4532C68.9614 85.4461 66.8004 84.9102 64.9774 84.9102C56.3705 84.9102 43.998 90.0299 43.998 90.0299Z" fill="#F6C808"/>
<path d="M102.095 113.922C102.095 124.072 100.001 131.773 96.7358 137.714C93.4759 136.776 89.8197 134.852 86.6137 131.959C85.847 131.267 85.1114 130.525 84.4172 129.733C87.5797 125.556 89.7222 120.247 89.7222 113.922C89.7222 106.792 86.9055 100.556 82.998 95.7115C86.4625 91.416 90.7844 88.2143 94.7608 86.4532C99.1472 92.9101 102.095 101.615 102.095 113.922Z" fill="#F6C808"/>
<path d="M82.998 131.459C86.6581 135.566 91.2954 138.367 95.548 139.721C92.0955 145.148 87.6231 148.966 82.9981 151.824C78.373 148.966 73.9006 145.148 70.4481 139.721C74.7007 138.367 79.338 135.566 82.998 131.459Z" fill="#F6C808"/>
<path d="M43.998 132.126C43.998 132.126 55.8325 140.659 64.9774 140.659C65.9937 140.659 67.0898 140.539 68.2353 140.303C70.6324 144.253 73.5411 147.442 76.6941 150.058C78.0343 151.169 79.4202 152.176 80.8255 153.094C75.0027 156.316 69.153 158.194 64.9774 160L43.998 132.126Z" fill="#F6C808"/>
<path d="M101.019 140.659C110.164 140.659 121.998 132.126 121.998 132.126L101.019 160C99.8414 159.491 98.5309 158.976 97.1254 158.426C97.0317 158.39 96.9376 158.353 96.8431 158.316C96.3252 158.114 95.795 157.907 95.2543 157.693C91.4695 156.2 87.1717 154.403 82.9981 151.824C87.6231 148.966 92.0955 145.148 95.548 139.721C97.4959 140.342 99.3631 140.659 101.019 140.659Z" fill="#F6C808"/>
<path d="M63.9015 113.922C63.9015 102.8 66.3085 94.6202 70.0094 88.3824C72.9005 89.5941 76.1459 91.7114 79.0975 94.6685C79.9869 95.5595 80.837 96.5145 81.632 97.5284C78.4508 102.077 76.2739 107.654 76.2739 113.922C76.2739 121.153 79.0745 127.056 82.998 131.459C79.338 135.566 74.7007 138.367 70.4481 139.721C66.512 133.534 63.9015 125.255 63.9015 113.922Z" fill="#F6C808"/>
<path d="M101.019 65L121.998 90.0299C121.998 90.0299 109.626 84.9102 101.019 84.9102C99.7665 84.9102 98.3549 85.1631 96.8567 85.6478C94.7745 82.4758 92.3613 79.7948 89.7634 77.4812C88.2321 76.1176 86.6445 74.8884 85.0369 73.7656C90.7362 70.2371 96.5532 67.7547 101.019 65Z" fill="#F6C808"/>
</svg>
