<svg width="125" height="249" viewBox="0 0 125 249" fill="none" xmlns="http://www.w3.org/2000/svg">
<rect x="5.99805" y="5.5" width="113" height="238" rx="16.5" fill="#C5A869" stroke="#A68C55" stroke-width="11"/>
<path d="M62.748 109.994C65.9682 106.218 69.9853 103.404 73.6814 101.856C70.5994 97.5661 66.7531 94.4052 62.7481 91.8596C58.7431 94.4052 54.8967 97.5661 51.8147 101.856C55.5108 103.404 59.5279 106.218 62.748 109.994Z" fill="black"/>
<path d="M98.998 105L79.498 83C75.6974 85.217 70.8436 87.2335 65.9849 89.9388C64.9024 90.5416 63.8196 91.1786 62.7481 91.8596C66.7531 94.4052 70.5994 97.5661 73.6814 101.856C75.795 100.971 77.8035 100.5 79.498 100.5C87.498 100.5 98.998 105 98.998 105Z" fill="black"/>
<path d="M44.998 126C44.998 134.921 46.9444 141.69 49.979 146.912C53.009 146.087 56.4074 144.396 59.3873 141.854C60.1 141.246 60.7837 140.593 61.4289 139.897C58.4895 136.225 56.498 131.559 56.498 126C56.498 119.733 59.1161 114.252 62.748 109.994C59.5279 106.218 55.5108 103.404 51.8147 101.856C47.7376 107.532 44.998 115.183 44.998 126Z" fill="black"/>
<path d="M62.748 141.414C59.3461 145.024 55.0358 147.485 51.083 148.676C54.2921 153.446 58.4492 156.802 62.748 159.314C67.0469 156.802 71.204 153.446 74.4131 148.676C70.4603 147.485 66.15 145.024 62.748 141.414Z" fill="black"/>
<path d="M98.998 142C98.998 142 87.998 149.5 79.498 149.5C78.5534 149.5 77.5346 149.395 76.4698 149.188C74.2418 152.659 71.5382 155.462 68.6075 157.761C67.3618 158.738 66.0736 159.623 64.7674 160.43C70.1796 163.262 75.6169 164.912 79.498 166.5L98.998 142Z" fill="black"/>
<path d="M45.998 149.5C37.498 149.5 26.498 142 26.498 142L45.998 166.5C47.0924 166.052 48.3105 165.6 49.6168 165.117C49.7039 165.085 49.7914 165.052 49.8793 165.02C50.3606 164.842 50.8534 164.66 51.356 164.473C54.8739 163.16 58.8687 161.58 62.748 159.314C58.4492 156.802 54.2921 153.446 51.083 148.676C49.2725 149.221 47.5369 149.5 45.998 149.5Z" fill="black"/>
<path d="M80.498 126C80.498 116.225 78.2607 109.035 74.8208 103.552C72.1336 104.617 69.117 106.478 66.3735 109.077C65.5469 109.86 64.7567 110.7 64.0178 111.591C66.9746 115.589 68.998 120.491 68.998 126C68.998 132.356 66.3949 137.544 62.748 141.414C66.15 145.024 70.4603 147.485 74.4131 148.676C78.0716 143.238 80.498 135.961 80.498 126Z" fill="black"/>
<path d="M45.998 83L26.498 105C26.498 105 37.998 100.5 45.998 100.5C47.162 100.5 48.4741 100.722 49.8666 101.148C51.802 98.3603 54.045 96.0038 56.4598 93.9703C57.8831 92.7717 59.3587 91.6914 60.853 90.7045C55.5555 87.6031 50.1487 85.4212 45.998 83Z" fill="black"/>
</svg>
