<svg width="124" height="249" viewBox="0 0 124 249" fill="none" xmlns="http://www.w3.org/2000/svg">
<rect x="5.49805" y="5.5" width="113" height="238" rx="16.5" fill="#C5A869" stroke="#A68C55" stroke-width="11"/>
<path d="M70.9812 120.5C72.7059 117.489 77.9812 113 83.4812 113H90.9812C92.9812 113 94.9812 113.5 90.9812 117C86.9812 120.5 77.9812 124.5 75.9812 124.5H73.9812V123.5C81.5275 119.881 84.8648 118.238 87.9812 115.5C82.3955 116.958 79.3755 117.955 74.9812 120.5H70.9812Z" fill="black"/>
<path d="M66.989 120.5C66.989 119.5 66.9851 118.5 66.9851 117.5C73.796 110.805 76.5463 106.684 80.4812 99C74.8956 104.458 71.4504 107.232 66.989 114V112.5H65.489C65.489 108.079 70.7199 102.261 73.4812 99.5C76.4812 96.5 82.4812 93.5 83.9812 94.5C85.4812 95.5 82.9812 106 78.9812 110.5C75.7812 114.1 66.989 120.5 66.989 120.5Z" fill="black"/>
<path d="M53.9832 120.5C52.2585 117.489 46.9832 113 41.4832 113H33.9832C31.9832 113 29.9832 113.5 33.9832 117C37.9832 120.5 46.9832 124.5 48.9832 124.5H50.9832V123.5C43.4369 119.881 40.0996 118.238 36.9832 115.5C42.569 116.958 45.589 117.955 49.9832 120.5H53.9832Z" fill="black"/>
<path d="M57.9755 120.5C57.9755 119.5 57.9793 118.5 57.9793 117.5C51.1684 110.805 48.4182 106.684 44.4832 99C50.0688 104.458 53.514 107.232 57.9755 114V112.5H59.4755C59.4755 108.079 54.2446 102.261 51.4832 99.5C48.4832 96.5 42.4832 93.5 40.9832 94.5C39.4832 95.5 41.9832 106 45.9832 110.5C49.1832 114.1 57.9755 120.5 57.9755 120.5Z" fill="black"/>
<path fill-rule="evenodd" clip-rule="evenodd" d="M69.4812 97.5C69.4812 91.5 66.485 81.5 62.4811 80C58.4772 81.5 55.4832 91.5 55.4832 97.5C55.4832 103.498 60.9768 112.493 62.4793 112.5C63.9819 112.493 69.4812 103.498 69.4812 97.5ZM63.9851 97.4785V97.5C63.9851 102.498 63.9832 107.002 62.4811 110.5C60.9793 107.003 60.9793 102.5 60.9793 97.5039V97.5C60.9793 92.5 60.9793 89.5 62.4833 86.5C63.985 89.4957 63.9851 92.4914 63.9851 97.4785Z" fill="black"/>
<path d="M70.9959 129.5C72.7207 132.511 77.9959 137 83.4959 137H90.996C92.996 137 94.996 136.5 90.996 133C86.996 129.5 77.9959 125.5 75.9959 125.5H73.9959V126.5C81.5423 130.119 84.8796 131.762 87.9959 134.5C82.4102 133.042 79.3902 132.045 74.9959 129.5H70.9959Z" fill="black"/>
<path d="M67.0037 129.5C67.0037 130.5 66.9998 131.5 66.9998 132.5C73.8108 139.195 76.561 143.316 80.4959 151C74.9103 145.542 71.4651 142.768 67.0037 136V137.5H65.5037C65.5037 141.921 70.7346 147.739 73.4959 150.5C76.4959 153.5 82.4959 156.5 83.9959 155.5C85.4959 154.5 82.9959 144 78.9959 139.5C75.7959 135.9 67.0037 129.5 67.0037 129.5Z" fill="black"/>
<path d="M53.9981 129.5C52.2733 132.511 46.9981 137 41.4981 137H33.998C31.998 137 29.998 136.5 33.998 133C37.998 129.5 46.9981 125.5 48.9981 125.5H50.9981V126.5C43.4517 130.119 40.1144 131.762 36.9981 134.5C42.5838 133.042 45.6038 132.045 49.9981 129.5H53.9981Z" fill="black"/>
<path d="M57.9903 129.5C57.9903 130.5 57.9942 131.5 57.9942 132.5C51.1832 139.195 48.433 143.316 44.4981 151C50.0837 145.542 53.5289 142.768 57.9903 136V137.5H59.4903C59.4903 141.921 54.2594 147.739 51.4981 150.5C48.4981 153.5 42.4981 156.5 40.9981 155.5C39.4981 154.5 41.9981 144 45.9981 139.5C49.1981 135.9 57.9903 129.5 57.9903 129.5Z" fill="black"/>
<path fill-rule="evenodd" clip-rule="evenodd" d="M69.4959 152.5C69.4959 158.5 66.4998 168.5 62.4959 170C58.492 168.5 55.4981 158.5 55.4981 152.5C55.4981 146.502 60.9916 137.507 62.4942 137.5C63.9967 137.507 69.4959 146.502 69.4959 152.5ZM63.9998 152.522V152.5C63.9998 147.502 63.998 142.998 62.4959 139.5C60.9942 142.997 60.9942 147.5 60.9942 152.496V152.5C60.9942 157.5 60.9942 160.5 62.4981 163.5C63.9998 160.504 63.9998 157.509 63.9998 152.522Z" fill="black"/>
<path d="M71.9959 125V122.5H64.9812V114.5H62.4845H62.4833H62.4811H59.9832V122.5H52.9981V125V127.5H59.9981V135.5H62.4959H62.4981H62.4993H64.9959V127.5H71.9959V125Z" fill="black"/>
</svg>
