<svg width="167" height="247" viewBox="0 0 167 247" fill="none" xmlns="http://www.w3.org/2000/svg">
<path d="M143.896 105.247L82.7446 208.735L23.382 105.212L82.7204 30.3155L143.896 105.247Z" fill="#191516"/>
<path fill-rule="evenodd" clip-rule="evenodd" d="M82.498 0L0.498047 103.5L82.498 246.5L166.998 103.5L82.498 0ZM153.623 104.511L82.6408 224.636L13.7466 104.491L82.6268 17.5511L153.623 104.511Z" fill="#191516"/>
<path fill-rule="evenodd" clip-rule="evenodd" d="M82.6408 224.636L153.623 104.511L82.6268 17.5511L13.7466 104.491L82.6408 224.636ZM82.7446 208.735L143.896 105.247L82.7204 30.3155L23.382 105.212L82.7446 208.735Z" fill="#F6C808"/>
<path d="M92.1617 108.5C93.8865 105.489 99.1617 101 104.662 101H113.854C118.854 101 116.354 105.5 114.854 107C109.854 111 104.354 112.5 97.1617 112.5H95.1617V110.5C103.854 108 105.854 107 109.854 105C104.269 106.458 101.354 107.5 96.1617 108.5H92.1617Z" fill="#F6C808"/>
<path d="M88.1695 108.5C88.1695 107.5 88.1695 105.5 88.1695 104.5C94.1988 97.4001 97.0123 94.3102 101.662 87C96.6116 92.9609 93.1941 96.7686 88.1695 103V100.5H86.6695C86.6695 96.0787 91.9004 90.2613 94.6617 87.5C97.6617 84.5 103.662 81.5 105.162 82.5C106.662 83.5 104.162 94 100.162 98.5C96.9617 102.1 88.1695 108.5 88.1695 108.5Z" fill="#F6C808"/>
<path d="M75.159 108.5C73.4343 105.489 68.159 101 62.659 101H53.4665C48.4665 101 50.9665 105.5 52.4665 107C57.4665 111 62.9665 112.5 70.159 112.5H72.159V110.5C63.4665 108 61.4665 107 57.4665 105C63.0522 106.458 65.9665 107.5 71.159 108.5H75.159Z" fill="#F6C808"/>
<path d="M79.1513 108.5C79.1513 107.5 79.1513 105.5 79.1513 104.5C73.122 97.4001 70.3084 94.3102 65.659 87C70.7092 92.9609 74.1266 96.7686 79.1513 103V100.5H80.6513C80.6513 96.0787 75.4204 90.2613 72.659 87.5C69.659 84.5 63.659 81.5 62.159 82.5C60.659 83.5 63.159 94 67.159 98.5C70.359 102.1 79.1513 108.5 79.1513 108.5Z" fill="#F6C808"/>
<path fill-rule="evenodd" clip-rule="evenodd" d="M90.6617 85.5C90.6617 79.5 87.663 69.5 83.6591 68C79.6552 69.5 76.659 79.5 76.659 85.5C76.659 91.4976 82.1573 100.493 83.6599 100.5C85.1625 100.493 90.6617 91.4976 90.6617 85.5ZM83.6702 98.3715C84.3517 90.4998 84.3542 90.4711 84.3542 85.5C84.3542 80.5591 84.3475 80.5007 83.676 74.6653L83.657 74.5C82.9665 80.5 82.9665 80.5129 82.9665 85.5C82.9665 90.498 82.9665 90.5 83.6591 98.5L83.6702 98.3715Z" fill="#F6C808"/>
<path d="M92.1627 117.5C93.8875 120.511 99.1627 125 104.663 125H113.855C118.855 125 116.355 120.5 114.855 119C109.855 115 104.355 113.5 97.1627 113.5H95.1627V115.5C103.855 118 105.855 119 109.855 121C104.27 119.542 101.355 118.5 96.1627 117.5H92.1627Z" fill="#F6C808"/>
<path d="M88.1705 117.5C88.1705 118.5 88.1705 120.5 88.1705 121.5C94.1998 128.6 97.0133 131.69 101.663 139C96.6126 133.039 93.1951 129.231 88.1705 123V125.5H86.6705C86.6705 129.921 91.9014 135.739 94.6627 138.5C97.6627 141.5 103.663 144.5 105.163 143.5C106.663 142.5 104.163 132 100.163 127.5C96.9627 123.9 88.1705 117.5 88.1705 117.5Z" fill="#F6C808"/>
<path d="M75.16 117.5C73.4352 120.511 68.16 125 62.66 125H53.4675C48.4675 125 50.9675 120.5 52.4675 119C57.4675 115 62.9675 113.5 70.16 113.5H72.16V115.5C63.4675 118 61.4675 119 57.4675 121C63.0532 119.542 65.9675 118.5 71.16 117.5H75.16Z" fill="#F6C808"/>
<path d="M79.1522 117.5C79.1522 118.5 79.1522 120.5 79.1522 121.5C73.123 128.6 70.3094 131.69 65.66 139C70.7101 133.039 74.1276 129.231 79.1522 123V125.5H80.6522C80.6522 129.921 75.4213 135.739 72.66 138.5C69.66 141.5 63.66 144.5 62.16 143.5C60.66 142.5 63.16 132 67.16 127.5C70.36 123.9 79.1522 117.5 79.1522 117.5Z" fill="#F6C808"/>
<path fill-rule="evenodd" clip-rule="evenodd" d="M90.6627 140.5C90.6627 146.5 87.664 156.5 83.6601 158C79.6562 156.5 76.66 146.5 76.66 140.5C76.66 134.502 82.1583 125.507 83.6609 125.5C85.1634 125.507 90.6627 134.502 90.6627 140.5ZM83.6712 127.629C84.3527 135.5 84.3552 135.529 84.3552 140.5C84.3552 145.441 84.3485 145.499 83.6769 151.335L83.6579 151.5C82.9675 145.5 82.9675 145.487 82.9675 140.5C82.9675 135.502 82.9675 135.5 83.6601 127.5L83.6712 127.629Z" fill="#F6C808"/>
<path d="M93.1775 113.109L93.1765 110.5H86.1617V102.5H83.6591H83.657H81.159V110.5H74.1443V113L74.1452 115.5H81.16V123.5H83.6579H83.6601H86.1627V115.5H93.1775V113.109Z" fill="white"/>
</svg>
