<svg width="167" height="247" viewBox="0 0 167 247" fill="none" xmlns="http://www.w3.org/2000/svg">
<path d="M143.396 105.247L82.2446 208.735L22.882 105.212L82.2204 30.3155L143.396 105.247Z" fill="#19624E"/>
<path fill-rule="evenodd" clip-rule="evenodd" d="M81.998 0L-0.00195312 103.5L81.998 246.5L166.498 103.5L81.998 0ZM153.123 104.511L82.1408 224.636L13.2466 104.491L82.1268 17.5511L153.123 104.511Z" fill="#19624E"/>
<path fill-rule="evenodd" clip-rule="evenodd" d="M82.1408 224.636L153.123 104.511L82.1268 17.5511L13.2466 104.491L82.1408 224.636ZM82.2446 208.735L143.396 105.247L82.2204 30.3155L22.882 105.212L82.2446 208.735Z" fill="#F6C808"/>
<path fill-rule="evenodd" clip-rule="evenodd" d="M108.286 75V80.1022C108.286 80.1022 100.45 80.1022 100.45 89.8813C100.45 101.786 108.998 109.865 108.998 122.195C108.998 134.525 101.091 141.073 95.1078 143.454C97.7379 143.803 102.998 145.5 102.998 149.5C102.998 150.5 102.498 151.5 100.998 151.5H82.9982H64.9982C63.4982 151.5 62.9982 150.5 62.9982 149.5C62.9982 145.5 68.2585 143.803 70.8886 143.454C64.9051 141.073 56.9982 134.525 56.9982 122.195C56.9982 109.865 65.5461 101.786 65.5461 89.8813C65.5461 80.1022 57.7105 80.1022 57.7105 80.1022V75C67.478 75 71.8882 80.6848 72.5736 89.4562H74.0941V79.5H78.3681V89.4562H81.2174V79.5H82.9982H84.779V89.4562H87.6283V79.5H91.9023V89.4562H93.4228C94.1082 80.6848 98.5184 75 108.286 75ZM97.9571 117.943C97.9571 105.527 93.8481 102.543 93.3718 93.708H91.9023V133.184C95.5644 129.628 97.9571 124.011 97.9571 117.943ZM87.6283 93.708V136.097C86.7129 136.494 85.7598 136.778 84.779 136.935V93.708H87.6283ZM68.0393 117.943C68.0393 105.527 72.1483 102.543 72.6246 93.708H74.0941V133.184C70.432 129.628 68.0393 124.011 68.0393 117.943ZM78.3681 93.708V136.097C79.2835 136.494 80.2366 136.778 81.2174 136.935V93.708H78.3681Z" fill="#F6C808"/>
</svg>
