<svg width="125" height="249" viewBox="0 0 125 249" fill="none" xmlns="http://www.w3.org/2000/svg">
<rect x="5.99805" y="5.5" width="113" height="238" rx="16.5" fill="#C5A869" stroke="#A68C55" stroke-width="11"/>
<path fill-rule="evenodd" clip-rule="evenodd" d="M97.498 80V86C97.498 86 86.498 86 86.498 97.5C86.498 111.5 98.498 121 98.498 135.5C98.498 150 87.398 157.7 78.998 160.5C83.532 162.862 85.6156 164.676 88.498 169C78.998 170.5 74.498 167 61.998 167C49.498 167 44.998 170.5 35.498 169C38.3805 164.676 40.4641 162.862 44.998 160.5C36.598 157.7 25.498 150 25.498 135.5C25.498 121 37.498 111.5 37.498 97.5C37.498 86 26.498 86 26.498 86V80C40.2101 80 46.4014 86.6852 47.3634 97H49.498V90H55.498V97H59.498V90H61.998H64.498V97H68.498V90H74.498V97H76.6326C77.5947 86.6852 83.786 80 97.498 80ZM82.998 130.5C82.998 115.898 77.2297 112.39 76.561 102H74.498V148.423C79.6391 144.241 82.998 137.635 82.998 130.5ZM68.498 102V151.849C67.2129 152.315 65.8749 152.649 64.498 152.833V102H68.498ZM40.998 130.5C40.998 115.898 46.7664 112.39 47.4351 102H49.498V148.423C44.357 144.241 40.998 137.635 40.998 130.5ZM55.498 102V151.849C56.7832 152.315 58.1212 152.649 59.498 152.833V102H55.498Z" fill="black"/>
</svg>
