<svg width="125" height="249" viewBox="0 0 125 249" fill="none" xmlns="http://www.w3.org/2000/svg">
<rect x="5.99805" y="5.5" width="113" height="238" rx="16.5" fill="#C5A869" stroke="#A68C55" stroke-width="11"/>
<path d="M99.498 58L102.498 80.5L99.498 87.5L94.498 78.5L68.998 128L82.998 152H87.998L92.498 158.5L81.498 159L76.998 170.5L72.998 163L74.998 155.5L63.498 138L52.498 157L54.998 163L50.498 170.5L46.498 160L35.998 159L39.998 152H44.998L57.998 128L26.998 78.5L23.498 87.5L19.498 80.5L20.998 58L39.998 64.5L43.498 71L34.498 72L63.498 118L86.998 72L77.998 71L80.498 64.5L99.498 58Z" fill="black"/>
<path d="M98.998 170H87.998L83.998 180.5L79.998 173.5L83.998 163H94.998L98.998 170Z" fill="black"/>
<path d="M105.998 182H94.998L90.998 192.5L86.998 185.5L90.998 175H101.998L105.998 182Z" fill="black"/>
<path d="M44.998 180.5L48.498 173.5L43.998 163H32.998L28.998 170H39.498L44.998 180.5Z" fill="black"/>
<path d="M38.498 192.5L41.998 185.5L37.498 175H26.498L22.498 182H32.998L38.498 192.5Z" fill="black"/>
</svg>
