<svg width="167" height="247" viewBox="0 0 167 247" fill="none" xmlns="http://www.w3.org/2000/svg">
<path d="M143.396 105.247L82.2446 208.735L22.882 105.212L82.2204 30.3155L143.396 105.247Z" fill="#A5815F"/>
<path fill-rule="evenodd" clip-rule="evenodd" d="M81.998 0L-0.00195312 103.5L81.998 246.5L166.498 103.5L81.998 0ZM153.123 104.511L82.1408 224.636L13.2466 104.491L82.1268 17.5511L153.123 104.511Z" fill="#A5815F"/>
<path fill-rule="evenodd" clip-rule="evenodd" d="M82.1408 224.636L153.123 104.511L82.1268 17.5511L13.2466 104.491L82.1408 224.636ZM82.2446 208.735L143.396 105.247L82.2204 30.3155L22.882 105.212L82.2446 208.735Z" fill="#F6C808"/>
<path d="M109.264 76L111.449 89.5502L109.264 93.7658L105.622 88.3457L87.0501 118.156L97.2466 132.61H100.888L104.166 136.524L96.1541 136.825L92.8767 143.751L89.9634 139.234L91.42 134.717L83.0443 124.178L75.0327 135.621L76.8535 139.234L73.5761 143.751L70.6628 137.428L63.0154 136.825L65.9287 132.61H69.5703L79.0385 118.156L56.4605 88.3457L53.9113 93.7658L50.998 89.5502L52.0905 76L65.9287 79.9145L68.4778 83.829L61.9229 84.4312L83.0443 112.134L100.16 84.4312L93.605 83.829L95.4258 79.9145L109.264 76Z" fill="#F6C808"/>
<path d="M108.9 143.45H100.888L97.9749 149.773L95.0616 145.558L97.9749 139.234H105.986L108.9 143.45Z" fill="#F6C808"/>
<path d="M113.998 150.677H105.986L103.073 157L100.16 152.784L103.073 146.461H111.085L113.998 150.677Z" fill="#F6C808"/>
<path d="M69.5703 149.773L72.1194 145.558L68.842 139.234H60.8304L57.9171 143.45H65.5645L69.5703 149.773Z" fill="#F6C808"/>
<path d="M64.8362 157L67.3853 152.784L64.1079 146.461H56.0963L53.183 150.677H60.8304L64.8362 157Z" fill="#F6C808"/>
</svg>
