<svg width="167" height="247" viewBox="0 0 167 247" fill="none" xmlns="http://www.w3.org/2000/svg">
<path d="M143.896 105.247L82.7446 208.735L23.382 105.212L82.7204 30.3155L143.896 105.247Z" fill="#0C2D59"/>
<path fill-rule="evenodd" clip-rule="evenodd" d="M82.498 0L0.498047 103.5L82.498 246.5L166.998 103.5L82.498 0ZM153.623 104.511L82.6408 224.636L13.7466 104.491L82.6268 17.5511L153.623 104.511Z" fill="#0C2D59"/>
<path fill-rule="evenodd" clip-rule="evenodd" d="M82.6408 224.636L153.623 104.511L82.6268 17.5511L13.7466 104.491L82.6408 224.636ZM82.7446 208.735L143.896 105.247L82.7204 30.3155L23.382 105.212L82.7446 208.735Z" fill="#F6C808"/>
<path fill-rule="evenodd" clip-rule="evenodd" d="M88.7267 112.826C88.7267 110.15 86.4874 107.979 83.7252 107.979C80.9629 107.979 78.7236 110.15 78.7236 112.826C78.7236 115.503 80.9629 117.674 83.7252 117.674C85.2635 117.674 86.6397 117 87.5572 115.942C88.8564 114.442 88.2367 116.381 90.9547 116.381C92.3137 116.381 94.3522 115.264 94.3522 114.442C94.3522 113.669 93.7757 113.15 92.9932 113.15C91.974 113.15 91.974 114.442 90.9547 114.442C89.9355 114.442 88.7267 113.796 88.7267 112.826ZM83.7252 110.403C85.1063 110.403 86.226 111.488 86.226 112.826C86.226 114.165 85.1063 115.25 83.7252 115.25C82.344 115.25 81.2244 114.165 81.2244 112.826C81.2244 111.488 82.344 110.403 83.7252 110.403Z" fill="#F6C808"/>
<path d="M79.8744 109.733C79.1557 110.572 78.7236 111.651 78.7236 112.826C78.7236 111.857 77.5149 111.211 76.4956 111.211C75.4764 111.211 75.4764 112.503 74.4571 112.503C73.6746 112.503 73.0981 111.984 73.0981 111.211C73.0981 110.388 75.1366 109.272 76.4956 109.272C79.2136 109.272 78.5752 111.233 79.8744 109.733Z" fill="#F6C808"/>
<path d="M87.1596 71.4653C87.1596 70.1728 85.3584 68.5019 83.6596 68.5019C82.3006 68.5019 80.1596 69.8496 80.1596 71.4653L82.1211 100.871C82.1211 102.163 82.8006 103.132 84.1596 103.132C85.5186 103.132 86.1982 102.163 86.1982 100.871L87.1596 71.4653Z" fill="#F6C808"/>
<path d="M83.8199 157.502C85.8584 157.502 87.5572 155.502 87.5572 153.541L85.8584 124.136C85.8584 122.844 85.1789 121.874 83.8199 121.874C82.4609 121.874 81.7814 122.844 81.7814 124.136L80.1596 153.541C80.1596 156.002 81.7814 157.502 83.8199 157.502Z" fill="#F6C808"/>
<path d="M79.4032 102.606C80.0828 102.606 81.1019 104.019 81.1019 104.545C81.1019 105.071 77.7045 107.777 77.0249 107.777C76.3453 107.777 75.666 106.484 75.6659 105.838C75.6659 105.192 78.7236 102.606 79.4032 102.606Z" fill="#F6C808"/>
<path d="M86.226 121.228C86.226 121.754 87.7466 123.167 88.2367 123.167C88.7267 123.167 91.974 119.935 91.974 119.409C91.9741 118.884 90.6151 117.794 90.2753 117.794C89.9354 117.794 86.226 120.702 86.226 121.228Z" fill="#F6C808"/>
<path d="M100.128 125.752C102.162 125.752 107.481 126.078 112.66 113.15C116.441 103.709 116.047 89.2376 113.547 89.2376C112.875 89.2376 114.217 94.8472 111.16 103.132C108.102 111.418 104.614 113.15 102.66 114.442C102.66 111.211 107.798 113.45 111.16 100.002C114.66 86.002 113.198 76.7094 111.16 78.002C110.029 78.7189 112.403 85.4535 109.301 96.002C106.16 106.687 101.16 110.562 98.7689 110.403C98.7689 107.979 106.243 109.159 109.301 93.002C112.359 76.8452 108.961 68.8802 107.263 70.4959C105.801 71.8858 109.301 77.2817 105.904 90.5302C102.506 103.779 98.1596 106.687 96.7304 106.687C96.0509 105.002 104.461 101.421 106.16 83.002C107.858 64.5833 99.7882 60.1556 98.7689 61.125C97.7496 62.0944 104.358 67.6816 103.16 82.502C102.14 95.1042 94.3522 102.163 92.9932 102.163C92.6596 100.871 98.7814 99.2548 101.16 89.2376C103.538 79.2205 100.128 82.002 99.6596 84.002C99.3845 85.1771 98.4292 88.3624 95.0316 94.502C91.6341 100.642 87.5572 100.871 87.5572 103.132C87.5572 105.394 89.2559 106.364 91.2944 108.626C93.333 110.888 97.0702 112.503 96.0509 116.381C95.0316 120.259 94.0124 121.551 95.0316 123.167C95.847 124.459 98.7689 125.429 100.128 125.752Z" fill="#F6C808"/>
<path d="M66.8325 99C64.7979 99 59.4796 98.6734 54.3007 111.602C50.5194 121.042 50.9137 135.514 53.4137 135.514C54.0849 135.514 52.743 129.905 55.8007 121.619C58.8585 113.334 62.346 111.602 64.3007 110.31C64.3007 113.541 59.1627 111.302 55.8007 124.75C52.3007 138.75 53.7622 148.042 55.8007 146.75C56.9315 146.033 54.5577 139.298 57.6591 128.75C60.8007 118.065 65.8007 114.19 68.1915 114.349C68.1915 116.772 60.7169 115.593 57.6591 131.75C54.6014 147.907 57.9989 155.872 59.6977 154.256C61.159 152.866 57.6591 147.47 61.0567 134.222C64.4542 120.973 68.8007 118.065 70.23 118.065C70.9095 119.75 62.4995 123.331 60.8007 141.75C59.102 160.169 67.1722 164.596 68.1915 163.627C69.2107 162.657 62.6021 157.07 63.8007 142.25C64.82 129.648 72.6082 122.589 73.9672 122.589C74.3007 123.881 68.179 125.497 65.8007 135.514C63.4225 145.531 66.8325 142.75 67.3007 140.75C67.5759 139.575 68.5312 136.389 71.9287 130.25C75.3263 124.11 79.4032 123.881 79.4032 121.619C79.4032 119.357 77.7045 118.388 75.6659 116.126C73.6274 113.864 69.8902 112.249 70.9095 108.371C71.9287 104.493 72.948 103.201 71.9287 101.585C71.1133 100.293 68.1915 99.3231 66.8325 99Z" fill="#F6C808"/>
</svg>
