<svg width="124" height="249" viewBox="0 0 124 249" fill="none" xmlns="http://www.w3.org/2000/svg">
<rect x="5.49805" y="5.5" width="113" height="238" rx="16.5" fill="#C5A869" stroke="#A68C55" stroke-width="11"/>
<path fill-rule="evenodd" clip-rule="evenodd" d="M67.6537 124.037C67.6537 127.857 64.6355 130.955 60.9125 130.955C57.1894 130.955 54.1713 127.857 54.1713 124.037C54.1713 120.216 57.1894 117.119 60.9125 117.119C62.9859 117.119 64.8408 118.08 66.0774 119.591C67.8285 121.731 66.9932 118.964 70.6566 118.964C72.4883 118.964 75.2358 120.557 75.2358 121.731C75.2358 122.834 74.4588 123.576 73.4042 123.576C72.0304 123.576 72.0304 121.731 70.6566 121.731C69.2829 121.731 67.6537 122.653 67.6537 124.037ZM60.9125 127.496C62.774 127.496 64.2831 125.947 64.2831 124.037C64.2831 122.127 62.774 120.578 60.9125 120.578C59.0509 120.578 57.5419 122.127 57.5419 124.037C57.5419 125.947 59.0509 127.496 60.9125 127.496Z" fill="black"/>
<path d="M55.7223 128.452C54.7536 127.254 54.1713 125.715 54.1713 124.037C54.1713 125.42 52.5421 126.343 51.1683 126.343C49.7945 126.343 49.7945 124.498 48.4207 124.498C47.3661 124.498 46.589 125.239 46.589 126.343C46.589 127.516 49.3366 129.11 51.1683 129.11C54.8317 129.11 53.9712 126.312 55.7223 128.452Z" fill="black"/>
<path d="M64.7035 183.067C64.7035 184.912 63.7877 186.756 61.498 186.756C59.6663 186.756 58.2926 185.373 58.2926 183.067L58.7505 141.1C58.7505 139.256 59.6663 137.872 61.498 137.872C63.3298 137.872 64.2456 139.256 64.2456 141.1L64.7035 183.067Z" fill="black"/>
<path d="M61.0401 62.2398C63.3298 62.2398 64.2456 64.0845 64.2456 65.9292L63.7877 107.896C63.7877 109.741 62.8718 111.124 61.0401 111.124C59.2084 111.124 58.2926 109.741 58.2926 107.896L57.8346 65.9292C57.8346 63.6233 59.2084 62.2398 61.0401 62.2398Z" fill="black"/>
<path d="M55.0872 138.623C56.0031 138.623 57.3768 136.606 57.3768 135.856C57.3768 135.105 52.7976 131.244 51.8817 131.244C50.9657 131.244 50.05 133.089 50.05 134.011C50.0499 134.933 54.1712 138.623 55.0872 138.623Z" fill="black"/>
<path d="M64.2831 112.046C64.2831 111.296 66.3326 109.279 66.9932 109.279C67.6537 109.279 72.0304 113.891 72.0305 114.642C72.0306 115.392 70.1989 116.948 69.7408 116.948C69.2828 116.948 64.2831 112.797 64.2831 112.046Z" fill="black"/>
<path d="M83.0205 105.59C85.7627 105.59 92.1446 104.137 100.88 121.731C101.72 123.424 111.87 150.785 106.375 154.013C105.584 154.478 104.085 143.24 99.9638 131.416C95.8425 119.591 90.8053 113.661 88.5156 117.119C86.226 120.578 93.5528 122.192 99.0479 141.1C104.543 160.008 102.711 171.538 99.9638 169.693C98.4397 168.67 100.422 158.625 95.3845 143.867C90.3473 129.11 85.7681 122.653 83.4784 125.882C81.1888 129.11 90.8053 130.032 94.9266 153.091C99.0479 176.149 94.9266 186.756 92.637 184.45C90.6674 182.467 95.3845 174.766 90.8053 155.858C86.226 136.95 80.7309 129.571 78.4412 132.799C76.1516 136.027 88.0577 140.178 90.3473 166.465C92.637 192.752 82.5626 199.208 81.1888 197.824C79.815 196.441 86.9257 189.461 85.3101 168.309C83.9364 150.324 74.778 137.411 73.4042 139.256C72.0303 141.1 77.9833 143.406 81.1888 157.702C84.3943 171.999 79.815 172.46 78.4412 171.538C77.0674 170.615 78.8992 162.775 74.3199 154.013C69.7406 145.251 66.0774 141.1 66.0774 137.872C66.0774 134.644 68.3669 133.26 71.1145 130.032C73.8621 126.804 78.8992 124.498 77.5254 118.964C76.1516 113.43 74.7778 111.585 76.1516 109.279C77.2506 107.435 81.1888 106.051 83.0205 105.59Z" fill="black"/>
<path d="M39.9756 143.41C37.2334 143.41 30.8515 144.863 22.1164 127.269C21.2759 125.576 11.1262 98.2152 16.6213 94.987C17.4124 94.5223 18.9109 105.76 23.0323 117.584C27.1536 129.409 32.1908 135.34 34.4805 131.881C36.7701 128.422 29.4433 126.808 23.9481 107.9C18.453 88.9918 20.2847 77.4625 23.0323 79.3072C24.5564 80.3304 22.5744 90.3753 27.6116 105.133C32.6488 119.89 37.228 126.347 39.5177 123.119C41.8073 119.89 32.1908 118.968 28.0695 95.9094C23.9481 72.8507 28.0695 62.2438 30.3591 64.5496C32.3287 66.5332 27.6116 74.2343 32.1908 93.1423C36.7701 112.05 42.2652 119.429 44.5549 116.201C46.8445 112.973 34.9384 108.822 32.6488 82.5354C30.3591 56.2485 40.4335 49.7921 41.8073 51.1756C43.1811 52.5592 36.0704 59.5392 37.6859 80.6907C39.0597 98.6764 48.2182 111.589 49.592 109.745C50.9658 107.9 45.0128 105.594 41.8073 91.2976C38.6018 77.0013 43.1811 76.5401 44.5549 77.4625C45.9286 78.3848 44.0969 86.2247 48.6762 94.987C53.2555 103.749 56.9188 107.9 56.9188 111.128C56.9188 114.356 54.6292 115.74 51.8817 118.968C49.1341 122.196 44.0969 124.502 45.4707 130.036C46.8445 135.57 48.2183 137.415 46.8445 139.721C45.7455 141.565 41.8073 142.949 39.9756 143.41Z" fill="black"/>
</svg>
