<svg width="124" height="249" viewBox="0 0 124 249" fill="none" xmlns="http://www.w3.org/2000/svg">
<rect x="5.49805" y="5.5" width="113" height="238" rx="16.5" fill="#C5A869" stroke="#A68C55" stroke-width="11"/>
<path d="M42.498 158.5L36.998 155L57.5536 124.884L44.9211 106.376C41.6967 109.967 40.0072 113.457 38.998 118.5C30.498 116 25.998 110 24.998 101C31.5641 101.415 35.8669 100.776 39.8861 98.9988L37.498 95.5L42.998 92L45.5522 95.7421C46.3403 95.2033 47.1512 94.6228 47.998 94L52.498 99.5C51.4942 100.306 50.5621 101.073 49.6962 101.814L61.498 119.105L73.2999 101.814C72.434 101.073 71.5019 100.306 70.498 99.5L74.998 94C75.8449 94.6228 76.6558 95.2033 77.4439 95.7421L79.998 92L85.498 95.5L83.11 98.9988C87.1292 100.776 91.432 101.415 97.998 101C96.998 110 92.498 116 83.998 118.5C82.9889 113.457 81.2994 109.967 78.075 106.376L65.4425 124.884L85.998 155L80.498 158.5L61.498 130.663L42.498 158.5Z" fill="black"/>
</svg>
