<svg width="167" height="247" viewBox="0 0 167 247" fill="none" xmlns="http://www.w3.org/2000/svg">
<path d="M143.896 105.247L82.7446 208.735L23.382 105.212L82.7204 30.3155L143.896 105.247Z" fill="#191516"/>
<path fill-rule="evenodd" clip-rule="evenodd" d="M82.498 0L0.498047 103.5L82.498 246.5L166.998 103.5L82.498 0ZM153.623 104.511L82.6408 224.636L13.7466 104.491L82.6268 17.5511L153.623 104.511Z" fill="#191516"/>
<path fill-rule="evenodd" clip-rule="evenodd" d="M82.6408 224.636L153.623 104.511L82.6268 17.5511L13.7466 104.491L82.6408 224.636ZM82.7446 208.735L143.896 105.247L82.7204 30.3155L23.382 105.212L82.7446 208.735Z" fill="#F6C808"/>
<path d="M60.4228 150L54.499 146.158L79.2502 109.198L68.2562 92.7808C64.7834 96.7233 60.5852 102.964 59.4983 108.5C49.4983 107 43.9983 99.5 44.4195 89.2895C51.4915 89.7446 58.5043 86.6339 62.8333 84.6829L60.2612 80.8421L66.185 77L68.9359 81.1079C69.7847 80.5164 70.6581 79.8792 71.5702 79.1955L76.417 85.2331C75.3358 86.1175 74.3318 86.9601 73.3992 87.7727L83.4986 102.854L93.598 87.7727C92.6654 86.9601 91.6615 86.1175 90.5802 85.2331L95.427 79.1955C96.3391 79.8792 97.2125 80.5164 98.0613 81.1079L100.812 77L106.736 80.8421L104.164 84.6829C108.493 86.6339 115.506 89.7446 122.578 89.2895C122.999 99.5 117.499 107 107.499 108.5C106.412 102.964 102.214 96.7233 98.741 92.7808L87.747 109.198L112.498 146.158L106.574 150L83.4986 115.542L60.4228 150Z" fill="#F6C808"/>
</svg>
