<svg width="125" height="249" viewBox="0 0 125 249" fill="none" xmlns="http://www.w3.org/2000/svg">
<rect x="5.99805" y="5.5" width="113" height="238" rx="16.5" fill="#C5A869" stroke="#A68C55" stroke-width="11"/>
<path d="M61.5008 67.0707C60.4672 69.4923 59.7289 72.475 59.2859 76.0483L58.9906 78.4403L57.4845 76.8456C56.008 75.2805 52.3756 72.6226 51.6964 72.6226C50.9286 72.6226 51.785 78.145 53.0253 80.9505C53.9703 83.0472 55.5945 85.5869 56.9825 87.0044L57.898 87.9789H55.4173C53.6454 87.9789 52.8186 88.0971 52.5823 88.3924C52.3461 88.6582 52.2575 89.6622 52.3165 91.1388L52.4051 93.4422L55.7422 93.5308C57.5436 93.5604 59.0497 93.6785 59.0497 93.7671C59.0497 93.8557 58.6658 94.2396 58.2228 94.6235C56.7758 95.8343 55.7126 98.1968 55.7126 100.116C55.7126 102.124 56.8053 104.576 58.1933 105.639C59.2269 106.466 61.8256 107.47 62.8888 107.47C63.7156 107.47 65.2513 106.938 66.5802 106.229C69.1494 104.841 70.3602 101.681 69.6514 98.2854C69.3857 96.986 69.0313 96.4249 67.8796 95.2437C67.0822 94.4463 66.4325 93.7671 66.4325 93.708C66.4325 93.649 67.9682 93.5899 69.8286 93.5899H73.2543L73.0771 88.1266L67.9091 87.9494L69.3561 86.2366C71.9844 83.0472 73.5201 79.6511 74.1107 75.7234C74.4946 72.9475 74.4946 72.6226 73.9335 72.6226C73.1952 72.6226 70.0058 74.9556 68.2044 76.8161L66.4916 78.5584L66.2849 76.1073C66.1667 74.7489 65.901 72.7703 65.6647 71.6776C65.0741 69.0789 63.4203 65.1217 62.8592 65.0035C62.5639 64.9445 62.1209 65.6237 61.5008 67.0707Z" fill="black"/>
<path d="M96.9385 95.7752C96.3183 96.2773 94.9599 97.3699 93.8968 98.1968C92.8336 99.0237 89.7919 101.416 87.1045 103.512C79.8989 109.212 66.344 119.607 63.7748 121.438L62.623 122.265L56.9235 117.953C51.9917 114.232 49.7474 112.52 43.8116 107.913C39.4409 104.546 33.8595 100.146 30.9359 97.8129C29.0459 96.3068 27.274 95.0665 27.0377 95.0665C26.5357 95.0665 24.498 97.4585 24.498 98.0492C24.498 98.2854 26.6538 100.264 29.3117 102.449C31.9399 104.635 35.9562 107.972 38.2301 109.891C47.06 117.245 53.675 122.737 55.5946 124.273C56.6872 125.159 57.5732 125.956 57.5732 126.074C57.5732 126.163 56.9825 126.813 56.2738 127.492C55.565 128.171 54.6791 129.382 54.3247 130.15C52.6414 133.812 52.2575 134.107 48.8024 134.255C47.3553 134.343 45.8788 134.52 45.4653 134.668C45.0519 134.845 42.4236 137.798 39.559 141.342C36.724 144.827 34.1548 147.957 33.889 148.282C33.2393 149.05 33.4461 149.611 35.9857 153.361C38.3778 156.905 39.2342 158.529 39.7067 160.301L40.0315 161.63L40.6517 160.744C40.9765 160.272 42.4826 157.496 43.9887 154.572C48.5956 145.595 50.5447 141.903 50.84 141.519C50.9877 141.342 52.3461 140.692 53.8818 140.102C55.3879 139.511 57.1893 138.655 57.8685 138.153C59.1974 137.178 60.231 135.229 60.231 133.664C60.231 132.099 60.4968 131.567 61.678 130.74L62.8002 129.943L63.8929 130.888C64.8674 131.744 64.9855 132.04 65.2218 133.959C65.399 135.318 65.7238 136.41 66.1077 136.971C66.846 137.976 68.736 139.127 71.4529 140.131C72.516 140.545 73.6678 141.047 73.9926 141.283C74.347 141.519 75.2625 142.937 76.0303 144.443C76.7981 145.949 78.0679 148.371 78.8358 149.847C79.6036 151.294 81.1983 154.365 82.3795 156.639C83.5608 158.913 84.6534 160.951 84.8011 161.128C85.2736 161.689 85.5394 161.335 85.7461 159.947C85.9528 158.677 87.0159 156.669 89.408 153.214C90.5892 151.53 91.8296 149.345 91.8296 148.991C91.8296 148.902 91.1799 148.075 90.412 147.13C89.6442 146.185 87.2817 143.291 85.185 140.692C83.0883 138.094 81.1687 135.761 80.903 135.495C80.1056 134.639 79.1901 134.343 77.2706 134.343C76.2075 134.343 74.9376 134.255 74.4356 134.166C73.1362 133.9 71.8664 132.542 71.2462 130.711C70.8623 129.618 70.2421 128.703 69.1199 127.61C68.234 126.754 67.5843 126.015 67.6434 125.986C67.8206 125.868 76.5618 118.573 76.9457 118.249C77.1229 118.071 77.7136 117.599 78.2747 117.156C78.8358 116.743 81.9956 114.085 85.3327 111.309C88.6697 108.533 91.9772 105.757 92.7155 105.166C95.9935 102.508 100.984 98.2263 100.984 98.1082C100.984 97.8424 98.7694 95.096 98.415 94.9484C98.2379 94.8893 97.5882 95.2437 96.9385 95.7752Z" fill="black"/>
<path d="M63.1842 156.226C63.1842 158.116 60.4968 160.981 56.1262 163.727C55.0926 164.377 53.7932 165.351 53.2026 165.912C51.8737 167.212 50.781 169.722 50.781 171.494C50.781 172.882 50.781 172.882 49.1863 173.709C47.3849 174.654 43.4572 177.902 42.6599 179.113C41.7444 180.501 42.0988 182.775 43.2505 182.775C43.4572 182.775 44.166 182.066 44.8452 181.18C45.5244 180.294 46.8238 178.877 47.7393 178.02L49.393 176.455L49.9837 177.341C52.0804 180.265 56.2148 182.982 59.7586 183.808C62.3869 184.399 65.6058 184.635 66.1373 184.251C66.5212 183.986 66.4031 183.779 65.399 182.982C64.7494 182.48 63.45 181.328 62.4459 180.442C60.3492 178.581 58.784 177.754 55.8014 176.898C52.0213 175.805 51.3717 175.599 51.3717 175.392C51.3717 174.801 54.6201 173.856 57.1598 173.709C59.7586 173.561 59.8767 173.561 60.0834 174.181C60.4378 175.274 63.0661 178.197 64.5722 179.172C68.618 181.771 73.9041 182.539 76.3847 180.944C77.6546 180.117 78.2452 179.349 78.2452 178.522C78.2452 178.138 78.0975 178.109 77.0049 178.522C75.4692 179.054 74.5242 178.877 73.3725 177.784C71.7188 176.278 70.1536 175.422 68.2045 175.097C66.4326 174.772 64.454 174.034 64.7198 173.768C64.897 173.591 71.8664 174.181 73.786 174.506C76.5028 175.008 79.2197 174.86 81.1097 174.181C82.7635 173.561 84.9488 172.084 86.0119 170.844C87.459 169.131 87.7838 166.592 86.8093 164.347C86.1596 162.841 85.7166 162.634 85.4508 163.727C85.0669 165.292 81.3755 167.743 78.0975 168.6C75.9122 169.19 74.0222 170.194 72.9886 171.405C72.0436 172.439 72.0141 172.468 70.0355 172.38L68.0569 172.291L69.9173 171.287C72.5456 169.87 75.4988 167.271 76.68 165.292C77.5069 163.963 77.7432 163.196 77.8613 161.689C77.9499 160.567 77.9203 159.74 77.7432 159.74C77.5955 159.74 76.8867 160.361 76.178 161.099C74.6424 162.634 72.6047 163.904 69.2381 165.322C65.9897 166.71 63.8339 168.216 62.7708 169.811C62.2687 170.549 61.7372 171.346 61.56 171.582C61.3237 171.907 60.4968 171.966 57.4256 171.848L53.5865 171.701L55.3584 170.49C56.3329 169.84 58.2525 168.718 59.6109 167.98C60.9398 167.271 62.8298 165.971 63.7748 165.115C65.6944 163.402 66.2555 161.955 65.842 159.77C65.4581 157.585 63.1842 154.572 63.1842 156.226Z" fill="black"/>
</svg>
