<svg width="167" height="247" viewBox="0 0 167 247" fill="none" xmlns="http://www.w3.org/2000/svg">
<path d="M143.396 105.247L82.2446 208.735L22.882 105.212L82.2204 30.3155L143.396 105.247Z" fill="#19624E"/>
<path fill-rule="evenodd" clip-rule="evenodd" d="M81.998 0L-0.00195312 103.5L81.998 246.5L166.498 103.5L81.998 0ZM153.123 104.511L82.1408 224.636L13.2466 104.491L82.1268 17.5511L153.123 104.511Z" fill="#19624E"/>
<path fill-rule="evenodd" clip-rule="evenodd" d="M82.1408 224.636L153.123 104.511L82.1268 17.5511L13.2466 104.491L82.1408 224.636ZM82.2446 208.735L143.396 105.247L82.2204 30.3155L22.882 105.212L82.2446 208.735Z" fill="#F6C808"/>
<path d="M81.7331 56.1028C80.6791 58.5619 79.9262 61.5908 79.4744 65.2195L79.1733 67.6486L77.6374 66.0292C76.1316 64.4398 72.4273 61.7408 71.7347 61.7408C70.9517 61.7408 71.825 67.3487 73.0899 70.1977C74.0536 72.3269 75.71 74.906 77.1254 76.3454L78.059 77.3351H75.5293C73.7223 77.3351 72.8791 77.455 72.6381 77.7549C72.3972 78.0248 72.3069 79.0445 72.3671 80.5439L72.4575 82.8831L75.8605 82.973C77.6976 83.003 79.2335 83.123 79.2335 83.2129C79.2335 83.3029 78.842 83.6928 78.3903 84.0826C76.9146 85.3122 75.8304 87.7113 75.8304 89.6606C75.8304 91.6998 76.9447 94.1889 78.3602 95.2685C79.4142 96.1082 82.0644 97.1279 83.1486 97.1279C83.9918 97.1279 85.5578 96.588 86.913 95.8683C89.5331 94.4588 90.7679 91.25 90.0451 87.8013C89.7741 86.4817 89.4127 85.9119 88.2381 84.7124C87.425 83.9027 86.7625 83.2129 86.7625 83.153C86.7625 83.093 88.3285 83.033 90.2258 83.033H93.7192L93.5385 77.485L88.2683 77.3051L89.7439 75.5657C92.4242 72.3269 93.9903 68.8782 94.5926 64.8896C94.9841 62.0707 94.9841 61.7408 94.4119 61.7408C93.659 61.7408 90.4065 64.1099 88.5694 65.9992L86.8227 67.7686L86.6119 65.2795C86.4914 63.9 86.2204 61.8907 85.9795 60.7811C85.3771 58.1421 83.6907 54.1236 83.1185 54.0036C82.8173 53.9436 82.3656 54.6334 81.7331 56.1028Z" fill="#F6C808"/>
<path d="M117.872 85.2522C117.24 85.762 115.854 86.8716 114.77 87.7113C113.686 88.551 110.584 90.9801 107.844 93.1093C100.495 98.8972 86.6722 109.453 84.0521 111.313L82.8776 112.152L77.0652 107.774C72.0359 103.995 69.7471 102.256 63.6938 97.5777C59.2367 94.159 53.5448 89.6906 50.5633 87.3214C48.6359 85.792 46.8289 84.5325 46.588 84.5325C46.076 84.5325 43.998 86.9616 43.998 87.5614C43.998 87.8013 46.1965 89.8105 48.9069 92.0297C51.5872 94.2489 55.683 97.6377 58.0019 99.587C67.0065 107.054 73.7525 112.632 75.71 114.192C76.8243 115.091 77.7278 115.901 77.7278 116.021C77.7278 116.111 77.1255 116.771 76.4027 117.46C75.6799 118.15 74.7764 119.38 74.415 120.159C72.6984 123.878 72.3069 124.178 68.7834 124.328C67.3077 124.418 65.8019 124.598 65.3803 124.748C64.9587 124.928 62.2784 127.927 59.3571 131.525C56.466 135.064 53.8459 138.243 53.5749 138.573C52.9123 139.352 53.1231 139.922 55.7131 143.731C58.1525 147.33 59.0258 148.979 59.5077 150.778L59.839 152.128L60.4714 151.228C60.8027 150.748 62.3386 147.929 63.8745 144.96C68.5726 135.844 70.5602 132.095 70.8614 131.705C71.0119 131.525 72.3973 130.866 73.9633 130.266C75.4992 129.666 77.3363 128.796 78.0289 128.286C79.3842 127.297 80.4382 125.318 80.4382 123.728C80.4382 122.139 80.7092 121.599 81.9139 120.759L83.0583 119.95L84.1726 120.909C85.1664 121.779 85.2868 122.079 85.5278 124.028C85.7085 125.408 86.0397 126.517 86.4313 127.087C87.1842 128.107 89.1116 129.276 91.8822 130.296C92.9664 130.716 94.1409 131.225 94.4722 131.465C94.8336 131.705 95.7672 133.145 96.5502 134.674C97.3332 136.204 98.6282 138.663 99.4112 140.162C100.194 141.632 101.82 144.75 103.025 147.06C104.23 149.369 105.344 151.438 105.495 151.618C105.976 152.188 106.247 151.828 106.458 150.418C106.669 149.129 107.753 147.09 110.193 143.581C111.397 141.872 112.662 139.652 112.662 139.292C112.662 139.203 112 138.363 111.217 137.403C110.434 136.444 108.024 133.505 105.886 130.866C103.748 128.227 101.79 125.857 101.519 125.587C100.706 124.718 99.7726 124.418 97.815 124.418C96.7309 124.418 95.4359 124.328 94.9239 124.238C93.5988 123.968 92.3038 122.589 91.6714 120.729C91.2799 119.62 90.6475 118.69 89.5031 117.58C88.5996 116.711 87.937 115.961 87.9973 115.931C88.178 115.811 97.0923 108.404 97.4838 108.074C97.6645 107.894 98.2668 107.414 98.839 106.964C99.4112 106.544 102.634 103.845 106.037 101.026C109.44 98.2075 112.813 95.3885 113.566 94.7887C116.908 92.0897 121.998 87.7413 121.998 87.6213C121.998 87.3514 119.739 84.5625 119.378 84.4125C119.197 84.3525 118.535 84.7124 117.872 85.2522Z" fill="#F6C808"/>
<path d="M84.4224 145.35C84.4224 147.27 87.1629 150.179 91.6201 152.968C92.6741 153.627 93.9992 154.617 94.6015 155.187C95.9568 156.506 97.071 159.055 97.071 160.855C97.071 162.264 97.071 162.264 98.6973 163.104C100.534 164.064 104.06 168.034 102.288 169.434C101.831 169.796 101.107 168.352 100.173 167.482L98.4865 165.893L97.8842 166.793C95.7459 169.762 91.5297 172.521 87.9158 173.36C85.2355 173.96 81.9529 174.2 81.4108 173.81C81.0193 173.54 81.1398 173.33 82.1637 172.521C82.7847 172.043 83.9876 170.985 84.9791 170.114L85.1753 169.941C87.3135 168.052 88.9096 167.212 91.9513 166.343C95.8062 165.233 96.4687 165.023 96.4687 164.813C96.4687 164.214 93.156 163.254 90.566 163.104C87.9158 162.954 87.7954 162.954 87.5845 163.584C87.2232 164.693 84.5429 167.662 83.0069 168.652C78.8811 171.291 73.4903 172.071 70.9606 170.451C69.6656 169.612 69.0633 168.832 69.0633 167.992C69.0633 167.602 69.2139 167.572 70.3282 167.992C71.8942 168.532 72.8579 168.352 74.0324 167.242C75.7189 165.713 77.3151 164.843 79.3027 164.513C81.1096 164.184 83.1274 163.434 82.8564 163.164C82.6757 162.984 75.5683 163.584 73.6108 163.914C70.8402 164.423 68.0695 164.274 66.1421 163.584C64.4556 162.954 62.227 161.455 61.1429 160.195C59.6672 158.456 59.3359 155.877 60.3297 153.597C60.9923 152.068 61.444 151.858 61.7151 152.968C62.1066 154.557 65.871 157.046 69.2139 157.916C71.4425 158.516 73.3699 159.535 74.4239 160.765C75.3876 161.814 75.4178 161.844 77.4355 161.754L79.4533 161.664L77.556 160.645C74.8757 159.205 71.8641 156.566 70.6595 154.557C69.8162 153.208 69.5753 152.428 69.4548 150.898C69.3645 149.759 69.3946 148.919 69.5753 148.919C69.7259 148.919 70.4486 149.549 71.1714 150.299C72.7374 151.858 74.8154 153.148 78.2486 154.587C81.5614 155.997 83.7598 157.526 84.844 159.145C85.356 159.895 85.8981 160.705 86.0788 160.945C86.3197 161.275 87.1629 161.335 90.295 161.215L94.21 161.065L92.4031 159.835C91.4093 159.175 89.4517 158.036 88.0664 157.286C86.7112 156.566 84.7838 155.247 83.8201 154.377C81.8625 152.638 81.2903 151.168 81.712 148.949C82.1035 146.73 84.4224 143.671 84.4224 145.35Z" fill="#F6C808"/>
</svg>
