<svg width="167" height="247" viewBox="0 0 167 247" fill="none" xmlns="http://www.w3.org/2000/svg">
<path d="M143.896 105.247L82.7446 208.735L23.382 105.212L82.7204 30.3155L143.896 105.247Z" fill="#462553"/>
<path fill-rule="evenodd" clip-rule="evenodd" d="M82.498 0L0.498047 103.5L82.498 246.5L166.998 103.5L82.498 0ZM153.623 104.511L82.6408 224.636L13.7466 104.491L82.6268 17.5511L153.623 104.511Z" fill="#462553"/>
<path fill-rule="evenodd" clip-rule="evenodd" d="M82.6408 224.636L153.623 104.511L82.6268 17.5511L13.7466 104.491L82.6408 224.636ZM82.7446 208.735L143.896 105.247L82.7204 30.3155L23.382 105.212L82.7446 208.735Z" fill="#F6C808"/>
<path d="M83.9981 187.5C87.5879 187.5 90.4981 184.159 90.4981 180.037C90.4981 177.439 89.3417 175.15 87.5876 173.814C87.3748 173.684 87.193 173.561 87.0423 173.441C86.2207 172.79 86.3197 172.26 87.321 171.526C87.3772 171.485 87.4362 171.443 87.4981 171.4C89.3022 170.074 90.4981 167.753 90.4981 165.11C90.4981 162.247 89.0935 159.76 87.0322 158.509C86.2203 157.86 86.3223 157.332 87.3198 156.601C87.376 156.559 88.4362 156.043 88.498 156H79.498C79.5384 156.028 80.6107 156.556 80.6487 156.583C81.8013 157.412 81.8626 157.852 80.8984 158.549L80.8954 158.551C80.7869 158.629 80.6655 158.711 80.5313 158.796C80.6501 158.71 80.7716 158.628 80.8954 158.551L80.8984 158.549C78.873 159.813 77.4981 162.277 77.4981 165.11C77.4981 167.769 78.7091 170.103 80.5324 171.425C80.5727 171.454 80.6119 171.481 80.6498 171.509C81.8036 172.338 81.8639 172.779 80.8966 173.476C80.7881 173.555 80.6666 173.636 80.5324 173.722C78.7091 175.044 77.4981 177.378 77.4981 180.037C77.4981 184.159 80.4082 187.5 83.9981 187.5Z" fill="#F6C808"/>
<path d="M76.998 128.251H74.998H71.998H49.998H46.998H43.498C43.498 128.251 47.498 136.251 60.498 136.251C73.498 136.251 76.998 128.251 76.998 128.251Z" fill="#F6C808"/>
<path d="M65.9981 146H71.4981C71.4981 148.5 73.9981 151 76.4981 151H90.4981C93.4981 151 95.4981 149 95.4981 146H100.498C100.498 151 95.4981 156 90.4981 156H76.4981C71.4981 156 65.9981 151 65.9981 146Z" fill="#F6C808"/>
<path d="M90.9725 128.251H92.9725H95.9725H117.972H120.972H124.472C124.472 128.251 120.472 136.251 107.472 136.251C94.4725 136.251 90.9725 128.251 90.9725 128.251Z" fill="#F6C808"/>
<path d="M79.4981 151H88.4981L87.1762 93.5L95.4725 87H105.972L92.9725 128.251H95.9725L107.972 91L117.972 128.251H120.972L109.972 87C114.472 87 117.972 85.5 117.972 82.5C117.972 82.5 117.972 78 114.472 78C110.972 78 110.972 81 110.972 82.5H89.9725C88.5662 82.5 87.0911 81.1816 86.87 79.3689C86.8553 79.2481 86.8461 79.1249 86.8429 79L85.9981 42.2511C85.9981 39.2496 81.9981 39.2497 81.9981 42.2511L81.0558 79C81.0045 81 79.498 82.5 77.998 82.5H56.998C56.998 81 56.998 78 53.498 78C49.998 78 49.998 82.5 49.998 82.5C49.998 85.5 53.498 87 57.998 87L46.998 128.251H49.998L59.998 91L71.998 128.251H74.998L61.998 87H72.498L80.684 93.5L79.4981 151Z" fill="#F6C808"/>
</svg>
