<svg width="125" height="249" viewBox="0 0 125 249" fill="none" xmlns="http://www.w3.org/2000/svg">
<rect x="5.99805" y="5.5" width="113" height="238" rx="16.5" fill="#C5A869" stroke="#A68C55" stroke-width="11"/>
<path d="M60.998 192.25C64.5879 192.25 67.498 189.34 67.498 185.75C67.498 183.487 66.3417 181.494 64.5876 180.33C64.3747 180.217 64.193 180.11 64.0422 180.006C63.2206 179.438 63.3197 178.977 64.3209 178.338C64.3771 178.302 64.4362 178.265 64.498 178.228C66.3022 177.073 67.498 175.051 67.498 172.75C67.498 170.256 66.0935 168.09 64.0322 167C63.2202 166.436 63.3222 165.976 64.3198 165.339C64.376 165.303 64.4351 165.288 64.4969 165.251H57.5312C57.5716 165.276 57.6107 165.3 57.6487 165.323C58.8012 166.045 58.8626 166.429 57.8984 167.035L57.8954 167.037C57.7869 167.105 57.6655 167.176 57.5312 167.251C57.6501 167.176 57.7715 167.105 57.8954 167.037L57.8984 167.035C55.8729 168.136 54.498 170.283 54.498 172.75C54.498 175.066 55.7091 177.099 57.5324 178.25C57.5727 178.275 57.6118 178.299 57.6498 178.323C58.8035 179.045 58.8638 179.429 57.8965 180.036C57.788 180.105 57.6666 180.176 57.5324 180.25C55.7091 181.402 54.498 183.434 54.498 185.75C54.498 189.34 57.4082 192.25 60.998 192.25Z" fill="black"/>
<path d="M50.498 133.751H16.998C18.998 140.251 24.498 145.251 33.498 145.251C42.498 145.251 48.498 140.751 50.498 133.751Z" fill="black"/>
<path d="M43.498 153.251H48.998C48.998 155.751 51.498 158.251 53.998 158.251H67.998C70.998 158.251 72.998 156.251 72.998 153.251H77.998C77.998 158.251 72.998 163.251 67.998 163.251H53.998C48.998 163.251 43.498 158.251 43.498 153.251Z" fill="black"/>
<path d="M18.998 131.751L31.998 96.7511H36.998L48.998 131.751H43.998L34.498 101.251L23.998 131.751H18.998Z" fill="black"/>
<path d="M56.998 156.751H65.998L63.498 59.2511C63.498 56.2496 59.498 56.2497 59.498 59.2511L56.998 156.751Z" fill="black"/>
<path d="M57.498 90.7496C56.5634 93.3199 56.3463 94.9632 56.498 98.2496C52.998 95.7496 48.498 94.7496 42.498 94.2496C36.498 93.7496 28.998 93.2496 28.998 93.2496C26.498 93.2496 26.498 90.2496 28.998 90.2496C40.3374 90.8264 46.6624 91.09 57.498 90.7496Z" fill="black"/>
<path d="M28.998 87.7496H39.498C39.498 87.7496 38.998 84.7496 34.498 84.7496C29.998 84.7496 28.998 87.7496 28.998 87.7496Z" fill="black"/>
<path d="M73.998 133.751H107.498C105.498 140.251 99.998 145.251 90.998 145.251C81.998 145.251 75.998 140.751 73.998 133.751Z" fill="black"/>
<path d="M105.498 131.751L92.498 96.751H87.498L75.498 131.751H80.498L89.998 101.251L100.498 131.751H105.498Z" fill="black"/>
<path d="M65.498 90.7495C66.4327 93.3198 66.6498 94.9631 66.498 98.2495C69.998 95.7495 74.498 94.7495 80.498 94.2495C86.498 93.7495 93.998 93.2495 93.998 93.2495C96.498 93.2495 96.498 90.2495 93.998 90.2495C82.6587 90.8263 76.3337 91.09 65.498 90.7495Z" fill="black"/>
<path d="M95.498 87.7495H84.998C84.998 87.7495 85.498 84.7495 89.998 84.7495C94.498 84.7495 95.498 87.7495 95.498 87.7495Z" fill="black"/>
</svg>
