<svg width="167" height="247" viewBox="0 0 167 247" fill="none" xmlns="http://www.w3.org/2000/svg">
<path d="M143.896 105.247L82.7446 208.735L23.382 105.212L82.7204 30.3155L143.896 105.247Z" fill="#661F45"/>
<path fill-rule="evenodd" clip-rule="evenodd" d="M82.498 0L0.498047 103.5L82.498 246.5L166.998 103.5L82.498 0ZM153.623 104.511L82.6408 224.636L13.7466 104.491L82.6268 17.5511L153.623 104.511Z" fill="#661F45"/>
<path fill-rule="evenodd" clip-rule="evenodd" d="M82.6408 224.636L153.623 104.511L82.6268 17.5511L13.7466 104.491L82.6408 224.636ZM82.7446 208.735L143.896 105.247L82.7204 30.3155L23.382 105.212L82.7446 208.735Z" fill="#F6C808"/>
<path fill-rule="evenodd" clip-rule="evenodd" d="M119.188 123.299C119.188 123.299 119.187 123.296 119.183 123.29C119.186 123.296 119.188 123.299 119.188 123.299Z" fill="#F6C808"/>
<path fill-rule="evenodd" clip-rule="evenodd" d="M123.386 87.8812C126.228 91.029 126.057 95.9571 123.006 98.8884L113.009 108.477L123.386 118.446C126.438 121.377 125.837 125.736 123.767 129.453L111.997 151.047C110.11 154.293 103.725 155.277 100.674 152.345L83.9722 136.327L66.3224 153.255C63.2712 156.186 56.8861 155.202 54.9988 151.957L43.2296 130.363C41.1589 126.645 40.5585 122.287 43.6097 119.355L53.5903 109.767L54.9342 108.476L43.9899 97.9789C40.9387 95.0476 40.7685 90.1195 43.6098 86.9716L60.2999 68.4807C63.1412 65.3329 67.918 65.1573 70.9692 68.0886L83.9714 80.5798L96.0269 68.9981C99.0781 66.0668 103.855 66.2424 106.696 69.3902L123.386 87.8812ZM60.2062 148.269C60.3821 148.348 60.6561 148.437 61.0039 148.482C61.428 148.537 61.7901 148.504 62.0236 148.444C62.072 148.432 62.1081 148.42 62.1335 148.411L79.3525 131.896L59.5536 112.906L58.12 114.284L58.0925 114.31L47.8968 124.105C47.8455 124.154 47.822 124.185 47.8129 124.199C47.8074 124.217 47.7867 124.296 47.7892 124.468C47.7963 124.969 48.0032 125.907 48.684 127.129L48.6987 127.155L60.2062 148.269ZM118.719 94.1387L118.72 94.1373C119.228 93.6486 119.256 92.8283 118.782 92.3041L102.092 73.8132C101.619 73.2885 100.823 73.2593 100.314 73.7478L88.587 85.014L108.394 104.042L118.719 94.1387ZM106.79 147.36C106.614 147.439 106.34 147.528 105.992 147.572C105.568 147.627 105.206 147.594 104.973 147.535C104.924 147.522 104.888 147.511 104.863 147.502L88.5919 131.896L108.39 112.907L119.099 123.196C119.151 123.245 119.174 123.276 119.183 123.29C119.187 123.296 119.188 123.299 119.188 123.299C119.188 123.299 119.186 123.296 119.183 123.29C119.189 123.307 119.209 123.387 119.207 123.559C119.2 124.06 118.993 124.997 118.312 126.219L118.297 126.246L106.79 147.36ZM48.277 93.2291L48.2756 93.2278C47.7685 92.7391 47.7406 91.9188 48.2137 91.3946L64.9038 72.9037C65.3773 72.379 66.1735 72.3498 66.682 72.8383L79.3558 85.014L59.5501 104.041L48.277 93.2291ZM103.774 108.473L83.9722 127.465L64.1695 108.472L83.9714 89.4482L103.774 108.473Z" fill="#F6C808"/>
</svg>
