<svg width="124" height="249" viewBox="0 0 124 249" fill="none" xmlns="http://www.w3.org/2000/svg">
<rect x="5.49805" y="5.5" width="113" height="238" rx="16.5" fill="#C5A869" stroke="#A68C55" stroke-width="11"/>
<path d="M89.6418 112.677L89.6407 112.678L82.4978 119.318L86.1846 122.718L93.0481 116.337C95.4731 114.079 95.6084 110.282 93.3501 107.857L80.0849 93.6118C77.8267 91.1867 74.0301 91.0515 71.605 93.3097L62.0233 102.232L65.6918 105.648L75.0124 96.9689C75.4166 96.5925 76.0494 96.6151 76.4258 97.0192L89.691 111.265C90.067 111.668 90.0449 112.3 89.6418 112.677Z" fill="black"/>
<path d="M80.2686 128.218L76.6899 124.718L62.024 138.352L65.6957 141.766L80.2686 128.218Z" fill="black"/>
<path fill-rule="evenodd" clip-rule="evenodd" d="M33.9887 138.114L43.1348 154.38C43.2746 154.441 43.4924 154.509 43.7688 154.544C44.1059 154.586 44.3937 154.56 44.5793 154.514C44.6177 154.505 44.6464 154.496 44.6666 154.489L58.3523 141.766L62.024 138.352L65.6957 141.766L62.024 145.179L47.996 158.221C45.5709 160.479 40.496 159.721 38.996 157.221L29.6419 140.584C27.9961 137.721 27.5189 134.363 29.9439 132.105L37.8765 124.718L41.4767 128.197L41.4549 128.218L33.3514 135.764C33.3106 135.802 33.2919 135.826 33.2847 135.836C33.2803 135.85 33.2638 135.911 33.2658 136.043C33.2715 136.43 33.4359 137.152 33.977 138.093L33.9887 138.114ZM42.6161 127.136L46.2848 123.72L42.6133 120.307L38.9447 123.723L42.6161 127.136ZM47.3612 122.718L43.7829 119.218L58.3549 105.648L62.0233 102.232L65.6918 105.648L62.0233 109.064L47.3612 122.718ZM81.4311 127.137L77.7625 123.721L81.4339 120.307L85.1026 123.724L81.4311 127.137Z" fill="black"/>
<path fill-rule="evenodd" clip-rule="evenodd" d="M89.3055 137.413L80.1594 153.679C80.0196 153.74 79.8018 153.808 79.5254 153.843C79.1883 153.885 78.9005 153.86 78.715 153.814C78.6765 153.804 78.6478 153.795 78.6276 153.788L66.9978 142.976L63.3237 146.388L75.2983 157.52C77.7233 159.778 82.7983 159.02 84.2983 156.52L93.6524 139.884C95.2981 137.02 95.7754 133.662 93.3503 131.404L85.1026 123.724L81.4339 120.307L66.9978 106.864L63.3821 110.33L77.7625 123.721L81.4311 127.137L89.9428 135.063C89.9836 135.101 90.0023 135.125 90.0095 135.136C90.0139 135.149 90.0304 135.211 90.0284 135.343C90.0227 135.729 89.8583 136.451 89.3172 137.393L89.3055 137.413ZM90.0134 135.143C90.0134 135.143 90.0124 135.14 90.0095 135.136C90.0114 135.14 90.0134 135.143 90.0134 135.143ZM62.0233 102.232L65.6918 105.648L62.0233 109.064L58.3549 105.648L62.0233 102.232ZM60.8029 101.096L51.6892 92.609C49.2641 90.3508 45.4675 90.486 43.2093 92.9111L29.944 107.156C27.6858 109.581 27.821 113.378 30.2461 115.636L38.9447 123.723L42.6161 127.136L56.9978 140.507L60.6757 137.099L46.2848 123.72L42.6133 120.307L33.6535 111.977L33.6524 111.976C33.2493 111.6 33.2272 110.968 33.6032 110.564L46.8685 96.3185C47.2448 95.9144 47.8776 95.8918 48.2818 96.2682L57.1204 104.499L60.8029 101.096ZM62.024 138.352L58.3523 141.766L62.024 145.179L65.6957 141.766L62.024 138.352Z" fill="black"/>
</svg>
