<svg width="125" height="249" viewBox="0 0 125 249" fill="none" xmlns="http://www.w3.org/2000/svg">
<rect x="5.99805" y="5.5" width="113" height="238" rx="16.5" fill="#C5A869" stroke="#A68C55" stroke-width="11"/>
<path fill-rule="evenodd" clip-rule="evenodd" d="M58.9982 237.5H65.9982C66.304 231.231 65.7961 217.189 61.6943 207.5C63.5373 204.7 65.998 202.667 66.998 202C68.998 202.5 72.6647 201.5 74.998 199.5C77.3314 197.5 78.998 191.5 76.498 189.5C73.998 187.5 69.498 189.5 66.998 191.5C64.498 193.5 62.498 196.5 63.498 199.5C62.2238 200.346 61.3856 201.234 59.6868 203.5C58.9333 202.103 58.227 200.778 57.5776 199.5C53.7125 189.5 71.498 178.5 79.998 177.5C88.498 176.5 109.498 167.5 109.498 150.5C109.498 138.5 107.998 137.5 106.498 137C104.998 136.5 99.998 145 87.998 147C77.498 148.75 49.498 167.5 53.998 190.684C52.5737 185.302 52.7788 179.658 55.4982 171.5C56.0509 169.842 56.6159 168.177 57.1837 166.505C59.123 160.792 61.0945 154.984 62.7213 149C64.8684 141.839 76.7138 139.359 87.998 132C99.498 124.5 104.998 111 104.998 102C104.998 93 100.498 76 97.998 76C95.498 76 94.498 82.2522 88.998 87C83.498 91.7478 72.1855 101 72.1855 115.5C72.1855 127.1 67.7943 133.667 65.5986 135.5C66.1681 131.597 66.498 127.604 66.498 123.5C66.498 106.635 67.4268 104.165 70.1796 96.8476C70.2831 96.5723 70.3893 96.2901 70.498 96C71.1263 94.3245 71.6888 92.9561 72.1855 91.7478C74.0605 87.1864 74.998 84.9057 74.998 77C74.998 71.641 73.4185 67.8616 71.9524 64.3535C70.6827 61.3153 69.498 58.4808 69.498 55V27.5C69.498 20.5 63.498 15 58.998 13C59.498 21 53.998 32.5 48.498 39.5C42.998 46.5 38.498 56.0001 38.498 65.5001C38.498 75.0001 45.998 89.0001 50.998 97.5001C55.998 106 59.998 116.5 59.998 127C56.5232 112.311 51.828 109.755 44.998 102C44.998 102 44.998 96.5 41.998 93.9973C38.998 91.4945 33.998 90 31.498 93C28.998 96 30.498 101 33.998 103.5C37.498 106 43.498 104.5 43.498 104.5C51.6753 112.908 56.4676 117.212 58.998 136.912C58.0818 141.902 56.5613 147.481 54.5413 154C55.0846 147 52.8166 121.5 43.498 113.5C33.0147 104.5 18.998 103 17.998 106C16.998 109 22.998 108.5 22.998 121.5C22.998 126 22.998 137 36.998 144C48.198 149.6 50.998 160.324 50.998 164.986C50.5143 166.448 50.0141 167.952 49.498 169.5C48.9153 171.248 48.433 172.912 48.0415 174.5C45.9249 167.603 40.498 163 37.498 161C37.498 158 36.498 155.5 33.998 154C31.498 152.5 27.998 152 25.998 154C23.998 156 24.498 161.014 26.998 163C29.498 164.986 33.498 164.986 35.998 163.5C42.1041 168.095 44.7045 171.26 47.2154 178.5C46.387 183.539 46.5372 187.759 47.2665 191.5C46.177 188.667 42.798 181.7 37.998 176.5C31.998 170 25.998 169.5 22.998 166.505C19.998 163.509 18.498 160 16.998 161C15.498 162 15.498 163.5 15.498 176.5C15.498 189.5 26.498 200.5 36.998 200.5C45.398 200.5 51.0437 203.949 52.8166 205.674L52.8171 205.675C53.2125 206.447 53.6083 207.221 53.998 208C57.9981 216 58.9982 224.5 58.9982 237.5ZM56.498 72.5C53.998 63.5 54.998 50.5 58.998 41C54.998 50.5 56.498 63.5 58.998 72.5C60.998 79.7 60.498 86 60.498 94C60.498 86 58.498 79.7 56.498 72.5ZM78.998 127C91.998 121.5 95.7121 103.918 94.498 96C93.3317 104.038 87.503 120.707 78.998 127ZM46.998 139.5C44.8567 131.895 35.4123 119.393 31.498 116.5C33.998 123.5 43.4424 133.002 46.998 139.5ZM65.5986 175.5C70.498 166 93.998 160 97.998 154C92.998 167.5 70.498 166 65.5986 175.5ZM37.998 191.5C32.998 183 27.998 178.5 23.498 177C27.998 183.5 31.998 184 37.998 191.5Z" fill="black"/>
</svg>
