<svg width="167" height="247" viewBox="0 0 167 247" fill="none" xmlns="http://www.w3.org/2000/svg">
<path d="M143.396 105.247L82.2446 208.735L22.882 105.212L82.2204 30.3155L143.396 105.247Z" fill="#191516"/>
<path fill-rule="evenodd" clip-rule="evenodd" d="M81.998 0L-0.00195312 103.5L81.998 246.5L166.498 103.5L81.998 0ZM153.123 104.511L82.1408 224.636L13.2466 104.491L82.1268 17.5511L153.123 104.511Z" fill="#191516"/>
<path fill-rule="evenodd" clip-rule="evenodd" d="M82.1408 224.636L153.123 104.511L82.1268 17.5511L13.2466 104.491L82.1408 224.636ZM82.2446 208.735L143.396 105.247L82.2204 30.3155L22.882 105.212L82.2446 208.735Z" fill="#F6C808"/>
<path fill-rule="evenodd" clip-rule="evenodd" d="M85.232 180H80.7639C80.5687 176.286 80.8929 167.967 83.5111 162.227C82.3347 160.568 80.764 159.364 80.1257 158.969C78.8491 159.265 76.5087 158.673 75.0193 157.488C73.53 156.303 72.4661 152.748 74.0619 151.563C75.6576 150.379 78.53 151.563 80.1257 152.748C81.7215 153.933 82.998 155.71 82.3597 157.488C83.1731 157.989 83.7081 158.515 84.7925 159.857C85.2734 159.03 85.7242 158.245 86.1387 157.488C88.6058 151.563 77.2534 145.047 71.8278 144.454C66.4023 143.862 52.998 138.53 52.998 128.459C52.998 121.35 53.9555 120.757 54.9129 120.461C55.8704 120.165 59.0619 125.2 66.7215 126.385C73.4236 127.422 91.2959 138.53 88.4236 152.265C89.3327 149.076 89.2018 145.733 87.4661 140.9C87.1132 139.917 86.7526 138.931 86.3902 137.94C85.1523 134.556 83.8939 131.115 82.8555 127.57C81.4851 123.328 73.9242 121.859 66.7215 117.499C59.381 113.056 55.8704 105.058 55.8704 99.7261C55.8704 94.3942 58.7427 84.3229 60.3385 84.3229C61.9342 84.3229 62.5725 88.0269 66.0832 90.8396C69.5938 93.6524 76.8145 99.1336 76.8145 107.724C76.8145 114.596 79.6175 118.486 81.019 119.572C80.6554 117.26 80.4449 114.894 80.4449 112.463C80.4449 102.472 79.852 101.009 78.095 96.6736C78.0289 96.5105 77.9611 96.3433 77.8917 96.1715C77.4906 95.1789 77.1316 94.3682 76.8145 93.6524C75.6177 90.9501 75.0193 89.5989 75.0193 84.9154C75.0193 81.7406 76.0275 79.5015 76.9634 77.4232C77.7738 75.6234 78.53 73.9441 78.53 71.882V55.5902C78.53 51.4432 82.3597 48.1849 85.2321 47C84.9129 51.7394 88.4236 58.5523 91.9342 62.6993C95.4449 66.8463 98.3172 72.4745 98.3172 78.1025C98.3172 83.7306 93.53 92.0246 90.3385 97.0602C87.147 102.096 84.5938 108.316 84.5938 114.537C86.8118 105.835 89.8087 104.32 94.1683 99.7261C94.1683 99.7261 94.1683 96.4677 96.0832 94.985C97.998 93.5023 101.19 92.6169 102.785 94.3942C104.381 96.1715 103.424 99.1336 101.19 100.615C98.9555 102.096 95.1257 101.207 95.1257 101.207C89.9062 106.188 86.8472 108.738 85.2321 120.409C85.8169 123.365 86.7875 126.67 88.0768 130.532C87.73 126.385 89.1777 111.278 95.1257 106.539C101.817 101.207 110.764 100.318 111.402 102.096C112.041 103.873 108.211 103.577 108.211 111.278C108.211 113.944 108.211 120.461 99.2746 124.608C92.1257 127.926 90.3385 134.279 90.3385 137.041C90.6472 137.907 90.9666 138.798 91.2959 139.715C91.6679 140.751 91.9757 141.736 92.2257 142.677C93.5767 138.591 97.0406 135.864 98.9555 134.679C98.9555 132.902 99.5938 131.421 101.19 130.532C102.785 129.644 105.019 129.347 106.296 130.532C107.573 131.717 107.253 134.688 105.658 135.864C104.062 137.041 101.509 137.041 99.9129 136.16C96.0155 138.883 94.3556 140.758 92.7529 145.047C93.2817 148.032 93.1858 150.532 92.7203 152.748C93.4157 151.07 95.5725 146.943 98.6363 143.862C102.466 140.011 106.296 139.715 108.211 137.94C110.126 136.166 111.083 134.087 112.041 134.679C112.998 135.272 112.998 136.16 112.998 143.862C112.998 151.563 105.977 158.08 99.2746 158.08C93.9129 158.08 90.3093 160.124 89.1777 161.145L89.1774 161.146C88.925 161.604 88.6723 162.062 88.4236 162.523C85.8703 167.263 85.232 172.299 85.232 180ZM86.8279 82.2494C88.4236 76.9176 87.7853 69.216 85.2321 63.588C87.7853 69.216 86.8279 76.9176 85.2321 82.2494C83.9555 86.5149 84.2746 90.2472 84.2746 94.9866C84.2746 90.2472 85.5513 86.5149 86.8279 82.2494ZM72.4661 114.537C64.1683 111.278 61.7976 100.863 62.5725 96.1715C63.317 100.933 67.0374 110.808 72.4661 114.537ZM92.8917 121.942C94.2585 117.437 100.287 110.03 102.785 108.316C101.19 112.463 95.1612 118.092 92.8917 121.942ZM81.019 143.269C77.8917 137.641 62.8917 134.087 60.3385 130.532C63.53 138.53 77.8917 137.641 81.019 143.269ZM98.6363 152.748C101.828 147.713 105.019 145.047 107.892 144.158C105.019 148.009 102.466 148.305 98.6363 152.748Z" fill="#F6C808"/>
</svg>
