<svg width="124" height="249" viewBox="0 0 124 249" fill="none" xmlns="http://www.w3.org/2000/svg">
<rect x="5.49805" y="5.5" width="113" height="238" rx="16.5" fill="#C5A869" stroke="#A68C55" stroke-width="11"/>
<path fill-rule="evenodd" clip-rule="evenodd" d="M61.498 185C66.998 185 67.998 180 67.998 178.5C67.998 177 62.998 175.5 62.998 174.5C65.998 173.5 67.998 172 67.998 163.5C67.998 155 65.998 155.5 64.998 154.5H77.998V151H65.498L68.998 79.5L61.998 65L61.498 147.5L60.998 65L53.998 79.5L57.498 151H44.998V154.5H57.998C56.998 155.5 54.998 154 54.998 163.5C54.998 173 57.498 174 59.998 174.5C59.998 175.5 54.998 177 54.998 178.5C54.998 180 55.998 185 61.498 185ZM63.998 159L58.998 158L58.498 159L64.498 160L63.998 159ZM64.998 161.5L57.998 160.5V161.5L64.998 162.5V161.5ZM64.998 164L57.998 163V164L64.998 165V164ZM64.998 166.5L57.998 165.5V166.5L64.998 167.5V166.5ZM64.498 169L58.498 168L58.998 169L63.998 170L64.498 169Z" fill="black"/>
</svg>
