<svg width="167" height="247" viewBox="0 0 167 247" fill="none" xmlns="http://www.w3.org/2000/svg">
<path d="M143.896 105.247L82.7446 208.735L23.382 105.212L82.7204 30.3155L143.896 105.247Z" fill="#6C706F"/>
<path fill-rule="evenodd" clip-rule="evenodd" d="M82.498 0L0.498047 103.5L82.498 246.5L166.998 103.5L82.498 0ZM153.623 104.511L82.6408 224.636L13.7466 104.491L82.6268 17.5511L153.623 104.511Z" fill="#6C706F"/>
<path fill-rule="evenodd" clip-rule="evenodd" d="M82.6408 224.636L153.623 104.511L82.6268 17.5511L13.7466 104.491L82.6408 224.636ZM82.7446 208.735L143.896 105.247L82.7204 30.3155L23.382 105.212L82.7446 208.735Z" fill="#F6C808"/>
<path fill-rule="evenodd" clip-rule="evenodd" d="M83.498 189C90.498 189 91.7708 182.708 91.7708 180.821C91.7708 178.933 85.4071 177.046 85.4071 175.788C89.2253 174.529 91.7708 172.642 91.7708 161.946C91.7708 151.25 89.2253 151.879 87.9526 150.621H104.498V146.217H88.589L93.0435 56.2458L84.1344 38L83.498 141.812L82.8617 38L73.9526 56.2458L78.4071 146.217H62.498V150.621H79.0435C77.7708 151.879 75.2253 149.992 75.2253 161.946C75.2253 173.9 78.4071 175.158 81.589 175.788C81.589 177.046 75.2253 178.933 75.2253 180.821C75.2253 182.708 76.498 189 83.498 189ZM86.6799 156.283L80.3162 155.025L79.6799 156.283L87.3162 157.542L86.6799 156.283ZM87.9526 159.429L79.0435 158.171V159.429L87.9526 160.688V159.429ZM87.9526 162.575L79.0435 161.317V162.575L87.9526 163.833V162.575ZM87.9526 165.721L79.0435 164.463V165.721L87.9526 166.979V165.721ZM87.3162 168.867L79.6799 167.608L80.3162 168.867L86.6799 170.125L87.3162 168.867Z" fill="#F6C808"/>
</svg>
