<svg width="125" height="249" viewBox="0 0 125 249" fill="none" xmlns="http://www.w3.org/2000/svg">
<rect x="5.99805" y="5.5" width="113" height="238" rx="16.5" fill="#C5A869" stroke="#A68C55" stroke-width="11"/>
<path d="M99.4978 126.5C99.4978 128.015 99.3942 129.506 99.1936 130.966C96.9803 114.609 82.9615 102 65.9978 102C51.6257 102 39.3674 111.051 34.6114 123.763C35.6802 110.945 44.1873 100.241 55.8037 95.9793C53.1932 94.0691 51.4978 90.9825 51.4978 87.5C51.4978 81.701 56.1988 77 61.9978 77C67.7968 77 72.4978 81.701 72.4978 87.5C72.4978 90.0229 71.6081 92.338 70.1252 94.1485C86.6072 95.7221 99.4978 109.606 99.4978 126.5Z" fill="black"/>
<path d="M50.3654 169.525C49.0534 168.767 47.8142 167.932 46.6502 167.028C61.9224 173.29 79.8512 167.454 88.333 152.763C95.5191 140.316 93.8103 125.175 85.1788 114.7C95.7449 122.034 100.762 134.754 98.6442 146.945C101.604 145.639 105.124 145.714 108.14 147.455C113.162 150.355 114.883 156.777 111.984 161.799C109.084 166.821 102.662 168.541 97.6404 165.642C95.4555 164.38 93.8955 162.452 93.0689 160.263C83.4651 173.75 64.9963 177.972 50.3654 169.525Z" fill="black"/>
<path d="M37.6713 105.462C38.9833 104.705 40.3262 104.049 41.6908 103.493C28.6319 113.588 24.7218 132.033 33.2037 146.724C40.3897 159.171 54.3569 165.261 67.7443 163.024C56.1095 168.507 42.5856 166.492 33.0866 158.563C32.7376 161.779 30.9122 164.79 27.8963 166.531C22.8742 169.431 16.4525 167.71 13.553 162.688C10.6535 157.666 12.3742 151.244 17.3963 148.345C19.5812 147.083 22.031 146.697 24.3404 147.075C17.4622 132.015 23.0404 113.909 37.6713 105.462Z" fill="black"/>
<path d="M63.998 155C64.7578 155 70.498 154.5 70.498 153.5C70.498 153 68.498 153.5 67.498 152C66.498 150.5 66.498 149.655 66.498 149V144C72.998 144 77.998 138.2 77.998 133V124C77.998 122 79.9713 120.5 80.998 120.5C82.498 120.5 82.498 118.5 80.998 118.5H74.998C72.998 118.5 70.998 121.5 70.998 124.5V133C70.998 136.5 68.498 141 66.498 141V124C66.498 122 68.498 120.5 69.498 120.5C70.498 120.5 70.498 118.5 69.498 118.5C65.8314 118.5 62.1647 118.5 58.498 118.5C57.498 118.5 57.498 120.5 58.498 120.5C59.498 120.5 61.498 122 61.498 124V141C59.498 141 56.998 136.5 56.998 133V124.5C56.998 121.5 54.998 118.5 52.998 118.5H46.998C45.498 118.5 45.498 120.5 46.998 120.5C48.0248 120.5 49.998 122 49.998 124V133C49.998 138.2 54.998 144 61.498 144V149C61.498 149.655 61.498 150.5 60.498 152C59.498 153.5 57.498 153 57.498 153.5C57.498 154.5 63.2383 155 63.998 155Z" fill="black"/>
</svg>
