<svg width="167" height="247" viewBox="0 0 167 247" fill="none" xmlns="http://www.w3.org/2000/svg">
<path d="M143.396 105.247L82.2446 208.735L22.882 105.212L82.2204 30.3155L143.396 105.247Z" fill="#191516"/>
<path fill-rule="evenodd" clip-rule="evenodd" d="M81.998 0L-0.00195312 103.5L81.998 246.5L166.498 103.5L81.998 0ZM153.123 104.511L82.1408 224.636L13.2466 104.491L82.1268 17.5511L153.123 104.511Z" fill="#191516"/>
<path fill-rule="evenodd" clip-rule="evenodd" d="M82.1408 224.636L153.123 104.511L82.1268 17.5511L13.2466 104.491L82.1408 224.636ZM82.2446 208.735L143.396 105.247L82.2204 30.3155L22.882 105.212L82.2446 208.735Z" fill="#F6C808"/>
<path d="M50.9372 96.4063C50.9372 97.7042 51.0262 98.9813 51.1986 100.232C53.1004 86.2191 65.1465 75.4173 79.723 75.4173C92.0727 75.4173 102.606 83.1709 106.693 94.0617C105.774 83.0809 98.4643 73.9105 88.4826 70.2594C90.7257 68.6229 92.1826 65.9787 92.1826 62.9953C92.1826 58.0273 88.1431 54 83.1601 54C78.1772 54 74.1377 58.0273 74.1377 62.9953C74.1377 65.1566 74.9023 67.1399 76.1765 68.691C62.0138 70.0391 50.9372 81.9331 50.9372 96.4063Z" fill="#F6C808"/>
<path d="M93.1556 133.265C94.283 132.616 95.3479 131.901 96.348 131.127C83.225 136.491 67.8191 131.491 60.5308 118.905C54.356 108.242 55.8244 95.271 63.2412 86.2971C54.162 92.5804 49.8513 103.477 51.6706 113.921C49.1276 112.803 46.1023 112.867 43.5108 114.359C39.1954 116.843 37.7169 122.344 40.2083 126.646C42.6998 130.949 48.2178 132.423 52.5332 129.939C54.4106 128.858 55.7511 127.206 56.4614 125.331C64.7137 136.885 80.5836 140.502 93.1556 133.265Z" fill="#F6C808"/>
<path d="M104.063 78.3834C102.936 77.7345 101.782 77.1728 100.61 76.6963C111.831 85.3448 115.191 101.147 107.902 113.732C101.728 124.395 89.7258 129.613 78.2223 127.696C88.2198 132.394 99.8406 130.667 108.003 123.874C108.303 126.629 109.871 129.209 112.463 130.701C116.778 133.185 122.296 131.711 124.788 127.408C127.279 123.106 125.801 117.605 121.485 115.121C119.608 114.04 117.503 113.709 115.518 114.033C121.429 101.131 116.635 85.62 104.063 78.3834Z" fill="#F6C808"/>
<path d="M81.4414 120.822C80.7886 120.822 75.8561 120.394 75.8561 119.537C75.8561 119.109 77.5746 119.537 78.4339 118.252C79.2932 116.967 79.2932 116.243 79.2932 115.682V111.398C73.7079 111.398 69.4115 106.43 69.4115 101.975V94.2646C69.4115 92.5512 67.7159 91.2662 66.8336 91.2662C65.5447 91.2662 65.5447 89.5528 66.8336 89.5528H71.9893C73.7079 89.5528 75.4264 92.1228 75.4264 94.6929V101.975C75.4264 104.973 77.5746 108.828 79.2932 108.828V94.2646C79.2932 92.5512 77.5746 91.2662 76.7154 91.2662C75.8561 91.2662 75.8561 89.5528 76.7154 89.5528C79.866 89.5528 83.0167 89.5528 86.1674 89.5528C87.0267 89.5528 87.0267 91.2662 86.1674 91.2662C85.3081 91.2662 83.5896 92.5512 83.5896 94.2646V108.828C85.3082 108.828 87.4563 104.973 87.4563 101.975V94.6929C87.4563 92.1228 89.1749 89.5528 90.8935 89.5528H96.0491C97.3381 89.5528 97.3381 91.2662 96.0491 91.2662C95.1669 91.2662 93.4713 92.5512 93.4713 94.2646V101.975C93.4713 106.43 89.1749 111.398 83.5896 111.398V115.682C83.5896 116.243 83.5896 116.967 84.4489 118.252C85.3082 119.537 87.0267 119.109 87.0267 119.537C87.0267 120.394 82.0942 120.822 81.4414 120.822Z" fill="#F6C808"/>
</svg>
