<svg width="167" height="247" viewBox="0 0 167 247" fill="none" xmlns="http://www.w3.org/2000/svg">
<path d="M143.896 105.247L82.7446 208.735L23.382 105.212L82.7204 30.3155L143.896 105.247Z" fill="#191516"/>
<path fill-rule="evenodd" clip-rule="evenodd" d="M82.498 0L0.498047 103.5L82.498 246.5L166.998 103.5L82.498 0ZM153.623 104.511L82.6408 224.636L13.7466 104.491L82.6268 17.5511L153.623 104.511Z" fill="#191516"/>
<path fill-rule="evenodd" clip-rule="evenodd" d="M82.6408 224.636L153.623 104.511L82.6268 17.5511L13.7466 104.491L82.6408 224.636ZM82.7446 208.735L143.896 105.247L82.7204 30.3155L23.382 105.212L82.7446 208.735Z" fill="#F6C808"/>
<path d="M103.228 116.022C102.375 116.581 83.3904 101.494 83.3904 101.494C83.3904 101.494 63.0599 118.257 62.4977 117.698C61.9355 117.139 70.7182 92.5541 70.7182 92.5541C70.7182 92.5541 52.9489 80.8203 53.5111 79.7028C54.0733 78.5852 74.8649 79.7028 74.8649 79.7028C74.8649 79.7028 82.0912 54 83.3904 54C84.6896 54 92.3471 79.7028 92.3471 79.7028C92.3471 79.7028 111.924 78.5852 112.485 79.7028C113.047 80.8203 94.6693 92.5541 94.6693 92.5541C94.6693 92.5541 104.081 115.463 103.228 116.022Z" fill="#F6C808"/>
<path d="M85.8784 130.472C85.8784 132.585 88.8971 135.786 93.8067 138.855C94.9678 139.581 96.4274 140.67 97.0909 141.297C98.5837 142.749 99.8111 145.554 99.8111 147.534C99.8111 149.085 99.8111 149.085 101.602 150.009C106.074 153.095 107.28 154.629 106.144 158.095C105.356 159.024 104.256 155.785 103.228 154.828L101.37 153.079L100.707 154.069C98.3515 157.336 93.7072 160.372 89.7264 161.296C86.774 161.956 83.1582 162.22 82.561 161.791C82.1298 161.494 82.2625 161.263 83.3904 160.372C84.1202 159.811 85.5798 158.524 86.7077 157.534C89.063 155.455 90.8212 154.531 94.1717 153.574C98.4178 152.353 99.1476 152.121 99.1476 151.89C99.1476 151.23 95.4986 150.174 92.6457 150.009C89.7264 149.844 89.5938 149.844 89.3615 150.537C88.9635 151.758 86.011 155.026 84.3192 156.115C79.7745 159.019 73.8365 159.877 71.05 158.095C69.6235 157.171 68.96 156.313 68.96 155.389C68.96 154.96 69.1259 154.927 70.3533 155.389C72.0783 155.983 73.1399 155.785 74.4336 154.564C76.2913 152.881 78.0495 151.924 80.2389 151.56C82.2293 151.197 84.4519 150.372 84.1533 150.075C83.9543 149.877 76.1255 150.537 73.9692 150.9C70.9173 151.461 67.8653 151.296 65.7422 150.537C63.8845 149.844 61.4297 148.194 60.2355 146.808C58.61 144.894 58.2451 142.056 59.3398 139.548C60.0696 137.865 60.5672 137.634 60.8658 138.855C61.297 140.604 65.4437 143.343 69.1259 144.3C71.5807 144.96 73.7038 146.082 74.8649 147.435C75.9264 148.59 75.9596 148.623 78.1822 148.524L80.4048 148.425L78.3149 147.303C75.3625 145.719 72.0452 142.815 70.7182 140.604C69.7894 139.119 69.524 138.261 69.3913 136.578C69.2918 135.324 69.325 134.4 69.524 134.4C69.6899 134.4 70.486 135.093 71.2822 135.918C73.0072 137.634 75.2961 139.053 79.0779 140.637C82.7269 142.188 85.1485 143.871 86.3428 145.653C86.9067 146.478 87.5038 147.369 87.7029 147.633C87.9683 147.996 88.8971 148.062 92.3471 147.93L96.6596 147.765L94.6693 146.412C93.5745 145.686 91.4183 144.432 89.8923 143.607C88.3995 142.815 86.2764 141.363 85.2149 140.406C83.0586 138.492 82.4283 136.875 82.8928 134.433C83.324 131.991 85.8784 128.624 85.8784 130.472Z" fill="#F6C808"/>
</svg>
