<svg width="124" height="249" viewBox="0 0 124 249" fill="none" xmlns="http://www.w3.org/2000/svg">
<rect x="5.49805" y="5.5" width="113" height="238" rx="16.5" fill="#C5A869" stroke="#A68C55" stroke-width="11"/>
<path d="M59.6837 147.726C59.6837 149.616 56.9963 152.481 52.6257 155.227C51.5921 155.877 50.2927 156.851 49.7021 157.413C48.3731 158.712 47.2805 161.222 47.2805 162.994C47.2805 164.382 47.2805 164.382 45.6858 165.209C43.8844 166.154 39.9567 169.402 39.1594 170.613C38.2439 172.001 38.5983 174.275 39.75 174.275C39.9567 174.275 40.6655 173.566 41.3447 172.68C42.0239 171.794 43.3233 170.377 44.2387 169.52L45.8925 167.955L46.4831 168.841C48.5799 171.765 52.7143 174.482 56.258 175.309C58.8863 175.899 62.1052 176.135 62.6368 175.752C63.0207 175.486 62.9026 175.279 61.8985 174.482C61.2488 173.98 59.9494 172.828 58.9454 171.942C56.8486 170.082 55.2835 169.255 52.3008 168.398C48.5208 167.306 47.8711 167.099 47.8711 166.892C47.8711 166.302 51.1196 165.357 53.6593 165.209C56.258 165.061 56.3761 165.061 56.5829 165.681C56.9372 166.774 59.5655 169.698 61.0716 170.672C65.1174 173.271 70.4035 174.039 72.8842 172.444C74.154 171.617 74.7446 170.849 74.7446 170.022C74.7446 169.639 74.597 169.609 73.5043 170.022C71.9687 170.554 71.0237 170.377 69.872 169.284C68.2182 167.778 66.6531 166.922 64.704 166.597C62.9321 166.272 60.9535 165.534 61.2193 165.268C61.3965 165.091 68.3659 165.681 70.2854 166.006C73.0023 166.508 75.7192 166.361 77.6092 165.681C79.2629 165.061 81.4483 163.585 82.5114 162.344C83.9584 160.631 84.2833 158.092 83.3087 155.847C82.659 154.341 82.2161 154.135 81.9503 155.227C81.5664 156.792 77.875 159.244 74.597 160.1C72.4117 160.691 70.5217 161.695 69.4881 162.905C68.5431 163.939 68.5135 163.969 66.5349 163.88L64.5563 163.791L66.4168 162.787C69.0451 161.37 71.9982 158.771 73.1795 156.792C74.0064 155.464 74.2426 154.696 74.3607 153.19C74.4493 152.067 74.4198 151.241 74.2426 151.241C74.095 151.241 73.3862 151.861 72.6774 152.599C71.1418 154.135 69.1042 155.404 65.7376 156.822C62.4891 158.21 60.3333 159.716 59.2702 161.311C58.7682 162.049 58.2366 162.846 58.0594 163.083C57.8232 163.407 56.9963 163.466 53.925 163.348L50.086 163.201L51.8578 161.99C52.8324 161.34 54.7519 160.218 56.1104 159.48C57.4393 158.771 59.3293 157.472 60.2743 156.615C62.1938 154.902 62.7549 153.455 62.3415 151.27C61.9576 149.085 59.6837 146.073 59.6837 147.726Z" fill="black"/>
<path d="M44.2387 129.5C44.998 130 61.8985 116.5 61.8985 116.5C61.8985 116.5 79.9971 131.5 80.4976 131C80.998 130.5 73.1795 108.5 73.1795 108.5C73.1795 108.5 88.998 98 88.4976 97C87.9971 96 69.4881 97 69.4881 97C69.4881 97 63.0551 74 61.8985 74C60.7419 74 53.925 97 53.925 97C53.925 97 36.4976 96 35.9976 97C35.4976 98 51.8578 108.5 51.8578 108.5C51.8578 108.5 43.4795 129 44.2387 129.5Z" fill="black"/>
</svg>
