<svg width="125" height="249" viewBox="0 0 125 249" fill="none" xmlns="http://www.w3.org/2000/svg">
<rect x="5.99805" y="5.5" width="113" height="238" rx="16.5" fill="#C5A869" stroke="#A68C55" stroke-width="11"/>
<path d="M64.498 120C62.5535 118.292 60.9091 117.024 57.498 114.5V137C60.2931 135.026 61.8183 134.057 64.498 132.5V120Z" fill="black"/>
<path d="M57.498 183H64.498V148.5C61.7758 150.15 60.2518 151.276 57.498 153.5V183Z" fill="black"/>
<path d="M91.998 86.5V79.5H81.998C83.0475 82.0269 83.3537 83.5825 83.498 86.5H91.998Z" fill="black"/>
<path d="M33.498 79.5V86.5H40.998C41.0161 83.5975 41.1296 82.0183 41.998 79.5H33.498Z" fill="black"/>
<path d="M64.498 86.5H71.998C72.1628 85.3066 71.0728 83.5827 67.998 79.5H56.998C55.2318 81.7289 54.8189 83.3475 54.498 86.5H57.498V99.5C60.0629 101.118 61.5408 102.013 64.498 103.5V86.5Z" fill="black"/>
<path d="M54.498 86.5C54.8189 83.3475 55.2318 81.7289 56.998 79.5H53.8401C52.8211 81.397 52.1524 83.7491 52.0216 86.5H54.498Z" fill="black"/>
<path d="M41.998 79.5C41.1296 82.0183 41.0161 83.5975 40.998 86.5H43.5094C43.5693 83.8798 43.8661 81.5545 44.3664 79.5H41.998Z" fill="black"/>
<path d="M64.498 103.5C61.5408 102.013 60.0629 101.118 57.498 99.5V102.243C58.9821 103.653 60.8016 104.902 62.998 106C63.5065 106.254 64.0068 106.525 64.498 106.81V103.5Z" fill="black"/>
<path d="M57.498 114.5C60.9091 117.024 62.5535 118.292 64.498 120V116.411C63.7151 115.727 62.8756 115.085 61.998 114.5C60.9291 113.787 59.3241 112.708 57.498 111.282V114.5Z" fill="black"/>
<path fill-rule="evenodd" clip-rule="evenodd" d="M62.998 146C55.998 150.5 53.498 153.5 53.498 159C53.498 161.46 54.0982 163.82 54.6275 165.901C55.2815 168.473 55.8271 170.618 54.998 172C53.498 174.5 46.998 165.8 46.998 159C46.998 151 53.498 142.5 60.998 137.5C68.498 133 69.998 130 69.998 126C69.998 123.705 68.8462 121.246 67.0146 119V108.462C72.9243 112.816 76.998 119.408 76.998 126C76.998 134 69.998 141.5 62.998 146ZM64.498 106.81V116.411C63.7151 115.727 62.8756 115.085 61.998 114.5C60.9291 113.787 59.3241 112.708 57.498 111.282V102.243C58.9821 103.653 60.8016 104.902 62.998 106C63.5065 106.254 64.0068 106.525 64.498 106.81ZM54.998 99.2554C53.2123 96.5199 52.2992 93.3092 52.0618 89.574H43.5941C44.3886 98.1201 49.9673 104.779 54.998 109.21V99.2554ZM52.0216 86.5C52.1524 83.7491 52.8211 81.397 53.8401 79.5H44.3664C43.8661 81.5545 43.5693 83.8798 43.5094 86.5H52.0216ZM61.998 74C59.9129 74 57.8277 74.8696 56.1051 76.5H45.3117C48.3304 68.8713 54.7727 66 61.998 66C71.998 66 80.998 78.5 80.998 86.5C83.3314 89.6667 87.498 96.2 87.498 99C87.498 102.5 82.998 109.5 79.998 109.5C80.4008 111.03 80.9281 113.347 81.2301 115.423C81.2455 115.529 81.2603 115.634 81.2745 115.739C81.4402 117.198 80.9654 118 80.498 118C80.035 118 79.572 117.571 79.5844 116.714C79.5909 116.651 79.595 116.579 79.5967 116.5C79.6281 115.075 78.9204 111.1 78.498 108.984C78.0831 108.733 77.647 108.399 77.2026 108C76.639 110 76.9678 111.833 77.2026 112.5C77.5749 113.537 78.2176 115.18 78.7464 116.178C78.7869 116.254 78.8267 116.326 78.8656 116.395C79.4697 117.537 79.2353 117.837 78.998 118C78.7992 118.137 78.3923 118.113 77.9028 117.559C76.4019 115.45 74.998 112.617 74.998 111.5C74.998 109.9 75.4962 107.5 75.7453 106.5C73.2877 103.659 70.998 99.471 70.998 97C70.998 94.8564 72.1468 92.8564 73.2131 91C74.1365 89.3923 74.998 87.8923 74.998 86.5C74.998 83.5 66.998 74 61.998 74ZM78.498 95.5C80.8333 95.9181 82.8087 103.016 79.998 104.5C77.1743 105.991 76.9438 99.1713 78.498 95.5Z" fill="black"/>
<path d="M81.2875 115.836L81.2745 115.739C81.4402 117.198 80.9654 118 80.498 118C80.035 118 79.572 117.571 79.5844 116.714C79.5694 116.858 79.5414 116.957 79.498 117C79.3659 117.132 79.136 116.868 78.8656 116.395C79.4697 117.537 79.2353 117.837 78.998 118C78.7992 118.137 78.3923 118.113 77.9028 117.559C79.089 119.226 80.3359 120.441 80.998 120C81.5793 119.612 81.5584 117.88 81.2875 115.836Z" fill="black"/>
</svg>
