<svg width="167" height="247" viewBox="0 0 167 247" fill="none" xmlns="http://www.w3.org/2000/svg">
<path d="M143.396 105.247L82.2446 208.735L22.882 105.212L82.2204 30.3155L143.396 105.247Z" fill="#1D5A8D"/>
<path fill-rule="evenodd" clip-rule="evenodd" d="M81.998 0L-0.00195312 103.5L81.998 246.5L166.498 103.5L81.998 0ZM153.123 104.511L82.1408 224.636L13.2466 104.491L82.1268 17.5511L153.123 104.511Z" fill="#1D5A8D"/>
<path fill-rule="evenodd" clip-rule="evenodd" d="M82.1408 224.636L153.123 104.511L82.1268 17.5511L13.2466 104.491L82.1408 224.636ZM82.2446 208.735L143.396 105.247L82.2204 30.3155L22.882 105.212L82.2446 208.735Z" fill="#F6C808"/>
<path d="M80.7929 118.615C82.6876 116.951 84.2898 115.716 87.6134 113.256V135.179C84.8901 133.256 83.404 132.312 80.7929 130.795V118.615Z" fill="#F6C808"/>
<path d="M87.6134 180H80.7929V146.385C83.4454 147.992 84.9303 149.089 87.6134 151.256V180Z" fill="#F6C808"/>
<path d="M53.998 85.9744V79.1538H63.7416C62.7191 81.616 62.4207 83.1317 62.2801 85.9744H53.998Z" fill="#F6C808"/>
<path d="M110.998 79.1538V85.9744H103.69C103.673 83.1463 103.562 81.6075 102.716 79.1538H110.998Z" fill="#F6C808"/>
<path d="M80.7929 85.9744H73.4852C73.3247 84.8116 74.3867 83.1319 77.3827 79.1538H88.1006C89.8216 81.3256 90.2239 82.9027 90.5365 85.9744H87.6134V98.641C85.1144 100.217 83.6744 101.089 80.7929 102.538V85.9744Z" fill="#F6C808"/>
<path d="M90.5365 85.9744C90.2239 82.9027 89.8216 81.3256 88.1006 79.1538H91.1776C92.1705 81.0022 92.822 83.294 92.9495 85.9744H90.5365Z" fill="#F6C808"/>
<path d="M102.716 79.1538C103.562 81.6075 103.673 83.1463 103.69 85.9744H101.243C101.185 83.4214 100.896 81.1556 100.408 79.1538H102.716Z" fill="#F6C808"/>
<path d="M80.7929 102.538C83.6744 101.089 85.1144 100.217 87.6134 98.641V101.313C86.1675 102.687 84.3946 103.904 82.2545 104.974C81.7591 105.222 81.2716 105.485 80.7929 105.764V102.538Z" fill="#F6C808"/>
<path d="M87.6134 113.256C84.2898 115.716 82.6876 116.951 80.7929 118.615V115.119C81.5558 114.452 82.3738 113.826 83.2288 113.256C84.2704 112.562 85.8342 111.51 87.6134 110.121V113.256Z" fill="#F6C808"/>
<path d="M66.6647 97.6667C64.3894 98.074 62.9518 102.067 65.6904 103.513C68.4417 104.965 69.379 98.641 66.6647 97.6667Z" fill="#E5383C"/>
<path fill-rule="evenodd" clip-rule="evenodd" d="M82.2545 143.949C89.075 148.333 91.5109 151.256 91.5109 156.615C91.5109 159.012 90.9261 161.312 90.4104 163.34C89.7732 165.845 89.2415 167.936 90.0493 169.282C91.5109 171.718 97.8442 163.241 97.8442 156.615C97.8442 148.821 91.5109 140.538 84.2032 135.667C76.8955 131.282 75.4339 128.359 75.4339 124.462C75.4339 122.226 76.5562 119.83 78.3409 117.641V107.373C72.5827 111.616 68.6134 118.039 68.6134 124.462C68.6134 132.256 75.4339 139.564 82.2545 143.949ZM80.7929 105.764V115.119C81.5558 114.452 82.3738 113.826 83.2288 113.256C84.2704 112.562 85.8342 111.51 87.6134 110.121V101.313C86.1675 102.687 84.3946 103.904 82.2545 104.974C81.7591 105.222 81.2716 105.485 80.7929 105.764ZM90.0493 98.4027C91.7893 95.7373 92.679 92.6089 92.9103 88.9696H101.161C100.387 97.2965 94.9511 103.785 90.0493 108.102V98.4027ZM92.9495 85.9744C92.822 83.294 92.1705 81.0022 91.1776 79.1538H100.408C100.896 81.1556 101.185 83.4214 101.243 85.9744H92.9495ZM83.2288 73.7949C85.2605 73.7949 87.2923 74.6422 88.9706 76.2308H99.4873C96.546 68.7977 90.2689 66 83.2288 66C73.4852 66 64.716 78.1795 64.716 85.9744C62.4425 89.0598 58.3827 95.4256 58.3827 98.1538C58.3827 101.564 62.7673 108.385 65.6904 108.385C66.738 108.358 67.6692 107.591 68.4141 106.923C71.1167 104.141 74.4596 100.28 74.4596 96.2051C74.4596 94.1165 73.3403 92.1678 72.3014 90.359C71.4016 88.7925 70.5621 87.331 70.5621 85.9744C70.5621 83.0513 78.357 73.7949 83.2288 73.7949ZM66.6647 97.6667C64.3894 98.074 62.9518 102.067 65.6904 103.513C68.4417 104.965 69.379 98.641 66.6647 97.6667Z" fill="#F6C808"/>
<path d="M68.4141 106.923C68.9633 108.872 68.643 110.658 68.4141 111.308C67.831 112.932 66.7024 114.657 66.2123 114.405C65.4629 113.938 65.4635 112.215 65.6904 108.385C66.738 108.358 67.6692 107.591 68.4141 106.923Z" fill="#E5383C"/>
</svg>
