<svg width="167" height="247" viewBox="0 0 167 247" fill="none" xmlns="http://www.w3.org/2000/svg">
<path d="M143.896 105.247L82.7446 208.735L23.382 105.212L82.7204 30.3155L143.896 105.247Z" fill="#9A1B26"/>
<path fill-rule="evenodd" clip-rule="evenodd" d="M82.498 0L0.498047 103.5L82.498 246.5L166.998 103.5L82.498 0ZM153.623 104.511L82.6408 224.636L13.7466 104.491L82.6268 17.5511L153.623 104.511Z" fill="#9A1B26"/>
<path fill-rule="evenodd" clip-rule="evenodd" d="M82.6408 224.636L153.623 104.511L82.6268 17.5511L13.7466 104.491L82.6408 224.636ZM82.7446 208.735L143.896 105.247L82.7204 30.3155L23.382 105.212L82.7446 208.735Z" fill="#F6C808"/>
<path d="M57.8197 148L53.1347 142.835L78.1976 121.059L57.8207 103.338C53.432 107.398 50.1734 114.206 50.5528 119.749C40.5957 120.871 33.7137 111.405 31.498 101.585C38.3844 100.216 46.9094 99.9764 50.5528 97.0171L47.1055 94.0192L51.7905 88.8546L55.4774 92.061C56.1382 91.282 56.8108 90.4533 57.5086 89.5704L64.3989 95.773L62.2055 97.9526L83.4981 116.453L104.791 97.9526L102.597 95.773L109.488 89.5705C110.185 90.4533 110.858 91.2821 111.519 92.061L115.206 88.8547L119.891 94.0193L116.443 97.0172C120.087 99.9764 128.612 100.216 135.498 101.585C133.282 111.405 126.4 120.871 116.443 119.749C116.823 114.206 113.564 107.398 109.175 103.338L88.7986 121.059L113.861 142.835L109.176 148L83.4981 125.668L57.8197 148Z" fill="#F6C808"/>
<path d="M96.0168 95.773C96.0168 101.585 87.9744 108.124 83.5876 108.124C79.2008 108.124 71.1577 101.585 71.1577 95.773C71.1577 91.1231 74.0818 81.2414 78.469 73.9763C72.6626 68.084 71.6848 63.9321 71.8887 55.8126C75.3979 55.8126 77.7378 58.7182 79.2 62.3509C79.2 56.8979 80.8604 53.7263 83.5876 50C86.3148 53.7263 87.9745 56.8979 87.9745 62.3509C89.4368 58.7182 91.7766 55.8126 95.2858 55.8126C95.4898 63.9321 94.512 68.084 88.7055 73.9763C93.0927 81.2414 96.0168 91.1231 96.0168 95.773Z" fill="#F6C808"/>
</svg>
