<svg width="124" height="249" viewBox="0 0 124 249" fill="none" xmlns="http://www.w3.org/2000/svg">
<rect x="5.49805" y="5.5" width="113" height="238" rx="16.5" fill="#C5A869" stroke="#A68C55" stroke-width="11"/>
<path d="M43.9987 158.442L40.7948 154.888L57.9346 139.902L43.9994 127.706C40.998 130.5 38.7696 135.186 39.029 139C32.2197 139.773 27.5133 133.258 25.998 126.5C30.7074 125.558 36.5374 125.393 39.029 123.357L36.6716 121.293L39.8755 117.739L42.3969 119.946C42.8488 119.41 43.3087 118.839 43.7859 118.232L48.498 122.5L46.998 124L61.5594 136.732L76.1208 124L74.6208 122.5L79.3329 118.232C79.8101 118.839 80.2701 119.41 80.722 119.946L83.2433 117.739L86.4473 121.294L84.0898 123.357C86.5814 125.393 92.4114 125.558 97.1208 126.5C95.6056 133.258 90.8992 139.773 84.0898 139C84.3493 135.186 82.1208 130.5 79.1194 127.707L65.1843 139.902L82.3241 154.888L79.1202 158.442L61.5594 143.074L43.9987 158.442Z" fill="black"/>
<path d="M70.1207 122.5C70.1207 126.5 64.6207 131 61.6207 131C58.6207 131 53.1202 126.5 53.1202 122.5C53.1202 119.3 55.1199 112.5 58.1202 107.5C54.1493 103.445 53.4807 100.588 53.6201 95.0001C56.02 95.0001 57.6201 96.9998 58.6201 99.4998C58.6201 95.747 59.7556 93.5644 61.6207 91C63.4857 93.5644 64.6208 95.747 64.6207 99.4998C65.6207 96.9998 67.2209 95.0001 69.6208 95.0001C69.7602 100.588 69.0915 103.445 65.1207 107.5C68.121 112.5 70.1207 119.3 70.1207 122.5Z" fill="black"/>
</svg>
