<svg width="167" height="247" viewBox="0 0 167 247" fill="none" xmlns="http://www.w3.org/2000/svg">
<path d="M143.396 105.247L82.2446 208.735L22.882 105.212L82.2204 30.3155L143.396 105.247Z" fill="#191516"/>
<path fill-rule="evenodd" clip-rule="evenodd" d="M81.998 0L-0.00195312 103.5L81.998 246.5L166.498 103.5L81.998 0ZM153.123 104.511L82.1408 224.636L13.2466 104.491L82.1268 17.5511L153.123 104.511Z" fill="#191516"/>
<path fill-rule="evenodd" clip-rule="evenodd" d="M82.1408 224.636L153.123 104.511L82.1268 17.5511L13.2466 104.491L82.1408 224.636ZM82.2446 208.735L143.396 105.247L82.2204 30.3155L22.882 105.212L82.2446 208.735Z" fill="#F6C808"/>
<path fill-rule="evenodd" clip-rule="evenodd" d="M91.6937 102.304L51.5992 80.6018L73.6695 120.328L113.396 142.399L91.6937 102.304ZM90.1585 103.839L108.17 137.115L75.1998 118.798L90.1585 103.839Z" fill="#F6C808"/>
<path fill-rule="evenodd" clip-rule="evenodd" d="M51.9205 105.208C51.5045 107.24 51.286 109.345 51.286 111.5C51.286 113.655 51.5045 115.76 51.9205 117.792L47.4666 116.441C47.4663 116.438 47.466 116.436 47.4657 116.434L47.4666 116.441L45.2861 115.786C45.1259 114.38 45.0435 112.95 45.0435 111.5C45.0435 110.05 45.1259 108.62 45.2861 107.214L47.4666 106.559C47.4663 106.562 47.466 106.564 47.4657 106.566L47.4666 106.559L51.9205 105.208ZM47.4657 106.566C47.2407 108.178 47.1244 109.826 47.1244 111.5C47.1244 113.174 47.2407 114.822 47.4657 116.434C47.466 116.436 47.4663 116.438 47.4666 116.441L47.4657 116.434C47.2407 114.822 47.1244 113.174 47.1244 111.5C47.1244 109.826 47.2407 108.178 47.4657 106.566C47.466 106.564 47.4663 106.562 47.4666 106.559L47.4657 106.566Z" fill="#F6C808"/>
<path d="M45.2861 107.214C45.1259 108.62 45.0435 110.05 45.0435 111.5C45.0435 112.95 45.1259 114.38 45.2861 115.786L30.998 111.5L45.2861 107.214Z" fill="#F6C808"/>
<path d="M78.2117 74.2881C79.6184 74.1278 81.0486 74.0455 82.4982 74.0455C83.9477 74.0455 85.3777 74.1278 86.7844 74.2881L87.4385 76.4685C85.824 76.2429 84.1748 76.1263 82.4982 76.1263C80.8215 76.1263 79.1721 76.2429 77.5576 76.4685L78.2117 74.2881Z" fill="#F6C808"/>
<path d="M82.4982 74.0455C81.0486 74.0455 79.6184 74.1278 78.2117 74.2881L82.4982 60L86.7844 74.2881C85.3777 74.1278 83.9477 74.0455 82.4982 74.0455Z" fill="#F6C808"/>
<path d="M86.7844 74.2881C104.045 76.2546 117.743 89.9533 119.71 107.214L117.529 106.559C116.491 99.1284 113.144 92.437 108.236 87.2336C107.76 86.7289 107.269 86.2382 106.765 85.7622C101.561 80.8544 94.8698 77.5071 87.4385 76.4685L86.7844 74.2881Z" fill="#F6C808"/>
<path d="M119.953 111.5C119.953 110.05 119.87 108.62 119.71 107.214L133.998 111.5L119.71 115.786C119.87 114.38 119.953 112.95 119.953 111.5Z" fill="#F6C808"/>
<path d="M119.71 107.214C119.87 108.62 119.953 110.05 119.953 111.5C119.953 112.95 119.87 114.38 119.71 115.786L117.529 116.441L117.53 116.434C117.755 114.822 117.872 113.174 117.872 111.5C117.872 109.826 117.755 108.178 117.53 106.566L117.529 106.559L119.71 107.214Z" fill="#F6C808"/>
<path d="M113.71 111.5C113.71 109.345 113.492 107.24 113.076 105.208L117.529 106.559L117.53 106.566C117.755 108.178 117.872 109.826 117.872 111.5C117.872 113.174 117.755 114.822 117.53 116.434L117.529 116.441L113.076 117.792C113.492 115.76 113.71 113.655 113.71 111.5Z" fill="#F6C808"/>
<path d="M78.2117 148.712C79.6184 148.872 81.0486 148.955 82.4982 148.955C83.9477 148.955 85.3777 148.872 86.7844 148.712L82.4982 163L78.2117 148.712Z" fill="#F6C808"/>
<path d="M82.4982 148.955C81.0486 148.955 79.6184 148.872 78.2117 148.712L77.5576 146.531C79.1721 146.757 80.8215 146.874 82.4982 146.874C84.1748 146.874 85.824 146.757 87.4385 146.531L86.7844 148.712C85.3777 148.872 83.9477 148.955 82.4982 148.955Z" fill="#F6C808"/>
<path d="M77.5576 76.4685C79.1721 76.2429 80.8215 76.1263 82.4982 76.1263C84.1748 76.1263 85.824 76.2429 87.4385 76.4685L88.7404 80.9122C88.7246 80.909 88.7087 80.9058 88.6929 80.9026C86.6907 80.4994 84.6191 80.2879 82.4982 80.2879C80.5286 80.2879 78.6016 80.4703 76.7332 80.8192C76.5737 80.849 76.4146 80.88 76.2559 80.9122L77.5576 76.4685Z" fill="#F6C808"/>
<path d="M78.2117 148.712C61.8781 146.851 48.7339 134.484 45.7031 118.535C45.5311 117.63 45.3917 116.713 45.2861 115.786L47.4666 116.441C48.5051 123.872 51.8524 130.563 56.7602 135.767C57.2362 136.271 57.7269 136.762 58.2316 137.238C63.435 142.146 70.1264 145.493 77.5576 146.531L78.2117 148.712Z" fill="#F6C808"/>
<path d="M82.4982 146.874C80.8215 146.874 79.1721 146.757 77.5576 146.531L76.1216 142.06C78.1801 142.488 80.3129 142.712 82.4982 142.712C84.3688 142.712 86.201 142.548 87.9811 142.232C88.2202 142.19 88.4583 142.145 88.6954 142.097L88.7378 142.088L88.7408 142.088L87.4385 146.531C85.824 146.757 84.1748 146.874 82.4982 146.874Z" fill="#F6C808"/>
<path d="M106.765 85.7622C107.269 86.2382 107.76 86.7289 108.236 87.2336L105.292 90.1777C104.818 89.6711 104.327 89.1804 103.821 88.7063L106.765 85.7622Z" fill="#F6C808"/>
<path d="M59.7044 132.823C60.1784 133.329 60.6692 133.82 61.1757 134.294L58.2316 137.238C57.7269 136.762 57.2362 136.271 56.7602 135.767L59.7044 132.823Z" fill="#F6C808"/>
<path fill-rule="evenodd" clip-rule="evenodd" d="M45.2861 107.214C46.1097 99.985 48.991 93.3812 53.3298 88.0021L54.4255 89.9743C50.7943 94.7028 48.3309 100.375 47.4666 106.559L45.2861 107.214ZM100.008 137.342L95.8496 135.031C91.9104 137.271 87.3537 138.551 82.4982 138.551C67.5585 138.551 55.4476 126.44 55.4476 111.5C55.4476 106.645 56.7269 102.088 58.9668 98.1486L56.6564 93.9901C54.9549 96.4964 53.6084 99.2633 52.6892 102.218C52.3854 103.195 52.1283 104.192 51.9205 105.208C51.5045 107.24 51.286 109.345 51.286 111.5C51.286 113.655 51.5045 115.76 51.9205 117.792C52.1283 118.808 52.3854 119.805 52.6892 120.782C54.1036 125.329 56.5297 129.43 59.7044 132.823C60.1784 133.329 60.6692 133.82 61.1757 134.294C65.2765 138.131 70.4135 140.875 76.1216 142.06C78.1801 142.488 80.3129 142.712 82.4982 142.712C84.3688 142.712 86.201 142.548 87.9811 142.232C88.2202 142.19 88.4583 142.145 88.6954 142.097L88.7378 142.088C92.8449 141.255 96.6591 139.615 100.008 137.342ZM105.996 140.668L104.024 139.573C99.2953 143.204 93.6231 145.667 87.4385 146.531L86.7844 148.712C94.013 147.888 100.617 145.007 105.996 140.668ZM106.149 124.639C108.315 120.749 109.549 116.268 109.549 111.5C109.549 96.5604 97.4378 84.4495 82.4982 84.4495C77.7297 84.4495 73.2494 85.6833 69.3591 87.8492L65.1321 85.5612C68.4456 83.3384 72.2086 81.7337 76.2559 80.9122C76.4146 80.88 76.5737 80.849 76.7332 80.8192C78.6016 80.4703 80.5286 80.2879 82.4982 80.2879C84.6191 80.2879 86.6907 80.4994 88.6929 80.9026L88.7404 80.9122C94.5023 82.0818 99.6878 84.8386 103.821 88.7063C104.327 89.1804 104.818 89.6711 105.292 90.1777C109.148 94.2986 111.9 99.4659 113.076 105.208C113.492 107.24 113.71 109.345 113.71 111.5C113.71 113.655 113.492 115.76 113.076 117.792C112.251 121.821 110.65 125.566 108.437 128.866L106.149 124.639ZM117.529 116.441C116.671 122.586 114.233 128.225 110.64 132.935L111.72 134.931C116.029 129.564 118.89 122.985 119.71 115.786L117.529 116.441ZM61.0625 83.3584L59.0668 82.2781C64.4337 77.9692 71.013 75.1082 78.2117 74.2881L77.5576 76.4685C71.4123 77.3273 65.7729 79.765 61.0625 83.3584Z" fill="#F6C808"/>
</svg>
