<svg width="125" height="249" viewBox="0 0 125 249" fill="none" xmlns="http://www.w3.org/2000/svg">
<rect x="5.99805" y="5.5" width="113" height="238" rx="16.5" fill="#C5A869" stroke="#A68C55" stroke-width="11"/>
<path fill-rule="evenodd" clip-rule="evenodd" d="M53.6595 115.661L92.1968 94.8018L70.9836 132.986L32.7998 154.199L53.6595 115.661ZM55.135 117.137L37.8229 149.12L69.5128 131.515L55.135 117.137Z" fill="black"/>
<path fill-rule="evenodd" clip-rule="evenodd" d="M91.8879 118.452C92.2878 120.406 92.4978 122.428 92.4978 124.5C92.4978 126.572 92.2878 128.594 91.8879 130.548L96.1688 129.249C96.1691 129.247 96.1694 129.244 96.1697 129.242L96.1688 129.249L98.2646 128.62C98.4187 127.268 98.4978 125.893 98.4978 124.5C98.4978 123.107 98.4187 121.732 98.2646 120.38L96.1688 119.751C96.1691 119.753 96.1694 119.756 96.1697 119.758L96.1688 119.751L91.8879 118.452ZM96.1697 119.758C96.386 121.307 96.4978 122.891 96.4978 124.5C96.4978 126.109 96.386 127.693 96.1697 129.242C96.1694 129.244 96.1691 129.247 96.1688 129.249L96.1697 129.242C96.386 127.693 96.4978 126.109 96.4978 124.5C96.4978 122.891 96.386 121.307 96.1697 119.758C96.1694 119.756 96.1691 119.753 96.1688 119.751L96.1697 119.758Z" fill="black"/>
<path d="M98.2646 120.38C98.4187 121.732 98.4978 123.107 98.4978 124.5C98.4978 125.893 98.4187 127.268 98.2646 128.62L111.998 124.5L98.2646 120.38Z" fill="black"/>
<path d="M66.6178 88.7332C65.2658 88.5791 63.891 88.5 62.4978 88.5C61.1046 88.5 59.7301 88.5791 58.3781 88.7332L57.7494 90.829C59.3011 90.6121 60.8863 90.5 62.4978 90.5C64.1094 90.5 65.6947 90.6121 67.2465 90.829L66.6178 88.7332Z" fill="black"/>
<path d="M62.4978 88.5C63.891 88.5 65.2658 88.5791 66.6178 88.7332L62.4978 75L58.3781 88.7332C59.7301 88.5791 61.1046 88.5 62.4978 88.5Z" fill="black"/>
<path d="M58.3781 88.7332C41.7881 90.6233 28.6213 103.79 26.7312 120.38L28.827 119.751C29.8252 112.609 33.0424 106.177 37.7595 101.176C38.217 100.691 38.6886 100.219 39.1737 99.7618C44.1751 95.0445 50.6067 91.8272 57.7494 90.829L58.3781 88.7332Z" fill="black"/>
<path d="M26.498 124.5C26.498 123.107 26.5772 121.732 26.7312 120.38L12.998 124.5L26.7312 128.62C26.5772 127.268 26.498 125.893 26.498 124.5Z" fill="black"/>
<path d="M26.7312 120.38C26.5772 121.732 26.498 123.107 26.498 124.5C26.498 125.893 26.5772 127.268 26.7312 128.62L28.827 129.249L28.8261 129.242C28.6099 127.693 28.498 126.109 28.498 124.5C28.498 122.891 28.6099 121.307 28.8261 119.758L28.827 119.751L26.7312 120.38Z" fill="black"/>
<path d="M32.498 124.5C32.498 122.428 32.708 120.406 33.1079 118.452L28.827 119.751L28.8261 119.758C28.6099 121.307 28.498 122.891 28.498 124.5C28.498 126.109 28.6099 127.693 28.8261 129.242L28.827 129.249L33.1079 130.548C32.708 128.594 32.498 126.572 32.498 124.5Z" fill="black"/>
<path d="M66.6178 160.267C65.2658 160.421 63.891 160.5 62.4978 160.5C61.1046 160.5 59.7301 160.421 58.3781 160.267L62.4978 174L66.6178 160.267Z" fill="black"/>
<path d="M62.4978 160.5C63.891 160.5 65.2658 160.421 66.6178 160.267L67.2465 158.171C65.6947 158.388 64.1094 158.5 62.4978 158.5C60.8863 158.5 59.3011 158.388 57.7494 158.171L58.3781 160.267C59.7301 160.421 61.1046 160.5 62.4978 160.5Z" fill="black"/>
<path d="M67.2465 90.829C65.6947 90.6121 64.1094 90.5 62.4978 90.5C60.8863 90.5 59.3011 90.6121 57.7494 90.829L56.498 95.1001C56.5132 95.097 56.5285 95.0939 56.5437 95.0908C58.4681 94.7033 60.4592 94.5 62.4978 94.5C64.3909 94.5 66.243 94.6753 68.0389 95.0107C68.1922 95.0393 68.3451 95.0691 68.4976 95.1001L67.2465 90.829Z" fill="black"/>
<path d="M66.6178 160.267C82.317 158.478 94.9508 146.591 97.8639 131.261C98.0292 130.392 98.1632 129.511 98.2646 128.62L96.1688 129.249C95.1707 136.391 91.9534 142.823 87.2362 147.824C86.7787 148.309 86.307 148.781 85.822 149.238C80.8206 153.956 74.3891 157.173 67.2465 158.171L66.6178 160.267Z" fill="black"/>
<path d="M62.4978 158.5C64.1094 158.5 65.6947 158.388 67.2465 158.171L68.6268 153.873C66.6482 154.284 64.5982 154.5 62.4978 154.5C60.6998 154.5 58.9388 154.342 57.2278 154.039C56.998 153.998 56.7692 153.955 56.5413 153.909L56.5006 153.9L56.4976 153.9L57.7494 158.171C59.3011 158.388 60.8863 158.5 62.4978 158.5Z" fill="black"/>
<path d="M39.1737 99.7618C38.6886 100.219 38.217 100.691 37.7595 101.176L40.5892 104.006C41.0449 103.519 41.5166 103.047 42.0034 102.592L39.1737 99.7618Z" fill="black"/>
<path d="M84.4064 144.994C83.9507 145.481 83.479 145.953 82.9921 146.409L85.822 149.238C86.307 148.781 86.7787 148.309 87.2362 147.824L84.4064 144.994Z" fill="black"/>
<path fill-rule="evenodd" clip-rule="evenodd" d="M98.2646 120.38C97.4731 113.432 94.7037 107.085 90.5334 101.915L89.4803 103.81C92.9704 108.355 95.3381 113.807 96.1688 119.751L98.2646 120.38ZM45.6679 149.338L49.6649 147.117C53.4511 149.27 57.8309 150.5 62.4978 150.5C76.8572 150.5 88.4978 138.859 88.4978 124.5C88.4978 119.833 87.2682 115.453 85.1153 111.667L87.3359 107.67C88.9714 110.079 90.2656 112.738 91.1491 115.579C91.4411 116.518 91.6882 117.476 91.8879 118.452C92.2878 120.406 92.4978 122.428 92.4978 124.5C92.4978 126.572 92.2878 128.594 91.8879 130.548C91.6882 131.524 91.4411 132.482 91.1491 133.421C89.7897 137.792 87.4577 141.734 84.4064 144.994C83.9507 145.481 83.479 145.953 82.9921 146.409C79.0507 150.097 74.1132 152.735 68.6268 153.873C66.6482 154.284 64.5982 154.5 62.4978 154.5C60.6998 154.5 58.9388 154.342 57.2278 154.039C56.998 153.998 56.7692 153.955 56.5413 153.909L56.5006 153.9C52.553 153.1 48.8868 151.523 45.6679 149.338ZM39.9125 152.535L41.8081 151.482C46.353 154.973 51.8049 157.34 57.7494 158.171L58.3781 160.267C51.4302 159.475 45.0827 156.706 39.9125 152.535ZM39.7656 137.129C37.6839 133.39 36.498 129.083 36.498 124.5C36.498 110.141 48.1384 98.5 62.4978 98.5C67.0811 98.5 71.3874 99.6859 75.1266 101.768L79.1894 99.5685C76.0046 97.4321 72.3878 95.8897 68.4976 95.1001C68.3451 95.0691 68.1922 95.0393 68.0389 95.0107C66.243 94.6753 64.3909 94.5 62.4978 94.5C60.4592 94.5 58.4681 94.7033 56.5437 95.0908L56.498 95.1001C50.9599 96.2242 45.9758 98.8739 42.0034 102.592C41.5166 103.047 41.0449 103.519 40.5892 104.006C36.8826 107.967 34.2376 112.933 33.1079 118.452C32.708 120.406 32.498 122.428 32.498 124.5C32.498 126.572 32.708 128.594 33.1079 130.548C33.9005 134.42 35.4389 138.02 37.5665 141.192L39.7656 137.129ZM28.827 129.249C29.6525 135.155 31.9954 140.576 35.4492 145.103L34.4109 147.021C30.2693 141.863 27.5195 135.539 26.7312 128.62L28.827 129.249ZM83.101 97.4513L85.0192 96.413C79.8607 92.2713 73.537 89.5215 66.6178 88.7332L67.2465 90.829C73.1531 91.6544 78.5735 93.9974 83.101 97.4513Z" fill="black"/>
</svg>
