<svg width="167" height="247" viewBox="0 0 167 247" fill="none" xmlns="http://www.w3.org/2000/svg">
<path d="M143.896 105.247L82.7446 208.735L23.382 105.212L82.7204 30.3155L143.896 105.247Z" fill="#191516"/>
<path fill-rule="evenodd" clip-rule="evenodd" d="M82.498 0L0.498047 103.5L82.498 246.5L166.998 103.5L82.498 0ZM153.623 104.511L82.6408 224.636L13.7466 104.491L82.6268 17.5511L153.623 104.511Z" fill="#191516"/>
<path fill-rule="evenodd" clip-rule="evenodd" d="M82.6408 224.636L153.623 104.511L82.6268 17.5511L13.7466 104.491L82.6408 224.636ZM82.7446 208.735L143.896 105.247L82.7204 30.3155L23.382 105.212L82.7446 208.735Z" fill="#F6C808"/>
<path d="M81.3054 141.286C81.3054 143.222 84.0622 146.157 88.5457 148.971C89.6059 149.637 90.9389 150.635 91.5448 151.21C92.908 152.541 94.0288 155.113 94.0288 156.929C94.0288 158.351 94.0289 158.351 95.6647 159.198C97.5126 160.166 101.142 164.085 98.6554 166.097C98.0775 165.83 98.0882 164.493 97.1491 163.616L95.4527 162.012L94.8468 162.92C92.6959 165.915 88.4548 168.699 84.8195 169.546C82.1234 170.151 78.8213 170.393 78.276 170C77.8822 169.728 78.0034 169.516 79.0334 168.699C79.6579 168.217 80.8675 167.151 81.8647 166.271L82.0628 166.097C84.2136 164.191 85.8192 163.343 88.8789 162.466C92.7565 161.346 93.423 161.135 93.423 160.923C93.423 160.318 90.0907 159.349 87.4854 159.198C84.8195 159.047 84.6983 159.047 84.4863 159.682C84.1228 160.802 81.4266 163.797 79.8816 164.796C75.7314 167.458 70.3088 168.245 67.7641 166.611C66.4614 165.764 65.8556 164.977 65.8556 164.13C65.8556 163.737 66.007 163.706 67.1279 164.13C68.7032 164.675 69.6726 164.493 70.8541 163.374C72.5505 161.83 74.1561 160.953 76.1555 160.62C77.9731 160.287 80.0028 159.531 79.7302 159.259C79.5484 159.077 72.399 159.682 70.4299 160.015C67.6429 160.529 64.8559 160.378 62.9171 159.682C61.2206 159.047 58.9789 157.534 57.8883 156.263C56.4039 154.508 56.0707 151.906 57.0703 149.606C57.7368 148.063 58.1912 147.851 58.4639 148.971C58.8577 150.575 62.6444 153.086 66.007 153.963C68.2488 154.569 70.1876 155.597 71.2479 156.838C72.2173 157.897 72.2476 157.927 74.2773 157.836L76.3069 157.746L74.3984 156.717C71.7023 155.265 68.6729 152.602 67.4611 150.575C66.6129 149.213 66.3706 148.426 66.2494 146.883C66.1585 145.733 66.1888 144.886 66.3706 144.886C66.522 144.886 67.2491 145.522 67.9761 146.278C69.5514 147.851 71.6417 149.153 75.0952 150.605C78.4275 152.027 80.639 153.57 81.7295 155.204C82.2445 155.96 82.7898 156.777 82.9716 157.02C83.2139 157.352 84.0622 157.413 87.2127 157.292L91.1509 157.141L89.3333 155.9C88.3336 155.234 86.3645 154.085 84.971 153.328C83.6078 152.602 81.669 151.271 80.6996 150.393C78.7305 148.638 78.1549 147.156 78.579 144.916C78.9728 142.677 81.3054 139.591 81.3054 141.286Z" fill="#F6C808"/>
<path d="M85.4198 126.84H79.1826C76.8437 126.84 76.8437 130.34 79.1826 130.34H85.4198C87.7587 130.34 87.7587 126.84 85.4198 126.84Z" fill="#F6C808"/>
<path d="M86.9791 106.618H77.6234C75.2844 106.618 75.2844 110.118 77.6234 110.118H86.9791C89.318 110.118 89.318 106.618 86.9791 106.618Z" fill="#F6C808"/>
<path d="M82.3012 137.34C80.3521 137.34 79.1826 134.618 79.1826 131.896H85.4198C85.4198 134.618 84.2503 137.34 82.3012 137.34Z" fill="#F6C808"/>
<path d="M78.403 125.285V111.674H86.1994V125.285H78.403Z" fill="#F6C808"/>
<path d="M77.5681 105.063C73.28 105.063 71.3309 101.174 70.5513 99.6181H93.9406C93.1609 101.174 91.2118 105.063 86.9238 105.063H77.5681Z" fill="#F6C808"/>
<path d="M68.6021 92.6182C68.6021 94.1737 69.3818 96.507 70.5513 98.0626H93.9406C95.1101 96.507 95.8897 94.1737 95.8897 92.6182H68.6021Z" fill="#F6C808"/>
<path d="M78.7928 91.0626H75.6742C72.5557 90.2826 67.8778 85.5458 67.8778 79.7849C67.8778 74.3405 75.2844 62.6739 77.6234 58.0072C78.403 58.0072 79.1826 60.7294 79.1826 62.6739C79.1826 66.1739 74.5048 71.2294 74.5048 79.7849C74.5048 86.0049 78.7928 91.0626 78.7928 91.0626Z" fill="#F6C808"/>
<path d="M83.8605 91.0626H80.7419C79.3126 89.3774 76.4539 84.7626 76.4539 79.7849C76.4539 71.6161 81.1318 65.3939 81.1318 60.3406C81.1318 51.7828 77.6234 44.3962 78.403 44.0073C79.1826 43.6184 87.3689 58.7828 87.3689 77.0627C87.3689 85.4626 85.03 89.896 83.8605 91.0626Z" fill="#F6C808"/>
<path d="M86.5893 91.0626H92.4366C93.3462 89.3767 95.1654 84.8382 95.1654 80.1716C95.1654 74.3383 90.0977 68.1161 90.0977 59.1717C90.0977 54.8939 90.8773 53.7273 91.657 52.5606C89.7078 52.5606 87.3689 53.4979 87.3689 60.3406C87.3689 68.8939 89.318 70.0605 89.318 79.3938C89.318 86.8604 87.4989 90.2841 86.5893 91.0626Z" fill="#F6C808"/>
</svg>
