<svg width="125" height="249" viewBox="0 0 125 249" fill="none" xmlns="http://www.w3.org/2000/svg">
<rect x="5.99805" y="5.5" width="113" height="238" rx="16.5" fill="#C5A869" stroke="#A68C55" stroke-width="11"/>
<path d="M60.5421 172.485C60.5421 174.375 57.8547 177.24 53.4841 179.986C52.4505 180.636 51.1511 181.611 50.5604 182.172C49.2315 183.471 48.1389 185.981 48.1389 187.753C48.1389 189.141 48.1389 189.141 46.5442 189.968C44.7428 190.913 40.8151 194.161 40.0178 195.372C39.1023 196.76 39.4567 199.034 40.6084 199.034C40.8151 199.034 41.5239 198.325 42.2031 197.439C42.8823 196.553 44.1817 195.136 45.0971 194.28L46.7509 192.714L47.3415 193.6C49.4383 196.524 53.5727 199.241 57.1164 200.068C59.7447 200.658 62.9636 200.895 63.4952 200.511C63.8791 200.245 63.761 200.038 62.7569 199.241C62.1072 198.739 60.8078 197.587 59.8038 196.701C57.707 194.841 56.1419 194.014 53.1592 193.157C49.3792 192.065 48.7295 191.858 48.7295 191.651C48.7295 191.061 51.978 190.116 54.5177 189.968C57.1164 189.82 57.2345 189.82 57.4413 190.441C57.7956 191.533 60.4239 194.457 61.93 195.431C65.9758 198.03 71.2619 198.798 73.7426 197.203C75.0124 196.376 75.603 195.609 75.603 194.782C75.603 194.398 75.4554 194.368 74.3627 194.782C72.8271 195.313 71.8821 195.136 70.7304 194.043C69.0766 192.537 67.5115 191.681 65.5624 191.356C63.7905 191.031 61.8119 190.293 62.0777 190.027C62.2549 189.85 69.2243 190.441 71.1438 190.765C73.8607 191.267 76.5776 191.12 78.4676 190.441C80.1213 189.82 82.3067 188.344 83.3698 187.103C84.8168 185.391 85.1417 182.851 84.1671 180.607C83.5174 179.1 83.0745 178.894 82.8087 179.986C82.4248 181.552 78.7334 184.003 75.4554 184.859C73.2701 185.45 71.3801 186.454 70.3465 187.665C69.4014 188.698 69.3719 188.728 67.3933 188.639L65.4147 188.551L67.2752 187.546C69.9035 186.129 72.8566 183.53 74.0379 181.552C74.8648 180.223 75.101 179.455 75.2191 177.949C75.3077 176.827 75.2782 176 75.101 176C74.9534 176 74.2446 176.62 73.5358 177.358C72.0002 178.894 69.9626 180.164 66.596 181.581C63.3475 182.969 61.1917 184.475 60.1286 186.07C59.6266 186.808 59.095 187.606 58.9178 187.842C58.6816 188.167 57.8547 188.226 54.7834 188.108L50.9444 187.96L52.7162 186.749C53.6908 186.099 55.6103 184.977 56.9688 184.239C58.2977 183.53 60.1877 182.231 61.1327 181.374C63.0522 179.662 63.6133 178.215 63.1999 176.029C62.816 173.844 60.5421 170.832 60.5421 172.485Z" fill="black"/>
<path d="M57.498 156.509H65.498C68.498 156.509 68.498 161.009 65.498 161.009H57.498C54.498 161.009 54.498 156.509 57.498 156.509Z" fill="black"/>
<path d="M55.498 130.509H67.498C70.498 130.509 70.498 135.009 67.498 135.009H55.498C52.498 135.009 52.498 130.509 55.498 130.509Z" fill="black"/>
<path d="M61.498 170.009C63.998 170.009 65.498 166.509 65.498 163.009H57.498C57.498 166.509 58.998 170.009 61.498 170.009Z" fill="black"/>
<path d="M66.498 154.509V137.009H56.498V154.509H66.498Z" fill="black"/>
<path d="M67.569 128.509C73.069 128.509 75.569 123.509 76.569 121.509H46.569C47.569 123.509 50.069 128.509 55.569 128.509H67.569Z" fill="black"/>
<path d="M79.069 112.509C79.069 114.509 78.069 117.509 76.569 119.509H46.569C45.069 117.509 44.069 114.509 44.069 112.509H79.069Z" fill="black"/>
<path d="M65.998 110.509H69.998C73.998 109.506 79.998 103.416 79.998 96.0092C79.998 89.0092 70.498 74.0092 67.498 68.0092C66.498 68.0092 65.498 71.5092 65.498 74.0092C65.498 78.5092 71.498 85.0092 71.498 96.0092C71.498 104.006 65.998 110.509 65.998 110.509Z" fill="black"/>
<path d="M59.498 110.509H63.498C65.3314 108.343 68.998 102.409 68.998 96.0092C68.998 85.5063 62.998 77.5063 62.998 71.0092C62.998 60.0063 67.498 50.5092 66.498 50.0092C65.498 49.5092 54.998 69.0063 54.998 92.5092C54.998 103.309 57.998 109.009 59.498 110.509Z" fill="black"/>
<path d="M55.998 110.509H48.498C47.3314 108.342 44.998 102.506 44.998 96.5063C44.998 89.0063 51.498 81.0063 51.498 69.5063C51.498 64.0063 50.498 62.5063 49.498 61.0063C51.998 61.0063 54.998 62.2114 54.998 71.0092C54.998 82.0063 52.498 83.5063 52.498 95.5063C52.498 105.106 54.8314 109.508 55.998 110.509Z" fill="black"/>
</svg>
