<svg width="167" height="247" viewBox="0 0 167 247" fill="none" xmlns="http://www.w3.org/2000/svg">
<path d="M143.896 105.247L82.7446 208.735L23.382 105.212L82.7204 30.3155L143.896 105.247Z" fill="#E76C1F"/>
<path fill-rule="evenodd" clip-rule="evenodd" d="M82.498 0L0.498047 103.5L82.498 246.5L166.998 103.5L82.498 0ZM153.623 104.511L82.6408 224.636L13.7466 104.491L82.6268 17.5511L153.623 104.511Z" fill="#E76C1F"/>
<path fill-rule="evenodd" clip-rule="evenodd" d="M82.6408 224.636L153.623 104.511L82.6268 17.5511L13.7466 104.491L82.6408 224.636ZM82.7446 208.735L143.896 105.247L82.7204 30.3155L23.382 105.212L82.7446 208.735Z" fill="#F6C808"/>
<path d="M62.1785 92L39.498 120H55.8279C65.3537 98.16 101.642 97.04 108.9 120H127.498L104.818 92H62.1785Z" fill="#F6C808"/>
</svg>
