<svg width="125" height="249" viewBox="0 0 125 249" fill="none" xmlns="http://www.w3.org/2000/svg">
<rect x="5.99805" y="5.5" width="113" height="238" rx="16.5" fill="#C5A869" stroke="#A68C55" stroke-width="11"/>
<path fill-rule="evenodd" clip-rule="evenodd" d="M87.998 130C89.931 130 91.498 128.433 91.498 126.5C91.498 124.567 89.931 123 87.998 123C86.065 123 84.498 124.567 84.498 126.5C84.498 128.433 86.065 130 87.998 130ZM85.913 131.591C86.5561 131.855 87.2601 132 87.998 132C91.0356 132 93.498 129.538 93.498 126.5C93.498 123.462 91.0356 121 87.998 121C84.9605 121 82.498 123.462 82.498 126.5C82.498 127.011 82.5677 127.505 82.698 127.975C83.1543 129.618 84.3544 130.952 85.913 131.591ZM84.2981 133.025C83.8418 131.382 82.6417 130.048 81.0831 129.409C80.44 129.145 79.736 129 78.998 129C76.8484 129 74.9868 130.233 74.0821 132.031C73.7085 132.773 73.498 133.612 73.498 134.5C73.498 135.388 73.7085 136.227 74.0821 136.969C74.9868 138.767 76.8484 140 78.998 140C82.0356 140 84.498 137.538 84.498 134.5C84.498 133.989 84.4284 133.495 84.2981 133.025ZM71.914 136.969C72.2876 136.227 72.498 135.388 72.498 134.5C72.498 133.612 72.2876 132.773 71.914 132.031C71.0093 130.233 69.1477 129 66.998 129C64.8484 129 62.9868 130.233 62.0821 132.031C61.7085 132.773 61.498 133.612 61.498 134.5C61.498 135.388 61.7085 136.227 62.0821 136.969C62.9868 138.767 64.8484 140 66.998 140C69.1477 140 71.0093 138.767 71.914 136.969ZM59.914 136.969C60.2876 136.227 60.498 135.388 60.498 134.5C60.498 133.612 60.2876 132.773 59.914 132.031C59.0093 130.233 57.1477 129 54.998 129C52.8484 129 50.9868 130.233 50.0821 132.031C49.7084 132.773 49.498 133.612 49.498 134.5C49.498 135.388 49.7084 136.227 50.0821 136.969C50.9868 138.767 52.8484 140 54.998 140C57.1477 140 59.0093 138.767 59.914 136.969ZM47.914 136.969C48.2876 136.227 48.498 135.388 48.498 134.5C48.498 133.612 48.2876 132.773 47.914 132.031C47.0093 130.233 45.1477 129 42.998 129C41.6667 129 40.4458 129.473 39.4943 130.26C39.4013 130.337 39.3108 130.417 39.2231 130.5C38.1609 131.503 37.498 132.924 37.498 134.5C37.498 134.841 37.5291 135.175 37.5887 135.5C38.0588 138.06 40.3018 140 42.998 140C45.1477 140 47.0093 138.767 47.914 136.969ZM35.5018 134.74C35.5948 134.663 35.6853 134.583 35.773 134.5C36.8352 133.497 37.498 132.076 37.498 130.5C37.498 130.159 37.4669 129.825 37.4074 129.5C36.9373 126.94 34.6943 125 31.998 125C28.9605 125 26.498 127.462 26.498 130.5C26.498 133.538 28.9605 136 31.998 136C33.3294 136 34.5503 135.527 35.5018 134.74ZM78.998 138C80.931 138 82.498 136.433 82.498 134.5C82.498 132.567 80.931 131 78.998 131C77.0651 131 75.498 132.567 75.498 134.5C75.498 136.433 77.0651 138 78.998 138ZM66.998 138C68.931 138 70.498 136.433 70.498 134.5C70.498 132.567 68.931 131 66.998 131C65.0651 131 63.498 132.567 63.498 134.5C63.498 136.433 65.0651 138 66.998 138ZM31.998 134C33.931 134 35.498 132.433 35.498 130.5C35.498 128.567 33.931 127 31.998 127C30.0651 127 28.498 128.567 28.498 130.5C28.498 132.433 30.0651 134 31.998 134ZM42.998 138C44.931 138 46.498 136.433 46.498 134.5C46.498 132.567 44.931 131 42.998 131C41.0651 131 39.498 132.567 39.498 134.5C39.498 136.433 41.0651 138 42.998 138ZM54.998 138C56.931 138 58.498 136.433 58.498 134.5C58.498 132.567 56.931 131 54.998 131C53.0651 131 51.498 132.567 51.498 134.5C51.498 136.433 53.0651 138 54.998 138Z" fill="black"/>
<path d="M65.998 104H52.998L49.998 109H69.498L65.998 104Z" fill="black"/>
<path d="M39.4981 108L42.998 110.5L35.9507 117L31.998 114L39.4981 108Z" fill="black"/>
<path d="M96.8824 130.547C97.4714 129.449 97.9981 128.033 97.9981 126.5C97.9981 125.435 97.8281 124.515 97.5621 123.748L94.1671 123.749C94.2006 123.781 94.9981 124.535 94.9981 126.5C94.9981 127.367 94.6914 128.285 94.2388 129.128C93.7884 129.968 93.252 130.625 92.9374 130.939L85.4374 138.439C85.3062 138.571 85.1693 138.71 85.0267 138.855C83.3761 140.534 80.9519 143 77.4981 143H39.4981C38.7966 143 37.5562 142.637 35.9507 141.825C34.4003 141.042 32.6838 139.929 31.0862 138.644C29.4851 137.356 28.0494 135.932 27.028 134.542C25.9805 133.116 25.4981 131.902 25.4981 131C25.4981 129.217 25.5135 127.979 26.6981 126.4H23.233C22.4978 128.07 22.498 129.582 22.498 130.953L22.4981 131C22.4981 132.848 23.4191 134.697 24.6104 136.318C25.8277 137.975 27.466 139.582 29.2059 140.981C30.9493 142.384 32.8408 143.615 34.5971 144.503C36.2984 145.363 38.0635 146 39.4981 146H77.4981C82.2988 146 85.6059 142.578 87.168 140.961C87.3134 140.811 87.4437 140.676 87.5587 140.561L95.0587 133.061C95.5775 132.542 96.291 131.649 96.8824 130.547Z" fill="black"/>
<path fill-rule="evenodd" clip-rule="evenodd" d="M101.498 111H44.998L36.998 119H26.998L21.998 124H26.498L28.998 121.5H33.998V123L38.498 127.5H77.998C79.498 124.333 84.898 118.5 92.498 118.5C96.998 118.5 97.998 121 99.498 123H102.998C101.498 120.5 98.898 116 92.498 116C88.498 116 87.498 116.5 85.498 117.5V114H101.498V111ZM75.498 121H42.498C40.498 121 41.498 118.5 42.498 117L44.998 113.5C45.5379 112.748 45.969 112.512 46.998 112.5H73.498C75.5355 112.465 76.0254 112.768 76.498 113.5L78.498 117C79.498 119 77.498 121 75.498 121Z" fill="black"/>
<path d="M44.498 119.5H75.498C77.498 119.5 75.498 114 73.498 114H47.498C45.998 114 42.998 119.5 44.498 119.5Z" fill="black"/>
</svg>
