<svg width="167" height="247" viewBox="0 0 167 247" fill="none" xmlns="http://www.w3.org/2000/svg">
<path d="M143.396 105.247L82.2446 208.735L22.882 105.212L82.2204 30.3155L143.396 105.247Z" fill="#FFEE00"/>
<path fill-rule="evenodd" clip-rule="evenodd" d="M81.998 0L-0.00195312 103.5L81.998 246.5L166.498 103.5L81.998 0ZM153.123 104.511L82.1408 224.636L13.2466 104.491L82.1268 17.5511L153.123 104.511Z" fill="#FFEE00"/>
<path fill-rule="evenodd" clip-rule="evenodd" d="M82.1408 224.636L153.123 104.511L82.1268 17.5511L13.2466 104.491L82.1408 224.636ZM82.2446 208.735L143.396 105.247L82.2204 30.3155L22.882 105.212L82.2446 208.735Z" fill="#F6C808"/>
<path fill-rule="evenodd" clip-rule="evenodd" d="M81.6407 224.636L152.623 104.512L81.6267 17.5513L12.7466 104.491L81.6407 224.636ZM81.7446 208.735L142.896 105.247L81.7203 30.3157L22.3819 105.212L81.7446 208.735Z" fill="#F6C808"/>
<path d="M80.7733 225.134L81.6278 226.624L82.5017 225.145L153.484 105.02L153.839 104.42L153.398 103.879L82.4013 16.9188L81.615 15.9557L80.8429 16.9303L11.9628 103.87L11.5422 104.401L11.8791 104.989L80.7733 225.134ZM81.732 31.9113L141.68 105.339L81.7575 206.747L23.5863 105.302L81.732 31.9113Z" stroke="#AC8D09" stroke-width="2"/>
<mask id="path-4-outside-1_420_364" maskUnits="userSpaceOnUse" x="31.998" y="92" width="90" height="45" fill="black">
<rect fill="white" x="31.998" y="92" width="90" height="45"/>
<path fill-rule="evenodd" clip-rule="evenodd" d="M72.2444 129.115C72.5774 128.446 72.7649 127.69 72.7649 126.89C72.7649 126.09 72.5774 125.334 72.2444 124.665C71.4382 123.045 69.7791 121.934 67.8633 121.934C65.9476 121.934 64.2885 123.045 63.4823 124.665C63.1493 125.334 62.9618 126.09 62.9618 126.89C62.9618 127.69 63.1493 128.446 63.4823 129.115C64.2885 130.735 65.9476 131.846 67.8633 131.846C69.7791 131.846 71.4382 130.735 72.2444 129.115ZM67.8633 130.044C69.586 130.044 70.9825 128.632 70.9825 126.89C70.9825 125.148 69.586 123.736 67.8633 123.736C66.1407 123.736 64.7442 125.148 64.7442 126.89C64.7442 128.632 66.1407 130.044 67.8633 130.044Z"/>
<path fill-rule="evenodd" clip-rule="evenodd" d="M62.0706 126.89C62.0706 127.69 61.8831 128.446 61.5501 129.115C60.7439 130.735 59.0848 131.846 57.169 131.846C55.2533 131.846 53.5942 130.735 52.788 129.115C52.455 128.446 52.2675 127.69 52.2675 126.89C52.2675 126.09 52.455 125.334 52.788 124.665C53.5942 123.045 55.2533 121.934 57.169 121.934C59.0848 121.934 60.7439 123.045 61.5501 124.665C61.8831 125.334 62.0706 126.09 62.0706 126.89ZM57.169 130.044C58.8917 130.044 60.2882 128.632 60.2882 126.89C60.2882 125.148 58.8917 123.736 57.169 123.736C55.4464 123.736 54.0499 125.148 54.0499 126.89C54.0499 128.632 55.4464 130.044 57.169 130.044Z"/>
<path d="M56.7234 112.022H119.998V121.033H47.8115C49.317 115.807 51.8219 112.022 56.7234 112.022Z"/>
<path d="M33.998 100.758V107.967H62.9618V110.67H106.185V109.319C108.413 109.319 110.641 109.319 111.977 107.967C113.314 106.615 112.869 103.011 112.869 99.8572H98.6094C97.7183 96.7033 95.0447 94 91.0343 94H83.9048C76.7753 94 74.1017 96.2528 70.9825 99.8572H62.9618V100.758H33.998Z"/>
<path fill-rule="evenodd" clip-rule="evenodd" d="M93.633 129.115C93.966 128.446 94.1535 127.69 94.1535 126.89C94.1535 126.09 93.966 125.334 93.633 124.665C92.8268 123.045 91.1677 121.934 89.2519 121.934C87.3362 121.934 85.6771 123.045 84.8709 124.665C84.5379 125.334 84.3504 126.09 84.3504 126.89C84.3504 127.69 84.5379 128.446 84.8709 129.115C85.6771 130.735 87.3362 131.846 89.2519 131.846C91.1677 131.846 92.8268 130.735 93.633 129.115ZM89.2519 130.044C90.9746 130.044 92.3711 128.632 92.3711 126.89C92.3711 125.148 90.9746 123.736 89.2519 123.736C87.5293 123.736 86.1328 125.148 86.1328 126.89C86.1328 128.632 87.5293 130.044 89.2519 130.044Z"/>
<path fill-rule="evenodd" clip-rule="evenodd" d="M83.4592 126.89C83.4592 127.69 83.2717 128.446 82.9387 129.115C82.1325 130.735 80.4734 131.846 78.5576 131.846C76.6419 131.846 74.9828 130.735 74.1766 129.115C73.8436 128.446 73.6561 127.69 73.6561 126.89C73.6561 126.09 73.8436 125.334 74.1766 124.665C74.9828 123.045 76.6419 121.934 78.5576 121.934C80.4734 121.934 82.1325 123.045 82.9387 124.665C83.2717 125.334 83.4592 126.09 83.4592 126.89ZM78.5576 130.044C80.2803 130.044 81.6768 128.632 81.6768 126.89C81.6768 125.148 80.2803 123.736 78.5576 123.736C76.835 123.736 75.4385 125.148 75.4385 126.89C75.4385 128.632 76.835 130.044 78.5576 130.044Z"/>
<path fill-rule="evenodd" clip-rule="evenodd" d="M115.022 129.115C115.355 128.446 115.542 127.69 115.542 126.89C115.542 126.09 115.355 125.334 115.022 124.665C114.215 123.045 112.556 121.934 110.641 121.934C108.725 121.934 107.066 123.045 106.259 124.665C105.926 125.334 105.739 126.09 105.739 126.89C105.739 127.69 105.926 128.446 106.259 129.115C107.066 130.735 108.725 131.846 110.641 131.846C112.556 131.846 114.215 130.735 115.022 129.115ZM110.641 130.044C112.363 130.044 113.76 128.632 113.76 126.89C113.76 125.148 112.363 123.736 110.641 123.736C108.918 123.736 107.521 125.148 107.521 126.89C107.521 128.632 108.918 130.044 110.641 130.044Z"/>
<path fill-rule="evenodd" clip-rule="evenodd" d="M104.848 126.89C104.848 127.69 104.66 128.446 104.327 129.115C103.521 130.735 101.862 131.846 99.9462 131.846C98.0305 131.846 96.3714 130.735 95.5652 129.115C95.2322 128.446 95.0447 127.69 95.0447 126.89C95.0447 126.09 95.2322 125.334 95.5652 124.665C96.3714 123.045 98.0305 121.934 99.9462 121.934C101.862 121.934 103.521 123.045 104.327 124.665C104.66 125.334 104.848 126.09 104.848 126.89ZM99.9462 130.044C101.669 130.044 103.065 128.632 103.065 126.89C103.065 125.148 101.669 123.736 99.9462 123.736C98.2236 123.736 96.8271 125.148 96.8271 126.89C96.8271 128.632 98.2236 130.044 99.9462 130.044Z"/>
<path d="M119.552 127.341C119.552 125.472 119.323 124.198 118.856 123.186C118.67 122.784 118.452 122.436 118.215 122.121H115.803C116.484 122.809 116.927 123.268 117.241 123.948C117.554 124.626 117.77 125.605 117.77 127.341C117.77 129.004 117.359 130.424 116.36 131.434C115.361 132.445 113.622 133.198 110.641 133.198H56.2778C54.025 133.198 52.0453 131.827 50.9272 129.85C49.8118 127.877 49.6142 125.404 50.8134 123.282L49.2658 122.388C47.7071 125.146 48.0005 128.305 49.3798 130.744C50.7563 133.179 53.2747 135 56.2778 135H110.641C113.897 135 116.169 134.176 117.62 132.709C119.072 131.241 119.552 129.282 119.552 127.341Z"/>
</mask>
<path fill-rule="evenodd" clip-rule="evenodd" d="M72.2444 129.115C72.5774 128.446 72.7649 127.69 72.7649 126.89C72.7649 126.09 72.5774 125.334 72.2444 124.665C71.4382 123.045 69.7791 121.934 67.8633 121.934C65.9476 121.934 64.2885 123.045 63.4823 124.665C63.1493 125.334 62.9618 126.09 62.9618 126.89C62.9618 127.69 63.1493 128.446 63.4823 129.115C64.2885 130.735 65.9476 131.846 67.8633 131.846C69.7791 131.846 71.4382 130.735 72.2444 129.115ZM67.8633 130.044C69.586 130.044 70.9825 128.632 70.9825 126.89C70.9825 125.148 69.586 123.736 67.8633 123.736C66.1407 123.736 64.7442 125.148 64.7442 126.89C64.7442 128.632 66.1407 130.044 67.8633 130.044Z" fill="#F6C808"/>
<path fill-rule="evenodd" clip-rule="evenodd" d="M62.0706 126.89C62.0706 127.69 61.8831 128.446 61.5501 129.115C60.7439 130.735 59.0848 131.846 57.169 131.846C55.2533 131.846 53.5942 130.735 52.788 129.115C52.455 128.446 52.2675 127.69 52.2675 126.89C52.2675 126.09 52.455 125.334 52.788 124.665C53.5942 123.045 55.2533 121.934 57.169 121.934C59.0848 121.934 60.7439 123.045 61.5501 124.665C61.8831 125.334 62.0706 126.09 62.0706 126.89ZM57.169 130.044C58.8917 130.044 60.2882 128.632 60.2882 126.89C60.2882 125.148 58.8917 123.736 57.169 123.736C55.4464 123.736 54.0499 125.148 54.0499 126.89C54.0499 128.632 55.4464 130.044 57.169 130.044Z" fill="#F6C808"/>
<path d="M56.7234 112.022H119.998V121.033H47.8115C49.317 115.807 51.8219 112.022 56.7234 112.022Z" fill="#F6C808"/>
<path d="M33.998 100.758V107.967H62.9618V110.67H106.185V109.319C108.413 109.319 110.641 109.319 111.977 107.967C113.314 106.615 112.869 103.011 112.869 99.8572H98.6094C97.7183 96.7033 95.0447 94 91.0343 94H83.9048C76.7753 94 74.1017 96.2528 70.9825 99.8572H62.9618V100.758H33.998Z" fill="#F6C808"/>
<path fill-rule="evenodd" clip-rule="evenodd" d="M93.633 129.115C93.966 128.446 94.1535 127.69 94.1535 126.89C94.1535 126.09 93.966 125.334 93.633 124.665C92.8268 123.045 91.1677 121.934 89.2519 121.934C87.3362 121.934 85.6771 123.045 84.8709 124.665C84.5379 125.334 84.3504 126.09 84.3504 126.89C84.3504 127.69 84.5379 128.446 84.8709 129.115C85.6771 130.735 87.3362 131.846 89.2519 131.846C91.1677 131.846 92.8268 130.735 93.633 129.115ZM89.2519 130.044C90.9746 130.044 92.3711 128.632 92.3711 126.89C92.3711 125.148 90.9746 123.736 89.2519 123.736C87.5293 123.736 86.1328 125.148 86.1328 126.89C86.1328 128.632 87.5293 130.044 89.2519 130.044Z" fill="#F6C808"/>
<path fill-rule="evenodd" clip-rule="evenodd" d="M83.4592 126.89C83.4592 127.69 83.2717 128.446 82.9387 129.115C82.1325 130.735 80.4734 131.846 78.5576 131.846C76.6419 131.846 74.9828 130.735 74.1766 129.115C73.8436 128.446 73.6561 127.69 73.6561 126.89C73.6561 126.09 73.8436 125.334 74.1766 124.665C74.9828 123.045 76.6419 121.934 78.5576 121.934C80.4734 121.934 82.1325 123.045 82.9387 124.665C83.2717 125.334 83.4592 126.09 83.4592 126.89ZM78.5576 130.044C80.2803 130.044 81.6768 128.632 81.6768 126.89C81.6768 125.148 80.2803 123.736 78.5576 123.736C76.835 123.736 75.4385 125.148 75.4385 126.89C75.4385 128.632 76.835 130.044 78.5576 130.044Z" fill="#F6C808"/>
<path fill-rule="evenodd" clip-rule="evenodd" d="M115.022 129.115C115.355 128.446 115.542 127.69 115.542 126.89C115.542 126.09 115.355 125.334 115.022 124.665C114.215 123.045 112.556 121.934 110.641 121.934C108.725 121.934 107.066 123.045 106.259 124.665C105.926 125.334 105.739 126.09 105.739 126.89C105.739 127.69 105.926 128.446 106.259 129.115C107.066 130.735 108.725 131.846 110.641 131.846C112.556 131.846 114.215 130.735 115.022 129.115ZM110.641 130.044C112.363 130.044 113.76 128.632 113.76 126.89C113.76 125.148 112.363 123.736 110.641 123.736C108.918 123.736 107.521 125.148 107.521 126.89C107.521 128.632 108.918 130.044 110.641 130.044Z" fill="#F6C808"/>
<path fill-rule="evenodd" clip-rule="evenodd" d="M104.848 126.89C104.848 127.69 104.66 128.446 104.327 129.115C103.521 130.735 101.862 131.846 99.9462 131.846C98.0305 131.846 96.3714 130.735 95.5652 129.115C95.2322 128.446 95.0447 127.69 95.0447 126.89C95.0447 126.09 95.2322 125.334 95.5652 124.665C96.3714 123.045 98.0305 121.934 99.9462 121.934C101.862 121.934 103.521 123.045 104.327 124.665C104.66 125.334 104.848 126.09 104.848 126.89ZM99.9462 130.044C101.669 130.044 103.065 128.632 103.065 126.89C103.065 125.148 101.669 123.736 99.9462 123.736C98.2236 123.736 96.8271 125.148 96.8271 126.89C96.8271 128.632 98.2236 130.044 99.9462 130.044Z" fill="#F6C808"/>
<path d="M119.552 127.341C119.552 125.472 119.323 124.198 118.856 123.186C118.67 122.784 118.452 122.436 118.215 122.121H115.803C116.484 122.809 116.927 123.268 117.241 123.948C117.554 124.626 117.77 125.605 117.77 127.341C117.77 129.004 117.359 130.424 116.36 131.434C115.361 132.445 113.622 133.198 110.641 133.198H56.2778C54.025 133.198 52.0453 131.827 50.9272 129.85C49.8118 127.877 49.6142 125.404 50.8134 123.282L49.2658 122.388C47.7071 125.146 48.0005 128.305 49.3798 130.744C50.7563 133.179 53.2747 135 56.2778 135H110.641C113.897 135 116.169 134.176 117.62 132.709C119.072 131.241 119.552 129.282 119.552 127.341Z" fill="#F6C808"/>
<path fill-rule="evenodd" clip-rule="evenodd" d="M72.2444 129.115C72.5774 128.446 72.7649 127.69 72.7649 126.89C72.7649 126.09 72.5774 125.334 72.2444 124.665C71.4382 123.045 69.7791 121.934 67.8633 121.934C65.9476 121.934 64.2885 123.045 63.4823 124.665C63.1493 125.334 62.9618 126.09 62.9618 126.89C62.9618 127.69 63.1493 128.446 63.4823 129.115C64.2885 130.735 65.9476 131.846 67.8633 131.846C69.7791 131.846 71.4382 130.735 72.2444 129.115ZM67.8633 130.044C69.586 130.044 70.9825 128.632 70.9825 126.89C70.9825 125.148 69.586 123.736 67.8633 123.736C66.1407 123.736 64.7442 125.148 64.7442 126.89C64.7442 128.632 66.1407 130.044 67.8633 130.044Z" stroke="#AC8D09" stroke-width="4" mask="url(#path-4-outside-1_420_364)"/>
<path fill-rule="evenodd" clip-rule="evenodd" d="M62.0706 126.89C62.0706 127.69 61.8831 128.446 61.5501 129.115C60.7439 130.735 59.0848 131.846 57.169 131.846C55.2533 131.846 53.5942 130.735 52.788 129.115C52.455 128.446 52.2675 127.69 52.2675 126.89C52.2675 126.09 52.455 125.334 52.788 124.665C53.5942 123.045 55.2533 121.934 57.169 121.934C59.0848 121.934 60.7439 123.045 61.5501 124.665C61.8831 125.334 62.0706 126.09 62.0706 126.89ZM57.169 130.044C58.8917 130.044 60.2882 128.632 60.2882 126.89C60.2882 125.148 58.8917 123.736 57.169 123.736C55.4464 123.736 54.0499 125.148 54.0499 126.89C54.0499 128.632 55.4464 130.044 57.169 130.044Z" stroke="#AC8D09" stroke-width="4" mask="url(#path-4-outside-1_420_364)"/>
<path d="M56.7234 112.022H119.998V121.033H47.8115C49.317 115.807 51.8219 112.022 56.7234 112.022Z" stroke="#AC8D09" stroke-width="4" mask="url(#path-4-outside-1_420_364)"/>
<path d="M33.998 100.758V107.967H62.9618V110.67H106.185V109.319C108.413 109.319 110.641 109.319 111.977 107.967C113.314 106.615 112.869 103.011 112.869 99.8572H98.6094C97.7183 96.7033 95.0447 94 91.0343 94H83.9048C76.7753 94 74.1017 96.2528 70.9825 99.8572H62.9618V100.758H33.998Z" stroke="#AC8D09" stroke-width="4" mask="url(#path-4-outside-1_420_364)"/>
<path fill-rule="evenodd" clip-rule="evenodd" d="M93.633 129.115C93.966 128.446 94.1535 127.69 94.1535 126.89C94.1535 126.09 93.966 125.334 93.633 124.665C92.8268 123.045 91.1677 121.934 89.2519 121.934C87.3362 121.934 85.6771 123.045 84.8709 124.665C84.5379 125.334 84.3504 126.09 84.3504 126.89C84.3504 127.69 84.5379 128.446 84.8709 129.115C85.6771 130.735 87.3362 131.846 89.2519 131.846C91.1677 131.846 92.8268 130.735 93.633 129.115ZM89.2519 130.044C90.9746 130.044 92.3711 128.632 92.3711 126.89C92.3711 125.148 90.9746 123.736 89.2519 123.736C87.5293 123.736 86.1328 125.148 86.1328 126.89C86.1328 128.632 87.5293 130.044 89.2519 130.044Z" stroke="#AC8D09" stroke-width="4" mask="url(#path-4-outside-1_420_364)"/>
<path fill-rule="evenodd" clip-rule="evenodd" d="M83.4592 126.89C83.4592 127.69 83.2717 128.446 82.9387 129.115C82.1325 130.735 80.4734 131.846 78.5576 131.846C76.6419 131.846 74.9828 130.735 74.1766 129.115C73.8436 128.446 73.6561 127.69 73.6561 126.89C73.6561 126.09 73.8436 125.334 74.1766 124.665C74.9828 123.045 76.6419 121.934 78.5576 121.934C80.4734 121.934 82.1325 123.045 82.9387 124.665C83.2717 125.334 83.4592 126.09 83.4592 126.89ZM78.5576 130.044C80.2803 130.044 81.6768 128.632 81.6768 126.89C81.6768 125.148 80.2803 123.736 78.5576 123.736C76.835 123.736 75.4385 125.148 75.4385 126.89C75.4385 128.632 76.835 130.044 78.5576 130.044Z" stroke="#AC8D09" stroke-width="4" mask="url(#path-4-outside-1_420_364)"/>
<path fill-rule="evenodd" clip-rule="evenodd" d="M115.022 129.115C115.355 128.446 115.542 127.69 115.542 126.89C115.542 126.09 115.355 125.334 115.022 124.665C114.215 123.045 112.556 121.934 110.641 121.934C108.725 121.934 107.066 123.045 106.259 124.665C105.926 125.334 105.739 126.09 105.739 126.89C105.739 127.69 105.926 128.446 106.259 129.115C107.066 130.735 108.725 131.846 110.641 131.846C112.556 131.846 114.215 130.735 115.022 129.115ZM110.641 130.044C112.363 130.044 113.76 128.632 113.76 126.89C113.76 125.148 112.363 123.736 110.641 123.736C108.918 123.736 107.521 125.148 107.521 126.89C107.521 128.632 108.918 130.044 110.641 130.044Z" stroke="#AC8D09" stroke-width="4" mask="url(#path-4-outside-1_420_364)"/>
<path fill-rule="evenodd" clip-rule="evenodd" d="M104.848 126.89C104.848 127.69 104.66 128.446 104.327 129.115C103.521 130.735 101.862 131.846 99.9462 131.846C98.0305 131.846 96.3714 130.735 95.5652 129.115C95.2322 128.446 95.0447 127.69 95.0447 126.89C95.0447 126.09 95.2322 125.334 95.5652 124.665C96.3714 123.045 98.0305 121.934 99.9462 121.934C101.862 121.934 103.521 123.045 104.327 124.665C104.66 125.334 104.848 126.09 104.848 126.89ZM99.9462 130.044C101.669 130.044 103.065 128.632 103.065 126.89C103.065 125.148 101.669 123.736 99.9462 123.736C98.2236 123.736 96.8271 125.148 96.8271 126.89C96.8271 128.632 98.2236 130.044 99.9462 130.044Z" stroke="#AC8D09" stroke-width="4" mask="url(#path-4-outside-1_420_364)"/>
<path d="M119.552 127.341C119.552 125.472 119.323 124.198 118.856 123.186C118.67 122.784 118.452 122.436 118.215 122.121H115.803C116.484 122.809 116.927 123.268 117.241 123.948C117.554 124.626 117.77 125.605 117.77 127.341C117.77 129.004 117.359 130.424 116.36 131.434C115.361 132.445 113.622 133.198 110.641 133.198H56.2778C54.025 133.198 52.0453 131.827 50.9272 129.85C49.8118 127.877 49.6142 125.404 50.8134 123.282L49.2658 122.388C47.7071 125.146 48.0005 128.305 49.3798 130.744C50.7563 133.179 53.2747 135 56.2778 135H110.641C113.897 135 116.169 134.176 117.62 132.709C119.072 131.241 119.552 129.282 119.552 127.341Z" stroke="#AC8D09" stroke-width="4" mask="url(#path-4-outside-1_420_364)"/>
</svg>
