<svg width="348" height="307" viewBox="0 0 348 307" fill="none" xmlns="http://www.w3.org/2000/svg">
<path d="M162.136 179.289L179.48 158.492L209.455 170.473L224.061 152.96L194.085 140.978L210.516 121.276L185.273 111.187L168.842 130.889L138.867 118.908L124.261 136.421L154.237 148.402L136.893 169.199L162.136 179.289Z" fill="white"/>
<path fill-rule="evenodd" clip-rule="evenodd" d="M170.059 12.2851L4.75921 210.495C-0.446668 216.737 -1.24476 223.904 1.69639 230.268C-1.86894 237.932 0.297278 246.268 7.14525 252.564C9.92868 255.123 13.4856 257.344 17.7454 259.047L129.475 303.705C146.445 310.488 168.143 306.463 177.941 294.715L343.241 96.5052C348.447 90.2629 349.245 83.0961 346.304 76.7323C351.318 65.9531 344.995 53.8446 330.255 47.9529L218.525 3.29478C201.555 -3.48782 179.857 0.537274 170.059 12.2851ZM194.338 15.5894C187.945 16.7754 183.633 19.4292 181.579 21.8921L16.279 220.102C14.9289 221.721 14.9793 222.649 15.0106 222.959C15.0574 223.423 15.3764 224.755 17.2972 226.521C18.5874 227.707 20.5394 229.01 23.3127 230.118L135.043 274.777C140.652 277.019 147.415 277.569 153.662 276.411C160.055 275.225 164.367 272.571 166.421 270.108L331.721 71.8981C332.673 70.7571 332.903 69.9691 332.967 69.614C333.028 69.2715 333.022 68.8651 332.796 68.2814C332.315 67.0368 330.356 64.1472 324.687 61.8815L212.957 17.2234C207.348 14.9812 200.585 14.4306 194.338 15.5894Z" fill="white"/>
</svg>
