<svg width="263" height="228" viewBox="0 0 263 228" fill="none" xmlns="http://www.w3.org/2000/svg">
<g filter="url(#filter0_d_557_137)">
<path d="M128.574 14.9252C135.456 6.68224 150.698 3.85799 162.618 8.61707L241.101 39.9519C253.021 44.7109 257.105 55.2512 250.223 63.4941L134.11 202.57C127.228 210.813 111.986 213.637 100.066 208.878L21.583 177.543C9.66309 172.784 5.57902 162.244 12.461 154.001L128.574 14.9252Z" fill="#C5A869"/>
<path fill-rule="evenodd" clip-rule="evenodd" d="M234.871 47.4145L156.387 16.0797C150.427 13.7001 142.806 15.1123 139.365 19.2337L23.2524 158.309C19.8115 162.431 21.8535 167.701 27.8135 170.081L106.297 201.415C112.257 203.795 119.878 202.383 123.319 198.261L239.432 59.1856C242.873 55.0641 240.831 49.794 234.871 47.4145ZM162.618 8.61707C150.698 3.85799 135.456 6.68224 128.574 14.9252L12.461 154.001C5.57902 162.244 9.66309 172.784 21.583 177.543L100.066 208.878C111.986 213.637 127.228 210.813 134.11 202.57L250.223 63.4941C257.105 55.2512 253.021 44.7109 241.101 39.9519L162.618 8.61707Z" fill="#A68C55"/>
<path d="M61.1662 132.742L115.233 127.518L135.725 162.51L142.161 154.802L121.668 119.81L67.6014 125.034L61.1662 132.742Z" fill="#212121"/>
<path d="M129.672 112.574C125.254 119.433 133.289 126.259 142.988 125.609C139.499 121.954 141.389 121.352 139.304 118.71C137.636 116.597 134.483 115.429 133.782 113.918C136.313 114.671 139.087 115.382 141.858 115.988C142.791 116.193 143.726 116.386 144.653 116.565C141.984 124.462 155.12 129.096 162.159 126.931C158.311 124.49 158.836 123.078 157.275 121.815C154.627 119.672 150.264 118.461 149.609 117.398C151.828 117.707 153.879 117.897 155.602 117.926C160.577 121.776 173.371 120.553 178.13 112.502C175.035 113.076 172.299 112.436 167.94 112.957C163.581 113.478 158.863 115.212 155.63 117.143C153.579 117.108 151.005 116.833 148.209 116.386C149.447 115.523 152.749 115.485 156.693 113.894C160.638 112.303 163.394 109.785 166.772 108.872C163.414 106.627 157.017 107.239 152.299 108.974C147.581 110.708 145.674 112.208 144.945 115.808C144.037 115.632 143.119 115.443 142.2 115.241C138.915 114.522 135.639 113.659 132.79 112.756C136.127 111.11 138.862 111.75 142.807 110.159C146.751 108.568 150.848 105.228 152.395 104.941C148.754 103.036 144.188 103.021 138.696 104.899C132.147 107.26 132.976 109.4 130.474 111.98C129.309 111.564 128.175 111.112 127.072 110.621C129.052 107.833 132.147 107.26 131.828 102.157C131.434 97.9295 129.133 95.2018 124.926 93.9743C125.341 95.0444 123.206 99.1673 123.186 102.325C123.166 105.483 125.335 106.801 124.942 109.623C122.387 108.368 119.668 106.837 117.125 105.23C116.413 104.78 115.716 104.325 115.043 103.869C119.186 101.633 120.111 99.7408 119.924 96.0479C119.737 92.355 117.305 88.218 112.815 87.3297C113.361 89.8091 111.586 92.7186 111.565 95.8764C111.545 99.0343 113.148 101.031 112.686 102.204C110.73 100.753 109.097 99.349 108.028 98.1378C108.829 95.2364 108.642 91.5435 107.115 88.6725C105.588 85.8013 103.419 84.4829 102.59 82.3427C94.8876 89.2178 99.7521 97.4919 107.061 98.5458C107.959 99.5632 109.223 100.697 110.72 101.871C109.06 102.01 105.362 100.003 101.355 99.4887C98.9922 99.1854 97.4865 100.206 92.5054 99.1214C93.3143 104.419 105.685 109.969 114.24 104.423C114.928 104.888 115.638 105.351 116.36 105.808C118.505 107.164 120.782 108.47 122.991 109.609C120.748 109.945 117.709 108.641 114.228 108.699C109.878 108.771 110.068 110.204 103.747 109.941C107.782 116.075 120.349 117.474 126.729 111.399C127.72 111.834 128.632 112.198 129.672 112.574Z" fill="#212121"/>
<path d="M142.585 101.025L147.966 94.5796L157.285 98.3006L161.817 92.8733L152.497 89.1523L157.594 83.0465L149.746 79.913L144.648 86.0188L135.329 82.2978L130.797 87.7252L140.117 91.4462L134.736 97.8911L142.585 101.025Z" fill="#212121"/>
<path d="M131.086 75.6288L160.696 73.0649L172.29 92.0796L175.743 87.9437L164.149 68.929L134.539 71.4929L131.086 75.6288Z" fill="#212121"/>
</g>
<defs>
<filter id="filter0_d_557_137" x="9.11792" y="6.30518" width="244.448" height="220.885" filterUnits="userSpaceOnUse" color-interpolation-filters="sRGB">
<feFlood flood-opacity="0" result="BackgroundImageFix"/>
<feColorMatrix in="SourceAlpha" type="matrix" values="0 0 0 0 0 0 0 0 0 0 0 0 0 0 0 0 0 0 127 0" result="hardAlpha"/>
<feOffset dy="16"/>
<feComposite in2="hardAlpha" operator="out"/>
<feColorMatrix type="matrix" values="0 0 0 0 0 0 0 0 0 0 0 0 0 0 0 0 0 0 0.35 0"/>
<feBlend mode="normal" in2="BackgroundImageFix" result="effect1_dropShadow_557_137"/>
<feBlend mode="normal" in="SourceGraphic" in2="effect1_dropShadow_557_137" result="shape"/>
</filter>
</defs>
</svg>
