<svg width="630" height="170" viewBox="0 0 630 170" fill="none" xmlns="http://www.w3.org/2000/svg">
<path d="M34 0C15.2223 0 0 15.2223 0 34V136C0 154.778 15.2223 170 34 170H76V0H34Z" fill="#1E5E9B"/>
<path fill-rule="evenodd" clip-rule="evenodd" d="M98 170H76V0H98V170Z" fill="#F0F0EF"/>
<path fill-rule="evenodd" clip-rule="evenodd" d="M297 0H333V170H297V0Z" fill="#F0F0EF"/>
<path d="M554 170V0H532V170H554Z" fill="#F0F0EF"/>
<path d="M596 170C614.778 170 630 154.778 630 136V34C630 15.2223 614.778 0 596 0H554V170H596Z" fill="#1E5E9B"/>
<path d="M532 170V0H387V170H532Z" fill="#1E5E9B"/>
<path d="M387 170V0H333V170H387Z" fill="#E5383C"/>
<path d="M297 170V0H243V170H297Z" fill="#E5383C"/>
<path d="M243 170V0H98V170H243Z" fill="#1E5E9B"/>
<path d="M362 89.5C362 85.0345 360.852 80.8371 358.835 77.1867C356.154 84.1437 351.147 89.9458 344.769 93.6413C346.209 97.3153 347 101.315 347 105.5C347 108.128 346.688 110.684 346.099 113.132C355.425 109.34 362 100.188 362 89.5Z" fill="#3D322C"/>
<path d="M334.15 57.0837C334.926 57.0282 335.71 57 336.5 57C342.84 57 348.755 58.8151 353.755 61.954C352.03 49.5492 341.38 40 328.5 40C327.053 40 325.634 40.1206 324.252 40.3522C329.095 44.7171 332.617 50.5178 334.15 57.0837Z" fill="#3D322C"/>
<path d="M308.667 39.7508C306.692 39.2603 304.627 39 302.5 39C289.472 39 278.725 48.7703 277.189 61.3836C281.983 58.5963 287.555 57 293.5 57C294.707 57 295.898 57.0658 297.071 57.194C298.924 50.1641 303.073 44.0662 308.667 39.7508Z" fill="#3D322C"/>
<path d="M272.008 75.771C269.471 79.7341 268 84.4453 268 89.5C268 99.7575 274.057 108.601 282.789 112.648C282.272 110.348 282 107.956 282 105.5C282 100.637 283.068 96.0226 284.983 91.88C279.077 88.0937 274.477 82.4489 272.008 75.771Z" fill="#3D322C"/>
<path d="M293.5 64C287.448 64 281.889 66.1081 277.516 69.6301C278.902 76.4152 282.983 82.2195 288.591 85.8762C289.042 85.2819 289.513 84.7035 290.003 84.1422C290.089 78.0721 292.384 72.5361 296.119 68.3011C296.04 67.3779 296 66.4436 296 65.5C296 65.039 296.01 64.5802 296.029 64.1238C295.197 64.0419 294.353 64 293.5 64Z" fill="#3D322C"/>
<path d="M293.5 115C299.924 115 305.794 112.624 310.278 108.704L310.222 108.628C302.481 107.265 295.992 102.266 292.582 95.4587C292.135 95.3157 291.692 95.1634 291.254 95.0018C289.806 98.2034 289 101.758 289 105.5C289 108.803 289.628 111.959 290.771 114.856C291.668 114.951 292.578 115 293.5 115Z" fill="#3D322C"/>
<path d="M334.022 121.907C326.752 121.359 320.15 118.419 315 113.873C309.626 118.617 302.672 121.611 295.027 121.965C299.705 127.491 306.693 131 314.5 131C322.335 131 329.344 127.467 334.022 121.907Z" fill="#3D322C"/>
<path d="M319.722 108.704C324.206 112.624 330.076 115 336.5 115C337.069 115 337.634 114.981 338.194 114.945C339.359 112.024 340 108.837 340 105.5C340 102.324 339.419 99.2828 338.358 96.478C337.397 96.7837 336.416 97.0459 335.418 97.2622C332.024 102.813 326.482 106.908 319.948 108.392C319.873 108.496 319.798 108.6 319.722 108.704Z" fill="#3D322C"/>
<path d="M336.5 64C335.995 64 335.494 64.0147 334.997 64.0436C334.999 64.1955 335 64.3476 335 64.5C335 66.4861 334.822 68.4306 334.481 70.3183C337.262 74.2303 338.924 78.9941 338.997 84.1422C339.905 85.1823 340.747 86.2808 341.518 87.4312C347.62 83.8012 352.079 77.6968 353.51 70.5017C348.997 66.4588 343.036 64 336.5 64Z" fill="#3D322C"/>
<path d="M327.25 58.3353C325.669 51.9691 321.697 46.5475 316.341 43.0798C310.326 46.3488 305.773 51.968 303.915 58.7048C305.539 59.2537 307.105 59.9274 308.602 60.7145C310.491 60.2477 312.467 60 314.5 60C316.775 60 318.978 60.3101 321.068 60.8904C323.017 59.8367 325.086 58.9764 327.25 58.3353Z" fill="#3D322C"/>
<path fill-rule="evenodd" clip-rule="evenodd" d="M338.997 84.1422C338.924 78.9941 337.262 74.2303 334.481 70.3183C334.822 68.4306 335 66.4861 335 64.5C335 64.3476 334.999 64.1955 334.997 64.0436C335.494 64.0147 335.995 64 336.5 64C343.036 64 348.997 66.4588 353.51 70.5017C352.079 77.6968 347.62 83.8012 341.518 87.4312C340.747 86.2808 339.905 85.1823 338.997 84.1422ZM334.022 121.907C326.752 121.359 320.15 118.419 315 113.873C309.626 118.617 302.672 121.611 295.027 121.965C299.705 127.491 306.693 131 314.5 131C322.335 131 329.344 127.467 334.022 121.907ZM346.099 113.132C346.688 110.684 347 108.128 347 105.5C347 101.315 346.209 97.3153 344.769 93.6413C351.147 89.9458 356.154 84.1437 358.835 77.1867C360.852 80.8371 362 85.0345 362 89.5C362 100.188 355.425 109.34 346.099 113.132ZM353.755 61.954C352.03 49.5492 341.38 40 328.5 40C327.053 40 325.634 40.1206 324.252 40.3522C329.095 44.7171 332.617 50.5178 334.15 57.0837C334.926 57.0282 335.71 57 336.5 57C342.84 57 348.755 58.8151 353.755 61.954Z" fill="#3D322C"/>
<path d="M314.268 101.998C311.101 101.957 308.136 101.075 305.588 99.5641C304.374 98.8441 303.254 97.9814 302.252 96.9991C300.175 94.9634 298.603 92.4142 297.742 89.5568C297.474 88.6693 297.275 87.7519 297.151 86.8111C297.051 86.0549 297 85.2834 297 84.5C297 82.0896 297.487 79.793 298.369 77.7034C298.449 77.513 298.533 77.3243 298.62 77.1374C299.764 74.6736 301.464 72.5208 303.56 70.8402C304.824 69.8262 306.233 68.9842 307.749 68.3496C309.384 67.6655 311.144 67.2224 312.986 67.0646C313.485 67.0218 313.99 67 314.5 67C315.398 67 316.279 67.0676 317.14 67.1979C318.802 67.4493 320.387 67.9344 321.86 68.6185C323.724 69.4837 325.41 70.6674 326.848 72.0997C328.303 73.5486 329.505 75.252 330.38 77.1374C330.744 77.9211 331.052 78.7363 331.298 79.5778C331.755 81.1392 332 82.791 332 84.5C332 85.2834 331.949 86.0549 331.849 86.8111C331.661 88.2345 331.302 89.604 330.793 90.8983C329.72 93.6301 327.979 96.0266 325.772 97.8871C325.415 98.1877 325.046 98.4744 324.666 98.7461C322.12 100.566 319.065 101.721 315.756 101.956C315.341 101.985 314.922 102 314.5 102C314.423 102 314.345 101.999 314.268 101.998Z" fill="#3D322C"/>
<path fill-rule="evenodd" clip-rule="evenodd" d="M302.5 32C284.551 32 270 46.5507 270 64.5C270 65.3258 270.031 66.1445 270.091 66.9548C264.462 72.7985 261 80.745 261 89.5C261 104.867 271.666 117.743 285.998 121.13C291.524 131.185 302.216 138 314.5 138C326.683 138 337.3 131.297 342.865 121.377C357.767 118.418 369 105.271 369 89.5C369 81.2727 365.943 73.7594 360.903 68.0341C360.967 67.1978 361 66.3528 361 65.5C361 47.5507 346.449 33 328.5 33C324.316 33 320.317 33.7906 316.643 35.2306C312.367 33.1606 307.569 32 302.5 32ZM305.588 99.5641C308.136 101.075 311.101 101.957 314.268 101.998C314.345 101.999 314.423 102 314.5 102C314.922 102 315.341 101.985 315.756 101.956C319.065 101.721 322.12 100.566 324.666 98.7461C325.046 98.4744 325.415 98.1877 325.772 97.8871C327.979 96.0266 329.72 93.6301 330.793 90.8983C331.302 89.604 331.661 88.2345 331.849 86.8111C331.949 86.0549 332 85.2834 332 84.5C332 82.791 331.755 81.1392 331.298 79.5778C331.052 78.7363 330.744 77.9211 330.38 77.1374C329.505 75.252 328.303 73.5486 326.848 72.0997C325.41 70.6674 323.724 69.4837 321.86 68.6185C320.387 67.9344 318.802 67.4493 317.14 67.1979C316.279 67.0676 315.398 67 314.5 67C313.99 67 313.485 67.0218 312.986 67.0646C311.144 67.2224 309.384 67.6655 307.749 68.3496C306.233 68.9842 304.824 69.8262 303.56 70.8402C301.464 72.5208 299.764 74.6736 298.62 77.1374C298.533 77.3243 298.449 77.513 298.369 77.7034C297.487 79.793 297 82.0896 297 84.5C297 85.2834 297.051 86.0549 297.151 86.8111C297.275 87.7519 297.474 88.6693 297.742 89.5568C298.603 92.4142 300.175 94.9634 302.252 96.9991C303.254 97.9814 304.374 98.8441 305.588 99.5641ZM336.5 57C335.71 57 334.926 57.0282 334.15 57.0837C332.617 50.5178 329.095 44.7171 324.252 40.3522C325.634 40.1206 327.053 40 328.5 40C341.38 40 352.03 49.5492 353.755 61.954C348.755 58.8151 342.84 57 336.5 57ZM334.997 64.0436C335.494 64.0147 335.995 64 336.5 64C343.036 64 348.997 66.4588 353.51 70.5017C352.079 77.6968 347.62 83.8012 341.518 87.4312C340.747 86.2808 339.905 85.1823 338.997 84.1422C338.924 78.9941 337.262 74.2303 334.481 70.3183C334.822 68.4306 335 66.4861 335 64.5C335 64.3476 334.999 64.1955 334.997 64.0436ZM362 89.5C362 85.0345 360.852 80.8371 358.835 77.1867C356.154 84.1437 351.147 89.9458 344.769 93.6413C346.209 97.3153 347 101.315 347 105.5C347 108.128 346.688 110.684 346.099 113.132C355.425 109.34 362 100.188 362 89.5ZM308.667 39.7508C306.692 39.2603 304.627 39 302.5 39C289.472 39 278.725 48.7703 277.189 61.3836C281.983 58.5963 287.555 57 293.5 57C294.707 57 295.898 57.0658 297.071 57.194C298.924 50.1641 303.073 44.0662 308.667 39.7508ZM327.25 58.3353C325.669 51.9691 321.697 46.5475 316.341 43.0798C310.326 46.3488 305.773 51.968 303.915 58.7048C305.539 59.2537 307.105 59.9274 308.602 60.7145C310.491 60.2477 312.467 60 314.5 60C316.775 60 318.978 60.3101 321.068 60.8904C323.017 59.8367 325.086 58.9764 327.25 58.3353ZM293.5 115C299.924 115 305.794 112.624 310.278 108.704L310.222 108.628C302.481 107.265 295.992 102.266 292.582 95.4587C292.135 95.3157 291.692 95.1634 291.254 95.0018C289.806 98.2034 289 101.758 289 105.5C289 108.803 289.628 111.959 290.771 114.856C291.668 114.951 292.578 115 293.5 115ZM272.008 75.771C269.471 79.7341 268 84.4453 268 89.5C268 99.7575 274.057 108.601 282.789 112.648C282.272 110.348 282 107.956 282 105.5C282 100.637 283.068 96.0226 284.983 91.88C279.077 88.0937 274.477 82.4489 272.008 75.771ZM293.5 64C287.448 64 281.889 66.1081 277.516 69.6301C278.902 76.4152 282.983 82.2195 288.591 85.8762C289.042 85.2819 289.513 84.7035 290.003 84.1422C290.089 78.0721 292.384 72.5361 296.119 68.3011C296.04 67.3779 296 66.4436 296 65.5C296 65.039 296.01 64.5802 296.029 64.1238C295.197 64.0419 294.353 64 293.5 64ZM319.722 108.704C324.206 112.624 330.076 115 336.5 115C337.069 115 337.634 114.981 338.194 114.945C339.359 112.024 340 108.837 340 105.5C340 102.324 339.419 99.2828 338.358 96.478C337.397 96.7837 336.416 97.0459 335.418 97.2622C332.024 102.813 326.482 106.908 319.948 108.392C319.873 108.496 319.798 108.6 319.722 108.704ZM315 113.873C320.15 118.419 326.752 121.359 334.022 121.907C329.344 127.467 322.335 131 314.5 131C306.693 131 299.705 127.491 295.027 121.965C302.672 121.611 309.626 118.617 315 113.873Z" fill="#C6AB7A"/>
<path fill-rule="evenodd" clip-rule="evenodd" d="M266 64.5C266 44.3416 282.342 28 302.5 28C307.573 28 312.412 29.037 316.81 30.9132C320.485 29.6718 324.417 29 328.5 29C348.658 29 365 45.3416 365 65.5C365 65.8919 364.994 66.2824 364.982 66.6716C369.996 72.9213 373 80.8642 373 89.5C373 106.583 361.267 120.918 345.422 124.901C338.969 135.165 327.535 142 314.5 142C301.328 142 289.792 135.022 283.377 124.577C268.144 120.188 257 106.15 257 89.5C257 80.3062 260.404 71.9001 266.013 65.4844C266.004 65.1572 266 64.8291 266 64.5ZM285.998 121.13C271.666 117.743 261 104.867 261 89.5C261 80.745 264.462 72.7985 270.091 66.9548C270.031 66.1445 270 65.3258 270 64.5C270 46.5507 284.551 32 302.5 32C307.569 32 312.367 33.1606 316.643 35.2306C320.317 33.7906 324.316 33 328.5 33C346.449 33 361 47.5507 361 65.5C361 66.3528 360.967 67.1978 360.903 68.0341C365.943 73.7594 369 81.2727 369 89.5C369 105.271 357.767 118.418 342.865 121.377C337.3 131.297 326.683 138 314.5 138C302.216 138 291.524 131.185 285.998 121.13Z" fill="#876243"/>
</svg>
