<svg width="630" height="170" viewBox="0 0 630 170" fill="none" xmlns="http://www.w3.org/2000/svg">
<path d="M34 0C15.2223 0 0 15.2223 0 34V136C0 154.778 15.2223 170 34 170H76V0H34Z" fill="#1E5E9B"/>
<path fill-rule="evenodd" clip-rule="evenodd" d="M98 170H76V0H98V170Z" fill="#F0F0EF"/>
<path fill-rule="evenodd" clip-rule="evenodd" d="M297 0H333V170H297V0Z" fill="#F0F0EF"/>
<path d="M554 170V0H532V170H554Z" fill="#F0F0EF"/>
<path d="M596 170C614.778 170 630 154.778 630 136V34C630 15.2223 614.778 0 596 0H554V170H596Z" fill="#1E5E9B"/>
<path d="M532 170V0H387V170H532Z" fill="#1E5E9B"/>
<path d="M387 170V0H333V170H387Z" fill="#E5383C"/>
<path d="M297 170V0H243V170H297Z" fill="#E5383C"/>
<path d="M243 170V0H98V170H243Z" fill="#1E5E9B"/>
<path d="M220 89.5C220 85.0345 218.852 80.8371 216.835 77.1867C214.154 84.1437 209.147 89.9458 202.769 93.6413C204.209 97.3153 205 101.315 205 105.5C205 108.128 204.688 110.684 204.099 113.132C213.425 109.34 220 100.188 220 89.5Z" fill="#3D322C"/>
<path d="M192.15 57.0837C192.926 57.0282 193.71 57 194.5 57C200.84 57 206.755 58.8151 211.755 61.954C210.03 49.5492 199.38 40 186.5 40C185.053 40 183.634 40.1206 182.252 40.3522C187.095 44.7171 190.617 50.5178 192.15 57.0837Z" fill="#3D322C"/>
<path d="M166.667 39.7508C164.692 39.2603 162.627 39 160.5 39C147.472 39 136.725 48.7703 135.189 61.3836C139.983 58.5963 145.555 57 151.5 57C152.707 57 153.898 57.0658 155.071 57.194C156.924 50.1641 161.073 44.0662 166.667 39.7508Z" fill="#3D322C"/>
<path d="M130.008 75.771C127.471 79.7341 126 84.4453 126 89.5C126 99.7575 132.057 108.601 140.789 112.648C140.272 110.348 140 107.956 140 105.5C140 100.637 141.068 96.0226 142.983 91.88C137.077 88.0937 132.477 82.4489 130.008 75.771Z" fill="#3D322C"/>
<path d="M151.5 64C145.448 64 139.889 66.1081 135.516 69.6301C136.902 76.4152 140.983 82.2195 146.591 85.8762C147.042 85.2819 147.513 84.7035 148.003 84.1422C148.089 78.0721 150.384 72.5361 154.119 68.3011C154.04 67.3779 154 66.4436 154 65.5C154 65.039 154.01 64.5802 154.029 64.1238C153.197 64.0419 152.353 64 151.5 64Z" fill="#3D322C"/>
<path d="M151.5 115C157.924 115 163.794 112.624 168.278 108.704L168.222 108.628C160.481 107.265 153.992 102.266 150.582 95.4587C150.135 95.3157 149.692 95.1634 149.254 95.0018C147.806 98.2034 147 101.758 147 105.5C147 108.803 147.628 111.959 148.771 114.856C149.668 114.951 150.578 115 151.5 115Z" fill="#3D322C"/>
<path d="M192.022 121.907C184.752 121.359 178.15 118.419 173 113.873C167.626 118.617 160.672 121.611 153.027 121.965C157.705 127.491 164.693 131 172.5 131C180.335 131 187.344 127.467 192.022 121.907Z" fill="#3D322C"/>
<path d="M177.722 108.704C182.206 112.624 188.076 115 194.5 115C195.069 115 195.634 114.981 196.194 114.945C197.359 112.024 198 108.837 198 105.5C198 102.324 197.419 99.2828 196.358 96.478C195.397 96.7837 194.416 97.0459 193.418 97.2622C190.024 102.813 184.482 106.908 177.948 108.392C177.873 108.496 177.798 108.6 177.722 108.704Z" fill="#3D322C"/>
<path d="M194.5 64C193.995 64 193.494 64.0147 192.997 64.0436C192.999 64.1955 193 64.3476 193 64.5C193 66.4861 192.822 68.4306 192.481 70.3183C195.262 74.2303 196.924 78.9941 196.997 84.1422C197.905 85.1823 198.747 86.2808 199.518 87.4312C205.62 83.8012 210.079 77.6968 211.51 70.5017C206.997 66.4588 201.036 64 194.5 64Z" fill="#3D322C"/>
<path d="M185.25 58.3353C183.669 51.9691 179.697 46.5475 174.341 43.0798C168.326 46.3488 163.773 51.968 161.915 58.7048C163.539 59.2537 165.105 59.9274 166.602 60.7145C168.491 60.2477 170.467 60 172.5 60C174.775 60 176.978 60.3101 179.068 60.8904C181.017 59.8367 183.086 58.9764 185.25 58.3353Z" fill="#3D322C"/>
<path fill-rule="evenodd" clip-rule="evenodd" d="M196.997 84.1422C196.924 78.9941 195.262 74.2303 192.481 70.3183C192.822 68.4306 193 66.4861 193 64.5C193 64.3476 192.999 64.1955 192.997 64.0436C193.494 64.0147 193.995 64 194.5 64C201.036 64 206.997 66.4588 211.51 70.5017C210.079 77.6968 205.62 83.8012 199.518 87.4312C198.747 86.2808 197.905 85.1823 196.997 84.1422ZM192.022 121.907C184.752 121.359 178.15 118.419 173 113.873C167.626 118.617 160.672 121.611 153.027 121.965C157.705 127.491 164.693 131 172.5 131C180.335 131 187.344 127.467 192.022 121.907ZM204.099 113.132C204.688 110.684 205 108.128 205 105.5C205 101.315 204.209 97.3153 202.769 93.6413C209.147 89.9458 214.154 84.1437 216.835 77.1867C218.852 80.8371 220 85.0345 220 89.5C220 100.188 213.425 109.34 204.099 113.132ZM211.755 61.954C210.03 49.5492 199.38 40 186.5 40C185.053 40 183.634 40.1206 182.252 40.3522C187.095 44.7171 190.617 50.5178 192.15 57.0837C192.926 57.0282 193.71 57 194.5 57C200.84 57 206.755 58.8151 211.755 61.954Z" fill="#3D322C"/>
<path d="M172.268 101.998C169.101 101.957 166.136 101.075 163.588 99.5641C162.374 98.8441 161.254 97.9814 160.252 96.9991C158.175 94.9634 156.603 92.4142 155.742 89.5568C155.474 88.6693 155.275 87.7519 155.151 86.8111C155.051 86.0549 155 85.2834 155 84.5C155 82.0896 155.487 79.793 156.369 77.7034C156.449 77.513 156.533 77.3243 156.62 77.1374C157.764 74.6736 159.464 72.5208 161.56 70.8402C162.824 69.8262 164.233 68.9842 165.749 68.3496C167.384 67.6655 169.144 67.2224 170.986 67.0646C171.485 67.0218 171.99 67 172.5 67C173.398 67 174.279 67.0676 175.14 67.1979C176.802 67.4493 178.387 67.9344 179.86 68.6185C181.724 69.4837 183.41 70.6674 184.848 72.0997C186.303 73.5486 187.505 75.252 188.38 77.1374C188.744 77.9211 189.052 78.7363 189.298 79.5778C189.755 81.1392 190 82.791 190 84.5C190 85.2834 189.949 86.0549 189.849 86.8111C189.661 88.2345 189.302 89.604 188.793 90.8983C187.72 93.6301 185.979 96.0266 183.772 97.8871C183.415 98.1877 183.046 98.4744 182.666 98.7461C180.12 100.566 177.065 101.721 173.756 101.956C173.341 101.985 172.922 102 172.5 102C172.423 102 172.345 101.999 172.268 101.998Z" fill="#3D322C"/>
<path fill-rule="evenodd" clip-rule="evenodd" d="M160.5 32C142.551 32 128 46.5507 128 64.5C128 65.3258 128.031 66.1445 128.091 66.9548C122.462 72.7985 119 80.745 119 89.5C119 104.867 129.666 117.743 143.998 121.13C149.524 131.185 160.216 138 172.5 138C184.683 138 195.3 131.297 200.865 121.377C215.767 118.418 227 105.271 227 89.5C227 81.2727 223.943 73.7594 218.903 68.0341C218.967 67.1978 219 66.3528 219 65.5C219 47.5507 204.449 33 186.5 33C182.316 33 178.317 33.7906 174.643 35.2306C170.367 33.1606 165.569 32 160.5 32ZM163.588 99.5641C166.136 101.075 169.101 101.957 172.268 101.998C172.345 101.999 172.423 102 172.5 102C172.922 102 173.341 101.985 173.756 101.956C177.065 101.721 180.12 100.566 182.666 98.7461C183.046 98.4744 183.415 98.1877 183.772 97.8871C185.979 96.0266 187.72 93.6301 188.793 90.8983C189.302 89.604 189.661 88.2345 189.849 86.8111C189.949 86.0549 190 85.2834 190 84.5C190 82.791 189.755 81.1392 189.298 79.5778C189.052 78.7363 188.744 77.9211 188.38 77.1374C187.505 75.252 186.303 73.5486 184.848 72.0997C183.41 70.6674 181.724 69.4837 179.86 68.6185C178.387 67.9344 176.802 67.4493 175.14 67.1979C174.279 67.0676 173.398 67 172.5 67C171.99 67 171.485 67.0218 170.986 67.0646C169.144 67.2224 167.384 67.6655 165.749 68.3496C164.233 68.9842 162.824 69.8262 161.56 70.8402C159.464 72.5208 157.764 74.6736 156.62 77.1374C156.533 77.3243 156.449 77.513 156.369 77.7034C155.487 79.793 155 82.0896 155 84.5C155 85.2834 155.051 86.0549 155.151 86.8111C155.275 87.7519 155.474 88.6693 155.742 89.5568C156.603 92.4142 158.175 94.9634 160.252 96.9991C161.254 97.9814 162.374 98.8441 163.588 99.5641ZM194.5 57C193.71 57 192.926 57.0282 192.15 57.0837C190.617 50.5178 187.095 44.7171 182.252 40.3522C183.634 40.1206 185.053 40 186.5 40C199.38 40 210.03 49.5492 211.755 61.954C206.755 58.8151 200.84 57 194.5 57ZM192.997 64.0436C193.494 64.0147 193.995 64 194.5 64C201.036 64 206.997 66.4588 211.51 70.5017C210.079 77.6968 205.62 83.8012 199.518 87.4312C198.747 86.2808 197.905 85.1823 196.997 84.1422C196.924 78.9941 195.262 74.2303 192.481 70.3183C192.822 68.4306 193 66.4861 193 64.5C193 64.3476 192.999 64.1955 192.997 64.0436ZM220 89.5C220 85.0345 218.852 80.8371 216.835 77.1867C214.154 84.1437 209.147 89.9458 202.769 93.6413C204.209 97.3153 205 101.315 205 105.5C205 108.128 204.688 110.684 204.099 113.132C213.425 109.34 220 100.188 220 89.5ZM166.667 39.7508C164.692 39.2603 162.627 39 160.5 39C147.472 39 136.725 48.7703 135.189 61.3836C139.983 58.5963 145.555 57 151.5 57C152.707 57 153.898 57.0658 155.071 57.194C156.924 50.1641 161.073 44.0662 166.667 39.7508ZM185.25 58.3353C183.669 51.9691 179.697 46.5475 174.341 43.0798C168.326 46.3488 163.773 51.968 161.915 58.7048C163.539 59.2537 165.105 59.9274 166.602 60.7145C168.491 60.2477 170.467 60 172.5 60C174.775 60 176.978 60.3101 179.068 60.8904C181.017 59.8367 183.086 58.9764 185.25 58.3353ZM151.5 115C157.924 115 163.794 112.624 168.278 108.704L168.222 108.628C160.481 107.265 153.992 102.266 150.582 95.4587C150.135 95.3157 149.692 95.1634 149.254 95.0018C147.806 98.2034 147 101.758 147 105.5C147 108.803 147.628 111.959 148.771 114.856C149.668 114.951 150.578 115 151.5 115ZM130.008 75.771C127.471 79.7341 126 84.4453 126 89.5C126 99.7575 132.057 108.601 140.789 112.648C140.272 110.348 140 107.956 140 105.5C140 100.637 141.068 96.0226 142.983 91.88C137.077 88.0937 132.477 82.4489 130.008 75.771ZM151.5 64C145.448 64 139.889 66.1081 135.516 69.6301C136.902 76.4152 140.983 82.2195 146.591 85.8762C147.042 85.2819 147.513 84.7035 148.003 84.1422C148.089 78.0721 150.384 72.5361 154.119 68.3011C154.04 67.3779 154 66.4436 154 65.5C154 65.039 154.01 64.5802 154.029 64.1238C153.197 64.0419 152.353 64 151.5 64ZM177.722 108.704C182.206 112.624 188.076 115 194.5 115C195.069 115 195.634 114.981 196.194 114.945C197.359 112.024 198 108.837 198 105.5C198 102.324 197.419 99.2828 196.358 96.478C195.397 96.7837 194.416 97.0459 193.418 97.2622C190.024 102.813 184.482 106.908 177.948 108.392C177.873 108.496 177.798 108.6 177.722 108.704ZM173 113.873C178.15 118.419 184.752 121.359 192.022 121.907C187.344 127.467 180.335 131 172.5 131C164.693 131 157.705 127.491 153.027 121.965C160.672 121.611 167.626 118.617 173 113.873Z" fill="#C6AB7A"/>
<path fill-rule="evenodd" clip-rule="evenodd" d="M124 64.5C124 44.3416 140.342 28 160.5 28C165.573 28 170.412 29.037 174.81 30.9132C178.485 29.6718 182.417 29 186.5 29C206.658 29 223 45.3416 223 65.5C223 65.8919 222.994 66.2824 222.982 66.6716C227.996 72.9213 231 80.8642 231 89.5C231 106.583 219.267 120.918 203.422 124.901C196.969 135.165 185.535 142 172.5 142C159.328 142 147.792 135.022 141.377 124.577C126.144 120.188 115 106.15 115 89.5C115 80.3062 118.404 71.9001 124.013 65.4844C124.004 65.1572 124 64.8291 124 64.5ZM143.998 121.13C129.666 117.743 119 104.867 119 89.5C119 80.745 122.462 72.7985 128.091 66.9548C128.031 66.1445 128 65.3258 128 64.5C128 46.5507 142.551 32 160.5 32C165.569 32 170.367 33.1606 174.643 35.2306C178.317 33.7906 182.316 33 186.5 33C204.449 33 219 47.5507 219 65.5C219 66.3528 218.967 67.1978 218.903 68.0341C223.943 73.7594 227 81.2727 227 89.5C227 105.271 215.767 118.418 200.865 121.377C195.3 131.297 184.683 138 172.5 138C160.216 138 149.524 131.185 143.998 121.13Z" fill="#876243"/>
<path d="M504 89.5C504 85.0345 502.852 80.8371 500.835 77.1867C498.154 84.1437 493.147 89.9458 486.769 93.6413C488.209 97.3153 489 101.315 489 105.5C489 108.128 488.688 110.684 488.099 113.132C497.425 109.34 504 100.188 504 89.5Z" fill="#3D322C"/>
<path d="M476.15 57.0837C476.926 57.0282 477.71 57 478.5 57C484.84 57 490.755 58.8151 495.755 61.954C494.03 49.5492 483.38 40 470.5 40C469.053 40 467.634 40.1206 466.252 40.3522C471.095 44.7171 474.617 50.5178 476.15 57.0837Z" fill="#3D322C"/>
<path d="M450.667 39.7508C448.692 39.2603 446.627 39 444.5 39C431.472 39 420.725 48.7703 419.189 61.3836C423.983 58.5963 429.555 57 435.5 57C436.707 57 437.898 57.0658 439.071 57.194C440.924 50.1641 445.073 44.0662 450.667 39.7508Z" fill="#3D322C"/>
<path d="M414.008 75.771C411.471 79.7341 410 84.4453 410 89.5C410 99.7575 416.057 108.601 424.789 112.648C424.272 110.348 424 107.956 424 105.5C424 100.637 425.068 96.0226 426.983 91.88C421.077 88.0937 416.477 82.4489 414.008 75.771Z" fill="#3D322C"/>
<path d="M435.5 64C429.448 64 423.889 66.1081 419.516 69.6301C420.902 76.4152 424.983 82.2195 430.591 85.8762C431.042 85.2819 431.513 84.7035 432.003 84.1422C432.089 78.0721 434.384 72.5361 438.119 68.3011C438.04 67.3779 438 66.4436 438 65.5C438 65.039 438.01 64.5802 438.029 64.1238C437.197 64.0419 436.353 64 435.5 64Z" fill="#3D322C"/>
<path d="M435.5 115C441.924 115 447.794 112.624 452.278 108.704L452.222 108.628C444.481 107.265 437.992 102.266 434.582 95.4587C434.135 95.3157 433.692 95.1634 433.254 95.0018C431.806 98.2034 431 101.758 431 105.5C431 108.803 431.628 111.959 432.771 114.856C433.668 114.951 434.578 115 435.5 115Z" fill="#3D322C"/>
<path d="M476.022 121.907C468.752 121.359 462.15 118.419 457 113.873C451.626 118.617 444.672 121.611 437.027 121.965C441.705 127.491 448.693 131 456.5 131C464.335 131 471.344 127.467 476.022 121.907Z" fill="#3D322C"/>
<path d="M461.722 108.704C466.206 112.624 472.076 115 478.5 115C479.069 115 479.634 114.981 480.194 114.945C481.359 112.024 482 108.837 482 105.5C482 102.324 481.419 99.2828 480.358 96.478C479.397 96.7837 478.416 97.0459 477.418 97.2622C474.024 102.813 468.482 106.908 461.948 108.392C461.873 108.496 461.798 108.6 461.722 108.704Z" fill="#3D322C"/>
<path d="M478.5 64C477.995 64 477.494 64.0147 476.997 64.0436C476.999 64.1955 477 64.3476 477 64.5C477 66.4861 476.822 68.4306 476.481 70.3183C479.262 74.2303 480.924 78.9941 480.997 84.1422C481.905 85.1823 482.747 86.2808 483.518 87.4312C489.62 83.8012 494.079 77.6968 495.51 70.5017C490.997 66.4588 485.036 64 478.5 64Z" fill="#3D322C"/>
<path d="M469.25 58.3353C467.669 51.9691 463.697 46.5475 458.341 43.0798C452.326 46.3488 447.773 51.968 445.915 58.7048C447.539 59.2537 449.105 59.9274 450.602 60.7145C452.491 60.2477 454.467 60 456.5 60C458.775 60 460.978 60.3101 463.068 60.8904C465.017 59.8367 467.086 58.9764 469.25 58.3353Z" fill="#3D322C"/>
<path fill-rule="evenodd" clip-rule="evenodd" d="M480.997 84.1422C480.924 78.9941 479.262 74.2303 476.481 70.3183C476.822 68.4306 477 66.4861 477 64.5C477 64.3476 476.999 64.1955 476.997 64.0436C477.494 64.0147 477.995 64 478.5 64C485.036 64 490.997 66.4588 495.51 70.5017C494.079 77.6968 489.62 83.8012 483.518 87.4312C482.747 86.2808 481.905 85.1823 480.997 84.1422ZM476.022 121.907C468.752 121.359 462.15 118.419 457 113.873C451.626 118.617 444.672 121.611 437.027 121.965C441.705 127.491 448.693 131 456.5 131C464.335 131 471.344 127.467 476.022 121.907ZM488.099 113.132C488.688 110.684 489 108.128 489 105.5C489 101.315 488.209 97.3153 486.769 93.6413C493.147 89.9458 498.154 84.1437 500.835 77.1867C502.852 80.8371 504 85.0345 504 89.5C504 100.188 497.425 109.34 488.099 113.132ZM495.755 61.954C494.03 49.5492 483.38 40 470.5 40C469.053 40 467.634 40.1206 466.252 40.3522C471.095 44.7171 474.617 50.5178 476.15 57.0837C476.926 57.0282 477.71 57 478.5 57C484.84 57 490.755 58.8151 495.755 61.954Z" fill="#3D322C"/>
<path d="M456.268 101.998C453.101 101.957 450.136 101.075 447.588 99.5641C446.374 98.8441 445.254 97.9814 444.252 96.9991C442.175 94.9634 440.603 92.4142 439.742 89.5568C439.474 88.6693 439.275 87.7519 439.151 86.8111C439.051 86.0549 439 85.2834 439 84.5C439 82.0896 439.487 79.793 440.369 77.7034C440.449 77.513 440.533 77.3243 440.62 77.1374C441.764 74.6736 443.464 72.5208 445.56 70.8402C446.824 69.8262 448.233 68.9842 449.749 68.3496C451.384 67.6655 453.144 67.2224 454.986 67.0646C455.485 67.0218 455.99 67 456.5 67C457.398 67 458.279 67.0676 459.14 67.1979C460.802 67.4493 462.387 67.9344 463.86 68.6185C465.724 69.4837 467.41 70.6674 468.848 72.0997C470.303 73.5486 471.505 75.252 472.38 77.1374C472.744 77.9211 473.052 78.7363 473.298 79.5778C473.755 81.1392 474 82.791 474 84.5C474 85.2834 473.949 86.0549 473.849 86.8111C473.661 88.2345 473.302 89.604 472.793 90.8983C471.72 93.6301 469.979 96.0266 467.772 97.8871C467.415 98.1877 467.046 98.4744 466.666 98.7461C464.12 100.566 461.065 101.721 457.756 101.956C457.341 101.985 456.922 102 456.5 102C456.423 102 456.345 101.999 456.268 101.998Z" fill="#3D322C"/>
<path fill-rule="evenodd" clip-rule="evenodd" d="M444.5 32C426.551 32 412 46.5507 412 64.5C412 65.3258 412.031 66.1445 412.091 66.9548C406.462 72.7985 403 80.745 403 89.5C403 104.867 413.666 117.743 427.998 121.13C433.524 131.185 444.216 138 456.5 138C468.683 138 479.3 131.297 484.865 121.377C499.767 118.418 511 105.271 511 89.5C511 81.2727 507.943 73.7594 502.903 68.0341C502.967 67.1978 503 66.3528 503 65.5C503 47.5507 488.449 33 470.5 33C466.316 33 462.317 33.7906 458.643 35.2306C454.367 33.1606 449.569 32 444.5 32ZM447.588 99.5641C450.136 101.075 453.101 101.957 456.268 101.998C456.345 101.999 456.423 102 456.5 102C456.922 102 457.341 101.985 457.756 101.956C461.065 101.721 464.12 100.566 466.666 98.7461C467.046 98.4744 467.415 98.1877 467.772 97.8871C469.979 96.0266 471.72 93.6301 472.793 90.8983C473.302 89.604 473.661 88.2345 473.849 86.8111C473.949 86.0549 474 85.2834 474 84.5C474 82.791 473.755 81.1392 473.298 79.5778C473.052 78.7363 472.744 77.9211 472.38 77.1374C471.505 75.252 470.303 73.5486 468.848 72.0997C467.41 70.6674 465.724 69.4837 463.86 68.6185C462.387 67.9344 460.802 67.4493 459.14 67.1979C458.279 67.0676 457.398 67 456.5 67C455.99 67 455.485 67.0218 454.986 67.0646C453.144 67.2224 451.384 67.6655 449.749 68.3496C448.233 68.9842 446.824 69.8262 445.56 70.8402C443.464 72.5208 441.764 74.6736 440.62 77.1374C440.533 77.3243 440.449 77.513 440.369 77.7034C439.487 79.793 439 82.0896 439 84.5C439 85.2834 439.051 86.0549 439.151 86.8111C439.275 87.7519 439.474 88.6693 439.742 89.5568C440.603 92.4142 442.175 94.9634 444.252 96.9991C445.254 97.9814 446.374 98.8441 447.588 99.5641ZM478.5 57C477.71 57 476.926 57.0282 476.15 57.0837C474.617 50.5178 471.095 44.7171 466.252 40.3522C467.634 40.1206 469.053 40 470.5 40C483.38 40 494.03 49.5492 495.755 61.954C490.755 58.8151 484.84 57 478.5 57ZM476.997 64.0436C477.494 64.0147 477.995 64 478.5 64C485.036 64 490.997 66.4588 495.51 70.5017C494.079 77.6968 489.62 83.8012 483.518 87.4312C482.747 86.2808 481.905 85.1823 480.997 84.1422C480.924 78.9941 479.262 74.2303 476.481 70.3183C476.822 68.4306 477 66.4861 477 64.5C477 64.3476 476.999 64.1955 476.997 64.0436ZM504 89.5C504 85.0345 502.852 80.8371 500.835 77.1867C498.154 84.1437 493.147 89.9458 486.769 93.6413C488.209 97.3153 489 101.315 489 105.5C489 108.128 488.688 110.684 488.099 113.132C497.425 109.34 504 100.188 504 89.5ZM450.667 39.7508C448.692 39.2603 446.627 39 444.5 39C431.472 39 420.725 48.7703 419.189 61.3836C423.983 58.5963 429.555 57 435.5 57C436.707 57 437.898 57.0658 439.071 57.194C440.924 50.1641 445.073 44.0662 450.667 39.7508ZM469.25 58.3353C467.669 51.9691 463.697 46.5475 458.341 43.0798C452.326 46.3488 447.773 51.968 445.915 58.7048C447.539 59.2537 449.105 59.9274 450.602 60.7145C452.491 60.2477 454.467 60 456.5 60C458.775 60 460.978 60.3101 463.068 60.8904C465.017 59.8367 467.086 58.9764 469.25 58.3353ZM435.5 115C441.924 115 447.794 112.624 452.278 108.704L452.222 108.628C444.481 107.265 437.992 102.266 434.582 95.4587C434.135 95.3157 433.692 95.1634 433.254 95.0018C431.806 98.2034 431 101.758 431 105.5C431 108.803 431.628 111.959 432.771 114.856C433.668 114.951 434.578 115 435.5 115ZM414.008 75.771C411.471 79.7341 410 84.4453 410 89.5C410 99.7575 416.057 108.601 424.789 112.648C424.272 110.348 424 107.956 424 105.5C424 100.637 425.068 96.0226 426.983 91.88C421.077 88.0937 416.477 82.4489 414.008 75.771ZM435.5 64C429.448 64 423.889 66.1081 419.516 69.6301C420.902 76.4152 424.983 82.2195 430.591 85.8762C431.042 85.2819 431.513 84.7035 432.003 84.1422C432.089 78.0721 434.384 72.5361 438.119 68.3011C438.04 67.3779 438 66.4436 438 65.5C438 65.039 438.01 64.5802 438.029 64.1238C437.197 64.0419 436.353 64 435.5 64ZM461.722 108.704C466.206 112.624 472.076 115 478.5 115C479.069 115 479.634 114.981 480.194 114.945C481.359 112.024 482 108.837 482 105.5C482 102.324 481.419 99.2828 480.358 96.478C479.397 96.7837 478.416 97.0459 477.418 97.2622C474.024 102.813 468.482 106.908 461.948 108.392C461.873 108.496 461.798 108.6 461.722 108.704ZM457 113.873C462.15 118.419 468.752 121.359 476.022 121.907C471.344 127.467 464.335 131 456.5 131C448.693 131 441.705 127.491 437.027 121.965C444.672 121.611 451.626 118.617 457 113.873Z" fill="#C6AB7A"/>
<path fill-rule="evenodd" clip-rule="evenodd" d="M408 64.5C408 44.3416 424.342 28 444.5 28C449.573 28 454.412 29.037 458.81 30.9132C462.485 29.6718 466.417 29 470.5 29C490.658 29 507 45.3416 507 65.5C507 65.8919 506.994 66.2824 506.982 66.6716C511.996 72.9213 515 80.8642 515 89.5C515 106.583 503.267 120.918 487.422 124.901C480.969 135.165 469.535 142 456.5 142C443.328 142 431.792 135.022 425.377 124.577C410.144 120.188 399 106.15 399 89.5C399 80.3062 402.404 71.9001 408.013 65.4844C408.004 65.1572 408 64.8291 408 64.5ZM427.998 121.13C413.666 117.743 403 104.867 403 89.5C403 80.745 406.462 72.7985 412.091 66.9548C412.031 66.1445 412 65.3258 412 64.5C412 46.5507 426.551 32 444.5 32C449.569 32 454.367 33.1606 458.643 35.2306C462.317 33.7906 466.316 33 470.5 33C488.449 33 503 47.5507 503 65.5C503 66.3528 502.967 67.1978 502.903 68.0341C507.943 73.7594 511 81.2727 511 89.5C511 105.271 499.767 118.418 484.865 121.377C479.3 131.297 468.683 138 456.5 138C444.216 138 433.524 131.185 427.998 121.13Z" fill="#876243"/>
<path d="M362 89.5C362 85.0345 360.852 80.8371 358.835 77.1867C356.154 84.1437 351.147 89.9458 344.769 93.6413C346.209 97.3153 347 101.315 347 105.5C347 108.128 346.688 110.684 346.099 113.132C355.425 109.34 362 100.188 362 89.5Z" fill="#3D322C"/>
<path d="M334.15 57.0837C334.926 57.0282 335.71 57 336.5 57C342.84 57 348.755 58.8151 353.755 61.954C352.03 49.5492 341.38 40 328.5 40C327.053 40 325.634 40.1206 324.252 40.3522C329.095 44.7171 332.617 50.5178 334.15 57.0837Z" fill="#3D322C"/>
<path d="M308.667 39.7508C306.692 39.2603 304.627 39 302.5 39C289.472 39 278.725 48.7703 277.189 61.3836C281.983 58.5963 287.555 57 293.5 57C294.707 57 295.898 57.0658 297.071 57.194C298.924 50.1641 303.073 44.0662 308.667 39.7508Z" fill="#3D322C"/>
<path d="M272.008 75.771C269.471 79.7341 268 84.4453 268 89.5C268 99.7575 274.057 108.601 282.789 112.648C282.272 110.348 282 107.956 282 105.5C282 100.637 283.068 96.0226 284.983 91.88C279.077 88.0937 274.477 82.4489 272.008 75.771Z" fill="#3D322C"/>
<path d="M293.5 64C287.448 64 281.889 66.1081 277.516 69.6301C278.902 76.4152 282.983 82.2195 288.591 85.8762C289.042 85.2819 289.513 84.7035 290.003 84.1422C290.089 78.0721 292.384 72.5361 296.119 68.3011C296.04 67.3779 296 66.4436 296 65.5C296 65.039 296.01 64.5802 296.029 64.1238C295.197 64.0419 294.353 64 293.5 64Z" fill="#3D322C"/>
<path d="M293.5 115C299.924 115 305.794 112.624 310.278 108.704L310.222 108.628C302.481 107.265 295.992 102.266 292.582 95.4587C292.135 95.3157 291.692 95.1634 291.254 95.0018C289.806 98.2034 289 101.758 289 105.5C289 108.803 289.628 111.959 290.771 114.856C291.668 114.951 292.578 115 293.5 115Z" fill="#3D322C"/>
<path d="M334.022 121.907C326.752 121.359 320.15 118.419 315 113.873C309.626 118.617 302.672 121.611 295.027 121.965C299.705 127.491 306.693 131 314.5 131C322.335 131 329.344 127.467 334.022 121.907Z" fill="#3D322C"/>
<path d="M319.722 108.704C324.206 112.624 330.076 115 336.5 115C337.069 115 337.634 114.981 338.194 114.945C339.359 112.024 340 108.837 340 105.5C340 102.324 339.419 99.2828 338.358 96.478C337.397 96.7837 336.416 97.0459 335.418 97.2622C332.024 102.813 326.482 106.908 319.948 108.392C319.873 108.496 319.798 108.6 319.722 108.704Z" fill="#3D322C"/>
<path d="M336.5 64C335.995 64 335.494 64.0147 334.997 64.0436C334.999 64.1955 335 64.3476 335 64.5C335 66.4861 334.822 68.4306 334.481 70.3183C337.262 74.2303 338.924 78.9941 338.997 84.1422C339.905 85.1823 340.747 86.2808 341.518 87.4312C347.62 83.8012 352.079 77.6968 353.51 70.5017C348.997 66.4588 343.036 64 336.5 64Z" fill="#3D322C"/>
<path d="M327.25 58.3353C325.669 51.9691 321.697 46.5475 316.341 43.0798C310.326 46.3488 305.773 51.968 303.915 58.7048C305.539 59.2537 307.105 59.9274 308.602 60.7145C310.491 60.2477 312.467 60 314.5 60C316.775 60 318.978 60.3101 321.068 60.8904C323.017 59.8367 325.086 58.9764 327.25 58.3353Z" fill="#3D322C"/>
<path fill-rule="evenodd" clip-rule="evenodd" d="M338.997 84.1422C338.924 78.9941 337.262 74.2303 334.481 70.3183C334.822 68.4306 335 66.4861 335 64.5C335 64.3476 334.999 64.1955 334.997 64.0436C335.494 64.0147 335.995 64 336.5 64C343.036 64 348.997 66.4588 353.51 70.5017C352.079 77.6968 347.62 83.8012 341.518 87.4312C340.747 86.2808 339.905 85.1823 338.997 84.1422ZM334.022 121.907C326.752 121.359 320.15 118.419 315 113.873C309.626 118.617 302.672 121.611 295.027 121.965C299.705 127.491 306.693 131 314.5 131C322.335 131 329.344 127.467 334.022 121.907ZM346.099 113.132C346.688 110.684 347 108.128 347 105.5C347 101.315 346.209 97.3153 344.769 93.6413C351.147 89.9458 356.154 84.1437 358.835 77.1867C360.852 80.8371 362 85.0345 362 89.5C362 100.188 355.425 109.34 346.099 113.132ZM353.755 61.954C352.03 49.5492 341.38 40 328.5 40C327.053 40 325.634 40.1206 324.252 40.3522C329.095 44.7171 332.617 50.5178 334.15 57.0837C334.926 57.0282 335.71 57 336.5 57C342.84 57 348.755 58.8151 353.755 61.954Z" fill="#3D322C"/>
<path d="M314.268 101.998C311.101 101.957 308.136 101.075 305.588 99.5641C304.374 98.8441 303.254 97.9814 302.252 96.9991C300.175 94.9634 298.603 92.4142 297.742 89.5568C297.474 88.6693 297.275 87.7519 297.151 86.8111C297.051 86.0549 297 85.2834 297 84.5C297 82.0896 297.487 79.793 298.369 77.7034C298.449 77.513 298.533 77.3243 298.62 77.1374C299.764 74.6736 301.464 72.5208 303.56 70.8402C304.824 69.8262 306.233 68.9842 307.749 68.3496C309.384 67.6655 311.144 67.2224 312.986 67.0646C313.485 67.0218 313.99 67 314.5 67C315.398 67 316.279 67.0676 317.14 67.1979C318.802 67.4493 320.387 67.9344 321.86 68.6185C323.724 69.4837 325.41 70.6674 326.848 72.0997C328.303 73.5486 329.505 75.252 330.38 77.1374C330.744 77.9211 331.052 78.7363 331.298 79.5778C331.755 81.1392 332 82.791 332 84.5C332 85.2834 331.949 86.0549 331.849 86.8111C331.661 88.2345 331.302 89.604 330.793 90.8983C329.72 93.6301 327.979 96.0266 325.772 97.8871C325.415 98.1877 325.046 98.4744 324.666 98.7461C322.12 100.566 319.065 101.721 315.756 101.956C315.341 101.985 314.922 102 314.5 102C314.423 102 314.345 101.999 314.268 101.998Z" fill="#3D322C"/>
<path fill-rule="evenodd" clip-rule="evenodd" d="M302.5 32C284.551 32 270 46.5507 270 64.5C270 65.3258 270.031 66.1445 270.091 66.9548C264.462 72.7985 261 80.745 261 89.5C261 104.867 271.666 117.743 285.998 121.13C291.524 131.185 302.216 138 314.5 138C326.683 138 337.3 131.297 342.865 121.377C357.767 118.418 369 105.271 369 89.5C369 81.2727 365.943 73.7594 360.903 68.0341C360.967 67.1978 361 66.3528 361 65.5C361 47.5507 346.449 33 328.5 33C324.316 33 320.317 33.7906 316.643 35.2306C312.367 33.1606 307.569 32 302.5 32ZM305.588 99.5641C308.136 101.075 311.101 101.957 314.268 101.998C314.345 101.999 314.423 102 314.5 102C314.922 102 315.341 101.985 315.756 101.956C319.065 101.721 322.12 100.566 324.666 98.7461C325.046 98.4744 325.415 98.1877 325.772 97.8871C327.979 96.0266 329.72 93.6301 330.793 90.8983C331.302 89.604 331.661 88.2345 331.849 86.8111C331.949 86.0549 332 85.2834 332 84.5C332 82.791 331.755 81.1392 331.298 79.5778C331.052 78.7363 330.744 77.9211 330.38 77.1374C329.505 75.252 328.303 73.5486 326.848 72.0997C325.41 70.6674 323.724 69.4837 321.86 68.6185C320.387 67.9344 318.802 67.4493 317.14 67.1979C316.279 67.0676 315.398 67 314.5 67C313.99 67 313.485 67.0218 312.986 67.0646C311.144 67.2224 309.384 67.6655 307.749 68.3496C306.233 68.9842 304.824 69.8262 303.56 70.8402C301.464 72.5208 299.764 74.6736 298.62 77.1374C298.533 77.3243 298.449 77.513 298.369 77.7034C297.487 79.793 297 82.0896 297 84.5C297 85.2834 297.051 86.0549 297.151 86.8111C297.275 87.7519 297.474 88.6693 297.742 89.5568C298.603 92.4142 300.175 94.9634 302.252 96.9991C303.254 97.9814 304.374 98.8441 305.588 99.5641ZM336.5 57C335.71 57 334.926 57.0282 334.15 57.0837C332.617 50.5178 329.095 44.7171 324.252 40.3522C325.634 40.1206 327.053 40 328.5 40C341.38 40 352.03 49.5492 353.755 61.954C348.755 58.8151 342.84 57 336.5 57ZM334.997 64.0436C335.494 64.0147 335.995 64 336.5 64C343.036 64 348.997 66.4588 353.51 70.5017C352.079 77.6968 347.62 83.8012 341.518 87.4312C340.747 86.2808 339.905 85.1823 338.997 84.1422C338.924 78.9941 337.262 74.2303 334.481 70.3183C334.822 68.4306 335 66.4861 335 64.5C335 64.3476 334.999 64.1955 334.997 64.0436ZM362 89.5C362 85.0345 360.852 80.8371 358.835 77.1867C356.154 84.1437 351.147 89.9458 344.769 93.6413C346.209 97.3153 347 101.315 347 105.5C347 108.128 346.688 110.684 346.099 113.132C355.425 109.34 362 100.188 362 89.5ZM308.667 39.7508C306.692 39.2603 304.627 39 302.5 39C289.472 39 278.725 48.7703 277.189 61.3836C281.983 58.5963 287.555 57 293.5 57C294.707 57 295.898 57.0658 297.071 57.194C298.924 50.1641 303.073 44.0662 308.667 39.7508ZM327.25 58.3353C325.669 51.9691 321.697 46.5475 316.341 43.0798C310.326 46.3488 305.773 51.968 303.915 58.7048C305.539 59.2537 307.105 59.9274 308.602 60.7145C310.491 60.2477 312.467 60 314.5 60C316.775 60 318.978 60.3101 321.068 60.8904C323.017 59.8367 325.086 58.9764 327.25 58.3353ZM293.5 115C299.924 115 305.794 112.624 310.278 108.704L310.222 108.628C302.481 107.265 295.992 102.266 292.582 95.4587C292.135 95.3157 291.692 95.1634 291.254 95.0018C289.806 98.2034 289 101.758 289 105.5C289 108.803 289.628 111.959 290.771 114.856C291.668 114.951 292.578 115 293.5 115ZM272.008 75.771C269.471 79.7341 268 84.4453 268 89.5C268 99.7575 274.057 108.601 282.789 112.648C282.272 110.348 282 107.956 282 105.5C282 100.637 283.068 96.0226 284.983 91.88C279.077 88.0937 274.477 82.4489 272.008 75.771ZM293.5 64C287.448 64 281.889 66.1081 277.516 69.6301C278.902 76.4152 282.983 82.2195 288.591 85.8762C289.042 85.2819 289.513 84.7035 290.003 84.1422C290.089 78.0721 292.384 72.5361 296.119 68.3011C296.04 67.3779 296 66.4436 296 65.5C296 65.039 296.01 64.5802 296.029 64.1238C295.197 64.0419 294.353 64 293.5 64ZM319.722 108.704C324.206 112.624 330.076 115 336.5 115C337.069 115 337.634 114.981 338.194 114.945C339.359 112.024 340 108.837 340 105.5C340 102.324 339.419 99.2828 338.358 96.478C337.397 96.7837 336.416 97.0459 335.418 97.2622C332.024 102.813 326.482 106.908 319.948 108.392C319.873 108.496 319.798 108.6 319.722 108.704ZM315 113.873C320.15 118.419 326.752 121.359 334.022 121.907C329.344 127.467 322.335 131 314.5 131C306.693 131 299.705 127.491 295.027 121.965C302.672 121.611 309.626 118.617 315 113.873Z" fill="#C6AB7A"/>
<path fill-rule="evenodd" clip-rule="evenodd" d="M266 64.5C266 44.3416 282.342 28 302.5 28C307.573 28 312.412 29.037 316.81 30.9132C320.485 29.6718 324.417 29 328.5 29C348.658 29 365 45.3416 365 65.5C365 65.8919 364.994 66.2824 364.982 66.6716C369.996 72.9213 373 80.8642 373 89.5C373 106.583 361.267 120.918 345.422 124.901C338.969 135.165 327.535 142 314.5 142C301.328 142 289.792 135.022 283.377 124.577C268.144 120.188 257 106.15 257 89.5C257 80.3062 260.404 71.9001 266.013 65.4844C266.004 65.1572 266 64.8291 266 64.5ZM285.998 121.13C271.666 117.743 261 104.867 261 89.5C261 80.745 264.462 72.7985 270.091 66.9548C270.031 66.1445 270 65.3258 270 64.5C270 46.5507 284.551 32 302.5 32C307.569 32 312.367 33.1606 316.643 35.2306C320.317 33.7906 324.316 33 328.5 33C346.449 33 361 47.5507 361 65.5C361 66.3528 360.967 67.1978 360.903 68.0341C365.943 73.7594 369 81.2727 369 89.5C369 105.271 357.767 118.418 342.865 121.377C337.3 131.297 326.683 138 314.5 138C302.216 138 291.524 131.185 285.998 121.13Z" fill="#876243"/>
</svg>
