<svg width="630" height="170" viewBox="0 0 630 170" fill="none" xmlns="http://www.w3.org/2000/svg">
<path d="M596 170C614.778 170 630 154.778 630 136V34C630 15.2223 614.778 0 596 0H508.5V170H596Z" fill="#E5383C"/>
<path d="M34 0C15.2223 0 0 15.2223 0 34V136C0 154.778 15.2223 170 34 170H116V0H34Z" fill="#E5383C"/>
<path d="M492 170V0H442V170H492Z" fill="#E5383C"/>
<path fill-rule="evenodd" clip-rule="evenodd" d="M116 0H135V170H116V0ZM184 170H442V0H184V170ZM508.5 170H492V0H508.5V170Z" fill="#F0F0EF"/>
<path d="M135 0V170H184V0H135Z" fill="#E5383C"/>
<path d="M345.159 107.439C345.277 107.32 345.4 107.198 345.527 107.071C345.547 107.051 345.567 107.031 345.586 107.012L345.588 107.01C345.626 106.972 345.664 106.934 345.703 106.895C345.859 106.74 346.02 106.579 346.186 106.413C347.798 104.803 349.875 102.711 351.887 100.511C351.891 100.507 351.895 100.502 351.899 100.497C352.521 105.568 354.241 105.978 357.323 106.094C360.404 106.209 366.669 114.204 370.108 118.879C373.547 123.554 378.583 130.321 383.267 130.308C385.831 130.301 386.994 129.265 388.047 128.326C388.919 127.549 389.715 126.84 391.165 126.836C394.37 126.828 390.873 144.34 389.141 146.563C388.22 147.746 388.765 148.646 389.253 149.453C389.665 150.133 390.037 150.747 389.455 151.408C388.794 151.989 388.181 151.617 387.501 151.206C386.694 150.717 385.794 150.172 384.611 151.093C382.388 152.825 364.875 156.323 364.884 153.118C364.888 151.667 365.597 150.871 366.373 150C367.312 148.946 368.349 147.783 368.356 145.22C368.368 140.536 361.602 135.5 356.927 132.061C352.252 128.622 344.257 122.356 344.141 119.275C344.026 116.194 343.784 114.469 338.713 113.847C340.894 111.841 342.203 110.482 343.453 109.186C344.01 108.608 344.554 108.043 345.159 107.439Z" fill="#BE8D4A"/>
<path fill-rule="evenodd" clip-rule="evenodd" d="M345.159 107.439C345.277 107.32 345.4 107.198 345.527 107.071L345.586 107.012C345.438 107.159 345.296 107.302 345.159 107.439ZM351.887 100.511L351.899 100.497C352.168 100.204 352.434 99.9088 352.699 99.6125C352.43 99.9135 352.159 100.213 351.887 100.511Z" fill="#D9D9D9"/>
<path fill-rule="evenodd" clip-rule="evenodd" d="M357.323 106.094C354.241 105.978 352.521 105.568 351.899 100.497L351.887 100.511C349.875 102.711 347.798 104.803 346.186 106.413L345.703 106.895L345.588 107.01L345.586 107.012L345.527 107.071L345.159 107.439C344.554 108.043 344.01 108.608 343.453 109.186C342.203 110.482 340.894 111.841 338.713 113.847C343.784 114.469 344.026 116.194 344.141 119.275C344.257 122.356 352.252 128.622 356.927 132.061C361.602 135.5 368.368 140.536 368.356 145.22C368.349 147.783 367.312 148.946 366.373 150C365.597 150.871 364.888 151.667 364.884 153.118C364.875 156.323 382.388 152.825 384.611 151.093C385.794 150.172 386.694 150.717 387.501 151.206C388.181 151.617 388.794 151.989 389.455 151.408C390.037 150.747 389.665 150.133 389.253 149.453C388.765 148.646 388.22 147.746 389.141 146.563C390.873 144.34 394.37 126.828 391.165 126.836C389.715 126.84 388.919 127.549 388.047 128.326C386.994 129.265 385.831 130.301 383.267 130.308C378.583 130.321 373.547 123.554 370.108 118.879C366.669 114.204 360.404 106.209 357.323 106.094Z" fill="#F5C87D"/>
<path d="M328.888 107.482C311.514 89.6133 275.364 52.4747 269.758 46.8687C263.849 40.9597 254.979 27.8716 255.011 21.2456C255.016 20.0137 255.33 19.0052 256.028 18.3077C260.279 14.0563 277.252 25.2778 285.206 31.42L346.437 89.9321C349.482 88.4449 356.161 86.0606 358.521 88.4211C360.298 90.1974 356.794 95.0259 352.699 99.6125C352.434 99.9088 352.168 100.204 351.899 100.497L351.887 100.511C349.875 102.711 347.798 104.803 346.186 106.413L345.703 106.895L345.588 107.01L345.586 107.012L345.527 107.071L345.159 107.439C344.554 108.043 344.01 108.608 343.453 109.186C342.203 110.482 340.894 111.841 338.713 113.847C334.32 117.889 328.022 122.929 326.017 120.925C323.263 118.171 326.784 110.815 328.888 107.482Z" fill="#F5C87D"/>
<path d="M345.159 107.439C345.277 107.32 345.4 107.198 345.527 107.071M345.159 107.439C345.296 107.302 345.438 107.159 345.586 107.012M345.159 107.439L345.527 107.071M345.159 107.439C344.554 108.043 344.01 108.608 343.453 109.186C342.203 110.482 340.894 111.841 338.713 113.847M340.697 98.4535L307.319 65.0755M255.011 21.2456C255.016 20.0137 255.33 19.0052 256.028 18.3077C260.279 14.0563 277.252 25.2778 285.206 31.42L346.437 89.9321C349.482 88.4449 356.161 86.0606 358.521 88.4211C360.298 90.1974 356.794 95.0259 352.699 99.6125M255.011 21.2456C254.979 27.8716 263.849 40.9597 269.758 46.8687C275.364 52.4747 311.514 89.6133 328.888 107.482C326.784 110.815 323.263 118.171 326.017 120.925C328.022 122.929 334.32 117.889 338.713 113.847M255.011 21.2456C257.802 25.1082 265.773 33.2752 271.575 39.4724C277.377 45.6696 316.446 85.0027 335.626 103.524M338.713 113.847C343.784 114.469 344.026 116.194 344.141 119.275C344.257 122.356 352.252 128.622 356.927 132.061C361.602 135.5 368.368 140.536 368.356 145.22C368.349 147.783 367.312 148.946 366.373 150C365.597 150.871 364.888 151.667 364.884 153.118C364.875 156.323 382.388 152.825 384.611 151.093C385.794 150.172 386.694 150.717 387.501 151.206C388.181 151.617 388.794 151.989 389.455 151.408M389.541 151.327C389.512 151.356 389.484 151.383 389.455 151.408M351.899 100.497C352.521 105.568 354.241 105.978 357.323 106.094C360.404 106.209 366.669 114.204 370.108 118.879C373.547 123.554 378.583 130.321 383.267 130.308C385.831 130.301 386.994 129.265 388.047 128.326C388.919 127.549 389.715 126.84 391.165 126.836C394.37 126.828 390.873 144.34 389.141 146.563C388.22 147.746 388.765 148.646 389.253 149.453C389.665 150.133 390.037 150.747 389.455 151.408M351.899 100.497L351.887 100.511M351.899 100.497C352.168 100.204 352.434 99.9088 352.699 99.6125M351.899 100.497C351.895 100.502 351.891 100.507 351.887 100.511M389.375 151.493C389.403 151.465 389.43 151.436 389.455 151.408M345.527 107.071L345.586 107.012M345.527 107.071C345.547 107.051 345.567 107.031 345.586 107.012M345.588 107.01C345.626 106.972 345.664 106.934 345.703 106.895M345.588 107.01L345.586 107.012M345.588 107.01L345.703 106.895M345.703 106.895C345.859 106.74 346.02 106.579 346.186 106.413M345.703 106.895L346.186 106.413M346.186 106.413C347.798 104.803 349.875 102.711 351.887 100.511M351.887 100.511C352.159 100.213 352.43 99.9135 352.699 99.6125M351.401 115.918C353.654 119.275 356.471 123.242 362.105 126.836C370.555 132.227 373.372 136.199 376.189 142.396" stroke="#A07D44" stroke-width="5"/>
<path d="M283.842 107.551C283.724 107.432 283.601 107.31 283.474 107.183C283.454 107.163 283.434 107.143 283.415 107.124L283.412 107.122C283.375 107.084 283.337 107.046 283.298 107.007C283.142 106.852 282.981 106.691 282.815 106.525C281.203 104.915 279.126 102.823 277.114 100.623C277.11 100.619 277.106 100.614 277.102 100.609C276.48 105.68 274.76 106.091 271.678 106.206C268.597 106.321 262.332 114.316 258.893 118.991C255.454 123.666 250.418 130.433 245.734 130.42C243.17 130.413 242.007 129.377 240.954 128.438C240.082 127.661 239.286 126.952 237.836 126.948C234.631 126.94 238.128 144.452 239.86 146.676C240.781 147.858 240.236 148.758 239.748 149.565C239.336 150.245 238.964 150.859 239.546 151.52C240.207 152.101 240.82 151.729 241.5 151.318C242.307 150.829 243.207 150.284 244.39 151.205C246.613 152.937 264.126 156.435 264.117 153.23C264.113 151.779 263.404 150.983 262.627 150.112C261.689 149.058 260.652 147.895 260.645 145.332C260.633 140.648 267.399 135.612 272.074 132.173C276.749 128.734 284.744 122.468 284.86 119.387C284.975 116.306 285.217 114.581 290.288 113.959C288.107 111.953 286.798 110.594 285.548 109.298C284.991 108.72 284.447 108.155 283.842 107.551Z" fill="#BE8D4A"/>
<path fill-rule="evenodd" clip-rule="evenodd" d="M283.842 107.551C283.724 107.432 283.601 107.31 283.474 107.183L283.415 107.124C283.563 107.271 283.705 107.414 283.842 107.551ZM277.114 100.623L277.102 100.609C276.833 100.316 276.566 100.021 276.302 99.7245C276.571 100.026 276.842 100.325 277.114 100.623Z" fill="#D9D9D9"/>
<path fill-rule="evenodd" clip-rule="evenodd" d="M271.678 106.206C274.76 106.091 276.48 105.68 277.102 100.609L277.114 100.623C279.126 102.823 281.203 104.915 282.815 106.525L283.298 107.007L283.412 107.122L283.415 107.124L283.474 107.183L283.842 107.551C284.447 108.155 284.991 108.72 285.548 109.298C286.798 110.594 288.107 111.953 290.288 113.959C285.217 114.581 284.975 116.306 284.86 119.387C284.744 122.468 276.749 128.734 272.074 132.173C267.399 135.612 260.633 140.648 260.645 145.332C260.652 147.895 261.689 149.058 262.627 150.112C263.404 150.983 264.113 151.779 264.117 153.23C264.126 156.435 246.613 152.937 244.39 151.205C243.207 150.284 242.307 150.829 241.5 151.318C240.82 151.729 240.207 152.101 239.546 151.52C238.964 150.859 239.336 150.245 239.748 149.565C240.236 148.758 240.781 147.858 239.86 146.676C238.128 144.452 234.631 126.94 237.836 126.948C239.286 126.952 240.082 127.661 240.954 128.438C242.007 129.377 243.17 130.413 245.734 130.42C250.418 130.433 255.454 123.666 258.893 118.991C262.332 114.316 268.597 106.321 271.678 106.206Z" fill="#F5C87D"/>
<path d="M300.113 107.594C317.487 89.7253 353.637 52.5868 359.243 46.9808C365.152 41.0718 374.022 27.9837 373.99 21.3577C373.984 20.1258 373.671 19.1173 372.973 18.4198C368.722 14.1683 351.749 25.3899 343.795 31.5321L282.564 90.0441C279.519 88.5569 272.84 86.1727 270.48 88.5331C268.703 90.3095 272.207 95.138 276.302 99.7245C276.566 100.021 276.833 100.316 277.102 100.609L277.114 100.623C279.126 102.823 281.203 104.915 282.815 106.525L283.298 107.007L283.412 107.122L283.415 107.124L283.474 107.183L283.842 107.551C284.447 108.155 284.991 108.72 285.548 109.298C286.798 110.594 288.107 111.953 290.288 113.959C294.681 118.001 300.979 123.042 302.984 121.037C305.738 118.283 302.217 110.927 300.113 107.594Z" fill="#F5C87D"/>
<path d="M283.842 107.551C283.724 107.432 283.601 107.31 283.474 107.183M283.842 107.551C283.705 107.414 283.563 107.271 283.415 107.124M283.842 107.551L283.474 107.183M283.842 107.551C284.447 108.155 284.991 108.72 285.548 109.298C286.798 110.594 288.107 111.953 290.288 113.959M288.304 98.5656L321.682 65.1875M373.99 21.3577C373.984 20.1258 373.671 19.1173 372.973 18.4198C368.722 14.1683 351.749 25.3899 343.795 31.5321L282.564 90.0441C279.519 88.5569 272.84 86.1727 270.48 88.5331C268.703 90.3095 272.207 95.138 276.302 99.7245M373.99 21.3577C374.022 27.9837 365.152 41.0718 359.243 46.9808C353.637 52.5868 317.487 89.7253 300.113 107.594C302.217 110.927 305.738 118.283 302.984 121.037C300.979 123.042 294.681 118.001 290.288 113.959M373.99 21.3577C371.199 25.2203 363.228 33.3872 357.426 39.5844C351.624 45.7816 312.555 85.1148 293.375 103.636M290.288 113.959C285.217 114.581 284.975 116.306 284.86 119.387C284.744 122.468 276.749 128.734 272.074 132.173C267.399 135.612 260.633 140.648 260.645 145.332C260.652 147.895 261.689 149.058 262.627 150.112C263.404 150.983 264.113 151.779 264.117 153.23C264.126 156.435 246.613 152.937 244.39 151.205C243.207 150.284 242.307 150.829 241.5 151.318C240.82 151.729 240.207 152.101 239.546 151.52M239.46 151.439C239.489 151.468 239.517 151.495 239.546 151.52M277.102 100.609C276.48 105.68 274.76 106.091 271.678 106.206C268.597 106.321 262.332 114.316 258.893 118.991C255.454 123.666 250.418 130.433 245.734 130.42C243.17 130.413 242.007 129.377 240.954 128.438C240.082 127.661 239.286 126.952 237.836 126.948C234.631 126.94 238.128 144.452 239.86 146.676C240.781 147.858 240.236 148.758 239.748 149.565C239.336 150.245 238.964 150.859 239.546 151.52M277.102 100.609L277.114 100.623M277.102 100.609C276.833 100.316 276.566 100.021 276.302 99.7245M277.102 100.609C277.106 100.614 277.11 100.619 277.114 100.623M239.626 151.605C239.598 151.577 239.571 151.548 239.546 151.52M283.474 107.183L283.415 107.124M283.474 107.183C283.454 107.163 283.434 107.143 283.415 107.124M283.412 107.122C283.375 107.084 283.337 107.046 283.298 107.007M283.412 107.122L283.415 107.124M283.412 107.122L283.298 107.007M283.298 107.007C283.142 106.852 282.981 106.691 282.815 106.525M283.298 107.007L282.815 106.525M282.815 106.525C281.203 104.915 279.126 102.823 277.114 100.623M277.114 100.623C276.842 100.325 276.571 100.026 276.302 99.7245M277.6 116.03C275.347 119.387 272.53 123.354 266.896 126.948C258.446 132.339 255.629 136.311 252.812 142.508" stroke="#A07D44" stroke-width="5"/>
</svg>
