<svg width="630" height="170" viewBox="0 0 630 170" fill="none" xmlns="http://www.w3.org/2000/svg">
<path d="M596 170C614.778 170 630 154.778 630 136V34C630 15.2223 614.778 0 596 0H422.5V170H596Z" fill="#E5383C"/>
<path d="M34 0C15.2223 0 0 15.2223 0 34V136C0 154.778 15.2223 170 34 170H116H135H207.5V0H34Z" fill="#E5383C"/>
<path d="M207.5 0V170H422.5V0H207.5Z" fill="#231B22"/>
<path d="M314.523 11C325.868 17.3192 341.81 27.7507 356.761 40.4399C371.713 27.7507 387.655 17.3192 399 11V159C391.16 159 373.726 157.683 356.761 152.082C339.797 157.683 322.362 159 314.523 159C306.741 159 289.601 157.702 272.86 152.207C256.015 157.702 238.781 159 231 159V105.052V11C242.246 17.2639 258.009 27.5685 272.846 40.1074C287.591 27.5685 303.277 17.2639 314.523 11Z" fill="#F5C87D"/>
<path d="M314.523 11C342.523 26.5957 398.523 67.24 398.523 105.052M314.523 11C286.523 26.5957 231 67.24 231 105.052M314.523 11V159M398.523 105.052C398.523 152.316 332.182 159 314.523 159M398.523 105.052H231M314.523 159C296.864 159 231 152.316 231 105.052M315 105.052C315 67.24 259 26.5957 231 11V159C248.659 159 315 152.316 315 105.052ZM315 105.052C315 67.24 371 26.5957 399 11V159C381.341 159 315 152.316 315 105.052Z" stroke="#BE8D4A" stroke-width="5"/>
</svg>
