<svg width="630" height="170" viewBox="0 0 630 170" fill="none" xmlns="http://www.w3.org/2000/svg">
<path d="M596 170C614.778 170 630 154.778 630 136V34C630 15.2223 614.778 0 596 0H549.5V170H596Z" fill="#017941"/>
<path d="M34 0C15.2223 0 0 15.2223 0 34V136C0 154.778 15.2223 170 34 170H74V0H34Z" fill="#017941"/>
<path d="M93 170H239V0H93V170Z" fill="#017941"/>
<path d="M383.5 170H531V0H383.5V170Z" fill="#017941"/>
<path d="M292 170H330V0H292V170Z" fill="#F0F0EF"/>
<path d="M74 170H93V0H74V170Z" fill="#F0F0EF"/>
<path d="M531 170H549.5V0H531V170Z" fill="#F0F0EF"/>
<path d="M239 170H292V0H239V170Z" fill="#E5383C"/>
<path d="M330 170H383.5V0H330V170Z" fill="#E5383C"/>
</svg>
