<svg width="630" height="170" viewBox="0 0 630 170" fill="none" xmlns="http://www.w3.org/2000/svg">
<path d="M596 170C614.778 170 630 154.778 630 136V34C630 15.2223 614.778 0 596 0H422.5V170H596Z" fill="#1E5E9B"/>
<path d="M34 0C15.2223 0 0 15.2223 0 34V136C0 154.778 15.2223 170 34 170H116H135H207.5V0H34Z" fill="#1E5E9B"/>
<path d="M207.5 0V170H422.5V0H207.5Z" fill="#231B22"/>
<path d="M388 84.5C388 125.093 355.093 158 314.5 158C273.907 158 241 125.093 241 84.5C241 43.9071 273.907 11 314.5 11C355.093 11 388 43.9071 388 84.5Z" fill="#F5C87D"/>
<path d="M388 84.5C388 125.093 355.093 158 314.5 158M388 84.5C388 43.9071 355.093 11 314.5 11M388 84.5H241M314.5 158C273.907 158 241 125.093 241 84.5M314.5 158V11M241 84.5C241 43.9071 273.907 11 314.5 11" stroke="#BE8D4A" stroke-width="5"/>
</svg>
