<svg width="630" height="170" viewBox="0 0 630 170" fill="none" xmlns="http://www.w3.org/2000/svg">
<path d="M207.5 0V170H422.5V0H207.5Z" fill="#231B22"/>
<path fill-rule="evenodd" clip-rule="evenodd" d="M34 170C15.2223 170 0 154.778 0 136V34C0 15.2223 15.2223 0 34 0H103.75V170H34Z" fill="#E5383C"/>
<path d="M207.5 170V0H103.75V170H207.5Z" fill="#1E5E9B"/>
<path fill-rule="evenodd" clip-rule="evenodd" d="M596 0C614.778 0 630 15.2223 630 34V136C630 154.778 614.778 170 596 170H526.25V0H596Z" fill="#E5383C"/>
<path d="M422.5 0V170H526.25V0H422.5Z" fill="#1E5E9B"/>
<path d="M388 84.5C388 125.093 355.093 158 314.5 158C273.907 158 241 125.093 241 84.5C241 43.9071 273.907 11 314.5 11C355.093 11 388 43.9071 388 84.5Z" fill="#F5C87D"/>
<path d="M376 84.5C376 118.466 348.466 146 314.5 146C280.534 146 253 118.466 253 84.5C253 50.5345 280.534 23 314.5 23C348.466 23 376 50.5345 376 84.5Z" fill="#F5C87D"/>
<path d="M360 84.5C360 109.629 339.629 130 314.5 130C289.371 130 269 109.629 269 84.5C269 59.371 289.371 39 314.5 39C339.629 39 360 59.371 360 84.5Z" fill="#F5C87D"/>
<path d="M345 84.5C345 101.345 331.345 115 314.5 115C297.655 115 284 101.345 284 84.5C284 67.6553 297.655 54 314.5 54C331.345 54 345 67.6553 345 84.5Z" fill="#F5C87D"/>
<path d="M388 84.5C388 125.093 355.093 158 314.5 158M388 84.5C388 43.9071 355.093 11 314.5 11M388 84.5H241M314.5 158C273.907 158 241 125.093 241 84.5M314.5 158V11M241 84.5C241 43.9071 273.907 11 314.5 11M376 84.5C376 118.466 348.466 146 314.5 146C280.534 146 253 118.466 253 84.5C253 50.5345 280.534 23 314.5 23C348.466 23 376 50.5345 376 84.5ZM360 84.5C360 109.629 339.629 130 314.5 130C289.371 130 269 109.629 269 84.5C269 59.371 289.371 39 314.5 39C339.629 39 360 59.371 360 84.5ZM345 84.5C345 101.345 331.345 115 314.5 115C297.655 115 284 101.345 284 84.5C284 67.6553 297.655 54 314.5 54C331.345 54 345 67.6553 345 84.5Z" stroke="#BE8D4A" stroke-width="5"/>
</svg>
