<svg width="630" height="170" viewBox="0 0 630 170" fill="none" xmlns="http://www.w3.org/2000/svg">
<path d="M596 170C614.778 170 630 154.778 630 136V34C630 15.2223 614.778 0 596 0H422.5V170H596Z" fill="#F4B91A"/>
<path d="M34 0C15.2223 0 0 15.2223 0 34V136C0 154.778 15.2223 170 34 170H116H135H207.5V0H34Z" fill="#F4B91A"/>
<path d="M207.5 0V170H422.5V0H207.5Z" fill="#231B22"/>
<path d="M273.633 52.9077C274.998 45.702 279.428 40.8184 285.929 42.5191C286.472 42.6611 287.029 42.8491 287.601 43.0855L297.822 48.0813L307.259 52.6937C308.949 53.4037 310.919 53.4996 312.6 53.3831C314.757 53.2337 316.438 52.7342 316.438 52.7342C314.412 59.9484 304.609 62.8021 299.699 61.6103C299.402 61.5384 299.124 61.4518 298.866 61.3505L288.793 56.0781L282.813 52.9481C280.878 52.1359 278.578 52.1274 276.764 52.3211C274.958 52.5141 273.633 52.9077 273.633 52.9077Z" fill="#F5C87D"/>
<path d="M316.438 52.7342C314.412 59.9484 304.609 62.8021 299.699 61.6103C297.103 64.0897 294.844 66.9206 292.997 70.027L323.333 86.0146L356.912 64.67C349.684 56.1311 338.905 50.7129 326.865 50.7129C321.834 50.7129 317.023 51.6589 312.6 53.3831C314.757 53.2337 316.438 52.7342 316.438 52.7342Z" fill="#F5C87D"/>
<path d="M297.06 116.127C300.508 120.122 304.74 123.417 309.516 125.771C315.894 121.06 327.497 124.581 329.982 128.779L330.376 129.645C339.969 128.795 348.574 124.496 354.953 117.992C345.405 112.871 333.704 106.595 321.834 100.225L297.06 116.127Z" fill="#F5C87D"/>
<path d="M277.258 128.838C288.739 143.68 306.69 153.232 326.865 153.232C327.954 153.232 329.037 153.205 330.113 153.15C329.222 152.396 328.406 151.399 327.688 150.136L323.419 141.401C308.783 140.423 295.834 133.259 287.144 122.492L277.258 128.838Z" fill="#F5C87D"/>
<path d="M277.94 105.049L272.416 108.12C270.552 109.373 269.222 111.484 268.389 113.173C269.195 115.24 270.105 117.253 271.115 119.207L281.026 112.907C279.792 110.397 278.757 107.771 277.94 105.049Z" fill="#F5C87D"/>
<path d="M288.461 99.1633C288.392 99.2165 288.324 99.2675 288.255 99.3161L277.94 105.049C278.757 107.771 279.792 110.397 281.026 112.907L290.965 106.589C289.897 104.229 289.053 101.744 288.461 99.1633Z" fill="#F5C87D"/>
<path d="M267.149 70.8251C265.173 76.9451 264.105 83.4755 264.105 90.2562C264.105 93.6767 264.376 97.0334 264.9 100.306C265.452 99.7326 266.103 99.1861 266.858 98.6726L275.872 93.3324C275.811 92.3147 275.781 91.289 275.781 90.2562C275.781 85.4853 276.431 80.8667 277.646 76.4845C273.506 74.2557 269.935 72.331 267.149 70.8251Z" fill="#F5C87D"/>
<path d="M277.646 76.4845C276.431 80.8667 275.781 85.4853 275.781 90.2562C275.781 91.289 275.811 92.3147 275.872 93.3324L285.687 87.5171C286.457 86.9996 287.136 86.3357 287.726 85.6155C287.86 84.4619 288.044 83.3234 288.275 82.2024C284.453 80.1475 280.876 78.2234 277.646 76.4845Z" fill="#F5C87D"/>
<path d="M310.526 94.1553C304.504 90.9218 298.602 87.7521 293.086 84.7879C294.14 90.3758 291.412 96.874 288.461 99.1633C289.053 101.744 289.897 104.229 290.965 106.589L310.526 94.1553Z" fill="#F5C87D"/>
<path d="M298.866 61.3505L288.793 56.0781C286.469 58.6833 284.406 61.5285 282.646 64.572L292.997 70.027C294.844 66.9206 297.103 64.0897 299.699 61.6103C299.402 61.5384 299.124 61.4518 298.866 61.3505Z" fill="#F5C87D"/>
<path d="M282.813 52.9481C280.878 52.1359 278.578 52.1274 276.764 52.3211C275.136 54.4827 273.644 56.753 272.3 59.1192L282.646 64.572C284.406 61.5285 286.469 58.6833 288.793 56.0781L282.813 52.9481Z" fill="#F5C87D"/>
<path d="M329.982 128.779C327.497 124.581 315.894 121.06 309.516 125.771C309.666 125.845 309.817 125.918 309.968 125.99C311.91 126.916 313.939 127.688 316.039 128.289C316.861 128.874 317.581 129.583 318.06 130.436L323.419 141.401L327.688 150.136C328.406 151.399 329.222 152.396 330.113 153.15C334.146 156.563 339.758 154.974 344.629 150.674C344.629 150.674 339.558 148.964 337.504 145.305L335.451 140.795L330.376 129.645L329.982 128.779Z" fill="#F5C87D"/>
<path d="M309.516 125.771C304.74 123.417 300.508 120.122 297.06 116.127L287.144 122.492C295.834 133.259 308.783 140.423 323.419 141.401L318.06 130.436C317.581 129.583 316.861 128.874 316.039 128.289C313.939 127.688 311.91 126.916 309.968 125.99C309.817 125.918 309.666 125.845 309.516 125.771Z" fill="#F5C87D"/>
<path d="M289.51 82.866L288.275 82.2024C288.044 83.3234 287.86 84.4619 287.726 85.6155C287.136 86.3357 286.457 86.9996 285.687 87.5171L275.872 93.3324L266.858 98.6726C266.103 99.1861 265.452 99.7326 264.9 100.306C260.6 104.771 262.291 110.868 267.32 115.781C267.32 115.781 267.669 114.635 268.389 113.173C269.222 111.484 270.552 109.373 272.416 108.12L277.94 105.049L288.255 99.3161C288.324 99.2675 288.392 99.2165 288.461 99.1633C291.412 96.874 294.14 90.3758 293.086 84.7879L289.51 82.866Z" fill="#F5C87D"/>
<path d="M337.504 145.305C339.558 148.964 344.629 150.674 344.629 150.674C357.212 146.955 368.151 139.386 376.092 129.325C379.427 125.066 380.995 122.53 383.314 117.812C387.357 109.489 389.625 100.138 389.625 90.2562C389.625 87.793 389.484 85.3629 389.21 82.9735C388.571 83.8187 387.741 84.6239 386.706 85.3743L377.944 90.9268C377.642 114.561 358.869 136.818 335.451 140.795L337.504 145.305Z" fill="#F5C87D"/>
<path d="M377.944 90.9268L368.218 97.0908C366.37 98.4155 365.174 100.498 364.467 102.125C363.969 103.714 363.374 105.26 362.689 106.756C360.462 111.325 358.919 113.819 354.953 117.992C348.574 124.496 339.969 128.795 330.376 129.645L335.451 140.795C358.869 136.818 377.642 114.561 377.944 90.9268Z" fill="#F5C87D"/>
<path d="M365.299 85.3743C361.406 88.3034 359.115 96.2664 364.467 102.125C365.174 100.498 366.37 98.4155 368.218 97.0908L377.944 90.9268L386.706 85.3743C387.741 84.6239 388.571 83.8187 389.21 82.9735C392.583 78.5138 390.66 72.9396 385.752 68.4251C385.752 68.4251 384.273 73.6578 380.868 76.0987L376.628 78.6248L365.927 85L365.299 85.3743Z" fill="#F5C87D"/>
<path d="M364.467 102.125C359.115 96.2664 361.406 88.3034 365.299 85.3743L365.927 85C365.412 81.1081 364.333 77.395 362.775 73.9461L334.667 91.9878L362.689 106.756C363.374 105.26 363.969 103.714 364.467 102.125Z" fill="#F5C87D"/>
<path d="M334.667 91.9878L321.834 100.225C333.704 106.595 345.405 112.871 354.953 117.992C358.919 113.819 360.462 111.325 362.689 106.756L334.667 91.9878Z" fill="#F5C87D"/>
<path d="M250.482 139.563C251.844 141.84 255.347 142.492 258.267 141.028L277.258 128.838L287.144 122.492L297.06 116.127L321.834 100.225L334.667 91.9878L362.775 73.9461C360.902 69.8755 359.526 67.9435 356.912 64.67L323.333 86.0146L310.526 94.1553L290.965 106.589L281.026 112.907L271.115 119.207L252.915 130.776C249.996 132.729 249.023 137.122 250.482 139.563Z" fill="#F5C87D"/>
<path d="M266.539 56.083L260.701 67.3113C261.146 67.572 263.461 68.8318 267.149 70.8251C269.935 72.331 273.506 74.2557 277.646 76.4845C280.876 78.2234 284.453 80.1475 288.275 82.2024L289.51 82.866L293.086 84.7879C298.602 87.7521 304.504 90.9218 310.526 94.1553L323.333 86.0146L292.997 70.027L282.646 64.572L272.3 59.1192L266.539 56.083Z" fill="#F5C87D"/>
<path d="M326.865 50.7129C338.905 50.7129 349.684 56.1311 356.912 64.67C359.526 67.9435 360.902 69.8755 362.775 73.9461C364.333 77.395 365.412 81.1081 365.927 85L376.628 78.6248C371.37 55.8853 351 38.9964 326.865 38.9964C316.076 38.9964 306.068 42.3526 297.822 48.0813L307.259 52.6937C308.949 53.4037 310.919 53.4996 312.6 53.3831C317.023 51.6589 321.834 50.7129 326.865 50.7129Z" fill="#F5C87D"/>
<path d="M380.868 76.0987C384.273 73.6578 385.752 68.4251 385.752 68.4251C384.84 65.9491 383.777 63.5463 382.575 61.2281C380.46 57.2897 379.13 55.2621 376.6 51.8408C365.124 36.9032 347.115 27.2799 326.865 27.2799C311.223 27.2799 296.918 33.0216 285.929 42.5191C286.472 42.6611 287.029 42.8491 287.601 43.0855L297.822 48.0813C306.068 42.3526 316.076 38.9964 326.865 38.9964C351 38.9964 371.37 55.8853 376.628 78.6248L380.868 76.0987Z" fill="#F5C87D"/>
<path d="M398.87 34.1145L387.679 32.65C386.055 41.7478 383.279 46.1201 376.6 51.8408C379.13 55.2621 380.46 57.2897 382.575 61.2281C392.578 54.2051 396.434 46.5429 398.87 34.1145Z" fill="#F5C87D"/>
<path d="M269.943 31.6736C274.484 25.6526 279.672 17.0279 274.322 15.0752C270.69 13.7497 252.371 30.1477 243.672 48.7602C232.482 72.1932 228.101 92.0687 232.968 94.1617C237.014 95.9016 239.78 92.6971 243.672 80.0042C246.785 69.8499 257.294 65.317 260.701 67.3113L266.539 56.083C260.214 53.1539 264.42 38.9964 269.943 31.6736Z" fill="#F5C87D"/>
<path d="M385.752 68.4251C385.752 68.4251 384.273 73.6578 380.868 76.0987L376.628 78.6248M385.752 68.4251C384.84 65.9491 383.777 63.5463 382.575 61.2281M385.752 68.4251C390.66 72.9396 392.583 78.5138 389.21 82.9735M364.467 102.125C359.115 96.2664 361.406 88.3034 365.299 85.3743L365.927 85M364.467 102.125C365.174 100.498 366.37 98.4155 368.218 97.0908L377.944 90.9268M364.467 102.125C363.969 103.714 363.374 105.26 362.689 106.756M344.629 150.674C344.629 150.674 339.558 148.964 337.504 145.305L335.451 140.795M344.629 150.674C339.758 154.974 334.146 156.563 330.113 153.15M344.629 150.674C357.212 146.955 368.151 139.386 376.092 129.325M309.516 125.771C315.894 121.06 327.497 124.581 329.982 128.779L330.376 129.645M309.516 125.771C304.74 123.417 300.508 120.122 297.06 116.127M309.516 125.771C309.666 125.845 309.817 125.918 309.968 125.99M266.539 56.083C260.214 53.1539 264.42 38.9964 269.943 31.6736C274.484 25.6526 279.672 17.0279 274.322 15.0752C270.69 13.7497 252.371 30.1477 243.672 48.7602C232.482 72.1932 228.101 92.0687 232.968 94.1617C237.014 95.9016 239.78 92.6971 243.672 80.0042C246.785 69.8499 257.294 65.317 260.701 67.3113M266.539 56.083L260.701 67.3113M266.539 56.083L272.3 59.1192M389.14 121.988C393.032 124.429 400.038 131.459 398.87 134.193C397.703 136.927 388.816 134.356 383.789 132.729M389.14 121.988L383.789 132.729M389.14 121.988L383.314 117.812M383.789 132.729L376.977 129.799C376.977 129.799 376.672 129.636 376.092 129.325M260.701 67.3113C261.146 67.572 263.461 68.8318 267.149 70.8251M310.526 94.1553L323.333 86.0146M310.526 94.1553C304.504 90.9218 298.602 87.7521 293.086 84.7879M310.526 94.1553L290.965 106.589M323.333 86.0146L292.997 70.027M323.333 86.0146L356.912 64.67M334.667 91.9878L321.834 100.225M334.667 91.9878L362.689 106.756M334.667 91.9878L362.775 73.9461M321.834 100.225C333.704 106.595 345.405 112.871 354.953 117.992M321.834 100.225L297.06 116.127M330.113 153.15C329.222 152.396 328.406 151.399 327.688 150.136L323.419 141.401M330.113 153.15C329.037 153.205 327.954 153.232 326.865 153.232C306.69 153.232 288.739 143.68 277.258 128.838M272.3 59.1192L282.646 64.572M272.3 59.1192C273.644 56.753 275.136 54.4827 276.764 52.3211M267.149 70.8251C265.173 76.9451 264.105 83.4755 264.105 90.2562C264.105 93.6767 264.376 97.0334 264.9 100.306M267.149 70.8251C269.935 72.331 273.506 74.2557 277.646 76.4845M282.646 64.572L292.997 70.027M282.646 64.572C284.406 61.5285 286.469 58.6833 288.793 56.0781M277.646 76.4845C276.431 80.8667 275.781 85.4853 275.781 90.2562C275.781 91.289 275.811 92.3147 275.872 93.3324M277.646 76.4845C280.876 78.2234 284.453 80.1475 288.275 82.2024M292.997 70.027C294.844 66.9206 297.103 64.0897 299.699 61.6103M288.275 82.2024C288.684 82.4221 289.096 82.6433 289.51 82.866M288.275 82.2024C288.044 83.3234 287.86 84.4619 287.726 85.6155C287.136 86.3357 286.457 86.9996 285.687 87.5171L275.872 93.3324M288.275 82.2024L289.51 82.866M289.51 82.866C290.681 83.4957 291.874 84.1369 293.086 84.7879M289.51 82.866L293.086 84.7879M293.086 84.7879C294.14 90.3758 291.412 96.874 288.461 99.1633M376.092 129.325C379.427 125.066 380.995 122.53 383.314 117.812M354.953 117.992C348.574 124.496 339.969 128.795 330.376 129.645M354.953 117.992C358.919 113.819 360.462 111.325 362.689 106.756M383.314 117.812C387.357 109.489 389.625 100.138 389.625 90.2562C389.625 87.793 389.484 85.3629 389.21 82.9735M356.912 64.67C349.684 56.1311 338.905 50.7129 326.865 50.7129C321.834 50.7129 317.023 51.6589 312.6 53.3831M356.912 64.67C359.526 67.9435 360.902 69.8755 362.775 73.9461M297.822 48.0813C306.068 42.3526 316.076 38.9964 326.865 38.9964C351 38.9964 371.37 55.8853 376.628 78.6248M297.822 48.0813L307.259 52.6937C308.949 53.4037 310.919 53.4996 312.6 53.3831M297.822 48.0813L287.601 43.0855C287.029 42.8491 286.472 42.6611 285.929 42.5191M312.6 53.3831C314.757 53.2337 316.438 52.7342 316.438 52.7342C314.412 59.9484 304.609 62.8021 299.699 61.6103M376.6 51.8408C365.124 36.9032 347.115 27.2799 326.865 27.2799C311.223 27.2799 296.918 33.0216 285.929 42.5191M376.6 51.8408C383.279 46.1201 386.055 41.7478 387.679 32.65L398.87 34.1145C396.434 46.5429 392.578 54.2051 382.575 61.2281M376.6 51.8408C379.13 55.2621 380.46 57.2897 382.575 61.2281M285.929 42.5191C279.428 40.8184 274.998 45.702 273.633 52.9077C273.633 52.9077 274.958 52.5141 276.764 52.3211M299.699 61.6103C299.402 61.5384 299.124 61.4518 298.866 61.3505L288.793 56.0781M377.944 90.9268L386.706 85.3743C387.741 84.6239 388.571 83.8187 389.21 82.9735M377.944 90.9268C377.642 114.561 358.869 136.818 335.451 140.795M365.927 85C365.412 81.1081 364.333 77.395 362.775 73.9461M365.927 85L376.628 78.6248M335.451 140.795L330.376 129.645M297.06 116.127L287.144 122.492M297.06 116.127C300.616 120.248 305.007 123.624 309.968 125.99M277.258 128.838L287.144 122.492M277.258 128.838L258.267 141.028C255.347 142.492 251.844 141.84 250.482 139.563C249.023 137.122 249.996 132.729 252.915 130.776L271.115 119.207M323.419 141.401C308.783 140.423 295.834 133.259 287.144 122.492M323.419 141.401L318.06 130.436C317.581 129.583 316.861 128.874 316.039 128.289C313.939 127.688 311.91 126.916 309.968 125.99M277.94 105.049L272.416 108.12C270.552 109.373 269.222 111.484 268.389 113.173M277.94 105.049C278.757 107.771 279.792 110.397 281.026 112.907M277.94 105.049L288.255 99.3161C288.324 99.2675 288.392 99.2165 288.461 99.1633M268.389 113.173C269.195 115.24 270.105 117.253 271.115 119.207M268.389 113.173C267.669 114.635 267.32 115.781 267.32 115.781C262.291 110.868 260.6 104.771 264.9 100.306M271.115 119.207L281.026 112.907M281.026 112.907L290.965 106.589M288.461 99.1633C289.053 101.744 289.897 104.229 290.965 106.589M275.872 93.3324L266.858 98.6726C266.103 99.1861 265.452 99.7326 264.9 100.306M288.793 56.0781L282.813 52.9481C280.878 52.1359 278.578 52.1274 276.764 52.3211" stroke="#BE8D4A" stroke-width="5"/>
</svg>
