<svg width="630" height="170" viewBox="0 0 630 170" fill="none" xmlns="http://www.w3.org/2000/svg">
<path d="M596 170C614.778 170 630 154.778 630 136V34C630 15.2223 614.778 0 596 0H422.5V170H596Z" fill="#F4B91A"/>
<path d="M34 0C15.2223 0 0 15.2223 0 34V136C0 154.778 15.2223 170 34 170H116H135H207.5V0H34Z" fill="#F4B91A"/>
<path d="M207.5 0V170H422.5V0H207.5Z" fill="#231B22"/>
<path d="M227.475 138.155V111.994V94.7177V69.5436V50.8745V32.0295C257.467 9.81712 286.967 9.32351 315.238 32.0295C347.442 9.32351 376.45 9.32351 403 32.0295V51.2802V69.5437V93.2369V111.994V138.155C374.729 160.861 345.229 160.367 315.238 138.155C286.967 160.861 257.467 160.367 227.475 138.155Z" fill="#F5C87D"/>
<path d="M227.475 32.0295C257.467 54.2418 286.967 54.7354 315.238 32.0295M227.475 32.0295C257.467 9.81712 286.967 9.32351 315.238 32.0295M227.475 32.0295V94.7177M227.475 111.994V138.155C257.467 160.367 286.967 160.861 315.238 138.155M227.475 111.994C257.467 134.206 286.967 134.7 315.238 111.994M227.475 111.994V94.7177M315.238 111.994C345.229 134.206 374.729 134.7 403 111.994M315.238 111.994C320.315 108.414 325.312 105.399 330.233 102.948M403 111.994V138.155C374.729 160.861 345.229 160.367 315.238 138.155M403 111.994C380.636 92.8676 356.527 89.8523 330.233 102.948M403 111.994V69.5437M227.475 94.7177C234.921 89.2027 242.429 84.9961 249.94 82.1358M227.475 94.7177C232.696 98.5845 237.947 101.778 243.208 104.296M316.713 94.2241C309.706 88.5965 302.533 84.4244 295.25 81.67C280.444 76.0705 265.183 76.331 249.94 82.1358M316.713 94.2241C324.007 89.0809 331.138 85.1028 338.113 82.2896M316.713 94.2241C311.614 98.3189 306.428 101.675 301.175 104.296M403 93.2369C396.271 87.4824 390.86 84.1736 383.803 81.3359M403 51.2802C376.45 28.5743 345.967 27.0934 313.763 49.7993C308.639 53.9144 303.475 57.2675 298.275 59.8673M226 49.7993C250.556 67.9861 274.783 71.613 298.275 59.8673M315.238 32.0295C347.442 9.32351 376.45 9.32351 403 32.0295V69.5437M315.238 69.5436C322.899 75.2177 330.528 79.4746 338.113 82.2896M315.238 69.5436C318.415 67.3033 321.561 65.2841 324.677 63.4859C349.866 48.9495 373.068 48.8575 394.657 63.2101C397.465 65.0769 400.246 67.1881 403 69.5437M315.238 69.5436C305 62.0508 302.403 61.0881 298.275 59.8673M403 69.5437C396.66 74.6356 390.259 78.5607 383.803 81.3359M227.475 69.5436C234.998 75.1154 242.49 79.3205 249.94 82.1358M315.238 138.155C308.231 132.528 300.438 127.703 293.156 124.949M383.803 81.3359C369.323 75.5127 354.128 75.8306 338.113 82.2896M241.733 40.9678C255.5 31.0039 283.033 31.0039 298.275 42.8143M330.233 102.948C348 116.5 376.5 115.5 390.946 102.948M243.208 104.296C262.719 113.633 282.372 113.678 301.175 104.296M243.208 104.296C264.987 92.6786 277.481 90.1092 301.175 104.296M389.048 59.8673C372.5 72 351 73 331.61 59.8673" stroke="#BE8D4A" stroke-width="5"/>
</svg>
