<svg width="630" height="170" viewBox="0 0 630 170" fill="none" xmlns="http://www.w3.org/2000/svg">
<path d="M596 170C614.778 170 630 154.778 630 136V34C630 15.2223 614.778 0 596 0H422.5V170H596Z" fill="#F4B91A"/>
<path d="M34 0C15.2223 0 0 15.2223 0 34V136C0 154.778 15.2223 170 34 170H116H135H207.5V0H34Z" fill="#F4B91A"/>
<path d="M207.5 0V170H422.5V0H207.5Z" fill="#231B22"/>
<path d="M298.308 11H332.689L387 92.722L371.554 117.637H371.055H357.958C358.382 119.833 358.599 122.013 358.599 124.115C358.599 143.549 348.633 158 329.201 158H302.792V117.637H261.436H260.938L243 92.722L298.308 11Z" fill="#F5C87D"/>
<path d="M298.308 11H332.689L387 92.722L371.554 117.637H371.055M298.308 11L243 92.722L260.938 117.637H261.436M298.308 11L325.575 49.3695M371.055 117.637V90.2305H354.612M371.055 117.637H329.201V158M261.436 117.637V90.2305H302.792V49.3695M261.436 117.637H302.792M302.792 49.3695C286.349 49.3695 274.889 66.3119 274.889 81.261C274.889 97.7051 287.346 117.637 302.792 117.637M302.792 49.3695H325.575M329.201 90.2305C347.637 90.2305 358.599 109.166 358.599 124.115C358.599 143.549 348.633 158 329.201 158M329.201 90.2305H354.612M329.201 90.2305V54.4716M302.792 117.637V158H329.201M354.612 90.2305L329.201 54.4716M329.201 54.4716V49.3695H325.575" stroke="#BE8D4A" stroke-width="5"/>
</svg>
