<svg width="630" height="170" viewBox="0 0 630 170" fill="none" xmlns="http://www.w3.org/2000/svg">
<path d="M596 170C614.778 170 630 154.778 630 136V34C630 15.2223 614.778 0 596 0H521V170H596Z" fill="#1E5E9B"/>
<path d="M521 170V0H483V170H521Z" fill="#F4B91A"/>
<path d="M483 170V0H447V170H483Z" fill="#231B22"/>
<path d="M447 170V0H344V170H447Z" fill="#E5383C"/>
<path d="M344 170V0H277V170H344Z" fill="#F0F0EF"/>
<path d="M277 170V0H174.5V170H277Z" fill="#E5383C"/>
<path d="M174.5 170V0H140V170H174.5Z" fill="#231B22"/>
<path d="M140 170V0H102V170H140Z" fill="#F4B91A"/>
<path d="M34 0C15.2223 0 0 15.2223 0 34V136C0 154.778 15.2223 170 34 170H102V0H34Z" fill="#1E5E9B"/>
</svg>
