<svg width="630" height="170" viewBox="0 0 630 170" fill="none" xmlns="http://www.w3.org/2000/svg">
<path d="M207.5 0V170H422.5V0H207.5Z" fill="#231B22"/>
<path fill-rule="evenodd" clip-rule="evenodd" d="M34 170C15.2223 170 0 154.778 0 136V34C0 15.2223 15.2223 0 34 0H103.75V170H34Z" fill="#E5383C"/>
<path d="M207.5 170V0H103.75V170H207.5Z" fill="#1E5E9B"/>
<path fill-rule="evenodd" clip-rule="evenodd" d="M596 0C614.778 0 630 15.2223 630 34V136C630 154.778 614.778 170 596 170H526.25V0H596Z" fill="#E5383C"/>
<path d="M422.5 0V170H526.25V0H422.5Z" fill="#1E5E9B"/>
<path d="M225 79.5051V15H344.071C369.551 15 384.767 25.9898 389.522 48.9249L405.213 117.73C409.968 138.276 392.375 155 373.706 155H306.317C283.486 155 261.138 135.887 256.385 119.492L247.824 93.8618C244.495 83.8055 243.544 79.5051 225 79.5051Z" fill="#F5C87D"/>
<path d="M239.74 40.3719V28.8567H344.071C356.958 28.8567 364.996 32.7385 370.182 40.3719M239.74 40.3719H370.182M239.74 40.3719V62.6593M370.182 40.3719C372.347 43.5593 374.014 47.4009 375.33 51.8871L377.852 62.6593M377.852 62.6593L391.162 119.492C394.004 132.865 388.726 140.666 373.706 140.666H306.317C286.425 140.666 273.435 125.064 268.969 110.577L256.385 73.8031C253.665 67.4371 249.889 65.2595 239.74 65.2595V62.6593M377.852 62.6593H339.606M239.74 62.6593H314.03M339.606 62.6593C345.289 72.3172 348.537 82.3466 348.537 93.8618C348.537 116.521 339.808 124.767 313.218 127.293M339.606 62.6593H314.03M339.606 62.6593C362.339 62.6593 375.33 81.2322 375.33 95.3476C375.33 115.406 361.121 128.036 339.606 128.036L313.218 127.293M313.218 127.293C293.733 127.293 278.306 112.063 278.306 95.3476C278.306 78.632 288.861 62.6593 314.03 62.6593M225 15V79.5051C243.544 79.5051 244.495 83.8055 247.824 93.8618L256.385 119.492C261.138 135.887 283.486 155 306.317 155H373.706C392.375 155 409.968 138.276 405.213 117.73L389.522 48.9249C384.767 25.9898 369.551 15 344.071 15H225Z" stroke="#BE8D4A" stroke-width="5"/>
</svg>
