<svg width="630" height="170" viewBox="0 0 630 170" fill="none" xmlns="http://www.w3.org/2000/svg">
<path d="M596 170C614.778 170 630 154.778 630 136V34C630 15.2223 614.778 0 596 0H422.5V170H596Z" fill="#1E5E9B"/>
<path d="M34 0C15.2223 0 0 15.2223 0 34V136C0 154.778 15.2223 170 34 170H116H135H207.5V0H34Z" fill="#1E5E9B"/>
<path d="M207.5 0V170H422.5V0H207.5Z" fill="#231B22"/>
<path d="M246.252 70.6811C243.106 62.653 238.739 59.907 227 59.907V56.6279V28.5216V14H347.678C362.584 14 371.882 18.8953 377.879 28.5216C380.384 32.5412 382.313 37.3857 383.834 43.0432L386.752 56.6279L402.147 128.299C405.434 145.163 399.33 155 381.956 155H304.008C281 155 265.974 135.326 260.809 117.056L246.252 70.6811Z" fill="#F5C87D"/>
<path d="M227 28.5216V14H347.678C362.584 14 371.882 18.8953 377.879 28.5216M227 28.5216H377.879M227 28.5216V56.6279M377.879 28.5216C380.384 32.5412 382.313 37.3857 383.834 43.0432L386.752 56.6279M386.752 56.6279L402.147 128.299C405.434 145.163 399.33 155 381.956 155H304.008C281 155 265.974 135.326 260.809 117.056L246.252 70.6811C243.106 62.653 238.739 59.907 227 59.907V56.6279M386.752 56.6279H342.512M227 56.6279H312.93M342.512 56.6279C349.086 68.8073 352.843 81.4551 352.843 95.9767C352.843 124.551 342.747 134.95 311.991 138.136M342.512 56.6279H312.93M342.512 56.6279C368.808 56.6279 383.834 80.0498 383.834 97.8505C383.834 123.146 367.399 139.073 342.512 139.073L311.991 138.136M311.991 138.136C289.452 138.136 271.608 118.93 271.608 97.8505C271.608 76.7708 283.817 56.6279 312.93 56.6279" stroke="#BE8D4A" stroke-width="5"/>
</svg>
