<svg width="630" height="170" viewBox="0 0 630 170" fill="none" xmlns="http://www.w3.org/2000/svg">
<path d="M596 170C614.778 170 630 154.778 630 136V34C630 15.2223 614.778 0 596 0H422.5V170H596Z" fill="#F4B91A"/>
<path d="M34 0C15.2223 0 0 15.2223 0 34V136C0 154.778 15.2223 170 34 170H116H135H207.5V0H34Z" fill="#F4B91A"/>
<path d="M207.5 0V170H422.5V0H207.5Z" fill="#231B22"/>
<path d="M388 84.5C388 114.743 369.735 140.719 343.633 152C338.832 154.075 333.766 155.653 328.5 156.668C323.968 157.542 319.287 158 314.5 158C309.713 158 305.032 157.542 300.5 156.668C295.234 155.653 290.168 154.075 285.367 152C259.265 140.719 241 114.743 241 84.5C241 54.2572 259.265 28.2806 285.367 17C290.168 14.9251 295.234 13.3473 300.5 12.3317C305.032 11.4577 309.713 11 314.5 11C319.287 11 323.968 11.4577 328.5 12.3317C333.766 13.3473 338.832 14.9251 343.633 17C369.735 28.2806 388 54.2572 388 84.5Z" fill="#F5C87D"/>
<path d="M388 84.5H241M388 84.5C388 54.2572 369.735 28.2806 343.633 17M388 84.5C388 114.743 369.735 140.719 343.633 152M314.5 158V11M314.5 158C319.287 158 323.968 157.542 328.5 156.668M314.5 158C309.713 158 305.032 157.542 300.5 156.668M241 84.5C241 54.2572 259.265 28.2806 285.367 17M241 84.5C241 114.743 259.265 140.719 285.367 152M314.5 11C319.287 11 323.968 11.4577 328.5 12.3317M314.5 11C309.713 11 305.032 11.4577 300.5 12.3317M328.5 156.668V12.3317M328.5 156.668C333.766 155.653 338.832 154.075 343.633 152M328.5 12.3317C333.766 13.3473 338.832 14.9251 343.633 17M343.633 17V152M300.5 156.668V12.3317M300.5 156.668C295.234 155.653 290.168 154.075 285.367 152M300.5 12.3317C295.234 13.3473 290.168 14.9251 285.367 17M285.367 17V152" stroke="#BE8D4A" stroke-width="5"/>
</svg>
