<svg width="630" height="170" viewBox="0 0 630 170" fill="none" xmlns="http://www.w3.org/2000/svg">
<path fill-rule="evenodd" clip-rule="evenodd" d="M630 34C630 15.2223 614.778 0 596 0H315V170H596C614.778 170 630 154.778 630 136V34Z" fill="#F0F0EF"/>
<path d="M34 0C15.2223 0 0 15.2223 0 34V136C0 154.778 15.2223 170 34 170H315V0H34Z" fill="#E5383C"/>
<path d="M338.264 58.9199C338.264 51.2003 337.363 46.6593 332.855 42.5724L329.249 40.6047L322.036 36.6692L319.782 75.2674C319.696 76.484 319.379 77.5343 318.881 78.4374V90.2527C318.881 92.0691 319.332 94.7936 322.036 94.7936C324.741 94.7936 325.192 92.5232 325.642 86.1658C326.003 81.0799 329.699 81.9276 331.503 82.9871C330.451 81.9276 328.347 77.8104 328.347 69.8183C328.347 62.5527 332.855 60.7364 338.264 60.7364V58.9199Z" fill="#F5C87D"/>
<path d="M308.062 19.4135C307.559 20.1111 306.876 21.1328 306.305 22.1381C305.514 23.5322 304.938 24.8946 305.358 25.3168C306.259 26.225 307.611 28.0414 307.611 31.22C307.611 32.267 308.936 32.4775 310.767 32.2572C313.383 31.9425 317.033 30.7482 319.332 29.8577V20.7758C315.294 16.2763 312.679 16.0391 308.062 15.3266V19.4135Z" fill="#F5C87D"/>
<path d="M348.181 102.059C340.553 98.2649 337.711 96.5125 338.264 88.4363V60.7364C332.855 60.7364 328.347 62.5527 328.347 69.8183C328.347 77.8104 330.451 81.9276 331.503 82.9871V92.5231C331.503 97.9723 338.264 102.059 338.264 102.059H348.181Z" fill="#F5C87D"/>
<path fill-rule="evenodd" clip-rule="evenodd" d="M359 110.687L353.591 102.059H348.181H338.264H317.979L312.119 110.687C317.979 110.687 320.684 112.503 320.684 117.044C320.684 121.585 316.176 126.126 312.119 126.126C316.724 141.9 321.723 149.666 334.207 162C349.534 149.54 354.117 141.894 358.098 126.126C353.591 126.126 350.435 121.585 350.435 117.044C350.435 112.503 355.394 110.687 359 110.687ZM339.617 117.044H330.601V124.764H322.938V134.3H330.601V141.566H339.617V134.3H346.829V124.764H339.617V117.044Z" fill="#F5C87D"/>
<path d="M330.601 117.044H339.617V124.764H346.829V134.3H339.617V141.566H330.601V134.3H322.938V124.764H330.601V117.044Z" fill="#F5C87D"/>
<path d="M301.751 40.302C299.798 43.0266 295.531 49.2931 294.088 52.5626C292.285 56.6495 291.834 58.92 290.933 60.7364C290.211 62.1895 284.074 71.0292 281.095 75.2674C280.017 77.5379 278.04 83.3504 278.762 88.4363C279.483 93.5222 281.095 95.7018 283.519 95.7018C284.171 92.5231 286.154 87.8913 285.073 85.7117C283.72 82.9871 285.974 78.9002 290.933 73.9052C293.095 71.7271 294.914 69.7217 296.428 68.0019C298.386 65.7777 299.833 64.0312 300.85 63.0068C302.653 61.1904 304.456 58.4659 302.653 57.1036C300.85 55.7413 299.948 53.9249 301.751 51.2003C303.554 48.4757 305.358 43.9348 304.227 37.5774C303.321 38.3497 302.491 39.2699 301.751 40.302Z" fill="#F5C87D"/>
<path d="M319.782 75.2674L322.036 36.6692C320.984 39.3938 317.709 44.8429 313.021 44.8429C307.161 44.8429 308.964 39.3938 309.865 37.5774C310.316 36.6704 310.616 35.8517 310.767 35.0051C308.331 35.0051 306.113 35.9711 304.227 37.5774C305.358 43.9348 303.554 48.4757 301.751 51.2003C299.948 53.9249 300.85 55.7413 302.653 57.1036C304.456 58.4659 302.653 61.1904 300.85 63.0068C299.833 64.0312 298.386 65.7777 296.428 68.0019L294.844 76.6298C298.441 80.293 301.751 83.4412 306.71 83.4412C311.449 83.4412 316.777 82.2535 318.881 78.4374C319.379 77.5343 319.696 76.484 319.782 75.2674Z" fill="#F5C87D"/>
<path d="M334.207 162C321.723 149.666 316.724 141.9 312.119 126.126C316.176 126.126 320.684 121.585 320.684 117.044C320.684 112.503 317.979 110.687 312.119 110.687L317.979 102.059H338.264C338.264 102.059 331.503 97.9723 331.503 92.5231V82.9871C329.699 81.9276 326.003 81.0799 325.642 86.1658C325.192 92.5232 324.741 94.7936 322.036 94.7936C319.332 94.7936 318.881 92.0691 318.881 90.2527V78.4374C316.777 82.2535 311.449 83.4412 306.71 83.4412C301.751 83.4412 298.441 80.293 294.844 76.6298L306.71 132.938C308.062 137.479 308.242 139.295 310.767 142.928C312.976 146.107 313.472 146.561 316.176 148.831L334.207 162Z" fill="#F5C87D"/>
<path d="M286.589 121.585L291.383 162L301.301 156.551C299.676 154.886 296.771 150.829 298.145 147.923C299.519 145.017 307.132 156.097 310.767 162V152.464V142.928C308.242 139.295 308.062 137.479 306.71 132.938L294.844 76.6298L286.589 121.585Z" fill="#F5C87D"/>
<path d="M290.933 73.9052C285.974 78.9002 283.72 82.9871 285.073 85.7117C286.154 87.8913 284.171 92.5231 283.519 95.7018L286.589 121.585L294.844 76.6298L296.428 68.0019C294.914 69.7217 293.095 71.7271 290.933 73.9052Z" fill="#F5C87D"/>
<path d="M310.767 162C307.132 156.097 299.519 145.017 298.145 147.923C296.771 150.829 299.676 154.886 301.301 156.551L291.383 162H310.767Z" fill="#F5C87D"/>
<path d="M310.767 162H317.979C317.265 157.032 315.625 154.99 310.767 152.464V162Z" fill="#F5C87D"/>
<path d="M322.036 36.6692L329.249 40.6047L330.601 35.761L327.446 33.4905L328.798 29.4036C329.098 29.2523 329.88 28.5863 330.601 27.1331C331.322 25.68 330 23.1976 329.249 22.1381C329.419 15.0357 327.822 12.2854 322.036 9.42336L313.922 8.06107C312.141 7.80474 310.848 8.38769 309.865 9.20545C309.107 9.83632 308.533 10.6069 308.062 11.2397V15.3266C312.679 16.0391 315.294 16.2763 319.332 20.7758V29.8577C317.033 30.7482 313.383 31.9425 310.767 32.2572C310.918 33.2792 310.918 34.1561 310.767 35.0051C310.616 35.8517 310.316 36.6704 309.865 37.5774C308.964 39.3938 307.161 44.8429 313.021 44.8429C317.709 44.8429 320.984 39.3938 322.036 36.6692Z" fill="#F5C87D"/>
<path d="M353.591 102.059L359 110.687C355.394 110.687 350.435 112.503 350.435 117.044C350.435 121.585 353.591 126.126 358.098 126.126C354.117 141.894 349.534 149.54 334.207 162M353.591 102.059H338.264M353.591 102.059H348.181M334.207 162C321.723 149.666 316.724 141.9 312.119 126.126C316.176 126.126 320.684 121.585 320.684 117.044C320.684 112.503 317.979 110.687 312.119 110.687L317.979 102.059H338.264M334.207 162L316.176 148.831C313.472 146.561 312.976 146.107 310.767 142.928M334.207 162H324.29M334.207 162H345.026M348.181 102.059C340.553 98.2649 337.711 96.5125 338.264 88.4363V60.7364M348.181 102.059H338.264M322.036 36.6692L319.782 75.2674C319.696 76.484 319.379 77.5343 318.881 78.4374M322.036 36.6692L329.249 40.6047M322.036 36.6692C320.984 39.3938 317.709 44.8429 313.021 44.8429C307.161 44.8429 308.964 39.3938 309.865 37.5774C310.316 36.6704 310.616 35.8517 310.767 35.0051M294.844 76.6298C298.441 80.293 301.751 83.4412 306.71 83.4412C311.449 83.4412 316.777 82.2535 318.881 78.4374M294.844 76.6298L296.428 68.0019M294.844 76.6298L306.71 132.938C308.062 137.479 308.242 139.295 310.767 142.928M294.844 76.6298L286.589 121.585M291.383 162L286.589 121.585M291.383 162L301.301 156.551C299.676 154.886 296.771 150.829 298.145 147.923C299.519 145.017 307.132 156.097 310.767 162M291.383 162H310.767M274.254 17.5971L279.212 28.9496L275.682 29.6395M274.254 17.5971L272 29.8577L275.682 29.6395M274.254 17.5971L275.682 29.6395M329.249 40.6047L332.855 42.5724C337.363 46.6593 338.264 51.2003 338.264 58.9199V60.7364M329.249 40.6047L330.601 35.761L327.446 33.4905L328.798 29.4036C329.098 29.2523 329.88 28.5863 330.601 27.1331C331.322 25.68 330 23.1976 329.249 22.1381C329.419 15.0357 327.822 12.2854 322.036 9.42336L313.922 8.06107C312.141 7.80474 310.848 8.38769 309.865 9.20545C309.107 9.83632 308.533 10.6069 308.062 11.2397V15.3266M308.062 15.3266V19.4135C307.559 20.1111 306.876 21.1328 306.305 22.1381M308.062 15.3266C312.679 16.0391 315.294 16.2763 319.332 20.7758M319.332 20.7758H325.192M319.332 20.7758V29.8577C317.033 30.7482 313.383 31.9425 310.767 32.2572M310.767 32.2572C308.936 32.4775 307.611 32.267 307.611 31.22C307.611 28.0414 306.259 26.225 305.358 25.3168C304.938 24.8946 305.514 23.5322 306.305 22.1381M310.767 32.2572C310.918 33.2792 310.918 34.1561 310.767 35.0051M338.264 60.7364C332.855 60.7364 328.347 62.5527 328.347 69.8183C328.347 77.8104 330.451 81.9276 331.503 82.9871M331.503 82.9871V92.5231C331.503 97.9723 338.264 102.059 338.264 102.059M331.503 82.9871C329.699 81.9276 326.003 81.0799 325.642 86.1658C325.192 92.5232 324.741 94.7936 322.036 94.7936C319.332 94.7936 318.881 92.0691 318.881 90.2527M318.881 90.2527C318.881 88.7996 318.881 81.7703 318.881 78.4374M318.881 90.2527V78.4374M310.767 35.0051C308.331 35.0051 306.113 35.9711 304.227 37.5774M281.095 75.2674C284.074 71.0292 290.211 62.1895 290.933 60.7364C291.834 58.92 292.285 56.6495 294.088 52.5626C295.531 49.2931 299.798 43.0266 301.751 40.302C302.491 39.2699 303.321 38.3497 304.227 37.5774M281.095 75.2674C280.017 77.5379 278.04 83.3504 278.762 88.4363C279.483 93.5222 281.095 95.7018 283.519 95.7018M281.095 75.2674L275.682 29.6395M304.227 37.5774C305.358 43.9348 303.554 48.4757 301.751 51.2003C299.948 53.9249 300.85 55.7413 302.653 57.1036C304.456 58.4659 302.653 61.1904 300.85 63.0068C299.833 64.0312 298.386 65.7777 296.428 68.0019M283.519 95.7018C284.171 92.5231 286.154 87.8913 285.073 85.7117C283.72 82.9871 285.974 78.9002 290.933 73.9052C293.095 71.7271 294.914 69.7217 296.428 68.0019M283.519 95.7018L286.589 121.585M296.428 68.0019L286.589 121.585M310.767 142.928V152.464M310.767 162H317.979C317.265 157.032 315.625 154.99 310.767 152.464M310.767 162V152.464M306.305 22.1381H313.021M330.601 117.044H339.617V124.764H346.829V134.3H339.617V141.566H330.601V134.3H322.938V124.764H330.601V117.044Z" stroke="#A07D44" stroke-width="5"/>
</svg>
