<svg width="630" height="170" viewBox="0 0 630 170" fill="none" xmlns="http://www.w3.org/2000/svg">
<path d="M34 0C15.2223 0 0 15.2223 0 34V136C0 154.778 15.2223 170 34 170H87V0H34Z" fill="#1E5E9B"/>
<path d="M139.5 170V0H87V170H139.5Z" fill="#F4B91A"/>
<path d="M229 170V0H139.5V170H229Z" fill="#017941"/>
<path d="M297.5 170V0H229V170H297.5Z" fill="#E5383C"/>
<path d="M401 170V0H334V170H401Z" fill="#E5383C"/>
<path d="M334 170V0H297.5V170H334Z" fill="#F0F0EF"/>
<path d="M491.5 170V0H401V170H491.5Z" fill="#017941"/>
<path d="M543.5 170V0H491.5V170H543.5Z" fill="#F4B91A"/>
<path d="M596 170C614.778 170 630 154.778 630 136V34C630 15.2223 614.778 0 596 0H543.5V170H596Z" fill="#1E5E9B"/>
</svg>
