<svg width="630" height="170" viewBox="0 0 630 170" fill="none" xmlns="http://www.w3.org/2000/svg">
<path d="M596 170C614.778 170 630 154.778 630 136V34C630 15.2223 614.778 0 596 0H422.5V170H596Z" fill="#F4B91A"/>
<path d="M34 0C15.2223 0 0 15.2223 0 34V136C0 154.778 15.2223 170 34 170H116H135H207.5V0H34Z" fill="#F4B91A"/>
<path d="M207.5 0V170H422.5V0H207.5Z" fill="#231B22"/>
<path fill-rule="evenodd" clip-rule="evenodd" d="M358.21 11H337.333V34.2157H314.029V40.0196H248V159H281.986V111.118H297.522C303.348 111.118 306.746 113.536 307.717 119.824L312.087 159H351.413L344.13 112.569C343.159 107.248 340.732 104.346 337.333 101.444L331.022 97.0915L346.072 77.7451H358.21V55.4967H382V34.2157H358.21V11ZM281.986 63.2353V86.9346H303.348C310.145 86.9346 314.029 81.6144 314.029 75.085C314.029 69.5229 309.659 63.2353 303.348 63.2353H281.986Z" fill="#F5C87D"/>
<path d="M346.072 77.7451H358.21V55.4967H382V34.2157H358.21V11H337.333V34.2157H314.029V40.0196M346.072 77.7451H337.333V55.4967H314.029V40.0196M346.072 77.7451L331.022 97.0915L337.333 101.444C340.732 104.346 343.159 107.248 344.13 112.569L351.413 159H312.087L307.717 119.824C306.746 113.536 303.348 111.118 297.522 111.118H281.986V159H248V40.0196H314.029M281.986 86.9346V63.2353H303.348C309.659 63.2353 314.029 69.5229 314.029 75.085C314.029 81.6144 310.145 86.9346 303.348 86.9346H281.986Z" stroke="#BE8D4A" stroke-width="5"/>
</svg>
