<svg width="630" height="170" viewBox="0 0 630 170" fill="none" xmlns="http://www.w3.org/2000/svg">
<path d="M596 170C614.778 170 630 154.778 630 136V34C630 15.2223 614.778 0 596 0H422.5V170H596Z" fill="#017941"/>
<path d="M34 0C15.2223 0 0 15.2223 0 34V136C0 154.778 15.2223 170 34 170H116H135H207.5V0H34Z" fill="#017941"/>
<path d="M207.5 0V170H422.5V0H207.5Z" fill="#231B22"/>
<path d="M314.523 11C342.523 26.5957 398.523 67.24 398.523 105.052C398.523 152.316 332.182 159 314.523 159C296.864 159 231 152.316 231 105.052C231 67.24 286.523 26.5957 314.523 11Z" fill="#F5C87D"/>
<path d="M314.523 11C342.523 26.5957 398.523 67.24 398.523 105.052M314.523 11C286.523 26.5957 231 67.24 231 105.052M314.523 11V159M398.523 105.052C398.523 152.316 332.182 159 314.523 159M398.523 105.052H231M314.523 159C296.864 159 231 152.316 231 105.052" stroke="#BE8D4A" stroke-width="5"/>
</svg>
