<svg width="630" height="170" viewBox="0 0 630 170" fill="none" xmlns="http://www.w3.org/2000/svg">
<path d="M207.5 0V170H422.5V0H207.5Z" fill="#231B22"/>
<path fill-rule="evenodd" clip-rule="evenodd" d="M34 170C15.2223 170 0 154.778 0 136V34C0 15.2223 15.2223 0 34 0H103.75V170H34Z" fill="#E5383C"/>
<path d="M207.5 170V0H103.75V170H207.5Z" fill="#017941"/>
<path fill-rule="evenodd" clip-rule="evenodd" d="M596 0C614.778 0 630 15.2223 630 34V136C630 154.778 614.778 170 596 170H526.25V0H596Z" fill="#E5383C"/>
<path d="M422.5 0V170H526.25V0H422.5Z" fill="#017941"/>
<path d="M275.084 14C285.804 20.0101 300.83 29.8975 314.973 41.9286C329.029 29.8975 343.981 20.0102 354.701 14C366.544 20.6398 383.642 32.0117 399 45.7784V104.239V147.929C381.632 154.516 362.798 156 354.701 156C347.284 156 330.944 154.755 314.986 149.482C298.929 154.755 282.502 156 275.084 156C266.987 156 248.259 154.516 231 147.929V104.239V45.7555C246.252 31.9991 263.248 20.6361 275.084 14Z" fill="#F5C87D"/>
<path d="M275.084 14C301.774 28.9634 355.153 67.96 355.153 104.239C355.153 149.587 291.917 156 275.084 156M275.084 14V156M275.084 14C263.248 20.6361 246.252 31.9991 231 45.7555V104.239M275.084 156C266.987 156 248.259 154.516 231 147.929V104.239M354.701 14C328.011 28.9635 275.087 67.96 275.087 104.239C275.087 149.587 337.868 156 354.701 156M354.701 14V156M354.701 14C366.544 20.6398 383.642 32.0117 399 45.7784V147.929C381.632 154.516 362.798 156 354.701 156M231 104.239L399 104.239" stroke="#BE8D4A" stroke-width="5"/>
</svg>
