<svg width="64" height="38" viewBox="0 0 64 38" fill="none" xmlns="http://www.w3.org/2000/svg">
<path d="M32 16L60.5 37.5V29.5L32 8.00005L3 29.5V37.5L32 16Z" fill="white"/>
<path d="M57.1563 23.0713C57.3994 23.3049 58.4525 22.5827 59.7285 21.3082C61.0247 19.9912 61.0247 19.9699 59.6677 19.7363C59.2829 19.6513 57.9867 19.0353 56.812 18.3343C53.855 16.6137 52.9639 16.2738 50.4524 15.9764L48.2853 15.7215L49.6828 15.0842C50.979 14.4894 51.2018 14.447 53.3487 14.4894C55.5766 14.5319 57.0348 14.277 57.0348 13.8522C57.0348 13.7247 57.1361 13.7035 57.2373 13.7672C57.6424 14.0221 61.9361 9.07269 62.1387 8.13803C62.1792 7.9681 62.3007 7.73443 62.4222 7.60698C63.0298 7.0122 63.4146 5.2491 63.4146 2.93371C63.4146 -0.35883 63.3539 -0.422556 62.0374 0.851974C61.0855 1.74414 58.25 3.67718 57.8449 3.67718C57.7842 3.67718 57.0956 4.31445 56.3664 5.07916C54.5639 6.92723 51.3638 11.7917 51.3638 12.6626C51.3638 13.1512 50.9588 13.3848 48.8524 14.1921L46.8676 14.9355L47.3537 14.3195C48.2853 13.1087 49.4398 11.6642 49.8651 11.1757C50.655 10.2835 51.5866 8.13804 52.4778 5.2491C52.9841 3.67718 53.5715 2.10526 53.8145 1.74414C54.4221 0.851973 54.1386 0.63955 52.4373 0.745761C49.8651 0.894456 47.8195 2.31768 45.4701 5.63146C43.4767 8.45303 42.819 10.1049 43.0508 12.5787L57.0358 23.1288C57.044 23.0231 57.1002 22.9927 57.1563 23.0713Z" fill="white"/>
<path d="M33.7434 23.4324C34.594 25.1955 37.1257 26.9586 40.427 28.1057C41.4617 28.4637 42.547 28.5978 43.603 28.5111L32.7242 20.3043C32.9408 21.2854 33.3819 22.7023 33.7434 23.4324Z" fill="white"/>
<path d="M0.365705 0.214707C0.264438 0.427129 0.10241 1.21309 0.0416501 1.97781C-0.140631 3.76215 0.284691 6.01382 1.13534 7.67071C2.39105 10.1348 5.02399 13.1299 6.76579 14.0858C7.53542 14.5107 7.85947 14.5532 10.1481 14.4682C11.5456 14.4257 12.6798 14.447 12.6798 14.5107C12.6798 14.5744 13.2469 14.8506 13.9355 15.1479L15.2115 15.679L14.0975 15.8277C10.1076 16.4012 9.47975 16.6137 7.04934 18.1643C5.6316 19.0778 3.97082 19.8212 3.36321 19.8212C3.16068 19.8212 2.93789 19.9062 2.87713 20.0124C2.73536 20.2461 3.70752 21.5206 4.01132 21.5206C4.13284 21.5206 4.39614 21.7543 4.59867 22.0304C4.82146 22.3278 5.51008 22.8164 6.15819 23.1562C6.23345 23.195 6.30463 23.2312 6.37271 23.2651L20.406 12.8611C20.4256 12.5506 20.4369 12.2374 20.4369 11.9404C20.4774 9.96486 20.4571 9.85865 19.7077 8.35046C18.9381 6.79978 17.6014 4.80302 16.4469 3.50724C14.9684 1.82911 12.6595 0.703279 10.6544 0.703279C10.0063 0.703279 9.41899 0.788247 9.35823 0.894458C9.29747 0.979427 9.4595 1.36178 9.72279 1.74414C9.98608 2.1265 10.4924 3.40103 10.857 4.59059C12.1329 8.94524 12.7608 10.1348 15.3127 13.2149C16.1229 14.1921 16.69 14.9568 16.5887 14.9143C16.4874 14.8718 15.5153 14.4894 14.4216 14.0858C12.9633 13.5548 12.3962 13.2362 12.3152 12.9388C12.1329 12.259 11.1608 10.4534 9.92532 8.56288C8.30505 6.0563 6.46199 4.22948 4.17335 2.82749C3.12017 2.19023 1.88471 1.23433 1.41888 0.745761C0.649253 -0.103926 0.547986 -0.146409 0.365705 0.214707Z" fill="white"/>
<path d="M22.5027 28.2969C25.0951 27.5959 28.3154 25.6628 29.2876 24.2396C29.6981 23.66 30.3055 22.1123 30.7069 20.6933L20.1564 28.5152C21.0072 28.54 21.9111 28.4672 22.5027 28.2969Z" fill="white"/>
<path d="M24.4875 3.12488C23.0901 2.46638 20.7609 2.23271 20.3963 2.70004C20.2141 2.91246 20.2343 3.03992 20.4774 3.25234C20.9027 3.6347 21.4495 4.99419 22.0976 7.30959C22.4562 8.59465 22.8369 9.66871 23.3321 10.6917L28.5714 6.80738C27.2958 5.15501 25.7935 3.73258 24.4875 3.12488Z" fill="white"/>
<path d="M41.4194 7.28835C42.1283 4.8455 42.3511 4.25072 42.9182 3.486C43.222 3.01867 43.2422 2.93371 42.9789 2.65756C42.7359 2.40265 42.4523 2.38141 41.1561 2.59383C38.6866 2.97531 37.0676 4.03997 35.1189 6.59497L40.3111 10.5119C40.6591 9.69367 41.0497 8.57022 41.4194 7.28835Z" fill="white"/>
</svg>
