<svg width="189" height="197" viewBox="0 0 189 197" fill="none" xmlns="http://www.w3.org/2000/svg">
<path d="M158.091 0H29.5689C17.7884 0 8.09859 9.27977 7.58947 21.0493L0.992781 173.549C0.451564 186.061 10.4489 196.5 22.9722 196.5H165.852C178.441 196.5 188.463 185.955 187.824 173.382L180.063 20.8819C179.467 9.18132 169.807 0 158.091 0Z" fill="#4684BA"/>
<path d="M43.421 26.8076V70.9837C43.421 80.0455 56.2585 85.3315 64.9427 85.3315C73.6269 85.3315 86.4644 80.0455 86.4644 70.9837V26.8076H75.1372V67.9631C75.1372 71.7389 70.2288 74.7594 64.9427 74.7594C59.6567 74.7594 54.7482 71.7389 54.7482 67.9631V26.8076H43.421Z" fill="#F6C808"/>
<path d="M93.6383 83.8212V26.8076H105.721L126.865 63.0547V26.8076H138.57V83.8212H126.865L105.721 46.4414V83.8212H93.6383Z" fill="#F6C808"/>
<path d="M187.654 172.929L186.144 142.723H2.26553L1.13281 172.929H187.654Z" fill="#F6C808"/>
</svg>
