<svg width="163" height="124" viewBox="0 0 163 124" fill="none" xmlns="http://www.w3.org/2000/svg">
<path d="M0 22C0 9.84974 9.84294 0 21.9848 0H140.903C153.045 0 162.888 9.84974 162.888 22V102C162.888 114.15 153.045 124 140.903 124H21.9848C9.84295 124 0 114.15 0 102V22Z" fill="#C5A869"/>
<path fill-rule="evenodd" clip-rule="evenodd" d="M140.903 11H21.9848C15.9139 11 10.9924 15.9249 10.9924 22V102C10.9924 108.075 15.9139 113 21.9848 113H140.903C146.974 113 151.895 108.075 151.895 102V22C151.895 15.9249 146.974 11 140.903 11ZM21.9848 0C9.84294 0 0 9.84974 0 22V102C0 114.15 9.84295 124 21.9848 124H140.903C153.045 124 162.888 114.15 162.888 102V22C162.888 9.84974 153.045 0 140.903 0H21.9848Z" fill="#A68C55"/>
<path fill-rule="evenodd" clip-rule="evenodd" d="M113.512 27.724L115.177 29.5763L70.6867 70.9995C70.6867 70.9995 72.633 72.2332 70.731 74.2021C68.829 76.171 67.235 74.2132 67.235 74.2132L65.43 75.8938L66.3085 81.4836L62.5078 83.465L60.7187 82.362L52.6344 98.5611L44.5303 86.7081L59.2111 74.3872L62.226 74.5476L64.6939 67.6241L66.2668 66.3385L65.1256 64.9007L68.5086 62.4431L69.5777 63.6325L113.512 27.724ZM69.9406 73.3738C70.8144 72.6336 70.2982 71.9516 69.9309 71.7032L68.1809 73.3326C68.4034 73.6547 69.0668 74.114 69.9406 73.3738Z" fill="black"/>
<path d="M110.477 87.0611C111.847 85.5605 114.704 82.301 115.172 81.2674C115.639 80.2339 114.206 79.6134 113.431 79.4324L102.704 89.6085C102.843 90.392 103.387 91.8559 104.444 91.4435C105.501 91.031 108.907 88.35 110.477 87.0611Z" fill="black"/>
<path d="M114.932 86.4562C115.849 85.5859 114.713 84.3173 113.76 85.2211L108.467 90.2423C107.514 91.146 108.721 92.3477 109.638 91.4774L114.932 86.4562Z" fill="black"/>
<path d="M111.092 80.7125C111.763 80.0765 112.132 79.1229 111.663 78.6289C111.094 78.0289 110.232 78.1094 109.385 78.9128L102.398 85.5406C101.551 86.344 101.425 87.2008 101.994 87.8007C102.463 88.2947 103.435 87.9763 104.105 87.3403L111.092 80.7125Z" fill="black"/>
<path d="M67.0411 36.8876C67.4999 36.4525 67.5813 35.9729 67.3135 35.6906C67.0457 35.4083 66.5255 35.5666 66.1373 35.9348L61.7617 40.0857C61.3735 40.4539 61.188 40.9651 61.4558 41.2474C61.7236 41.5297 62.2068 41.4737 62.6655 41.0385L67.0411 36.8876Z" fill="black"/>
<path d="M65.6423 35.1302C66.101 34.6951 66.1193 34.0076 65.8515 33.7253C65.5837 33.443 64.859 33.527 64.4708 33.8952L59.8129 38.3139C59.4247 38.6821 59.3025 39.4014 59.5703 39.6837C59.8381 39.966 60.5256 39.984 60.9844 39.5489L65.6423 35.1302Z" fill="black"/>
<path d="M61.3218 31.989C61.0174 30.4901 60.2348 27.5496 59.5407 27.779C58.8465 28.0084 57.2814 29.5199 56.5855 30.247C55.8228 30.9035 54.231 32.3869 53.9653 33.068C53.6996 33.749 56.5947 34.6856 58.0755 35.0687L61.3218 31.989Z" fill="black"/>
<path d="M57.599 28.347C58.1283 27.8449 58.0035 27.36 57.8027 27.1482C57.6019 26.9365 56.8808 26.8831 56.5279 27.2178L53.5638 30.0297C53.2109 30.3645 53.2263 31.0874 53.4271 31.2991C53.6279 31.5108 54.1056 31.6611 54.635 31.159L57.599 28.347Z" fill="black"/>
<path d="M63.5601 33.2178C64.0188 32.7827 64.1003 32.3031 63.8325 32.0208C63.5647 31.7385 63.0444 31.8968 62.6563 32.265L58.2807 36.4159C57.8925 36.7841 57.707 37.2952 57.9748 37.5775C58.2425 37.8598 58.7257 37.8038 59.1845 37.3687L63.5601 33.2178Z" fill="black"/>
<path d="M96.837 69.43C97.7059 70.346 97.6677 71.7929 96.7517 72.6618C95.8357 73.5307 94.4595 73.4257 93.5906 72.5097C92.7217 71.5937 92.6892 70.2136 93.6052 69.3447C94.5212 68.4758 95.9681 68.514 96.837 69.43Z" fill="black"/>
<path d="M116.871 93.8011C119.2 91.5918 118.83 88.6577 115.486 87.6061L110.757 92.0916C111.631 95.4864 114.542 96.0103 116.871 93.8011Z" fill="black"/>
<path d="M55.3342 26.8075C55.8635 26.3054 55.7387 25.8204 55.5378 25.6087C55.337 25.3969 54.6159 25.3435 54.263 25.6782L52.1106 27.7203C51.7577 28.055 51.773 28.7779 51.9739 28.9896C52.1747 29.2014 52.6524 29.3516 53.1817 28.8495L55.3342 26.8075Z" fill="black"/>
<path fill-rule="evenodd" clip-rule="evenodd" d="M100.828 35.3754C101.008 35.5285 101.185 35.6842 101.361 35.8423L90.2211 44.9472C86.2926 42.4108 81.2024 41.9299 76.732 44.0269L70.5644 38.0011C71.0236 37.7045 71.497 37.4225 71.9844 37.1562L71.1812 31.1291C72.6879 30.4507 74.2279 29.9167 75.7846 29.5221L79.0148 34.736C80.8543 34.4315 82.7083 34.3642 84.5341 34.5216L88.0733 29.2059C89.6595 29.5203 91.2163 29.971 92.725 30.5525L92.8593 36.9276C93.8019 37.4142 94.7123 37.9696 95.582 38.5911L100.828 35.3754ZM75.3647 68.5616C78.525 70.4906 82.3874 71.119 86.064 70.1865L93.6561 78.8256L94.106 82.1927C92.5993 82.8711 91.0592 83.4051 89.5026 83.7997L86.2724 78.5857C84.4329 78.8903 82.5789 78.9576 80.7531 78.8002L77.2139 84.1159C75.6277 83.8015 74.0709 83.3508 72.5622 82.7693L72.4278 76.3942C72.001 76.1738 71.5808 75.9394 71.1679 75.691C71.364 75.5406 71.555 75.3692 71.7405 75.1772C72.3477 74.5486 72.7446 73.8779 72.8983 73.168C73.0551 72.4439 72.9325 71.7998 72.7027 71.2877C72.6763 71.229 72.6487 71.1721 72.62 71.1171L75.3647 68.5616ZM63.2469 67.5031L63.503 66.7845L64.3073 66.1272L63.1156 64.6259L68.707 60.564L69.5684 61.5223C68.3357 58.2197 68.4365 54.664 69.6717 51.5338L63.8053 44.8584C63.2186 45.797 62.7046 46.7756 62.2661 47.7849L56.1317 47.6732C55.5923 49.2664 55.196 50.9068 54.949 52.5734L60.4633 55.2199C60.3909 56.3228 60.4004 57.4347 60.4947 58.5462L55.068 61.5121C55.3506 63.1153 55.7767 64.7087 56.3517 66.2744L62.5067 66.0598C62.704 66.4813 62.9158 66.8994 63.1421 67.3135C63.1767 67.3769 63.2117 67.4401 63.2469 67.5031ZM75.9805 56.5865L62.9894 41.804L67.7884 37.2514L82.2956 51.425L75.9805 56.5865ZM81.4914 62.8573L101 85.0565L108.975 77.4913L87.8947 56.8954L81.4914 62.8573ZM101.23 44.4799L95.0317 50.2505C97.0424 54.1322 97.0513 58.5429 95.4118 62.2773L101.581 68.3041C102.126 67.4143 102.607 66.4893 103.021 65.5369L109.155 65.6486C109.695 64.0554 110.091 62.415 110.338 60.7484L104.824 58.1019C104.896 56.999 104.887 55.8871 104.793 54.7756L110.219 51.8097C109.937 50.2065 109.51 48.6131 108.935 47.0474L102.781 47.262C102.583 46.8405 102.371 46.4224 102.145 46.0083C101.858 45.4825 101.552 44.9729 101.23 44.4799ZM97.4881 73.4382C98.8328 72.1626 98.8889 70.0384 97.6133 68.6936C96.3377 67.3489 94.2135 67.2928 92.8688 68.5684C91.524 69.844 91.5387 71.9014 92.8143 73.2462C94.0899 74.5909 96.1433 74.7138 97.4881 73.4382Z" fill="black"/>
</svg>
