<svg width="164" height="168" viewBox="0 0 164 168" fill="none" xmlns="http://www.w3.org/2000/svg">
<path d="M78.7479 162.871C74.3247 162.674 70.7854 163.858 68.819 165.238C66.8527 166.619 66.0662 168 64.8864 168C63.7066 168 60.9537 166.619 60.9537 165.436C61.5585 164.861 62.4337 164.338 63.4782 163.858C68.8867 161.374 78.8354 160.051 79.2883 158.729C79.1703 160.007 78.9915 161.36 78.7479 162.871Z" fill="#CBC5C5"/>
<path d="M79.2883 151.228C79.2894 151.242 79.2906 151.255 79.2918 151.269C79.4094 152.937 75.8839 149.038 74.1281 145.907C72.3584 142.751 71.3753 144.724 69.2123 145.907C67.0493 147.091 64.4931 146.696 64.8864 148.077C65.2796 149.458 70.3921 149.852 71.3753 149.852C72.3584 149.852 76.0944 149.852 76.2911 151.036C76.4877 152.219 70.982 153.206 69.9988 153.206C69.0157 153.206 66.0662 151.825 64.0998 150.247C62.1335 148.669 61.7402 145.513 61.7402 143.343C61.7402 141.173 61.7402 141.173 64.4931 141.173C67.0493 141.173 69.4089 138.411 72.555 138.411C74.3247 140.581 77.8641 143.935 79.2883 151.228Z" fill="#CBC5C5"/>
<path d="M59.9706 143.343C59.9706 140.778 61.1503 141.962 61.1503 140.778C61.0193 140.252 60.3638 139.003 58.7908 138.214C56.8244 137.228 53.6783 135.847 54.4648 139.792C55.0941 142.948 55.6446 144.395 55.8413 144.724C57.8884 145.773 59.0468 146.515 61.1503 148.274C61.347 145.907 59.9706 144.447 59.9706 143.343Z" fill="#CBC5C5"/>
<path d="M59.9706 148.471C57.2177 145.907 50.9254 143.343 45.813 143.343C45.813 144.329 45.4197 145.513 46.7962 146.499C48.1726 147.485 49.9423 146.302 52.1052 147.288C53.8356 148.077 55.3169 150.115 55.8413 151.036C56.7182 149.599 57.6503 149.046 59.9706 148.471Z" fill="#CBC5C5"/>
<path d="M49.9423 153.206C51.358 152.732 51.712 149.852 51.712 148.471C48.9591 146.499 47.976 150.247 40.1106 145.513C39.4175 146.941 39.4495 147.809 39.7174 151.228C40.9761 152.43 41.7946 153.014 43.65 153.797C44.396 149.23 45.5959 147.912 49.9423 149.063C48.7233 150.705 48.6895 151.564 49.9423 153.206Z" fill="#CBC5C5"/>
<path d="M62.5268 162.082C62.5268 161.096 60.3638 158.729 59.5773 158.729C58.7908 158.729 56.6278 162.871 53.285 162.871C50.9214 162.871 47.1812 161.885 45.1931 159.912C44.7382 157.465 44.713 155.77 44.9529 154.587C45.3509 152.624 46.4785 152.071 47.5827 151.825C47.5827 153.403 50.3355 155.178 52.1052 155.178C54.6615 155.178 58.2009 149.852 59.184 149.852C60.1672 149.852 63.1167 152.022 63.7066 155.178C68.4258 155.376 74.9146 153.206 79.4287 153.403C79.4615 154.203 79.471 154.985 79.4561 155.77C74.5214 156.165 65.4763 162.674 62.5268 162.082Z" fill="#CBC5C5"/>
<path d="M51.3187 142.751C51.0041 141.489 51.3843 140.515 51.712 140.187C48.3713 132.94 45.3458 130.03 39.5207 125.392C38.6868 132.222 39.8682 135.552 47.1894 142.554L51.3187 142.751Z" fill="#CBC5C5"/>
<path d="M33.0319 143.343C33.0319 143.996 33.5601 144.526 34.2117 144.526C34.8632 144.526 35.3915 143.996 35.3915 143.343C35.3915 142.689 34.8632 142.159 34.2117 142.159C33.5601 142.159 33.0319 142.689 33.0319 143.343Z" fill="#CBC5C5"/>
<path d="M35.7847 129.337C35.7847 129.991 36.3129 130.521 36.9645 130.521C37.6161 130.521 38.1443 129.991 38.1443 129.337C38.1443 128.684 37.6161 128.154 36.9645 128.154C36.3129 128.154 35.7847 128.684 35.7847 129.337Z" fill="#CBC5C5"/>
<path d="M22.2171 112.965C22.2171 113.619 22.7453 114.149 23.3969 114.149C24.0484 114.149 24.5767 113.619 24.5767 112.965C24.5767 112.311 24.0484 111.782 23.3969 111.782C22.7453 111.782 22.2171 112.311 22.2171 112.965Z" fill="#CBC5C5"/>
<path d="M5.89654 102.905C5.89654 103.559 6.42475 104.088 7.07634 104.088C7.72792 104.088 8.25613 103.559 8.25613 102.905C8.25613 102.251 7.72792 101.721 7.07634 101.721C6.42475 101.721 5.89654 102.251 5.89654 102.905Z" fill="#CBC5C5"/>
<path d="M15.5315 97.7762C15.5315 98.4299 16.0598 98.9598 16.7113 98.9598C17.3629 98.9598 17.8911 98.4299 17.8911 97.7762C17.8911 97.1225 17.3629 96.5927 16.7113 96.5927C16.0598 96.5927 15.5315 97.1225 15.5315 97.7762Z" fill="#CBC5C5"/>
<path d="M13.9585 82.9819C13.9585 83.6355 14.4867 84.1654 15.1383 84.1654C15.7899 84.1654 16.3181 83.6355 16.3181 82.9819C16.3181 82.3282 15.7899 81.7983 15.1383 81.7983C14.4867 81.7983 13.9585 82.3282 13.9585 82.9819Z" fill="#CBC5C5"/>
<path d="M9.82919 60.0999C9.82919 60.7536 10.3574 61.2835 11.009 61.2835C11.6606 61.2835 12.1888 60.7536 12.1888 60.0999C12.1888 59.4463 11.6606 58.9164 11.009 58.9164C10.3574 58.9164 9.82919 59.4463 9.82919 60.0999Z" fill="#CBC5C5"/>
<path d="M18.8743 64.0451C18.8743 64.6988 19.4025 65.2287 20.0541 65.2287C20.7057 65.2287 21.2339 64.6988 21.2339 64.0451C21.2339 63.3914 20.7057 62.8616 20.0541 62.8616C19.4025 62.8616 18.8743 63.3914 18.8743 64.0451Z" fill="#CBC5C5"/>
<path d="M13.7618 46.4892C13.7618 47.1428 14.2901 47.6727 14.9416 47.6727C15.5932 47.6727 16.1214 47.1428 16.1214 46.4892C16.1214 45.8355 15.5932 45.3056 14.9416 45.3056C14.2901 45.3056 13.7618 45.8355 13.7618 46.4892Z" fill="#CBC5C5"/>
<path d="M21.8238 40.9659C21.8238 41.6196 22.352 42.1495 23.0036 42.1495C23.6552 42.1495 24.1834 41.6196 24.1834 40.9659C24.1834 40.3123 23.6552 39.7824 23.0036 39.7824C22.352 39.7824 21.8238 40.3123 21.8238 40.9659Z" fill="#CBC5C5"/>
<path d="M35.3915 36.8235C35.3915 37.4772 35.9197 38.0071 36.5713 38.0071C37.2228 38.0071 37.751 37.4772 37.751 36.8235C37.751 36.1699 37.2228 35.64 36.5713 35.64C35.9197 35.64 35.3915 36.1699 35.3915 36.8235Z" fill="#CBC5C5"/>
<path d="M49.3524 21.2401C49.3524 21.8938 49.8806 22.4237 50.5322 22.4237C51.1838 22.4237 51.712 21.8938 51.712 21.2401C51.712 20.5865 51.1838 20.0566 50.5322 20.0566C49.8806 20.0566 49.3524 20.5865 49.3524 21.2401Z" fill="#CBC5C5"/>
<path d="M40.1106 14.3361C40.1106 14.9898 40.6389 15.5197 41.2904 15.5197C41.942 15.5197 42.4702 14.9898 42.4702 14.3361C42.4702 13.6825 41.942 13.1526 41.2904 13.1526C40.6389 13.1526 40.1106 13.6825 40.1106 14.3361Z" fill="#CBC5C5"/>
<path d="M65.083 13.1526C65.083 13.8062 65.6112 14.3361 66.2628 14.3361C66.9144 14.3361 67.4426 13.8062 67.4426 13.1526C67.4426 12.4989 66.9144 11.969 66.2628 11.969C65.6112 11.969 65.083 12.4989 65.083 13.1526Z" fill="#CBC5C5"/>
<path d="M64.2965 3.68419C64.2965 4.33785 64.8247 4.86774 65.4763 4.86774C66.1279 4.86774 66.6561 4.33785 66.6561 3.68419C66.6561 3.03054 66.1279 2.50065 65.4763 2.50065C64.8247 2.50065 64.2965 3.03054 64.2965 3.68419Z" fill="#CBC5C5"/>
<path d="M44.6332 142.159C44.371 142.883 44.004 144.566 44.6332 145.513C37.944 144.273 27.0073 134.609 27.7228 127.365C33.8272 129.111 37.4663 132.207 44.6332 142.159Z" fill="#CBC5C5"/>
<path d="M36.9645 125.984C36.5713 120.264 28.5093 109.809 26.9362 110.598C25.3632 111.387 26.1497 125.59 32.6386 128.351C33.1105 127.247 35.7192 126.313 36.9645 125.984Z" fill="#CBC5C5"/>
<path d="M32.442 140.384C29.2958 137.031 23.5935 133.677 18.2844 134.466C19.6608 139.792 27.9194 142.948 31.2622 144.526C30.8689 143.343 31.4588 140.976 32.442 140.384Z" fill="#CBC5C5"/>
<path d="M38.1443 149.852C37.5544 148.077 38.5376 146.302 37.9477 146.104C37.4758 145.947 34.6049 145.776 33.2285 145.71C34.566 147.434 35.6088 148.353 38.1443 149.852Z" fill="#CBC5C5"/>
<path d="M27.7228 125.984C26.9362 121.842 20.644 111.584 17.8911 112.571C15.1383 113.557 18.8743 128.746 26.543 132.494C24.5767 128.351 25.7071 125.984 27.7228 125.984Z" fill="#CBC5C5"/>
<path d="M25.5598 110.203C25.1665 104.483 26.1497 101.919 24.1834 97.7762C22.2171 93.6338 21.6272 94.0283 20.8406 94.2256C20.0541 94.4228 18.0878 100.341 18.8743 104.68C19.5035 108.152 20.4474 111.387 20.8406 112.571C21.1684 111.847 22.0598 110.282 23.0036 109.809C23.9474 109.336 25.101 109.875 25.5598 110.203Z" fill="#CBC5C5"/>
<path d="M18.8743 111.782C18.6979 102.905 12.7787 94.8371 11.009 95.0146C7.07633 95.4091 10.2225 113.754 15.5315 116.121C15.5315 111.782 16.7113 110.203 18.8743 111.782Z" fill="#CBC5C5"/>
<path d="M24.5767 133.085C18.6777 129.337 19.8575 126.576 16.3181 123.222C13.4866 120.54 9.76365 119.475 8.25613 119.277C11.2606 127.891 14.5505 131.19 24.5767 133.085Z" fill="#CBC5C5"/>
<path d="M14.745 119.869C13.5652 114.442 5.50327 102.905 3.14368 104.088C3.14368 106.653 7.36501 113.754 8.25613 117.699C11.245 118.015 13.8274 119.277 14.745 119.869Z" fill="#CBC5C5"/>
<path d="M22.6103 80.2203C18.8743 81.7983 13.9585 87.5188 15.1383 95.8036C16.3967 94.2256 17.76 94.6201 18.2844 95.0146C18.9269 93.2603 19.4423 92.6724 20.8406 92.8448C23.1044 87.8957 23.2374 85.1346 22.6103 80.2203Z" fill="#CBC5C5"/>
<path d="M10.2225 73.7107C7.66623 76.2751 5.13303 87.1285 8.25613 96.5927C10.4005 93.3904 11.4365 93.9851 13.3686 93.831C13.885 90.8812 14.0073 87.8919 13.8642 85.1517C13.5679 84.8229 12.936 83.9287 12.7787 82.9819C12.6214 82.035 13.1446 81.2723 13.4258 81.0093C12.7358 76.7859 11.4319 73.8226 10.2225 73.7107Z" fill="#CBC5C5"/>
<path d="M2.16052 87.1243C2.16052 92.8448 3.08218 95.8816 3.14368 102.313C3.73358 103.694 5.89654 103.497 5.50327 99.5515C5.78449 100.492 7.5882 101.396 7.27297 96.7899C6.95774 92.1842 2.16052 87.1243 2.16052 87.1243Z" fill="#CBC5C5"/>
<path d="M24.7733 65.8204C24.5991 73.0156 22.9323 75.8925 18.8743 80.2203C17.9191 78.3103 16.1214 81.0093 14.3517 79.234C18.2844 72.1327 16.7113 69.9628 20.0541 67.793C21.9265 66.3731 22.9502 66.1477 24.7733 65.8204Z" fill="#CBC5C5"/>
<path d="M16.1214 57.3383C10.2225 63.4533 6.84178 67.3427 8.25613 75.2888C10.2762 71.1041 11.5541 72.1341 13.9585 77.0641C17.5101 69.2726 18.3124 64.948 16.1214 57.3383Z" fill="#CBC5C5"/>
<path d="M5.50327 89.0969C6.18963 83.1491 6.48644 80.2203 5.89654 77.0641C4.98562 74.8731 4.06065 73.8268 1.57062 72.3299C0.621356 77.4953 0.699592 80.3813 1.57062 85.5462C3.79154 86.2633 4.44948 87.2364 5.50327 89.0969Z" fill="#CBC5C5"/>
<path d="M6.68307 75.2888C5.89654 68.7793 8.6494 65.2287 8.6494 61.2835C8.6494 57.3383 5.89654 54.9712 5.89654 54.9712C4.11898 62.0223 3.8671 65.7562 3.73358 72.3299C4.91301 72.774 5.56408 73.4615 6.68307 75.2888Z" fill="#CBC5C5"/>
<path d="M30.279 51.8151C28.5864 57.2269 27.1445 59.9237 23.0036 63.6506C22.4366 62.0294 22.0367 61.6046 21.2339 61.2835C22.5992 58.5754 22.8137 57.0644 23.0036 54.3795C27.1434 51.6044 28.2702 51.6782 30.279 51.8151Z" fill="#CBC5C5"/>
<path d="M19.4642 60.0999C16.9044 55.3277 15.7234 55.1625 13.8642 57.3383C13.9588 53.2658 14.6309 51.5823 16.1214 48.8563C17.507 48.6541 17.7572 47.8016 17.8911 46.4892C20.0183 44.2557 21.1127 43.7567 23.0036 43.333C22.8851 50.4158 22.3113 54.1738 19.4642 60.0999Z" fill="#CBC5C5"/>
<path d="M12.1888 44.1221C9.39961 46.5605 8.27101 48.6122 7.4696 54.1822C8.22589 54.8299 8.59988 55.7449 9.2393 57.7328C10.136 56.7355 10.6541 56.5943 11.5989 56.9438C13.516 52.038 13.5186 49.2322 12.1888 44.1221Z" fill="#CBC5C5"/>
<path d="M23.5935 52.4069C24.7433 44.756 30.279 38.9934 35.3915 38.9934C37.3578 38.9934 38.472 37.0208 39.1275 38.0071C39.479 38.536 36.8103 42.9503 33.0319 46.6864C29.7652 49.9165 25.5082 52.5898 23.5935 52.4069Z" fill="#CBC5C5"/>
<path d="M35.7847 26.5661C28.8287 28.2405 25.7939 30.3062 23.0036 37.4153C25.0403 39.2253 26.5708 39.9846 24.1834 44.7138C32.3915 38.2421 34.4699 34.1954 35.7847 26.5661Z" fill="#CBC5C5"/>
<path d="M21.8238 29.1305C17.0276 33.587 15.1373 36.5575 12.9753 42.544C12.9729 43.5088 13.0334 43.9981 13.5652 44.5166C14.4546 43.9986 15.1894 43.8603 17.3012 44.1221C21.3772 38.0764 22.1068 34.8154 21.8238 29.1305Z" fill="#CBC5C5"/>
<path d="M48.5659 17.295C39.6797 17.7883 35.7873 19.7904 30.8689 26.5661C36.5377 24.4314 37.8845 24.8229 36.9645 29.1305C43.5641 25.259 45.7183 22.5242 48.5659 17.295Z" fill="#CBC5C5"/>
<path d="M38.9308 14.1389C38.5376 17.6895 29.4925 24.5935 22.807 34.2592C25.1666 27.3551 25.9676 26.0202 23.0036 27.9469C28.4999 18.9581 32.0393 16.1937 38.9308 14.1389Z" fill="#CBC5C5"/>
<path d="M51.712 25.9743C50.3096 24.4224 49.3546 23.8281 46.4029 24.199C42.6381 27.5208 40.6022 28.6647 37.1283 30.6165L36.9645 30.7085C36.3476 31.5434 36.0663 32.3077 35.7847 33.6674C41.2626 33.6789 44.7764 31.9484 51.712 25.9743Z" fill="#CBC5C5"/>
<path d="M58.5941 17.295C54.8581 18.8731 49.9423 18.2813 49.9423 18.2813C49.8085 15.3616 48.2014 15.7372 46.0096 15.5197C53.2626 9.82028 57.5772 8.43689 65.8695 10.3707C61.9369 11.969 64.2965 14.8864 58.5941 17.295Z" fill="#CBC5C5"/>
<path d="M51.9086 23.2127C59.2429 23.14 62.4781 21.9805 67.4426 18.8731C66.5582 16.5173 65.6445 15.9991 62.92 15.7169C60.4276 19.0471 58.1672 20.0676 53.285 21.0429C53.0948 22.0914 52.828 22.6556 51.9086 23.2127Z" fill="#CBC5C5"/>
<path d="M62.92 2.89516C62.3191 5.76179 61.5885 7.22155 57.611 8.8129C54.1142 9.6234 53.0034 9.01722 45.4197 14.9279C44.7848 15.3274 44.4401 15.4586 43.8467 15.5197C43.9353 13.868 43.7834 13.0898 43.2568 11.969C49.9848 6.06275 54.4654 4.51149 62.92 2.89516Z" fill="#CBC5C5"/>
<path d="M81.4035 15.5197C80.8768 14.0209 80.2557 13.3457 78.6507 12.3635C76.7433 13.445 74.7725 13.6784 69.8022 13.5471C68.5396 14.2065 67.9939 14.6289 67.4426 15.5197C72.3369 17.598 75.416 17.591 81.4035 15.5197Z" fill="#CBC5C5"/>
<path d="M81.4035 0.133552C80.4706 1.60732 79.7862 2.43004 78.0608 3.88145C73.8279 3.61194 71.6165 3.90341 67.8359 4.86774C68.0401 3.94535 67.9884 3.42357 67.8359 2.50065C73.9297 0.082413 76.8058 -0.247386 81.4035 0.133552Z" fill="#CBC5C5"/>
<path d="M86.0275 162.871C90.4506 162.674 93.99 163.858 95.9564 165.238C97.9227 166.619 98.7092 168 99.889 168C101.069 168 103.822 166.619 103.822 165.436C103.217 164.861 102.342 164.338 101.297 163.858C95.8887 161.374 85.94 160.051 85.4871 158.729C85.6051 160.007 85.7839 161.36 86.0275 162.871Z" fill="#CBC5C5"/>
<path d="M85.4871 151.228C85.486 151.242 85.4848 151.255 85.4836 151.269C85.366 152.937 88.8915 149.038 90.6473 145.907C92.417 142.751 93.4001 144.724 95.5631 145.907C97.7261 147.091 100.282 146.696 99.889 148.077C99.4958 149.458 94.3833 149.852 93.4001 149.852C92.417 149.852 88.681 149.852 88.4843 151.036C88.2877 152.219 93.7934 153.206 94.7766 153.206C95.7597 153.206 98.7092 151.825 100.676 150.247C102.642 148.669 103.035 145.513 103.035 143.343C103.035 141.173 103.035 141.173 100.282 141.173C97.7261 141.173 95.3665 138.411 92.2203 138.411C90.4506 140.581 86.9113 143.935 85.4871 151.228Z" fill="#CBC5C5"/>
<path d="M104.805 143.343C104.805 140.778 103.625 141.962 103.625 140.778C103.756 140.252 104.412 139.003 105.985 138.214C107.951 137.228 111.097 135.847 110.311 139.792C109.681 142.948 109.131 144.395 108.934 144.724C106.887 145.773 105.729 146.515 103.625 148.274C103.428 145.907 104.805 144.447 104.805 143.343Z" fill="#CBC5C5"/>
<path d="M104.805 148.471C107.558 145.907 113.85 143.343 118.962 143.343C118.962 144.329 119.356 145.513 117.979 146.499C116.603 147.485 114.833 146.302 112.67 147.288C110.94 148.077 109.458 150.115 108.934 151.036C108.057 149.599 107.125 149.046 104.805 148.471Z" fill="#CBC5C5"/>
<path d="M114.833 153.206C113.417 152.732 113.063 149.852 113.063 148.471C115.816 146.499 116.799 150.247 124.665 145.513C125.358 146.941 125.326 147.809 125.058 151.228C123.799 152.43 122.981 153.014 121.125 153.797C120.379 149.23 119.18 147.912 114.833 149.063C116.052 150.705 116.086 151.564 114.833 153.206Z" fill="#CBC5C5"/>
<path d="M102.249 162.082C102.249 161.096 104.412 158.729 105.198 158.729C105.985 158.729 108.148 162.871 111.49 162.871C113.854 162.871 117.594 161.885 119.582 159.912C120.037 157.465 120.062 155.77 119.822 154.587C119.424 152.624 118.297 152.071 117.193 151.825C117.193 153.403 114.44 155.178 112.67 155.178C110.114 155.178 106.575 149.852 105.591 149.852C104.608 149.852 101.659 152.022 101.069 155.178C96.3496 155.376 89.8607 153.206 85.3467 153.403C85.3138 154.203 85.3044 154.985 85.3193 155.77C90.254 156.165 99.2991 162.674 102.249 162.082Z" fill="#CBC5C5"/>
<path d="M113.457 142.751C113.771 141.489 113.391 140.515 113.063 140.187C116.404 132.94 119.43 130.03 125.255 125.392C126.089 132.222 124.907 135.552 117.586 142.554L113.457 142.751Z" fill="#CBC5C5"/>
<path d="M131.744 143.343C131.744 143.996 131.215 144.526 130.564 144.526C129.912 144.526 129.384 143.996 129.384 143.343C129.384 142.689 129.912 142.159 130.564 142.159C131.215 142.159 131.744 142.689 131.744 143.343Z" fill="#CBC5C5"/>
<path d="M128.991 129.337C128.991 129.991 128.462 130.521 127.811 130.521C127.159 130.521 126.631 129.991 126.631 129.337C126.631 128.684 127.159 128.154 127.811 128.154C128.462 128.154 128.991 128.684 128.991 129.337Z" fill="#CBC5C5"/>
<path d="M142.558 112.965C142.558 113.619 142.03 114.149 141.379 114.149C140.727 114.149 140.199 113.619 140.199 112.965C140.199 112.311 140.727 111.782 141.379 111.782C142.03 111.782 142.558 112.311 142.558 112.965Z" fill="#CBC5C5"/>
<path d="M158.879 102.905C158.879 103.559 158.351 104.088 157.699 104.088C157.047 104.088 156.519 103.559 156.519 102.905C156.519 102.251 157.047 101.721 157.699 101.721C158.351 101.721 158.879 102.251 158.879 102.905Z" fill="#CBC5C5"/>
<path d="M149.244 97.7762C149.244 98.4299 148.716 98.9598 148.064 98.9598C147.412 98.9598 146.884 98.4299 146.884 97.7762C146.884 97.1225 147.412 96.5927 148.064 96.5927C148.716 96.5927 149.244 97.1225 149.244 97.7762Z" fill="#CBC5C5"/>
<path d="M150.817 82.9819C150.817 83.6355 150.289 84.1654 149.637 84.1654C148.986 84.1654 148.457 83.6355 148.457 82.9819C148.457 82.3282 148.986 81.7983 149.637 81.7983C150.289 81.7983 150.817 82.3282 150.817 82.9819Z" fill="#CBC5C5"/>
<path d="M154.946 60.0999C154.946 60.7536 154.418 61.2835 153.766 61.2835C153.115 61.2835 152.587 60.7536 152.587 60.0999C152.587 59.4463 153.115 58.9164 153.766 58.9164C154.418 58.9164 154.946 59.4463 154.946 60.0999Z" fill="#CBC5C5"/>
<path d="M145.901 64.0451C145.901 64.6988 145.373 65.2287 144.721 65.2287C144.07 65.2287 143.541 64.6988 143.541 64.0451C143.541 63.3914 144.07 62.8616 144.721 62.8616C145.373 62.8616 145.901 63.3914 145.901 64.0451Z" fill="#CBC5C5"/>
<path d="M151.014 46.4892C151.014 47.1428 150.485 47.6727 149.834 47.6727C149.182 47.6727 148.654 47.1428 148.654 46.4892C148.654 45.8355 149.182 45.3056 149.834 45.3056C150.485 45.3056 151.014 45.8355 151.014 46.4892Z" fill="#CBC5C5"/>
<path d="M142.952 40.9659C142.952 41.6196 142.423 42.1495 141.772 42.1495C141.12 42.1495 140.592 41.6196 140.592 40.9659C140.592 40.3123 141.12 39.7824 141.772 39.7824C142.423 39.7824 142.952 40.3123 142.952 40.9659Z" fill="#CBC5C5"/>
<path d="M129.384 36.8235C129.384 37.4772 128.856 38.0071 128.204 38.0071C127.553 38.0071 127.024 37.4772 127.024 36.8235C127.024 36.1699 127.553 35.64 128.204 35.64C128.856 35.64 129.384 36.1699 129.384 36.8235Z" fill="#CBC5C5"/>
<path d="M115.423 21.2401C115.423 21.8938 114.895 22.4237 114.243 22.4237C113.592 22.4237 113.063 21.8938 113.063 21.2401C113.063 20.5865 113.592 20.0566 114.243 20.0566C114.895 20.0566 115.423 20.5865 115.423 21.2401Z" fill="#CBC5C5"/>
<path d="M124.665 14.3361C124.665 14.9898 124.137 15.5197 123.485 15.5197C122.833 15.5197 122.305 14.9898 122.305 14.3361C122.305 13.6825 122.833 13.1526 123.485 13.1526C124.137 13.1526 124.665 13.6825 124.665 14.3361Z" fill="#CBC5C5"/>
<path d="M99.6924 13.1526C99.6924 13.8062 99.1642 14.3361 98.5126 14.3361C97.861 14.3361 97.3328 13.8062 97.3328 13.1526C97.3328 12.4989 97.861 11.969 98.5126 11.969C99.1642 11.969 99.6924 12.4989 99.6924 13.1526Z" fill="#CBC5C5"/>
<path d="M100.479 3.68419C100.479 4.33785 99.9507 4.86774 99.2991 4.86774C98.6475 4.86774 98.1193 4.33785 98.1193 3.68419C98.1193 3.03054 98.6475 2.50065 99.2991 2.50065C99.9507 2.50065 100.479 3.03054 100.479 3.68419Z" fill="#CBC5C5"/>
<path d="M120.142 142.159C120.404 142.883 120.771 144.566 120.142 145.513C126.831 144.273 137.768 134.609 137.053 127.365C130.948 129.111 127.309 132.207 120.142 142.159Z" fill="#CBC5C5"/>
<path d="M127.811 125.984C128.204 120.264 136.266 109.809 137.839 110.598C139.412 111.387 138.626 125.59 132.137 128.351C131.665 127.247 129.056 126.313 127.811 125.984Z" fill="#CBC5C5"/>
<path d="M132.333 140.384C135.48 137.031 141.182 133.677 146.491 134.466C145.115 139.792 136.856 142.948 133.513 144.526C133.906 143.343 133.317 140.976 132.333 140.384Z" fill="#CBC5C5"/>
<path d="M126.631 149.852C127.221 148.077 126.238 146.302 126.828 146.104C127.3 145.947 130.17 145.776 131.547 145.71C130.209 147.434 129.167 148.353 126.631 149.852Z" fill="#CBC5C5"/>
<path d="M137.053 125.984C137.839 121.842 144.131 111.584 146.884 112.571C149.637 113.557 145.901 128.746 138.232 132.494C140.199 128.351 139.068 125.984 137.053 125.984Z" fill="#CBC5C5"/>
<path d="M139.216 110.203C139.609 104.483 138.626 101.919 140.592 97.7762C142.558 93.6338 143.148 94.0283 143.935 94.2256C144.721 94.4228 146.688 100.341 145.901 104.68C145.272 108.152 144.328 111.387 143.935 112.571C143.607 111.847 142.716 110.282 141.772 109.809C140.828 109.336 139.674 109.875 139.216 110.203Z" fill="#CBC5C5"/>
<path d="M145.901 111.782C146.077 102.905 151.997 94.8371 153.766 95.0146C157.699 95.4091 154.553 113.754 149.244 116.121C149.244 111.782 148.064 110.203 145.901 111.782Z" fill="#CBC5C5"/>
<path d="M140.199 133.085C146.098 129.337 144.918 126.576 148.457 123.222C151.289 120.54 155.012 119.475 156.519 119.277C153.515 127.891 150.225 131.19 140.199 133.085Z" fill="#CBC5C5"/>
<path d="M150.03 119.869C151.21 114.442 159.272 102.905 161.632 104.088C161.632 106.653 157.41 113.754 156.519 117.699C153.53 118.015 150.948 119.277 150.03 119.869Z" fill="#CBC5C5"/>
<path d="M142.165 80.2203C145.901 81.7983 150.817 87.5188 149.637 95.8036C148.379 94.2256 147.015 94.6201 146.491 95.0146C145.849 93.2603 145.333 92.6724 143.935 92.8448C141.671 87.8957 141.538 85.1346 142.165 80.2203Z" fill="#CBC5C5"/>
<path d="M154.553 73.7107C157.109 76.2751 159.642 87.1285 156.519 96.5927C154.375 93.3904 153.339 93.9851 151.407 93.831C150.89 90.8812 150.768 87.8919 150.911 85.1517C151.207 84.8229 151.839 83.9287 151.997 82.9819C152.154 82.035 151.631 81.2723 151.35 81.0093C152.04 76.7859 153.343 73.8226 154.553 73.7107Z" fill="#CBC5C5"/>
<path d="M162.615 87.1243C162.615 92.8448 161.693 95.8816 161.632 102.313C161.042 103.694 158.879 103.497 159.272 99.5515C158.991 100.492 157.187 101.396 157.502 96.7899C157.818 92.1842 162.615 87.1243 162.615 87.1243Z" fill="#CBC5C5"/>
<path d="M140.002 65.8204C140.176 73.0156 141.843 75.8925 145.901 80.2203C146.856 78.3103 148.654 81.0093 150.424 79.234C146.491 72.1327 148.064 69.9628 144.721 67.793C142.849 66.3731 141.825 66.1477 140.002 65.8204Z" fill="#CBC5C5"/>
<path d="M148.654 57.3383C154.553 63.4533 157.934 67.3427 156.519 75.2888C154.499 71.1041 153.221 72.1341 150.817 77.0641C147.265 69.2726 146.463 64.948 148.654 57.3383Z" fill="#CBC5C5"/>
<path d="M159.272 89.0969C158.586 83.1491 158.289 80.2203 158.879 77.0641C159.79 74.8731 160.715 73.8268 163.205 72.3299C164.154 77.4953 164.076 80.3813 163.205 85.5462C160.984 86.2633 160.326 87.2364 159.272 89.0969Z" fill="#CBC5C5"/>
<path d="M158.092 75.2888C158.879 68.7793 156.126 65.2287 156.126 61.2835C156.126 57.3383 158.879 54.9712 158.879 54.9712C160.656 62.0223 160.908 65.7562 161.042 72.3299C159.862 72.774 159.211 73.4615 158.092 75.2888Z" fill="#CBC5C5"/>
<path d="M134.496 51.8151C136.189 57.2269 137.631 59.9237 141.772 63.6506C142.339 62.0294 142.739 61.6046 143.541 61.2835C142.176 58.5754 141.962 57.0644 141.772 54.3795C137.632 51.6044 136.505 51.6782 134.496 51.8151Z" fill="#CBC5C5"/>
<path d="M145.311 60.0999C147.871 55.3277 149.052 55.1625 150.911 57.3383C150.817 53.2658 150.144 51.5823 148.654 48.8563C147.268 48.6541 147.018 47.8016 146.884 46.4892C144.757 44.2557 143.663 43.7567 141.772 43.333C141.89 50.4158 142.464 54.1738 145.311 60.0999Z" fill="#CBC5C5"/>
<path d="M152.587 44.1221C155.376 46.5605 156.504 48.6122 157.306 54.1822C156.549 54.8299 156.176 55.7449 155.536 57.7328C154.639 56.7355 154.121 56.5943 153.176 56.9438C151.259 52.038 151.257 49.2322 152.587 44.1221Z" fill="#CBC5C5"/>
<path d="M141.182 52.4069C140.032 44.756 134.496 38.9934 129.384 38.9934C127.418 38.9934 126.303 37.0208 125.648 38.0071C125.296 38.536 127.965 42.9503 131.744 46.6864C135.01 49.9165 139.267 52.5898 141.182 52.4069Z" fill="#CBC5C5"/>
<path d="M128.991 26.5661C135.947 28.2405 138.982 30.3062 141.772 37.4153C139.735 39.2253 138.205 39.9846 140.592 44.7138C132.384 38.2421 130.305 34.1954 128.991 26.5661Z" fill="#CBC5C5"/>
<path d="M142.952 29.1305C147.748 33.587 149.638 36.5575 151.8 42.544C151.803 43.5088 151.742 43.9981 151.21 44.5166C150.321 43.9986 149.586 43.8603 147.474 44.1221C143.398 38.0764 142.669 34.8154 142.952 29.1305Z" fill="#CBC5C5"/>
<path d="M116.21 17.295C125.096 17.7883 128.988 19.7904 133.906 26.5661C128.238 24.4314 126.891 24.8229 127.811 29.1305C121.211 25.259 119.057 22.5242 116.21 17.295Z" fill="#CBC5C5"/>
<path d="M125.845 14.1389C126.238 17.6895 135.283 24.5935 141.968 34.2592C139.609 27.3551 138.808 26.0202 141.772 27.9469C136.275 18.9581 132.736 16.1937 125.845 14.1389Z" fill="#CBC5C5"/>
<path d="M113.063 25.9743C114.466 24.4224 115.421 23.8281 118.373 24.199C122.137 27.5208 124.173 28.6647 127.647 30.6165L127.811 30.7085C128.428 31.5434 128.709 32.3077 128.991 33.6674C123.513 33.6789 119.999 31.9484 113.063 25.9743Z" fill="#CBC5C5"/>
<path d="M106.181 17.295C109.917 18.8731 114.833 18.2813 114.833 18.2813C114.967 15.3616 116.574 15.7372 118.766 15.5197C111.513 9.82028 107.198 8.43689 98.9059 10.3707C102.839 11.969 100.479 14.8864 106.181 17.295Z" fill="#CBC5C5"/>
<path d="M112.867 23.2127C105.533 23.14 102.297 21.9805 97.3328 18.8731C98.2172 16.5173 99.1309 15.9991 101.855 15.7169C104.348 19.0471 106.608 20.0676 111.49 21.0429C111.681 22.0914 111.947 22.6556 112.867 23.2127Z" fill="#CBC5C5"/>
<path d="M101.855 2.89516C102.456 5.76179 103.187 7.22155 107.164 8.8129C110.661 9.6234 111.772 9.01722 119.356 14.9279C119.991 15.3274 120.335 15.4586 120.929 15.5197C120.84 13.868 120.992 13.0898 121.519 11.969C114.791 6.06275 110.31 4.51149 101.855 2.89516Z" fill="#CBC5C5"/>
<path d="M83.3719 15.5197C83.8986 14.0209 84.5197 13.3457 86.1247 12.3635C88.0321 13.445 90.0029 13.6784 94.9732 13.5471C96.2358 14.2065 96.7815 14.6289 97.3328 15.5197C92.4385 17.598 89.3594 17.591 83.3719 15.5197Z" fill="#CBC5C5"/>
<path d="M83.3719 0.133552C84.3048 1.60732 84.9892 2.43004 86.7146 3.88145C90.9475 3.61194 93.1589 3.90341 96.9395 4.86774C96.7353 3.94535 96.787 3.42357 96.9395 2.50065C90.8457 0.082413 87.9696 -0.247386 83.3719 0.133552Z" fill="#CBC5C5"/>
<path d="M78.6507 163.463C78.6507 163.463 80.618 163.858 82.3877 163.858C84.1574 163.858 86.1247 163.463 86.1247 163.463C86.0912 163.263 86.0588 163.066 86.0275 162.871C85.7839 161.36 85.6051 160.007 85.4871 158.729C85.393 157.709 85.3376 156.737 85.3193 155.77C85.3044 154.985 85.3138 154.203 85.3467 153.403C85.3751 152.711 85.421 152.004 85.4836 151.269L85.4871 151.228C85.6237 149.64 85.8384 147.915 86.1247 145.907C86.1247 145.907 84.354 145.513 82.3877 145.513C80.4214 145.513 78.6507 145.907 78.6507 145.907C78.937 147.915 79.1517 149.64 79.2883 151.228L79.2918 151.269C79.3544 152.004 79.4003 152.711 79.4287 153.403C79.4615 154.203 79.471 154.985 79.4561 155.77C79.4378 156.737 79.3824 157.709 79.2883 158.729C79.1703 160.007 78.9915 161.36 78.7479 162.871C78.7166 163.066 78.6842 163.263 78.6507 163.463Z" fill="#CBC5C5"/>
<path fill-rule="evenodd" clip-rule="evenodd" d="M78.6507 145.907C78.6507 145.907 80.4214 145.513 82.3877 145.513C84.354 145.513 86.1247 145.907 86.1247 145.907C85.8384 147.915 85.6237 149.64 85.4871 151.228C86.9113 143.935 90.4506 140.581 92.2203 138.411C95.3665 138.411 97.7261 141.173 100.282 141.173C103.035 141.173 103.035 141.173 103.035 143.343C103.035 145.513 102.642 148.669 100.676 150.247C98.7092 151.825 95.7597 153.206 94.7766 153.206C93.7934 153.206 88.2877 152.219 88.4843 151.036C88.681 149.852 92.417 149.852 93.4001 149.852C94.3833 149.852 99.4958 149.458 99.889 148.077C100.282 146.696 97.7261 147.091 95.5631 145.907C93.4001 144.724 92.417 142.751 90.6473 145.907C88.8915 149.038 85.366 152.937 85.4836 151.269C85.421 152.004 85.3751 152.711 85.3467 153.403C89.8607 153.206 96.3496 155.376 101.069 155.178C101.659 152.022 104.608 149.852 105.591 149.852C106.575 149.852 110.114 155.178 112.67 155.178C114.44 155.178 117.193 153.403 117.193 151.825C118.297 152.071 119.424 152.624 119.822 154.587L121.125 153.797C120.379 149.23 119.18 147.912 114.833 149.063C116.052 150.705 116.086 151.564 114.833 153.206C113.417 152.732 113.063 149.852 113.063 148.471C115.816 146.499 116.799 150.247 124.665 145.513C125.358 146.941 125.326 147.809 125.058 151.228L126.631 149.852C127.221 148.077 126.238 146.302 126.828 146.104C127.3 145.947 130.17 145.776 131.547 145.71L133.513 144.526C133.906 143.343 133.317 140.976 132.333 140.384C135.48 137.031 141.182 133.677 146.491 134.466L140.199 133.085C146.098 129.337 144.918 126.576 148.457 123.222C151.289 120.54 155.012 119.475 156.519 119.277V117.699C153.53 118.015 150.948 119.277 150.03 119.869C151.21 114.442 159.272 102.905 161.632 104.088V102.313C161.042 103.694 158.879 103.497 159.272 99.5515C158.991 100.492 157.187 101.396 157.502 96.7899C157.818 92.1842 162.615 87.1243 162.615 87.1243L163.205 85.5462C160.984 86.2633 160.326 87.2364 159.272 89.0969C158.586 83.1491 158.289 80.2203 158.879 77.0641C159.79 74.8731 160.715 73.8268 163.205 72.3299H161.042C159.862 72.774 159.211 73.4615 158.092 75.2888C158.879 68.7793 156.126 65.2287 156.126 61.2835C156.126 57.3383 158.879 54.9712 158.879 54.9712L157.306 54.1822C156.549 54.8299 156.176 55.7449 155.536 57.7328C154.639 56.7355 154.121 56.5943 153.176 56.9438C151.259 52.038 151.257 49.2322 152.587 44.1221L151.8 42.544C151.803 43.5088 151.742 43.9981 151.21 44.5166C150.321 43.9986 149.586 43.8603 147.474 44.1221C143.398 38.0764 142.669 34.8154 142.952 29.1305L141.772 27.9469C138.808 26.0202 139.609 27.3551 141.968 34.2592C135.283 24.5935 126.238 17.6895 125.845 14.1389L124.665 14.3361C124.665 14.9898 124.137 15.5197 123.485 15.5197C122.833 15.5197 122.305 14.9898 122.305 14.3361L121.519 11.969C120.992 13.0898 120.84 13.868 120.929 15.5197C120.335 15.4586 119.991 15.3274 119.356 14.9279C111.772 9.01722 110.661 9.6234 107.164 8.8129C103.187 7.22155 102.456 5.76179 101.855 2.89516L100.479 3.68419C100.479 4.33785 99.9507 4.86774 99.2991 4.86774C98.6475 4.86774 98.1193 4.33785 98.1193 3.68419L96.9395 2.50065C96.787 3.42357 96.7353 3.94535 96.9395 4.86774C93.1589 3.90341 90.9475 3.61194 86.7146 3.88145C84.9892 2.43004 84.3048 1.60732 83.3719 0.133552H83.3709H81.4045H81.4035C80.4706 1.60732 79.7862 2.43004 78.0608 3.88145C73.8279 3.61194 71.6165 3.90341 67.8359 4.86774C68.0401 3.94535 67.9884 3.42357 67.8359 2.50065L66.6561 3.68419C66.6561 4.33785 66.1279 4.86774 65.4763 4.86774C64.8247 4.86774 64.2965 4.33785 64.2965 3.68419L62.92 2.89516C62.3191 5.76179 61.5885 7.22155 57.611 8.8129C54.1142 9.6234 53.0034 9.01722 45.4197 14.9279C44.7848 15.3274 44.4401 15.4586 43.8467 15.5197C43.9353 13.868 43.7834 13.0898 43.2568 11.969L42.4702 14.3361C42.4702 14.9898 41.942 15.5197 41.2904 15.5197C40.6389 15.5197 40.1106 14.9898 40.1106 14.3361L38.9308 14.1389C38.5376 17.6895 29.4925 24.5935 22.807 34.2592C25.1666 27.3551 25.9676 26.0202 23.0036 27.9469L21.8238 29.1305C22.1068 34.8154 21.3772 38.0764 17.3012 44.1221C15.1894 43.8603 14.4546 43.9986 13.5652 44.5166C13.0334 43.9981 12.9729 43.5088 12.9753 42.544L12.1888 44.1221C13.5186 49.2322 13.516 52.038 11.5989 56.9438C10.6541 56.5943 10.136 56.7355 9.2393 57.7328C8.59988 55.7449 8.22589 54.8299 7.4696 54.1822L5.89654 54.9712C5.89654 54.9712 8.6494 57.3383 8.6494 61.2835C8.6494 65.2287 5.89654 68.7793 6.68307 75.2888C5.56408 73.4615 4.91301 72.774 3.73358 72.3299H1.57062C4.06065 73.8268 4.98562 74.8731 5.89654 77.0641C6.48644 80.2203 6.18963 83.1491 5.50327 89.0969C4.44948 87.2364 3.79154 86.2633 1.57062 85.5462L2.16052 87.1243C2.16052 87.1243 6.95774 92.1842 7.27297 96.7899C7.5882 101.396 5.78449 100.492 5.50327 99.5515C5.89654 103.497 3.73358 103.694 3.14368 102.313V104.088C5.50327 102.905 13.5652 114.442 14.745 119.869C13.8274 119.277 11.245 118.015 8.25613 117.699V119.277C9.76365 119.475 13.4866 120.54 16.3181 123.222C19.8575 126.576 18.6777 129.337 24.5767 133.085L18.2844 134.466C23.5935 133.677 29.2958 137.031 32.442 140.384C31.4588 140.976 30.8689 143.343 31.2622 144.526L33.2285 145.71C34.6049 145.776 37.4758 145.947 37.9477 146.104C38.5376 146.302 37.5544 148.077 38.1443 149.852L39.7174 151.228C39.4495 147.809 39.4175 146.941 40.1106 145.513C47.976 150.247 48.9591 146.499 51.712 148.471C51.712 149.852 51.358 152.732 49.9423 153.206C48.6895 151.564 48.7233 150.705 49.9423 149.063C45.5959 147.912 44.396 149.23 43.65 153.797L44.9529 154.587C45.3509 152.624 46.4785 152.071 47.5827 151.825C47.5827 153.403 50.3355 155.178 52.1052 155.178C54.6615 155.178 58.2009 149.852 59.184 149.852C60.1672 149.852 63.1167 152.022 63.7066 155.178C68.4258 155.376 74.9146 153.206 79.4287 153.403C79.4003 152.711 79.3544 152.004 79.2918 151.269C79.4094 152.937 75.8839 149.038 74.1281 145.907C72.3584 142.751 71.3753 144.724 69.2123 145.907C67.0493 147.091 64.4931 146.696 64.8864 148.077C65.2796 149.458 70.3921 149.852 71.3753 149.852C72.3584 149.852 76.0944 149.852 76.2911 151.036C76.4877 152.219 70.982 153.206 69.9988 153.206C69.0157 153.206 66.0662 151.825 64.0998 150.247C62.1335 148.669 61.7402 145.513 61.7402 143.343C61.7402 141.173 61.7402 141.173 64.4931 141.173C67.0493 141.173 69.4089 138.411 72.555 138.411C74.3247 140.581 77.8641 143.935 79.2883 151.228C79.1517 149.64 78.937 147.915 78.6507 145.907ZM61.1503 140.778C61.1503 141.962 59.9706 140.778 59.9706 143.343C59.9706 144.447 61.347 145.907 61.1503 148.274C59.0468 146.515 57.8884 145.773 55.8413 144.724C55.6446 144.395 55.0941 142.948 54.4648 139.792C53.6783 135.847 56.8244 137.228 58.7908 138.214C60.3638 139.003 61.0193 140.252 61.1503 140.778ZM45.813 143.343C50.9254 143.343 57.2177 145.907 59.9706 148.471C57.6503 149.046 56.7182 149.599 55.8413 151.036C55.3169 150.115 53.8356 148.077 52.1052 147.288C49.9423 146.302 48.1726 147.485 46.7962 146.499C45.4197 145.513 45.813 144.329 45.813 143.343ZM51.712 140.187C51.3843 140.515 51.0041 141.489 51.3187 142.751L47.1894 142.554C39.8682 135.552 38.6868 132.222 39.5207 125.392C45.3458 130.03 48.3713 132.94 51.712 140.187ZM44.6332 145.513C44.004 144.566 44.371 142.883 44.6332 142.159C37.4663 132.207 33.8272 129.111 27.7228 127.365C27.0073 134.609 37.944 144.273 44.6332 145.513ZM34.2117 144.526C33.5601 144.526 33.0319 143.996 33.0319 143.343C33.0319 142.689 33.5601 142.159 34.2117 142.159C34.8632 142.159 35.3915 142.689 35.3915 143.343C35.3915 143.996 34.8632 144.526 34.2117 144.526ZM36.9645 130.521C36.3129 130.521 35.7847 129.991 35.7847 129.337C35.7847 128.684 36.3129 128.154 36.9645 128.154C37.6161 128.154 38.1443 128.684 38.1443 129.337C38.1443 129.991 37.6161 130.521 36.9645 130.521ZM23.3969 114.149C22.7453 114.149 22.2171 113.619 22.2171 112.965C22.2171 112.311 22.7453 111.782 23.3969 111.782C24.0484 111.782 24.5767 112.311 24.5767 112.965C24.5767 113.619 24.0484 114.149 23.3969 114.149ZM7.07634 104.088C6.42475 104.088 5.89654 103.559 5.89654 102.905C5.89654 102.251 6.42475 101.721 7.07634 101.721C7.72792 101.721 8.25613 102.251 8.25613 102.905C8.25613 103.559 7.72792 104.088 7.07634 104.088ZM16.7113 98.9598C16.0598 98.9598 15.5315 98.4299 15.5315 97.7762C15.5315 97.1225 16.0598 96.5927 16.7113 96.5927C17.3629 96.5927 17.8911 97.1225 17.8911 97.7762C17.8911 98.4299 17.3629 98.9598 16.7113 98.9598ZM15.1383 84.1654C14.4867 84.1654 13.9585 83.6355 13.9585 82.9819C13.9585 82.3282 14.4867 81.7983 15.1383 81.7983C15.7899 81.7983 16.3181 82.3282 16.3181 82.9819C16.3181 83.6355 15.7899 84.1654 15.1383 84.1654ZM11.009 61.2835C10.3574 61.2835 9.82919 60.7536 9.82919 60.0999C9.82919 59.4463 10.3574 58.9164 11.009 58.9164C11.6606 58.9164 12.1888 59.4463 12.1888 60.0999C12.1888 60.7536 11.6606 61.2835 11.009 61.2835ZM20.0541 65.2287C19.4025 65.2287 18.8743 64.6988 18.8743 64.0451C18.8743 63.3914 19.4025 62.8616 20.0541 62.8616C20.7057 62.8616 21.2339 63.3914 21.2339 64.0451C21.2339 64.6988 20.7057 65.2287 20.0541 65.2287ZM14.9416 47.6727C14.2901 47.6727 13.7618 47.1428 13.7618 46.4892C13.7618 45.8355 14.2901 45.3056 14.9416 45.3056C15.5932 45.3056 16.1214 45.8355 16.1214 46.4892C16.1214 47.1428 15.5932 47.6727 14.9416 47.6727ZM23.0036 42.1495C22.352 42.1495 21.8238 41.6196 21.8238 40.9659C21.8238 40.3123 22.352 39.7824 23.0036 39.7824C23.6552 39.7824 24.1834 40.3123 24.1834 40.9659C24.1834 41.6196 23.6552 42.1495 23.0036 42.1495ZM36.5713 38.0071C35.9197 38.0071 35.3915 37.4772 35.3915 36.8235C35.3915 36.1699 35.9197 35.64 36.5713 35.64C37.2228 35.64 37.751 36.1699 37.751 36.8235C37.751 37.4772 37.2228 38.0071 36.5713 38.0071ZM50.5322 22.4237C49.8806 22.4237 49.3524 21.8938 49.3524 21.2401C49.3524 20.5865 49.8806 20.0566 50.5322 20.0566C51.1838 20.0566 51.712 20.5865 51.712 21.2401C51.712 21.8938 51.1838 22.4237 50.5322 22.4237ZM66.2628 14.3361C65.6112 14.3361 65.083 13.8062 65.083 13.1526C65.083 12.4989 65.6112 11.969 66.2628 11.969C66.9144 11.969 67.4426 12.4989 67.4426 13.1526C67.4426 13.8062 66.9144 14.3361 66.2628 14.3361ZM26.9362 110.598C28.5093 109.809 36.5713 120.264 36.9645 125.984C35.7192 126.313 33.1105 127.247 32.6386 128.351C26.1497 125.59 25.3632 111.387 26.9362 110.598ZM17.8911 112.571C20.644 111.584 26.9362 121.842 27.7228 125.984C25.7071 125.984 24.5767 128.351 26.543 132.494C18.8743 128.746 15.1383 113.557 17.8911 112.571ZM24.1834 97.7762C26.1497 101.919 25.1665 104.483 25.5598 110.203C25.101 109.875 23.9474 109.336 23.0036 109.809C22.0598 110.282 21.1684 111.847 20.8406 112.571C20.4474 111.387 19.5035 108.152 18.8743 104.68C18.0878 100.341 20.0541 94.4228 20.8406 94.2256C21.6272 94.0283 22.2171 93.6338 24.1834 97.7762ZM11.009 95.0146C12.7787 94.8371 18.6979 102.905 18.8743 111.782C16.7113 110.203 15.5315 111.782 15.5315 116.121C10.2225 113.754 7.07633 95.4091 11.009 95.0146ZM15.1383 95.8036C13.9585 87.5188 18.8743 81.7983 22.6103 80.2203C23.2374 85.1346 23.1044 87.8957 20.8406 92.8448C19.4423 92.6724 18.9269 93.2603 18.2844 95.0146C17.76 94.6201 16.3967 94.2256 15.1383 95.8036ZM8.25613 96.5927C5.13303 87.1285 7.66623 76.2751 10.2225 73.7107C11.4319 73.8226 12.7358 76.7859 13.4258 81.0093C13.1446 81.2723 12.6214 82.035 12.7787 82.9819C12.936 83.9287 13.5679 84.8229 13.8642 85.1517C14.0073 87.8919 13.885 90.8812 13.3686 93.831C11.4365 93.9851 10.4005 93.3904 8.25613 96.5927ZM18.8743 80.2203C22.9323 75.8925 24.5991 73.0156 24.7733 65.8204C22.9502 66.1477 21.9265 66.3731 20.0541 67.793C16.7113 69.9628 18.2844 72.1327 14.3517 79.234C16.1214 81.0093 17.9191 78.3103 18.8743 80.2203ZM8.25613 75.2888C6.84178 67.3427 10.2225 63.4533 16.1214 57.3383C18.3124 64.948 17.5101 69.2726 13.9585 77.0641C11.5541 72.1341 10.2762 71.1041 8.25613 75.2888ZM23.0036 63.6506C27.1445 59.9237 28.5864 57.2269 30.279 51.8151C28.2702 51.6782 27.1434 51.6044 23.0036 54.3795C22.8137 57.0644 22.5992 58.5754 21.2339 61.2835C22.0367 61.6046 22.4366 62.0294 23.0036 63.6506ZM13.8642 57.3383C15.7234 55.1625 16.9044 55.3277 19.4642 60.0999C22.3113 54.1738 22.8851 50.4158 23.0036 43.333C21.1127 43.7567 20.0183 44.2557 17.8911 46.4892C17.7572 47.8016 17.507 48.6541 16.1214 48.8563C14.6309 51.5823 13.9588 53.2658 13.8642 57.3383ZM35.3915 38.9934C30.279 38.9934 24.7433 44.756 23.5935 52.4069C25.5082 52.5898 29.7652 49.9165 33.0319 46.6864C36.8103 42.9503 39.479 38.536 39.1275 38.0071C38.472 37.0208 37.3578 38.9934 35.3915 38.9934ZM23.0036 37.4153C25.7939 30.3062 28.8287 28.2405 35.7847 26.5661C34.4699 34.1954 32.3915 38.2421 24.1834 44.7138C26.5708 39.9846 25.0403 39.2253 23.0036 37.4153ZM30.8689 26.5661C35.7873 19.7904 39.6797 17.7883 48.5659 17.295C45.7183 22.5242 43.5641 25.259 36.9645 29.1305C37.8845 24.8229 36.5377 24.4314 30.8689 26.5661ZM46.4029 24.199C49.3546 23.8281 50.3096 24.4224 51.712 25.9743C44.7764 31.9484 41.2626 33.6789 35.7847 33.6674C36.0663 32.3077 36.3476 31.5434 36.9645 30.7085L37.1283 30.6165C40.6022 28.6647 42.6381 27.5208 46.4029 24.199ZM49.9423 18.2813C49.9423 18.2813 54.8581 18.8731 58.5941 17.295C64.2965 14.8864 61.9369 11.969 65.8695 10.3707C57.5772 8.43689 53.2626 9.82028 46.0096 15.5197C48.2014 15.7372 49.8085 15.3616 49.9423 18.2813ZM67.4426 18.8731C62.4781 21.9805 59.2429 23.14 51.9086 23.2127C52.828 22.6556 53.0948 22.0914 53.285 21.0429C58.1672 20.0676 60.4276 19.0471 62.92 15.7169C65.6445 15.9991 66.5582 16.5173 67.4426 18.8731ZM82.3877 8.90762C79.4599 10.7866 77.7897 11.5745 73.5382 11.5745C70.1329 11.5745 68.8009 10.7657 67.5786 10.0235C66.5423 9.39425 65.585 8.8129 63.5099 8.8129C70.7753 4.02894 75.2281 3.65858 82.3877 6.73397C89.5473 3.65858 94.0001 4.02894 101.265 8.8129C99.1904 8.8129 98.2331 9.39425 97.1968 10.0235C95.9745 10.7657 94.6425 11.5745 91.2372 11.5745C86.9857 11.5745 85.3155 10.7866 82.3877 8.90762ZM78.6507 12.3635C80.2557 13.3457 80.8768 14.0209 81.4035 15.5197C75.416 17.591 72.3369 17.598 67.4426 15.5197C67.9939 14.6289 68.5396 14.2065 69.8022 13.5471C74.7725 13.6784 76.7433 13.445 78.6507 12.3635ZM103.625 140.778C103.625 141.962 104.805 140.778 104.805 143.343C104.805 144.447 103.428 145.907 103.625 148.274C105.729 146.515 106.887 145.773 108.934 144.724C109.131 144.395 109.681 142.948 110.311 139.792C111.097 135.847 107.951 137.228 105.985 138.214C104.412 139.003 103.756 140.252 103.625 140.778ZM118.962 143.343C113.85 143.343 107.558 145.907 104.805 148.471C107.125 149.046 108.057 149.599 108.934 151.036C109.458 150.115 110.94 148.077 112.67 147.288C114.833 146.302 116.603 147.485 117.979 146.499C119.356 145.513 118.962 144.329 118.962 143.343ZM113.063 140.187C113.391 140.515 113.771 141.489 113.457 142.751L117.586 142.554C124.907 135.552 126.089 132.222 125.255 125.392C119.43 130.03 116.404 132.94 113.063 140.187ZM120.142 145.513C120.771 144.566 120.404 142.883 120.142 142.159C127.309 132.207 130.948 129.111 137.053 127.365C137.768 134.609 126.831 144.273 120.142 145.513ZM130.564 144.526C131.215 144.526 131.744 143.996 131.744 143.343C131.744 142.689 131.215 142.159 130.564 142.159C129.912 142.159 129.384 142.689 129.384 143.343C129.384 143.996 129.912 144.526 130.564 144.526ZM127.811 130.521C128.462 130.521 128.991 129.991 128.991 129.337C128.991 128.684 128.462 128.154 127.811 128.154C127.159 128.154 126.631 128.684 126.631 129.337C126.631 129.991 127.159 130.521 127.811 130.521ZM141.379 114.149C142.03 114.149 142.558 113.619 142.558 112.965C142.558 112.311 142.03 111.782 141.379 111.782C140.727 111.782 140.199 112.311 140.199 112.965C140.199 113.619 140.727 114.149 141.379 114.149ZM157.699 104.088C158.351 104.088 158.879 103.559 158.879 102.905C158.879 102.251 158.351 101.721 157.699 101.721C157.047 101.721 156.519 102.251 156.519 102.905C156.519 103.559 157.047 104.088 157.699 104.088ZM148.064 98.9598C148.716 98.9598 149.244 98.4299 149.244 97.7762C149.244 97.1225 148.716 96.5927 148.064 96.5927C147.412 96.5927 146.884 97.1225 146.884 97.7762C146.884 98.4299 147.412 98.9598 148.064 98.9598ZM149.637 84.1654C150.289 84.1654 150.817 83.6355 150.817 82.9819C150.817 82.3282 150.289 81.7983 149.637 81.7983C148.986 81.7983 148.457 82.3282 148.457 82.9819C148.457 83.6355 148.986 84.1654 149.637 84.1654ZM153.766 61.2835C154.418 61.2835 154.946 60.7536 154.946 60.0999C154.946 59.4463 154.418 58.9164 153.766 58.9164C153.115 58.9164 152.587 59.4463 152.587 60.0999C152.587 60.7536 153.115 61.2835 153.766 61.2835ZM144.721 65.2287C145.373 65.2287 145.901 64.6988 145.901 64.0451C145.901 63.3914 145.373 62.8616 144.721 62.8616C144.07 62.8616 143.541 63.3914 143.541 64.0451C143.541 64.6988 144.07 65.2287 144.721 65.2287ZM149.834 47.6727C150.485 47.6727 151.014 47.1428 151.014 46.4892C151.014 45.8355 150.485 45.3056 149.834 45.3056C149.182 45.3056 148.654 45.8355 148.654 46.4892C148.654 47.1428 149.182 47.6727 149.834 47.6727ZM141.772 42.1495C142.423 42.1495 142.952 41.6196 142.952 40.9659C142.952 40.3123 142.423 39.7824 141.772 39.7824C141.12 39.7824 140.592 40.3123 140.592 40.9659C140.592 41.6196 141.12 42.1495 141.772 42.1495ZM128.204 38.0071C128.856 38.0071 129.384 37.4772 129.384 36.8235C129.384 36.1699 128.856 35.64 128.204 35.64C127.553 35.64 127.024 36.1699 127.024 36.8235C127.024 37.4772 127.553 38.0071 128.204 38.0071ZM114.243 22.4237C114.895 22.4237 115.423 21.8938 115.423 21.2401C115.423 20.5865 114.895 20.0566 114.243 20.0566C113.592 20.0566 113.063 20.5865 113.063 21.2401C113.063 21.8938 113.592 22.4237 114.243 22.4237ZM98.5126 14.3361C99.1642 14.3361 99.6924 13.8062 99.6924 13.1526C99.6924 12.4989 99.1642 11.969 98.5126 11.969C97.861 11.969 97.3328 12.4989 97.3328 13.1526C97.3328 13.8062 97.861 14.3361 98.5126 14.3361ZM137.839 110.598C136.266 109.809 128.204 120.264 127.811 125.984C129.056 126.313 131.665 127.247 132.137 128.351C138.626 125.59 139.412 111.387 137.839 110.598ZM146.884 112.571C144.131 111.584 137.839 121.842 137.053 125.984C139.068 125.984 140.199 128.351 138.232 132.494C145.901 128.746 149.637 113.557 146.884 112.571ZM140.592 97.7762C138.626 101.919 139.609 104.483 139.216 110.203C139.674 109.875 140.828 109.336 141.772 109.809C142.716 110.282 143.607 111.847 143.935 112.571C144.328 111.387 145.272 108.152 145.901 104.68C146.688 100.341 144.721 94.4228 143.935 94.2256C143.148 94.0283 142.558 93.6338 140.592 97.7762ZM153.766 95.0146C151.997 94.8371 146.077 102.905 145.901 111.782C148.064 110.203 149.244 111.782 149.244 116.121C154.553 113.754 157.699 95.4091 153.766 95.0146ZM149.637 95.8036C150.817 87.5188 145.901 81.7983 142.165 80.2203C141.538 85.1346 141.671 87.8957 143.935 92.8448C145.333 92.6724 145.849 93.2603 146.491 95.0146C147.015 94.6201 148.379 94.2256 149.637 95.8036ZM156.519 96.5927C159.642 87.1285 157.109 76.2751 154.553 73.7107C153.343 73.8226 152.04 76.7859 151.35 81.0093C151.631 81.2723 152.154 82.035 151.997 82.9819C151.839 83.9287 151.207 84.8229 150.911 85.1517C150.768 87.8919 150.89 90.8812 151.407 93.831C153.339 93.9851 154.375 93.3904 156.519 96.5927ZM145.901 80.2203C141.843 75.8925 140.176 73.0156 140.002 65.8204C141.825 66.1477 142.849 66.3731 144.721 67.793C148.064 69.9628 146.491 72.1327 150.424 79.234C148.654 81.0093 146.856 78.3103 145.901 80.2203ZM156.519 75.2888C157.934 67.3427 154.553 63.4533 148.654 57.3383C146.463 64.948 147.265 69.2726 150.817 77.0641C153.221 72.1341 154.499 71.1041 156.519 75.2888ZM141.772 63.6506C137.631 59.9237 136.189 57.2269 134.496 51.8151C136.505 51.6782 137.632 51.6044 141.772 54.3795C141.962 57.0644 142.176 58.5754 143.541 61.2835C142.739 61.6046 142.339 62.0294 141.772 63.6506ZM150.911 57.3383C149.052 55.1625 147.871 55.3277 145.311 60.0999C142.464 54.1738 141.89 50.4158 141.772 43.333C143.663 43.7567 144.757 44.2557 146.884 46.4892C147.018 47.8016 147.268 48.6541 148.654 48.8563C150.144 51.5823 150.817 53.2658 150.911 57.3383ZM129.384 38.9934C134.496 38.9934 140.032 44.756 141.182 52.4069C139.267 52.5898 135.01 49.9165 131.744 46.6864C127.965 42.9503 125.296 38.536 125.648 38.0071C126.303 37.0208 127.418 38.9934 129.384 38.9934ZM141.772 37.4153C138.982 30.3062 135.947 28.2405 128.991 26.5661C130.305 34.1954 132.384 38.2421 140.592 44.7138C138.205 39.9846 139.735 39.2253 141.772 37.4153ZM133.906 26.5661C128.988 19.7904 125.096 17.7883 116.21 17.295C119.057 22.5242 121.211 25.259 127.811 29.1305C126.891 24.8229 128.238 24.4314 133.906 26.5661ZM118.373 24.199C115.421 23.8281 114.466 24.4224 113.063 25.9743C119.999 31.9484 123.513 33.6789 128.991 33.6674C128.709 32.3077 128.428 31.5434 127.811 30.7085L127.647 30.6165C124.173 28.6647 122.137 27.5208 118.373 24.199ZM114.833 18.2813C114.833 18.2813 109.917 18.8731 106.181 17.295C100.479 14.8864 102.839 11.969 98.9059 10.3707C107.198 8.43689 111.513 9.82028 118.766 15.5197C116.574 15.7372 114.967 15.3616 114.833 18.2813ZM97.3328 18.8731C102.297 21.9805 105.533 23.14 112.867 23.2127C111.947 22.6556 111.681 22.0914 111.49 21.0429C106.608 20.0676 104.348 19.0471 101.855 15.7169C99.1309 15.9991 98.2172 16.5173 97.3328 18.8731ZM86.1247 12.3635C84.5197 13.3457 83.8986 14.0209 83.3719 15.5197C89.3594 17.591 92.4385 17.598 97.3328 15.5197C96.7815 14.6289 96.2358 14.2065 94.9732 13.5471C90.0029 13.6784 88.0321 13.445 86.1247 12.3635Z" fill="#6F6C6C"/>
<path fill-rule="evenodd" clip-rule="evenodd" d="M82.3877 6.73397C89.5473 3.65858 94.0001 4.02894 101.265 8.8129C99.1904 8.8129 98.2331 9.39425 97.1968 10.0235C95.9745 10.7657 94.6425 11.5745 91.2372 11.5745C86.9857 11.5745 85.3155 10.7866 82.3877 8.90762C82.7462 8.67758 83.1235 8.43118 83.5267 8.16787C83.7904 7.99565 84.0652 7.8162 84.353 7.62935C83.6742 7.30443 83.0204 7.00574 82.3877 6.73397ZM82.3877 6.73397C81.755 7.00574 81.1012 7.30443 80.4224 7.62935C80.7102 7.8162 80.985 7.99565 81.2487 8.16787C81.6519 8.43118 82.0292 8.67758 82.3877 8.90762C79.4599 10.7866 77.7897 11.5745 73.5382 11.5745C70.1329 11.5745 68.8009 10.7657 67.5786 10.0235C66.5423 9.39425 65.585 8.8129 63.5099 8.8129C70.7753 4.02894 75.2281 3.65858 82.3877 6.73397Z" fill="#CBC5C5"/>
<path d="M82.3877 6.73397C81.755 7.00574 81.1012 7.30443 80.4224 7.62935C80.7102 7.8162 80.985 7.99565 81.2487 8.16787C81.6519 8.43118 82.0292 8.67758 82.3877 8.90762C82.7462 8.67758 83.1235 8.43118 83.5267 8.16787C83.7904 7.99565 84.0652 7.8162 84.353 7.62935C83.6742 7.30443 83.0204 7.00574 82.3877 6.73397Z" fill="#6F6C6C"/>
<path d="M85.3193 155.77C85.3376 156.737 85.393 157.709 85.4871 158.729C85.94 160.051 95.8887 161.374 101.297 163.858L102.249 162.082C99.2991 162.674 90.254 156.165 85.3193 155.77Z" fill="#6F6C6C"/>
<path d="M79.2883 158.729C79.3824 157.709 79.4378 156.737 79.4561 155.77C74.5214 156.165 65.4763 162.674 62.5268 162.082L63.4782 163.858C68.8867 161.374 78.8354 160.051 79.2883 158.729Z" fill="#6F6C6C"/>
<path fill-rule="evenodd" clip-rule="evenodd" d="M113.869 50.2855L115.535 52.1379L71.0442 93.561C71.0442 93.561 72.9904 94.7947 71.0884 96.7636C69.1864 98.7326 67.5924 96.7747 67.5924 96.7747L65.7874 98.4553L66.6659 104.045L62.8652 106.027L61.0761 104.924L52.9918 121.123L44.8877 109.27L59.5685 96.9488L62.5834 97.1091L65.0513 90.1856L66.6242 88.9L65.483 87.4623L68.8661 85.0046L69.9351 86.194L113.869 50.2855ZM70.298 95.9353C71.1718 95.1951 70.6556 94.5132 70.2883 94.2647L68.5383 95.8941C68.7608 96.2162 69.4242 96.6755 70.298 95.9353Z" fill="#CBC5C5"/>
<path d="M110.835 109.623C112.205 108.122 115.061 104.863 115.529 103.829C115.997 102.795 114.564 102.175 113.789 101.994L103.061 112.17C103.201 112.954 103.745 114.417 104.802 114.005C105.858 113.593 109.264 110.912 110.835 109.623Z" fill="#CBC5C5"/>
<path d="M115.289 109.018C116.206 108.147 115.07 106.879 114.117 107.783L108.824 112.804C107.872 113.708 109.078 114.909 109.996 114.039L115.289 109.018Z" fill="#CBC5C5"/>
<path d="M111.45 103.274C112.12 102.638 112.489 101.684 112.021 101.19C111.452 100.59 110.589 100.671 109.742 101.474L102.756 108.102C101.909 108.906 101.783 109.762 102.352 110.362C102.82 110.856 103.792 110.538 104.463 109.902L111.45 103.274Z" fill="#CBC5C5"/>
<path d="M67.3986 59.4492C67.8573 59.014 67.9387 58.5345 67.6709 58.2522C67.4032 57.9699 66.8829 58.1281 66.4947 58.4963L62.1191 62.6472C61.731 63.0154 61.5455 63.5266 61.8132 63.8089C62.081 64.0912 62.5642 64.0352 63.023 63.6L67.3986 59.4492Z" fill="#CBC5C5"/>
<path d="M65.9997 57.6918C66.4584 57.2566 66.4767 56.5691 66.2089 56.2868C65.9411 56.0045 65.2164 56.0886 64.8282 56.4568L60.1703 60.8754C59.7821 61.2436 59.66 61.9629 59.9277 62.2452C60.1955 62.5275 60.883 62.5455 61.3418 62.1104L65.9997 57.6918Z" fill="#CBC5C5"/>
<path d="M61.6793 54.5505C61.3748 53.0516 60.5923 50.1111 59.8981 50.3405C59.204 50.5699 57.6388 52.0814 56.943 52.8085C56.1802 53.465 54.5884 54.9484 54.3227 55.6295C54.057 56.3106 56.9521 57.2471 58.4329 57.6302L61.6793 54.5505Z" fill="#CBC5C5"/>
<path d="M57.9564 50.9086C58.4858 50.4065 58.361 49.9215 58.1601 49.7098C57.9593 49.498 57.2382 49.4446 56.8853 49.7793L53.9212 52.5913C53.5684 52.926 53.5837 53.6489 53.7845 53.8606C53.9854 54.0723 54.4631 54.2226 54.9924 53.7205L57.9564 50.9086Z" fill="#CBC5C5"/>
<path d="M63.9175 55.7794C64.3762 55.3442 64.4577 54.8646 64.1899 54.5823C63.9221 54.3 63.4019 54.4583 63.0137 54.8265L58.6381 58.9774C58.2499 59.3456 58.0644 59.8568 58.3322 60.1391C58.6 60.4214 59.0832 60.3654 59.5419 59.9302L63.9175 55.7794Z" fill="#CBC5C5"/>
<path d="M97.1944 91.9916C98.0633 92.9075 98.0251 94.3545 97.1091 95.2234C96.1931 96.0922 94.8169 95.9873 93.948 95.0713C93.0792 94.1553 93.0466 92.7751 93.9626 91.9062C94.8786 91.0374 96.3255 91.0756 97.1944 91.9916Z" fill="#CBC5C5"/>
<path d="M117.228 116.363C119.557 114.153 119.187 111.219 115.843 110.168L111.115 114.653C111.989 118.048 114.899 118.572 117.228 116.363Z" fill="#CBC5C5"/>
<path d="M55.6916 49.369C56.2209 48.8669 56.0961 48.3819 55.8953 48.1702C55.6944 47.9585 54.9733 47.905 54.6204 48.2397L52.468 50.2818C52.1151 50.6165 52.1305 51.3394 52.3313 51.5512C52.5321 51.7629 53.0098 51.9131 53.5392 51.411L55.6916 49.369Z" fill="#CBC5C5"/>
<path fill-rule="evenodd" clip-rule="evenodd" d="M101.186 57.9369C101.365 58.0901 101.543 58.2457 101.719 58.4038L90.5786 67.5087C86.65 64.9723 81.5598 64.4915 77.0894 66.5885L70.9218 60.5626C71.381 60.266 71.8545 59.9841 72.3418 59.7177L71.5386 53.6906C73.0453 53.0122 74.5854 52.4782 76.142 52.0836L79.3722 57.2976C81.2117 56.993 83.0657 56.9257 84.8916 57.0831L88.4307 51.7674C90.0169 52.0818 91.5738 52.5325 93.0825 53.114L93.2168 59.4891C94.1594 59.9758 95.0697 60.5311 95.9394 61.1526L101.186 57.9369ZM75.7221 91.1232C78.8824 93.0521 82.7448 93.6805 86.4214 92.7481L94.0135 101.387L94.4634 104.754C92.9567 105.433 91.4167 105.967 89.86 106.361L86.6298 101.147C84.7903 101.452 82.9363 101.519 81.1105 101.362L77.5713 106.677C75.9851 106.363 74.4283 105.912 72.9196 105.331L72.7853 98.9557C72.3584 98.7354 71.9382 98.5009 71.5254 98.2526C71.7214 98.1022 71.9124 97.9308 72.0979 97.7387C72.7051 97.1101 73.102 96.4394 73.2557 95.7295C73.4125 95.0054 73.2899 94.3614 73.0601 93.8492C73.0338 93.7905 73.0061 93.7336 72.9774 93.6787L75.7221 91.1232ZM63.6043 90.0646L63.8604 89.3461L64.6647 88.6887L63.4731 87.1874L69.0644 83.1256L69.9258 84.0839C68.6931 80.7813 68.7939 77.2255 70.0291 74.0953L64.1627 67.4199C63.576 68.3585 63.0621 69.3371 62.6235 70.3464L56.4891 70.2347C55.9497 71.8279 55.5535 73.4683 55.3065 75.1349L60.8208 77.7814C60.7483 78.8843 60.7578 79.9962 60.8521 81.1077L55.4255 84.0736C55.708 85.6768 56.1341 87.2702 56.7091 88.8359L62.8641 88.6213C63.0615 89.0429 63.2732 89.4609 63.4995 89.875C63.5342 89.9384 63.5691 90.0016 63.6043 90.0646ZM76.3379 79.148L63.3468 64.3655L68.1459 59.8129L82.653 73.9865L76.3379 79.148ZM81.8488 85.4189L101.358 107.618L109.333 100.053L88.2522 79.457L81.8488 85.4189ZM101.587 67.0414L95.3891 72.8121C97.3998 76.6938 97.4088 81.1044 95.7693 84.8388L101.938 90.8657C102.484 89.9758 102.965 89.0508 103.379 88.0984L109.513 88.2101C110.052 86.6169 110.449 84.9765 110.696 83.3099L105.181 80.6634C105.254 79.5605 105.244 78.4486 105.15 77.3371L110.577 74.3712C110.294 72.768 109.868 71.1746 109.293 69.6089L103.138 69.8235C102.941 69.402 102.729 68.9839 102.503 68.5698C102.215 68.044 101.91 67.5344 101.587 67.0414ZM97.8455 95.9997C99.1903 94.7241 99.2463 92.5999 97.9707 91.2551C96.6952 89.9104 94.571 89.8543 93.2262 91.1299C91.8814 92.4055 91.8961 94.4629 93.1717 95.8077C94.4473 97.1524 96.5007 97.2753 97.8455 95.9997Z" fill="#CBC5C5"/>
</svg>
