<svg width="164" height="124" viewBox="0 0 164 124" fill="none" xmlns="http://www.w3.org/2000/svg">
<path d="M0.887695 22C0.887695 9.84974 10.7306 0 22.8725 0H141.79C153.932 0 163.775 9.84974 163.775 22V102C163.775 114.15 153.932 124 141.79 124H22.8725C10.7306 124 0.887695 114.15 0.887695 102V22Z" fill="#C5A869"/>
<path fill-rule="evenodd" clip-rule="evenodd" d="M141.79 11H22.8725C16.8016 11 11.8801 15.9249 11.8801 22V102C11.8801 108.075 16.8016 113 22.8725 113H141.79C147.861 113 152.783 108.075 152.783 102V22C152.783 15.9249 147.861 11 141.79 11ZM22.8725 0C10.7306 0 0.887695 9.84974 0.887695 22V102C0.887695 114.15 10.7306 124 22.8725 124H141.79C153.932 124 163.775 114.15 163.775 102V22C163.775 9.84974 153.932 0 141.79 0H22.8725Z" fill="#A68C55"/>
<path fill-rule="evenodd" clip-rule="evenodd" d="M81.0479 37.8632V28.432H83.249V37.8632C86.7246 38.3484 89.4746 41.0985 89.9599 44.574H108.196V46.7752H89.9599C89.4746 50.2507 86.7246 53.0008 83.249 53.486V59.7989H81.0479V53.486C77.5723 53.0008 74.8223 50.2507 74.3371 46.7752H56.2846V44.574H74.3371C74.8223 41.0985 77.5723 38.3484 81.0479 37.8632ZM76.5685 46.7752C77.0811 49.389 79.3845 51.361 82.1485 51.361C84.9124 51.361 87.2158 49.389 87.7284 46.7752H76.5685ZM87.7284 44.574H76.5685C77.0811 41.9602 79.3845 39.9882 82.1485 39.9882C84.9124 39.9882 87.2158 41.9602 87.7284 44.574ZM57.0183 48.0819L73.8081 83.0947H40.2285L57.0183 48.0819ZM107.462 48.0819L124.252 83.0947H90.6723L107.462 48.0819ZM43.7252 80.8935H70.3114L57.0183 53.1726L43.7252 80.8935ZM94.169 80.8935H120.755L107.462 53.1726L94.169 80.8935Z" fill="black"/>
<path d="M91.32 84.929C94.169 99.9705 120.755 99.0533 123.054 84.929H91.32Z" fill="black"/>
<path d="M41.2431 84.929C44.0921 99.9705 70.6782 99.0533 72.9769 84.929H41.2431Z" fill="black"/>
<path d="M102.143 40.9054L99.477 33.1309L95.6857 36.1361L102.143 40.9054Z" fill="black"/>
<path d="M89.6692 40.9054L95.6857 36.1361L91.9611 33.385L89.6692 40.9054Z" fill="black"/>
<path d="M91.9611 33.385L93.3029 28.9823H86.0005L91.9611 33.385Z" fill="black"/>
<path d="M95.6857 36.1361L99.477 33.1309L98.0546 28.9823H93.3029L91.9611 33.385L95.6857 36.1361Z" fill="black"/>
<path d="M93.3029 28.9823H98.0546L95.539 21.645L93.3029 28.9823Z" fill="black"/>
<path d="M99.477 33.1309L104.711 28.9823H98.0546L99.477 33.1309Z" fill="black"/>
<path d="M72.4266 40.9054L69.761 33.1309L65.9698 36.1361L72.4266 40.9054Z" fill="black"/>
<path d="M59.9532 40.9054L65.9698 36.1361L62.2451 33.385L59.9532 40.9054Z" fill="black"/>
<path d="M62.2451 33.385L63.5869 28.9823H56.2845L62.2451 33.385Z" fill="black"/>
<path d="M65.9698 36.1361L69.761 33.1309L68.3386 28.9823H63.5869L62.2451 33.385L65.9698 36.1361Z" fill="black"/>
<path d="M63.5869 28.9823H68.3386L65.823 21.645L63.5869 28.9823Z" fill="black"/>
<path d="M69.761 33.1309L74.9946 28.9823H68.3386L69.761 33.1309Z" fill="black"/>
<path fill-rule="evenodd" clip-rule="evenodd" d="M78.2964 60.3492H79.7638V62.5504H84.3496V60.3492H85.8171V96.4853H84.3496V64.0178H82.8822V96.4853H81.4147V64.0178H79.7638V96.4853H78.2964V60.3492Z" fill="black"/>
<path d="M85.8171 96.4853H84.3496H82.8822H81.4147H79.7638H78.2964C77.1958 96.4853 76.2786 97.4024 76.2786 98.6864H70.3114V102.172H95.3556V98.6864H88.0183C88.0183 97.4024 86.9177 96.4853 85.8171 96.4853Z" fill="black"/>
</svg>
