<svg width="164" height="124" viewBox="0 0 164 124" fill="none" xmlns="http://www.w3.org/2000/svg">
<path d="M0.775391 22C0.775391 9.84974 10.6183 0 22.7602 0H141.678C153.82 0 163.663 9.84974 163.663 22V102C163.663 114.15 153.82 124 141.678 124H22.7602C10.6183 124 0.775391 114.15 0.775391 102V22Z" fill="#C5A869"/>
<path fill-rule="evenodd" clip-rule="evenodd" d="M141.678 11H22.7602C16.6893 11 11.7678 15.9249 11.7678 22V102C11.7678 108.075 16.6893 113 22.7602 113H141.678C147.749 113 152.671 108.075 152.671 102V22C152.671 15.9249 147.749 11 141.678 11ZM22.7602 0C10.6183 0 0.775391 9.84974 0.775391 22V102C0.775391 114.15 10.6183 124 22.7602 124H141.678C153.82 124 163.663 114.15 163.663 102V22C163.663 9.84974 153.82 0 141.678 0H22.7602Z" fill="#A68C55"/>
<path d="M64.4266 93.9168L58.3734 92.2659L102.764 47.8753L108.45 48.4256L64.4266 93.9168Z" fill="black"/>
<path d="M61.3083 46.9582L55.4385 47.8753L78.184 71.1712L81.3024 67.5026L61.3083 46.9582Z" fill="black"/>
<path d="M86.255 72.6387L82.9533 75.9404L99.829 93.183L105.149 91.5321L86.255 72.6387Z" fill="black"/>
<path d="M85.5213 108.958H78.9178V79.9759L82.2195 76.6742L85.5213 79.9759V108.958Z" fill="black"/>
<path fill-rule="evenodd" clip-rule="evenodd" d="M78.9178 63.6505L82.2195 66.9523L85.5213 63.6505V46.4079H97.261C104.782 46.4079 108.817 39.254 108.817 30.6327C108.817 22.0114 104.415 15.041 97.261 15.041H78.9178V63.6505ZM85.5213 22.3783V39.6209H94.6929C98.7284 39.6209 101.48 35.402 101.48 30.6327C101.48 25.8635 99.0953 22.3783 94.6929 22.3783H85.5213Z" fill="black"/>
</svg>
