<svg width="164" height="124" viewBox="0 0 164 124" fill="none" xmlns="http://www.w3.org/2000/svg">
<path d="M0.663086 22C0.663086 9.84974 10.506 0 22.6479 0H141.566C153.708 0 163.551 9.84974 163.551 22V102C163.551 114.15 153.708 124 141.566 124H22.6479C10.506 124 0.663086 114.15 0.663086 102V22Z" fill="#C5A869"/>
<path fill-rule="evenodd" clip-rule="evenodd" d="M141.566 11H22.6479C16.577 11 11.6555 15.9249 11.6555 22V102C11.6555 108.075 16.577 113 22.6479 113H141.566C147.637 113 152.558 108.075 152.558 102V22C152.558 15.9249 147.637 11 141.566 11ZM22.6479 0C10.506 0 0.663086 9.84974 0.663086 22V102C0.663086 114.15 10.506 124 22.6479 124H141.566C153.708 124 163.551 114.15 163.551 102V22C163.551 9.84974 153.708 0 141.566 0H22.6479Z" fill="#A68C55"/>
<path d="M85.7752 36.1361C85.7752 38.0609 84.1327 39.6213 82.1066 39.6213C80.0805 39.6213 78.438 38.0609 78.438 36.1361C78.438 34.2112 80.0805 32.6509 82.1066 32.6509C84.1327 32.6509 85.7752 34.2112 85.7752 36.1361Z" fill="black"/>
<path fill-rule="evenodd" clip-rule="evenodd" d="M62.7605 27.9935C57.7736 30.3574 55.3255 33.335 55.3255 36.1361C55.3255 38.9371 57.7736 41.9147 62.7605 44.2786C67.3211 46.4404 73.5995 47.866 80.6392 48.041V43.1065H83.5741V48.041C90.6137 47.866 96.8921 46.4404 101.453 44.2786C106.44 41.9147 108.888 38.9371 108.888 36.1361C108.888 33.335 106.44 30.3574 101.453 27.9935C96.5775 25.6826 89.7393 24.213 82.1066 24.213C74.4739 24.213 67.6357 25.6826 62.7605 27.9935ZM83.5741 50.9767C90.9672 50.8016 97.6913 49.3096 102.71 46.9306C107.947 44.4481 111.823 40.7304 111.823 36.1361C111.823 31.5417 107.947 27.824 102.71 25.3415C97.3612 22.8061 90.0751 21.2781 82.1066 21.2781C74.1381 21.2781 66.852 22.8061 61.5033 25.3415C56.2662 27.824 52.3906 31.5417 52.3906 36.1361C52.3906 40.7304 56.2662 44.4481 61.5033 46.9306C66.5219 49.3096 73.246 50.8016 80.6392 50.9767V102.172H83.5741V50.9767Z" fill="black"/>
<path fill-rule="evenodd" clip-rule="evenodd" d="M57.0555 29.7396L77.233 33.4082L76.708 36.2958L56.5305 32.6272L57.0555 29.7396ZM107.692 32.6254L88.2485 36.294L87.7043 33.41L107.148 29.7414L107.692 32.6254ZM56.5305 41.1124L76.708 37.4437L77.233 40.3313L57.0555 43.9999L56.5305 41.1124ZM107.148 43.9982L87.7043 40.3295L88.2485 37.4455L107.692 41.1141L107.148 43.9982Z" fill="black"/>
<path d="M86.6924 70.071V60.7159C94.0908 56.8639 108.888 49.71 108.888 51.9112C108.888 54.1124 104.241 57.7199 101.917 59.2485C103.446 59.0651 106.503 58.955 106.503 59.9822C106.503 61.0094 93.296 67.1361 86.6924 70.071Z" fill="black"/>
<path d="M86.6924 84.5621V75.7574C92.5011 72.5167 104.852 66.6314 104.852 69.3372C104.852 71.355 100.328 74.7179 97.6983 75.7574C99.3689 75.5739 102.71 75.4639 102.71 76.4911C102.71 77.5183 92.0316 82.2998 86.6924 84.5621Z" fill="black"/>
<path d="M86.6924 90.0651C91.1885 87.7416 100.308 83.3881 100.817 84.5621C101.326 85.7361 96.2595 89.9428 93.6628 91.8994C95.1914 91.7159 98.2486 91.6059 98.2486 92.6331C98.2486 93.6603 90.5445 97.3412 86.6924 99.0532V90.0651Z" fill="black"/>
<path d="M77.5208 70.071V60.7159C70.1224 56.8639 55.3255 49.71 55.3255 51.9112C55.3255 54.1124 59.9725 57.7199 62.296 59.2485C60.7674 59.0651 57.7102 58.955 57.7102 59.9822C57.7102 61.0094 70.9173 67.1361 77.5208 70.071Z" fill="black"/>
<path d="M77.5208 84.5621V75.7574C71.7121 72.5167 59.361 66.6314 59.361 69.3372C59.361 71.355 63.8857 74.7179 66.5149 75.7574C64.8444 75.5739 61.5033 75.4639 61.5033 76.4911C61.5033 77.5183 72.1816 82.2998 77.5208 84.5621Z" fill="black"/>
<path d="M77.5208 90.0651C73.0248 87.7416 63.9054 83.3881 63.3965 84.5621C62.8877 85.7361 67.9537 89.9428 70.5504 91.8994C69.0218 91.7159 65.9646 91.6059 65.9646 92.6331C65.9646 93.6603 73.6687 97.3412 77.5208 99.0532V90.0651Z" fill="black"/>
</svg>
