<svg width="164" height="124" viewBox="0 0 164 124" fill="none" xmlns="http://www.w3.org/2000/svg">
<path d="M0.550781 22C0.550781 9.84974 10.3937 0 22.5356 0H141.454C153.595 0 163.438 9.84974 163.438 22V102C163.438 114.15 153.595 124 141.454 124H22.5356C10.3937 124 0.550781 114.15 0.550781 102V22Z" fill="#C5A869"/>
<path fill-rule="evenodd" clip-rule="evenodd" d="M141.454 11H22.5356C16.4647 11 11.5432 15.9249 11.5432 22V102C11.5432 108.075 16.4647 113 22.5356 113H141.454C147.524 113 152.446 108.075 152.446 102V22C152.446 15.9249 147.524 11 141.454 11ZM22.5356 0C10.3937 0 0.550781 9.84974 0.550781 22V102C0.550781 114.15 10.3937 124 22.5356 124H141.454C153.595 124 163.438 114.15 163.438 102V22C163.438 9.84974 153.595 0 141.454 0H22.5356Z" fill="#A68C55"/>
<path d="M89.1483 83.0948C94.1123 83.0948 98.1365 79.0707 98.1365 74.1066C98.1365 70.3785 95.8666 67.1805 92.6335 65.8192L87.1306 71.3552C88.0477 72.6392 90.6158 77.9587 85.4797 82.3145C86.5999 82.8159 87.8415 83.0948 89.1483 83.0948Z" fill="black"/>
<path d="M110.06 79.4261C105.096 79.4261 101.071 75.402 101.071 70.4379C101.071 65.4739 105.096 61.4498 110.06 61.4498C111.934 61.4498 113.675 62.0238 115.116 63.0058C114.35 64.3286 113.912 65.8646 113.912 67.503C113.912 70.5921 115.47 73.3172 117.843 74.9351C116.289 77.62 113.385 79.4261 110.06 79.4261Z" fill="black"/>
<path d="M134.456 66.7693C134.456 71.7333 130.432 75.7575 125.468 75.7575C120.504 75.7575 116.48 71.7333 116.48 66.7693C116.48 61.8053 120.504 57.7811 125.468 57.7811C130.432 57.7811 134.456 61.8053 134.456 66.7693Z" fill="black"/>
<path d="M86.03 76.6746C86.03 81.6386 82.0058 85.6628 77.0418 85.6628C72.0778 85.6628 68.0536 81.6386 68.0536 76.6746C68.0536 71.7106 72.0778 67.6864 77.0418 67.6864C82.0058 67.6864 86.03 71.7106 86.03 76.6746Z" fill="black"/>
<path d="M50.0773 25.1302H87.1306V30.6332H50.0773V25.1302Z" fill="black"/>
<path d="M24.03 42.006H60.3495V47.8758H24.03V42.006Z" fill="black"/>
<path d="M22.5625 59.2486H43.8406V64.3847H22.5625V59.2486Z" fill="black"/>
<path d="M24.03 74.29H59.6158V80.5267H24.03V74.29Z" fill="black"/>
<path d="M32.4678 90.432H85.2962V93.1835L82.7282 95.935H32.4678V90.432Z" fill="black"/>
<path d="M85.6631 69.8876C84.5087 68.2114 83.7035 67.4805 81.9945 66.5859L125.101 20.7279H131.705L85.6631 69.8876Z" fill="black"/>
<path d="M97.953 67.3196C96.9354 65.9063 96.2003 65.3335 94.8347 64.3847L134.639 20.5444H141.243L97.953 67.3196Z" fill="black"/>
<path d="M104.373 25.1302H113.178V31.3669H104.373V25.1302Z" fill="black"/>
<path d="M88.9649 40.9054H98.8702V46.7752H88.9649V40.9054Z" fill="black"/>
<path d="M101.805 77.9586C102.999 79.3353 103.848 79.9228 105.657 80.7101L84.7459 103.089H78.8761L101.805 77.9586Z" fill="black"/>
<path d="M110.06 81.8107L91.5329 103.089H97.5862L121.432 76.858L120.148 76.1243C116.296 80.3433 114.021 81.062 110.06 81.8107Z" fill="black"/>
<path d="M103.639 89.6983H115.379V95.935H103.639V89.6983Z" fill="black"/>
<path d="M126.385 73.5563H136.657V79.4261H126.385V73.5563Z" fill="black"/>
<path d="M116.48 40.9054H126.385V47.8758H116.48V40.9054Z" fill="black"/>
<path d="M108.776 57.0474H117.213V59.6154H108.776V57.0474Z" fill="black"/>
</svg>
