<svg width="164" height="124" viewBox="0 0 164 124" fill="none" xmlns="http://www.w3.org/2000/svg">
<path d="M0.326172 22C0.326172 9.84974 10.1691 0 22.311 0H141.229C153.371 0 163.214 9.84974 163.214 22V102C163.214 114.15 153.371 124 141.229 124H22.311C10.1691 124 0.326172 114.15 0.326172 102V22Z" fill="#C5A869"/>
<path fill-rule="evenodd" clip-rule="evenodd" d="M141.229 11H22.311C16.2401 11 11.3186 15.9249 11.3186 22V102C11.3186 108.075 16.2401 113 22.311 113H141.229C147.3 113 152.221 108.075 152.221 102V22C152.221 15.9249 147.3 11 141.229 11ZM22.311 0C10.1691 0 0.326172 9.84974 0.326172 22V102C0.326172 114.15 10.1691 124 22.311 124H141.229C153.371 124 163.214 114.15 163.214 102V22C163.214 9.84974 153.371 0 141.229 0H22.311Z" fill="#A68C55"/>
<path d="M82.7512 54.149L95.8343 43.106L92.3299 42.2577L100.57 34.9612L96.3771 34.1083L105.172 26.1971L92.6687 22.7456L88.9587 31.928L91.4986 32.9072L86.2154 40.636L88.3433 41.4749L82.7512 54.149Z" fill="black"/>
<path d="M80.7883 54.149L67.7052 43.106L71.2096 42.2577L62.9698 34.9612L67.1624 34.1083L58.3678 26.1971L70.8707 22.7456L74.5808 31.928L72.0409 32.9072L77.3241 40.636L75.1962 41.4749L80.7883 54.149Z" fill="black"/>
<path d="M99.9295 83.1591C99.9295 92.7477 92.1436 100.521 82.5392 100.521C72.9348 100.521 65.1489 92.7477 65.1489 83.1591C65.1489 73.5705 72.9348 65.7975 82.5392 65.7975C92.1436 65.7975 99.9295 73.5705 99.9295 83.1591Z" fill="black"/>
<path d="M59.6087 57.808H104.854V65.1829H59.6087V57.808Z" fill="black"/>
<path d="M85.6171 55.9643L102.238 51.816L99.4678 49.5113L110.087 46.5921L106.701 43.9802L118.089 40.7537L108.394 32.1497L101.007 38.7563L102.854 40.7537L94.697 45.363L96.236 47.053L85.6171 55.9643Z" fill="black"/>
<path d="M77.9223 55.9643L61.3015 51.816L64.0716 49.5113L53.4528 46.5921L56.8385 43.9802L45.4502 40.7537L55.1457 32.1497L62.5327 38.7563L60.6859 40.7537L68.8424 45.363L67.3035 47.053L77.9223 55.9643Z" fill="black"/>
</svg>
