<svg width="164" height="124" viewBox="0 0 164 124" fill="none" xmlns="http://www.w3.org/2000/svg">
<path d="M0.4375 22C0.4375 9.84974 10.2804 0 22.4223 0H141.34C153.482 0 163.325 9.84974 163.325 22V102C163.325 114.15 153.482 124 141.34 124H22.4223C10.2804 124 0.4375 114.15 0.4375 102V22Z" fill="#C5A869"/>
<path fill-rule="evenodd" clip-rule="evenodd" d="M141.34 11H22.4223C16.3514 11 11.4299 15.9249 11.4299 22V102C11.4299 108.075 16.3514 113 22.4223 113H141.34C147.411 113 152.333 108.075 152.333 102V22C152.333 15.9249 147.411 11 141.34 11ZM22.4223 0C10.2804 0 0.4375 9.84974 0.4375 22V102C0.4375 114.15 10.2804 124 22.4223 124H141.34C153.482 124 163.325 114.15 163.325 102V22C163.325 9.84974 153.482 0 141.34 0H22.4223Z" fill="#A68C55"/>
<path d="M35.1715 85.8924C36.674 88.4051 39.987 93.6988 41.2193 94.7728C42.4515 95.8467 43.902 94.1263 44.4732 93.1319L34.8803 74.1092C33.7411 73.9773 31.4955 74.1208 31.6264 75.7501C31.7573 77.3794 34.0444 83.1905 35.1715 85.8924Z" fill="black"/>
<path d="M34.159 92.2895C34.9794 93.9165 37.2011 92.8746 36.3491 91.1851L31.6157 81.799C30.7637 80.1095 28.6051 81.2764 29.4255 82.9034L34.159 92.2895Z" fill="black"/>
<path d="M43.6769 89.3737C44.2764 90.5626 45.4391 91.4675 46.3151 91.0258C47.3789 90.4893 47.6255 89.2662 46.8682 87.7644L40.6201 75.3747C39.8628 73.8729 38.7327 73.3439 37.6689 73.8803C36.7929 74.3221 36.8292 75.795 37.4287 76.984L43.6769 89.3737Z" fill="black"/>
<path d="M122.418 46.7632C122.828 47.5767 123.456 47.888 123.957 47.6355C124.457 47.3831 124.455 46.5996 124.107 45.9112L120.194 38.1521C119.847 37.4638 119.219 36.9958 118.718 37.2482C118.218 37.5006 118.095 38.1906 118.505 39.0041L122.418 46.7632Z" fill="black"/>
<path d="M125.423 45.5618C125.833 46.3753 126.774 46.6856 127.275 46.4331C127.776 46.1807 127.96 45.1458 127.613 44.4575L123.447 36.1977C123.1 35.5094 122.158 35.0425 121.658 35.2949C121.157 35.5474 120.847 36.4886 121.257 37.3021L125.423 45.5618Z" fill="black"/>
<path d="M131.549 40.9028C133.744 41.1043 138.126 41.244 138.097 40.191C138.068 39.138 136.632 36.3515 135.917 35.0898C135.328 33.765 133.941 30.9534 133.111 30.3043C132.282 29.6552 129.789 33.2617 128.646 35.1461L131.549 40.9028Z" fill="black"/>
<path d="M138.119 37.2762C138.592 38.2148 139.313 38.2437 139.688 38.0544C140.064 37.865 140.436 36.8922 140.121 36.2664L137.47 31.0103C137.155 30.3845 136.151 30.1059 135.775 30.2952C135.4 30.4845 134.994 31.0814 135.468 32.02L138.119 37.2762Z" fill="black"/>
<path d="M128.925 43.4817C129.336 44.2952 129.964 44.6064 130.464 44.354C130.965 44.1016 130.962 43.3181 130.615 42.6297L126.702 34.8706C126.355 34.1822 125.726 33.7143 125.226 33.9667C124.725 34.2191 124.602 34.9091 125.012 35.7226L128.925 43.4817Z" fill="black"/>
<path fill-rule="evenodd" clip-rule="evenodd" d="M48.9995 87.7885L121.606 47.6436L117.314 39.1335L41.8678 73.6466L48.9995 87.7885ZM59.3562 73.6184C60.5587 76.003 63.4665 76.9613 65.8511 75.7588C68.2357 74.5564 69.194 71.6485 67.9916 69.2639C66.7891 66.8793 63.944 66.0463 61.5594 67.2488C59.1748 68.4512 58.1537 71.2338 59.3562 73.6184Z" fill="black"/>
<path d="M65.1569 74.3822C63.5326 75.2013 61.5519 74.5485 60.7328 72.9242C59.9138 71.2999 60.6293 69.4445 62.2536 68.6254C63.8779 67.8064 65.7958 68.3338 66.6149 69.9581C67.434 71.5824 66.7812 73.5631 65.1569 74.3822Z" fill="black"/>
<path d="M23.2199 91.9192C25.3025 96.0492 29.5046 96.7557 32.3424 92.5776L28.1138 84.1927C23.0672 83.9905 21.1373 87.7892 23.2199 91.9192Z" fill="black"/>
<path d="M141.182 34.7895C141.656 35.7281 142.376 35.757 142.752 35.5676C143.127 35.3783 143.5 34.4055 143.185 33.7797L141.259 29.9628C140.944 29.337 139.94 29.0584 139.565 29.2477C139.189 29.437 138.784 30.0339 139.257 30.9725L141.182 34.7895Z" fill="black"/>
<path d="M128.452 85.8924C126.95 88.4051 123.636 93.6988 122.404 94.7728C121.172 95.8467 119.722 94.1263 119.15 93.1319L128.743 74.1092C129.882 73.9773 132.128 74.1208 131.997 75.7501C131.866 77.3794 129.579 83.1905 128.452 85.8924Z" fill="black"/>
<path d="M129.465 92.2895C128.644 93.9165 126.422 92.8746 127.274 91.1851L132.008 81.799C132.86 80.1095 135.018 81.2764 134.198 82.9034L129.465 92.2895Z" fill="black"/>
<path d="M119.947 89.3737C119.347 90.5626 118.184 91.4675 117.308 91.0258C116.245 90.4893 115.998 89.2662 116.755 87.7644L123.003 75.3747C123.761 73.8729 124.891 73.3439 125.955 73.8803C126.831 74.3221 126.794 75.795 126.195 76.984L119.947 89.3737Z" fill="black"/>
<path d="M41.2057 46.7632C40.7955 47.5767 40.1675 47.888 39.6669 47.6355C39.1663 47.3831 39.169 46.5996 39.5161 45.9112L43.4291 38.1521C43.7762 37.4638 44.4047 36.9958 44.9053 37.2482C45.4059 37.5006 45.5289 38.1906 45.1187 39.0041L41.2057 46.7632Z" fill="black"/>
<path d="M38.2005 45.5618C37.7903 46.3753 36.8492 46.6856 36.3486 46.4331C35.848 46.1807 35.6635 45.1458 36.0106 44.4575L40.1761 36.1977C40.5232 35.5094 41.465 35.0425 41.9656 35.2949C42.4662 35.5474 42.7763 36.4886 42.366 37.3021L38.2005 45.5618Z" fill="black"/>
<path d="M32.0743 40.9028C29.8798 41.1043 25.4978 41.244 25.5264 40.191C25.5551 39.138 26.9917 36.3515 27.7064 35.0898C28.2959 33.765 29.6827 30.9534 30.5123 30.3043C31.342 29.6552 33.8349 33.2617 34.9777 35.1461L32.0743 40.9028Z" fill="black"/>
<path d="M25.505 37.2762C25.0317 38.2148 24.3107 38.2437 23.9353 38.0544C23.5598 37.865 23.187 36.8922 23.5026 36.2664L26.1535 31.0103C26.469 30.3845 27.4729 30.1059 27.8483 30.2952C28.2238 30.4845 28.6292 31.0814 28.1559 32.02L25.505 37.2762Z" fill="black"/>
<path d="M34.6982 43.4817C34.288 44.2952 33.66 44.6064 33.1594 44.354C32.6588 44.1016 32.6615 43.3181 33.0086 42.6297L36.9216 34.8706C37.2687 34.1822 37.8972 33.7143 38.3978 33.9667C38.8984 34.2191 39.0214 34.9091 38.6112 35.7226L34.6982 43.4817Z" fill="black"/>
<path d="M98.4666 74.3822C100.091 75.2013 102.072 74.5485 102.891 72.9242C103.71 71.2999 102.994 69.4445 101.37 68.6254C99.7456 67.8064 97.8277 68.3338 97.0086 69.9581C96.1895 71.5824 96.8423 73.5631 98.4666 74.3822Z" fill="black"/>
<path d="M140.404 91.9192C138.321 96.0492 134.119 96.7557 131.281 92.5776L135.51 84.1927C140.556 83.9905 142.486 87.7892 140.404 91.9192Z" fill="black"/>
<path d="M22.4413 34.7895C21.968 35.7281 21.2471 35.757 20.8716 35.5676C20.4962 35.3783 20.1234 34.4055 20.4389 33.7797L22.364 29.9628C22.6796 29.337 23.6835 29.0584 24.0589 29.2477C24.4344 29.437 24.8398 30.0339 24.3665 30.9725L22.4413 34.7895Z" fill="black"/>
<path fill-rule="evenodd" clip-rule="evenodd" d="M114.624 87.7885L121.756 73.6466L97.4983 62.55L83.349 70.4962L114.624 87.7885ZM66.2899 61.064L42.0175 47.6436L46.3093 39.1335L79.6804 54.3992L66.2899 61.064ZM97.7724 75.7588C100.157 76.9613 103.065 76.003 104.267 73.6184C105.47 71.2338 104.449 68.4512 102.064 67.2488C99.6795 66.0463 96.8344 66.8793 95.632 69.2639C94.4295 71.6485 95.3878 74.5564 97.7724 75.7588Z" fill="black"/>
</svg>
