<svg width="164" height="124" viewBox="0 0 164 124" fill="none" xmlns="http://www.w3.org/2000/svg">
<path d="M0.212891 22C0.212891 9.84974 10.0558 0 22.1977 0H141.116C153.258 0 163.1 9.84974 163.1 22V102C163.1 114.15 153.258 124 141.116 124H22.1977C10.0558 124 0.212891 114.15 0.212891 102V22Z" fill="#C5A869"/>
<path fill-rule="evenodd" clip-rule="evenodd" d="M141.116 11H22.1977C16.1268 11 11.2053 15.9249 11.2053 22V102C11.2053 108.075 16.1268 113 22.1977 113H141.116C147.187 113 152.108 108.075 152.108 102V22C152.108 15.9249 147.187 11 141.116 11ZM22.1977 0C10.0558 0 0.212891 9.84974 0.212891 22V102C0.212891 114.15 10.0558 124 22.1977 124H141.116C153.258 124 163.1 114.15 163.1 102V22C163.1 9.84974 153.258 0 141.116 0H22.1977Z" fill="#A68C55"/>
<path d="M56.8934 101.298C53.1451 101.298 50.1064 98.2596 50.1064 94.5112C50.1064 91.8141 51.6797 89.4845 53.9585 88.3899L63.3754 96.529C62.5163 99.292 59.9391 101.298 56.8934 101.298Z" fill="black"/>
<path d="M112.658 24.8075C116.694 27.9259 116.327 29.0263 116.143 29.3932C115.96 29.76 113.025 29.2099 108.989 34.7129C104.954 40.2158 76.1551 78.0024 71.9361 83.3219C66.4332 90.2604 69.0012 97.2632 67.7172 97.63C66.69 97.9235 62.3975 94.1444 59.646 91.7597C56.8945 89.3751 51.9787 85.6702 52.1255 84.7898C52.3089 83.6892 60.0131 83.1389 63.6817 78.3697C66.6166 74.5543 98.1931 35.2633 102.202 30.3105C106.212 25.3576 106.018 21.9823 106.605 21.6888C107.338 21.3219 110.896 23.3401 112.658 24.8075Z" fill="black"/>
<path d="M106.155 101.298C109.903 101.298 112.942 98.2596 112.942 94.5112C112.942 91.8141 111.369 89.4845 109.09 88.3899L99.6729 96.529C100.532 99.292 103.109 101.298 106.155 101.298Z" fill="black"/>
<path fill-rule="evenodd" clip-rule="evenodd" d="M46.9051 29.3932C46.7217 29.0263 46.3548 27.9259 50.3903 24.8075C52.1522 23.3401 55.7098 21.3219 56.4436 21.6888C56.6228 21.7784 56.7292 22.1552 56.9046 22.7765C57.3039 24.1902 58.0606 26.8697 60.8459 30.3105C62.8218 32.7513 71.4928 43.5318 80.1314 54.2959L74.5029 61.6909C65.6477 50.0823 56.2392 37.6859 54.0589 34.7129C50.8722 30.3673 48.3717 29.7964 47.3706 29.5678C47.104 29.5069 46.9437 29.4703 46.9051 29.3932ZM82.5739 72.2518L88.4437 64.6623C93.9505 71.5372 98.3562 77.056 99.3666 78.3697C101.751 81.4689 105.839 82.7865 108.46 83.6313C109.872 84.0865 110.859 84.4044 110.923 84.7898C111.032 85.445 108.337 87.6647 105.817 89.7402C104.951 90.4535 104.106 91.1498 103.402 91.7597C103.28 91.8655 103.155 91.974 103.028 92.0848C100.277 94.4716 96.3128 97.9105 95.3311 97.63C94.9115 97.5101 94.9033 96.6816 94.8903 95.3783C94.8636 92.6932 94.8169 87.993 91.1122 83.3219C89.9015 81.7954 86.6667 77.5953 82.5739 72.2518Z" fill="black"/>
</svg>
