<svg width="164" height="168" viewBox="0 0 164 168" fill="none" xmlns="http://www.w3.org/2000/svg">
<path d="M78.1864 162.871C73.7632 162.674 70.2238 163.858 68.2575 165.238C66.2912 166.619 65.5046 168 64.3248 168C63.1451 168 60.3922 166.619 60.3922 165.436C60.9969 164.861 61.8721 164.338 62.9167 163.858C68.3252 161.374 78.2739 160.051 78.7268 158.729C78.6088 160.007 78.4299 161.36 78.1864 162.871Z" fill="#CBC5C5"/>
<path d="M78.7268 151.228C78.7279 151.242 78.7291 151.255 78.7302 151.269C78.8479 152.937 75.3224 149.038 73.5666 145.907C71.7969 142.751 70.8137 144.724 68.6508 145.907C66.4878 147.091 63.9316 146.696 64.3248 148.077C64.7181 149.458 69.8306 149.852 70.8137 149.852C71.7969 149.852 75.5329 149.852 75.7296 151.036C75.9262 152.219 70.4205 153.206 69.4373 153.206C68.4541 153.206 65.5046 151.825 63.5383 150.247C61.572 148.669 61.1787 145.513 61.1787 143.343C61.1787 141.173 61.1787 141.173 63.9316 141.173C66.4878 141.173 68.8474 138.411 71.9935 138.411C73.7632 140.581 77.3026 143.935 78.7268 151.228Z" fill="#CBC5C5"/>
<path d="M59.409 143.343C59.409 140.778 60.5888 141.962 60.5888 140.778C60.4577 140.252 59.8023 139.003 58.2292 138.214C56.2629 137.228 53.1168 135.847 53.9033 139.792C54.5325 142.948 55.0831 144.395 55.2797 144.724C57.3269 145.773 58.4853 146.515 60.5888 148.274C60.7855 145.907 59.409 144.447 59.409 143.343Z" fill="#CBC5C5"/>
<path d="M59.409 148.471C56.6562 145.907 50.3639 143.343 45.2515 143.343C45.2515 144.329 44.8582 145.513 46.2346 146.499C47.6111 147.485 49.3808 146.302 51.5437 147.288C53.2741 148.077 54.7554 150.115 55.2797 151.036C56.1566 149.599 57.0888 149.046 59.409 148.471Z" fill="#CBC5C5"/>
<path d="M49.3808 153.206C50.7965 152.732 51.1505 149.852 51.1505 148.471C48.3976 146.499 47.4144 150.247 39.5491 145.513C38.856 146.941 38.888 147.809 39.1558 151.228C40.4146 152.43 41.2331 153.014 43.0885 153.797C43.8345 149.23 45.0344 147.912 49.3808 149.063C48.1617 150.705 48.128 151.564 49.3808 153.206Z" fill="#CBC5C5"/>
<path d="M61.9653 162.082C61.9653 161.096 59.8023 158.729 59.0158 158.729C58.2292 158.729 56.0663 162.871 52.7235 162.871C50.3598 162.871 46.6197 161.885 44.6316 159.912C44.1766 157.465 44.1515 155.77 44.3914 154.587C44.7894 152.624 45.917 152.071 47.0212 151.825C47.0212 153.403 49.774 155.178 51.5437 155.178C54.0999 155.178 57.6393 149.852 58.6225 149.852C59.6057 149.852 62.5552 152.022 63.1451 155.178C67.8642 155.376 74.3531 153.206 78.8672 153.403C78.9 154.203 78.9095 154.985 78.8946 155.77C73.9599 156.165 64.9147 162.674 61.9653 162.082Z" fill="#CBC5C5"/>
<path d="M50.7572 142.751C50.4426 141.489 50.8227 140.515 51.1505 140.187C47.8097 132.94 44.7843 130.03 38.9592 125.392C38.1253 132.222 39.3067 135.552 46.6279 142.554L50.7572 142.751Z" fill="#CBC5C5"/>
<path d="M32.4703 143.343C32.4703 143.996 32.9986 144.526 33.6501 144.526C34.3017 144.526 34.8299 143.996 34.8299 143.343C34.8299 142.689 34.3017 142.159 33.6501 142.159C32.9986 142.159 32.4703 142.689 32.4703 143.343Z" fill="#CBC5C5"/>
<path d="M35.2232 129.337C35.2232 129.991 35.7514 130.521 36.403 130.521C37.0546 130.521 37.5828 129.991 37.5828 129.337C37.5828 128.684 37.0546 128.154 36.403 128.154C35.7514 128.154 35.2232 128.684 35.2232 129.337Z" fill="#CBC5C5"/>
<path d="M21.6555 112.965C21.6555 113.619 22.1837 114.149 22.8353 114.149C23.4869 114.149 24.0151 113.619 24.0151 112.965C24.0151 112.311 23.4869 111.782 22.8353 111.782C22.1837 111.782 21.6555 112.311 21.6555 112.965Z" fill="#CBC5C5"/>
<path d="M5.33502 102.905C5.33502 103.559 5.86323 104.088 6.51481 104.088C7.1664 104.088 7.69461 103.559 7.69461 102.905C7.69461 102.251 7.1664 101.721 6.51481 101.721C5.86323 101.721 5.33502 102.251 5.33502 102.905Z" fill="#CBC5C5"/>
<path d="M14.97 97.7762C14.97 98.4299 15.4982 98.9598 16.1498 98.9598C16.8014 98.9598 17.3296 98.4299 17.3296 97.7762C17.3296 97.1225 16.8014 96.5927 16.1498 96.5927C15.4982 96.5927 14.97 97.1225 14.97 97.7762Z" fill="#CBC5C5"/>
<path d="M13.397 82.9819C13.397 83.6355 13.9252 84.1654 14.5768 84.1654C15.2283 84.1654 15.7566 83.6355 15.7566 82.9819C15.7566 82.3282 15.2283 81.7983 14.5768 81.7983C13.9252 81.7983 13.397 82.3282 13.397 82.9819Z" fill="#CBC5C5"/>
<path d="M9.26767 60.0999C9.26767 60.7536 9.79588 61.2835 10.4475 61.2835C11.0991 61.2835 11.6273 60.7536 11.6273 60.0999C11.6273 59.4463 11.0991 58.9164 10.4475 58.9164C9.79588 58.9164 9.26767 59.4463 9.26767 60.0999Z" fill="#CBC5C5"/>
<path d="M18.3128 64.0451C18.3128 64.6988 18.841 65.2287 19.4926 65.2287C20.1442 65.2287 20.6724 64.6988 20.6724 64.0451C20.6724 63.3914 20.1442 62.8616 19.4926 62.8616C18.841 62.8616 18.3128 63.3914 18.3128 64.0451Z" fill="#CBC5C5"/>
<path d="M13.2003 46.4892C13.2003 47.1428 13.7285 47.6727 14.3801 47.6727C15.0317 47.6727 15.5599 47.1428 15.5599 46.4892C15.5599 45.8355 15.0317 45.3056 14.3801 45.3056C13.7285 45.3056 13.2003 45.8355 13.2003 46.4892Z" fill="#CBC5C5"/>
<path d="M21.2623 40.9659C21.2623 41.6196 21.7905 42.1495 22.4421 42.1495C23.0937 42.1495 23.6219 41.6196 23.6219 40.9659C23.6219 40.3123 23.0937 39.7824 22.4421 39.7824C21.7905 39.7824 21.2623 40.3123 21.2623 40.9659Z" fill="#CBC5C5"/>
<path d="M34.8299 36.8235C34.8299 37.4772 35.3581 38.0071 36.0097 38.0071C36.6613 38.0071 37.1895 37.4772 37.1895 36.8235C37.1895 36.1699 36.6613 35.64 36.0097 35.64C35.3581 35.64 34.8299 36.1699 34.8299 36.8235Z" fill="#CBC5C5"/>
<path d="M48.7909 21.2401C48.7909 21.8938 49.3191 22.4237 49.9707 22.4237C50.6222 22.4237 51.1505 21.8938 51.1505 21.2401C51.1505 20.5865 50.6222 20.0566 49.9707 20.0566C49.3191 20.0566 48.7909 20.5865 48.7909 21.2401Z" fill="#CBC5C5"/>
<path d="M39.5491 14.3361C39.5491 14.9898 40.0773 15.5197 40.7289 15.5197C41.3805 15.5197 41.9087 14.9898 41.9087 14.3361C41.9087 13.6825 41.3805 13.1526 40.7289 13.1526C40.0773 13.1526 39.5491 13.6825 39.5491 14.3361Z" fill="#CBC5C5"/>
<path d="M64.5215 13.1526C64.5215 13.8062 65.0497 14.3361 65.7013 14.3361C66.3529 14.3361 66.8811 13.8062 66.8811 13.1526C66.8811 12.4989 66.3529 11.969 65.7013 11.969C65.0497 11.969 64.5215 12.4989 64.5215 13.1526Z" fill="#CBC5C5"/>
<path d="M63.735 3.68419C63.735 4.33785 64.2632 4.86774 64.9147 4.86774C65.5663 4.86774 66.0945 4.33785 66.0945 3.68419C66.0945 3.03054 65.5663 2.50065 64.9147 2.50065C64.2632 2.50065 63.735 3.03054 63.735 3.68419Z" fill="#CBC5C5"/>
<path d="M44.0717 142.159C43.8095 142.883 43.4424 144.566 44.0717 145.513C37.3825 144.273 26.4457 134.609 27.1613 127.365C33.2657 129.111 36.9048 132.207 44.0717 142.159Z" fill="#CBC5C5"/>
<path d="M36.403 125.984C36.0097 120.264 27.9478 109.809 26.3747 110.598C24.8017 111.387 25.5882 125.59 32.0771 128.351C32.549 127.247 35.1577 126.313 36.403 125.984Z" fill="#CBC5C5"/>
<path d="M31.8804 140.384C28.7343 137.031 23.032 133.677 17.7229 134.466C19.0993 139.792 27.3579 142.948 30.7006 144.526C30.3074 143.343 30.8973 140.976 31.8804 140.384Z" fill="#CBC5C5"/>
<path d="M37.5828 149.852C36.9929 148.077 37.9761 146.302 37.3862 146.104C36.9142 145.947 34.0434 145.776 32.667 145.71C34.0045 147.434 35.0473 148.353 37.5828 149.852Z" fill="#CBC5C5"/>
<path d="M27.1613 125.984C26.3747 121.842 20.0825 111.584 17.3296 112.571C14.5768 113.557 18.3128 128.746 25.9815 132.494C24.0151 128.351 25.1456 125.984 27.1613 125.984Z" fill="#CBC5C5"/>
<path d="M24.9983 110.203C24.605 104.483 25.5882 101.919 23.6219 97.7762C21.6555 93.6338 21.0656 94.0283 20.2791 94.2256C19.4926 94.4228 17.5262 100.341 18.3128 104.68C18.942 108.152 19.8858 111.387 20.2791 112.571C20.6068 111.847 21.4982 110.282 22.4421 109.809C23.3859 109.336 24.5395 109.875 24.9983 110.203Z" fill="#CBC5C5"/>
<path d="M18.3128 111.782C18.1364 102.905 12.2172 94.8371 10.4475 95.0146C6.51481 95.4091 9.66094 113.754 14.97 116.121C14.97 111.782 16.1498 110.203 18.3128 111.782Z" fill="#CBC5C5"/>
<path d="M24.0151 133.085C18.1161 129.337 19.2959 126.576 15.7566 123.222C12.925 120.54 9.20213 119.475 7.69461 119.277C10.6991 127.891 13.9889 131.19 24.0151 133.085Z" fill="#CBC5C5"/>
<path d="M14.1835 119.869C13.0037 114.442 4.94175 102.905 2.58216 104.088C2.58216 106.653 6.80349 113.754 7.69461 117.699C10.6834 118.015 13.2659 119.277 14.1835 119.869Z" fill="#CBC5C5"/>
<path d="M22.0488 80.2203C18.3128 81.7983 13.397 87.5188 14.5768 95.8036C15.8352 94.2256 17.1985 94.6201 17.7229 95.0146C18.3654 93.2603 18.8808 92.6724 20.2791 92.8448C22.5429 87.8957 22.6758 85.1346 22.0488 80.2203Z" fill="#CBC5C5"/>
<path d="M9.66094 73.7107C7.10471 76.2751 4.57151 87.1285 7.69461 96.5927C9.83896 93.3904 10.875 93.9851 12.8071 93.831C13.3234 90.8812 13.4458 87.8919 13.3027 85.1517C13.0064 84.8229 12.3745 83.9287 12.2172 82.9819C12.0599 82.035 12.583 81.2723 12.8643 81.0093C12.1743 76.7859 10.8704 73.8226 9.66094 73.7107Z" fill="#CBC5C5"/>
<path d="M1.59899 87.1243C1.59899 92.8448 2.52066 95.8816 2.58216 102.313C3.17206 103.694 5.33502 103.497 4.94175 99.5515C5.22297 100.492 7.02667 101.396 6.71145 96.7899C6.39622 92.1842 1.59899 87.1243 1.59899 87.1243Z" fill="#CBC5C5"/>
<path d="M24.2118 65.8204C24.0375 73.0156 22.3708 75.8925 18.3128 80.2203C17.3576 78.3103 15.5599 81.0093 13.7902 79.234C17.7229 72.1327 16.1498 69.9628 19.4926 67.793C21.365 66.3731 22.3887 66.1477 24.2118 65.8204Z" fill="#CBC5C5"/>
<path d="M15.5599 57.3383C9.66094 63.4533 6.28025 67.3427 7.69461 75.2888C9.71466 71.1041 10.9925 72.1341 13.397 77.0641C16.9486 69.2726 17.7509 64.948 15.5599 57.3383Z" fill="#CBC5C5"/>
<path d="M4.94175 89.0969C5.62811 83.1491 5.92491 80.2203 5.33502 77.0641C4.4241 74.8731 3.49913 73.8268 1.00909 72.3299C0.0598327 77.4953 0.138069 80.3813 1.00909 85.5462C3.23002 86.2633 3.88795 87.2364 4.94175 89.0969Z" fill="#CBC5C5"/>
<path d="M6.12155 75.2888C5.33502 68.7793 8.08787 65.2287 8.08787 61.2835C8.08787 57.3383 5.33502 54.9712 5.33502 54.9712C3.55745 62.0223 3.30557 65.7562 3.17206 72.3299C4.35148 72.774 5.00256 73.4615 6.12155 75.2888Z" fill="#CBC5C5"/>
<path d="M29.7175 51.8151C28.0248 57.2269 26.583 59.9237 22.4421 63.6506C21.8751 62.0294 21.4751 61.6046 20.6724 61.2835C22.0377 58.5754 22.2522 57.0644 22.4421 54.3795C26.5819 51.6044 27.7087 51.6782 29.7175 51.8151Z" fill="#CBC5C5"/>
<path d="M18.9027 60.0999C16.3429 55.3277 15.1618 55.1625 13.3027 57.3383C13.3973 53.2658 14.0694 51.5823 15.5599 48.8563C16.9454 48.6541 17.1956 47.8016 17.3296 46.4892C19.4568 44.2557 20.5511 43.7567 22.4421 43.333C22.3236 50.4158 21.7498 54.1738 18.9027 60.0999Z" fill="#CBC5C5"/>
<path d="M11.6273 44.1221C8.83809 46.5605 7.70949 48.6122 6.90808 54.1822C7.66436 54.8299 8.03835 55.7449 8.67777 57.7328C9.57445 56.7355 10.0926 56.5943 11.0374 56.9438C12.9545 52.038 12.9571 49.2322 11.6273 44.1221Z" fill="#CBC5C5"/>
<path d="M23.032 52.4069C24.1817 44.756 29.7175 38.9934 34.8299 38.9934C36.7963 38.9934 37.9105 37.0208 38.566 38.0071C38.9175 38.536 36.2488 42.9503 32.4703 46.6864C29.2037 49.9165 24.9466 52.5898 23.032 52.4069Z" fill="#CBC5C5"/>
<path d="M35.2232 26.5661C28.2672 28.2405 25.2324 30.3062 22.4421 37.4153C24.4788 39.2253 26.0093 39.9846 23.6219 44.7138C31.83 38.2421 33.9084 34.1954 35.2232 26.5661Z" fill="#CBC5C5"/>
<path d="M21.2623 29.1305C16.4661 33.587 14.5758 36.5575 12.4138 42.544C12.4113 43.5088 12.4719 43.9981 13.0037 44.5166C13.893 43.9986 14.6279 43.8603 16.7397 44.1221C20.8157 38.0764 21.5453 34.8154 21.2623 29.1305Z" fill="#CBC5C5"/>
<path d="M48.0043 17.295C39.1182 17.7883 35.2258 19.7904 30.3074 26.5661C35.9762 24.4314 37.323 24.8229 36.403 29.1305C43.0026 25.259 45.1568 22.5242 48.0043 17.295Z" fill="#CBC5C5"/>
<path d="M38.3693 14.1389C37.9761 17.6895 28.931 24.5935 22.2454 34.2592C24.605 27.3551 25.4061 26.0202 22.4421 27.9469C27.9384 18.9581 31.4777 16.1937 38.3693 14.1389Z" fill="#CBC5C5"/>
<path d="M51.1505 25.9743C49.7481 24.4224 48.7931 23.8281 45.8414 24.199C42.0765 27.5208 40.0407 28.6647 36.5667 30.6165L36.403 30.7085C35.7861 31.5434 35.5048 32.3077 35.2232 33.6674C40.701 33.6789 44.2149 31.9484 51.1505 25.9743Z" fill="#CBC5C5"/>
<path d="M58.0326 17.295C54.2966 18.8731 49.3808 18.2813 49.3808 18.2813C49.247 15.3616 47.6398 15.7372 45.4481 15.5197C52.7011 9.82028 57.0157 8.43689 65.308 10.3707C61.3754 11.969 63.735 14.8864 58.0326 17.295Z" fill="#CBC5C5"/>
<path d="M51.3471 23.2127C58.6814 23.14 61.9165 21.9805 66.8811 18.8731C65.9967 16.5173 65.083 15.9991 62.3585 15.7169C59.8661 19.0471 57.6057 20.0676 52.7235 21.0429C52.5333 22.0914 52.2665 22.6556 51.3471 23.2127Z" fill="#CBC5C5"/>
<path d="M62.3585 2.89516C61.7575 5.76179 61.027 7.22155 57.0494 8.8129C53.5527 9.6234 52.4419 9.01722 44.8582 14.9279C44.2232 15.3274 43.8786 15.4586 43.2851 15.5197C43.3738 13.868 43.2219 13.0898 42.6952 11.969C49.4232 6.06275 53.9039 4.51149 62.3585 2.89516Z" fill="#CBC5C5"/>
<path d="M80.842 15.5197C80.3152 14.0209 79.6942 13.3457 78.0891 12.3635C76.1818 13.445 74.2109 13.6784 69.2407 13.5471C67.978 14.2065 67.4324 14.6289 66.8811 15.5197C71.7754 17.598 74.8545 17.591 80.842 15.5197Z" fill="#CBC5C5"/>
<path d="M80.842 0.133552C79.9091 1.60732 79.2246 2.43004 77.4992 3.88145C73.2664 3.61194 71.055 3.90341 67.2743 4.86774C67.4785 3.94535 67.4269 3.42357 67.2743 2.50065C73.3682 0.082413 76.2443 -0.247386 80.842 0.133552Z" fill="#CBC5C5"/>
<path d="M85.4659 162.871C89.8891 162.674 93.4285 163.858 95.3948 165.238C97.3612 166.619 98.1477 168 99.3275 168C100.507 168 103.26 166.619 103.26 165.436C102.655 164.861 101.78 164.338 100.736 163.858C95.3272 161.374 85.3785 160.051 84.9256 158.729C85.0435 160.007 85.2224 161.36 85.4659 162.871Z" fill="#CBC5C5"/>
<path d="M84.9256 151.228C84.9244 151.242 84.9233 151.255 84.9221 151.269C84.8045 152.937 88.33 149.038 90.0858 145.907C91.8555 142.751 92.8386 144.724 95.0016 145.907C97.1645 147.091 99.7208 146.696 99.3275 148.077C98.9342 149.458 93.8218 149.852 92.8386 149.852C91.8555 149.852 88.1194 149.852 87.9228 151.036C87.7262 152.219 93.2319 153.206 94.215 153.206C95.1982 153.206 98.1477 151.825 100.114 150.247C102.08 148.669 102.474 145.513 102.474 143.343C102.474 141.173 102.474 141.173 99.7208 141.173C97.1645 141.173 94.8049 138.411 91.6588 138.411C89.8891 140.581 86.3497 143.935 84.9256 151.228Z" fill="#CBC5C5"/>
<path d="M104.243 143.343C104.243 140.778 103.064 141.962 103.064 140.778C103.195 140.252 103.85 139.003 105.423 138.214C107.389 137.228 110.536 135.847 109.749 139.792C109.12 142.948 108.569 144.395 108.373 144.724C106.325 145.773 105.167 146.515 103.064 148.274C102.867 145.907 104.243 144.447 104.243 143.343Z" fill="#CBC5C5"/>
<path d="M104.243 148.471C106.996 145.907 113.288 143.343 118.401 143.343C118.401 144.329 118.794 145.513 117.418 146.499C116.041 147.485 114.272 146.302 112.109 147.288C110.378 148.077 108.897 150.115 108.373 151.036C107.496 149.599 106.564 149.046 104.243 148.471Z" fill="#CBC5C5"/>
<path d="M114.272 153.206C112.856 152.732 112.502 149.852 112.502 148.471C115.255 146.499 116.238 150.247 124.103 145.513C124.796 146.941 124.764 147.809 124.496 151.228C123.238 152.43 122.419 153.014 120.564 153.797C119.818 149.23 118.618 147.912 114.272 149.063C115.491 150.705 115.524 151.564 114.272 153.206Z" fill="#CBC5C5"/>
<path d="M101.687 162.082C101.687 161.096 103.85 158.729 104.637 158.729C105.423 158.729 107.586 162.871 110.929 162.871C113.293 162.871 117.033 161.885 119.021 159.912C119.476 157.465 119.501 155.77 119.261 154.587C118.863 152.624 117.735 152.071 116.631 151.825C116.631 153.403 113.878 155.178 112.109 155.178C109.552 155.178 106.013 149.852 105.03 149.852C104.047 149.852 101.097 152.022 100.507 155.178C95.7881 155.376 89.2992 153.206 84.7852 153.403C84.7523 154.203 84.7429 154.985 84.7578 155.77C89.6925 156.165 98.7376 162.674 101.687 162.082Z" fill="#CBC5C5"/>
<path d="M112.895 142.751C113.21 141.489 112.83 140.515 112.502 140.187C115.843 132.94 118.868 130.03 124.693 125.392C125.527 132.222 124.346 135.552 117.024 142.554L112.895 142.751Z" fill="#CBC5C5"/>
<path d="M131.182 143.343C131.182 143.996 130.654 144.526 130.002 144.526C129.351 144.526 128.822 143.996 128.822 143.343C128.822 142.689 129.351 142.159 130.002 142.159C130.654 142.159 131.182 142.689 131.182 143.343Z" fill="#CBC5C5"/>
<path d="M128.429 129.337C128.429 129.991 127.901 130.521 127.249 130.521C126.598 130.521 126.07 129.991 126.07 129.337C126.07 128.684 126.598 128.154 127.249 128.154C127.901 128.154 128.429 128.684 128.429 129.337Z" fill="#CBC5C5"/>
<path d="M141.997 112.965C141.997 113.619 141.469 114.149 140.817 114.149C140.165 114.149 139.637 113.619 139.637 112.965C139.637 112.311 140.165 111.782 140.817 111.782C141.469 111.782 141.997 112.311 141.997 112.965Z" fill="#CBC5C5"/>
<path d="M158.317 102.905C158.317 103.559 157.789 104.088 157.138 104.088C156.486 104.088 155.958 103.559 155.958 102.905C155.958 102.251 156.486 101.721 157.138 101.721C157.789 101.721 158.317 102.251 158.317 102.905Z" fill="#CBC5C5"/>
<path d="M148.682 97.7762C148.682 98.4299 148.154 98.9598 147.503 98.9598C146.851 98.9598 146.323 98.4299 146.323 97.7762C146.323 97.1225 146.851 96.5927 147.503 96.5927C148.154 96.5927 148.682 97.1225 148.682 97.7762Z" fill="#CBC5C5"/>
<path d="M150.255 82.9819C150.255 83.6355 149.727 84.1654 149.076 84.1654C148.424 84.1654 147.896 83.6355 147.896 82.9819C147.896 82.3282 148.424 81.7983 149.076 81.7983C149.727 81.7983 150.255 82.3282 150.255 82.9819Z" fill="#CBC5C5"/>
<path d="M154.385 60.0999C154.385 60.7536 153.856 61.2835 153.205 61.2835C152.553 61.2835 152.025 60.7536 152.025 60.0999C152.025 59.4463 152.553 58.9164 153.205 58.9164C153.856 58.9164 154.385 59.4463 154.385 60.0999Z" fill="#CBC5C5"/>
<path d="M145.34 64.0451C145.34 64.6988 144.811 65.2287 144.16 65.2287C143.508 65.2287 142.98 64.6988 142.98 64.0451C142.98 63.3914 143.508 62.8616 144.16 62.8616C144.811 62.8616 145.34 63.3914 145.34 64.0451Z" fill="#CBC5C5"/>
<path d="M150.452 46.4892C150.452 47.1428 149.924 47.6727 149.272 47.6727C148.621 47.6727 148.092 47.1428 148.092 46.4892C148.092 45.8355 148.621 45.3056 149.272 45.3056C149.924 45.3056 150.452 45.8355 150.452 46.4892Z" fill="#CBC5C5"/>
<path d="M142.39 40.9659C142.39 41.6196 141.862 42.1495 141.21 42.1495C140.559 42.1495 140.03 41.6196 140.03 40.9659C140.03 40.3123 140.559 39.7824 141.21 39.7824C141.862 39.7824 142.39 40.3123 142.39 40.9659Z" fill="#CBC5C5"/>
<path d="M128.822 36.8235C128.822 37.4772 128.294 38.0071 127.643 38.0071C126.991 38.0071 126.463 37.4772 126.463 36.8235C126.463 36.1699 126.991 35.64 127.643 35.64C128.294 35.64 128.822 36.1699 128.822 36.8235Z" fill="#CBC5C5"/>
<path d="M114.861 21.2401C114.861 21.8938 114.333 22.4237 113.682 22.4237C113.03 22.4237 112.502 21.8938 112.502 21.2401C112.502 20.5865 113.03 20.0566 113.682 20.0566C114.333 20.0566 114.861 20.5865 114.861 21.2401Z" fill="#CBC5C5"/>
<path d="M124.103 14.3361C124.103 14.9898 123.575 15.5197 122.923 15.5197C122.272 15.5197 121.744 14.9898 121.744 14.3361C121.744 13.6825 122.272 13.1526 122.923 13.1526C123.575 13.1526 124.103 13.6825 124.103 14.3361Z" fill="#CBC5C5"/>
<path d="M99.1309 13.1526C99.1309 13.8062 98.6027 14.3361 97.9511 14.3361C97.2995 14.3361 96.7713 13.8062 96.7713 13.1526C96.7713 12.4989 97.2995 11.969 97.9511 11.969C98.6027 11.969 99.1309 12.4989 99.1309 13.1526Z" fill="#CBC5C5"/>
<path d="M99.9174 3.68419C99.9174 4.33785 99.3892 4.86774 98.7376 4.86774C98.086 4.86774 97.5578 4.33785 97.5578 3.68419C97.5578 3.03054 98.086 2.50065 98.7376 2.50065C99.3892 2.50065 99.9174 3.03054 99.9174 3.68419Z" fill="#CBC5C5"/>
<path d="M119.581 142.159C119.843 142.883 120.21 144.566 119.581 145.513C126.27 144.273 137.207 134.609 136.491 127.365C130.387 129.111 126.748 132.207 119.581 142.159Z" fill="#CBC5C5"/>
<path d="M127.249 125.984C127.643 120.264 135.705 109.809 137.278 110.598C138.851 111.387 138.064 125.59 131.575 128.351C131.103 127.247 128.495 126.313 127.249 125.984Z" fill="#CBC5C5"/>
<path d="M131.772 140.384C134.918 137.031 140.62 133.677 145.929 134.466C144.553 139.792 136.294 142.948 132.952 144.526C133.345 143.343 132.755 140.976 131.772 140.384Z" fill="#CBC5C5"/>
<path d="M126.07 149.852C126.659 148.077 125.676 146.302 126.266 146.104C126.738 145.947 129.609 145.776 130.985 145.71C129.648 147.434 128.605 148.353 126.07 149.852Z" fill="#CBC5C5"/>
<path d="M136.491 125.984C137.278 121.842 143.57 111.584 146.323 112.571C149.076 113.557 145.34 128.746 137.671 132.494C139.637 128.351 138.507 125.984 136.491 125.984Z" fill="#CBC5C5"/>
<path d="M138.654 110.203C139.047 104.483 138.064 101.919 140.03 97.7762C141.997 93.6338 142.587 94.0283 143.373 94.2256C144.16 94.4228 146.126 100.341 145.34 104.68C144.71 108.152 143.767 111.387 143.373 112.571C143.046 111.847 142.154 110.282 141.21 109.809C140.266 109.336 139.113 109.875 138.654 110.203Z" fill="#CBC5C5"/>
<path d="M145.34 111.782C145.516 102.905 151.435 94.8371 153.205 95.0146C157.138 95.4091 153.991 113.754 148.682 116.121C148.682 111.782 147.503 110.203 145.34 111.782Z" fill="#CBC5C5"/>
<path d="M139.637 133.085C145.536 129.337 144.356 126.576 147.896 123.222C150.727 120.54 154.45 119.475 155.958 119.277C152.953 127.891 149.663 131.19 139.637 133.085Z" fill="#CBC5C5"/>
<path d="M149.469 119.869C150.649 114.442 158.711 102.905 161.07 104.088C161.07 106.653 156.849 113.754 155.958 117.699C152.969 118.015 150.386 119.277 149.469 119.869Z" fill="#CBC5C5"/>
<path d="M141.604 80.2203C145.34 81.7983 150.255 87.5188 149.076 95.8036C147.817 94.2256 146.454 94.6201 145.929 95.0146C145.287 93.2603 144.772 92.6724 143.373 92.8448C141.109 87.8957 140.977 85.1346 141.604 80.2203Z" fill="#CBC5C5"/>
<path d="M153.991 73.7107C156.548 76.2751 159.081 87.1285 155.958 96.5927C153.813 93.3904 152.777 93.9851 150.845 93.831C150.329 90.8812 150.207 87.8919 150.35 85.1517C150.646 84.8229 151.278 83.9287 151.435 82.9819C151.592 82.035 151.069 81.2723 150.788 81.0093C151.478 76.7859 152.782 73.8226 153.991 73.7107Z" fill="#CBC5C5"/>
<path d="M162.053 87.1243C162.053 92.8448 161.132 95.8816 161.07 102.313C160.48 103.694 158.317 103.497 158.711 99.5515C158.429 100.492 156.626 101.396 156.941 96.7899C157.256 92.1842 162.053 87.1243 162.053 87.1243Z" fill="#CBC5C5"/>
<path d="M139.441 65.8204C139.615 73.0156 141.282 75.8925 145.34 80.2203C146.295 78.3103 148.092 81.0093 149.862 79.234C145.929 72.1327 147.503 69.9628 144.16 67.793C142.287 66.3731 141.264 66.1477 139.441 65.8204Z" fill="#CBC5C5"/>
<path d="M148.092 57.3383C153.991 63.4533 157.372 67.3427 155.958 75.2888C153.938 71.1041 152.66 72.1341 150.255 77.0641C146.704 69.2726 145.901 64.948 148.092 57.3383Z" fill="#CBC5C5"/>
<path d="M158.711 89.0969C158.024 83.1491 157.727 80.2203 158.317 77.0641C159.228 74.8731 160.153 73.8268 162.643 72.3299C163.593 77.4953 163.514 80.3813 162.643 85.5462C160.422 86.2633 159.764 87.2364 158.711 89.0969Z" fill="#CBC5C5"/>
<path d="M157.531 75.2888C158.317 68.7793 155.564 65.2287 155.564 61.2835C155.564 57.3383 158.317 54.9712 158.317 54.9712C160.095 62.0223 160.347 65.7562 160.48 72.3299C159.301 72.774 158.65 73.4615 157.531 75.2888Z" fill="#CBC5C5"/>
<path d="M133.935 51.8151C135.628 57.2269 137.069 59.9237 141.21 63.6506C141.777 62.0294 142.177 61.6046 142.98 61.2835C141.615 58.5754 141.4 57.0644 141.21 54.3795C137.07 51.6044 135.944 51.6782 133.935 51.8151Z" fill="#CBC5C5"/>
<path d="M144.75 60.0999C147.309 55.3277 148.491 55.1625 150.35 57.3383C150.255 53.2658 149.583 51.5823 148.092 48.8563C146.707 48.6541 146.457 47.8016 146.323 46.4892C144.196 44.2557 143.101 43.7567 141.21 43.333C141.329 50.4158 141.903 54.1738 144.75 60.0999Z" fill="#CBC5C5"/>
<path d="M152.025 44.1221C154.814 46.5605 155.943 48.6122 156.744 54.1822C155.988 54.8299 155.614 55.7449 154.975 57.7328C154.078 56.7355 153.56 56.5943 152.615 56.9438C150.698 52.038 150.695 49.2322 152.025 44.1221Z" fill="#CBC5C5"/>
<path d="M140.62 52.4069C139.471 44.756 133.935 38.9934 128.822 38.9934C126.856 38.9934 125.742 37.0208 125.086 38.0071C124.735 38.536 127.404 42.9503 131.182 46.6864C134.449 49.9165 138.706 52.5898 140.62 52.4069Z" fill="#CBC5C5"/>
<path d="M128.429 26.5661C135.385 28.2405 138.42 30.3062 141.21 37.4153C139.174 39.2253 137.643 39.9846 140.03 44.7138C131.822 38.2421 129.744 34.1954 128.429 26.5661Z" fill="#CBC5C5"/>
<path d="M142.39 29.1305C147.186 33.587 149.077 36.5575 151.239 42.544C151.241 43.5088 151.18 43.9981 150.649 44.5166C149.759 43.9986 149.024 43.8603 146.913 44.1221C142.837 38.0764 142.107 34.8154 142.39 29.1305Z" fill="#CBC5C5"/>
<path d="M115.648 17.295C124.534 17.7883 128.427 19.7904 133.345 26.5661C127.676 24.4314 126.329 24.8229 127.249 29.1305C120.65 25.259 118.496 22.5242 115.648 17.295Z" fill="#CBC5C5"/>
<path d="M125.283 14.1389C125.676 17.6895 134.721 24.5935 141.407 34.2592C139.047 27.3551 138.246 26.0202 141.21 27.9469C135.714 18.9581 132.175 16.1937 125.283 14.1389Z" fill="#CBC5C5"/>
<path d="M112.502 25.9743C113.904 24.4224 114.859 23.8281 117.811 24.199C121.576 27.5208 123.612 28.6647 127.086 30.6165L127.249 30.7085C127.866 31.5434 128.148 32.3077 128.429 33.6674C122.951 33.6789 119.438 31.9484 112.502 25.9743Z" fill="#CBC5C5"/>
<path d="M105.62 17.295C109.356 18.8731 114.272 18.2813 114.272 18.2813C114.405 15.3616 116.013 15.7372 118.204 15.5197C110.951 9.82028 106.637 8.43689 98.3443 10.3707C102.277 11.969 99.9174 14.8864 105.62 17.295Z" fill="#CBC5C5"/>
<path d="M112.305 23.2127C104.971 23.14 101.736 21.9805 96.7713 18.8731C97.6557 16.5173 98.5694 15.9991 101.294 15.7169C103.786 19.0471 106.047 20.0676 110.929 21.0429C111.119 22.0914 111.386 22.6556 112.305 23.2127Z" fill="#CBC5C5"/>
<path d="M101.294 2.89516C101.895 5.76179 102.625 7.22155 106.603 8.8129C110.1 9.6234 111.21 9.01722 118.794 14.9279C119.429 15.3274 119.774 15.4586 120.367 15.5197C120.279 13.868 120.43 13.0898 120.957 11.969C114.229 6.06275 109.748 4.51149 101.294 2.89516Z" fill="#CBC5C5"/>
<path d="M82.8103 15.5197C83.3371 14.0209 83.9582 13.3457 85.5632 12.3635C87.4706 13.445 89.4414 13.6784 94.4117 13.5471C95.6743 14.2065 96.22 14.6289 96.7713 15.5197C91.877 17.598 88.7978 17.591 82.8103 15.5197Z" fill="#CBC5C5"/>
<path d="M82.8103 0.133552C83.7432 1.60732 84.4277 2.43004 86.1531 3.88145C90.3859 3.61194 92.5974 3.90341 96.378 4.86774C96.1738 3.94535 96.2255 3.42357 96.378 2.50065C90.2842 0.082413 87.408 -0.247386 82.8103 0.133552Z" fill="#CBC5C5"/>
<path d="M78.0891 163.463C78.0891 163.463 80.0565 163.858 81.8262 163.858C83.5959 163.858 85.5632 163.463 85.5632 163.463C85.5297 163.263 85.4973 163.066 85.4659 162.871C85.2224 161.36 85.0435 160.007 84.9256 158.729C84.8314 157.709 84.7761 156.737 84.7578 155.77C84.7429 154.985 84.7523 154.203 84.7852 153.403C84.8136 152.711 84.8594 152.004 84.9221 151.269L84.9256 151.228C85.0621 149.64 85.2769 147.915 85.5632 145.907C85.5632 145.907 83.7925 145.513 81.8262 145.513C79.8598 145.513 78.0891 145.907 78.0891 145.907C78.3755 147.915 78.5902 149.64 78.7268 151.228L78.7302 151.269C78.7929 152.004 78.8388 152.711 78.8672 153.403C78.9 154.203 78.9095 154.985 78.8946 155.77C78.8762 156.737 78.8209 157.709 78.7268 158.729C78.6088 160.007 78.4299 161.36 78.1864 162.871C78.1551 163.066 78.1226 163.263 78.0891 163.463Z" fill="#CBC5C5"/>
<path fill-rule="evenodd" clip-rule="evenodd" d="M78.0891 145.907C78.0891 145.907 79.8598 145.513 81.8262 145.513C83.7925 145.513 85.5632 145.907 85.5632 145.907C85.2769 147.915 85.0621 149.64 84.9256 151.228C86.3497 143.935 89.8891 140.581 91.6588 138.411C94.8049 138.411 97.1645 141.173 99.7208 141.173C102.474 141.173 102.474 141.173 102.474 143.343C102.474 145.513 102.08 148.669 100.114 150.247C98.1477 151.825 95.1982 153.206 94.215 153.206C93.2319 153.206 87.7262 152.219 87.9228 151.036C88.1194 149.852 91.8555 149.852 92.8386 149.852C93.8218 149.852 98.9342 149.458 99.3275 148.077C99.7208 146.696 97.1645 147.091 95.0016 145.907C92.8386 144.724 91.8555 142.751 90.0858 145.907C88.33 149.038 84.8045 152.937 84.9221 151.269C84.8594 152.004 84.8136 152.711 84.7852 153.403C89.2992 153.206 95.7881 155.376 100.507 155.178C101.097 152.022 104.047 149.852 105.03 149.852C106.013 149.852 109.552 155.178 112.109 155.178C113.878 155.178 116.631 153.403 116.631 151.825C117.735 152.071 118.863 152.624 119.261 154.587L120.564 153.797C119.818 149.23 118.618 147.912 114.272 149.063C115.491 150.705 115.524 151.564 114.272 153.206C112.856 152.732 112.502 149.852 112.502 148.471C115.255 146.499 116.238 150.247 124.103 145.513C124.796 146.941 124.764 147.809 124.496 151.228L126.07 149.852C126.659 148.077 125.676 146.302 126.266 146.104C126.738 145.947 129.609 145.776 130.985 145.71L132.952 144.526C133.345 143.343 132.755 140.976 131.772 140.384C134.918 137.031 140.62 133.677 145.929 134.466L139.637 133.085C145.536 129.337 144.356 126.576 147.896 123.222C150.727 120.54 154.45 119.475 155.958 119.277V117.699C152.969 118.015 150.386 119.277 149.469 119.869C150.649 114.442 158.711 102.905 161.07 104.088V102.313C160.48 103.694 158.317 103.497 158.711 99.5515C158.429 100.492 156.626 101.396 156.941 96.7899C157.256 92.1842 162.053 87.1243 162.053 87.1243L162.643 85.5462C160.422 86.2633 159.764 87.2364 158.711 89.0969C158.024 83.1491 157.727 80.2203 158.317 77.0641C159.228 74.8731 160.153 73.8268 162.643 72.3299H160.48C159.301 72.774 158.65 73.4615 157.531 75.2888C158.317 68.7793 155.564 65.2287 155.564 61.2835C155.564 57.3383 158.317 54.9712 158.317 54.9712L156.744 54.1822C155.988 54.8299 155.614 55.7449 154.975 57.7328C154.078 56.7355 153.56 56.5943 152.615 56.9438C150.698 52.038 150.695 49.2322 152.025 44.1221L151.239 42.544C151.241 43.5088 151.18 43.9981 150.649 44.5166C149.759 43.9986 149.024 43.8603 146.913 44.1221C142.837 38.0764 142.107 34.8154 142.39 29.1305L141.21 27.9469C138.246 26.0202 139.047 27.3551 141.407 34.2592C134.721 24.5935 125.676 17.6895 125.283 14.1389L124.103 14.3361C124.103 14.9898 123.575 15.5197 122.923 15.5197C122.272 15.5197 121.744 14.9898 121.744 14.3361L120.957 11.969C120.43 13.0898 120.279 13.868 120.367 15.5197C119.774 15.4586 119.429 15.3274 118.794 14.9279C111.21 9.01722 110.1 9.6234 106.603 8.8129C102.625 7.22155 101.895 5.76179 101.294 2.89516L99.9174 3.68419C99.9174 4.33785 99.3892 4.86774 98.7376 4.86774C98.086 4.86774 97.5578 4.33785 97.5578 3.68419L96.378 2.50065C96.2255 3.42357 96.1738 3.94535 96.378 4.86774C92.5974 3.90341 90.3859 3.61194 86.1531 3.88145C84.4277 2.43004 83.7432 1.60732 82.8103 0.133552H82.8093H80.843H80.842C79.9091 1.60732 79.2246 2.43004 77.4992 3.88145C73.2664 3.61194 71.055 3.90341 67.2743 4.86774C67.4785 3.94535 67.4269 3.42357 67.2743 2.50065L66.0945 3.68419C66.0945 4.33785 65.5663 4.86774 64.9147 4.86774C64.2632 4.86774 63.735 4.33785 63.735 3.68419L62.3585 2.89516C61.7575 5.76179 61.027 7.22155 57.0494 8.8129C53.5527 9.6234 52.4419 9.01722 44.8582 14.9279C44.2232 15.3274 43.8786 15.4586 43.2851 15.5197C43.3738 13.868 43.2219 13.0898 42.6952 11.969L41.9087 14.3361C41.9087 14.9898 41.3805 15.5197 40.7289 15.5197C40.0773 15.5197 39.5491 14.9898 39.5491 14.3361L38.3693 14.1389C37.9761 17.6895 28.931 24.5935 22.2454 34.2592C24.605 27.3551 25.4061 26.0202 22.4421 27.9469L21.2623 29.1305C21.5453 34.8154 20.8157 38.0764 16.7397 44.1221C14.6279 43.8603 13.893 43.9986 13.0037 44.5166C12.4719 43.9981 12.4113 43.5088 12.4138 42.544L11.6273 44.1221C12.9571 49.2322 12.9545 52.038 11.0374 56.9438C10.0926 56.5943 9.57445 56.7355 8.67777 57.7328C8.03835 55.7449 7.66436 54.8299 6.90808 54.1822L5.33502 54.9712C5.33502 54.9712 8.08787 57.3383 8.08787 61.2835C8.08787 65.2287 5.33502 68.7793 6.12155 75.2888C5.00256 73.4615 4.35148 72.774 3.17206 72.3299H1.00909C3.49913 73.8268 4.4241 74.8731 5.33502 77.0641C5.92491 80.2203 5.62811 83.1491 4.94175 89.0969C3.88795 87.2364 3.23002 86.2633 1.00909 85.5462L1.59899 87.1243C1.59899 87.1243 6.39622 92.1842 6.71145 96.7899C7.02667 101.396 5.22297 100.492 4.94175 99.5515C5.33502 103.497 3.17206 103.694 2.58216 102.313V104.088C4.94175 102.905 13.0037 114.442 14.1835 119.869C13.2659 119.277 10.6834 118.015 7.69461 117.699V119.277C9.20213 119.475 12.925 120.54 15.7566 123.222C19.2959 126.576 18.1161 129.337 24.0151 133.085L17.7229 134.466C23.032 133.677 28.7343 137.031 31.8804 140.384C30.8973 140.976 30.3074 143.343 30.7006 144.526L32.667 145.71C34.0434 145.776 36.9142 145.947 37.3862 146.104C37.9761 146.302 36.9929 148.077 37.5828 149.852L39.1558 151.228C38.888 147.809 38.856 146.941 39.5491 145.513C47.4144 150.247 48.3976 146.499 51.1505 148.471C51.1505 149.852 50.7965 152.732 49.3808 153.206C48.128 151.564 48.1617 150.705 49.3808 149.063C45.0344 147.912 43.8345 149.23 43.0885 153.797L44.3914 154.587C44.7894 152.624 45.917 152.071 47.0212 151.825C47.0212 153.403 49.774 155.178 51.5437 155.178C54.0999 155.178 57.6393 149.852 58.6225 149.852C59.6057 149.852 62.5552 152.022 63.1451 155.178C67.8642 155.376 74.3531 153.206 78.8672 153.403C78.8388 152.711 78.7929 152.004 78.7302 151.269C78.8479 152.937 75.3224 149.038 73.5666 145.907C71.7969 142.751 70.8137 144.724 68.6508 145.907C66.4878 147.091 63.9316 146.696 64.3248 148.077C64.7181 149.458 69.8306 149.852 70.8137 149.852C71.7969 149.852 75.5329 149.852 75.7296 151.036C75.9262 152.219 70.4205 153.206 69.4373 153.206C68.4541 153.206 65.5046 151.825 63.5383 150.247C61.572 148.669 61.1787 145.513 61.1787 143.343C61.1787 141.173 61.1787 141.173 63.9316 141.173C66.4878 141.173 68.8474 138.411 71.9935 138.411C73.7632 140.581 77.3026 143.935 78.7268 151.228C78.5902 149.64 78.3755 147.915 78.0891 145.907ZM60.5888 140.778C60.5888 141.962 59.409 140.778 59.409 143.343C59.409 144.447 60.7855 145.907 60.5888 148.274C58.4853 146.515 57.3269 145.773 55.2797 144.724C55.0831 144.395 54.5325 142.948 53.9033 139.792C53.1168 135.847 56.2629 137.228 58.2292 138.214C59.8023 139.003 60.4577 140.252 60.5888 140.778ZM45.2515 143.343C50.3639 143.343 56.6562 145.907 59.409 148.471C57.0888 149.046 56.1566 149.599 55.2797 151.036C54.7554 150.115 53.2741 148.077 51.5437 147.288C49.3808 146.302 47.6111 147.485 46.2346 146.499C44.8582 145.513 45.2515 144.329 45.2515 143.343ZM51.1505 140.187C50.8227 140.515 50.4426 141.489 50.7572 142.751L46.6279 142.554C39.3067 135.552 38.1253 132.222 38.9592 125.392C44.7843 130.03 47.8097 132.94 51.1505 140.187ZM44.0717 145.513C43.4424 144.566 43.8095 142.883 44.0717 142.159C36.9048 132.207 33.2657 129.111 27.1613 127.365C26.4457 134.609 37.3825 144.273 44.0717 145.513ZM33.6501 144.526C32.9986 144.526 32.4703 143.996 32.4703 143.343C32.4703 142.689 32.9986 142.159 33.6501 142.159C34.3017 142.159 34.8299 142.689 34.8299 143.343C34.8299 143.996 34.3017 144.526 33.6501 144.526ZM36.403 130.521C35.7514 130.521 35.2232 129.991 35.2232 129.337C35.2232 128.684 35.7514 128.154 36.403 128.154C37.0546 128.154 37.5828 128.684 37.5828 129.337C37.5828 129.991 37.0546 130.521 36.403 130.521ZM22.8353 114.149C22.1837 114.149 21.6555 113.619 21.6555 112.965C21.6555 112.311 22.1837 111.782 22.8353 111.782C23.4869 111.782 24.0151 112.311 24.0151 112.965C24.0151 113.619 23.4869 114.149 22.8353 114.149ZM6.51481 104.088C5.86323 104.088 5.33502 103.559 5.33502 102.905C5.33502 102.251 5.86323 101.721 6.51481 101.721C7.1664 101.721 7.69461 102.251 7.69461 102.905C7.69461 103.559 7.1664 104.088 6.51481 104.088ZM16.1498 98.9598C15.4982 98.9598 14.97 98.4299 14.97 97.7762C14.97 97.1225 15.4982 96.5927 16.1498 96.5927C16.8014 96.5927 17.3296 97.1225 17.3296 97.7762C17.3296 98.4299 16.8014 98.9598 16.1498 98.9598ZM14.5768 84.1654C13.9252 84.1654 13.397 83.6355 13.397 82.9819C13.397 82.3282 13.9252 81.7983 14.5768 81.7983C15.2283 81.7983 15.7566 82.3282 15.7566 82.9819C15.7566 83.6355 15.2283 84.1654 14.5768 84.1654ZM10.4475 61.2835C9.79588 61.2835 9.26767 60.7536 9.26767 60.0999C9.26767 59.4463 9.79588 58.9164 10.4475 58.9164C11.0991 58.9164 11.6273 59.4463 11.6273 60.0999C11.6273 60.7536 11.0991 61.2835 10.4475 61.2835ZM19.4926 65.2287C18.841 65.2287 18.3128 64.6988 18.3128 64.0451C18.3128 63.3914 18.841 62.8616 19.4926 62.8616C20.1442 62.8616 20.6724 63.3914 20.6724 64.0451C20.6724 64.6988 20.1442 65.2287 19.4926 65.2287ZM14.3801 47.6727C13.7285 47.6727 13.2003 47.1428 13.2003 46.4892C13.2003 45.8355 13.7285 45.3056 14.3801 45.3056C15.0317 45.3056 15.5599 45.8355 15.5599 46.4892C15.5599 47.1428 15.0317 47.6727 14.3801 47.6727ZM22.4421 42.1495C21.7905 42.1495 21.2623 41.6196 21.2623 40.9659C21.2623 40.3123 21.7905 39.7824 22.4421 39.7824C23.0937 39.7824 23.6219 40.3123 23.6219 40.9659C23.6219 41.6196 23.0937 42.1495 22.4421 42.1495ZM36.0097 38.0071C35.3581 38.0071 34.8299 37.4772 34.8299 36.8235C34.8299 36.1699 35.3581 35.64 36.0097 35.64C36.6613 35.64 37.1895 36.1699 37.1895 36.8235C37.1895 37.4772 36.6613 38.0071 36.0097 38.0071ZM49.9707 22.4237C49.3191 22.4237 48.7909 21.8938 48.7909 21.2401C48.7909 20.5865 49.3191 20.0566 49.9707 20.0566C50.6222 20.0566 51.1505 20.5865 51.1505 21.2401C51.1505 21.8938 50.6222 22.4237 49.9707 22.4237ZM65.7013 14.3361C65.0497 14.3361 64.5215 13.8062 64.5215 13.1526C64.5215 12.4989 65.0497 11.969 65.7013 11.969C66.3529 11.969 66.8811 12.4989 66.8811 13.1526C66.8811 13.8062 66.3529 14.3361 65.7013 14.3361ZM26.3747 110.598C27.9478 109.809 36.0097 120.264 36.403 125.984C35.1577 126.313 32.549 127.247 32.0771 128.351C25.5882 125.59 24.8017 111.387 26.3747 110.598ZM17.3296 112.571C20.0825 111.584 26.3747 121.842 27.1613 125.984C25.1456 125.984 24.0151 128.351 25.9815 132.494C18.3128 128.746 14.5768 113.557 17.3296 112.571ZM23.6219 97.7762C25.5882 101.919 24.605 104.483 24.9983 110.203C24.5395 109.875 23.3859 109.336 22.4421 109.809C21.4982 110.282 20.6068 111.847 20.2791 112.571C19.8858 111.387 18.942 108.152 18.3128 104.68C17.5262 100.341 19.4926 94.4228 20.2791 94.2256C21.0656 94.0283 21.6555 93.6338 23.6219 97.7762ZM10.4475 95.0146C12.2172 94.8371 18.1364 102.905 18.3128 111.782C16.1498 110.203 14.97 111.782 14.97 116.121C9.66094 113.754 6.51481 95.4091 10.4475 95.0146ZM14.5768 95.8036C13.397 87.5188 18.3128 81.7983 22.0488 80.2203C22.6758 85.1346 22.5429 87.8957 20.2791 92.8448C18.8808 92.6724 18.3654 93.2603 17.7229 95.0146C17.1985 94.6201 15.8352 94.2256 14.5768 95.8036ZM7.69461 96.5927C4.57151 87.1285 7.10471 76.2751 9.66094 73.7107C10.8704 73.8226 12.1743 76.7859 12.8643 81.0093C12.583 81.2723 12.0599 82.035 12.2172 82.9819C12.3745 83.9287 13.0064 84.8229 13.3027 85.1517C13.4458 87.8919 13.3234 90.8812 12.8071 93.831C10.875 93.9851 9.83896 93.3904 7.69461 96.5927ZM18.3128 80.2203C22.3708 75.8925 24.0375 73.0156 24.2118 65.8204C22.3887 66.1477 21.365 66.3731 19.4926 67.793C16.1498 69.9628 17.7229 72.1327 13.7902 79.234C15.5599 81.0093 17.3576 78.3103 18.3128 80.2203ZM7.69461 75.2888C6.28025 67.3427 9.66094 63.4533 15.5599 57.3383C17.7509 64.948 16.9486 69.2726 13.397 77.0641C10.9925 72.1341 9.71466 71.1041 7.69461 75.2888ZM22.4421 63.6506C26.583 59.9237 28.0248 57.2269 29.7175 51.8151C27.7087 51.6782 26.5819 51.6044 22.4421 54.3795C22.2522 57.0644 22.0377 58.5754 20.6724 61.2835C21.4751 61.6046 21.8751 62.0294 22.4421 63.6506ZM13.3027 57.3383C15.1618 55.1625 16.3429 55.3277 18.9027 60.0999C21.7498 54.1738 22.3236 50.4158 22.4421 43.333C20.5511 43.7567 19.4568 44.2557 17.3296 46.4892C17.1956 47.8016 16.9454 48.6541 15.5599 48.8563C14.0694 51.5823 13.3973 53.2658 13.3027 57.3383ZM34.8299 38.9934C29.7175 38.9934 24.1817 44.756 23.032 52.4069C24.9466 52.5898 29.2037 49.9165 32.4703 46.6864C36.2488 42.9503 38.9175 38.536 38.566 38.0071C37.9105 37.0208 36.7963 38.9934 34.8299 38.9934ZM22.4421 37.4153C25.2324 30.3062 28.2672 28.2405 35.2232 26.5661C33.9084 34.1954 31.83 38.2421 23.6219 44.7138C26.0093 39.9846 24.4788 39.2253 22.4421 37.4153ZM30.3074 26.5661C35.2258 19.7904 39.1182 17.7883 48.0043 17.295C45.1568 22.5242 43.0026 25.259 36.403 29.1305C37.323 24.8229 35.9762 24.4314 30.3074 26.5661ZM45.8414 24.199C48.7931 23.8281 49.7481 24.4224 51.1505 25.9743C44.2149 31.9484 40.701 33.6789 35.2232 33.6674C35.5048 32.3077 35.7861 31.5434 36.403 30.7085L36.5667 30.6165C40.0407 28.6647 42.0765 27.5208 45.8414 24.199ZM49.3808 18.2813C49.3808 18.2813 54.2966 18.8731 58.0326 17.295C63.735 14.8864 61.3754 11.969 65.308 10.3707C57.0157 8.43689 52.7011 9.82028 45.4481 15.5197C47.6398 15.7372 49.247 15.3616 49.3808 18.2813ZM66.8811 18.8731C61.9165 21.9805 58.6814 23.14 51.3471 23.2127C52.2665 22.6556 52.5333 22.0914 52.7235 21.0429C57.6057 20.0676 59.8661 19.0471 62.3585 15.7169C65.083 15.9991 65.9967 16.5173 66.8811 18.8731ZM81.8262 8.90762C78.8984 10.7866 77.2282 11.5745 72.9767 11.5745C69.5714 11.5745 68.2394 10.7657 67.0171 10.0235C65.9808 9.39425 65.0234 8.8129 62.9484 8.8129C70.2138 4.02894 74.6666 3.65858 81.8262 6.73397C88.9857 3.65858 93.4386 4.02894 100.704 8.8129C98.6289 8.8129 97.6715 9.39425 96.6353 10.0235C95.413 10.7657 94.0809 11.5745 90.6757 11.5745C86.4242 11.5745 84.754 10.7866 81.8262 8.90762ZM78.0891 12.3635C79.6942 13.3457 80.3152 14.0209 80.842 15.5197C74.8545 17.591 71.7754 17.598 66.8811 15.5197C67.4324 14.6289 67.978 14.2065 69.2407 13.5471C74.2109 13.6784 76.1818 13.445 78.0891 12.3635ZM103.064 140.778C103.064 141.962 104.243 140.778 104.243 143.343C104.243 144.447 102.867 145.907 103.064 148.274C105.167 146.515 106.325 145.773 108.373 144.724C108.569 144.395 109.12 142.948 109.749 139.792C110.536 135.847 107.389 137.228 105.423 138.214C103.85 139.003 103.195 140.252 103.064 140.778ZM118.401 143.343C113.288 143.343 106.996 145.907 104.243 148.471C106.564 149.046 107.496 149.599 108.373 151.036C108.897 150.115 110.378 148.077 112.109 147.288C114.272 146.302 116.041 147.485 117.418 146.499C118.794 145.513 118.401 144.329 118.401 143.343ZM112.502 140.187C112.83 140.515 113.21 141.489 112.895 142.751L117.024 142.554C124.346 135.552 125.527 132.222 124.693 125.392C118.868 130.03 115.843 132.94 112.502 140.187ZM119.581 145.513C120.21 144.566 119.843 142.883 119.581 142.159C126.748 132.207 130.387 129.111 136.491 127.365C137.207 134.609 126.27 144.273 119.581 145.513ZM130.002 144.526C130.654 144.526 131.182 143.996 131.182 143.343C131.182 142.689 130.654 142.159 130.002 142.159C129.351 142.159 128.822 142.689 128.822 143.343C128.822 143.996 129.351 144.526 130.002 144.526ZM127.249 130.521C127.901 130.521 128.429 129.991 128.429 129.337C128.429 128.684 127.901 128.154 127.249 128.154C126.598 128.154 126.07 128.684 126.07 129.337C126.07 129.991 126.598 130.521 127.249 130.521ZM140.817 114.149C141.469 114.149 141.997 113.619 141.997 112.965C141.997 112.311 141.469 111.782 140.817 111.782C140.165 111.782 139.637 112.311 139.637 112.965C139.637 113.619 140.165 114.149 140.817 114.149ZM157.138 104.088C157.789 104.088 158.317 103.559 158.317 102.905C158.317 102.251 157.789 101.721 157.138 101.721C156.486 101.721 155.958 102.251 155.958 102.905C155.958 103.559 156.486 104.088 157.138 104.088ZM147.503 98.9598C148.154 98.9598 148.682 98.4299 148.682 97.7762C148.682 97.1225 148.154 96.5927 147.503 96.5927C146.851 96.5927 146.323 97.1225 146.323 97.7762C146.323 98.4299 146.851 98.9598 147.503 98.9598ZM149.076 84.1654C149.727 84.1654 150.255 83.6355 150.255 82.9819C150.255 82.3282 149.727 81.7983 149.076 81.7983C148.424 81.7983 147.896 82.3282 147.896 82.9819C147.896 83.6355 148.424 84.1654 149.076 84.1654ZM153.205 61.2835C153.856 61.2835 154.385 60.7536 154.385 60.0999C154.385 59.4463 153.856 58.9164 153.205 58.9164C152.553 58.9164 152.025 59.4463 152.025 60.0999C152.025 60.7536 152.553 61.2835 153.205 61.2835ZM144.16 65.2287C144.811 65.2287 145.34 64.6988 145.34 64.0451C145.34 63.3914 144.811 62.8616 144.16 62.8616C143.508 62.8616 142.98 63.3914 142.98 64.0451C142.98 64.6988 143.508 65.2287 144.16 65.2287ZM149.272 47.6727C149.924 47.6727 150.452 47.1428 150.452 46.4892C150.452 45.8355 149.924 45.3056 149.272 45.3056C148.621 45.3056 148.092 45.8355 148.092 46.4892C148.092 47.1428 148.621 47.6727 149.272 47.6727ZM141.21 42.1495C141.862 42.1495 142.39 41.6196 142.39 40.9659C142.39 40.3123 141.862 39.7824 141.21 39.7824C140.559 39.7824 140.03 40.3123 140.03 40.9659C140.03 41.6196 140.559 42.1495 141.21 42.1495ZM127.643 38.0071C128.294 38.0071 128.822 37.4772 128.822 36.8235C128.822 36.1699 128.294 35.64 127.643 35.64C126.991 35.64 126.463 36.1699 126.463 36.8235C126.463 37.4772 126.991 38.0071 127.643 38.0071ZM113.682 22.4237C114.333 22.4237 114.861 21.8938 114.861 21.2401C114.861 20.5865 114.333 20.0566 113.682 20.0566C113.03 20.0566 112.502 20.5865 112.502 21.2401C112.502 21.8938 113.03 22.4237 113.682 22.4237ZM97.9511 14.3361C98.6027 14.3361 99.1309 13.8062 99.1309 13.1526C99.1309 12.4989 98.6027 11.969 97.9511 11.969C97.2995 11.969 96.7713 12.4989 96.7713 13.1526C96.7713 13.8062 97.2995 14.3361 97.9511 14.3361ZM137.278 110.598C135.705 109.809 127.643 120.264 127.249 125.984C128.495 126.313 131.103 127.247 131.575 128.351C138.064 125.59 138.851 111.387 137.278 110.598ZM146.323 112.571C143.57 111.584 137.278 121.842 136.491 125.984C138.507 125.984 139.637 128.351 137.671 132.494C145.34 128.746 149.076 113.557 146.323 112.571ZM140.03 97.7762C138.064 101.919 139.047 104.483 138.654 110.203C139.113 109.875 140.266 109.336 141.21 109.809C142.154 110.282 143.046 111.847 143.373 112.571C143.767 111.387 144.71 108.152 145.34 104.68C146.126 100.341 144.16 94.4228 143.373 94.2256C142.587 94.0283 141.997 93.6338 140.03 97.7762ZM153.205 95.0146C151.435 94.8371 145.516 102.905 145.34 111.782C147.503 110.203 148.682 111.782 148.682 116.121C153.991 113.754 157.138 95.4091 153.205 95.0146ZM149.076 95.8036C150.255 87.5188 145.34 81.7983 141.604 80.2203C140.977 85.1346 141.109 87.8957 143.373 92.8448C144.772 92.6724 145.287 93.2603 145.929 95.0146C146.454 94.6201 147.817 94.2256 149.076 95.8036ZM155.958 96.5927C159.081 87.1285 156.548 76.2751 153.991 73.7107C152.782 73.8226 151.478 76.7859 150.788 81.0093C151.069 81.2723 151.592 82.035 151.435 82.9819C151.278 83.9287 150.646 84.8229 150.35 85.1517C150.207 87.8919 150.329 90.8812 150.845 93.831C152.777 93.9851 153.813 93.3904 155.958 96.5927ZM145.34 80.2203C141.282 75.8925 139.615 73.0156 139.441 65.8204C141.264 66.1477 142.287 66.3731 144.16 67.793C147.503 69.9628 145.929 72.1327 149.862 79.234C148.092 81.0093 146.295 78.3103 145.34 80.2203ZM155.958 75.2888C157.372 67.3427 153.991 63.4533 148.092 57.3383C145.901 64.948 146.704 69.2726 150.255 77.0641C152.66 72.1341 153.938 71.1041 155.958 75.2888ZM141.21 63.6506C137.069 59.9237 135.628 57.2269 133.935 51.8151C135.944 51.6782 137.07 51.6044 141.21 54.3795C141.4 57.0644 141.615 58.5754 142.98 61.2835C142.177 61.6046 141.777 62.0294 141.21 63.6506ZM150.35 57.3383C148.491 55.1625 147.309 55.3277 144.75 60.0999C141.903 54.1738 141.329 50.4158 141.21 43.333C143.101 43.7567 144.196 44.2557 146.323 46.4892C146.457 47.8016 146.707 48.6541 148.092 48.8563C149.583 51.5823 150.255 53.2658 150.35 57.3383ZM128.822 38.9934C133.935 38.9934 139.471 44.756 140.62 52.4069C138.706 52.5898 134.449 49.9165 131.182 46.6864C127.404 42.9503 124.735 38.536 125.086 38.0071C125.742 37.0208 126.856 38.9934 128.822 38.9934ZM141.21 37.4153C138.42 30.3062 135.385 28.2405 128.429 26.5661C129.744 34.1954 131.822 38.2421 140.03 44.7138C137.643 39.9846 139.174 39.2253 141.21 37.4153ZM133.345 26.5661C128.427 19.7904 124.534 17.7883 115.648 17.295C118.496 22.5242 120.65 25.259 127.249 29.1305C126.329 24.8229 127.676 24.4314 133.345 26.5661ZM117.811 24.199C114.859 23.8281 113.904 24.4224 112.502 25.9743C119.438 31.9484 122.951 33.6789 128.429 33.6674C128.148 32.3077 127.866 31.5434 127.249 30.7085L127.086 30.6165C123.612 28.6647 121.576 27.5208 117.811 24.199ZM114.272 18.2813C114.272 18.2813 109.356 18.8731 105.62 17.295C99.9174 14.8864 102.277 11.969 98.3443 10.3707C106.637 8.43689 110.951 9.82028 118.204 15.5197C116.013 15.7372 114.405 15.3616 114.272 18.2813ZM96.7713 18.8731C101.736 21.9805 104.971 23.14 112.305 23.2127C111.386 22.6556 111.119 22.0914 110.929 21.0429C106.047 20.0676 103.786 19.0471 101.294 15.7169C98.5694 15.9991 97.6557 16.5173 96.7713 18.8731ZM85.5632 12.3635C83.9582 13.3457 83.3371 14.0209 82.8103 15.5197C88.7978 17.591 91.877 17.598 96.7713 15.5197C96.22 14.6289 95.6743 14.2065 94.4117 13.5471C89.4414 13.6784 87.4706 13.445 85.5632 12.3635Z" fill="#6F6C6C"/>
<path fill-rule="evenodd" clip-rule="evenodd" d="M81.8262 6.73397C88.9857 3.65858 93.4386 4.02894 100.704 8.8129C98.6289 8.8129 97.6715 9.39425 96.6353 10.0235C95.413 10.7657 94.0809 11.5745 90.6757 11.5745C86.4242 11.5745 84.754 10.7866 81.8262 8.90762C82.1846 8.67758 82.5619 8.43118 82.9651 8.16787C83.2289 7.99565 83.5037 7.8162 83.7915 7.62935C83.1127 7.30443 82.4589 7.00574 81.8262 6.73397ZM81.8262 6.73397C81.1935 7.00574 80.5396 7.30443 79.8609 7.62935C80.1487 7.8162 80.4235 7.99565 80.6872 8.16787C81.0904 8.43118 81.4677 8.67758 81.8262 8.90762C78.8984 10.7866 77.2282 11.5745 72.9767 11.5745C69.5714 11.5745 68.2394 10.7657 67.0171 10.0235C65.9808 9.39425 65.0234 8.8129 62.9484 8.8129C70.2138 4.02894 74.6666 3.65858 81.8262 6.73397Z" fill="#CBC5C5"/>
<path d="M81.8262 6.73397C81.1935 7.00574 80.5396 7.30443 79.8609 7.62935C80.1487 7.8162 80.4235 7.99565 80.6872 8.16787C81.0904 8.43118 81.4677 8.67758 81.8262 8.90762C82.1846 8.67758 82.5619 8.43118 82.9651 8.16787C83.2289 7.99565 83.5037 7.8162 83.7915 7.62935C83.1127 7.30443 82.4589 7.00574 81.8262 6.73397Z" fill="#6F6C6C"/>
<path d="M84.7578 155.77C84.7761 156.737 84.8314 157.709 84.9256 158.729C85.3785 160.051 95.3272 161.374 100.736 163.858L101.687 162.082C98.7376 162.674 89.6925 156.165 84.7578 155.77Z" fill="#6F6C6C"/>
<path d="M78.7268 158.729C78.8209 157.709 78.8762 156.737 78.8946 155.77C73.9599 156.165 64.9147 162.674 61.9653 162.082L62.9167 163.858C68.3252 161.374 78.2739 160.051 78.7268 158.729Z" fill="#6F6C6C"/>
<path fill-rule="evenodd" clip-rule="evenodd" d="M103.083 43H102.759C102.69 43.1387 102.65 43.2182 102.626 43.3021C102.594 43.4149 102.59 43.5357 102.581 43.8186C102.581 43.9202 102.583 44.02 102.584 44.119C102.585 44.2132 102.586 44.3066 102.587 44.4001L102.59 44.9865C102.633 47.0228 101.525 49.8286 99.3457 50.7965C99.0022 50.9475 98.6651 51.1035 98.3296 51.2756C98.0991 51.4206 97.9489 51.515 97.8358 51.6425C97.6245 51.8806 97.5424 52.2339 97.307 53.2475C97.2811 53.3709 97.2551 53.4895 97.2292 53.608C97.0623 54.3227 96.9164 55.0293 96.824 55.757C96.8199 55.7949 96.8158 55.8326 96.8117 55.8701L96.8016 55.963L96.8015 55.9638L96.8014 55.9648C96.7885 56.0839 96.7758 56.2015 96.7625 56.319H96.4383V56.9687L96.1142 56.8063C95.5549 55.874 95.2745 55.4065 95.054 54.9123C94.8323 54.4156 94.671 53.8918 94.3477 52.8414C94.3135 52.7283 94.2793 52.6167 94.2453 52.5062C94.2198 52.4231 94.1945 52.3405 94.1695 52.2583H93.6833C93.3849 56.797 92.0285 61.1238 91.9006 65.7397C91.8501 65.6488 91.7994 65.5579 91.7486 65.467C90.8453 63.8494 90.2508 62.1495 89.6058 60.4186L89.6049 60.4164C89.5378 60.2353 89.5374 60.2343 89.4696 60.0548H88.9834C87.8847 62.1062 87.8847 62.1062 88.3465 66.4836C88.5977 68.7869 88.7258 71.0559 88.6593 73.3738C88.2461 72.664 87.8587 71.9493 87.4925 71.2135C87.4499 71.1245 87.4073 71.0382 87.3647 70.952L87.3223 70.8659C87.2884 70.7975 87.2544 70.729 87.2203 70.6604L87.2098 70.6392L87.2062 70.632C87.1292 70.4769 87.052 70.3214 86.9755 70.1659C86.9156 70.0458 86.8571 69.9271 86.7992 69.8095C86.7709 69.7521 86.7427 69.6949 86.7146 69.638H86.3904C86.3904 69.1377 86.29 68.7154 86.1684 68.233C85.7859 66.7213 85.8483 65.108 85.4181 63.6282H85.0939C85.0864 63.6568 85.0788 63.6852 85.0712 63.7135L85.045 63.8117C84.6444 65.3069 83.923 66.6898 83.5171 68.1766C83.51 68.2025 83.503 68.2285 83.4932 68.2648L83.4733 68.3386C82.8024 67.8756 82.1865 67.4078 81.5966 66.8442C80.5853 65.8697 79.5222 65.0023 78.3991 64.1593C78.2973 64.0828 78.1954 64.0064 78.0934 63.93C77.1824 63.2474 76.27 62.5637 75.4479 61.7749C71.0623 58.2047 69.3856 56.9687 65.332 54.045C63.9755 53.3206 62.6871 52.5507 61.4263 51.6703C61.0667 51.4171 60.7055 51.1638 60.3443 50.9106L60.3437 50.9102C60.2092 50.8168 60.0752 50.7235 59.9411 50.6301C59.807 50.5367 59.6728 50.4432 59.5382 50.3498C58.7701 49.8024 58.0051 49.307 57.1608 48.8847C56.5628 48.594 55.9648 48.3 55.3716 47.9979C54.8354 47.7218 54.2975 47.4491 53.7597 47.1763L53.7591 47.176C53.6181 47.1045 53.4775 47.0326 53.3369 46.9608C53.1963 46.8889 53.0557 46.817 52.9147 46.7456C51.4124 45.974 49.9133 45.209 48.3381 44.5934C48.2026 44.5417 48.0703 44.4915 47.938 44.4414L47.9373 44.4411L47.9362 44.4407C46.9913 44.0736 46.2442 43.9177 45.2265 43.9746C44.3854 44.0915 43.8408 44.6373 43.3206 45.2853C42.7112 46.2372 42.3191 47.3936 42.4714 48.5225C43.0418 50.2952 45.0289 50.9945 46.5781 51.7954C46.6688 51.8425 46.7579 51.8879 46.8469 51.9334C46.8469 52.5376 46.7418 52.9697 46.5586 53.5399C46.5447 53.5832 46.5308 53.6266 46.5168 53.67L46.5167 53.6703L46.5164 53.6711C46.2477 54.5063 45.9779 55.3452 45.9363 56.228C45.9776 56.8934 46.0047 57.3297 46.1443 57.7262C46.4103 58.4815 47.0849 59.0924 49.0446 60.8669C50.2228 61.8999 51.0542 62.8599 51.4594 64.4046C51.7268 65.5091 51.991 66.5584 52.5144 67.5719C53.4933 69.2059 55.5547 71.1794 57.4055 71.6813C57.5076 71.704 57.6064 71.7268 57.7053 71.7495C57.6081 72.0939 57.5125 72.4382 57.4168 72.7825C57.378 72.9284 57.3392 73.0693 57.3004 73.2103L57.3001 73.2113C56.8399 74.8324 56.7151 76.0343 57.4946 77.5774C58.479 79.1911 61.1153 80.4922 62.82 81.1296C62.9558 81.1797 63.0891 81.228 63.2212 81.2759L63.2237 81.2769C63.2752 81.2955 63.3264 81.3141 63.3775 81.3327L63.3748 81.3545L63.3723 81.3744L63.3684 81.4046L63.3633 81.4431L63.3585 81.4791C63.3528 81.5219 63.3472 81.5646 63.3419 81.6072C63.3337 81.6782 63.325 81.7487 63.3164 81.8187L63.3163 81.8191L63.3163 81.8196L63.3061 81.9024C63.3028 81.9292 63.2996 81.9558 63.2965 81.9824C63.1555 83.108 63.0631 83.964 63.6449 84.971C64.6675 86.6327 65.1829 88.3121 65.3401 90.2629C65.4778 92.1438 65.6804 94.0231 65.9478 95.8877C65.9867 96.149 66.0239 96.4103 66.0612 96.6716L66.0613 96.6722C66.1229 97.1644 66.1844 97.6533 66.2655 98.1438C66.4292 99.0274 66.6722 99.5358 67.4291 100.06C67.9947 100.363 68.3901 100.613 68.8066 101.108C69.2636 101.67 69.7482 102.196 70.2457 102.723C70.6363 103.132 70.941 103.458 71.163 103.98C71.1549 104.477 70.9912 104.758 70.7092 105.162C70.6412 105.253 70.5747 105.343 70.5083 105.434C69.8341 106.369 69.1113 107.172 68.2394 107.927C64.2488 111.363 61.6068 115.791 57.4768 118.868C57.0473 119.185 56.626 119.509 56.2046 119.836C56.1082 119.911 56.0117 119.985 55.9153 120.059C55.8189 120.134 55.7225 120.208 55.626 120.283C55.5134 120.369 55.4008 120.456 55.2881 120.542L55.1559 120.644C55.0874 120.697 55.0188 120.749 54.9502 120.802C55.0708 120.924 55.1921 121.049 55.3146 121.175C56.3741 122.263 57.5196 123.439 59.0115 123.809C59.851 123.884 60.3323 123.552 60.9433 123.041C61.0162 122.977 61.087 122.914 61.1575 122.852C61.1952 122.818 61.2328 122.785 61.2707 122.751C61.8509 122.267 62.4132 121.796 62.901 121.218C63.3335 120.681 63.5498 120.412 63.7742 120.15C63.9987 119.888 64.2313 119.632 64.6967 119.121L64.736 119.078C65.2155 118.548 65.6944 118.019 66.1455 117.464C66.7695 116.682 67.4096 115.931 68.0952 115.205C70.095 113.098 71.7481 110.79 73.2844 108.326C73.3671 108.192 73.3671 108.192 73.4481 108.06C73.547 107.898 73.6426 107.742 73.7398 107.584C74.0996 106.98 74.4804 106.605 75.046 106.184V107.808L75.8563 107.971V108.296C75.9211 108.341 75.9845 108.385 76.0478 108.429C76.0796 108.451 76.1113 108.473 76.1432 108.495C76.7655 108.846 77.3797 109.203 77.9713 109.606C78.0639 109.67 78.1563 109.735 78.2488 109.8C78.9184 110.268 79.5913 110.739 80.373 110.993C81.9321 111.283 83.1994 111.029 84.5283 110.199C86.1198 109.2 87.7874 108.461 89.5247 107.755C89.5821 107.731 89.6152 107.718 89.6444 107.706L89.7938 107.646V107.321C89.6787 107.222 89.5669 107.126 89.455 107.03C89.0272 106.704 88.6139 106.366 88.2023 106.018C88.1607 105.983 88.1197 105.948 88.0789 105.914L88.0279 105.87C87.9953 105.843 87.9628 105.815 87.93 105.788L87.9285 105.786C87.7923 105.672 87.7917 105.672 87.6578 105.559C87.5654 105.482 87.4763 105.408 87.3887 105.331L87.3882 105.331C87.0527 105.03 86.8839 104.879 86.7196 104.722C86.5533 104.564 86.3916 104.401 86.0663 104.072L98.3831 104.235C98.5737 104.57 98.6591 104.721 98.7071 104.882C98.7461 105.013 98.7605 105.151 98.7866 105.401L98.7971 105.503C98.879 106.302 98.9586 107.078 99.1902 107.849C99.4915 109.154 99.6426 109.808 99.7236 110.472C99.8051 111.139 99.8157 111.815 99.8368 113.172C99.84 113.334 99.84 113.334 99.8417 113.493H100.166V114.143C100.516 114.807 100.712 115.311 100.752 116.069C100.756 116.18 100.759 116.289 100.764 116.397C100.783 116.782 100.799 117.167 100.814 117.554H100.49L100.328 119.178C103.634 120.283 106.528 122.35 109.248 124.472C109.327 124.533 109.366 124.564 109.406 124.594C109.444 124.624 109.482 124.655 109.557 124.715C109.747 124.861 109.934 125.009 110.122 125.156L110.123 125.157C110.65 125.579 111.016 125.86 111.672 126C112.39 123.378 111.886 121.085 111.163 118.523C111.115 118.359 111.069 118.2 111.024 118.041C110.781 117.195 110.533 116.35 110.274 115.509C110.199 115.27 110.125 115.031 110.052 114.793C109.713 113.656 109.355 112.53 108.958 111.412L108.956 111.407L108.955 111.405L108.953 111.399L108.952 111.395C108.489 110.063 108.257 109.393 108.03 108.722C107.802 108.049 107.579 107.373 107.134 106.022L107.08 105.857C106.891 105.28 106.702 104.704 106.488 104.136C106.091 103.173 105.716 102.201 105.344 101.228C105.316 101.154 105.288 101.082 105.261 101.01C105.248 100.976 105.235 100.942 105.222 100.909L105.205 100.864L105.19 100.824H104.866C104.608 99.7129 104.219 98.636 103.65 97.6468C103.355 97.14 103.12 96.6414 102.911 96.094C102.728 95.6132 102.537 95.173 102.273 94.7329C102 94.2813 101.804 93.8233 101.615 93.3328C101.516 93.0664 101.41 92.8016 101.3 92.5401C101.015 92.0772 100.788 91.6598 100.589 91.1514C100.517 90.9435 100.448 90.7421 100.378 90.5406C100.358 90.4838 100.339 90.427 100.319 90.3701C100.297 90.3061 100.275 90.242 100.253 90.1779L100.251 90.1736C100.168 89.9338 100.085 89.6939 100.004 89.454C100.242 89.454 100.364 89.454 100.482 89.4331C100.604 89.4114 100.722 89.3671 100.963 89.277L101.156 89.1936C101.258 89.1498 101.315 89.1249 101.493 89.0479C101.807 88.9131 102.122 88.7783 102.435 88.6419C102.488 87.9857 102.496 87.6088 102.156 87.0355C100.876 85.5005 99.8125 83.9575 99.3555 81.9824H99.6796C99.6796 82.3072 99.6796 82.3072 99.8627 82.5476C99.9502 82.6418 100.035 82.7344 100.119 82.827C100.216 82.931 100.31 83.0333 100.404 83.1356C100.509 83.2477 100.611 83.3565 100.714 83.4637C102.02 84.8541 103.363 86.1892 105.19 86.8552C105.819 86.938 106.148 86.9543 106.7 86.644C106.848 86.5498 106.99 86.4589 107.134 86.3679C108.178 85.7426 109.198 85.1156 110.173 84.3879C110.833 83.8958 111.5 83.4751 112.226 83.0885C112.314 83.0447 112.398 83.0008 112.483 82.9569V82.3072C111.638 82.2309 110.902 82.0766 110.103 81.7923C109.841 81.6981 109.577 81.6072 109.311 81.5178C109.285 81.5091 109.258 81.5004 109.232 81.4917L109.181 81.4745L109.107 81.4497L109.106 81.4495C109.04 81.4271 108.974 81.4049 108.907 81.383L108.906 81.3825C108.78 81.3404 108.659 81.3 108.536 81.2596C108.446 81.2287 108.358 81.1995 108.269 81.1703V80.8454C106.287 79.9277 104.932 78.9678 103.731 77.1096C104.169 77.1794 104.532 77.2671 104.935 77.4539C105.554 77.7885 106.151 78.1069 106.83 78.2969C107.066 78.3538 107.066 78.3538 107.297 78.409V78.7339C107.424 78.807 107.494 78.8472 107.566 78.8841C107.654 78.9292 107.744 78.9694 107.945 79.0587C108.625 79.0587 108.812 78.9483 109.343 78.5633C109.985 78.0809 110.595 77.6229 111.335 77.3061C111.363 77.2952 111.391 77.2844 111.418 77.2735L111.647 77.1833C111.71 77.1587 111.772 77.1341 111.834 77.1096V76.7847C112.101 76.7847 112.221 76.7847 112.337 76.7607C112.432 76.7409 112.524 76.7047 112.691 76.6386C112.906 76.5455 113.017 76.4976 113.131 76.4598C113.251 76.4197 113.376 76.3909 113.631 76.3316C114.187 76.1903 114.708 76.0327 115.238 75.8102C115.923 75.2595 116.34 74.7187 116.534 73.8611C116.441 73.8358 116.348 73.8106 116.255 73.7853L116.023 73.7227C114.415 73.2876 112.805 72.852 111.228 72.3115C111.175 72.293 111.122 72.2744 111.07 72.256L111.008 72.234C110.963 72.218 110.917 72.2021 110.872 72.1864C110.824 72.1697 110.776 72.1534 110.729 72.1372L110.727 72.1365L110.725 72.1357C110.228 71.9647 109.793 71.8154 109.403 71.4247C110.64 71.2655 111.744 70.6012 112.787 69.9547C112.817 69.9359 112.847 69.9172 112.877 69.8985C112.927 69.8673 112.976 69.8362 113.026 69.8053L113.027 69.8045C113.116 69.7486 113.204 69.693 113.293 69.638C113.928 69.2433 114.563 68.8486 115.195 68.4474C115.46 68.2785 115.75 68.1036 116.055 67.9206C117.687 66.9382 119.709 65.722 120.1 63.953C119.56 63.7971 119.02 63.6395 118.482 63.4804C118.37 63.4479 118.258 63.415 118.147 63.3821C118.035 63.3492 117.923 63.3163 117.811 63.2838C116.314 62.8502 114.878 62.371 113.453 61.7343C113.137 61.593 112.82 61.4565 112.499 61.325C112.429 61.2975 112.36 61.2707 112.292 61.244L112.29 61.2431C112.246 61.226 112.202 61.2088 112.158 61.1918L112.32 60.8669C114.469 59.7007 115.769 58.0683 116.716 55.822C117.414 54.1246 118.164 52.5231 119.127 50.9589C119.493 50.3855 119.85 49.8089 120.192 49.2193C120.524 48.4543 120.493 47.8501 120.262 47.0607C119.963 46.9609 119.848 46.9224 119.74 46.9373C119.672 46.9466 119.607 46.977 119.501 47.0266C119.398 47.0964 119.297 47.1646 119.198 47.2328C118.957 47.3904 118.717 47.5496 118.479 47.7104C117.583 48.3682 116.746 48.7385 115.67 48.9919C115.591 49.0101 115.511 49.028 115.432 49.0458C114.346 49.291 113.331 49.5199 112.39 50.1695C112.314 50.2274 112.239 50.2848 112.166 50.3417C112.109 50.3853 112.053 50.4286 111.996 50.4716C111.865 50.5689 111.732 50.666 111.599 50.7634L111.598 50.7641C110.658 51.4522 109.692 52.1583 108.977 53.0786C108.928 53.1479 108.88 53.2166 108.833 53.2846L108.832 53.2855C108.806 53.3223 108.781 53.3589 108.755 53.3953C108.687 53.4928 108.618 53.5901 108.549 53.6873C108.068 54.3657 107.588 55.0434 107.259 55.8106L107.214 55.9369C107.187 56.0108 107.16 56.084 107.134 56.1566C107.06 56.1192 106.985 56.0818 106.911 56.0445C106.763 55.9699 106.615 55.8956 106.467 55.822L106.162 55.6693C106.162 55.4463 106.162 55.3253 106.131 55.213C106.094 55.0799 106.014 54.959 105.838 54.6947H105.514C105.514 54.2607 105.514 54.1166 105.476 53.9835C105.457 53.9174 105.428 53.854 105.386 53.7591C104.953 53.0168 104.736 52.3168 104.569 51.4754C104.54 51.3097 104.511 51.1506 104.48 50.9898C104.135 49.1084 103.963 48.168 103.798 47.2263C103.633 46.285 103.475 45.3425 103.159 43.458C103.139 43.3402 103.13 43.2822 103.12 43.2241C103.111 43.1677 103.101 43.1113 103.083 43ZM47.9005 48.2886C46.8001 47.8208 45.7532 47.4456 44.5782 47.2231V47.5479C45.3026 48.6459 46.3739 49.5084 47.5034 50.1598C47.5545 50.1879 47.6046 50.216 47.6543 50.2439L47.6549 50.2442L47.6552 50.2444C47.6999 50.2695 47.7443 50.2944 47.7887 50.3189C48.176 50.535 48.5633 50.7477 48.9539 50.9589C49.5228 51.2594 50.0802 51.5713 50.628 51.9075C51.2909 52.4467 51.5291 53.0607 51.709 53.8826C50.7188 53.8663 49.7691 53.8712 48.7918 54.045C48.5941 55.0082 48.4774 56.025 48.7918 56.9687C50.3104 59.3742 52.414 60.8166 55.075 61.6628C55.3663 61.7547 55.6671 61.844 55.9726 61.9347C57.3631 62.3476 58.8501 62.7892 59.9742 63.6282C60.2578 64.2178 60.3907 64.7652 60.4604 65.4149C59.6501 65.3239 58.9273 65.0722 58.1639 64.7993C56.7799 64.299 55.404 63.8328 53.9779 63.4658C53.7493 64.1528 53.7364 64.7814 53.9163 65.4863C55.0199 67.5475 56.7362 68.4035 58.8333 69.2222C59.2044 69.3651 59.5723 69.5113 59.9402 69.6623C61.4976 70.3137 63.0728 70.8935 64.7453 71.1502C64.9253 71.1731 65.1019 71.1948 65.2775 71.2165L65.2785 71.2166L65.279 71.2167L65.2798 71.2168C65.4022 71.2319 65.5242 71.2469 65.6464 71.2622V73.3738C64.4261 73.2698 63.2689 73.0164 62.081 72.7241C61.5883 72.5893 61.1281 72.4804 60.6224 72.3992C59.8071 73.0592 58.7197 74.1454 58.6777 75.1605C59.2368 76.1415 59.2368 76.1415 61.1265 77.4523C61.1496 77.4674 61.1726 77.4825 61.1956 77.4975L61.2672 77.5442L61.268 77.5448C61.3781 77.6166 61.4869 77.6875 61.5948 77.7593C62.1258 78.1099 62.4857 78.3475 62.8761 78.513C64.8828 79.3633 67.4873 78.88 69.698 79.0587C70.0471 79.3832 70.2753 79.9445 70.5083 80.3581L69.698 80.5205V80.8454C69.5455 80.8454 69.4648 80.8454 69.3856 80.8566C69.2964 80.8691 69.2092 80.8958 69.0238 80.9526C68.8214 81.0207 68.8212 81.0208 68.6256 81.0889L68.6251 81.089L67.9153 81.3327V81.6575L67.8268 81.6818C66.9899 81.911 66.2076 82.1253 65.4843 82.6321C65.635 83.2964 65.8084 83.8535 66.1942 84.422C66.3653 84.5515 66.4898 84.6458 66.6264 84.7169C66.9917 84.9068 67.4431 84.9307 69.1016 85.0181C70.3365 85.0782 71.5584 85.2358 72.7723 85.4762C74.333 85.8498 75.1692 86.5076 76.0184 87.8297C74.5615 87.8297 73.051 88.7068 71.9766 89.657C71.5714 90.081 71.4045 90.3555 71.3899 90.9467C71.5536 92.0593 72.1581 92.7383 72.9392 93.5147C73.292 93.8078 73.543 94.0164 73.8259 94.1637C74.5242 94.5271 75.4164 94.5165 78.5109 94.4795C78.8885 94.473 79.2662 94.4681 79.6454 94.4665L80.0035 94.4632C80.4087 94.4551 80.7976 94.4632 81.2044 94.4892C81.4766 94.6476 81.5954 94.7167 81.6881 94.8114C81.76 94.8848 81.8162 94.9735 81.9159 95.1308C81.9872 95.251 82.0569 95.368 82.1266 95.4833C82.1612 95.5415 82.196 95.5997 82.2308 95.6579C82.3213 95.8094 82.412 95.961 82.5009 96.1135C82.1736 96.2028 81.8592 96.2759 81.5221 96.3165C79.9371 96.4578 78.6633 96.7031 77.4057 97.7378C77.305 97.8672 77.2444 97.945 77.2079 98.0329C77.1528 98.1657 77.1528 98.3214 77.1528 98.7123C77.283 98.7667 77.4114 98.8193 77.5386 98.8714L77.6698 98.9251C77.8773 99.0112 78.0831 99.1038 78.2873 99.1996C78.8691 99.5911 79.3861 99.7811 80.0748 99.9192L80.2012 99.9435L80.2031 99.9439C80.4217 99.986 80.6413 100.028 80.8608 100.072C80.9096 100.082 80.9578 100.092 81.0057 100.101C81.0382 100.108 81.0707 100.115 81.103 100.121C81.1639 100.134 81.2245 100.146 81.2855 100.158C82.2027 100.34 83.1168 100.54 84.0308 100.743C84.1726 100.774 84.314 100.806 84.4554 100.837C84.5968 100.868 84.7382 100.899 84.88 100.931C85.337 101.027 85.794 101.123 86.2478 101.228C88.2266 101.693 90.0919 101.891 92.1226 101.857C92.4094 101.852 92.6963 101.849 92.9832 101.847C94.573 101.839 96.1515 101.808 97.7348 101.636C97.7301 101.548 97.7258 101.461 97.7215 101.374C97.6832 100.596 97.647 99.8632 97.3394 99.1281L97.2601 98.9976C97.202 98.9019 97.1447 98.8075 97.0866 98.7123C96.9278 98.2965 96.777 97.9229 96.5388 97.5461L96.536 97.5423C96.4708 97.4513 96.438 97.4057 96.4053 97.36C96.3728 97.3145 96.3404 97.2691 96.2763 97.179C96.1207 96.9614 96.1207 96.9614 95.9683 96.7486C95.7334 96.4221 95.5 96.0956 95.2666 95.7675C94.9992 95.3891 94.7302 95.0123 94.4595 94.6338C94.3088 94.4243 94.1581 94.2131 94.0074 94.002C93.8731 93.8135 93.7388 93.6249 93.6045 93.4362C92.1577 91.4033 90.7057 89.3631 89.0774 87.474C88.857 87.2158 88.6382 86.9575 88.4195 86.696C88.3641 86.6294 88.309 86.5634 88.2542 86.4976L88.2518 86.4948L88.0111 86.2055C87.8749 86.0495 87.7437 85.8969 87.6124 85.7442C86.5104 84.3311 86.5784 83.0447 86.7146 81.3327C87.9462 81.9499 89.1439 83.3695 90.019 84.4204C90.05 84.4589 90.0807 84.4967 90.1111 84.5343C90.1439 84.5748 90.1764 84.615 90.2088 84.6552C90.2326 84.6847 90.2563 84.7141 90.2799 84.7436C90.9266 85.5135 91.5408 86.2575 92.0124 87.1492C92.176 87.4869 92.1761 87.4871 92.3868 87.8297C92.9232 88.3495 93.377 88.8612 93.7951 89.4767C93.8652 89.5821 93.9337 89.6843 94.0021 89.7864L94.0058 89.7919L94.0085 89.7961C94.2442 90.1439 94.4799 90.4917 94.7124 90.8411C94.7457 90.8906 94.7786 90.9396 94.8112 90.9883L94.8526 91.05C94.8659 91.0699 94.8792 91.0897 94.8925 91.1095C94.9151 91.143 94.9376 91.1764 94.9603 91.2098C95.9975 92.7578 97.0315 94.3089 98.0298 95.8812C98.0615 95.9313 98.0928 95.9809 98.1238 96.0302L98.1569 96.0829L98.1577 96.0841L98.158 96.0846C98.2198 96.183 98.2809 96.2801 98.3426 96.3766L98.406 96.4768C98.8751 97.2178 99.3317 97.9391 99.6326 98.7676C99.7515 99.1056 99.8027 99.2514 99.8663 99.3916C99.9144 99.4979 99.9696 99.601 100.067 99.7821L100.067 99.7826C101.634 102.383 102.08 105.227 102.514 108.188C102.553 108.457 102.591 108.727 102.629 108.996L102.629 108.999C102.824 110.384 103.019 111.771 103.407 113.118C103.416 113.147 103.426 113.177 103.435 113.206L103.463 113.291C103.587 113.678 103.712 114.065 103.812 114.461C103.816 114.479 103.821 114.496 103.825 114.513C103.832 114.542 103.838 114.57 103.845 114.599L103.845 114.599L103.865 114.679C103.871 114.705 103.877 114.731 103.883 114.757L103.887 114.774L103.893 114.797C103.939 114.983 103.984 115.169 104.029 115.354L104.055 115.462C104.13 115.78 104.165 115.93 104.209 116.077C104.248 116.207 104.293 116.336 104.379 116.579L104.379 116.579C105.264 117.641 106.483 118.158 107.783 118.528C107.635 117.463 107.433 116.435 107.134 115.402L107.098 115.28C106.966 114.837 106.834 114.394 106.72 113.946C106.528 113.137 106.292 112.345 106.044 111.552C105.93 111.19 105.819 110.829 105.708 110.467C105.613 110.154 105.515 109.84 105.418 109.527C105.388 109.426 105.357 109.328 105.327 109.231C105.309 109.169 105.29 109.108 105.271 109.046C105.243 108.954 105.215 108.862 105.188 108.769C105.008 108.163 104.827 107.557 104.533 106.994C104.274 106.562 104.054 106.181 103.903 105.698C103.642 104.483 103.315 103.333 102.84 102.185C102.757 101.998 102.678 101.816 102.597 101.636C102.274 100.861 101.924 100.109 101.55 99.3604L101.483 99.2274C101.438 99.1392 101.395 99.0525 101.35 98.9657C101.119 98.5028 100.885 98.0383 100.652 97.5753H100.328C100.257 96.8688 100.062 96.3344 99.7152 95.7156C99.652 95.6051 99.5905 95.4995 99.5272 95.3923C98.4544 93.5228 97.2292 91.7653 95.9927 90.003C95.1775 88.8433 94.3834 87.6722 93.6022 86.4897C93.022 85.6045 92.4354 84.7339 91.7952 83.8909C91.7543 83.8383 91.7143 83.7862 91.6746 83.7342L91.674 83.7335L91.6355 83.6833C91.6159 83.6577 91.5962 83.6322 91.5764 83.6067C90.241 81.8492 88.695 80.2298 87.0192 78.7956C86.5233 78.3733 86.0501 77.9331 85.5834 77.4799C85.5094 77.4082 85.4729 77.3729 85.4366 77.3375C85.4012 77.3031 85.366 77.2686 85.2965 77.2005C84.5381 76.4826 84.0486 75.7988 83.6354 74.8356C83.0973 73.507 82.3178 72.9352 81.1137 72.227C80.0732 71.6586 79.459 71.22 78.9339 70.1366C78.3554 68.9217 78.3554 68.9217 75.973 67.2178C75.8866 67.1561 75.7999 67.0943 75.7131 67.0326C74.6994 66.311 73.6698 65.5781 72.8711 64.6206C72.513 64.1772 72.1289 63.7841 71.7156 63.3943L71.6742 63.3565C71.5981 63.2871 71.524 63.2194 71.4499 63.1506C70.7222 62.4814 69.9881 61.8659 69.1648 61.3168C69.114 61.2834 69.0631 61.25 69.0123 61.2166C68.8266 61.0944 68.6411 60.9724 68.4566 60.8474C67.9461 60.5031 67.4339 60.1604 66.9202 59.8193C66.6123 59.6179 66.306 59.4132 66.0029 59.2053C65.0532 58.5507 64.1457 57.9627 63.0599 57.5615C62.0502 57.1961 61.355 56.8631 60.6937 55.9828C60.0106 55.0644 59.5216 54.4072 58.945 53.8393C57.493 52.4093 55.4854 51.5461 48.4224 48.5095C48.2442 48.4349 48.0726 48.3618 47.901 48.2888L47.9005 48.2886ZM65.8084 87.0176H70.9945C70.77 87.6925 70.701 87.9 70.6023 88.0922C70.5584 88.1776 70.5087 88.2599 70.437 88.3787C70.1206 88.9113 69.9287 89.4529 69.7228 90.0337L69.698 90.1037H69.3738L69.3434 90.2071C69.313 90.3104 69.2827 90.4136 69.2523 90.5195C69.027 91.14 68.7402 91.65 68.4015 92.2153C67.771 91.6581 67.4113 91.0247 67.0142 90.297C66.9676 90.2141 66.9441 90.1723 66.9207 90.1305L66.8246 89.9592C66.1681 88.7745 65.9358 88.3552 65.8535 87.9081C65.8084 87.6631 65.8084 87.4097 65.8084 87.0176ZM100.814 62.9785C99.9227 62.0396 98.9682 61.1463 97.7349 60.7045C97.7113 61.1064 97.6944 61.3937 97.7315 61.6738C97.8242 62.3749 98.2545 63.0312 99.7623 65.3304C99.7835 65.3623 99.8046 65.3941 99.8255 65.4256L99.8269 65.4277C99.8694 65.4918 99.9115 65.5552 99.9535 65.6179C100.151 65.9175 100.239 66.0512 100.337 66.1776C100.415 66.2794 100.499 66.3765 100.652 66.5519C101.041 66.5519 101.197 66.5519 101.334 66.5016C101.425 66.4681 101.508 66.4124 101.647 66.3196C101.697 66.2748 101.747 66.2306 101.796 66.1868L101.8 66.1825L101.801 66.1816L101.808 66.1754L101.809 66.1751L101.809 66.1747L101.813 66.1715C101.872 66.1188 101.93 66.0665 101.989 66.0142C102.336 65.7105 102.336 65.7105 102.597 65.4149C102.597 65.1848 102.597 65.0396 102.557 64.9062C102.489 64.678 102.306 64.4844 101.808 63.9595L100.814 62.9785ZM99.0313 73.5362C99.5353 73.632 99.665 73.6824 100.035 74.0738C100.308 74.4815 100.433 74.6829 100.49 75.1605C100.51 75.2945 100.52 75.3623 100.53 75.4301C100.54 75.4996 100.55 75.569 100.571 75.7095C100.485 76.3332 100.44 76.429 100.004 76.8351C98.8744 77.6836 97.6622 77.6431 96.312 77.5981L96.2763 77.5969C96.3524 76.8205 96.7236 76.3381 97.1984 75.7485C97.252 75.6803 97.2791 75.6458 97.3063 75.6113C97.3323 75.5785 97.3582 75.5456 97.4072 75.4837L97.4188 75.4691C97.9407 74.8096 98.4755 74.1664 99.0313 73.5362ZM105.882 68.5393C105.993 68.2577 105.955 67.9175 105.838 66.8767C105.298 66.8767 105.044 67.0261 104.593 67.3055C104.518 67.3539 104.481 67.3779 104.444 67.4019C104.408 67.4251 104.372 67.4483 104.301 67.4936L104.298 67.4956C103.883 67.7636 103.478 68.0413 103.083 68.3386C103 68.4086 102.914 68.4799 102.825 68.5529C102.103 69.149 101.252 69.8517 101.138 70.775C101.488 70.775 101.649 70.775 101.808 70.7552C101.943 70.7385 102.076 70.7074 102.323 70.6499C102.43 70.62 102.535 70.5902 102.639 70.5606L102.64 70.5603C102.734 70.5336 102.827 70.5071 102.921 70.481L102.976 70.4657C103.502 70.3198 103.954 70.1941 104.412 69.8849L104.415 69.8818C104.559 69.7598 104.56 69.7588 104.704 69.638C105.024 69.4349 105.318 69.227 105.608 68.9818C105.74 68.7992 105.829 68.6761 105.882 68.5393ZM95.2537 80.8449C95.5324 81.0755 95.7885 81.3192 96.0429 81.5758L96.32 81.8438C96.9634 82.4789 97.6133 83.1383 98.059 83.931V84.2558C97.1502 84.1994 96.8058 84.178 96.5211 84.036C96.3474 83.9494 96.196 83.8179 95.9521 83.6061C95.7787 83.5395 95.6053 83.4729 95.4254 83.4047C94.7626 83.127 94.3396 82.716 93.855 82.1963C93.7756 82.1118 93.6962 82.029 93.6136 81.9445C93.4191 81.7415 93.2262 81.5368 93.035 81.3322L93.1971 80.8449C93.8178 80.5818 94.6637 80.4957 95.2537 80.8449ZM107.985 60.9579C107.541 60.6688 107.17 60.482 106.648 60.3796C106.593 60.4826 106.538 60.5848 106.483 60.6867C105.917 61.7302 105.377 62.7277 105.352 63.953C106.128 63.953 106.652 63.5892 107.254 63.1214C107.331 63.0517 107.407 62.9834 107.482 62.9155L107.483 62.9148C107.546 62.858 107.608 62.8014 107.671 62.7446L107.732 62.6904C108.194 62.2835 108.515 62 108.593 61.3542L108.497 61.291L108.462 61.2678C108.429 61.2464 108.397 61.2249 108.332 61.182L108.275 61.1453C108.177 61.0821 108.082 61.0205 107.985 60.9579ZM77.9632 101.636C78.7573 101.604 79.3261 101.693 80.07 101.961C80.1846 102.002 80.2997 102.043 80.4161 102.084L80.4178 102.084L80.43 102.089C80.5066 102.116 80.5837 102.143 80.6615 102.17L80.6623 102.171L80.665 102.172C80.8631 102.243 81.0614 102.314 81.266 102.386L81.2711 102.388C81.3731 102.425 81.4752 102.462 81.5804 102.5L82.3389 102.773V102.935C82.2692 102.948 82.2001 102.959 82.1301 102.971C82.0878 102.978 82.0451 102.985 82.0018 102.992L80.4946 103.251C80.3196 103.28 80.1445 103.309 79.9646 103.34C79.9418 103.344 79.9191 103.348 79.8963 103.352C79.8522 103.359 79.808 103.367 79.7637 103.375L79.7632 103.375C79.6629 103.392 79.5617 103.409 79.459 103.428C79.3034 103.454 79.1495 103.48 78.9906 103.507L78.9903 103.507C78.7959 103.539 78.7008 103.554 78.6112 103.586C78.5255 103.616 78.445 103.66 78.2873 103.748C77.9097 103.754 77.5305 103.754 77.1528 103.748C77.2492 102.978 77.5781 102.36 77.9354 101.688L77.9632 101.636ZM74.0605 96.7418C74.0001 96.7416 73.9398 96.7416 73.8198 96.7416C73.3207 96.7693 73.2721 96.7725 73.2445 97.2728C73.2453 97.3484 73.2457 97.4233 73.2461 97.4976C73.2465 97.5732 73.2469 97.6481 73.2477 97.7227C73.2477 97.8478 73.2477 97.9095 73.248 97.9712C73.248 97.9891 73.2481 98.0069 73.2482 98.0263C73.2484 98.0719 73.2488 98.126 73.2494 98.2084L73.2494 98.21L73.2495 98.2248L73.2495 98.2253C73.2511 98.3937 73.2526 98.5577 73.2526 98.7232L73.2527 98.7355C73.2559 99.3227 73.2591 99.9114 73.264 100.499H73.5881C74.0905 100.024 74.4908 99.511 74.7825 98.8857C74.8164 98.7706 74.8504 98.6604 74.8843 98.5502L74.8846 98.5494H75.2087C75.254 98.4583 75.2879 98.3899 75.3157 98.319C75.3991 98.1057 75.4258 97.8701 75.5328 96.9253C75.3817 96.8495 75.301 96.809 75.2157 96.7853C75.1181 96.7582 75.0145 96.7529 74.7922 96.7416C74.7089 96.7416 74.6269 96.7421 74.5455 96.7425C74.4653 96.7429 74.3856 96.7433 74.306 96.7433H74.3056C74.1827 96.7424 74.1216 96.742 74.0605 96.7418ZM94.8177 69.4755C95.5503 69.7127 96.0672 70.0538 96.6004 70.6125C96.7567 71.5206 96.4579 72.3069 96.1398 73.1441L96.1142 73.2113C95.9845 73.1729 95.9106 73.151 95.8409 73.1198C95.7486 73.0784 95.6636 73.0207 95.466 72.8865C95.3104 72.4837 95.1986 72.1247 95.1013 71.7089C95.09 71.6646 95.0783 71.6206 95.0666 71.5764C95.05 71.5137 95.0332 71.4504 95.0171 71.3857C94.855 70.7376 94.7886 70.1431 94.8177 69.4755ZM90.4419 75.6478H90.1178C90.0497 76.3105 90.0222 76.9358 90.1178 77.5969C90.6089 78.3489 91.3706 78.6868 92.2246 78.8963C92.0285 78.1995 91.7546 77.6326 91.3689 77.0284C91.3191 76.9506 91.2944 76.9121 91.2695 76.8736C91.245 76.8357 91.2203 76.798 91.1712 76.723C90.9378 76.3527 90.7012 76.0018 90.4419 75.6478Z" fill="#CBC5C5"/>
</svg>
