<svg width="164" height="124" viewBox="0 0 164 124" fill="none" xmlns="http://www.w3.org/2000/svg">
<path d="M0.876953 22C0.876953 9.84974 10.7199 0 22.8618 0H141.78C153.922 0 163.765 9.84974 163.765 22V102C163.765 114.15 153.922 124 141.78 124H22.8618C10.7199 124 0.876953 114.15 0.876953 102V22Z" fill="#C5A869"/>
<path fill-rule="evenodd" clip-rule="evenodd" d="M141.78 11H22.8618C16.7908 11 11.8694 15.9249 11.8694 22V102C11.8694 108.075 16.7908 113 22.8618 113H141.78C147.851 113 152.772 108.075 152.772 102V22C152.772 15.9249 147.851 11 141.78 11ZM22.8618 0C10.7199 0 0.876953 9.84974 0.876953 22V102C0.876953 114.15 10.7199 124 22.8618 124H141.78C153.922 124 163.765 114.15 163.765 102V22C163.765 9.84974 153.922 0 141.78 0H22.8618Z" fill="#A68C55"/>
<path d="M102.681 85.6624H110.752L93.203 56.8636L90.5203 52.4612L89.4025 50.6269L87.614 47.692L82.1369 38.7038L76.6597 47.692L74.8713 50.6269L73.7535 52.4612L71.0708 56.8636L53.5215 85.6624H61.5925L82.1369 51.1772L102.681 85.6624Z" fill="black"/>
<path d="M93.203 56.8636H115.155L116.806 52.4612H90.5203L93.203 56.8636Z" fill="black"/>
<path d="M89.4025 50.6269H123.959L125.977 46.4079H88.1901L87.614 47.692L89.4025 50.6269Z" fill="black"/>
<path d="M88.9239 44.9405L91.4919 40.7215H133.681L131.847 44.9405H88.9239Z" fill="black"/>
<path d="M93.203 38.7038L95.344 34.4849H142.853L141.019 38.7038H93.203Z" fill="black"/>
<path d="M49.1191 56.8636H71.0708L73.7535 52.4612H47.4682L49.1191 56.8636Z" fill="black"/>
<path d="M40.3144 50.6269H74.8713L76.6597 47.692L76.0836 46.4079H38.2966L40.3144 50.6269Z" fill="black"/>
<path d="M75.3499 44.9405L72.7818 40.7215H30.5925L32.4268 44.9405H75.3499Z" fill="black"/>
<path d="M71.0708 38.7038L68.9298 34.4849H21.4209L23.2552 38.7038H71.0708Z" fill="black"/>
<path d="M82.5037 83.1861L70.3972 76.6742V89.6979L82.5037 83.1861Z" fill="black"/>
<path d="M94.6103 89.6979V76.6742L82.5037 83.1861L94.6103 89.6979Z" fill="black"/>
</svg>
