<svg width="164" height="124" viewBox="0 0 164 124" fill="none" xmlns="http://www.w3.org/2000/svg">
<path d="M0.763672 22C0.763672 9.84974 10.6066 0 22.7485 0H141.666C153.808 0 163.651 9.84974 163.651 22V102C163.651 114.15 153.808 124 141.666 124H22.7485C10.6066 124 0.763672 114.15 0.763672 102V22Z" fill="#C5A869"/>
<path fill-rule="evenodd" clip-rule="evenodd" d="M141.666 11H22.7485C16.6776 11 11.7561 15.9249 11.7561 22V102C11.7561 108.075 16.6776 113 22.7485 113H141.666C147.737 113 152.659 108.075 152.659 102V22C152.659 15.9249 147.737 11 141.666 11ZM22.7485 0C10.6066 0 0.763672 9.84974 0.763672 22V102C0.763672 114.15 10.6066 124 22.7485 124H141.666C153.808 124 163.651 114.15 163.651 102V22C163.651 9.84974 153.808 0 141.666 0H22.7485Z" fill="#A68C55"/>
<path fill-rule="evenodd" clip-rule="evenodd" d="M88.8105 72.0894C87.0725 72.0894 85.6781 72.5702 84.4292 73.5148C83.5975 74.1439 82.852 74.9639 82.1153 75.9151C81.3785 74.9639 80.6331 74.1439 79.8013 73.5148C78.5524 72.5702 77.1581 72.0894 75.42 72.0894C73.6997 72.0894 71.9984 72.6236 70.6989 73.6121C69.3844 74.612 68.4496 76.1123 68.4496 77.9587C68.4496 81.6103 71.9828 84.1959 75.42 84.1959C77.3003 84.1959 78.6951 83.4083 79.8607 82.3486C80.6342 81.6453 81.3829 80.7416 82.1153 79.8531C82.8476 80.7416 83.5963 81.6453 84.3698 82.3486C85.5354 83.4083 86.9303 84.1959 88.8105 84.1959C92.2478 84.1959 95.7809 81.6103 95.7809 77.9587C95.7809 76.1123 94.8462 74.612 93.5317 73.6121C92.2322 72.6236 90.5308 72.0894 88.8105 72.0894ZM83.8344 77.8988C83.9536 78.0427 84.0691 78.1829 84.1817 78.3195C84.8725 79.1581 85.4526 79.8623 86.0973 80.4484C86.9494 81.2231 87.7558 81.6279 88.8105 81.6279C91.243 81.6279 93.2129 79.8111 93.2129 77.9587C93.2129 77.053 92.7719 76.2607 91.9769 75.656C91.1669 75.0398 90.0251 74.6574 88.8105 74.6574C87.6136 74.6574 86.7671 74.9664 85.9784 75.563C85.293 76.0813 84.6249 76.8356 83.8344 77.8988ZM80.0489 78.3195C79.3581 79.1581 78.7779 79.8623 78.1332 80.4484C77.2811 81.2231 76.4747 81.6279 75.42 81.6279C72.9875 81.6279 71.0177 79.8111 71.0177 77.9587C71.0177 77.053 71.4587 76.2607 72.2536 75.656C73.0636 75.0398 74.2055 74.6574 75.42 74.6574C76.6169 74.6574 77.4635 74.9664 78.2522 75.563C78.9375 76.0813 79.6056 76.8356 80.3961 77.8988C80.277 78.0426 80.1616 78.1827 80.0491 78.3192L80.0489 78.3195Z" fill="black"/>
<path d="M102.568 83.4622H110.639L93.0897 54.6634L90.407 50.261L89.2892 48.4267L87.5008 45.4918L82.0236 36.5036L76.5464 45.4918L74.758 48.4267L73.6402 50.261L70.9575 54.6634L53.4082 83.4622H61.4792L82.0236 48.977L102.568 83.4622Z" fill="black"/>
<path d="M93.0897 54.6634H115.041L116.692 50.261H90.407L93.0897 54.6634Z" fill="black"/>
<path d="M89.2892 48.4267H123.846L125.864 44.2077H88.0769L87.5008 45.4918L89.2892 48.4267Z" fill="black"/>
<path d="M88.8106 42.7403L91.3786 38.5214H133.568L131.734 42.7403H88.8106Z" fill="black"/>
<path d="M93.0897 36.5036L95.2307 32.2847H142.74L140.905 36.5036H93.0897Z" fill="black"/>
<path d="M49.0058 54.6634H70.9575L73.6402 50.261H47.355L49.0058 54.6634Z" fill="black"/>
<path d="M40.2011 48.4267H74.758L76.5464 45.4918L75.9703 44.2077H38.1834L40.2011 48.4267Z" fill="black"/>
<path d="M75.2366 42.7403L72.6686 38.5214H30.4792L32.3135 42.7403H75.2366Z" fill="black"/>
<path d="M70.9575 36.5036L68.8165 32.2847H21.3076L23.1419 36.5036H70.9575Z" fill="black"/>
<path d="M56.1597 86.5805H107.888V90.9829H56.1597V86.5805Z" fill="black"/>
</svg>
