<svg width="164" height="124" viewBox="0 0 164 124" fill="none" xmlns="http://www.w3.org/2000/svg">
<path d="M0.988281 22C0.988281 9.84974 10.8312 0 22.9731 0H141.891C154.033 0 163.876 9.84974 163.876 22V102C163.876 114.15 154.033 124 141.891 124H22.9731C10.8312 124 0.988281 114.15 0.988281 102V22Z" fill="#C5A869"/>
<path fill-rule="evenodd" clip-rule="evenodd" d="M141.891 11H22.9731C16.9022 11 11.9807 15.9249 11.9807 22V102C11.9807 108.075 16.9022 113 22.9731 113H141.891C147.962 113 152.883 108.075 152.883 102V22C152.883 15.9249 147.962 11 141.891 11ZM22.9731 0C10.8312 0 0.988281 9.84974 0.988281 22V102C0.988281 114.15 10.8312 124 22.9731 124H141.891C154.033 124 163.876 114.15 163.876 102V22C163.876 9.84974 154.033 0 141.891 0H22.9731Z" fill="#A68C55"/>
<path d="M102.793 99.2368H110.864L93.3143 70.4379L90.6316 66.0356L89.5138 64.2012L87.7254 61.2663L82.2482 52.2782L76.771 61.2663L74.9826 64.2012L73.8648 66.0356L71.1821 70.4379L53.6328 99.2368H61.7038L82.2482 64.7515L102.793 99.2368Z" fill="black"/>
<path d="M93.3143 70.4379H115.266L116.917 66.0356H90.6316L93.3143 70.4379Z" fill="black"/>
<path d="M89.5138 64.2012H124.071L126.088 59.9823H88.3015L87.7254 61.2663L89.5138 64.2012Z" fill="black"/>
<path d="M89.0352 58.5149L91.6032 54.2959H133.793L131.958 58.5149H89.0352Z" fill="black"/>
<path d="M93.3143 52.2782L95.4553 48.0592H142.964L141.13 52.2782H93.3143Z" fill="black"/>
<path d="M49.2305 70.4379H71.1821L73.8648 66.0356H47.5796L49.2305 70.4379Z" fill="black"/>
<path d="M40.4257 64.2012H74.9826L76.771 61.2663L76.195 59.9823H38.408L40.4257 64.2012Z" fill="black"/>
<path d="M75.4612 58.5149L72.8932 54.2959H30.7038L32.5381 58.5149H75.4612Z" fill="black"/>
<path d="M71.1821 52.2782L69.0411 48.0592H21.5322L23.3665 52.2782H71.1821Z" fill="black"/>
<path d="M96.9228 27.5149C98.5737 22.0119 101.325 19.4438 105.544 19.4438C109.763 19.4438 112.148 22.9291 112.148 22.9291L109.396 26.7811C109.396 26.7811 107.929 24.5799 106.094 24.5799C104.26 24.5799 101.325 26.7811 101.325 30.0829C101.325 33.3847 104.26 35.5859 106.094 35.5859C107.929 35.5859 109.396 33.3847 109.396 33.3847L112.148 37.2367C112.148 37.2367 109.763 40.722 105.544 40.722C101.325 40.722 98.5737 38.1539 96.9228 32.6509H67.5737C65.9228 38.1539 63.1713 40.722 58.9523 40.722C54.7334 40.722 52.3488 37.2367 52.3488 37.2367L55.1003 33.3847C55.1003 33.3847 56.5677 35.5859 58.4021 35.5859C60.2364 35.5859 63.1713 33.3847 63.1713 30.0829C63.1713 26.7811 60.2364 24.5799 58.4021 24.5799C56.5677 24.5799 55.1003 26.7811 55.1003 26.7811L52.3488 22.9291C52.3488 22.9291 54.7334 19.4438 58.9523 19.4438C63.1713 19.4438 65.9228 22.0119 67.5737 27.5149H96.9228Z" fill="black"/>
<path d="M82.6151 96.7604L70.5086 90.2486V103.272L82.6151 96.7604Z" fill="black"/>
<path d="M94.7216 103.272V90.2486L82.6151 96.7604L94.7216 103.272Z" fill="black"/>
</svg>
