<svg width="164" height="124" viewBox="0 0 164 124" fill="none" xmlns="http://www.w3.org/2000/svg">
<path d="M0.4375 22C0.4375 9.84974 10.2804 0 22.4223 0H141.34C153.482 0 163.325 9.84974 163.325 22V102C163.325 114.15 153.482 124 141.34 124H22.4223C10.2804 124 0.4375 114.15 0.4375 102V22Z" fill="#C5A869"/>
<path fill-rule="evenodd" clip-rule="evenodd" d="M141.34 11H22.4223C16.3514 11 11.4299 15.9249 11.4299 22V102C11.4299 108.075 16.3514 113 22.4223 113H141.34C147.411 113 152.333 108.075 152.333 102V22C152.333 15.9249 147.411 11 141.34 11ZM22.4223 0C10.2804 0 0.4375 9.84974 0.4375 22V102C0.4375 114.15 10.2804 124 22.4223 124H141.34C153.482 124 163.325 114.15 163.325 102V22C163.325 9.84974 153.482 0 141.34 0H22.4223Z" fill="#A68C55"/>
<path fill-rule="evenodd" clip-rule="evenodd" d="M104.075 19.0757H103.742C103.671 19.2179 103.631 19.2994 103.606 19.3855C103.573 19.5011 103.569 19.625 103.559 19.9151C103.56 20.0193 103.562 20.1216 103.563 20.2231C103.564 20.3197 103.565 20.4156 103.566 20.5114L103.569 21.1127C103.614 23.2009 102.477 26.0781 100.243 27.0706C99.8904 27.2255 99.5448 27.3854 99.2008 27.5619C98.9645 27.7106 98.8105 27.8074 98.6945 27.9381C98.4778 28.1823 98.3937 28.5446 98.1523 29.584C98.1257 29.7105 98.0991 29.8321 98.0726 29.9537C97.9014 30.6865 97.7518 31.4112 97.6571 32.1573C97.6528 32.1963 97.6486 32.2349 97.6445 32.2733L97.6341 32.3686L97.6341 32.3694L97.6339 32.3704C97.6207 32.4926 97.6077 32.6131 97.594 32.7336H97.2616V33.3999L96.9293 33.2333C96.3559 32.2773 96.0683 31.7979 95.8422 31.2912C95.6149 30.7818 95.4496 30.2447 95.1181 29.1676C95.083 29.0516 95.0479 28.9372 95.0131 28.8238C94.9869 28.7386 94.9609 28.654 94.9353 28.5696H94.4368C94.1308 33.2238 92.7401 37.6608 92.6089 42.3942C92.5571 42.3009 92.5051 42.2077 92.4531 42.1145C91.5269 40.4557 90.9174 38.7125 90.256 36.9376L90.2551 36.9353C90.1863 36.7497 90.1858 36.7486 90.1164 36.5645H89.6179C88.4912 38.6682 88.4912 38.6682 88.9648 43.157C89.2224 45.5188 89.3537 47.8457 89.2855 50.2225C88.8618 49.4946 88.4646 48.7618 88.0891 48.0072C88.0455 47.916 88.0018 47.8275 87.9581 47.7391L87.9146 47.6508C87.8799 47.5807 87.845 47.5104 87.8101 47.4401L87.7993 47.4183L87.7956 47.4109C87.7167 47.2519 87.6375 47.0924 87.559 46.9329C87.4976 46.8098 87.4377 46.6881 87.3782 46.5675C87.3492 46.5086 87.3204 46.45 87.2915 46.3916H86.9592C86.9592 45.8786 86.8561 45.4455 86.7315 44.9509C86.3393 43.4007 86.4033 41.7463 85.9621 40.2289H85.6298C85.622 40.2582 85.6143 40.2873 85.6065 40.3164L85.5796 40.4171C85.1689 41.9503 84.4292 43.3684 84.013 44.8931C84.0057 44.9197 83.9985 44.9462 83.9885 44.9835L83.9681 45.0591C83.2802 44.5844 82.6487 44.1047 82.0439 43.5268C81.007 42.5274 79.9169 41.638 78.7654 40.7735C78.661 40.6951 78.5565 40.6167 78.4519 40.5384C77.5179 39.8384 76.5823 39.1373 75.7394 38.3284C71.2427 34.6674 69.5235 33.3999 65.3671 30.4018C63.9763 29.6589 62.6553 28.8694 61.3625 27.9667C60.9938 27.707 60.6234 27.4473 60.253 27.1876L60.2524 27.1872C60.1146 27.0914 59.9771 26.9957 59.8397 26.9C59.7021 26.8042 59.5646 26.7084 59.4266 26.6125C58.6389 26.0512 57.8546 25.5432 56.9889 25.1102C56.3757 24.812 55.7626 24.5106 55.1544 24.2008C54.6046 23.9177 54.0531 23.638 53.5016 23.3583L53.501 23.358C53.3564 23.2847 53.2123 23.211 53.0681 23.1373C52.924 23.0636 52.7798 22.9899 52.6353 22.9166C51.0949 22.1254 49.5578 21.3409 47.9426 20.7096C47.8037 20.6566 47.668 20.6052 47.5324 20.5538L47.5317 20.5535L47.5305 20.5531C46.5618 20.1766 45.7957 20.0168 44.7522 20.075C43.8898 20.195 43.3314 20.7546 42.798 21.4192C42.1732 22.3952 41.7711 23.5811 41.9273 24.7387C42.5121 26.5566 44.5497 27.2736 46.138 28.0949C46.231 28.1432 46.3224 28.1898 46.4137 28.2364C46.4137 28.856 46.3059 29.2992 46.1181 29.8838C46.1038 29.9283 46.0895 29.9727 46.0752 30.0172L46.0751 30.0176L46.0748 30.0184C45.7993 30.8749 45.5226 31.7351 45.48 32.6404C45.5223 33.3226 45.5501 33.7701 45.6933 34.1766C45.966 34.9512 46.6577 35.5776 48.6671 37.3973C49.8751 38.4566 50.7276 39.441 51.1431 41.025C51.4172 42.1576 51.6881 43.2336 52.2248 44.273C53.2285 45.9486 55.3421 47.9723 57.2398 48.4869C57.3445 48.5103 57.4458 48.5336 57.5472 48.5569C57.4475 48.91 57.3495 49.2631 57.2514 49.6162C57.2116 49.7658 57.1719 49.9103 57.1321 50.0549L57.1318 50.0559C56.6599 51.7182 56.5319 52.9508 57.3312 54.5331C58.3405 56.1879 61.0436 57.5221 62.7915 58.1758C62.9308 58.2271 63.0675 58.2767 63.2028 58.3258L63.2055 58.3267C63.2582 58.3459 63.3107 58.3649 63.3631 58.384L63.3604 58.4064L63.3578 58.4267L63.3538 58.4577L63.3486 58.4972L63.3437 58.5341C63.3378 58.578 63.332 58.6217 63.3266 58.6655C63.3182 58.7383 63.3093 58.8106 63.3004 58.8824L63.3004 58.8828L63.3003 58.8832L63.2899 58.9682C63.2866 58.9956 63.2833 59.023 63.28 59.0502C63.1355 60.2045 63.0408 61.0822 63.6373 62.1149C64.6858 63.8188 65.2143 65.5411 65.3754 67.5415C65.5167 69.4702 65.7244 71.3973 65.9986 73.3095C66.0384 73.5774 66.0766 73.8453 66.1148 74.1132L66.1149 74.1139C66.178 74.6186 66.2412 75.12 66.3243 75.623C66.4921 76.5291 66.7414 77.0504 67.5174 77.5884C68.0973 77.8982 68.5027 78.1547 68.9298 78.6627C69.3984 79.239 69.8952 79.7787 70.4054 80.3183C70.8059 80.7381 71.1182 81.0728 71.3459 81.6075C71.3376 82.1172 71.1698 82.4053 70.8806 82.8201C70.8108 82.9133 70.7427 83.0049 70.6746 83.0982C69.9833 84.0576 69.2422 84.8804 68.3482 85.6549C64.2565 89.1786 61.5475 93.7189 57.3129 96.8744C56.8726 97.1992 56.4405 97.5324 56.0085 97.8671C55.9096 97.9438 55.8107 98.02 55.7119 98.0962C55.613 98.1724 55.5141 98.2486 55.4153 98.3252C55.2998 98.4143 55.1843 98.503 55.0688 98.5917L54.9332 98.6958C54.8629 98.7498 54.7926 98.8039 54.7223 98.8582C54.846 98.9833 54.9704 99.1111 55.0959 99.24C56.1822 100.356 57.3568 101.562 58.8865 101.941C59.7473 102.018 60.2408 101.678 60.8673 101.153C60.942 101.088 61.0145 101.024 61.0868 100.96C61.1255 100.925 61.1641 100.891 61.2029 100.857C61.7978 100.361 62.3744 99.8775 62.8746 99.2846C63.318 98.7336 63.5398 98.4579 63.7698 98.1893C64.0001 97.9203 64.2386 97.6584 64.7157 97.1343L64.756 97.0898C65.2477 96.5467 65.7387 96.0045 66.2013 95.4354C66.8411 94.6325 67.4974 93.863 68.2003 93.1185C70.2508 90.9582 71.9458 88.5914 73.5211 86.0647C73.6058 85.9264 73.6058 85.9264 73.6889 85.7915C73.7902 85.6249 73.8883 85.465 73.988 85.3035C74.3569 84.6839 74.7474 84.2991 75.3273 83.8677V85.5333L76.1582 85.6999V86.033C76.2246 86.0796 76.2895 86.1248 76.3545 86.1699C76.387 86.1925 76.4196 86.2151 76.4523 86.2379C77.0904 86.5977 77.7201 86.9641 78.3267 87.3772C78.4216 87.4429 78.5164 87.5092 78.6112 87.5756C79.2978 88.0561 79.9877 88.5391 80.7893 88.7996C82.3878 89.0961 83.6873 88.8362 85.0499 87.9851C86.6817 86.9608 88.3915 86.2029 90.1729 85.4784C90.2316 85.4545 90.2657 85.4407 90.2955 85.4286L90.4487 85.3668V85.0337C90.3307 84.9321 90.2161 84.8338 90.1014 84.7355C89.6627 84.4007 89.239 84.0543 88.8169 83.6978C88.7742 83.6618 88.7322 83.6261 88.6905 83.5906L88.6381 83.5462C88.6047 83.5178 88.5714 83.4896 88.5378 83.4613L88.5362 83.46C88.3966 83.3431 88.396 83.3426 88.2586 83.2265C88.1639 83.1482 88.0725 83.0716 87.9828 82.9933L87.9822 82.9928C87.6382 82.6844 87.4651 82.5292 87.2967 82.3689C87.1261 82.2067 86.9604 82.0393 86.6268 81.7024L99.2557 81.869C99.4511 82.213 99.5387 82.3671 99.5879 82.5325C99.6279 82.6667 99.6427 82.8084 99.6694 83.0649L99.6802 83.1696C99.7642 83.9887 99.8457 84.7842 100.083 85.575C100.392 86.9132 100.547 87.5844 100.63 88.2645C100.714 88.9489 100.725 89.6422 100.746 91.0332C100.75 91.1997 100.75 91.1997 100.751 91.363H101.084V92.0292C101.442 92.7104 101.644 93.2268 101.685 94.0046C101.688 94.1179 101.692 94.2295 101.697 94.3411C101.717 94.7358 101.733 95.1306 101.748 95.527H101.416L101.25 97.1926C104.64 98.3252 107.607 100.446 110.396 102.621C110.477 102.684 110.517 102.715 110.557 102.747C110.597 102.778 110.636 102.809 110.713 102.871C110.907 103.02 111.1 103.172 111.292 103.323L111.293 103.324C111.833 103.757 112.209 104.045 112.882 104.188C113.618 101.5 113.101 99.148 112.36 96.5213C112.31 96.3531 112.263 96.1899 112.217 96.0266C111.968 95.1589 111.713 94.2928 111.448 93.43C111.371 93.1851 111.295 92.9403 111.22 92.6954C110.873 91.5295 110.505 90.3753 110.098 89.2293L110.096 89.2236L110.095 89.2213L110.093 89.2156L110.092 89.2115C109.618 87.845 109.379 87.1588 109.147 86.4708C108.913 85.7798 108.685 85.0869 108.229 83.7012L108.173 83.5321C107.979 82.9406 107.786 82.3498 107.566 81.7674C107.159 80.7797 106.775 79.7837 106.393 78.786C106.364 78.7102 106.336 78.6359 106.308 78.5623C106.294 78.5275 106.281 78.4928 106.268 78.4582L106.251 78.4129L106.235 78.3712H105.902C105.638 77.232 105.239 76.1277 104.656 75.1133C104.354 74.5936 104.113 74.0823 103.898 73.521C103.711 73.028 103.515 72.5766 103.244 72.1252C102.965 71.6622 102.764 71.1925 102.569 70.6895C102.468 70.4163 102.36 70.1448 102.247 69.8766C101.954 69.402 101.722 68.9739 101.517 68.4526C101.444 68.2394 101.373 68.0328 101.301 67.8263C101.281 67.768 101.261 67.7097 101.241 67.6514C101.218 67.5857 101.195 67.52 101.173 67.4543L101.171 67.4499C101.086 67.2039 101.001 66.958 100.917 66.712C101.162 66.712 101.287 66.712 101.407 66.6905C101.533 66.6683 101.654 66.6229 101.901 66.5304L102.099 66.445C102.203 66.4 102.262 66.3746 102.444 66.2956C102.767 66.1574 103.089 66.0191 103.41 65.8792C103.465 65.2063 103.473 64.8199 103.124 64.2319C101.811 62.6579 100.721 61.0756 100.253 59.0502H100.585C100.585 59.3833 100.585 59.3833 100.773 59.6298C100.863 59.7264 100.949 59.8214 101.035 59.9163C101.135 60.0229 101.231 60.1279 101.328 60.2328C101.436 60.3477 101.54 60.4593 101.645 60.5692C102.985 61.995 104.362 63.3641 106.235 64.047C106.88 64.132 107.217 64.1486 107.783 63.8305C107.935 63.7339 108.081 63.6406 108.229 63.5473C109.299 62.9061 110.344 62.2632 111.344 61.517C112.021 61.0123 112.705 60.5809 113.45 60.1845C113.54 60.1395 113.626 60.0945 113.712 60.0496V59.3833C112.847 59.305 112.092 59.1468 111.273 58.8553C111.004 58.7587 110.733 58.6655 110.46 58.5738C110.433 58.5649 110.407 58.556 110.38 58.5471L110.327 58.5294L110.251 58.504L110.251 58.5038C110.182 58.4808 110.115 58.458 110.047 58.4356L110.045 58.435C109.916 58.3919 109.792 58.3505 109.666 58.309C109.573 58.2774 109.483 58.2474 109.392 58.2174V57.8843C107.36 56.9432 105.971 55.9589 104.739 54.0534C105.188 54.125 105.56 54.215 105.974 54.4065C106.609 54.7496 107.22 55.0761 107.916 55.271C108.159 55.3293 108.159 55.3293 108.395 55.3859V55.719C108.526 55.794 108.598 55.8352 108.672 55.8731C108.762 55.9193 108.854 55.9606 109.06 56.0521C109.758 56.0521 109.949 55.9389 110.494 55.5441C111.152 55.0494 111.777 54.5797 112.536 54.2549C112.564 54.2438 112.593 54.2326 112.621 54.2215L112.856 54.129C112.92 54.1037 112.984 54.0786 113.048 54.0534V53.7203C113.321 53.7203 113.444 53.7203 113.563 53.6956C113.66 53.6753 113.755 53.6382 113.927 53.5704C114.147 53.475 114.26 53.4258 114.377 53.387C114.501 53.346 114.628 53.3164 114.89 53.2556C115.46 53.1107 115.994 52.9491 116.537 52.7209C117.24 52.1563 117.667 51.6016 117.867 50.7222C117.771 50.6963 117.676 50.6704 117.58 50.6446L117.343 50.5803C115.694 50.1341 114.043 49.6874 112.426 49.1332C112.372 49.1142 112.318 49.0952 112.264 49.0763L112.201 49.0537C112.154 49.0373 112.107 49.021 112.061 49.0049C112.011 48.9878 111.963 48.971 111.915 48.9545L111.913 48.9538L111.91 48.9529C111.4 48.7776 110.955 48.6245 110.555 48.2238C111.823 48.0605 112.955 47.3793 114.025 46.7164C114.056 46.6971 114.086 46.6779 114.117 46.6588C114.168 46.6268 114.219 46.5949 114.269 46.5632L114.27 46.5624C114.362 46.505 114.453 46.4481 114.543 46.3916C115.195 45.9869 115.846 45.5821 116.494 45.1707C116.765 44.9976 117.063 44.8182 117.375 44.6305C119.049 43.6231 121.122 42.376 121.522 40.562C120.969 40.4021 120.416 40.2405 119.864 40.0773C119.749 40.044 119.635 40.0103 119.52 39.9765C119.405 39.9428 119.291 39.9091 119.176 39.8758C117.641 39.431 116.168 38.9397 114.708 38.2868C114.384 38.1419 114.058 38.002 113.729 37.867C113.658 37.8389 113.587 37.8114 113.517 37.784L113.515 37.7831C113.47 37.7655 113.425 37.7479 113.38 37.7305L113.546 37.3973C115.75 36.2014 117.082 34.5275 118.053 32.224C118.769 30.4834 119.538 28.8411 120.525 27.2371C120.901 26.6492 121.266 26.0579 121.617 25.4533C121.958 24.6688 121.926 24.0492 121.689 23.2397C121.382 23.1374 121.264 23.0979 121.154 23.1132C121.084 23.1228 121.018 23.1539 120.909 23.2047C120.803 23.2763 120.7 23.3463 120.598 23.4163C120.351 23.5778 120.105 23.741 119.861 23.9059C118.942 24.5805 118.084 24.9603 116.981 25.2201C116.899 25.2387 116.818 25.2571 116.737 25.2754C115.623 25.5268 114.583 25.7615 113.618 26.4277C113.54 26.4871 113.463 26.5459 113.387 26.6043C113.329 26.649 113.272 26.6934 113.214 26.7375C113.079 26.8372 112.943 26.9368 112.806 27.0367L112.806 27.0373C111.841 27.743 110.852 28.467 110.118 29.4108C110.068 29.4819 110.018 29.5523 109.97 29.622L109.969 29.6229C109.943 29.6607 109.917 29.6982 109.891 29.7356C109.82 29.8356 109.75 29.9353 109.679 30.035C109.186 30.7307 108.694 31.4256 108.357 32.2123L108.31 32.3418C108.283 32.4176 108.255 32.4927 108.229 32.5671C108.152 32.5288 108.076 32.4904 108 32.4522C107.848 32.3757 107.696 32.2995 107.544 32.224L107.232 32.0674C107.232 31.8387 107.232 31.7147 107.2 31.5995C107.162 31.463 107.08 31.339 106.899 31.068H106.567C106.567 30.6229 106.567 30.4752 106.528 30.3387C106.509 30.271 106.479 30.2059 106.436 30.1087C105.992 29.3475 105.77 28.6296 105.598 27.7668C105.568 27.5969 105.539 27.4337 105.507 27.2688C105.154 25.3396 104.977 24.3752 104.808 23.4095C104.639 22.4443 104.477 21.4779 104.153 19.5454C104.132 19.4246 104.122 19.365 104.113 19.3055C104.103 19.2476 104.093 19.1898 104.075 19.0757ZM47.494 24.4989C46.3657 24.0192 45.2922 23.6344 44.0875 23.4063V23.7394C44.8303 24.8653 45.9287 25.7498 47.0869 26.4177C47.1392 26.4465 47.1906 26.4754 47.2416 26.504L47.2422 26.5043L47.2425 26.5045C47.2883 26.5302 47.3339 26.5558 47.3793 26.5809C47.7765 26.8024 48.1736 27.0206 48.5741 27.2371C49.1573 27.5453 49.729 27.8651 50.2906 28.2099C50.9702 28.7628 51.2145 29.3924 51.399 30.2352C50.3837 30.2186 49.4099 30.2236 48.4079 30.4018C48.2052 31.3895 48.0855 32.4322 48.4079 33.3999C49.9649 35.8667 52.1218 37.3457 54.8503 38.2135C55.149 38.3077 55.4574 38.3993 55.7706 38.4923C57.1964 38.9157 58.721 39.3685 59.8736 40.2289C60.1644 40.8335 60.3006 41.3948 60.3721 42.061C59.5412 41.9678 58.8001 41.7096 58.0175 41.4298C56.5984 40.9168 55.1876 40.4387 53.7253 40.0623C53.491 40.7669 53.4777 41.4115 53.6622 42.1343C54.7938 44.248 56.5535 45.1258 58.7037 45.9652C59.0843 46.1118 59.4615 46.2617 59.8387 46.4166C61.4356 47.0845 63.0507 47.6791 64.7656 47.9423C64.9501 47.9658 65.1313 47.9881 65.3113 48.0103L65.3123 48.0104L65.3128 48.0105L65.3136 48.0106C65.4392 48.0261 65.5642 48.0415 65.6895 48.0572V50.2225C64.4382 50.1159 63.2518 49.8561 62.0338 49.5563C61.5286 49.418 61.0567 49.3064 60.5383 49.2231C59.7022 49.9 58.5873 51.0138 58.5442 52.0547C59.1175 53.0607 59.1175 53.0607 61.055 54.4048C61.0787 54.4203 61.1024 54.4358 61.1259 54.4512L61.1993 54.4991L61.2002 54.4996C61.3131 54.5733 61.4246 54.6461 61.5353 54.7196C62.0797 55.0792 62.4487 55.3229 62.849 55.4925C64.9065 56.3645 67.5771 55.8689 69.8437 56.0521C70.2017 56.3848 70.4357 56.9605 70.6746 57.3846L69.8437 57.5512V57.8843C69.6874 57.8843 69.6046 57.8843 69.5235 57.8957C69.432 57.9086 69.3426 57.936 69.1525 57.9942C68.945 58.0641 68.9447 58.0642 68.7442 58.1339L68.7437 58.1341L68.0159 58.384V58.7171L67.9251 58.742C67.0671 58.977 66.2649 59.1967 65.5233 59.7165C65.6779 60.3977 65.8557 60.969 66.2512 61.552C66.4266 61.6848 66.5543 61.7814 66.6944 61.8543C67.0689 62.0491 67.5317 62.0735 69.2322 62.1632C70.4984 62.2249 71.7513 62.3864 72.996 62.6329C74.5962 63.016 75.4536 63.6906 76.3243 65.0464C74.8305 65.0464 73.2818 65.9458 72.1801 66.9202C71.7646 67.3549 71.5935 67.6364 71.5785 68.2427C71.7464 69.3836 72.3662 70.0798 73.1671 70.876C73.5288 71.1766 73.7862 71.3905 74.0763 71.5415C74.7922 71.9142 75.707 71.9033 78.88 71.8654C79.2672 71.8587 79.6544 71.8537 80.0432 71.8521L80.4104 71.8487C80.8258 71.8404 81.2247 71.8487 81.6417 71.8754C81.9208 72.0378 82.0426 72.1087 82.1377 72.2058C82.2113 72.281 82.269 72.3719 82.3712 72.5333C82.4443 72.6565 82.5158 72.7765 82.5872 72.8947C82.6228 72.9544 82.6585 73.0141 82.6942 73.0738C82.7869 73.2291 82.8799 73.3846 82.9711 73.541C82.6354 73.6326 82.3131 73.7075 81.9674 73.7492C80.3423 73.8941 79.0362 74.1456 77.7467 75.2066C77.6435 75.3393 77.5813 75.4191 77.544 75.5093C77.4875 75.6454 77.4875 75.8051 77.4875 76.2059C77.621 76.2617 77.7526 76.3156 77.8831 76.369L78.0176 76.4241C78.2303 76.5124 78.4413 76.6074 78.6507 76.7056C79.2472 77.107 79.7773 77.3019 80.4835 77.4435L80.6131 77.4685L80.615 77.4688C80.8392 77.5121 81.0643 77.5555 81.2895 77.6001C81.3394 77.6102 81.3888 77.6203 81.4379 77.6304C81.4713 77.6372 81.5046 77.6441 81.5378 77.6508C81.6002 77.6636 81.6623 77.6761 81.7248 77.6883C82.6653 77.8749 83.6025 78.0798 84.5397 78.288C84.6851 78.3204 84.8301 78.3525 84.9751 78.3846C85.1201 78.4166 85.2651 78.4487 85.4105 78.4812C85.8791 78.5794 86.3476 78.6777 86.8129 78.786C88.8418 79.2623 90.7545 79.4655 92.8366 79.4306C93.1307 79.4256 93.4248 79.4222 93.7189 79.4206C95.349 79.4122 96.9675 79.3806 98.591 79.204C98.5862 79.1138 98.5817 79.0242 98.5774 78.9352C98.538 78.1371 98.501 77.3861 98.1855 76.6323L98.1042 76.4985C98.0446 76.4003 97.9859 76.3035 97.9263 76.2059C97.7635 75.7796 97.6089 75.3965 97.3647 75.01L97.3618 75.0061C97.2949 74.9128 97.2613 74.866 97.2278 74.8192C97.1945 74.7726 97.1613 74.726 97.0955 74.6336C96.936 74.4104 96.9359 74.4104 96.7798 74.1922C96.5388 73.8574 96.2995 73.5227 96.0602 73.1862C95.7861 72.7981 95.5102 72.4117 95.2327 72.0236C95.0782 71.8088 94.9236 71.5922 94.7691 71.3757C94.6314 71.1825 94.4937 70.989 94.356 70.7955C92.8725 68.7109 91.3838 66.6188 89.7142 64.6816C89.4882 64.4168 89.2639 64.152 89.0396 63.8838C88.9828 63.8155 88.9263 63.7478 88.8701 63.6804L88.8676 63.6774L88.6208 63.3808C88.4813 63.2209 88.3467 63.0643 88.2121 62.9078C87.0821 61.4587 87.1519 60.1395 87.2915 58.384C88.5544 59.0169 89.7824 60.4726 90.6797 61.5503C90.7115 61.5897 90.7429 61.6285 90.7741 61.667C90.8077 61.7086 90.8411 61.7499 90.8743 61.7911C90.8987 61.8213 90.9229 61.8514 90.9472 61.8817C91.6102 62.6712 92.24 63.4341 92.7236 64.3485C92.8913 64.6948 92.8914 64.695 93.1074 65.0464C93.6574 65.5794 94.1227 66.104 94.5514 66.7353C94.6233 66.8433 94.6935 66.9481 94.7637 67.0529L94.7674 67.0584L94.7703 67.0628C95.0119 67.4195 95.2536 67.7761 95.4919 68.1344C95.5261 68.1852 95.5598 68.2354 95.5933 68.2854L95.6357 68.3486C95.6494 68.369 95.663 68.3893 95.6767 68.4096C95.6998 68.444 95.7229 68.4782 95.7462 68.5125C96.8097 70.0998 97.8698 71.6905 98.8934 73.3028C98.9259 73.3541 98.958 73.405 98.9898 73.4556L99.0238 73.5096L99.0246 73.5109L99.0248 73.5113C99.0883 73.6122 99.1509 73.7118 99.2141 73.8108L99.2792 73.9136C99.7601 74.6734 100.228 75.4131 100.537 76.2626C100.659 76.6092 100.711 76.7587 100.776 76.9026C100.826 77.0115 100.882 77.1172 100.982 77.303L100.982 77.3035C102.589 79.9701 103.046 82.8867 103.491 85.9231C103.532 86.1991 103.57 86.4754 103.609 86.7517L103.61 86.7542C103.809 88.175 104.009 89.597 104.407 90.9782C104.417 91.0084 104.426 91.0385 104.436 91.0687L104.464 91.1559C104.592 91.5529 104.72 91.9498 104.822 92.3557C104.827 92.3734 104.831 92.3911 104.835 92.4087C104.842 92.4381 104.849 92.4674 104.856 92.4966L104.856 92.4973L104.876 92.5794C104.882 92.6059 104.889 92.6325 104.895 92.6592L104.899 92.6762L104.905 92.7004C104.953 92.8902 104.999 93.0812 105.045 93.2713L105.072 93.3817C105.148 93.708 105.184 93.8616 105.229 94.0125C105.269 94.1464 105.316 94.2782 105.404 94.5269L105.404 94.5274C106.311 95.6167 107.561 96.1466 108.893 96.5263C108.742 95.4337 108.535 94.3794 108.229 93.32L108.192 93.1953C108.056 92.7408 107.921 92.287 107.803 91.8277C107.607 90.9982 107.365 90.1854 107.11 89.3726C106.994 89.0011 106.88 88.6314 106.767 88.2599C106.668 87.9385 106.569 87.617 106.469 87.2955C106.438 87.1926 106.407 87.0922 106.376 86.9924C106.357 86.929 106.337 86.8659 106.318 86.8025C106.289 86.7081 106.261 86.6136 106.233 86.519C106.048 85.8976 105.863 85.2757 105.562 84.6989C105.296 84.2558 105.07 83.8644 104.915 83.3697C104.648 82.1238 104.312 80.9446 103.825 79.767C103.741 79.5755 103.659 79.3889 103.576 79.204C103.245 78.4095 102.886 77.6384 102.503 76.8705L102.434 76.7342C102.388 76.6437 102.344 76.5547 102.298 76.4658C102.061 75.9911 101.821 75.5147 101.582 75.04H101.25C101.177 74.3155 100.977 73.7675 100.622 73.1329C100.557 73.0196 100.494 72.9114 100.429 72.8014C99.3288 70.8843 98.0725 69.0822 96.8047 67.275C95.9688 66.0857 95.1546 64.8848 94.3537 63.6723C93.7588 62.7645 93.1573 61.8717 92.5009 61.0073C92.4589 60.9533 92.418 60.8999 92.3772 60.8467L92.3766 60.8459L92.3371 60.7944C92.317 60.7682 92.2968 60.742 92.2766 60.7158C90.9073 58.9136 89.3221 57.253 87.6039 55.7823C87.0954 55.3492 86.6102 54.8979 86.1316 54.4332C86.0558 54.3597 86.0184 54.3234 85.9811 54.2871C85.9449 54.2518 85.9088 54.2164 85.8375 54.1467C85.0598 53.4105 84.558 52.7093 84.1343 51.7215C83.5826 50.3591 82.7833 49.7728 81.5487 49.0466C80.4819 48.4636 79.8521 48.0139 79.3137 46.903C78.7205 45.6571 78.7205 45.6571 76.2778 43.9099C76.1892 43.8465 76.1003 43.7833 76.0113 43.7199C74.9719 42.98 73.9162 42.2285 73.0973 41.2466C72.7301 40.7918 72.3363 40.3888 71.9125 39.989L71.87 39.9502C71.792 39.8791 71.716 39.8097 71.64 39.7392C70.8939 39.053 70.1412 38.4217 69.297 37.8587C69.2449 37.8244 69.1928 37.7901 69.1407 37.7559C68.9503 37.6306 68.7601 37.5055 68.5709 37.3774C68.0474 37.0242 67.5223 36.6728 66.9956 36.323C66.6799 36.1165 66.3658 35.9066 66.0551 35.6934C65.0813 35.0222 64.1508 34.4192 63.0374 34.0078C62.0022 33.6331 61.2893 33.2916 60.6114 32.3889C59.9109 31.4472 59.4095 30.7732 58.8183 30.1908C57.3296 28.7245 55.271 27.8393 48.029 24.7254C47.8464 24.6489 47.6704 24.574 47.4945 24.4991L47.494 24.4989ZM65.8557 64.2136H71.1731C70.9429 64.9057 70.8722 65.1185 70.7709 65.3155C70.726 65.4031 70.675 65.4875 70.6015 65.6094C70.2771 66.1555 70.0803 66.7108 69.8692 67.3065L69.8437 67.3782H69.5114L69.4802 67.4843C69.4491 67.5901 69.4179 67.696 69.3868 67.8046C69.1558 68.4409 68.8617 68.9639 68.5144 69.5435C67.868 68.9722 67.4991 68.3226 67.092 67.5764C67.0442 67.4915 67.0201 67.4486 66.9961 67.4057L66.8975 67.23C66.2245 66.0152 65.9862 65.5852 65.9019 65.1267C65.8557 64.8755 65.8557 64.6157 65.8557 64.2136ZM101.748 39.5626C100.834 38.5999 99.8556 37.6838 98.591 37.2308C98.5669 37.6429 98.5496 37.9376 98.5875 38.2247C98.6826 38.9437 99.1238 39.6167 100.67 41.9744C100.692 42.0072 100.713 42.0397 100.735 42.0721L100.736 42.0742C100.78 42.1399 100.823 42.205 100.866 42.2692C101.068 42.5765 101.159 42.7135 101.259 42.8432C101.339 42.9476 101.426 43.0472 101.582 43.227C101.981 43.227 102.141 43.227 102.281 43.1754C102.375 43.1411 102.46 43.084 102.602 42.9888C102.654 42.9428 102.705 42.8975 102.755 42.8526L102.76 42.8482L102.761 42.8473L102.768 42.8409L102.768 42.8406L102.769 42.8402L102.772 42.837C102.833 42.7829 102.893 42.7293 102.953 42.6756C103.309 42.3642 103.309 42.3642 103.576 42.061C103.576 41.8251 103.576 41.6762 103.535 41.5394C103.466 41.3054 103.278 41.1069 102.767 40.5687L101.748 39.5626ZM99.9203 50.3891C100.437 50.4873 100.57 50.539 100.949 50.9404C101.23 51.3584 101.358 51.565 101.416 52.0547C101.436 52.1921 101.447 52.2617 101.457 52.3312C101.468 52.4024 101.478 52.4736 101.499 52.6176C101.411 53.2572 101.364 53.3555 100.917 53.7719C99.7594 54.642 98.5165 54.6005 97.1321 54.5543L97.0955 54.5531C97.1736 53.7569 97.5541 53.2622 98.041 52.6576C98.0959 52.5877 98.1238 52.5523 98.1516 52.517C98.1782 52.4833 98.2048 52.4496 98.2551 52.3861L98.267 52.3711C98.802 51.6949 99.3504 51.0353 99.9203 50.3891ZM106.945 45.265C107.058 44.9762 107.019 44.6273 106.899 43.5601C106.346 43.5601 106.085 43.7133 105.623 43.9998C105.546 44.0494 105.508 44.074 105.47 44.0986C105.433 44.1224 105.396 44.1462 105.324 44.1927L105.321 44.1947C104.895 44.4695 104.48 44.7543 104.075 45.0591C103.99 45.1309 103.901 45.2041 103.81 45.279C103.07 45.8902 102.197 46.6108 102.081 47.5575C102.44 47.5575 102.605 47.5575 102.767 47.5373C102.906 47.5201 103.042 47.4883 103.295 47.4293C103.405 47.3987 103.513 47.3681 103.62 47.3377L103.621 47.3374C103.717 47.31 103.812 47.2829 103.908 47.2561L103.965 47.2405C104.504 47.0908 104.968 46.9619 105.437 46.6448L105.441 46.6416C105.588 46.5165 105.59 46.5155 105.736 46.3916C106.065 46.1834 106.366 45.9702 106.663 45.7187C106.799 45.5315 106.89 45.4053 106.945 45.265ZM96.0469 57.8838C96.3328 58.1203 96.5953 58.3701 96.8562 58.6333L97.1403 58.9081C97.8 59.5594 98.4664 60.2356 98.9233 61.0484V61.3815C97.9915 61.3236 97.6384 61.3017 97.3465 61.1561C97.1684 61.0673 97.0132 60.9325 96.7631 60.7153C96.5853 60.647 96.4075 60.5787 96.2231 60.5088C95.5435 60.2239 95.1097 59.8025 94.6129 59.2695C94.5315 59.1829 94.4501 59.098 94.3653 59.0114C94.1659 58.8032 93.9682 58.5933 93.7721 58.3834L93.9383 57.8838C94.5747 57.6139 95.4421 57.5257 96.0469 57.8838ZM109.101 37.4906C108.646 37.1941 108.265 37.0026 107.73 36.8977C107.674 37.0032 107.617 37.1081 107.56 37.2125C106.981 38.2826 106.427 39.3055 106.401 40.562C107.197 40.562 107.734 40.1889 108.352 39.7092C108.43 39.6377 108.508 39.5676 108.585 39.498L108.586 39.4973C108.65 39.4391 108.715 39.3811 108.779 39.3228L108.842 39.2672C109.315 38.85 109.645 38.5593 109.724 37.897L109.626 37.8322L109.59 37.8085C109.556 37.7865 109.523 37.7644 109.457 37.7205L109.398 37.6828C109.298 37.618 109.2 37.5549 109.101 37.4906ZM78.3184 79.2041C79.1326 79.1707 79.7158 79.2624 80.4786 79.5372C80.596 79.5794 80.7141 79.621 80.8334 79.6631L80.8352 79.6637L80.8477 79.6681C80.9262 79.6958 81.0053 79.7237 81.0851 79.752L81.0858 79.7523L81.0886 79.7533C81.2918 79.8262 81.4951 79.899 81.7049 79.9736L81.7101 79.9754C81.8147 80.0131 81.9194 80.0508 82.0273 80.0902L82.8049 80.37V80.5365C82.7335 80.549 82.6627 80.5608 82.5909 80.5728C82.5475 80.58 82.5038 80.5873 82.4593 80.5948L80.9139 80.8597C80.7345 80.8897 80.555 80.9196 80.3705 80.9513C80.3472 80.9554 80.3238 80.9594 80.3004 80.9635C80.2552 80.9713 80.2099 80.979 80.1645 80.9868L80.164 80.9869C80.0612 81.0045 79.9574 81.0223 79.8521 81.0412C79.6926 81.0679 79.5347 81.0945 79.3719 81.1228L79.3715 81.1229C79.1721 81.1552 79.0746 81.171 78.9828 81.2032C78.895 81.234 78.8124 81.2798 78.6507 81.3693C78.2636 81.376 77.8747 81.376 77.4875 81.3694C77.5863 80.5803 77.9235 79.9463 78.2899 79.2576L78.3184 79.2041ZM74.3168 74.1853C74.2549 74.1851 74.193 74.1851 74.07 74.1851C73.5582 74.2134 73.5084 74.2167 73.4801 74.7297C73.481 74.8073 73.4814 74.8841 73.4818 74.9603C73.4822 75.0378 73.4826 75.1147 73.4835 75.1911C73.4835 75.3194 73.4835 75.3827 73.4837 75.446C73.4837 75.4643 73.4838 75.4826 73.4839 75.5025C73.4842 75.5492 73.4845 75.6047 73.4851 75.6892L73.4851 75.6908L73.4853 75.706L73.4853 75.7065C73.4869 75.8792 73.4884 76.0474 73.4884 76.2171L73.4885 76.2297C73.4918 76.8318 73.4951 77.4356 73.5001 78.0376H73.8324C74.3475 77.5513 74.758 77.025 75.0571 76.3837C75.0919 76.2657 75.1267 76.1527 75.1615 76.0397L75.1618 76.0389H75.4941C75.5405 75.9455 75.5754 75.8753 75.6038 75.8027C75.6893 75.5839 75.7167 75.3423 75.8264 74.3734C75.6715 74.2957 75.5887 74.2542 75.5013 74.2299C75.4012 74.202 75.295 74.1967 75.0671 74.1851C74.9817 74.1851 74.8976 74.1855 74.8141 74.1859C74.7318 74.1864 74.6502 74.1868 74.5685 74.1868H74.5681C74.4421 74.1859 74.3794 74.1855 74.3168 74.1853ZM95.6 46.225C96.3511 46.4682 96.8811 46.818 97.4278 47.391C97.5881 48.3222 97.2817 49.1285 96.9555 49.987L96.9293 50.0559C96.7963 50.0165 96.7206 49.9941 96.6491 49.962C96.5544 49.9196 96.4672 49.8604 96.2647 49.7228C96.1051 49.3098 95.9905 48.9417 95.8908 48.5153C95.8791 48.4698 95.8671 48.4247 95.8551 48.3794C95.8381 48.3151 95.8209 48.2501 95.8044 48.1838C95.6382 47.5192 95.5701 46.9096 95.6 46.225ZM91.1133 52.5544H90.781C90.7112 53.2339 90.6829 53.8752 90.781 54.5531C91.2845 55.3243 92.0655 55.6707 92.9412 55.8856C92.7401 55.171 92.4593 54.5897 92.0638 53.9701C92.0127 53.8904 91.9874 53.8508 91.9619 53.8114C91.9367 53.7726 91.9114 53.7339 91.8611 53.657C91.6218 53.2772 91.3792 52.9175 91.1133 52.5544Z" fill="black"/>
</svg>
