<svg width="163" height="124" viewBox="0 0 163 124" fill="none" xmlns="http://www.w3.org/2000/svg">
<path d="M0.101562 22C0.101562 9.84974 9.94451 0 22.0864 0H141.004C153.146 0 162.989 9.84974 162.989 22V102C162.989 114.15 153.146 124 141.004 124H22.0864C9.94451 124 0.101562 114.15 0.101562 102V22Z" fill="#C5A869"/>
<path fill-rule="evenodd" clip-rule="evenodd" d="M141.004 11H22.0864C16.0154 11 11.094 15.9249 11.094 22V102C11.094 108.075 16.0154 113 22.0864 113H141.004C147.075 113 151.997 108.075 151.997 102V22C151.997 15.9249 147.075 11 141.004 11ZM22.0864 0C9.94451 0 0.101562 9.84974 0.101562 22V102C0.101562 114.15 9.94451 124 22.0864 124H141.004C153.146 124 162.989 114.15 162.989 102V22C162.989 9.84974 153.146 0 141.004 0H22.0864Z" fill="#A68C55"/>
<path fill-rule="evenodd" clip-rule="evenodd" d="M88.332 89.6982C86.5939 89.6982 85.1996 90.179 83.9507 91.1236C83.119 91.7527 82.3735 92.5727 81.6368 93.5239C80.9 92.5727 80.1545 91.7527 79.3228 91.1236C78.0739 90.179 76.6796 89.6982 74.9415 89.6982C73.2212 89.6982 71.5198 90.2324 70.2204 91.2209C68.9059 92.2207 67.9711 93.7211 67.9711 95.5675C67.9711 99.2191 71.5043 101.805 74.9415 101.805C76.8218 101.805 78.2166 101.017 79.3822 99.9574C80.1557 99.2541 80.9044 98.3504 81.6368 97.4619C82.3691 98.3504 83.1178 99.2541 83.8913 99.9574C85.0569 101.017 86.4517 101.805 88.332 101.805C91.7692 101.805 95.3024 99.2191 95.3024 95.5675C95.3024 93.7211 94.3676 92.2207 93.0531 91.2209C91.7537 90.2324 90.0523 89.6982 88.332 89.6982ZM83.3559 95.5076C83.4751 95.6515 83.5906 95.7917 83.7032 95.9283C84.394 96.7669 84.9741 97.4711 85.6188 98.0572C86.4709 98.8319 87.2773 99.2367 88.332 99.2367C90.7645 99.2367 92.7343 97.4199 92.7343 95.5675C92.7343 94.6618 92.2934 93.8695 91.4984 93.2648C90.6884 92.6486 89.5465 92.2663 88.332 92.2663C87.1351 92.2663 86.2885 92.5752 85.4998 93.1718C84.8145 93.6901 84.1464 94.4444 83.3559 95.5076ZM79.5703 95.9283C78.8795 96.7669 78.2994 97.4711 77.6547 98.0572C76.8026 98.8319 75.9962 99.2367 74.9415 99.2367C72.509 99.2367 70.5392 97.4199 70.5392 95.5675C70.5392 94.6618 70.9801 93.8695 71.7751 93.2648C72.5851 92.6486 73.727 92.2663 74.9415 92.2663C76.1384 92.2663 76.985 92.5752 77.7737 93.1718C78.459 93.6901 79.1271 94.4444 79.9176 95.5076C79.7985 95.6514 79.6831 95.7915 79.5706 95.928L79.5703 95.9283Z" fill="black"/>
<path d="M102.089 101.071H110.16L92.6112 72.2722L89.9285 67.8698L88.8107 66.0355L87.0222 63.1006L81.5451 54.1124L76.0679 63.1006L74.2795 66.0355L73.1617 67.8698L70.479 72.2722L52.9297 101.071H61.0007L81.5451 66.5858L102.089 101.071Z" fill="black"/>
<path d="M92.6112 72.2722H114.563L116.214 67.8698H89.9285L92.6112 72.2722Z" fill="black"/>
<path d="M88.8107 66.0355H123.368L125.385 61.8165H87.5983L87.0222 63.1006L88.8107 66.0355Z" fill="black"/>
<path d="M88.3321 60.3491L90.9001 56.1301H133.089L131.255 60.3491H88.3321Z" fill="black"/>
<path d="M92.6112 54.1124L94.7522 49.8935H142.261L140.427 54.1124H92.6112Z" fill="black"/>
<path d="M48.5273 72.2722H70.479L73.1617 67.8698H46.8764L48.5273 72.2722Z" fill="black"/>
<path d="M39.7226 66.0355H74.2795L76.0679 63.1006L75.4918 61.8165H37.7048L39.7226 66.0355Z" fill="black"/>
<path d="M74.7581 60.3491L72.1901 56.1301H30.0007L31.835 60.3491H74.7581Z" fill="black"/>
<path d="M70.479 54.1124L68.338 49.8935H20.8291L22.6634 54.1124H70.479Z" fill="black"/>
<path d="M96.2196 29.3491C97.8705 23.8461 100.622 21.2781 104.841 21.2781C109.06 21.2781 111.444 24.7633 111.444 24.7633L108.693 28.6154C108.693 28.6154 107.226 26.4142 105.391 26.4142C103.557 26.4142 100.622 28.6154 100.622 31.9171C100.622 35.2189 103.557 37.4201 105.391 37.4201C107.226 37.4201 108.693 35.2189 108.693 35.2189L111.444 39.071C111.444 39.071 109.06 42.5562 104.841 42.5562C100.622 42.5562 97.8705 39.9881 96.2196 34.4852H66.8705C65.2196 39.9881 62.4682 42.5562 58.2492 42.5562C54.0303 42.5562 51.6457 39.071 51.6457 39.071L54.3972 35.2189C54.3972 35.2189 55.8646 37.4201 57.6989 37.4201C59.5332 37.4201 62.4682 35.2189 62.4682 31.9171C62.4682 28.6154 59.5332 26.4142 57.6989 26.4142C55.8646 26.4142 54.3972 28.6154 54.3972 28.6154L51.6457 24.7633C51.6457 24.7633 54.0303 21.2781 58.2492 21.2781C62.4682 21.2781 65.2196 23.8461 66.8705 29.3491H96.2196Z" fill="black"/>
</svg>
