<svg width="163" height="124" viewBox="0 0 163 124" fill="none" xmlns="http://www.w3.org/2000/svg">
<path d="M0 22C0 9.84974 9.84294 0 21.9848 0H140.903C153.045 0 162.888 9.84974 162.888 22V102C162.888 114.15 153.045 124 140.903 124H21.9848C9.84295 124 0 114.15 0 102V22Z" fill="#C5A869"/>
<path fill-rule="evenodd" clip-rule="evenodd" d="M140.903 11H21.9848C15.9139 11 10.9924 15.9249 10.9924 22V102C10.9924 108.075 15.9139 113 21.9848 113H140.903C146.974 113 151.895 108.075 151.895 102V22C151.895 15.9249 146.974 11 140.903 11ZM21.9848 0C9.84294 0 0 9.84974 0 22V102C0 114.15 9.84295 124 21.9848 124H140.903C153.045 124 162.888 114.15 162.888 102V22C162.888 9.84974 153.045 0 140.903 0H21.9848Z" fill="#A68C55"/>
<path d="M81.6268 77.7747L71.1712 71.538V84.0113L81.6268 77.7747Z" fill="black"/>
<path d="M92.0824 84.0113V71.538L81.6268 77.7747L92.0824 84.0113Z" fill="black"/>
<path d="M101.804 83.8279H109.875L92.326 55.0291L89.6433 50.6267L88.5256 48.7924L86.7371 45.8575L81.2599 36.8693L75.7828 45.8575L73.9943 48.7924L72.8765 50.6267L70.1938 55.0291L52.6445 83.8279H60.7155L81.2599 49.3427L101.804 83.8279Z" fill="black"/>
<path d="M92.326 55.0291H114.278L115.929 50.6267H89.6433L92.326 55.0291Z" fill="black"/>
<path d="M88.5256 48.7924H123.082L125.1 44.5735H87.3132L86.7371 45.8575L88.5256 48.7924Z" fill="black"/>
<path d="M88.0469 43.106L90.615 38.8871H132.804L130.97 43.106H88.0469Z" fill="black"/>
<path d="M92.326 36.8693L94.467 32.6504H141.976L140.142 36.8693H92.326Z" fill="black"/>
<path d="M48.2422 55.0291H70.1938L72.8765 50.6267H46.5913L48.2422 55.0291Z" fill="black"/>
<path d="M39.4374 48.7924H73.9943L75.7828 45.8575L75.2067 44.5735H37.4197L39.4374 48.7924Z" fill="black"/>
<path d="M74.4729 43.106L71.9049 38.8871H29.7155L31.5499 43.106H74.4729Z" fill="black"/>
<path d="M70.1938 36.8693L68.0528 32.6504H20.5439L22.3783 36.8693H70.1938Z" fill="black"/>
<path d="M56.1297 85.4788H106.757V90.248H56.1297V85.4788Z" fill="black"/>
</svg>
