<svg width="164" height="124" viewBox="0 0 164 124" fill="none" xmlns="http://www.w3.org/2000/svg">
<path d="M0.212891 22C0.212891 9.84974 10.0558 0 22.1977 0H141.116C153.258 0 163.1 9.84974 163.1 22V102C163.1 114.15 153.258 124 141.116 124H22.1977C10.0558 124 0.212891 114.15 0.212891 102V22Z" fill="#C5A869"/>
<path fill-rule="evenodd" clip-rule="evenodd" d="M141.116 11H22.1977C16.1268 11 11.2053 15.9249 11.2053 22V102C11.2053 108.075 16.1268 113 22.1977 113H141.116C147.187 113 152.108 108.075 152.108 102V22C152.108 15.9249 147.187 11 141.116 11ZM22.1977 0C10.0558 0 0.212891 9.84974 0.212891 22V102C0.212891 114.15 10.0558 124 22.1977 124H141.116C153.258 124 163.1 114.15 163.1 102V22C163.1 9.84974 153.258 0 141.116 0H22.1977Z" fill="#A68C55"/>
<path d="M49.0059 21.6023H60.8857H63.6804V29.6733H61.0305H49.0059V21.6023Z" fill="black"/>
<path d="M51.207 38.1112L61.6975 32.0545L63.9156 30.7739L67.9511 37.7636L65.777 39.0188L55.2425 45.1009L51.207 38.1112Z" fill="black"/>
<path d="M61.4792 51.5533L67.6448 40.8743L68.8165 38.8448L75.8062 42.8803L74.6357 44.9076L68.4689 55.5888L61.4792 51.5533Z" fill="black"/>
<path d="M77.2544 57.9218V45.6062V43.2473H85.3254V45.6062V57.9218H77.2544Z" fill="black"/>
<path d="M94.1301 55.5888L87.9602 44.9021L86.7928 42.8803L93.7825 38.8448L94.9478 40.8631L101.12 51.5533L94.1301 55.5888Z" fill="black"/>
<path d="M107.578 45.1303L96.8669 38.9461L94.8698 37.793L98.9053 30.8033L100.914 31.9629L111.614 38.1406L107.578 45.1303Z" fill="black"/>
<path d="M113.996 29.3491H101.617H99.321V21.2781H101.633L113.996 21.2781V29.3491Z" fill="black"/>
<path d="M63.6804 21.6023V29.6733H61.0305C61.2063 30.4858 61.4296 31.2805 61.6975 32.0545L63.9156 30.7739L67.9511 37.7636L65.777 39.0188C66.3598 39.6759 66.9838 40.2958 67.6448 40.8743L68.8165 38.8448L75.8062 42.8803L74.6357 44.9076C75.4852 45.1954 76.3595 45.4296 77.2544 45.6062V43.2473H85.3254V45.6062C86.226 45.4284 87.1056 45.1924 87.9602 44.9021L86.7928 42.8803L93.7825 38.8448L94.9478 40.8631C95.6284 40.2665 96.2696 39.626 96.8669 38.9461L94.8698 37.793L98.9053 30.8033L100.914 31.9629C101.203 31.115 101.438 30.2424 101.617 29.3491H99.321V21.2781L95.9858 21.2781C96.3307 22.5506 96.5147 23.8893 96.5147 25.2709C96.5147 33.6794 89.6983 40.4958 81.2899 40.4958C72.8814 40.4958 66.065 33.6794 66.065 25.2709C66.065 24.0061 66.2193 22.7773 66.51 21.6023H63.6804Z" fill="black"/>
<path fill-rule="evenodd" clip-rule="evenodd" d="M79.8224 70.9455C75.8715 70.9455 72.6686 74.1484 72.6686 78.0994C72.6686 82.0503 75.8715 85.2532 79.8224 85.2532C83.7734 85.2532 86.9763 82.0503 86.9763 78.0994C86.9763 74.1484 83.7734 70.9455 79.8224 70.9455ZM66.4319 78.0994C66.4319 70.704 72.427 64.7088 79.8224 64.7088C87.2178 64.7088 93.213 70.704 93.213 78.0994C93.213 85.4947 87.2178 91.4899 79.8224 91.4899C72.427 91.4899 66.4319 85.4947 66.4319 78.0994Z" fill="black"/>
<path d="M90.0946 74.0639H102.201V81.4011H90.0946V74.0639Z" fill="black"/>
<path d="M56.3431 74.0639H68.4496V81.4011H56.3431V74.0639Z" fill="black"/>
<path d="M90.1469 83.2354L98.7075 91.796L93.5193 96.9843L84.9587 88.4237L90.1469 83.2354Z" fill="black"/>
<path d="M66.3008 57.555L74.8614 66.1156L69.6731 71.3038L61.1125 62.7432L66.3008 57.555Z" fill="black"/>
<path d="M83.4911 89.4721V101.579H76.1538V89.4721H83.4911Z" fill="black"/>
<path d="M82.3905 63.0579V67.8272H77.2544V63.0579H82.3905Z" fill="black"/>
<path d="M74.1274 89.5244L65.5668 98.085L60.3786 92.8968L68.9392 84.3362L74.1274 89.5244Z" fill="black"/>
<path d="M97.9736 63.1102L89.413 71.6708L84.2248 66.4826L92.7854 57.922L97.9736 63.1102Z" fill="black"/>
</svg>
