<svg width="164" height="124" viewBox="0 0 164 124" fill="none" xmlns="http://www.w3.org/2000/svg">
<path d="M0.326172 22C0.326172 9.84974 10.1691 0 22.311 0H141.229C153.371 0 163.214 9.84974 163.214 22V102C163.214 114.15 153.371 124 141.229 124H22.311C10.1691 124 0.326172 114.15 0.326172 102V22Z" fill="#C5A869"/>
<path fill-rule="evenodd" clip-rule="evenodd" d="M141.229 11H22.311C16.2401 11 11.3186 15.9249 11.3186 22V102C11.3186 108.075 16.2401 113 22.311 113H141.229C147.3 113 152.221 108.075 152.221 102V22C152.221 15.9249 147.3 11 141.229 11ZM22.311 0C10.1691 0 0.326172 9.84974 0.326172 22V102C0.326172 114.15 10.1691 124 22.311 124H141.229C153.371 124 163.214 114.15 163.214 102V22C163.214 9.84974 153.371 0 141.229 0H22.311Z" fill="#A68C55"/>
<path fill-rule="evenodd" clip-rule="evenodd" d="M77.8379 108.304C95.8142 101.517 115.441 78.4042 117.826 62.2622C109.205 48.3213 105.169 37.4989 103.518 19.8894C103.335 17.9328 104.289 16.5877 102.968 15.854C96.9148 14.0202 86.6426 28.6943 87.3764 34.5639C84.7983 34.7901 83.1574 34.9301 80.7728 34.5639C78.3882 34.1977 74.903 34.748 73.2521 36.0314C72.5434 36.5823 71.9681 35.8473 71.7846 35.2977C71.6012 34.748 67.5657 20.6231 67.5657 20.6231C66.832 18.606 64.2639 17.322 62.9799 19.3391C62.5455 20.0303 62.3357 20.4663 62.0627 21.3568L60.5953 26.8598C58.0272 34.748 56.9267 44.4699 60.045 47.2207C61.5125 48.5152 61.9813 49.2771 61.5125 50.7059C58.761 50.5232 59.077 52.8504 60.045 58.4101L46.471 72.7178C45.554 73.6356 45.3704 74.7362 46.471 75.6527L55.0923 82.4397C56.3763 83.3575 57.6864 83.0113 59.4947 82.4397L84.6249 72.7178C89.2106 70.5173 92.5124 74.0025 90.1278 77.1202L76.7373 92.345C75.6367 93.4463 74.9029 94.3634 75.2698 95.8303L77.8379 108.304ZM64.4473 23.0084C63.3467 23.0084 62.613 27.2273 62.613 30.5291C62.9187 29.306 63.7136 26.8598 64.4473 26.8598C66.2816 26.8598 65.3645 34.9315 65.3645 43.0025C65.8047 43.0025 67.5045 41.535 68.2994 40.8013C68.2994 34.5639 66.8319 23.0084 64.4473 23.0084ZM99.4828 20.9906C96.7313 20.9906 91.0449 27.4107 91.4118 31.2628C93.4296 29.7954 93.613 26.677 98.1988 23.9255C99.8497 22.935 99.2994 27.2273 98.1988 30.1622C97.0982 33.0971 94.897 37.8664 94.897 39.3338L98.5657 36.7658C98.7491 34.3812 103.335 20.9906 99.4828 20.9906ZM104.069 48.6889C104.619 46.1208 104.069 38.0498 102.785 35.6652C102.785 35.6652 100.583 37.6829 101.134 39.1504C103.335 45.0202 102.051 49.9729 100.583 51.6238C99.116 53.2747 99.116 54.7421 99.6663 54.9255C100.217 55.109 102.418 51.6238 103.702 51.6238C104.986 51.6238 106.453 52.7244 106.453 56.2096C106.453 57.8605 106.453 58.7776 105.72 59.8782C104.986 60.9788 105.169 61.7125 105.536 61.896C105.903 62.0794 109.205 59.1445 109.021 63.3634C109.021 65.748 107.737 71.0676 108.654 71.4344C109.572 71.8013 110.706 67.032 111.222 61.3457C111.323 60.2451 110.122 58.5942 108.471 58.0439V54.0084C108.471 51.8072 106.453 49.606 104.069 48.6889ZM90.1278 46.3042C92.2399 49.3822 93.7964 51.0735 95.8142 51.0735C94.5302 47.2207 87.9266 36.9492 82.6071 36.9492C78.0875 36.9492 69.5834 41.3516 69.5834 43.3693C69.5834 44.4699 69.9503 45.2036 70.5006 45.2036C73.6189 45.2036 77.6544 39.5173 81.8734 39.5173C86.0923 39.5173 90.1278 46.3042 90.1278 46.3042ZM87.7432 53.6415C87.7432 53.6415 81.8734 46.3042 78.755 46.3042C75.6367 46.3042 71.2343 54.1918 71.2343 54.1918C70.5006 55.4758 72.3349 57.3102 73.2521 55.8427C73.2521 55.8427 76.7373 49.4226 78.755 49.4226C82.4236 49.4226 86.4591 54.9255 86.4591 54.9255C87.1929 55.6593 88.8438 54.9255 87.7432 53.6415ZM83.1574 56.393C83.1574 55.4758 80.9562 53.4581 79.1219 53.4581C77.8378 53.4581 75.2698 55.6593 75.2698 56.7599C75.2698 57.3102 75.6367 59.1445 78.5716 59.1445C81.5065 59.1445 83.1574 57.3102 83.1574 56.393ZM101.684 64.8309C99.4828 62.6297 96.7313 58.0439 90.6781 58.0439C84.6248 58.0439 81.6899 63.7303 75.2698 63.7303C72.335 63.7303 69.0331 67.5823 69.5834 70.5173C69.5834 70.5173 72.1515 67.9492 76.187 67.9492C84.6249 67.9492 83.8911 63.18 89.3941 63.18C92.77 63.18 96.0034 65.8807 98.9325 68.4995C101.415 70.7186 103.885 72.663 103.885 75.1031C103.885 80.606 97.2816 77.4877 97.0982 82.2569C97.9056 81.9546 99.116 81.7066 98.5657 82.4397C98.5657 82.4397 95.6307 86.109 92.1455 86.109C88.6603 86.109 89.3941 87.7599 87.5597 87.7599C85.7254 87.7599 81.3231 91.0616 81.8734 95.8303C84.258 93.6297 85.1751 92.7125 88.8438 92.7125C90.3879 92.7125 100.033 86.4758 100.217 85.3752C100.4 84.2747 102.968 82.4397 104.435 80.4226C105.903 78.4054 107.921 74.7362 107.921 72.7178C107.921 70.6995 103.885 67.032 101.684 64.8309ZM57.11 73.2687C57.11 72.3516 55.826 71.6178 54.542 71.6178C53.258 71.6178 52.671 71.6183 51.0568 73.0853C49.5893 74.5528 51.0568 75.8368 53.6248 76.0202C56.1929 76.2036 57.11 74.1859 57.11 73.2687Z" fill="black"/>
<path fill-rule="evenodd" clip-rule="evenodd" d="M58.9444 84.6415L85.9089 74.5528C88.8043 73.4655 89.2046 75.3335 88.11 76.5705L74.1692 91.7954C58.9444 107.849 51.0568 101.079 56.5597 87.2096C57.0649 85.9364 58.0272 85.0084 58.9444 84.6415ZM61.4601 96.4135C64.1701 88.7583 69.9073 85.4194 81.8734 79.8581C82.8613 79.399 82.6212 78.0776 81.0705 78.537C66.1823 82.9477 61.5563 86.8681 59.7674 96.4135C59.5919 97.3503 60.9999 97.7133 61.4601 96.4135Z" fill="black"/>
</svg>
