<svg width="163" height="124" viewBox="0 0 163 124" fill="none" xmlns="http://www.w3.org/2000/svg">
<path d="M0.101562 22C0.101562 9.84974 9.94451 0 22.0864 0H141.004C153.146 0 162.989 9.84974 162.989 22V102C162.989 114.15 153.146 124 141.004 124H22.0864C9.94451 124 0.101562 114.15 0.101562 102V22Z" fill="#C5A869"/>
<path fill-rule="evenodd" clip-rule="evenodd" d="M141.004 11H22.0864C16.0154 11 11.094 15.9249 11.094 22V102C11.094 108.075 16.0154 113 22.0864 113H141.004C147.075 113 151.997 108.075 151.997 102V22C151.997 15.9249 147.075 11 141.004 11ZM22.0864 0C9.94451 0 0.101562 9.84974 0.101562 22V102C0.101562 114.15 9.94451 124 22.0864 124H141.004C153.146 124 162.989 114.15 162.989 102V22C162.989 9.84974 153.146 0 141.004 0H22.0864Z" fill="#A68C55"/>
<path fill-rule="evenodd" clip-rule="evenodd" d="M89.4522 53.8769L54.1786 34.7066L73.5952 69.798L108.545 89.2932L89.4522 53.8769ZM88.1016 55.2329L103.947 84.6259L74.9415 68.4463L88.1016 55.2329Z" fill="black"/>
<path fill-rule="evenodd" clip-rule="evenodd" d="M54.4613 56.4415C54.0953 58.2368 53.903 60.0957 53.903 61.9997C53.903 63.9036 54.0953 65.7625 54.4613 67.5579L50.5429 66.3638C50.5427 66.3618 50.5424 66.3599 50.5421 66.3579L50.5429 66.3638L48.6246 65.786C48.4836 64.5435 48.4112 63.2801 48.4112 61.9997C48.4112 60.7193 48.4836 59.4559 48.6246 58.2134L50.5429 57.6356C50.5427 57.6375 50.5424 57.6395 50.5421 57.6415L50.5429 57.6356L54.4613 56.4415ZM50.5421 57.6415C50.3442 59.0657 50.2418 60.5207 50.2418 61.9997C50.2418 63.4787 50.3442 64.9337 50.5421 66.3579C50.5424 66.3599 50.5427 66.3618 50.5429 66.3638L50.5421 66.3579C50.3442 64.9337 50.2418 63.4787 50.2418 61.9997C50.2418 60.5207 50.3442 59.0657 50.5421 57.6415C50.5424 57.6395 50.5427 57.6375 50.5429 57.6356L50.5421 57.6415Z" fill="black"/>
<path d="M48.6246 58.2134C48.4836 59.4559 48.4112 60.7193 48.4112 61.9997C48.4112 63.2801 48.4836 64.5435 48.6246 65.786L36.0545 61.9997L48.6246 58.2134Z" fill="black"/>
<path d="M77.5913 29.1295C78.8288 28.9879 80.0871 28.9152 81.3623 28.9152C82.6375 28.9152 83.8957 28.9879 85.1332 29.1295L85.7086 31.0556C84.2883 30.8563 82.8374 30.7532 81.3623 30.7532C79.8873 30.7532 78.4362 30.8563 77.0158 31.0556L77.5913 29.1295Z" fill="black"/>
<path d="M81.3623 28.9152C80.0871 28.9152 78.8288 28.9879 77.5913 29.1295L81.3623 16.5085L85.1332 29.1295C83.8957 28.9879 82.6375 28.9152 81.3623 28.9152Z" fill="black"/>
<path d="M85.1332 29.1295C100.318 30.8666 112.37 42.9669 114.1 58.2134L112.182 57.6356C111.268 51.0715 108.323 45.1609 104.006 40.5646C103.587 40.1188 103.155 39.6854 102.711 39.2649C98.1333 34.9297 92.2464 31.9729 85.7086 31.0556L85.1332 29.1295Z" fill="black"/>
<path d="M114.313 61.9997C114.313 60.7193 114.241 59.4559 114.1 58.2134L126.67 61.9997L114.1 65.786C114.241 64.5435 114.313 63.2801 114.313 61.9997Z" fill="black"/>
<path d="M114.1 58.2134C114.241 59.4559 114.313 60.7193 114.313 61.9997C114.313 63.2801 114.241 64.5435 114.1 65.786L112.182 66.3638L112.182 66.3579C112.38 64.9337 112.483 63.4787 112.483 61.9997C112.483 60.5207 112.38 59.0657 112.182 57.6415L112.182 57.6356L114.1 58.2134Z" fill="black"/>
<path d="M108.821 61.9997C108.821 60.0957 108.629 58.2368 108.263 56.4415L112.182 57.6356L112.182 57.6415C112.38 59.0657 112.483 60.5207 112.483 61.9997C112.483 63.4787 112.38 64.9337 112.182 66.3579L112.182 66.3638L108.263 67.5578C108.629 65.7625 108.821 63.9036 108.821 61.9997Z" fill="black"/>
<path d="M77.5913 94.8698C78.8288 95.0114 80.0871 95.0841 81.3623 95.0841C82.6375 95.0841 83.8957 95.0114 85.1332 94.8698L81.3623 107.491L77.5913 94.8698Z" fill="black"/>
<path d="M81.3623 95.0841C80.0871 95.0841 78.8288 95.0114 77.5913 94.8698L77.0158 92.9438C78.4362 93.1431 79.8873 93.2461 81.3623 93.2461C82.8374 93.2461 84.2883 93.1431 85.7086 92.9438L85.1332 94.8698C83.8957 95.0114 82.6375 95.0841 81.3623 95.0841Z" fill="black"/>
<path d="M77.0158 31.0556C78.4362 30.8563 79.8873 30.7532 81.3623 30.7532C82.8374 30.7532 84.2883 30.8563 85.7086 31.0556L86.854 34.9808C86.8401 34.9779 86.8261 34.9751 86.8122 34.9723C85.0508 34.6162 83.2283 34.4293 81.3623 34.4293C79.6296 34.4293 77.9343 34.5904 76.2906 34.8986C76.1502 34.9249 76.0102 34.9523 75.8707 34.9808L77.0158 31.0556Z" fill="black"/>
<path d="M77.5913 94.8698C63.2216 93.2261 51.6579 82.3019 48.9914 68.2135C48.8401 67.4141 48.7175 66.6046 48.6246 65.786L50.5429 66.3638C51.4566 72.9279 54.4014 78.8386 58.7191 83.435C59.1379 83.8807 59.5695 84.3142 60.0135 84.7346C64.5913 89.0698 70.4782 92.0264 77.0158 92.9438L77.5913 94.8698Z" fill="black"/>
<path d="M81.3623 93.2461C79.8873 93.2461 78.4362 93.1431 77.0158 92.9438L75.7524 88.9942C77.5635 89.3717 79.4398 89.5701 81.3623 89.5701C83.0081 89.5701 84.62 89.4247 86.186 89.146C86.3963 89.1086 86.6058 89.0688 86.8144 89.0266L86.8517 89.0191L86.8544 89.0185L85.7086 92.9438C84.2883 93.1431 82.8374 93.2461 81.3623 93.2461Z" fill="black"/>
<path d="M102.711 39.2649C103.155 39.6854 103.587 40.1188 104.006 40.5646L101.415 43.1652C100.998 42.7177 100.567 42.2843 100.121 41.8655L102.711 39.2649Z" fill="black"/>
<path d="M61.3092 80.8343C61.7263 81.2818 62.158 81.7153 62.6037 82.134L60.0135 84.7346C59.5695 84.3142 59.1379 83.8807 58.7191 83.435L61.3092 80.8343Z" fill="black"/>
<path fill-rule="evenodd" clip-rule="evenodd" d="M48.6246 58.2134C49.3492 51.8282 51.884 45.9949 55.7011 41.2435L56.6651 42.9855C53.4705 47.1623 51.3033 52.1726 50.5429 57.6356L48.6246 58.2134ZM96.767 84.8261L93.1084 82.7854C89.6429 84.764 85.634 85.894 81.3623 85.894C68.219 85.894 57.5643 75.1961 57.5643 61.9997C57.5643 57.7107 58.6897 53.6857 60.6603 50.2061L58.6278 46.5327C57.1308 48.7466 55.9462 51.1907 55.1376 53.8011C54.8703 54.6638 54.6441 55.5447 54.4613 56.4415C54.0953 58.2368 53.903 60.0957 53.903 61.9997C53.903 63.9036 54.0953 65.7625 54.4613 67.5579C54.6441 68.4546 54.8703 69.3355 55.1376 70.1983C56.3818 74.2149 58.5163 77.8378 61.3092 80.8343C61.7263 81.2818 62.158 81.7153 62.6037 82.134C66.2114 85.5238 70.7307 87.9476 75.7524 88.9942C77.5635 89.3717 79.4398 89.5701 81.3623 89.5701C83.0081 89.5701 84.62 89.4247 86.186 89.146C86.3963 89.1086 86.6058 89.0688 86.8144 89.0266L86.8517 89.0191C90.4649 88.283 93.8206 86.8346 96.767 84.8261ZM102.035 87.7646L100.3 86.7968C96.1398 90.0043 91.1496 92.1803 85.7086 92.9438L85.1332 94.8698C91.4926 94.1424 97.3025 91.5972 102.035 87.7646ZM102.169 73.6056C104.075 70.1693 105.16 66.2118 105.16 61.9997C105.16 48.8032 94.5056 38.1053 81.3623 38.1053C77.1672 38.1053 73.2256 39.1952 69.8031 41.1084L66.0844 39.0873C68.9995 37.1239 72.31 35.7064 75.8707 34.9808C76.0102 34.9523 76.1502 34.9249 76.2906 34.8986C77.9343 34.5904 79.6296 34.4293 81.3623 34.4293C83.2283 34.4293 85.0508 34.6162 86.8122 34.9723L86.854 34.9808C91.9231 36.0139 96.4851 38.449 100.121 41.8655C100.567 42.2843 100.998 42.7177 101.415 43.1652C104.808 46.8053 107.229 51.3697 108.263 56.4415C108.629 58.2368 108.821 60.0957 108.821 61.9997C108.821 63.9036 108.629 65.7625 108.263 67.5578C107.538 71.1161 106.13 74.4246 104.182 77.3394L102.169 73.6056ZM112.182 66.3638C111.426 71.792 109.281 76.7734 106.12 80.9341L107.071 82.697C110.861 77.9563 113.378 72.1447 114.1 65.786L112.182 66.3638ZM62.5041 37.1415L60.7483 36.1873C65.4699 32.3811 71.2581 29.854 77.5913 29.1295L77.0158 31.0556C71.6094 31.8142 66.6481 33.9674 62.5041 37.1415Z" fill="black"/>
</svg>
