<svg width="164" height="124" viewBox="0 0 164 124" fill="none" xmlns="http://www.w3.org/2000/svg">
<path d="M0.988281 22C0.988281 9.84974 10.8312 0 22.9731 0H141.891C154.033 0 163.876 9.84974 163.876 22V102C163.876 114.15 154.033 124 141.891 124H22.9731C10.8312 124 0.988281 114.15 0.988281 102V22Z" fill="#C5A869"/>
<path fill-rule="evenodd" clip-rule="evenodd" d="M141.891 11H22.9731C16.9022 11 11.9807 15.9249 11.9807 22V102C11.9807 108.075 16.9022 113 22.9731 113H141.891C147.962 113 152.883 108.075 152.883 102V22C152.883 15.9249 147.962 11 141.891 11ZM22.9731 0C10.8312 0 0.988281 9.84974 0.988281 22V102C0.988281 114.15 10.8312 124 22.9731 124H141.891C154.033 124 163.876 114.15 163.876 102V22C163.876 9.84974 154.033 0 141.891 0H22.9731Z" fill="#A68C55"/>
<path d="M60.536 41.3111C62.3912 42.263 65.6644 45.434 64.5394 47.6265C63.7605 49.1444 60.9755 47.9283 57.9398 46.3706C55.5112 45.1244 53.9876 43.2773 54.2516 42.3475C51.7219 41.0493 48.695 38.6439 49.0412 37.9693C49.3874 37.2947 52.0858 38.6794 55.2036 40.4923C56.2288 39.74 59.0519 40.5495 60.536 41.3111Z" fill="black"/>
<path d="M64.7045 49.2756C66.6551 50.0123 70.2649 52.7942 69.3942 55.0995C68.7914 56.6955 65.8871 55.8011 62.6951 54.5955C60.1416 53.631 58.4194 51.9674 58.577 51.0138C55.917 50.0091 52.6383 47.9602 52.9062 47.2509C53.1741 46.5415 56.0114 47.6132 59.3137 49.0631C60.2476 48.2001 63.144 48.6862 64.7045 49.2756Z" fill="black"/>
<path d="M68.1933 56.9694C70.2074 57.5091 74.0752 59.9192 73.4374 62.2995C72.9959 63.9474 70.0172 63.3455 66.7214 62.4624C64.0848 61.7559 62.2061 60.2713 62.2683 59.3067C59.5218 58.5708 56.0561 56.8572 56.2523 56.1248C56.4486 55.3924 59.3782 56.1774 62.808 57.2926C63.6517 56.3412 66.582 56.5377 68.1933 56.9694Z" fill="black"/>
<path fill-rule="evenodd" clip-rule="evenodd" d="M120.671 33.7501C120.671 40.8416 114.922 46.5904 107.831 46.5904C100.739 46.5904 94.9906 40.8416 94.9906 33.7501C94.9906 26.6587 100.739 20.9099 107.831 20.9099C114.922 20.9099 120.671 26.6587 120.671 33.7501ZM101.227 33.7501C101.227 37.3972 104.184 40.3537 107.831 40.3537C109.522 40.3537 111.065 39.7179 112.233 38.6722L113.254 41.5977C111.715 42.6639 109.846 43.2886 107.831 43.2886C102.563 43.2886 98.2924 39.0181 98.2924 33.7501C98.2924 28.4822 102.563 24.2117 107.831 24.2117C112.6 24.2117 116.551 27.7114 117.257 32.2827L114.434 33.7501C114.434 30.1031 111.478 27.1466 107.831 27.1466C104.184 27.1466 101.227 30.1031 101.227 33.7501Z" fill="black"/>
<path d="M100.127 46.2235L84.2169 72.327L83.0042 74.3167L69.4935 96.4839C68.821 97.7679 68.4296 99.749 72.245 97.401C77.0143 94.4661 80.8663 90.2472 81.7835 91.1644C82.7007 92.0815 76.8308 99.4188 73.7125 101.253C70.5942 103.087 64.3575 103.821 63.0734 102.354C61.7894 100.886 63.4403 99.0519 64.5409 97.401C65.0577 96.6258 72.6363 84.4363 80.9476 71.0495C81.3451 70.4092 81.7443 69.7663 82.1444 69.1216C87.6314 60.2829 93.3033 51.1394 97.3751 44.5726L100.127 46.2235Z" fill="black"/>
<path d="M84.2169 72.327L83.0042 74.3167C89.1273 84.0314 95.4709 93.9883 100.127 101.253C100.555 101.926 101.631 103.087 102.511 102.354C104.712 100.703 98.4757 94.6496 96.2746 82.543C94.0734 70.4365 98.2595 63.9305 99.2095 63.0993C100.677 61.8152 103.062 61.2649 101.778 59.9809C100.188 59.8586 96.3479 60.4578 93.7065 63.833C90.4047 68.0519 90.5882 74.1052 91.1385 76.8567C91.6888 79.6081 93.3396 83.0933 92.6059 83.6436C92.0189 84.0839 91.1385 83.0933 90.7716 82.543C88.9046 79.6147 86.6392 76.0804 84.2169 72.327Z" fill="black"/>
<path d="M80.9476 71.0495C81.3451 70.4092 81.7443 69.7663 82.1444 69.1216C73.4229 55.658 63.6106 40.8411 63.0734 41.2709C62.6399 41.6176 71.2325 55.5952 80.9476 71.0495Z" fill="black"/>
<path d="M83.4343 57.046C83.4343 59.0638 82.1503 63.2827 79.7657 63.2827C78.1148 63.2827 77.9314 60.3478 77.9314 57.046C77.9314 54.4046 78.8485 52.2768 79.7657 52.0933C79.7657 49.3419 80.4994 45.6732 81.2331 45.6732C81.9669 45.6732 81.9669 48.6081 81.7834 52.0933C82.884 52.6436 83.4343 55.4318 83.4343 57.046Z" fill="black"/>
<path d="M78.4817 49.5253C78.4817 51.543 77.1976 55.762 74.813 55.762C73.1621 55.762 72.9787 52.8271 72.9787 49.5253C72.9787 46.8839 73.8959 44.7561 74.813 44.5726C74.813 41.8212 75.5467 38.1525 76.2805 38.1525C77.0142 38.1525 77.0142 41.0874 76.8308 44.5726C77.9314 45.1229 78.4817 47.9111 78.4817 49.5253Z" fill="black"/>
<path d="M73.6996 42.1644C73.8296 44.1779 72.8199 48.4708 70.4402 48.6244C68.7928 48.7307 68.4207 45.8137 68.2081 42.5187C68.038 39.8828 68.8162 37.7003 69.7197 37.4582C69.5425 34.7125 70.0385 31.0042 70.7707 30.9569C71.5029 30.9097 71.6919 33.8385 71.7332 37.3283C72.867 37.8066 73.5957 40.5535 73.6996 42.1644Z" fill="black"/>
<path d="M68.1581 34.7564C68.4174 36.7574 67.6863 41.1064 65.3214 41.4128C63.6842 41.625 63.1251 38.738 62.7007 35.4636C62.3612 32.8441 62.9973 30.6161 63.8833 30.3163C63.5297 27.5876 63.7858 23.8551 64.5134 23.7608C65.2411 23.6665 65.6183 26.5771 65.8843 30.057C67.0465 30.4612 67.9506 33.1556 68.1581 34.7564Z" fill="black"/>
<path d="M57.0777 31.8106C59.1977 32.8984 62.938 36.522 61.6524 39.0274C60.7624 40.7619 57.5799 39.3723 54.1109 37.5922C51.3357 36.1682 49.5946 34.0574 49.8963 32.9949C47.0055 31.5115 43.5466 28.7627 43.9422 27.9918C44.3378 27.2209 47.4213 28.8032 50.9842 30.8749C52.1557 30.0153 55.3818 30.9403 57.0777 31.8106Z" fill="black"/>
</svg>
