<svg width="164" height="124" viewBox="0 0 164 124" fill="none" xmlns="http://www.w3.org/2000/svg">
<path d="M0.876953 22C0.876953 9.84974 10.7199 0 22.8618 0H141.78C153.922 0 163.765 9.84974 163.765 22V102C163.765 114.15 153.922 124 141.78 124H22.8618C10.7199 124 0.876953 114.15 0.876953 102V22Z" fill="#C5A869"/>
<path fill-rule="evenodd" clip-rule="evenodd" d="M141.78 11H22.8618C16.7908 11 11.8694 15.9249 11.8694 22V102C11.8694 108.075 16.7908 113 22.8618 113H141.78C147.851 113 152.772 108.075 152.772 102V22C152.772 15.9249 147.851 11 141.78 11ZM22.8618 0C10.7199 0 0.876953 9.84974 0.876953 22V102C0.876953 114.15 10.7199 124 22.8618 124H141.78C153.922 124 163.765 114.15 163.765 102V22C163.765 9.84974 153.922 0 141.78 0H22.8618Z" fill="#A68C55"/>
<path d="M73.5528 84.0564C73.5528 86.9155 79.4207 87.5019 80.3987 89.188C81.1594 88.0151 79.1817 86.9155 78.2254 86.329C77.0301 85.5959 75.5088 84.4963 75.5088 83.5432C75.5088 82.7808 76.0883 81.9549 76.3781 81.6372C75.0741 81.7838 73.5528 82.6635 73.5528 84.0564Z" fill="black"/>
<path d="M76.5954 83.25C76.5954 85.9624 80.8334 86.4023 81.3767 89.188C82.1374 86.329 78.9861 85.3027 78.9861 82.9568C78.9861 81.6372 78.9861 81.1241 79.9641 80.2444C78.8774 80.2444 76.5954 80.9041 76.5954 83.25Z" fill="black"/>
<path d="M82.1374 89.188C82.4634 86.329 84.0934 84.9361 84.0934 81.9305C84.0934 79.438 83.2241 78.1184 82.1374 76.5056C81.0507 78.1184 80.1814 79.438 80.1814 81.9305C80.1814 84.9361 81.8114 86.329 82.1374 89.188Z" fill="black"/>
<path d="M82.8981 89.188C83.4414 86.4023 87.6794 85.9624 87.6794 83.25C87.6794 80.9041 85.3974 80.2444 84.3107 80.2444C85.2887 81.1241 85.2887 81.6372 85.2887 82.9568C85.2887 85.3027 82.1374 86.329 82.8981 89.188Z" fill="black"/>
<path d="M83.8761 89.188C84.854 87.5019 90.722 86.9155 90.722 84.0564C90.722 82.6635 89.2007 81.7838 87.8967 81.6372C88.1865 81.9549 88.766 82.7808 88.766 83.5432C88.766 84.4963 87.2447 85.5959 86.0494 86.329C85.0931 86.9155 83.1154 88.0151 83.8761 89.188Z" fill="black"/>
<path fill-rule="evenodd" clip-rule="evenodd" d="M82.1374 103.456C85.3582 103.456 87.9691 100.865 87.9691 97.6703C87.9691 94.4751 85.3582 91.8849 82.1374 91.8849C78.9166 91.8849 76.3056 94.4751 76.3056 97.6703C76.3056 100.865 78.9166 103.456 82.1374 103.456Z" fill="black"/>
<path d="M77.6016 89.6809H86.6732V91.1503H77.6016V89.6809Z" fill="black"/>
<path d="M75.1425 72.3838H89.4502V75.8715H75.1425V72.3838Z" fill="black"/>
<path d="M102.804 70.64L107.096 68.8961L111.707 71.7497L106.778 73.6521V79.8347L102.804 77.1397V70.64Z" fill="black"/>
<path d="M109.004 74.3485L113.296 72.6047L117.907 75.4582L112.978 77.3606V83.5432L109.004 80.8482V74.3485Z" fill="black"/>
<path d="M61.4707 70.64L57.1784 68.8961L52.5682 71.7497L57.4964 73.6521V79.8347L61.4707 77.1397V70.64Z" fill="black"/>
<path d="M55.2707 74.3485L50.9784 72.6047L46.3682 75.4582L51.2964 77.3606V83.5432L55.2707 80.8482V74.3485Z" fill="black"/>
<path d="M82.1374 71.7497C83.282 71.7497 84.84 71.0099 85.4759 70.64V63.8232V53.5187V36.3975C85.4759 30.2148 82.9005 20.5444 82.1374 20.5444C81.3743 20.5444 78.7989 30.2148 78.7989 36.3975V53.5187V63.8232V70.64C79.4348 71.0099 80.9928 71.7497 82.1374 71.7497Z" fill="black"/>
<path fill-rule="evenodd" clip-rule="evenodd" d="M105.189 38.7754L86.6732 52.6232V59.0673V64.5566L96.6041 70.64V74.1277L100.419 76.5056V70.0059L105.825 67.6279L101.691 65.0914L98.0348 66.0426L86.6732 59.0673L108.368 42.8972L108.845 48.7628L112.343 45.7507L115.204 34.0195H103.758L101.214 36.3975L105.189 38.7754Z" fill="black"/>
<path fill-rule="evenodd" clip-rule="evenodd" d="M77.6016 64.5566V59.0673L77.6016 52.6232L59.0861 38.7754L63.0605 36.3975L60.5169 34.0195H49.0707L51.9323 45.7507L55.4297 48.7628L55.9066 42.8972L77.6016 59.0673L66.24 66.0426L62.5835 65.0914L58.4502 67.6279L63.8553 70.0059V76.5056L67.6707 74.1277V70.64L77.6016 64.5566Z" fill="black"/>
</svg>
