<svg width="163" height="124" viewBox="0 0 163 124" fill="none" xmlns="http://www.w3.org/2000/svg">
<path d="M0 22C0 9.84974 9.84294 0 21.9848 0H140.903C153.045 0 162.888 9.84974 162.888 22V102C162.888 114.15 153.045 124 140.903 124H21.9848C9.84295 124 0 114.15 0 102V22Z" fill="#C5A869"/>
<path fill-rule="evenodd" clip-rule="evenodd" d="M140.903 11H21.9848C15.9139 11 10.9924 15.9249 10.9924 22V102C10.9924 108.075 15.9139 113 21.9848 113H140.903C146.974 113 151.895 108.075 151.895 102V22C151.895 15.9249 146.974 11 140.903 11ZM21.9848 0C9.84294 0 0 9.84974 0 22V102C0 114.15 9.84295 124 21.9848 124H140.903C153.045 124 162.888 114.15 162.888 102V22C162.888 9.84974 153.045 0 140.903 0H21.9848Z" fill="#A68C55"/>
<path d="M104.881 79.4994C104.524 78.9737 104.172 78.7245 103.845 78.6116C103.72 78.5682 103.598 78.5449 103.481 78.5339C103.295 78.5162 103.122 78.5296 102.965 78.5416L102.931 78.5442C102.527 78.5748 102.242 78.5801 102.161 77.9762C102.123 77.6928 102.258 77.4759 102.505 77.3226C102.672 77.219 102.89 77.1444 103.14 77.098C103.425 77.045 103.753 77.0288 104.094 77.0478C105.147 77.1069 106.329 77.504 106.802 78.1989L112.289 86.2609L111.674 89.4808L116.171 92.7914L116.166 96.9071L112.514 96.7627L113.057 99.7597L108.872 97.7329L109.215 102.361L106.623 100.751L105.409 104.189L101.572 102.675L100.148 97.2833L96.9205 96.6642L91.4343 88.6023C90.9614 87.9073 91.0279 86.6649 91.3619 85.6665C91.4699 85.3437 91.6059 85.0463 91.7608 84.8012C91.8963 84.5866 92.0463 84.4121 92.2045 84.2956C92.4384 84.1234 92.6904 84.0782 92.9404 84.2182C93.4731 84.5165 93.3633 84.7779 93.1855 85.1413L93.1705 85.172C93.1014 85.3127 93.0249 85.4688 92.9726 85.6478C92.9398 85.7601 92.9165 85.8815 92.9106 86.0139C92.8953 86.358 92.9976 86.7762 93.3553 87.3019C94.6615 89.2214 98.775 88.119 101.208 86.4718C103.642 84.8246 106.188 81.4189 104.881 79.4994Z" fill="black"/>
<path d="M107.538 29.1085L98.873 23.0194L60.4699 68.786H80.9516L63.2271 90.1961L59.8791 86.4641L56.1373 102.964L72.4832 93.5353L66.3781 92.1603L94.9342 63.4825H75.4373L107.538 29.1085Z" fill="black"/>
<path d="M55.383 24.4776C54.6225 22.6359 54.0938 21.3555 56.0122 20.0568C57.9306 18.7581 58.9285 19.721 60.3637 21.1059C60.4615 21.2002 60.5613 21.2965 60.6635 21.3941C60.9269 21.6457 61.6142 22.2308 62.6098 23.0784C63.4195 23.7679 64.4333 24.631 65.589 25.6296C66.6796 26.572 67.8966 27.6351 69.1876 28.7868C72.5206 31.7598 76.3475 35.323 79.7699 38.9241C80.4347 39.6237 81.0843 40.3246 81.712 41.023L68.7249 56.5002C65.0457 50.4398 61.5689 41.7527 59.0973 34.9893C58.5223 33.4159 58.0017 31.9465 57.5456 30.6386C57.0947 29.3456 56.7067 28.21 56.3917 27.2878C55.9696 26.0524 55.678 25.1989 55.5409 24.8619C55.4877 24.7312 55.4347 24.6029 55.383 24.4776Z" fill="black"/>
<path d="M93.5793 59.5539C93.9623 60.3458 94.3345 61.1332 94.6948 61.911L79.0581 61.9113L89.1176 51.1395C90.7054 53.8398 92.211 56.7248 93.5793 59.5539Z" fill="black"/>
<path d="M101.702 79.8945C102.225 81.7602 102.198 83.3722 100.076 84.8083C97.9548 86.2443 96.4427 85.6747 94.8973 84.501C94.4438 84.1566 93.9874 83.7601 93.5119 83.3471L93.4574 83.2998C93.1785 83.0575 92.8928 82.81 92.5971 82.5644C92.4363 82.4308 92.2726 82.2979 92.1054 82.1666C90.9713 81.276 88.2727 78.8911 84.999 75.6905L95.9516 64.6912C98.3661 70.163 100.06 74.7729 100.558 76.4447C100.618 76.6482 100.682 76.849 100.747 77.0473C100.867 77.4121 100.992 77.7683 101.115 78.1163L101.138 78.1843L101.178 78.2953C101.373 78.8486 101.558 79.3812 101.702 79.8945Z" fill="black"/>
<path d="M116.334 58.5718H101.63V59.5539H95.3264C95.7053 60.3473 96.0731 61.1347 96.4285 61.911H101.63V62.8931H116.334C115.93 69.3807 113.722 75.381 110.205 80.4009L112.788 84.1975C117.363 78.2232 120.233 70.881 120.674 62.8931H122.9V58.5718H120.674C120.079 47.7991 115.067 38.2008 107.413 31.5485L104.458 34.7127C111.262 40.576 115.741 49.0489 116.334 58.5718Z" fill="black"/>
<path d="M84.1026 95.0397V78.0177H83.2164V77.4807L82.6816 78.0177L79.7699 80.9418V95.0397C77.9213 94.9254 76.1121 94.6657 74.3537 94.2719L69.1459 97.2757C72.5011 98.4438 76.0663 99.1652 79.7699 99.3686V101.981H84.1026V99.3686C88.016 99.1537 91.7748 98.3605 95.2946 97.073L92.7759 93.3719C90.0223 94.2811 87.1148 94.8534 84.1026 95.0397Z" fill="black"/>
<path d="M47.5389 62.8931H62.4393V61.911H64.1846L66.1625 59.5539H62.4393V58.5718H47.5389C48.0843 49.8015 51.9271 41.9217 57.8457 36.1508C57.2605 34.5614 56.7277 33.0677 56.2571 31.7256C48.7174 38.3706 43.788 47.8944 43.1988 58.5718H39.9883V62.8931H43.1988C43.8151 74.0631 49.1814 83.9706 57.317 90.6404L58.4041 85.8466C52.1694 80.0328 48.1013 71.9364 47.5389 62.8931Z" fill="black"/>
<path d="M79.7699 19.68V22.0964C75.336 22.3398 71.1004 23.3258 67.1862 24.9317C68.3112 25.9081 69.5528 26.9987 70.86 28.1721C73.6835 27.217 76.6713 26.6169 79.7699 26.4252V36.6559C80.7881 37.6994 81.7832 38.7537 82.7333 39.8058L84.1026 38.174V26.4252C87.0536 26.6078 89.904 27.1607 92.6077 28.038L95.5788 24.4972C91.9774 23.1477 88.1215 22.317 84.1026 22.0964V19.68H79.7699Z" fill="black"/>
</svg>
