<svg width="164" height="124" viewBox="0 0 164 124" fill="none" xmlns="http://www.w3.org/2000/svg">
<path d="M0.887695 22C0.887695 9.84974 10.7306 0 22.8725 0H141.79C153.932 0 163.775 9.84974 163.775 22V102C163.775 114.15 153.932 124 141.79 124H22.8725C10.7306 124 0.887695 114.15 0.887695 102V22Z" fill="#C5A869"/>
<path fill-rule="evenodd" clip-rule="evenodd" d="M141.79 11H22.8725C16.8016 11 11.8801 15.9249 11.8801 22V102C11.8801 108.075 16.8016 113 22.8725 113H141.79C147.861 113 152.783 108.075 152.783 102V22C152.783 15.9249 147.861 11 141.79 11ZM22.8725 0C10.7306 0 0.887695 9.84974 0.887695 22V102C0.887695 114.15 10.7306 124 22.8725 124H141.79C153.932 124 163.775 114.15 163.775 102V22C163.775 9.84974 153.932 0 141.79 0H22.8725Z" fill="#A68C55"/>
<path d="M83.065 93.551L85.633 89.6989H120.669L118.467 93.551H83.065Z" fill="black"/>
<path d="M86.5502 87.6811L88.9086 84.0125H129.447L127.455 87.6811H86.5502Z" fill="black"/>
<path d="M90.0354 81.8113L92.3938 78.1427H135.526L133.535 81.8113H90.0354Z" fill="black"/>
<path d="M93.3371 75.5746L95.6956 71.906H145.248L143.257 75.5746H93.3371Z" fill="black"/>
<path d="M81.5975 93.551L79.0295 89.6989H43.9939L46.1951 93.551H81.5975Z" fill="black"/>
<path d="M78.1123 87.6811L75.7539 84.0125H35.2154L37.207 87.6811H78.1123Z" fill="black"/>
<path d="M74.6271 81.8113L72.2687 78.1427H29.136L31.1275 81.8113H74.6271Z" fill="black"/>
<path d="M71.3253 75.5746L68.9669 71.906H19.4141L21.4056 75.5746H71.3253Z" fill="black"/>
<path d="M82.3312 84.7462L100.308 53.0125H103.976L82.3312 90.4326L60.6863 53.0125H64.3549L82.3312 84.7462Z" fill="black"/>
<path d="M82.3312 30.0835C94.0828 30.0835 103.609 39.61 103.609 51.3616H61.0531C61.0531 39.61 70.5797 30.0835 82.3312 30.0835Z" fill="black"/>
</svg>
