<svg width="164" height="124" viewBox="0 0 164 124" fill="none" xmlns="http://www.w3.org/2000/svg">
<path d="M0.775391 22C0.775391 9.84974 10.6183 0 22.7602 0H141.678C153.82 0 163.663 9.84974 163.663 22V102C163.663 114.15 153.82 124 141.678 124H22.7602C10.6183 124 0.775391 114.15 0.775391 102V22Z" fill="#C5A869"/>
<path fill-rule="evenodd" clip-rule="evenodd" d="M141.678 11H22.7602C16.6893 11 11.7678 15.9249 11.7678 22V102C11.7678 108.075 16.6893 113 22.7602 113H141.678C147.749 113 152.671 108.075 152.671 102V22C152.671 15.9249 147.749 11 141.678 11ZM22.7602 0C10.6183 0 0.775391 9.84974 0.775391 22V102C0.775391 114.15 10.6183 124 22.7602 124H141.678C153.82 124 163.663 114.15 163.663 102V22C163.663 9.84974 153.82 0 141.678 0H22.7602Z" fill="#A68C55"/>
<path d="M84.5312 76.3083L88.4619 72.4562H117.433C116.821 73.7402 115.525 76.3083 115.231 76.3083H84.5312Z" fill="black"/>
<path d="M89.8658 70.4384L93.4756 66.7698H126.237L123.853 70.4384H89.8658Z" fill="black"/>
<path d="M95.2002 64.5686L98.8101 60.9H134.492L132.291 64.5686H95.2002Z" fill="black"/>
<path d="M100.254 58.3319L103.864 54.6633H143.48L141.443 58.3319H100.254Z" fill="black"/>
<path d="M80.0176 76.3083L76.087 72.4562H47.2055C47.817 73.7402 49.1132 76.3083 49.4067 76.3083H80.0176Z" fill="black"/>
<path d="M74.6831 70.4384L71.0733 66.7698H38.4008L40.7854 70.4384H74.6831Z" fill="black"/>
<path d="M69.3486 64.5686L65.7388 60.9H30.1464L32.3476 64.5686H69.3486Z" fill="black"/>
<path d="M64.2949 58.3319L60.6851 54.6633H21.1582L23.1947 58.3319H64.2949Z" fill="black"/>
<path d="M82.2188 76.3083L108.083 47.6929L82.2188 58.8822L56.3549 47.6929L82.2188 76.3083Z" fill="black"/>
</svg>
