<svg width="164" height="124" viewBox="0 0 164 124" fill="none" xmlns="http://www.w3.org/2000/svg">
<path d="M0.887695 22C0.887695 9.84974 10.7306 0 22.8725 0H141.79C153.932 0 163.775 9.84974 163.775 22V102C163.775 114.15 153.932 124 141.79 124H22.8725C10.7306 124 0.887695 114.15 0.887695 102V22Z" fill="#C5A869"/>
<path fill-rule="evenodd" clip-rule="evenodd" d="M141.79 11H22.8725C16.8016 11 11.8801 15.9249 11.8801 22V102C11.8801 108.075 16.8016 113 22.8725 113H141.79C147.861 113 152.783 108.075 152.783 102V22C152.783 15.9249 147.861 11 141.79 11ZM22.8725 0C10.7306 0 0.887695 9.84974 0.887695 22V102C0.887695 114.15 10.7306 124 22.8725 124H141.79C153.932 124 163.775 114.15 163.775 102V22C163.775 9.84974 153.932 0 141.79 0H22.8725Z" fill="#A68C55"/>
<path fill-rule="evenodd" clip-rule="evenodd" d="M88.9345 75.3902C87.1965 75.3902 85.8021 75.871 84.5532 76.8156C83.7215 77.4447 82.976 78.2647 82.2393 79.2159C81.5026 78.2647 80.7571 77.4447 79.9254 76.8156C78.6765 75.871 77.2821 75.3902 75.5441 75.3902C73.8237 75.3902 72.1224 75.9244 70.8229 76.9128C69.5084 77.9127 68.5737 79.4131 68.5737 81.2594C68.5737 84.9111 72.1068 87.4967 75.5441 87.4967C77.4243 87.4967 78.8191 86.7091 79.9848 85.6493C80.7583 84.9461 81.507 84.0424 82.2393 83.1539C82.9716 84.0424 83.7203 84.9461 84.4938 85.6493C85.6595 86.7091 87.0543 87.4967 88.9345 87.4967C92.3718 87.4967 95.9049 84.9111 95.9049 81.2594C95.9049 79.4131 94.9702 77.9127 93.6557 76.9128C92.3562 75.9244 90.6549 75.3902 88.9345 75.3902ZM83.9584 81.1996C84.0776 81.3435 84.1931 81.4837 84.3057 81.6203C84.9965 82.4588 85.5767 83.1631 86.2214 83.7492C87.0735 84.5239 87.8798 84.9286 88.9345 84.9286C91.3671 84.9286 93.3369 83.1119 93.3369 81.2594C93.3369 80.3537 92.8959 79.5615 92.1009 78.9568C91.2909 78.3406 90.1491 77.9582 88.9345 77.9582C87.7376 77.9582 86.8911 78.2672 86.1024 78.8637C85.417 79.3821 84.749 80.1364 83.9584 81.1996ZM80.1729 81.6203C79.4821 82.4588 78.9019 83.1631 78.2572 83.7492C77.4051 84.5239 76.5987 84.9286 75.5441 84.9286C73.1115 84.9286 71.1417 83.1119 71.1417 81.2594C71.1417 80.3537 71.5827 79.5615 72.3777 78.9568C73.1877 78.3406 74.3295 77.9582 75.5441 77.9582C76.741 77.9582 77.5875 78.2672 78.3762 78.8637C79.0616 79.3821 79.7296 80.1364 80.5202 81.1996C80.4011 81.3433 80.2856 81.4834 80.1732 81.62L80.1729 81.6203Z" fill="black"/>
<path d="M102.692 86.763H110.763L93.2137 57.9641L90.531 53.5618L89.4132 51.7275L87.6248 48.7926L82.1476 39.8044L76.6705 48.7926L74.882 51.7275L73.7642 53.5618L71.0815 57.9641L53.5322 86.763H61.6032L82.1476 52.2778L102.692 86.763Z" fill="black"/>
<path d="M93.2137 57.9641H115.165L116.816 53.5618H90.531L93.2137 57.9641Z" fill="black"/>
<path d="M89.4132 51.7275H123.97L125.988 47.5085H88.2009L87.6248 48.7926L89.4132 51.7275Z" fill="black"/>
<path d="M88.9346 46.0411L91.5027 41.8221H133.692L131.858 46.0411H88.9346Z" fill="black"/>
<path d="M93.2137 39.8044L95.3547 35.5854H142.864L141.029 39.8044H93.2137Z" fill="black"/>
<path d="M49.1299 57.9641H71.0815L73.7642 53.5618H47.479L49.1299 57.9641Z" fill="black"/>
<path d="M40.3251 51.7275H74.882L76.6705 48.7926L76.0944 47.5085H38.3074L40.3251 51.7275Z" fill="black"/>
<path d="M75.3606 46.0411L72.7926 41.8221H30.6032L32.4376 46.0411H75.3606Z" fill="black"/>
<path d="M71.0815 39.8044L68.9405 35.5854H21.4316L23.266 39.8044H71.0815Z" fill="black"/>
</svg>
