<svg width="164" height="124" viewBox="0 0 164 124" fill="none" xmlns="http://www.w3.org/2000/svg">
<path d="M0.550781 22C0.550781 9.84974 10.3937 0 22.5356 0H141.454C153.595 0 163.438 9.84974 163.438 22V102C163.438 114.15 153.595 124 141.454 124H22.5356C10.3937 124 0.550781 114.15 0.550781 102V22Z" fill="#C5A869"/>
<path fill-rule="evenodd" clip-rule="evenodd" d="M141.454 11H22.5356C16.4647 11 11.5432 15.9249 11.5432 22V102C11.5432 108.075 16.4647 113 22.5356 113H141.454C147.524 113 152.446 108.075 152.446 102V22C152.446 15.9249 147.524 11 141.454 11ZM22.5356 0C10.3937 0 0.550781 9.84974 0.550781 22V102C0.550781 114.15 10.3937 124 22.5356 124H141.454C153.595 124 163.438 114.15 163.438 102V22C163.438 9.84974 153.595 0 141.454 0H22.5356Z" fill="#A68C55"/>
<path d="M88.7212 22.012L89.244 34.4673L86.4992 31.9762L75.2586 63.9668L96.3021 55.0514L80.2254 93.7284L84.6694 93.3351L74.213 101.988L76.1736 88.7463L78.2648 92.8107L87.6756 63.9668L64.018 73.931L84.1465 31.3207H79.8333L88.7212 22.012Z" fill="black"/>
<path d="M112.985 72.4313C113.323 72.7717 113.598 73.146 113.867 73.5577C114.18 73.3963 114.33 73.2811 114.571 72.987C114.902 72.6378 115.073 72.5564 115.522 72.5564C115.894 72.8581 115.993 73.2974 116.15 73.7693C116.397 74.4714 116.685 74.9483 117.181 75.4527C117.886 76.2112 118.272 77.1348 118.314 78.2363C118.286 79.2538 117.995 79.9973 117.377 80.7345C116.877 81.2527 116.302 81.4604 115.632 81.4429C114.753 81.1801 114.108 80.3915 113.434 79.7332C112.902 79.2188 112.495 79.1337 111.812 79.1362C111.357 79.2025 110.975 79.364 110.552 79.558C109.051 80.2401 109.051 80.2401 108.354 79.986C107.712 79.618 107.301 79.0285 107.035 78.2826C106.823 77.4728 106.992 76.7694 107.317 76.0297C107.827 75.3613 108.392 74.9633 109.097 74.5978C109.646 74.3012 110.043 73.952 110.476 73.4801C111.188 72.7041 111.949 71.9306 112.985 72.4313Z" fill="black"/>
<path d="M81.3241 70.1655C81.9564 71.3233 81.9843 72.3137 81.9875 73.6633C81.9895 74.506 82.0423 75.3191 82.1658 76.1235L85.2839 66.5666L81.0029 68.3697C81.0341 69.0049 81.0627 69.5858 81.3241 70.1655Z" fill="black"/>
<path fill-rule="evenodd" clip-rule="evenodd" d="M65.4118 66.6754C65.5394 66.7059 65.659 66.7413 65.7723 66.782L61.473 75.8833C61.6403 75.0449 61.6922 74.1678 61.4078 73.3661C61.068 72.9758 60.7024 72.6384 60.3165 72.3085C59.8577 71.8701 59.5768 71.3702 59.3045 70.7657C59.1265 70.3778 58.9765 70.0799 58.7213 69.7499C58.6494 69.6308 58.6084 69.5629 58.5856 69.4893C58.5553 69.3918 58.5568 69.2844 58.5605 69.0345C58.6581 68.6245 58.7642 68.4459 58.9829 68.1184C58.9972 67.943 59.0039 67.8612 59.0029 67.7795C59.0021 67.708 58.9954 67.6366 58.9829 67.5028C58.9498 67.4864 58.9167 67.4697 58.8833 67.4528L58.8333 67.4276L58.7942 67.408L58.6939 67.3568C58.5534 67.2852 58.4126 67.2134 58.2732 67.1408C58.0781 67.0411 57.8808 66.9475 57.6836 66.8564C57.2338 66.5428 56.919 66.086 56.5978 65.62C56.547 65.5462 56.496 65.4722 56.4443 65.3985C55.8804 64.6204 55.2662 64.134 54.4804 63.6834C53.4845 63.1108 52.7469 62.5752 52.0147 61.5927L52.0141 61.5919C51.9118 61.4634 51.9116 61.4631 51.8078 61.3316C51.5061 60.9469 51.413 60.8281 51.3843 60.6954C51.3715 60.6362 51.3715 60.5742 51.3715 60.4845H51.0499C51.0233 60.6656 51.0099 60.757 50.9967 60.8484C50.9831 60.9417 50.9697 61.0349 50.9427 61.2233C50.018 60.9895 49.5581 60.1764 49.0675 59.3089L49.0666 59.3074C48.9026 59.0045 48.7429 58.6979 48.5842 58.3914C48.4805 58.1984 48.48 58.1977 48.3752 57.9998C47.8702 56.968 47.6676 55.946 47.4972 54.7837C47.3257 53.6669 46.9869 52.7263 46.3458 51.8508L46.3442 51.8485L46.3437 51.8479C46.2704 51.7466 46.1972 51.6454 46.1218 51.5418L46.1208 51.5405C46.0493 51.4449 45.9778 51.3492 45.9042 51.25C45.8612 51.1892 45.8189 51.1285 45.7758 51.0668L45.7241 50.9926C44.86 49.7909 43.6561 48.5793 42.2582 48.3885C41.4231 48.3552 40.7327 48.5842 40.1098 49.2405C39.9415 49.4215 39.7775 49.605 39.6189 49.7971C39.234 50.2452 38.9467 50.3794 38.4 50.3881C38.132 50.1418 38.132 50.1418 37.9712 49.7724C37.9609 49.1935 38.1265 48.7719 38.3283 48.258L38.3592 48.1792C38.7644 47.0872 38.5091 46.367 38.1497 45.3533C38.1249 45.2834 38.0997 45.2121 38.0741 45.1391C37.9615 44.6848 37.9669 44.4361 38.0784 43.9854C38.3828 43.4806 38.6208 43.1358 39.1504 43.0004C40.0026 42.9191 40.7445 43.1272 41.5624 43.3772C42.6634 43.6924 43.5864 43.7872 44.7067 43.6407C45.1323 43.5963 45.5579 43.5988 45.9846 43.6013L46.2247 43.5988C46.6664 43.6 47.078 43.653 47.5122 43.7392C47.7684 43.7564 48.0257 43.7663 48.283 43.77C48.4709 43.7747 48.4768 43.7749 48.6583 43.7794L48.6644 43.7795L48.6764 43.7798C49.0098 43.7724 49.0098 43.7724 49.2199 43.568C49.355 43.3759 49.355 43.3759 49.3346 43.1235C48.8383 42.8982 48.3902 42.8379 47.8627 42.8083C47.5701 42.7431 47.4725 42.6593 47.2978 42.3848C47.2742 42.1693 47.2624 42.0616 47.2624 41.9538C47.2624 41.8461 47.2742 41.7383 47.2978 41.5229C47.7555 41.0205 48.1983 41.0439 48.7986 41.1535C49.1481 41.2877 49.4869 41.4342 49.8278 41.5943C50.4517 41.8824 51.0756 42.0597 51.7381 42.1927C52.1112 42.2789 52.3159 42.3614 52.5915 42.6704C52.7533 42.9795 52.8627 43.2479 52.9527 43.5927L52.9543 43.5987L52.9904 43.7351L53.031 43.8882C53.0492 43.9608 53.0674 44.0334 53.0867 44.1086C53.2411 44.0741 53.3955 44.0371 53.5488 44.0002L53.5507 43.9998C53.6774 43.9707 53.6781 43.9705 53.8093 43.9399C54.0784 43.8697 54.0784 43.8697 54.3732 43.616C54.2703 43.2885 54.1845 43.0337 53.9851 42.7689C53.7664 42.3811 53.7868 42.0967 53.8372 41.646C54.1759 41.2434 54.5157 41.1609 54.996 41.1153C55.5853 41.1239 55.9246 41.4755 56.3487 41.9151L56.3564 41.923C56.6909 42.1915 56.8667 42.1976 57.2676 42.1385L57.2688 42.1378C57.3673 42.077 57.3677 42.0767 57.4692 42.0154C57.8176 41.827 58.1789 41.8381 58.5541 41.8923C58.6366 41.9304 58.7192 41.9686 58.8039 42.008C59.1301 42.1569 59.444 42.2191 59.7875 42.2872L59.8137 42.2924C60.5341 42.4685 60.994 42.7098 61.5557 43.2467C61.6179 43.3058 61.6801 43.3649 61.7444 43.4252C62.7177 44.3539 63.0325 44.6544 63.2943 44.9955C63.4195 45.1587 63.5326 45.3312 63.6998 45.5861V45.8323C63.6113 45.8568 63.6108 45.857 63.5213 45.8824L63.5197 45.8828C63.2731 45.9666 63.0641 46.0515 62.8422 46.2017C62.7518 46.4306 62.7088 46.5396 62.6822 46.6525C62.6581 46.7553 62.6477 46.8612 62.6278 47.0636C62.2944 46.9454 61.9953 46.8235 61.6898 46.6277C61.292 46.4221 60.9908 46.395 60.5577 46.379C60.3176 46.3692 60.0785 46.3532 59.8405 46.3249L59.7333 46.0786C59.769 45.9972 59.8044 45.9156 59.8398 45.8339L59.8412 45.8307L59.8415 45.83C59.8768 45.7486 59.9121 45.6672 59.9477 45.5861V45.0936C59.3699 44.819 59.0033 44.8375 58.4136 45.0714C57.6021 45.479 56.7627 46.0429 56.3028 46.9405C56.2253 47.1649 56.1878 47.2735 56.1756 47.3848C56.1642 47.489 56.1749 47.5957 56.1956 47.8024C56.5022 48.2678 56.7917 48.4857 57.2676 48.6643C57.4236 48.6855 57.503 48.6963 57.5823 48.7012C57.6637 48.7062 57.7454 48.7049 57.9109 48.7024C58.0191 48.7049 58.1274 48.7074 58.2389 48.7086C58.7867 48.631 59.0997 48.3121 59.4524 47.8492C59.7247 47.5278 59.8362 47.4342 60.2221 47.2951C60.7753 47.3173 61.113 47.545 61.5075 47.9846C61.5694 48.0668 61.6313 48.1497 61.6941 48.2338L61.7573 48.3183C61.8409 48.4291 61.9245 48.5399 62.0103 48.6544C62.0348 48.688 62.0594 48.7213 62.084 48.7547L62.1245 48.8096L62.1254 48.8107C62.1497 48.8436 62.1742 48.8768 62.199 48.9105C62.5334 48.8354 62.5334 48.8354 62.7886 48.5879C62.9494 48.418 62.9494 48.418 63.1488 48.4217C63.4482 48.5774 63.5583 48.821 63.6962 49.1261C63.7208 49.1804 63.7462 49.2366 63.7738 49.2947C64.1018 49.9571 64.447 50.409 64.9991 50.835C65.0765 50.8998 65.1242 50.9397 65.1657 50.9853C65.2323 51.0582 65.2831 51.1457 65.415 51.3731C65.4048 51.5315 65.3997 51.6103 65.3862 51.6876C65.3728 51.7641 65.351 51.8392 65.3078 51.9887C64.9959 52.2276 64.8715 52.2781 64.5167 52.3359L64.4792 52.3422L64.456 52.3461L64.3998 52.3556L64.3988 52.3557L64.398 52.3559C64.3472 52.3645 64.2961 52.3732 64.2444 52.3815C64.1511 52.3975 64.0579 52.4123 63.9614 52.4271L63.9589 52.4275C63.7742 52.4581 63.5896 52.4888 63.405 52.5206C63.3406 52.5302 63.2762 52.5406 63.2108 52.5511L63.1552 52.56C63.0552 52.5762 63.002 52.5848 62.9525 52.6031C62.8964 52.6238 62.8448 52.6569 62.735 52.7275L62.6278 53.0969C62.6602 53.1114 62.6924 53.1256 62.7248 53.1399L62.7978 53.1723C62.8185 53.1815 62.8393 53.1908 62.8604 53.2003C63.1595 53.3407 63.4447 53.4983 63.733 53.6657C63.78 53.693 63.8267 53.7202 63.8736 53.7476L63.967 53.8021L64.0203 53.8332C64.0911 53.8738 64.1629 53.9157 64.2358 53.9588L64.1286 54.3281C63.6655 54.5707 63.2431 54.7074 62.7414 54.7973C61.5493 55.0639 60.9715 56.0101 60.3104 57.0928L60.2693 57.1601C59.4696 58.3889 59.4696 58.3889 58.9829 58.8839H58.7685L58.7687 58.8848C58.7879 58.978 58.8071 59.0713 58.8264 59.1671C58.8423 59.2495 58.8578 59.3325 58.8734 59.4165L58.8736 59.4175L58.8737 59.4179L58.8738 59.4187L58.8829 59.4672L58.896 59.5377C58.9196 59.6596 58.9432 59.7802 58.9679 59.9058C58.9762 60.0913 58.9799 60.1733 58.9604 60.2493C58.9449 60.3095 58.9147 60.366 58.8607 60.4673C58.5894 60.6581 58.4394 60.668 58.1253 60.6077C57.9087 60.4008 57.9087 60.4008 57.7168 60.1299C57.6613 60.0557 57.6065 59.9805 57.5505 59.9037L57.5206 59.8627C57.4433 59.7353 57.407 59.6755 57.3899 59.6107C57.3748 59.5533 57.3748 59.492 57.3748 59.3764C56.5815 59.14 55.9726 59.0464 55.2308 59.4995C55.0565 59.6222 54.9699 59.6832 54.9027 59.7609C54.8364 59.8375 54.789 59.9305 54.6948 60.1151C54.6551 60.4747 54.6883 60.7628 54.802 61.1002C55.0475 61.3637 55.2587 61.4511 55.5856 61.5286C56.3264 61.7207 56.3264 61.7207 56.6126 62.1233C56.7316 62.3437 56.8506 62.5654 56.9685 62.787C57.2255 63.1665 57.4767 63.2385 57.8568 63.3474L57.9162 63.3645C58.0026 63.3955 58.0532 63.4137 58.0972 63.4423C58.1596 63.4829 58.2085 63.5444 58.3268 63.6932C58.4705 64.1266 58.5744 64.5637 58.6677 65.0144C58.7107 65.1656 58.731 65.2371 58.7727 65.2924C58.8102 65.342 58.865 65.3785 58.9689 65.4478C59.5243 65.6546 60.0367 65.4342 60.5373 65.156C61.1612 64.8186 61.6051 64.8334 62.2794 65.0402C62.6609 65.2167 62.9586 65.4726 63.2864 65.7544L63.2978 65.7642C63.9614 66.2961 64.6239 66.4907 65.4118 66.6754ZM81.8708 49.5757L84.1154 43.1874C84.3542 43.0879 84.6151 43.01 84.9052 42.9536C86.0666 42.8256 87.0027 43.2538 87.9108 44.0609C88.2146 44.3586 88.5173 44.6576 88.8146 44.9639C88.9541 45.0892 89.0197 45.1481 89.0958 45.1698C89.1631 45.189 89.2388 45.1792 89.3814 45.1608C89.5015 45.1179 89.5705 45.0932 89.6239 45.0495C89.6961 44.9905 89.74 44.8966 89.843 44.676C90.2047 44.7437 90.3883 44.8052 90.7018 45.0451C91.2514 45.0992 91.5852 45.0094 92.0704 44.7228C93.0894 44.1882 94.1937 43.9414 95.2911 43.6961C95.4792 43.6541 95.6671 43.6121 95.8543 43.5687C95.8672 43.4113 95.88 43.255 95.894 43.0926C95.9151 42.8337 95.9247 42.7159 95.9706 42.6147C96.0089 42.5303 96.0725 42.4574 96.1892 42.3237C96.6025 42.1787 96.8356 42.2805 97.2282 42.452L97.2498 42.4615C97.3195 42.5094 97.3893 42.5574 97.4612 42.6066C97.6738 42.7346 97.6738 42.7346 97.8799 42.6411C97.9507 42.5968 98.0216 42.5525 98.0956 42.5082C98.4917 42.2831 98.8588 42.1514 99.2893 42.0382C100.077 41.7956 100.758 41.3772 101.475 40.9362L101.483 40.931C103.248 39.8483 105.458 38.6192 107.447 39.6318L107.662 39.8778C107.627 40.4179 107.522 40.8584 107.34 41.3542L107.415 41.3567L107.561 41.3616C107.886 41.3735 108.21 41.3865 108.534 41.3996L108.568 41.4009C108.74 41.4059 108.74 41.4059 108.916 41.412C109.974 41.4563 110.775 41.6027 111.681 42.2388C112.243 42.6042 112.654 42.8318 113.312 42.6792C113.588 42.5759 113.854 42.4553 114.123 42.331C115.379 41.7774 116.632 42.0924 117.86 42.5845C117.925 42.6107 117.958 42.624 117.991 42.6371C118.025 42.6504 118.059 42.6637 118.126 42.6903C118.509 42.8429 118.891 42.9954 119.273 43.1541C119.403 43.2068 119.403 43.207 119.536 43.2617L119.538 43.2624C119.574 43.2776 119.611 43.2931 119.648 43.3087C119.689 43.326 119.731 43.3434 119.773 43.3608C120.239 43.5306 120.673 43.5835 121.161 43.5909C121.28 43.5933 121.398 43.5958 121.52 43.5995C121.765 43.6044 122.01 43.6081 122.256 43.6106C123.519 43.6475 124.678 44.0363 125.696 44.9221C125.888 45.1706 125.888 45.1706 126.018 45.4142C125.992 45.8288 125.955 45.9789 125.696 46.2754C125.123 46.3455 124.541 46.2877 123.979 46.1524L123.978 46.1531C123.939 46.308 123.939 46.3089 123.898 46.4655L123.898 46.4673C123.64 47.2806 123.4 47.7912 122.749 48.2341C122.446 48.3809 122.143 48.4498 121.824 48.5224C121.782 48.532 121.74 48.5416 121.697 48.5515C121.498 48.6008 121.4 48.6251 121.308 48.6645C121.219 48.7028 121.136 48.7554 120.973 48.8591C120.781 49.2688 120.703 49.6206 120.637 50.0783C120.521 50.552 120.369 50.6959 120.007 50.9506C119.64 50.9309 119.517 50.8817 119.255 50.5815C119.194 49.9848 119.294 49.6969 119.611 49.2282C119.897 48.7877 120.133 48.3756 120.329 47.8748C119.955 47.7333 119.645 47.6718 119.255 47.7518C119.013 48.0397 119.013 48.0397 118.793 48.4051C118.435 48.9169 118.227 49.1359 117.658 49.2417C117.171 49.2995 116.681 49.3217 116.191 49.3389C115.846 49.3549 115.51 49.4041 115.17 49.4668C115.075 49.4828 114.981 49.4988 114.884 49.516C114.604 49.6083 114.431 49.7523 114.21 49.9663C114.222 50.2678 114.222 50.2678 114.318 50.5815C114.554 50.7254 114.554 50.7254 114.854 50.8276C115.439 51.1327 115.709 51.3812 115.964 52.0628C116.054 52.3716 116.091 52.598 116.035 52.9191C115.964 53.0423 115.93 53.0999 115.886 53.1477C115.847 53.1895 115.801 53.2238 115.713 53.2882C115.613 53.2882 115.559 53.2882 115.509 53.2757C115.452 53.2614 115.398 53.2307 115.284 53.1651C115.096 52.8502 115.096 52.8502 114.962 52.55C114.699 52.6693 114.56 52.7419 114.415 53.0273L114.415 53.0287L114.375 53.1494L114.363 53.1872L114.324 53.3054C114.289 53.4063 114.253 53.5072 114.217 53.6117C114.203 53.6509 114.189 53.6902 114.175 53.7298L114.14 53.8293L114.103 53.9341C113.801 54.7338 113.583 55.2481 112.881 55.6258C112.775 55.6688 112.668 55.7119 112.557 55.7562C112.275 55.8731 112.146 55.9801 111.956 56.2409C111.989 56.3455 112.022 56.4488 112.057 56.5559C112.173 56.9852 112.232 57.3949 112.278 57.8403L112.063 57.9633C111.621 57.7813 111.258 57.5586 110.87 57.2559C110.702 57.1315 110.62 57.0706 110.528 57.0374C110.44 57.0056 110.342 56.9991 110.151 56.9865C110.041 57.0368 109.978 57.0657 109.919 57.1011C109.839 57.1488 109.766 57.2083 109.594 57.3482C109.555 57.876 109.578 58.3078 109.702 58.8172C109.87 59.5308 109.938 60.221 109.628 60.8927C109.128 61.6813 108.609 61.8843 107.807 62.064C107.459 62.155 107.261 62.235 107.016 62.5389C106.874 63.0039 106.908 63.2709 107.018 63.7458C107.167 64.03 107.312 64.2773 107.488 64.5381C108.017 65.371 108.431 66.1141 108.306 67.1907C108.093 67.6323 107.928 67.7787 107.528 67.9904C107.025 68.0679 106.692 67.9842 106.267 67.6828C105.2 66.6702 104.449 65.2468 104.012 63.7458C103.822 63.6215 103.822 63.6215 103.583 63.4997L103.482 63.4192L103.274 63.2537C102.651 62.7972 102.059 62.6484 101.329 62.7615C100.872 62.9239 100.555 63.1454 100.235 63.5539C100.054 63.9623 99.9173 64.3622 99.7788 64.7916C99.5437 65.5093 99.4605 65.7633 99.3103 65.9684C99.2281 66.0807 99.1257 66.1783 98.9673 66.3294C98.5916 66.4143 98.5916 66.4143 98.2159 66.3294C97.5825 65.8176 97.4398 65.0721 97.2927 64.2416C97.0404 62.8624 96.435 62.2005 95.4453 61.4033C95.3952 61.368 95.3451 61.333 95.2948 61.2983L99.035 52.3L87.1275 57.3448C86.9985 57.2881 86.8741 57.208 86.7096 57.0788C86.2389 56.7243 85.5908 56.8323 85.0185 56.9277C84.9055 56.9466 84.7956 56.9649 84.6905 56.9791C84.6553 56.9105 84.6199 56.8422 84.5842 56.7733C84.5533 56.7138 84.5222 56.6538 84.4908 56.5928C84.4028 56.4242 84.3148 56.2557 84.2278 56.0871C84.1925 56.02 84.1578 55.9528 84.1222 55.8837L84.1212 55.8817L84.1208 55.8809L84.0958 55.8325C83.7834 55.2087 83.7834 55.2087 83.4023 54.6415H83.0803C82.8559 55.0598 82.8463 55.3858 82.8656 55.8718C82.8154 55.8507 82.792 55.8408 82.7662 55.8297C82.7441 55.8203 82.7201 55.8099 82.6756 55.7906C81.9586 55.5113 81.2576 55.3268 80.504 55.5027C80.0956 55.7621 79.7801 56.0913 79.4501 56.4648L81.6934 50.0807C81.7396 50.0309 81.7733 49.9583 81.834 49.8273C81.8555 49.751 81.877 49.6748 81.8995 49.5972L81.8869 49.5877L81.8808 49.5831L81.8708 49.5757ZM68.7791 74.3832C69.3082 73.9706 69.7562 73.5274 70.0988 72.9624L61.2834 76.6753L61.2674 76.7337C61.1076 77.2803 61.1076 77.2804 60.7978 78.4378C60.3347 80.265 60.0474 82.3914 60.8782 84.1386C61.3263 84.8724 61.8645 85.3144 62.6278 85.4794C62.6674 84.9992 62.6556 84.7887 62.4198 84.3787L62.199 84.0019C62.0628 83.4848 62.0639 83.1437 62.2461 82.6549C62.2638 82.6149 62.2815 82.5749 62.2992 82.535L62.2996 82.5341C62.4065 82.2928 62.5134 82.0517 62.6053 81.8016C62.6213 81.7565 62.6372 81.7118 62.6529 81.6675L62.6541 81.6643C62.968 80.7791 63.227 80.049 64.0418 79.6309C64.4963 79.4277 64.7257 79.3144 64.9594 78.8158C65.1363 78.4168 65.2682 78.258 65.623 78.0684C66.3531 77.747 66.7637 77.1671 67.1882 76.4443C67.6556 75.6415 68.0919 74.9471 68.7791 74.3832ZM77.7441 61.3202L78.8658 58.1277C79.3593 58.2217 79.7656 58.174 80.2893 58.0864C81.3123 57.9375 81.95 58.0765 82.7615 58.7778C82.8802 58.8798 82.9999 58.9673 83.1209 59.0422L77.7441 61.3202Z" fill="black"/>
</svg>
