<svg width="164" height="168" viewBox="0 0 164 168" fill="none" xmlns="http://www.w3.org/2000/svg">
<path d="M78.2977 162.871C73.8745 162.674 70.3352 163.858 68.3688 165.238C66.4025 166.619 65.616 168 64.4362 168C63.2564 168 60.5035 166.619 60.5035 165.436C61.1083 164.861 61.9835 164.338 63.028 163.858C68.4365 161.374 78.3852 160.051 78.8381 158.729C78.7201 160.007 78.5413 161.36 78.2977 162.871Z" fill="#CBC5C5"/>
<path d="M78.8381 151.228C78.8392 151.242 78.8404 151.255 78.8416 151.269C78.9592 152.937 75.4337 149.038 73.6779 145.907C71.9082 142.751 70.9251 144.724 68.7621 145.907C66.5991 147.091 64.0429 146.696 64.4362 148.077C64.8294 149.458 69.9419 149.852 70.9251 149.852C71.9082 149.852 75.6442 149.852 75.8409 151.036C76.0375 152.219 70.5318 153.206 69.5486 153.206C68.5655 153.206 65.616 151.825 63.6496 150.247C61.6833 148.669 61.2901 145.513 61.2901 143.343C61.2901 141.173 61.2901 141.173 64.0429 141.173C66.5991 141.173 68.9587 138.411 72.1049 138.411C73.8745 140.581 77.4139 143.935 78.8381 151.228Z" fill="#CBC5C5"/>
<path d="M59.5204 143.343C59.5204 140.778 60.7002 141.962 60.7002 140.778C60.5691 140.252 59.9136 139.003 58.3406 138.214C56.3742 137.228 53.2281 135.847 54.0146 139.792C54.6439 142.948 55.1944 144.395 55.3911 144.724C57.4382 145.773 58.5966 146.515 60.7002 148.274C60.8968 145.907 59.5204 144.447 59.5204 143.343Z" fill="#CBC5C5"/>
<path d="M59.5204 148.471C56.7675 145.907 50.4753 143.343 45.3628 143.343C45.3628 144.329 44.9695 145.513 46.346 146.499C47.7224 147.485 49.4921 146.302 51.655 147.288C53.3854 148.077 54.8667 150.115 55.3911 151.036C56.268 149.599 57.2001 149.046 59.5204 148.471Z" fill="#CBC5C5"/>
<path d="M49.4921 153.206C50.9078 152.732 51.2618 149.852 51.2618 148.471C48.5089 146.499 47.5258 150.247 39.6604 145.513C38.9673 146.941 38.9993 147.809 39.2672 151.228C40.5259 152.43 41.3444 153.014 43.1998 153.797C43.9458 149.23 45.1457 147.912 49.4921 149.063C48.2731 150.705 48.2393 151.564 49.4921 153.206Z" fill="#CBC5C5"/>
<path d="M62.0766 162.082C62.0766 161.096 59.9136 158.729 59.1271 158.729C58.3406 158.729 56.1776 162.871 52.8348 162.871C50.4712 162.871 46.731 161.885 44.7429 159.912C44.288 157.465 44.2628 155.77 44.5027 154.587C44.9007 152.624 46.0283 152.071 47.1325 151.825C47.1325 153.403 49.8853 155.178 51.655 155.178C54.2113 155.178 57.7507 149.852 58.7338 149.852C59.717 149.852 62.6665 152.022 63.2564 155.178C67.9756 155.376 74.4644 153.206 78.9785 153.403C79.0114 154.203 79.0208 154.985 79.0059 155.77C74.0712 156.165 65.0261 162.674 62.0766 162.082Z" fill="#CBC5C5"/>
<path d="M50.8685 142.751C50.5539 141.489 50.9341 140.515 51.2618 140.187C47.9211 132.94 44.8956 130.03 39.0705 125.392C38.2366 132.222 39.418 135.552 46.7392 142.554L50.8685 142.751Z" fill="#CBC5C5"/>
<path d="M32.5817 143.343C32.5817 143.996 33.1099 144.526 33.7615 144.526C34.413 144.526 34.9413 143.996 34.9413 143.343C34.9413 142.689 34.413 142.159 33.7615 142.159C33.1099 142.159 32.5817 142.689 32.5817 143.343Z" fill="#CBC5C5"/>
<path d="M35.3345 129.337C35.3345 129.991 35.8627 130.521 36.5143 130.521C37.1659 130.521 37.6941 129.991 37.6941 129.337C37.6941 128.684 37.1659 128.154 36.5143 128.154C35.8627 128.154 35.3345 128.684 35.3345 129.337Z" fill="#CBC5C5"/>
<path d="M21.7669 112.965C21.7669 113.619 22.2951 114.149 22.9467 114.149C23.5982 114.149 24.1265 113.619 24.1265 112.965C24.1265 112.311 23.5982 111.782 22.9467 111.782C22.2951 111.782 21.7669 112.311 21.7669 112.965Z" fill="#CBC5C5"/>
<path d="M5.44634 102.905C5.44634 103.559 5.97456 104.088 6.62614 104.088C7.27772 104.088 7.80594 103.559 7.80594 102.905C7.80594 102.251 7.27772 101.721 6.62614 101.721C5.97456 101.721 5.44634 102.251 5.44634 102.905Z" fill="#CBC5C5"/>
<path d="M15.0813 97.7762C15.0813 98.4299 15.6096 98.9598 16.2611 98.9598C16.9127 98.9598 17.4409 98.4299 17.4409 97.7762C17.4409 97.1225 16.9127 96.5927 16.2611 96.5927C15.6096 96.5927 15.0813 97.1225 15.0813 97.7762Z" fill="#CBC5C5"/>
<path d="M13.5083 82.9819C13.5083 83.6355 14.0365 84.1654 14.6881 84.1654C15.3397 84.1654 15.8679 83.6355 15.8679 82.9819C15.8679 82.3282 15.3397 81.7983 14.6881 81.7983C14.0365 81.7983 13.5083 82.3282 13.5083 82.9819Z" fill="#CBC5C5"/>
<path d="M9.379 60.0999C9.379 60.7536 9.90721 61.2835 10.5588 61.2835C11.2104 61.2835 11.7386 60.7536 11.7386 60.0999C11.7386 59.4463 11.2104 58.9164 10.5588 58.9164C9.90721 58.9164 9.379 59.4463 9.379 60.0999Z" fill="#CBC5C5"/>
<path d="M18.4241 64.0451C18.4241 64.6988 18.9523 65.2287 19.6039 65.2287C20.2555 65.2287 20.7837 64.6988 20.7837 64.0451C20.7837 63.3914 20.2555 62.8616 19.6039 62.8616C18.9523 62.8616 18.4241 63.3914 18.4241 64.0451Z" fill="#CBC5C5"/>
<path d="M13.3117 46.4892C13.3117 47.1428 13.8399 47.6727 14.4915 47.6727C15.143 47.6727 15.6712 47.1428 15.6712 46.4892C15.6712 45.8355 15.143 45.3056 14.4915 45.3056C13.8399 45.3056 13.3117 45.8355 13.3117 46.4892Z" fill="#CBC5C5"/>
<path d="M21.3736 40.9659C21.3736 41.6196 21.9018 42.1495 22.5534 42.1495C23.205 42.1495 23.7332 41.6196 23.7332 40.9659C23.7332 40.3123 23.205 39.7824 22.5534 39.7824C21.9018 39.7824 21.3736 40.3123 21.3736 40.9659Z" fill="#CBC5C5"/>
<path d="M34.9413 36.8235C34.9413 37.4772 35.4695 38.0071 36.1211 38.0071C36.7726 38.0071 37.3009 37.4772 37.3009 36.8235C37.3009 36.1699 36.7726 35.64 36.1211 35.64C35.4695 35.64 34.9413 36.1699 34.9413 36.8235Z" fill="#CBC5C5"/>
<path d="M48.9022 21.2401C48.9022 21.8938 49.4304 22.4237 50.082 22.4237C50.7336 22.4237 51.2618 21.8938 51.2618 21.2401C51.2618 20.5865 50.7336 20.0566 50.082 20.0566C49.4304 20.0566 48.9022 20.5865 48.9022 21.2401Z" fill="#CBC5C5"/>
<path d="M39.6604 14.3361C39.6604 14.9898 40.1887 15.5197 40.8402 15.5197C41.4918 15.5197 42.02 14.9898 42.02 14.3361C42.02 13.6825 41.4918 13.1526 40.8402 13.1526C40.1887 13.1526 39.6604 13.6825 39.6604 14.3361Z" fill="#CBC5C5"/>
<path d="M64.6328 13.1526C64.6328 13.8062 65.161 14.3361 65.8126 14.3361C66.4642 14.3361 66.9924 13.8062 66.9924 13.1526C66.9924 12.4989 66.4642 11.969 65.8126 11.969C65.161 11.969 64.6328 12.4989 64.6328 13.1526Z" fill="#CBC5C5"/>
<path d="M63.8463 3.68419C63.8463 4.33785 64.3745 4.86774 65.0261 4.86774C65.6777 4.86774 66.2059 4.33785 66.2059 3.68419C66.2059 3.03054 65.6777 2.50065 65.0261 2.50065C64.3745 2.50065 63.8463 3.03054 63.8463 3.68419Z" fill="#CBC5C5"/>
<path d="M44.183 142.159C43.9208 142.883 43.5538 144.566 44.183 145.513C37.4938 144.273 26.5571 134.609 27.2726 127.365C33.377 129.111 37.0161 132.207 44.183 142.159Z" fill="#CBC5C5"/>
<path d="M36.5143 125.984C36.1211 120.264 28.0591 109.809 26.4861 110.598C24.913 111.387 25.6995 125.59 32.1884 128.351C32.6603 127.247 35.269 126.313 36.5143 125.984Z" fill="#CBC5C5"/>
<path d="M31.9918 140.384C28.8456 137.031 23.1433 133.677 17.8342 134.466C19.2106 139.792 27.4692 142.948 30.812 144.526C30.4187 143.343 31.0086 140.976 31.9918 140.384Z" fill="#CBC5C5"/>
<path d="M37.6941 149.852C37.1042 148.077 38.0874 146.302 37.4975 146.104C37.0256 145.947 34.1547 145.776 32.7783 145.71C34.1158 147.434 35.1586 148.353 37.6941 149.852Z" fill="#CBC5C5"/>
<path d="M27.2726 125.984C26.486 121.842 20.1938 111.584 17.4409 112.571C14.6881 113.557 18.4241 128.746 26.0928 132.494C24.1265 128.351 25.2569 125.984 27.2726 125.984Z" fill="#CBC5C5"/>
<path d="M25.1096 110.203C24.7164 104.483 25.6995 101.919 23.7332 97.7762C21.7669 93.6338 21.177 94.0283 20.3904 94.2256C19.6039 94.4228 17.6376 100.341 18.4241 104.68C19.0533 108.152 19.9972 111.387 20.3904 112.571C20.7182 111.847 21.6096 110.282 22.5534 109.809C23.4972 109.336 24.6508 109.875 25.1096 110.203Z" fill="#CBC5C5"/>
<path d="M18.4241 111.782C18.2477 102.905 12.3285 94.8371 10.5588 95.0146C6.62614 95.4091 9.77226 113.754 15.0813 116.121C15.0813 111.782 16.2611 110.203 18.4241 111.782Z" fill="#CBC5C5"/>
<path d="M24.1265 133.085C18.2275 129.337 19.4073 126.576 15.8679 123.222C13.0364 120.54 9.31345 119.475 7.80594 119.277C10.8104 127.891 14.1003 131.19 24.1265 133.085Z" fill="#CBC5C5"/>
<path d="M14.2948 119.869C13.115 114.442 5.05308 102.905 2.69349 104.088C2.69349 106.653 6.91482 113.754 7.80594 117.699C10.7948 118.015 13.3772 119.277 14.2948 119.869Z" fill="#CBC5C5"/>
<path d="M22.1601 80.2203C18.4241 81.7983 13.5083 87.5188 14.6881 95.8036C15.9465 94.2256 17.3099 94.6201 17.8342 95.0146C18.4767 93.2603 18.9921 92.6724 20.3904 92.8448C22.6542 87.8957 22.7872 85.1346 22.1601 80.2203Z" fill="#CBC5C5"/>
<path d="M9.77226 73.7107C7.21604 76.2751 4.68284 87.1285 7.80594 96.5927C9.95029 93.3904 10.9864 93.9851 12.9184 93.831C13.4348 90.8812 13.5572 87.8919 13.414 85.1517C13.1177 84.8229 12.4858 83.9287 12.3285 82.9819C12.1712 82.035 12.6944 81.2723 12.9756 81.0093C12.2857 76.7859 10.9817 73.8226 9.77226 73.7107Z" fill="#CBC5C5"/>
<path d="M1.71032 87.1243C1.71032 92.8448 2.63199 95.8816 2.69349 102.313C3.28338 103.694 5.44634 103.497 5.05308 99.5515C5.3343 100.492 7.138 101.396 6.82277 96.7899C6.50755 92.1842 1.71032 87.1243 1.71032 87.1243Z" fill="#CBC5C5"/>
<path d="M24.3231 65.8204C24.1489 73.0156 22.4821 75.8925 18.4241 80.2203C17.469 78.3103 15.6712 81.0093 13.9016 79.234C17.8342 72.1327 16.2611 69.9628 19.6039 67.793C21.4763 66.3731 22.5 66.1477 24.3231 65.8204Z" fill="#CBC5C5"/>
<path d="M15.6712 57.3383C9.77226 63.4533 6.39158 67.3427 7.80594 75.2888C9.82599 71.1041 11.1039 72.1341 13.5083 77.0641C17.0599 69.2726 17.8622 64.948 15.6712 57.3383Z" fill="#CBC5C5"/>
<path d="M5.05308 89.0969C5.73944 83.1491 6.03624 80.2203 5.44634 77.0641C4.53543 74.8731 3.61046 73.8268 1.12042 72.3299C0.171161 77.4953 0.249397 80.3813 1.12042 85.5462C3.34135 86.2633 3.99928 87.2364 5.05308 89.0969Z" fill="#CBC5C5"/>
<path d="M6.23287 75.2888C5.44634 68.7793 8.1992 65.2287 8.1992 61.2835C8.1992 57.3383 5.44634 54.9712 5.44634 54.9712C3.66878 62.0223 3.4169 65.7562 3.28338 72.3299C4.46281 72.774 5.11389 73.4615 6.23287 75.2888Z" fill="#CBC5C5"/>
<path d="M29.8288 51.8151C28.1362 57.2269 26.6943 59.9237 22.5534 63.6506C21.9864 62.0294 21.5865 61.6046 20.7837 61.2835C22.149 58.5754 22.3635 57.0644 22.5534 54.3795C26.6932 51.6044 27.82 51.6782 29.8288 51.8151Z" fill="#CBC5C5"/>
<path d="M19.014 60.0999C16.4542 55.3277 15.2732 55.1625 13.414 57.3383C13.5086 53.2658 14.1807 51.5823 15.6712 48.8563C17.0568 48.6541 17.307 47.8016 17.4409 46.4892C19.5681 44.2557 20.6625 43.7567 22.5534 43.333C22.4349 50.4158 21.8611 54.1738 19.014 60.0999Z" fill="#CBC5C5"/>
<path d="M11.7386 44.1221C8.94941 46.5605 7.82082 48.6122 7.01941 54.1822C7.77569 54.8299 8.14968 55.7449 8.7891 57.7328C9.68578 56.7355 10.2039 56.5943 11.1487 56.9438C13.0658 52.038 13.0684 49.2322 11.7386 44.1221Z" fill="#CBC5C5"/>
<path d="M23.1433 52.4069C24.2931 44.756 29.8288 38.9934 34.9413 38.9934C36.9076 38.9934 38.0218 37.0208 38.6773 38.0071C39.0288 38.536 36.3601 42.9503 32.5817 46.6864C29.315 49.9165 25.058 52.5898 23.1433 52.4069Z" fill="#CBC5C5"/>
<path d="M35.3345 26.5661C28.3785 28.2405 25.3437 30.3062 22.5534 37.4153C24.5902 39.2253 26.1206 39.9846 23.7332 44.7138C31.9413 38.2421 34.0197 34.1954 35.3345 26.5661Z" fill="#CBC5C5"/>
<path d="M21.3736 29.1305C16.5774 33.587 14.6871 36.5575 12.5251 42.544C12.5227 43.5088 12.5832 43.9981 13.115 44.5166C14.0044 43.9986 14.7392 43.8603 16.851 44.1221C20.927 38.0764 21.6566 34.8154 21.3736 29.1305Z" fill="#CBC5C5"/>
<path d="M48.1157 17.295C39.2295 17.7883 35.3371 19.7904 30.4187 26.5661C36.0875 24.4314 37.4343 24.8229 36.5143 29.1305C43.1139 25.259 45.2681 22.5242 48.1157 17.295Z" fill="#CBC5C5"/>
<path d="M38.4806 14.1389C38.0874 17.6895 29.0423 24.5935 22.3568 34.2592C24.7164 27.3551 25.5174 26.0202 22.5534 27.9469C28.0497 18.9581 31.5891 16.1937 38.4806 14.1389Z" fill="#CBC5C5"/>
<path d="M51.2618 25.9743C49.8594 24.4224 48.9044 23.8281 45.9527 24.199C42.1879 27.5208 40.152 28.6647 36.6781 30.6165L36.5143 30.7085C35.8974 31.5434 35.6161 32.3077 35.3345 33.6674C40.8124 33.6789 44.3262 31.9484 51.2618 25.9743Z" fill="#CBC5C5"/>
<path d="M58.1439 17.295C54.4079 18.8731 49.4921 18.2813 49.4921 18.2813C49.3583 15.3616 47.7512 15.7372 45.5594 15.5197C52.8124 9.82028 57.127 8.43689 65.4193 10.3707C61.4867 11.969 63.8463 14.8864 58.1439 17.295Z" fill="#CBC5C5"/>
<path d="M51.4584 23.2127C58.7927 23.14 62.0279 21.9805 66.9924 18.8731C66.108 16.5173 65.1943 15.9991 62.4698 15.7169C59.9774 19.0471 57.717 20.0676 52.8348 21.0429C52.6446 22.0914 52.3778 22.6556 51.4584 23.2127Z" fill="#CBC5C5"/>
<path d="M62.4698 2.89516C61.8689 5.76179 61.1383 7.22155 57.1608 8.8129C53.664 9.6234 52.5532 9.01722 44.9695 14.9279C44.3346 15.3274 43.9899 15.4586 43.3965 15.5197C43.4851 13.868 43.3332 13.0898 42.8066 11.969C49.5346 6.06275 54.0152 4.51149 62.4698 2.89516Z" fill="#CBC5C5"/>
<path d="M80.9533 15.5197C80.4266 14.0209 79.8055 13.3457 78.2005 12.3635C76.2931 13.445 74.3223 13.6784 69.352 13.5471C68.0894 14.2065 67.5437 14.6289 66.9924 15.5197C71.8867 17.598 74.9658 17.591 80.9533 15.5197Z" fill="#CBC5C5"/>
<path d="M80.9533 0.133552C80.0204 1.60732 79.336 2.43004 77.6106 3.88145C73.3777 3.61194 71.1663 3.90341 67.3857 4.86774C67.5899 3.94535 67.5382 3.42357 67.3857 2.50065C73.4795 0.082413 76.3556 -0.247386 80.9533 0.133552Z" fill="#CBC5C5"/>
<path d="M85.5773 162.871C90.0005 162.674 93.5398 163.858 95.5062 165.238C97.4725 166.619 98.259 168 99.4388 168C100.619 168 103.371 166.619 103.371 165.436C102.767 164.861 101.892 164.338 100.847 163.858C95.4385 161.374 85.4898 160.051 85.0369 158.729C85.1549 160.007 85.3337 161.36 85.5773 162.871Z" fill="#CBC5C5"/>
<path d="M85.0369 151.228C85.0358 151.242 85.0346 151.255 85.0334 151.269C84.9158 152.937 88.4413 149.038 90.1971 145.907C91.9668 142.751 92.9499 144.724 95.1129 145.907C97.2759 147.091 99.8321 146.696 99.4388 148.077C99.0456 149.458 93.9331 149.852 92.9499 149.852C91.9668 149.852 88.2308 149.852 88.0341 151.036C87.8375 152.219 93.3432 153.206 94.3264 153.206C95.3095 153.206 98.259 151.825 100.225 150.247C102.192 148.669 102.585 145.513 102.585 143.343C102.585 141.173 102.585 141.173 99.8321 141.173C97.2759 141.173 94.9163 138.411 91.7701 138.411C90.0005 140.581 86.4611 143.935 85.0369 151.228Z" fill="#CBC5C5"/>
<path d="M104.355 143.343C104.355 140.778 103.175 141.962 103.175 140.778C103.306 140.252 103.961 139.003 105.534 138.214C107.501 137.228 110.647 135.847 109.86 139.792C109.231 142.948 108.681 144.395 108.484 144.724C106.437 145.773 105.278 146.515 103.175 148.274C102.978 145.907 104.355 144.447 104.355 143.343Z" fill="#CBC5C5"/>
<path d="M104.355 148.471C107.108 145.907 113.4 143.343 118.512 143.343C118.512 144.329 118.905 145.513 117.529 146.499C116.153 147.485 114.383 146.302 112.22 147.288C110.49 148.077 109.008 150.115 108.484 151.036C107.607 149.599 106.675 149.046 104.355 148.471Z" fill="#CBC5C5"/>
<path d="M114.383 153.206C112.967 152.732 112.613 149.852 112.613 148.471C115.366 146.499 116.349 150.247 124.215 145.513C124.908 146.941 124.876 147.809 124.608 151.228C123.349 152.43 122.531 153.014 120.675 153.797C119.929 149.23 118.729 147.912 114.383 149.063C115.602 150.705 115.636 151.564 114.383 153.206Z" fill="#CBC5C5"/>
<path d="M101.798 162.082C101.798 161.096 103.961 158.729 104.748 158.729C105.534 158.729 107.697 162.871 111.04 162.871C113.404 162.871 117.144 161.885 119.132 159.912C119.587 157.465 119.612 155.77 119.372 154.587C118.974 152.624 117.847 152.071 116.743 151.825C116.743 153.403 113.99 155.178 112.22 155.178C109.664 155.178 106.124 149.852 105.141 149.852C104.158 149.852 101.209 152.022 100.619 155.178C95.8994 155.376 89.4106 153.206 84.8965 153.403C84.8636 154.203 84.8542 154.985 84.8691 155.77C89.8038 156.165 98.8489 162.674 101.798 162.082Z" fill="#CBC5C5"/>
<path d="M113.006 142.751C113.321 141.489 112.941 140.515 112.613 140.187C115.954 132.94 118.979 130.03 124.804 125.392C125.638 132.222 124.457 135.552 117.136 142.554L113.006 142.751Z" fill="#CBC5C5"/>
<path d="M131.293 143.343C131.293 143.996 130.765 144.526 130.114 144.526C129.462 144.526 128.934 143.996 128.934 143.343C128.934 142.689 129.462 142.159 130.114 142.159C130.765 142.159 131.293 142.689 131.293 143.343Z" fill="#CBC5C5"/>
<path d="M128.54 129.337C128.54 129.991 128.012 130.521 127.361 130.521C126.709 130.521 126.181 129.991 126.181 129.337C126.181 128.684 126.709 128.154 127.361 128.154C128.012 128.154 128.54 128.684 128.54 129.337Z" fill="#CBC5C5"/>
<path d="M142.108 112.965C142.108 113.619 141.58 114.149 140.928 114.149C140.277 114.149 139.749 113.619 139.749 112.965C139.749 112.311 140.277 111.782 140.928 111.782C141.58 111.782 142.108 112.311 142.108 112.965Z" fill="#CBC5C5"/>
<path d="M158.429 102.905C158.429 103.559 157.9 104.088 157.249 104.088C156.597 104.088 156.069 103.559 156.069 102.905C156.069 102.251 156.597 101.721 157.249 101.721C157.9 101.721 158.429 102.251 158.429 102.905Z" fill="#CBC5C5"/>
<path d="M148.794 97.7762C148.794 98.4299 148.265 98.9598 147.614 98.9598C146.962 98.9598 146.434 98.4299 146.434 97.7762C146.434 97.1225 146.962 96.5927 147.614 96.5927C148.265 96.5927 148.794 97.1225 148.794 97.7762Z" fill="#CBC5C5"/>
<path d="M150.367 82.9819C150.367 83.6355 149.839 84.1654 149.187 84.1654C148.535 84.1654 148.007 83.6355 148.007 82.9819C148.007 82.3282 148.535 81.7983 149.187 81.7983C149.839 81.7983 150.367 82.3282 150.367 82.9819Z" fill="#CBC5C5"/>
<path d="M154.496 60.0999C154.496 60.7536 153.968 61.2835 153.316 61.2835C152.665 61.2835 152.136 60.7536 152.136 60.0999C152.136 59.4463 152.665 58.9164 153.316 58.9164C153.968 58.9164 154.496 59.4463 154.496 60.0999Z" fill="#CBC5C5"/>
<path d="M145.451 64.0451C145.451 64.6988 144.923 65.2287 144.271 65.2287C143.62 65.2287 143.091 64.6988 143.091 64.0451C143.091 63.3914 143.62 62.8616 144.271 62.8616C144.923 62.8616 145.451 63.3914 145.451 64.0451Z" fill="#CBC5C5"/>
<path d="M150.563 46.4892C150.563 47.1428 150.035 47.6727 149.384 47.6727C148.732 47.6727 148.204 47.1428 148.204 46.4892C148.204 45.8355 148.732 45.3056 149.384 45.3056C150.035 45.3056 150.563 45.8355 150.563 46.4892Z" fill="#CBC5C5"/>
<path d="M142.501 40.9659C142.501 41.6196 141.973 42.1495 141.322 42.1495C140.67 42.1495 140.142 41.6196 140.142 40.9659C140.142 40.3123 140.67 39.7824 141.322 39.7824C141.973 39.7824 142.501 40.3123 142.501 40.9659Z" fill="#CBC5C5"/>
<path d="M128.934 36.8235C128.934 37.4772 128.406 38.0071 127.754 38.0071C127.102 38.0071 126.574 37.4772 126.574 36.8235C126.574 36.1699 127.102 35.64 127.754 35.64C128.406 35.64 128.934 36.1699 128.934 36.8235Z" fill="#CBC5C5"/>
<path d="M114.973 21.2401C114.973 21.8938 114.445 22.4237 113.793 22.4237C113.141 22.4237 112.613 21.8938 112.613 21.2401C112.613 20.5865 113.141 20.0566 113.793 20.0566C114.445 20.0566 114.973 20.5865 114.973 21.2401Z" fill="#CBC5C5"/>
<path d="M124.215 14.3361C124.215 14.9898 123.686 15.5197 123.035 15.5197C122.383 15.5197 121.855 14.9898 121.855 14.3361C121.855 13.6825 122.383 13.1526 123.035 13.1526C123.686 13.1526 124.215 13.6825 124.215 14.3361Z" fill="#CBC5C5"/>
<path d="M99.2422 13.1526C99.2422 13.8062 98.714 14.3361 98.0624 14.3361C97.4108 14.3361 96.8826 13.8062 96.8826 13.1526C96.8826 12.4989 97.4108 11.969 98.0624 11.969C98.714 11.969 99.2422 12.4989 99.2422 13.1526Z" fill="#CBC5C5"/>
<path d="M100.029 3.68419C100.029 4.33785 99.5005 4.86774 98.8489 4.86774C98.1973 4.86774 97.6691 4.33785 97.6691 3.68419C97.6691 3.03054 98.1973 2.50065 98.8489 2.50065C99.5005 2.50065 100.029 3.03054 100.029 3.68419Z" fill="#CBC5C5"/>
<path d="M119.692 142.159C119.954 142.883 120.321 144.566 119.692 145.513C126.381 144.273 137.318 134.609 136.602 127.365C130.498 129.111 126.859 132.207 119.692 142.159Z" fill="#CBC5C5"/>
<path d="M127.361 125.984C127.754 120.264 135.816 109.809 137.389 110.598C138.962 111.387 138.175 125.59 131.687 128.351C131.215 127.247 128.606 126.313 127.361 125.984Z" fill="#CBC5C5"/>
<path d="M131.883 140.384C135.029 137.031 140.732 133.677 146.041 134.466C144.664 139.792 136.406 142.948 133.063 144.526C133.456 143.343 132.866 140.976 131.883 140.384Z" fill="#CBC5C5"/>
<path d="M126.181 149.852C126.771 148.077 125.788 146.302 126.378 146.104C126.849 145.947 129.72 145.776 131.097 145.71C129.759 147.434 128.716 148.353 126.181 149.852Z" fill="#CBC5C5"/>
<path d="M136.602 125.984C137.389 121.842 143.681 111.584 146.434 112.571C149.187 113.557 145.451 128.746 137.782 132.494C139.749 128.351 138.618 125.984 136.602 125.984Z" fill="#CBC5C5"/>
<path d="M138.765 110.203C139.159 104.483 138.175 101.919 140.142 97.7762C142.108 93.6338 142.698 94.0283 143.485 94.2256C144.271 94.4228 146.237 100.341 145.451 104.68C144.822 108.152 143.878 111.387 143.485 112.571C143.157 111.847 142.265 110.282 141.322 109.809C140.378 109.336 139.224 109.875 138.765 110.203Z" fill="#CBC5C5"/>
<path d="M145.451 111.782C145.627 102.905 151.547 94.8371 153.316 95.0146C157.249 95.4091 154.103 113.754 148.794 116.121C148.794 111.782 147.614 110.203 145.451 111.782Z" fill="#CBC5C5"/>
<path d="M139.749 133.085C145.648 129.337 144.468 126.576 148.007 123.222C150.839 120.54 154.562 119.475 156.069 119.277C153.065 127.891 149.775 131.19 139.749 133.085Z" fill="#CBC5C5"/>
<path d="M149.58 119.869C150.76 114.442 158.822 102.905 161.182 104.088C161.182 106.653 156.96 113.754 156.069 117.699C153.08 118.015 150.498 119.277 149.58 119.869Z" fill="#CBC5C5"/>
<path d="M141.715 80.2203C145.451 81.7983 150.367 87.5188 149.187 95.8036C147.928 94.2256 146.565 94.6201 146.041 95.0146C145.398 93.2603 144.883 92.6724 143.485 92.8448C141.221 87.8957 141.088 85.1346 141.715 80.2203Z" fill="#CBC5C5"/>
<path d="M154.103 73.7107C156.659 76.2751 159.192 87.1285 156.069 96.5927C153.925 93.3904 152.889 93.9851 150.957 93.831C150.44 90.8812 150.318 87.8919 150.461 85.1517C150.757 84.8229 151.389 83.9287 151.547 82.9819C151.704 82.035 151.181 81.2723 150.899 81.0093C151.589 76.7859 152.893 73.8226 154.103 73.7107Z" fill="#CBC5C5"/>
<path d="M162.165 87.1243C162.165 92.8448 161.243 95.8816 161.182 102.313C160.592 103.694 158.429 103.497 158.822 99.5515C158.541 100.492 156.737 101.396 157.052 96.7899C157.367 92.1842 162.165 87.1243 162.165 87.1243Z" fill="#CBC5C5"/>
<path d="M139.552 65.8204C139.726 73.0156 141.393 75.8925 145.451 80.2203C146.406 78.3103 148.204 81.0093 149.973 79.234C146.041 72.1327 147.614 69.9628 144.271 67.793C142.399 66.3731 141.375 66.1477 139.552 65.8204Z" fill="#CBC5C5"/>
<path d="M148.204 57.3383C154.103 63.4533 157.483 67.3427 156.069 75.2888C154.049 71.1041 152.771 72.1341 150.367 77.0641C146.815 69.2726 146.013 64.948 148.204 57.3383Z" fill="#CBC5C5"/>
<path d="M158.822 89.0969C158.136 83.1491 157.839 80.2203 158.429 77.0641C159.34 74.8731 160.265 73.8268 162.755 72.3299C163.704 77.4953 163.626 80.3813 162.755 85.5462C160.534 86.2633 159.876 87.2364 158.822 89.0969Z" fill="#CBC5C5"/>
<path d="M157.642 75.2888C158.429 68.7793 155.676 65.2287 155.676 61.2835C155.676 57.3383 158.429 54.9712 158.429 54.9712C160.206 62.0223 160.458 65.7562 160.592 72.3299C159.412 72.774 158.761 73.4615 157.642 75.2888Z" fill="#CBC5C5"/>
<path d="M134.046 51.8151C135.739 57.2269 137.181 59.9237 141.322 63.6506C141.889 62.0294 142.289 61.6046 143.091 61.2835C141.726 58.5754 141.511 57.0644 141.322 54.3795C137.182 51.6044 136.055 51.6782 134.046 51.8151Z" fill="#CBC5C5"/>
<path d="M144.861 60.0999C147.421 55.3277 148.602 55.1625 150.461 57.3383C150.366 53.2658 149.694 51.5823 148.204 48.8563C146.818 48.6541 146.568 47.8016 146.434 46.4892C144.307 44.2557 143.213 43.7567 141.322 43.333C141.44 50.4158 142.014 54.1738 144.861 60.0999Z" fill="#CBC5C5"/>
<path d="M152.136 44.1221C154.926 46.5605 156.054 48.6122 156.856 54.1822C156.099 54.8299 155.725 55.7449 155.086 57.7328C154.189 56.7355 153.671 56.5943 152.726 56.9438C150.809 52.038 150.807 49.2322 152.136 44.1221Z" fill="#CBC5C5"/>
<path d="M140.732 52.4069C139.582 44.756 134.046 38.9934 128.934 38.9934C126.967 38.9934 125.853 37.0208 125.198 38.0071C124.846 38.536 127.515 42.9503 131.293 46.6864C134.56 49.9165 138.817 52.5898 140.732 52.4069Z" fill="#CBC5C5"/>
<path d="M128.54 26.5661C135.496 28.2405 138.531 30.3062 141.322 37.4153C139.285 39.2253 137.754 39.9846 140.142 44.7138C131.934 38.2421 129.855 34.1954 128.54 26.5661Z" fill="#CBC5C5"/>
<path d="M142.501 29.1305C147.298 33.587 149.188 36.5575 151.35 42.544C151.352 43.5088 151.292 43.9981 150.76 44.5166C149.871 43.9986 149.136 43.8603 147.024 44.1221C142.948 38.0764 142.218 34.8154 142.501 29.1305Z" fill="#CBC5C5"/>
<path d="M115.759 17.295C124.646 17.7883 128.538 19.7904 133.456 26.5661C127.788 24.4314 126.441 24.8229 127.361 29.1305C120.761 25.259 118.607 22.5242 115.759 17.295Z" fill="#CBC5C5"/>
<path d="M125.394 14.1389C125.788 17.6895 134.833 24.5935 141.518 34.2592C139.159 27.3551 138.358 26.0202 141.322 27.9469C135.825 18.9581 132.286 16.1937 125.394 14.1389Z" fill="#CBC5C5"/>
<path d="M112.613 25.9743C114.016 24.4224 114.971 23.8281 117.922 24.199C121.687 27.5208 123.723 28.6647 127.197 30.6165L127.361 30.7085C127.978 31.5434 128.259 32.3077 128.54 33.6674C123.063 33.6789 119.549 31.9484 112.613 25.9743Z" fill="#CBC5C5"/>
<path d="M105.731 17.295C109.467 18.8731 114.383 18.2813 114.383 18.2813C114.517 15.3616 116.124 15.7372 118.316 15.5197C111.063 9.82028 106.748 8.43689 98.4557 10.3707C102.388 11.969 100.029 14.8864 105.731 17.295Z" fill="#CBC5C5"/>
<path d="M112.417 23.2127C105.082 23.14 101.847 21.9805 96.8826 18.8731C97.767 16.5173 98.6807 15.9991 101.405 15.7169C103.898 19.0471 106.158 20.0676 111.04 21.0429C111.23 22.0914 111.497 22.6556 112.417 23.2127Z" fill="#CBC5C5"/>
<path d="M101.405 2.89516C102.006 5.76179 102.737 7.22155 106.714 8.8129C110.211 9.6234 111.322 9.01722 118.905 14.9279C119.54 15.3274 119.885 15.4586 120.479 15.5197C120.39 13.868 120.542 13.0898 121.068 11.969C114.34 6.06275 109.86 4.51149 101.405 2.89516Z" fill="#CBC5C5"/>
<path d="M82.9217 15.5197C83.4484 14.0209 84.0695 13.3457 85.6745 12.3635C87.5819 13.445 89.5527 13.6784 94.523 13.5471C95.7856 14.2065 96.3313 14.6289 96.8826 15.5197C91.9883 17.598 88.9092 17.591 82.9217 15.5197Z" fill="#CBC5C5"/>
<path d="M82.9217 0.133552C83.8546 1.60732 84.539 2.43004 86.2644 3.88145C90.4973 3.61194 92.7087 3.90341 96.4893 4.86774C96.2851 3.94535 96.3368 3.42357 96.4893 2.50065C90.3955 0.082413 87.5194 -0.247386 82.9217 0.133552Z" fill="#CBC5C5"/>
<path d="M78.2005 163.463C78.2005 163.463 80.1678 163.858 81.9375 163.858C83.7072 163.858 85.6745 163.463 85.6745 163.463C85.641 163.263 85.6086 163.066 85.5773 162.871C85.3337 161.36 85.1549 160.007 85.0369 158.729C84.9428 157.709 84.8875 156.737 84.8691 155.77C84.8542 154.985 84.8636 154.203 84.8965 153.403C84.9249 152.711 84.9708 152.004 85.0334 151.269L85.0369 151.228C85.1735 149.64 85.3882 147.915 85.6745 145.907C85.6745 145.907 83.9038 145.513 81.9375 145.513C79.9712 145.513 78.2005 145.907 78.2005 145.907C78.4868 147.915 78.7015 149.64 78.8381 151.228L78.8416 151.269C78.9043 152.004 78.9501 152.711 78.9785 153.403C79.0114 154.203 79.0208 154.985 79.0059 155.77C78.9876 156.737 78.9322 157.709 78.8381 158.729C78.7201 160.007 78.5413 161.36 78.2977 162.871C78.2664 163.066 78.234 163.263 78.2005 163.463Z" fill="#CBC5C5"/>
<path fill-rule="evenodd" clip-rule="evenodd" d="M78.2005 145.907C78.2005 145.907 79.9712 145.513 81.9375 145.513C83.9038 145.513 85.6745 145.907 85.6745 145.907C85.3882 147.915 85.1735 149.64 85.0369 151.228C86.4611 143.935 90.0005 140.581 91.7701 138.411C94.9163 138.411 97.2759 141.173 99.8321 141.173C102.585 141.173 102.585 141.173 102.585 143.343C102.585 145.513 102.192 148.669 100.225 150.247C98.259 151.825 95.3095 153.206 94.3264 153.206C93.3432 153.206 87.8375 152.219 88.0341 151.036C88.2308 149.852 91.9668 149.852 92.9499 149.852C93.9331 149.852 99.0456 149.458 99.4388 148.077C99.8321 146.696 97.2759 147.091 95.1129 145.907C92.9499 144.724 91.9668 142.751 90.1971 145.907C88.4413 149.038 84.9158 152.937 85.0334 151.269C84.9708 152.004 84.9249 152.711 84.8965 153.403C89.4106 153.206 95.8994 155.376 100.619 155.178C101.209 152.022 104.158 149.852 105.141 149.852C106.124 149.852 109.664 155.178 112.22 155.178C113.99 155.178 116.743 153.403 116.743 151.825C117.847 152.071 118.974 152.624 119.372 154.587L120.675 153.797C119.929 149.23 118.729 147.912 114.383 149.063C115.602 150.705 115.636 151.564 114.383 153.206C112.967 152.732 112.613 149.852 112.613 148.471C115.366 146.499 116.349 150.247 124.215 145.513C124.908 146.941 124.876 147.809 124.608 151.228L126.181 149.852C126.771 148.077 125.788 146.302 126.378 146.104C126.849 145.947 129.72 145.776 131.097 145.71L133.063 144.526C133.456 143.343 132.866 140.976 131.883 140.384C135.029 137.031 140.732 133.677 146.041 134.466L139.749 133.085C145.648 129.337 144.468 126.576 148.007 123.222C150.839 120.54 154.562 119.475 156.069 119.277V117.699C153.08 118.015 150.498 119.277 149.58 119.869C150.76 114.442 158.822 102.905 161.182 104.088V102.313C160.592 103.694 158.429 103.497 158.822 99.5515C158.541 100.492 156.737 101.396 157.052 96.7899C157.367 92.1842 162.165 87.1243 162.165 87.1243L162.755 85.5462C160.534 86.2633 159.876 87.2364 158.822 89.0969C158.136 83.1491 157.839 80.2203 158.429 77.0641C159.34 74.8731 160.265 73.8268 162.755 72.3299H160.592C159.412 72.774 158.761 73.4615 157.642 75.2888C158.429 68.7793 155.676 65.2287 155.676 61.2835C155.676 57.3383 158.429 54.9712 158.429 54.9712L156.856 54.1822C156.099 54.8299 155.725 55.7449 155.086 57.7328C154.189 56.7355 153.671 56.5943 152.726 56.9438C150.809 52.038 150.807 49.2322 152.136 44.1221L151.35 42.544C151.352 43.5088 151.292 43.9981 150.76 44.5166C149.871 43.9986 149.136 43.8603 147.024 44.1221C142.948 38.0764 142.218 34.8154 142.501 29.1305L141.322 27.9469C138.358 26.0202 139.159 27.3551 141.518 34.2592C134.833 24.5935 125.788 17.6895 125.394 14.1389L124.215 14.3361C124.215 14.9898 123.686 15.5197 123.035 15.5197C122.383 15.5197 121.855 14.9898 121.855 14.3361L121.068 11.969C120.542 13.0898 120.39 13.868 120.479 15.5197C119.885 15.4586 119.54 15.3274 118.905 14.9279C111.322 9.01722 110.211 9.6234 106.714 8.8129C102.737 7.22155 102.006 5.76179 101.405 2.89516L100.029 3.68419C100.029 4.33785 99.5005 4.86774 98.8489 4.86774C98.1973 4.86774 97.6691 4.33785 97.6691 3.68419L96.4893 2.50065C96.3368 3.42357 96.2851 3.94535 96.4893 4.86774C92.7087 3.90341 90.4973 3.61194 86.2644 3.88145C84.539 2.43004 83.8546 1.60732 82.9217 0.133552H82.9207H80.9543H80.9533C80.0204 1.60732 79.336 2.43004 77.6106 3.88145C73.3777 3.61194 71.1663 3.90341 67.3857 4.86774C67.5899 3.94535 67.5382 3.42357 67.3857 2.50065L66.2059 3.68419C66.2059 4.33785 65.6777 4.86774 65.0261 4.86774C64.3745 4.86774 63.8463 4.33785 63.8463 3.68419L62.4698 2.89516C61.8689 5.76179 61.1383 7.22155 57.1608 8.8129C53.664 9.6234 52.5532 9.01722 44.9695 14.9279C44.3346 15.3274 43.9899 15.4586 43.3965 15.5197C43.4851 13.868 43.3332 13.0898 42.8066 11.969L42.02 14.3361C42.02 14.9898 41.4918 15.5197 40.8402 15.5197C40.1887 15.5197 39.6604 14.9898 39.6604 14.3361L38.4806 14.1389C38.0874 17.6895 29.0423 24.5935 22.3568 34.2592C24.7164 27.3551 25.5174 26.0202 22.5534 27.9469L21.3736 29.1305C21.6566 34.8154 20.927 38.0764 16.851 44.1221C14.7392 43.8603 14.0044 43.9986 13.115 44.5166C12.5832 43.9981 12.5227 43.5088 12.5251 42.544L11.7386 44.1221C13.0684 49.2322 13.0658 52.038 11.1487 56.9438C10.2039 56.5943 9.68578 56.7355 8.7891 57.7328C8.14968 55.7449 7.77569 54.8299 7.01941 54.1822L5.44634 54.9712C5.44634 54.9712 8.1992 57.3383 8.1992 61.2835C8.1992 65.2287 5.44634 68.7793 6.23287 75.2888C5.11389 73.4615 4.46281 72.774 3.28338 72.3299H1.12042C3.61046 73.8268 4.53543 74.8731 5.44634 77.0641C6.03624 80.2203 5.73944 83.1491 5.05308 89.0969C3.99928 87.2364 3.34135 86.2633 1.12042 85.5462L1.71032 87.1243C1.71032 87.1243 6.50755 92.1842 6.82277 96.7899C7.138 101.396 5.3343 100.492 5.05308 99.5515C5.44634 103.497 3.28338 103.694 2.69349 102.313V104.088C5.05308 102.905 13.115 114.442 14.2948 119.869C13.3772 119.277 10.7948 118.015 7.80594 117.699V119.277C9.31345 119.475 13.0364 120.54 15.8679 123.222C19.4073 126.576 18.2275 129.337 24.1265 133.085L17.8342 134.466C23.1433 133.677 28.8456 137.031 31.9918 140.384C31.0086 140.976 30.4187 143.343 30.812 144.526L32.7783 145.71C34.1547 145.776 37.0256 145.947 37.4975 146.104C38.0874 146.302 37.1042 148.077 37.6941 149.852L39.2672 151.228C38.9993 147.809 38.9673 146.941 39.6604 145.513C47.5258 150.247 48.5089 146.499 51.2618 148.471C51.2618 149.852 50.9078 152.732 49.4921 153.206C48.2393 151.564 48.2731 150.705 49.4921 149.063C45.1457 147.912 43.9458 149.23 43.1998 153.797L44.5027 154.587C44.9007 152.624 46.0283 152.071 47.1325 151.825C47.1325 153.403 49.8853 155.178 51.655 155.178C54.2113 155.178 57.7507 149.852 58.7338 149.852C59.717 149.852 62.6665 152.022 63.2564 155.178C67.9756 155.376 74.4644 153.206 78.9785 153.403C78.9501 152.711 78.9043 152.004 78.8416 151.269C78.9592 152.937 75.4337 149.038 73.6779 145.907C71.9082 142.751 70.9251 144.724 68.7621 145.907C66.5991 147.091 64.0429 146.696 64.4362 148.077C64.8294 149.458 69.9419 149.852 70.9251 149.852C71.9082 149.852 75.6442 149.852 75.8409 151.036C76.0375 152.219 70.5318 153.206 69.5486 153.206C68.5655 153.206 65.616 151.825 63.6496 150.247C61.6833 148.669 61.2901 145.513 61.2901 143.343C61.2901 141.173 61.2901 141.173 64.0429 141.173C66.5991 141.173 68.9587 138.411 72.1049 138.411C73.8745 140.581 77.4139 143.935 78.8381 151.228C78.7015 149.64 78.4868 147.915 78.2005 145.907ZM60.7002 140.778C60.7002 141.962 59.5204 140.778 59.5204 143.343C59.5204 144.447 60.8968 145.907 60.7002 148.274C58.5966 146.515 57.4382 145.773 55.3911 144.724C55.1944 144.395 54.6439 142.948 54.0146 139.792C53.2281 135.847 56.3742 137.228 58.3406 138.214C59.9136 139.003 60.5691 140.252 60.7002 140.778ZM45.3628 143.343C50.4753 143.343 56.7675 145.907 59.5204 148.471C57.2001 149.046 56.268 149.599 55.3911 151.036C54.8667 150.115 53.3854 148.077 51.655 147.288C49.4921 146.302 47.7224 147.485 46.346 146.499C44.9695 145.513 45.3628 144.329 45.3628 143.343ZM51.2618 140.187C50.9341 140.515 50.5539 141.489 50.8685 142.751L46.7392 142.554C39.418 135.552 38.2366 132.222 39.0705 125.392C44.8956 130.03 47.9211 132.94 51.2618 140.187ZM44.183 145.513C43.5538 144.566 43.9208 142.883 44.183 142.159C37.0161 132.207 33.377 129.111 27.2726 127.365C26.5571 134.609 37.4938 144.273 44.183 145.513ZM33.7615 144.526C33.1099 144.526 32.5817 143.996 32.5817 143.343C32.5817 142.689 33.1099 142.159 33.7615 142.159C34.413 142.159 34.9413 142.689 34.9413 143.343C34.9413 143.996 34.413 144.526 33.7615 144.526ZM36.5143 130.521C35.8627 130.521 35.3345 129.991 35.3345 129.337C35.3345 128.684 35.8627 128.154 36.5143 128.154C37.1659 128.154 37.6941 128.684 37.6941 129.337C37.6941 129.991 37.1659 130.521 36.5143 130.521ZM22.9467 114.149C22.2951 114.149 21.7669 113.619 21.7669 112.965C21.7669 112.311 22.2951 111.782 22.9467 111.782C23.5982 111.782 24.1265 112.311 24.1265 112.965C24.1265 113.619 23.5982 114.149 22.9467 114.149ZM6.62614 104.088C5.97456 104.088 5.44634 103.559 5.44634 102.905C5.44634 102.251 5.97456 101.721 6.62614 101.721C7.27772 101.721 7.80594 102.251 7.80594 102.905C7.80594 103.559 7.27772 104.088 6.62614 104.088ZM16.2611 98.9598C15.6096 98.9598 15.0813 98.4299 15.0813 97.7762C15.0813 97.1225 15.6096 96.5927 16.2611 96.5927C16.9127 96.5927 17.4409 97.1225 17.4409 97.7762C17.4409 98.4299 16.9127 98.9598 16.2611 98.9598ZM14.6881 84.1654C14.0365 84.1654 13.5083 83.6355 13.5083 82.9819C13.5083 82.3282 14.0365 81.7983 14.6881 81.7983C15.3397 81.7983 15.8679 82.3282 15.8679 82.9819C15.8679 83.6355 15.3397 84.1654 14.6881 84.1654ZM10.5588 61.2835C9.90721 61.2835 9.379 60.7536 9.379 60.0999C9.379 59.4463 9.90721 58.9164 10.5588 58.9164C11.2104 58.9164 11.7386 59.4463 11.7386 60.0999C11.7386 60.7536 11.2104 61.2835 10.5588 61.2835ZM19.6039 65.2287C18.9523 65.2287 18.4241 64.6988 18.4241 64.0451C18.4241 63.3914 18.9523 62.8616 19.6039 62.8616C20.2555 62.8616 20.7837 63.3914 20.7837 64.0451C20.7837 64.6988 20.2555 65.2287 19.6039 65.2287ZM14.4915 47.6727C13.8399 47.6727 13.3117 47.1428 13.3117 46.4892C13.3117 45.8355 13.8399 45.3056 14.4915 45.3056C15.143 45.3056 15.6712 45.8355 15.6712 46.4892C15.6712 47.1428 15.143 47.6727 14.4915 47.6727ZM22.5534 42.1495C21.9018 42.1495 21.3736 41.6196 21.3736 40.9659C21.3736 40.3123 21.9018 39.7824 22.5534 39.7824C23.205 39.7824 23.7332 40.3123 23.7332 40.9659C23.7332 41.6196 23.205 42.1495 22.5534 42.1495ZM36.1211 38.0071C35.4695 38.0071 34.9413 37.4772 34.9413 36.8235C34.9413 36.1699 35.4695 35.64 36.1211 35.64C36.7726 35.64 37.3009 36.1699 37.3009 36.8235C37.3009 37.4772 36.7726 38.0071 36.1211 38.0071ZM50.082 22.4237C49.4304 22.4237 48.9022 21.8938 48.9022 21.2401C48.9022 20.5865 49.4304 20.0566 50.082 20.0566C50.7336 20.0566 51.2618 20.5865 51.2618 21.2401C51.2618 21.8938 50.7336 22.4237 50.082 22.4237ZM65.8126 14.3361C65.161 14.3361 64.6328 13.8062 64.6328 13.1526C64.6328 12.4989 65.161 11.969 65.8126 11.969C66.4642 11.969 66.9924 12.4989 66.9924 13.1526C66.9924 13.8062 66.4642 14.3361 65.8126 14.3361ZM26.4861 110.598C28.0591 109.809 36.1211 120.264 36.5143 125.984C35.269 126.313 32.6603 127.247 32.1884 128.351C25.6995 125.59 24.913 111.387 26.4861 110.598ZM17.4409 112.571C20.1938 111.584 26.486 121.842 27.2726 125.984C25.2569 125.984 24.1265 128.351 26.0928 132.494C18.4241 128.746 14.6881 113.557 17.4409 112.571ZM23.7332 97.7762C25.6995 101.919 24.7164 104.483 25.1096 110.203C24.6508 109.875 23.4972 109.336 22.5534 109.809C21.6096 110.282 20.7182 111.847 20.3904 112.571C19.9972 111.387 19.0533 108.152 18.4241 104.68C17.6376 100.341 19.6039 94.4228 20.3904 94.2256C21.177 94.0283 21.7669 93.6338 23.7332 97.7762ZM10.5588 95.0146C12.3285 94.8371 18.2477 102.905 18.4241 111.782C16.2611 110.203 15.0813 111.782 15.0813 116.121C9.77226 113.754 6.62614 95.4091 10.5588 95.0146ZM14.6881 95.8036C13.5083 87.5188 18.4241 81.7983 22.1601 80.2203C22.7872 85.1346 22.6542 87.8957 20.3904 92.8448C18.9921 92.6724 18.4767 93.2603 17.8342 95.0146C17.3099 94.6201 15.9465 94.2256 14.6881 95.8036ZM7.80594 96.5927C4.68284 87.1285 7.21604 76.2751 9.77226 73.7107C10.9817 73.8226 12.2857 76.7859 12.9756 81.0093C12.6944 81.2723 12.1712 82.035 12.3285 82.9819C12.4858 83.9287 13.1177 84.8229 13.414 85.1517C13.5572 87.8919 13.4348 90.8812 12.9184 93.831C10.9864 93.9851 9.95029 93.3904 7.80594 96.5927ZM18.4241 80.2203C22.4821 75.8925 24.1489 73.0156 24.3231 65.8204C22.5 66.1477 21.4763 66.3731 19.6039 67.793C16.2611 69.9628 17.8342 72.1327 13.9016 79.234C15.6712 81.0093 17.469 78.3103 18.4241 80.2203ZM7.80594 75.2888C6.39158 67.3427 9.77226 63.4533 15.6712 57.3383C17.8622 64.948 17.0599 69.2726 13.5083 77.0641C11.1039 72.1341 9.82599 71.1041 7.80594 75.2888ZM22.5534 63.6506C26.6943 59.9237 28.1362 57.2269 29.8288 51.8151C27.82 51.6782 26.6932 51.6044 22.5534 54.3795C22.3635 57.0644 22.149 58.5754 20.7837 61.2835C21.5865 61.6046 21.9864 62.0294 22.5534 63.6506ZM13.414 57.3383C15.2732 55.1625 16.4542 55.3277 19.014 60.0999C21.8611 54.1738 22.4349 50.4158 22.5534 43.333C20.6625 43.7567 19.5681 44.2557 17.4409 46.4892C17.307 47.8016 17.0568 48.6541 15.6712 48.8563C14.1807 51.5823 13.5086 53.2658 13.414 57.3383ZM34.9413 38.9934C29.8288 38.9934 24.2931 44.756 23.1433 52.4069C25.058 52.5898 29.315 49.9165 32.5817 46.6864C36.3601 42.9503 39.0288 38.536 38.6773 38.0071C38.0218 37.0208 36.9076 38.9934 34.9413 38.9934ZM22.5534 37.4153C25.3437 30.3062 28.3785 28.2405 35.3345 26.5661C34.0197 34.1954 31.9413 38.2421 23.7332 44.7138C26.1206 39.9846 24.5902 39.2253 22.5534 37.4153ZM30.4187 26.5661C35.3371 19.7904 39.2295 17.7883 48.1157 17.295C45.2681 22.5242 43.1139 25.259 36.5143 29.1305C37.4343 24.8229 36.0875 24.4314 30.4187 26.5661ZM45.9527 24.199C48.9044 23.8281 49.8594 24.4224 51.2618 25.9743C44.3262 31.9484 40.8124 33.6789 35.3345 33.6674C35.6161 32.3077 35.8974 31.5434 36.5143 30.7085L36.6781 30.6165C40.152 28.6647 42.1879 27.5208 45.9527 24.199ZM49.4921 18.2813C49.4921 18.2813 54.4079 18.8731 58.1439 17.295C63.8463 14.8864 61.4867 11.969 65.4193 10.3707C57.127 8.43689 52.8124 9.82028 45.5594 15.5197C47.7512 15.7372 49.3583 15.3616 49.4921 18.2813ZM66.9924 18.8731C62.0279 21.9805 58.7927 23.14 51.4584 23.2127C52.3778 22.6556 52.6446 22.0914 52.8348 21.0429C57.717 20.0676 59.9774 19.0471 62.4698 15.7169C65.1943 15.9991 66.108 16.5173 66.9924 18.8731ZM81.9375 8.90762C79.0097 10.7866 77.3395 11.5745 73.088 11.5745C69.6827 11.5745 68.3507 10.7657 67.1284 10.0235C66.0921 9.39425 65.1348 8.8129 63.0597 8.8129C70.3251 4.02894 74.7779 3.65858 81.9375 6.73397C89.0971 3.65858 93.5499 4.02894 100.815 8.8129C98.7402 8.8129 97.7829 9.39425 96.7466 10.0235C95.5243 10.7657 94.1923 11.5745 90.787 11.5745C86.5355 11.5745 84.8653 10.7866 81.9375 8.90762ZM78.2005 12.3635C79.8055 13.3457 80.4266 14.0209 80.9533 15.5197C74.9658 17.591 71.8867 17.598 66.9924 15.5197C67.5437 14.6289 68.0894 14.2065 69.352 13.5471C74.3223 13.6784 76.2931 13.445 78.2005 12.3635ZM103.175 140.778C103.175 141.962 104.355 140.778 104.355 143.343C104.355 144.447 102.978 145.907 103.175 148.274C105.278 146.515 106.437 145.773 108.484 144.724C108.681 144.395 109.231 142.948 109.86 139.792C110.647 135.847 107.501 137.228 105.534 138.214C103.961 139.003 103.306 140.252 103.175 140.778ZM118.512 143.343C113.4 143.343 107.108 145.907 104.355 148.471C106.675 149.046 107.607 149.599 108.484 151.036C109.008 150.115 110.49 148.077 112.22 147.288C114.383 146.302 116.153 147.485 117.529 146.499C118.905 145.513 118.512 144.329 118.512 143.343ZM112.613 140.187C112.941 140.515 113.321 141.489 113.006 142.751L117.136 142.554C124.457 135.552 125.638 132.222 124.804 125.392C118.979 130.03 115.954 132.94 112.613 140.187ZM119.692 145.513C120.321 144.566 119.954 142.883 119.692 142.159C126.859 132.207 130.498 129.111 136.602 127.365C137.318 134.609 126.381 144.273 119.692 145.513ZM130.114 144.526C130.765 144.526 131.293 143.996 131.293 143.343C131.293 142.689 130.765 142.159 130.114 142.159C129.462 142.159 128.934 142.689 128.934 143.343C128.934 143.996 129.462 144.526 130.114 144.526ZM127.361 130.521C128.012 130.521 128.54 129.991 128.54 129.337C128.54 128.684 128.012 128.154 127.361 128.154C126.709 128.154 126.181 128.684 126.181 129.337C126.181 129.991 126.709 130.521 127.361 130.521ZM140.928 114.149C141.58 114.149 142.108 113.619 142.108 112.965C142.108 112.311 141.58 111.782 140.928 111.782C140.277 111.782 139.749 112.311 139.749 112.965C139.749 113.619 140.277 114.149 140.928 114.149ZM157.249 104.088C157.9 104.088 158.429 103.559 158.429 102.905C158.429 102.251 157.9 101.721 157.249 101.721C156.597 101.721 156.069 102.251 156.069 102.905C156.069 103.559 156.597 104.088 157.249 104.088ZM147.614 98.9598C148.265 98.9598 148.794 98.4299 148.794 97.7762C148.794 97.1225 148.265 96.5927 147.614 96.5927C146.962 96.5927 146.434 97.1225 146.434 97.7762C146.434 98.4299 146.962 98.9598 147.614 98.9598ZM149.187 84.1654C149.839 84.1654 150.367 83.6355 150.367 82.9819C150.367 82.3282 149.839 81.7983 149.187 81.7983C148.535 81.7983 148.007 82.3282 148.007 82.9819C148.007 83.6355 148.535 84.1654 149.187 84.1654ZM153.316 61.2835C153.968 61.2835 154.496 60.7536 154.496 60.0999C154.496 59.4463 153.968 58.9164 153.316 58.9164C152.665 58.9164 152.136 59.4463 152.136 60.0999C152.136 60.7536 152.665 61.2835 153.316 61.2835ZM144.271 65.2287C144.923 65.2287 145.451 64.6988 145.451 64.0451C145.451 63.3914 144.923 62.8616 144.271 62.8616C143.62 62.8616 143.091 63.3914 143.091 64.0451C143.091 64.6988 143.62 65.2287 144.271 65.2287ZM149.384 47.6727C150.035 47.6727 150.563 47.1428 150.563 46.4892C150.563 45.8355 150.035 45.3056 149.384 45.3056C148.732 45.3056 148.204 45.8355 148.204 46.4892C148.204 47.1428 148.732 47.6727 149.384 47.6727ZM141.322 42.1495C141.973 42.1495 142.501 41.6196 142.501 40.9659C142.501 40.3123 141.973 39.7824 141.322 39.7824C140.67 39.7824 140.142 40.3123 140.142 40.9659C140.142 41.6196 140.67 42.1495 141.322 42.1495ZM127.754 38.0071C128.406 38.0071 128.934 37.4772 128.934 36.8235C128.934 36.1699 128.406 35.64 127.754 35.64C127.102 35.64 126.574 36.1699 126.574 36.8235C126.574 37.4772 127.102 38.0071 127.754 38.0071ZM113.793 22.4237C114.445 22.4237 114.973 21.8938 114.973 21.2401C114.973 20.5865 114.445 20.0566 113.793 20.0566C113.141 20.0566 112.613 20.5865 112.613 21.2401C112.613 21.8938 113.141 22.4237 113.793 22.4237ZM98.0624 14.3361C98.714 14.3361 99.2422 13.8062 99.2422 13.1526C99.2422 12.4989 98.714 11.969 98.0624 11.969C97.4108 11.969 96.8826 12.4989 96.8826 13.1526C96.8826 13.8062 97.4108 14.3361 98.0624 14.3361ZM137.389 110.598C135.816 109.809 127.754 120.264 127.361 125.984C128.606 126.313 131.215 127.247 131.687 128.351C138.175 125.59 138.962 111.387 137.389 110.598ZM146.434 112.571C143.681 111.584 137.389 121.842 136.602 125.984C138.618 125.984 139.749 128.351 137.782 132.494C145.451 128.746 149.187 113.557 146.434 112.571ZM140.142 97.7762C138.175 101.919 139.159 104.483 138.765 110.203C139.224 109.875 140.378 109.336 141.322 109.809C142.265 110.282 143.157 111.847 143.485 112.571C143.878 111.387 144.822 108.152 145.451 104.68C146.237 100.341 144.271 94.4228 143.485 94.2256C142.698 94.0283 142.108 93.6338 140.142 97.7762ZM153.316 95.0146C151.547 94.8371 145.627 102.905 145.451 111.782C147.614 110.203 148.794 111.782 148.794 116.121C154.103 113.754 157.249 95.4091 153.316 95.0146ZM149.187 95.8036C150.367 87.5188 145.451 81.7983 141.715 80.2203C141.088 85.1346 141.221 87.8957 143.485 92.8448C144.883 92.6724 145.398 93.2603 146.041 95.0146C146.565 94.6201 147.928 94.2256 149.187 95.8036ZM156.069 96.5927C159.192 87.1285 156.659 76.2751 154.103 73.7107C152.893 73.8226 151.589 76.7859 150.899 81.0093C151.181 81.2723 151.704 82.035 151.547 82.9819C151.389 83.9287 150.757 84.8229 150.461 85.1517C150.318 87.8919 150.44 90.8812 150.957 93.831C152.889 93.9851 153.925 93.3904 156.069 96.5927ZM145.451 80.2203C141.393 75.8925 139.726 73.0156 139.552 65.8204C141.375 66.1477 142.399 66.3731 144.271 67.793C147.614 69.9628 146.041 72.1327 149.973 79.234C148.204 81.0093 146.406 78.3103 145.451 80.2203ZM156.069 75.2888C157.483 67.3427 154.103 63.4533 148.204 57.3383C146.013 64.948 146.815 69.2726 150.367 77.0641C152.771 72.1341 154.049 71.1041 156.069 75.2888ZM141.322 63.6506C137.181 59.9237 135.739 57.2269 134.046 51.8151C136.055 51.6782 137.182 51.6044 141.322 54.3795C141.511 57.0644 141.726 58.5754 143.091 61.2835C142.289 61.6046 141.889 62.0294 141.322 63.6506ZM150.461 57.3383C148.602 55.1625 147.421 55.3277 144.861 60.0999C142.014 54.1738 141.44 50.4158 141.322 43.333C143.213 43.7567 144.307 44.2557 146.434 46.4892C146.568 47.8016 146.818 48.6541 148.204 48.8563C149.694 51.5823 150.366 53.2658 150.461 57.3383ZM128.934 38.9934C134.046 38.9934 139.582 44.756 140.732 52.4069C138.817 52.5898 134.56 49.9165 131.293 46.6864C127.515 42.9503 124.846 38.536 125.198 38.0071C125.853 37.0208 126.967 38.9934 128.934 38.9934ZM141.322 37.4153C138.531 30.3062 135.496 28.2405 128.54 26.5661C129.855 34.1954 131.934 38.2421 140.142 44.7138C137.754 39.9846 139.285 39.2253 141.322 37.4153ZM133.456 26.5661C128.538 19.7904 124.646 17.7883 115.759 17.295C118.607 22.5242 120.761 25.259 127.361 29.1305C126.441 24.8229 127.788 24.4314 133.456 26.5661ZM117.922 24.199C114.971 23.8281 114.016 24.4224 112.613 25.9743C119.549 31.9484 123.063 33.6789 128.54 33.6674C128.259 32.3077 127.978 31.5434 127.361 30.7085L127.197 30.6165C123.723 28.6647 121.687 27.5208 117.922 24.199ZM114.383 18.2813C114.383 18.2813 109.467 18.8731 105.731 17.295C100.029 14.8864 102.388 11.969 98.4557 10.3707C106.748 8.43689 111.063 9.82028 118.316 15.5197C116.124 15.7372 114.517 15.3616 114.383 18.2813ZM96.8826 18.8731C101.847 21.9805 105.082 23.14 112.417 23.2127C111.497 22.6556 111.23 22.0914 111.04 21.0429C106.158 20.0676 103.898 19.0471 101.405 15.7169C98.6807 15.9991 97.767 16.5173 96.8826 18.8731ZM85.6745 12.3635C84.0695 13.3457 83.4484 14.0209 82.9217 15.5197C88.9092 17.591 91.9883 17.598 96.8826 15.5197C96.3313 14.6289 95.7856 14.2065 94.523 13.5471C89.5527 13.6784 87.5819 13.445 85.6745 12.3635Z" fill="#6F6C6C"/>
<path fill-rule="evenodd" clip-rule="evenodd" d="M81.9375 6.73397C89.0971 3.65858 93.5499 4.02894 100.815 8.8129C98.7402 8.8129 97.7829 9.39425 96.7466 10.0235C95.5243 10.7657 94.1923 11.5745 90.787 11.5745C86.5355 11.5745 84.8653 10.7866 81.9375 8.90762C82.296 8.67758 82.6733 8.43118 83.0765 8.16787C83.3402 7.99565 83.615 7.8162 83.9028 7.62935C83.224 7.30443 82.5702 7.00574 81.9375 6.73397ZM81.9375 6.73397C81.3048 7.00574 80.651 7.30443 79.9722 7.62935C80.26 7.8162 80.5348 7.99565 80.7985 8.16787C81.2017 8.43118 81.579 8.67758 81.9375 8.90762C79.0097 10.7866 77.3395 11.5745 73.088 11.5745C69.6827 11.5745 68.3507 10.7657 67.1284 10.0235C66.0921 9.39425 65.1348 8.8129 63.0597 8.8129C70.3251 4.02894 74.7779 3.65858 81.9375 6.73397Z" fill="#CBC5C5"/>
<path d="M81.9375 6.73397C81.3048 7.00574 80.651 7.30443 79.9722 7.62935C80.26 7.8162 80.5348 7.99565 80.7985 8.16787C81.2017 8.43118 81.579 8.67758 81.9375 8.90762C82.296 8.67758 82.6733 8.43118 83.0765 8.16787C83.3402 7.99565 83.615 7.8162 83.9028 7.62935C83.224 7.30443 82.5702 7.00574 81.9375 6.73397Z" fill="#6F6C6C"/>
<path d="M84.8691 155.77C84.8875 156.737 84.9428 157.709 85.0369 158.729C85.4898 160.051 95.4385 161.374 100.847 163.858L101.798 162.082C98.8489 162.674 89.8038 156.165 84.8691 155.77Z" fill="#6F6C6C"/>
<path d="M78.8381 158.729C78.9322 157.709 78.9876 156.737 79.0059 155.77C74.0712 156.165 65.0261 162.674 62.0766 162.082L63.028 163.858C68.4365 161.374 78.3852 160.051 78.8381 158.729Z" fill="#6F6C6C"/>
<path d="M89.919 37L90.5306 51.6393L87.3197 48.7115L74.1702 86.3115L98.7873 75.8328L79.9804 121.292L85.1791 120.83L72.947 131L75.2405 115.436L77.6869 120.213L88.6958 86.3115L61.0206 98.023L84.5675 47.941H79.5217L89.919 37Z" fill="#CBC5C5"/>
<path d="M118.303 96.2602C118.698 96.6604 119.021 97.1002 119.336 97.5842C119.701 97.3944 119.876 97.2591 120.159 96.9134C120.546 96.503 120.746 96.4073 121.271 96.4073C121.706 96.7619 121.822 97.2782 122.006 97.8328C122.295 98.6581 122.631 99.2186 123.212 99.8114C124.037 100.703 124.488 101.789 124.537 103.083C124.505 104.279 124.164 105.153 123.442 106.019C122.856 106.628 122.184 106.873 121.4 106.852C120.372 106.543 119.617 105.616 118.829 104.843C118.207 104.238 117.73 104.138 116.932 104.141C116.399 104.219 115.952 104.409 115.457 104.637C113.702 105.438 113.702 105.438 112.886 105.14C112.135 104.707 111.654 104.014 111.343 103.138C111.095 102.186 111.293 101.359 111.673 100.49C112.27 99.704 112.93 99.2362 113.755 98.8067C114.397 98.458 114.862 98.0476 115.368 97.493C116.201 96.5809 117.092 95.6718 118.303 96.2602Z" fill="#CBC5C5"/>
<path d="M81.2658 93.5972C82.0054 94.9579 82.038 96.122 82.0418 97.7083C82.044 98.6988 82.1059 99.6544 82.2503 100.6L85.8979 89.3672L80.89 91.4865C80.9265 92.2331 80.96 92.9158 81.2658 93.5972Z" fill="#CBC5C5"/>
<path fill-rule="evenodd" clip-rule="evenodd" d="M62.6511 89.495C62.8003 89.5309 62.9402 89.5725 63.0729 89.6203L58.0434 100.318C58.2391 99.3321 58.2999 98.3012 57.9671 97.359C57.5696 96.9002 57.1419 96.5037 56.6905 96.1159C56.1537 95.6007 55.8251 95.0131 55.5066 94.3026C55.2984 93.8467 55.1229 93.4965 54.8244 93.1086C54.7403 92.9687 54.6923 92.8889 54.6656 92.8024C54.6301 92.6878 54.632 92.5616 54.6363 92.2678C54.7504 91.7859 54.8745 91.5761 55.1304 91.1911C55.1471 90.985 55.1549 90.8888 55.1538 90.7928C55.1528 90.7088 55.145 90.6249 55.1304 90.4675C55.0917 90.4483 55.053 90.4286 55.0139 90.4088L54.9554 90.3791L54.9097 90.3561L54.7923 90.296C54.628 90.2118 54.4633 90.1274 54.3002 90.0421C54.0719 89.9249 53.8412 89.8149 53.6104 89.7078C53.0842 89.3392 52.716 88.8023 52.3403 88.2546C52.2808 88.1679 52.2212 88.0809 52.1607 87.9943C51.5011 87.0797 50.7825 86.5081 49.8632 85.9784C48.6982 85.3055 47.8354 84.6759 46.9788 83.5211L46.9782 83.5202C46.8584 83.3691 46.8582 83.3689 46.7368 83.2143C46.3839 82.762 46.275 82.6225 46.2414 82.4665C46.2264 82.3969 46.2264 82.324 46.2264 82.2186H45.8502C45.8191 82.4314 45.8034 82.5389 45.7879 82.6463C45.7721 82.7559 45.7564 82.8655 45.7247 83.0869C44.6431 82.8121 44.1051 81.8565 43.5311 80.8368L43.5301 80.8351C43.3382 80.4791 43.1514 80.1188 42.9658 79.7584C42.8444 79.5317 42.8439 79.5308 42.7212 79.2982C42.1305 78.0855 41.8935 76.8843 41.6941 75.5182C41.4935 74.2056 41.0972 73.1 40.3472 72.071L40.3453 72.0684L40.3447 72.0675C40.259 71.9486 40.1733 71.8296 40.0851 71.7078L40.084 71.7063C40.0004 71.5939 39.9167 71.4815 39.8306 71.3648C39.7803 71.2934 39.7308 71.222 39.6805 71.1496L39.6199 71.0623C38.6091 69.6499 37.2007 68.2259 35.5654 68.0016C34.5885 67.9625 33.7808 68.2317 33.0522 69.003C32.8553 69.2158 32.6635 69.4314 32.4779 69.6571C32.0276 70.1839 31.6915 70.3417 31.052 70.3518C30.7384 70.0624 30.7384 70.0624 30.5503 69.6282C30.5384 68.9478 30.7321 68.4522 30.9681 67.8482L31.0043 67.7555C31.4783 66.4722 31.1796 65.6257 30.7592 64.4342C30.7302 64.352 30.7007 64.2682 30.6707 64.1825C30.539 63.6485 30.5453 63.3561 30.6757 62.8265C31.0319 62.2331 31.3103 61.8279 31.9298 61.6687C32.9268 61.5732 33.7946 61.8178 34.7515 62.1116C36.0395 62.482 37.1192 62.5935 38.4297 62.4213C38.9276 62.3692 39.4255 62.372 39.9246 62.3749L40.2055 62.372C40.7222 62.3735 41.2038 62.4357 41.7117 62.537C42.0114 62.5573 42.3124 62.5689 42.6134 62.5732C42.8333 62.5788 42.8401 62.579 43.0524 62.5843L43.0595 62.5844L43.0736 62.5848C43.4636 62.5761 43.4636 62.5761 43.7094 62.3359C43.8674 62.1101 43.8674 62.1101 43.8436 61.8134C43.263 61.5486 42.7388 61.4777 42.1218 61.443C41.7794 61.3663 41.6653 61.2679 41.4609 60.9451C41.4333 60.6919 41.4195 60.5652 41.4195 60.4386C41.4195 60.312 41.4333 60.1854 41.4609 59.9321C41.9964 59.3417 42.5143 59.3692 43.2166 59.498C43.6254 59.6557 44.0217 59.8279 44.4205 60.016C45.1504 60.3547 45.8803 60.5631 46.6553 60.7194C47.0917 60.8207 47.3312 60.9176 47.6535 61.2809C47.8429 61.6441 47.9708 61.9596 48.0762 62.3648L48.078 62.3719L48.1202 62.5322L48.1677 62.7121C48.189 62.7975 48.2103 62.8829 48.2329 62.9712C48.4135 62.9307 48.5941 62.8872 48.7734 62.8438L48.7757 62.8433C48.9239 62.8091 48.9247 62.8089 49.0782 62.7729C49.3929 62.6904 49.3929 62.6904 49.7378 62.3923C49.6174 62.0074 49.5171 61.7078 49.2838 61.3967C49.028 60.9408 49.0518 60.6065 49.1108 60.0768C49.5071 59.6036 49.9046 59.5066 50.4664 59.4531C51.1558 59.4632 51.5527 59.8765 52.0489 60.3931L52.0579 60.4024C52.4492 60.7179 52.6548 60.7252 53.1238 60.6557L53.1252 60.6548C53.2405 60.5833 53.2409 60.583 53.3596 60.511C53.7672 60.2896 54.1898 60.3026 54.6287 60.3663C54.7253 60.4111 54.8219 60.456 54.921 60.5023C55.3026 60.6773 55.6698 60.7505 56.0717 60.8305L56.1023 60.8366C56.945 61.0435 57.483 61.3272 58.1402 61.9582C58.2129 62.0276 58.2857 62.0971 58.3609 62.168C59.4994 63.2596 59.8677 63.6127 60.174 64.0137C60.3205 64.2055 60.4528 64.4082 60.6484 64.7078V64.9972C60.5449 65.026 60.5443 65.0262 60.4395 65.056L60.4377 65.0566C60.1492 65.155 59.9047 65.2548 59.6451 65.4314C59.5394 65.7004 59.489 65.8285 59.458 65.9612C59.4298 66.082 59.4176 66.2065 59.3943 66.4444C59.0042 66.3055 58.6544 66.1622 58.2969 65.9321C57.8317 65.6904 57.4793 65.6586 56.9726 65.6398C56.6917 65.6282 56.4121 65.6094 56.1336 65.5761L56.0082 65.2867C56.05 65.191 56.0914 65.0951 56.1328 64.9991L56.1345 64.9954L56.1348 64.9945C56.1761 64.8988 56.2174 64.8031 56.2591 64.7078V64.1289C55.5831 63.8062 55.1542 63.8279 54.4645 64.1029C53.5151 64.5819 52.5332 65.2447 51.9952 66.2997C51.9045 66.5635 51.8607 66.691 51.8464 66.8219C51.833 66.9444 51.8455 67.0698 51.8698 67.3127C52.2284 67.8597 52.567 68.1159 53.1238 68.3257C53.3063 68.3507 53.3991 68.3634 53.492 68.3691C53.5871 68.375 53.6827 68.3735 53.8763 68.3706C54.003 68.3735 54.1296 68.3764 54.26 68.3778C54.9009 68.2867 55.2671 67.9118 55.6797 67.3677C55.9982 66.99 56.1286 66.88 56.5801 66.7165C57.2272 66.7425 57.6222 67.0103 58.0838 67.5269C58.1562 67.6235 58.2286 67.7209 58.3021 67.8197L58.376 67.9191C58.4738 68.0493 58.5716 68.1796 58.6719 68.3142C58.7006 68.3536 58.7293 68.3927 58.7582 68.4321L58.8055 68.4965L58.8065 68.4979C58.835 68.5365 58.8636 68.5755 58.8926 68.6152C59.2839 68.5269 59.2839 68.5269 59.5824 68.236C59.7705 68.0363 59.7705 68.0363 60.0038 68.0406C60.354 68.2237 60.4828 68.51 60.6442 68.8685C60.6729 68.9323 60.7027 68.9985 60.7349 69.0667C61.1186 69.8453 61.5224 70.3764 62.1683 70.8771C62.2589 70.9533 62.3147 71.0002 62.3633 71.0537C62.4411 71.1394 62.5005 71.2423 62.6549 71.5095C62.6429 71.6957 62.637 71.7883 62.6211 71.8792C62.6054 71.9692 62.58 72.0574 62.5295 72.2331C62.1645 72.5139 62.0191 72.5732 61.604 72.6412L61.5601 72.6485L61.5329 72.6531L61.4672 72.6643L61.4661 72.6645L61.4651 72.6647C61.4057 72.6748 61.346 72.685 61.2854 72.6948C61.1763 72.7136 61.0672 72.7309 60.9544 72.7483L60.9514 72.7488C60.7354 72.7848 60.5195 72.8208 60.3035 72.8583C60.2281 72.8696 60.1528 72.8818 60.0763 72.8941L60.0113 72.9046C59.8943 72.9236 59.8321 72.9337 59.7741 72.9552C59.7085 72.9795 59.6482 73.0184 59.5197 73.1014L59.3943 73.5356C59.4322 73.5526 59.4699 73.5694 59.5078 73.5862L59.5932 73.6242C59.6174 73.635 59.6418 73.646 59.6664 73.6571C60.0163 73.8221 60.3499 74.0074 60.6872 74.2042C60.7421 74.2362 60.7967 74.2682 60.8516 74.3005L60.9609 74.3645L61.0233 74.401C61.1061 74.4487 61.1901 74.4979 61.2754 74.5486L61.15 74.9827C60.6082 75.2678 60.1141 75.4285 59.5272 75.5341C58.1326 75.8475 57.4567 76.9596 56.6833 78.2322L56.6353 78.3113C55.6997 79.7555 55.6997 79.7555 55.1304 80.3373H54.8796L54.8798 80.3384C54.9023 80.448 54.9248 80.5576 54.9473 80.6702C54.9659 80.7671 54.984 80.8647 55.0023 80.9633L55.0026 80.9645L55.0026 80.9649L55.0028 80.9659L55.0134 81.023L55.0288 81.1058C55.0564 81.249 55.084 81.3909 55.1128 81.5385C55.1226 81.7564 55.1269 81.8528 55.1041 81.9421C55.0859 82.0129 55.0506 82.0794 54.9874 82.1984C54.6701 82.4227 54.4946 82.4343 54.1271 82.3634C53.8738 82.1202 53.8738 82.1202 53.6493 81.8018C53.5843 81.7146 53.5203 81.6263 53.4548 81.536L53.4198 81.4878C53.3293 81.3381 53.2868 81.2678 53.2669 81.1915C53.2493 81.1241 53.2493 81.052 53.2493 80.9162C52.3212 80.6383 51.6089 80.5283 50.7411 81.0609C50.5372 81.2051 50.4359 81.2768 50.3573 81.3681C50.2798 81.4582 50.2243 81.5674 50.114 81.7845C50.0676 82.2071 50.1065 82.5457 50.2395 82.9422C50.5266 83.2519 50.7737 83.3547 51.1562 83.4458C52.0228 83.6716 52.0228 83.6716 52.3576 84.1448C52.4968 84.4039 52.636 84.6644 52.774 84.9249C53.0746 85.3709 53.3684 85.4555 53.813 85.5835L53.8826 85.6036C53.9836 85.64 54.0429 85.6614 54.0943 85.695C54.1673 85.7427 54.2245 85.815 54.3629 85.99C54.5309 86.4994 54.6526 87.0131 54.7617 87.5428C54.8119 87.7205 54.8357 87.8046 54.8846 87.8695C54.9284 87.9278 54.9925 87.9708 55.1141 88.0522C55.7637 88.2953 56.3631 88.0363 56.9488 87.7092C57.6787 87.3127 58.1979 87.3301 58.9867 87.5732C59.433 87.7806 59.7813 88.0814 60.1647 88.4126L60.1781 88.4241C60.9543 89.0493 61.7294 89.278 62.6511 89.495ZM81.9052 69.397L84.5311 61.8886C84.8104 61.7716 85.1156 61.68 85.4549 61.6137C86.8136 61.4633 87.9086 61.9665 88.971 62.9151C89.3264 63.2651 89.6805 63.6165 90.0283 63.9765C90.1915 64.1238 90.2682 64.193 90.3572 64.2185C90.436 64.2411 90.5245 64.2296 90.6913 64.2079C90.8318 64.1575 90.9125 64.1285 90.975 64.0771C91.0595 64.0077 91.1108 63.8975 91.2313 63.6381C91.6545 63.7177 91.8692 63.79 92.2359 64.072C92.8789 64.1356 93.2694 64.03 93.837 63.6931C95.0291 63.0647 96.3209 62.7747 97.6047 62.4864C97.8247 62.437 98.0445 62.3877 98.2635 62.3367C98.2785 62.1516 98.2936 61.968 98.3099 61.7771C98.3346 61.4728 98.3458 61.3343 98.3996 61.2153C98.4444 61.1161 98.5188 61.0304 98.6553 60.8733C99.1387 60.7029 99.4114 60.8226 99.8707 61.0242L99.8959 61.0353C99.9776 61.0917 100.059 61.1481 100.143 61.2059C100.392 61.3563 100.392 61.3563 100.633 61.2464C100.716 61.1943 100.799 61.1423 100.885 61.0902C101.349 60.8256 101.778 60.6709 102.282 60.5378C103.204 60.2526 104 59.7608 104.839 59.2425L104.849 59.2364C106.913 57.9639 109.499 56.5193 111.825 57.7094L112.077 57.9986C112.035 58.6334 111.912 59.1511 111.7 59.7338L111.788 59.7368L111.959 59.7425C112.338 59.7565 112.717 59.7718 113.097 59.7872L113.136 59.7888C113.337 59.7946 113.337 59.7946 113.543 59.8018C114.781 59.8539 115.718 60.0259 116.778 60.7735C117.435 61.203 117.916 61.4705 118.686 61.2912C119.008 61.1698 119.32 61.028 119.635 60.882C121.104 60.2313 122.57 60.6015 124.006 61.1799C124.083 61.2107 124.122 61.2263 124.16 61.2417C124.199 61.2574 124.239 61.2729 124.318 61.3042C124.766 61.4835 125.213 61.6629 125.659 61.8494C125.811 61.9113 125.812 61.9116 125.967 61.9758L125.969 61.9766C126.012 61.9945 126.055 62.0127 126.098 62.0311C126.146 62.0514 126.194 62.0718 126.244 62.0923C126.789 62.2919 127.297 62.3541 127.868 62.3627C128.007 62.3656 128.145 62.3685 128.288 62.3729C128.575 62.3786 128.861 62.383 129.148 62.3859C130.626 62.4293 131.983 62.8862 133.173 63.9274C133.398 64.2195 133.398 64.2195 133.55 64.5058C133.52 64.9931 133.476 65.1695 133.173 65.518C132.503 65.6004 131.822 65.5325 131.164 65.3734L131.164 65.3743C131.118 65.5563 131.117 65.5573 131.07 65.7414L131.07 65.7436C130.768 66.6994 130.487 67.2995 129.726 67.8201C129.371 67.9926 129.017 68.0737 128.644 68.159C128.595 68.1703 128.545 68.1816 128.495 68.1932C128.262 68.2511 128.147 68.2797 128.04 68.326C127.936 68.371 127.839 68.4328 127.648 68.5547C127.423 69.0362 127.333 69.4498 127.255 69.9877C127.119 70.5444 126.941 70.7136 126.518 71.0129C126.088 70.9898 125.945 70.932 125.639 70.5791C125.567 69.8778 125.684 69.5394 126.054 68.9885C126.39 68.4708 126.666 67.9864 126.894 67.3979C126.457 67.2316 126.094 67.1593 125.639 67.2532C125.355 67.5916 125.355 67.5916 125.097 68.0211C124.679 68.6226 124.436 68.88 123.77 69.0044C123.2 69.0724 122.627 69.0984 122.053 69.1186C121.65 69.1374 121.257 69.1953 120.859 69.269C120.749 69.2878 120.638 69.3066 120.525 69.3269C120.198 69.4353 119.995 69.6045 119.737 69.8561C119.75 70.2104 119.75 70.2104 119.862 70.5791C120.138 70.7483 120.138 70.7483 120.49 70.8683C121.174 71.227 121.49 71.5191 121.789 72.3202C121.894 72.6831 121.937 72.9492 121.871 73.3266C121.788 73.4715 121.749 73.5392 121.697 73.5953C121.652 73.6445 121.597 73.6848 121.495 73.7604C121.377 73.7604 121.315 73.7604 121.256 73.7457C121.189 73.7289 121.126 73.6929 120.992 73.6158C120.773 73.2456 120.773 73.2456 120.616 72.8928C120.308 73.0331 120.146 73.1184 119.977 73.4539L119.976 73.4555L119.93 73.5973L119.915 73.6418L119.87 73.7807C119.828 73.8992 119.787 74.0178 119.744 74.1407C119.728 74.1868 119.712 74.233 119.695 74.2795L119.654 74.3964L119.611 74.5196C119.258 75.4595 119.003 76.064 118.182 76.5079C118.058 76.5585 117.932 76.6091 117.803 76.6612C117.473 76.7986 117.322 76.9244 117.1 77.2309C117.139 77.3538 117.177 77.4753 117.218 77.6011C117.353 78.1058 117.422 78.5873 117.476 79.1108L117.225 79.2554C116.708 79.0414 116.283 78.7796 115.829 78.4239C115.633 78.2777 115.537 78.2061 115.429 78.1671C115.326 78.1297 115.212 78.1221 114.989 78.1072C114.86 78.1663 114.786 78.2003 114.716 78.2419C114.623 78.298 114.537 78.368 114.337 78.5324C114.29 79.1527 114.318 79.6603 114.463 80.2589C114.66 81.0976 114.739 81.9089 114.376 82.6984C113.792 83.6253 113.184 83.8639 112.246 84.075C111.839 84.182 111.607 84.276 111.321 84.6332C111.155 85.1798 111.194 85.4936 111.323 86.0518C111.498 86.3858 111.667 86.6765 111.873 86.983C112.492 87.962 112.976 88.8354 112.83 90.1007C112.58 90.6198 112.388 90.7919 111.92 91.0406C111.331 91.1317 110.941 91.0334 110.444 90.6791C109.196 89.489 108.318 87.8159 107.807 86.0518C107.585 85.9057 107.585 85.9057 107.305 85.7626L107.187 85.6679L106.943 85.4733C106.215 84.9369 105.522 84.7619 104.668 84.8949C104.133 85.0858 103.762 85.3461 103.388 85.8262C103.176 86.3063 103.016 86.7762 102.854 87.2809C102.579 88.1245 102.482 88.4231 102.306 88.6641C102.21 88.7961 102.09 88.9108 101.905 89.0885C101.466 89.1882 101.466 89.1882 101.026 89.0885C100.285 88.4869 100.118 87.6106 99.9462 86.6345C99.6511 85.0135 98.9428 84.2355 97.785 83.2985C97.7265 83.257 97.6678 83.2159 97.6089 83.1751L101.984 72.5989L88.0546 78.5284C87.9037 78.4617 87.7582 78.3676 87.5658 78.2157C87.0152 77.799 86.257 77.926 85.5875 78.0382C85.4554 78.0603 85.3267 78.0819 85.2038 78.0985C85.1627 78.0179 85.1212 77.9377 85.0794 77.8567C85.0433 77.7867 85.0069 77.7162 84.9702 77.6445C84.8672 77.4464 84.7643 77.2483 84.6625 77.0502C84.6212 76.9712 84.5807 76.8923 84.539 76.8111L84.5378 76.8087L84.5373 76.8078L84.5081 76.7508C84.1427 76.0177 84.1427 76.0177 83.6969 75.3511H83.3201C83.0577 75.8427 83.0464 76.2259 83.069 76.7971C83.0103 76.7722 82.9829 76.7606 82.9527 76.7476C82.9269 76.7365 82.8988 76.7243 82.8467 76.7017C82.0079 76.3734 81.1879 76.1565 80.3064 76.3633C79.8286 76.6682 79.4595 77.0551 79.0735 77.4941L81.6977 69.9905C81.7518 69.932 81.7912 69.8467 81.8622 69.6927C81.8873 69.6031 81.9125 69.5134 81.9388 69.4223L81.9241 69.411L81.917 69.4057L81.9052 69.397ZM66.5902 98.5544C67.2092 98.0695 67.7332 97.5485 68.134 96.8845L57.8216 101.248L57.8028 101.317C57.616 101.96 57.616 101.96 57.2535 103.32C56.7118 105.468 56.3757 107.967 57.3476 110.02C57.8718 110.883 58.5014 111.402 59.3943 111.596C59.4407 111.032 59.4269 110.784 59.151 110.303L58.8926 109.86C58.7334 109.252 58.7346 108.851 58.9478 108.277C58.9685 108.229 58.9892 108.183 59.0099 108.136L59.0103 108.135C59.1354 107.851 59.2605 107.568 59.3679 107.274C59.3867 107.221 59.4053 107.168 59.4237 107.116L59.425 107.112C59.7923 106.072 60.0953 105.214 61.0484 104.722C61.5801 104.483 61.8485 104.35 62.1219 103.764C62.3288 103.295 62.4831 103.109 62.8982 102.886C63.7522 102.508 64.2325 101.826 64.7291 100.977C65.2759 100.033 65.7863 99.2172 66.5902 98.5544ZM77.0777 83.2009L78.39 79.4486C78.9672 79.559 79.4425 79.503 80.0552 79.4C81.2519 79.225 81.9979 79.3884 82.9472 80.2127C83.086 80.3326 83.2261 80.4353 83.3677 80.5234L77.0777 83.2009Z" fill="#CBC5C5"/>
</svg>
