<svg width="164" height="124" viewBox="0 0 164 124" fill="none" xmlns="http://www.w3.org/2000/svg">
<path d="M0.663086 22C0.663086 9.84974 10.506 0 22.6479 0H141.566C153.708 0 163.551 9.84974 163.551 22V102C163.551 114.15 153.708 124 141.566 124H22.6479C10.506 124 0.663086 114.15 0.663086 102V22Z" fill="#C5A869"/>
<path fill-rule="evenodd" clip-rule="evenodd" d="M141.566 11H22.6479C16.577 11 11.6555 15.9249 11.6555 22V102C11.6555 108.075 16.577 113 22.6479 113H141.566C147.637 113 152.558 108.075 152.558 102V22C152.558 15.9249 147.637 11 141.566 11ZM22.6479 0C10.506 0 0.663086 9.84974 0.663086 22V102C0.663086 114.15 10.506 124 22.6479 124H141.566C153.708 124 163.551 114.15 163.551 102V22C163.551 9.84974 153.708 0 141.566 0H22.6479Z" fill="#A68C55"/>
<path d="M88.6363 15.7749L89.2397 30.1157L86.0718 27.2475L73.0983 64.0807L97.3858 53.8157L78.8308 98.3476L83.9598 97.8947L71.8914 107.858L74.1543 92.6113L76.5679 97.2909L87.4295 64.0807L60.1248 75.5533L83.3564 26.4927H78.3782L88.6363 15.7749Z" fill="black"/>
<path fill-rule="evenodd" clip-rule="evenodd" d="M89.994 32.427L90.5668 32.9455L90.4032 29.059H93.0111L94.3688 30.4176V32.6819H96.9333L98.8944 34.6443H103.571L109.303 40.3806H113.075V45.0603L110.359 47.7775V53.5138H117.449V56.9858L118.656 58.1934H123.635L126.953 54.8724L129.065 56.9858V67.4017L127.406 69.0622H124.841L123.635 67.8545H120.919V71.9303H122.729V76.459L120.617 78.5724L118.656 76.61V74.4966H116.243L114.583 76.1571H110.359L107.795 73.5909V70.8737H105.079V77.5157L99.347 83.252V90.045H95.123V85.3654L93.0111 83.252L94.3688 81.8934V81.2896H91.2008L88.4096 78.4965L99.6359 51.5537L75.1443 61.9049L84.3739 35.701H89.0889L86.0718 32.6819L87.882 30.8705L89.994 32.9838V32.427Z" fill="black"/>
<path d="M34.7812 75.8552L38.7035 71.9303V63.7787L43.5308 58.9482V55.9291L56.5043 42.9469L54.5432 40.9845L59.0688 36.4558H63.4436V38.8711H65.8573L70.0812 34.6443H73.5508V35.701H77.6606L57.6834 77.8888L85.4608 66.2175L82.7531 74.4966H82.3004V75.8808L82.0193 76.7403L72.7966 85.9692H60.7282L52.7329 77.9686V69.0622H44.8885L41.4188 72.5342L43.38 74.4966L38.4018 79.4781L34.7812 75.8552Z" fill="black"/>
</svg>
