<svg width="164" height="124" viewBox="0 0 164 124" fill="none" xmlns="http://www.w3.org/2000/svg">
<path d="M0.326172 22C0.326172 9.84974 10.1691 0 22.311 0H141.229C153.371 0 163.214 9.84974 163.214 22V102C163.214 114.15 153.371 124 141.229 124H22.311C10.1691 124 0.326172 114.15 0.326172 102V22Z" fill="#C5A869"/>
<path fill-rule="evenodd" clip-rule="evenodd" d="M141.229 11H22.311C16.2401 11 11.3186 15.9249 11.3186 22V102C11.3186 108.075 16.2401 113 22.311 113H141.229C147.3 113 152.221 108.075 152.221 102V22C152.221 15.9249 147.3 11 141.229 11ZM22.311 0C10.1691 0 0.326172 9.84974 0.326172 22V102C0.326172 114.15 10.1691 124 22.311 124H141.229C153.371 124 163.214 114.15 163.214 102V22C163.214 9.84974 153.371 0 141.229 0H22.311Z" fill="#A68C55"/>
<path d="M131.663 90.0641C131.663 93.5086 128.871 96.3008 125.427 96.3008C121.982 96.3008 119.19 93.5086 119.19 90.0641C119.19 86.6197 121.982 83.8275 125.427 83.8275C128.871 83.8275 131.663 86.6197 131.663 90.0641Z" fill="black"/>
<path fill-rule="evenodd" clip-rule="evenodd" d="M135.699 90.0641C135.699 95.7373 131.1 100.336 125.427 100.336C119.754 100.336 115.154 95.7373 115.154 90.0641C115.154 84.391 119.754 79.792 125.427 79.792C131.1 79.792 135.699 84.391 135.699 90.0641ZM125.427 98.1352C129.884 98.1352 133.498 94.5216 133.498 90.0641C133.498 85.6067 129.884 81.9931 125.427 81.9931C120.969 81.9931 117.356 85.6067 117.356 90.0641C117.356 94.5216 120.969 98.1352 125.427 98.1352Z" fill="black"/>
<path d="M105.616 90.0641C105.616 93.5086 102.824 96.3008 99.3793 96.3008C95.9349 96.3008 93.1427 93.5086 93.1427 90.0641C93.1427 86.6197 95.9349 83.8275 99.3793 83.8275C102.824 83.8275 105.616 86.6197 105.616 90.0641Z" fill="black"/>
<path fill-rule="evenodd" clip-rule="evenodd" d="M109.652 90.0641C109.652 95.7373 105.053 100.336 99.3793 100.336C93.7062 100.336 89.1071 95.7373 89.1071 90.0641C89.1071 84.391 93.7062 79.792 99.3793 79.792C105.053 79.792 109.652 84.391 109.652 90.0641ZM99.3793 98.1352C103.837 98.1352 107.45 94.5216 107.45 90.0641C107.45 85.6067 103.837 81.9931 99.3793 81.9931C94.9218 81.9931 91.3083 85.6067 91.3083 90.0641C91.3083 94.5216 94.9218 98.1352 99.3793 98.1352Z" fill="black"/>
<path d="M75.9 90.0641C75.9 93.5086 73.1078 96.3008 69.6634 96.3008C66.2189 96.3008 63.4267 93.5086 63.4267 90.0641C63.4267 86.6197 66.2189 83.8275 69.6634 83.8275C73.1078 83.8275 75.9 86.6197 75.9 90.0641Z" fill="black"/>
<path fill-rule="evenodd" clip-rule="evenodd" d="M79.9356 90.0641C79.9356 95.7373 75.3365 100.336 69.6634 100.336C63.9902 100.336 59.3912 95.7373 59.3912 90.0641C59.3912 84.391 63.9902 79.792 69.6634 79.792C75.3365 79.792 79.9356 84.391 79.9356 90.0641ZM69.6634 98.1352C74.1209 98.1352 77.7344 94.5216 77.7344 90.0641C77.7344 85.6067 74.1209 81.9931 69.6634 81.9931C65.2059 81.9931 61.5924 85.6067 61.5924 90.0641C61.5924 94.5216 65.2059 98.1352 69.6634 98.1352Z" fill="black"/>
<path d="M145.788 67.1352H19.403L43.0657 47.8748H86.3557L88.0983 42.1884H63.7935L65.4444 38.3363H89.2787L89.8409 36.502H109.652L111.119 47.8748H136.066L140.101 23.8452H141.752V47.8748L145.788 67.1352Z" fill="black"/>
<path d="M49.4858 90.0641C49.4858 93.5086 46.6936 96.3008 43.2492 96.3008C39.8047 96.3008 37.0125 93.5086 37.0125 90.0641C37.0125 86.6197 39.8047 83.8275 43.2492 83.8275C46.6936 83.8275 49.4858 86.6197 49.4858 90.0641Z" fill="black"/>
<path fill-rule="evenodd" clip-rule="evenodd" d="M53.5213 90.0641C53.5213 95.7373 48.9223 100.336 43.2492 100.336C37.576 100.336 32.977 95.7373 32.977 90.0641C32.977 84.391 37.576 79.792 43.2492 79.792C48.9223 79.792 53.5213 84.391 53.5213 90.0641ZM43.2492 98.1352C47.7067 98.1352 51.3202 94.5216 51.3202 90.0641C51.3202 85.6067 47.7067 81.9931 43.2492 81.9931C38.7917 81.9931 35.1782 85.6067 35.1782 90.0641C35.1782 94.5216 38.7917 98.1352 43.2492 98.1352Z" fill="black"/>
<path d="M145.788 69.5198H17.9355L31.226 88.6361C31.9326 82.6229 37.0461 77.9576 43.2492 77.9576C49.5017 77.9576 54.6472 82.6975 55.2884 88.7801H57.6241C58.2654 82.6975 63.4108 77.9576 69.6634 77.9576C75.9159 77.9576 81.0614 82.6975 81.7026 88.7801H87.3401C87.9813 82.6975 93.1268 77.9576 99.3793 77.9576C105.632 77.9576 110.777 82.6975 111.419 88.7801H113.387C114.029 82.6975 119.174 77.9576 125.427 77.9576C131.607 77.9576 136.706 82.5886 137.442 88.5698L145.788 69.5198Z" fill="black"/>
</svg>
