<svg width="164" height="168" viewBox="0 0 164 168" fill="none" xmlns="http://www.w3.org/2000/svg">
<path d="M78.0731 162.871C73.6499 162.674 70.1105 163.858 68.1442 165.238C66.1779 166.619 65.3914 168 64.2116 168C63.0318 168 60.2789 166.619 60.2789 165.436C60.8837 164.861 61.7589 164.338 62.8034 163.858C68.2119 161.374 78.1606 160.051 78.6135 158.729C78.4955 160.007 78.3167 161.36 78.0731 162.871Z" fill="#CBC5C5"/>
<path d="M78.6135 151.228C78.6146 151.242 78.6158 151.255 78.617 151.269C78.7346 152.937 75.2091 149.038 73.4533 145.907C71.6836 142.751 70.7004 144.724 68.5375 145.907C66.3745 147.091 63.8183 146.696 64.2116 148.077C64.6048 149.458 69.7173 149.852 70.7004 149.852C71.6836 149.852 75.4196 149.852 75.6163 151.036C75.8129 152.219 70.3072 153.206 69.324 153.206C68.3409 153.206 65.3914 151.825 63.425 150.247C61.4587 148.669 61.0654 145.513 61.0654 143.343C61.0654 141.173 61.0654 141.173 63.8183 141.173C66.3745 141.173 68.7341 138.411 71.8802 138.411C73.6499 140.581 77.1893 143.935 78.6135 151.228Z" fill="#CBC5C5"/>
<path d="M59.2957 143.343C59.2957 140.778 60.4755 141.962 60.4755 140.778C60.3445 140.252 59.689 139.003 58.116 138.214C56.1496 137.228 53.0035 135.847 53.79 139.792C54.4193 142.948 54.9698 144.395 55.1665 144.724C57.2136 145.773 58.372 146.515 60.4755 148.274C60.6722 145.907 59.2957 144.447 59.2957 143.343Z" fill="#CBC5C5"/>
<path d="M59.2957 148.471C56.5429 145.907 50.2506 143.343 45.1382 143.343C45.1382 144.329 44.7449 145.513 46.1214 146.499C47.4978 147.485 49.2675 146.302 51.4304 147.288C53.1608 148.077 54.6421 150.115 55.1665 151.036C56.0434 149.599 56.9755 149.046 59.2957 148.471Z" fill="#CBC5C5"/>
<path d="M49.2675 153.206C50.6832 152.732 51.0372 149.852 51.0372 148.471C48.2843 146.499 47.3011 150.247 39.4358 145.513C38.7427 146.941 38.7747 147.809 39.0426 151.228C40.3013 152.43 41.1198 153.014 42.9752 153.797C43.7212 149.23 44.9211 147.912 49.2675 149.063C48.0485 150.705 48.0147 151.564 49.2675 153.206Z" fill="#CBC5C5"/>
<path d="M61.852 162.082C61.852 161.096 59.689 158.729 58.9025 158.729C58.1159 158.729 55.953 162.871 52.6102 162.871C50.2465 162.871 46.5064 161.885 44.5183 159.912C44.0634 157.465 44.0382 155.77 44.2781 154.587C44.6761 152.624 45.8037 152.071 46.9079 151.825C46.9079 153.403 49.6607 155.178 51.4304 155.178C53.9867 155.178 57.5261 149.852 58.5092 149.852C59.4924 149.852 62.4419 152.022 63.0318 155.178C67.751 155.376 74.2398 153.206 78.7539 153.403C78.7867 154.203 78.7962 154.985 78.7813 155.77C73.8466 156.165 64.8015 162.674 61.852 162.082Z" fill="#CBC5C5"/>
<path d="M50.6439 142.751C50.3293 141.489 50.7094 140.515 51.0372 140.187C47.6965 132.94 44.671 130.03 38.8459 125.392C38.012 132.222 39.1934 135.552 46.5146 142.554L50.6439 142.751Z" fill="#CBC5C5"/>
<path d="M32.3571 143.343C32.3571 143.996 32.8853 144.526 33.5369 144.526C34.1884 144.526 34.7167 143.996 34.7167 143.343C34.7167 142.689 34.1884 142.159 33.5369 142.159C32.8853 142.159 32.3571 142.689 32.3571 143.343Z" fill="#CBC5C5"/>
<path d="M35.1099 129.337C35.1099 129.991 35.6381 130.521 36.2897 130.521C36.9413 130.521 37.4695 129.991 37.4695 129.337C37.4695 128.684 36.9413 128.154 36.2897 128.154C35.6381 128.154 35.1099 128.684 35.1099 129.337Z" fill="#CBC5C5"/>
<path d="M21.5423 112.965C21.5423 113.619 22.0705 114.149 22.722 114.149C23.3736 114.149 23.9018 113.619 23.9018 112.965C23.9018 112.311 23.3736 111.782 22.722 111.782C22.0705 111.782 21.5423 112.311 21.5423 112.965Z" fill="#CBC5C5"/>
<path d="M5.22173 102.905C5.22173 103.559 5.74995 104.088 6.40153 104.088C7.05311 104.088 7.58133 103.559 7.58133 102.905C7.58133 102.251 7.05311 101.721 6.40153 101.721C5.74995 101.721 5.22173 102.251 5.22173 102.905Z" fill="#CBC5C5"/>
<path d="M14.8567 97.7762C14.8567 98.4299 15.385 98.9598 16.0365 98.9598C16.6881 98.9598 17.2163 98.4299 17.2163 97.7762C17.2163 97.1225 16.6881 96.5927 16.0365 96.5927C15.385 96.5927 14.8567 97.1225 14.8567 97.7762Z" fill="#CBC5C5"/>
<path d="M13.2837 82.9819C13.2837 83.6355 13.8119 84.1654 14.4635 84.1654C15.1151 84.1654 15.6433 83.6355 15.6433 82.9819C15.6433 82.3282 15.1151 81.7983 14.4635 81.7983C13.8119 81.7983 13.2837 82.3282 13.2837 82.9819Z" fill="#CBC5C5"/>
<path d="M9.15439 60.0999C9.15439 60.7536 9.6826 61.2835 10.3342 61.2835C10.9858 61.2835 11.514 60.7536 11.514 60.0999C11.514 59.4463 10.9858 58.9164 10.3342 58.9164C9.6826 58.9164 9.15439 59.4463 9.15439 60.0999Z" fill="#CBC5C5"/>
<path d="M18.1995 64.0451C18.1995 64.6988 18.7277 65.2287 19.3793 65.2287C20.0309 65.2287 20.5591 64.6988 20.5591 64.0451C20.5591 63.3914 20.0309 62.8616 19.3793 62.8616C18.7277 62.8616 18.1995 63.3914 18.1995 64.0451Z" fill="#CBC5C5"/>
<path d="M13.087 46.4892C13.087 47.1428 13.6153 47.6727 14.2668 47.6727C14.9184 47.6727 15.4466 47.1428 15.4466 46.4892C15.4466 45.8355 14.9184 45.3056 14.2668 45.3056C13.6153 45.3056 13.087 45.8355 13.087 46.4892Z" fill="#CBC5C5"/>
<path d="M21.149 40.9659C21.149 41.6196 21.6772 42.1495 22.3288 42.1495C22.9804 42.1495 23.5086 41.6196 23.5086 40.9659C23.5086 40.3123 22.9804 39.7824 22.3288 39.7824C21.6772 39.7824 21.149 40.3123 21.149 40.9659Z" fill="#CBC5C5"/>
<path d="M34.7167 36.8235C34.7167 37.4772 35.2449 38.0071 35.8964 38.0071C36.548 38.0071 37.0762 37.4772 37.0762 36.8235C37.0762 36.1699 36.548 35.64 35.8964 35.64C35.2449 35.64 34.7167 36.1699 34.7167 36.8235Z" fill="#CBC5C5"/>
<path d="M48.6776 21.2401C48.6776 21.8938 49.2058 22.4237 49.8574 22.4237C50.509 22.4237 51.0372 21.8938 51.0372 21.2401C51.0372 20.5865 50.509 20.0566 49.8574 20.0566C49.2058 20.0566 48.6776 20.5865 48.6776 21.2401Z" fill="#CBC5C5"/>
<path d="M39.4358 14.3361C39.4358 14.9898 39.9641 15.5197 40.6156 15.5197C41.2672 15.5197 41.7954 14.9898 41.7954 14.3361C41.7954 13.6825 41.2672 13.1526 40.6156 13.1526C39.9641 13.1526 39.4358 13.6825 39.4358 14.3361Z" fill="#CBC5C5"/>
<path d="M64.4082 13.1526C64.4082 13.8062 64.9364 14.3361 65.588 14.3361C66.2396 14.3361 66.7678 13.8062 66.7678 13.1526C66.7678 12.4989 66.2396 11.969 65.588 11.969C64.9364 11.969 64.4082 12.4989 64.4082 13.1526Z" fill="#CBC5C5"/>
<path d="M63.6217 3.68419C63.6217 4.33785 64.1499 4.86774 64.8015 4.86774C65.453 4.86774 65.9813 4.33785 65.9813 3.68419C65.9813 3.03054 65.453 2.50065 64.8015 2.50065C64.1499 2.50065 63.6217 3.03054 63.6217 3.68419Z" fill="#CBC5C5"/>
<path d="M43.9584 142.159C43.6962 142.883 43.3292 144.566 43.9584 145.513C37.2692 144.273 26.3325 134.609 27.048 127.365C33.1524 129.111 36.7915 132.207 43.9584 142.159Z" fill="#CBC5C5"/>
<path d="M36.2897 125.984C35.8964 120.264 27.8345 109.809 26.2614 110.598C24.6884 111.387 25.4749 125.59 31.9638 128.351C32.4357 127.247 35.0444 126.313 36.2897 125.984Z" fill="#CBC5C5"/>
<path d="M31.7672 140.384C28.621 137.031 22.9187 133.677 17.6096 134.466C18.986 139.792 27.2446 142.948 30.5874 144.526C30.1941 143.343 30.784 140.976 31.7672 140.384Z" fill="#CBC5C5"/>
<path d="M37.4695 149.852C36.8796 148.077 37.8628 146.302 37.2729 146.104C36.801 145.947 33.9301 145.776 32.5537 145.71C33.8912 147.434 34.934 148.353 37.4695 149.852Z" fill="#CBC5C5"/>
<path d="M27.048 125.984C26.2614 121.842 19.9692 111.584 17.2163 112.571C14.4635 113.557 18.1995 128.746 25.8682 132.494C23.9018 128.351 25.0323 125.984 27.048 125.984Z" fill="#CBC5C5"/>
<path d="M24.885 110.203C24.4917 104.483 25.4749 101.919 23.5086 97.7762C21.5423 93.6338 20.9524 94.0283 20.1658 94.2256C19.3793 94.4228 17.413 100.341 18.1995 104.68C18.8287 108.152 19.7726 111.387 20.1658 112.571C20.4935 111.847 21.3849 110.282 22.3288 109.809C23.2726 109.336 24.4262 109.875 24.885 110.203Z" fill="#CBC5C5"/>
<path d="M18.1995 111.782C18.0231 102.905 12.1039 94.8371 10.3342 95.0146C6.40153 95.4091 9.54766 113.754 14.8567 116.121C14.8567 111.782 16.0365 110.203 18.1995 111.782Z" fill="#CBC5C5"/>
<path d="M23.9018 133.085C18.0029 129.337 19.1827 126.576 15.6433 123.222C12.8118 120.54 9.08885 119.475 7.58133 119.277C10.5858 127.891 13.8757 131.19 23.9018 133.085Z" fill="#CBC5C5"/>
<path d="M14.0702 119.869C12.8904 114.442 4.82847 102.905 2.46888 104.088C2.46888 106.653 6.69021 113.754 7.58133 117.699C10.5701 118.015 13.1526 119.277 14.0702 119.869Z" fill="#CBC5C5"/>
<path d="M21.9355 80.2203C18.1995 81.7983 13.2837 87.5188 14.4635 95.8036C15.7219 94.2256 17.0852 94.6201 17.6096 95.0146C18.2521 93.2603 18.7675 92.6724 20.1658 92.8448C22.4296 87.8957 22.5626 85.1346 21.9355 80.2203Z" fill="#CBC5C5"/>
<path d="M9.54766 73.7107C6.99143 76.2751 4.45823 87.1285 7.58133 96.5927C9.72568 93.3904 10.7617 93.9851 12.6938 93.831C13.2102 90.8812 13.3325 87.8919 13.1894 85.1517C12.8931 84.8229 12.2612 83.9287 12.1039 82.9819C11.9466 82.035 12.4698 81.2723 12.751 81.0093C12.061 76.7859 10.7571 73.8226 9.54766 73.7107Z" fill="#CBC5C5"/>
<path d="M1.48571 87.1243C1.48571 92.8448 2.40738 95.8816 2.46888 102.313C3.05877 103.694 5.22173 103.497 4.82847 99.5515C5.10969 100.492 6.91339 101.396 6.59816 96.7899C6.28294 92.1842 1.48571 87.1243 1.48571 87.1243Z" fill="#CBC5C5"/>
<path d="M24.0985 65.8204C23.9243 73.0156 22.2575 75.8925 18.1995 80.2203C17.2443 78.3103 15.4466 81.0093 13.6769 79.234C17.6096 72.1327 16.0365 69.9628 19.3793 67.793C21.2517 66.3731 22.2754 66.1477 24.0985 65.8204Z" fill="#CBC5C5"/>
<path d="M15.4466 57.3383C9.54766 63.4533 6.16697 67.3427 7.58133 75.2888C9.60138 71.1041 10.8793 72.1341 13.2837 77.0641C16.8353 69.2726 17.6376 64.948 15.4466 57.3383Z" fill="#CBC5C5"/>
<path d="M4.82847 89.0969C5.51483 83.1491 5.81163 80.2203 5.22173 77.0641C4.31082 74.8731 3.38585 73.8268 0.895813 72.3299C-0.0534485 77.4953 0.0247877 80.3813 0.895813 85.5462C3.11674 86.2633 3.77467 87.2364 4.82847 89.0969Z" fill="#CBC5C5"/>
<path d="M6.00827 75.2888C5.22173 68.7793 7.97459 65.2287 7.97459 61.2835C7.97459 57.3383 5.22173 54.9712 5.22173 54.9712C3.44417 62.0223 3.19229 65.7562 3.05877 72.3299C4.2382 72.774 4.88928 73.4615 6.00827 75.2888Z" fill="#CBC5C5"/>
<path d="M29.6042 51.8151C27.9116 57.2269 26.4697 59.9237 22.3288 63.6506C21.7618 62.0294 21.3619 61.6046 20.5591 61.2835C21.9244 58.5754 22.1389 57.0644 22.3288 54.3795C26.4686 51.6044 27.5954 51.6782 29.6042 51.8151Z" fill="#CBC5C5"/>
<path d="M18.7894 60.0999C16.2296 55.3277 15.0486 55.1625 13.1894 57.3383C13.284 53.2658 13.9561 51.5823 15.4466 48.8563C16.8322 48.6541 17.0824 47.8016 17.2163 46.4892C19.3435 44.2557 20.4379 43.7567 22.3288 43.333C22.2103 50.4158 21.6365 54.1738 18.7894 60.0999Z" fill="#CBC5C5"/>
<path d="M11.514 44.1221C8.7248 46.5605 7.59621 48.6122 6.7948 54.1822C7.55108 54.8299 7.92507 55.7449 8.56449 57.7328C9.46117 56.7355 9.97931 56.5943 10.9241 56.9438C12.8412 52.038 12.8438 49.2322 11.514 44.1221Z" fill="#CBC5C5"/>
<path d="M22.9187 52.4069C24.0685 44.756 29.6042 38.9934 34.7167 38.9934C36.683 38.9934 37.7972 37.0208 38.4527 38.0071C38.8042 38.536 36.1355 42.9503 32.3571 46.6864C29.0904 49.9165 24.8333 52.5898 22.9187 52.4069Z" fill="#CBC5C5"/>
<path d="M35.1099 26.5661C28.1539 28.2405 25.1191 30.3062 22.3288 37.4153C24.3655 39.2253 25.896 39.9846 23.5086 44.7138C31.7167 38.2421 33.7951 34.1954 35.1099 26.5661Z" fill="#CBC5C5"/>
<path d="M21.149 29.1305C16.3528 33.587 14.4625 36.5575 12.3005 42.544C12.2981 43.5088 12.3586 43.9981 12.8904 44.5166C13.7798 43.9986 14.5146 43.8603 16.6264 44.1221C20.7024 38.0764 21.432 34.8154 21.149 29.1305Z" fill="#CBC5C5"/>
<path d="M47.891 17.295C39.0049 17.7883 35.1125 19.7904 30.1941 26.5661C35.8629 24.4314 37.2097 24.8229 36.2897 29.1305C42.8893 25.259 45.0435 22.5242 47.891 17.295Z" fill="#CBC5C5"/>
<path d="M38.256 14.1389C37.8628 17.6895 28.8177 24.5935 22.1322 34.2592C24.4917 27.3551 25.2928 26.0202 22.3288 27.9469C27.8251 18.9581 31.3645 16.1937 38.256 14.1389Z" fill="#CBC5C5"/>
<path d="M51.0372 25.9743C49.6348 24.4224 48.6798 23.8281 45.7281 24.199C41.9632 27.5208 39.9274 28.6647 36.4534 30.6165L36.2897 30.7085C35.6728 31.5434 35.3915 32.3077 35.1099 33.6674C40.5877 33.6789 44.1016 31.9484 51.0372 25.9743Z" fill="#CBC5C5"/>
<path d="M57.9193 17.295C54.1833 18.8731 49.2675 18.2813 49.2675 18.2813C49.1337 15.3616 47.5266 15.7372 45.3348 15.5197C52.5878 9.82028 56.9024 8.43689 65.1947 10.3707C61.2621 11.969 63.6217 14.8864 57.9193 17.295Z" fill="#CBC5C5"/>
<path d="M51.2338 23.2127C58.5681 23.14 61.8033 21.9805 66.7678 18.8731C65.8834 16.5173 64.9697 15.9991 62.2452 15.7169C59.7528 19.0471 57.4924 20.0676 52.6102 21.0429C52.42 22.0914 52.1532 22.6556 51.2338 23.2127Z" fill="#CBC5C5"/>
<path d="M62.2452 2.89516C61.6443 5.76179 60.9137 7.22155 56.9362 8.8129C53.4394 9.6234 52.3286 9.01722 44.7449 14.9279C44.11 15.3274 43.7653 15.4586 43.1719 15.5197C43.2605 13.868 43.1086 13.0898 42.582 11.969C49.31 6.06275 53.7906 4.51149 62.2452 2.89516Z" fill="#CBC5C5"/>
<path d="M80.7287 15.5197C80.202 14.0209 79.5809 13.3457 77.9759 12.3635C76.0685 13.445 74.0976 13.6784 69.1274 13.5471C67.8648 14.2065 67.3191 14.6289 66.7678 15.5197C71.6621 17.598 74.7412 17.591 80.7287 15.5197Z" fill="#CBC5C5"/>
<path d="M80.7287 0.133552C79.7958 1.60732 79.1114 2.43004 77.386 3.88145C73.1531 3.61194 70.9417 3.90341 67.1611 4.86774C67.3653 3.94535 67.3136 3.42357 67.1611 2.50065C73.2549 0.082413 76.131 -0.247386 80.7287 0.133552Z" fill="#CBC5C5"/>
<path d="M85.3527 162.871C89.7758 162.674 93.3152 163.858 95.2816 165.238C97.2479 166.619 98.0344 168 99.2142 168C100.394 168 103.147 166.619 103.147 165.436C102.542 164.861 101.667 164.338 100.622 163.858C95.2139 161.374 85.2652 160.051 84.8123 158.729C84.9303 160.007 85.1091 161.36 85.3527 162.871Z" fill="#CBC5C5"/>
<path d="M84.8123 151.228C84.8111 151.242 84.81 151.255 84.8088 151.269C84.6912 152.937 88.2167 149.038 89.9725 145.907C91.7422 142.751 92.7253 144.724 94.8883 145.907C97.0513 147.091 99.6075 146.696 99.2142 148.077C98.821 149.458 93.7085 149.852 92.7253 149.852C91.7422 149.852 88.0061 149.852 87.8095 151.036C87.6129 152.219 93.1186 153.206 94.1018 153.206C95.0849 153.206 98.0344 151.825 100.001 150.247C101.967 148.669 102.36 145.513 102.36 143.343C102.36 141.173 102.36 141.173 99.6075 141.173C97.0513 141.173 94.6917 138.411 91.5455 138.411C89.7758 140.581 86.2365 143.935 84.8123 151.228Z" fill="#CBC5C5"/>
<path d="M104.13 143.343C104.13 140.778 102.95 141.962 102.95 140.778C103.081 140.252 103.737 139.003 105.31 138.214C107.276 137.228 110.422 135.847 109.636 139.792C109.007 142.948 108.456 144.395 108.259 144.724C106.212 145.773 105.054 146.515 102.95 148.274C102.754 145.907 104.13 144.447 104.13 143.343Z" fill="#CBC5C5"/>
<path d="M104.13 148.471C106.883 145.907 113.175 143.343 118.288 143.343C118.288 144.329 118.681 145.513 117.304 146.499C115.928 147.485 114.158 146.302 111.995 147.288C110.265 148.077 108.784 150.115 108.259 151.036C107.382 149.599 106.45 149.046 104.13 148.471Z" fill="#CBC5C5"/>
<path d="M114.158 153.206C112.743 152.732 112.389 149.852 112.389 148.471C115.141 146.499 116.125 150.247 123.99 145.513C124.683 146.941 124.651 147.809 124.383 151.228C123.124 152.43 122.306 153.014 120.451 153.797C119.705 149.23 118.505 147.912 114.158 149.063C115.377 150.705 115.411 151.564 114.158 153.206Z" fill="#CBC5C5"/>
<path d="M101.574 162.082C101.574 161.096 103.737 158.729 104.523 158.729C105.31 158.729 107.473 162.871 110.816 162.871C113.179 162.871 116.919 161.885 118.907 159.912C119.362 157.465 119.388 155.77 119.148 154.587C118.75 152.624 117.622 152.071 116.518 151.825C116.518 153.403 113.765 155.178 111.995 155.178C109.439 155.178 105.9 149.852 104.917 149.852C103.933 149.852 100.984 152.022 100.394 155.178C95.6748 155.376 89.1859 153.206 84.6719 153.403C84.639 154.203 84.6296 154.985 84.6445 155.77C89.5792 156.165 98.6243 162.674 101.574 162.082Z" fill="#CBC5C5"/>
<path d="M112.782 142.751C113.096 141.489 112.716 140.515 112.389 140.187C115.729 132.94 118.755 130.03 124.58 125.392C125.414 132.222 124.232 135.552 116.911 142.554L112.782 142.751Z" fill="#CBC5C5"/>
<path d="M131.069 143.343C131.069 143.996 130.541 144.526 129.889 144.526C129.237 144.526 128.709 143.996 128.709 143.343C128.709 142.689 129.237 142.159 129.889 142.159C130.541 142.159 131.069 142.689 131.069 143.343Z" fill="#CBC5C5"/>
<path d="M128.316 129.337C128.316 129.991 127.788 130.521 127.136 130.521C126.484 130.521 125.956 129.991 125.956 129.337C125.956 128.684 126.484 128.154 127.136 128.154C127.788 128.154 128.316 128.684 128.316 129.337Z" fill="#CBC5C5"/>
<path d="M141.884 112.965C141.884 113.619 141.355 114.149 140.704 114.149C140.052 114.149 139.524 113.619 139.524 112.965C139.524 112.311 140.052 111.782 140.704 111.782C141.355 111.782 141.884 112.311 141.884 112.965Z" fill="#CBC5C5"/>
<path d="M158.204 102.905C158.204 103.559 157.676 104.088 157.024 104.088C156.373 104.088 155.844 103.559 155.844 102.905C155.844 102.251 156.373 101.721 157.024 101.721C157.676 101.721 158.204 102.251 158.204 102.905Z" fill="#CBC5C5"/>
<path d="M148.569 97.7762C148.569 98.4299 148.041 98.9598 147.389 98.9598C146.738 98.9598 146.209 98.4299 146.209 97.7762C146.209 97.1225 146.738 96.5927 147.389 96.5927C148.041 96.5927 148.569 97.1225 148.569 97.7762Z" fill="#CBC5C5"/>
<path d="M150.142 82.9819C150.142 83.6355 149.614 84.1654 148.962 84.1654C148.311 84.1654 147.783 83.6355 147.783 82.9819C147.783 82.3282 148.311 81.7983 148.962 81.7983C149.614 81.7983 150.142 82.3282 150.142 82.9819Z" fill="#CBC5C5"/>
<path d="M154.271 60.0999C154.271 60.7536 153.743 61.2835 153.092 61.2835C152.44 61.2835 151.912 60.7536 151.912 60.0999C151.912 59.4463 152.44 58.9164 153.092 58.9164C153.743 58.9164 154.271 59.4463 154.271 60.0999Z" fill="#CBC5C5"/>
<path d="M145.226 64.0451C145.226 64.6988 144.698 65.2287 144.046 65.2287C143.395 65.2287 142.867 64.6988 142.867 64.0451C142.867 63.3914 143.395 62.8616 144.046 62.8616C144.698 62.8616 145.226 63.3914 145.226 64.0451Z" fill="#CBC5C5"/>
<path d="M150.339 46.4892C150.339 47.1428 149.811 47.6727 149.159 47.6727C148.507 47.6727 147.979 47.1428 147.979 46.4892C147.979 45.8355 148.507 45.3056 149.159 45.3056C149.811 45.3056 150.339 45.8355 150.339 46.4892Z" fill="#CBC5C5"/>
<path d="M142.277 40.9659C142.277 41.6196 141.749 42.1495 141.097 42.1495C140.445 42.1495 139.917 41.6196 139.917 40.9659C139.917 40.3123 140.445 39.7824 141.097 39.7824C141.749 39.7824 142.277 40.3123 142.277 40.9659Z" fill="#CBC5C5"/>
<path d="M128.709 36.8235C128.709 37.4772 128.181 38.0071 127.529 38.0071C126.878 38.0071 126.35 37.4772 126.35 36.8235C126.35 36.1699 126.878 35.64 127.529 35.64C128.181 35.64 128.709 36.1699 128.709 36.8235Z" fill="#CBC5C5"/>
<path d="M114.748 21.2401C114.748 21.8938 114.22 22.4237 113.568 22.4237C112.917 22.4237 112.389 21.8938 112.389 21.2401C112.389 20.5865 112.917 20.0566 113.568 20.0566C114.22 20.0566 114.748 20.5865 114.748 21.2401Z" fill="#CBC5C5"/>
<path d="M123.99 14.3361C123.99 14.9898 123.462 15.5197 122.81 15.5197C122.159 15.5197 121.63 14.9898 121.63 14.3361C121.63 13.6825 122.159 13.1526 122.81 13.1526C123.462 13.1526 123.99 13.6825 123.99 14.3361Z" fill="#CBC5C5"/>
<path d="M99.0176 13.1526C99.0176 13.8062 98.4894 14.3361 97.8378 14.3361C97.1862 14.3361 96.658 13.8062 96.658 13.1526C96.658 12.4989 97.1862 11.969 97.8378 11.969C98.4894 11.969 99.0176 12.4989 99.0176 13.1526Z" fill="#CBC5C5"/>
<path d="M99.8041 3.68419C99.8041 4.33785 99.2759 4.86774 98.6243 4.86774C97.9727 4.86774 97.4445 4.33785 97.4445 3.68419C97.4445 3.03054 97.9727 2.50065 98.6243 2.50065C99.2759 2.50065 99.8041 3.03054 99.8041 3.68419Z" fill="#CBC5C5"/>
<path d="M119.467 142.159C119.73 142.883 120.097 144.566 119.467 145.513C126.157 144.273 137.093 134.609 136.378 127.365C130.273 129.111 126.634 132.207 119.467 142.159Z" fill="#CBC5C5"/>
<path d="M127.136 125.984C127.529 120.264 135.591 109.809 137.164 110.598C138.737 111.387 137.951 125.59 131.462 128.351C130.99 127.247 128.381 126.313 127.136 125.984Z" fill="#CBC5C5"/>
<path d="M131.659 140.384C134.805 137.031 140.507 133.677 145.816 134.466C144.44 139.792 136.181 142.948 132.838 144.526C133.232 143.343 132.642 140.976 131.659 140.384Z" fill="#CBC5C5"/>
<path d="M125.956 149.852C126.546 148.077 125.563 146.302 126.153 146.104C126.625 145.947 129.496 145.776 130.872 145.71C129.535 147.434 128.492 148.353 125.956 149.852Z" fill="#CBC5C5"/>
<path d="M136.378 125.984C137.164 121.842 143.457 111.584 146.209 112.571C148.962 113.557 145.226 128.746 137.558 132.494C139.524 128.351 138.393 125.984 136.378 125.984Z" fill="#CBC5C5"/>
<path d="M138.541 110.203C138.934 104.483 137.951 101.919 139.917 97.7762C141.884 93.6338 142.473 94.0283 143.26 94.2256C144.046 94.4228 146.013 100.341 145.226 104.68C144.597 108.152 143.653 111.387 143.26 112.571C142.932 111.847 142.041 110.282 141.097 109.809C140.153 109.336 139 109.875 138.541 110.203Z" fill="#CBC5C5"/>
<path d="M145.226 111.782C145.403 102.905 151.322 94.8371 153.092 95.0146C157.024 95.4091 153.878 113.754 148.569 116.121C148.569 111.782 147.389 110.203 145.226 111.782Z" fill="#CBC5C5"/>
<path d="M139.524 133.085C145.423 129.337 144.243 126.576 147.783 123.222C150.614 120.54 154.337 119.475 155.844 119.277C152.84 127.891 149.55 131.19 139.524 133.085Z" fill="#CBC5C5"/>
<path d="M149.356 119.869C150.535 114.442 158.597 102.905 160.957 104.088C160.957 106.653 156.736 113.754 155.844 117.699C152.856 118.015 150.273 119.277 149.356 119.869Z" fill="#CBC5C5"/>
<path d="M141.49 80.2203C145.226 81.7983 150.142 87.5188 148.962 95.8036C147.704 94.2256 146.341 94.6201 145.816 95.0146C145.174 93.2603 144.658 92.6724 143.26 92.8448C140.996 87.8957 140.863 85.1346 141.49 80.2203Z" fill="#CBC5C5"/>
<path d="M153.878 73.7107C156.434 76.2751 158.968 87.1285 155.844 96.5927C153.7 93.3904 152.664 93.9851 150.732 93.831C150.216 90.8812 150.093 87.8919 150.236 85.1517C150.533 84.8229 151.165 83.9287 151.322 82.9819C151.479 82.035 150.956 81.2723 150.675 81.0093C151.365 76.7859 152.669 73.8226 153.878 73.7107Z" fill="#CBC5C5"/>
<path d="M161.94 87.1243C161.94 92.8448 161.018 95.8816 160.957 102.313C160.367 103.694 158.204 103.497 158.597 99.5515C158.316 100.492 156.512 101.396 156.828 96.7899C157.143 92.1842 161.94 87.1243 161.94 87.1243Z" fill="#CBC5C5"/>
<path d="M139.327 65.8204C139.502 73.0156 141.168 75.8925 145.226 80.2203C146.181 78.3103 147.979 81.0093 149.749 79.234C145.816 72.1327 147.389 69.9628 144.046 67.793C142.174 66.3731 141.15 66.1477 139.327 65.8204Z" fill="#CBC5C5"/>
<path d="M147.979 57.3383C153.878 63.4533 157.259 67.3427 155.844 75.2888C153.824 71.1041 152.547 72.1341 150.142 77.0641C146.59 69.2726 145.788 64.948 147.979 57.3383Z" fill="#CBC5C5"/>
<path d="M158.597 89.0969C157.911 83.1491 157.614 80.2203 158.204 77.0641C159.115 74.8731 160.04 73.8268 162.53 72.3299C163.479 77.4953 163.401 80.3813 162.53 85.5462C160.309 86.2633 159.651 87.2364 158.597 89.0969Z" fill="#CBC5C5"/>
<path d="M157.418 75.2888C158.204 68.7793 155.451 65.2287 155.451 61.2835C155.451 57.3383 158.204 54.9712 158.204 54.9712C159.982 62.0223 160.233 65.7562 160.367 72.3299C159.188 72.774 158.537 73.4615 157.418 75.2888Z" fill="#CBC5C5"/>
<path d="M133.822 51.8151C135.514 57.2269 136.956 59.9237 141.097 63.6506C141.664 62.0294 142.064 61.6046 142.867 61.2835C141.501 58.5754 141.287 57.0644 141.097 54.3795C136.957 51.6044 135.83 51.6782 133.822 51.8151Z" fill="#CBC5C5"/>
<path d="M144.636 60.0999C147.196 55.3277 148.377 55.1625 150.236 57.3383C150.142 53.2658 149.47 51.5823 147.979 48.8563C146.594 48.6541 146.343 47.8016 146.209 46.4892C144.082 44.2557 142.988 43.7567 141.097 43.333C141.215 50.4158 141.789 54.1738 144.636 60.0999Z" fill="#CBC5C5"/>
<path d="M151.912 44.1221C154.701 46.5605 155.83 48.6122 156.631 54.1822C155.875 54.8299 155.501 55.7449 154.861 57.7328C153.965 56.7355 153.446 56.5943 152.502 56.9438C150.585 52.038 150.582 49.2322 151.912 44.1221Z" fill="#CBC5C5"/>
<path d="M140.507 52.4069C139.357 44.756 133.822 38.9934 128.709 38.9934C126.743 38.9934 125.629 37.0208 124.973 38.0071C124.622 38.536 127.29 42.9503 131.069 46.6864C134.335 49.9165 138.592 52.5898 140.507 52.4069Z" fill="#CBC5C5"/>
<path d="M128.316 26.5661C135.272 28.2405 138.307 30.3062 141.097 37.4153C139.06 39.2253 137.53 39.9846 139.917 44.7138C131.709 38.2421 129.631 34.1954 128.316 26.5661Z" fill="#CBC5C5"/>
<path d="M142.277 29.1305C147.073 33.587 148.963 36.5575 151.125 42.544C151.128 43.5088 151.067 43.9981 150.535 44.5166C149.646 43.9986 148.911 43.8603 146.799 44.1221C142.723 38.0764 141.994 34.8154 142.277 29.1305Z" fill="#CBC5C5"/>
<path d="M115.535 17.295C124.421 17.7883 128.313 19.7904 133.232 26.5661C127.563 24.4314 126.216 24.8229 127.136 29.1305C120.536 25.259 118.382 22.5242 115.535 17.295Z" fill="#CBC5C5"/>
<path d="M125.17 14.1389C125.563 17.6895 134.608 24.5935 141.294 34.2592C138.934 27.3551 138.133 26.0202 141.097 27.9469C135.601 18.9581 132.061 16.1937 125.17 14.1389Z" fill="#CBC5C5"/>
<path d="M112.389 25.9743C113.791 24.4224 114.746 23.8281 117.698 24.199C121.463 27.5208 123.498 28.6647 126.972 30.6165L127.136 30.7085C127.753 31.5434 128.034 32.3077 128.316 33.6674C122.838 33.6789 119.324 31.9484 112.389 25.9743Z" fill="#CBC5C5"/>
<path d="M105.506 17.295C109.242 18.8731 114.158 18.2813 114.158 18.2813C114.292 15.3616 115.899 15.7372 118.091 15.5197C110.838 9.82028 106.523 8.43689 98.231 10.3707C102.164 11.969 99.8041 14.8864 105.506 17.295Z" fill="#CBC5C5"/>
<path d="M112.192 23.2127C104.858 23.14 101.623 21.9805 96.658 18.8731C97.5424 16.5173 98.4561 15.9991 101.181 15.7169C103.673 19.0471 105.933 20.0676 110.816 21.0429C111.006 22.0914 111.273 22.6556 112.192 23.2127Z" fill="#CBC5C5"/>
<path d="M101.181 2.89516C101.782 5.76179 102.512 7.22155 106.49 8.8129C109.986 9.6234 111.097 9.01722 118.681 14.9279C119.316 15.3274 119.66 15.4586 120.254 15.5197C120.165 13.868 120.317 13.0898 120.844 11.969C114.116 6.06275 109.635 4.51149 101.181 2.89516Z" fill="#CBC5C5"/>
<path d="M82.6971 15.5197C83.2238 14.0209 83.8449 13.3457 85.4499 12.3635C87.3573 13.445 89.3281 13.6784 94.2984 13.5471C95.561 14.2065 96.1067 14.6289 96.658 15.5197C91.7637 17.598 88.6846 17.591 82.6971 15.5197Z" fill="#CBC5C5"/>
<path d="M82.6971 0.133552C83.63 1.60732 84.3144 2.43004 86.0398 3.88145C90.2727 3.61194 92.4841 3.90341 96.2647 4.86774C96.0605 3.94535 96.1122 3.42357 96.2647 2.50065C90.1709 0.082413 87.2948 -0.247386 82.6971 0.133552Z" fill="#CBC5C5"/>
<path d="M77.9759 163.463C77.9759 163.463 79.9432 163.858 81.7129 163.858C83.4826 163.858 85.4499 163.463 85.4499 163.463C85.4164 163.263 85.384 163.066 85.3527 162.871C85.1091 161.36 84.9303 160.007 84.8123 158.729C84.7181 157.709 84.6628 156.737 84.6445 155.77C84.6296 154.985 84.639 154.203 84.6719 153.403C84.7003 152.711 84.7461 152.004 84.8088 151.269L84.8123 151.228C84.9489 149.64 85.1636 147.915 85.4499 145.907C85.4499 145.907 83.6792 145.513 81.7129 145.513C79.7466 145.513 77.9759 145.907 77.9759 145.907C78.2622 147.915 78.4769 149.64 78.6135 151.228L78.617 151.269C78.6796 152.004 78.7255 152.711 78.7539 153.403C78.7867 154.203 78.7962 154.985 78.7813 155.77C78.763 156.737 78.7076 157.709 78.6135 158.729C78.4955 160.007 78.3167 161.36 78.0731 162.871C78.0418 163.066 78.0094 163.263 77.9759 163.463Z" fill="#CBC5C5"/>
<path fill-rule="evenodd" clip-rule="evenodd" d="M77.9759 145.907C77.9759 145.907 79.7466 145.513 81.7129 145.513C83.6792 145.513 85.4499 145.907 85.4499 145.907C85.1636 147.915 84.9489 149.64 84.8123 151.228C86.2365 143.935 89.7758 140.581 91.5455 138.411C94.6917 138.411 97.0513 141.173 99.6075 141.173C102.36 141.173 102.36 141.173 102.36 143.343C102.36 145.513 101.967 148.669 100.001 150.247C98.0344 151.825 95.0849 153.206 94.1018 153.206C93.1186 153.206 87.6129 152.219 87.8095 151.036C88.0061 149.852 91.7422 149.852 92.7253 149.852C93.7085 149.852 98.821 149.458 99.2142 148.077C99.6075 146.696 97.0513 147.091 94.8883 145.907C92.7253 144.724 91.7422 142.751 89.9725 145.907C88.2167 149.038 84.6912 152.937 84.8088 151.269C84.7461 152.004 84.7003 152.711 84.6719 153.403C89.1859 153.206 95.6748 155.376 100.394 155.178C100.984 152.022 103.933 149.852 104.917 149.852C105.9 149.852 109.439 155.178 111.995 155.178C113.765 155.178 116.518 153.403 116.518 151.825C117.622 152.071 118.75 152.624 119.148 154.587L120.451 153.797C119.705 149.23 118.505 147.912 114.158 149.063C115.377 150.705 115.411 151.564 114.158 153.206C112.743 152.732 112.389 149.852 112.389 148.471C115.141 146.499 116.125 150.247 123.99 145.513C124.683 146.941 124.651 147.809 124.383 151.228L125.956 149.852C126.546 148.077 125.563 146.302 126.153 146.104C126.625 145.947 129.496 145.776 130.872 145.71L132.838 144.526C133.232 143.343 132.642 140.976 131.659 140.384C134.805 137.031 140.507 133.677 145.816 134.466L139.524 133.085C145.423 129.337 144.243 126.576 147.783 123.222C150.614 120.54 154.337 119.475 155.844 119.277V117.699C152.856 118.015 150.273 119.277 149.356 119.869C150.535 114.442 158.597 102.905 160.957 104.088V102.313C160.367 103.694 158.204 103.497 158.597 99.5515C158.316 100.492 156.512 101.396 156.828 96.7899C157.143 92.1842 161.94 87.1243 161.94 87.1243L162.53 85.5462C160.309 86.2633 159.651 87.2364 158.597 89.0969C157.911 83.1491 157.614 80.2203 158.204 77.0641C159.115 74.8731 160.04 73.8268 162.53 72.3299H160.367C159.188 72.774 158.537 73.4615 157.418 75.2888C158.204 68.7793 155.451 65.2287 155.451 61.2835C155.451 57.3383 158.204 54.9712 158.204 54.9712L156.631 54.1822C155.875 54.8299 155.501 55.7449 154.861 57.7328C153.965 56.7355 153.446 56.5943 152.502 56.9438C150.585 52.038 150.582 49.2322 151.912 44.1221L151.125 42.544C151.128 43.5088 151.067 43.9981 150.535 44.5166C149.646 43.9986 148.911 43.8603 146.799 44.1221C142.723 38.0764 141.994 34.8154 142.277 29.1305L141.097 27.9469C138.133 26.0202 138.934 27.3551 141.294 34.2592C134.608 24.5935 125.563 17.6895 125.17 14.1389L123.99 14.3361C123.99 14.9898 123.462 15.5197 122.81 15.5197C122.159 15.5197 121.63 14.9898 121.63 14.3361L120.844 11.969C120.317 13.0898 120.165 13.868 120.254 15.5197C119.66 15.4586 119.316 15.3274 118.681 14.9279C111.097 9.01722 109.986 9.6234 106.49 8.8129C102.512 7.22155 101.782 5.76179 101.181 2.89516L99.8041 3.68419C99.8041 4.33785 99.2759 4.86774 98.6243 4.86774C97.9727 4.86774 97.4445 4.33785 97.4445 3.68419L96.2647 2.50065C96.1122 3.42357 96.0605 3.94535 96.2647 4.86774C92.4841 3.90341 90.2727 3.61194 86.0398 3.88145C84.3144 2.43004 83.63 1.60732 82.6971 0.133552H82.6961H80.7297H80.7287C79.7958 1.60732 79.1114 2.43004 77.386 3.88145C73.1531 3.61194 70.9417 3.90341 67.1611 4.86774C67.3653 3.94535 67.3136 3.42357 67.1611 2.50065L65.9813 3.68419C65.9813 4.33785 65.453 4.86774 64.8015 4.86774C64.1499 4.86774 63.6217 4.33785 63.6217 3.68419L62.2452 2.89516C61.6443 5.76179 60.9137 7.22155 56.9362 8.8129C53.4394 9.6234 52.3286 9.01722 44.7449 14.9279C44.11 15.3274 43.7653 15.4586 43.1719 15.5197C43.2605 13.868 43.1086 13.0898 42.582 11.969L41.7954 14.3361C41.7954 14.9898 41.2672 15.5197 40.6156 15.5197C39.9641 15.5197 39.4358 14.9898 39.4358 14.3361L38.256 14.1389C37.8628 17.6895 28.8177 24.5935 22.1322 34.2592C24.4917 27.3551 25.2928 26.0202 22.3288 27.9469L21.149 29.1305C21.432 34.8154 20.7024 38.0764 16.6264 44.1221C14.5146 43.8603 13.7798 43.9986 12.8904 44.5166C12.3586 43.9981 12.2981 43.5088 12.3005 42.544L11.514 44.1221C12.8438 49.2322 12.8412 52.038 10.9241 56.9438C9.97931 56.5943 9.46117 56.7355 8.56449 57.7328C7.92507 55.7449 7.55108 54.8299 6.7948 54.1822L5.22173 54.9712C5.22173 54.9712 7.97459 57.3383 7.97459 61.2835C7.97459 65.2287 5.22173 68.7793 6.00827 75.2888C4.88928 73.4615 4.2382 72.774 3.05877 72.3299H0.895813C3.38585 73.8268 4.31082 74.8731 5.22173 77.0641C5.81163 80.2203 5.51483 83.1491 4.82847 89.0969C3.77467 87.2364 3.11674 86.2633 0.895813 85.5462L1.48571 87.1243C1.48571 87.1243 6.28294 92.1842 6.59816 96.7899C6.91339 101.396 5.10969 100.492 4.82847 99.5515C5.22173 103.497 3.05877 103.694 2.46888 102.313V104.088C4.82847 102.905 12.8904 114.442 14.0702 119.869C13.1526 119.277 10.5701 118.015 7.58133 117.699V119.277C9.08885 119.475 12.8118 120.54 15.6433 123.222C19.1827 126.576 18.0029 129.337 23.9018 133.085L17.6096 134.466C22.9187 133.677 28.621 137.031 31.7672 140.384C30.784 140.976 30.1941 143.343 30.5874 144.526L32.5537 145.71C33.9301 145.776 36.801 145.947 37.2729 146.104C37.8628 146.302 36.8796 148.077 37.4695 149.852L39.0426 151.228C38.7747 147.809 38.7427 146.941 39.4358 145.513C47.3011 150.247 48.2843 146.499 51.0372 148.471C51.0372 149.852 50.6832 152.732 49.2675 153.206C48.0147 151.564 48.0485 150.705 49.2675 149.063C44.9211 147.912 43.7212 149.23 42.9752 153.797L44.2781 154.587C44.6761 152.624 45.8037 152.071 46.9079 151.825C46.9079 153.403 49.6607 155.178 51.4304 155.178C53.9867 155.178 57.5261 149.852 58.5092 149.852C59.4924 149.852 62.4419 152.022 63.0318 155.178C67.751 155.376 74.2398 153.206 78.7539 153.403C78.7255 152.711 78.6796 152.004 78.617 151.269C78.7346 152.937 75.2091 149.038 73.4533 145.907C71.6836 142.751 70.7004 144.724 68.5375 145.907C66.3745 147.091 63.8183 146.696 64.2116 148.077C64.6048 149.458 69.7173 149.852 70.7004 149.852C71.6836 149.852 75.4196 149.852 75.6163 151.036C75.8129 152.219 70.3072 153.206 69.324 153.206C68.3409 153.206 65.3914 151.825 63.425 150.247C61.4587 148.669 61.0654 145.513 61.0654 143.343C61.0654 141.173 61.0654 141.173 63.8183 141.173C66.3745 141.173 68.7341 138.411 71.8802 138.411C73.6499 140.581 77.1893 143.935 78.6135 151.228C78.4769 149.64 78.2622 147.915 77.9759 145.907ZM60.4755 140.778C60.4755 141.962 59.2957 140.778 59.2957 143.343C59.2957 144.447 60.6722 145.907 60.4755 148.274C58.372 146.515 57.2136 145.773 55.1665 144.724C54.9698 144.395 54.4193 142.948 53.79 139.792C53.0035 135.847 56.1496 137.228 58.116 138.214C59.689 139.003 60.3445 140.252 60.4755 140.778ZM45.1382 143.343C50.2506 143.343 56.5429 145.907 59.2957 148.471C56.9755 149.046 56.0434 149.599 55.1665 151.036C54.6421 150.115 53.1608 148.077 51.4304 147.288C49.2675 146.302 47.4978 147.485 46.1214 146.499C44.7449 145.513 45.1382 144.329 45.1382 143.343ZM51.0372 140.187C50.7094 140.515 50.3293 141.489 50.6439 142.751L46.5146 142.554C39.1934 135.552 38.012 132.222 38.8459 125.392C44.671 130.03 47.6965 132.94 51.0372 140.187ZM43.9584 145.513C43.3292 144.566 43.6962 142.883 43.9584 142.159C36.7915 132.207 33.1524 129.111 27.048 127.365C26.3325 134.609 37.2692 144.273 43.9584 145.513ZM33.5369 144.526C32.8853 144.526 32.3571 143.996 32.3571 143.343C32.3571 142.689 32.8853 142.159 33.5369 142.159C34.1884 142.159 34.7167 142.689 34.7167 143.343C34.7167 143.996 34.1884 144.526 33.5369 144.526ZM36.2897 130.521C35.6381 130.521 35.1099 129.991 35.1099 129.337C35.1099 128.684 35.6381 128.154 36.2897 128.154C36.9413 128.154 37.4695 128.684 37.4695 129.337C37.4695 129.991 36.9413 130.521 36.2897 130.521ZM22.722 114.149C22.0705 114.149 21.5423 113.619 21.5423 112.965C21.5423 112.311 22.0705 111.782 22.722 111.782C23.3736 111.782 23.9018 112.311 23.9018 112.965C23.9018 113.619 23.3736 114.149 22.722 114.149ZM6.40153 104.088C5.74995 104.088 5.22173 103.559 5.22173 102.905C5.22173 102.251 5.74995 101.721 6.40153 101.721C7.05311 101.721 7.58133 102.251 7.58133 102.905C7.58133 103.559 7.05311 104.088 6.40153 104.088ZM16.0365 98.9598C15.385 98.9598 14.8567 98.4299 14.8567 97.7762C14.8567 97.1225 15.385 96.5927 16.0365 96.5927C16.6881 96.5927 17.2163 97.1225 17.2163 97.7762C17.2163 98.4299 16.6881 98.9598 16.0365 98.9598ZM14.4635 84.1654C13.8119 84.1654 13.2837 83.6355 13.2837 82.9819C13.2837 82.3282 13.8119 81.7983 14.4635 81.7983C15.1151 81.7983 15.6433 82.3282 15.6433 82.9819C15.6433 83.6355 15.1151 84.1654 14.4635 84.1654ZM10.3342 61.2835C9.6826 61.2835 9.15439 60.7536 9.15439 60.0999C9.15439 59.4463 9.6826 58.9164 10.3342 58.9164C10.9858 58.9164 11.514 59.4463 11.514 60.0999C11.514 60.7536 10.9858 61.2835 10.3342 61.2835ZM19.3793 65.2287C18.7277 65.2287 18.1995 64.6988 18.1995 64.0451C18.1995 63.3914 18.7277 62.8616 19.3793 62.8616C20.0309 62.8616 20.5591 63.3914 20.5591 64.0451C20.5591 64.6988 20.0309 65.2287 19.3793 65.2287ZM14.2668 47.6727C13.6153 47.6727 13.087 47.1428 13.087 46.4892C13.087 45.8355 13.6153 45.3056 14.2668 45.3056C14.9184 45.3056 15.4466 45.8355 15.4466 46.4892C15.4466 47.1428 14.9184 47.6727 14.2668 47.6727ZM22.3288 42.1495C21.6772 42.1495 21.149 41.6196 21.149 40.9659C21.149 40.3123 21.6772 39.7824 22.3288 39.7824C22.9804 39.7824 23.5086 40.3123 23.5086 40.9659C23.5086 41.6196 22.9804 42.1495 22.3288 42.1495ZM35.8964 38.0071C35.2449 38.0071 34.7167 37.4772 34.7167 36.8235C34.7167 36.1699 35.2449 35.64 35.8964 35.64C36.548 35.64 37.0762 36.1699 37.0762 36.8235C37.0762 37.4772 36.548 38.0071 35.8964 38.0071ZM49.8574 22.4237C49.2058 22.4237 48.6776 21.8938 48.6776 21.2401C48.6776 20.5865 49.2058 20.0566 49.8574 20.0566C50.509 20.0566 51.0372 20.5865 51.0372 21.2401C51.0372 21.8938 50.509 22.4237 49.8574 22.4237ZM65.588 14.3361C64.9364 14.3361 64.4082 13.8062 64.4082 13.1526C64.4082 12.4989 64.9364 11.969 65.588 11.969C66.2396 11.969 66.7678 12.4989 66.7678 13.1526C66.7678 13.8062 66.2396 14.3361 65.588 14.3361ZM26.2614 110.598C27.8345 109.809 35.8964 120.264 36.2897 125.984C35.0444 126.313 32.4357 127.247 31.9638 128.351C25.4749 125.59 24.6884 111.387 26.2614 110.598ZM17.2163 112.571C19.9692 111.584 26.2614 121.842 27.048 125.984C25.0323 125.984 23.9018 128.351 25.8682 132.494C18.1995 128.746 14.4635 113.557 17.2163 112.571ZM23.5086 97.7762C25.4749 101.919 24.4917 104.483 24.885 110.203C24.4262 109.875 23.2726 109.336 22.3288 109.809C21.3849 110.282 20.4935 111.847 20.1658 112.571C19.7726 111.387 18.8287 108.152 18.1995 104.68C17.413 100.341 19.3793 94.4228 20.1658 94.2256C20.9524 94.0283 21.5423 93.6338 23.5086 97.7762ZM10.3342 95.0146C12.1039 94.8371 18.0231 102.905 18.1995 111.782C16.0365 110.203 14.8567 111.782 14.8567 116.121C9.54766 113.754 6.40153 95.4091 10.3342 95.0146ZM14.4635 95.8036C13.2837 87.5188 18.1995 81.7983 21.9355 80.2203C22.5626 85.1346 22.4296 87.8957 20.1658 92.8448C18.7675 92.6724 18.2521 93.2603 17.6096 95.0146C17.0852 94.6201 15.7219 94.2256 14.4635 95.8036ZM7.58133 96.5927C4.45823 87.1285 6.99143 76.2751 9.54766 73.7107C10.7571 73.8226 12.061 76.7859 12.751 81.0093C12.4698 81.2723 11.9466 82.035 12.1039 82.9819C12.2612 83.9287 12.8931 84.8229 13.1894 85.1517C13.3325 87.8919 13.2102 90.8812 12.6938 93.831C10.7617 93.9851 9.72568 93.3904 7.58133 96.5927ZM18.1995 80.2203C22.2575 75.8925 23.9243 73.0156 24.0985 65.8204C22.2754 66.1477 21.2517 66.3731 19.3793 67.793C16.0365 69.9628 17.6096 72.1327 13.6769 79.234C15.4466 81.0093 17.2443 78.3103 18.1995 80.2203ZM7.58133 75.2888C6.16697 67.3427 9.54766 63.4533 15.4466 57.3383C17.6376 64.948 16.8353 69.2726 13.2837 77.0641C10.8793 72.1341 9.60138 71.1041 7.58133 75.2888ZM22.3288 63.6506C26.4697 59.9237 27.9116 57.2269 29.6042 51.8151C27.5954 51.6782 26.4686 51.6044 22.3288 54.3795C22.1389 57.0644 21.9244 58.5754 20.5591 61.2835C21.3619 61.6046 21.7618 62.0294 22.3288 63.6506ZM13.1894 57.3383C15.0486 55.1625 16.2296 55.3277 18.7894 60.0999C21.6365 54.1738 22.2103 50.4158 22.3288 43.333C20.4379 43.7567 19.3435 44.2557 17.2163 46.4892C17.0824 47.8016 16.8322 48.6541 15.4466 48.8563C13.9561 51.5823 13.284 53.2658 13.1894 57.3383ZM34.7167 38.9934C29.6042 38.9934 24.0685 44.756 22.9187 52.4069C24.8333 52.5898 29.0904 49.9165 32.3571 46.6864C36.1355 42.9503 38.8042 38.536 38.4527 38.0071C37.7972 37.0208 36.683 38.9934 34.7167 38.9934ZM22.3288 37.4153C25.1191 30.3062 28.1539 28.2405 35.1099 26.5661C33.7951 34.1954 31.7167 38.2421 23.5086 44.7138C25.896 39.9846 24.3655 39.2253 22.3288 37.4153ZM30.1941 26.5661C35.1125 19.7904 39.0049 17.7883 47.891 17.295C45.0435 22.5242 42.8893 25.259 36.2897 29.1305C37.2097 24.8229 35.8629 24.4314 30.1941 26.5661ZM45.7281 24.199C48.6798 23.8281 49.6348 24.4224 51.0372 25.9743C44.1016 31.9484 40.5877 33.6789 35.1099 33.6674C35.3915 32.3077 35.6728 31.5434 36.2897 30.7085L36.4534 30.6165C39.9274 28.6647 41.9632 27.5208 45.7281 24.199ZM49.2675 18.2813C49.2675 18.2813 54.1833 18.8731 57.9193 17.295C63.6217 14.8864 61.2621 11.969 65.1947 10.3707C56.9024 8.43689 52.5878 9.82028 45.3348 15.5197C47.5266 15.7372 49.1337 15.3616 49.2675 18.2813ZM66.7678 18.8731C61.8033 21.9805 58.5681 23.14 51.2338 23.2127C52.1532 22.6556 52.42 22.0914 52.6102 21.0429C57.4924 20.0676 59.7528 19.0471 62.2452 15.7169C64.9697 15.9991 65.8834 16.5173 66.7678 18.8731ZM81.7129 8.90762C78.7851 10.7866 77.1149 11.5745 72.8634 11.5745C69.4581 11.5745 68.1261 10.7657 66.9038 10.0235C65.8675 9.39425 64.9101 8.8129 62.8351 8.8129C70.1005 4.02894 74.5533 3.65858 81.7129 6.73397C88.8725 3.65858 93.3253 4.02894 100.591 8.8129C98.5156 8.8129 97.5583 9.39425 96.522 10.0235C95.2997 10.7657 93.9677 11.5745 90.5624 11.5745C86.3109 11.5745 84.6407 10.7866 81.7129 8.90762ZM77.9759 12.3635C79.5809 13.3457 80.202 14.0209 80.7287 15.5197C74.7412 17.591 71.6621 17.598 66.7678 15.5197C67.3191 14.6289 67.8648 14.2065 69.1274 13.5471C74.0976 13.6784 76.0685 13.445 77.9759 12.3635ZM102.95 140.778C102.95 141.962 104.13 140.778 104.13 143.343C104.13 144.447 102.754 145.907 102.95 148.274C105.054 146.515 106.212 145.773 108.259 144.724C108.456 144.395 109.007 142.948 109.636 139.792C110.422 135.847 107.276 137.228 105.31 138.214C103.737 139.003 103.081 140.252 102.95 140.778ZM118.288 143.343C113.175 143.343 106.883 145.907 104.13 148.471C106.45 149.046 107.382 149.599 108.259 151.036C108.784 150.115 110.265 148.077 111.995 147.288C114.158 146.302 115.928 147.485 117.304 146.499C118.681 145.513 118.288 144.329 118.288 143.343ZM112.389 140.187C112.716 140.515 113.096 141.489 112.782 142.751L116.911 142.554C124.232 135.552 125.414 132.222 124.58 125.392C118.755 130.03 115.729 132.94 112.389 140.187ZM119.467 145.513C120.097 144.566 119.73 142.883 119.467 142.159C126.634 132.207 130.273 129.111 136.378 127.365C137.093 134.609 126.157 144.273 119.467 145.513ZM129.889 144.526C130.541 144.526 131.069 143.996 131.069 143.343C131.069 142.689 130.541 142.159 129.889 142.159C129.237 142.159 128.709 142.689 128.709 143.343C128.709 143.996 129.237 144.526 129.889 144.526ZM127.136 130.521C127.788 130.521 128.316 129.991 128.316 129.337C128.316 128.684 127.788 128.154 127.136 128.154C126.484 128.154 125.956 128.684 125.956 129.337C125.956 129.991 126.484 130.521 127.136 130.521ZM140.704 114.149C141.355 114.149 141.884 113.619 141.884 112.965C141.884 112.311 141.355 111.782 140.704 111.782C140.052 111.782 139.524 112.311 139.524 112.965C139.524 113.619 140.052 114.149 140.704 114.149ZM157.024 104.088C157.676 104.088 158.204 103.559 158.204 102.905C158.204 102.251 157.676 101.721 157.024 101.721C156.373 101.721 155.844 102.251 155.844 102.905C155.844 103.559 156.373 104.088 157.024 104.088ZM147.389 98.9598C148.041 98.9598 148.569 98.4299 148.569 97.7762C148.569 97.1225 148.041 96.5927 147.389 96.5927C146.738 96.5927 146.209 97.1225 146.209 97.7762C146.209 98.4299 146.738 98.9598 147.389 98.9598ZM148.962 84.1654C149.614 84.1654 150.142 83.6355 150.142 82.9819C150.142 82.3282 149.614 81.7983 148.962 81.7983C148.311 81.7983 147.783 82.3282 147.783 82.9819C147.783 83.6355 148.311 84.1654 148.962 84.1654ZM153.092 61.2835C153.743 61.2835 154.271 60.7536 154.271 60.0999C154.271 59.4463 153.743 58.9164 153.092 58.9164C152.44 58.9164 151.912 59.4463 151.912 60.0999C151.912 60.7536 152.44 61.2835 153.092 61.2835ZM144.046 65.2287C144.698 65.2287 145.226 64.6988 145.226 64.0451C145.226 63.3914 144.698 62.8616 144.046 62.8616C143.395 62.8616 142.867 63.3914 142.867 64.0451C142.867 64.6988 143.395 65.2287 144.046 65.2287ZM149.159 47.6727C149.811 47.6727 150.339 47.1428 150.339 46.4892C150.339 45.8355 149.811 45.3056 149.159 45.3056C148.507 45.3056 147.979 45.8355 147.979 46.4892C147.979 47.1428 148.507 47.6727 149.159 47.6727ZM141.097 42.1495C141.749 42.1495 142.277 41.6196 142.277 40.9659C142.277 40.3123 141.749 39.7824 141.097 39.7824C140.445 39.7824 139.917 40.3123 139.917 40.9659C139.917 41.6196 140.445 42.1495 141.097 42.1495ZM127.529 38.0071C128.181 38.0071 128.709 37.4772 128.709 36.8235C128.709 36.1699 128.181 35.64 127.529 35.64C126.878 35.64 126.35 36.1699 126.35 36.8235C126.35 37.4772 126.878 38.0071 127.529 38.0071ZM113.568 22.4237C114.22 22.4237 114.748 21.8938 114.748 21.2401C114.748 20.5865 114.22 20.0566 113.568 20.0566C112.917 20.0566 112.389 20.5865 112.389 21.2401C112.389 21.8938 112.917 22.4237 113.568 22.4237ZM97.8378 14.3361C98.4894 14.3361 99.0176 13.8062 99.0176 13.1526C99.0176 12.4989 98.4894 11.969 97.8378 11.969C97.1862 11.969 96.658 12.4989 96.658 13.1526C96.658 13.8062 97.1862 14.3361 97.8378 14.3361ZM137.164 110.598C135.591 109.809 127.529 120.264 127.136 125.984C128.381 126.313 130.99 127.247 131.462 128.351C137.951 125.59 138.737 111.387 137.164 110.598ZM146.209 112.571C143.457 111.584 137.164 121.842 136.378 125.984C138.393 125.984 139.524 128.351 137.558 132.494C145.226 128.746 148.962 113.557 146.209 112.571ZM139.917 97.7762C137.951 101.919 138.934 104.483 138.541 110.203C139 109.875 140.153 109.336 141.097 109.809C142.041 110.282 142.932 111.847 143.26 112.571C143.653 111.387 144.597 108.152 145.226 104.68C146.013 100.341 144.046 94.4228 143.26 94.2256C142.473 94.0283 141.884 93.6338 139.917 97.7762ZM153.092 95.0146C151.322 94.8371 145.403 102.905 145.226 111.782C147.389 110.203 148.569 111.782 148.569 116.121C153.878 113.754 157.024 95.4091 153.092 95.0146ZM148.962 95.8036C150.142 87.5188 145.226 81.7983 141.49 80.2203C140.863 85.1346 140.996 87.8957 143.26 92.8448C144.658 92.6724 145.174 93.2603 145.816 95.0146C146.341 94.6201 147.704 94.2256 148.962 95.8036ZM155.844 96.5927C158.968 87.1285 156.434 76.2751 153.878 73.7107C152.669 73.8226 151.365 76.7859 150.675 81.0093C150.956 81.2723 151.479 82.035 151.322 82.9819C151.165 83.9287 150.533 84.8229 150.236 85.1517C150.093 87.8919 150.216 90.8812 150.732 93.831C152.664 93.9851 153.7 93.3904 155.844 96.5927ZM145.226 80.2203C141.168 75.8925 139.502 73.0156 139.327 65.8204C141.15 66.1477 142.174 66.3731 144.046 67.793C147.389 69.9628 145.816 72.1327 149.749 79.234C147.979 81.0093 146.181 78.3103 145.226 80.2203ZM155.844 75.2888C157.259 67.3427 153.878 63.4533 147.979 57.3383C145.788 64.948 146.59 69.2726 150.142 77.0641C152.547 72.1341 153.824 71.1041 155.844 75.2888ZM141.097 63.6506C136.956 59.9237 135.514 57.2269 133.822 51.8151C135.83 51.6782 136.957 51.6044 141.097 54.3795C141.287 57.0644 141.501 58.5754 142.867 61.2835C142.064 61.6046 141.664 62.0294 141.097 63.6506ZM150.236 57.3383C148.377 55.1625 147.196 55.3277 144.636 60.0999C141.789 54.1738 141.215 50.4158 141.097 43.333C142.988 43.7567 144.082 44.2557 146.209 46.4892C146.343 47.8016 146.594 48.6541 147.979 48.8563C149.47 51.5823 150.142 53.2658 150.236 57.3383ZM128.709 38.9934C133.822 38.9934 139.357 44.756 140.507 52.4069C138.592 52.5898 134.335 49.9165 131.069 46.6864C127.29 42.9503 124.622 38.536 124.973 38.0071C125.629 37.0208 126.743 38.9934 128.709 38.9934ZM141.097 37.4153C138.307 30.3062 135.272 28.2405 128.316 26.5661C129.631 34.1954 131.709 38.2421 139.917 44.7138C137.53 39.9846 139.06 39.2253 141.097 37.4153ZM133.232 26.5661C128.313 19.7904 124.421 17.7883 115.535 17.295C118.382 22.5242 120.536 25.259 127.136 29.1305C126.216 24.8229 127.563 24.4314 133.232 26.5661ZM117.698 24.199C114.746 23.8281 113.791 24.4224 112.389 25.9743C119.324 31.9484 122.838 33.6789 128.316 33.6674C128.034 32.3077 127.753 31.5434 127.136 30.7085L126.972 30.6165C123.498 28.6647 121.463 27.5208 117.698 24.199ZM114.158 18.2813C114.158 18.2813 109.242 18.8731 105.506 17.295C99.8041 14.8864 102.164 11.969 98.231 10.3707C106.523 8.43689 110.838 9.82028 118.091 15.5197C115.899 15.7372 114.292 15.3616 114.158 18.2813ZM96.658 18.8731C101.623 21.9805 104.858 23.14 112.192 23.2127C111.273 22.6556 111.006 22.0914 110.816 21.0429C105.933 20.0676 103.673 19.0471 101.181 15.7169C98.4561 15.9991 97.5424 16.5173 96.658 18.8731ZM85.4499 12.3635C83.8449 13.3457 83.2238 14.0209 82.6971 15.5197C88.6846 17.591 91.7637 17.598 96.658 15.5197C96.1067 14.6289 95.561 14.2065 94.2984 13.5471C89.3281 13.6784 87.3573 13.445 85.4499 12.3635Z" fill="#6F6C6C"/>
<path fill-rule="evenodd" clip-rule="evenodd" d="M81.7129 6.73397C88.8725 3.65858 93.3253 4.02894 100.591 8.8129C98.5156 8.8129 97.5583 9.39425 96.522 10.0235C95.2997 10.7657 93.9677 11.5745 90.5624 11.5745C86.3109 11.5745 84.6407 10.7866 81.7129 8.90762C82.0714 8.67758 82.4487 8.43118 82.8519 8.16787C83.1156 7.99565 83.3904 7.8162 83.6782 7.62935C82.9994 7.30443 82.3456 7.00574 81.7129 6.73397ZM81.7129 6.73397C81.0802 7.00574 80.4264 7.30443 79.7476 7.62935C80.0354 7.8162 80.3102 7.99565 80.5739 8.16787C80.9771 8.43118 81.3544 8.67758 81.7129 8.90762C78.7851 10.7866 77.1149 11.5745 72.8634 11.5745C69.4581 11.5745 68.1261 10.7657 66.9038 10.0235C65.8675 9.39425 64.9101 8.8129 62.8351 8.8129C70.1005 4.02894 74.5533 3.65858 81.7129 6.73397Z" fill="#CBC5C5"/>
<path d="M81.7129 6.73397C81.0802 7.00574 80.4264 7.30443 79.7476 7.62935C80.0354 7.8162 80.3102 7.99565 80.5739 8.16787C80.9771 8.43118 81.3544 8.67758 81.7129 8.90762C82.0714 8.67758 82.4487 8.43118 82.8519 8.16787C83.1156 7.99565 83.3904 7.8162 83.6782 7.62935C82.9994 7.30443 82.3456 7.00574 81.7129 6.73397Z" fill="#6F6C6C"/>
<path d="M84.6445 155.77C84.6628 156.737 84.7181 157.709 84.8123 158.729C85.2652 160.051 95.2139 161.374 100.622 163.858L101.574 162.082C98.6243 162.674 89.5792 156.165 84.6445 155.77Z" fill="#6F6C6C"/>
<path d="M78.6135 158.729C78.7076 157.709 78.763 156.737 78.7813 155.77C73.8466 156.165 64.8015 162.674 61.852 162.082L62.8034 163.858C68.2119 161.374 78.1606 160.051 78.6135 158.729Z" fill="#6F6C6C"/>
<path d="M118.83 105.345C118.83 107.912 116.755 109.993 114.196 109.993C111.637 109.993 109.562 107.912 109.562 105.345C109.562 102.779 111.637 100.698 114.196 100.698C116.755 100.698 118.83 102.779 118.83 105.345Z" fill="#CBC5C5"/>
<path fill-rule="evenodd" clip-rule="evenodd" d="M121.829 105.345C121.829 109.573 118.411 113 114.196 113C109.981 113 106.563 109.573 106.563 105.345C106.563 101.118 109.981 97.6906 114.196 97.6906C118.411 97.6906 121.829 101.118 121.829 105.345ZM114.196 111.36C117.508 111.36 120.193 108.667 120.193 105.345C120.193 102.024 117.508 99.3309 114.196 99.3309C110.884 99.3309 108.199 102.024 108.199 105.345C108.199 108.667 110.884 111.36 114.196 111.36Z" fill="#CBC5C5"/>
<path d="M99.4758 105.345C99.4758 107.912 97.4011 109.993 94.8417 109.993C92.2823 109.993 90.2075 107.912 90.2075 105.345C90.2075 102.779 92.2823 100.698 94.8417 100.698C97.4011 100.698 99.4758 102.779 99.4758 105.345Z" fill="#CBC5C5"/>
<path fill-rule="evenodd" clip-rule="evenodd" d="M102.474 105.345C102.474 109.573 99.0571 113 94.8417 113C90.6263 113 87.209 109.573 87.209 105.345C87.209 101.118 90.6263 97.6906 94.8417 97.6906C99.0571 97.6906 102.474 101.118 102.474 105.345ZM94.8417 111.36C98.1538 111.36 100.839 108.667 100.839 105.345C100.839 102.024 98.1538 99.3309 94.8417 99.3309C91.5296 99.3309 88.8446 102.024 88.8446 105.345C88.8446 108.667 91.5296 111.36 94.8417 111.36Z" fill="#CBC5C5"/>
<path d="M77.3955 105.345C77.3955 107.912 75.3207 109.993 72.7613 109.993C70.202 109.993 68.1272 107.912 68.1272 105.345C68.1272 102.779 70.202 100.698 72.7613 100.698C75.3207 100.698 77.3955 102.779 77.3955 105.345Z" fill="#CBC5C5"/>
<path fill-rule="evenodd" clip-rule="evenodd" d="M80.3941 105.345C80.3941 109.573 76.9768 113 72.7613 113C68.5459 113 65.1286 109.573 65.1286 105.345C65.1286 101.118 68.5459 97.6906 72.7613 97.6906C76.9768 97.6906 80.3941 101.118 80.3941 105.345ZM72.7613 111.36C76.0735 111.36 78.7585 108.667 78.7585 105.345C78.7585 102.024 76.0735 99.3309 72.7613 99.3309C69.4492 99.3309 66.7642 102.024 66.7642 105.345C66.7642 108.667 69.4492 111.36 72.7613 111.36Z" fill="#CBC5C5"/>
<path d="M129.325 88.259H35.4156L52.9981 73.9065H85.1645L86.4593 69.6691H68.3998L69.6265 66.7986H87.3365L87.7542 65.4317H102.474L103.565 73.9065H122.101L125.1 56H126.327V73.9065L129.325 88.259Z" fill="#CBC5C5"/>
<path d="M57.7685 105.345C57.7685 107.912 55.6937 109.993 53.1344 109.993C50.575 109.993 48.5002 107.912 48.5002 105.345C48.5002 102.779 50.575 100.698 53.1344 100.698C55.6937 100.698 57.7685 102.779 57.7685 105.345Z" fill="#CBC5C5"/>
<path fill-rule="evenodd" clip-rule="evenodd" d="M60.7671 105.345C60.7671 109.573 57.3498 113 53.1344 113C48.9189 113 45.5017 109.573 45.5017 105.345C45.5017 101.118 48.9189 97.6906 53.1344 97.6906C57.3498 97.6906 60.7671 101.118 60.7671 105.345ZM53.1344 111.36C56.4465 111.36 59.1315 108.667 59.1315 105.345C59.1315 102.024 56.4465 99.3309 53.1344 99.3309C49.8223 99.3309 47.1372 102.024 47.1372 105.345C47.1372 108.667 49.8223 111.36 53.1344 111.36Z" fill="#CBC5C5"/>
<path d="M129.325 90.036H34.3252L44.2006 104.281C44.7256 99.8002 48.5252 96.3237 53.1344 96.3237C57.7803 96.3237 61.6036 99.8558 62.0801 104.388H63.8157C64.2921 99.8558 68.1154 96.3237 72.7613 96.3237C77.4073 96.3237 81.2306 99.8558 81.707 104.388H85.896C86.3725 99.8558 90.1958 96.3237 94.8417 96.3237C99.4876 96.3237 103.311 99.8558 103.787 104.388H105.25C105.727 99.8558 109.55 96.3237 114.196 96.3237C118.788 96.3237 122.577 99.7747 123.124 104.232L129.325 90.036Z" fill="#CBC5C5"/>
</svg>
