<svg width="164" height="124" viewBox="0 0 164 124" fill="none" xmlns="http://www.w3.org/2000/svg">
<path d="M0.4375 22C0.4375 9.84974 10.2804 0 22.4223 0H141.34C153.482 0 163.325 9.84974 163.325 22V102C163.325 114.15 153.482 124 141.34 124H22.4223C10.2804 124 0.4375 114.15 0.4375 102V22Z" fill="#C5A869"/>
<path fill-rule="evenodd" clip-rule="evenodd" d="M141.34 11H22.4223C16.3514 11 11.4299 15.9249 11.4299 22V102C11.4299 108.075 16.3514 113 22.4223 113H141.34C147.411 113 152.333 108.075 152.333 102V22C152.333 15.9249 147.411 11 141.34 11ZM22.4223 0C10.2804 0 0.4375 9.84974 0.4375 22V102C0.4375 114.15 10.2804 124 22.4223 124H141.34C153.482 124 163.325 114.15 163.325 102V22C163.325 9.84974 153.482 0 141.34 0H22.4223Z" fill="#A68C55"/>
<path d="M114.687 30.8811C114.092 31.3617 112.789 32.4076 111.769 33.1991C110.749 33.9906 107.831 36.2802 105.253 38.2872C98.341 43.7429 85.3379 53.6931 82.8732 55.4457L81.7684 56.2371L76.3008 52.1101C71.5699 48.5484 69.4168 46.9088 63.7226 42.4991C59.5299 39.2766 54.1757 35.0647 51.3711 32.8316C49.558 31.3899 47.8583 30.2027 47.6316 30.2027C47.15 30.2027 45.1953 32.4924 45.1953 33.0577C45.1953 33.2839 47.2633 35.1778 49.813 37.2696C52.3343 39.3614 56.1871 42.5556 58.3684 44.393C66.8389 51.4317 73.1846 56.6894 75.026 58.1593C76.0742 59.0074 76.9241 59.7706 76.9241 59.8837C76.9241 59.9685 76.3575 60.5904 75.6776 61.2405C74.9977 61.8907 74.1478 63.0496 73.8079 63.7846C72.1931 67.2898 71.8248 67.5724 68.5103 67.7138C67.1222 67.7986 65.7057 67.9682 65.3091 68.1095C64.9125 68.2791 62.3912 71.1059 59.6432 74.498C56.9236 77.8336 54.459 80.8299 54.204 81.1409C53.5808 81.8758 53.7791 82.4129 56.2154 86.0029C58.5101 89.395 59.3316 90.9497 59.7849 92.6458L60.0965 93.9178L60.6914 93.0698C61.003 92.6175 62.4478 89.9604 63.8926 87.1619C68.312 78.5685 70.1817 75.0351 70.465 74.6676C70.6067 74.498 71.9098 73.8761 73.3829 73.3108C74.8277 72.7454 76.5558 71.9257 77.2074 71.4451C78.4822 70.5123 79.4737 68.6466 79.4737 67.1484C79.4737 65.6502 79.7287 65.1414 80.8619 64.3499L81.9384 63.5867L82.9865 64.4913C83.9214 65.311 84.0347 65.5937 84.2614 67.4311C84.4313 68.7314 84.743 69.7773 85.1112 70.3144C85.8195 71.2755 87.6325 72.3779 90.2388 73.339C91.2587 73.7348 92.3635 74.2153 92.6752 74.4415C93.0151 74.6676 93.8933 76.0244 94.6299 77.4661C95.3664 78.9077 96.5846 81.2257 97.3212 82.6391C98.0577 84.0242 99.5875 86.964 100.721 89.1406C101.854 91.3172 102.902 93.2677 103.044 93.4373C103.497 93.9744 103.752 93.6351 103.95 92.3066C104.149 91.0911 105.168 89.1689 107.463 85.8616C108.596 84.2503 109.786 82.1585 109.786 81.8193C109.786 81.7345 109.163 80.943 108.426 80.0384C107.69 79.1339 105.423 76.3637 103.412 73.8761C101.401 71.3886 99.5592 69.1554 99.3042 68.901C98.5393 68.0813 97.6611 67.7986 95.8197 67.7986C94.7999 67.7986 93.5817 67.7138 93.1001 67.629C91.8536 67.3746 90.6354 66.0743 90.0405 64.3217C89.6723 63.2758 89.0773 62.3995 88.0008 61.3536C87.1509 60.5338 86.5277 59.8271 86.5844 59.7989C86.7543 59.6858 95.1398 52.7037 95.5081 52.3928C95.6781 52.2232 96.2446 51.7709 96.7829 51.3469C97.3212 50.9511 100.352 48.407 103.554 45.7499C106.755 43.0927 109.928 40.4356 110.636 39.8702C113.78 37.3261 118.568 33.2273 118.568 33.1143C118.568 32.8599 116.443 30.231 116.103 30.0896C115.933 30.0331 115.31 30.3723 114.687 30.8811Z" fill="black"/>
</svg>
