<svg width="164" height="124" viewBox="0 0 164 124" fill="none" xmlns="http://www.w3.org/2000/svg">
<path d="M0.212891 22C0.212891 9.84974 10.0558 0 22.1977 0H141.116C153.258 0 163.1 9.84974 163.1 22V102C163.1 114.15 153.258 124 141.116 124H22.1977C10.0558 124 0.212891 114.15 0.212891 102V22Z" fill="#C5A869"/>
<path fill-rule="evenodd" clip-rule="evenodd" d="M141.116 11H22.1977C16.1268 11 11.2053 15.9249 11.2053 22V102C11.2053 108.075 16.1268 113 22.1977 113H141.116C147.187 113 152.108 108.075 152.108 102V22C152.108 15.9249 147.187 11 141.116 11ZM22.1977 0C10.0558 0 0.212891 9.84974 0.212891 22V102C0.212891 114.15 10.0558 124 22.1977 124H141.116C153.258 124 163.1 114.15 163.1 102V22C163.1 9.84974 153.258 0 141.116 0H22.1977Z" fill="#A68C55"/>
<path fill-rule="evenodd" clip-rule="evenodd" d="M48.5498 63.1203C49.9054 62.2257 51.4969 61.5322 53.3165 61.5322C56.7825 61.5322 59.3231 63.9729 61.2584 65.8322C61.3067 65.8786 61.3547 65.9247 61.4023 65.9703C62.4654 66.9906 63.3898 67.8771 64.3545 68.5285C65.2919 69.1613 66.1519 69.4891 67.0504 69.4891C67.9622 69.4891 68.8963 69.152 69.9438 68.4969C71.007 67.8322 72.0531 66.9287 73.2201 65.9151L73.273 65.8692C74.3821 64.9058 75.6078 63.8411 76.9084 63.027C78.2451 62.1902 79.7905 61.5322 81.5472 61.5322C83.3059 61.5322 84.8444 62.1915 86.1683 63.0331C87.4762 63.8646 88.6935 64.9539 89.7845 65.9326L89.8206 65.965C90.9413 66.9704 91.9321 67.8594 92.934 68.5158C93.9325 69.1699 94.7919 69.4891 95.6081 69.4891C96.4461 69.4891 97.2751 69.187 98.2119 68.5898C99.1047 68.0207 99.9735 67.2671 100.978 66.3963C101.058 66.3269 101.138 66.2568 101.22 66.186C103.298 64.3864 105.993 62.0772 109.669 62.0772C113.443 62.0772 116.106 64.7508 118.05 66.7834C118.216 66.9567 118.376 67.1258 118.533 67.2906C119.373 68.1753 120.094 68.9339 120.827 69.5242C121.682 70.2138 122.317 70.4701 122.858 70.4701C124.473 70.4701 125.924 69.6367 127.062 68.6429C127.617 68.1584 128.057 67.6703 128.357 67.304C128.506 67.122 128.618 66.9731 128.69 66.874C128.726 66.8245 128.752 66.7877 128.767 66.7656C128.773 66.7579 128.777 66.7519 128.779 66.748L128.781 66.7453C128.781 66.7453 128.781 66.7462 130.161 67.652C131.541 68.5578 131.54 68.5588 131.54 68.5588L131.54 68.5599L131.538 68.5624L131.534 68.5685L131.522 68.5857C131.513 68.5993 131.501 68.6171 131.486 68.6388C131.456 68.6822 131.415 68.7414 131.362 68.8141C131.257 68.9593 131.105 69.1596 130.911 69.3965C130.525 69.8681 129.958 70.4973 129.234 71.13C127.813 72.3707 125.612 73.7718 122.858 73.7718C121.214 73.7718 119.852 72.979 118.755 72.0949C117.835 71.3537 116.935 70.4051 116.103 69.527C115.954 69.3704 115.808 69.2161 115.664 69.0656C113.594 66.9018 111.848 65.3789 109.669 65.3789C107.393 65.3789 105.583 66.7756 103.382 68.682C103.291 68.7603 103.2 68.8397 103.108 68.9198C102.149 69.7527 101.096 70.6666 99.9868 71.3739C98.7437 72.1664 97.2962 72.7909 95.6081 72.7909C93.8982 72.7909 92.4033 72.1154 91.1246 71.2776C89.9093 70.4814 88.7548 69.4451 87.7063 68.5041C87.6639 68.466 87.6217 68.4281 87.5796 68.3904C86.4532 67.3798 85.4357 66.4799 84.3969 65.8195C83.374 65.1692 82.4538 64.8339 81.5472 64.8339C80.6387 64.8339 79.7069 65.1705 78.6603 65.8256C77.5981 66.4905 76.5525 67.394 75.3852 68.4079L75.3381 68.4489C74.2271 69.4138 72.9987 70.4809 71.6943 71.2965C70.3559 72.1334 68.809 72.7909 67.0504 72.7909C65.2783 72.7909 63.7793 72.124 62.5069 71.2649C61.3031 70.4521 60.2012 69.3943 59.2167 68.4491C59.183 68.4168 59.1495 68.3847 59.1162 68.3527C56.9231 66.2482 55.307 64.8339 53.3165 64.8339C52.3645 64.8339 51.4043 65.1925 50.3683 65.8761C49.3205 66.5675 48.305 67.5163 47.2414 68.5664C47.0727 68.7329 46.9014 68.9035 46.728 69.0761C45.858 69.9425 44.9367 70.86 44.0301 71.5786C42.9582 72.4283 41.6101 73.2509 40.0487 73.2509C37.5366 73.2509 35.4344 71.9992 34.0612 70.9083C33.3566 70.3486 32.7943 69.7919 32.4069 69.3743C32.2122 69.1646 32.0593 68.9873 31.9522 68.8587C31.8985 68.7944 31.8562 68.742 31.8257 68.7036C31.8104 68.6844 31.7981 68.6687 31.7888 68.6568L31.7771 68.6416L31.7729 68.6362L31.7705 68.6331C31.7705 68.6331 31.7699 68.6322 33.0827 67.6313C34.3956 66.6305 34.395 66.6297 34.395 66.6297L34.3937 66.6279L34.3928 66.6268C34.3928 66.6268 34.3929 66.6269 34.3937 66.6279C34.3961 66.631 34.4018 66.6383 34.4097 66.6482C34.4254 66.668 34.4519 66.7009 34.4887 66.745C34.5624 66.8335 34.6767 66.9663 34.8272 67.1286C35.1302 67.4551 35.5706 67.8906 36.115 68.323C37.2396 69.2165 38.6204 69.9491 40.0487 69.9491C40.4575 69.9491 41.0601 69.7196 41.9791 68.9911C42.7253 68.3997 43.4844 67.6447 44.3543 66.7796C44.5382 66.5967 44.727 66.4089 44.9218 66.2167C45.9896 65.1624 47.2058 64.0071 48.5498 63.1203ZM48.5498 72.0583C49.9054 71.1637 51.4969 70.4702 53.3165 70.4702C56.7825 70.4702 59.3231 72.9109 61.2584 74.7702C61.3067 74.8166 61.3547 74.8627 61.4023 74.9084C62.4654 75.9286 63.3898 76.8151 64.3545 77.4665C65.2919 78.0993 66.1519 78.4271 67.0504 78.4271C67.9622 78.4271 68.8963 78.09 69.9438 77.4349C71.007 76.7702 72.0531 75.8667 73.2201 74.8531L73.273 74.8072C74.3821 73.8438 75.6078 72.7791 76.9084 71.965C78.2451 71.1282 79.7905 70.4702 81.5472 70.4702C83.3059 70.4702 84.8444 71.1295 86.1683 71.9711C87.4762 72.8026 88.6935 73.8919 89.7845 74.8707L89.8206 74.903C90.9413 75.9084 91.9321 76.7974 92.934 77.4538C93.9325 78.108 94.7919 78.4271 95.6081 78.4271C96.4461 78.4271 97.2751 78.125 98.2119 77.5278C99.1047 76.9587 99.9735 76.2051 100.978 75.3343C101.058 75.2649 101.138 75.1949 101.22 75.1241C103.298 73.3244 105.993 71.0152 109.669 71.0152C113.443 71.0152 116.106 73.6888 118.05 75.7214C118.216 75.8947 118.376 76.0639 118.533 76.2287C119.373 77.1133 120.094 77.8719 120.827 78.4622C121.682 79.1518 122.317 79.4081 122.858 79.4081C124.473 79.4081 125.924 78.5747 127.062 77.5809C127.617 77.0965 128.057 76.6083 128.357 76.242C128.506 76.06 128.618 75.9111 128.69 75.812C128.726 75.7625 128.752 75.7257 128.767 75.7036C128.775 75.6926 128.78 75.6853 128.782 75.6819L128.781 75.6833C128.781 75.6833 128.781 75.6842 130.161 76.59C131.541 77.4959 131.54 77.4968 131.54 77.4968L131.54 77.4979L131.538 77.5004L131.534 77.5065L131.522 77.5237C131.513 77.5373 131.501 77.5551 131.486 77.5768C131.456 77.6202 131.415 77.6794 131.362 77.7521C131.257 77.8973 131.105 78.0976 130.911 78.3345C130.525 78.8062 129.958 79.4353 129.234 80.068C127.813 81.3087 125.612 82.7099 122.858 82.7099C121.214 82.7099 119.852 81.917 118.755 81.0329C117.835 80.2917 116.935 79.3432 116.103 78.465C115.954 78.3084 115.808 78.1541 115.664 78.0036C113.594 75.8398 111.848 74.3169 109.669 74.3169C107.393 74.3169 105.583 75.7136 103.382 77.62C103.291 77.6983 103.2 77.7777 103.108 77.8578C102.149 78.6908 101.096 79.6046 99.9868 80.3119C98.7437 81.1045 97.2962 81.7289 95.6081 81.7289C93.8982 81.7289 92.4033 81.0534 91.1246 80.2156C89.9093 79.4194 88.7547 78.3831 87.7063 77.442C87.6639 77.404 87.6217 77.3661 87.5796 77.3284C86.4532 76.3178 85.4357 75.4179 84.3969 74.7575C83.374 74.1072 82.4538 73.7719 81.5472 73.7719C80.6387 73.7719 79.7069 74.1085 78.6603 74.7637C77.5981 75.4285 76.5525 76.332 75.3852 77.3459L75.3381 77.3869C74.2271 78.3519 72.9987 79.4189 71.6943 80.2345C70.3559 81.0714 68.809 81.7289 67.0504 81.7289C65.2783 81.7289 63.7793 81.062 62.5069 80.2029C61.3031 79.3901 60.2012 78.3323 59.2167 77.3871C59.183 77.3548 59.1495 77.3227 59.1162 77.2907C56.9231 75.1862 55.307 73.7719 53.3165 73.7719C52.3645 73.7719 51.4043 74.1305 50.3683 74.8141C49.3205 75.5055 48.305 76.4544 47.2414 77.5044C47.0727 77.6709 46.9014 77.8415 46.728 78.0141C45.858 78.8805 44.9367 79.798 44.0301 80.5166C42.9582 81.3663 41.6101 82.1889 40.0487 82.1889C37.5366 82.1889 35.4344 80.9372 34.0612 79.8463C33.3566 79.2866 32.7943 78.7299 32.4069 78.3123C32.2122 78.1026 32.0593 77.9253 31.9522 77.7967C31.8985 77.7324 31.8562 77.68 31.8257 77.6416C31.8104 77.6225 31.7981 77.6068 31.7888 77.5948L31.7771 77.5796L31.7729 77.5742L31.7712 77.572L31.7705 77.5711C31.7705 77.5711 31.7699 77.5702 33.0827 76.5694C34.3956 75.5685 34.395 75.5677 34.395 75.5677L34.3943 75.5667C34.3967 75.5697 34.4018 75.5763 34.4097 75.5862C34.4254 75.606 34.4519 75.6389 34.4887 75.683C34.5624 75.7715 34.6767 75.9043 34.8272 76.0666C35.1302 76.3931 35.5706 76.8286 36.115 77.261C37.2396 78.1545 38.6204 78.8871 40.0487 78.8871C40.4575 78.8871 41.0601 78.6576 41.9791 77.9291C42.7253 77.3377 43.4844 76.5827 44.3543 75.7176C44.5382 75.5347 44.727 75.3469 44.9218 75.1547C45.9896 74.1005 47.2058 72.9451 48.5498 72.0583ZM34.3928 75.5648L34.3943 75.5667C34.3931 75.5652 34.3928 75.5648 34.3928 75.5648ZM44.4186 83.1753C46.3011 81.4054 48.7797 79.4082 51.8645 79.4082C55.3305 79.4082 57.8711 81.8489 59.8064 83.7082C59.8547 83.7546 59.9027 83.8007 59.9503 83.8464C61.0134 84.8666 61.9378 85.7531 62.9025 86.4045C63.8398 87.0374 64.6999 87.3651 65.5983 87.3651C66.5102 87.3651 67.4443 87.028 68.4918 86.3729C69.5549 85.7082 70.6011 84.8047 71.7681 83.7911L71.821 83.7452C72.9301 82.7818 74.1558 81.7171 75.4564 80.903C76.7931 80.0662 78.3384 79.4082 80.0952 79.4082C81.8539 79.4082 83.3924 80.0675 84.7163 80.9091C86.0242 81.7406 87.2415 82.83 88.3325 83.8087L88.3686 83.841C89.4893 84.8465 90.4801 85.7354 91.482 86.3918C92.4805 87.046 93.3399 87.3651 94.1561 87.3651C94.9941 87.3651 95.8231 87.063 96.7599 86.4658C97.6526 85.8967 98.5215 85.1431 99.5256 84.2723C99.6056 84.2029 99.6864 84.1329 99.7681 84.0621C101.846 82.2625 104.541 79.9532 108.217 79.9532C111.215 79.9532 113.479 81.6299 115.224 83.2801C115.874 83.8948 116.507 84.5622 117.09 85.1759C117.287 85.3843 117.479 85.5866 117.664 85.7785C118.428 86.5719 119.092 87.215 119.733 87.673L117.812 90.359C116.904 89.7095 116.059 88.8723 115.285 88.0684C115.066 87.8402 114.852 87.6152 114.642 87.3935C114.077 86.7986 113.534 86.227 112.955 85.6787C111.367 84.1767 109.903 83.2549 108.217 83.2549C105.941 83.2549 104.131 84.6516 101.93 86.558C101.839 86.6363 101.748 86.7157 101.656 86.7958C100.697 87.6288 99.6443 88.5427 98.5348 89.2499C97.2917 90.0425 95.8441 90.6669 94.1561 90.6669C92.4462 90.6669 90.9513 89.9914 89.6726 89.1536C88.4573 88.3574 87.3027 87.3211 86.2543 86.3801C86.2119 86.342 86.1697 86.3041 86.1276 86.2664C85.0012 85.2559 83.9837 84.3559 82.9449 83.6955C81.922 83.0452 81.0018 82.7099 80.0952 82.7099C79.1867 82.7099 78.2549 83.0465 77.2082 83.7017C76.1461 84.3665 75.1005 85.27 73.9332 86.2839L73.886 86.3249C72.7751 87.2899 71.5467 88.3569 70.2423 89.1725C68.9039 90.0094 67.3569 90.6669 65.5983 90.6669C63.8263 90.6669 62.3273 90 61.0549 89.1409C59.8511 88.3281 58.7491 87.2703 57.7646 86.3251C57.731 86.2928 57.6975 86.2607 57.6642 86.2287C55.4711 84.1242 53.855 82.7099 51.8645 82.7099C50.1924 82.7099 48.5618 83.8119 46.6802 85.5809C46.2289 86.0051 45.7846 86.4458 45.3323 86.8959L45.2504 86.9774C44.8297 87.396 44.3993 87.8243 43.9727 88.2288C43.0819 89.0735 42.093 89.9277 41.0321 90.4802L39.507 87.5518C40.1343 87.2251 40.8444 86.645 41.7009 85.8329C42.0974 85.4569 42.501 85.0553 42.9293 84.629L43.0034 84.5553C43.4537 84.1073 43.9288 83.6357 44.4186 83.1753Z" fill="black"/>
<path fill-rule="evenodd" clip-rule="evenodd" d="M45.6834 35.0851L65.752 35.7909L68.9792 32.9673L94.8975 35.0851C95.3351 36.6454 95.3612 37.4788 94.8975 38.8679H74.5712L79.5889 48.1061L103.964 50.7498L102.567 45.6671L121.5 49.225C121.5 54.3542 117.299 60.4582 112.939 60.4582C108.579 60.4582 104.764 55.6622 101.93 55.6622C99.0959 55.6622 96.589 60.4582 92.447 60.4582C88.305 60.4582 84.4901 55.6622 81.5471 55.6622C78.6041 55.6622 76.4241 58.7142 72.3912 58.7142C68.3582 58.7142 65.1973 54.3542 62.5813 54.3542C59.9653 54.3542 58.2213 58.7142 52.2264 58.7142C46.2314 58.7142 37.1845 48.2503 34.8394 43.2528L64.4343 46.4625L60.6193 38.8679H47.5709C46.0186 37.4608 45.7884 36.6147 45.6834 35.0851ZM75.7482 47.6896L71.1922 38.8679H64.4343L68.4484 46.8979L75.7482 47.6896Z" fill="black"/>
</svg>
