<svg width="164" height="168" viewBox="0 0 164 168" fill="none" xmlns="http://www.w3.org/2000/svg">
<path d="M77.9618 162.871C73.5386 162.674 69.9992 163.858 68.0329 165.238C66.0666 166.619 65.28 168 64.1002 168C62.9204 168 60.1676 166.619 60.1676 165.436C60.7723 164.861 61.6475 164.338 62.6921 163.858C68.1006 161.374 78.0493 160.051 78.5021 158.729C78.3842 160.007 78.2053 161.36 77.9618 162.871Z" fill="#CBC5C5"/>
<path d="M78.5021 151.228C78.5033 151.242 78.5045 151.255 78.5056 151.269C78.6233 152.937 75.0978 149.038 73.342 145.907C71.5723 142.751 70.5891 144.724 68.4262 145.907C66.2632 147.091 63.707 146.696 64.1002 148.077C64.4935 149.458 69.606 149.852 70.5891 149.852C71.5723 149.852 75.3083 149.852 75.5049 151.036C75.7016 152.219 70.1959 153.206 69.2127 153.206C68.2295 153.206 65.28 151.825 63.3137 150.247C61.3474 148.669 60.9541 145.513 60.9541 143.343C60.9541 141.173 60.9541 141.173 63.707 141.173C66.2632 141.173 68.6228 138.411 71.7689 138.411C73.5386 140.581 77.078 143.935 78.5021 151.228Z" fill="#CBC5C5"/>
<path d="M59.1844 143.343C59.1844 140.778 60.3642 141.962 60.3642 140.778C60.2331 140.252 59.5777 139.003 58.0046 138.214C56.0383 137.228 52.8922 135.847 53.6787 139.792C54.3079 142.948 54.8585 144.395 55.0551 144.724C57.1022 145.773 58.2606 146.515 60.3642 148.274C60.5608 145.907 59.1844 144.447 59.1844 143.343Z" fill="#CBC5C5"/>
<path d="M59.1844 148.471C56.4316 145.907 50.1393 143.343 45.0269 143.343C45.0269 144.329 44.6336 145.513 46.01 146.499C47.3865 147.485 49.1561 146.302 51.3191 147.288C53.0495 148.077 54.5308 150.115 55.0551 151.036C55.932 149.599 56.8642 149.046 59.1844 148.471Z" fill="#CBC5C5"/>
<path d="M49.1561 153.206C50.5719 152.732 50.9258 149.852 50.9258 148.471C48.173 146.499 47.1898 150.247 39.3245 145.513C38.6314 146.941 38.6634 147.809 38.9312 151.228C40.19 152.43 41.0085 153.014 42.8639 153.797C43.6099 149.23 44.8098 147.912 49.1561 149.063C47.9371 150.705 47.9034 151.564 49.1561 153.206Z" fill="#CBC5C5"/>
<path d="M61.7406 162.082C61.7406 161.096 59.5777 158.729 58.7912 158.729C58.0046 158.729 55.8417 162.871 52.4989 162.871C50.1352 162.871 46.3951 161.885 44.407 159.912C43.952 157.465 43.9269 155.77 44.1668 154.587C44.5648 152.624 45.6923 152.071 46.7966 151.825C46.7966 153.403 49.5494 155.178 51.3191 155.178C53.8753 155.178 57.4147 149.852 58.3979 149.852C59.3811 149.852 62.3305 152.022 62.9204 155.178C67.6396 155.376 74.1285 153.206 78.6426 153.403C78.6754 154.203 78.6849 154.985 78.67 155.77C73.7352 156.165 64.6901 162.674 61.7406 162.082Z" fill="#CBC5C5"/>
<path d="M50.5326 142.751C50.218 141.489 50.5981 140.515 50.9258 140.187C47.5851 132.94 44.5597 130.03 38.7346 125.392C37.9007 132.222 39.0821 135.552 46.4033 142.554L50.5326 142.751Z" fill="#CBC5C5"/>
<path d="M32.2457 143.343C32.2457 143.996 32.7739 144.526 33.4255 144.526C34.0771 144.526 34.6053 143.996 34.6053 143.343C34.6053 142.689 34.0771 142.159 33.4255 142.159C32.7739 142.159 32.2457 142.689 32.2457 143.343Z" fill="#CBC5C5"/>
<path d="M34.9986 129.337C34.9986 129.991 35.5268 130.521 36.1784 130.521C36.83 130.521 37.3582 129.991 37.3582 129.337C37.3582 128.684 36.83 128.154 36.1784 128.154C35.5268 128.154 34.9986 128.684 34.9986 129.337Z" fill="#CBC5C5"/>
<path d="M21.4309 112.965C21.4309 113.619 21.9591 114.149 22.6107 114.149C23.2623 114.149 23.7905 113.619 23.7905 112.965C23.7905 112.311 23.2623 111.782 22.6107 111.782C21.9591 111.782 21.4309 112.311 21.4309 112.965Z" fill="#CBC5C5"/>
<path d="M5.11041 102.905C5.11041 103.559 5.63862 104.088 6.2902 104.088C6.94179 104.088 7.47 103.559 7.47 102.905C7.47 102.251 6.94179 101.721 6.2902 101.721C5.63862 101.721 5.11041 102.251 5.11041 102.905Z" fill="#CBC5C5"/>
<path d="M14.7454 97.7762C14.7454 98.4299 15.2736 98.9598 15.9252 98.9598C16.5768 98.9598 17.105 98.4299 17.105 97.7762C17.105 97.1225 16.5768 96.5927 15.9252 96.5927C15.2736 96.5927 14.7454 97.1225 14.7454 97.7762Z" fill="#CBC5C5"/>
<path d="M13.1723 82.9819C13.1723 83.6355 13.7006 84.1654 14.3521 84.1654C15.0037 84.1654 15.5319 83.6355 15.5319 82.9819C15.5319 82.3282 15.0037 81.7983 14.3521 81.7983C13.7006 81.7983 13.1723 82.3282 13.1723 82.9819Z" fill="#CBC5C5"/>
<path d="M9.04306 60.0999C9.04306 60.7536 9.57127 61.2835 10.2229 61.2835C10.8744 61.2835 11.4027 60.7536 11.4027 60.0999C11.4027 59.4463 10.8744 58.9164 10.2229 58.9164C9.57127 58.9164 9.04306 59.4463 9.04306 60.0999Z" fill="#CBC5C5"/>
<path d="M18.0882 64.0451C18.0882 64.6988 18.6164 65.2287 19.268 65.2287C19.9195 65.2287 20.4478 64.6988 20.4478 64.0451C20.4478 63.3914 19.9195 62.8616 19.268 62.8616C18.6164 62.8616 18.0882 63.3914 18.0882 64.0451Z" fill="#CBC5C5"/>
<path d="M12.9757 46.4892C12.9757 47.1428 13.5039 47.6727 14.1555 47.6727C14.8071 47.6727 15.3353 47.1428 15.3353 46.4892C15.3353 45.8355 14.8071 45.3056 14.1555 45.3056C13.5039 45.3056 12.9757 45.8355 12.9757 46.4892Z" fill="#CBC5C5"/>
<path d="M21.0377 40.9659C21.0377 41.6196 21.5659 42.1495 22.2175 42.1495C22.869 42.1495 23.3973 41.6196 23.3973 40.9659C23.3973 40.3123 22.869 39.7824 22.2175 39.7824C21.5659 39.7824 21.0377 40.3123 21.0377 40.9659Z" fill="#CBC5C5"/>
<path d="M34.6053 36.8235C34.6053 37.4772 35.1335 38.0071 35.7851 38.0071C36.4367 38.0071 36.9649 37.4772 36.9649 36.8235C36.9649 36.1699 36.4367 35.64 35.7851 35.64C35.1335 35.64 34.6053 36.1699 34.6053 36.8235Z" fill="#CBC5C5"/>
<path d="M48.5662 21.2401C48.5662 21.8938 49.0945 22.4237 49.746 22.4237C50.3976 22.4237 50.9258 21.8938 50.9258 21.2401C50.9258 20.5865 50.3976 20.0566 49.746 20.0566C49.0945 20.0566 48.5662 20.5865 48.5662 21.2401Z" fill="#CBC5C5"/>
<path d="M39.3245 14.3361C39.3245 14.9898 39.8527 15.5197 40.5043 15.5197C41.1559 15.5197 41.6841 14.9898 41.6841 14.3361C41.6841 13.6825 41.1559 13.1526 40.5043 13.1526C39.8527 13.1526 39.3245 13.6825 39.3245 14.3361Z" fill="#CBC5C5"/>
<path d="M64.2969 13.1526C64.2969 13.8062 64.8251 14.3361 65.4767 14.3361C66.1283 14.3361 66.6565 13.8062 66.6565 13.1526C66.6565 12.4989 66.1283 11.969 65.4767 11.969C64.8251 11.969 64.2969 12.4989 64.2969 13.1526Z" fill="#CBC5C5"/>
<path d="M63.5103 3.68419C63.5103 4.33785 64.0386 4.86774 64.6901 4.86774C65.3417 4.86774 65.8699 4.33785 65.8699 3.68419C65.8699 3.03054 65.3417 2.50065 64.6901 2.50065C64.0386 2.50065 63.5103 3.03054 63.5103 3.68419Z" fill="#CBC5C5"/>
<path d="M43.8471 142.159C43.5849 142.883 43.2178 144.566 43.8471 145.513C37.1579 144.273 26.2211 134.609 26.9366 127.365C33.041 129.111 36.6802 132.207 43.8471 142.159Z" fill="#CBC5C5"/>
<path d="M36.1784 125.984C35.7851 120.264 27.7232 109.809 26.1501 110.598C24.5771 111.387 25.3636 125.59 31.8525 128.351C32.3244 127.247 34.933 126.313 36.1784 125.984Z" fill="#CBC5C5"/>
<path d="M31.6558 140.384C28.5097 137.031 22.8074 133.677 17.4983 134.466C18.8747 139.792 27.1333 142.948 30.476 144.526C30.0828 143.343 30.6727 140.976 31.6558 140.384Z" fill="#CBC5C5"/>
<path d="M37.3582 149.852C36.7683 148.077 37.7514 146.302 37.1615 146.104C36.6896 145.947 33.8188 145.776 32.4424 145.71C33.7799 147.434 34.8227 148.353 37.3582 149.852Z" fill="#CBC5C5"/>
<path d="M26.9366 125.984C26.1501 121.842 19.8579 111.584 17.105 112.571C14.3521 113.557 18.0882 128.746 25.7568 132.494C23.7905 128.351 24.921 125.984 26.9366 125.984Z" fill="#CBC5C5"/>
<path d="M24.7737 110.203C24.3804 104.483 25.3636 101.919 23.3973 97.7762C21.4309 93.6338 20.841 94.0283 20.0545 94.2256C19.268 94.4228 17.3016 100.341 18.0882 104.68C18.7174 108.152 19.6612 111.387 20.0545 112.571C20.3822 111.847 21.2736 110.282 22.2175 109.809C23.1613 109.336 24.3149 109.875 24.7737 110.203Z" fill="#CBC5C5"/>
<path d="M18.0882 111.782C17.9118 102.905 11.9926 94.8371 10.2229 95.0146C6.2902 95.4091 9.43633 113.754 14.7454 116.121C14.7454 111.782 15.9252 110.203 18.0882 111.782Z" fill="#CBC5C5"/>
<path d="M23.7905 133.085C17.8915 129.337 19.0713 126.576 15.5319 123.222C12.7004 120.54 8.97752 119.475 7.47 119.277C10.4745 127.891 13.7643 131.19 23.7905 133.085Z" fill="#CBC5C5"/>
<path d="M13.9589 119.869C12.7791 114.442 4.71714 102.905 2.35755 104.088C2.35755 106.653 6.57888 113.754 7.47 117.699C10.4588 118.015 13.0413 119.277 13.9589 119.869Z" fill="#CBC5C5"/>
<path d="M21.8242 80.2203C18.0882 81.7983 13.1723 87.5188 14.3521 95.8036C15.6106 94.2256 16.9739 94.6201 17.4983 95.0146C18.1408 93.2603 18.6562 92.6724 20.0545 92.8448C22.3183 87.8957 22.4512 85.1346 21.8242 80.2203Z" fill="#CBC5C5"/>
<path d="M9.43633 73.7107C6.8801 76.2751 4.3469 87.1285 7.47 96.5927C9.61435 93.3904 10.6504 93.9851 12.5825 93.831C13.0988 90.8812 13.2212 87.8919 13.0781 85.1517C12.7818 84.8229 12.1499 83.9287 11.9926 82.9819C11.8352 82.035 12.3584 81.2723 12.6397 81.0093C11.9497 76.7859 10.6458 73.8226 9.43633 73.7107Z" fill="#CBC5C5"/>
<path d="M1.37438 87.1243C1.37438 92.8448 2.29605 95.8816 2.35755 102.313C2.94745 103.694 5.11041 103.497 4.71714 99.5515C4.99836 100.492 6.80206 101.396 6.48684 96.7899C6.17161 92.1842 1.37438 87.1243 1.37438 87.1243Z" fill="#CBC5C5"/>
<path d="M23.9872 65.8204C23.8129 73.0156 22.1462 75.8925 18.0882 80.2203C17.133 78.3103 15.3353 81.0093 13.5656 79.234C17.4983 72.1327 15.9252 69.9628 19.268 67.793C21.1404 66.3731 22.1641 66.1477 23.9872 65.8204Z" fill="#CBC5C5"/>
<path d="M15.3353 57.3383C9.43633 63.4533 6.05564 67.3427 7.47 75.2888C9.49005 71.1041 10.7679 72.1341 13.1723 77.0641C16.724 69.2726 17.5263 64.948 15.3353 57.3383Z" fill="#CBC5C5"/>
<path d="M4.71714 89.0969C5.4035 83.1491 5.7003 80.2203 5.11041 77.0641C4.19949 74.8731 3.27452 73.8268 0.784485 72.3299C-0.164777 77.4953 -0.0865404 80.3813 0.784485 85.5462C3.00541 86.2633 3.66334 87.2364 4.71714 89.0969Z" fill="#CBC5C5"/>
<path d="M5.89694 75.2888C5.11041 68.7793 7.86327 65.2287 7.86327 61.2835C7.86327 57.3383 5.11041 54.9712 5.11041 54.9712C3.33284 62.0223 3.08096 65.7562 2.94745 72.3299C4.12687 72.774 4.77795 73.4615 5.89694 75.2888Z" fill="#CBC5C5"/>
<path d="M29.4929 51.8151C27.8002 57.2269 26.3584 59.9237 22.2175 63.6506C21.6505 62.0294 21.2505 61.6046 20.4478 61.2835C21.8131 58.5754 22.0276 57.0644 22.2175 54.3795C26.3573 51.6044 27.4841 51.6782 29.4929 51.8151Z" fill="#CBC5C5"/>
<path d="M18.6781 60.0999C16.1183 55.3277 14.9372 55.1625 13.0781 57.3383C13.1727 53.2658 13.8448 51.5823 15.3353 48.8563C16.7208 48.6541 16.971 47.8016 17.105 46.4892C19.2322 44.2557 20.3265 43.7567 22.2175 43.333C22.099 50.4158 21.5251 54.1738 18.6781 60.0999Z" fill="#CBC5C5"/>
<path d="M11.4027 44.1221C8.61348 46.5605 7.48488 48.6122 6.68347 54.1822C7.43975 54.8299 7.81374 55.7449 8.45316 57.7328C9.34984 56.7355 9.86798 56.5943 10.8128 56.9438C12.7299 52.038 12.7325 49.2322 11.4027 44.1221Z" fill="#CBC5C5"/>
<path d="M22.8074 52.4069C23.9571 44.756 29.4929 38.9934 34.6053 38.9934C36.5717 38.9934 37.6859 37.0208 38.3413 38.0071C38.6929 38.536 36.0242 42.9503 32.2457 46.6864C28.9791 49.9165 24.722 52.5898 22.8074 52.4069Z" fill="#CBC5C5"/>
<path d="M34.9986 26.5661C28.0426 28.2405 25.0077 30.3062 22.2175 37.4153C24.2542 39.2253 25.7846 39.9846 23.3973 44.7138C31.6054 38.2421 33.6838 34.1954 34.9986 26.5661Z" fill="#CBC5C5"/>
<path d="M21.0377 29.1305C16.2415 33.587 14.3512 36.5575 12.1892 42.544C12.1867 43.5088 12.2473 43.9981 12.7791 44.5166C13.6684 43.9986 14.4033 43.8603 16.5151 44.1221C20.5911 38.0764 21.3207 34.8154 21.0377 29.1305Z" fill="#CBC5C5"/>
<path d="M47.7797 17.295C38.8935 17.7883 35.0012 19.7904 30.0828 26.5661C35.7515 24.4314 37.0984 24.8229 36.1784 29.1305C42.778 25.259 44.9322 22.5242 47.7797 17.295Z" fill="#CBC5C5"/>
<path d="M38.1447 14.1389C37.7514 17.6895 28.7063 24.5935 22.0208 34.2592C24.3804 27.3551 25.1815 26.0202 22.2175 27.9469C27.7138 18.9581 31.2531 16.1937 38.1447 14.1389Z" fill="#CBC5C5"/>
<path d="M50.9258 25.9743C49.5234 24.4224 48.5684 23.8281 45.6168 24.199C41.8519 27.5208 39.8161 28.6647 36.3421 30.6165L36.1784 30.7085C35.5615 31.5434 35.2802 32.3077 34.9986 33.6674C40.4764 33.6789 43.9902 31.9484 50.9258 25.9743Z" fill="#CBC5C5"/>
<path d="M57.808 17.295C54.072 18.8731 49.1561 18.2813 49.1561 18.2813C49.0224 15.3616 47.4152 15.7372 45.2235 15.5197C52.4765 9.82028 56.7911 8.43689 65.0834 10.3707C61.1507 11.969 63.5103 14.8864 57.808 17.295Z" fill="#CBC5C5"/>
<path d="M51.1225 23.2127C58.4568 23.14 61.6919 21.9805 66.6565 18.8731C65.7721 16.5173 64.8584 15.9991 62.1339 15.7169C59.6415 19.0471 57.3811 20.0676 52.4989 21.0429C52.3087 22.0914 52.0419 22.6556 51.1225 23.2127Z" fill="#CBC5C5"/>
<path d="M62.1339 2.89516C61.5329 5.76179 60.8024 7.22155 56.8248 8.8129C53.3281 9.6234 52.2173 9.01722 44.6336 14.9279C43.9986 15.3274 43.654 15.4586 43.0605 15.5197C43.1492 13.868 42.9973 13.0898 42.4706 11.969C49.1986 6.06275 53.6792 4.51149 62.1339 2.89516Z" fill="#CBC5C5"/>
<path d="M80.6174 15.5197C80.0906 14.0209 79.4695 13.3457 77.8645 12.3635C75.9572 13.445 73.9863 13.6784 69.0161 13.5471C67.7534 14.2065 67.2078 14.6289 66.6565 15.5197C71.5507 17.598 74.6299 17.591 80.6174 15.5197Z" fill="#CBC5C5"/>
<path d="M80.6174 0.133552C79.6845 1.60732 79 2.43004 77.2746 3.88145C73.0418 3.61194 70.8304 3.90341 67.0497 4.86774C67.2539 3.94535 67.2023 3.42357 67.0497 2.50065C73.1435 0.082413 76.0197 -0.247386 80.6174 0.133552Z" fill="#CBC5C5"/>
<path d="M85.2413 162.871C89.6645 162.674 93.2039 163.858 95.1702 165.238C97.1366 166.619 97.9231 168 99.1029 168C100.283 168 103.036 166.619 103.036 165.436C102.431 164.861 101.556 164.338 100.511 163.858C95.1026 161.374 85.1539 160.051 84.701 158.729C84.8189 160.007 84.9978 161.36 85.2413 162.871Z" fill="#CBC5C5"/>
<path d="M84.701 151.228C84.6998 151.242 84.6987 151.255 84.6975 151.269C84.5799 152.937 88.1053 149.038 89.8612 145.907C91.6308 142.751 92.614 144.724 94.777 145.907C96.9399 147.091 99.4962 146.696 99.1029 148.077C98.7096 149.458 93.5972 149.852 92.614 149.852C91.6308 149.852 87.8948 149.852 87.6982 151.036C87.5016 152.219 93.0073 153.206 93.9904 153.206C94.9736 153.206 97.9231 151.825 99.8894 150.247C101.856 148.669 102.249 145.513 102.249 143.343C102.249 141.173 102.249 141.173 99.4962 141.173C96.9399 141.173 94.5803 138.411 91.4342 138.411C89.6645 140.581 86.1251 143.935 84.701 151.228Z" fill="#CBC5C5"/>
<path d="M104.019 143.343C104.019 140.778 102.839 141.962 102.839 140.778C102.97 140.252 103.625 139.003 105.199 138.214C107.165 137.228 110.311 135.847 109.524 139.792C108.895 142.948 108.345 144.395 108.148 144.724C106.101 145.773 104.942 146.515 102.839 148.274C102.642 145.907 104.019 144.447 104.019 143.343Z" fill="#CBC5C5"/>
<path d="M104.019 148.471C106.772 145.907 113.064 143.343 118.176 143.343C118.176 144.329 118.57 145.513 117.193 146.499C115.817 147.485 114.047 146.302 111.884 147.288C110.154 148.077 108.672 150.115 108.148 151.036C107.271 149.599 106.339 149.046 104.019 148.471Z" fill="#CBC5C5"/>
<path d="M114.047 153.206C112.631 152.732 112.277 149.852 112.277 148.471C115.03 146.499 116.013 150.247 123.879 145.513C124.572 146.941 124.54 147.809 124.272 151.228C123.013 152.43 122.195 153.014 120.339 153.797C119.593 149.23 118.393 147.912 114.047 149.063C115.266 150.705 115.3 151.564 114.047 153.206Z" fill="#CBC5C5"/>
<path d="M101.462 162.082C101.462 161.096 103.625 158.729 104.412 158.729C105.199 158.729 107.361 162.871 110.704 162.871C113.068 162.871 116.808 161.885 118.796 159.912C119.251 157.465 119.276 155.77 119.036 154.587C118.638 152.624 117.511 152.071 116.407 151.825C116.407 153.403 113.654 155.178 111.884 155.178C109.328 155.178 105.788 149.852 104.805 149.852C103.822 149.852 100.873 152.022 100.283 155.178C95.5635 155.376 89.0746 153.206 84.5606 153.403C84.5277 154.203 84.5182 154.985 84.5331 155.77C89.4679 156.165 98.513 162.674 101.462 162.082Z" fill="#CBC5C5"/>
<path d="M112.671 142.751C112.985 141.489 112.605 140.515 112.277 140.187C115.618 132.94 118.643 130.03 124.469 125.392C125.302 132.222 124.121 135.552 116.8 142.554L112.671 142.751Z" fill="#CBC5C5"/>
<path d="M130.957 143.343C130.957 143.996 130.429 144.526 129.778 144.526C129.126 144.526 128.598 143.996 128.598 143.343C128.598 142.689 129.126 142.159 129.778 142.159C130.429 142.159 130.957 142.689 130.957 143.343Z" fill="#CBC5C5"/>
<path d="M128.205 129.337C128.205 129.991 127.676 130.521 127.025 130.521C126.373 130.521 125.845 129.991 125.845 129.337C125.845 128.684 126.373 128.154 127.025 128.154C127.676 128.154 128.205 128.684 128.205 129.337Z" fill="#CBC5C5"/>
<path d="M141.772 112.965C141.772 113.619 141.244 114.149 140.592 114.149C139.941 114.149 139.413 113.619 139.413 112.965C139.413 112.311 139.941 111.782 140.592 111.782C141.244 111.782 141.772 112.311 141.772 112.965Z" fill="#CBC5C5"/>
<path d="M158.093 102.905C158.093 103.559 157.565 104.088 156.913 104.088C156.261 104.088 155.733 103.559 155.733 102.905C155.733 102.251 156.261 101.721 156.913 101.721C157.565 101.721 158.093 102.251 158.093 102.905Z" fill="#CBC5C5"/>
<path d="M148.458 97.7762C148.458 98.4299 147.93 98.9598 147.278 98.9598C146.626 98.9598 146.098 98.4299 146.098 97.7762C146.098 97.1225 146.626 96.5927 147.278 96.5927C147.93 96.5927 148.458 97.1225 148.458 97.7762Z" fill="#CBC5C5"/>
<path d="M150.031 82.9819C150.031 83.6355 149.503 84.1654 148.851 84.1654C148.199 84.1654 147.671 83.6355 147.671 82.9819C147.671 82.3282 148.199 81.7983 148.851 81.7983C149.503 81.7983 150.031 82.3282 150.031 82.9819Z" fill="#CBC5C5"/>
<path d="M154.16 60.0999C154.16 60.7536 153.632 61.2835 152.98 61.2835C152.329 61.2835 151.8 60.7536 151.8 60.0999C151.8 59.4463 152.329 58.9164 152.98 58.9164C153.632 58.9164 154.16 59.4463 154.16 60.0999Z" fill="#CBC5C5"/>
<path d="M145.115 64.0451C145.115 64.6988 144.587 65.2287 143.935 65.2287C143.284 65.2287 142.755 64.6988 142.755 64.0451C142.755 63.3914 143.284 62.8616 143.935 62.8616C144.587 62.8616 145.115 63.3914 145.115 64.0451Z" fill="#CBC5C5"/>
<path d="M150.227 46.4892C150.227 47.1428 149.699 47.6727 149.048 47.6727C148.396 47.6727 147.868 47.1428 147.868 46.4892C147.868 45.8355 148.396 45.3056 149.048 45.3056C149.699 45.3056 150.227 45.8355 150.227 46.4892Z" fill="#CBC5C5"/>
<path d="M142.165 40.9659C142.165 41.6196 141.637 42.1495 140.986 42.1495C140.334 42.1495 139.806 41.6196 139.806 40.9659C139.806 40.3123 140.334 39.7824 140.986 39.7824C141.637 39.7824 142.165 40.3123 142.165 40.9659Z" fill="#CBC5C5"/>
<path d="M128.598 36.8235C128.598 37.4772 128.07 38.0071 127.418 38.0071C126.766 38.0071 126.238 37.4772 126.238 36.8235C126.238 36.1699 126.766 35.64 127.418 35.64C128.07 35.64 128.598 36.1699 128.598 36.8235Z" fill="#CBC5C5"/>
<path d="M114.637 21.2401C114.637 21.8938 114.109 22.4237 113.457 22.4237C112.806 22.4237 112.277 21.8938 112.277 21.2401C112.277 20.5865 112.806 20.0566 113.457 20.0566C114.109 20.0566 114.637 20.5865 114.637 21.2401Z" fill="#CBC5C5"/>
<path d="M123.879 14.3361C123.879 14.9898 123.35 15.5197 122.699 15.5197C122.047 15.5197 121.519 14.9898 121.519 14.3361C121.519 13.6825 122.047 13.1526 122.699 13.1526C123.35 13.1526 123.879 13.6825 123.879 14.3361Z" fill="#CBC5C5"/>
<path d="M98.9063 13.1526C98.9063 13.8062 98.378 14.3361 97.7265 14.3361C97.0749 14.3361 96.5467 13.8062 96.5467 13.1526C96.5467 12.4989 97.0749 11.969 97.7265 11.969C98.378 11.969 98.9063 12.4989 98.9063 13.1526Z" fill="#CBC5C5"/>
<path d="M99.6928 3.68419C99.6928 4.33785 99.1646 4.86774 98.513 4.86774C97.8614 4.86774 97.3332 4.33785 97.3332 3.68419C97.3332 3.03054 97.8614 2.50065 98.513 2.50065C99.1646 2.50065 99.6928 3.03054 99.6928 3.68419Z" fill="#CBC5C5"/>
<path d="M119.356 142.159C119.618 142.883 119.985 144.566 119.356 145.513C126.045 144.273 136.982 134.609 136.266 127.365C130.162 129.111 126.523 132.207 119.356 142.159Z" fill="#CBC5C5"/>
<path d="M127.025 125.984C127.418 120.264 135.48 109.809 137.053 110.598C138.626 111.387 137.84 125.59 131.351 128.351C130.879 127.247 128.27 126.313 127.025 125.984Z" fill="#CBC5C5"/>
<path d="M131.547 140.384C134.693 137.031 140.396 133.677 145.705 134.466C144.328 139.792 136.07 142.948 132.727 144.526C133.12 143.343 132.53 140.976 131.547 140.384Z" fill="#CBC5C5"/>
<path d="M125.845 149.852C126.435 148.077 125.452 146.302 126.042 146.104C126.513 145.947 129.384 145.776 130.761 145.71C129.423 147.434 128.38 148.353 125.845 149.852Z" fill="#CBC5C5"/>
<path d="M136.266 125.984C137.053 121.842 143.345 111.584 146.098 112.571C148.851 113.557 145.115 128.746 137.446 132.494C139.413 128.351 138.282 125.984 136.266 125.984Z" fill="#CBC5C5"/>
<path d="M138.429 110.203C138.823 104.483 137.84 101.919 139.806 97.7762C141.772 93.6338 142.362 94.0283 143.149 94.2256C143.935 94.4228 145.901 100.341 145.115 104.68C144.486 108.152 143.542 111.387 143.149 112.571C142.821 111.847 141.93 110.282 140.986 109.809C140.042 109.336 138.888 109.875 138.429 110.203Z" fill="#CBC5C5"/>
<path d="M145.115 111.782C145.291 102.905 151.211 94.8371 152.98 95.0146C156.913 95.4091 153.767 113.754 148.458 116.121C148.458 111.782 147.278 110.203 145.115 111.782Z" fill="#CBC5C5"/>
<path d="M139.413 133.085C145.312 129.337 144.132 126.576 147.671 123.222C150.503 120.54 154.226 119.475 155.733 119.277C152.729 127.891 149.439 131.19 139.413 133.085Z" fill="#CBC5C5"/>
<path d="M149.244 119.869C150.424 114.442 158.486 102.905 160.846 104.088C160.846 106.653 156.624 113.754 155.733 117.699C152.744 118.015 150.162 119.277 149.244 119.869Z" fill="#CBC5C5"/>
<path d="M141.379 80.2203C145.115 81.7983 150.031 87.5188 148.851 95.8036C147.593 94.2256 146.229 94.6201 145.705 95.0146C145.062 93.2603 144.547 92.6724 143.149 92.8448C140.885 87.8957 140.752 85.1346 141.379 80.2203Z" fill="#CBC5C5"/>
<path d="M153.767 73.7107C156.323 76.2751 158.856 87.1285 155.733 96.5927C153.589 93.3904 152.553 93.9851 150.621 93.831C150.104 90.8812 149.982 87.8919 150.125 85.1517C150.421 84.8229 151.053 83.9287 151.211 82.9819C151.368 82.035 150.845 81.2723 150.563 81.0093C151.253 76.7859 152.557 73.8226 153.767 73.7107Z" fill="#CBC5C5"/>
<path d="M161.829 87.1243C161.829 92.8448 160.907 95.8816 160.846 102.313C160.256 103.694 158.093 103.497 158.486 99.5515C158.205 100.492 156.401 101.396 156.716 96.7899C157.032 92.1842 161.829 87.1243 161.829 87.1243Z" fill="#CBC5C5"/>
<path d="M139.216 65.8204C139.39 73.0156 141.057 75.8925 145.115 80.2203C146.07 78.3103 147.868 81.0093 149.638 79.234C145.705 72.1327 147.278 69.9628 143.935 67.793C142.063 66.3731 141.039 66.1477 139.216 65.8204Z" fill="#CBC5C5"/>
<path d="M147.868 57.3383C153.767 63.4533 157.147 67.3427 155.733 75.2888C153.713 71.1041 152.435 72.1341 150.031 77.0641C146.479 69.2726 145.677 64.948 147.868 57.3383Z" fill="#CBC5C5"/>
<path d="M158.486 89.0969C157.8 83.1491 157.503 80.2203 158.093 77.0641C159.004 74.8731 159.929 73.8268 162.419 72.3299C163.368 77.4953 163.29 80.3813 162.419 85.5462C160.198 86.2633 159.54 87.2364 158.486 89.0969Z" fill="#CBC5C5"/>
<path d="M157.306 75.2888C158.093 68.7793 155.34 65.2287 155.34 61.2835C155.34 57.3383 158.093 54.9712 158.093 54.9712C159.87 62.0223 160.122 65.7562 160.256 72.3299C159.076 72.774 158.425 73.4615 157.306 75.2888Z" fill="#CBC5C5"/>
<path d="M133.71 51.8151C135.403 57.2269 136.845 59.9237 140.986 63.6506C141.553 62.0294 141.953 61.6046 142.755 61.2835C141.39 58.5754 141.176 57.0644 140.986 54.3795C136.846 51.6044 135.719 51.6782 133.71 51.8151Z" fill="#CBC5C5"/>
<path d="M144.525 60.0999C147.085 55.3277 148.266 55.1625 150.125 57.3383C150.03 53.2658 149.358 51.5823 147.868 48.8563C146.482 48.6541 146.232 47.8016 146.098 46.4892C143.971 44.2557 142.877 43.7567 140.986 43.333C141.104 50.4158 141.678 54.1738 144.525 60.0999Z" fill="#CBC5C5"/>
<path d="M151.8 44.1221C154.59 46.5605 155.718 48.6122 156.52 54.1822C155.763 54.8299 155.389 55.7449 154.75 57.7328C153.853 56.7355 153.335 56.5943 152.39 56.9438C150.473 52.038 150.471 49.2322 151.8 44.1221Z" fill="#CBC5C5"/>
<path d="M140.396 52.4069C139.246 44.756 133.71 38.9934 128.598 38.9934C126.631 38.9934 125.517 37.0208 124.862 38.0071C124.51 38.536 127.179 42.9503 130.957 46.6864C134.224 49.9165 138.481 52.5898 140.396 52.4069Z" fill="#CBC5C5"/>
<path d="M128.205 26.5661C135.161 28.2405 138.195 30.3062 140.986 37.4153C138.949 39.2253 137.418 39.9846 139.806 44.7138C131.598 38.2421 129.519 34.1954 128.205 26.5661Z" fill="#CBC5C5"/>
<path d="M142.165 29.1305C146.962 33.587 148.852 36.5575 151.014 42.544C151.016 43.5088 150.956 43.9981 150.424 44.5166C149.535 43.9986 148.8 43.8603 146.688 44.1221C142.612 38.0764 141.882 34.8154 142.165 29.1305Z" fill="#CBC5C5"/>
<path d="M115.423 17.295C124.31 17.7883 128.202 19.7904 133.12 26.5661C127.452 24.4314 126.105 24.8229 127.025 29.1305C120.425 25.259 118.271 22.5242 115.423 17.295Z" fill="#CBC5C5"/>
<path d="M125.058 14.1389C125.452 17.6895 134.497 24.5935 141.182 34.2592C138.823 27.3551 138.022 26.0202 140.986 27.9469C135.489 18.9581 131.95 16.1937 125.058 14.1389Z" fill="#CBC5C5"/>
<path d="M112.277 25.9743C113.68 24.4224 114.635 23.8281 117.586 24.199C121.351 27.5208 123.387 28.6647 126.861 30.6165L127.025 30.7085C127.642 31.5434 127.923 32.3077 128.205 33.6674C122.727 33.6789 119.213 31.9484 112.277 25.9743Z" fill="#CBC5C5"/>
<path d="M105.395 17.295C109.131 18.8731 114.047 18.2813 114.047 18.2813C114.181 15.3616 115.788 15.7372 117.98 15.5197C110.727 9.82028 106.412 8.43689 98.1197 10.3707C102.052 11.969 99.6928 14.8864 105.395 17.295Z" fill="#CBC5C5"/>
<path d="M112.081 23.2127C104.746 23.14 101.511 21.9805 96.5467 18.8731C97.431 16.5173 98.3448 15.9991 101.069 15.7169C103.562 19.0471 105.822 20.0676 110.704 21.0429C110.894 22.0914 111.161 22.6556 112.081 23.2127Z" fill="#CBC5C5"/>
<path d="M101.069 2.89516C101.67 5.76179 102.401 7.22155 106.378 8.8129C109.875 9.6234 110.986 9.01722 118.57 14.9279C119.205 15.3274 119.549 15.4586 120.143 15.5197C120.054 13.868 120.206 13.0898 120.732 11.969C114.004 6.06275 109.524 4.51149 101.069 2.89516Z" fill="#CBC5C5"/>
<path d="M82.5857 15.5197C83.1125 14.0209 83.7336 13.3457 85.3386 12.3635C87.2459 13.445 89.2168 13.6784 94.1871 13.5471C95.4497 14.2065 95.9954 14.6289 96.5467 15.5197C91.6524 17.598 88.5732 17.591 82.5857 15.5197Z" fill="#CBC5C5"/>
<path d="M82.5857 0.133552C83.5186 1.60732 84.2031 2.43004 85.9285 3.88145C90.1613 3.61194 92.3727 3.90341 96.1534 4.86774C95.9492 3.94535 96.0009 3.42357 96.1534 2.50065C90.0596 0.082413 87.1834 -0.247386 82.5857 0.133552Z" fill="#CBC5C5"/>
<path d="M77.8645 163.463C77.8645 163.463 79.8319 163.858 81.6016 163.858C83.3713 163.858 85.3386 163.463 85.3386 163.463C85.3051 163.263 85.2727 163.066 85.2413 162.871C84.9978 161.36 84.8189 160.007 84.701 158.729C84.6068 157.709 84.5515 156.737 84.5331 155.77C84.5182 154.985 84.5277 154.203 84.5606 153.403C84.589 152.711 84.6348 152.004 84.6975 151.269L84.701 151.228C84.8375 149.64 85.0523 147.915 85.3386 145.907C85.3386 145.907 83.5679 145.513 81.6016 145.513C79.6352 145.513 77.8645 145.907 77.8645 145.907C78.1509 147.915 78.3656 149.64 78.5021 151.228L78.5056 151.269C78.5683 152.004 78.6142 152.711 78.6426 153.403C78.6754 154.203 78.6849 154.985 78.67 155.77C78.6516 156.737 78.5963 157.709 78.5021 158.729C78.3842 160.007 78.2053 161.36 77.9618 162.871C77.9305 163.066 77.898 163.263 77.8645 163.463Z" fill="#CBC5C5"/>
<path fill-rule="evenodd" clip-rule="evenodd" d="M77.8645 145.907C77.8645 145.907 79.6352 145.513 81.6016 145.513C83.5679 145.513 85.3386 145.907 85.3386 145.907C85.0523 147.915 84.8375 149.64 84.701 151.228C86.1251 143.935 89.6645 140.581 91.4342 138.411C94.5803 138.411 96.9399 141.173 99.4962 141.173C102.249 141.173 102.249 141.173 102.249 143.343C102.249 145.513 101.856 148.669 99.8894 150.247C97.9231 151.825 94.9736 153.206 93.9904 153.206C93.0073 153.206 87.5016 152.219 87.6982 151.036C87.8948 149.852 91.6308 149.852 92.614 149.852C93.5972 149.852 98.7096 149.458 99.1029 148.077C99.4962 146.696 96.9399 147.091 94.777 145.907C92.614 144.724 91.6308 142.751 89.8612 145.907C88.1053 149.038 84.5799 152.937 84.6975 151.269C84.6348 152.004 84.589 152.711 84.5606 153.403C89.0746 153.206 95.5635 155.376 100.283 155.178C100.873 152.022 103.822 149.852 104.805 149.852C105.788 149.852 109.328 155.178 111.884 155.178C113.654 155.178 116.407 153.403 116.407 151.825C117.511 152.071 118.638 152.624 119.036 154.587L120.339 153.797C119.593 149.23 118.393 147.912 114.047 149.063C115.266 150.705 115.3 151.564 114.047 153.206C112.631 152.732 112.277 149.852 112.277 148.471C115.03 146.499 116.013 150.247 123.879 145.513C124.572 146.941 124.54 147.809 124.272 151.228L125.845 149.852C126.435 148.077 125.452 146.302 126.042 146.104C126.513 145.947 129.384 145.776 130.761 145.71L132.727 144.526C133.12 143.343 132.53 140.976 131.547 140.384C134.693 137.031 140.396 133.677 145.705 134.466L139.413 133.085C145.312 129.337 144.132 126.576 147.671 123.222C150.503 120.54 154.226 119.475 155.733 119.277V117.699C152.744 118.015 150.162 119.277 149.244 119.869C150.424 114.442 158.486 102.905 160.846 104.088V102.313C160.256 103.694 158.093 103.497 158.486 99.5515C158.205 100.492 156.401 101.396 156.716 96.7899C157.032 92.1842 161.829 87.1243 161.829 87.1243L162.419 85.5462C160.198 86.2633 159.54 87.2364 158.486 89.0969C157.8 83.1491 157.503 80.2203 158.093 77.0641C159.004 74.8731 159.929 73.8268 162.419 72.3299H160.256C159.076 72.774 158.425 73.4615 157.306 75.2888C158.093 68.7793 155.34 65.2287 155.34 61.2835C155.34 57.3383 158.093 54.9712 158.093 54.9712L156.52 54.1822C155.763 54.8299 155.389 55.7449 154.75 57.7328C153.853 56.7355 153.335 56.5943 152.39 56.9438C150.473 52.038 150.471 49.2322 151.8 44.1221L151.014 42.544C151.016 43.5088 150.956 43.9981 150.424 44.5166C149.535 43.9986 148.8 43.8603 146.688 44.1221C142.612 38.0764 141.882 34.8154 142.165 29.1305L140.986 27.9469C138.022 26.0202 138.823 27.3551 141.182 34.2592C134.497 24.5935 125.452 17.6895 125.058 14.1389L123.879 14.3361C123.879 14.9898 123.35 15.5197 122.699 15.5197C122.047 15.5197 121.519 14.9898 121.519 14.3361L120.732 11.969C120.206 13.0898 120.054 13.868 120.143 15.5197C119.549 15.4586 119.205 15.3274 118.57 14.9279C110.986 9.01722 109.875 9.6234 106.378 8.8129C102.401 7.22155 101.67 5.76179 101.069 2.89516L99.6928 3.68419C99.6928 4.33785 99.1646 4.86774 98.513 4.86774C97.8614 4.86774 97.3332 4.33785 97.3332 3.68419L96.1534 2.50065C96.0009 3.42357 95.9492 3.94535 96.1534 4.86774C92.3727 3.90341 90.1613 3.61194 85.9285 3.88145C84.2031 2.43004 83.5186 1.60732 82.5857 0.133552H82.5847H80.6184H80.6174C79.6845 1.60732 79 2.43004 77.2746 3.88145C73.0418 3.61194 70.8304 3.90341 67.0497 4.86774C67.2539 3.94535 67.2023 3.42357 67.0497 2.50065L65.8699 3.68419C65.8699 4.33785 65.3417 4.86774 64.6901 4.86774C64.0386 4.86774 63.5103 4.33785 63.5103 3.68419L62.1339 2.89516C61.5329 5.76179 60.8024 7.22155 56.8248 8.8129C53.3281 9.6234 52.2173 9.01722 44.6336 14.9279C43.9986 15.3274 43.654 15.4586 43.0605 15.5197C43.1492 13.868 42.9973 13.0898 42.4706 11.969L41.6841 14.3361C41.6841 14.9898 41.1559 15.5197 40.5043 15.5197C39.8527 15.5197 39.3245 14.9898 39.3245 14.3361L38.1447 14.1389C37.7514 17.6895 28.7063 24.5935 22.0208 34.2592C24.3804 27.3551 25.1815 26.0202 22.2175 27.9469L21.0377 29.1305C21.3207 34.8154 20.5911 38.0764 16.5151 44.1221C14.4033 43.8603 13.6684 43.9986 12.7791 44.5166C12.2473 43.9981 12.1867 43.5088 12.1892 42.544L11.4027 44.1221C12.7325 49.2322 12.7299 52.038 10.8128 56.9438C9.86798 56.5943 9.34984 56.7355 8.45316 57.7328C7.81374 55.7449 7.43975 54.8299 6.68347 54.1822L5.11041 54.9712C5.11041 54.9712 7.86327 57.3383 7.86327 61.2835C7.86327 65.2287 5.11041 68.7793 5.89694 75.2888C4.77795 73.4615 4.12687 72.774 2.94745 72.3299H0.784485C3.27452 73.8268 4.19949 74.8731 5.11041 77.0641C5.7003 80.2203 5.4035 83.1491 4.71714 89.0969C3.66334 87.2364 3.00541 86.2633 0.784485 85.5462L1.37438 87.1243C1.37438 87.1243 6.17161 92.1842 6.48684 96.7899C6.80206 101.396 4.99836 100.492 4.71714 99.5515C5.11041 103.497 2.94745 103.694 2.35755 102.313V104.088C4.71714 102.905 12.7791 114.442 13.9589 119.869C13.0413 119.277 10.4588 118.015 7.47 117.699V119.277C8.97752 119.475 12.7004 120.54 15.5319 123.222C19.0713 126.576 17.8915 129.337 23.7905 133.085L17.4983 134.466C22.8074 133.677 28.5097 137.031 31.6558 140.384C30.6727 140.976 30.0828 143.343 30.476 144.526L32.4424 145.71C33.8188 145.776 36.6896 145.947 37.1615 146.104C37.7514 146.302 36.7683 148.077 37.3582 149.852L38.9312 151.228C38.6634 147.809 38.6314 146.941 39.3245 145.513C47.1898 150.247 48.173 146.499 50.9258 148.471C50.9258 149.852 50.5719 152.732 49.1561 153.206C47.9034 151.564 47.9371 150.705 49.1561 149.063C44.8098 147.912 43.6099 149.23 42.8639 153.797L44.1668 154.587C44.5648 152.624 45.6923 152.071 46.7966 151.825C46.7966 153.403 49.5494 155.178 51.3191 155.178C53.8753 155.178 57.4147 149.852 58.3979 149.852C59.3811 149.852 62.3305 152.022 62.9204 155.178C67.6396 155.376 74.1285 153.206 78.6426 153.403C78.6142 152.711 78.5683 152.004 78.5056 151.269C78.6233 152.937 75.0978 149.038 73.342 145.907C71.5723 142.751 70.5891 144.724 68.4262 145.907C66.2632 147.091 63.707 146.696 64.1002 148.077C64.4935 149.458 69.606 149.852 70.5891 149.852C71.5723 149.852 75.3083 149.852 75.5049 151.036C75.7016 152.219 70.1959 153.206 69.2127 153.206C68.2295 153.206 65.28 151.825 63.3137 150.247C61.3474 148.669 60.9541 145.513 60.9541 143.343C60.9541 141.173 60.9541 141.173 63.707 141.173C66.2632 141.173 68.6228 138.411 71.7689 138.411C73.5386 140.581 77.078 143.935 78.5021 151.228C78.3656 149.64 78.1509 147.915 77.8645 145.907ZM60.3642 140.778C60.3642 141.962 59.1844 140.778 59.1844 143.343C59.1844 144.447 60.5608 145.907 60.3642 148.274C58.2606 146.515 57.1022 145.773 55.0551 144.724C54.8585 144.395 54.3079 142.948 53.6787 139.792C52.8922 135.847 56.0383 137.228 58.0046 138.214C59.5777 139.003 60.2331 140.252 60.3642 140.778ZM45.0269 143.343C50.1393 143.343 56.4316 145.907 59.1844 148.471C56.8642 149.046 55.932 149.599 55.0551 151.036C54.5308 150.115 53.0495 148.077 51.3191 147.288C49.1561 146.302 47.3865 147.485 46.01 146.499C44.6336 145.513 45.0269 144.329 45.0269 143.343ZM50.9258 140.187C50.5981 140.515 50.218 141.489 50.5326 142.751L46.4033 142.554C39.0821 135.552 37.9007 132.222 38.7346 125.392C44.5597 130.03 47.5851 132.94 50.9258 140.187ZM43.8471 145.513C43.2178 144.566 43.5849 142.883 43.8471 142.159C36.6802 132.207 33.041 129.111 26.9366 127.365C26.2211 134.609 37.1579 144.273 43.8471 145.513ZM33.4255 144.526C32.7739 144.526 32.2457 143.996 32.2457 143.343C32.2457 142.689 32.7739 142.159 33.4255 142.159C34.0771 142.159 34.6053 142.689 34.6053 143.343C34.6053 143.996 34.0771 144.526 33.4255 144.526ZM36.1784 130.521C35.5268 130.521 34.9986 129.991 34.9986 129.337C34.9986 128.684 35.5268 128.154 36.1784 128.154C36.83 128.154 37.3582 128.684 37.3582 129.337C37.3582 129.991 36.83 130.521 36.1784 130.521ZM22.6107 114.149C21.9591 114.149 21.4309 113.619 21.4309 112.965C21.4309 112.311 21.9591 111.782 22.6107 111.782C23.2623 111.782 23.7905 112.311 23.7905 112.965C23.7905 113.619 23.2623 114.149 22.6107 114.149ZM6.2902 104.088C5.63862 104.088 5.11041 103.559 5.11041 102.905C5.11041 102.251 5.63862 101.721 6.2902 101.721C6.94179 101.721 7.47 102.251 7.47 102.905C7.47 103.559 6.94179 104.088 6.2902 104.088ZM15.9252 98.9598C15.2736 98.9598 14.7454 98.4299 14.7454 97.7762C14.7454 97.1225 15.2736 96.5927 15.9252 96.5927C16.5768 96.5927 17.105 97.1225 17.105 97.7762C17.105 98.4299 16.5768 98.9598 15.9252 98.9598ZM14.3521 84.1654C13.7006 84.1654 13.1723 83.6355 13.1723 82.9819C13.1723 82.3282 13.7006 81.7983 14.3521 81.7983C15.0037 81.7983 15.5319 82.3282 15.5319 82.9819C15.5319 83.6355 15.0037 84.1654 14.3521 84.1654ZM10.2229 61.2835C9.57127 61.2835 9.04306 60.7536 9.04306 60.0999C9.04306 59.4463 9.57127 58.9164 10.2229 58.9164C10.8744 58.9164 11.4027 59.4463 11.4027 60.0999C11.4027 60.7536 10.8744 61.2835 10.2229 61.2835ZM19.268 65.2287C18.6164 65.2287 18.0882 64.6988 18.0882 64.0451C18.0882 63.3914 18.6164 62.8616 19.268 62.8616C19.9195 62.8616 20.4478 63.3914 20.4478 64.0451C20.4478 64.6988 19.9195 65.2287 19.268 65.2287ZM14.1555 47.6727C13.5039 47.6727 12.9757 47.1428 12.9757 46.4892C12.9757 45.8355 13.5039 45.3056 14.1555 45.3056C14.8071 45.3056 15.3353 45.8355 15.3353 46.4892C15.3353 47.1428 14.8071 47.6727 14.1555 47.6727ZM22.2175 42.1495C21.5659 42.1495 21.0377 41.6196 21.0377 40.9659C21.0377 40.3123 21.5659 39.7824 22.2175 39.7824C22.869 39.7824 23.3973 40.3123 23.3973 40.9659C23.3973 41.6196 22.869 42.1495 22.2175 42.1495ZM35.7851 38.0071C35.1335 38.0071 34.6053 37.4772 34.6053 36.8235C34.6053 36.1699 35.1335 35.64 35.7851 35.64C36.4367 35.64 36.9649 36.1699 36.9649 36.8235C36.9649 37.4772 36.4367 38.0071 35.7851 38.0071ZM49.746 22.4237C49.0945 22.4237 48.5662 21.8938 48.5662 21.2401C48.5662 20.5865 49.0945 20.0566 49.746 20.0566C50.3976 20.0566 50.9258 20.5865 50.9258 21.2401C50.9258 21.8938 50.3976 22.4237 49.746 22.4237ZM65.4767 14.3361C64.8251 14.3361 64.2969 13.8062 64.2969 13.1526C64.2969 12.4989 64.8251 11.969 65.4767 11.969C66.1283 11.969 66.6565 12.4989 66.6565 13.1526C66.6565 13.8062 66.1283 14.3361 65.4767 14.3361ZM26.1501 110.598C27.7232 109.809 35.7851 120.264 36.1784 125.984C34.933 126.313 32.3244 127.247 31.8525 128.351C25.3636 125.59 24.5771 111.387 26.1501 110.598ZM17.105 112.571C19.8579 111.584 26.1501 121.842 26.9366 125.984C24.921 125.984 23.7905 128.351 25.7568 132.494C18.0882 128.746 14.3521 113.557 17.105 112.571ZM23.3973 97.7762C25.3636 101.919 24.3804 104.483 24.7737 110.203C24.3149 109.875 23.1613 109.336 22.2175 109.809C21.2736 110.282 20.3822 111.847 20.0545 112.571C19.6612 111.387 18.7174 108.152 18.0882 104.68C17.3016 100.341 19.268 94.4228 20.0545 94.2256C20.841 94.0283 21.4309 93.6338 23.3973 97.7762ZM10.2229 95.0146C11.9926 94.8371 17.9118 102.905 18.0882 111.782C15.9252 110.203 14.7454 111.782 14.7454 116.121C9.43633 113.754 6.2902 95.4091 10.2229 95.0146ZM14.3521 95.8036C13.1723 87.5188 18.0882 81.7983 21.8242 80.2203C22.4512 85.1346 22.3183 87.8957 20.0545 92.8448C18.6562 92.6724 18.1408 93.2603 17.4983 95.0146C16.9739 94.6201 15.6106 94.2256 14.3521 95.8036ZM7.47 96.5927C4.3469 87.1285 6.8801 76.2751 9.43633 73.7107C10.6458 73.8226 11.9497 76.7859 12.6397 81.0093C12.3584 81.2723 11.8352 82.035 11.9926 82.9819C12.1499 83.9287 12.7818 84.8229 13.0781 85.1517C13.2212 87.8919 13.0988 90.8812 12.5825 93.831C10.6504 93.9851 9.61435 93.3904 7.47 96.5927ZM18.0882 80.2203C22.1462 75.8925 23.8129 73.0156 23.9872 65.8204C22.1641 66.1477 21.1404 66.3731 19.268 67.793C15.9252 69.9628 17.4983 72.1327 13.5656 79.234C15.3353 81.0093 17.133 78.3103 18.0882 80.2203ZM7.47 75.2888C6.05564 67.3427 9.43633 63.4533 15.3353 57.3383C17.5263 64.948 16.724 69.2726 13.1723 77.0641C10.7679 72.1341 9.49005 71.1041 7.47 75.2888ZM22.2175 63.6506C26.3584 59.9237 27.8002 57.2269 29.4929 51.8151C27.4841 51.6782 26.3573 51.6044 22.2175 54.3795C22.0276 57.0644 21.8131 58.5754 20.4478 61.2835C21.2505 61.6046 21.6505 62.0294 22.2175 63.6506ZM13.0781 57.3383C14.9372 55.1625 16.1183 55.3277 18.6781 60.0999C21.5251 54.1738 22.099 50.4158 22.2175 43.333C20.3265 43.7567 19.2322 44.2557 17.105 46.4892C16.971 47.8016 16.7208 48.6541 15.3353 48.8563C13.8448 51.5823 13.1727 53.2658 13.0781 57.3383ZM34.6053 38.9934C29.4929 38.9934 23.9571 44.756 22.8074 52.4069C24.722 52.5898 28.9791 49.9165 32.2457 46.6864C36.0242 42.9503 38.6929 38.536 38.3413 38.0071C37.6859 37.0208 36.5717 38.9934 34.6053 38.9934ZM22.2175 37.4153C25.0077 30.3062 28.0426 28.2405 34.9986 26.5661C33.6838 34.1954 31.6054 38.2421 23.3973 44.7138C25.7846 39.9846 24.2542 39.2253 22.2175 37.4153ZM30.0828 26.5661C35.0012 19.7904 38.8935 17.7883 47.7797 17.295C44.9322 22.5242 42.778 25.259 36.1784 29.1305C37.0984 24.8229 35.7515 24.4314 30.0828 26.5661ZM45.6168 24.199C48.5684 23.8281 49.5234 24.4224 50.9258 25.9743C43.9902 31.9484 40.4764 33.6789 34.9986 33.6674C35.2802 32.3077 35.5615 31.5434 36.1784 30.7085L36.3421 30.6165C39.8161 28.6647 41.8519 27.5208 45.6168 24.199ZM49.1561 18.2813C49.1561 18.2813 54.072 18.8731 57.808 17.295C63.5103 14.8864 61.1507 11.969 65.0834 10.3707C56.7911 8.43689 52.4765 9.82028 45.2235 15.5197C47.4152 15.7372 49.0224 15.3616 49.1561 18.2813ZM66.6565 18.8731C61.6919 21.9805 58.4568 23.14 51.1225 23.2127C52.0419 22.6556 52.3087 22.0914 52.4989 21.0429C57.3811 20.0676 59.6415 19.0471 62.1339 15.7169C64.8584 15.9991 65.7721 16.5173 66.6565 18.8731ZM81.6016 8.90762C78.6737 10.7866 77.0036 11.5745 72.7521 11.5745C69.3468 11.5745 68.0148 10.7657 66.7925 10.0235C65.7562 9.39425 64.7988 8.8129 62.7238 8.8129C69.9892 4.02894 74.442 3.65858 81.6016 6.73397C88.7611 3.65858 93.214 4.02894 100.479 8.8129C98.4043 8.8129 97.4469 9.39425 96.4107 10.0235C95.1884 10.7657 93.8563 11.5745 90.451 11.5745C86.1996 11.5745 84.5294 10.7866 81.6016 8.90762ZM77.8645 12.3635C79.4695 13.3457 80.0906 14.0209 80.6174 15.5197C74.6299 17.591 71.5507 17.598 66.6565 15.5197C67.2078 14.6289 67.7534 14.2065 69.0161 13.5471C73.9863 13.6784 75.9572 13.445 77.8645 12.3635ZM102.839 140.778C102.839 141.962 104.019 140.778 104.019 143.343C104.019 144.447 102.642 145.907 102.839 148.274C104.942 146.515 106.101 145.773 108.148 144.724C108.345 144.395 108.895 142.948 109.524 139.792C110.311 135.847 107.165 137.228 105.199 138.214C103.625 139.003 102.97 140.252 102.839 140.778ZM118.176 143.343C113.064 143.343 106.772 145.907 104.019 148.471C106.339 149.046 107.271 149.599 108.148 151.036C108.672 150.115 110.154 148.077 111.884 147.288C114.047 146.302 115.817 147.485 117.193 146.499C118.57 145.513 118.176 144.329 118.176 143.343ZM112.277 140.187C112.605 140.515 112.985 141.489 112.671 142.751L116.8 142.554C124.121 135.552 125.302 132.222 124.469 125.392C118.643 130.03 115.618 132.94 112.277 140.187ZM119.356 145.513C119.985 144.566 119.618 142.883 119.356 142.159C126.523 132.207 130.162 129.111 136.266 127.365C136.982 134.609 126.045 144.273 119.356 145.513ZM129.778 144.526C130.429 144.526 130.957 143.996 130.957 143.343C130.957 142.689 130.429 142.159 129.778 142.159C129.126 142.159 128.598 142.689 128.598 143.343C128.598 143.996 129.126 144.526 129.778 144.526ZM127.025 130.521C127.676 130.521 128.205 129.991 128.205 129.337C128.205 128.684 127.676 128.154 127.025 128.154C126.373 128.154 125.845 128.684 125.845 129.337C125.845 129.991 126.373 130.521 127.025 130.521ZM140.592 114.149C141.244 114.149 141.772 113.619 141.772 112.965C141.772 112.311 141.244 111.782 140.592 111.782C139.941 111.782 139.413 112.311 139.413 112.965C139.413 113.619 139.941 114.149 140.592 114.149ZM156.913 104.088C157.565 104.088 158.093 103.559 158.093 102.905C158.093 102.251 157.565 101.721 156.913 101.721C156.261 101.721 155.733 102.251 155.733 102.905C155.733 103.559 156.261 104.088 156.913 104.088ZM147.278 98.9598C147.93 98.9598 148.458 98.4299 148.458 97.7762C148.458 97.1225 147.93 96.5927 147.278 96.5927C146.626 96.5927 146.098 97.1225 146.098 97.7762C146.098 98.4299 146.626 98.9598 147.278 98.9598ZM148.851 84.1654C149.503 84.1654 150.031 83.6355 150.031 82.9819C150.031 82.3282 149.503 81.7983 148.851 81.7983C148.199 81.7983 147.671 82.3282 147.671 82.9819C147.671 83.6355 148.199 84.1654 148.851 84.1654ZM152.98 61.2835C153.632 61.2835 154.16 60.7536 154.16 60.0999C154.16 59.4463 153.632 58.9164 152.98 58.9164C152.329 58.9164 151.8 59.4463 151.8 60.0999C151.8 60.7536 152.329 61.2835 152.98 61.2835ZM143.935 65.2287C144.587 65.2287 145.115 64.6988 145.115 64.0451C145.115 63.3914 144.587 62.8616 143.935 62.8616C143.284 62.8616 142.755 63.3914 142.755 64.0451C142.755 64.6988 143.284 65.2287 143.935 65.2287ZM149.048 47.6727C149.699 47.6727 150.227 47.1428 150.227 46.4892C150.227 45.8355 149.699 45.3056 149.048 45.3056C148.396 45.3056 147.868 45.8355 147.868 46.4892C147.868 47.1428 148.396 47.6727 149.048 47.6727ZM140.986 42.1495C141.637 42.1495 142.165 41.6196 142.165 40.9659C142.165 40.3123 141.637 39.7824 140.986 39.7824C140.334 39.7824 139.806 40.3123 139.806 40.9659C139.806 41.6196 140.334 42.1495 140.986 42.1495ZM127.418 38.0071C128.07 38.0071 128.598 37.4772 128.598 36.8235C128.598 36.1699 128.07 35.64 127.418 35.64C126.766 35.64 126.238 36.1699 126.238 36.8235C126.238 37.4772 126.766 38.0071 127.418 38.0071ZM113.457 22.4237C114.109 22.4237 114.637 21.8938 114.637 21.2401C114.637 20.5865 114.109 20.0566 113.457 20.0566C112.806 20.0566 112.277 20.5865 112.277 21.2401C112.277 21.8938 112.806 22.4237 113.457 22.4237ZM97.7265 14.3361C98.378 14.3361 98.9063 13.8062 98.9063 13.1526C98.9063 12.4989 98.378 11.969 97.7265 11.969C97.0749 11.969 96.5467 12.4989 96.5467 13.1526C96.5467 13.8062 97.0749 14.3361 97.7265 14.3361ZM137.053 110.598C135.48 109.809 127.418 120.264 127.025 125.984C128.27 126.313 130.879 127.247 131.351 128.351C137.84 125.59 138.626 111.387 137.053 110.598ZM146.098 112.571C143.345 111.584 137.053 121.842 136.266 125.984C138.282 125.984 139.413 128.351 137.446 132.494C145.115 128.746 148.851 113.557 146.098 112.571ZM139.806 97.7762C137.84 101.919 138.823 104.483 138.429 110.203C138.888 109.875 140.042 109.336 140.986 109.809C141.93 110.282 142.821 111.847 143.149 112.571C143.542 111.387 144.486 108.152 145.115 104.68C145.901 100.341 143.935 94.4228 143.149 94.2256C142.362 94.0283 141.772 93.6338 139.806 97.7762ZM152.98 95.0146C151.211 94.8371 145.291 102.905 145.115 111.782C147.278 110.203 148.458 111.782 148.458 116.121C153.767 113.754 156.913 95.4091 152.98 95.0146ZM148.851 95.8036C150.031 87.5188 145.115 81.7983 141.379 80.2203C140.752 85.1346 140.885 87.8957 143.149 92.8448C144.547 92.6724 145.062 93.2603 145.705 95.0146C146.229 94.6201 147.593 94.2256 148.851 95.8036ZM155.733 96.5927C158.856 87.1285 156.323 76.2751 153.767 73.7107C152.557 73.8226 151.253 76.7859 150.563 81.0093C150.845 81.2723 151.368 82.035 151.211 82.9819C151.053 83.9287 150.421 84.8229 150.125 85.1517C149.982 87.8919 150.104 90.8812 150.621 93.831C152.553 93.9851 153.589 93.3904 155.733 96.5927ZM145.115 80.2203C141.057 75.8925 139.39 73.0156 139.216 65.8204C141.039 66.1477 142.063 66.3731 143.935 67.793C147.278 69.9628 145.705 72.1327 149.638 79.234C147.868 81.0093 146.07 78.3103 145.115 80.2203ZM155.733 75.2888C157.147 67.3427 153.767 63.4533 147.868 57.3383C145.677 64.948 146.479 69.2726 150.031 77.0641C152.435 72.1341 153.713 71.1041 155.733 75.2888ZM140.986 63.6506C136.845 59.9237 135.403 57.2269 133.71 51.8151C135.719 51.6782 136.846 51.6044 140.986 54.3795C141.176 57.0644 141.39 58.5754 142.755 61.2835C141.953 61.6046 141.553 62.0294 140.986 63.6506ZM150.125 57.3383C148.266 55.1625 147.085 55.3277 144.525 60.0999C141.678 54.1738 141.104 50.4158 140.986 43.333C142.877 43.7567 143.971 44.2557 146.098 46.4892C146.232 47.8016 146.482 48.6541 147.868 48.8563C149.358 51.5823 150.03 53.2658 150.125 57.3383ZM128.598 38.9934C133.71 38.9934 139.246 44.756 140.396 52.4069C138.481 52.5898 134.224 49.9165 130.957 46.6864C127.179 42.9503 124.51 38.536 124.862 38.0071C125.517 37.0208 126.631 38.9934 128.598 38.9934ZM140.986 37.4153C138.195 30.3062 135.161 28.2405 128.205 26.5661C129.519 34.1954 131.598 38.2421 139.806 44.7138C137.418 39.9846 138.949 39.2253 140.986 37.4153ZM133.12 26.5661C128.202 19.7904 124.31 17.7883 115.423 17.295C118.271 22.5242 120.425 25.259 127.025 29.1305C126.105 24.8229 127.452 24.4314 133.12 26.5661ZM117.586 24.199C114.635 23.8281 113.68 24.4224 112.277 25.9743C119.213 31.9484 122.727 33.6789 128.205 33.6674C127.923 32.3077 127.642 31.5434 127.025 30.7085L126.861 30.6165C123.387 28.6647 121.351 27.5208 117.586 24.199ZM114.047 18.2813C114.047 18.2813 109.131 18.8731 105.395 17.295C99.6928 14.8864 102.052 11.969 98.1197 10.3707C106.412 8.43689 110.727 9.82028 117.98 15.5197C115.788 15.7372 114.181 15.3616 114.047 18.2813ZM96.5467 18.8731C101.511 21.9805 104.746 23.14 112.081 23.2127C111.161 22.6556 110.894 22.0914 110.704 21.0429C105.822 20.0676 103.562 19.0471 101.069 15.7169C98.3448 15.9991 97.431 16.5173 96.5467 18.8731ZM85.3386 12.3635C83.7336 13.3457 83.1125 14.0209 82.5857 15.5197C88.5732 17.591 91.6524 17.598 96.5467 15.5197C95.9954 14.6289 95.4497 14.2065 94.1871 13.5471C89.2168 13.6784 87.2459 13.445 85.3386 12.3635Z" fill="#6F6C6C"/>
<path fill-rule="evenodd" clip-rule="evenodd" d="M81.6016 6.73397C88.7611 3.65858 93.214 4.02894 100.479 8.8129C98.4043 8.8129 97.4469 9.39425 96.4107 10.0235C95.1884 10.7657 93.8563 11.5745 90.451 11.5745C86.1996 11.5745 84.5294 10.7866 81.6016 8.90762C81.96 8.67758 82.3373 8.43118 82.7405 8.16787C83.0042 7.99565 83.279 7.8162 83.5669 7.62935C82.8881 7.30443 82.2343 7.00574 81.6016 6.73397ZM81.6016 6.73397C80.9689 7.00574 80.315 7.30443 79.6362 7.62935C79.9241 7.8162 80.1989 7.99565 80.4626 8.16787C80.8658 8.43118 81.2431 8.67758 81.6016 8.90762C78.6737 10.7866 77.0036 11.5745 72.7521 11.5745C69.3468 11.5745 68.0148 10.7657 66.7925 10.0235C65.7562 9.39425 64.7988 8.8129 62.7238 8.8129C69.9892 4.02894 74.442 3.65858 81.6016 6.73397Z" fill="#CBC5C5"/>
<path d="M81.6016 6.73397C80.9689 7.00574 80.315 7.30443 79.6362 7.62935C79.9241 7.8162 80.1989 7.99565 80.4626 8.16787C80.8658 8.43118 81.2431 8.67758 81.6016 8.90762C81.96 8.67758 82.3373 8.43118 82.7405 8.16787C83.0042 7.99565 83.279 7.8162 83.5669 7.62935C82.8881 7.30443 82.2343 7.00574 81.6016 6.73397Z" fill="#6F6C6C"/>
<path d="M84.5331 155.77C84.5515 156.737 84.6068 157.709 84.701 158.729C85.1539 160.051 95.1026 161.374 100.511 163.858L101.462 162.082C98.513 162.674 89.4679 156.165 84.5331 155.77Z" fill="#6F6C6C"/>
<path d="M78.5021 158.729C78.5963 157.709 78.6516 156.737 78.67 155.77C73.7352 156.165 64.6901 162.674 61.7406 162.082L62.6921 163.858C68.1006 161.374 78.0493 160.051 78.5021 158.729Z" fill="#6F6C6C"/>
<path fill-rule="evenodd" clip-rule="evenodd" d="M51.0228 85.2196C52.3 84.3824 53.7995 83.7333 55.5138 83.7333C58.7794 83.7333 61.1731 86.0176 62.9964 87.7576C63.042 87.8011 63.0872 87.8442 63.132 87.887C64.1337 88.8418 65.0046 89.6715 65.9135 90.2811C66.7966 90.8734 67.6069 91.1801 68.4534 91.1801C69.3126 91.1801 70.1926 90.8646 71.1796 90.2516C72.1812 89.6294 73.1669 88.7839 74.2664 87.8353L74.3162 87.7923C75.3612 86.8906 76.516 85.8942 77.7414 85.1323C79.0008 84.3492 80.4568 83.7333 82.1119 83.7333C83.7689 83.7333 85.2185 84.3504 86.4658 85.1381C87.6981 85.9163 88.845 86.9357 89.8728 87.8517L89.9068 87.882C90.9627 88.8229 91.8963 89.6549 92.8403 90.2692C93.781 90.8814 94.5907 91.1801 95.3596 91.1801C96.1492 91.1801 96.9303 90.8974 97.8129 90.3385C98.654 89.8058 99.4726 89.1006 100.419 88.2856C100.494 88.2207 100.57 88.1551 100.647 88.0888C102.605 86.4046 105.144 84.2434 108.607 84.2434C112.163 84.2434 114.672 86.7456 116.504 88.6479C116.66 88.8101 116.811 88.9684 116.959 89.1226C117.751 89.9506 118.43 90.6605 119.12 91.2129C119.926 91.8583 120.524 92.0982 121.034 92.0982C122.555 92.0982 123.922 91.3183 124.995 90.3882C125.517 89.9348 125.932 89.478 126.215 89.1351C126.355 88.9648 126.461 88.8254 126.529 88.7327C126.563 88.6864 126.587 88.6519 126.601 88.6312C126.606 88.624 126.61 88.6185 126.613 88.6147L126.614 88.6122C126.614 88.6122 126.614 88.613 127.914 89.4608C129.214 90.3086 129.214 90.3095 129.214 90.3095L129.213 90.3105L129.212 90.3128L129.208 90.3186L129.197 90.3346C129.188 90.3474 129.177 90.364 129.163 90.3843C129.135 90.4249 129.096 90.4803 129.046 90.5484C128.947 90.6843 128.804 90.8717 128.621 91.0935C128.257 91.5349 127.724 92.1236 127.041 92.7158C125.702 93.8769 123.629 95.1883 121.034 95.1883C119.485 95.1883 118.201 94.4463 117.168 93.6189C116.301 92.9251 115.454 92.0374 114.669 91.2156C114.529 91.069 114.391 90.9246 114.256 90.7838C112.306 88.7587 110.66 87.3335 108.607 87.3335C106.463 87.3335 104.758 88.6406 102.684 90.4247C102.598 90.498 102.512 90.5723 102.425 90.6473C101.522 91.4268 100.531 92.2821 99.4852 92.9441C98.3139 93.6858 96.9501 94.2702 95.3596 94.2702C93.7486 94.2702 92.3402 93.638 91.1354 92.8539C89.9904 92.1087 88.9027 91.1389 87.9149 90.2582C87.8749 90.2226 87.8351 90.1871 87.7955 90.1518C86.7342 89.2061 85.7756 88.3639 84.7968 87.7458C83.8331 87.1372 82.9661 86.8234 82.1119 86.8234C81.2559 86.8234 80.378 87.1384 79.3919 87.7516C78.3912 88.3738 77.4061 89.2194 76.3063 90.1682L76.2619 90.2066C75.2152 91.1097 74.0578 92.1083 72.8289 92.8716C71.5679 93.6548 70.1104 94.2702 68.4534 94.2702C66.7839 94.2702 65.3715 93.646 64.1728 92.8421C63.0385 92.0814 62.0003 91.0913 61.0728 90.2068C61.0411 90.1766 61.0095 90.1465 60.9781 90.1165C58.9119 88.147 57.3892 86.8234 55.5138 86.8234C54.6169 86.8234 53.7122 87.159 52.7361 87.7988C51.749 88.4458 50.7922 89.3338 49.79 90.3165C49.6311 90.4724 49.4697 90.6321 49.3064 90.7936C48.4867 91.6045 47.6186 92.4631 46.7645 93.1356C45.7545 93.9308 44.4844 94.7007 43.0133 94.7007C40.6465 94.7007 38.6659 93.5293 37.3721 92.5083C36.7082 91.9845 36.1784 91.4635 35.8134 91.0727C35.63 90.8764 35.4859 90.7105 35.385 90.5901C35.3345 90.5299 35.2946 90.4809 35.2659 90.445C35.2515 90.427 35.2399 90.4123 35.2311 90.4011L35.22 90.387L35.2161 90.3819L35.2139 90.379C35.2139 90.379 35.2133 90.3782 36.4502 89.4415C37.6872 88.5047 37.6866 88.504 37.6866 88.504L37.6853 88.5024L37.6846 88.5014C37.6846 88.5014 37.6846 88.5014 37.6853 88.5024C37.6876 88.5052 37.693 88.5121 37.7004 88.5214C37.7152 88.5399 37.7402 88.5707 37.7749 88.612C37.8443 88.6948 37.952 88.819 38.0938 88.9709C38.3793 89.2765 38.7942 89.6841 39.3071 90.0888C40.3667 90.925 41.6677 91.6106 43.0133 91.6106C43.3985 91.6106 43.9662 91.3958 44.8321 90.714C45.5351 90.1605 46.2503 89.454 47.0699 88.6443C47.2432 88.4732 47.4211 88.2974 47.6046 88.1175C48.6107 87.1309 49.7565 86.0496 51.0228 85.2196ZM51.0228 93.5845C52.3 92.7474 53.7995 92.0983 55.5138 92.0983C58.7794 92.0983 61.1731 94.3825 62.9964 96.1226C63.042 96.166 63.0872 96.2092 63.132 96.2519C64.1337 97.2067 65.0046 98.0364 65.9135 98.646C66.7966 99.2383 67.6069 99.545 68.4534 99.545C69.3126 99.545 70.1926 99.2295 71.1796 98.6165C72.1812 97.9943 73.1669 97.1488 74.2664 96.2002L74.3162 96.1572C75.3612 95.2556 76.516 94.2591 77.7414 93.4972C79.0008 92.7141 80.4568 92.0983 82.1119 92.0983C83.7689 92.0983 85.2185 92.7153 86.4658 93.503C87.6981 94.2812 88.845 95.3007 89.8728 96.2166L89.9068 96.2469C90.9627 97.1879 91.8963 98.0198 92.8403 98.6341C93.781 99.2463 94.5907 99.545 95.3596 99.545C96.1492 99.545 96.9303 99.2623 97.8129 98.7034C98.654 98.1708 99.4726 97.4655 100.419 96.6505C100.494 96.5856 100.57 96.52 100.647 96.4538C102.605 94.7695 105.144 92.6083 108.607 92.6083C112.163 92.6083 114.672 95.1105 116.504 97.0128C116.66 97.175 116.811 97.3333 116.959 97.4875C117.751 98.3155 118.43 99.0254 119.12 99.5779C119.926 100.223 120.524 100.463 121.034 100.463C122.555 100.463 123.922 99.6832 124.995 98.7531C125.517 98.2997 125.932 97.8429 126.215 97.5C126.355 97.3297 126.461 97.1904 126.529 97.0976C126.563 97.0513 126.587 97.0168 126.601 96.9962C126.608 96.9858 126.613 96.979 126.615 96.9759L126.614 96.9771C126.614 96.9771 126.614 96.978 127.914 97.8257C129.214 98.6735 129.214 98.6744 129.214 98.6744L129.213 98.6754L129.212 98.6777L129.208 98.6835L129.197 98.6996C129.188 98.7123 129.177 98.7289 129.163 98.7492C129.135 98.7898 129.096 98.8452 129.046 98.9133C128.947 99.0492 128.804 99.2366 128.621 99.4584C128.257 99.8998 127.724 100.489 127.041 101.081C125.702 102.242 123.629 103.553 121.034 103.553C119.485 103.553 118.201 102.811 117.168 101.984C116.301 101.29 115.454 100.402 114.669 99.5805C114.529 99.434 114.391 99.2895 114.256 99.1487C112.306 97.1236 110.66 95.6984 108.607 95.6984C106.463 95.6984 104.758 97.0055 102.684 98.7896C102.598 98.863 102.512 98.9372 102.425 99.0122C101.522 99.7918 100.531 100.647 99.4852 101.309C98.3139 102.051 96.9501 102.635 95.3596 102.635C93.7486 102.635 92.3402 102.003 91.1354 101.219C89.9904 100.474 88.9026 99.5038 87.9148 98.6231C87.8749 98.5875 87.8351 98.552 87.7955 98.5167C86.7342 97.571 85.7756 96.7288 84.7968 96.1107C83.8331 95.5021 82.9661 95.1883 82.1119 95.1883C81.2559 95.1883 80.378 95.5033 79.3919 96.1165C78.3912 96.7387 77.4061 97.5843 76.3063 98.5331L76.2619 98.5715C75.2152 99.4746 74.0578 100.473 72.8289 101.237C71.5679 102.02 70.1104 102.635 68.4534 102.635C66.7839 102.635 65.3715 102.011 64.1728 101.207C63.0385 100.446 62.0003 99.4563 61.0728 98.5717C61.0411 98.5415 61.0095 98.5114 60.9781 98.4815C58.9119 96.5119 57.3892 95.1883 55.5138 95.1883C54.6169 95.1883 53.7122 95.5239 52.7361 96.1637C51.749 96.8107 50.7922 97.6988 49.79 98.6815C49.6311 98.8373 49.4697 98.997 49.3064 99.1585C48.4867 99.9694 47.6186 100.828 46.7645 101.501C45.7545 102.296 44.4844 103.066 43.0133 103.066C40.6465 103.066 38.6659 101.894 37.3721 100.873C36.7082 100.349 36.1784 99.8284 35.8134 99.4376C35.63 99.2413 35.4859 99.0754 35.385 98.9551C35.3345 98.8948 35.2946 98.8458 35.2659 98.8099C35.2515 98.792 35.2399 98.7773 35.2311 98.7661L35.22 98.7519L35.2161 98.7468L35.2145 98.7448L35.2139 98.7439C35.2139 98.7439 35.2133 98.7431 36.4502 97.8064C37.6872 96.8697 37.6866 96.869 37.6866 96.869L37.6859 96.868C37.6881 96.8709 37.693 96.877 37.7004 96.8863C37.7152 96.9048 37.7402 96.9356 37.7749 96.9769C37.8443 97.0597 37.952 97.184 38.0938 97.3359C38.3793 97.6415 38.7942 98.049 39.3071 98.4537C40.3667 99.2899 41.6677 99.9755 43.0133 99.9755C43.3985 99.9755 43.9662 99.7607 44.8321 99.079C45.5351 98.5254 46.2503 97.8189 47.0699 97.0092C47.2432 96.8381 47.4211 96.6623 47.6046 96.4824C48.6107 95.4958 49.7565 94.4145 51.0228 93.5845ZM37.6845 96.8663L37.6859 96.868C37.6848 96.8666 37.6845 96.8663 37.6845 96.8663ZM47.1305 103.989C48.9042 102.332 51.2394 100.463 54.1458 100.463C57.4113 100.463 59.805 102.747 61.6284 104.487C61.6739 104.531 61.7191 104.574 61.764 104.617C62.7656 105.572 63.6365 106.401 64.5455 107.011C65.4286 107.603 66.2389 107.91 67.0854 107.91C67.9445 107.91 68.8246 107.594 69.8115 106.981C70.8132 106.359 71.7989 105.514 72.8984 104.565L72.9482 104.522C73.9932 103.62 75.148 102.624 76.3733 101.862C77.6328 101.079 79.0887 100.463 80.7439 100.463C82.4009 100.463 83.8504 101.08 85.0977 101.868C86.33 102.646 87.4769 103.666 88.5048 104.582L88.5388 104.612C89.5947 105.553 90.5282 106.385 91.4722 106.999C92.4129 107.611 93.2226 107.91 93.9916 107.91C94.7811 107.91 95.5623 107.627 96.4449 107.068C97.286 106.536 98.1046 105.83 99.0506 105.015C99.1259 104.951 99.2021 104.885 99.2791 104.819C101.237 103.134 103.776 100.973 107.239 100.973C110.064 100.973 112.197 102.542 113.841 104.087C114.453 104.662 115.05 105.287 115.599 105.861C115.785 106.056 115.966 106.245 116.14 106.425C116.86 107.168 117.485 107.769 118.089 108.198L116.28 110.712C115.424 110.104 114.628 109.321 113.899 108.568C113.692 108.355 113.491 108.144 113.293 107.936C112.76 107.38 112.249 106.845 111.703 106.332C110.207 104.926 108.828 104.063 107.239 104.063C105.095 104.063 103.39 105.37 101.316 107.155C101.23 107.228 101.144 107.302 101.057 107.377C100.154 108.157 99.1625 109.012 98.1171 109.674C96.9459 110.416 95.5821 111 93.9916 111C92.3806 111 90.9721 110.368 89.7674 109.584C88.6224 108.839 87.5346 107.869 86.5468 106.988C86.5069 106.952 86.4671 106.917 86.4275 106.882C85.3662 105.936 84.4075 105.094 83.4288 104.476C82.4651 103.867 81.598 103.553 80.7439 103.553C79.8879 103.553 79.01 103.868 78.0239 104.481C77.0232 105.104 76.0381 105.949 74.9383 106.898L74.8938 106.936C73.8471 107.84 72.6898 108.838 71.4608 109.601C70.1998 110.385 68.7423 111 67.0854 111C65.4159 111 64.0035 110.376 62.8047 109.572C61.6705 108.811 60.6323 107.821 59.7047 106.937C59.673 106.906 59.6415 106.876 59.6101 106.846C57.5438 104.877 56.0212 103.553 54.1458 103.553C52.5704 103.553 51.0341 104.585 49.2613 106.24C48.8361 106.637 48.4175 107.05 47.9913 107.471L47.9142 107.547C47.5178 107.939 47.1124 108.34 46.7104 108.718C45.8711 109.509 44.9394 110.308 43.9399 110.825L42.5029 108.085C43.094 107.779 43.763 107.236 44.57 106.476C44.9435 106.124 45.3238 105.748 45.7274 105.349L45.7972 105.28C46.2214 104.861 46.6691 104.42 47.1305 103.989Z" fill="#CBC5C5"/>
<path fill-rule="evenodd" clip-rule="evenodd" d="M48.3222 58.9821L67.2302 59.6426L70.2708 57L94.6901 58.9821C95.1024 60.4422 95.127 61.2222 94.6901 62.5223H75.5393L80.2669 71.1682L103.233 73.6423L101.916 68.8855L119.754 72.2153C119.754 77.0157 115.796 82.7282 111.688 82.7282C107.58 82.7282 103.986 78.2398 101.316 78.2398C98.6458 78.2398 96.2838 82.7282 92.3814 82.7282C88.4789 82.7282 84.8846 78.2398 82.1118 78.2398C79.339 78.2398 77.2851 81.0961 73.4854 81.0961C69.6857 81.0961 66.7075 77.0157 64.2428 77.0157C61.7781 77.0157 60.135 81.0961 54.4868 81.0961C48.8385 81.0961 40.3148 71.3031 38.1053 66.626L65.9886 69.63L62.3943 62.5223H50.1005C48.638 61.2054 48.4211 60.4136 48.3222 58.9821ZM76.6483 70.7783L72.3558 62.5223H65.9886L69.7706 70.0374L76.6483 70.7783Z" fill="#CBC5C5"/>
</svg>
