<svg width="163" height="124" viewBox="0 0 163 124" fill="none" xmlns="http://www.w3.org/2000/svg">
<path d="M0.101562 22C0.101562 9.84974 9.94451 0 22.0864 0H141.004C153.146 0 162.989 9.84974 162.989 22V102C162.989 114.15 153.146 124 141.004 124H22.0864C9.94451 124 0.101562 114.15 0.101562 102V22Z" fill="#C5A869"/>
<path fill-rule="evenodd" clip-rule="evenodd" d="M141.004 11H22.0864C16.0154 11 11.094 15.9249 11.094 22V102C11.094 108.075 16.0154 113 22.0864 113H141.004C147.075 113 151.997 108.075 151.997 102V22C151.997 15.9249 147.075 11 141.004 11ZM22.0864 0C9.94451 0 0.101562 9.84974 0.101562 22V102C0.101562 114.15 9.94451 124 22.0864 124H141.004C153.146 124 162.989 114.15 162.989 102V22C162.989 9.84974 153.146 0 141.004 0H22.0864Z" fill="#A68C55"/>
<path d="M61.1003 103.089H61.1027H66.5364C67.9393 103.089 69.2671 102.751 68.8161 99.929C67.5816 92.2049 65.4843 91.3271 64.0814 91.3271V90.2738C64.7829 90.0398 66.1857 89.2908 66.1857 88.1673C66.1857 86.7629 65.4843 86.5873 64.7829 86.5873H61.1027H61.1003H57.4201C56.7187 86.5873 56.0173 86.7629 56.0173 88.1673C56.0173 89.2908 57.4201 90.0398 58.1216 90.2738V91.3271C56.7187 91.3271 54.6214 92.2049 53.3869 99.929C52.9359 102.751 54.2637 103.089 55.6666 103.089H61.1003Z" fill="black"/>
<path d="M59.8753 85.7096C59.8753 60.7819 76.3591 36.3807 106.872 25.4968C108.274 24.9969 108.853 25.5385 107.748 26.9012C100.208 36.2052 92.3168 40.4183 93.895 53.2333C92.2549 52.8758 91.3284 52.9414 89.6864 53.2333C91.9169 54.0656 92.9615 54.6043 93.895 55.8665C84.601 61.8351 81.9706 68.1549 77.2359 78.5122C70.0462 78.5122 64.4347 79.3899 61.9796 85.7096H59.8753Z" fill="black"/>
<path d="M91.3629 80.6955C94.3856 96.7098 122.593 95.7333 125.032 80.6955H91.3629Z" fill="black"/>
<path fill-rule="evenodd" clip-rule="evenodd" d="M83.9673 92.9991H85.5243C86.692 92.9991 87.8597 93.9756 87.8597 95.3427H95.6445V99.0533H70.1576C69.906 97.6095 69.6185 96.3829 69.299 95.3426L75.4041 95.3427C75.4041 93.9756 76.3772 92.9991 77.5449 92.9991H79.1019H80.8534H82.4104H83.9673Z" fill="black"/>
<path d="M63.8521 85.1199C64.9249 83.0562 66.4493 81.8496 68.3617 81.1095C68.7697 80.9517 69.1968 80.8145 69.6431 80.6955H71.9009C71.4056 83.7499 69.8471 86.2242 67.6525 88.0938C67.6404 87.2029 67.4041 86.3219 66.6872 85.7238C66.0027 85.1528 65.1916 85.1199 64.7827 85.1199H63.8521Z" fill="black"/>
<path d="M55.7642 90.5948C55.2046 90.1078 54.5497 89.2972 54.5497 88.1673C54.5497 87.2516 54.7789 86.3383 55.5155 85.7238C56.2 85.1528 57.0111 85.1199 57.42 85.1199H58.4107C58.4257 83.6416 58.4971 82.1659 58.6244 80.6955H38.2318C39.6722 88.3266 46.8313 92.0996 54.1958 92.3315C54.2956 92.1693 54.3972 92.0168 54.5005 91.8735C54.8898 91.3333 55.3123 90.9108 55.7642 90.5948Z" fill="black"/>
<path d="M40.8653 76.399L54.9691 46.8852L62.8404 63.3568C63.2288 62.4079 63.6424 61.4663 64.0808 60.5326L54.9691 41.4652L37.1553 78.7426H58.8266C58.921 77.9594 59.0313 77.1781 59.1574 76.399H40.8653Z" fill="black"/>
<path d="M77.5449 92.9991H79.1019V77.9583L79.0506 78.0706L79.05 78.0719L79.0442 78.0846L78.826 78.5626C78.7415 78.7477 78.6563 78.9343 78.5704 79.1223L78.1784 79.9796H77.5449V92.9991Z" fill="black"/>
<path d="M80.8534 92.9991H82.4104V70.972C81.8924 71.9818 81.3789 73.0411 80.8534 74.1582V92.9991Z" fill="black"/>
<path d="M83.9673 92.9991H85.5243V65.7014C84.9792 66.4802 84.4645 67.2877 83.9673 68.1299V92.9991Z" fill="black"/>
<path fill-rule="evenodd" clip-rule="evenodd" d="M126.303 78.7426L108.489 41.4652L90.6756 78.7426H126.303ZM94.3856 76.399H122.593L108.489 46.8852L94.3856 76.399Z" fill="black"/>
<path d="M109.268 40.074V37.7305H100.043C99.5294 38.3511 99.0463 38.9712 98.5975 39.6017C98.486 39.7584 98.3765 39.9158 98.2692 40.074H109.268Z" fill="black"/>
<path d="M80.4642 20.5444V30.5856C76.7767 31.1022 73.8589 34.0301 73.3441 37.7305H54.1906V40.074H73.3441C73.5601 41.6268 74.1993 43.0436 75.141 44.2033C75.6738 43.6273 76.2188 43.0581 76.776 42.4958C76.2566 41.7902 75.8862 40.9673 75.7116 40.074H79.3003C80.1744 39.2763 81.0748 38.4948 82.0014 37.7305H75.7116C76.2555 34.9476 78.6994 32.8481 81.6319 32.8481C83.33 32.8481 84.8643 33.5521 85.9606 34.685C86.597 34.2288 87.2438 33.7801 87.9011 33.3392C86.6113 31.8767 84.8211 30.8688 82.7996 30.5856V20.5444H80.4642Z" fill="black"/>
</svg>
