<svg width="163" height="168" viewBox="0 0 163 168" fill="none" xmlns="http://www.w3.org/2000/svg">
<path d="M77.8602 162.871C73.437 162.674 69.8977 163.858 67.9313 165.238C65.965 166.619 65.1785 168 63.9987 168C62.8189 168 60.066 166.619 60.066 165.436C60.6708 164.861 61.546 164.338 62.5905 163.858C67.999 161.374 77.9477 160.051 78.4006 158.729C78.2826 160.007 78.1038 161.36 77.8602 162.871Z" fill="#CBC5C5"/>
<path d="M78.4006 151.228C78.4017 151.242 78.4029 151.255 78.4041 151.269C78.5217 152.937 74.9962 149.038 73.2404 145.907C71.4707 142.751 70.4876 144.724 68.3246 145.907C66.1616 147.091 63.6054 146.696 63.9987 148.077C64.3919 149.458 69.5044 149.852 70.4876 149.852C71.4707 149.852 75.2067 149.852 75.4034 151.036C75.6 152.219 70.0943 153.206 69.1111 153.206C68.128 153.206 65.1785 151.825 63.2121 150.247C61.2458 148.669 60.8526 145.513 60.8526 143.343C60.8526 141.173 60.8526 141.173 63.6054 141.173C66.1616 141.173 68.5212 138.411 71.6674 138.411C73.437 140.581 76.9764 143.935 78.4006 151.228Z" fill="#CBC5C5"/>
<path d="M59.0829 143.343C59.0829 140.778 60.2627 141.962 60.2627 140.778C60.1316 140.252 59.4761 139.003 57.9031 138.214C55.9367 137.228 52.7906 135.847 53.5771 139.792C54.2064 142.948 54.7569 144.395 54.9536 144.724C57.0007 145.773 58.1591 146.515 60.2627 148.274C60.4593 145.907 59.0829 144.447 59.0829 143.343Z" fill="#CBC5C5"/>
<path d="M59.0829 148.471C56.33 145.907 50.0378 143.343 44.9253 143.343C44.9253 144.329 44.532 145.513 45.9085 146.499C47.2849 147.485 49.0546 146.302 51.2175 147.288C52.9479 148.077 54.4292 150.115 54.9536 151.036C55.8305 149.599 56.7626 149.046 59.0829 148.471Z" fill="#CBC5C5"/>
<path d="M49.0546 153.206C50.4703 152.732 50.8243 149.852 50.8243 148.471C48.0714 146.499 47.0883 150.247 39.2229 145.513C38.5298 146.941 38.5618 147.809 38.8297 151.228C40.0884 152.43 40.9069 153.014 42.7623 153.797C43.5083 149.23 44.7082 147.912 49.0546 149.063C47.8356 150.705 47.8018 151.564 49.0546 153.206Z" fill="#CBC5C5"/>
<path d="M61.6391 162.082C61.6391 161.096 59.4761 158.729 58.6896 158.729C57.9031 158.729 55.7401 162.871 52.3973 162.871C50.0337 162.871 46.2935 161.885 44.3054 159.912C43.8505 157.465 43.8253 155.77 44.0652 154.587C44.4632 152.624 45.5908 152.071 46.695 151.825C46.695 153.403 49.4478 155.178 51.2175 155.178C53.7738 155.178 57.3132 149.852 58.2963 149.852C59.2795 149.852 62.229 152.022 62.8189 155.178C67.5381 155.376 74.0269 153.206 78.541 153.403C78.5739 154.203 78.5833 154.985 78.5684 155.77C73.6337 156.165 64.5886 162.674 61.6391 162.082Z" fill="#CBC5C5"/>
<path d="M50.431 142.751C50.1164 141.489 50.4966 140.515 50.8243 140.187C47.4836 132.94 44.4581 130.03 38.633 125.392C37.7991 132.222 38.9805 135.552 46.3017 142.554L50.431 142.751Z" fill="#CBC5C5"/>
<path d="M32.1442 143.343C32.1442 143.996 32.6724 144.526 33.324 144.526C33.9755 144.526 34.5038 143.996 34.5038 143.343C34.5038 142.689 33.9755 142.159 33.324 142.159C32.6724 142.159 32.1442 142.689 32.1442 143.343Z" fill="#CBC5C5"/>
<path d="M34.897 129.337C34.897 129.991 35.4252 130.521 36.0768 130.521C36.7284 130.521 37.2566 129.991 37.2566 129.337C37.2566 128.684 36.7284 128.154 36.0768 128.154C35.4252 128.154 34.897 128.684 34.897 129.337Z" fill="#CBC5C5"/>
<path d="M21.3294 112.965C21.3294 113.619 21.8576 114.149 22.5092 114.149C23.1607 114.149 23.689 113.619 23.689 112.965C23.689 112.311 23.1607 111.782 22.5092 111.782C21.8576 111.782 21.3294 112.311 21.3294 112.965Z" fill="#CBC5C5"/>
<path d="M5.00884 102.905C5.00884 103.559 5.53706 104.088 6.18864 104.088C6.84022 104.088 7.36844 103.559 7.36844 102.905C7.36844 102.251 6.84022 101.721 6.18864 101.721C5.53706 101.721 5.00884 102.251 5.00884 102.905Z" fill="#CBC5C5"/>
<path d="M14.6438 97.7762C14.6438 98.4299 15.1721 98.9598 15.8236 98.9598C16.4752 98.9598 17.0034 98.4299 17.0034 97.7762C17.0034 97.1225 16.4752 96.5927 15.8236 96.5927C15.1721 96.5927 14.6438 97.1225 14.6438 97.7762Z" fill="#CBC5C5"/>
<path d="M13.0708 82.9819C13.0708 83.6355 13.599 84.1654 14.2506 84.1654C14.9022 84.1654 15.4304 83.6355 15.4304 82.9819C15.4304 82.3282 14.9022 81.7983 14.2506 81.7983C13.599 81.7983 13.0708 82.3282 13.0708 82.9819Z" fill="#CBC5C5"/>
<path d="M8.9415 60.0999C8.9415 60.7536 9.46971 61.2835 10.1213 61.2835C10.7729 61.2835 11.3011 60.7536 11.3011 60.0999C11.3011 59.4463 10.7729 58.9164 10.1213 58.9164C9.46971 58.9164 8.9415 59.4463 8.9415 60.0999Z" fill="#CBC5C5"/>
<path d="M17.9866 64.0451C17.9866 64.6988 18.5148 65.2287 19.1664 65.2287C19.818 65.2287 20.3462 64.6988 20.3462 64.0451C20.3462 63.3914 19.818 62.8616 19.1664 62.8616C18.5148 62.8616 17.9866 63.3914 17.9866 64.0451Z" fill="#CBC5C5"/>
<path d="M12.8742 46.4892C12.8742 47.1428 13.4024 47.6727 14.054 47.6727C14.7055 47.6727 15.2337 47.1428 15.2337 46.4892C15.2337 45.8355 14.7055 45.3056 14.054 45.3056C13.4024 45.3056 12.8742 45.8355 12.8742 46.4892Z" fill="#CBC5C5"/>
<path d="M20.9361 40.9659C20.9361 41.6196 21.4643 42.1495 22.1159 42.1495C22.7675 42.1495 23.2957 41.6196 23.2957 40.9659C23.2957 40.3123 22.7675 39.7824 22.1159 39.7824C21.4643 39.7824 20.9361 40.3123 20.9361 40.9659Z" fill="#CBC5C5"/>
<path d="M34.5038 36.8235C34.5038 37.4772 35.032 38.0071 35.6836 38.0071C36.3351 38.0071 36.8634 37.4772 36.8634 36.8235C36.8634 36.1699 36.3351 35.64 35.6836 35.64C35.032 35.64 34.5038 36.1699 34.5038 36.8235Z" fill="#CBC5C5"/>
<path d="M48.4647 21.2401C48.4647 21.8938 48.9929 22.4237 49.6445 22.4237C50.2961 22.4237 50.8243 21.8938 50.8243 21.2401C50.8243 20.5865 50.2961 20.0566 49.6445 20.0566C48.9929 20.0566 48.4647 20.5865 48.4647 21.2401Z" fill="#CBC5C5"/>
<path d="M39.2229 14.3361C39.2229 14.9898 39.7512 15.5197 40.4027 15.5197C41.0543 15.5197 41.5825 14.9898 41.5825 14.3361C41.5825 13.6825 41.0543 13.1526 40.4027 13.1526C39.7512 13.1526 39.2229 13.6825 39.2229 14.3361Z" fill="#CBC5C5"/>
<path d="M64.1953 13.1526C64.1953 13.8062 64.7235 14.3361 65.3751 14.3361C66.0267 14.3361 66.5549 13.8062 66.5549 13.1526C66.5549 12.4989 66.0267 11.969 65.3751 11.969C64.7235 11.969 64.1953 12.4989 64.1953 13.1526Z" fill="#CBC5C5"/>
<path d="M63.4088 3.68419C63.4088 4.33785 63.937 4.86774 64.5886 4.86774C65.2402 4.86774 65.7684 4.33785 65.7684 3.68419C65.7684 3.03054 65.2402 2.50065 64.5886 2.50065C63.937 2.50065 63.4088 3.03054 63.4088 3.68419Z" fill="#CBC5C5"/>
<path d="M43.7455 142.159C43.4833 142.883 43.1163 144.566 43.7455 145.513C37.0563 144.273 26.1196 134.609 26.8351 127.365C32.9395 129.111 36.5786 132.207 43.7455 142.159Z" fill="#CBC5C5"/>
<path d="M36.0768 125.984C35.6836 120.264 27.6216 109.809 26.0486 110.598C24.4755 111.387 25.262 125.59 31.7509 128.351C32.2228 127.247 34.8315 126.313 36.0768 125.984Z" fill="#CBC5C5"/>
<path d="M31.5543 140.384C28.4081 137.031 22.7058 133.677 17.3967 134.466C18.7731 139.792 27.0317 142.948 30.3745 144.526C29.9812 143.343 30.5711 140.976 31.5543 140.384Z" fill="#CBC5C5"/>
<path d="M37.2566 149.852C36.6667 148.077 37.6499 146.302 37.06 146.104C36.5881 145.947 33.7172 145.776 32.3408 145.71C33.6783 147.434 34.7211 148.353 37.2566 149.852Z" fill="#CBC5C5"/>
<path d="M26.8351 125.984C26.0485 121.842 19.7563 111.584 17.0034 112.571C14.2506 113.557 17.9866 128.746 25.6553 132.494C23.689 128.351 24.8194 125.984 26.8351 125.984Z" fill="#CBC5C5"/>
<path d="M24.6721 110.203C24.2789 104.483 25.262 101.919 23.2957 97.7762C21.3294 93.6338 20.7395 94.0283 19.9529 94.2256C19.1664 94.4228 17.2001 100.341 17.9866 104.68C18.6158 108.152 19.5597 111.387 19.9529 112.571C20.2807 111.847 21.1721 110.282 22.1159 109.809C23.0597 109.336 24.2133 109.875 24.6721 110.203Z" fill="#CBC5C5"/>
<path d="M17.9866 111.782C17.8102 102.905 11.891 94.8371 10.1213 95.0146C6.18864 95.4091 9.33476 113.754 14.6438 116.121C14.6438 111.782 15.8236 110.203 17.9866 111.782Z" fill="#CBC5C5"/>
<path d="M23.689 133.085C17.79 129.337 18.9698 126.576 15.4304 123.222C12.5989 120.54 8.87595 119.475 7.36844 119.277C10.3729 127.891 13.6628 131.19 23.689 133.085Z" fill="#CBC5C5"/>
<path d="M13.8573 119.869C12.6775 114.442 4.61558 102.905 2.25599 104.088C2.25599 106.653 6.47732 113.754 7.36844 117.699C10.3573 118.015 12.9397 119.277 13.8573 119.869Z" fill="#CBC5C5"/>
<path d="M21.7226 80.2203C17.9866 81.7983 13.0708 87.5188 14.2506 95.8036C15.509 94.2256 16.8724 94.6201 17.3967 95.0146C18.0392 93.2603 18.5546 92.6724 19.9529 92.8448C22.2167 87.8957 22.3497 85.1346 21.7226 80.2203Z" fill="#CBC5C5"/>
<path d="M9.33476 73.7107C6.77854 76.2751 4.24534 87.1285 7.36844 96.5927C9.51279 93.3904 10.5489 93.9851 12.4809 93.831C12.9973 90.8812 13.1197 87.8919 12.9765 85.1517C12.6802 84.8229 12.0483 83.9287 11.891 82.9819C11.7337 82.035 12.2569 81.2723 12.5381 81.0093C11.8482 76.7859 10.5442 73.8226 9.33476 73.7107Z" fill="#CBC5C5"/>
<path d="M1.27282 87.1243C1.27282 92.8448 2.19449 95.8816 2.25599 102.313C2.84588 103.694 5.00884 103.497 4.61558 99.5515C4.8968 100.492 6.7005 101.396 6.38527 96.7899C6.07005 92.1842 1.27282 87.1243 1.27282 87.1243Z" fill="#CBC5C5"/>
<path d="M23.8856 65.8204C23.7114 73.0156 22.0446 75.8925 17.9866 80.2203C17.0315 78.3103 15.2337 81.0093 13.4641 79.234C17.3967 72.1327 15.8236 69.9628 19.1664 67.793C21.0388 66.3731 22.0625 66.1477 23.8856 65.8204Z" fill="#CBC5C5"/>
<path d="M15.2337 57.3383C9.33476 63.4533 5.95408 67.3427 7.36844 75.2888C9.38849 71.1041 10.6664 72.1341 13.0708 77.0641C16.6224 69.2726 17.4247 64.948 15.2337 57.3383Z" fill="#CBC5C5"/>
<path d="M4.61558 89.0969C5.30194 83.1491 5.59874 80.2203 5.00884 77.0641C4.09793 74.8731 3.17296 73.8268 0.682923 72.3299C-0.266339 77.4953 -0.188103 80.3813 0.682923 85.5462C2.90385 86.2633 3.56178 87.2364 4.61558 89.0969Z" fill="#CBC5C5"/>
<path d="M5.79537 75.2888C5.00884 68.7793 7.7617 65.2287 7.7617 61.2835C7.7617 57.3383 5.00884 54.9712 5.00884 54.9712C3.23128 62.0223 2.9794 65.7562 2.84588 72.3299C4.02531 72.774 4.67639 73.4615 5.79537 75.2888Z" fill="#CBC5C5"/>
<path d="M29.3913 51.8151C27.6987 57.2269 26.2568 59.9237 22.1159 63.6506C21.5489 62.0294 21.149 61.6046 20.3462 61.2835C21.7115 58.5754 21.926 57.0644 22.1159 54.3795C26.2557 51.6044 27.3825 51.6782 29.3913 51.8151Z" fill="#CBC5C5"/>
<path d="M18.5765 60.0999C16.0167 55.3277 14.8357 55.1625 12.9765 57.3383C13.0711 53.2658 13.7432 51.5823 15.2337 48.8563C16.6193 48.6541 16.8695 47.8016 17.0034 46.4892C19.1306 44.2557 20.225 43.7567 22.1159 43.333C21.9974 50.4158 21.4236 54.1738 18.5765 60.0999Z" fill="#CBC5C5"/>
<path d="M11.3011 44.1221C8.51191 46.5605 7.38332 48.6122 6.58191 54.1822C7.33819 54.8299 7.71218 55.7449 8.3516 57.7328C9.24828 56.7355 9.76642 56.5943 10.7112 56.9438C12.6283 52.038 12.6309 49.2322 11.3011 44.1221Z" fill="#CBC5C5"/>
<path d="M22.7058 52.4069C23.8556 44.756 29.3913 38.9934 34.5038 38.9934C36.4701 38.9934 37.5843 37.0208 38.2398 38.0071C38.5913 38.536 35.9226 42.9503 32.1442 46.6864C28.8775 49.9165 24.6205 52.5898 22.7058 52.4069Z" fill="#CBC5C5"/>
<path d="M34.897 26.5661C27.941 28.2405 24.9062 30.3062 22.1159 37.4153C24.1527 39.2253 25.6831 39.9846 23.2957 44.7138C31.5038 38.2421 33.5822 34.1954 34.897 26.5661Z" fill="#CBC5C5"/>
<path d="M20.9361 29.1305C16.1399 33.587 14.2496 36.5575 12.0876 42.544C12.0852 43.5088 12.1457 43.9981 12.6775 44.5166C13.5669 43.9986 14.3017 43.8603 16.4135 44.1221C20.4895 38.0764 21.2191 34.8154 20.9361 29.1305Z" fill="#CBC5C5"/>
<path d="M47.6782 17.295C38.792 17.7883 34.8996 19.7904 29.9812 26.5661C35.65 24.4314 36.9968 24.8229 36.0768 29.1305C42.6764 25.259 44.8306 22.5242 47.6782 17.295Z" fill="#CBC5C5"/>
<path d="M38.0431 14.1389C37.6499 17.6895 28.6048 24.5935 21.9193 34.2592C24.2789 27.3551 25.0799 26.0202 22.1159 27.9469C27.6122 18.9581 31.1516 16.1937 38.0431 14.1389Z" fill="#CBC5C5"/>
<path d="M50.8243 25.9743C49.4219 24.4224 48.4669 23.8281 45.5152 24.199C41.7504 27.5208 39.7145 28.6647 36.2406 30.6165L36.0768 30.7085C35.4599 31.5434 35.1786 32.3077 34.897 33.6674C40.3749 33.6789 43.8887 31.9484 50.8243 25.9743Z" fill="#CBC5C5"/>
<path d="M57.7064 17.295C53.9704 18.8731 49.0546 18.2813 49.0546 18.2813C48.9208 15.3616 47.3137 15.7372 45.1219 15.5197C52.3749 9.82028 56.6895 8.43689 64.9818 10.3707C61.0492 11.969 63.4088 14.8864 57.7064 17.295Z" fill="#CBC5C5"/>
<path d="M51.0209 23.2127C58.3552 23.14 61.5904 21.9805 66.5549 18.8731C65.6705 16.5173 64.7568 15.9991 62.0323 15.7169C59.5399 19.0471 57.2795 20.0676 52.3973 21.0429C52.2071 22.0914 51.9403 22.6556 51.0209 23.2127Z" fill="#CBC5C5"/>
<path d="M62.0323 2.89516C61.4314 5.76179 60.7008 7.22155 56.7233 8.8129C53.2265 9.6234 52.1157 9.01722 44.532 14.9279C43.8971 15.3274 43.5524 15.4586 42.959 15.5197C43.0476 13.868 42.8957 13.0898 42.3691 11.969C49.0971 6.06275 53.5777 4.51149 62.0323 2.89516Z" fill="#CBC5C5"/>
<path d="M80.5158 15.5197C79.9891 14.0209 79.368 13.3457 77.763 12.3635C75.8556 13.445 73.8848 13.6784 68.9145 13.5471C67.6519 14.2065 67.1062 14.6289 66.5549 15.5197C71.4492 17.598 74.5283 17.591 80.5158 15.5197Z" fill="#CBC5C5"/>
<path d="M80.5158 0.133552C79.5829 1.60732 78.8985 2.43004 77.1731 3.88145C72.9402 3.61194 70.7288 3.90341 66.9482 4.86774C67.1524 3.94535 67.1007 3.42357 66.9482 2.50065C73.042 0.082413 75.9181 -0.247386 80.5158 0.133552Z" fill="#CBC5C5"/>
<path d="M85.1398 162.871C89.563 162.674 93.1023 163.858 95.0687 165.238C97.035 166.619 97.8215 168 99.0013 168C100.181 168 102.934 166.619 102.934 165.436C102.329 164.861 101.454 164.338 100.41 163.858C95.001 161.374 85.0523 160.051 84.5994 158.729C84.7174 160.007 84.8962 161.36 85.1398 162.871Z" fill="#CBC5C5"/>
<path d="M84.5994 151.228C84.5983 151.242 84.5971 151.255 84.5959 151.269C84.4783 152.937 88.0038 149.038 89.7596 145.907C91.5293 142.751 92.5124 144.724 94.6754 145.907C96.8384 147.091 99.3946 146.696 99.0013 148.077C98.6081 149.458 93.4956 149.852 92.5124 149.852C91.5293 149.852 87.7933 149.852 87.5966 151.036C87.4 152.219 92.9057 153.206 93.8889 153.206C94.872 153.206 97.8215 151.825 99.7879 150.247C101.754 148.669 102.147 145.513 102.147 143.343C102.147 141.173 102.147 141.173 99.3946 141.173C96.8384 141.173 94.4788 138.411 91.3326 138.411C89.563 140.581 86.0236 143.935 84.5994 151.228Z" fill="#CBC5C5"/>
<path d="M103.917 143.343C103.917 140.778 102.737 141.962 102.737 140.778C102.868 140.252 103.524 139.003 105.097 138.214C107.063 137.228 110.209 135.847 109.423 139.792C108.794 142.948 108.243 144.395 108.046 144.724C105.999 145.773 104.841 146.515 102.737 148.274C102.541 145.907 103.917 144.447 103.917 143.343Z" fill="#CBC5C5"/>
<path d="M103.917 148.471C106.67 145.907 112.962 143.343 118.075 143.343C118.075 144.329 118.468 145.513 117.092 146.499C115.715 147.485 113.945 146.302 111.782 147.288C110.052 148.077 108.571 150.115 108.046 151.036C107.17 149.599 106.237 149.046 103.917 148.471Z" fill="#CBC5C5"/>
<path d="M113.945 153.206C112.53 152.732 112.176 149.852 112.176 148.471C114.929 146.499 115.912 150.247 123.777 145.513C124.47 146.941 124.438 147.809 124.17 151.228C122.912 152.43 122.093 153.014 120.238 153.797C119.492 149.23 118.292 147.912 113.945 149.063C115.164 150.705 115.198 151.564 113.945 153.206Z" fill="#CBC5C5"/>
<path d="M101.361 162.082C101.361 161.096 103.524 158.729 104.31 158.729C105.097 158.729 107.26 162.871 110.603 162.871C112.966 162.871 116.706 161.885 118.695 159.912C119.15 157.465 119.175 155.77 118.935 154.587C118.537 152.624 117.409 152.071 116.305 151.825C116.305 153.403 113.552 155.178 111.782 155.178C109.226 155.178 105.687 149.852 104.704 149.852C103.721 149.852 100.771 152.022 100.181 155.178C95.4619 155.376 88.9731 153.206 84.459 153.403C84.4261 154.203 84.4167 154.985 84.4316 155.77C89.3663 156.165 98.4114 162.674 101.361 162.082Z" fill="#CBC5C5"/>
<path d="M112.569 142.751C112.884 141.489 112.503 140.515 112.176 140.187C115.516 132.94 118.542 130.03 124.367 125.392C125.201 132.222 124.02 135.552 116.698 142.554L112.569 142.751Z" fill="#CBC5C5"/>
<path d="M130.856 143.343C130.856 143.996 130.328 144.526 129.676 144.526C129.024 144.526 128.496 143.996 128.496 143.343C128.496 142.689 129.024 142.159 129.676 142.159C130.328 142.159 130.856 142.689 130.856 143.343Z" fill="#CBC5C5"/>
<path d="M128.103 129.337C128.103 129.991 127.575 130.521 126.923 130.521C126.272 130.521 125.743 129.991 125.743 129.337C125.743 128.684 126.272 128.154 126.923 128.154C127.575 128.154 128.103 128.684 128.103 129.337Z" fill="#CBC5C5"/>
<path d="M141.671 112.965C141.671 113.619 141.142 114.149 140.491 114.149C139.839 114.149 139.311 113.619 139.311 112.965C139.311 112.311 139.839 111.782 140.491 111.782C141.142 111.782 141.671 112.311 141.671 112.965Z" fill="#CBC5C5"/>
<path d="M157.991 102.905C157.991 103.559 157.463 104.088 156.811 104.088C156.16 104.088 155.632 103.559 155.632 102.905C155.632 102.251 156.16 101.721 156.811 101.721C157.463 101.721 157.991 102.251 157.991 102.905Z" fill="#CBC5C5"/>
<path d="M148.356 97.7762C148.356 98.4299 147.828 98.9598 147.176 98.9598C146.525 98.9598 145.997 98.4299 145.997 97.7762C145.997 97.1225 146.525 96.5927 147.176 96.5927C147.828 96.5927 148.356 97.1225 148.356 97.7762Z" fill="#CBC5C5"/>
<path d="M149.929 82.9819C149.929 83.6355 149.401 84.1654 148.749 84.1654C148.098 84.1654 147.57 83.6355 147.57 82.9819C147.57 82.3282 148.098 81.7983 148.749 81.7983C149.401 81.7983 149.929 82.3282 149.929 82.9819Z" fill="#CBC5C5"/>
<path d="M154.059 60.0999C154.059 60.7536 153.53 61.2835 152.879 61.2835C152.227 61.2835 151.699 60.7536 151.699 60.0999C151.699 59.4463 152.227 58.9164 152.879 58.9164C153.53 58.9164 154.059 59.4463 154.059 60.0999Z" fill="#CBC5C5"/>
<path d="M145.013 64.0451C145.013 64.6988 144.485 65.2287 143.834 65.2287C143.182 65.2287 142.654 64.6988 142.654 64.0451C142.654 63.3914 143.182 62.8616 143.834 62.8616C144.485 62.8616 145.013 63.3914 145.013 64.0451Z" fill="#CBC5C5"/>
<path d="M150.126 46.4892C150.126 47.1428 149.598 47.6727 148.946 47.6727C148.294 47.6727 147.766 47.1428 147.766 46.4892C147.766 45.8355 148.294 45.3056 148.946 45.3056C149.598 45.3056 150.126 45.8355 150.126 46.4892Z" fill="#CBC5C5"/>
<path d="M142.064 40.9659C142.064 41.6196 141.536 42.1495 140.884 42.1495C140.233 42.1495 139.704 41.6196 139.704 40.9659C139.704 40.3123 140.233 39.7824 140.884 39.7824C141.536 39.7824 142.064 40.3123 142.064 40.9659Z" fill="#CBC5C5"/>
<path d="M128.496 36.8235C128.496 37.4772 127.968 38.0071 127.316 38.0071C126.665 38.0071 126.137 37.4772 126.137 36.8235C126.137 36.1699 126.665 35.64 127.316 35.64C127.968 35.64 128.496 36.1699 128.496 36.8235Z" fill="#CBC5C5"/>
<path d="M114.535 21.2401C114.535 21.8938 114.007 22.4237 113.356 22.4237C112.704 22.4237 112.176 21.8938 112.176 21.2401C112.176 20.5865 112.704 20.0566 113.356 20.0566C114.007 20.0566 114.535 20.5865 114.535 21.2401Z" fill="#CBC5C5"/>
<path d="M123.777 14.3361C123.777 14.9898 123.249 15.5197 122.597 15.5197C121.946 15.5197 121.417 14.9898 121.417 14.3361C121.417 13.6825 121.946 13.1526 122.597 13.1526C123.249 13.1526 123.777 13.6825 123.777 14.3361Z" fill="#CBC5C5"/>
<path d="M98.8047 13.1526C98.8047 13.8062 98.2765 14.3361 97.6249 14.3361C96.9733 14.3361 96.4451 13.8062 96.4451 13.1526C96.4451 12.4989 96.9733 11.969 97.6249 11.969C98.2765 11.969 98.8047 12.4989 98.8047 13.1526Z" fill="#CBC5C5"/>
<path d="M99.5912 3.68419C99.5912 4.33785 99.063 4.86774 98.4114 4.86774C97.7598 4.86774 97.2316 4.33785 97.2316 3.68419C97.2316 3.03054 97.7598 2.50065 98.4114 2.50065C99.063 2.50065 99.5912 3.03054 99.5912 3.68419Z" fill="#CBC5C5"/>
<path d="M119.255 142.159C119.517 142.883 119.884 144.566 119.255 145.513C125.944 144.273 136.88 134.609 136.165 127.365C130.061 129.111 126.421 132.207 119.255 142.159Z" fill="#CBC5C5"/>
<path d="M126.923 125.984C127.316 120.264 135.378 109.809 136.951 110.598C138.525 111.387 137.738 125.59 131.249 128.351C130.777 127.247 128.169 126.313 126.923 125.984Z" fill="#CBC5C5"/>
<path d="M131.446 140.384C134.592 137.031 140.294 133.677 145.603 134.466C144.227 139.792 135.968 142.948 132.626 144.526C133.019 143.343 132.429 140.976 131.446 140.384Z" fill="#CBC5C5"/>
<path d="M125.743 149.852C126.333 148.077 125.35 146.302 125.94 146.104C126.412 145.947 129.283 145.776 130.659 145.71C129.322 147.434 128.279 148.353 125.743 149.852Z" fill="#CBC5C5"/>
<path d="M136.165 125.984C136.951 121.842 143.244 111.584 145.997 112.571C148.749 113.557 145.013 128.746 137.345 132.494C139.311 128.351 138.181 125.984 136.165 125.984Z" fill="#CBC5C5"/>
<path d="M138.328 110.203C138.721 104.483 137.738 101.919 139.704 97.7762C141.671 93.6338 142.261 94.0283 143.047 94.2256C143.834 94.4228 145.8 100.341 145.013 104.68C144.384 108.152 143.44 111.387 143.047 112.571C142.719 111.847 141.828 110.282 140.884 109.809C139.94 109.336 138.787 109.875 138.328 110.203Z" fill="#CBC5C5"/>
<path d="M145.013 111.782C145.19 102.905 151.109 94.8371 152.879 95.0146C156.811 95.4091 153.665 113.754 148.356 116.121C148.356 111.782 147.176 110.203 145.013 111.782Z" fill="#CBC5C5"/>
<path d="M139.311 133.085C145.21 129.337 144.03 126.576 147.57 123.222C150.401 120.54 154.124 119.475 155.632 119.277C152.627 127.891 149.337 131.19 139.311 133.085Z" fill="#CBC5C5"/>
<path d="M149.143 119.869C150.322 114.442 158.384 102.905 160.744 104.088C160.744 106.653 156.523 113.754 155.632 117.699C152.643 118.015 150.06 119.277 149.143 119.869Z" fill="#CBC5C5"/>
<path d="M141.277 80.2203C145.013 81.7983 149.929 87.5188 148.749 95.8036C147.491 94.2256 146.128 94.6201 145.603 95.0146C144.961 93.2603 144.445 92.6724 143.047 92.8448C140.783 87.8957 140.65 85.1346 141.277 80.2203Z" fill="#CBC5C5"/>
<path d="M153.665 73.7107C156.221 76.2751 158.755 87.1285 155.632 96.5927C153.487 93.3904 152.451 93.9851 150.519 93.831C150.003 90.8812 149.88 87.8919 150.023 85.1517C150.32 84.8229 150.952 83.9287 151.109 82.9819C151.266 82.035 150.743 81.2723 150.462 81.0093C151.152 76.7859 152.456 73.8226 153.665 73.7107Z" fill="#CBC5C5"/>
<path d="M161.727 87.1243C161.727 92.8448 160.806 95.8816 160.744 102.313C160.154 103.694 157.991 103.497 158.384 99.5515C158.103 100.492 156.299 101.396 156.615 96.7899C156.93 92.1842 161.727 87.1243 161.727 87.1243Z" fill="#CBC5C5"/>
<path d="M139.114 65.8204C139.289 73.0156 140.955 75.8925 145.013 80.2203C145.969 78.3103 147.766 81.0093 149.536 79.234C145.603 72.1327 147.176 69.9628 143.834 67.793C141.961 66.3731 140.938 66.1477 139.114 65.8204Z" fill="#CBC5C5"/>
<path d="M147.766 57.3383C153.665 63.4533 157.046 67.3427 155.632 75.2888C153.612 71.1041 152.334 72.1341 149.929 77.0641C146.378 69.2726 145.575 64.948 147.766 57.3383Z" fill="#CBC5C5"/>
<path d="M158.384 89.0969C157.698 83.1491 157.401 80.2203 157.991 77.0641C158.902 74.8731 159.827 73.8268 162.317 72.3299C163.266 77.4953 163.188 80.3813 162.317 85.5462C160.096 86.2633 159.438 87.2364 158.384 89.0969Z" fill="#CBC5C5"/>
<path d="M157.205 75.2888C157.991 68.7793 155.238 65.2287 155.238 61.2835C155.238 57.3383 157.991 54.9712 157.991 54.9712C159.769 62.0223 160.021 65.7562 160.154 72.3299C158.975 72.774 158.324 73.4615 157.205 75.2888Z" fill="#CBC5C5"/>
<path d="M133.609 51.8151C135.301 57.2269 136.743 59.9237 140.884 63.6506C141.451 62.0294 141.851 61.6046 142.654 61.2835C141.289 58.5754 141.074 57.0644 140.884 54.3795C136.744 51.6044 135.618 51.6782 133.609 51.8151Z" fill="#CBC5C5"/>
<path d="M144.424 60.0999C146.983 55.3277 148.164 55.1625 150.023 57.3383C149.929 53.2658 149.257 51.5823 147.766 48.8563C146.381 48.6541 146.131 47.8016 145.997 46.4892C143.869 44.2557 142.775 43.7567 140.884 43.333C141.003 50.4158 141.576 54.1738 144.424 60.0999Z" fill="#CBC5C5"/>
<path d="M151.699 44.1221C154.488 46.5605 155.617 48.6122 156.418 54.1822C155.662 54.8299 155.288 55.7449 154.648 57.7328C153.752 56.7355 153.234 56.5943 152.289 56.9438C150.372 52.038 150.369 49.2322 151.699 44.1221Z" fill="#CBC5C5"/>
<path d="M140.294 52.4069C139.144 44.756 133.609 38.9934 128.496 38.9934C126.53 38.9934 125.416 37.0208 124.76 38.0071C124.409 38.536 127.077 42.9503 130.856 46.6864C134.122 49.9165 138.38 52.5898 140.294 52.4069Z" fill="#CBC5C5"/>
<path d="M128.103 26.5661C135.059 28.2405 138.094 30.3062 140.884 37.4153C138.847 39.2253 137.317 39.9846 139.704 44.7138C131.496 38.2421 129.418 34.1954 128.103 26.5661Z" fill="#CBC5C5"/>
<path d="M142.064 29.1305C146.86 33.587 148.75 36.5575 150.912 42.544C150.915 43.5088 150.854 43.9981 150.322 44.5166C149.433 43.9986 148.698 43.8603 146.586 44.1221C142.511 38.0764 141.781 34.8154 142.064 29.1305Z" fill="#CBC5C5"/>
<path d="M115.322 17.295C124.208 17.7883 128.1 19.7904 133.019 26.5661C127.35 24.4314 126.003 24.8229 126.923 29.1305C120.324 25.259 118.169 22.5242 115.322 17.295Z" fill="#CBC5C5"/>
<path d="M124.957 14.1389C125.35 17.6895 134.395 24.5935 141.081 34.2592C138.721 27.3551 137.92 26.0202 140.884 27.9469C135.388 18.9581 131.848 16.1937 124.957 14.1389Z" fill="#CBC5C5"/>
<path d="M112.176 25.9743C113.578 24.4224 114.533 23.8281 117.485 24.199C121.25 27.5208 123.285 28.6647 126.759 30.6165L126.923 30.7085C127.54 31.5434 127.821 32.3077 128.103 33.6674C122.625 33.6789 119.111 31.9484 112.176 25.9743Z" fill="#CBC5C5"/>
<path d="M105.294 17.295C109.03 18.8731 113.945 18.2813 113.945 18.2813C114.079 15.3616 115.686 15.7372 117.878 15.5197C110.625 9.82028 106.31 8.43689 98.0182 10.3707C101.951 11.969 99.5912 14.8864 105.294 17.295Z" fill="#CBC5C5"/>
<path d="M111.979 23.2127C104.645 23.14 101.41 21.9805 96.4451 18.8731C97.3295 16.5173 98.2432 15.9991 100.968 15.7169C103.46 19.0471 105.72 20.0676 110.603 21.0429C110.793 22.0914 111.06 22.6556 111.979 23.2127Z" fill="#CBC5C5"/>
<path d="M100.968 2.89516C101.569 5.76179 102.299 7.22155 106.277 8.8129C109.774 9.6234 110.884 9.01722 118.468 14.9279C119.103 15.3274 119.448 15.4586 120.041 15.5197C119.952 13.868 120.104 13.0898 120.631 11.969C113.903 6.06275 109.422 4.51149 100.968 2.89516Z" fill="#CBC5C5"/>
<path d="M82.4842 15.5197C83.0109 14.0209 83.632 13.3457 85.237 12.3635C87.1444 13.445 89.1152 13.6784 94.0855 13.5471C95.3481 14.2065 95.8938 14.6289 96.4451 15.5197C91.5508 17.598 88.4717 17.591 82.4842 15.5197Z" fill="#CBC5C5"/>
<path d="M82.4842 0.133552C83.4171 1.60732 84.1015 2.43004 85.8269 3.88145C90.0598 3.61194 92.2712 3.90341 96.0518 4.86774C95.8476 3.94535 95.8993 3.42357 96.0518 2.50065C89.958 0.082413 87.0819 -0.247386 82.4842 0.133552Z" fill="#CBC5C5"/>
<path d="M77.763 163.463C77.763 163.463 79.7303 163.858 81.5 163.858C83.2697 163.858 85.237 163.463 85.237 163.463C85.2035 163.263 85.1711 163.066 85.1398 162.871C84.8962 161.36 84.7174 160.007 84.5994 158.729C84.5053 157.709 84.45 156.737 84.4316 155.77C84.4167 154.985 84.4261 154.203 84.459 153.403C84.4874 152.711 84.5333 152.004 84.5959 151.269L84.5994 151.228C84.736 149.64 84.9507 147.915 85.237 145.907C85.237 145.907 83.4663 145.513 81.5 145.513C79.5337 145.513 77.763 145.907 77.763 145.907C78.0493 147.915 78.264 149.64 78.4006 151.228L78.4041 151.269C78.4668 152.004 78.5126 152.711 78.541 153.403C78.5739 154.203 78.5833 154.985 78.5684 155.77C78.5501 156.737 78.4947 157.709 78.4006 158.729C78.2826 160.007 78.1038 161.36 77.8602 162.871C77.8289 163.066 77.7965 163.263 77.763 163.463Z" fill="#CBC5C5"/>
<path fill-rule="evenodd" clip-rule="evenodd" d="M77.763 145.907C77.763 145.907 79.5337 145.513 81.5 145.513C83.4663 145.513 85.237 145.907 85.237 145.907C84.9507 147.915 84.736 149.64 84.5994 151.228C86.0236 143.935 89.563 140.581 91.3326 138.411C94.4788 138.411 96.8384 141.173 99.3946 141.173C102.147 141.173 102.147 141.173 102.147 143.343C102.147 145.513 101.754 148.669 99.7879 150.247C97.8215 151.825 94.872 153.206 93.8889 153.206C92.9057 153.206 87.4 152.219 87.5966 151.036C87.7933 149.852 91.5293 149.852 92.5124 149.852C93.4956 149.852 98.6081 149.458 99.0013 148.077C99.3946 146.696 96.8384 147.091 94.6754 145.907C92.5124 144.724 91.5293 142.751 89.7596 145.907C88.0038 149.038 84.4783 152.937 84.5959 151.269C84.5333 152.004 84.4874 152.711 84.459 153.403C88.9731 153.206 95.4619 155.376 100.181 155.178C100.771 152.022 103.721 149.852 104.704 149.852C105.687 149.852 109.226 155.178 111.782 155.178C113.552 155.178 116.305 153.403 116.305 151.825C117.409 152.071 118.537 152.624 118.935 154.587L120.238 153.797C119.492 149.23 118.292 147.912 113.945 149.063C115.164 150.705 115.198 151.564 113.945 153.206C112.53 152.732 112.176 149.852 112.176 148.471C114.929 146.499 115.912 150.247 123.777 145.513C124.47 146.941 124.438 147.809 124.17 151.228L125.743 149.852C126.333 148.077 125.35 146.302 125.94 146.104C126.412 145.947 129.283 145.776 130.659 145.71L132.626 144.526C133.019 143.343 132.429 140.976 131.446 140.384C134.592 137.031 140.294 133.677 145.603 134.466L139.311 133.085C145.21 129.337 144.03 126.576 147.57 123.222C150.401 120.54 154.124 119.475 155.632 119.277V117.699C152.643 118.015 150.06 119.277 149.143 119.869C150.322 114.442 158.384 102.905 160.744 104.088V102.313C160.154 103.694 157.991 103.497 158.384 99.5515C158.103 100.492 156.299 101.396 156.615 96.7899C156.93 92.1842 161.727 87.1243 161.727 87.1243L162.317 85.5462C160.096 86.2633 159.438 87.2364 158.384 89.0969C157.698 83.1491 157.401 80.2203 157.991 77.0641C158.902 74.8731 159.827 73.8268 162.317 72.3299H160.154C158.975 72.774 158.324 73.4615 157.205 75.2888C157.991 68.7793 155.238 65.2287 155.238 61.2835C155.238 57.3383 157.991 54.9712 157.991 54.9712L156.418 54.1822C155.662 54.8299 155.288 55.7449 154.648 57.7328C153.752 56.7355 153.234 56.5943 152.289 56.9438C150.372 52.038 150.369 49.2322 151.699 44.1221L150.912 42.544C150.915 43.5088 150.854 43.9981 150.322 44.5166C149.433 43.9986 148.698 43.8603 146.586 44.1221C142.511 38.0764 141.781 34.8154 142.064 29.1305L140.884 27.9469C137.92 26.0202 138.721 27.3551 141.081 34.2592C134.395 24.5935 125.35 17.6895 124.957 14.1389L123.777 14.3361C123.777 14.9898 123.249 15.5197 122.597 15.5197C121.946 15.5197 121.417 14.9898 121.417 14.3361L120.631 11.969C120.104 13.0898 119.952 13.868 120.041 15.5197C119.448 15.4586 119.103 15.3274 118.468 14.9279C110.884 9.01722 109.774 9.6234 106.277 8.8129C102.299 7.22155 101.569 5.76179 100.968 2.89516L99.5912 3.68419C99.5912 4.33785 99.063 4.86774 98.4114 4.86774C97.7598 4.86774 97.2316 4.33785 97.2316 3.68419L96.0518 2.50065C95.8993 3.42357 95.8476 3.94535 96.0518 4.86774C92.2712 3.90341 90.0598 3.61194 85.8269 3.88145C84.1015 2.43004 83.4171 1.60732 82.4842 0.133552H82.4832H80.5168H80.5158C79.5829 1.60732 78.8985 2.43004 77.1731 3.88145C72.9402 3.61194 70.7288 3.90341 66.9482 4.86774C67.1524 3.94535 67.1007 3.42357 66.9482 2.50065L65.7684 3.68419C65.7684 4.33785 65.2402 4.86774 64.5886 4.86774C63.937 4.86774 63.4088 4.33785 63.4088 3.68419L62.0323 2.89516C61.4314 5.76179 60.7008 7.22155 56.7233 8.8129C53.2265 9.6234 52.1157 9.01722 44.532 14.9279C43.8971 15.3274 43.5524 15.4586 42.959 15.5197C43.0476 13.868 42.8957 13.0898 42.3691 11.969L41.5825 14.3361C41.5825 14.9898 41.0543 15.5197 40.4027 15.5197C39.7512 15.5197 39.2229 14.9898 39.2229 14.3361L38.0431 14.1389C37.6499 17.6895 28.6048 24.5935 21.9193 34.2592C24.2789 27.3551 25.0799 26.0202 22.1159 27.9469L20.9361 29.1305C21.2191 34.8154 20.4895 38.0764 16.4135 44.1221C14.3017 43.8603 13.5669 43.9986 12.6775 44.5166C12.1457 43.9981 12.0852 43.5088 12.0876 42.544L11.3011 44.1221C12.6309 49.2322 12.6283 52.038 10.7112 56.9438C9.76642 56.5943 9.24828 56.7355 8.3516 57.7328C7.71218 55.7449 7.33819 54.8299 6.58191 54.1822L5.00884 54.9712C5.00884 54.9712 7.7617 57.3383 7.7617 61.2835C7.7617 65.2287 5.00884 68.7793 5.79537 75.2888C4.67639 73.4615 4.02531 72.774 2.84588 72.3299H0.682923C3.17296 73.8268 4.09793 74.8731 5.00884 77.0641C5.59874 80.2203 5.30194 83.1491 4.61558 89.0969C3.56178 87.2364 2.90385 86.2633 0.682923 85.5462L1.27282 87.1243C1.27282 87.1243 6.07005 92.1842 6.38527 96.7899C6.7005 101.396 4.8968 100.492 4.61558 99.5515C5.00884 103.497 2.84588 103.694 2.25599 102.313V104.088C4.61558 102.905 12.6775 114.442 13.8573 119.869C12.9397 119.277 10.3573 118.015 7.36844 117.699V119.277C8.87595 119.475 12.5989 120.54 15.4304 123.222C18.9698 126.576 17.79 129.337 23.689 133.085L17.3967 134.466C22.7058 133.677 28.4081 137.031 31.5543 140.384C30.5711 140.976 29.9812 143.343 30.3745 144.526L32.3408 145.71C33.7172 145.776 36.5881 145.947 37.06 146.104C37.6499 146.302 36.6667 148.077 37.2566 149.852L38.8297 151.228C38.5618 147.809 38.5298 146.941 39.2229 145.513C47.0883 150.247 48.0714 146.499 50.8243 148.471C50.8243 149.852 50.4703 152.732 49.0546 153.206C47.8018 151.564 47.8356 150.705 49.0546 149.063C44.7082 147.912 43.5083 149.23 42.7623 153.797L44.0652 154.587C44.4632 152.624 45.5908 152.071 46.695 151.825C46.695 153.403 49.4478 155.178 51.2175 155.178C53.7738 155.178 57.3132 149.852 58.2963 149.852C59.2795 149.852 62.229 152.022 62.8189 155.178C67.5381 155.376 74.0269 153.206 78.541 153.403C78.5126 152.711 78.4668 152.004 78.4041 151.269C78.5217 152.937 74.9962 149.038 73.2404 145.907C71.4707 142.751 70.4876 144.724 68.3246 145.907C66.1616 147.091 63.6054 146.696 63.9987 148.077C64.3919 149.458 69.5044 149.852 70.4876 149.852C71.4707 149.852 75.2067 149.852 75.4034 151.036C75.6 152.219 70.0943 153.206 69.1111 153.206C68.128 153.206 65.1785 151.825 63.2121 150.247C61.2458 148.669 60.8526 145.513 60.8526 143.343C60.8526 141.173 60.8526 141.173 63.6054 141.173C66.1616 141.173 68.5212 138.411 71.6674 138.411C73.437 140.581 76.9764 143.935 78.4006 151.228C78.264 149.64 78.0493 147.915 77.763 145.907ZM60.2627 140.778C60.2627 141.962 59.0829 140.778 59.0829 143.343C59.0829 144.447 60.4593 145.907 60.2627 148.274C58.1591 146.515 57.0007 145.773 54.9536 144.724C54.7569 144.395 54.2064 142.948 53.5771 139.792C52.7906 135.847 55.9367 137.228 57.9031 138.214C59.4761 139.003 60.1316 140.252 60.2627 140.778ZM44.9253 143.343C50.0378 143.343 56.33 145.907 59.0829 148.471C56.7626 149.046 55.8305 149.599 54.9536 151.036C54.4292 150.115 52.9479 148.077 51.2175 147.288C49.0546 146.302 47.2849 147.485 45.9085 146.499C44.532 145.513 44.9253 144.329 44.9253 143.343ZM50.8243 140.187C50.4966 140.515 50.1164 141.489 50.431 142.751L46.3017 142.554C38.9805 135.552 37.7991 132.222 38.633 125.392C44.4581 130.03 47.4836 132.94 50.8243 140.187ZM43.7455 145.513C43.1163 144.566 43.4833 142.883 43.7455 142.159C36.5786 132.207 32.9395 129.111 26.8351 127.365C26.1196 134.609 37.0563 144.273 43.7455 145.513ZM33.324 144.526C32.6724 144.526 32.1442 143.996 32.1442 143.343C32.1442 142.689 32.6724 142.159 33.324 142.159C33.9755 142.159 34.5038 142.689 34.5038 143.343C34.5038 143.996 33.9755 144.526 33.324 144.526ZM36.0768 130.521C35.4252 130.521 34.897 129.991 34.897 129.337C34.897 128.684 35.4252 128.154 36.0768 128.154C36.7284 128.154 37.2566 128.684 37.2566 129.337C37.2566 129.991 36.7284 130.521 36.0768 130.521ZM22.5092 114.149C21.8576 114.149 21.3294 113.619 21.3294 112.965C21.3294 112.311 21.8576 111.782 22.5092 111.782C23.1607 111.782 23.689 112.311 23.689 112.965C23.689 113.619 23.1607 114.149 22.5092 114.149ZM6.18864 104.088C5.53706 104.088 5.00884 103.559 5.00884 102.905C5.00884 102.251 5.53706 101.721 6.18864 101.721C6.84022 101.721 7.36844 102.251 7.36844 102.905C7.36844 103.559 6.84022 104.088 6.18864 104.088ZM15.8236 98.9598C15.1721 98.9598 14.6438 98.4299 14.6438 97.7762C14.6438 97.1225 15.1721 96.5927 15.8236 96.5927C16.4752 96.5927 17.0034 97.1225 17.0034 97.7762C17.0034 98.4299 16.4752 98.9598 15.8236 98.9598ZM14.2506 84.1654C13.599 84.1654 13.0708 83.6355 13.0708 82.9819C13.0708 82.3282 13.599 81.7983 14.2506 81.7983C14.9022 81.7983 15.4304 82.3282 15.4304 82.9819C15.4304 83.6355 14.9022 84.1654 14.2506 84.1654ZM10.1213 61.2835C9.46971 61.2835 8.9415 60.7536 8.9415 60.0999C8.9415 59.4463 9.46971 58.9164 10.1213 58.9164C10.7729 58.9164 11.3011 59.4463 11.3011 60.0999C11.3011 60.7536 10.7729 61.2835 10.1213 61.2835ZM19.1664 65.2287C18.5148 65.2287 17.9866 64.6988 17.9866 64.0451C17.9866 63.3914 18.5148 62.8616 19.1664 62.8616C19.818 62.8616 20.3462 63.3914 20.3462 64.0451C20.3462 64.6988 19.818 65.2287 19.1664 65.2287ZM14.054 47.6727C13.4024 47.6727 12.8742 47.1428 12.8742 46.4892C12.8742 45.8355 13.4024 45.3056 14.054 45.3056C14.7055 45.3056 15.2337 45.8355 15.2337 46.4892C15.2337 47.1428 14.7055 47.6727 14.054 47.6727ZM22.1159 42.1495C21.4643 42.1495 20.9361 41.6196 20.9361 40.9659C20.9361 40.3123 21.4643 39.7824 22.1159 39.7824C22.7675 39.7824 23.2957 40.3123 23.2957 40.9659C23.2957 41.6196 22.7675 42.1495 22.1159 42.1495ZM35.6836 38.0071C35.032 38.0071 34.5038 37.4772 34.5038 36.8235C34.5038 36.1699 35.032 35.64 35.6836 35.64C36.3351 35.64 36.8634 36.1699 36.8634 36.8235C36.8634 37.4772 36.3351 38.0071 35.6836 38.0071ZM49.6445 22.4237C48.9929 22.4237 48.4647 21.8938 48.4647 21.2401C48.4647 20.5865 48.9929 20.0566 49.6445 20.0566C50.2961 20.0566 50.8243 20.5865 50.8243 21.2401C50.8243 21.8938 50.2961 22.4237 49.6445 22.4237ZM65.3751 14.3361C64.7235 14.3361 64.1953 13.8062 64.1953 13.1526C64.1953 12.4989 64.7235 11.969 65.3751 11.969C66.0267 11.969 66.5549 12.4989 66.5549 13.1526C66.5549 13.8062 66.0267 14.3361 65.3751 14.3361ZM26.0486 110.598C27.6216 109.809 35.6836 120.264 36.0768 125.984C34.8315 126.313 32.2228 127.247 31.7509 128.351C25.262 125.59 24.4755 111.387 26.0486 110.598ZM17.0034 112.571C19.7563 111.584 26.0485 121.842 26.8351 125.984C24.8194 125.984 23.689 128.351 25.6553 132.494C17.9866 128.746 14.2506 113.557 17.0034 112.571ZM23.2957 97.7762C25.262 101.919 24.2789 104.483 24.6721 110.203C24.2133 109.875 23.0597 109.336 22.1159 109.809C21.1721 110.282 20.2807 111.847 19.9529 112.571C19.5597 111.387 18.6158 108.152 17.9866 104.68C17.2001 100.341 19.1664 94.4228 19.9529 94.2256C20.7395 94.0283 21.3294 93.6338 23.2957 97.7762ZM10.1213 95.0146C11.891 94.8371 17.8102 102.905 17.9866 111.782C15.8236 110.203 14.6438 111.782 14.6438 116.121C9.33476 113.754 6.18864 95.4091 10.1213 95.0146ZM14.2506 95.8036C13.0708 87.5188 17.9866 81.7983 21.7226 80.2203C22.3497 85.1346 22.2167 87.8957 19.9529 92.8448C18.5546 92.6724 18.0392 93.2603 17.3967 95.0146C16.8724 94.6201 15.509 94.2256 14.2506 95.8036ZM7.36844 96.5927C4.24534 87.1285 6.77854 76.2751 9.33476 73.7107C10.5442 73.8226 11.8482 76.7859 12.5381 81.0093C12.2569 81.2723 11.7337 82.035 11.891 82.9819C12.0483 83.9287 12.6802 84.8229 12.9765 85.1517C13.1197 87.8919 12.9973 90.8812 12.4809 93.831C10.5489 93.9851 9.51279 93.3904 7.36844 96.5927ZM17.9866 80.2203C22.0446 75.8925 23.7114 73.0156 23.8856 65.8204C22.0625 66.1477 21.0388 66.3731 19.1664 67.793C15.8236 69.9628 17.3967 72.1327 13.4641 79.234C15.2337 81.0093 17.0315 78.3103 17.9866 80.2203ZM7.36844 75.2888C5.95408 67.3427 9.33476 63.4533 15.2337 57.3383C17.4247 64.948 16.6224 69.2726 13.0708 77.0641C10.6664 72.1341 9.38849 71.1041 7.36844 75.2888ZM22.1159 63.6506C26.2568 59.9237 27.6987 57.2269 29.3913 51.8151C27.3825 51.6782 26.2557 51.6044 22.1159 54.3795C21.926 57.0644 21.7115 58.5754 20.3462 61.2835C21.149 61.6046 21.5489 62.0294 22.1159 63.6506ZM12.9765 57.3383C14.8357 55.1625 16.0167 55.3277 18.5765 60.0999C21.4236 54.1738 21.9974 50.4158 22.1159 43.333C20.225 43.7567 19.1306 44.2557 17.0034 46.4892C16.8695 47.8016 16.6193 48.6541 15.2337 48.8563C13.7432 51.5823 13.0711 53.2658 12.9765 57.3383ZM34.5038 38.9934C29.3913 38.9934 23.8556 44.756 22.7058 52.4069C24.6205 52.5898 28.8775 49.9165 32.1442 46.6864C35.9226 42.9503 38.5913 38.536 38.2398 38.0071C37.5843 37.0208 36.4701 38.9934 34.5038 38.9934ZM22.1159 37.4153C24.9062 30.3062 27.941 28.2405 34.897 26.5661C33.5822 34.1954 31.5038 38.2421 23.2957 44.7138C25.6831 39.9846 24.1527 39.2253 22.1159 37.4153ZM29.9812 26.5661C34.8996 19.7904 38.792 17.7883 47.6782 17.295C44.8306 22.5242 42.6764 25.259 36.0768 29.1305C36.9968 24.8229 35.65 24.4314 29.9812 26.5661ZM45.5152 24.199C48.4669 23.8281 49.4219 24.4224 50.8243 25.9743C43.8887 31.9484 40.3749 33.6789 34.897 33.6674C35.1786 32.3077 35.4599 31.5434 36.0768 30.7085L36.2406 30.6165C39.7145 28.6647 41.7504 27.5208 45.5152 24.199ZM49.0546 18.2813C49.0546 18.2813 53.9704 18.8731 57.7064 17.295C63.4088 14.8864 61.0492 11.969 64.9818 10.3707C56.6895 8.43689 52.3749 9.82028 45.1219 15.5197C47.3137 15.7372 48.9208 15.3616 49.0546 18.2813ZM66.5549 18.8731C61.5904 21.9805 58.3552 23.14 51.0209 23.2127C51.9403 22.6556 52.2071 22.0914 52.3973 21.0429C57.2795 20.0676 59.5399 19.0471 62.0323 15.7169C64.7568 15.9991 65.6705 16.5173 66.5549 18.8731ZM81.5 8.90762C78.5722 10.7866 76.902 11.5745 72.6505 11.5745C69.2452 11.5745 67.9132 10.7657 66.6909 10.0235C65.6546 9.39425 64.6973 8.8129 62.6222 8.8129C69.8876 4.02894 74.3404 3.65858 81.5 6.73397C88.6596 3.65858 93.1124 4.02894 100.378 8.8129C98.3027 8.8129 97.3454 9.39425 96.3091 10.0235C95.0868 10.7657 93.7548 11.5745 90.3495 11.5745C86.098 11.5745 84.4278 10.7866 81.5 8.90762ZM77.763 12.3635C79.368 13.3457 79.9891 14.0209 80.5158 15.5197C74.5283 17.591 71.4492 17.598 66.5549 15.5197C67.1062 14.6289 67.6519 14.2065 68.9145 13.5471C73.8848 13.6784 75.8556 13.445 77.763 12.3635ZM102.737 140.778C102.737 141.962 103.917 140.778 103.917 143.343C103.917 144.447 102.541 145.907 102.737 148.274C104.841 146.515 105.999 145.773 108.046 144.724C108.243 144.395 108.794 142.948 109.423 139.792C110.209 135.847 107.063 137.228 105.097 138.214C103.524 139.003 102.868 140.252 102.737 140.778ZM118.075 143.343C112.962 143.343 106.67 145.907 103.917 148.471C106.237 149.046 107.17 149.599 108.046 151.036C108.571 150.115 110.052 148.077 111.782 147.288C113.945 146.302 115.715 147.485 117.092 146.499C118.468 145.513 118.075 144.329 118.075 143.343ZM112.176 140.187C112.503 140.515 112.884 141.489 112.569 142.751L116.698 142.554C124.02 135.552 125.201 132.222 124.367 125.392C118.542 130.03 115.516 132.94 112.176 140.187ZM119.255 145.513C119.884 144.566 119.517 142.883 119.255 142.159C126.421 132.207 130.061 129.111 136.165 127.365C136.88 134.609 125.944 144.273 119.255 145.513ZM129.676 144.526C130.328 144.526 130.856 143.996 130.856 143.343C130.856 142.689 130.328 142.159 129.676 142.159C129.024 142.159 128.496 142.689 128.496 143.343C128.496 143.996 129.024 144.526 129.676 144.526ZM126.923 130.521C127.575 130.521 128.103 129.991 128.103 129.337C128.103 128.684 127.575 128.154 126.923 128.154C126.272 128.154 125.743 128.684 125.743 129.337C125.743 129.991 126.272 130.521 126.923 130.521ZM140.491 114.149C141.142 114.149 141.671 113.619 141.671 112.965C141.671 112.311 141.142 111.782 140.491 111.782C139.839 111.782 139.311 112.311 139.311 112.965C139.311 113.619 139.839 114.149 140.491 114.149ZM156.811 104.088C157.463 104.088 157.991 103.559 157.991 102.905C157.991 102.251 157.463 101.721 156.811 101.721C156.16 101.721 155.632 102.251 155.632 102.905C155.632 103.559 156.16 104.088 156.811 104.088ZM147.176 98.9598C147.828 98.9598 148.356 98.4299 148.356 97.7762C148.356 97.1225 147.828 96.5927 147.176 96.5927C146.525 96.5927 145.997 97.1225 145.997 97.7762C145.997 98.4299 146.525 98.9598 147.176 98.9598ZM148.749 84.1654C149.401 84.1654 149.929 83.6355 149.929 82.9819C149.929 82.3282 149.401 81.7983 148.749 81.7983C148.098 81.7983 147.57 82.3282 147.57 82.9819C147.57 83.6355 148.098 84.1654 148.749 84.1654ZM152.879 61.2835C153.53 61.2835 154.059 60.7536 154.059 60.0999C154.059 59.4463 153.53 58.9164 152.879 58.9164C152.227 58.9164 151.699 59.4463 151.699 60.0999C151.699 60.7536 152.227 61.2835 152.879 61.2835ZM143.834 65.2287C144.485 65.2287 145.013 64.6988 145.013 64.0451C145.013 63.3914 144.485 62.8616 143.834 62.8616C143.182 62.8616 142.654 63.3914 142.654 64.0451C142.654 64.6988 143.182 65.2287 143.834 65.2287ZM148.946 47.6727C149.598 47.6727 150.126 47.1428 150.126 46.4892C150.126 45.8355 149.598 45.3056 148.946 45.3056C148.294 45.3056 147.766 45.8355 147.766 46.4892C147.766 47.1428 148.294 47.6727 148.946 47.6727ZM140.884 42.1495C141.536 42.1495 142.064 41.6196 142.064 40.9659C142.064 40.3123 141.536 39.7824 140.884 39.7824C140.233 39.7824 139.704 40.3123 139.704 40.9659C139.704 41.6196 140.233 42.1495 140.884 42.1495ZM127.316 38.0071C127.968 38.0071 128.496 37.4772 128.496 36.8235C128.496 36.1699 127.968 35.64 127.316 35.64C126.665 35.64 126.137 36.1699 126.137 36.8235C126.137 37.4772 126.665 38.0071 127.316 38.0071ZM113.356 22.4237C114.007 22.4237 114.535 21.8938 114.535 21.2401C114.535 20.5865 114.007 20.0566 113.356 20.0566C112.704 20.0566 112.176 20.5865 112.176 21.2401C112.176 21.8938 112.704 22.4237 113.356 22.4237ZM97.6249 14.3361C98.2765 14.3361 98.8047 13.8062 98.8047 13.1526C98.8047 12.4989 98.2765 11.969 97.6249 11.969C96.9733 11.969 96.4451 12.4989 96.4451 13.1526C96.4451 13.8062 96.9733 14.3361 97.6249 14.3361ZM136.951 110.598C135.378 109.809 127.316 120.264 126.923 125.984C128.169 126.313 130.777 127.247 131.249 128.351C137.738 125.59 138.525 111.387 136.951 110.598ZM145.997 112.571C143.244 111.584 136.951 121.842 136.165 125.984C138.181 125.984 139.311 128.351 137.345 132.494C145.013 128.746 148.749 113.557 145.997 112.571ZM139.704 97.7762C137.738 101.919 138.721 104.483 138.328 110.203C138.787 109.875 139.94 109.336 140.884 109.809C141.828 110.282 142.719 111.847 143.047 112.571C143.44 111.387 144.384 108.152 145.013 104.68C145.8 100.341 143.834 94.4228 143.047 94.2256C142.261 94.0283 141.671 93.6338 139.704 97.7762ZM152.879 95.0146C151.109 94.8371 145.19 102.905 145.013 111.782C147.176 110.203 148.356 111.782 148.356 116.121C153.665 113.754 156.811 95.4091 152.879 95.0146ZM148.749 95.8036C149.929 87.5188 145.013 81.7983 141.277 80.2203C140.65 85.1346 140.783 87.8957 143.047 92.8448C144.445 92.6724 144.961 93.2603 145.603 95.0146C146.128 94.6201 147.491 94.2256 148.749 95.8036ZM155.632 96.5927C158.755 87.1285 156.221 76.2751 153.665 73.7107C152.456 73.8226 151.152 76.7859 150.462 81.0093C150.743 81.2723 151.266 82.035 151.109 82.9819C150.952 83.9287 150.32 84.8229 150.023 85.1517C149.88 87.8919 150.003 90.8812 150.519 93.831C152.451 93.9851 153.487 93.3904 155.632 96.5927ZM145.013 80.2203C140.955 75.8925 139.289 73.0156 139.114 65.8204C140.938 66.1477 141.961 66.3731 143.834 67.793C147.176 69.9628 145.603 72.1327 149.536 79.234C147.766 81.0093 145.969 78.3103 145.013 80.2203ZM155.632 75.2888C157.046 67.3427 153.665 63.4533 147.766 57.3383C145.575 64.948 146.378 69.2726 149.929 77.0641C152.334 72.1341 153.612 71.1041 155.632 75.2888ZM140.884 63.6506C136.743 59.9237 135.301 57.2269 133.609 51.8151C135.618 51.6782 136.744 51.6044 140.884 54.3795C141.074 57.0644 141.289 58.5754 142.654 61.2835C141.851 61.6046 141.451 62.0294 140.884 63.6506ZM150.023 57.3383C148.164 55.1625 146.983 55.3277 144.424 60.0999C141.576 54.1738 141.003 50.4158 140.884 43.333C142.775 43.7567 143.869 44.2557 145.997 46.4892C146.131 47.8016 146.381 48.6541 147.766 48.8563C149.257 51.5823 149.929 53.2658 150.023 57.3383ZM128.496 38.9934C133.609 38.9934 139.144 44.756 140.294 52.4069C138.38 52.5898 134.122 49.9165 130.856 46.6864C127.077 42.9503 124.409 38.536 124.76 38.0071C125.416 37.0208 126.53 38.9934 128.496 38.9934ZM140.884 37.4153C138.094 30.3062 135.059 28.2405 128.103 26.5661C129.418 34.1954 131.496 38.2421 139.704 44.7138C137.317 39.9846 138.847 39.2253 140.884 37.4153ZM133.019 26.5661C128.1 19.7904 124.208 17.7883 115.322 17.295C118.169 22.5242 120.324 25.259 126.923 29.1305C126.003 24.8229 127.35 24.4314 133.019 26.5661ZM117.485 24.199C114.533 23.8281 113.578 24.4224 112.176 25.9743C119.111 31.9484 122.625 33.6789 128.103 33.6674C127.821 32.3077 127.54 31.5434 126.923 30.7085L126.759 30.6165C123.285 28.6647 121.25 27.5208 117.485 24.199ZM113.945 18.2813C113.945 18.2813 109.03 18.8731 105.294 17.295C99.5912 14.8864 101.951 11.969 98.0182 10.3707C106.31 8.43689 110.625 9.82028 117.878 15.5197C115.686 15.7372 114.079 15.3616 113.945 18.2813ZM96.4451 18.8731C101.41 21.9805 104.645 23.14 111.979 23.2127C111.06 22.6556 110.793 22.0914 110.603 21.0429C105.72 20.0676 103.46 19.0471 100.968 15.7169C98.2432 15.9991 97.3295 16.5173 96.4451 18.8731ZM85.237 12.3635C83.632 13.3457 83.0109 14.0209 82.4842 15.5197C88.4717 17.591 91.5508 17.598 96.4451 15.5197C95.8938 14.6289 95.3481 14.2065 94.0855 13.5471C89.1152 13.6784 87.1444 13.445 85.237 12.3635Z" fill="#6F6C6C"/>
<path fill-rule="evenodd" clip-rule="evenodd" d="M81.5 6.73397C88.6596 3.65858 93.1124 4.02894 100.378 8.8129C98.3027 8.8129 97.3454 9.39425 96.3091 10.0235C95.0868 10.7657 93.7548 11.5745 90.3495 11.5745C86.098 11.5745 84.4278 10.7866 81.5 8.90762C81.8585 8.67758 82.2358 8.43118 82.639 8.16787C82.9027 7.99565 83.1775 7.8162 83.4653 7.62935C82.7865 7.30443 82.1327 7.00574 81.5 6.73397ZM81.5 6.73397C80.8673 7.00574 80.2135 7.30443 79.5347 7.62935C79.8225 7.8162 80.0973 7.99565 80.361 8.16787C80.7642 8.43118 81.1415 8.67758 81.5 8.90762C78.5722 10.7866 76.902 11.5745 72.6505 11.5745C69.2452 11.5745 67.9132 10.7657 66.6909 10.0235C65.6546 9.39425 64.6973 8.8129 62.6222 8.8129C69.8876 4.02894 74.3404 3.65858 81.5 6.73397Z" fill="#CBC5C5"/>
<path d="M81.5 6.73397C80.8673 7.00574 80.2135 7.30443 79.5347 7.62935C79.8225 7.8162 80.0973 7.99565 80.361 8.16787C80.7642 8.43118 81.1415 8.67758 81.5 8.90762C81.8585 8.67758 82.2358 8.43118 82.639 8.16787C82.9027 7.99565 83.1775 7.8162 83.4653 7.62935C82.7865 7.30443 82.1327 7.00574 81.5 6.73397Z" fill="#6F6C6C"/>
<path d="M84.4316 155.77C84.45 156.737 84.5053 157.709 84.5994 158.729C85.0523 160.051 95.001 161.374 100.41 163.858L101.361 162.082C98.4114 162.674 89.3663 156.165 84.4316 155.77Z" fill="#6F6C6C"/>
<path d="M78.4006 158.729C78.4947 157.709 78.5501 156.737 78.5684 155.77C73.6337 156.165 64.5886 162.674 61.6391 162.082L62.5905 163.858C67.999 161.374 77.9477 160.051 78.4006 158.729Z" fill="#6F6C6C"/>
<path d="M63.5734 81.4391H95.0961V86.5122H63.5734V81.4391Z" fill="#CBC5C5"/>
<path d="M99.5993 109.024C99.5993 120.057 90.5265 129 79.3347 129C68.1429 129 59.0701 120.057 59.0701 109.024C59.0701 97.9922 68.1429 89.0488 79.3347 89.0488C90.5265 89.0488 99.5993 97.9922 99.5993 109.024Z" fill="#CBC5C5"/>
<path d="M50.8664 57.9934C50.8664 70.486 70.3257 73.0486 73.5689 80.416C76.0914 75.2908 69.5329 70.486 66.3617 67.9234C62.3978 64.7201 57.3528 59.9153 57.3528 55.7511C57.3528 52.4197 59.2747 48.8107 60.2357 47.4227C55.9114 48.0633 50.8664 51.9072 50.8664 57.9934Z" fill="#CBC5C5"/>
<path d="M60.9564 54.4698C60.9564 66.3218 75.0103 68.2437 76.8121 80.416C79.3346 67.9234 68.8842 63.4389 68.8842 53.1885C68.8842 47.4227 68.8842 45.1804 72.1274 41.3365C68.5239 41.3365 60.9564 44.2194 60.9564 54.4698Z" fill="#CBC5C5"/>
<path d="M79.3346 80.416C80.4156 67.9234 85.821 61.8372 85.821 48.704C85.821 37.813 82.9381 32.0471 79.3346 25C75.731 32.0471 72.8481 37.813 72.8481 48.704C72.8481 61.8372 78.2535 67.9234 79.3346 80.416Z" fill="#CBC5C5"/>
<path d="M81.8571 80.416C83.6588 68.2437 97.7127 66.3218 97.7127 54.4698C97.7127 44.2194 90.1452 41.3365 86.5417 41.3365C89.7849 45.1804 89.7849 47.4227 89.7849 53.1885C89.7849 63.4389 79.3346 67.9234 81.8571 80.416Z" fill="#CBC5C5"/>
<path d="M85.1003 80.416C88.3435 73.0486 107.803 70.486 107.803 57.9934C107.803 51.9072 102.758 48.0633 98.4334 47.4227C99.3944 48.8107 101.316 52.4197 101.316 55.7511C101.316 59.9153 96.2713 64.7201 92.3074 67.9234C89.1362 70.486 82.5778 75.2908 85.1003 80.416Z" fill="#CBC5C5"/>
<path fill-rule="evenodd" clip-rule="evenodd" d="M34.0371 107.469L63.5978 92.7056C62.5055 93.7306 61.5159 94.8612 60.6459 96.081L34.8074 108.986L34.0371 107.469ZM91.2557 78.8921L117.737 65.6666L118.507 67.183L95.0624 78.8921H91.2557ZM43.5231 98.0709L46.0718 100.598L47.2826 99.3975L44.7339 96.8703L43.5231 98.0709ZM40.6898 99.6423L43.1806 102.141L44.3983 100.947L41.9076 98.4486L40.6898 99.6423ZM37.8598 100.759L40.3506 103.257L41.5683 102.064L39.0776 99.5653L37.8598 100.759ZM35.0006 102.391L37.4914 104.89L38.7092 103.696L36.2184 101.197L35.0006 102.391ZM32.1123 103.794L34.6031 106.293L35.8209 105.099L33.3301 102.6L32.1123 103.794ZM47.4884 103.57V107.492H49.2008V103.57H47.4884ZM44.5358 104.851V108.774H46.2482V104.851H44.5358ZM41.7276 106.504V110.427H43.4399V106.504H41.7276ZM38.7172 107.872V111.794H40.4296V107.872H38.7172ZM35.7934 109.153V113.076H37.5058V109.153H35.7934Z" fill="#CBC5C5"/>
<path d="M131.112 60.1187L121.38 71.059V65.0557L116.797 61.4651L131.112 60.1187Z" fill="#CBC5C5"/>
</svg>
