<svg width="164" height="124" viewBox="0 0 164 124" fill="none" xmlns="http://www.w3.org/2000/svg">
<path d="M0.764648 22C0.764648 9.84974 10.6076 0 22.7495 0H141.667C153.809 0 163.652 9.84974 163.652 22V102C163.652 114.15 153.809 124 141.667 124H22.7495C10.6076 124 0.764648 114.15 0.764648 102V22Z" fill="#C5A869"/>
<path fill-rule="evenodd" clip-rule="evenodd" d="M141.667 11H22.7495C16.6785 11 11.7571 15.9249 11.7571 22V102C11.7571 108.075 16.6785 113 22.7495 113H141.667C147.738 113 152.66 108.075 152.66 102V22C152.66 15.9249 147.738 11 141.667 11ZM22.7495 0C10.6076 0 0.764648 9.84974 0.764648 22V102C0.764648 114.15 10.6076 124 22.7495 124H141.667C153.809 124 163.652 114.15 163.652 102V22C163.652 9.84974 153.809 0 141.667 0H22.7495Z" fill="#A68C55"/>
<path d="M66.7494 65.8349H93.7635V70.2194H66.7494V65.8349Z" fill="black"/>
<path d="M97.6227 89.6754C97.6227 99.21 89.8476 106.939 80.2565 106.939C70.6654 106.939 62.8902 99.21 62.8902 89.6754C62.8902 80.1409 70.6654 72.4116 80.2565 72.4116C89.8476 72.4116 97.6227 80.1409 97.6227 89.6754Z" fill="black"/>
<path d="M55.8599 45.572C55.8599 56.3687 72.5359 58.5834 75.3153 64.9507C77.477 60.5213 71.8565 56.3687 69.139 54.154C65.742 51.3856 61.4186 47.233 61.4186 43.6341C61.4186 40.755 63.0656 37.636 63.8891 36.4363C60.1833 36.99 55.8599 40.3121 55.8599 45.572Z" fill="black"/>
<path d="M64.5067 42.5268C64.5067 52.7698 76.5505 54.4309 78.0946 64.9507C80.2563 54.154 71.3007 50.2783 71.3007 41.4194C71.3007 36.4363 71.3007 34.4985 74.08 31.1764C70.9919 31.1764 64.5067 33.6679 64.5067 42.5268Z" fill="black"/>
<path d="M80.2563 64.9507C81.1828 54.154 85.815 48.8941 85.815 37.5437C85.815 28.1312 83.3445 23.1481 80.2563 17.0576C77.1682 23.1481 74.6976 28.1312 74.6976 37.5437C74.6976 48.8941 79.3299 54.154 80.2563 64.9507Z" fill="black"/>
<path d="M82.418 64.9507C83.9621 54.4309 96.0059 52.7698 96.0059 42.5268C96.0059 33.6679 89.5208 31.1764 86.4326 31.1764C89.212 34.4985 89.212 36.4363 89.212 41.4194C89.212 50.2783 80.2563 54.154 82.418 64.9507Z" fill="black"/>
<path d="M85.1974 64.9507C87.9767 58.5834 104.653 56.3687 104.653 45.572C104.653 40.3121 100.329 36.99 96.6236 36.4363C97.4471 37.636 99.0941 40.755 99.0941 43.6341C99.0941 47.233 94.7707 51.3856 91.3737 54.154C88.6561 56.3687 83.0357 60.5213 85.1974 64.9507Z" fill="black"/>
<path fill-rule="evenodd" clip-rule="evenodd" d="M41.4376 88.3314L66.7703 75.5719C65.8342 76.4578 64.9862 77.4349 64.2406 78.4892L42.0977 89.642L41.4376 88.3314ZM90.4725 63.6337L113.166 52.2036L113.826 53.5142L93.7346 63.6337H90.4725ZM49.5669 80.2089L51.751 82.3931L52.7886 81.3554L50.6045 79.1713L49.5669 80.2089ZM47.1388 81.567L49.2733 83.7263L50.3169 82.6946L48.1824 80.5353L47.1388 81.567ZM44.7135 82.532L46.848 84.6913L47.8917 83.6597L45.7571 81.5004L44.7135 82.532ZM42.2633 83.9426L44.3978 86.1019L45.4415 85.0703L43.3069 82.911L42.2633 83.9426ZM39.7881 85.1552L41.9226 87.3144L42.9662 86.2828L40.8317 84.1235L39.7881 85.1552ZM52.965 84.9612V88.3514H54.4325V84.9612H52.965ZM50.4347 86.0685V89.4587H51.9022V86.0685H50.4347ZM48.0281 87.4976V90.8878H49.4956V87.4976H48.0281ZM45.4483 88.6792V92.0694H46.9158V88.6792H45.4483ZM42.9427 89.7865V93.1767H44.4102V89.7865H42.9427Z" fill="black"/>
<path d="M124.629 47.4088L116.289 56.864V51.6757L112.361 48.5724L124.629 47.4088Z" fill="black"/>
</svg>
