<svg width="164" height="124" viewBox="0 0 164 124" fill="none" xmlns="http://www.w3.org/2000/svg">
<path d="M0.988281 22C0.988281 9.84974 10.8312 0 22.9731 0H141.891C154.033 0 163.876 9.84974 163.876 22V102C163.876 114.15 154.033 124 141.891 124H22.9731C10.8312 124 0.988281 114.15 0.988281 102V22Z" fill="#C5A869"/>
<path fill-rule="evenodd" clip-rule="evenodd" d="M141.891 11H22.9731C16.9022 11 11.9807 15.9249 11.9807 22V102C11.9807 108.075 16.9022 113 22.9731 113H141.891C147.962 113 152.883 108.075 152.883 102V22C152.883 15.9249 147.962 11 141.891 11ZM22.9731 0C10.8312 0 0.988281 9.84974 0.988281 22V102C0.988281 114.15 10.8312 124 22.9731 124H141.891C154.033 124 163.876 114.15 163.876 102V22C163.876 9.84974 154.033 0 141.891 0H22.9731Z" fill="#A68C55"/>
<path d="M68.7421 65.6528H95.7562V70.0372H68.7421V65.6528Z" fill="black"/>
<path d="M99.6154 89.4933C99.6154 99.0279 91.8402 106.757 82.2491 106.757C72.658 106.757 64.8829 99.0279 64.8829 89.4933C64.8829 79.9587 72.658 72.2295 82.2491 72.2295C91.8402 72.2295 99.6154 79.9587 99.6154 89.4933Z" fill="black"/>
<path d="M57.8525 45.3899C57.8525 56.1866 74.5286 58.4013 77.3079 64.7686C79.4697 60.3392 73.8492 56.1866 71.1316 53.9719C67.7346 51.2035 63.4112 47.0509 63.4112 43.452C63.4112 40.5729 65.0582 37.4538 65.8818 36.2542C62.176 36.8079 57.8525 40.1299 57.8525 45.3899Z" fill="black"/>
<path d="M66.4994 42.3447C66.4994 52.5877 78.5432 54.2487 80.0873 64.7686C82.249 53.9719 73.2933 50.0961 73.2933 41.2373C73.2933 36.2542 73.2933 34.3163 76.0727 30.9943C72.9845 30.9943 66.4994 33.4858 66.4994 42.3447Z" fill="black"/>
<path d="M82.249 64.7686C83.1754 53.9719 87.8077 48.7119 87.8077 37.3616C87.8077 27.949 85.3372 22.9659 82.249 16.8755C79.1608 22.9659 76.6903 27.949 76.6903 37.3616C76.6903 48.7119 81.3225 53.9719 82.249 64.7686Z" fill="black"/>
<path d="M84.4107 64.7686C85.9548 54.2487 97.9986 52.5877 97.9986 42.3447C97.9986 33.4858 91.5135 30.9943 88.4253 30.9943C91.2047 34.3163 91.2047 36.2542 91.2047 41.2373C91.2047 50.0961 82.249 53.9719 84.4107 64.7686Z" fill="black"/>
<path d="M87.19 64.7686C89.9694 58.4013 106.645 56.1866 106.645 45.3899C106.645 40.1299 102.322 36.8079 98.6162 36.2542C99.4397 37.4538 101.087 40.5729 101.087 43.452C101.087 47.0509 96.7633 51.2035 93.3664 53.9719C90.6488 56.1866 85.0283 60.3392 87.19 64.7686Z" fill="black"/>
</svg>
