<svg width="164" height="124" viewBox="0 0 164 124" fill="none" xmlns="http://www.w3.org/2000/svg">
<path d="M0.876953 22C0.876953 9.84974 10.7199 0 22.8618 0H141.78C153.922 0 163.765 9.84974 163.765 22V102C163.765 114.15 153.922 124 141.78 124H22.8618C10.7199 124 0.876953 114.15 0.876953 102V22Z" fill="#C5A869"/>
<path fill-rule="evenodd" clip-rule="evenodd" d="M141.78 11H22.8618C16.7908 11 11.8694 15.9249 11.8694 22V102C11.8694 108.075 16.7908 113 22.8618 113H141.78C147.851 113 152.772 108.075 152.772 102V22C152.772 15.9249 147.851 11 141.78 11ZM22.8618 0C10.7199 0 0.876953 9.84974 0.876953 22V102C0.876953 114.15 10.7199 124 22.8618 124H141.78C153.922 124 163.765 114.15 163.765 102V22C163.765 9.84974 153.922 0 141.78 0H22.8618Z" fill="#A68C55"/>
<path fill-rule="evenodd" clip-rule="evenodd" d="M82.3213 104.266C86.2125 104.266 86.92 100.728 86.92 99.667C86.92 98.6058 83.3825 97.5445 83.3825 96.837C85.505 96.1295 86.92 95.0683 86.92 89.0545C86.92 83.0407 85.505 83.3945 84.7975 82.687H93.9951V80.2107H85.1513L87.6275 29.6243L82.675 19.3655L82.3213 77.7345L81.9675 19.3655L77.015 29.6243L79.4912 80.2107H70.6475V82.687H79.845C79.1375 83.3945 77.7225 82.3332 77.7225 89.0545C77.7225 95.7758 79.4912 96.4833 81.26 96.837C81.26 97.5445 77.7225 98.6058 77.7225 99.667C77.7225 100.728 78.43 104.266 82.3213 104.266ZM84.09 85.8707L80.5525 85.1632L80.1987 85.8707L84.4438 86.5782L84.09 85.8707ZM84.7975 87.6395L79.845 86.932V87.6395L84.7975 88.347V87.6395ZM84.7975 89.4083L79.845 88.7008V89.4083L84.7975 90.1158V89.4083ZM84.7975 91.177L79.845 90.4695V91.177L84.7975 91.8845V91.177ZM84.4438 92.9458L80.1987 92.2383L80.5525 92.9458L84.09 93.6533L84.4438 92.9458Z" fill="black"/>
</svg>
