<svg width="164" height="168" viewBox="0 0 164 168" fill="none" xmlns="http://www.w3.org/2000/svg">
<path d="M78.6249 162.871C74.2017 162.674 70.6623 163.858 68.696 165.238C66.7297 166.619 65.9431 168 64.7633 168C63.5835 168 60.8307 166.619 60.8307 165.436C61.4354 164.861 62.3106 164.338 63.3552 163.858C68.7636 161.374 78.7123 160.051 79.1652 158.729C79.0473 160.007 78.8684 161.36 78.6249 162.871Z" fill="#CBC5C5"/>
<path d="M79.1652 151.228C79.1664 151.242 79.1676 151.255 79.1687 151.269C79.2863 152.937 75.7609 149.038 74.0051 145.907C72.2354 142.751 71.2522 144.724 69.0892 145.907C66.9263 147.091 64.3701 146.696 64.7633 148.077C65.1566 149.458 70.269 149.852 71.2522 149.852C72.2354 149.852 75.9714 149.852 76.168 151.036C76.3647 152.219 70.8589 153.206 69.8758 153.206C68.8926 153.206 65.9431 151.825 63.9768 150.247C62.0105 148.669 61.6172 145.513 61.6172 143.343C61.6172 141.173 61.6172 141.173 64.3701 141.173C66.9263 141.173 69.2859 138.411 72.432 138.411C74.2017 140.581 77.7411 143.935 79.1652 151.228Z" fill="#CBC5C5"/>
<path d="M59.8475 143.343C59.8475 140.778 61.0273 141.962 61.0273 140.778C60.8962 140.252 60.2408 139.003 58.6677 138.214C56.7014 137.228 53.5553 135.847 54.3418 139.792C54.971 142.948 55.5216 144.395 55.7182 144.724C57.7653 145.773 58.9237 146.515 61.0273 148.274C61.2239 145.907 59.8475 144.447 59.8475 143.343Z" fill="#CBC5C5"/>
<path d="M59.8475 148.471C57.0946 145.907 50.8024 143.343 45.6899 143.343C45.6899 144.329 45.2967 145.513 46.6731 146.499C48.0495 147.485 49.8192 146.302 51.9822 147.288C53.7126 148.077 55.1939 150.115 55.7182 151.036C56.5951 149.599 57.5273 149.046 59.8475 148.471Z" fill="#CBC5C5"/>
<path d="M49.8192 153.206C51.235 152.732 51.5889 149.852 51.5889 148.471C48.8361 146.499 47.8529 150.247 39.9876 145.513C39.2944 146.941 39.3265 147.809 39.5943 151.228C40.8531 152.43 41.6715 153.014 43.527 153.797C44.2729 149.23 45.4728 147.912 49.8192 149.063C48.6002 150.705 48.5665 151.564 49.8192 153.206Z" fill="#CBC5C5"/>
<path d="M62.4037 162.082C62.4037 161.096 60.2408 158.729 59.4542 158.729C58.6677 158.729 56.5047 162.871 53.162 162.871C50.7983 162.871 47.0582 161.885 45.0701 159.912C44.6151 157.465 44.59 155.77 44.8299 154.587C45.2279 152.624 46.3554 152.071 47.4596 151.825C47.4596 153.403 50.2125 155.178 51.9822 155.178C54.5384 155.178 58.0778 149.852 59.061 149.852C60.0441 149.852 62.9936 152.022 63.5835 155.178C68.3027 155.376 74.7916 153.206 79.3057 153.403C79.3385 154.203 79.348 154.985 79.3331 155.77C74.3983 156.165 65.3532 162.674 62.4037 162.082Z" fill="#CBC5C5"/>
<path d="M51.1957 142.751C50.8811 141.489 51.2612 140.515 51.5889 140.187C48.2482 132.94 45.2228 130.03 39.3977 125.392C38.5638 132.222 39.7451 135.552 47.0664 142.554L51.1957 142.751Z" fill="#CBC5C5"/>
<path d="M32.9088 143.343C32.9088 143.996 33.437 144.526 34.0886 144.526C34.7402 144.526 35.2684 143.996 35.2684 143.343C35.2684 142.689 34.7402 142.159 34.0886 142.159C33.437 142.159 32.9088 142.689 32.9088 143.343Z" fill="#CBC5C5"/>
<path d="M35.6617 129.337C35.6617 129.991 36.1899 130.521 36.8415 130.521C37.4931 130.521 38.0213 129.991 38.0213 129.337C38.0213 128.684 37.4931 128.154 36.8415 128.154C36.1899 128.154 35.6617 128.684 35.6617 129.337Z" fill="#CBC5C5"/>
<path d="M22.094 112.965C22.094 113.619 22.6222 114.149 23.2738 114.149C23.9254 114.149 24.4536 113.619 24.4536 112.965C24.4536 112.311 23.9254 111.782 23.2738 111.782C22.6222 111.782 22.094 112.311 22.094 112.965Z" fill="#CBC5C5"/>
<path d="M5.77349 102.905C5.77349 103.559 6.30171 104.088 6.95329 104.088C7.60487 104.088 8.13309 103.559 8.13309 102.905C8.13309 102.251 7.60487 101.721 6.95329 101.721C6.30171 101.721 5.77349 102.251 5.77349 102.905Z" fill="#CBC5C5"/>
<path d="M15.4085 97.7762C15.4085 98.4299 15.9367 98.9598 16.5883 98.9598C17.2399 98.9598 17.7681 98.4299 17.7681 97.7762C17.7681 97.1225 17.2399 96.5927 16.5883 96.5927C15.9367 96.5927 15.4085 97.1225 15.4085 97.7762Z" fill="#CBC5C5"/>
<path d="M13.8354 82.9819C13.8354 83.6355 14.3636 84.1654 15.0152 84.1654C15.6668 84.1654 16.195 83.6355 16.195 82.9819C16.195 82.3282 15.6668 81.7983 15.0152 81.7983C14.3636 81.7983 13.8354 82.3282 13.8354 82.9819Z" fill="#CBC5C5"/>
<path d="M9.70615 60.0999C9.70615 60.7536 10.2344 61.2835 10.8859 61.2835C11.5375 61.2835 12.0657 60.7536 12.0657 60.0999C12.0657 59.4463 11.5375 58.9164 10.8859 58.9164C10.2344 58.9164 9.70615 59.4463 9.70615 60.0999Z" fill="#CBC5C5"/>
<path d="M18.7513 64.0451C18.7513 64.6988 19.2795 65.2287 19.9311 65.2287C20.5826 65.2287 21.1108 64.6988 21.1108 64.0451C21.1108 63.3914 20.5826 62.8616 19.9311 62.8616C19.2795 62.8616 18.7513 63.3914 18.7513 64.0451Z" fill="#CBC5C5"/>
<path d="M13.6388 46.4892C13.6388 47.1428 14.167 47.6727 14.8186 47.6727C15.4702 47.6727 15.9984 47.1428 15.9984 46.4892C15.9984 45.8355 15.4702 45.3056 14.8186 45.3056C14.167 45.3056 13.6388 45.8355 13.6388 46.4892Z" fill="#CBC5C5"/>
<path d="M21.7007 40.9659C21.7007 41.6196 22.229 42.1495 22.8805 42.1495C23.5321 42.1495 24.0603 41.6196 24.0603 40.9659C24.0603 40.3123 23.5321 39.7824 22.8805 39.7824C22.229 39.7824 21.7007 40.3123 21.7007 40.9659Z" fill="#CBC5C5"/>
<path d="M35.2684 36.8235C35.2684 37.4772 35.7966 38.0071 36.4482 38.0071C37.0998 38.0071 37.628 37.4772 37.628 36.8235C37.628 36.1699 37.0998 35.64 36.4482 35.64C35.7966 35.64 35.2684 36.1699 35.2684 36.8235Z" fill="#CBC5C5"/>
<path d="M49.2293 21.2401C49.2293 21.8938 49.7575 22.4237 50.4091 22.4237C51.0607 22.4237 51.5889 21.8938 51.5889 21.2401C51.5889 20.5865 51.0607 20.0566 50.4091 20.0566C49.7575 20.0566 49.2293 20.5865 49.2293 21.2401Z" fill="#CBC5C5"/>
<path d="M39.9876 14.3361C39.9876 14.9898 40.5158 15.5197 41.1674 15.5197C41.819 15.5197 42.3472 14.9898 42.3472 14.3361C42.3472 13.6825 41.819 13.1526 41.1674 13.1526C40.5158 13.1526 39.9876 13.6825 39.9876 14.3361Z" fill="#CBC5C5"/>
<path d="M64.96 13.1526C64.96 13.8062 65.4882 14.3361 66.1398 14.3361C66.7913 14.3361 67.3195 13.8062 67.3195 13.1526C67.3195 12.4989 66.7913 11.969 66.1398 11.969C65.4882 11.969 64.96 12.4989 64.96 13.1526Z" fill="#CBC5C5"/>
<path d="M64.1734 3.68419C64.1734 4.33785 64.7016 4.86774 65.3532 4.86774C66.0048 4.86774 66.533 4.33785 66.533 3.68419C66.533 3.03054 66.0048 2.50065 65.3532 2.50065C64.7016 2.50065 64.1734 3.03054 64.1734 3.68419Z" fill="#CBC5C5"/>
<path d="M44.5101 142.159C44.248 142.883 43.8809 144.566 44.5101 145.513C37.821 144.273 26.8842 134.609 27.5997 127.365C33.7041 129.111 37.3432 132.207 44.5101 142.159Z" fill="#CBC5C5"/>
<path d="M36.8415 125.984C36.4482 120.264 28.3863 109.809 26.8132 110.598C25.2401 111.387 26.0267 125.59 32.5155 128.351C32.9875 127.247 35.5961 126.313 36.8415 125.984Z" fill="#CBC5C5"/>
<path d="M32.3189 140.384C29.1728 137.031 23.4704 133.677 18.1614 134.466C19.5378 139.792 27.7964 142.948 31.1391 144.526C30.7459 143.343 31.3358 140.976 32.3189 140.384Z" fill="#CBC5C5"/>
<path d="M38.0213 149.852C37.4314 148.077 38.4145 146.302 37.8246 146.104C37.3527 145.947 34.4819 145.776 33.1054 145.71C34.443 147.434 35.4858 148.353 38.0213 149.852Z" fill="#CBC5C5"/>
<path d="M27.5997 125.984C26.8132 121.842 20.521 111.584 17.7681 112.571C15.0152 113.557 18.7513 128.746 26.4199 132.494C24.4536 128.351 25.5841 125.984 27.5997 125.984Z" fill="#CBC5C5"/>
<path d="M25.4368 110.203C25.0435 104.483 26.0267 101.919 24.0603 97.7762C22.094 93.6338 21.5041 94.0283 20.7176 94.2256C19.9311 94.4228 17.9647 100.341 18.7513 104.68C19.3805 108.152 20.3243 111.387 20.7176 112.571C21.0453 111.847 21.9367 110.282 22.8805 109.809C23.8244 109.336 24.978 109.875 25.4368 110.203Z" fill="#CBC5C5"/>
<path d="M18.7513 111.782C18.5749 102.905 12.6556 94.8371 10.8859 95.0146C6.95329 95.4091 10.0994 113.754 15.4085 116.121C15.4085 111.782 16.5883 110.203 18.7513 111.782Z" fill="#CBC5C5"/>
<path d="M24.4536 133.085C18.5546 129.337 19.7344 126.576 16.195 123.222C13.3635 120.54 9.6406 119.475 8.13309 119.277C11.1376 127.891 14.4274 131.19 24.4536 133.085Z" fill="#CBC5C5"/>
<path d="M14.622 119.869C13.4422 114.442 5.38023 102.905 3.02063 104.088C3.02063 106.653 7.24197 113.754 8.13309 117.699C11.1219 118.015 13.7043 119.277 14.622 119.869Z" fill="#CBC5C5"/>
<path d="M22.4873 80.2203C18.7513 81.7983 13.8354 87.5188 15.0152 95.8036C16.2737 94.2256 17.637 94.6201 18.1614 95.0146C18.8038 93.2603 19.3192 92.6724 20.7176 92.8448C22.9814 87.8957 23.1143 85.1346 22.4873 80.2203Z" fill="#CBC5C5"/>
<path d="M10.0994 73.7107C7.54319 76.2751 5.00998 87.1285 8.13309 96.5927C10.2774 93.3904 11.3135 93.9851 13.2455 93.831C13.7619 90.8812 13.8843 87.8919 13.7412 85.1517C13.4449 84.8229 12.8129 83.9287 12.6556 82.9819C12.4983 82.035 13.0215 81.2723 13.3028 81.0093C12.6128 76.7859 11.3089 73.8226 10.0994 73.7107Z" fill="#CBC5C5"/>
<path d="M2.03747 87.1243C2.03747 92.8448 2.95914 95.8816 3.02063 102.313C3.61053 103.694 5.77349 103.497 5.38023 99.5515C5.66145 100.492 7.46515 101.396 7.14992 96.7899C6.8347 92.1842 2.03747 87.1243 2.03747 87.1243Z" fill="#CBC5C5"/>
<path d="M24.6502 65.8204C24.476 73.0156 22.8093 75.8925 18.7513 80.2203C17.7961 78.3103 15.9984 81.0093 14.2287 79.234C18.1614 72.1327 16.5883 69.9628 19.9311 67.793C21.8034 66.3731 22.8271 66.1477 24.6502 65.8204Z" fill="#CBC5C5"/>
<path d="M15.9984 57.3383C10.0994 63.4533 6.71873 67.3427 8.13309 75.2888C10.1531 71.1041 11.431 72.1341 13.8354 77.0641C17.3871 69.2726 18.1894 64.948 15.9984 57.3383Z" fill="#CBC5C5"/>
<path d="M5.38023 89.0969C6.06659 83.1491 6.36339 80.2203 5.77349 77.0641C4.86257 74.8731 3.93761 73.8268 1.44757 72.3299C0.498309 77.4953 0.576546 80.3813 1.44757 85.5462C3.6685 86.2633 4.32643 87.2364 5.38023 89.0969Z" fill="#CBC5C5"/>
<path d="M6.56002 75.2888C5.77349 68.7793 8.52635 65.2287 8.52635 61.2835C8.52635 57.3383 5.77349 54.9712 5.77349 54.9712C3.99593 62.0223 3.74405 65.7562 3.61053 72.3299C4.78996 72.774 5.44103 73.4615 6.56002 75.2888Z" fill="#CBC5C5"/>
<path d="M30.156 51.8151C28.4633 57.2269 27.0214 59.9237 22.8805 63.6506C22.3136 62.0294 21.9136 61.6046 21.1108 61.2835C22.4761 58.5754 22.6907 57.0644 22.8805 54.3795C27.0204 51.6044 28.1471 51.6782 30.156 51.8151Z" fill="#CBC5C5"/>
<path d="M19.3412 60.0999C16.7814 55.3277 15.6003 55.1625 13.7412 57.3383C13.8358 53.2658 14.5079 51.5823 15.9984 48.8563C17.3839 48.6541 17.6341 47.8016 17.7681 46.4892C19.8952 44.2557 20.9896 43.7567 22.8805 43.333C22.7621 50.4158 22.1882 54.1738 19.3412 60.0999Z" fill="#CBC5C5"/>
<path d="M12.0657 44.1221C9.27656 46.5605 8.14797 48.6122 7.34655 54.1822C8.10284 54.8299 8.47683 55.7449 9.11625 57.7328C10.0129 56.7355 10.5311 56.5943 11.4758 56.9438C13.3929 52.038 13.3956 49.2322 12.0657 44.1221Z" fill="#CBC5C5"/>
<path d="M23.4704 52.4069C24.6202 44.756 30.156 38.9934 35.2684 38.9934C37.2347 38.9934 38.349 37.0208 39.0044 38.0071C39.356 38.536 36.6872 42.9503 32.9088 46.6864C29.6422 49.9165 25.3851 52.5898 23.4704 52.4069Z" fill="#CBC5C5"/>
<path d="M35.6617 26.5661C28.7057 28.2405 25.6708 30.3062 22.8805 37.4153C24.9173 39.2253 26.4477 39.9846 24.0603 44.7138C32.2685 38.2421 34.3469 34.1954 35.6617 26.5661Z" fill="#CBC5C5"/>
<path d="M21.7007 29.1305C16.9046 33.587 15.0143 36.5575 12.8523 42.544C12.8498 43.5088 12.9103 43.9981 13.4422 44.5166C14.3315 43.9986 15.0663 43.8603 17.1782 44.1221C21.2541 38.0764 21.9838 34.8154 21.7007 29.1305Z" fill="#CBC5C5"/>
<path d="M48.4428 17.295C39.5566 17.7883 35.6643 19.7904 30.7459 26.5661C36.4146 24.4314 37.7615 24.8229 36.8415 29.1305C43.441 25.259 45.5953 22.5242 48.4428 17.295Z" fill="#CBC5C5"/>
<path d="M38.8078 14.1389C38.4145 17.6895 29.3694 24.5935 22.6839 34.2592C25.0435 27.3551 25.8445 26.0202 22.8805 27.9469C28.3769 18.9581 31.9162 16.1937 38.8078 14.1389Z" fill="#CBC5C5"/>
<path d="M51.5889 25.9743C50.1865 24.4224 49.2315 23.8281 46.2798 24.199C42.515 27.5208 40.4792 28.6647 37.0052 30.6165L36.8415 30.7085C36.2245 31.5434 35.9433 32.3077 35.6617 33.6674C41.1395 33.6789 44.6533 31.9484 51.5889 25.9743Z" fill="#CBC5C5"/>
<path d="M58.4711 17.295C54.7351 18.8731 49.8192 18.2813 49.8192 18.2813C49.6854 15.3616 48.0783 15.7372 45.8866 15.5197C53.1396 9.82028 57.4542 8.43689 65.7465 10.3707C61.8138 11.969 64.1734 14.8864 58.4711 17.295Z" fill="#CBC5C5"/>
<path d="M51.7856 23.2127C59.1198 23.14 62.355 21.9805 67.3195 18.8731C66.4352 16.5173 65.5214 15.9991 62.797 15.7169C60.3046 19.0471 58.0442 20.0676 53.162 21.0429C52.9718 22.0914 52.7049 22.6556 51.7856 23.2127Z" fill="#CBC5C5"/>
<path d="M62.797 2.89516C62.196 5.76179 61.4655 7.22155 57.4879 8.8129C53.9911 9.6234 52.8804 9.01722 45.2967 14.9279C44.6617 15.3274 44.317 15.4586 43.7236 15.5197C43.8123 13.868 43.6603 13.0898 43.1337 11.969C49.8617 6.06275 54.3423 4.51149 62.797 2.89516Z" fill="#CBC5C5"/>
<path d="M81.2805 15.5197C80.7537 14.0209 80.1326 13.3457 78.5276 12.3635C76.6203 13.445 74.6494 13.6784 69.6791 13.5471C68.4165 14.2065 67.8709 14.6289 67.3195 15.5197C72.2138 17.598 75.293 17.591 81.2805 15.5197Z" fill="#CBC5C5"/>
<path d="M81.2805 0.133552C80.3476 1.60732 79.6631 2.43004 77.9377 3.88145C73.7049 3.61194 71.4935 3.90341 67.7128 4.86774C67.917 3.94535 67.8653 3.42357 67.7128 2.50065C73.8066 0.082413 76.6828 -0.247386 81.2805 0.133552Z" fill="#CBC5C5"/>
<path d="M85.9044 162.871C90.3276 162.674 93.867 163.858 95.8333 165.238C97.7997 166.619 98.5862 168 99.766 168C100.946 168 103.699 166.619 103.699 165.436C103.094 164.861 102.219 164.338 101.174 163.858C95.7656 161.374 85.817 160.051 85.3641 158.729C85.482 160.007 85.6609 161.36 85.9044 162.871Z" fill="#CBC5C5"/>
<path d="M85.3641 151.228C85.3629 151.242 85.3617 151.255 85.3606 151.269C85.243 152.937 88.7684 149.038 90.5242 145.907C92.2939 142.751 93.2771 144.724 95.4401 145.907C97.603 147.091 100.159 146.696 99.766 148.077C99.3727 149.458 94.2603 149.852 93.2771 149.852C92.2939 149.852 88.5579 149.852 88.3613 151.036C88.1646 152.219 93.6704 153.206 94.6535 153.206C95.6367 153.206 98.5862 151.825 100.553 150.247C102.519 148.669 102.912 145.513 102.912 143.343C102.912 141.173 102.912 141.173 100.159 141.173C97.603 141.173 95.2434 138.411 92.0973 138.411C90.3276 140.581 86.7882 143.935 85.3641 151.228Z" fill="#CBC5C5"/>
<path d="M104.682 143.343C104.682 140.778 103.502 141.962 103.502 140.778C103.633 140.252 104.289 139.003 105.862 138.214C107.828 137.228 110.974 135.847 110.188 139.792C109.558 142.948 109.008 144.395 108.811 144.724C106.764 145.773 105.606 146.515 103.502 148.274C103.305 145.907 104.682 144.447 104.682 143.343Z" fill="#CBC5C5"/>
<path d="M104.682 148.471C107.435 145.907 113.727 143.343 118.839 143.343C118.839 144.329 119.233 145.513 117.856 146.499C116.48 147.485 114.71 146.302 112.547 147.288C110.817 148.077 109.335 150.115 108.811 151.036C107.934 149.599 107.002 149.046 104.682 148.471Z" fill="#CBC5C5"/>
<path d="M114.71 153.206C113.294 152.732 112.94 149.852 112.94 148.471C115.693 146.499 116.676 150.247 124.542 145.513C125.235 146.941 125.203 147.809 124.935 151.228C123.676 152.43 122.858 153.014 121.002 153.797C120.256 149.23 119.056 147.912 114.71 149.063C115.929 150.705 115.963 151.564 114.71 153.206Z" fill="#CBC5C5"/>
<path d="M102.126 162.082C102.126 161.096 104.289 158.729 105.075 158.729C105.862 158.729 108.025 162.871 111.367 162.871C113.731 162.871 117.471 161.885 119.459 159.912C119.914 157.465 119.939 155.77 119.699 154.587C119.301 152.624 118.174 152.071 117.07 151.825C117.07 153.403 114.317 155.178 112.547 155.178C109.991 155.178 106.451 149.852 105.468 149.852C104.485 149.852 101.536 152.022 100.946 155.178C96.2266 155.376 89.7377 153.206 85.2236 153.403C85.1908 154.203 85.1813 154.985 85.1962 155.77C90.131 156.165 99.1761 162.674 102.126 162.082Z" fill="#CBC5C5"/>
<path d="M113.334 142.751C113.648 141.489 113.268 140.515 112.94 140.187C116.281 132.94 119.307 130.03 125.132 125.392C125.966 132.222 124.784 135.552 117.463 142.554L113.334 142.751Z" fill="#CBC5C5"/>
<path d="M131.62 143.343C131.62 143.996 131.092 144.526 130.441 144.526C129.789 144.526 129.261 143.996 129.261 143.343C129.261 142.689 129.789 142.159 130.441 142.159C131.092 142.159 131.62 142.689 131.62 143.343Z" fill="#CBC5C5"/>
<path d="M128.868 129.337C128.868 129.991 128.339 130.521 127.688 130.521C127.036 130.521 126.508 129.991 126.508 129.337C126.508 128.684 127.036 128.154 127.688 128.154C128.339 128.154 128.868 128.684 128.868 129.337Z" fill="#CBC5C5"/>
<path d="M142.435 112.965C142.435 113.619 141.907 114.149 141.255 114.149C140.604 114.149 140.076 113.619 140.076 112.965C140.076 112.311 140.604 111.782 141.255 111.782C141.907 111.782 142.435 112.311 142.435 112.965Z" fill="#CBC5C5"/>
<path d="M158.756 102.905C158.756 103.559 158.228 104.088 157.576 104.088C156.924 104.088 156.396 103.559 156.396 102.905C156.396 102.251 156.924 101.721 157.576 101.721C158.228 101.721 158.756 102.251 158.756 102.905Z" fill="#CBC5C5"/>
<path d="M149.121 97.7762C149.121 98.4299 148.593 98.9598 147.941 98.9598C147.289 98.9598 146.761 98.4299 146.761 97.7762C146.761 97.1225 147.289 96.5927 147.941 96.5927C148.593 96.5927 149.121 97.1225 149.121 97.7762Z" fill="#CBC5C5"/>
<path d="M150.694 82.9819C150.694 83.6355 150.166 84.1654 149.514 84.1654C148.862 84.1654 148.334 83.6355 148.334 82.9819C148.334 82.3282 148.862 81.7983 149.514 81.7983C150.166 81.7983 150.694 82.3282 150.694 82.9819Z" fill="#CBC5C5"/>
<path d="M154.823 60.0999C154.823 60.7536 154.295 61.2835 153.643 61.2835C152.992 61.2835 152.464 60.7536 152.464 60.0999C152.464 59.4463 152.992 58.9164 153.643 58.9164C154.295 58.9164 154.823 59.4463 154.823 60.0999Z" fill="#CBC5C5"/>
<path d="M145.778 64.0451C145.778 64.6988 145.25 65.2287 144.598 65.2287C143.947 65.2287 143.418 64.6988 143.418 64.0451C143.418 63.3914 143.947 62.8616 144.598 62.8616C145.25 62.8616 145.778 63.3914 145.778 64.0451Z" fill="#CBC5C5"/>
<path d="M150.891 46.4892C150.891 47.1428 150.362 47.6727 149.711 47.6727C149.059 47.6727 148.531 47.1428 148.531 46.4892C148.531 45.8355 149.059 45.3056 149.711 45.3056C150.362 45.3056 150.891 45.8355 150.891 46.4892Z" fill="#CBC5C5"/>
<path d="M142.829 40.9659C142.829 41.6196 142.3 42.1495 141.649 42.1495C140.997 42.1495 140.469 41.6196 140.469 40.9659C140.469 40.3123 140.997 39.7824 141.649 39.7824C142.3 39.7824 142.829 40.3123 142.829 40.9659Z" fill="#CBC5C5"/>
<path d="M129.261 36.8235C129.261 37.4772 128.733 38.0071 128.081 38.0071C127.43 38.0071 126.901 37.4772 126.901 36.8235C126.901 36.1699 127.43 35.64 128.081 35.64C128.733 35.64 129.261 36.1699 129.261 36.8235Z" fill="#CBC5C5"/>
<path d="M115.3 21.2401C115.3 21.8938 114.772 22.4237 114.12 22.4237C113.469 22.4237 112.94 21.8938 112.94 21.2401C112.94 20.5865 113.469 20.0566 114.12 20.0566C114.772 20.0566 115.3 20.5865 115.3 21.2401Z" fill="#CBC5C5"/>
<path d="M124.542 14.3361C124.542 14.9898 124.013 15.5197 123.362 15.5197C122.71 15.5197 122.182 14.9898 122.182 14.3361C122.182 13.6825 122.71 13.1526 123.362 13.1526C124.013 13.1526 124.542 13.6825 124.542 14.3361Z" fill="#CBC5C5"/>
<path d="M99.5693 13.1526C99.5693 13.8062 99.0411 14.3361 98.3895 14.3361C97.738 14.3361 97.2097 13.8062 97.2097 13.1526C97.2097 12.4989 97.738 11.969 98.3895 11.969C99.0411 11.969 99.5693 12.4989 99.5693 13.1526Z" fill="#CBC5C5"/>
<path d="M100.356 3.68419C100.356 4.33785 99.8277 4.86774 99.1761 4.86774C98.5245 4.86774 97.9963 4.33785 97.9963 3.68419C97.9963 3.03054 98.5245 2.50065 99.1761 2.50065C99.8277 2.50065 100.356 3.03054 100.356 3.68419Z" fill="#CBC5C5"/>
<path d="M120.019 142.159C120.281 142.883 120.648 144.566 120.019 145.513C126.708 144.273 137.645 134.609 136.93 127.365C130.825 129.111 127.186 132.207 120.019 142.159Z" fill="#CBC5C5"/>
<path d="M127.688 125.984C128.081 120.264 136.143 109.809 137.716 110.598C139.289 111.387 138.503 125.59 132.014 128.351C131.542 127.247 128.933 126.313 127.688 125.984Z" fill="#CBC5C5"/>
<path d="M132.21 140.384C135.357 137.031 141.059 133.677 146.368 134.466C144.992 139.792 136.733 142.948 133.39 144.526C133.783 143.343 133.194 140.976 132.21 140.384Z" fill="#CBC5C5"/>
<path d="M126.508 149.852C127.098 148.077 126.115 146.302 126.705 146.104C127.177 145.947 130.047 145.776 131.424 145.71C130.086 147.434 129.044 148.353 126.508 149.852Z" fill="#CBC5C5"/>
<path d="M136.93 125.984C137.716 121.842 144.008 111.584 146.761 112.571C149.514 113.557 145.778 128.746 138.109 132.494C140.076 128.351 138.945 125.984 136.93 125.984Z" fill="#CBC5C5"/>
<path d="M139.093 110.203C139.486 104.483 138.503 101.919 140.469 97.7762C142.435 93.6338 143.025 94.0283 143.812 94.2256C144.598 94.4228 146.565 100.341 145.778 104.68C145.149 108.152 144.205 111.387 143.812 112.571C143.484 111.847 142.593 110.282 141.649 109.809C140.705 109.336 139.551 109.875 139.093 110.203Z" fill="#CBC5C5"/>
<path d="M145.778 111.782C145.954 102.905 151.874 94.8371 153.643 95.0146C157.576 95.4091 154.43 113.754 149.121 116.121C149.121 111.782 147.941 110.203 145.778 111.782Z" fill="#CBC5C5"/>
<path d="M140.076 133.085C145.975 129.337 144.795 126.576 148.334 123.222C151.166 120.54 154.889 119.475 156.396 119.277C153.392 127.891 150.102 131.19 140.076 133.085Z" fill="#CBC5C5"/>
<path d="M149.907 119.869C151.087 114.442 159.149 102.905 161.509 104.088C161.509 106.653 157.287 113.754 156.396 117.699C153.407 118.015 150.825 119.277 149.907 119.869Z" fill="#CBC5C5"/>
<path d="M142.042 80.2203C145.778 81.7983 150.694 87.5188 149.514 95.8036C148.256 94.2256 146.892 94.6201 146.368 95.0146C145.725 93.2603 145.21 92.6724 143.812 92.8448C141.548 87.8957 141.415 85.1346 142.042 80.2203Z" fill="#CBC5C5"/>
<path d="M154.43 73.7107C156.986 76.2751 159.519 87.1285 156.396 96.5927C154.252 93.3904 153.216 93.9851 151.284 93.831C150.767 90.8812 150.645 87.8919 150.788 85.1517C151.084 84.8229 151.716 83.9287 151.874 82.9819C152.031 82.035 151.508 81.2723 151.227 81.0093C151.916 76.7859 153.22 73.8226 154.43 73.7107Z" fill="#CBC5C5"/>
<path d="M162.492 87.1243C162.492 92.8448 161.57 95.8816 161.509 102.313C160.919 103.694 158.756 103.497 159.149 99.5515C158.868 100.492 157.064 101.396 157.379 96.7899C157.695 92.1842 162.492 87.1243 162.492 87.1243Z" fill="#CBC5C5"/>
<path d="M139.879 65.8204C140.053 73.0156 141.72 75.8925 145.778 80.2203C146.733 78.3103 148.531 81.0093 150.301 79.234C146.368 72.1327 147.941 69.9628 144.598 67.793C142.726 66.3731 141.702 66.1477 139.879 65.8204Z" fill="#CBC5C5"/>
<path d="M148.531 57.3383C154.43 63.4533 157.811 67.3427 156.396 75.2888C154.376 71.1041 153.098 72.1341 150.694 77.0641C147.142 69.2726 146.34 64.948 148.531 57.3383Z" fill="#CBC5C5"/>
<path d="M159.149 89.0969C158.463 83.1491 158.166 80.2203 158.756 77.0641C159.667 74.8731 160.592 73.8268 163.082 72.3299C164.031 77.4953 163.953 80.3813 163.082 85.5462C160.861 86.2633 160.203 87.2364 159.149 89.0969Z" fill="#CBC5C5"/>
<path d="M157.969 75.2888C158.756 68.7793 156.003 65.2287 156.003 61.2835C156.003 57.3383 158.756 54.9712 158.756 54.9712C160.533 62.0223 160.785 65.7562 160.919 72.3299C159.739 72.774 159.088 73.4615 157.969 75.2888Z" fill="#CBC5C5"/>
<path d="M134.373 51.8151C136.066 57.2269 137.508 59.9237 141.649 63.6506C142.216 62.0294 142.616 61.6046 143.418 61.2835C142.053 58.5754 141.839 57.0644 141.649 54.3795C137.509 51.6044 136.382 51.6782 134.373 51.8151Z" fill="#CBC5C5"/>
<path d="M145.188 60.0999C147.748 55.3277 148.929 55.1625 150.788 57.3383C150.694 53.2658 150.021 51.5823 148.531 48.8563C147.145 48.6541 146.895 47.8016 146.761 46.4892C144.634 44.2557 143.54 43.7567 141.649 43.333C141.767 50.4158 142.341 54.1738 145.188 60.0999Z" fill="#CBC5C5"/>
<path d="M152.464 44.1221C155.253 46.5605 156.381 48.6122 157.183 54.1822C156.426 54.8299 156.052 55.7449 155.413 57.7328C154.516 56.7355 153.998 56.5943 153.053 56.9438C151.136 52.038 151.134 49.2322 152.464 44.1221Z" fill="#CBC5C5"/>
<path d="M141.059 52.4069C139.909 44.756 134.373 38.9934 129.261 38.9934C127.295 38.9934 126.18 37.0208 125.525 38.0071C125.173 38.536 127.842 42.9503 131.62 46.6864C134.887 49.9165 139.144 52.5898 141.059 52.4069Z" fill="#CBC5C5"/>
<path d="M128.868 26.5661C135.824 28.2405 138.858 30.3062 141.649 37.4153C139.612 39.2253 138.082 39.9846 140.469 44.7138C132.261 38.2421 130.182 34.1954 128.868 26.5661Z" fill="#CBC5C5"/>
<path d="M142.829 29.1305C147.625 33.587 149.515 36.5575 151.677 42.544C151.679 43.5088 151.619 43.9981 151.087 44.5166C150.198 43.9986 149.463 43.8603 147.351 44.1221C143.275 38.0764 142.546 34.8154 142.829 29.1305Z" fill="#CBC5C5"/>
<path d="M116.086 17.295C124.973 17.7883 128.865 19.7904 133.783 26.5661C128.115 24.4314 126.768 24.8229 127.688 29.1305C121.088 25.259 118.934 22.5242 116.086 17.295Z" fill="#CBC5C5"/>
<path d="M125.722 14.1389C126.115 17.6895 135.16 24.5935 141.845 34.2592C139.486 27.3551 138.685 26.0202 141.649 27.9469C136.152 18.9581 132.613 16.1937 125.722 14.1389Z" fill="#CBC5C5"/>
<path d="M112.94 25.9743C114.343 24.4224 115.298 23.8281 118.249 24.199C122.014 27.5208 124.05 28.6647 127.524 30.6165L127.688 30.7085C128.305 31.5434 128.586 32.3077 128.868 33.6674C123.39 33.6789 119.876 31.9484 112.94 25.9743Z" fill="#CBC5C5"/>
<path d="M106.058 17.295C109.794 18.8731 114.71 18.2813 114.71 18.2813C114.844 15.3616 116.451 15.7372 118.643 15.5197C111.39 9.82028 107.075 8.43689 98.7828 10.3707C102.715 11.969 100.356 14.8864 106.058 17.295Z" fill="#CBC5C5"/>
<path d="M112.744 23.2127C105.409 23.14 102.174 21.9805 97.2097 18.8731C98.0941 16.5173 99.0079 15.9991 101.732 15.7169C104.225 19.0471 106.485 20.0676 111.367 21.0429C111.558 22.0914 111.824 22.6556 112.744 23.2127Z" fill="#CBC5C5"/>
<path d="M101.732 2.89516C102.333 5.76179 103.064 7.22155 107.041 8.8129C110.538 9.6234 111.649 9.01722 119.233 14.9279C119.868 15.3274 120.212 15.4586 120.806 15.5197C120.717 13.868 120.869 13.0898 121.396 11.969C114.668 6.06275 110.187 4.51149 101.732 2.89516Z" fill="#CBC5C5"/>
<path d="M83.2488 15.5197C83.7756 14.0209 84.3967 13.3457 86.0017 12.3635C87.909 13.445 89.8799 13.6784 94.8502 13.5471C96.1128 14.2065 96.6584 14.6289 97.2097 15.5197C92.3155 17.598 89.2363 17.591 83.2488 15.5197Z" fill="#CBC5C5"/>
<path d="M83.2488 0.133552C84.1817 1.60732 84.8662 2.43004 86.5916 3.88145C90.8244 3.61194 93.0358 3.90341 96.8165 4.86774C96.6123 3.94535 96.664 3.42357 96.8165 2.50065C90.7227 0.082413 87.8465 -0.247386 83.2488 0.133552Z" fill="#CBC5C5"/>
<path d="M78.5276 163.463C78.5276 163.463 80.495 163.858 82.2646 163.858C84.0343 163.858 86.0017 163.463 86.0017 163.463C85.9682 163.263 85.9358 163.066 85.9044 162.871C85.6609 161.36 85.482 160.007 85.3641 158.729C85.2699 157.709 85.2146 156.737 85.1962 155.77C85.1813 154.985 85.1908 154.203 85.2236 153.403C85.252 152.711 85.2979 152.004 85.3606 151.269L85.3641 151.228C85.5006 149.64 85.7153 147.915 86.0017 145.907C86.0017 145.907 84.231 145.513 82.2646 145.513C80.2983 145.513 78.5276 145.907 78.5276 145.907C78.814 147.915 79.0287 149.64 79.1652 151.228L79.1687 151.269C79.2314 152.004 79.2773 152.711 79.3057 153.403C79.3385 154.203 79.348 154.985 79.3331 155.77C79.3147 156.737 79.2594 157.709 79.1652 158.729C79.0473 160.007 78.8684 161.36 78.6249 162.871C78.5935 163.066 78.5611 163.263 78.5276 163.463Z" fill="#CBC5C5"/>
<path fill-rule="evenodd" clip-rule="evenodd" d="M78.5276 145.907C78.5276 145.907 80.2983 145.513 82.2646 145.513C84.231 145.513 86.0017 145.907 86.0017 145.907C85.7153 147.915 85.5006 149.64 85.3641 151.228C86.7882 143.935 90.3276 140.581 92.0973 138.411C95.2434 138.411 97.603 141.173 100.159 141.173C102.912 141.173 102.912 141.173 102.912 143.343C102.912 145.513 102.519 148.669 100.553 150.247C98.5862 151.825 95.6367 153.206 94.6535 153.206C93.6704 153.206 88.1646 152.219 88.3613 151.036C88.5579 149.852 92.2939 149.852 93.2771 149.852C94.2603 149.852 99.3727 149.458 99.766 148.077C100.159 146.696 97.603 147.091 95.4401 145.907C93.2771 144.724 92.2939 142.751 90.5242 145.907C88.7684 149.038 85.243 152.937 85.3606 151.269C85.2979 152.004 85.252 152.711 85.2236 153.403C89.7377 153.206 96.2266 155.376 100.946 155.178C101.536 152.022 104.485 149.852 105.468 149.852C106.451 149.852 109.991 155.178 112.547 155.178C114.317 155.178 117.07 153.403 117.07 151.825C118.174 152.071 119.301 152.624 119.699 154.587L121.002 153.797C120.256 149.23 119.056 147.912 114.71 149.063C115.929 150.705 115.963 151.564 114.71 153.206C113.294 152.732 112.94 149.852 112.94 148.471C115.693 146.499 116.676 150.247 124.542 145.513C125.235 146.941 125.203 147.809 124.935 151.228L126.508 149.852C127.098 148.077 126.115 146.302 126.705 146.104C127.177 145.947 130.047 145.776 131.424 145.71L133.39 144.526C133.783 143.343 133.194 140.976 132.21 140.384C135.357 137.031 141.059 133.677 146.368 134.466L140.076 133.085C145.975 129.337 144.795 126.576 148.334 123.222C151.166 120.54 154.889 119.475 156.396 119.277V117.699C153.407 118.015 150.825 119.277 149.907 119.869C151.087 114.442 159.149 102.905 161.509 104.088V102.313C160.919 103.694 158.756 103.497 159.149 99.5515C158.868 100.492 157.064 101.396 157.379 96.7899C157.695 92.1842 162.492 87.1243 162.492 87.1243L163.082 85.5462C160.861 86.2633 160.203 87.2364 159.149 89.0969C158.463 83.1491 158.166 80.2203 158.756 77.0641C159.667 74.8731 160.592 73.8268 163.082 72.3299H160.919C159.739 72.774 159.088 73.4615 157.969 75.2888C158.756 68.7793 156.003 65.2287 156.003 61.2835C156.003 57.3383 158.756 54.9712 158.756 54.9712L157.183 54.1822C156.426 54.8299 156.052 55.7449 155.413 57.7328C154.516 56.7355 153.998 56.5943 153.053 56.9438C151.136 52.038 151.134 49.2322 152.464 44.1221L151.677 42.544C151.679 43.5088 151.619 43.9981 151.087 44.5166C150.198 43.9986 149.463 43.8603 147.351 44.1221C143.275 38.0764 142.546 34.8154 142.829 29.1305L141.649 27.9469C138.685 26.0202 139.486 27.3551 141.845 34.2592C135.16 24.5935 126.115 17.6895 125.722 14.1389L124.542 14.3361C124.542 14.9898 124.013 15.5197 123.362 15.5197C122.71 15.5197 122.182 14.9898 122.182 14.3361L121.396 11.969C120.869 13.0898 120.717 13.868 120.806 15.5197C120.212 15.4586 119.868 15.3274 119.233 14.9279C111.649 9.01722 110.538 9.6234 107.041 8.8129C103.064 7.22155 102.333 5.76179 101.732 2.89516L100.356 3.68419C100.356 4.33785 99.8277 4.86774 99.1761 4.86774C98.5245 4.86774 97.9963 4.33785 97.9963 3.68419L96.8165 2.50065C96.664 3.42357 96.6123 3.94535 96.8165 4.86774C93.0358 3.90341 90.8244 3.61194 86.5916 3.88145C84.8662 2.43004 84.1817 1.60732 83.2488 0.133552H83.2478H81.2815H81.2805C80.3476 1.60732 79.6631 2.43004 77.9377 3.88145C73.7049 3.61194 71.4935 3.90341 67.7128 4.86774C67.917 3.94535 67.8653 3.42357 67.7128 2.50065L66.533 3.68419C66.533 4.33785 66.0048 4.86774 65.3532 4.86774C64.7016 4.86774 64.1734 4.33785 64.1734 3.68419L62.797 2.89516C62.196 5.76179 61.4655 7.22155 57.4879 8.8129C53.9911 9.6234 52.8804 9.01722 45.2967 14.9279C44.6617 15.3274 44.317 15.4586 43.7236 15.5197C43.8123 13.868 43.6603 13.0898 43.1337 11.969L42.3472 14.3361C42.3472 14.9898 41.819 15.5197 41.1674 15.5197C40.5158 15.5197 39.9876 14.9898 39.9876 14.3361L38.8078 14.1389C38.4145 17.6895 29.3694 24.5935 22.6839 34.2592C25.0435 27.3551 25.8445 26.0202 22.8805 27.9469L21.7007 29.1305C21.9838 34.8154 21.2541 38.0764 17.1782 44.1221C15.0663 43.8603 14.3315 43.9986 13.4422 44.5166C12.9103 43.9981 12.8498 43.5088 12.8523 42.544L12.0657 44.1221C13.3956 49.2322 13.3929 52.038 11.4758 56.9438C10.5311 56.5943 10.0129 56.7355 9.11625 57.7328C8.47683 55.7449 8.10284 54.8299 7.34655 54.1822L5.77349 54.9712C5.77349 54.9712 8.52635 57.3383 8.52635 61.2835C8.52635 65.2287 5.77349 68.7793 6.56002 75.2888C5.44103 73.4615 4.78996 72.774 3.61053 72.3299H1.44757C3.93761 73.8268 4.86257 74.8731 5.77349 77.0641C6.36339 80.2203 6.06659 83.1491 5.38023 89.0969C4.32643 87.2364 3.6685 86.2633 1.44757 85.5462L2.03747 87.1243C2.03747 87.1243 6.8347 92.1842 7.14992 96.7899C7.46515 101.396 5.66145 100.492 5.38023 99.5515C5.77349 103.497 3.61053 103.694 3.02063 102.313V104.088C5.38023 102.905 13.4422 114.442 14.622 119.869C13.7043 119.277 11.1219 118.015 8.13309 117.699V119.277C9.6406 119.475 13.3635 120.54 16.195 123.222C19.7344 126.576 18.5546 129.337 24.4536 133.085L18.1614 134.466C23.4704 133.677 29.1728 137.031 32.3189 140.384C31.3358 140.976 30.7459 143.343 31.1391 144.526L33.1054 145.71C34.4819 145.776 37.3527 145.947 37.8246 146.104C38.4145 146.302 37.4314 148.077 38.0213 149.852L39.5943 151.228C39.3265 147.809 39.2944 146.941 39.9876 145.513C47.8529 150.247 48.8361 146.499 51.5889 148.471C51.5889 149.852 51.235 152.732 49.8192 153.206C48.5665 151.564 48.6002 150.705 49.8192 149.063C45.4728 147.912 44.2729 149.23 43.527 153.797L44.8299 154.587C45.2279 152.624 46.3554 152.071 47.4596 151.825C47.4596 153.403 50.2125 155.178 51.9822 155.178C54.5384 155.178 58.0778 149.852 59.061 149.852C60.0441 149.852 62.9936 152.022 63.5835 155.178C68.3027 155.376 74.7916 153.206 79.3057 153.403C79.2773 152.711 79.2314 152.004 79.1687 151.269C79.2863 152.937 75.7609 149.038 74.0051 145.907C72.2354 142.751 71.2522 144.724 69.0892 145.907C66.9263 147.091 64.3701 146.696 64.7633 148.077C65.1566 149.458 70.269 149.852 71.2522 149.852C72.2354 149.852 75.9714 149.852 76.168 151.036C76.3647 152.219 70.8589 153.206 69.8758 153.206C68.8926 153.206 65.9431 151.825 63.9768 150.247C62.0105 148.669 61.6172 145.513 61.6172 143.343C61.6172 141.173 61.6172 141.173 64.3701 141.173C66.9263 141.173 69.2859 138.411 72.432 138.411C74.2017 140.581 77.7411 143.935 79.1652 151.228C79.0287 149.64 78.814 147.915 78.5276 145.907ZM61.0273 140.778C61.0273 141.962 59.8475 140.778 59.8475 143.343C59.8475 144.447 61.2239 145.907 61.0273 148.274C58.9237 146.515 57.7653 145.773 55.7182 144.724C55.5216 144.395 54.971 142.948 54.3418 139.792C53.5553 135.847 56.7014 137.228 58.6677 138.214C60.2408 139.003 60.8962 140.252 61.0273 140.778ZM45.6899 143.343C50.8024 143.343 57.0946 145.907 59.8475 148.471C57.5273 149.046 56.5951 149.599 55.7182 151.036C55.1939 150.115 53.7126 148.077 51.9822 147.288C49.8192 146.302 48.0495 147.485 46.6731 146.499C45.2967 145.513 45.6899 144.329 45.6899 143.343ZM51.5889 140.187C51.2612 140.515 50.8811 141.489 51.1957 142.751L47.0664 142.554C39.7451 135.552 38.5638 132.222 39.3977 125.392C45.2228 130.03 48.2482 132.94 51.5889 140.187ZM44.5101 145.513C43.8809 144.566 44.248 142.883 44.5101 142.159C37.3432 132.207 33.7041 129.111 27.5997 127.365C26.8842 134.609 37.821 144.273 44.5101 145.513ZM34.0886 144.526C33.437 144.526 32.9088 143.996 32.9088 143.343C32.9088 142.689 33.437 142.159 34.0886 142.159C34.7402 142.159 35.2684 142.689 35.2684 143.343C35.2684 143.996 34.7402 144.526 34.0886 144.526ZM36.8415 130.521C36.1899 130.521 35.6617 129.991 35.6617 129.337C35.6617 128.684 36.1899 128.154 36.8415 128.154C37.4931 128.154 38.0213 128.684 38.0213 129.337C38.0213 129.991 37.4931 130.521 36.8415 130.521ZM23.2738 114.149C22.6222 114.149 22.094 113.619 22.094 112.965C22.094 112.311 22.6222 111.782 23.2738 111.782C23.9254 111.782 24.4536 112.311 24.4536 112.965C24.4536 113.619 23.9254 114.149 23.2738 114.149ZM6.95329 104.088C6.30171 104.088 5.77349 103.559 5.77349 102.905C5.77349 102.251 6.30171 101.721 6.95329 101.721C7.60487 101.721 8.13309 102.251 8.13309 102.905C8.13309 103.559 7.60487 104.088 6.95329 104.088ZM16.5883 98.9598C15.9367 98.9598 15.4085 98.4299 15.4085 97.7762C15.4085 97.1225 15.9367 96.5927 16.5883 96.5927C17.2399 96.5927 17.7681 97.1225 17.7681 97.7762C17.7681 98.4299 17.2399 98.9598 16.5883 98.9598ZM15.0152 84.1654C14.3636 84.1654 13.8354 83.6355 13.8354 82.9819C13.8354 82.3282 14.3636 81.7983 15.0152 81.7983C15.6668 81.7983 16.195 82.3282 16.195 82.9819C16.195 83.6355 15.6668 84.1654 15.0152 84.1654ZM10.8859 61.2835C10.2344 61.2835 9.70615 60.7536 9.70615 60.0999C9.70615 59.4463 10.2344 58.9164 10.8859 58.9164C11.5375 58.9164 12.0657 59.4463 12.0657 60.0999C12.0657 60.7536 11.5375 61.2835 10.8859 61.2835ZM19.9311 65.2287C19.2795 65.2287 18.7513 64.6988 18.7513 64.0451C18.7513 63.3914 19.2795 62.8616 19.9311 62.8616C20.5826 62.8616 21.1108 63.3914 21.1108 64.0451C21.1108 64.6988 20.5826 65.2287 19.9311 65.2287ZM14.8186 47.6727C14.167 47.6727 13.6388 47.1428 13.6388 46.4892C13.6388 45.8355 14.167 45.3056 14.8186 45.3056C15.4702 45.3056 15.9984 45.8355 15.9984 46.4892C15.9984 47.1428 15.4702 47.6727 14.8186 47.6727ZM22.8805 42.1495C22.229 42.1495 21.7007 41.6196 21.7007 40.9659C21.7007 40.3123 22.229 39.7824 22.8805 39.7824C23.5321 39.7824 24.0603 40.3123 24.0603 40.9659C24.0603 41.6196 23.5321 42.1495 22.8805 42.1495ZM36.4482 38.0071C35.7966 38.0071 35.2684 37.4772 35.2684 36.8235C35.2684 36.1699 35.7966 35.64 36.4482 35.64C37.0998 35.64 37.628 36.1699 37.628 36.8235C37.628 37.4772 37.0998 38.0071 36.4482 38.0071ZM50.4091 22.4237C49.7575 22.4237 49.2293 21.8938 49.2293 21.2401C49.2293 20.5865 49.7575 20.0566 50.4091 20.0566C51.0607 20.0566 51.5889 20.5865 51.5889 21.2401C51.5889 21.8938 51.0607 22.4237 50.4091 22.4237ZM66.1398 14.3361C65.4882 14.3361 64.96 13.8062 64.96 13.1526C64.96 12.4989 65.4882 11.969 66.1398 11.969C66.7913 11.969 67.3195 12.4989 67.3195 13.1526C67.3195 13.8062 66.7913 14.3361 66.1398 14.3361ZM26.8132 110.598C28.3863 109.809 36.4482 120.264 36.8415 125.984C35.5961 126.313 32.9875 127.247 32.5155 128.351C26.0267 125.59 25.2401 111.387 26.8132 110.598ZM17.7681 112.571C20.521 111.584 26.8132 121.842 27.5997 125.984C25.5841 125.984 24.4536 128.351 26.4199 132.494C18.7513 128.746 15.0152 113.557 17.7681 112.571ZM24.0603 97.7762C26.0267 101.919 25.0435 104.483 25.4368 110.203C24.978 109.875 23.8244 109.336 22.8805 109.809C21.9367 110.282 21.0453 111.847 20.7176 112.571C20.3243 111.387 19.3805 108.152 18.7513 104.68C17.9647 100.341 19.9311 94.4228 20.7176 94.2256C21.5041 94.0283 22.094 93.6338 24.0603 97.7762ZM10.8859 95.0146C12.6556 94.8371 18.5749 102.905 18.7513 111.782C16.5883 110.203 15.4085 111.782 15.4085 116.121C10.0994 113.754 6.95329 95.4091 10.8859 95.0146ZM15.0152 95.8036C13.8354 87.5188 18.7513 81.7983 22.4873 80.2203C23.1143 85.1346 22.9814 87.8957 20.7176 92.8448C19.3192 92.6724 18.8038 93.2603 18.1614 95.0146C17.637 94.6201 16.2737 94.2256 15.0152 95.8036ZM8.13309 96.5927C5.00998 87.1285 7.54319 76.2751 10.0994 73.7107C11.3089 73.8226 12.6128 76.7859 13.3028 81.0093C13.0215 81.2723 12.4983 82.035 12.6556 82.9819C12.8129 83.9287 13.4449 84.8229 13.7412 85.1517C13.8843 87.8919 13.7619 90.8812 13.2455 93.831C11.3135 93.9851 10.2774 93.3904 8.13309 96.5927ZM18.7513 80.2203C22.8093 75.8925 24.476 73.0156 24.6502 65.8204C22.8271 66.1477 21.8034 66.3731 19.9311 67.793C16.5883 69.9628 18.1614 72.1327 14.2287 79.234C15.9984 81.0093 17.7961 78.3103 18.7513 80.2203ZM8.13309 75.2888C6.71873 67.3427 10.0994 63.4533 15.9984 57.3383C18.1894 64.948 17.3871 69.2726 13.8354 77.0641C11.431 72.1341 10.1531 71.1041 8.13309 75.2888ZM22.8805 63.6506C27.0214 59.9237 28.4633 57.2269 30.156 51.8151C28.1471 51.6782 27.0204 51.6044 22.8805 54.3795C22.6907 57.0644 22.4761 58.5754 21.1108 61.2835C21.9136 61.6046 22.3136 62.0294 22.8805 63.6506ZM13.7412 57.3383C15.6003 55.1625 16.7814 55.3277 19.3412 60.0999C22.1882 54.1738 22.7621 50.4158 22.8805 43.333C20.9896 43.7567 19.8952 44.2557 17.7681 46.4892C17.6341 47.8016 17.3839 48.6541 15.9984 48.8563C14.5079 51.5823 13.8358 53.2658 13.7412 57.3383ZM35.2684 38.9934C30.156 38.9934 24.6202 44.756 23.4704 52.4069C25.3851 52.5898 29.6422 49.9165 32.9088 46.6864C36.6872 42.9503 39.356 38.536 39.0044 38.0071C38.349 37.0208 37.2347 38.9934 35.2684 38.9934ZM22.8805 37.4153C25.6708 30.3062 28.7057 28.2405 35.6617 26.5661C34.3469 34.1954 32.2685 38.2421 24.0603 44.7138C26.4477 39.9846 24.9173 39.2253 22.8805 37.4153ZM30.7459 26.5661C35.6643 19.7904 39.5566 17.7883 48.4428 17.295C45.5953 22.5242 43.441 25.259 36.8415 29.1305C37.7615 24.8229 36.4146 24.4314 30.7459 26.5661ZM46.2798 24.199C49.2315 23.8281 50.1865 24.4224 51.5889 25.9743C44.6533 31.9484 41.1395 33.6789 35.6617 33.6674C35.9433 32.3077 36.2245 31.5434 36.8415 30.7085L37.0052 30.6165C40.4792 28.6647 42.515 27.5208 46.2798 24.199ZM49.8192 18.2813C49.8192 18.2813 54.7351 18.8731 58.4711 17.295C64.1734 14.8864 61.8138 11.969 65.7465 10.3707C57.4542 8.43689 53.1396 9.82028 45.8866 15.5197C48.0783 15.7372 49.6854 15.3616 49.8192 18.2813ZM67.3195 18.8731C62.355 21.9805 59.1198 23.14 51.7856 23.2127C52.7049 22.6556 52.9718 22.0914 53.162 21.0429C58.0442 20.0676 60.3046 19.0471 62.797 15.7169C65.5214 15.9991 66.4352 16.5173 67.3195 18.8731ZM82.2646 8.90762C79.3368 10.7866 77.6667 11.5745 73.4152 11.5745C70.0099 11.5745 68.6779 10.7657 67.4556 10.0235C66.4193 9.39425 65.4619 8.8129 63.3869 8.8129C70.6523 4.02894 75.1051 3.65858 82.2646 6.73397C89.4242 3.65858 93.877 4.02894 101.142 8.8129C99.0674 8.8129 98.11 9.39425 97.0737 10.0235C95.8514 10.7657 94.5194 11.5745 91.1141 11.5745C86.8626 11.5745 85.1925 10.7866 82.2646 8.90762ZM78.5276 12.3635C80.1326 13.3457 80.7537 14.0209 81.2805 15.5197C75.293 17.591 72.2138 17.598 67.3195 15.5197C67.8709 14.6289 68.4165 14.2065 69.6791 13.5471C74.6494 13.6784 76.6203 13.445 78.5276 12.3635ZM103.502 140.778C103.502 141.962 104.682 140.778 104.682 143.343C104.682 144.447 103.305 145.907 103.502 148.274C105.606 146.515 106.764 145.773 108.811 144.724C109.008 144.395 109.558 142.948 110.188 139.792C110.974 135.847 107.828 137.228 105.862 138.214C104.289 139.003 103.633 140.252 103.502 140.778ZM118.839 143.343C113.727 143.343 107.435 145.907 104.682 148.471C107.002 149.046 107.934 149.599 108.811 151.036C109.335 150.115 110.817 148.077 112.547 147.288C114.71 146.302 116.48 147.485 117.856 146.499C119.233 145.513 118.839 144.329 118.839 143.343ZM112.94 140.187C113.268 140.515 113.648 141.489 113.334 142.751L117.463 142.554C124.784 135.552 125.966 132.222 125.132 125.392C119.307 130.03 116.281 132.94 112.94 140.187ZM120.019 145.513C120.648 144.566 120.281 142.883 120.019 142.159C127.186 132.207 130.825 129.111 136.93 127.365C137.645 134.609 126.708 144.273 120.019 145.513ZM130.441 144.526C131.092 144.526 131.62 143.996 131.62 143.343C131.62 142.689 131.092 142.159 130.441 142.159C129.789 142.159 129.261 142.689 129.261 143.343C129.261 143.996 129.789 144.526 130.441 144.526ZM127.688 130.521C128.339 130.521 128.868 129.991 128.868 129.337C128.868 128.684 128.339 128.154 127.688 128.154C127.036 128.154 126.508 128.684 126.508 129.337C126.508 129.991 127.036 130.521 127.688 130.521ZM141.255 114.149C141.907 114.149 142.435 113.619 142.435 112.965C142.435 112.311 141.907 111.782 141.255 111.782C140.604 111.782 140.076 112.311 140.076 112.965C140.076 113.619 140.604 114.149 141.255 114.149ZM157.576 104.088C158.228 104.088 158.756 103.559 158.756 102.905C158.756 102.251 158.228 101.721 157.576 101.721C156.924 101.721 156.396 102.251 156.396 102.905C156.396 103.559 156.924 104.088 157.576 104.088ZM147.941 98.9598C148.593 98.9598 149.121 98.4299 149.121 97.7762C149.121 97.1225 148.593 96.5927 147.941 96.5927C147.289 96.5927 146.761 97.1225 146.761 97.7762C146.761 98.4299 147.289 98.9598 147.941 98.9598ZM149.514 84.1654C150.166 84.1654 150.694 83.6355 150.694 82.9819C150.694 82.3282 150.166 81.7983 149.514 81.7983C148.862 81.7983 148.334 82.3282 148.334 82.9819C148.334 83.6355 148.862 84.1654 149.514 84.1654ZM153.643 61.2835C154.295 61.2835 154.823 60.7536 154.823 60.0999C154.823 59.4463 154.295 58.9164 153.643 58.9164C152.992 58.9164 152.464 59.4463 152.464 60.0999C152.464 60.7536 152.992 61.2835 153.643 61.2835ZM144.598 65.2287C145.25 65.2287 145.778 64.6988 145.778 64.0451C145.778 63.3914 145.25 62.8616 144.598 62.8616C143.947 62.8616 143.418 63.3914 143.418 64.0451C143.418 64.6988 143.947 65.2287 144.598 65.2287ZM149.711 47.6727C150.362 47.6727 150.891 47.1428 150.891 46.4892C150.891 45.8355 150.362 45.3056 149.711 45.3056C149.059 45.3056 148.531 45.8355 148.531 46.4892C148.531 47.1428 149.059 47.6727 149.711 47.6727ZM141.649 42.1495C142.3 42.1495 142.829 41.6196 142.829 40.9659C142.829 40.3123 142.3 39.7824 141.649 39.7824C140.997 39.7824 140.469 40.3123 140.469 40.9659C140.469 41.6196 140.997 42.1495 141.649 42.1495ZM128.081 38.0071C128.733 38.0071 129.261 37.4772 129.261 36.8235C129.261 36.1699 128.733 35.64 128.081 35.64C127.43 35.64 126.901 36.1699 126.901 36.8235C126.901 37.4772 127.43 38.0071 128.081 38.0071ZM114.12 22.4237C114.772 22.4237 115.3 21.8938 115.3 21.2401C115.3 20.5865 114.772 20.0566 114.12 20.0566C113.469 20.0566 112.94 20.5865 112.94 21.2401C112.94 21.8938 113.469 22.4237 114.12 22.4237ZM98.3895 14.3361C99.0411 14.3361 99.5693 13.8062 99.5693 13.1526C99.5693 12.4989 99.0411 11.969 98.3895 11.969C97.738 11.969 97.2097 12.4989 97.2097 13.1526C97.2097 13.8062 97.738 14.3361 98.3895 14.3361ZM137.716 110.598C136.143 109.809 128.081 120.264 127.688 125.984C128.933 126.313 131.542 127.247 132.014 128.351C138.503 125.59 139.289 111.387 137.716 110.598ZM146.761 112.571C144.008 111.584 137.716 121.842 136.93 125.984C138.945 125.984 140.076 128.351 138.109 132.494C145.778 128.746 149.514 113.557 146.761 112.571ZM140.469 97.7762C138.503 101.919 139.486 104.483 139.093 110.203C139.551 109.875 140.705 109.336 141.649 109.809C142.593 110.282 143.484 111.847 143.812 112.571C144.205 111.387 145.149 108.152 145.778 104.68C146.565 100.341 144.598 94.4228 143.812 94.2256C143.025 94.0283 142.435 93.6338 140.469 97.7762ZM153.643 95.0146C151.874 94.8371 145.954 102.905 145.778 111.782C147.941 110.203 149.121 111.782 149.121 116.121C154.43 113.754 157.576 95.4091 153.643 95.0146ZM149.514 95.8036C150.694 87.5188 145.778 81.7983 142.042 80.2203C141.415 85.1346 141.548 87.8957 143.812 92.8448C145.21 92.6724 145.725 93.2603 146.368 95.0146C146.892 94.6201 148.256 94.2256 149.514 95.8036ZM156.396 96.5927C159.519 87.1285 156.986 76.2751 154.43 73.7107C153.22 73.8226 151.916 76.7859 151.227 81.0093C151.508 81.2723 152.031 82.035 151.874 82.9819C151.716 83.9287 151.084 84.8229 150.788 85.1517C150.645 87.8919 150.767 90.8812 151.284 93.831C153.216 93.9851 154.252 93.3904 156.396 96.5927ZM145.778 80.2203C141.72 75.8925 140.053 73.0156 139.879 65.8204C141.702 66.1477 142.726 66.3731 144.598 67.793C147.941 69.9628 146.368 72.1327 150.301 79.234C148.531 81.0093 146.733 78.3103 145.778 80.2203ZM156.396 75.2888C157.811 67.3427 154.43 63.4533 148.531 57.3383C146.34 64.948 147.142 69.2726 150.694 77.0641C153.098 72.1341 154.376 71.1041 156.396 75.2888ZM141.649 63.6506C137.508 59.9237 136.066 57.2269 134.373 51.8151C136.382 51.6782 137.509 51.6044 141.649 54.3795C141.839 57.0644 142.053 58.5754 143.418 61.2835C142.616 61.6046 142.216 62.0294 141.649 63.6506ZM150.788 57.3383C148.929 55.1625 147.748 55.3277 145.188 60.0999C142.341 54.1738 141.767 50.4158 141.649 43.333C143.54 43.7567 144.634 44.2557 146.761 46.4892C146.895 47.8016 147.145 48.6541 148.531 48.8563C150.021 51.5823 150.694 53.2658 150.788 57.3383ZM129.261 38.9934C134.373 38.9934 139.909 44.756 141.059 52.4069C139.144 52.5898 134.887 49.9165 131.62 46.6864C127.842 42.9503 125.173 38.536 125.525 38.0071C126.18 37.0208 127.295 38.9934 129.261 38.9934ZM141.649 37.4153C138.858 30.3062 135.824 28.2405 128.868 26.5661C130.182 34.1954 132.261 38.2421 140.469 44.7138C138.082 39.9846 139.612 39.2253 141.649 37.4153ZM133.783 26.5661C128.865 19.7904 124.973 17.7883 116.086 17.295C118.934 22.5242 121.088 25.259 127.688 29.1305C126.768 24.8229 128.115 24.4314 133.783 26.5661ZM118.249 24.199C115.298 23.8281 114.343 24.4224 112.94 25.9743C119.876 31.9484 123.39 33.6789 128.868 33.6674C128.586 32.3077 128.305 31.5434 127.688 30.7085L127.524 30.6165C124.05 28.6647 122.014 27.5208 118.249 24.199ZM114.71 18.2813C114.71 18.2813 109.794 18.8731 106.058 17.295C100.356 14.8864 102.715 11.969 98.7828 10.3707C107.075 8.43689 111.39 9.82028 118.643 15.5197C116.451 15.7372 114.844 15.3616 114.71 18.2813ZM97.2097 18.8731C102.174 21.9805 105.409 23.14 112.744 23.2127C111.824 22.6556 111.558 22.0914 111.367 21.0429C106.485 20.0676 104.225 19.0471 101.732 15.7169C99.0079 15.9991 98.0941 16.5173 97.2097 18.8731ZM86.0017 12.3635C84.3967 13.3457 83.7756 14.0209 83.2488 15.5197C89.2363 17.591 92.3155 17.598 97.2097 15.5197C96.6584 14.6289 96.1128 14.2065 94.8502 13.5471C89.8799 13.6784 87.909 13.445 86.0017 12.3635Z" fill="#6F6C6C"/>
<path fill-rule="evenodd" clip-rule="evenodd" d="M82.2646 6.73397C89.4242 3.65858 93.877 4.02894 101.142 8.8129C99.0674 8.8129 98.11 9.39425 97.0737 10.0235C95.8514 10.7657 94.5194 11.5745 91.1141 11.5745C86.8626 11.5745 85.1925 10.7866 82.2646 8.90762C82.6231 8.67758 83.0004 8.43118 83.4036 8.16787C83.6673 7.99565 83.9421 7.8162 84.23 7.62935C83.5512 7.30443 82.8973 7.00574 82.2646 6.73397ZM82.2646 6.73397C81.632 7.00574 80.9781 7.30443 80.2993 7.62935C80.5872 7.8162 80.862 7.99565 81.1257 8.16787C81.5289 8.43118 81.9062 8.67758 82.2646 8.90762C79.3368 10.7866 77.6667 11.5745 73.4152 11.5745C70.0099 11.5745 68.6779 10.7657 67.4556 10.0235C66.4193 9.39425 65.4619 8.8129 63.3869 8.8129C70.6523 4.02894 75.1051 3.65858 82.2646 6.73397Z" fill="#CBC5C5"/>
<path d="M82.2646 6.73397C81.632 7.00574 80.9781 7.30443 80.2993 7.62935C80.5872 7.8162 80.862 7.99565 81.1257 8.16787C81.5289 8.43118 81.9062 8.67758 82.2646 8.90762C82.6231 8.67758 83.0004 8.43118 83.4036 8.16787C83.6673 7.99565 83.9421 7.8162 84.23 7.62935C83.5512 7.30443 82.8973 7.00574 82.2646 6.73397Z" fill="#6F6C6C"/>
<path d="M85.1962 155.77C85.2146 156.737 85.2699 157.709 85.3641 158.729C85.817 160.051 95.7656 161.374 101.174 163.858L102.126 162.082C99.1761 162.674 90.131 156.165 85.1962 155.77Z" fill="#6F6C6C"/>
<path d="M79.1652 158.729C79.2594 157.709 79.3147 156.737 79.3331 155.77C74.3983 156.165 65.3532 162.674 62.4037 162.082L63.3552 163.858C68.7636 161.374 78.7123 160.051 79.1652 158.729Z" fill="#6F6C6C"/>
<path fill-rule="evenodd" clip-rule="evenodd" d="M82.377 134C87.5436 134 88.483 129.458 88.483 128.096C88.483 126.733 83.786 125.371 83.786 124.463C86.6042 123.554 88.483 122.192 88.483 114.471C88.483 106.75 86.6042 107.204 85.6648 106.296H97.877V103.117H86.1345L89.4224 38.1708L82.8467 25L82.377 99.9375L81.9073 25L75.3315 38.1708L78.6194 103.117H66.877V106.296H79.0891C78.1497 107.204 76.2709 105.842 76.2709 114.471C76.2709 123.1 78.6194 124.008 80.9679 124.463C80.9679 125.371 76.2709 126.733 76.2709 128.096C76.2709 129.458 77.2103 134 82.377 134ZM84.7254 110.383L80.0285 109.475L79.5588 110.383L85.1951 111.292L84.7254 110.383ZM85.6648 112.654L79.0891 111.746V112.654L85.6648 113.562V112.654ZM85.6648 114.925L79.0891 114.017V114.925L85.6648 115.833V114.925ZM85.6648 117.196L79.0891 116.288V117.196L85.6648 118.104V117.196ZM85.1951 119.467L79.5588 118.558L80.0285 119.467L84.7254 120.375L85.1951 119.467Z" fill="#CBC5C5"/>
</svg>
