<svg width="163" height="124" viewBox="0 0 163 124" fill="none" xmlns="http://www.w3.org/2000/svg">
<path d="M0 22C0 9.84974 9.84294 0 21.9848 0H140.903C153.045 0 162.888 9.84974 162.888 22V102C162.888 114.15 153.045 124 140.903 124H21.9848C9.84295 124 0 114.15 0 102V22Z" fill="#C5A869"/>
<path fill-rule="evenodd" clip-rule="evenodd" d="M140.903 11H21.9848C15.9139 11 10.9924 15.9249 10.9924 22V102C10.9924 108.075 15.9139 113 21.9848 113H140.903C146.974 113 151.895 108.075 151.895 102V22C151.895 15.9249 146.974 11 140.903 11ZM21.9848 0C9.84294 0 0 9.84974 0 22V102C0 114.15 9.84295 124 21.9848 124H140.903C153.045 124 162.888 114.15 162.888 102V22C162.888 9.84974 153.045 0 140.903 0H21.9848Z" fill="#A68C55"/>
<path fill-rule="evenodd" clip-rule="evenodd" d="M72.3997 86.2047C70.5292 86.2047 68.5492 91.0567 68.5492 93.9844C68.5492 100.687 76.3894 103.115 80.1156 103.115C89.2546 103.115 95.611 97.9411 95.611 91.4127C95.611 86.1318 92.4148 81.2143 87.5812 76.7143C91.9037 76.7147 98.9094 69.396 98.9094 64.318C98.9094 59.24 92.7703 51.6207 87.4003 46.2507C82.0303 40.8806 75.4862 39.305 75.4862 32.1702C75.4862 29.5985 78.2326 26.3138 84.2117 26.3138C85.5909 26.3138 90.5367 27.9174 90.5508 29.3407C90.5649 30.7639 87.4003 31.1952 87.4003 34.7419C87.4003 36.959 90.1984 39.9499 92.5445 39.9499C94.4151 39.9499 96.3951 35.0979 96.3951 32.1702C96.3951 25.4676 88.2109 23.2001 84.4847 23.2001C75.3457 23.2001 68.7013 29.5061 68.7013 36.0344C68.7013 41.1834 71.0994 45.4064 75.309 49.4312C70.9704 49.6251 63.9771 56.8274 63.9771 61.8366C63.9771 66.9146 70.1162 74.534 75.4862 79.904C80.8562 85.274 88.9887 86.8496 88.9887 93.9844C88.9887 96.5561 86.0947 100.029 80.1156 100.029C78.7363 100.029 74.4075 98.2372 74.3934 96.814C74.3793 95.3907 77.5439 94.9595 77.5439 91.4127C77.5439 89.1956 74.7459 86.2047 72.3997 86.2047ZM69.3137 58.8142C69.3137 61.2069 71.3855 64.8599 80.1156 70.8378C81.3685 71.6958 82.581 72.573 83.7388 73.469C84.8424 73.6548 86.2149 73.8342 87.4003 73.8342C89.859 73.8342 93.5727 69.7331 93.5727 67.3404C93.5727 64.9477 91.501 61.2947 82.7709 55.3168C81.481 54.4335 80.2651 53.558 79.1295 52.6825C78.029 52.4978 76.6651 52.3204 75.4862 52.3204C73.0275 52.3204 69.3137 56.4215 69.3137 58.8142Z" fill="black"/>
<path fill-rule="evenodd" clip-rule="evenodd" d="M80.251 30.3169V28.4396C80.8772 28.1949 81.607 28.0035 82.4522 27.8916V30.3169C83.9804 30.5303 85.3683 31.1816 86.4852 32.1398C86.1539 32.8409 85.9328 33.6928 85.9328 34.7419L85.9329 34.7592C84.8976 33.3538 83.2311 32.442 81.3516 32.442C79.714 32.442 78.2381 33.1342 77.2006 34.2419C77.0386 33.6149 76.9537 32.9308 76.9537 32.1702C76.9537 31.974 76.9851 31.7518 77.0528 31.5141C77.9981 30.8984 79.0836 30.4799 80.251 30.3169ZM86.5027 37.0278H78.6433C79.1318 37.6272 79.7152 38.1904 80.3787 38.7531C80.5675 38.9133 80.7605 39.0715 80.9578 39.2289H86.9315C86.6894 40.4636 86.0477 41.5551 85.1466 42.3631C85.7155 42.801 86.2939 43.2646 86.8715 43.7625C87.8921 42.7625 88.6421 41.4874 89.0016 40.0572C88.6512 39.7886 88.3278 39.4969 88.0386 39.1984C87.4461 38.5867 86.8931 37.8391 86.5027 37.0278ZM96.8225 37.0278C96.7213 37.2831 96.6147 37.5323 96.5036 37.773C96.2702 38.2786 96.0043 38.7747 95.7081 39.2289H107.399V37.0278H96.8225ZM82.4522 21.8324V20.8857H80.251V22.1737C80.9664 22.0214 81.701 21.9066 82.4522 21.8324ZM67.2615 37.0278H55.4877V39.2289H67.53C67.3941 38.5135 67.3038 37.7803 67.2615 37.0278ZM56.2214 40.5356L64.0186 56.7955C63.9566 56.9075 63.8962 57.0196 63.8374 57.132C63.4389 57.8935 63.1034 58.6873 62.8693 59.4897L56.2214 45.6264L42.9284 73.3473H67.7744C68.333 74.0883 68.9176 74.8243 69.518 75.5485H39.4316L56.2214 40.5356ZM71.9768 78.3624C68.6374 91.5415 43.2279 92.0686 40.4462 77.3828H71.0927C71.3861 77.7135 71.6812 78.0403 71.9768 78.3624ZM78.967 84.5333V88.939H80.6179V85.6148L80.753 85.7021C81.2102 85.9975 81.6533 86.2837 82.0853 86.5705V88.939H83.5528V87.5892C84.0903 87.9844 84.5811 88.3774 85.0202 88.779V88.939C85.0804 88.939 85.1405 88.9417 85.2005 88.9471C86.6781 90.3537 87.5213 91.8822 87.5213 93.9844C87.5213 94.1749 87.4895 94.3919 87.4226 94.6254H78.122C78.6318 93.8236 79.0114 92.7874 79.0114 91.4127C79.0114 90.5667 78.7522 89.7199 78.3477 88.939C78.1081 88.4764 77.8175 88.037 77.4995 87.6346V83.5114C77.9897 83.8684 78.4812 84.2076 78.967 84.5333ZM84.3403 72.0802C84.0802 71.8812 83.8176 71.6831 83.5528 71.4862V57.6587C84.0711 58.0324 84.5597 58.395 85.0202 58.7468V72.1798C84.7896 72.1487 84.5619 72.1151 84.3403 72.0802ZM79.7819 55.0041H78.967V54.4021C78.8201 54.292 78.6744 54.1819 78.5298 54.0718C78.1963 54.0194 77.8492 53.9702 77.4995 53.9278L77.4995 67.1253C77.9586 67.4819 78.4472 67.85 78.967 68.2297V56.4715H80.6179V69.4021C80.7257 69.4767 80.8346 69.5516 80.9446 69.627C81.3284 69.8898 81.7088 70.1546 82.0853 70.4213V56.626C82.0377 56.5933 81.9899 56.5605 81.9418 56.5276C81.1991 56.019 80.4786 55.5116 79.7819 55.0041ZM98.3793 57.8147C98.8458 58.6845 99.2519 59.5555 99.5738 60.4146L106.665 45.6264L119.958 73.3473H96.008C95.9856 73.3715 95.9633 73.3957 95.9408 73.4198C95.2228 74.192 94.4485 74.9131 93.648 75.5485H123.455L106.665 40.5356L98.3793 57.8147ZM90.5418 77.479C90.5505 77.5233 90.5595 77.5676 90.5686 77.6117C92.8463 80.03 94.6937 82.6198 95.8308 85.3718C104.514 91.2662 120.498 88.1921 122.257 77.3828H90.7527C90.6826 77.4156 90.6123 77.4477 90.5418 77.479Z" fill="black"/>
</svg>
