<svg width="164" height="124" viewBox="0 0 164 124" fill="none" xmlns="http://www.w3.org/2000/svg">
<path d="M0.887695 22C0.887695 9.84974 10.7306 0 22.8725 0H141.79C153.932 0 163.775 9.84974 163.775 22V102C163.775 114.15 153.932 124 141.79 124H22.8725C10.7306 124 0.887695 114.15 0.887695 102V22Z" fill="#C5A869"/>
<path fill-rule="evenodd" clip-rule="evenodd" d="M141.79 11H22.8725C16.8016 11 11.8801 15.9249 11.8801 22V102C11.8801 108.075 16.8016 113 22.8725 113H141.79C147.861 113 152.783 108.075 152.783 102V22C152.783 15.9249 147.861 11 141.79 11ZM22.8725 0C10.7306 0 0.887695 9.84974 0.887695 22V102C0.887695 114.15 10.7306 124 22.8725 124H141.79C153.932 124 163.775 114.15 163.775 102V22C163.775 9.84974 153.932 0 141.79 0H22.8725Z" fill="#A68C55"/>
<path fill-rule="evenodd" clip-rule="evenodd" d="M81.7816 46.9522V42.5641H82.8057V46.9522C84.4228 47.178 85.7024 48.4575 85.9281 50.0746H94.4129V51.0988H85.9281C85.7024 52.7159 84.4228 53.9954 82.8057 54.2212V57.1584H81.7816V54.2212C80.1645 53.9954 78.885 52.7159 78.6592 51.0988H70.2598V50.0746H78.6592C78.885 48.4575 80.1645 47.178 81.7816 46.9522ZM79.6974 51.0988C79.9359 52.3149 81.0076 53.2324 82.2937 53.2324C83.5797 53.2324 84.6514 52.3149 84.8899 51.0988H79.6974ZM84.8899 50.0746H79.6974C79.9359 48.8585 81.0076 47.941 82.2937 47.941C83.5797 47.941 84.6514 48.8585 84.8899 50.0746ZM70.6012 51.7068L78.4131 67.9974H62.7893L70.6012 51.7068ZM94.0715 51.7068L101.883 67.9974H86.2596L94.0715 51.7068ZM64.4162 66.9733H76.7861L70.6012 54.0754L64.4162 66.9733ZM87.8865 66.9733H100.256L94.0715 54.0754L87.8865 66.9733Z" fill="black"/>
<path d="M86.561 68.8509C87.8865 75.8493 100.256 75.4226 101.326 68.8509H86.561Z" fill="black"/>
<path d="M63.2614 68.8509C64.5869 75.8493 76.9568 75.4226 78.0263 68.8509H63.2614Z" fill="black"/>
<path fill-rule="evenodd" clip-rule="evenodd" d="M80.5014 57.4144H81.1841V58.4386H83.3178V57.4144H84.0006V74.2277H83.3178V59.1214H82.635V74.2277H81.9523V59.1214H81.1841V74.2277H80.5014V57.4144Z" fill="black"/>
<path d="M84.0006 74.2277H83.3178H82.635H81.9523H81.1841H80.5014C79.9893 74.2277 79.5626 74.6544 79.5626 75.2519H76.7861V76.8735H88.4386V75.2519H85.0247C85.0247 74.6544 84.5127 74.2277 84.0006 74.2277Z" fill="black"/>
<path d="M82.3341 85.7171C83.148 85.7171 83.8077 85.0574 83.8077 84.2435C83.8077 83.4297 83.1489 82.7699 82.3351 82.7699C81.5212 82.7699 80.8615 83.4297 80.8615 84.2435C80.8615 85.0574 81.5203 85.7171 82.3341 85.7171Z" fill="black"/>
<path d="M84.0335 99.9972L82.3346 92.9242L80.6357 99.9972C80.2911 101.215 78.7872 100.899 79.173 99.5625L80.8726 92.9222V89.2857C80.8726 88.3643 80.1924 88.2602 79.7659 89.0485L78.3034 91.934C77.9966 92.4691 77.8527 92.6716 77.4863 92.6081L77.9268 89.8169L79.173 87.428C79.3758 87.0112 79.5919 86.8351 80.0821 86.8351H84.5871C85.0773 86.8351 85.2934 87.0112 85.4962 87.428L86.7424 89.8169L87.1829 92.6081C86.8165 92.6716 86.6726 92.4691 86.3658 91.934L84.9033 89.0485C84.4768 88.2602 83.7966 88.3643 83.7966 89.2857V92.9222L85.4962 99.5625C85.882 100.899 84.3781 101.215 84.0335 99.9972Z" fill="black"/>
<path d="M89.6627 84.556C90.4367 84.3045 90.8603 83.4731 90.6088 82.6991C90.3573 81.9251 89.5269 81.5012 88.7529 81.7527C87.9789 82.0042 87.5553 82.8355 87.8068 83.6095C88.0583 84.3836 88.8887 84.8074 89.6627 84.556Z" fill="black"/>
<path d="M95.6917 97.612L91.8903 91.4102L92.4602 98.662C92.5088 99.9268 90.9807 100.09 90.9348 98.7006L90.4992 91.86L89.3755 88.4015C89.0908 87.5252 88.4116 87.6364 88.2496 88.5179L87.7504 91.7141C87.6239 92.3179 87.5497 92.5549 87.1816 92.6077L86.738 89.817L87.185 87.1599C87.249 86.7009 87.4002 86.4666 87.8664 86.3151L92.1509 84.923C92.6171 84.7715 92.8771 84.8723 93.1987 85.2059L95.1221 87.0928L96.4036 89.6113C96.0747 89.7849 95.8754 89.6368 95.4182 89.2227L93.1356 86.9303C92.4864 86.3124 91.8716 86.6216 92.1563 87.4979L93.2801 90.9565L96.9485 96.7466C97.7283 97.898 96.3958 98.6638 95.6917 97.612Z" fill="black"/>
<path d="M96.274 81.1871C96.9324 80.7087 97.0783 79.7872 96.6 79.1287C96.1216 78.4703 95.2008 78.3238 94.5424 78.8022C93.884 79.2805 93.738 80.2021 94.2164 80.8605C94.6948 81.5189 95.6156 81.6654 96.274 81.1871Z" fill="black"/>
<path d="M106.042 91.7411L100.511 87.0175L103.294 93.7382C103.731 94.9261 102.328 95.5539 101.855 94.2463L99.3267 87.8752L97.1892 84.9331C96.6476 84.1877 96.0361 84.5034 96.1544 85.3918L96.6672 88.5858C96.7336 89.1991 96.7362 89.4474 96.4025 89.6115L95.1182 87.0944L94.7222 84.4292C94.6413 83.9729 94.7126 83.7034 95.1092 83.4152L98.7538 80.7673C99.1504 80.4791 99.4288 80.4946 99.8378 80.7126L102.25 81.9128L104.247 83.912C103.988 84.1787 103.753 84.0995 103.19 83.8469L100.311 82.3721C99.5022 81.985 99.0131 82.4691 99.5547 83.2145L101.692 86.1565L106.97 90.5296C108.068 91.3837 107.037 92.5238 106.042 91.7411Z" fill="black"/>
<path d="M101.521 75.94C101.999 75.2816 101.853 74.3601 101.195 73.8817C100.536 73.4033 99.6151 73.5485 99.1368 74.2069C98.6584 74.8654 98.8043 75.7869 99.4628 76.2653C100.121 76.7436 101.042 76.5985 101.521 75.94Z" fill="black"/>
<path d="M114.072 82.9589L107.351 80.1759L112.075 85.7077C112.858 86.7024 111.718 87.733 110.864 86.6356L106.491 81.3575L103.549 79.22C102.803 78.6784 102.319 79.1675 102.706 79.9759L104.181 82.8551C104.433 83.4179 104.513 83.6533 104.246 83.9124L102.247 81.9154L101.047 79.5031C100.829 79.0941 100.813 78.8156 101.101 78.4191L103.749 74.7745C104.037 74.3779 104.307 74.3066 104.763 74.3875L107.428 74.7835L109.945 76.0678C109.781 76.4015 109.533 76.3988 108.92 76.3325L105.726 75.8197C104.837 75.7013 104.522 76.3129 105.267 76.8544L108.209 78.9919L114.58 81.52C115.888 81.9931 115.26 83.3959 114.072 82.9589Z" fill="black"/>
<path d="M104.889 69.3286C105.14 68.5545 104.717 67.7232 103.943 67.4717C103.169 67.2202 102.338 67.6429 102.086 68.4169C101.835 69.1909 102.258 70.0223 103.032 70.2738C103.806 70.5252 104.637 70.1026 104.889 69.3286Z" fill="black"/>
<path d="M118.995 72.1252L111.743 71.5552L117.945 75.3566C118.997 76.0608 118.231 77.3932 117.08 76.6134L111.29 72.945L107.831 71.8213C106.955 71.5365 106.646 72.1513 107.264 72.8005L109.556 75.0831C109.97 75.5403 110.118 75.7397 109.945 76.0685L107.426 74.787L105.539 72.8636C105.205 72.542 105.105 72.282 105.256 71.8158L106.648 67.5313C106.8 67.0651 107.034 66.914 107.493 66.8499L110.15 66.403L112.941 66.8466C112.888 67.2146 112.651 67.2889 112.047 67.4153L108.851 67.9146C107.97 68.0766 107.858 68.7557 108.735 69.0404L112.193 70.1642L119.034 70.5997C120.424 70.6456 120.26 72.1737 118.995 72.1252Z" fill="black"/>
<path d="M106.049 61.9997C106.049 61.1859 105.39 60.5261 104.576 60.5261C103.762 60.5261 103.102 61.1849 103.102 61.9987C103.102 62.8126 103.762 63.4724 104.576 63.4724C105.39 63.4724 106.049 62.8136 106.049 61.9997Z" fill="black"/>
<path d="M120.33 60.3004L113.257 61.9992L120.33 63.6981C121.547 64.0428 121.231 65.5467 119.895 65.1608L113.255 63.4612H109.618C108.697 63.4612 108.593 64.1414 109.381 64.5679L112.266 66.0304C112.801 66.3373 113.004 66.4811 112.94 66.8475L110.149 66.407L107.76 65.1608C107.344 64.9581 107.167 64.7419 107.167 64.2517V59.7467C107.167 59.2566 107.344 59.0404 107.76 58.8376L110.149 57.5915L112.94 57.151C113.004 57.5173 112.801 57.6612 112.266 57.9681L109.381 59.4305C108.593 59.857 108.697 60.5373 109.618 60.5373H113.255L119.895 58.8376C121.231 58.4518 121.547 59.9557 120.33 60.3004Z" fill="black"/>
<path d="M104.888 54.6709C104.637 53.8968 103.805 53.4733 103.031 53.7247C102.257 53.9762 101.834 54.8067 102.085 55.5807C102.337 56.3547 103.168 56.7783 103.942 56.5268C104.716 56.2753 105.14 55.4449 104.888 54.6709Z" fill="black"/>
<path d="M117.944 48.6419L111.742 52.4433L118.994 51.8733C120.259 51.8248 120.423 53.3529 119.033 53.3988L112.192 53.8343L108.734 54.9581C107.857 55.2428 107.969 55.9219 108.85 56.0839L112.046 56.5832C112.65 56.7096 112.887 56.7839 112.94 57.1519L110.149 57.5955L107.492 57.1486C107.033 57.0845 106.799 56.9334 106.647 56.4672L105.255 52.1827C105.104 51.7165 105.205 51.4565 105.538 51.1349L107.425 49.2115L109.944 47.93C110.117 48.2588 109.969 48.4582 109.555 48.9154L107.263 51.198C106.645 51.8472 106.954 52.462 107.83 52.1772L111.289 51.0535L117.079 47.3851C118.23 46.6053 118.996 47.9377 117.944 48.6419Z" fill="black"/>
<path d="M101.519 48.0596C101.041 47.4012 100.12 47.2552 99.4611 47.7336C98.8027 48.2119 98.6561 49.1327 99.1345 49.7911C99.6129 50.4496 100.534 50.5955 101.193 50.1171C101.851 49.6388 101.998 48.718 101.519 48.0596Z" fill="black"/>
<path d="M112.073 38.2912L107.35 43.823L114.071 41.04C115.258 40.603 115.886 42.0057 114.579 42.4788L108.207 45.0069L105.265 47.1444C104.52 47.686 104.836 48.2975 105.724 48.1792L108.918 47.6663C109.531 47.6 109.78 47.5974 109.944 47.9311L107.427 49.2154L104.762 49.6114C104.305 49.6923 104.036 49.6209 103.748 49.2244L101.1 45.5798C100.811 45.1832 100.827 44.9048 101.045 44.4958L102.245 42.0835L104.244 40.0864C104.511 40.3456 104.432 40.5809 104.179 41.1437L102.704 44.0229C102.317 44.8313 102.801 45.3205 103.547 44.7789L106.489 42.6414L110.862 37.3633C111.716 36.2659 112.856 37.2964 112.073 38.2912Z" fill="black"/>
<path d="M96.2721 42.813C95.6137 42.3347 94.6921 42.4806 94.2138 43.139C93.7354 43.7975 93.8806 44.7184 94.539 45.1968C95.1974 45.6752 96.119 45.5292 96.5973 44.8708C97.0757 44.2124 96.9305 43.2914 96.2721 42.813Z" fill="black"/>
<path d="M103.291 30.2613L100.508 36.9821L106.04 32.2585C107.034 31.4757 108.065 32.6159 106.968 33.4699L101.69 37.843L99.552 40.785C99.0104 41.5305 99.4996 42.0145 100.308 41.6275L103.187 40.1527C103.75 39.9001 103.985 39.8209 104.244 40.0875L102.247 42.0868L99.8351 43.287C99.4261 43.5049 99.1477 43.5204 98.7512 43.2323L95.1065 40.5843C94.71 40.2962 94.6386 40.0266 94.7195 39.5703L95.1156 36.9051L96.3998 34.3881C96.7335 34.5521 96.7309 34.8004 96.6646 35.4137L96.1517 38.6078C96.0334 39.4962 96.6449 39.8118 97.1865 39.0664L99.324 36.1244L101.852 29.7532C102.325 28.4456 103.728 29.0734 103.291 30.2613Z" fill="black"/>
<path d="M89.6606 39.4447C88.8866 39.1932 88.0553 39.6168 87.8038 40.3908C87.5523 41.1649 87.975 41.9959 88.749 42.2474C89.523 42.4989 90.3543 42.0753 90.6058 41.3013C90.8573 40.5273 90.4346 39.6962 89.6606 39.4447Z" fill="black"/>
<path d="M92.4573 25.3384L91.8873 32.5902L95.6887 26.3884C96.3928 25.3366 97.7253 26.1024 96.9455 27.2538L93.2771 33.0439L92.1533 36.5025C91.8686 37.3788 92.4834 37.688 93.1326 37.07L95.4152 34.7777C95.8724 34.3635 96.0717 34.2155 96.4006 34.389L95.1191 36.9075L93.1957 38.7945C92.8741 39.1281 92.6141 39.2289 92.1479 39.0774L87.8634 37.6853C87.3972 37.5338 87.246 37.2995 87.182 36.8405L86.735 34.1834L87.1786 31.3927C87.5467 31.4455 87.6209 31.6825 87.7474 32.2863L88.2466 35.4825C88.4087 36.364 89.0878 36.4752 89.3725 35.5989L90.4963 32.1404L90.9318 25.2998C90.9777 23.91 92.5058 24.0736 92.4573 25.3384Z" fill="black"/>
<path d="M82.3315 38.2844C81.5177 38.2844 80.8579 38.9442 80.8579 39.758C80.8579 40.5719 81.5167 41.2316 82.3305 41.2316C83.1444 41.2316 83.8041 40.5719 83.8041 39.758C83.8041 38.9442 83.1454 38.2844 82.3315 38.2844Z" fill="black"/>
<path d="M80.6322 24.0043L82.331 31.0773L84.0299 24.0043C84.3746 22.7864 85.8784 23.103 85.4926 24.439L83.793 31.0793V34.7158C83.793 35.6372 84.4732 35.7413 84.8997 34.953L86.3622 32.0675C86.6691 31.5324 86.8129 31.3299 87.1793 31.3934L86.7388 34.1846L85.4926 36.5735C85.2899 36.9903 85.0737 37.1664 84.5835 37.1664H80.0785C79.5883 37.1664 79.3722 36.9903 79.1694 36.5735L77.9233 34.1846L77.4828 31.3934C77.8491 31.3299 77.993 31.5324 78.2998 32.0675L79.7623 34.953C80.1888 35.7413 80.8691 35.6372 80.8691 34.7158V31.0793L79.1694 24.439C78.7836 23.103 80.2875 22.7864 80.6322 24.0043Z" fill="black"/>
<path d="M75.0029 39.4456C74.2289 39.6971 73.8053 40.5284 74.0568 41.3024C74.3083 42.0764 75.1387 42.5003 75.9127 42.2488C76.6868 41.9973 77.1104 41.166 76.8589 40.392C76.6074 39.618 75.7769 39.1941 75.0029 39.4456Z" fill="black"/>
<path d="M68.974 26.3895L72.7753 32.5914L72.2054 25.3395C72.1568 24.0747 73.685 23.9111 73.7308 25.3009L74.1664 32.1415L75.2901 35.6C75.5749 36.4763 76.254 36.3651 76.416 35.4836L76.9152 32.2874C77.0417 31.6836 77.116 31.4467 77.484 31.3938L77.9276 34.1845L77.4806 36.8416C77.4166 37.3006 77.2654 37.5349 76.7992 37.6864L72.5147 39.0785C72.0486 39.23 71.7885 39.1293 71.4669 38.7956L69.5435 36.9087L68.2621 34.3902C68.5909 34.2166 68.7902 34.3647 69.2475 34.7788L71.53 37.0712C72.1792 37.6891 72.794 37.3799 72.5093 36.5036L71.3856 33.045L67.7171 27.2549C66.9374 26.1036 68.2698 25.3377 68.974 26.3895Z" fill="black"/>
<path d="M68.3917 42.8144C67.7332 43.2928 67.5873 44.2143 68.0656 44.8728C68.544 45.5312 69.4648 45.6777 70.1232 45.1993C70.7816 44.721 70.9276 43.7994 70.4492 43.141C69.9708 42.4826 69.0501 42.3361 68.3917 42.8144Z" fill="black"/>
<path d="M58.6232 32.2604L64.155 36.984L61.372 30.2633C60.935 29.0754 62.3378 28.4476 62.8109 29.7552L65.339 36.1263L67.4765 39.0684C68.0181 39.8138 68.6296 39.4981 68.5113 38.6097L67.9984 35.4157C67.9321 34.8024 67.9295 34.554 68.2632 34.39L69.5474 36.9071L69.9434 39.5723C70.0243 40.0286 69.953 40.2981 69.5564 40.5863L65.9118 43.2342C65.5153 43.5223 65.2368 43.5069 64.8279 43.2889L62.4155 42.0887L60.4185 40.0895C60.6776 39.8228 60.913 39.902 61.4758 40.1546L64.355 41.6294C65.1634 42.0165 65.6525 41.5324 65.111 40.787L62.9735 37.845L57.6953 33.4718C56.5979 32.6178 57.6285 31.4777 58.6232 32.2604Z" fill="black"/>
<path d="M63.1451 48.0615C62.6667 48.7199 62.8127 49.6414 63.4711 50.1198C64.1295 50.5982 65.0505 50.453 65.5289 49.7946C66.0072 49.1361 65.8613 48.2146 65.2029 47.7362C64.5444 47.2579 63.6235 47.403 63.1451 48.0615Z" fill="black"/>
<path d="M50.5934 41.0426L57.3141 43.8256L52.5905 38.2938C51.8078 37.2991 52.9479 36.2685 53.802 37.3659L58.1751 42.644L61.1171 44.7815C61.8625 45.3231 62.3466 44.834 61.9595 44.0256L60.4847 41.1464C60.2321 40.5835 60.1529 40.3482 60.4196 40.0891L62.4188 42.0861L63.619 44.4984C63.837 44.9074 63.8525 45.1858 63.5643 45.5824L60.9164 49.227C60.6282 49.6236 60.3587 49.6949 59.9024 49.614L57.2372 49.218L54.7201 47.9337C54.8841 47.6 55.1325 47.6026 55.7458 47.669L58.9398 48.1818C59.8282 48.3001 60.1439 47.6886 59.3985 47.147L56.4564 45.0095L50.0853 42.4815C48.7777 42.0084 49.4055 40.6056 50.5934 41.0426Z" fill="black"/>
<path d="M59.7768 54.6729C59.5253 55.447 59.9489 56.2783 60.7229 56.5298C61.4969 56.7813 62.328 56.3586 62.5795 55.5846C62.831 54.8106 62.4074 53.9792 61.6334 53.7277C60.8593 53.4762 60.0283 53.8989 59.7768 54.6729Z" fill="black"/>
<path d="M45.6705 51.8763L52.9223 52.4463L46.7204 48.6449C45.6687 47.9407 46.4345 46.6083 47.5858 47.3881L53.376 51.0565L56.8345 52.1802C57.7108 52.465 58.02 51.8502 57.4021 51.201L55.1098 48.9184C54.6956 48.4612 54.5476 48.2618 54.7211 47.933L57.2396 49.2144L59.1265 51.1378C59.4602 51.4595 59.5609 51.7195 59.4095 52.1857L58.0173 56.4702C57.8659 56.9364 57.6315 57.0875 57.1725 57.1516L54.5154 57.5985L51.7247 57.1549C51.7776 56.7869 52.0146 56.7126 52.6184 56.5862L55.8146 56.0869C56.6961 55.9249 56.8073 55.2458 55.931 54.9611L52.4724 53.8373L45.6319 53.4018C44.2421 53.3559 44.4057 51.8278 45.6705 51.8763Z" fill="black"/>
<path d="M58.6162 62.0018C58.6162 62.8156 59.2759 63.4754 60.0898 63.4754C60.9036 63.4754 61.5634 62.8166 61.5634 62.0027C61.5634 61.1889 60.9036 60.5291 60.0898 60.5291C59.2759 60.5291 58.6162 61.1879 58.6162 62.0018Z" fill="black"/>
<path d="M44.3361 63.7011L51.4091 62.0023L44.3361 60.3034C43.1182 59.9587 43.4348 58.4548 44.7707 58.8407L51.4111 60.5403H55.0476C55.969 60.5403 56.0731 59.8601 55.2848 59.4336L52.3993 57.9711C51.8642 57.6642 51.6617 57.5204 51.7252 57.154L54.5164 57.5945L56.9053 58.8407C57.3221 59.0434 57.4982 59.2596 57.4982 59.7498V64.2548C57.4982 64.7449 57.3221 64.9611 56.9053 65.1639L54.5164 66.41L51.7252 66.8505C51.6617 66.4842 51.8642 66.3403 52.3993 66.0334L55.2848 64.571C56.0731 64.1445 55.969 63.4642 55.0476 63.4642H51.4111L44.7707 65.1639C43.4348 65.5497 43.1182 64.0458 44.3361 63.7011Z" fill="black"/>
<path d="M59.7774 69.3306C60.0288 70.1047 60.8602 70.5282 61.6342 70.2768C62.4082 70.0253 62.8321 69.1948 62.5806 68.4208C62.3291 67.6468 61.4978 67.2232 60.7238 67.4747C59.9497 67.7262 59.5259 68.5566 59.7774 69.3306Z" fill="black"/>
<path d="M46.7213 75.3596L52.9231 71.5582L45.6713 72.1282C44.4065 72.1767 44.2429 70.6486 45.6327 70.6027L52.4733 70.1672L55.9318 69.0434C56.8081 68.7587 56.6969 68.0796 55.8154 67.9176L52.6192 67.4183C52.0154 67.2919 51.7784 67.2176 51.7256 66.8496L54.5163 66.406L57.1734 66.8529C57.6324 66.917 57.8667 67.0681 58.0182 67.5343L59.4103 71.8188C59.5618 72.285 59.461 72.545 59.1274 72.8666L57.2404 74.79L54.722 76.0715C54.5484 75.7427 54.6965 75.5433 55.1106 75.0861L57.403 72.8035C58.0209 72.1543 57.7117 71.5395 56.8354 71.8243L53.3768 72.948L47.5867 76.6164C46.4353 77.3962 45.6695 76.0638 46.7213 75.3596Z" fill="black"/>
<path d="M63.1462 75.9419C63.6246 76.6003 64.5461 76.7463 65.2045 76.2679C65.863 75.7896 66.0095 74.8688 65.5311 74.2104C65.0527 73.5519 64.1312 73.406 63.4728 73.8843C62.8144 74.3627 62.6678 75.2835 63.1462 75.9419Z" fill="black"/>
<path d="M52.5922 85.7103L57.3158 80.1785L50.5951 82.9615C49.4072 83.3985 48.7794 81.9958 50.087 81.5227L56.4581 78.9946L59.4001 76.8571C60.1456 76.3155 59.8299 75.704 58.9415 75.8223L55.7475 76.3352C55.1341 76.4015 54.8858 76.4041 54.7218 76.0704L57.2389 74.7861L59.904 74.3901C60.3604 74.3092 60.6299 74.3806 60.9181 74.7771L63.566 78.4217C63.8541 78.8183 63.8387 79.0967 63.6207 79.5057L62.4205 81.9181L60.4213 83.9151C60.1546 83.6559 60.2338 83.4206 60.4864 82.8578L61.9612 79.9785C62.3483 79.1702 61.8642 78.681 61.1188 79.2226L58.1768 81.3601L53.8036 86.6382C52.9496 87.7356 51.8095 86.7051 52.5922 85.7103Z" fill="black"/>
<path d="M68.393 81.1885C69.0514 81.6668 69.9729 81.5209 70.4513 80.8625C70.9297 80.204 70.7845 79.2831 70.1261 78.8047C69.4677 78.3263 68.5461 78.4723 68.0677 79.1307C67.5894 79.7891 67.7346 80.7101 68.393 81.1885Z" fill="black"/>
<path d="M61.3741 93.7402L64.1571 87.0194L58.6253 91.743C57.6306 92.5257 56.6 91.3856 57.6974 90.5316L62.9756 86.1585L65.1131 83.2165C65.6546 82.471 65.1655 81.987 64.3571 82.374L61.4779 83.8488C60.9151 84.1014 60.6797 84.1806 60.4206 83.914L62.4176 81.9147L64.83 80.7145C65.2389 80.4966 65.5174 80.4811 65.9139 80.7692L69.5585 83.4172C69.9551 83.7053 70.0264 83.9749 69.9455 84.4312L69.5495 87.0964L68.2652 89.6134C67.9316 89.4494 67.9342 89.2011 68.0005 88.5878L68.5134 85.3937C68.6317 84.5053 68.0201 84.1897 67.4786 84.9351L65.3411 87.8771L62.813 94.2483C62.3399 95.5559 60.9371 94.9281 61.3741 93.7402Z" fill="black"/>
<path d="M75.0045 84.557C75.7785 84.8085 76.6098 84.3849 76.8613 83.6109C77.1128 82.8369 76.6901 82.0059 75.9161 81.7544C75.1421 81.5029 74.3107 81.9265 74.0593 82.7005C73.8078 83.4745 74.2304 84.3055 75.0045 84.557Z" fill="black"/>
<path d="M72.2078 98.6634L72.7778 91.4115L68.9764 97.6134C68.2722 98.6652 66.9398 97.8994 67.7196 96.748L71.388 90.9579L72.5118 87.4993C72.7965 86.623 72.1817 86.3138 71.5325 86.9317L69.2499 89.2241C68.7927 89.6382 68.5933 89.7863 68.2645 89.6127L69.546 87.0942L71.4694 85.2073C71.791 84.8736 72.051 84.7729 72.5172 84.9244L76.8017 86.3165C77.2679 86.468 77.419 86.7023 77.4831 87.1613L77.93 89.8184L77.4864 92.6091C77.1184 92.5562 77.0441 92.3193 76.9177 91.7155L76.4184 88.5193C76.2564 87.6378 75.5773 87.5266 75.2926 88.4029L74.1688 91.8614L73.7333 98.702C73.6874 100.092 72.1593 99.9282 72.2078 98.6634Z" fill="black"/>
</svg>
