<svg width="164" height="168" viewBox="0 0 164 168" fill="none" xmlns="http://www.w3.org/2000/svg">
<path d="M78.6356 162.871C74.2124 162.674 70.673 163.858 68.7067 165.238C66.7404 166.619 65.9539 168 64.7741 168C63.5943 168 60.8414 166.619 60.8414 165.436C61.4462 164.861 62.3214 164.338 63.3659 163.858C68.7744 161.374 78.7231 160.051 79.176 158.729C79.058 160.007 78.8792 161.36 78.6356 162.871Z" fill="#CBC5C5"/>
<path d="M79.176 151.228C79.1771 151.242 79.1783 151.255 79.1795 151.269C79.2971 152.937 75.7716 149.038 74.0158 145.907C72.2461 142.751 71.2629 144.724 69.1 145.907C66.937 147.091 64.3808 146.696 64.7741 148.077C65.1673 149.458 70.2798 149.852 71.2629 149.852C72.2461 149.852 75.9821 149.852 76.1788 151.036C76.3754 152.219 70.8697 153.206 69.8865 153.206C68.9034 153.206 65.9539 151.825 63.9875 150.247C62.0212 148.669 61.6279 145.513 61.6279 143.343C61.6279 141.173 61.6279 141.173 64.3808 141.173C66.937 141.173 69.2966 138.411 72.4427 138.411C74.2124 140.581 77.7518 143.935 79.176 151.228Z" fill="#CBC5C5"/>
<path d="M59.8582 143.343C59.8582 140.778 61.038 141.962 61.038 140.778C60.907 140.252 60.2515 139.003 58.6785 138.214C56.7121 137.228 53.566 135.847 54.3525 139.792C54.9818 142.948 55.5323 144.395 55.729 144.724C57.7761 145.773 58.9345 146.515 61.038 148.274C61.2347 145.907 59.8582 144.447 59.8582 143.343Z" fill="#CBC5C5"/>
<path d="M59.8582 148.471C57.1054 145.907 50.8131 143.343 45.7007 143.343C45.7007 144.329 45.3074 145.513 46.6839 146.499C48.0603 147.485 49.83 146.302 51.9929 147.288C53.7233 148.077 55.2046 150.115 55.729 151.036C56.6059 149.599 57.538 149.046 59.8582 148.471Z" fill="#CBC5C5"/>
<path d="M49.83 153.206C51.2457 152.732 51.5997 149.852 51.5997 148.471C48.8468 146.499 47.8636 150.247 39.9983 145.513C39.3052 146.941 39.3372 147.809 39.6051 151.228C40.8638 152.43 41.6823 153.014 43.5377 153.797C44.2837 149.23 45.4836 147.912 49.83 149.063C48.611 150.705 48.5772 151.564 49.83 153.206Z" fill="#CBC5C5"/>
<path d="M62.4145 162.082C62.4145 161.096 60.2515 158.729 59.465 158.729C58.6784 158.729 56.5155 162.871 53.1727 162.871C50.809 162.871 47.0689 161.885 45.0808 159.912C44.6259 157.465 44.6007 155.77 44.8406 154.587C45.2386 152.624 46.3662 152.071 47.4704 151.825C47.4704 153.403 50.2232 155.178 51.9929 155.178C54.5492 155.178 58.0886 149.852 59.0717 149.852C60.0549 149.852 63.0044 152.022 63.5943 155.178C68.3135 155.376 74.8023 153.206 79.3164 153.403C79.3492 154.203 79.3587 154.985 79.3438 155.77C74.4091 156.165 65.364 162.674 62.4145 162.082Z" fill="#CBC5C5"/>
<path d="M51.2064 142.751C50.8918 141.489 51.2719 140.515 51.5997 140.187C48.259 132.94 45.2335 130.03 39.4084 125.392C38.5745 132.222 39.7559 135.552 47.0771 142.554L51.2064 142.751Z" fill="#CBC5C5"/>
<path d="M32.9196 143.343C32.9196 143.996 33.4478 144.526 34.0994 144.526C34.7509 144.526 35.2792 143.996 35.2792 143.343C35.2792 142.689 34.7509 142.159 34.0994 142.159C33.4478 142.159 32.9196 142.689 32.9196 143.343Z" fill="#CBC5C5"/>
<path d="M35.6724 129.337C35.6724 129.991 36.2006 130.521 36.8522 130.521C37.5038 130.521 38.032 129.991 38.032 129.337C38.032 128.684 37.5038 128.154 36.8522 128.154C36.2006 128.154 35.6724 128.684 35.6724 129.337Z" fill="#CBC5C5"/>
<path d="M22.1048 112.965C22.1048 113.619 22.633 114.149 23.2845 114.149C23.9361 114.149 24.4643 113.619 24.4643 112.965C24.4643 112.311 23.9361 111.782 23.2845 111.782C22.633 111.782 22.1048 112.311 22.1048 112.965Z" fill="#CBC5C5"/>
<path d="M5.78423 102.905C5.78423 103.559 6.31245 104.088 6.96403 104.088C7.61561 104.088 8.14383 103.559 8.14383 102.905C8.14383 102.251 7.61561 101.721 6.96403 101.721C6.31245 101.721 5.78423 102.251 5.78423 102.905Z" fill="#CBC5C5"/>
<path d="M15.4192 97.7762C15.4192 98.4299 15.9475 98.9598 16.599 98.9598C17.2506 98.9598 17.7788 98.4299 17.7788 97.7762C17.7788 97.1225 17.2506 96.5927 16.599 96.5927C15.9475 96.5927 15.4192 97.1225 15.4192 97.7762Z" fill="#CBC5C5"/>
<path d="M13.8462 82.9819C13.8462 83.6355 14.3744 84.1654 15.026 84.1654C15.6776 84.1654 16.2058 83.6355 16.2058 82.9819C16.2058 82.3282 15.6776 81.7983 15.026 81.7983C14.3744 81.7983 13.8462 82.3282 13.8462 82.9819Z" fill="#CBC5C5"/>
<path d="M9.71689 60.0999C9.71689 60.7536 10.2451 61.2835 10.8967 61.2835C11.5483 61.2835 12.0765 60.7536 12.0765 60.0999C12.0765 59.4463 11.5483 58.9164 10.8967 58.9164C10.2451 58.9164 9.71689 59.4463 9.71689 60.0999Z" fill="#CBC5C5"/>
<path d="M18.762 64.0451C18.762 64.6988 19.2902 65.2287 19.9418 65.2287C20.5934 65.2287 21.1216 64.6988 21.1216 64.0451C21.1216 63.3914 20.5934 62.8616 19.9418 62.8616C19.2902 62.8616 18.762 63.3914 18.762 64.0451Z" fill="#CBC5C5"/>
<path d="M13.6495 46.4892C13.6495 47.1428 14.1778 47.6727 14.8293 47.6727C15.4809 47.6727 16.0091 47.1428 16.0091 46.4892C16.0091 45.8355 15.4809 45.3056 14.8293 45.3056C14.1778 45.3056 13.6495 45.8355 13.6495 46.4892Z" fill="#CBC5C5"/>
<path d="M21.7115 40.9659C21.7115 41.6196 22.2397 42.1495 22.8913 42.1495C23.5429 42.1495 24.0711 41.6196 24.0711 40.9659C24.0711 40.3123 23.5429 39.7824 22.8913 39.7824C22.2397 39.7824 21.7115 40.3123 21.7115 40.9659Z" fill="#CBC5C5"/>
<path d="M35.2792 36.8235C35.2792 37.4772 35.8074 38.0071 36.4589 38.0071C37.1105 38.0071 37.6387 37.4772 37.6387 36.8235C37.6387 36.1699 37.1105 35.64 36.4589 35.64C35.8074 35.64 35.2792 36.1699 35.2792 36.8235Z" fill="#CBC5C5"/>
<path d="M49.2401 21.2401C49.2401 21.8938 49.7683 22.4237 50.4199 22.4237C51.0715 22.4237 51.5997 21.8938 51.5997 21.2401C51.5997 20.5865 51.0715 20.0566 50.4199 20.0566C49.7683 20.0566 49.2401 20.5865 49.2401 21.2401Z" fill="#CBC5C5"/>
<path d="M39.9983 14.3361C39.9983 14.9898 40.5266 15.5197 41.1781 15.5197C41.8297 15.5197 42.3579 14.9898 42.3579 14.3361C42.3579 13.6825 41.8297 13.1526 41.1781 13.1526C40.5266 13.1526 39.9983 13.6825 39.9983 14.3361Z" fill="#CBC5C5"/>
<path d="M64.9707 13.1526C64.9707 13.8062 65.4989 14.3361 66.1505 14.3361C66.8021 14.3361 67.3303 13.8062 67.3303 13.1526C67.3303 12.4989 66.8021 11.969 66.1505 11.969C65.4989 11.969 64.9707 12.4989 64.9707 13.1526Z" fill="#CBC5C5"/>
<path d="M64.1842 3.68419C64.1842 4.33785 64.7124 4.86774 65.364 4.86774C66.0155 4.86774 66.5438 4.33785 66.5438 3.68419C66.5438 3.03054 66.0155 2.50065 65.364 2.50065C64.7124 2.50065 64.1842 3.03054 64.1842 3.68419Z" fill="#CBC5C5"/>
<path d="M44.5209 142.159C44.2587 142.883 43.8917 144.566 44.5209 145.513C37.8317 144.273 26.895 134.609 27.6105 127.365C33.7149 129.111 37.354 132.207 44.5209 142.159Z" fill="#CBC5C5"/>
<path d="M36.8522 125.984C36.4589 120.264 28.397 109.809 26.8239 110.598C25.2509 111.387 26.0374 125.59 32.5263 128.351C32.9982 127.247 35.6069 126.313 36.8522 125.984Z" fill="#CBC5C5"/>
<path d="M32.3297 140.384C29.1835 137.031 23.4812 133.677 18.1721 134.466C19.5485 139.792 27.8071 142.948 31.1499 144.526C30.7566 143.343 31.3465 140.976 32.3297 140.384Z" fill="#CBC5C5"/>
<path d="M38.032 149.852C37.4421 148.077 38.4253 146.302 37.8354 146.104C37.3635 145.947 34.4926 145.776 33.1162 145.71C34.4537 147.434 35.4965 148.353 38.032 149.852Z" fill="#CBC5C5"/>
<path d="M27.6105 125.984C26.8239 121.842 20.5317 111.584 17.7788 112.571C15.026 113.557 18.762 128.746 26.4307 132.494C24.4643 128.351 25.5948 125.984 27.6105 125.984Z" fill="#CBC5C5"/>
<path d="M25.4475 110.203C25.0542 104.483 26.0374 101.919 24.0711 97.7762C22.1048 93.6338 21.5149 94.0283 20.7283 94.2256C19.9418 94.4228 17.9755 100.341 18.762 104.68C19.3912 108.152 20.3351 111.387 20.7283 112.571C21.056 111.847 21.9474 110.282 22.8913 109.809C23.8351 109.336 24.9887 109.875 25.4475 110.203Z" fill="#CBC5C5"/>
<path d="M18.762 111.782C18.5856 102.905 12.6664 94.8371 10.8967 95.0146C6.96403 95.4091 10.1102 113.754 15.4192 116.121C15.4192 111.782 16.599 110.203 18.762 111.782Z" fill="#CBC5C5"/>
<path d="M24.4643 133.085C18.5654 129.337 19.7452 126.576 16.2058 123.222C13.3743 120.54 9.65135 119.475 8.14383 119.277C11.1483 127.891 14.4382 131.19 24.4643 133.085Z" fill="#CBC5C5"/>
<path d="M14.6327 119.869C13.4529 114.442 5.39097 102.905 3.03138 104.088C3.03138 106.653 7.25271 113.754 8.14383 117.699C11.1326 118.015 13.7151 119.277 14.6327 119.869Z" fill="#CBC5C5"/>
<path d="M22.498 80.2203C18.762 81.7983 13.8462 87.5188 15.026 95.8036C16.2844 94.2256 17.6477 94.6201 18.1721 95.0146C18.8146 93.2603 19.33 92.6724 20.7283 92.8448C22.9921 87.8957 23.1251 85.1346 22.498 80.2203Z" fill="#CBC5C5"/>
<path d="M10.1102 73.7107C7.55393 76.2751 5.02073 87.1285 8.14383 96.5927C10.2882 93.3904 11.3242 93.9851 13.2563 93.831C13.7727 90.8812 13.895 87.8919 13.7519 85.1517C13.4556 84.8229 12.8237 83.9287 12.6664 82.9819C12.5091 82.035 13.0323 81.2723 13.3135 81.0093C12.6235 76.7859 11.3196 73.8226 10.1102 73.7107Z" fill="#CBC5C5"/>
<path d="M2.04821 87.1243C2.04821 92.8448 2.96988 95.8816 3.03138 102.313C3.62127 103.694 5.78423 103.497 5.39097 99.5515C5.67219 100.492 7.47589 101.396 7.16066 96.7899C6.84544 92.1842 2.04821 87.1243 2.04821 87.1243Z" fill="#CBC5C5"/>
<path d="M24.661 65.8204C24.4868 73.0156 22.82 75.8925 18.762 80.2203C17.8068 78.3103 16.0091 81.0093 14.2394 79.234C18.1721 72.1327 16.599 69.9628 19.9418 67.793C21.8142 66.3731 22.8379 66.1477 24.661 65.8204Z" fill="#CBC5C5"/>
<path d="M16.0091 57.3383C10.1102 63.4533 6.72947 67.3427 8.14383 75.2888C10.1639 71.1041 11.4418 72.1341 13.8462 77.0641C17.3978 69.2726 18.2001 64.948 16.0091 57.3383Z" fill="#CBC5C5"/>
<path d="M5.39097 89.0969C6.07733 83.1491 6.37413 80.2203 5.78423 77.0641C4.87332 74.8731 3.94835 73.8268 1.45831 72.3299C0.509051 77.4953 0.587288 80.3813 1.45831 85.5462C3.67924 86.2633 4.33717 87.2364 5.39097 89.0969Z" fill="#CBC5C5"/>
<path d="M6.57077 75.2888C5.78423 68.7793 8.53709 65.2287 8.53709 61.2835C8.53709 57.3383 5.78423 54.9712 5.78423 54.9712C4.00667 62.0223 3.75479 65.7562 3.62127 72.3299C4.8007 72.774 5.45178 73.4615 6.57077 75.2888Z" fill="#CBC5C5"/>
<path d="M30.1667 51.8151C28.4741 57.2269 27.0322 59.9237 22.8913 63.6506C22.3243 62.0294 21.9244 61.6046 21.1216 61.2835C22.4869 58.5754 22.7014 57.0644 22.8913 54.3795C27.0311 51.6044 28.1579 51.6782 30.1667 51.8151Z" fill="#CBC5C5"/>
<path d="M19.3519 60.0999C16.7921 55.3277 15.6111 55.1625 13.7519 57.3383C13.8465 53.2658 14.5186 51.5823 16.0091 48.8563C17.3947 48.6541 17.6449 47.8016 17.7788 46.4892C19.906 44.2557 21.0004 43.7567 22.8913 43.333C22.7728 50.4158 22.199 54.1738 19.3519 60.0999Z" fill="#CBC5C5"/>
<path d="M12.0765 44.1221C9.2873 46.5605 8.15871 48.6122 7.3573 54.1822C8.11358 54.8299 8.48757 55.7449 9.12699 57.7328C10.0237 56.7355 10.5418 56.5943 11.4866 56.9438C13.4037 52.038 13.4063 49.2322 12.0765 44.1221Z" fill="#CBC5C5"/>
<path d="M23.4812 52.4069C24.631 44.756 30.1667 38.9934 35.2792 38.9934C37.2455 38.9934 38.3597 37.0208 39.0152 38.0071C39.3667 38.536 36.698 42.9503 32.9196 46.6864C29.6529 49.9165 25.3958 52.5898 23.4812 52.4069Z" fill="#CBC5C5"/>
<path d="M35.6724 26.5661C28.7164 28.2405 25.6816 30.3062 22.8913 37.4153C24.928 39.2253 26.4585 39.9846 24.0711 44.7138C32.2792 38.2421 34.3576 34.1954 35.6724 26.5661Z" fill="#CBC5C5"/>
<path d="M21.7115 29.1305C16.9153 33.587 15.025 36.5575 12.863 42.544C12.8606 43.5088 12.9211 43.9981 13.4529 44.5166C14.3423 43.9986 15.0771 43.8603 17.1889 44.1221C21.2649 38.0764 21.9945 34.8154 21.7115 29.1305Z" fill="#CBC5C5"/>
<path d="M48.4535 17.295C39.5674 17.7883 35.675 19.7904 30.7566 26.5661C36.4254 24.4314 37.7722 24.8229 36.8522 29.1305C43.4518 25.259 45.606 22.5242 48.4535 17.295Z" fill="#CBC5C5"/>
<path d="M38.8185 14.1389C38.4253 17.6895 29.3802 24.5935 22.6947 34.2592C25.0542 27.3551 25.8553 26.0202 22.8913 27.9469C28.3876 18.9581 31.927 16.1937 38.8185 14.1389Z" fill="#CBC5C5"/>
<path d="M51.5997 25.9743C50.1973 24.4224 49.2423 23.8281 46.2906 24.199C42.5257 27.5208 40.4899 28.6647 37.0159 30.6165L36.8522 30.7085C36.2353 31.5434 35.954 32.3077 35.6724 33.6674C41.1502 33.6789 44.6641 31.9484 51.5997 25.9743Z" fill="#CBC5C5"/>
<path d="M58.4818 17.295C54.7458 18.8731 49.83 18.2813 49.83 18.2813C49.6962 15.3616 48.0891 15.7372 45.8973 15.5197C53.1503 9.82028 57.4649 8.43689 65.7572 10.3707C61.8246 11.969 64.1842 14.8864 58.4818 17.295Z" fill="#CBC5C5"/>
<path d="M51.7963 23.2127C59.1306 23.14 62.3658 21.9805 67.3303 18.8731C66.4459 16.5173 65.5322 15.9991 62.8077 15.7169C60.3153 19.0471 58.0549 20.0676 53.1727 21.0429C52.9825 22.0914 52.7157 22.6556 51.7963 23.2127Z" fill="#CBC5C5"/>
<path d="M62.8077 2.89516C62.2068 5.76179 61.4762 7.22155 57.4987 8.8129C54.0019 9.6234 52.8911 9.01722 45.3074 14.9279C44.6725 15.3274 44.3278 15.4586 43.7344 15.5197C43.823 13.868 43.6711 13.0898 43.1445 11.969C49.8725 6.06275 54.3531 4.51149 62.8077 2.89516Z" fill="#CBC5C5"/>
<path d="M81.2912 15.5197C80.7645 14.0209 80.1434 13.3457 78.5384 12.3635C76.631 13.445 74.6601 13.6784 69.6899 13.5471C68.4273 14.2065 67.8816 14.6289 67.3303 15.5197C72.2246 17.598 75.3037 17.591 81.2912 15.5197Z" fill="#CBC5C5"/>
<path d="M81.2912 0.133552C80.3583 1.60732 79.6739 2.43004 77.9485 3.88145C73.7156 3.61194 71.5042 3.90341 67.7236 4.86774C67.9278 3.94535 67.8761 3.42357 67.7236 2.50065C73.8174 0.082413 76.6935 -0.247386 81.2912 0.133552Z" fill="#CBC5C5"/>
<path d="M85.9152 162.871C90.3383 162.674 93.8777 163.858 95.8441 165.238C97.8104 166.619 98.5969 168 99.7767 168C100.957 168 103.709 166.619 103.709 165.436C103.105 164.861 102.229 164.338 101.185 163.858C95.7764 161.374 85.8277 160.051 85.3748 158.729C85.4928 160.007 85.6716 161.36 85.9152 162.871Z" fill="#CBC5C5"/>
<path d="M85.3748 151.228C85.3736 151.242 85.3725 151.255 85.3713 151.269C85.2537 152.937 88.7792 149.038 90.535 145.907C92.3047 142.751 93.2878 144.724 95.4508 145.907C97.6138 147.091 100.17 146.696 99.7767 148.077C99.3835 149.458 94.271 149.852 93.2878 149.852C92.3047 149.852 88.5686 149.852 88.372 151.036C88.1754 152.219 93.6811 153.206 94.6643 153.206C95.6474 153.206 98.5969 151.825 100.563 150.247C102.53 148.669 102.923 145.513 102.923 143.343C102.923 141.173 102.923 141.173 100.17 141.173C97.6138 141.173 95.2542 138.411 92.108 138.411C90.3383 140.581 86.799 143.935 85.3748 151.228Z" fill="#CBC5C5"/>
<path d="M104.693 143.343C104.693 140.778 103.513 141.962 103.513 140.778C103.644 140.252 104.299 139.003 105.872 138.214C107.839 137.228 110.985 135.847 110.198 139.792C109.569 142.948 109.018 144.395 108.822 144.724C106.775 145.773 105.616 146.515 103.513 148.274C103.316 145.907 104.693 144.447 104.693 143.343Z" fill="#CBC5C5"/>
<path d="M104.693 148.471C107.445 145.907 113.738 143.343 118.85 143.343C118.85 144.329 119.243 145.513 117.867 146.499C116.491 147.485 114.721 146.302 112.558 147.288C110.827 148.077 109.346 150.115 108.822 151.036C107.945 149.599 107.013 149.046 104.693 148.471Z" fill="#CBC5C5"/>
<path d="M114.721 153.206C113.305 152.732 112.951 149.852 112.951 148.471C115.704 146.499 116.687 150.247 124.552 145.513C125.246 146.941 125.214 147.809 124.946 151.228C123.687 152.43 122.869 153.014 121.013 153.797C120.267 149.23 119.067 147.912 114.721 149.063C115.94 150.705 115.974 151.564 114.721 153.206Z" fill="#CBC5C5"/>
<path d="M102.136 162.082C102.136 161.096 104.299 158.729 105.086 158.729C105.872 158.729 108.035 162.871 111.378 162.871C113.742 162.871 117.482 161.885 119.47 159.912C119.925 157.465 119.95 155.77 119.71 154.587C119.312 152.624 118.185 152.071 117.08 151.825C117.08 153.403 114.328 155.178 112.558 155.178C110.002 155.178 106.462 149.852 105.479 149.852C104.496 149.852 101.546 152.022 100.957 155.178C96.2373 155.376 89.7484 153.206 85.2344 153.403C85.2015 154.203 85.1921 154.985 85.207 155.77C90.1417 156.165 99.1868 162.674 102.136 162.082Z" fill="#CBC5C5"/>
<path d="M113.344 142.751C113.659 141.489 113.279 140.515 112.951 140.187C116.292 132.94 119.317 130.03 125.142 125.392C125.976 132.222 124.795 135.552 117.474 142.554L113.344 142.751Z" fill="#CBC5C5"/>
<path d="M131.631 143.343C131.631 143.996 131.103 144.526 130.451 144.526C129.8 144.526 129.272 143.996 129.272 143.343C129.272 142.689 129.8 142.159 130.451 142.159C131.103 142.159 131.631 142.689 131.631 143.343Z" fill="#CBC5C5"/>
<path d="M128.878 129.337C128.878 129.991 128.35 130.521 127.699 130.521C127.047 130.521 126.519 129.991 126.519 129.337C126.519 128.684 127.047 128.154 127.699 128.154C128.35 128.154 128.878 128.684 128.878 129.337Z" fill="#CBC5C5"/>
<path d="M142.446 112.965C142.446 113.619 141.918 114.149 141.266 114.149C140.615 114.149 140.086 113.619 140.086 112.965C140.086 112.311 140.615 111.782 141.266 111.782C141.918 111.782 142.446 112.311 142.446 112.965Z" fill="#CBC5C5"/>
<path d="M158.767 102.905C158.767 103.559 158.238 104.088 157.587 104.088C156.935 104.088 156.407 103.559 156.407 102.905C156.407 102.251 156.935 101.721 157.587 101.721C158.238 101.721 158.767 102.251 158.767 102.905Z" fill="#CBC5C5"/>
<path d="M149.132 97.7762C149.132 98.4299 148.603 98.9598 147.952 98.9598C147.3 98.9598 146.772 98.4299 146.772 97.7762C146.772 97.1225 147.3 96.5927 147.952 96.5927C148.603 96.5927 149.132 97.1225 149.132 97.7762Z" fill="#CBC5C5"/>
<path d="M150.705 82.9819C150.705 83.6355 150.176 84.1654 149.525 84.1654C148.873 84.1654 148.345 83.6355 148.345 82.9819C148.345 82.3282 148.873 81.7983 149.525 81.7983C150.176 81.7983 150.705 82.3282 150.705 82.9819Z" fill="#CBC5C5"/>
<path d="M154.834 60.0999C154.834 60.7536 154.306 61.2835 153.654 61.2835C153.003 61.2835 152.474 60.7536 152.474 60.0999C152.474 59.4463 153.003 58.9164 153.654 58.9164C154.306 58.9164 154.834 59.4463 154.834 60.0999Z" fill="#CBC5C5"/>
<path d="M145.789 64.0451C145.789 64.6988 145.261 65.2287 144.609 65.2287C143.957 65.2287 143.429 64.6988 143.429 64.0451C143.429 63.3914 143.957 62.8616 144.609 62.8616C145.261 62.8616 145.789 63.3914 145.789 64.0451Z" fill="#CBC5C5"/>
<path d="M150.901 46.4892C150.901 47.1428 150.373 47.6727 149.721 47.6727C149.07 47.6727 148.542 47.1428 148.542 46.4892C148.542 45.8355 149.07 45.3056 149.721 45.3056C150.373 45.3056 150.901 45.8355 150.901 46.4892Z" fill="#CBC5C5"/>
<path d="M142.839 40.9659C142.839 41.6196 142.311 42.1495 141.66 42.1495C141.008 42.1495 140.48 41.6196 140.48 40.9659C140.48 40.3123 141.008 39.7824 141.66 39.7824C142.311 39.7824 142.839 40.3123 142.839 40.9659Z" fill="#CBC5C5"/>
<path d="M129.272 36.8235C129.272 37.4772 128.743 38.0071 128.092 38.0071C127.44 38.0071 126.912 37.4772 126.912 36.8235C126.912 36.1699 127.44 35.64 128.092 35.64C128.743 35.64 129.272 36.1699 129.272 36.8235Z" fill="#CBC5C5"/>
<path d="M115.311 21.2401C115.311 21.8938 114.782 22.4237 114.131 22.4237C113.479 22.4237 112.951 21.8938 112.951 21.2401C112.951 20.5865 113.479 20.0566 114.131 20.0566C114.782 20.0566 115.311 20.5865 115.311 21.2401Z" fill="#CBC5C5"/>
<path d="M124.552 14.3361C124.552 14.9898 124.024 15.5197 123.373 15.5197C122.721 15.5197 122.193 14.9898 122.193 14.3361C122.193 13.6825 122.721 13.1526 123.373 13.1526C124.024 13.1526 124.552 13.6825 124.552 14.3361Z" fill="#CBC5C5"/>
<path d="M99.5801 13.1526C99.5801 13.8062 99.0519 14.3361 98.4003 14.3361C97.7487 14.3361 97.2205 13.8062 97.2205 13.1526C97.2205 12.4989 97.7487 11.969 98.4003 11.969C99.0519 11.969 99.5801 12.4989 99.5801 13.1526Z" fill="#CBC5C5"/>
<path d="M100.367 3.68419C100.367 4.33785 99.8384 4.86774 99.1868 4.86774C98.5352 4.86774 98.007 4.33785 98.007 3.68419C98.007 3.03054 98.5352 2.50065 99.1868 2.50065C99.8384 2.50065 100.367 3.03054 100.367 3.68419Z" fill="#CBC5C5"/>
<path d="M120.03 142.159C120.292 142.883 120.659 144.566 120.03 145.513C126.719 144.273 137.656 134.609 136.94 127.365C130.836 129.111 127.197 132.207 120.03 142.159Z" fill="#CBC5C5"/>
<path d="M127.699 125.984C128.092 120.264 136.154 109.809 137.727 110.598C139.3 111.387 138.513 125.59 132.024 128.351C131.553 127.247 128.944 126.313 127.699 125.984Z" fill="#CBC5C5"/>
<path d="M132.221 140.384C135.367 137.031 141.07 133.677 146.379 134.466C145.002 139.792 136.744 142.948 133.401 144.526C133.794 143.343 133.204 140.976 132.221 140.384Z" fill="#CBC5C5"/>
<path d="M126.519 149.852C127.109 148.077 126.126 146.302 126.715 146.104C127.187 145.947 130.058 145.776 131.435 145.71C130.097 147.434 129.054 148.353 126.519 149.852Z" fill="#CBC5C5"/>
<path d="M136.94 125.984C137.727 121.842 144.019 111.584 146.772 112.571C149.525 113.557 145.789 128.746 138.12 132.494C140.086 128.351 138.956 125.984 136.94 125.984Z" fill="#CBC5C5"/>
<path d="M139.103 110.203C139.497 104.483 138.513 101.919 140.48 97.7762C142.446 93.6338 143.036 94.0283 143.822 94.2256C144.609 94.4228 146.575 100.341 145.789 104.68C145.16 108.152 144.216 111.387 143.822 112.571C143.495 111.847 142.603 110.282 141.66 109.809C140.716 109.336 139.562 109.875 139.103 110.203Z" fill="#CBC5C5"/>
<path d="M145.789 111.782C145.965 102.905 151.884 94.8371 153.654 95.0146C157.587 95.4091 154.441 113.754 149.132 116.121C149.132 111.782 147.952 110.203 145.789 111.782Z" fill="#CBC5C5"/>
<path d="M140.086 133.085C145.985 129.337 144.806 126.576 148.345 123.222C151.177 120.54 154.899 119.475 156.407 119.277C153.402 127.891 150.113 131.19 140.086 133.085Z" fill="#CBC5C5"/>
<path d="M149.918 119.869C151.098 114.442 159.16 102.905 161.519 104.088C161.519 106.653 157.298 113.754 156.407 117.699C153.418 118.015 150.836 119.277 149.918 119.869Z" fill="#CBC5C5"/>
<path d="M142.053 80.2203C145.789 81.7983 150.705 87.5188 149.525 95.8036C148.266 94.2256 146.903 94.6201 146.379 95.0146C145.736 93.2603 145.221 92.6724 143.822 92.8448C141.559 87.8957 141.426 85.1346 142.053 80.2203Z" fill="#CBC5C5"/>
<path d="M154.441 73.7107C156.997 76.2751 159.53 87.1285 156.407 96.5927C154.263 93.3904 153.227 93.9851 151.295 93.831C150.778 90.8812 150.656 87.8919 150.799 85.1517C151.095 84.8229 151.727 83.9287 151.884 82.9819C152.042 82.035 151.519 81.2723 151.237 81.0093C151.927 76.7859 153.231 73.8226 154.441 73.7107Z" fill="#CBC5C5"/>
<path d="M162.503 87.1243C162.503 92.8448 161.581 95.8816 161.519 102.313C160.93 103.694 158.767 103.497 159.16 99.5515C158.879 100.492 157.075 101.396 157.39 96.7899C157.705 92.1842 162.503 87.1243 162.503 87.1243Z" fill="#CBC5C5"/>
<path d="M139.89 65.8204C140.064 73.0156 141.731 75.8925 145.789 80.2203C146.744 78.3103 148.542 81.0093 150.311 79.234C146.379 72.1327 147.952 69.9628 144.609 67.793C142.737 66.3731 141.713 66.1477 139.89 65.8204Z" fill="#CBC5C5"/>
<path d="M148.542 57.3383C154.441 63.4533 157.821 67.3427 156.407 75.2888C154.387 71.1041 153.109 72.1341 150.705 77.0641C147.153 69.2726 146.351 64.948 148.542 57.3383Z" fill="#CBC5C5"/>
<path d="M159.16 89.0969C158.473 83.1491 158.177 80.2203 158.767 77.0641C159.677 74.8731 160.602 73.8268 163.092 72.3299C164.042 77.4953 163.963 80.3813 163.092 85.5462C160.872 86.2633 160.214 87.2364 159.16 89.0969Z" fill="#CBC5C5"/>
<path d="M157.98 75.2888C158.767 68.7793 156.014 65.2287 156.014 61.2835C156.014 57.3383 158.767 54.9712 158.767 54.9712C160.544 62.0223 160.796 65.7562 160.93 72.3299C159.75 72.774 159.099 73.4615 157.98 75.2888Z" fill="#CBC5C5"/>
<path d="M134.384 51.8151C136.077 57.2269 137.519 59.9237 141.66 63.6506C142.226 62.0294 142.626 61.6046 143.429 61.2835C142.064 58.5754 141.849 57.0644 141.66 54.3795C137.52 51.6044 136.393 51.6782 134.384 51.8151Z" fill="#CBC5C5"/>
<path d="M145.199 60.0999C147.759 55.3277 148.94 55.1625 150.799 57.3383C150.704 53.2658 150.032 51.5823 148.542 48.8563C147.156 48.6541 146.906 47.8016 146.772 46.4892C144.645 44.2557 143.55 43.7567 141.66 43.333C141.778 50.4158 142.352 54.1738 145.199 60.0999Z" fill="#CBC5C5"/>
<path d="M152.474 44.1221C155.263 46.5605 156.392 48.6122 157.193 54.1822C156.437 54.8299 156.063 55.7449 155.424 57.7328C154.527 56.7355 154.009 56.5943 153.064 56.9438C151.147 52.038 151.144 49.2322 152.474 44.1221Z" fill="#CBC5C5"/>
<path d="M141.07 52.4069C139.92 44.756 134.384 38.9934 129.272 38.9934C127.305 38.9934 126.191 37.0208 125.536 38.0071C125.184 38.536 127.853 42.9503 131.631 46.6864C134.898 49.9165 139.155 52.5898 141.07 52.4069Z" fill="#CBC5C5"/>
<path d="M128.878 26.5661C135.834 28.2405 138.869 30.3062 141.66 37.4153C139.623 39.2253 138.092 39.9846 140.48 44.7138C132.272 38.2421 130.193 34.1954 128.878 26.5661Z" fill="#CBC5C5"/>
<path d="M142.839 29.1305C147.635 33.587 149.526 36.5575 151.688 42.544C151.69 43.5088 151.63 43.9981 151.098 44.5166C150.209 43.9986 149.474 43.8603 147.362 44.1221C143.286 38.0764 142.556 34.8154 142.839 29.1305Z" fill="#CBC5C5"/>
<path d="M116.097 17.295C124.983 17.7883 128.876 19.7904 133.794 26.5661C128.125 24.4314 126.779 24.8229 127.699 29.1305C121.099 25.259 118.945 22.5242 116.097 17.295Z" fill="#CBC5C5"/>
<path d="M125.732 14.1389C126.126 17.6895 135.171 24.5935 141.856 34.2592C139.497 27.3551 138.695 26.0202 141.66 27.9469C136.163 18.9581 132.624 16.1937 125.732 14.1389Z" fill="#CBC5C5"/>
<path d="M112.951 25.9743C114.354 24.4224 115.309 23.8281 118.26 24.199C122.025 27.5208 124.061 28.6647 127.535 30.6165L127.699 30.7085C128.315 31.5434 128.597 32.3077 128.878 33.6674C123.401 33.6789 119.887 31.9484 112.951 25.9743Z" fill="#CBC5C5"/>
<path d="M106.069 17.295C109.805 18.8731 114.721 18.2813 114.721 18.2813C114.855 15.3616 116.462 15.7372 118.653 15.5197C111.4 9.82028 107.086 8.43689 98.7935 10.3707C102.726 11.969 100.367 14.8864 106.069 17.295Z" fill="#CBC5C5"/>
<path d="M112.754 23.2127C105.42 23.14 102.185 21.9805 97.2205 18.8731C98.1049 16.5173 99.0186 15.9991 101.743 15.7169C104.235 19.0471 106.496 20.0676 111.378 21.0429C111.568 22.0914 111.835 22.6556 112.754 23.2127Z" fill="#CBC5C5"/>
<path d="M101.743 2.89516C102.344 5.76179 103.075 7.22155 107.052 8.8129C110.549 9.6234 111.66 9.01722 119.243 14.9279C119.878 15.3274 120.223 15.4586 120.816 15.5197C120.728 13.868 120.88 13.0898 121.406 11.969C114.678 6.06275 110.198 4.51149 101.743 2.89516Z" fill="#CBC5C5"/>
<path d="M83.2596 15.5197C83.7863 14.0209 84.4074 13.3457 86.0124 12.3635C87.9198 13.445 89.8906 13.6784 94.8609 13.5471C96.1235 14.2065 96.6692 14.6289 97.2205 15.5197C92.3262 17.598 89.2471 17.591 83.2596 15.5197Z" fill="#CBC5C5"/>
<path d="M83.2596 0.133552C84.1925 1.60732 84.8769 2.43004 86.6023 3.88145C90.8352 3.61194 93.0466 3.90341 96.8272 4.86774C96.623 3.94535 96.6747 3.42357 96.8272 2.50065C90.7334 0.082413 87.8573 -0.247386 83.2596 0.133552Z" fill="#CBC5C5"/>
<path d="M78.5384 163.463C78.5384 163.463 80.5057 163.858 82.2754 163.858C84.0451 163.858 86.0124 163.463 86.0124 163.463C85.9789 163.263 85.9465 163.066 85.9152 162.871C85.6716 161.36 85.4928 160.007 85.3748 158.729C85.2806 157.709 85.2253 156.737 85.207 155.77C85.1921 154.985 85.2015 154.203 85.2344 153.403C85.2628 152.711 85.3086 152.004 85.3713 151.269L85.3748 151.228C85.5114 149.64 85.7261 147.915 86.0124 145.907C86.0124 145.907 84.2417 145.513 82.2754 145.513C80.3091 145.513 78.5384 145.907 78.5384 145.907C78.8247 147.915 79.0394 149.64 79.176 151.228L79.1795 151.269C79.2421 152.004 79.288 152.711 79.3164 153.403C79.3492 154.203 79.3587 154.985 79.3438 155.77C79.3255 156.737 79.2701 157.709 79.176 158.729C79.058 160.007 78.8792 161.36 78.6356 162.871C78.6043 163.066 78.5719 163.263 78.5384 163.463Z" fill="#CBC5C5"/>
<path fill-rule="evenodd" clip-rule="evenodd" d="M78.5384 145.907C78.5384 145.907 80.3091 145.513 82.2754 145.513C84.2417 145.513 86.0124 145.907 86.0124 145.907C85.7261 147.915 85.5114 149.64 85.3748 151.228C86.799 143.935 90.3383 140.581 92.108 138.411C95.2542 138.411 97.6138 141.173 100.17 141.173C102.923 141.173 102.923 141.173 102.923 143.343C102.923 145.513 102.53 148.669 100.563 150.247C98.5969 151.825 95.6474 153.206 94.6643 153.206C93.6811 153.206 88.1754 152.219 88.372 151.036C88.5686 149.852 92.3047 149.852 93.2878 149.852C94.271 149.852 99.3835 149.458 99.7767 148.077C100.17 146.696 97.6138 147.091 95.4508 145.907C93.2878 144.724 92.3047 142.751 90.535 145.907C88.7792 149.038 85.2537 152.937 85.3713 151.269C85.3086 152.004 85.2628 152.711 85.2344 153.403C89.7484 153.206 96.2373 155.376 100.957 155.178C101.546 152.022 104.496 149.852 105.479 149.852C106.462 149.852 110.002 155.178 112.558 155.178C114.328 155.178 117.08 153.403 117.08 151.825C118.185 152.071 119.312 152.624 119.71 154.587L121.013 153.797C120.267 149.23 119.067 147.912 114.721 149.063C115.94 150.705 115.974 151.564 114.721 153.206C113.305 152.732 112.951 149.852 112.951 148.471C115.704 146.499 116.687 150.247 124.552 145.513C125.246 146.941 125.214 147.809 124.946 151.228L126.519 149.852C127.109 148.077 126.126 146.302 126.715 146.104C127.187 145.947 130.058 145.776 131.435 145.71L133.401 144.526C133.794 143.343 133.204 140.976 132.221 140.384C135.367 137.031 141.07 133.677 146.379 134.466L140.086 133.085C145.985 129.337 144.806 126.576 148.345 123.222C151.177 120.54 154.899 119.475 156.407 119.277V117.699C153.418 118.015 150.836 119.277 149.918 119.869C151.098 114.442 159.16 102.905 161.519 104.088V102.313C160.93 103.694 158.767 103.497 159.16 99.5515C158.879 100.492 157.075 101.396 157.39 96.7899C157.705 92.1842 162.503 87.1243 162.503 87.1243L163.092 85.5462C160.872 86.2633 160.214 87.2364 159.16 89.0969C158.473 83.1491 158.177 80.2203 158.767 77.0641C159.677 74.8731 160.602 73.8268 163.092 72.3299H160.93C159.75 72.774 159.099 73.4615 157.98 75.2888C158.767 68.7793 156.014 65.2287 156.014 61.2835C156.014 57.3383 158.767 54.9712 158.767 54.9712L157.193 54.1822C156.437 54.8299 156.063 55.7449 155.424 57.7328C154.527 56.7355 154.009 56.5943 153.064 56.9438C151.147 52.038 151.144 49.2322 152.474 44.1221L151.688 42.544C151.69 43.5088 151.63 43.9981 151.098 44.5166C150.209 43.9986 149.474 43.8603 147.362 44.1221C143.286 38.0764 142.556 34.8154 142.839 29.1305L141.66 27.9469C138.695 26.0202 139.497 27.3551 141.856 34.2592C135.171 24.5935 126.126 17.6895 125.732 14.1389L124.552 14.3361C124.552 14.9898 124.024 15.5197 123.373 15.5197C122.721 15.5197 122.193 14.9898 122.193 14.3361L121.406 11.969C120.88 13.0898 120.728 13.868 120.816 15.5197C120.223 15.4586 119.878 15.3274 119.243 14.9279C111.66 9.01722 110.549 9.6234 107.052 8.8129C103.075 7.22155 102.344 5.76179 101.743 2.89516L100.367 3.68419C100.367 4.33785 99.8384 4.86774 99.1868 4.86774C98.5352 4.86774 98.007 4.33785 98.007 3.68419L96.8272 2.50065C96.6747 3.42357 96.623 3.94535 96.8272 4.86774C93.0466 3.90341 90.8352 3.61194 86.6023 3.88145C84.8769 2.43004 84.1925 1.60732 83.2596 0.133552H83.2586H81.2922H81.2912C80.3583 1.60732 79.6739 2.43004 77.9485 3.88145C73.7156 3.61194 71.5042 3.90341 67.7236 4.86774C67.9278 3.94535 67.8761 3.42357 67.7236 2.50065L66.5438 3.68419C66.5438 4.33785 66.0155 4.86774 65.364 4.86774C64.7124 4.86774 64.1842 4.33785 64.1842 3.68419L62.8077 2.89516C62.2068 5.76179 61.4762 7.22155 57.4987 8.8129C54.0019 9.6234 52.8911 9.01722 45.3074 14.9279C44.6725 15.3274 44.3278 15.4586 43.7344 15.5197C43.823 13.868 43.6711 13.0898 43.1445 11.969L42.3579 14.3361C42.3579 14.9898 41.8297 15.5197 41.1781 15.5197C40.5266 15.5197 39.9983 14.9898 39.9983 14.3361L38.8185 14.1389C38.4253 17.6895 29.3802 24.5935 22.6947 34.2592C25.0542 27.3551 25.8553 26.0202 22.8913 27.9469L21.7115 29.1305C21.9945 34.8154 21.2649 38.0764 17.1889 44.1221C15.0771 43.8603 14.3423 43.9986 13.4529 44.5166C12.9211 43.9981 12.8606 43.5088 12.863 42.544L12.0765 44.1221C13.4063 49.2322 13.4037 52.038 11.4866 56.9438C10.5418 56.5943 10.0237 56.7355 9.12699 57.7328C8.48757 55.7449 8.11358 54.8299 7.3573 54.1822L5.78423 54.9712C5.78423 54.9712 8.53709 57.3383 8.53709 61.2835C8.53709 65.2287 5.78423 68.7793 6.57077 75.2888C5.45178 73.4615 4.8007 72.774 3.62127 72.3299H1.45831C3.94835 73.8268 4.87332 74.8731 5.78423 77.0641C6.37413 80.2203 6.07733 83.1491 5.39097 89.0969C4.33717 87.2364 3.67924 86.2633 1.45831 85.5462L2.04821 87.1243C2.04821 87.1243 6.84544 92.1842 7.16066 96.7899C7.47589 101.396 5.67219 100.492 5.39097 99.5515C5.78423 103.497 3.62127 103.694 3.03138 102.313V104.088C5.39097 102.905 13.4529 114.442 14.6327 119.869C13.7151 119.277 11.1326 118.015 8.14383 117.699V119.277C9.65135 119.475 13.3743 120.54 16.2058 123.222C19.7452 126.576 18.5654 129.337 24.4643 133.085L18.1721 134.466C23.4812 133.677 29.1835 137.031 32.3297 140.384C31.3465 140.976 30.7566 143.343 31.1499 144.526L33.1162 145.71C34.4926 145.776 37.3635 145.947 37.8354 146.104C38.4253 146.302 37.4421 148.077 38.032 149.852L39.6051 151.228C39.3372 147.809 39.3052 146.941 39.9983 145.513C47.8636 150.247 48.8468 146.499 51.5997 148.471C51.5997 149.852 51.2457 152.732 49.83 153.206C48.5772 151.564 48.611 150.705 49.83 149.063C45.4836 147.912 44.2837 149.23 43.5377 153.797L44.8406 154.587C45.2386 152.624 46.3662 152.071 47.4704 151.825C47.4704 153.403 50.2232 155.178 51.9929 155.178C54.5492 155.178 58.0886 149.852 59.0717 149.852C60.0549 149.852 63.0044 152.022 63.5943 155.178C68.3135 155.376 74.8023 153.206 79.3164 153.403C79.288 152.711 79.2421 152.004 79.1795 151.269C79.2971 152.937 75.7716 149.038 74.0158 145.907C72.2461 142.751 71.2629 144.724 69.1 145.907C66.937 147.091 64.3808 146.696 64.7741 148.077C65.1673 149.458 70.2798 149.852 71.2629 149.852C72.2461 149.852 75.9821 149.852 76.1788 151.036C76.3754 152.219 70.8697 153.206 69.8865 153.206C68.9034 153.206 65.9539 151.825 63.9875 150.247C62.0212 148.669 61.6279 145.513 61.6279 143.343C61.6279 141.173 61.6279 141.173 64.3808 141.173C66.937 141.173 69.2966 138.411 72.4427 138.411C74.2124 140.581 77.7518 143.935 79.176 151.228C79.0394 149.64 78.8247 147.915 78.5384 145.907ZM61.038 140.778C61.038 141.962 59.8582 140.778 59.8582 143.343C59.8582 144.447 61.2347 145.907 61.038 148.274C58.9345 146.515 57.7761 145.773 55.729 144.724C55.5323 144.395 54.9818 142.948 54.3525 139.792C53.566 135.847 56.7121 137.228 58.6785 138.214C60.2515 139.003 60.907 140.252 61.038 140.778ZM45.7007 143.343C50.8131 143.343 57.1054 145.907 59.8582 148.471C57.538 149.046 56.6059 149.599 55.729 151.036C55.2046 150.115 53.7233 148.077 51.9929 147.288C49.83 146.302 48.0603 147.485 46.6839 146.499C45.3074 145.513 45.7007 144.329 45.7007 143.343ZM51.5997 140.187C51.2719 140.515 50.8918 141.489 51.2064 142.751L47.0771 142.554C39.7559 135.552 38.5745 132.222 39.4084 125.392C45.2335 130.03 48.259 132.94 51.5997 140.187ZM44.5209 145.513C43.8917 144.566 44.2587 142.883 44.5209 142.159C37.354 132.207 33.7149 129.111 27.6105 127.365C26.895 134.609 37.8317 144.273 44.5209 145.513ZM34.0994 144.526C33.4478 144.526 32.9196 143.996 32.9196 143.343C32.9196 142.689 33.4478 142.159 34.0994 142.159C34.7509 142.159 35.2792 142.689 35.2792 143.343C35.2792 143.996 34.7509 144.526 34.0994 144.526ZM36.8522 130.521C36.2006 130.521 35.6724 129.991 35.6724 129.337C35.6724 128.684 36.2006 128.154 36.8522 128.154C37.5038 128.154 38.032 128.684 38.032 129.337C38.032 129.991 37.5038 130.521 36.8522 130.521ZM23.2845 114.149C22.633 114.149 22.1048 113.619 22.1048 112.965C22.1048 112.311 22.633 111.782 23.2845 111.782C23.9361 111.782 24.4643 112.311 24.4643 112.965C24.4643 113.619 23.9361 114.149 23.2845 114.149ZM6.96403 104.088C6.31245 104.088 5.78423 103.559 5.78423 102.905C5.78423 102.251 6.31245 101.721 6.96403 101.721C7.61561 101.721 8.14383 102.251 8.14383 102.905C8.14383 103.559 7.61561 104.088 6.96403 104.088ZM16.599 98.9598C15.9475 98.9598 15.4192 98.4299 15.4192 97.7762C15.4192 97.1225 15.9475 96.5927 16.599 96.5927C17.2506 96.5927 17.7788 97.1225 17.7788 97.7762C17.7788 98.4299 17.2506 98.9598 16.599 98.9598ZM15.026 84.1654C14.3744 84.1654 13.8462 83.6355 13.8462 82.9819C13.8462 82.3282 14.3744 81.7983 15.026 81.7983C15.6776 81.7983 16.2058 82.3282 16.2058 82.9819C16.2058 83.6355 15.6776 84.1654 15.026 84.1654ZM10.8967 61.2835C10.2451 61.2835 9.71689 60.7536 9.71689 60.0999C9.71689 59.4463 10.2451 58.9164 10.8967 58.9164C11.5483 58.9164 12.0765 59.4463 12.0765 60.0999C12.0765 60.7536 11.5483 61.2835 10.8967 61.2835ZM19.9418 65.2287C19.2902 65.2287 18.762 64.6988 18.762 64.0451C18.762 63.3914 19.2902 62.8616 19.9418 62.8616C20.5934 62.8616 21.1216 63.3914 21.1216 64.0451C21.1216 64.6988 20.5934 65.2287 19.9418 65.2287ZM14.8293 47.6727C14.1778 47.6727 13.6495 47.1428 13.6495 46.4892C13.6495 45.8355 14.1778 45.3056 14.8293 45.3056C15.4809 45.3056 16.0091 45.8355 16.0091 46.4892C16.0091 47.1428 15.4809 47.6727 14.8293 47.6727ZM22.8913 42.1495C22.2397 42.1495 21.7115 41.6196 21.7115 40.9659C21.7115 40.3123 22.2397 39.7824 22.8913 39.7824C23.5429 39.7824 24.0711 40.3123 24.0711 40.9659C24.0711 41.6196 23.5429 42.1495 22.8913 42.1495ZM36.4589 38.0071C35.8074 38.0071 35.2792 37.4772 35.2792 36.8235C35.2792 36.1699 35.8074 35.64 36.4589 35.64C37.1105 35.64 37.6387 36.1699 37.6387 36.8235C37.6387 37.4772 37.1105 38.0071 36.4589 38.0071ZM50.4199 22.4237C49.7683 22.4237 49.2401 21.8938 49.2401 21.2401C49.2401 20.5865 49.7683 20.0566 50.4199 20.0566C51.0715 20.0566 51.5997 20.5865 51.5997 21.2401C51.5997 21.8938 51.0715 22.4237 50.4199 22.4237ZM66.1505 14.3361C65.4989 14.3361 64.9707 13.8062 64.9707 13.1526C64.9707 12.4989 65.4989 11.969 66.1505 11.969C66.8021 11.969 67.3303 12.4989 67.3303 13.1526C67.3303 13.8062 66.8021 14.3361 66.1505 14.3361ZM26.8239 110.598C28.397 109.809 36.4589 120.264 36.8522 125.984C35.6069 126.313 32.9982 127.247 32.5263 128.351C26.0374 125.59 25.2509 111.387 26.8239 110.598ZM17.7788 112.571C20.5317 111.584 26.8239 121.842 27.6105 125.984C25.5948 125.984 24.4643 128.351 26.4307 132.494C18.762 128.746 15.026 113.557 17.7788 112.571ZM24.0711 97.7762C26.0374 101.919 25.0542 104.483 25.4475 110.203C24.9887 109.875 23.8351 109.336 22.8913 109.809C21.9474 110.282 21.056 111.847 20.7283 112.571C20.3351 111.387 19.3912 108.152 18.762 104.68C17.9755 100.341 19.9418 94.4228 20.7283 94.2256C21.5149 94.0283 22.1048 93.6338 24.0711 97.7762ZM10.8967 95.0146C12.6664 94.8371 18.5856 102.905 18.762 111.782C16.599 110.203 15.4192 111.782 15.4192 116.121C10.1102 113.754 6.96403 95.4091 10.8967 95.0146ZM15.026 95.8036C13.8462 87.5188 18.762 81.7983 22.498 80.2203C23.1251 85.1346 22.9921 87.8957 20.7283 92.8448C19.33 92.6724 18.8146 93.2603 18.1721 95.0146C17.6477 94.6201 16.2844 94.2256 15.026 95.8036ZM8.14383 96.5927C5.02073 87.1285 7.55393 76.2751 10.1102 73.7107C11.3196 73.8226 12.6235 76.7859 13.3135 81.0093C13.0323 81.2723 12.5091 82.035 12.6664 82.9819C12.8237 83.9287 13.4556 84.8229 13.7519 85.1517C13.895 87.8919 13.7727 90.8812 13.2563 93.831C11.3242 93.9851 10.2882 93.3904 8.14383 96.5927ZM18.762 80.2203C22.82 75.8925 24.4868 73.0156 24.661 65.8204C22.8379 66.1477 21.8142 66.3731 19.9418 67.793C16.599 69.9628 18.1721 72.1327 14.2394 79.234C16.0091 81.0093 17.8068 78.3103 18.762 80.2203ZM8.14383 75.2888C6.72947 67.3427 10.1102 63.4533 16.0091 57.3383C18.2001 64.948 17.3978 69.2726 13.8462 77.0641C11.4418 72.1341 10.1639 71.1041 8.14383 75.2888ZM22.8913 63.6506C27.0322 59.9237 28.4741 57.2269 30.1667 51.8151C28.1579 51.6782 27.0311 51.6044 22.8913 54.3795C22.7014 57.0644 22.4869 58.5754 21.1216 61.2835C21.9244 61.6046 22.3243 62.0294 22.8913 63.6506ZM13.7519 57.3383C15.6111 55.1625 16.7921 55.3277 19.3519 60.0999C22.199 54.1738 22.7728 50.4158 22.8913 43.333C21.0004 43.7567 19.906 44.2557 17.7788 46.4892C17.6449 47.8016 17.3947 48.6541 16.0091 48.8563C14.5186 51.5823 13.8465 53.2658 13.7519 57.3383ZM35.2792 38.9934C30.1667 38.9934 24.631 44.756 23.4812 52.4069C25.3958 52.5898 29.6529 49.9165 32.9196 46.6864C36.698 42.9503 39.3667 38.536 39.0152 38.0071C38.3597 37.0208 37.2455 38.9934 35.2792 38.9934ZM22.8913 37.4153C25.6816 30.3062 28.7164 28.2405 35.6724 26.5661C34.3576 34.1954 32.2792 38.2421 24.0711 44.7138C26.4585 39.9846 24.928 39.2253 22.8913 37.4153ZM30.7566 26.5661C35.675 19.7904 39.5674 17.7883 48.4535 17.295C45.606 22.5242 43.4518 25.259 36.8522 29.1305C37.7722 24.8229 36.4254 24.4314 30.7566 26.5661ZM46.2906 24.199C49.2423 23.8281 50.1973 24.4224 51.5997 25.9743C44.6641 31.9484 41.1502 33.6789 35.6724 33.6674C35.954 32.3077 36.2353 31.5434 36.8522 30.7085L37.0159 30.6165C40.4899 28.6647 42.5257 27.5208 46.2906 24.199ZM49.83 18.2813C49.83 18.2813 54.7458 18.8731 58.4818 17.295C64.1842 14.8864 61.8246 11.969 65.7572 10.3707C57.4649 8.43689 53.1503 9.82028 45.8973 15.5197C48.0891 15.7372 49.6962 15.3616 49.83 18.2813ZM67.3303 18.8731C62.3658 21.9805 59.1306 23.14 51.7963 23.2127C52.7157 22.6556 52.9825 22.0914 53.1727 21.0429C58.0549 20.0676 60.3153 19.0471 62.8077 15.7169C65.5322 15.9991 66.4459 16.5173 67.3303 18.8731ZM82.2754 8.90762C79.3476 10.7866 77.6774 11.5745 73.4259 11.5745C70.0206 11.5745 68.6886 10.7657 67.4663 10.0235C66.43 9.39425 65.4726 8.8129 63.3976 8.8129C70.663 4.02894 75.1158 3.65858 82.2754 6.73397C89.435 3.65858 93.8878 4.02894 101.153 8.8129C99.0781 8.8129 98.1208 9.39425 97.0845 10.0235C95.8622 10.7657 94.5302 11.5745 91.1249 11.5745C86.8734 11.5745 85.2032 10.7866 82.2754 8.90762ZM78.5384 12.3635C80.1434 13.3457 80.7645 14.0209 81.2912 15.5197C75.3037 17.591 72.2246 17.598 67.3303 15.5197C67.8816 14.6289 68.4273 14.2065 69.6899 13.5471C74.6601 13.6784 76.631 13.445 78.5384 12.3635ZM103.513 140.778C103.513 141.962 104.693 140.778 104.693 143.343C104.693 144.447 103.316 145.907 103.513 148.274C105.616 146.515 106.775 145.773 108.822 144.724C109.018 144.395 109.569 142.948 110.198 139.792C110.985 135.847 107.839 137.228 105.872 138.214C104.299 139.003 103.644 140.252 103.513 140.778ZM118.85 143.343C113.738 143.343 107.445 145.907 104.693 148.471C107.013 149.046 107.945 149.599 108.822 151.036C109.346 150.115 110.827 148.077 112.558 147.288C114.721 146.302 116.491 147.485 117.867 146.499C119.243 145.513 118.85 144.329 118.85 143.343ZM112.951 140.187C113.279 140.515 113.659 141.489 113.344 142.751L117.474 142.554C124.795 135.552 125.976 132.222 125.142 125.392C119.317 130.03 116.292 132.94 112.951 140.187ZM120.03 145.513C120.659 144.566 120.292 142.883 120.03 142.159C127.197 132.207 130.836 129.111 136.94 127.365C137.656 134.609 126.719 144.273 120.03 145.513ZM130.451 144.526C131.103 144.526 131.631 143.996 131.631 143.343C131.631 142.689 131.103 142.159 130.451 142.159C129.8 142.159 129.272 142.689 129.272 143.343C129.272 143.996 129.8 144.526 130.451 144.526ZM127.699 130.521C128.35 130.521 128.878 129.991 128.878 129.337C128.878 128.684 128.35 128.154 127.699 128.154C127.047 128.154 126.519 128.684 126.519 129.337C126.519 129.991 127.047 130.521 127.699 130.521ZM141.266 114.149C141.918 114.149 142.446 113.619 142.446 112.965C142.446 112.311 141.918 111.782 141.266 111.782C140.615 111.782 140.086 112.311 140.086 112.965C140.086 113.619 140.615 114.149 141.266 114.149ZM157.587 104.088C158.238 104.088 158.767 103.559 158.767 102.905C158.767 102.251 158.238 101.721 157.587 101.721C156.935 101.721 156.407 102.251 156.407 102.905C156.407 103.559 156.935 104.088 157.587 104.088ZM147.952 98.9598C148.603 98.9598 149.132 98.4299 149.132 97.7762C149.132 97.1225 148.603 96.5927 147.952 96.5927C147.3 96.5927 146.772 97.1225 146.772 97.7762C146.772 98.4299 147.3 98.9598 147.952 98.9598ZM149.525 84.1654C150.176 84.1654 150.705 83.6355 150.705 82.9819C150.705 82.3282 150.176 81.7983 149.525 81.7983C148.873 81.7983 148.345 82.3282 148.345 82.9819C148.345 83.6355 148.873 84.1654 149.525 84.1654ZM153.654 61.2835C154.306 61.2835 154.834 60.7536 154.834 60.0999C154.834 59.4463 154.306 58.9164 153.654 58.9164C153.003 58.9164 152.474 59.4463 152.474 60.0999C152.474 60.7536 153.003 61.2835 153.654 61.2835ZM144.609 65.2287C145.261 65.2287 145.789 64.6988 145.789 64.0451C145.789 63.3914 145.261 62.8616 144.609 62.8616C143.957 62.8616 143.429 63.3914 143.429 64.0451C143.429 64.6988 143.957 65.2287 144.609 65.2287ZM149.721 47.6727C150.373 47.6727 150.901 47.1428 150.901 46.4892C150.901 45.8355 150.373 45.3056 149.721 45.3056C149.07 45.3056 148.542 45.8355 148.542 46.4892C148.542 47.1428 149.07 47.6727 149.721 47.6727ZM141.66 42.1495C142.311 42.1495 142.839 41.6196 142.839 40.9659C142.839 40.3123 142.311 39.7824 141.66 39.7824C141.008 39.7824 140.48 40.3123 140.48 40.9659C140.48 41.6196 141.008 42.1495 141.66 42.1495ZM128.092 38.0071C128.743 38.0071 129.272 37.4772 129.272 36.8235C129.272 36.1699 128.743 35.64 128.092 35.64C127.44 35.64 126.912 36.1699 126.912 36.8235C126.912 37.4772 127.44 38.0071 128.092 38.0071ZM114.131 22.4237C114.782 22.4237 115.311 21.8938 115.311 21.2401C115.311 20.5865 114.782 20.0566 114.131 20.0566C113.479 20.0566 112.951 20.5865 112.951 21.2401C112.951 21.8938 113.479 22.4237 114.131 22.4237ZM98.4003 14.3361C99.0519 14.3361 99.5801 13.8062 99.5801 13.1526C99.5801 12.4989 99.0519 11.969 98.4003 11.969C97.7487 11.969 97.2205 12.4989 97.2205 13.1526C97.2205 13.8062 97.7487 14.3361 98.4003 14.3361ZM137.727 110.598C136.154 109.809 128.092 120.264 127.699 125.984C128.944 126.313 131.553 127.247 132.024 128.351C138.513 125.59 139.3 111.387 137.727 110.598ZM146.772 112.571C144.019 111.584 137.727 121.842 136.94 125.984C138.956 125.984 140.086 128.351 138.12 132.494C145.789 128.746 149.525 113.557 146.772 112.571ZM140.48 97.7762C138.513 101.919 139.497 104.483 139.103 110.203C139.562 109.875 140.716 109.336 141.66 109.809C142.603 110.282 143.495 111.847 143.822 112.571C144.216 111.387 145.16 108.152 145.789 104.68C146.575 100.341 144.609 94.4228 143.822 94.2256C143.036 94.0283 142.446 93.6338 140.48 97.7762ZM153.654 95.0146C151.884 94.8371 145.965 102.905 145.789 111.782C147.952 110.203 149.132 111.782 149.132 116.121C154.441 113.754 157.587 95.4091 153.654 95.0146ZM149.525 95.8036C150.705 87.5188 145.789 81.7983 142.053 80.2203C141.426 85.1346 141.559 87.8957 143.822 92.8448C145.221 92.6724 145.736 93.2603 146.379 95.0146C146.903 94.6201 148.266 94.2256 149.525 95.8036ZM156.407 96.5927C159.53 87.1285 156.997 76.2751 154.441 73.7107C153.231 73.8226 151.927 76.7859 151.237 81.0093C151.519 81.2723 152.042 82.035 151.884 82.9819C151.727 83.9287 151.095 84.8229 150.799 85.1517C150.656 87.8919 150.778 90.8812 151.295 93.831C153.227 93.9851 154.263 93.3904 156.407 96.5927ZM145.789 80.2203C141.731 75.8925 140.064 73.0156 139.89 65.8204C141.713 66.1477 142.737 66.3731 144.609 67.793C147.952 69.9628 146.379 72.1327 150.311 79.234C148.542 81.0093 146.744 78.3103 145.789 80.2203ZM156.407 75.2888C157.821 67.3427 154.441 63.4533 148.542 57.3383C146.351 64.948 147.153 69.2726 150.705 77.0641C153.109 72.1341 154.387 71.1041 156.407 75.2888ZM141.66 63.6506C137.519 59.9237 136.077 57.2269 134.384 51.8151C136.393 51.6782 137.52 51.6044 141.66 54.3795C141.849 57.0644 142.064 58.5754 143.429 61.2835C142.626 61.6046 142.226 62.0294 141.66 63.6506ZM150.799 57.3383C148.94 55.1625 147.759 55.3277 145.199 60.0999C142.352 54.1738 141.778 50.4158 141.66 43.333C143.55 43.7567 144.645 44.2557 146.772 46.4892C146.906 47.8016 147.156 48.6541 148.542 48.8563C150.032 51.5823 150.704 53.2658 150.799 57.3383ZM129.272 38.9934C134.384 38.9934 139.92 44.756 141.07 52.4069C139.155 52.5898 134.898 49.9165 131.631 46.6864C127.853 42.9503 125.184 38.536 125.536 38.0071C126.191 37.0208 127.305 38.9934 129.272 38.9934ZM141.66 37.4153C138.869 30.3062 135.834 28.2405 128.878 26.5661C130.193 34.1954 132.272 38.2421 140.48 44.7138C138.092 39.9846 139.623 39.2253 141.66 37.4153ZM133.794 26.5661C128.876 19.7904 124.983 17.7883 116.097 17.295C118.945 22.5242 121.099 25.259 127.699 29.1305C126.779 24.8229 128.125 24.4314 133.794 26.5661ZM118.26 24.199C115.309 23.8281 114.354 24.4224 112.951 25.9743C119.887 31.9484 123.401 33.6789 128.878 33.6674C128.597 32.3077 128.315 31.5434 127.699 30.7085L127.535 30.6165C124.061 28.6647 122.025 27.5208 118.26 24.199ZM114.721 18.2813C114.721 18.2813 109.805 18.8731 106.069 17.295C100.367 14.8864 102.726 11.969 98.7935 10.3707C107.086 8.43689 111.4 9.82028 118.653 15.5197C116.462 15.7372 114.855 15.3616 114.721 18.2813ZM97.2205 18.8731C102.185 21.9805 105.42 23.14 112.754 23.2127C111.835 22.6556 111.568 22.0914 111.378 21.0429C106.496 20.0676 104.235 19.0471 101.743 15.7169C99.0186 15.9991 98.1049 16.5173 97.2205 18.8731ZM86.0124 12.3635C84.4074 13.3457 83.7863 14.0209 83.2596 15.5197C89.2471 17.591 92.3262 17.598 97.2205 15.5197C96.6692 14.6289 96.1235 14.2065 94.8609 13.5471C89.8906 13.6784 87.9198 13.445 86.0124 12.3635Z" fill="#6F6C6C"/>
<path fill-rule="evenodd" clip-rule="evenodd" d="M82.2754 6.73397C89.435 3.65858 93.8878 4.02894 101.153 8.8129C99.0781 8.8129 98.1208 9.39425 97.0845 10.0235C95.8622 10.7657 94.5302 11.5745 91.1249 11.5745C86.8734 11.5745 85.2032 10.7866 82.2754 8.90762C82.6339 8.67758 83.0112 8.43118 83.4144 8.16787C83.6781 7.99565 83.9529 7.8162 84.2407 7.62935C83.5619 7.30443 82.9081 7.00574 82.2754 6.73397ZM82.2754 6.73397C81.6427 7.00574 80.9889 7.30443 80.3101 7.62935C80.5979 7.8162 80.8727 7.99565 81.1364 8.16787C81.5396 8.43118 81.9169 8.67758 82.2754 8.90762C79.3476 10.7866 77.6774 11.5745 73.4259 11.5745C70.0206 11.5745 68.6886 10.7657 67.4663 10.0235C66.43 9.39425 65.4726 8.8129 63.3976 8.8129C70.663 4.02894 75.1158 3.65858 82.2754 6.73397Z" fill="#CBC5C5"/>
<path d="M82.2754 6.73397C81.6427 7.00574 80.9889 7.30443 80.3101 7.62935C80.5979 7.8162 80.8727 7.99565 81.1364 8.16787C81.5396 8.43118 81.9169 8.67758 82.2754 8.90762C82.6339 8.67758 83.0112 8.43118 83.4144 8.16787C83.6781 7.99565 83.9529 7.8162 84.2407 7.62935C83.5619 7.30443 82.9081 7.00574 82.2754 6.73397Z" fill="#6F6C6C"/>
<path d="M85.207 155.77C85.2253 156.737 85.2806 157.709 85.3748 158.729C85.8277 160.051 95.7764 161.374 101.185 163.858L102.136 162.082C99.1868 162.674 90.1417 156.165 85.207 155.77Z" fill="#6F6C6C"/>
<path d="M79.176 158.729C79.2701 157.709 79.3255 156.737 79.3438 155.77C74.4091 156.165 65.364 162.674 62.4145 162.082L63.3659 163.858C68.7744 161.374 78.7231 160.051 79.176 158.729Z" fill="#6F6C6C"/>
<path fill-rule="evenodd" clip-rule="evenodd" d="M82.1339 60.4214V54.4207H83.5344V60.4214C85.7457 60.7301 87.4955 62.4799 87.8042 64.6912H99.4069V66.0917H87.8042C87.4955 68.3031 85.7457 70.0528 83.5344 70.3615V74.3782H82.1339V70.3615C79.9226 70.0528 78.1729 68.3031 77.8641 66.0917H66.3782V64.6912H77.8641C78.1729 62.4799 79.9226 60.7301 82.1339 60.4214ZM79.2839 66.0917C79.61 67.7548 81.0756 69.0095 82.8342 69.0095C84.5927 69.0095 86.0583 67.7548 86.3844 66.0917H79.2839ZM86.3844 64.6912H79.2839C79.61 63.0282 81.0756 61.7735 82.8342 61.7735C84.5927 61.7735 86.0583 63.0282 86.3844 64.6912ZM66.845 66.9231L77.5276 89.2003H56.1624L66.845 66.9231ZM98.94 66.9231L109.623 89.2003H88.2575L98.94 66.9231ZM58.3872 87.7998H75.3028L66.845 70.1622L58.3872 87.7998ZM90.4823 87.7998H107.398L98.94 70.1622L90.4823 87.7998Z" fill="#CBC5C5"/>
<path d="M88.6696 90.3674C90.4823 99.9376 107.398 99.3541 108.86 90.3674H88.6696Z" fill="#CBC5C5"/>
<path d="M56.808 90.3674C58.6207 99.9376 75.5362 99.3541 76.9987 90.3674H56.808Z" fill="#CBC5C5"/>
<path fill-rule="evenodd" clip-rule="evenodd" d="M80.3833 74.7283H81.3169V76.1288H84.2347V74.7283H85.1683V97.7202H84.2347V77.0625H83.301V97.7202H82.3673V77.0625H81.3169V97.7202H80.3833V74.7283Z" fill="#CBC5C5"/>
<path d="M85.1683 97.7202H84.2347H83.301H82.3673H81.3169H80.3833C79.683 97.7202 79.0995 98.3037 79.0995 99.1207H75.3028V101.338H91.2372V99.1207H86.5688C86.5688 98.3037 85.8686 97.7202 85.1683 97.7202Z" fill="#CBC5C5"/>
<path d="M82.8895 113.432C84.0024 113.432 84.9046 112.53 84.9046 111.417C84.9046 110.304 84.0037 109.401 82.8908 109.401C81.7779 109.401 80.8757 110.304 80.8757 111.417C80.8757 112.53 81.7766 113.432 82.8895 113.432Z" fill="#CBC5C5"/>
<path d="M85.2133 132.959L82.8901 123.287L80.567 132.959C80.0957 134.625 78.0391 134.192 78.5667 132.365L80.891 123.285V118.312C80.891 117.052 79.9607 116.909 79.3775 117.987L77.3776 121.933C76.958 122.665 76.7613 122.942 76.2603 122.855L76.8626 119.038L78.5667 115.771C78.844 115.201 79.1396 114.961 79.8099 114.961H85.9704C86.6407 114.961 86.9363 115.201 87.2135 115.771L88.9177 119.038L89.52 122.855C89.019 122.942 88.8223 122.665 88.4027 121.933L86.4028 117.987C85.8196 116.909 84.8893 117.052 84.8893 118.312V123.285L87.2135 132.365C87.7411 134.192 85.6846 134.625 85.2133 132.959Z" fill="#CBC5C5"/>
<path d="M92.9111 111.844C93.9696 111.5 94.5488 110.363 94.2049 109.305C93.861 108.246 92.7254 107.667 91.667 108.01C90.6085 108.354 90.0293 109.491 90.3732 110.55C90.7171 111.608 91.8527 112.188 92.9111 111.844Z" fill="#CBC5C5"/>
<path d="M101.156 129.698L95.9573 121.217L96.7367 131.134C96.8031 132.863 94.7134 133.087 94.6507 131.186L94.0551 121.832L92.5184 117.103C92.129 115.904 91.2003 116.056 90.9788 117.262L90.2961 121.632C90.1232 122.458 90.0216 122.782 89.5183 122.855L88.9117 119.038L89.5229 115.405C89.6105 114.777 89.8172 114.457 90.4547 114.249L96.3136 112.346C96.9511 112.139 97.3067 112.276 97.7465 112.733L100.377 115.313L102.129 118.757C101.679 118.994 101.407 118.792 100.782 118.226L97.6602 115.091C96.7724 114.246 95.9317 114.669 96.3211 115.867L97.8578 120.596L102.874 128.514C103.941 130.089 102.118 131.136 101.156 129.698Z" fill="#CBC5C5"/>
<path d="M101.952 107.237C102.852 106.583 103.052 105.323 102.398 104.422C101.744 103.522 100.484 103.321 99.584 103.976C98.6836 104.63 98.4841 105.89 99.1382 106.79C99.7924 107.691 101.051 107.891 101.952 107.237Z" fill="#CBC5C5"/>
<path d="M115.31 121.669L107.745 115.21L111.551 124.4C112.149 126.025 110.23 126.883 109.583 125.095L106.126 116.383L103.203 112.36C102.463 111.34 101.627 111.772 101.788 112.987L102.49 117.355C102.58 118.193 102.584 118.533 102.128 118.757L100.371 115.315L99.8298 111.671C99.7192 111.047 99.8167 110.678 100.359 110.284L105.343 106.663C105.885 106.269 106.266 106.29 106.825 106.588L110.124 108.229L112.855 110.963C112.501 111.328 112.179 111.22 111.409 110.874L107.472 108.857C106.366 108.328 105.698 108.99 106.438 110.009L109.361 114.033L116.579 120.013C118.079 121.181 116.67 122.74 115.31 121.669Z" fill="#CBC5C5"/>
<path d="M109.126 100.062C109.781 99.1614 109.581 97.9012 108.681 97.247C107.78 96.5928 106.521 96.7914 105.867 97.6917C105.212 98.5921 105.412 99.8523 106.312 100.506C107.213 101.161 108.472 100.962 109.126 100.062Z" fill="#CBC5C5"/>
<path d="M126.29 109.66L117.1 105.854L123.559 113.419C124.63 114.779 123.071 116.188 121.903 114.688L115.923 107.47L111.9 104.547C110.88 103.806 110.218 104.475 110.748 105.581L112.764 109.518C113.11 110.288 113.218 110.609 112.853 110.964L110.12 108.233L108.478 104.934C108.18 104.375 108.159 103.994 108.553 103.452L112.174 98.4678C112.568 97.9255 112.937 97.828 113.561 97.9386L117.205 98.4802L120.647 100.236C120.423 100.693 120.083 100.689 119.245 100.598L114.877 99.8971C113.662 99.7353 113.23 100.572 114.25 101.312L118.273 104.235L126.985 107.692C128.773 108.339 127.915 110.257 126.29 109.66Z" fill="#CBC5C5"/>
<path d="M113.732 91.0207C114.076 89.9622 113.497 88.8253 112.439 88.4814C111.38 88.1375 110.244 88.7155 109.9 89.774C109.556 90.8324 110.135 91.9693 111.194 92.3132C112.252 92.6571 113.389 92.0791 113.732 91.0207Z" fill="#CBC5C5"/>
<path d="M133.022 94.845L123.106 94.0656L131.587 99.2639C133.025 100.227 131.978 102.049 130.403 100.983L122.485 95.9661L117.756 94.4294C116.558 94.04 116.135 94.8807 116.98 95.7685L120.114 98.8899C120.681 99.5151 120.883 99.7878 120.646 100.237L117.202 98.485L114.622 95.8548C114.165 95.415 114.028 95.0594 114.235 94.4219L116.138 88.563C116.346 87.9255 116.666 87.7188 117.294 87.6312L120.927 87.02L124.743 87.6266C124.671 88.1299 124.347 88.2314 123.521 88.4044L119.151 89.087C117.945 89.3086 117.793 90.2373 118.992 90.6266L123.721 92.1634L133.075 92.7589C134.976 92.8217 134.752 94.9114 133.022 94.845Z" fill="#CBC5C5"/>
<path d="M115.32 80.9986C115.32 79.8856 114.417 78.9834 113.304 78.9834C112.192 78.9834 111.289 79.8843 111.289 80.9973C111.289 82.1102 112.192 83.0124 113.304 83.0124C114.417 83.0124 115.32 82.1115 115.32 80.9986Z" fill="#CBC5C5"/>
<path d="M134.847 78.6748L125.175 80.9979L134.847 83.3211C136.513 83.7924 136.08 85.849 134.253 85.3214L125.172 82.9971H120.199C118.939 82.9971 118.797 83.9274 119.875 84.5106L123.821 86.5105C124.553 86.9301 124.83 87.1268 124.743 87.6278L120.926 87.0255L117.659 85.3214C117.089 85.0441 116.848 84.7485 116.848 84.0782V77.9177C116.848 77.2474 117.089 76.9518 117.659 76.6745L120.926 74.9704L124.743 74.368C124.83 74.869 124.553 75.0657 123.821 75.4853L119.875 77.4853C118.797 78.0685 118.939 78.9987 120.199 78.9987H125.172L134.253 76.6745C136.08 76.1469 136.513 78.2034 134.847 78.6748Z" fill="#CBC5C5"/>
<path d="M113.732 70.9765C113.388 69.918 112.251 69.3388 111.192 69.6827C110.134 70.0266 109.554 71.1622 109.898 72.2207C110.242 73.2791 111.379 73.8584 112.438 73.5145C113.496 73.1705 114.076 72.0349 113.732 70.9765Z" fill="#CBC5C5"/>
<path d="M131.585 62.732L123.105 67.9303L133.021 67.1509C134.751 67.0845 134.975 69.1742 133.074 69.237L123.72 69.8325L118.99 71.3692C117.792 71.7586 117.944 72.6873 119.15 72.9089L123.52 73.5915C124.346 73.7645 124.67 73.866 124.742 74.3693L120.926 74.9759L117.293 74.3647C116.665 74.2771 116.344 74.0704 116.137 73.4329L114.234 67.574C114.026 66.9364 114.164 66.5809 114.621 66.1411L117.201 63.5109L120.645 61.7585C120.882 62.2082 120.68 62.4808 120.113 63.106L116.979 66.2274C116.134 67.1152 116.556 67.9559 117.755 67.5665L122.484 66.0298L130.402 61.0133C131.977 59.947 133.024 61.7691 131.585 62.732Z" fill="#CBC5C5"/>
<path d="M109.125 61.9357C108.471 61.0353 107.211 60.8357 106.31 61.4899C105.41 62.144 105.209 63.4032 105.864 64.3036C106.518 65.2039 107.778 65.4035 108.678 64.7494C109.579 64.0952 109.779 62.8361 109.125 61.9357Z" fill="#CBC5C5"/>
<path d="M123.557 48.5775L117.098 56.1422L126.288 52.3365C127.913 51.7389 128.771 53.6571 126.983 54.3041L118.271 57.7612L114.248 60.6842C113.228 61.4248 113.66 62.261 114.875 62.0993L119.242 61.3979C120.081 61.3072 120.421 61.3037 120.645 61.76L117.203 63.5162L113.558 64.0577C112.934 64.1684 112.566 64.0708 112.172 63.5285L108.551 58.5446C108.157 58.0023 108.178 57.6215 108.476 57.0623L110.117 53.7634L112.851 51.0326C113.216 51.3869 113.107 51.7087 112.762 52.4784L110.745 56.4157C110.216 57.5211 110.878 58.19 111.897 57.4494L115.92 54.5264L121.901 47.3087C123.068 45.808 124.628 47.2173 123.557 48.5775Z" fill="#CBC5C5"/>
<path d="M101.949 54.7611C101.049 54.107 99.7887 54.3065 99.1346 55.2069C98.4804 56.1073 98.679 57.3667 99.5793 58.0209C100.48 58.6751 101.74 58.4755 102.394 57.5751C103.048 56.6747 102.85 55.4153 101.949 54.7611Z" fill="#CBC5C5"/>
<path d="M111.547 37.5969L107.742 46.7874L115.306 40.3279C116.667 39.2576 118.076 40.8167 116.575 41.9845L109.357 47.9647L106.435 51.9879C105.694 53.0072 106.363 53.6692 107.468 53.1399L111.406 51.1231C112.175 50.7777 112.497 50.6694 112.851 51.0341L110.12 53.768L106.822 55.4092C106.262 55.7073 105.882 55.7284 105.339 55.3344L100.355 51.7134C99.8131 51.3194 99.7156 50.9507 99.8262 50.3267L100.368 46.6822L102.124 43.2401C102.58 43.4644 102.577 43.804 102.486 44.6427L101.785 49.0105C101.623 50.2254 102.459 50.657 103.2 49.6377L106.123 45.6145L109.58 36.902C110.227 35.1139 112.145 35.9724 111.547 37.5969Z" fill="#CBC5C5"/>
<path d="M92.9083 50.155C91.8498 49.8111 90.713 50.3904 90.3691 51.4488C90.0252 52.5073 90.6032 53.6437 91.6616 53.9876C92.7201 54.3315 93.8569 53.7523 94.2008 52.6938C94.5447 51.6354 93.9667 50.4989 92.9083 50.155Z" fill="#CBC5C5"/>
<path d="M96.7326 30.8649L95.9532 40.7816L101.151 32.3007C102.114 30.8624 103.936 31.9097 102.87 33.4841L97.8537 41.402L96.317 46.1315C95.9276 47.3298 96.7683 47.7527 97.6561 46.9077L100.777 43.7729C101.403 43.2066 101.675 43.0041 102.125 43.2415L100.373 46.6855L97.7424 49.2658C97.3026 49.7221 96.9471 49.8598 96.3096 49.6527L90.4506 47.749C89.8131 47.5419 89.6064 47.2214 89.5188 46.5938L88.9076 42.9602L89.5142 39.144C90.0175 39.2163 90.1191 39.5403 90.292 40.366L90.9747 44.7367C91.1962 45.9422 92.1249 46.0943 92.5143 44.8959L94.051 40.1664L94.6466 30.8121C94.7093 28.9115 96.799 29.1353 96.7326 30.8649Z" fill="#CBC5C5"/>
<path d="M82.8859 48.5683C81.773 48.5683 80.8708 49.4705 80.8708 50.5834C80.8708 51.6964 81.7717 52.5986 82.8846 52.5986C83.9975 52.5986 84.8997 51.6964 84.8997 50.5834C84.8997 49.4705 83.9988 48.5683 82.8859 48.5683Z" fill="#CBC5C5"/>
<path d="M80.5621 29.0405L82.8852 38.7127L85.2084 29.0405C85.6797 27.375 87.7363 27.808 87.2087 29.6349L84.8844 38.7154V43.6884C84.8844 44.9483 85.8147 45.0907 86.3979 44.0127L88.3978 40.0668C88.8174 39.335 89.0141 39.0582 89.5151 39.145L88.9128 42.9619L87.2087 46.2287C86.9314 46.7986 86.6358 47.0395 85.9655 47.0395H79.805C79.1347 47.0395 78.8391 46.7986 78.5618 46.2287L76.8577 42.9619L76.2554 39.145C76.7564 39.0582 76.9531 39.335 77.3727 40.0668L79.3726 44.0127C79.9558 45.0907 80.8861 44.9483 80.8861 43.6884V38.7154L78.5618 29.6349C78.0342 27.808 80.0908 27.375 80.5621 29.0405Z" fill="#CBC5C5"/>
<path d="M72.8643 50.1562C71.8058 50.5001 71.2266 51.6369 71.5705 52.6954C71.9144 53.7538 73.05 54.3335 74.1084 53.9896C75.1669 53.6457 75.7461 52.5088 75.4022 51.4504C75.0583 50.3919 73.9227 49.8123 72.8643 50.1562Z" fill="#CBC5C5"/>
<path d="M64.6198 32.3022L69.8181 40.7832L69.0387 30.8664C68.9723 29.1368 71.062 28.9131 71.1247 30.8136L71.7203 40.168L73.257 44.8975C73.6464 46.0958 74.5751 45.9437 74.7966 44.7383L75.4793 40.3675C75.6522 39.5418 75.7538 39.2178 76.2571 39.1455L76.8637 42.9618L76.2525 46.5953C76.1649 47.2229 75.9582 47.5434 75.3207 47.7505L69.4618 49.6542C68.8242 49.8614 68.4687 49.7236 68.0289 49.2673L65.3987 46.687L63.6463 43.243C64.096 43.0057 64.3686 43.2081 64.9938 43.7745L68.1152 46.9092C69.003 47.7542 69.8437 47.3314 69.4543 46.1331L67.9176 41.4035L62.9011 33.4857C61.8348 31.9112 63.6569 30.8639 64.6198 32.3022Z" fill="#CBC5C5"/>
<path d="M63.8235 54.763C62.9232 55.4172 62.7236 56.6774 63.3777 57.5778C64.0319 58.4781 65.291 58.6785 66.1914 58.0243C67.0918 57.3702 67.2914 56.11 66.6372 55.2096C65.983 54.3092 64.7239 54.1089 63.8235 54.763Z" fill="#CBC5C5"/>
<path d="M50.4655 40.3306L58.0301 46.7901L54.2244 37.5996C53.6268 35.9751 55.545 35.1166 56.192 36.9047L59.6491 45.6172L62.572 49.6403C63.3126 50.6597 64.1489 50.2281 63.9871 49.0132L63.2857 44.6454C63.1951 43.8067 63.1915 43.4671 63.6478 43.2428L65.404 46.6848L65.9456 50.3294C66.0562 50.9534 65.9586 51.3221 65.4164 51.7161L60.4324 55.3371C59.8902 55.7311 59.5094 55.71 58.9501 55.4119L55.6513 53.7707L52.9205 51.0367C53.2748 50.6721 53.5966 50.7804 54.3663 51.1258L58.3035 53.1426C59.409 53.6718 60.0779 53.0099 59.3373 51.9906L56.4143 47.9674L49.1966 41.9872C47.6959 40.8193 49.1052 39.2603 50.4655 40.3306Z" fill="#CBC5C5"/>
<path d="M56.649 61.9382C55.9948 62.8386 56.1944 64.0988 57.0948 64.753C57.9952 65.4072 59.2546 65.2086 59.9088 64.3082C60.5629 63.4079 60.3633 62.1477 59.4629 61.4935C58.5626 60.8393 57.3032 61.0379 56.649 61.9382Z" fill="#CBC5C5"/>
<path d="M39.4849 52.3401L48.6753 56.1458L42.2159 48.5812C41.1456 47.2209 42.7046 45.8116 43.8725 47.3123L49.8526 54.53L53.8758 57.453C54.8951 58.1936 55.5571 57.5247 55.0278 56.4193L53.011 52.482C52.6656 51.7123 52.5573 51.3905 52.922 51.0362L55.6559 53.767L57.2971 57.0659C57.5952 57.6252 57.6163 58.0059 57.2223 58.5482L53.6013 63.5321C53.2073 64.0744 52.8386 64.172 52.2146 64.0614L48.5701 63.5198L45.1281 61.7636C45.3524 61.3073 45.6919 61.3108 46.5306 61.4015L50.8984 62.1029C52.1133 62.2647 52.5449 61.4284 51.5256 60.6878L47.5024 57.7648L38.79 54.3077C37.0019 53.6608 37.8605 51.7425 39.4849 52.3401Z" fill="#CBC5C5"/>
<path d="M52.043 70.9793C51.699 72.0378 52.2783 73.1746 53.3367 73.5185C54.3952 73.8625 55.5316 73.2845 55.8755 72.226C56.2194 71.1676 55.6402 70.0307 54.5817 69.6868C53.5233 69.3429 52.3869 69.9209 52.043 70.9793Z" fill="#CBC5C5"/>
<path d="M32.7529 67.155L42.6696 67.9344L34.1887 62.7361C32.7504 61.7732 33.7977 59.9511 35.3721 61.0174L43.29 66.0339L48.0195 67.5706C49.2178 67.96 49.6406 67.1193 48.7956 66.2315L45.6609 63.1101C45.0946 62.4849 44.8921 62.2122 45.1294 61.7626L48.5734 63.5149L51.1537 66.1452C51.61 66.585 51.7478 66.9405 51.5406 67.578L49.6369 73.437C49.4298 74.0745 49.1094 74.2812 48.4817 74.3688L44.8482 74.98L41.0319 74.3734C41.1043 73.8701 41.4283 73.7686 42.254 73.5956L46.6247 72.9129C47.8301 72.6914 47.9822 71.7627 46.7839 71.3733L42.0544 69.8366L32.7001 69.2411C30.7996 69.1783 31.0234 67.0886 32.7529 67.155Z" fill="#CBC5C5"/>
<path d="M50.4559 81.0014C50.4559 82.1143 51.358 83.0165 52.471 83.0165C53.5839 83.0165 54.4861 82.1157 54.4861 81.0027C54.4861 79.8898 53.5839 78.9876 52.471 78.9876C51.358 78.9876 50.4559 79.8885 50.4559 81.0014Z" fill="#CBC5C5"/>
<path d="M30.9282 83.3252L40.6003 81.0021L30.9282 78.6789C29.2627 78.2076 29.6957 76.151 31.5226 76.6786L40.6031 79.0029H45.5759C46.8359 79.0029 46.9783 78.0726 45.9003 77.4894L41.9544 75.4895C41.2226 75.0699 40.9458 74.8732 41.0326 74.3722L44.8495 74.9745L48.1163 76.6786C48.6862 76.9559 48.9271 77.2515 48.9271 77.9218V84.0823C48.9271 84.7526 48.6862 85.0482 48.1163 85.3255L44.8495 87.0296L41.0326 87.632C40.9458 87.131 41.2226 86.9343 41.9544 86.5146L45.9003 84.5147C46.9783 83.9315 46.8359 83.0013 45.5759 83.0013H40.6031L31.5226 85.3255C29.6957 85.8531 29.2627 83.7966 30.9282 83.3252Z" fill="#CBC5C5"/>
<path d="M52.0437 91.0235C52.3876 92.0819 53.5245 92.6612 54.5829 92.3173C55.6413 91.9734 56.221 90.8378 55.8771 89.7793C55.5332 88.7209 54.3963 88.1416 53.3379 88.4855C52.2795 88.8294 51.6998 89.965 52.0437 91.0235Z" fill="#CBC5C5"/>
<path d="M34.1899 99.268L42.6708 94.0697L32.7541 94.8491C31.0245 94.9155 30.8008 92.8258 32.7013 92.763L42.0556 92.1674L46.7851 90.6307C47.9834 90.2414 47.8313 89.3127 46.6259 89.0911L42.2551 88.4085C41.4295 88.2355 41.1054 88.134 41.0331 87.6307L44.8494 87.024L48.4829 87.6353C49.1105 87.7229 49.431 87.9296 49.6381 88.5671L51.5418 94.426C51.7489 95.0635 51.6112 95.4191 51.1549 95.8589L48.5746 98.4891L45.1306 100.242C44.8933 99.7918 45.0957 99.5192 45.6621 98.894L48.7968 95.7726C49.6418 94.8848 49.2189 94.0441 48.0206 94.4335L43.2911 95.9702L35.3733 100.987C33.7989 102.053 32.7516 100.231 34.1899 99.268Z" fill="#CBC5C5"/>
<path d="M56.6505 100.064C57.3047 100.965 58.5649 101.164 59.4653 100.51C60.3656 99.8559 60.566 98.5968 59.9118 97.6964C59.2577 96.7961 57.9975 96.5965 57.0971 97.2506C56.1967 97.9048 55.9964 99.1639 56.6505 100.064Z" fill="#CBC5C5"/>
<path d="M42.2182 113.422L48.6776 105.858L39.4872 109.663C37.8628 110.261 37.0042 108.343 38.7923 107.696L47.5048 104.239L51.5279 101.316C52.5472 100.575 52.1156 99.7389 50.9007 99.9007L46.533 100.602C45.6942 100.693 45.3547 100.696 45.1304 100.24L48.5724 98.4838L52.217 97.9422C52.841 97.8316 53.2096 97.9292 53.6036 98.4715L57.2246 103.455C57.6186 103.998 57.5975 104.378 57.2994 104.938L55.6582 108.237L52.9243 110.967C52.5596 110.613 52.6679 110.291 53.0133 109.522L55.0301 105.584C55.5594 104.479 54.8974 103.81 53.8781 104.551L49.8549 107.474L43.8748 114.691C42.7069 116.192 41.1479 114.783 42.2182 113.422Z" fill="#CBC5C5"/>
<path d="M63.8253 107.239C64.7257 107.893 65.9859 107.693 66.6401 106.793C67.2942 105.893 67.0957 104.633 66.1953 103.979C65.2949 103.325 64.0347 103.525 63.3806 104.425C62.7264 105.325 62.925 106.585 63.8253 107.239Z" fill="#CBC5C5"/>
<path d="M54.2273 124.403L58.0329 115.213L50.4683 121.672C49.1081 122.742 47.6988 121.183 49.1995 120.015L56.4172 114.035L59.3401 110.012C60.0807 108.993 59.4118 108.331 58.3064 108.86L54.3691 110.877C53.5995 111.222 53.2777 111.331 52.9233 110.966L55.6542 108.232L58.953 106.591C59.5123 106.293 59.893 106.272 60.4353 106.666L65.4192 110.287C65.9615 110.681 66.0591 111.049 65.9484 111.673L65.4069 115.318L63.6507 118.76C63.1944 118.536 63.1979 118.196 63.2886 117.357L63.99 112.989C64.1517 111.775 63.3155 111.343 62.5749 112.362L59.6519 116.385L56.1949 125.098C55.5479 126.886 53.6296 126.028 54.2273 124.403Z" fill="#CBC5C5"/>
<path d="M72.8664 111.845C73.9248 112.189 75.0616 111.61 75.4056 110.552C75.7495 109.493 75.1715 108.357 74.113 108.013C73.0546 107.669 71.9177 108.248 71.5738 109.307C71.2299 110.365 71.8079 111.501 72.8664 111.845Z" fill="#CBC5C5"/>
<path d="M69.042 131.135L69.8215 121.219L64.6232 129.7C63.6602 131.138 61.8382 130.091 62.9045 128.516L67.921 120.598L69.4577 115.869C69.847 114.671 69.0063 114.248 68.1185 115.093L64.9972 118.227C64.3719 118.794 64.0993 118.996 63.6497 118.759L65.402 115.315L68.0322 112.735C68.472 112.278 68.8276 112.141 69.4651 112.348L75.324 114.251C75.9615 114.459 76.1682 114.779 76.2558 115.407L76.867 119.04L76.2604 122.856C75.7571 122.784 75.6556 122.46 75.4826 121.634L74.8 117.264C74.5784 116.058 73.6497 115.906 73.2604 117.104L71.7237 121.834L71.1281 131.188C71.0653 133.089 68.9757 132.865 69.042 131.135Z" fill="#CBC5C5"/>
</svg>
