<svg width="164" height="124" viewBox="0 0 164 124" fill="none" xmlns="http://www.w3.org/2000/svg">
<path d="M0.775391 22C0.775391 9.84974 10.6183 0 22.7602 0H141.678C153.82 0 163.663 9.84974 163.663 22V102C163.663 114.15 153.82 124 141.678 124H22.7602C10.6183 124 0.775391 114.15 0.775391 102V22Z" fill="#C5A869"/>
<path fill-rule="evenodd" clip-rule="evenodd" d="M141.678 11H22.7602C16.6893 11 11.7678 15.9249 11.7678 22V102C11.7678 108.075 16.6893 113 22.7602 113H141.678C147.749 113 152.671 108.075 152.671 102V22C152.671 15.9249 147.749 11 141.678 11ZM22.7602 0C10.6183 0 0.775391 9.84974 0.775391 22V102C0.775391 114.15 10.6183 124 22.7602 124H141.678C153.82 124 163.663 114.15 163.663 102V22C163.663 9.84974 153.82 0 141.678 0H22.7602Z" fill="#A68C55"/>
<path d="M93.37 76.5718C93.37 81.7326 89.1863 85.9162 84.0256 85.9162C78.8648 85.9162 74.6812 81.7326 74.6812 76.5718C74.6812 71.411 78.8648 67.2274 84.0256 67.2274C89.1863 67.2274 93.37 71.411 93.37 76.5718Z" fill="black"/>
<path fill-rule="evenodd" clip-rule="evenodd" d="M84.0256 89.654C91.2506 89.654 97.1077 83.7969 97.1077 76.5718C97.1077 69.3467 91.2506 63.4897 84.0256 63.4897C76.8005 63.4897 70.9434 69.3467 70.9434 76.5718C70.9434 83.7969 76.8005 89.654 84.0256 89.654ZM84.0256 87.1621C89.8744 87.1621 94.6159 82.4207 94.6159 76.5718C94.6159 70.7229 89.8744 65.9815 84.0256 65.9815C78.1767 65.9815 73.4353 70.7229 73.4353 76.5718C73.4353 82.4207 78.1767 87.1621 84.0256 87.1621ZM93.37 76.5718C93.37 81.7326 89.1863 85.9162 84.0256 85.9162C78.8648 85.9162 74.6812 81.7326 74.6812 76.5718C74.6812 71.411 78.8648 67.2274 84.0256 67.2274C89.1863 67.2274 93.37 71.411 93.37 76.5718Z" fill="black"/>
<path d="M73.8506 58.506H94.2006V61.8284H73.8506V58.506Z" fill="black"/>
<path d="M89.0713 56.2838C93.2398 53.7653 97.8425 47.7297 97.8425 42.6494C97.8425 38.704 97.3649 35.4414 95.7127 33.4922C96.2664 34.392 96.2359 36.0927 96.2359 37.4388C96.2359 45.2046 90.1902 51.0673 88.5432 51.0673C88.8823 49.9713 94.031 45.9137 94.031 36.91C94.031 33.1499 90.0486 27.9114 88.1797 27.3654C89.4682 30.2357 89.4219 32.9577 89.4219 36.6954V36.8412C89.4221 43.3685 89.4222 45.2868 85.1989 51.0673C87.0166 45.5817 87.0165 41.7446 87.0164 37.5323V37.4388C87.0164 30.3785 86.1021 26.6265 84.0256 22.0581C81.949 26.6265 81.0348 30.3785 81.0348 37.4388V37.5323C81.0347 41.7446 81.0346 45.5817 82.8523 51.0673C78.629 45.2868 78.6291 43.3685 78.6293 36.8412L78.6293 36.6954C78.6293 32.9577 78.583 30.2357 79.8715 27.3654C78.0027 27.9114 74.0202 33.1499 74.0202 36.91C74.0202 45.9137 79.1689 49.9713 79.508 51.0673C77.861 51.0673 71.8153 45.2046 71.8153 37.4388C71.8153 36.0927 71.7848 34.392 72.3385 33.4922C70.6863 35.4414 70.2087 38.704 70.2087 42.6494C70.2087 47.7297 74.8114 53.7653 78.9799 56.2838H84.0256H89.0713Z" fill="black"/>
<path d="M103.081 95.7358L116.723 86.1946C117.799 85.4557 117.585 83.96 116.896 82.9866C116.208 82.0132 114.617 82.0607 113.647 82.5928L100.082 92.4198C99.3515 92.9818 99.2746 94.5297 99.9451 95.3796C100.616 96.2296 102.129 96.4717 103.081 95.7358Z" fill="black"/>
<path d="M85.3318 92.8032H94.4487L98.8703 91.8222L103.71 88.2849C103.71 88.2849 102.314 88.2849 100.983 88.5796L88.3813 91.38C86.9565 91.6993 85.3318 92.8032 85.3318 92.8032Z" fill="black"/>
<path d="M85.3318 99.8473H93.0206C94.5757 99.8473 95.8949 98.8413 96.2664 97.9258L99.533 97.0569C100.4 97.7909 102.646 97.8299 103.893 96.9448L108.325 93.8528C108.325 95.7358 107.151 97.7711 104.347 98.6366L90.7002 101.789C87.9671 102.313 85.9916 101.478 85.3318 99.8473Z" fill="black"/>
<path d="M64.9698 95.7345L51.3276 86.1933C50.2524 85.4545 50.4661 83.9588 51.1546 82.9854C51.8431 82.012 53.4338 82.0595 54.4041 82.5916L67.9692 92.4186C68.6995 92.9805 68.7764 94.5284 68.106 95.3784C67.4355 96.2283 65.9218 96.4705 64.9698 95.7345Z" fill="black"/>
<path d="M82.7193 92.8019H73.6023L69.1807 91.8209L64.3415 88.2836C64.3415 88.2836 65.7373 88.2836 67.0681 88.5784L79.6698 91.3787C81.0945 91.6981 82.7193 92.8019 82.7193 92.8019Z" fill="black"/>
<path d="M82.7193 99.8461H75.0304C73.4754 99.8461 72.1561 98.84 71.7846 97.9245L68.5181 97.0557C67.6506 97.7897 65.4048 97.8286 64.1579 96.9436L59.7259 93.8515C59.7259 95.7345 60.8998 97.7698 63.7044 98.6354L77.3508 101.788C80.084 102.311 82.0594 101.476 82.7193 99.8461Z" fill="black"/>
<path d="M84.0255 94.0587L93.0206 94.06C94.333 94.06 95.3089 95.3724 95.3089 96.3483C95.3089 97.3242 94.4004 98.6366 93.0206 98.6366L84.0255 98.6354H75.0304C73.6507 98.6354 72.7421 97.323 72.7421 96.3471C72.7421 95.3712 73.718 94.0587 75.0304 94.0587H84.0255Z" fill="black"/>
<path d="M66.5998 71.1482V67.643H62.9336L67.3346 62.6237L39.4629 67.0156L56.3458 67.9281L53.7221 71.1482H66.5998Z" fill="black"/>
<path d="M97.8425 70.5208V67.0156H101.509L97.1077 61.9963L124.98 66.3881L108.096 67.3007L110.72 70.5208H97.8425Z" fill="black"/>
</svg>
