<svg width="164" height="124" viewBox="0 0 164 124" fill="none" xmlns="http://www.w3.org/2000/svg">
<path d="M0.662109 22C0.662109 9.84974 10.5051 0 22.6469 0H141.565C153.707 0 163.55 9.84974 163.55 22V102C163.55 114.15 153.707 124 141.565 124H22.6469C10.5051 124 0.662109 114.15 0.662109 102V22Z" fill="#C5A869"/>
<path fill-rule="evenodd" clip-rule="evenodd" d="M141.565 11H22.6469C16.576 11 11.6545 15.9249 11.6545 22V102C11.6545 108.075 16.576 113 22.6469 113H141.565C147.636 113 152.557 108.075 152.557 102V22C152.557 15.9249 147.636 11 141.565 11ZM22.6469 0C10.5051 0 0.662109 9.84974 0.662109 22V102C0.662109 114.15 10.5051 124 22.6469 124H141.565C153.707 124 163.55 114.15 163.55 102V22C163.55 9.84974 153.707 0 141.565 0H22.6469Z" fill="#A68C55"/>
<path fill-rule="evenodd" clip-rule="evenodd" d="M82.1058 38.6917C98.6629 38.6917 116.506 61.5181 93.1973 93.8292C89.6024 98.8125 98.0188 105.302 103.164 98.8125C131.456 63.1256 113.934 22.4558 82.1058 22.4558C50.2773 22.4558 32.7618 63.1253 61.054 98.8122C66.1991 105.302 74.6156 98.8122 71.0207 93.8289C47.7117 61.5178 65.5486 38.6917 82.1058 38.6917ZM100.502 35.3131L97.5861 33.0371L95.3813 35.8821L98.084 38.087L100.502 35.3131ZM107.401 42.8523L105.481 39.4383L102.494 41.2164L104.272 44.2748L107.401 42.8523ZM111.598 52.5964L110.46 48.7556L106.832 49.9647L107.899 53.4498L111.598 52.5964ZM109.037 62.5584V58.9264H112.764V62.5584H109.037ZM63.7157 35.3128L66.6318 33.0368L68.8367 35.8818L66.1339 38.0867L63.7157 35.3128ZM56.8166 42.852L58.737 39.438L61.7242 41.2161L59.9461 44.2745L56.8166 42.852ZM52.6203 52.596L53.7583 48.7553L57.3856 49.9644L56.3188 53.4495L52.6203 52.596ZM55.1808 62.5581V58.9261H51.4542V62.5581H55.1808Z" fill="black"/>
<path fill-rule="evenodd" clip-rule="evenodd" d="M82.1068 38.691C98.6639 38.691 116.507 61.5174 93.1983 93.8285C89.6033 98.8118 98.0198 105.302 103.165 98.8118C131.457 63.1249 113.935 22.4551 82.1068 22.4551C50.2783 22.4551 32.7628 63.1246 61.055 98.8115C66.2001 105.301 74.6166 98.8115 71.0217 93.8282C47.7127 61.5171 65.5496 38.691 82.1068 38.691ZM100.503 35.3124L97.5871 33.0364L95.3823 35.8814L98.085 38.0862L100.503 35.3124ZM107.402 42.8516L105.482 39.4376L102.495 41.2157L104.273 44.2741L107.402 42.8516ZM111.599 52.5956L110.461 48.7549L106.833 49.964L107.9 53.4491L111.599 52.5956ZM109.038 62.5576V58.9257H112.765V62.5576H109.038ZM63.7167 35.3121L66.6328 33.0361L68.8376 35.8811L66.1349 38.0859L63.7167 35.3121ZM56.8176 42.8513L58.738 39.4373L61.7252 41.2154L59.9471 44.2737L56.8176 42.8513ZM52.6213 52.5953L53.7593 48.7546L57.3866 49.9637L56.3197 53.4488L52.6213 52.5953ZM55.1817 62.5573V58.9254H51.4552V62.5573H55.1817Z" fill="black"/>
</svg>
