<svg width="164" height="124" viewBox="0 0 164 124" fill="none" xmlns="http://www.w3.org/2000/svg">
<path d="M0.326172 22C0.326172 9.84974 10.1691 0 22.311 0H141.229C153.371 0 163.214 9.84974 163.214 22V102C163.214 114.15 153.371 124 141.229 124H22.311C10.1691 124 0.326172 114.15 0.326172 102V22Z" fill="#C5A869"/>
<path fill-rule="evenodd" clip-rule="evenodd" d="M141.229 11H22.311C16.2401 11 11.3186 15.9249 11.3186 22V102C11.3186 108.075 16.2401 113 22.311 113H141.229C147.3 113 152.221 108.075 152.221 102V22C152.221 15.9249 147.3 11 141.229 11ZM22.311 0C10.1691 0 0.326172 9.84974 0.326172 22V102C0.326172 114.15 10.1691 124 22.311 124H141.229C153.371 124 163.214 114.15 163.214 102V22C163.214 9.84974 153.371 0 141.229 0H22.311Z" fill="#A68C55"/>
<path fill-rule="evenodd" clip-rule="evenodd" d="M105.782 67.8543H96.6245C95.9011 75.8974 89.028 82.0883 80.8467 81.8545C72.9642 81.6292 66.6347 75.5191 65.9477 67.8543H56.7898L50.7311 71.1214C51.0182 73.016 51.478 74.8559 52.0944 76.6241L58.8869 76.4804C59.3699 77.5574 59.9284 78.5939 60.5559 79.5829L57.1331 85.7354C58.2476 87.1301 59.4807 88.4269 60.8178 89.6101L67.1527 86.5137C68.8057 87.6807 70.6107 88.6492 72.5339 89.3834L72.7093 96.1534C74.4132 96.6442 76.1788 96.9929 77.9931 97.1854L80.5866 90.9809C81.6632 91.0116 82.7233 90.9838 83.7672 90.879L87.5475 96.7373C89.3131 96.3736 91.0253 95.8588 92.6694 95.2066L92.2673 88.4126C93.4965 87.7961 94.6676 87.0792 95.7694 86.2723L101.555 89.7955C102.957 88.5771 104.249 87.2339 105.412 85.7826L101.629 80.1882C102.313 79.1771 102.923 78.1118 103.452 76.9996L110.278 77.1947C110.901 75.5089 111.383 73.7524 111.706 71.9396L105.719 68.7159C105.745 68.4301 105.766 68.1429 105.782 67.8543Z" fill="black"/>
<path d="M68.8063 58.9284C68.8063 61.7405 66.5267 64.0201 63.7146 64.0201C60.9026 64.0201 58.623 61.7405 58.623 58.9284C58.623 57.473 59.2336 56.1602 60.2127 55.2323H56.6701C55.8799 57.02 54.091 58.2674 52.0108 58.2674C49.1988 58.2674 46.9192 55.9878 46.9192 53.1758C46.9192 52.0024 47.316 50.9218 47.9829 50.0607L46.3015 49.0593H44.2723C44.2723 57.8708 53.4011 65.9123 59.0968 65.9123H129.942L143.05 55.2323L140.943 49.7614L138.177 51.0226C138.89 51.8987 139.317 53.0163 139.317 54.2337C139.317 57.0458 137.038 59.3254 134.226 59.3254C131.713 59.3254 129.625 57.5051 129.209 55.1113L128.944 55.2323H123.909C124.888 56.1602 125.498 57.473 125.498 58.9284C125.498 61.7405 123.219 64.0201 120.407 64.0201C117.595 64.0201 115.315 61.7405 115.315 58.9284C115.315 57.473 115.926 56.1602 116.905 55.2323H109.736C110.715 56.1602 111.325 57.473 111.325 58.9284C111.325 61.7405 109.046 64.0201 106.234 64.0201C103.422 64.0201 101.142 61.7405 101.142 58.9284C101.142 57.473 101.753 56.1602 102.732 55.2323H95.5626C96.5416 56.1602 97.1523 57.473 97.1523 58.9284C97.1523 61.7405 94.8727 64.0201 92.0606 64.0201C89.2486 64.0201 86.9689 61.7405 86.9689 58.9284C86.9689 57.473 87.5796 56.1602 88.5587 55.2323H81.3896C82.3687 56.1602 82.9793 57.473 82.9793 58.9284C82.9793 61.7405 80.6997 64.0201 77.8876 64.0201C75.0756 64.0201 72.796 61.7405 72.796 58.9284C72.796 57.473 73.4066 56.1602 74.3857 55.2323H67.2166C68.1957 56.1602 68.8063 57.473 68.8063 58.9284Z" fill="black"/>
<path d="M52.0108 56.8129C53.5591 56.8129 54.8815 55.8454 55.4063 54.4821L49.2457 50.8129C48.7021 51.4485 48.3737 52.2738 48.3737 53.1758C48.3737 55.1845 50.0021 56.8129 52.0108 56.8129Z" fill="black"/>
<path d="M67.3518 58.9284C67.3518 60.9372 65.7234 62.5655 63.7146 62.5655C61.7059 62.5655 60.0775 60.9372 60.0775 58.9284C60.0775 56.9197 61.7059 55.2913 63.7146 55.2913C65.7234 55.2913 67.3518 56.9197 67.3518 58.9284Z" fill="black"/>
<path d="M81.5247 58.9284C81.5247 60.9372 79.8964 62.5655 77.8876 62.5655C75.8789 62.5655 74.2505 60.9372 74.2505 58.9284C74.2505 56.9197 75.8789 55.2913 77.8876 55.2913C79.8964 55.2913 81.5247 56.9197 81.5247 58.9284Z" fill="black"/>
<path d="M95.6977 58.9284C95.6977 60.9372 94.0693 62.5655 92.0606 62.5655C90.0519 62.5655 88.4235 60.9372 88.4235 58.9284C88.4235 56.9197 90.0519 55.2913 92.0606 55.2913C94.0693 55.2913 95.6977 56.9197 95.6977 58.9284Z" fill="black"/>
<path d="M109.871 58.9284C109.871 60.9372 108.242 62.5655 106.234 62.5655C104.225 62.5655 102.596 60.9372 102.596 58.9284C102.596 56.9197 104.225 55.2913 106.234 55.2913C108.242 55.2913 109.871 56.9197 109.871 58.9284Z" fill="black"/>
<path d="M124.044 58.9284C124.044 60.9372 122.415 62.5655 120.407 62.5655C118.398 62.5655 116.769 60.9372 116.769 58.9284C116.769 56.9197 118.398 55.2913 120.407 55.2913C122.415 55.2913 124.044 56.9197 124.044 58.9284Z" fill="black"/>
<path d="M134.226 57.8708C136.234 57.8708 137.863 56.2424 137.863 54.2337C137.863 53.2258 137.453 52.3136 136.79 51.6549L130.597 54.4788C130.723 56.3732 132.299 57.8708 134.226 57.8708Z" fill="black"/>
<path d="M47.0758 48.3387H55.0199V52.7117L47.0758 48.3387Z" fill="black"/>
<path d="M56.4046 48.3387V52.7117H62.9131V48.3387H56.4046Z" fill="black"/>
<path d="M64.3488 48.3387V52.7117H72.22V48.3387H64.3488Z" fill="black"/>
<path d="M73.8963 48.3387V52.7117H128.776L140.854 48.3387H73.8963Z" fill="black"/>
<path d="M20.4863 32.6966H44.5188L45.0265 31.4196H50.5023V32.6966H65.0032L87.8193 26.8149H121.587V37.2597H107.796V39.6934H140.854V47.096H45.0265L65.0032 40.6061L62.9131 37.5732H20.4863V32.6966Z" fill="black"/>
</svg>
