<svg width="164" height="124" viewBox="0 0 164 124" fill="none" xmlns="http://www.w3.org/2000/svg">
<path d="M0.550781 22C0.550781 9.84974 10.3937 0 22.5356 0H141.454C153.595 0 163.438 9.84974 163.438 22V102C163.438 114.15 153.595 124 141.454 124H22.5356C10.3937 124 0.550781 114.15 0.550781 102V22Z" fill="#C5A869"/>
<path fill-rule="evenodd" clip-rule="evenodd" d="M141.454 11H22.5356C16.4647 11 11.5432 15.9249 11.5432 22V102C11.5432 108.075 16.4647 113 22.5356 113H141.454C147.524 113 152.446 108.075 152.446 102V22C152.446 15.9249 147.524 11 141.454 11ZM22.5356 0C10.3937 0 0.550781 9.84974 0.550781 22V102C0.550781 114.15 10.3937 124 22.5356 124H141.454C153.595 124 163.438 114.15 163.438 102V22C163.438 9.84974 153.595 0 141.454 0H22.5356Z" fill="#A68C55"/>
<path d="M59.9377 104.86L62.5009 88.5811L64.7441 93.7082L84.2915 62.2401L69.9354 68.3929L88.906 39.6166C93.0024 33.6357 96.4458 25.3247 96.7249 19.9411C96.7753 18.9697 98.4833 18.7826 98.9681 19.9411C99.4529 21.0996 100.031 26.8807 99.2885 28.465C100.64 27.0796 105.555 24.9497 107.296 24.835C109.037 24.7204 109.273 25.9214 108.094 26.9113C106.915 27.9013 98.5096 34.1225 93.2438 42.2544L82.2652 58.4052L94.854 53.9649L67.5295 95.586H73.4823L59.9377 104.86Z" fill="black"/>
<path fill-rule="evenodd" clip-rule="evenodd" d="M79.8579 86.5219C78.4154 86.4104 77.0043 86.1871 75.6332 85.8606L84.2805 72.6889C90.7247 71.602 95.6334 65.9952 95.6334 59.2419C95.6334 58.1213 95.4983 57.0323 95.2433 55.9902L96.0553 54.7535C96.3937 54.238 96.3655 53.5641 95.9853 53.0787C95.6051 52.5933 94.9575 52.4045 94.376 52.6096L93.9898 52.7459C93.1387 51.1778 91.9891 49.7953 90.6171 48.6746L94.4323 43.0621C94.4383 43.0533 94.4442 43.0444 94.45 43.0354C95.2242 41.8398 96.0686 40.6865 96.9485 39.5864L99.528 38.2328C100.742 39.2464 101.866 40.3631 102.888 41.5694L100.013 47.1019C100.594 47.9615 101.115 48.8648 101.569 49.8058L107.578 49.5068C108.168 51.0564 108.622 52.6734 108.924 54.3431L103.644 57.3883C103.696 58.001 103.722 58.6209 103.722 59.247C103.722 59.7083 103.708 60.1663 103.679 60.6205L109.061 63.3225C108.82 64.9354 108.438 66.5023 107.929 68.0103H101.883C101.442 69.0081 100.929 69.9665 100.35 70.8788L103.84 75.735C102.846 77.0491 101.737 78.2707 100.527 79.3846L95.3166 76.4124C94.3618 77.1545 93.3433 77.8187 92.2709 78.3955L92.7986 84.3991C91.3598 85.018 89.8573 85.5169 88.3037 85.8835L84.8093 80.7937C83.888 80.9128 82.9503 80.9643 81.9966 80.9643L79.8579 86.5219ZM72.3642 78.7178L76.663 71.7973C75.0521 71.1122 73.6 70.1261 72.3773 68.9096L70.5015 69.7136C69.9183 69.9635 69.2401 69.8014 68.8331 69.3146C68.426 68.8278 68.3864 68.1316 68.7357 67.6018L69.985 65.7067C68.9473 63.7828 68.3584 61.5811 68.3584 59.2419C68.3584 51.7102 74.4641 45.6044 81.9959 45.6044C82.4025 45.6044 82.805 45.6222 83.2026 45.6571L87.7063 38.8255L87.7141 38.8138L87.7204 38.8044C88.174 38.1421 88.6199 37.4495 89.0543 36.7342L88.8366 32.7418C87.3161 32.3505 85.7444 32.0865 84.1336 31.962L81.9966 37.5096C81.0428 37.5096 80.1034 37.5711 79.1821 37.6902L75.6877 32.6004C74.1341 32.967 72.6316 33.466 71.1928 34.0848L71.7206 40.0885C70.6481 40.6652 69.6297 41.3294 68.6748 42.0716L63.4641 39.0993C62.2543 40.2132 61.1451 41.4348 60.1517 42.7489L63.6418 47.6052C63.0624 48.5174 62.5492 49.4758 62.1089 50.4736H56.0624C55.553 51.9817 55.1715 53.5485 54.9307 55.1614L60.3119 57.8634C60.2836 58.3176 60.2692 58.7756 60.2692 59.2369C60.2692 59.863 60.2957 60.4829 60.3476 61.0956L55.0674 64.1408C55.3695 65.8105 55.823 67.4276 56.4133 68.9771L62.4221 68.6781C62.8769 69.6192 63.3975 70.5225 63.9779 71.382L61.1039 76.9145C62.1256 78.1208 63.2499 79.2375 64.4634 80.2511L69.9924 77.3499C70.7509 77.8536 71.5428 78.3109 72.3642 78.7178Z" fill="black"/>
</svg>
