<svg width="164" height="124" viewBox="0 0 164 124" fill="none" xmlns="http://www.w3.org/2000/svg">
<path d="M0.4375 22C0.4375 9.84974 10.2804 0 22.4223 0H141.34C153.482 0 163.325 9.84974 163.325 22V102C163.325 114.15 153.482 124 141.34 124H22.4223C10.2804 124 0.4375 114.15 0.4375 102V22Z" fill="#C5A869"/>
<path fill-rule="evenodd" clip-rule="evenodd" d="M141.34 11H22.4223C16.3514 11 11.4299 15.9249 11.4299 22V102C11.4299 108.075 16.3514 113 22.4223 113H141.34C147.411 113 152.333 108.075 152.333 102V22C152.333 15.9249 147.411 11 141.34 11ZM22.4223 0C10.2804 0 0.4375 9.84974 0.4375 22V102C0.4375 114.15 10.2804 124 22.4223 124H141.34C153.482 124 163.325 114.15 163.325 102V22C163.325 9.84974 153.482 0 141.34 0H22.4223Z" fill="#A68C55"/>
<path fill-rule="evenodd" clip-rule="evenodd" d="M98.0917 46.8508L100.098 40.8087C98.8737 39.7569 97.56 38.812 96.173 37.9855L91.065 41.8019C89.4001 41.0429 87.6334 40.4859 85.8011 40.1569L84.5069 34.1712C82.9106 34.0216 81.2831 34.0087 79.6387 34.1427L78.3778 40.0813C77.416 40.235 76.4787 40.4483 75.5688 40.7169L71.2249 36.1475C69.7173 36.7675 68.2826 37.5128 66.9314 38.3687L68.4311 44.3377C67.4425 45.0921 66.5226 45.926 65.6793 46.8283L59.9459 44.6707C58.9054 45.989 57.9838 47.3996 57.1938 48.8847L61.4957 53.2193C61.0585 54.2326 60.6954 55.2818 60.4122 56.3589L54.315 57.3333C54.0443 58.9361 53.912 60.5776 53.9291 62.2428L59.791 64.1003C59.8356 64.5629 59.8949 65.0271 59.9693 65.4923C60.0701 66.1236 60.1967 66.7445 60.3478 67.3539L55.514 71.2755C56.0876 72.9106 56.8056 74.4681 57.6505 75.9356L63.6616 74.6657C64.2718 75.5414 64.9423 76.3684 65.6662 77.1416L63.6595 83.1837C64.8842 84.2356 66.198 85.1805 67.5849 86.007L72.6929 82.1905C74.3578 82.9495 76.1245 83.5065 77.9568 83.8355L79.251 89.8212C80.8474 89.9708 82.4748 89.9837 84.1192 89.8497L85.3803 83.9008C86.342 83.7471 87.2793 83.5441 88.1891 83.2755L92.533 87.845C94.0406 87.225 95.4754 86.4796 96.8265 85.6238L95.3269 79.6548C96.3154 78.9003 97.2353 78.0664 98.0786 77.1642L103.812 79.3218C104.852 78.0035 105.774 76.5929 106.564 75.1077L102.262 70.7731C102.699 69.7598 103.062 68.7106 103.346 67.6335L109.443 66.6591C109.714 65.0564 109.846 63.4149 109.829 61.7497L103.967 59.8921C103.922 59.4295 103.863 58.9654 103.789 58.5002C103.688 57.8688 103.561 57.248 103.41 56.6385L108.244 52.7169C107.67 51.0818 106.952 49.5243 106.107 48.0569L100.096 49.3267C99.4861 48.451 98.8156 47.624 98.0917 46.8508ZM84.0768 75.7482C91.6718 74.5345 96.8449 67.3936 95.6312 59.7986C94.4175 52.2035 87.2766 47.0305 79.6815 48.2442C72.0865 49.4579 66.9134 56.5988 68.1271 64.1938C69.3408 71.7888 76.4817 76.9619 84.0768 75.7482Z" fill="black"/>
<path d="M81.1444 72.8187L78.5763 68.9666H71.5489C72.6255 70.56 74.0543 71.8753 75.7057 72.8187H81.1444Z" fill="black"/>
<path d="M77.6592 66.9489L75.3008 63.2802H69.4861C69.5098 63.507 69.5398 63.7344 69.5762 63.9622C69.7443 65.0141 70.0395 66.014 70.4435 66.9489H77.6592Z" fill="black"/>
<path d="M74.174 61.079L71.8155 57.4104H70.2927C69.8334 58.5677 69.5442 59.8025 69.4511 61.079H74.174Z" fill="black"/>
<path d="M91.9407 57.4104L89.5822 61.079H94.3051C94.279 60.7309 94.2382 60.3811 94.1821 60.0301C94.0358 59.1147 93.7933 58.2385 93.4664 57.4104H91.9407Z" fill="black"/>
<path d="M88.4555 63.2802L86.097 66.9489H93.3132C93.8135 65.7967 94.143 64.5615 94.275 63.2802H88.4555Z" fill="black"/>
<path d="M85.1799 68.9666L82.6118 72.8187H88.0586C89.7331 71.8622 91.1465 70.5355 92.2059 68.9666H85.1799Z" fill="black"/>
<path fill-rule="evenodd" clip-rule="evenodd" d="M28.6828 57.4104H52.8155C52.6259 58.6151 52.5105 59.8399 52.4733 61.079H30.6744L28.6828 57.4104Z" fill="black"/>
<path fill-rule="evenodd" clip-rule="evenodd" d="M20.9525 54.8423H55.9054L57.398 51.1737H18.9609L20.9525 54.8423ZM34.7623 63.2802H52.4722L52.4726 63.3206L58.4441 65.2129C58.4676 65.3831 58.493 65.5534 58.5202 65.7238C58.5774 66.082 58.6424 66.4371 58.715 66.7889L58.5179 66.9489H36.7538L34.7623 63.2802ZM43.5408 68.9666H56.0308L53.7873 70.7867L54.1293 71.7614C54.2542 72.1173 54.3855 72.4698 54.5233 72.8187H45.742L43.5408 68.9666ZM118.014 72.8187H106.36L103.987 70.4273C104.17 69.9471 104.338 69.4599 104.491 68.9666H120.215L118.014 72.8187ZM127.002 66.9489H110.882L110.89 66.9035C111.091 65.714 111.219 64.5044 111.271 63.2802H128.994L127.002 66.9489ZM111.289 61.079H133.082L135.073 57.4104H105.085C105.141 57.6944 105.192 57.9805 105.238 58.2686C105.265 58.439 105.29 58.6093 105.314 58.7795L111.285 60.6718L111.289 61.079ZM142.804 54.8423H107.953L109.971 53.2057L109.629 52.2311C109.504 51.8751 109.372 51.5226 109.235 51.1737H144.795L142.804 54.8423ZM75.7057 72.8187H81.1444L78.5763 68.9666H71.5489C72.6255 70.56 74.0543 71.8753 75.7057 72.8187ZM70.4435 66.9489H77.6592L75.3008 63.2802H69.4861C69.5098 63.507 69.5398 63.7344 69.5762 63.9622C69.7443 65.0141 70.0395 66.014 70.4435 66.9489ZM69.4511 61.079H74.174L71.8155 57.4104H70.2927C69.8334 58.5677 69.5442 59.8025 69.4511 61.079ZM92.2059 68.9666C91.1465 70.5355 89.7331 71.8622 88.0586 72.8187H82.6118L85.1799 68.9666H92.2059ZM93.3132 66.9489C93.8135 65.7967 94.143 64.5615 94.275 63.2802H88.4555L86.097 66.9489H93.3132ZM89.5822 61.079H94.3051C94.279 60.7309 94.2382 60.3811 94.1821 60.0301C94.0358 59.1147 93.7933 58.2385 93.4664 57.4104H91.9407L89.5822 61.079Z" fill="black"/>
</svg>
