<svg width="164" height="124" viewBox="0 0 164 124" fill="none" xmlns="http://www.w3.org/2000/svg">
<path d="M0.212891 22C0.212891 9.84974 10.0558 0 22.1977 0H141.116C153.258 0 163.1 9.84974 163.1 22V102C163.1 114.15 153.258 124 141.116 124H22.1977C10.0558 124 0.212891 114.15 0.212891 102V22Z" fill="#C5A869"/>
<path fill-rule="evenodd" clip-rule="evenodd" d="M141.116 11H22.1977C16.1268 11 11.2053 15.9249 11.2053 22V102C11.2053 108.075 16.1268 113 22.1977 113H141.116C147.187 113 152.108 108.075 152.108 102V22C152.108 15.9249 147.187 11 141.116 11ZM22.1977 0C10.0558 0 0.212891 9.84974 0.212891 22V102C0.212891 114.15 10.0558 124 22.1977 124H141.116C153.258 124 163.1 114.15 163.1 102V22C163.1 9.84974 153.258 0 141.116 0H22.1977Z" fill="#A68C55"/>
<path fill-rule="evenodd" clip-rule="evenodd" d="M100.993 65.2669L104.375 59.873C103.435 58.5607 102.382 57.3313 101.231 56.1995L95.3637 58.6959C93.9262 57.5638 92.3421 56.6037 90.64 55.8497L90.802 49.7278C89.2866 49.2039 87.7087 48.8055 86.0794 48.5458L83.4463 54.016C82.4755 53.9373 81.5143 53.9223 80.5667 53.9675L77.4302 48.4983C75.8185 48.7432 74.248 49.127 72.7324 49.6381L72.774 55.7925C71.6348 56.291 70.5433 56.883 69.5101 57.5596L64.4519 54.1041C63.1285 55.138 61.8986 56.2899 60.779 57.5453L63.9304 62.7764C63.2654 63.6571 62.664 64.5903 62.1334 65.5695L55.979 65.0704C55.336 66.5632 54.8183 68.1266 54.44 69.7484L59.6943 72.9429C59.628 73.4028 59.5755 73.8678 59.5374 74.3374C59.4857 74.9746 59.4615 75.6078 59.4638 76.2357L53.8379 78.8993C54.0075 80.6238 54.3357 82.3071 54.8086 83.933L60.9493 84.1247C61.3345 85.1202 61.7898 86.0826 62.3097 87.0054L58.9275 92.3993C59.8679 93.7116 60.9201 94.941 62.0716 96.0728L67.9388 93.5764C69.3763 94.7085 70.9605 95.6686 72.6625 96.4226L72.5005 102.544C74.0159 103.068 75.5939 103.467 77.2231 103.727L79.8588 98.2462C80.8296 98.325 81.7882 98.35 82.7358 98.3048L85.8724 103.774C87.484 103.529 89.0545 103.145 90.5701 102.634L90.5285 96.4798C91.6678 95.9813 92.7592 95.3893 93.7924 94.7127L98.8507 98.1682C100.174 97.1343 101.404 95.9824 102.524 94.727L99.3721 89.4959C100.037 88.6152 100.639 87.682 101.169 86.7027L107.324 87.2019C107.967 85.7091 108.484 84.1457 108.862 82.5239L103.608 79.3294C103.675 78.8695 103.727 78.4045 103.765 77.9349C103.817 77.2976 103.841 76.6645 103.839 76.0366L109.465 73.373C109.295 71.6485 108.967 69.9652 108.494 68.3392L102.353 68.1475C101.968 67.1521 101.513 66.1897 100.993 65.2669ZM80.5256 90.0171C88.1918 90.6389 94.9106 84.9282 95.5324 77.262C96.1542 69.5958 90.4435 62.877 82.7773 62.2552C75.1111 61.6334 68.3923 67.3441 67.7705 75.0103C67.1487 82.6765 72.8594 89.3953 80.5256 90.0171Z" fill="black"/>
<path d="M84.4395 83.767V79.7574L90.2247 72.3683C90.6066 73.1702 91.1412 75.175 90.2247 76.7788C89.3082 78.3827 85.986 82.1059 84.4395 83.767Z" fill="black"/>
<path d="M79.0559 83.7671V79.7575L73.2706 72.3684C72.8887 73.1703 72.3541 75.1751 73.2706 76.779C74.1871 78.3828 77.5093 82.106 79.0559 83.7671Z" fill="black"/>
<path fill-rule="evenodd" clip-rule="evenodd" d="M81.6619 30.9428L69.7738 26.0476C72.6505 24.0847 76.8667 22.7905 81.6593 22.7905C86.4799 22.7905 90.7164 24.0997 93.5938 26.0812L81.6619 30.9428ZM85.0623 32.3304L95.75 27.9757C96.9295 29.3313 97.5391 30.8166 97.5391 32.3304C97.5391 33.8441 96.9295 35.3294 95.75 36.685L85.0623 32.3304ZM82.9433 34.24L93.5938 38.5795C90.9748 40.383 87.2298 41.6297 82.9433 41.839V34.24ZM96.9735 39.1248C93.8456 42.1715 88.7108 44.1523 82.9433 44.4097V51.6776L82.5509 52.4928C82.1667 52.4779 81.7839 52.4724 81.4029 52.476L80.3753 50.6842V44.4097C74.6078 44.1523 69.473 42.1715 66.3451 39.1248C64.4227 37.2522 63.2115 34.9211 63.2115 32.3304C63.2115 29.717 64.4437 27.3683 66.3952 25.4874C69.7592 22.245 75.4052 20.2224 81.6593 20.2224C87.9436 20.2224 93.6153 22.2648 96.9735 25.536C98.896 27.4085 100.107 29.7396 100.107 32.3304C100.107 34.9211 98.896 37.2522 96.9735 39.1248ZM76.3863 87.4319C77.2267 87.8237 78.1203 88.1254 79.0559 88.3234V86.402L73.2706 79.0129C72.8887 79.8148 72.3541 81.8196 73.2706 83.4234C73.7901 84.3325 75.0825 85.9225 76.3863 87.4319ZM80.3753 88.5299V63.7406C81.1212 63.6646 81.8845 63.6552 82.6587 63.718C82.7539 63.7257 82.8488 63.7345 82.9433 63.7443V88.5304C82.1924 88.6078 81.4238 88.6178 80.6442 88.5546C80.5543 88.5473 80.4646 88.539 80.3753 88.5299ZM84.4402 72.1965L89.1483 66.1831C89.7098 66.6069 90.2334 67.0767 90.7139 67.5863C90.6671 68.1359 90.5225 68.698 90.2254 69.2179C89.3089 70.8218 85.9867 74.5449 84.4402 76.2061V72.1965ZM90.2247 83.4233C89.7239 84.2997 88.5047 85.8091 87.2494 87.2689C86.3652 87.7146 85.4229 88.0574 84.4395 88.2828V86.4019L90.2247 79.0128C90.6066 79.8147 91.1412 81.8195 90.2247 83.4233ZM73.2699 69.218C72.9389 68.6388 72.7972 68.0073 72.7692 67.399C73.2363 66.9246 73.7407 66.488 74.277 66.0938L79.0552 72.1966V76.2062C77.5086 74.5451 74.1864 70.8219 73.2699 69.218ZM80.3753 34.24V41.839C76.0888 41.6297 72.3438 40.383 69.7248 38.5795L80.3753 34.24ZM78.2718 32.3241L67.5686 36.685C66.3891 35.3294 65.7796 33.8441 65.7796 32.3304C65.7796 30.8007 66.4021 29.2996 67.6065 27.9324L78.2718 32.3241Z" fill="black"/>
</svg>
