<svg width="164" height="124" viewBox="0 0 164 124" fill="none" xmlns="http://www.w3.org/2000/svg">
<path d="M0.988281 22C0.988281 9.84974 10.8312 0 22.9731 0H141.891C154.033 0 163.876 9.84974 163.876 22V102C163.876 114.15 154.033 124 141.891 124H22.9731C10.8312 124 0.988281 114.15 0.988281 102V22Z" fill="#C5A869"/>
<path fill-rule="evenodd" clip-rule="evenodd" d="M141.891 11H22.9731C16.9022 11 11.9807 15.9249 11.9807 22V102C11.9807 108.075 16.9022 113 22.9731 113H141.891C147.962 113 152.883 108.075 152.883 102V22C152.883 15.9249 147.962 11 141.891 11ZM22.9731 0C10.8312 0 0.988281 9.84974 0.988281 22V102C0.988281 114.15 10.8312 124 22.9731 124H141.891C154.033 124 163.876 114.15 163.876 102V22C163.876 9.84974 154.033 0 141.891 0H22.9731Z" fill="#A68C55"/>
<path fill-rule="evenodd" clip-rule="evenodd" d="M66.9203 49.4279C66.9203 42.1228 72.9724 36.2012 80.2775 36.2012V30.8455H77.0274L82.4048 20.6816L87.2504 30.8455H84.5912V36.2012C91.8963 36.2012 97.9212 42.1228 97.9212 49.4279V59.4158H103.277V56.1657L113.441 61.5431L103.277 66.3887V63.7295H97.9212V74.5701C97.9212 81.8752 91.9993 87.7971 84.6942 87.7971H84.591V93.1527H87.2501L82.4045 103.317L77.0271 93.1527H80.2772V87.7971H80.1474C72.8423 87.7971 66.9203 81.8751 66.9203 74.5701V63.7295H61.5663V66.3886L51.4023 61.5431L61.5663 56.1656V59.4157H66.9203V49.4279ZM84.6942 44.0169H80.1474C77.1589 44.0169 74.7363 46.4395 74.7363 49.4279V74.5701C74.7363 77.5585 77.1589 79.9811 80.1474 79.9811H84.6942C87.6826 79.9811 90.1052 77.5585 90.1052 74.5701V49.4279C90.1052 46.4395 87.6826 44.0169 84.6942 44.0169Z" fill="black"/>
</svg>
