<svg width="164" height="168" viewBox="0 0 164 168" fill="none" xmlns="http://www.w3.org/2000/svg">
<path d="M78.8485 162.871C74.4253 162.674 70.8859 163.858 68.9196 165.238C66.9533 166.619 66.1668 168 64.987 168C63.8072 168 61.0543 166.619 61.0543 165.436C61.659 164.861 62.5342 164.338 63.5788 163.858C68.9873 161.374 78.936 160.051 79.3889 158.729C79.2709 160.007 79.092 161.36 78.8485 162.871Z" fill="#CBC5C5"/>
<path d="M79.3889 151.228C79.39 151.242 79.3912 151.255 79.3923 151.269C79.51 152.937 75.9845 149.038 74.2287 145.907C72.459 142.751 71.4758 144.724 69.3129 145.907C67.1499 147.091 64.5937 146.696 64.987 148.077C65.3802 149.458 70.4927 149.852 71.4758 149.852C72.459 149.852 76.195 149.852 76.3917 151.036C76.5883 152.219 71.0826 153.206 70.0994 153.206C69.1162 153.206 66.1668 151.825 64.2004 150.247C62.2341 148.669 61.8408 145.513 61.8408 143.343C61.8408 141.173 61.8408 141.173 64.5937 141.173C67.1499 141.173 69.5095 138.411 72.6556 138.411C74.4253 140.581 77.9647 143.935 79.3889 151.228Z" fill="#CBC5C5"/>
<path d="M60.0711 143.343C60.0711 140.778 61.2509 141.962 61.2509 140.778C61.1198 140.252 60.4644 139.003 58.8913 138.214C56.925 137.228 53.7789 135.847 54.5654 139.792C55.1946 142.948 55.7452 144.395 55.9418 144.724C57.989 145.773 59.1474 146.515 61.2509 148.274C61.4476 145.907 60.0711 144.447 60.0711 143.343Z" fill="#CBC5C5"/>
<path d="M60.0711 148.471C57.3183 145.907 51.026 143.343 45.9136 143.343C45.9136 144.329 45.5203 145.513 46.8967 146.499C48.2732 147.485 50.0429 146.302 52.2058 147.288C53.9362 148.077 55.4175 150.115 55.9418 151.036C56.8187 149.599 57.7509 149.046 60.0711 148.471Z" fill="#CBC5C5"/>
<path d="M50.0429 153.206C51.4586 152.732 51.8126 149.852 51.8126 148.471C49.0597 146.499 48.0765 150.247 40.2112 145.513C39.5181 146.941 39.5501 147.809 39.818 151.228C41.0767 152.43 41.8952 153.014 43.7506 153.797C44.4966 149.23 45.6965 147.912 50.0429 149.063C48.8239 150.705 48.7901 151.564 50.0429 153.206Z" fill="#CBC5C5"/>
<path d="M62.6274 162.082C62.6274 161.096 60.4644 158.729 59.6779 158.729C58.8913 158.729 56.7284 162.871 53.3856 162.871C51.0219 162.871 47.2818 161.885 45.2937 159.912C44.8388 157.465 44.8136 155.77 45.0535 154.587C45.4515 152.624 46.5791 152.071 47.6833 151.825C47.6833 153.403 50.4361 155.178 52.2058 155.178C54.7621 155.178 58.3014 149.852 59.2846 149.852C60.2678 149.852 63.2173 152.022 63.8072 155.178C68.5263 155.376 75.0152 153.206 79.5293 153.403C79.5621 154.203 79.5716 154.985 79.5567 155.77C74.622 156.165 65.5769 162.674 62.6274 162.082Z" fill="#CBC5C5"/>
<path d="M51.4193 142.751C51.1047 141.489 51.4848 140.515 51.8126 140.187C48.4719 132.94 45.4464 130.03 39.6213 125.392C38.7874 132.222 39.9688 135.552 47.29 142.554L51.4193 142.751Z" fill="#CBC5C5"/>
<path d="M33.1325 143.343C33.1325 143.996 33.6607 144.526 34.3122 144.526C34.9638 144.526 35.492 143.996 35.492 143.343C35.492 142.689 34.9638 142.159 34.3122 142.159C33.6607 142.159 33.1325 142.689 33.1325 143.343Z" fill="#CBC5C5"/>
<path d="M35.8853 129.337C35.8853 129.991 36.4135 130.521 37.0651 130.521C37.7167 130.521 38.2449 129.991 38.2449 129.337C38.2449 128.684 37.7167 128.154 37.0651 128.154C36.4135 128.154 35.8853 128.684 35.8853 129.337Z" fill="#CBC5C5"/>
<path d="M22.3176 112.965C22.3176 113.619 22.8459 114.149 23.4974 114.149C24.149 114.149 24.6772 113.619 24.6772 112.965C24.6772 112.311 24.149 111.782 23.4974 111.782C22.8459 111.782 22.3176 112.311 22.3176 112.965Z" fill="#CBC5C5"/>
<path d="M5.99713 102.905C5.99713 103.559 6.52534 104.088 7.17692 104.088C7.82851 104.088 8.35672 103.559 8.35672 102.905C8.35672 102.251 7.82851 101.721 7.17692 101.721C6.52534 101.721 5.99713 102.251 5.99713 102.905Z" fill="#CBC5C5"/>
<path d="M15.6321 97.7762C15.6321 98.4299 16.1603 98.9598 16.8119 98.9598C17.4635 98.9598 17.9917 98.4299 17.9917 97.7762C17.9917 97.1225 17.4635 96.5927 16.8119 96.5927C16.1603 96.5927 15.6321 97.1225 15.6321 97.7762Z" fill="#CBC5C5"/>
<path d="M14.0591 82.9819C14.0591 83.6355 14.5873 84.1654 15.2389 84.1654C15.8904 84.1654 16.4187 83.6355 16.4187 82.9819C16.4187 82.3282 15.8904 81.7983 15.2389 81.7983C14.5873 81.7983 14.0591 82.3282 14.0591 82.9819Z" fill="#CBC5C5"/>
<path d="M9.92978 60.0999C9.92978 60.7536 10.458 61.2835 11.1096 61.2835C11.7612 61.2835 12.2894 60.7536 12.2894 60.0999C12.2894 59.4463 11.7612 58.9164 11.1096 58.9164C10.458 58.9164 9.92978 59.4463 9.92978 60.0999Z" fill="#CBC5C5"/>
<path d="M18.9749 64.0451C18.9749 64.6988 19.5031 65.2287 20.1547 65.2287C20.8063 65.2287 21.3345 64.6988 21.3345 64.0451C21.3345 63.3914 20.8063 62.8616 20.1547 62.8616C19.5031 62.8616 18.9749 63.3914 18.9749 64.0451Z" fill="#CBC5C5"/>
<path d="M13.8624 46.4892C13.8624 47.1428 14.3906 47.6727 15.0422 47.6727C15.6938 47.6727 16.222 47.1428 16.222 46.4892C16.222 45.8355 15.6938 45.3056 15.0422 45.3056C14.3906 45.3056 13.8624 45.8355 13.8624 46.4892Z" fill="#CBC5C5"/>
<path d="M21.9244 40.9659C21.9244 41.6196 22.4526 42.1495 23.1042 42.1495C23.7558 42.1495 24.284 41.6196 24.284 40.9659C24.284 40.3123 23.7558 39.7824 23.1042 39.7824C22.4526 39.7824 21.9244 40.3123 21.9244 40.9659Z" fill="#CBC5C5"/>
<path d="M35.492 36.8235C35.492 37.4772 36.0203 38.0071 36.6718 38.0071C37.3234 38.0071 37.8516 37.4772 37.8516 36.8235C37.8516 36.1699 37.3234 35.64 36.6718 35.64C36.0203 35.64 35.492 36.1699 35.492 36.8235Z" fill="#CBC5C5"/>
<path d="M49.453 21.2401C49.453 21.8938 49.9812 22.4237 50.6328 22.4237C51.2843 22.4237 51.8126 21.8938 51.8126 21.2401C51.8126 20.5865 51.2843 20.0566 50.6328 20.0566C49.9812 20.0566 49.453 20.5865 49.453 21.2401Z" fill="#CBC5C5"/>
<path d="M40.2112 14.3361C40.2112 14.9898 40.7394 15.5197 41.391 15.5197C42.0426 15.5197 42.5708 14.9898 42.5708 14.3361C42.5708 13.6825 42.0426 13.1526 41.391 13.1526C40.7394 13.1526 40.2112 13.6825 40.2112 14.3361Z" fill="#CBC5C5"/>
<path d="M65.1836 13.1526C65.1836 13.8062 65.7118 14.3361 66.3634 14.3361C67.015 14.3361 67.5432 13.8062 67.5432 13.1526C67.5432 12.4989 67.015 11.969 66.3634 11.969C65.7118 11.969 65.1836 12.4989 65.1836 13.1526Z" fill="#CBC5C5"/>
<path d="M64.3971 3.68419C64.3971 4.33785 64.9253 4.86774 65.5769 4.86774C66.2284 4.86774 66.7567 4.33785 66.7567 3.68419C66.7567 3.03054 66.2284 2.50065 65.5769 2.50065C64.9253 2.50065 64.3971 3.03054 64.3971 3.68419Z" fill="#CBC5C5"/>
<path d="M44.7338 142.159C44.4716 142.883 44.1046 144.566 44.7338 145.513C38.0446 144.273 27.1078 134.609 27.8234 127.365C33.9278 129.111 37.5669 132.207 44.7338 142.159Z" fill="#CBC5C5"/>
<path d="M37.0651 125.984C36.6718 120.264 28.6099 109.809 27.0368 110.598C25.4638 111.387 26.2503 125.59 32.7392 128.351C33.2111 127.247 35.8198 126.313 37.0651 125.984Z" fill="#CBC5C5"/>
<path d="M32.5426 140.384C29.3964 137.031 23.6941 133.677 18.385 134.466C19.7614 139.792 28.02 142.948 31.3628 144.526C30.9695 143.343 31.5594 140.976 32.5426 140.384Z" fill="#CBC5C5"/>
<path d="M38.2449 149.852C37.655 148.077 38.6382 146.302 38.0483 146.104C37.5764 145.947 34.7055 145.776 33.3291 145.71C34.6666 147.434 35.7094 148.353 38.2449 149.852Z" fill="#CBC5C5"/>
<path d="M27.8234 125.984C27.0368 121.842 20.7446 111.584 17.9917 112.571C15.2389 113.557 18.9749 128.746 26.6436 132.494C24.6772 128.351 25.8077 125.984 27.8234 125.984Z" fill="#CBC5C5"/>
<path d="M25.6604 110.203C25.2671 104.483 26.2503 101.919 24.284 97.7762C22.3176 93.6338 21.7277 94.0283 20.9412 94.2256C20.1547 94.4228 18.1884 100.341 18.9749 104.68C19.6041 108.152 20.5479 111.387 20.9412 112.571C21.2689 111.847 22.1603 110.282 23.1042 109.809C24.048 109.336 25.2016 109.875 25.6604 110.203Z" fill="#CBC5C5"/>
<path d="M18.9749 111.782C18.7985 102.905 12.8793 94.8371 11.1096 95.0146C7.17692 95.4091 10.323 113.754 15.6321 116.121C15.6321 111.782 16.8119 110.203 18.9749 111.782Z" fill="#CBC5C5"/>
<path d="M24.6772 133.085C18.7783 129.337 19.9581 126.576 16.4187 123.222C13.5871 120.54 9.86424 119.475 8.35672 119.277C11.3612 127.891 14.651 131.19 24.6772 133.085Z" fill="#CBC5C5"/>
<path d="M14.8456 119.869C13.6658 114.442 5.60386 102.905 3.24427 104.088C3.24427 106.653 7.4656 113.754 8.35672 117.699C11.3455 118.015 13.928 119.277 14.8456 119.869Z" fill="#CBC5C5"/>
<path d="M22.7109 80.2203C18.9749 81.7983 14.0591 87.5188 15.2389 95.8036C16.4973 94.2256 17.8606 94.6201 18.385 95.0146C19.0275 93.2603 19.5429 92.6724 20.9412 92.8448C23.205 87.8957 23.338 85.1346 22.7109 80.2203Z" fill="#CBC5C5"/>
<path d="M10.323 73.7107C7.76682 76.2751 5.23362 87.1285 8.35672 96.5927C10.5011 93.3904 11.5371 93.9851 13.4692 93.831C13.9855 90.8812 14.1079 87.8919 13.9648 85.1517C13.6685 84.8229 13.0366 83.9287 12.8793 82.9819C12.722 82.035 13.2452 81.2723 13.5264 81.0093C12.8364 76.7859 11.5325 73.8226 10.323 73.7107Z" fill="#CBC5C5"/>
<path d="M2.2611 87.1243C2.2611 92.8448 3.18277 95.8816 3.24427 102.313C3.83416 103.694 5.99713 103.497 5.60386 99.5515C5.88508 100.492 7.68878 101.396 7.37355 96.7899C7.05833 92.1842 2.2611 87.1243 2.2611 87.1243Z" fill="#CBC5C5"/>
<path d="M24.8739 65.8204C24.6996 73.0156 23.0329 75.8925 18.9749 80.2203C18.0197 78.3103 16.222 81.0093 14.4523 79.234C18.385 72.1327 16.8119 69.9628 20.1547 67.793C22.0271 66.3731 23.0508 66.1477 24.8739 65.8204Z" fill="#CBC5C5"/>
<path d="M16.222 57.3383C10.323 63.4533 6.94236 67.3427 8.35672 75.2888C10.3768 71.1041 11.6547 72.1341 14.0591 77.0641C17.6107 69.2726 18.413 64.948 16.222 57.3383Z" fill="#CBC5C5"/>
<path d="M5.60386 89.0969C6.29022 83.1491 6.58702 80.2203 5.99713 77.0641C5.08621 74.8731 4.16124 73.8268 1.6712 72.3299C0.721942 77.4953 0.800178 80.3813 1.6712 85.5462C3.89213 86.2633 4.55006 87.2364 5.60386 89.0969Z" fill="#CBC5C5"/>
<path d="M6.78366 75.2888C5.99713 68.7793 8.74998 65.2287 8.74998 61.2835C8.74998 57.3383 5.99713 54.9712 5.99713 54.9712C4.21956 62.0223 3.96768 65.7562 3.83416 72.3299C5.01359 72.774 5.66467 73.4615 6.78366 75.2888Z" fill="#CBC5C5"/>
<path d="M30.3796 51.8151C28.6869 57.2269 27.2451 59.9237 23.1042 63.6506C22.5372 62.0294 22.1373 61.6046 21.3345 61.2835C22.6998 58.5754 22.9143 57.0644 23.1042 54.3795C27.244 51.6044 28.3708 51.6782 30.3796 51.8151Z" fill="#CBC5C5"/>
<path d="M19.5648 60.0999C17.005 55.3277 15.8239 55.1625 13.9648 57.3383C14.0594 53.2658 14.7315 51.5823 16.222 48.8563C17.6075 48.6541 17.8578 47.8016 17.9917 46.4892C20.1189 44.2557 21.2132 43.7567 23.1042 43.333C22.9857 50.4158 22.4119 54.1738 19.5648 60.0999Z" fill="#CBC5C5"/>
<path d="M12.2894 44.1221C9.50019 46.5605 8.3716 48.6122 7.57019 54.1822C8.32647 54.8299 8.70046 55.7449 9.33988 57.7328C10.2366 56.7355 10.7547 56.5943 11.6995 56.9438C13.6166 52.038 13.6192 49.2322 12.2894 44.1221Z" fill="#CBC5C5"/>
<path d="M23.6941 52.4069C24.8438 44.756 30.3796 38.9934 35.492 38.9934C37.4584 38.9934 38.5726 37.0208 39.2281 38.0071C39.5796 38.536 36.9109 42.9503 33.1325 46.6864C29.8658 49.9165 25.6087 52.5898 23.6941 52.4069Z" fill="#CBC5C5"/>
<path d="M35.8853 26.5661C28.9293 28.2405 25.8945 30.3062 23.1042 37.4153C25.1409 39.2253 26.6714 39.9846 24.284 44.7138C32.4921 38.2421 34.5705 34.1954 35.8853 26.5661Z" fill="#CBC5C5"/>
<path d="M21.9244 29.1305C17.1282 33.587 15.2379 36.5575 13.0759 42.544C13.0735 43.5088 13.134 43.9981 13.6658 44.5166C14.5551 43.9986 15.29 43.8603 17.4018 44.1221C21.4778 38.0764 22.2074 34.8154 21.9244 29.1305Z" fill="#CBC5C5"/>
<path d="M48.6664 17.295C39.7803 17.7883 35.8879 19.7904 30.9695 26.5661C36.6383 24.4314 37.9851 24.8229 37.0651 29.1305C43.6647 25.259 45.8189 22.5242 48.6664 17.295Z" fill="#CBC5C5"/>
<path d="M39.0314 14.1389C38.6382 17.6895 29.5931 24.5935 22.9075 34.2592C25.2671 27.3551 26.0682 26.0202 23.1042 27.9469C28.6005 18.9581 32.1399 16.1937 39.0314 14.1389Z" fill="#CBC5C5"/>
<path d="M51.8126 25.9743C50.4102 24.4224 49.4552 23.8281 46.5035 24.199C42.7386 27.5208 40.7028 28.6647 37.2288 30.6165L37.0651 30.7085C36.4482 31.5434 36.1669 32.3077 35.8853 33.6674C41.3631 33.6789 44.877 31.9484 51.8126 25.9743Z" fill="#CBC5C5"/>
<path d="M58.6947 17.295C54.9587 18.8731 50.0429 18.2813 50.0429 18.2813C49.9091 15.3616 48.302 15.7372 46.1102 15.5197C53.3632 9.82028 57.6778 8.43689 65.9701 10.3707C62.0375 11.969 64.3971 14.8864 58.6947 17.295Z" fill="#CBC5C5"/>
<path d="M52.0092 23.2127C59.3435 23.14 62.5787 21.9805 67.5432 18.8731C66.6588 16.5173 65.7451 15.9991 63.0206 15.7169C60.5282 19.0471 58.2678 20.0676 53.3856 21.0429C53.1954 22.0914 52.9286 22.6556 52.0092 23.2127Z" fill="#CBC5C5"/>
<path d="M63.0206 2.89516C62.4197 5.76179 61.6891 7.22155 57.7115 8.8129C54.2148 9.6234 53.104 9.01722 45.5203 14.9279C44.8853 15.3274 44.5407 15.4586 43.9473 15.5197C44.0359 13.868 43.884 13.0898 43.3574 11.969C50.0854 6.06275 54.566 4.51149 63.0206 2.89516Z" fill="#CBC5C5"/>
<path d="M81.5041 15.5197C80.9774 14.0209 80.3563 13.3457 78.7513 12.3635C76.8439 13.445 74.873 13.6784 69.9028 13.5471C68.6402 14.2065 68.0945 14.6289 67.5432 15.5197C72.4375 17.598 75.5166 17.591 81.5041 15.5197Z" fill="#CBC5C5"/>
<path d="M81.5041 0.133552C80.5712 1.60732 79.8867 2.43004 78.1614 3.88145C73.9285 3.61194 71.7171 3.90341 67.9364 4.86774C68.1406 3.94535 68.089 3.42357 67.9364 2.50065C74.0303 0.082413 76.9064 -0.247386 81.5041 0.133552Z" fill="#CBC5C5"/>
<path d="M86.1281 162.871C90.5512 162.674 94.0906 163.858 96.057 165.238C98.0233 166.619 98.8098 168 99.9896 168C101.169 168 103.922 166.619 103.922 165.436C103.318 164.861 102.442 164.338 101.398 163.858C95.9893 161.374 86.0406 160.051 85.5877 158.729C85.7056 160.007 85.8845 161.36 86.1281 162.871Z" fill="#CBC5C5"/>
<path d="M85.5877 151.228C85.5865 151.242 85.5854 151.255 85.5842 151.269C85.4666 152.937 88.9921 149.038 90.7479 145.907C92.5176 142.751 93.5007 144.724 95.6637 145.907C97.8266 147.091 100.383 146.696 99.9896 148.077C99.5963 149.458 94.4839 149.852 93.5007 149.852C92.5176 149.852 88.7815 149.852 88.5849 151.036C88.3883 152.219 93.894 153.206 94.8772 153.206C95.8603 153.206 98.8098 151.825 100.776 150.247C102.742 148.669 103.136 145.513 103.136 143.343C103.136 141.173 103.136 141.173 100.383 141.173C97.8266 141.173 95.4671 138.411 92.3209 138.411C90.5512 140.581 87.0118 143.935 85.5877 151.228Z" fill="#CBC5C5"/>
<path d="M104.905 143.343C104.905 140.778 103.726 141.962 103.726 140.778C103.857 140.252 104.512 139.003 106.085 138.214C108.052 137.228 111.198 135.847 110.411 139.792C109.782 142.948 109.231 144.395 109.035 144.724C106.988 145.773 105.829 146.515 103.726 148.274C103.529 145.907 104.905 144.447 104.905 143.343Z" fill="#CBC5C5"/>
<path d="M104.905 148.471C107.658 145.907 113.951 143.343 119.063 143.343C119.063 144.329 119.456 145.513 118.08 146.499C116.703 147.485 114.934 146.302 112.771 147.288C111.04 148.077 109.559 150.115 109.035 151.036C108.158 149.599 107.226 149.046 104.905 148.471Z" fill="#CBC5C5"/>
<path d="M114.934 153.206C113.518 152.732 113.164 149.852 113.164 148.471C115.917 146.499 116.9 150.247 124.765 145.513C125.458 146.941 125.426 147.809 125.159 151.228C123.9 152.43 123.081 153.014 121.226 153.797C120.48 149.23 119.28 147.912 114.934 149.063C116.153 150.705 116.186 151.564 114.934 153.206Z" fill="#CBC5C5"/>
<path d="M102.349 162.082C102.349 161.096 104.512 158.729 105.299 158.729C106.085 158.729 108.248 162.871 111.591 162.871C113.955 162.871 117.695 161.885 119.683 159.912C120.138 157.465 120.163 155.77 119.923 154.587C119.525 152.624 118.398 152.071 117.293 151.825C117.293 153.403 114.54 155.178 112.771 155.178C110.215 155.178 106.675 149.852 105.692 149.852C104.709 149.852 101.759 152.022 101.169 155.178C96.4502 155.376 89.9613 153.206 85.4473 153.403C85.4144 154.203 85.405 154.985 85.4199 155.77C90.3546 156.165 99.3997 162.674 102.349 162.082Z" fill="#CBC5C5"/>
<path d="M113.557 142.751C113.872 141.489 113.492 140.515 113.164 140.187C116.505 132.94 119.53 130.03 125.355 125.392C126.189 132.222 125.008 135.552 117.687 142.554L113.557 142.751Z" fill="#CBC5C5"/>
<path d="M131.844 143.343C131.844 143.996 131.316 144.526 130.664 144.526C130.013 144.526 129.485 143.996 129.485 143.343C129.485 142.689 130.013 142.159 130.664 142.159C131.316 142.159 131.844 142.689 131.844 143.343Z" fill="#CBC5C5"/>
<path d="M129.091 129.337C129.091 129.991 128.563 130.521 127.911 130.521C127.26 130.521 126.732 129.991 126.732 129.337C126.732 128.684 127.26 128.154 127.911 128.154C128.563 128.154 129.091 128.684 129.091 129.337Z" fill="#CBC5C5"/>
<path d="M142.659 112.965C142.659 113.619 142.131 114.149 141.479 114.149C140.828 114.149 140.299 113.619 140.299 112.965C140.299 112.311 140.828 111.782 141.479 111.782C142.131 111.782 142.659 112.311 142.659 112.965Z" fill="#CBC5C5"/>
<path d="M158.979 102.905C158.979 103.559 158.451 104.088 157.8 104.088C157.148 104.088 156.62 103.559 156.62 102.905C156.62 102.251 157.148 101.721 157.8 101.721C158.451 101.721 158.979 102.251 158.979 102.905Z" fill="#CBC5C5"/>
<path d="M149.344 97.7762C149.344 98.4299 148.816 98.9598 148.165 98.9598C147.513 98.9598 146.985 98.4299 146.985 97.7762C146.985 97.1225 147.513 96.5927 148.165 96.5927C148.816 96.5927 149.344 97.1225 149.344 97.7762Z" fill="#CBC5C5"/>
<path d="M150.917 82.9819C150.917 83.6355 150.389 84.1654 149.738 84.1654C149.086 84.1654 148.558 83.6355 148.558 82.9819C148.558 82.3282 149.086 81.7983 149.738 81.7983C150.389 81.7983 150.917 82.3282 150.917 82.9819Z" fill="#CBC5C5"/>
<path d="M155.047 60.0999C155.047 60.7536 154.519 61.2835 153.867 61.2835C153.215 61.2835 152.687 60.7536 152.687 60.0999C152.687 59.4463 153.215 58.9164 153.867 58.9164C154.519 58.9164 155.047 59.4463 155.047 60.0999Z" fill="#CBC5C5"/>
<path d="M146.002 64.0451C146.002 64.6988 145.473 65.2287 144.822 65.2287C144.17 65.2287 143.642 64.6988 143.642 64.0451C143.642 63.3914 144.17 62.8616 144.822 62.8616C145.473 62.8616 146.002 63.3914 146.002 64.0451Z" fill="#CBC5C5"/>
<path d="M151.114 46.4892C151.114 47.1428 150.586 47.6727 149.934 47.6727C149.283 47.6727 148.755 47.1428 148.755 46.4892C148.755 45.8355 149.283 45.3056 149.934 45.3056C150.586 45.3056 151.114 45.8355 151.114 46.4892Z" fill="#CBC5C5"/>
<path d="M143.052 40.9659C143.052 41.6196 142.524 42.1495 141.872 42.1495C141.221 42.1495 140.693 41.6196 140.693 40.9659C140.693 40.3123 141.221 39.7824 141.872 39.7824C142.524 39.7824 143.052 40.3123 143.052 40.9659Z" fill="#CBC5C5"/>
<path d="M129.485 36.8235C129.485 37.4772 128.956 38.0071 128.305 38.0071C127.653 38.0071 127.125 37.4772 127.125 36.8235C127.125 36.1699 127.653 35.64 128.305 35.64C128.956 35.64 129.485 36.1699 129.485 36.8235Z" fill="#CBC5C5"/>
<path d="M115.524 21.2401C115.524 21.8938 114.995 22.4237 114.344 22.4237C113.692 22.4237 113.164 21.8938 113.164 21.2401C113.164 20.5865 113.692 20.0566 114.344 20.0566C114.995 20.0566 115.524 20.5865 115.524 21.2401Z" fill="#CBC5C5"/>
<path d="M124.765 14.3361C124.765 14.9898 124.237 15.5197 123.586 15.5197C122.934 15.5197 122.406 14.9898 122.406 14.3361C122.406 13.6825 122.934 13.1526 123.586 13.1526C124.237 13.1526 124.765 13.6825 124.765 14.3361Z" fill="#CBC5C5"/>
<path d="M99.793 13.1526C99.793 13.8062 99.2648 14.3361 98.6132 14.3361C97.9616 14.3361 97.4334 13.8062 97.4334 13.1526C97.4334 12.4989 97.9616 11.969 98.6132 11.969C99.2648 11.969 99.793 12.4989 99.793 13.1526Z" fill="#CBC5C5"/>
<path d="M100.58 3.68419C100.58 4.33785 100.051 4.86774 99.3997 4.86774C98.7481 4.86774 98.2199 4.33785 98.2199 3.68419C98.2199 3.03054 98.7481 2.50065 99.3997 2.50065C100.051 2.50065 100.58 3.03054 100.58 3.68419Z" fill="#CBC5C5"/>
<path d="M120.243 142.159C120.505 142.883 120.872 144.566 120.243 145.513C126.932 144.273 137.869 134.609 137.153 127.365C131.049 129.111 127.41 132.207 120.243 142.159Z" fill="#CBC5C5"/>
<path d="M127.911 125.984C128.305 120.264 136.367 109.809 137.94 110.598C139.513 111.387 138.726 125.59 132.237 128.351C131.765 127.247 129.157 126.313 127.911 125.984Z" fill="#CBC5C5"/>
<path d="M132.434 140.384C135.58 137.031 141.283 133.677 146.592 134.466C145.215 139.792 136.957 142.948 133.614 144.526C134.007 143.343 133.417 140.976 132.434 140.384Z" fill="#CBC5C5"/>
<path d="M126.732 149.852C127.322 148.077 126.338 146.302 126.928 146.104C127.4 145.947 130.271 145.776 131.647 145.71C130.31 147.434 129.267 148.353 126.732 149.852Z" fill="#CBC5C5"/>
<path d="M137.153 125.984C137.94 121.842 144.232 111.584 146.985 112.571C149.738 113.557 146.002 128.746 138.333 132.494C140.299 128.351 139.169 125.984 137.153 125.984Z" fill="#CBC5C5"/>
<path d="M139.316 110.203C139.709 104.483 138.726 101.919 140.693 97.7762C142.659 93.6338 143.249 94.0283 144.035 94.2256C144.822 94.4228 146.788 100.341 146.002 104.68C145.372 108.152 144.429 111.387 144.035 112.571C143.708 111.847 142.816 110.282 141.872 109.809C140.929 109.336 139.775 109.875 139.316 110.203Z" fill="#CBC5C5"/>
<path d="M146.002 111.782C146.178 102.905 152.097 94.8371 153.867 95.0146C157.8 95.4091 154.654 113.754 149.344 116.121C149.344 111.782 148.165 110.203 146.002 111.782Z" fill="#CBC5C5"/>
<path d="M140.299 133.085C146.198 129.337 145.019 126.576 148.558 123.222C151.389 120.54 155.112 119.475 156.62 119.277C153.615 127.891 150.326 131.19 140.299 133.085Z" fill="#CBC5C5"/>
<path d="M150.131 119.869C151.311 114.442 159.373 102.905 161.732 104.088C161.732 106.653 157.511 113.754 156.62 117.699C153.631 118.015 151.049 119.277 150.131 119.869Z" fill="#CBC5C5"/>
<path d="M142.266 80.2203C146.002 81.7983 150.917 87.5188 149.738 95.8036C148.479 94.2256 147.116 94.6201 146.592 95.0146C145.949 93.2603 145.434 92.6724 144.035 92.8448C141.772 87.8957 141.639 85.1346 142.266 80.2203Z" fill="#CBC5C5"/>
<path d="M154.654 73.7107C157.21 76.2751 159.743 87.1285 156.62 96.5927C154.475 93.3904 153.439 93.9851 151.507 93.831C150.991 90.8812 150.869 87.8919 151.012 85.1517C151.308 84.8229 151.94 83.9287 152.097 82.9819C152.255 82.035 151.731 81.2723 151.45 81.0093C152.14 76.7859 153.444 73.8226 154.654 73.7107Z" fill="#CBC5C5"/>
<path d="M162.715 87.1243C162.715 92.8448 161.794 95.8816 161.732 102.313C161.142 103.694 158.979 103.497 159.373 99.5515C159.091 100.492 157.288 101.396 157.603 96.7899C157.918 92.1842 162.715 87.1243 162.715 87.1243Z" fill="#CBC5C5"/>
<path d="M140.103 65.8204C140.277 73.0156 141.944 75.8925 146.002 80.2203C146.957 78.3103 148.755 81.0093 150.524 79.234C146.592 72.1327 148.165 69.9628 144.822 67.793C142.949 66.3731 141.926 66.1477 140.103 65.8204Z" fill="#CBC5C5"/>
<path d="M148.755 57.3383C154.654 63.4533 158.034 67.3427 156.62 75.2888C154.6 71.1041 153.322 72.1341 150.917 77.0641C147.366 69.2726 146.564 64.948 148.755 57.3383Z" fill="#CBC5C5"/>
<path d="M159.373 89.0969C158.686 83.1491 158.39 80.2203 158.979 77.0641C159.89 74.8731 160.815 73.8268 163.305 72.3299C164.255 77.4953 164.176 80.3813 163.305 85.5462C161.084 86.2633 160.427 87.2364 159.373 89.0969Z" fill="#CBC5C5"/>
<path d="M158.193 75.2888C158.979 68.7793 156.227 65.2287 156.227 61.2835C156.227 57.3383 158.979 54.9712 158.979 54.9712C160.757 62.0223 161.009 65.7562 161.142 72.3299C159.963 72.774 159.312 73.4615 158.193 75.2888Z" fill="#CBC5C5"/>
<path d="M134.597 51.8151C136.29 57.2269 137.731 59.9237 141.872 63.6506C142.439 62.0294 142.839 61.6046 143.642 61.2835C142.277 58.5754 142.062 57.0644 141.872 54.3795C137.733 51.6044 136.606 51.6782 134.597 51.8151Z" fill="#CBC5C5"/>
<path d="M145.412 60.0999C147.972 55.3277 149.153 55.1625 151.012 57.3383C150.917 53.2658 150.245 51.5823 148.755 48.8563C147.369 48.6541 147.119 47.8016 146.985 46.4892C144.858 44.2557 143.763 43.7567 141.872 43.333C141.991 50.4158 142.565 54.1738 145.412 60.0999Z" fill="#CBC5C5"/>
<path d="M152.687 44.1221C155.476 46.5605 156.605 48.6122 157.406 54.1822C156.65 54.8299 156.276 55.7449 155.637 57.7328C154.74 56.7355 154.222 56.5943 153.277 56.9438C151.36 52.038 151.357 49.2322 152.687 44.1221Z" fill="#CBC5C5"/>
<path d="M141.282 52.4069C140.133 44.756 134.597 38.9934 129.485 38.9934C127.518 38.9934 126.404 37.0208 125.749 38.0071C125.397 38.536 128.066 42.9503 131.844 46.6864C135.111 49.9165 139.368 52.5898 141.282 52.4069Z" fill="#CBC5C5"/>
<path d="M129.091 26.5661C136.047 28.2405 139.082 30.3062 141.872 37.4153C139.836 39.2253 138.305 39.9846 140.693 44.7138C132.484 38.2421 130.406 34.1954 129.091 26.5661Z" fill="#CBC5C5"/>
<path d="M143.052 29.1305C147.848 33.587 149.739 36.5575 151.901 42.544C151.903 43.5088 151.843 43.9981 151.311 44.5166C150.421 43.9986 149.687 43.8603 147.575 44.1221C143.499 38.0764 142.769 34.8154 143.052 29.1305Z" fill="#CBC5C5"/>
<path d="M116.31 17.295C125.196 17.7883 129.089 19.7904 134.007 26.5661C128.338 24.4314 126.991 24.8229 127.911 29.1305C121.312 25.259 119.158 22.5242 116.31 17.295Z" fill="#CBC5C5"/>
<path d="M125.945 14.1389C126.338 17.6895 135.384 24.5935 142.069 34.2592C139.709 27.3551 138.908 26.0202 141.872 27.9469C136.376 18.9581 132.837 16.1937 125.945 14.1389Z" fill="#CBC5C5"/>
<path d="M113.164 25.9743C114.566 24.4224 115.521 23.8281 118.473 24.199C122.238 27.5208 124.274 28.6647 127.748 30.6165L127.911 30.7085C128.528 31.5434 128.81 32.3077 129.091 33.6674C123.613 33.6789 120.1 31.9484 113.164 25.9743Z" fill="#CBC5C5"/>
<path d="M106.282 17.295C110.018 18.8731 114.934 18.2813 114.934 18.2813C115.067 15.3616 116.675 15.7372 118.866 15.5197C111.613 9.82028 107.299 8.43689 99.0064 10.3707C102.939 11.969 100.58 14.8864 106.282 17.295Z" fill="#CBC5C5"/>
<path d="M112.967 23.2127C105.633 23.14 102.398 21.9805 97.4334 18.8731C98.3178 16.5173 99.2315 15.9991 101.956 15.7169C104.448 19.0471 106.709 20.0676 111.591 21.0429C111.781 22.0914 112.048 22.6556 112.967 23.2127Z" fill="#CBC5C5"/>
<path d="M101.956 2.89516C102.557 5.76179 103.287 7.22155 107.265 8.8129C110.762 9.6234 111.873 9.01722 119.456 14.9279C120.091 15.3274 120.436 15.4586 121.029 15.5197C120.941 13.868 121.093 13.0898 121.619 11.969C114.891 6.06275 110.411 4.51149 101.956 2.89516Z" fill="#CBC5C5"/>
<path d="M83.4725 15.5197C83.9992 14.0209 84.6203 13.3457 86.2253 12.3635C88.1327 13.445 90.1035 13.6784 95.0738 13.5471C96.3364 14.2065 96.8821 14.6289 97.4334 15.5197C92.5391 17.598 89.46 17.591 83.4725 15.5197Z" fill="#CBC5C5"/>
<path d="M83.4725 0.133552C84.4053 1.60732 85.0898 2.43004 86.8152 3.88145C91.048 3.61194 93.2595 3.90341 97.0401 4.86774C96.8359 3.94535 96.8876 3.42357 97.0401 2.50065C90.9463 0.082413 88.0702 -0.247386 83.4725 0.133552Z" fill="#CBC5C5"/>
<path d="M78.7513 163.463C78.7513 163.463 80.7186 163.858 82.4883 163.858C84.258 163.858 86.2253 163.463 86.2253 163.463C86.1918 163.263 86.1594 163.066 86.1281 162.871C85.8845 161.36 85.7056 160.007 85.5877 158.729C85.4935 157.709 85.4382 156.737 85.4199 155.77C85.405 154.985 85.4144 154.203 85.4473 153.403C85.4757 152.711 85.5215 152.004 85.5842 151.269L85.5877 151.228C85.7243 149.64 85.939 147.915 86.2253 145.907C86.2253 145.907 84.4546 145.513 82.4883 145.513C80.522 145.513 78.7513 145.907 78.7513 145.907C79.0376 147.915 79.2523 149.64 79.3889 151.228L79.3923 151.269C79.455 152.004 79.5009 152.711 79.5293 153.403C79.5621 154.203 79.5716 154.985 79.5567 155.77C79.5383 156.737 79.483 157.709 79.3889 158.729C79.2709 160.007 79.092 161.36 78.8485 162.871C78.8172 163.066 78.7848 163.263 78.7513 163.463Z" fill="#CBC5C5"/>
<path fill-rule="evenodd" clip-rule="evenodd" d="M78.7513 145.907C78.7513 145.907 80.522 145.513 82.4883 145.513C84.4546 145.513 86.2253 145.907 86.2253 145.907C85.939 147.915 85.7243 149.64 85.5877 151.228C87.0118 143.935 90.5512 140.581 92.3209 138.411C95.4671 138.411 97.8266 141.173 100.383 141.173C103.136 141.173 103.136 141.173 103.136 143.343C103.136 145.513 102.742 148.669 100.776 150.247C98.8098 151.825 95.8603 153.206 94.8772 153.206C93.894 153.206 88.3883 152.219 88.5849 151.036C88.7815 149.852 92.5176 149.852 93.5007 149.852C94.4839 149.852 99.5963 149.458 99.9896 148.077C100.383 146.696 97.8266 147.091 95.6637 145.907C93.5007 144.724 92.5176 142.751 90.7479 145.907C88.9921 149.038 85.4666 152.937 85.5842 151.269C85.5215 152.004 85.4757 152.711 85.4473 153.403C89.9613 153.206 96.4502 155.376 101.169 155.178C101.759 152.022 104.709 149.852 105.692 149.852C106.675 149.852 110.215 155.178 112.771 155.178C114.54 155.178 117.293 153.403 117.293 151.825C118.398 152.071 119.525 152.624 119.923 154.587L121.226 153.797C120.48 149.23 119.28 147.912 114.934 149.063C116.153 150.705 116.186 151.564 114.934 153.206C113.518 152.732 113.164 149.852 113.164 148.471C115.917 146.499 116.9 150.247 124.765 145.513C125.458 146.941 125.426 147.809 125.159 151.228L126.732 149.852C127.322 148.077 126.338 146.302 126.928 146.104C127.4 145.947 130.271 145.776 131.647 145.71L133.614 144.526C134.007 143.343 133.417 140.976 132.434 140.384C135.58 137.031 141.283 133.677 146.592 134.466L140.299 133.085C146.198 129.337 145.019 126.576 148.558 123.222C151.389 120.54 155.112 119.475 156.62 119.277V117.699C153.631 118.015 151.049 119.277 150.131 119.869C151.311 114.442 159.373 102.905 161.732 104.088V102.313C161.142 103.694 158.979 103.497 159.373 99.5515C159.091 100.492 157.288 101.396 157.603 96.7899C157.918 92.1842 162.715 87.1243 162.715 87.1243L163.305 85.5462C161.084 86.2633 160.427 87.2364 159.373 89.0969C158.686 83.1491 158.39 80.2203 158.979 77.0641C159.89 74.8731 160.815 73.8268 163.305 72.3299H161.142C159.963 72.774 159.312 73.4615 158.193 75.2888C158.979 68.7793 156.227 65.2287 156.227 61.2835C156.227 57.3383 158.979 54.9712 158.979 54.9712L157.406 54.1822C156.65 54.8299 156.276 55.7449 155.637 57.7328C154.74 56.7355 154.222 56.5943 153.277 56.9438C151.36 52.038 151.357 49.2322 152.687 44.1221L151.901 42.544C151.903 43.5088 151.843 43.9981 151.311 44.5166C150.421 43.9986 149.687 43.8603 147.575 44.1221C143.499 38.0764 142.769 34.8154 143.052 29.1305L141.872 27.9469C138.908 26.0202 139.709 27.3551 142.069 34.2592C135.384 24.5935 126.338 17.6895 125.945 14.1389L124.765 14.3361C124.765 14.9898 124.237 15.5197 123.586 15.5197C122.934 15.5197 122.406 14.9898 122.406 14.3361L121.619 11.969C121.093 13.0898 120.941 13.868 121.029 15.5197C120.436 15.4586 120.091 15.3274 119.456 14.9279C111.873 9.01722 110.762 9.6234 107.265 8.8129C103.287 7.22155 102.557 5.76179 101.956 2.89516L100.58 3.68419C100.58 4.33785 100.051 4.86774 99.3997 4.86774C98.7481 4.86774 98.2199 4.33785 98.2199 3.68419L97.0401 2.50065C96.8876 3.42357 96.8359 3.94535 97.0401 4.86774C93.2595 3.90341 91.048 3.61194 86.8152 3.88145C85.0898 2.43004 84.4053 1.60732 83.4725 0.133552H83.4714H81.5051H81.5041C80.5712 1.60732 79.8867 2.43004 78.1614 3.88145C73.9285 3.61194 71.7171 3.90341 67.9364 4.86774C68.1406 3.94535 68.089 3.42357 67.9364 2.50065L66.7567 3.68419C66.7567 4.33785 66.2284 4.86774 65.5769 4.86774C64.9253 4.86774 64.3971 4.33785 64.3971 3.68419L63.0206 2.89516C62.4197 5.76179 61.6891 7.22155 57.7115 8.8129C54.2148 9.6234 53.104 9.01722 45.5203 14.9279C44.8853 15.3274 44.5407 15.4586 43.9473 15.5197C44.0359 13.868 43.884 13.0898 43.3574 11.969L42.5708 14.3361C42.5708 14.9898 42.0426 15.5197 41.391 15.5197C40.7394 15.5197 40.2112 14.9898 40.2112 14.3361L39.0314 14.1389C38.6382 17.6895 29.5931 24.5935 22.9075 34.2592C25.2671 27.3551 26.0682 26.0202 23.1042 27.9469L21.9244 29.1305C22.2074 34.8154 21.4778 38.0764 17.4018 44.1221C15.29 43.8603 14.5551 43.9986 13.6658 44.5166C13.134 43.9981 13.0735 43.5088 13.0759 42.544L12.2894 44.1221C13.6192 49.2322 13.6166 52.038 11.6995 56.9438C10.7547 56.5943 10.2366 56.7355 9.33988 57.7328C8.70046 55.7449 8.32647 54.8299 7.57019 54.1822L5.99713 54.9712C5.99713 54.9712 8.74998 57.3383 8.74998 61.2835C8.74998 65.2287 5.99713 68.7793 6.78366 75.2888C5.66467 73.4615 5.01359 72.774 3.83416 72.3299H1.6712C4.16124 73.8268 5.08621 74.8731 5.99713 77.0641C6.58702 80.2203 6.29022 83.1491 5.60386 89.0969C4.55006 87.2364 3.89213 86.2633 1.6712 85.5462L2.2611 87.1243C2.2611 87.1243 7.05833 92.1842 7.37355 96.7899C7.68878 101.396 5.88508 100.492 5.60386 99.5515C5.99713 103.497 3.83416 103.694 3.24427 102.313V104.088C5.60386 102.905 13.6658 114.442 14.8456 119.869C13.928 119.277 11.3455 118.015 8.35672 117.699V119.277C9.86424 119.475 13.5871 120.54 16.4187 123.222C19.9581 126.576 18.7783 129.337 24.6772 133.085L18.385 134.466C23.6941 133.677 29.3964 137.031 32.5426 140.384C31.5594 140.976 30.9695 143.343 31.3628 144.526L33.3291 145.71C34.7055 145.776 37.5764 145.947 38.0483 146.104C38.6382 146.302 37.655 148.077 38.2449 149.852L39.818 151.228C39.5501 147.809 39.5181 146.941 40.2112 145.513C48.0765 150.247 49.0597 146.499 51.8126 148.471C51.8126 149.852 51.4586 152.732 50.0429 153.206C48.7901 151.564 48.8239 150.705 50.0429 149.063C45.6965 147.912 44.4966 149.23 43.7506 153.797L45.0535 154.587C45.4515 152.624 46.5791 152.071 47.6833 151.825C47.6833 153.403 50.4361 155.178 52.2058 155.178C54.7621 155.178 58.3014 149.852 59.2846 149.852C60.2678 149.852 63.2173 152.022 63.8072 155.178C68.5263 155.376 75.0152 153.206 79.5293 153.403C79.5009 152.711 79.455 152.004 79.3923 151.269C79.51 152.937 75.9845 149.038 74.2287 145.907C72.459 142.751 71.4758 144.724 69.3129 145.907C67.1499 147.091 64.5937 146.696 64.987 148.077C65.3802 149.458 70.4927 149.852 71.4758 149.852C72.459 149.852 76.195 149.852 76.3917 151.036C76.5883 152.219 71.0826 153.206 70.0994 153.206C69.1162 153.206 66.1668 151.825 64.2004 150.247C62.2341 148.669 61.8408 145.513 61.8408 143.343C61.8408 141.173 61.8408 141.173 64.5937 141.173C67.1499 141.173 69.5095 138.411 72.6556 138.411C74.4253 140.581 77.9647 143.935 79.3889 151.228C79.2523 149.64 79.0376 147.915 78.7513 145.907ZM61.2509 140.778C61.2509 141.962 60.0711 140.778 60.0711 143.343C60.0711 144.447 61.4476 145.907 61.2509 148.274C59.1474 146.515 57.989 145.773 55.9418 144.724C55.7452 144.395 55.1946 142.948 54.5654 139.792C53.7789 135.847 56.925 137.228 58.8913 138.214C60.4644 139.003 61.1198 140.252 61.2509 140.778ZM45.9136 143.343C51.026 143.343 57.3183 145.907 60.0711 148.471C57.7509 149.046 56.8187 149.599 55.9418 151.036C55.4175 150.115 53.9362 148.077 52.2058 147.288C50.0429 146.302 48.2732 147.485 46.8967 146.499C45.5203 145.513 45.9136 144.329 45.9136 143.343ZM51.8126 140.187C51.4848 140.515 51.1047 141.489 51.4193 142.751L47.29 142.554C39.9688 135.552 38.7874 132.222 39.6213 125.392C45.4464 130.03 48.4719 132.94 51.8126 140.187ZM44.7338 145.513C44.1046 144.566 44.4716 142.883 44.7338 142.159C37.5669 132.207 33.9278 129.111 27.8234 127.365C27.1078 134.609 38.0446 144.273 44.7338 145.513ZM34.3122 144.526C33.6607 144.526 33.1325 143.996 33.1325 143.343C33.1325 142.689 33.6607 142.159 34.3122 142.159C34.9638 142.159 35.492 142.689 35.492 143.343C35.492 143.996 34.9638 144.526 34.3122 144.526ZM37.0651 130.521C36.4135 130.521 35.8853 129.991 35.8853 129.337C35.8853 128.684 36.4135 128.154 37.0651 128.154C37.7167 128.154 38.2449 128.684 38.2449 129.337C38.2449 129.991 37.7167 130.521 37.0651 130.521ZM23.4974 114.149C22.8459 114.149 22.3176 113.619 22.3176 112.965C22.3176 112.311 22.8459 111.782 23.4974 111.782C24.149 111.782 24.6772 112.311 24.6772 112.965C24.6772 113.619 24.149 114.149 23.4974 114.149ZM7.17692 104.088C6.52534 104.088 5.99713 103.559 5.99713 102.905C5.99713 102.251 6.52534 101.721 7.17692 101.721C7.82851 101.721 8.35672 102.251 8.35672 102.905C8.35672 103.559 7.82851 104.088 7.17692 104.088ZM16.8119 98.9598C16.1603 98.9598 15.6321 98.4299 15.6321 97.7762C15.6321 97.1225 16.1603 96.5927 16.8119 96.5927C17.4635 96.5927 17.9917 97.1225 17.9917 97.7762C17.9917 98.4299 17.4635 98.9598 16.8119 98.9598ZM15.2389 84.1654C14.5873 84.1654 14.0591 83.6355 14.0591 82.9819C14.0591 82.3282 14.5873 81.7983 15.2389 81.7983C15.8904 81.7983 16.4187 82.3282 16.4187 82.9819C16.4187 83.6355 15.8904 84.1654 15.2389 84.1654ZM11.1096 61.2835C10.458 61.2835 9.92978 60.7536 9.92978 60.0999C9.92978 59.4463 10.458 58.9164 11.1096 58.9164C11.7612 58.9164 12.2894 59.4463 12.2894 60.0999C12.2894 60.7536 11.7612 61.2835 11.1096 61.2835ZM20.1547 65.2287C19.5031 65.2287 18.9749 64.6988 18.9749 64.0451C18.9749 63.3914 19.5031 62.8616 20.1547 62.8616C20.8063 62.8616 21.3345 63.3914 21.3345 64.0451C21.3345 64.6988 20.8063 65.2287 20.1547 65.2287ZM15.0422 47.6727C14.3906 47.6727 13.8624 47.1428 13.8624 46.4892C13.8624 45.8355 14.3906 45.3056 15.0422 45.3056C15.6938 45.3056 16.222 45.8355 16.222 46.4892C16.222 47.1428 15.6938 47.6727 15.0422 47.6727ZM23.1042 42.1495C22.4526 42.1495 21.9244 41.6196 21.9244 40.9659C21.9244 40.3123 22.4526 39.7824 23.1042 39.7824C23.7558 39.7824 24.284 40.3123 24.284 40.9659C24.284 41.6196 23.7558 42.1495 23.1042 42.1495ZM36.6718 38.0071C36.0203 38.0071 35.492 37.4772 35.492 36.8235C35.492 36.1699 36.0203 35.64 36.6718 35.64C37.3234 35.64 37.8516 36.1699 37.8516 36.8235C37.8516 37.4772 37.3234 38.0071 36.6718 38.0071ZM50.6328 22.4237C49.9812 22.4237 49.453 21.8938 49.453 21.2401C49.453 20.5865 49.9812 20.0566 50.6328 20.0566C51.2843 20.0566 51.8126 20.5865 51.8126 21.2401C51.8126 21.8938 51.2843 22.4237 50.6328 22.4237ZM66.3634 14.3361C65.7118 14.3361 65.1836 13.8062 65.1836 13.1526C65.1836 12.4989 65.7118 11.969 66.3634 11.969C67.015 11.969 67.5432 12.4989 67.5432 13.1526C67.5432 13.8062 67.015 14.3361 66.3634 14.3361ZM27.0368 110.598C28.6099 109.809 36.6718 120.264 37.0651 125.984C35.8198 126.313 33.2111 127.247 32.7392 128.351C26.2503 125.59 25.4638 111.387 27.0368 110.598ZM17.9917 112.571C20.7446 111.584 27.0368 121.842 27.8234 125.984C25.8077 125.984 24.6772 128.351 26.6436 132.494C18.9749 128.746 15.2389 113.557 17.9917 112.571ZM24.284 97.7762C26.2503 101.919 25.2671 104.483 25.6604 110.203C25.2016 109.875 24.048 109.336 23.1042 109.809C22.1603 110.282 21.2689 111.847 20.9412 112.571C20.5479 111.387 19.6041 108.152 18.9749 104.68C18.1884 100.341 20.1547 94.4228 20.9412 94.2256C21.7277 94.0283 22.3176 93.6338 24.284 97.7762ZM11.1096 95.0146C12.8793 94.8371 18.7985 102.905 18.9749 111.782C16.8119 110.203 15.6321 111.782 15.6321 116.121C10.323 113.754 7.17692 95.4091 11.1096 95.0146ZM15.2389 95.8036C14.0591 87.5188 18.9749 81.7983 22.7109 80.2203C23.338 85.1346 23.205 87.8957 20.9412 92.8448C19.5429 92.6724 19.0275 93.2603 18.385 95.0146C17.8606 94.6201 16.4973 94.2256 15.2389 95.8036ZM8.35672 96.5927C5.23362 87.1285 7.76682 76.2751 10.323 73.7107C11.5325 73.8226 12.8364 76.7859 13.5264 81.0093C13.2452 81.2723 12.722 82.035 12.8793 82.9819C13.0366 83.9287 13.6685 84.8229 13.9648 85.1517C14.1079 87.8919 13.9855 90.8812 13.4692 93.831C11.5371 93.9851 10.5011 93.3904 8.35672 96.5927ZM18.9749 80.2203C23.0329 75.8925 24.6996 73.0156 24.8739 65.8204C23.0508 66.1477 22.0271 66.3731 20.1547 67.793C16.8119 69.9628 18.385 72.1327 14.4523 79.234C16.222 81.0093 18.0197 78.3103 18.9749 80.2203ZM8.35672 75.2888C6.94236 67.3427 10.323 63.4533 16.222 57.3383C18.413 64.948 17.6107 69.2726 14.0591 77.0641C11.6547 72.1341 10.3768 71.1041 8.35672 75.2888ZM23.1042 63.6506C27.2451 59.9237 28.6869 57.2269 30.3796 51.8151C28.3708 51.6782 27.244 51.6044 23.1042 54.3795C22.9143 57.0644 22.6998 58.5754 21.3345 61.2835C22.1373 61.6046 22.5372 62.0294 23.1042 63.6506ZM13.9648 57.3383C15.8239 55.1625 17.005 55.3277 19.5648 60.0999C22.4119 54.1738 22.9857 50.4158 23.1042 43.333C21.2132 43.7567 20.1189 44.2557 17.9917 46.4892C17.8578 47.8016 17.6075 48.6541 16.222 48.8563C14.7315 51.5823 14.0594 53.2658 13.9648 57.3383ZM35.492 38.9934C30.3796 38.9934 24.8438 44.756 23.6941 52.4069C25.6087 52.5898 29.8658 49.9165 33.1325 46.6864C36.9109 42.9503 39.5796 38.536 39.2281 38.0071C38.5726 37.0208 37.4584 38.9934 35.492 38.9934ZM23.1042 37.4153C25.8945 30.3062 28.9293 28.2405 35.8853 26.5661C34.5705 34.1954 32.4921 38.2421 24.284 44.7138C26.6714 39.9846 25.1409 39.2253 23.1042 37.4153ZM30.9695 26.5661C35.8879 19.7904 39.7803 17.7883 48.6664 17.295C45.8189 22.5242 43.6647 25.259 37.0651 29.1305C37.9851 24.8229 36.6383 24.4314 30.9695 26.5661ZM46.5035 24.199C49.4552 23.8281 50.4102 24.4224 51.8126 25.9743C44.877 31.9484 41.3631 33.6789 35.8853 33.6674C36.1669 32.3077 36.4482 31.5434 37.0651 30.7085L37.2288 30.6165C40.7028 28.6647 42.7386 27.5208 46.5035 24.199ZM50.0429 18.2813C50.0429 18.2813 54.9587 18.8731 58.6947 17.295C64.3971 14.8864 62.0375 11.969 65.9701 10.3707C57.6778 8.43689 53.3632 9.82028 46.1102 15.5197C48.302 15.7372 49.9091 15.3616 50.0429 18.2813ZM67.5432 18.8731C62.5787 21.9805 59.3435 23.14 52.0092 23.2127C52.9286 22.6556 53.1954 22.0914 53.3856 21.0429C58.2678 20.0676 60.5282 19.0471 63.0206 15.7169C65.7451 15.9991 66.6588 16.5173 67.5432 18.8731ZM82.4883 8.90762C79.5605 10.7866 77.8903 11.5745 73.6388 11.5745C70.2335 11.5745 68.9015 10.7657 67.6792 10.0235C66.6429 9.39425 65.6855 8.8129 63.6105 8.8129C70.8759 4.02894 75.3287 3.65858 82.4883 6.73397C89.6479 3.65858 94.1007 4.02894 101.366 8.8129C99.291 8.8129 98.3336 9.39425 97.2974 10.0235C96.0751 10.7657 94.743 11.5745 91.3378 11.5745C87.0863 11.5745 85.4161 10.7866 82.4883 8.90762ZM78.7513 12.3635C80.3563 13.3457 80.9774 14.0209 81.5041 15.5197C75.5166 17.591 72.4375 17.598 67.5432 15.5197C68.0945 14.6289 68.6402 14.2065 69.9028 13.5471C74.873 13.6784 76.8439 13.445 78.7513 12.3635ZM103.726 140.778C103.726 141.962 104.905 140.778 104.905 143.343C104.905 144.447 103.529 145.907 103.726 148.274C105.829 146.515 106.988 145.773 109.035 144.724C109.231 144.395 109.782 142.948 110.411 139.792C111.198 135.847 108.052 137.228 106.085 138.214C104.512 139.003 103.857 140.252 103.726 140.778ZM119.063 143.343C113.951 143.343 107.658 145.907 104.905 148.471C107.226 149.046 108.158 149.599 109.035 151.036C109.559 150.115 111.04 148.077 112.771 147.288C114.934 146.302 116.703 147.485 118.08 146.499C119.456 145.513 119.063 144.329 119.063 143.343ZM113.164 140.187C113.492 140.515 113.872 141.489 113.557 142.751L117.687 142.554C125.008 135.552 126.189 132.222 125.355 125.392C119.53 130.03 116.505 132.94 113.164 140.187ZM120.243 145.513C120.872 144.566 120.505 142.883 120.243 142.159C127.41 132.207 131.049 129.111 137.153 127.365C137.869 134.609 126.932 144.273 120.243 145.513ZM130.664 144.526C131.316 144.526 131.844 143.996 131.844 143.343C131.844 142.689 131.316 142.159 130.664 142.159C130.013 142.159 129.485 142.689 129.485 143.343C129.485 143.996 130.013 144.526 130.664 144.526ZM127.911 130.521C128.563 130.521 129.091 129.991 129.091 129.337C129.091 128.684 128.563 128.154 127.911 128.154C127.26 128.154 126.732 128.684 126.732 129.337C126.732 129.991 127.26 130.521 127.911 130.521ZM141.479 114.149C142.131 114.149 142.659 113.619 142.659 112.965C142.659 112.311 142.131 111.782 141.479 111.782C140.828 111.782 140.299 112.311 140.299 112.965C140.299 113.619 140.828 114.149 141.479 114.149ZM157.8 104.088C158.451 104.088 158.979 103.559 158.979 102.905C158.979 102.251 158.451 101.721 157.8 101.721C157.148 101.721 156.62 102.251 156.62 102.905C156.62 103.559 157.148 104.088 157.8 104.088ZM148.165 98.9598C148.816 98.9598 149.344 98.4299 149.344 97.7762C149.344 97.1225 148.816 96.5927 148.165 96.5927C147.513 96.5927 146.985 97.1225 146.985 97.7762C146.985 98.4299 147.513 98.9598 148.165 98.9598ZM149.738 84.1654C150.389 84.1654 150.917 83.6355 150.917 82.9819C150.917 82.3282 150.389 81.7983 149.738 81.7983C149.086 81.7983 148.558 82.3282 148.558 82.9819C148.558 83.6355 149.086 84.1654 149.738 84.1654ZM153.867 61.2835C154.519 61.2835 155.047 60.7536 155.047 60.0999C155.047 59.4463 154.519 58.9164 153.867 58.9164C153.215 58.9164 152.687 59.4463 152.687 60.0999C152.687 60.7536 153.215 61.2835 153.867 61.2835ZM144.822 65.2287C145.473 65.2287 146.002 64.6988 146.002 64.0451C146.002 63.3914 145.473 62.8616 144.822 62.8616C144.17 62.8616 143.642 63.3914 143.642 64.0451C143.642 64.6988 144.17 65.2287 144.822 65.2287ZM149.934 47.6727C150.586 47.6727 151.114 47.1428 151.114 46.4892C151.114 45.8355 150.586 45.3056 149.934 45.3056C149.283 45.3056 148.755 45.8355 148.755 46.4892C148.755 47.1428 149.283 47.6727 149.934 47.6727ZM141.872 42.1495C142.524 42.1495 143.052 41.6196 143.052 40.9659C143.052 40.3123 142.524 39.7824 141.872 39.7824C141.221 39.7824 140.693 40.3123 140.693 40.9659C140.693 41.6196 141.221 42.1495 141.872 42.1495ZM128.305 38.0071C128.956 38.0071 129.485 37.4772 129.485 36.8235C129.485 36.1699 128.956 35.64 128.305 35.64C127.653 35.64 127.125 36.1699 127.125 36.8235C127.125 37.4772 127.653 38.0071 128.305 38.0071ZM114.344 22.4237C114.995 22.4237 115.524 21.8938 115.524 21.2401C115.524 20.5865 114.995 20.0566 114.344 20.0566C113.692 20.0566 113.164 20.5865 113.164 21.2401C113.164 21.8938 113.692 22.4237 114.344 22.4237ZM98.6132 14.3361C99.2648 14.3361 99.793 13.8062 99.793 13.1526C99.793 12.4989 99.2648 11.969 98.6132 11.969C97.9616 11.969 97.4334 12.4989 97.4334 13.1526C97.4334 13.8062 97.9616 14.3361 98.6132 14.3361ZM137.94 110.598C136.367 109.809 128.305 120.264 127.911 125.984C129.157 126.313 131.765 127.247 132.237 128.351C138.726 125.59 139.513 111.387 137.94 110.598ZM146.985 112.571C144.232 111.584 137.94 121.842 137.153 125.984C139.169 125.984 140.299 128.351 138.333 132.494C146.002 128.746 149.738 113.557 146.985 112.571ZM140.693 97.7762C138.726 101.919 139.709 104.483 139.316 110.203C139.775 109.875 140.929 109.336 141.872 109.809C142.816 110.282 143.708 111.847 144.035 112.571C144.429 111.387 145.372 108.152 146.002 104.68C146.788 100.341 144.822 94.4228 144.035 94.2256C143.249 94.0283 142.659 93.6338 140.693 97.7762ZM153.867 95.0146C152.097 94.8371 146.178 102.905 146.002 111.782C148.165 110.203 149.344 111.782 149.344 116.121C154.654 113.754 157.8 95.4091 153.867 95.0146ZM149.738 95.8036C150.917 87.5188 146.002 81.7983 142.266 80.2203C141.639 85.1346 141.772 87.8957 144.035 92.8448C145.434 92.6724 145.949 93.2603 146.592 95.0146C147.116 94.6201 148.479 94.2256 149.738 95.8036ZM156.62 96.5927C159.743 87.1285 157.21 76.2751 154.654 73.7107C153.444 73.8226 152.14 76.7859 151.45 81.0093C151.731 81.2723 152.255 82.035 152.097 82.9819C151.94 83.9287 151.308 84.8229 151.012 85.1517C150.869 87.8919 150.991 90.8812 151.507 93.831C153.439 93.9851 154.475 93.3904 156.62 96.5927ZM146.002 80.2203C141.944 75.8925 140.277 73.0156 140.103 65.8204C141.926 66.1477 142.949 66.3731 144.822 67.793C148.165 69.9628 146.592 72.1327 150.524 79.234C148.755 81.0093 146.957 78.3103 146.002 80.2203ZM156.62 75.2888C158.034 67.3427 154.654 63.4533 148.755 57.3383C146.564 64.948 147.366 69.2726 150.917 77.0641C153.322 72.1341 154.6 71.1041 156.62 75.2888ZM141.872 63.6506C137.731 59.9237 136.29 57.2269 134.597 51.8151C136.606 51.6782 137.733 51.6044 141.872 54.3795C142.062 57.0644 142.277 58.5754 143.642 61.2835C142.839 61.6046 142.439 62.0294 141.872 63.6506ZM151.012 57.3383C149.153 55.1625 147.972 55.3277 145.412 60.0999C142.565 54.1738 141.991 50.4158 141.872 43.333C143.763 43.7567 144.858 44.2557 146.985 46.4892C147.119 47.8016 147.369 48.6541 148.755 48.8563C150.245 51.5823 150.917 53.2658 151.012 57.3383ZM129.485 38.9934C134.597 38.9934 140.133 44.756 141.282 52.4069C139.368 52.5898 135.111 49.9165 131.844 46.6864C128.066 42.9503 125.397 38.536 125.749 38.0071C126.404 37.0208 127.518 38.9934 129.485 38.9934ZM141.872 37.4153C139.082 30.3062 136.047 28.2405 129.091 26.5661C130.406 34.1954 132.484 38.2421 140.693 44.7138C138.305 39.9846 139.836 39.2253 141.872 37.4153ZM134.007 26.5661C129.089 19.7904 125.196 17.7883 116.31 17.295C119.158 22.5242 121.312 25.259 127.911 29.1305C126.991 24.8229 128.338 24.4314 134.007 26.5661ZM118.473 24.199C115.521 23.8281 114.566 24.4224 113.164 25.9743C120.1 31.9484 123.613 33.6789 129.091 33.6674C128.81 32.3077 128.528 31.5434 127.911 30.7085L127.748 30.6165C124.274 28.6647 122.238 27.5208 118.473 24.199ZM114.934 18.2813C114.934 18.2813 110.018 18.8731 106.282 17.295C100.58 14.8864 102.939 11.969 99.0064 10.3707C107.299 8.43689 111.613 9.82028 118.866 15.5197C116.675 15.7372 115.067 15.3616 114.934 18.2813ZM97.4334 18.8731C102.398 21.9805 105.633 23.14 112.967 23.2127C112.048 22.6556 111.781 22.0914 111.591 21.0429C106.709 20.0676 104.448 19.0471 101.956 15.7169C99.2315 15.9991 98.3178 16.5173 97.4334 18.8731ZM86.2253 12.3635C84.6203 13.3457 83.9992 14.0209 83.4725 15.5197C89.46 17.591 92.5391 17.598 97.4334 15.5197C96.8821 14.6289 96.3364 14.2065 95.0738 13.5471C90.1035 13.6784 88.1327 13.445 86.2253 12.3635Z" fill="#6F6C6C"/>
<path fill-rule="evenodd" clip-rule="evenodd" d="M82.4883 6.73397C89.6479 3.65858 94.1007 4.02894 101.366 8.8129C99.291 8.8129 98.3336 9.39425 97.2974 10.0235C96.0751 10.7657 94.743 11.5745 91.3378 11.5745C87.0863 11.5745 85.4161 10.7866 82.4883 8.90762C82.8467 8.67758 83.224 8.43118 83.6272 8.16787C83.891 7.99565 84.1658 7.8162 84.4536 7.62935C83.7748 7.30443 83.121 7.00574 82.4883 6.73397ZM82.4883 6.73397C81.8556 7.00574 81.2018 7.30443 80.523 7.62935C80.8108 7.8162 81.0856 7.99565 81.3493 8.16787C81.7525 8.43118 82.1298 8.67758 82.4883 8.90762C79.5605 10.7866 77.8903 11.5745 73.6388 11.5745C70.2335 11.5745 68.9015 10.7657 67.6792 10.0235C66.6429 9.39425 65.6855 8.8129 63.6105 8.8129C70.8759 4.02894 75.3287 3.65858 82.4883 6.73397Z" fill="#CBC5C5"/>
<path d="M82.4883 6.73397C81.8556 7.00574 81.2018 7.30443 80.523 7.62935C80.8108 7.8162 81.0856 7.99565 81.3493 8.16787C81.7525 8.43118 82.1298 8.67758 82.4883 8.90762C82.8467 8.67758 83.224 8.43118 83.6272 8.16787C83.891 7.99565 84.1658 7.8162 84.4536 7.62935C83.7748 7.30443 83.121 7.00574 82.4883 6.73397Z" fill="#6F6C6C"/>
<path d="M85.4199 155.77C85.4382 156.737 85.4935 157.709 85.5877 158.729C86.0406 160.051 95.9893 161.374 101.398 163.858L102.349 162.082C99.3997 162.674 90.3546 156.165 85.4199 155.77Z" fill="#6F6C6C"/>
<path d="M79.3889 158.729C79.483 157.709 79.5383 156.737 79.5567 155.77C74.622 156.165 65.5769 162.674 62.6274 162.082L63.5788 163.858C68.9873 161.374 78.936 160.051 79.3889 158.729Z" fill="#6F6C6C"/>
<path fill-rule="evenodd" clip-rule="evenodd" d="M117.101 119.787C117.101 114.353 115.275 107.725 112.047 100.68C108.81 93.6155 104.122 86.0432 98.3001 78.6972C86.6658 64.0178 70.4111 50.1305 51.955 43.0224C51.955 43.0237 51.1678 42.856 50.2232 43.4192C49.1031 44.0884 48.946 45.4091 49.2143 46.5294C49.6358 48.2889 51.1831 50.3031 53.7457 51.6429C53.3614 51.8587 53.0297 52.1122 52.7572 52.406C51.9143 53.3147 51.7645 54.4668 52.1447 55.5963C52.5066 56.6716 53.3404 57.7338 54.4747 58.7163C55.4336 59.5469 56.6507 60.3583 58.0936 61.1084C57.8204 61.7461 57.6772 62.4027 57.6807 63.0675C57.6858 64.0602 58.0175 65.0005 58.6152 65.8515C59.622 67.285 61.391 68.4835 63.7585 69.4034C62.6359 71.1109 62.2177 73.0198 63.1835 74.7449C64.1895 76.5417 66.5137 77.747 70.0612 78.2924C69.5556 79.7974 69.5577 81.3261 70.6352 82.6484C71.6763 83.9261 73.5939 84.8124 76.4414 85.3928C75.9244 85.9746 75.5285 86.5579 75.2708 87.1414C74.7988 88.21 74.7871 89.3025 75.3628 90.2785C75.9059 91.1995 76.8915 91.8767 78.1144 92.3726C79.1354 92.7867 80.3925 93.1034 81.8634 93.3233C81.6976 94.8543 81.9689 96.202 82.7807 97.3305C83.7393 98.6631 85.3353 99.5226 87.3552 100.104C91.2194 101.217 97.1969 101.461 105.1 101.478C106.636 105.721 107.231 110.001 107.231 114.617V115.642L108.217 115.888C110.91 116.559 113.084 118.108 114.734 120.528L117.101 124V119.787ZM104.001 98.8008C101.637 93.6554 97.745 88.4002 91.6021 82.5505L93.3834 80.6473C99.6881 86.6509 103.814 92.1682 106.356 97.7003C108.76 102.933 109.717 108.114 109.817 113.628C111.46 114.166 112.933 114.991 114.227 116.085C113.633 111.891 112.093 107.02 109.691 101.779C106.553 94.9295 101.983 87.5353 96.2732 80.3316C84.8447 65.9117 69.0823 51.9273 51.1678 45.0277C51.0678 45.0875 50.8343 45.3319 51.016 46.0903C51.3685 47.5621 53.1837 49.8581 56.793 50.833L56.6884 52.6607C55.2601 52.8731 54.4782 53.2872 54.1107 53.6833C53.8032 54.0148 53.7052 54.417 53.8998 54.9952C54.1126 55.6277 54.6763 56.4266 55.6822 57.2979C56.6752 58.158 58.0415 59.0384 59.7567 59.8503C61.566 60.7068 63.7472 61.4794 66.2561 62.0703L65.8346 63.8909C63.5644 63.3562 61.5323 62.6751 59.771 61.9071C59.6051 62.313 59.5323 62.6972 59.5341 63.0578C59.537 63.6173 59.7198 64.1901 60.1277 64.7708C60.9644 65.9621 62.7282 67.1476 65.5537 68.0585C66.9938 68.5228 68.6838 68.9072 70.6189 69.1849L70.3578 71.0359C68.5943 70.7828 67.0032 70.4417 65.5926 70.0254C64.4276 71.5536 64.2609 72.8671 64.7974 73.8255C65.4426 74.9779 67.3522 76.1608 71.485 76.5905C72.6859 76.7154 74.0554 76.7742 75.6058 76.7536L75.6302 78.623C74.2916 78.6408 73.069 78.6019 71.9572 78.5115C71.4127 79.8365 71.4904 80.7536 72.0671 81.4613C72.8348 82.4035 74.7036 83.3101 78.5508 83.8579C79.4273 83.9827 80.3966 84.0877 81.4656 84.1713L81.3223 86.0353C80.3841 85.9619 79.5134 85.872 78.707 85.766C77.7771 86.589 77.2261 87.3086 76.9638 87.9023C76.6915 88.5189 76.7408 88.9583 76.9557 89.3227C77.2031 89.7423 77.7611 90.2143 78.8058 90.638C79.8358 91.0556 81.2427 91.3869 83.0376 91.5925C84.3773 91.746 85.9175 91.8279 87.6545 91.8279V93.6975C86.2204 93.6975 84.9022 93.6435 83.7042 93.5384C83.5777 94.7169 83.806 95.5724 84.2809 96.2325C84.885 97.0723 86.0121 97.7732 87.864 98.3065C91.3303 99.3045 96.7964 99.5737 104.359 99.6061C104.244 99.3377 104.125 99.0693 104.001 98.8008Z" fill="#CBC5C5"/>
</svg>
