<svg width="163" height="124" viewBox="0 0 163 124" fill="none" xmlns="http://www.w3.org/2000/svg">
<path d="M0.101562 22C0.101562 9.84974 9.94451 0 22.0864 0H141.004C153.146 0 162.989 9.84974 162.989 22V102C162.989 114.15 153.146 124 141.004 124H22.0864C9.94451 124 0.101562 114.15 0.101562 102V22Z" fill="#C5A869"/>
<path fill-rule="evenodd" clip-rule="evenodd" d="M141.004 11H22.0864C16.0154 11 11.094 15.9249 11.094 22V102C11.094 108.075 16.0154 113 22.0864 113H141.004C147.075 113 151.997 108.075 151.997 102V22C151.997 15.9249 147.075 11 141.004 11ZM22.0864 0C9.94451 0 0.101562 9.84974 0.101562 22V102C0.101562 114.15 9.94451 124 22.0864 124H141.004C153.146 124 162.989 114.15 162.989 102V22C162.989 9.84974 153.146 0 141.004 0H22.0864Z" fill="#A68C55"/>
<path fill-rule="evenodd" clip-rule="evenodd" d="M115.194 97.6017C115.194 92.2702 113.387 85.768 110.193 78.856C106.989 71.9243 102.35 64.4948 96.5879 57.2874C85.074 42.8848 68.9875 29.2595 50.7223 22.2854C50.7223 22.2867 49.9433 22.1222 49.0085 22.6747C47.8999 23.3313 47.7445 24.6271 48.01 25.7263C48.4271 27.4526 49.9584 29.4288 52.4945 30.7433C52.1142 30.955 51.786 31.2038 51.5163 31.492C50.682 32.3836 50.5338 33.5139 50.91 34.6221C51.2682 35.6771 52.0934 36.7194 53.216 37.6833C54.165 38.4983 55.3695 39.2944 56.7974 40.0303C56.527 40.656 56.3854 41.3002 56.3888 41.9524C56.3938 42.9265 56.7221 43.849 57.3137 44.684C58.31 46.0904 60.0607 47.2663 62.4038 48.1689C61.2927 49.8441 60.8789 51.717 61.8347 53.4096C62.8302 55.1725 65.1305 56.3551 68.6412 56.8902C68.1408 58.3668 68.1429 59.8666 69.2092 61.164C70.2396 62.4176 72.1373 63.2873 74.9554 63.8566C74.4437 64.4275 74.052 64.9998 73.7969 65.5723C73.3298 66.6207 73.3182 67.6926 73.8879 68.6503C74.4254 69.5538 75.4009 70.2182 76.6111 70.7048C77.6215 71.1111 78.8657 71.4218 80.3213 71.6376C80.1572 73.1397 80.4257 74.462 81.2291 75.5692C82.1778 76.8767 83.7572 77.72 85.7563 78.2906C89.5805 79.3823 95.4961 79.6216 103.317 79.6386C104.838 83.8015 105.426 88.0012 105.426 92.5298V93.5349L106.402 93.7763C109.067 94.4354 111.219 95.9544 112.852 98.3292L115.194 101.736V97.6017ZM102.23 77.0118C99.8904 71.9635 96.0386 66.8073 89.9592 61.068L91.7221 59.2007C97.9616 65.0911 102.045 70.5043 104.56 75.932C106.94 81.0662 107.887 86.1494 107.986 91.5593C109.611 92.0874 111.069 92.897 112.35 93.9699C111.762 89.8554 110.238 85.0758 107.861 79.9334C104.756 73.2135 100.232 65.9587 94.582 58.8909C83.2717 44.743 67.6725 31.0224 49.9433 24.2529C49.8444 24.3115 49.6133 24.5514 49.793 25.2955C50.1419 26.7395 51.9383 28.9922 55.5103 29.9487L55.4068 31.742C53.9933 31.9503 53.2194 32.3566 52.8557 32.7453C52.5515 33.0704 52.4544 33.4651 52.647 34.0324C52.8577 34.6529 53.4154 35.4368 54.411 36.2917C55.3937 37.1356 56.7459 37.9993 58.4434 38.796C60.2339 39.6363 62.3925 40.3943 64.8754 40.9741L64.4583 42.7603C62.2116 42.2357 60.2006 41.5674 58.4575 40.8139C58.2933 41.2121 58.2212 41.5891 58.223 41.9429C58.2259 42.4919 58.4068 43.0539 58.8104 43.6236C59.6385 44.7925 61.384 45.9556 64.1803 46.8493C65.6056 47.3049 67.2781 47.682 69.1931 47.9545L68.9348 49.7705C67.1895 49.5222 65.6148 49.1876 64.2188 48.7792C63.0659 50.2785 62.9009 51.5672 63.4319 52.5076C64.0704 53.6382 65.9602 54.7988 70.0502 55.2204C71.2388 55.343 72.594 55.4007 74.1284 55.3804L74.1526 57.2146C72.8279 57.2321 71.6179 57.1938 70.5176 57.1052C69.9788 58.4051 70.0556 59.305 70.6263 59.9993C71.3861 60.9237 73.2356 61.8133 77.0429 62.3507C77.9104 62.4732 78.8697 62.5762 79.9276 62.6582L79.7858 64.487C78.8573 64.4151 77.9956 64.3269 77.1975 64.2228C76.2773 65.0303 75.732 65.7363 75.4724 66.3189C75.2029 66.9238 75.2516 67.3549 75.4644 67.7125C75.7092 68.1241 76.2614 68.5872 77.2953 69.0029C78.3146 69.4127 79.707 69.7377 81.4834 69.9395C82.8092 70.0901 84.3335 70.1704 86.0525 70.1704V72.0047C84.6332 72.0047 83.3286 71.9517 82.143 71.8487C82.0179 73.005 82.2438 73.8443 82.7137 74.492C83.3116 75.3159 84.427 76.0036 86.2598 76.5268C89.6902 77.506 95.0998 77.7701 102.584 77.8019C102.47 77.5386 102.352 77.2753 102.23 77.0118Z" fill="black"/>
</svg>
