<svg width="164" height="124" viewBox="0 0 164 124" fill="none" xmlns="http://www.w3.org/2000/svg">
<path d="M0.876953 22C0.876953 9.84974 10.7199 0 22.8618 0H141.78C153.922 0 163.765 9.84974 163.765 22V102C163.765 114.15 153.922 124 141.78 124H22.8618C10.7199 124 0.876953 114.15 0.876953 102V22Z" fill="#C5A869"/>
<path fill-rule="evenodd" clip-rule="evenodd" d="M141.78 11H22.8618C16.7908 11 11.8694 15.9249 11.8694 22V102C11.8694 108.075 16.7908 113 22.8618 113H141.78C147.851 113 152.772 108.075 152.772 102V22C152.772 15.9249 147.851 11 141.78 11ZM22.8618 0C10.7199 0 0.876953 9.84974 0.876953 22V102C0.876953 114.15 10.7199 124 22.8618 124H141.78C153.922 124 163.765 114.15 163.765 102V22C163.765 9.84974 153.922 0 141.78 0H22.8618Z" fill="#A68C55"/>
<path fill-rule="evenodd" clip-rule="evenodd" d="M56.7376 80.613C57.7848 79.9219 59.0143 79.3862 60.4199 79.3862C63.0975 79.3862 65.0601 81.2717 66.5552 82.708C66.5925 82.7438 66.6296 82.7794 66.6663 82.8147C67.4876 83.6028 68.2017 84.2877 68.947 84.7909C69.6711 85.2798 70.3355 85.533 71.0295 85.533C71.734 85.533 72.4555 85.2725 73.2648 84.7665C74.0861 84.253 74.8943 83.555 75.7958 82.772L75.8366 82.7365C76.6934 81.9923 77.6403 81.1698 78.645 80.5409C79.6777 79.8945 80.8715 79.3862 82.2286 79.3862C83.5872 79.3862 84.7757 79.8955 85.7984 80.5457C86.8088 81.188 87.7492 82.0295 88.592 82.7856L88.6198 82.8106C89.4856 83.5873 90.251 84.274 91.0251 84.7811C91.7964 85.2864 92.4603 85.533 93.0908 85.533C93.7381 85.533 94.3786 85.2996 95.1023 84.8383C95.7919 84.3986 96.4632 83.8165 97.2388 83.1438C97.3006 83.0902 97.363 83.036 97.4262 82.9813C99.0315 81.5911 101.113 79.8072 103.953 79.8072C106.868 79.8072 108.925 81.8726 110.427 83.4428C110.555 83.5767 110.68 83.7074 110.801 83.8347C111.45 84.5181 112.007 85.1041 112.572 85.5601C113.233 86.0928 113.723 86.2908 114.142 86.2908C115.389 86.2908 116.51 85.647 117.389 84.8793C117.818 84.505 118.158 84.128 118.39 83.845C118.505 83.7044 118.592 83.5894 118.647 83.5128C118.675 83.4746 118.695 83.4461 118.707 83.4291C118.711 83.4231 118.714 83.4185 118.716 83.4154L118.717 83.4134C118.717 83.4134 118.717 83.414 119.783 84.1138C120.849 84.8136 120.849 84.8143 120.849 84.8143L120.848 84.8152L120.847 84.8171L120.844 84.8218L120.835 84.8351C120.828 84.8456 120.819 84.8593 120.807 84.8761C120.784 84.9096 120.752 84.9554 120.711 85.0115C120.63 85.1237 120.513 85.2784 120.363 85.4615C120.064 85.8258 119.627 86.3118 119.067 86.8006C117.969 87.7591 116.269 88.8415 114.142 88.8415C112.872 88.8415 111.819 88.229 110.972 87.546C110.261 86.9734 109.566 86.2407 108.923 85.5623C108.808 85.4413 108.695 85.3221 108.584 85.2058C106.985 83.5343 105.636 82.3578 103.953 82.3578C102.195 82.3578 100.796 83.4368 99.096 84.9095C99.0261 84.97 98.9555 85.0313 98.8842 85.0932C98.1434 85.7367 97.3305 86.4427 96.4734 86.9891C95.5131 87.6013 94.3948 88.0836 93.0908 88.0836C91.7699 88.0836 90.615 87.5618 89.6272 86.9146C88.6884 86.2995 87.7965 85.499 86.9866 84.772C86.9538 84.7426 86.9212 84.7134 86.8887 84.6842C86.0185 83.9036 85.2325 83.2084 84.43 82.6982C83.6398 82.1958 82.9289 81.9368 82.2286 81.9368C81.5267 81.9368 80.8069 82.1968 79.9984 82.7029C79.1778 83.2165 78.3701 83.9145 77.4684 84.6978L77.4319 84.7294C76.5737 85.4749 75.6247 86.2991 74.6171 86.9292C73.5832 87.5757 72.3881 88.0836 71.0295 88.0836C69.6606 88.0836 68.5026 87.5685 67.5197 86.9048C66.5897 86.2769 65.7385 85.4597 64.9779 84.7296C64.9519 84.7047 64.9261 84.6798 64.9003 84.6551C63.2061 83.0293 61.9577 81.9368 60.4199 81.9368C59.6845 81.9368 58.9428 82.2138 58.1424 82.7419C57.333 83.276 56.5485 84.009 55.7269 84.8202C55.5965 84.9488 55.4642 85.0806 55.3303 85.214C54.6582 85.8833 53.9464 86.5921 53.2461 87.1472C52.418 87.8036 51.3766 88.439 50.1704 88.439C48.2297 88.439 46.6058 87.4721 45.545 86.6294C45.0007 86.197 44.5663 85.7669 44.267 85.4443C44.1166 85.2823 43.9985 85.1453 43.9157 85.046C43.8743 84.9963 43.8416 84.9559 43.818 84.9262C43.8062 84.9114 43.7967 84.8993 43.7895 84.89L43.7804 84.8783L43.7772 84.8741L43.7754 84.8717C43.7754 84.8717 43.7749 84.8711 44.7891 84.0979C45.8033 83.3247 45.8029 83.3241 45.8029 83.3241L45.8012 83.3219C45.8012 83.3219 45.8017 83.3225 45.8023 83.3233C45.8041 83.3256 45.8081 83.3307 45.8142 83.3384C45.8263 83.3536 45.8468 83.3791 45.8752 83.4132C45.9322 83.4815 46.0204 83.5841 46.1368 83.7095C46.3708 83.9617 46.711 84.2981 47.1315 84.6322C48.0004 85.3224 49.0671 85.8884 50.1704 85.8884C50.4862 85.8884 50.9517 85.7111 51.6617 85.1483C52.2381 84.6914 52.8245 84.1082 53.4965 83.4399C53.6386 83.2986 53.7845 83.1535 53.9349 83.005C54.7599 82.1906 55.6994 81.2981 56.7376 80.613ZM56.7376 87.5177C57.7848 86.8267 59.0143 86.2909 60.4199 86.2909C63.0975 86.2909 65.0601 88.1764 66.5552 89.6127C66.5925 89.6486 66.6296 89.6842 66.6663 89.7194C67.4876 90.5076 68.2017 91.1925 68.947 91.6956C69.6711 92.1845 70.3355 92.4377 71.0295 92.4377C71.734 92.4377 72.4555 92.1773 73.2648 91.6713C74.0861 91.1577 74.8943 90.4598 75.7958 89.6768L75.8366 89.6413C76.6934 88.897 77.6403 88.0745 78.645 87.4456C79.6777 86.7992 80.8715 86.2909 82.2286 86.2909C83.5872 86.2909 84.7757 86.8002 85.7984 87.4504C86.8088 88.0927 87.7492 88.9343 88.592 89.6903L88.6199 89.7153C89.4856 90.492 90.251 91.1787 91.0251 91.6858C91.7964 92.1912 92.4603 92.4377 93.0908 92.4377C93.7381 92.4377 94.3786 92.2044 95.1023 91.743C95.7919 91.3034 96.4632 90.7212 97.2388 90.0485C97.3006 89.9949 97.363 89.9408 97.4262 89.8861C99.0315 88.4958 101.113 86.7119 103.953 86.7119C106.868 86.7119 108.925 88.7773 110.427 90.3475C110.555 90.4814 110.68 90.6121 110.801 90.7394C111.45 91.4228 112.007 92.0088 112.572 92.4648C113.233 92.9976 113.723 93.1955 114.142 93.1955C115.389 93.1955 116.51 92.5518 117.389 91.7841C117.818 91.4098 118.158 91.0327 118.39 90.7497C118.505 90.6091 118.592 90.4941 118.647 90.4175C118.675 90.3793 118.695 90.3508 118.707 90.3338C118.713 90.3253 118.716 90.3196 118.718 90.317L118.718 90.3175L118.717 90.3181C118.717 90.3181 118.717 90.3188 119.783 91.0185C120.849 91.7183 120.849 91.7191 120.849 91.7191L120.848 91.7199L120.847 91.7218L120.844 91.7266L120.835 91.7399C120.828 91.7503 120.819 91.7641 120.807 91.7808C120.784 91.8144 120.752 91.8601 120.711 91.9163C120.63 92.0285 120.513 92.1832 120.363 92.3662C120.064 92.7305 119.627 93.2166 119.067 93.7054C117.969 94.6638 116.269 95.7462 114.142 95.7462C112.872 95.7462 111.819 95.1337 110.972 94.4508C110.261 93.8782 109.566 93.1454 108.923 92.467C108.808 92.346 108.695 92.2268 108.584 92.1106C106.985 90.439 105.636 89.2626 103.953 89.2626C102.195 89.2626 100.796 90.3415 99.096 91.8142C99.0261 91.8747 98.9555 91.936 98.8842 91.9979C98.1434 92.6414 97.3305 93.3474 96.4734 93.8938C95.5131 94.506 94.3948 94.9884 93.0908 94.9884C91.7699 94.9884 90.615 94.4666 89.6272 93.8194C88.6884 93.2043 87.7965 92.4037 86.9865 91.6768C86.9538 91.6474 86.9212 91.6181 86.8887 91.5889C86.0185 90.8083 85.2325 90.1131 84.43 89.6029C83.6398 89.1006 82.9289 88.8416 82.2286 88.8416C81.5267 88.8416 80.8069 89.1016 79.9984 89.6077C79.1778 90.1213 78.3701 90.8193 77.4684 91.6025L77.4319 91.6341C76.5737 92.3796 75.6247 93.2039 74.6171 93.8339C73.5832 94.4805 72.3881 94.9884 71.0295 94.9884C69.6606 94.9884 68.5026 94.4732 67.5197 93.8096C66.5897 93.1817 65.7385 92.3645 64.9779 91.6343C64.9519 91.6094 64.9261 91.5845 64.9003 91.5598C63.2061 89.9341 61.9577 88.8416 60.4199 88.8416C59.6845 88.8416 58.9428 89.1185 58.1424 89.6467C57.333 90.1807 56.5485 90.9138 55.7269 91.7249C55.5965 91.8536 55.4642 91.9854 55.3303 92.1187C54.6582 92.788 53.9464 93.4968 53.2461 94.0519C52.418 94.7083 51.3766 95.3438 50.1704 95.3438C48.2297 95.3438 46.6058 94.3768 45.545 93.5341C45.0007 93.1017 44.5663 92.6716 44.267 92.3491C44.1166 92.187 43.9985 92.0501 43.9157 91.9507C43.8743 91.901 43.8416 91.8606 43.818 91.8309C43.8062 91.8161 43.7967 91.804 43.7895 91.7947L43.7804 91.783L43.7772 91.7788L43.7759 91.7772L43.7754 91.7764C43.7754 91.7764 43.7749 91.7758 44.7891 91.0026C45.8033 90.2294 45.8029 90.2288 45.8029 90.2288L45.8025 90.2283C45.8043 90.2306 45.8081 90.2355 45.8142 90.2431C45.8263 90.2584 45.8468 90.2838 45.8752 90.3179C45.9322 90.3862 46.0204 90.4888 46.1368 90.6142C46.3708 90.8664 46.711 91.2028 47.1315 91.5369C48.0004 92.2271 49.0671 92.7931 50.1704 92.7931C50.4862 92.7931 50.9517 92.6158 51.6617 92.053C52.2381 91.5961 52.8245 91.0129 53.4966 90.3446C53.6386 90.2033 53.7845 90.0582 53.9349 89.9097C54.7599 89.0953 55.6994 88.2028 56.7376 87.5177ZM45.8012 90.2266L45.8025 90.2283C45.8016 90.2271 45.8012 90.2266 45.8012 90.2266ZM53.5462 96.1058C55.0005 94.7385 56.9152 93.1956 59.2982 93.1956C61.9758 93.1956 63.9384 95.0811 65.4335 96.5174C65.4708 96.5533 65.5079 96.5889 65.5446 96.6242C66.3659 97.4123 67.08 98.0972 67.8253 98.6004C68.5494 99.0893 69.2138 99.3424 69.9078 99.3424C70.6123 99.3424 71.3338 99.082 72.1431 98.576C72.9644 98.0625 73.7726 97.3645 74.6741 96.5815L74.7149 96.546C75.5717 95.8018 76.5186 94.9793 77.5233 94.3504C78.556 93.704 79.7498 93.1956 81.1069 93.1956C82.4655 93.1956 83.654 93.7049 84.6767 94.3551C85.6871 94.9975 86.6275 95.839 87.4703 96.5951L87.4981 96.6201C88.3639 97.3968 89.1293 98.0835 89.9033 98.5906C90.6747 99.0959 91.3386 99.3424 91.9691 99.3424C92.6164 99.3424 93.2569 99.1091 93.9806 98.6477C94.6702 98.2081 95.3414 97.6259 96.1171 96.9532C96.1789 96.8997 96.2413 96.8455 96.3045 96.7908C97.9098 95.4006 99.9914 93.6166 102.831 93.6166C105.147 93.6166 106.897 94.9119 108.244 96.1867C108.746 96.6616 109.235 97.1771 109.686 97.6513C109.838 97.8123 109.987 97.9685 110.129 98.1168C110.719 98.7297 111.232 99.2265 111.727 99.5803L110.244 101.655C109.542 101.154 108.89 100.507 108.292 99.8857C108.122 99.7094 107.957 99.5357 107.794 99.3644C107.358 98.9048 106.939 98.4633 106.491 98.0397C105.265 96.8794 104.134 96.1673 102.831 96.1673C101.073 96.1673 99.6748 97.2463 97.9743 98.7189C97.9044 98.7795 97.8338 98.8408 97.7625 98.9027C97.0217 99.5461 96.2088 100.252 95.3517 100.799C94.3914 101.411 93.2731 101.893 91.9691 101.893C90.6482 101.893 89.4933 101.371 88.5055 100.724C87.5667 100.109 86.6748 99.3085 85.8649 98.5815C85.8321 98.5521 85.7995 98.5228 85.767 98.4937C84.8968 97.713 84.1108 97.0178 83.3083 96.5076C82.5181 96.0053 81.8072 95.7463 81.1069 95.7463C80.405 95.7463 79.6852 96.0063 78.8767 96.5124C78.0561 97.026 77.2484 97.724 76.3467 98.5072L76.3102 98.5389C75.452 99.2843 74.503 100.109 73.4954 100.739C72.4614 101.385 71.2664 101.893 69.9078 101.893C68.5389 101.893 67.3809 101.378 66.398 100.714C65.468 100.086 64.6167 99.2692 63.8562 98.5391C63.8302 98.5141 63.8044 98.4893 63.7786 98.4646C62.0844 96.8388 60.836 95.7463 59.2982 95.7463C58.0065 95.7463 56.7469 96.5976 55.2933 97.9641C54.9447 98.2919 54.6015 98.6323 54.252 98.98L54.1888 99.0429C53.8638 99.3664 53.5313 99.6972 53.2017 100.01C52.5136 100.662 51.7497 101.322 50.9301 101.749L49.7519 99.4866C50.2365 99.2343 50.7851 98.7862 51.4467 98.1588C51.7531 97.8683 52.0649 97.5581 52.3957 97.2288L52.453 97.1719C52.8008 96.8258 53.1679 96.4615 53.5462 96.1058Z" fill="black"/>
<path fill-rule="evenodd" clip-rule="evenodd" d="M67.4485 74.1394L63.1458 71.4013L79.2265 47.8411L70.088 34.452L73.8239 30.8836L82.3123 43.3201L90.8007 30.8836L94.5366 34.452L85.3981 47.8411L101.479 71.4013L97.1761 74.1394L82.3123 52.3621L67.4485 74.1394ZM95.2806 33.3621L91.545 29.7931C90.8676 29.214 90.1384 28.6136 89.3531 27.9833L92.8734 23.6806C93.536 24.1678 94.1703 24.622 94.7869 25.0434L99.2194 27.5912C102.364 28.9816 105.73 29.4811 110.866 29.1567C110.084 36.1975 106.564 40.8913 99.9142 42.8471C99.1247 38.9022 97.803 36.1717 95.2806 33.3621ZM99.8845 26.6167L101.088 24.854L96.785 22.116L95.4384 24.0889L99.8845 26.6167ZM64.7104 42.8471C65.4999 38.9022 66.8216 36.1717 69.344 33.3621L73.0796 29.7931C73.757 29.214 74.4862 28.6136 75.2715 27.9833L71.7512 23.6806C71.0886 24.1678 70.4543 24.622 69.8377 25.0434L65.4051 27.5912C62.2609 28.9816 58.8948 29.4811 53.7581 29.1567C54.5404 36.1975 58.0608 40.8913 64.7104 42.8471ZM63.5369 24.854L64.6365 26.465L69.1301 24.0067L67.8396 22.116L63.5369 24.854Z" fill="black"/>
</svg>
