<svg width="163" height="124" viewBox="0 0 163 124" fill="none" xmlns="http://www.w3.org/2000/svg">
<path d="M0 22C0 9.84974 9.84294 0 21.9848 0H140.903C153.045 0 162.888 9.84974 162.888 22V102C162.888 114.15 153.045 124 140.903 124H21.9848C9.84295 124 0 114.15 0 102V22Z" fill="#C5A869"/>
<path fill-rule="evenodd" clip-rule="evenodd" d="M140.903 11H21.9848C15.9139 11 10.9924 15.9249 10.9924 22V102C10.9924 108.075 15.9139 113 21.9848 113H140.903C146.974 113 151.895 108.075 151.895 102V22C151.895 15.9249 146.974 11 140.903 11ZM21.9848 0C9.84294 0 0 9.84974 0 22V102C0 114.15 9.84295 124 21.9848 124H140.903C153.045 124 162.888 114.15 162.888 102V22C162.888 9.84974 153.045 0 140.903 0H21.9848Z" fill="#A68C55"/>
<path d="M52.1997 66.3569C54.3253 64.2313 58.934 65.1651 63.8284 68.3146C64.2336 68.5754 64.6409 68.8514 65.0488 69.1421C65.727 69.6254 66.4071 70.1493 67.0835 70.7117C67.6858 71.2125 68.285 71.7437 68.8772 72.3039C69.1369 72.5496 69.3953 72.8008 69.652 73.0575C70.0064 73.4119 70.3505 73.7696 70.6839 74.1296C70.5582 73.9898 70.8129 74.2689 70.6839 74.1296C71.7506 75.3165 73.0825 76.9435 73.9034 78.1414C74.2002 78.5746 74.4802 79.0064 74.7428 79.4353C77.6106 84.1206 78.3978 88.4646 76.3526 90.5098L79.1163 92.1696C82.131 89.155 81.0765 82.9322 76.9909 76.6699C76.7162 76.2489 76.4278 75.8278 76.1261 75.4074C75.6245 74.7086 75.0859 74.012 74.5119 73.3219C74.1808 72.924 73.8379 72.5283 73.4835 72.1356C73.0296 71.6327 72.5569 71.1349 72.0657 70.6437C71.7974 70.3754 71.5271 70.1126 71.2551 69.8553C70.5992 69.2352 69.9333 68.6473 69.2615 68.0932C68.5869 67.5368 67.9062 67.0144 67.2237 66.5273C66.8181 66.2378 66.4119 65.9609 66.0059 65.6966C59.755 61.6292 53.5491 60.5839 50.5398 63.5932L52.1997 66.3569Z" fill="black"/>
<path d="M57.7157 53.9675C60.5544 51.1288 66.8014 52.4894 73.3566 56.859C73.7593 57.1275 74.1631 57.4072 74.5674 57.6981C75.496 58.3661 76.4269 59.0926 77.3514 59.8742C77.4452 59.9535 77.539 60.0334 77.6327 60.1138C78.2727 60.6634 78.9092 61.2393 79.5393 61.8404C79.8253 62.1131 80.1099 62.3911 80.3929 62.6741C80.4593 62.7405 80.5254 62.807 80.5912 62.8735C80.6873 62.9706 80.7827 63.0679 80.8776 63.1654C81.2246 63.522 81.5635 63.8808 81.8942 64.2413C82.4916 64.8926 83.062 65.5495 83.6042 66.2089C83.9259 66.6002 84.2378 66.9924 84.5395 67.3847C90.1986 74.7457 92.2729 82.1782 89.0996 85.3515L92.6908 87.5082C97.1712 83.0278 94.7346 73.094 87.3989 63.8674C87.0909 63.48 86.7743 63.0939 86.4491 62.7094C85.8967 62.0562 85.3197 61.4078 84.7189 60.7666C84.3843 60.4095 84.0423 60.0545 83.6931 59.7022C83.6387 59.6473 83.5841 59.5925 83.5293 59.5378C83.4839 59.4923 83.4384 59.4469 83.3928 59.4017C83.0419 59.0534 82.6885 58.7123 82.3328 58.3785C81.6997 57.7843 81.0596 57.2133 80.4146 56.6662C80.0385 56.3471 79.6607 56.0362 79.2816 55.7335C79.1276 55.6105 78.9733 55.4888 78.8189 55.3685C77.9445 54.6875 77.0646 54.0505 76.1843 53.4594C67.885 47.8858 59.554 46.3813 55.5589 50.3763L57.7157 53.9675Z" fill="black"/>
<path fill-rule="evenodd" clip-rule="evenodd" d="M53.7589 60.352C54.6164 60.2269 55.5165 60.212 56.4387 60.2912C55.9795 57.8329 56.2556 55.7568 57.3763 54.3478L53.864 53.1028C53.1476 55.1188 53.1362 57.6073 53.7589 60.352ZM82.3159 89.2136C82.4633 88.3674 82.4996 87.4766 82.4405 86.5617C85.0454 87.1108 87.2467 86.8621 88.7193 85.6908L89.9643 89.2031C87.851 89.9541 85.2185 89.9304 82.3159 89.2136Z" fill="black"/>
<path fill-rule="evenodd" clip-rule="evenodd" d="M63.3149 54.2113C64.753 56.889 66.5727 59.6597 68.7334 62.4174L67.049 64.4425C66.3026 63.951 65.5543 63.4991 64.8087 63.0886C62.7189 60.2673 60.9439 57.4195 59.5099 54.6258C60.0633 54.3156 60.7853 54.1251 61.7096 54.1015C62.2021 54.0889 62.7387 54.1248 63.3149 54.2113ZM79.564 73.5049L78.0619 75.3525C78.6892 76.2837 79.2552 77.2189 79.7562 78.1491C82.6319 80.3151 85.5394 82.155 88.3934 83.6406C88.732 83.077 88.9411 82.3292 88.9659 81.3579C88.9777 80.8972 88.9471 80.3981 88.8723 79.864C85.834 78.2129 82.6799 76.0734 79.564 73.5049ZM68.4361 78.5507L66.7582 80.2785C67.8726 81.279 69.0054 82.208 70.1452 83.0618L69.9371 79.8396C69.4349 79.4261 68.9341 78.9963 68.4361 78.5507ZM76.0599 90.771C73.2716 92.9886 67.0894 90.9088 61.2387 85.9621L59.9457 87.2936C66.1139 92.5408 72.8674 94.949 77.018 93.474L76.0599 90.771ZM54.8857 79.0661L53.6617 80.5377C49.6496 75.022 47.9363 69.3471 49.2355 65.6915L51.9385 66.6496C50.0235 69.0573 51.3129 73.9957 54.8857 79.0661ZM59.4832 67.8175C60.1031 68.8709 60.8054 69.94 61.5853 71.0114L60.001 72.9162C58.495 70.9051 57.2233 68.8722 56.2063 66.8805C57.0051 66.9754 57.9295 67.2107 58.9576 67.6054C59.131 67.672 59.3062 67.7427 59.4832 67.8175ZM72.7033 81.9439L71.1814 83.816C72.7403 84.9179 74.3058 85.8778 75.8488 86.6861C75.7697 85.8467 75.5295 84.8596 75.1044 83.7522C75.062 83.6419 75.018 83.5308 74.9723 83.419C74.2217 82.9682 73.4638 82.4759 72.7033 81.9439ZM60.1947 46.5952C59.0289 42.2323 59.2727 38.5322 61.1743 36.1413L56.0224 34.3151C54.7416 37.9192 54.997 42.5528 56.6002 47.6416C57.6924 47.0826 58.904 46.7435 60.1947 46.5952ZM95.3578 86.5976C95.934 85.5159 96.2894 84.3134 96.4532 83.0302C100.921 84.2705 104.715 84.0534 107.15 82.1167L108.976 87.2686C105.303 88.5738 100.561 88.2838 95.3578 86.5976Z" fill="black"/>
<path d="M58.5085 30.3158L61.6721 35.5834C66.5129 30.7426 78.1106 34.2269 89.3203 43.2929C90.3468 44.1231 91.37 45.0001 92.3845 45.9218C92.7453 46.2495 93.1049 46.5829 93.4632 46.9218C93.5798 47.0322 93.6963 47.1431 93.8126 47.2546C94.1888 47.6152 94.5634 47.982 94.9362 48.3547C95.7686 49.1871 96.571 50.0289 97.3422 50.8768C97.8225 51.4049 98.2907 51.9353 98.7465 52.4674C99.3251 53.1429 99.8838 53.8209 100.422 54.5C100.738 54.8996 101.048 55.2995 101.35 55.6994C109.4 66.3535 112.3 77.0266 107.708 81.6189L112.975 84.7825C119.5 78.2574 116.024 63.8466 105.442 50.3949C105.133 50.0019 104.818 49.6096 104.496 49.2184C103.947 48.5489 103.379 47.8824 102.795 47.2201C102.187 46.5317 101.561 45.8479 100.917 45.1697C100.466 44.6949 100.006 44.2229 99.5368 43.7542C99.3975 43.6148 99.2578 43.4762 99.1179 43.3384C98.6319 42.8598 98.1426 42.3905 97.6504 41.9308L97.5592 41.8457C97.1988 41.5101 96.8368 41.1796 96.4736 40.8544C95.8296 40.2777 95.1814 39.7173 94.5301 39.1735C94.1524 38.8582 93.7737 38.5484 93.3942 38.2443C79.8017 27.3548 65.1143 23.71 58.5085 30.3158Z" fill="black"/>
<path d="M70.4353 66.6829L74.784 61.4545V67.7344L78.3841 63.2729C76.7434 61.6979 75.0588 60.303 73.3922 59.1119L68.4006 65.1133C69.0813 65.6028 69.7587 66.1248 70.4293 66.678C70.4313 66.6796 70.4333 66.6812 70.4353 66.6829Z" fill="black"/>
<path d="M82.4233 67.6623C81.8873 66.9993 81.3207 66.3375 80.7249 65.6804L75.6909 71.8726C76.2678 72.5536 76.8126 73.2422 77.3239 73.9349L82.4233 67.6623Z" fill="black"/>
<path d="M71.4871 81.0605L71.5143 81.081L72.6942 79.6297C72.2497 78.9543 71.7691 78.305 71.2682 77.6704L71.4871 81.0605Z" fill="black"/>
<path fill-rule="evenodd" clip-rule="evenodd" d="M119.476 40.4607L121.271 22.7251L104.881 26.5754L109.48 31.1742L101.687 40.3107V30.3056L95.4523 38.0315C96.1042 38.5755 96.7528 39.1355 97.3969 39.7111L99.1185 37.5775V41.2973C99.6072 41.7614 100.093 42.2345 100.575 42.7165C101.016 43.1573 101.449 43.601 101.875 44.0474L112.973 31.0358L109.958 28.0207L118.353 26.0484L117.459 34.8867L114.527 32.0125L103.708 46.0374C104.294 46.6965 104.863 47.36 105.416 48.0271L114.794 35.8706L119.476 40.4607ZM71.4871 81.0605L71.4903 81.1106L71.5143 81.081L71.4871 81.0605ZM81.5677 55.2382L89.5303 45.3704C90.1763 45.9166 90.8207 46.4819 91.462 47.066L83.4886 56.947C82.8659 56.3656 82.2364 55.8054 81.6019 55.2672L81.5677 55.2382ZM99.4981 55.6983C98.9641 55.0165 98.4082 54.3348 97.8311 53.655L97.564 54.0012L97.5132 53.2832C96.3966 51.9867 95.2029 50.6982 93.9362 49.4297L85.8872 59.3306C85.9444 59.3911 86.0014 59.4517 86.0582 59.5123C86.5996 60.0901 87.1225 60.6738 87.6266 61.2619L94.8726 52.349L95.4785 60.9087L99.4981 55.6983Z" fill="black"/>
<path d="M44.3177 101.281L41.6182 97.313L63.8731 70.5565C64.5499 71.0342 65.2317 71.5568 65.9115 72.122L47.1504 94.6777L67.6 73.6199C68.1914 74.1788 68.8538 74.8554 69.4037 75.4487L44.3177 101.281Z" fill="black"/>
</svg>
