<svg width="164" height="168" viewBox="0 0 164 168" fill="none" xmlns="http://www.w3.org/2000/svg">
<path d="M78.6239 162.871C74.2007 162.674 70.6613 163.858 68.695 165.238C66.7287 166.619 65.9421 168 64.7623 168C63.5826 168 60.8297 166.619 60.8297 165.436C61.4344 164.861 62.3096 164.338 63.3542 163.858C68.7627 161.374 78.7114 160.051 79.1643 158.729C79.0463 160.007 78.8674 161.36 78.6239 162.871Z" fill="#CBC5C5"/>
<path d="M79.1643 151.228C79.1654 151.242 79.1666 151.255 79.1677 151.269C79.2854 152.937 75.7599 149.038 74.0041 145.907C72.2344 142.751 71.2512 144.724 69.0883 145.907C66.9253 147.091 64.3691 146.696 64.7623 148.077C65.1556 149.458 70.2681 149.852 71.2512 149.852C72.2344 149.852 75.9704 149.852 76.1671 151.036C76.3637 152.219 70.858 153.206 69.8748 153.206C68.8916 153.206 65.9421 151.825 63.9758 150.247C62.0095 148.669 61.6162 145.513 61.6162 143.343C61.6162 141.173 61.6162 141.173 64.3691 141.173C66.9253 141.173 69.2849 138.411 72.431 138.411C74.2007 140.581 77.7401 143.935 79.1643 151.228Z" fill="#CBC5C5"/>
<path d="M59.8465 143.343C59.8465 140.778 61.0263 141.962 61.0263 140.778C60.8952 140.252 60.2398 139.003 58.6667 138.214C56.7004 137.228 53.5543 135.847 54.3408 139.792C54.97 142.948 55.5206 144.395 55.7172 144.724C57.7644 145.773 58.9228 146.515 61.0263 148.274C61.223 145.907 59.8465 144.447 59.8465 143.343Z" fill="#CBC5C5"/>
<path d="M59.8465 148.471C57.0937 145.907 50.8014 143.343 45.689 143.343C45.689 144.329 45.2957 145.513 46.6721 146.499C48.0486 147.485 49.8183 146.302 51.9812 147.288C53.7116 148.077 55.1929 150.115 55.7172 151.036C56.5941 149.599 57.5263 149.046 59.8465 148.471Z" fill="#CBC5C5"/>
<path d="M49.8183 153.206C51.234 152.732 51.588 149.852 51.588 148.471C48.8351 146.499 47.8519 150.247 39.9866 145.513C39.2935 146.941 39.3255 147.809 39.5933 151.228C40.8521 152.43 41.6706 153.014 43.526 153.797C44.272 149.23 45.4719 147.912 49.8183 149.063C48.5992 150.705 48.5655 151.564 49.8183 153.206Z" fill="#CBC5C5"/>
<path d="M62.4028 162.082C62.4028 161.096 60.2398 158.729 59.4533 158.729C58.6667 158.729 56.5038 162.871 53.161 162.871C50.7973 162.871 47.0572 161.885 45.0691 159.912C44.6141 157.465 44.589 155.77 44.8289 154.587C45.2269 152.624 46.3545 152.071 47.4587 151.825C47.4587 153.403 50.2115 155.178 51.9812 155.178C54.5374 155.178 58.0768 149.852 59.06 149.852C60.0432 149.852 62.9927 152.022 63.5826 155.178C68.3017 155.376 74.7906 153.206 79.3047 153.403C79.3375 154.203 79.347 154.985 79.3321 155.77C74.3974 156.165 65.3522 162.674 62.4028 162.082Z" fill="#CBC5C5"/>
<path d="M51.1947 142.751C50.8801 141.489 51.2602 140.515 51.588 140.187C48.2472 132.94 45.2218 130.03 39.3967 125.392C38.5628 132.222 39.7442 135.552 47.0654 142.554L51.1947 142.751Z" fill="#CBC5C5"/>
<path d="M32.9078 143.343C32.9078 143.996 33.4361 144.526 34.0876 144.526C34.7392 144.526 35.2674 143.996 35.2674 143.343C35.2674 142.689 34.7392 142.159 34.0876 142.159C33.4361 142.159 32.9078 142.689 32.9078 143.343Z" fill="#CBC5C5"/>
<path d="M35.6607 129.337C35.6607 129.991 36.1889 130.521 36.8405 130.521C37.4921 130.521 38.0203 129.991 38.0203 129.337C38.0203 128.684 37.4921 128.154 36.8405 128.154C36.1889 128.154 35.6607 128.684 35.6607 129.337Z" fill="#CBC5C5"/>
<path d="M22.093 112.965C22.093 113.619 22.6212 114.149 23.2728 114.149C23.9244 114.149 24.4526 113.619 24.4526 112.965C24.4526 112.311 23.9244 111.782 23.2728 111.782C22.6212 111.782 22.093 112.311 22.093 112.965Z" fill="#CBC5C5"/>
<path d="M5.77252 102.905C5.77252 103.559 6.30073 104.088 6.95231 104.088C7.6039 104.088 8.13211 103.559 8.13211 102.905C8.13211 102.251 7.6039 101.721 6.95231 101.721C6.30073 101.721 5.77252 102.251 5.77252 102.905Z" fill="#CBC5C5"/>
<path d="M15.4075 97.7762C15.4075 98.4299 15.9357 98.9598 16.5873 98.9598C17.2389 98.9598 17.7671 98.4299 17.7671 97.7762C17.7671 97.1225 17.2389 96.5927 16.5873 96.5927C15.9357 96.5927 15.4075 97.1225 15.4075 97.7762Z" fill="#CBC5C5"/>
<path d="M13.8345 82.9819C13.8345 83.6355 14.3627 84.1654 15.0143 84.1654C15.6658 84.1654 16.1941 83.6355 16.1941 82.9819C16.1941 82.3282 15.6658 81.7983 15.0143 81.7983C14.3627 81.7983 13.8345 82.3282 13.8345 82.9819Z" fill="#CBC5C5"/>
<path d="M9.70517 60.0999C9.70517 60.7536 10.2334 61.2835 10.885 61.2835C11.5366 61.2835 12.0648 60.7536 12.0648 60.0999C12.0648 59.4463 11.5366 58.9164 10.885 58.9164C10.2334 58.9164 9.70517 59.4463 9.70517 60.0999Z" fill="#CBC5C5"/>
<path d="M18.7503 64.0451C18.7503 64.6988 19.2785 65.2287 19.9301 65.2287C20.5817 65.2287 21.1099 64.6988 21.1099 64.0451C21.1099 63.3914 20.5817 62.8616 19.9301 62.8616C19.2785 62.8616 18.7503 63.3914 18.7503 64.0451Z" fill="#CBC5C5"/>
<path d="M13.6378 46.4892C13.6378 47.1428 14.166 47.6727 14.8176 47.6727C15.4692 47.6727 15.9974 47.1428 15.9974 46.4892C15.9974 45.8355 15.4692 45.3056 14.8176 45.3056C14.166 45.3056 13.6378 45.8355 13.6378 46.4892Z" fill="#CBC5C5"/>
<path d="M21.6998 40.9659C21.6998 41.6196 22.228 42.1495 22.8796 42.1495C23.5312 42.1495 24.0594 41.6196 24.0594 40.9659C24.0594 40.3123 23.5312 39.7824 22.8796 39.7824C22.228 39.7824 21.6998 40.3123 21.6998 40.9659Z" fill="#CBC5C5"/>
<path d="M35.2674 36.8235C35.2674 37.4772 35.7956 38.0071 36.4472 38.0071C37.0988 38.0071 37.627 37.4772 37.627 36.8235C37.627 36.1699 37.0988 35.64 36.4472 35.64C35.7956 35.64 35.2674 36.1699 35.2674 36.8235Z" fill="#CBC5C5"/>
<path d="M49.2284 21.2401C49.2284 21.8938 49.7566 22.4237 50.4082 22.4237C51.0597 22.4237 51.588 21.8938 51.588 21.2401C51.588 20.5865 51.0597 20.0566 50.4082 20.0566C49.7566 20.0566 49.2284 20.5865 49.2284 21.2401Z" fill="#CBC5C5"/>
<path d="M39.9866 14.3361C39.9866 14.9898 40.5148 15.5197 41.1664 15.5197C41.818 15.5197 42.3462 14.9898 42.3462 14.3361C42.3462 13.6825 41.818 13.1526 41.1664 13.1526C40.5148 13.1526 39.9866 13.6825 39.9866 14.3361Z" fill="#CBC5C5"/>
<path d="M64.959 13.1526C64.959 13.8062 65.4872 14.3361 66.1388 14.3361C66.7904 14.3361 67.3186 13.8062 67.3186 13.1526C67.3186 12.4989 66.7904 11.969 66.1388 11.969C65.4872 11.969 64.959 12.4989 64.959 13.1526Z" fill="#CBC5C5"/>
<path d="M64.1725 3.68419C64.1725 4.33785 64.7007 4.86774 65.3522 4.86774C66.0038 4.86774 66.532 4.33785 66.532 3.68419C66.532 3.03054 66.0038 2.50065 65.3522 2.50065C64.7007 2.50065 64.1725 3.03054 64.1725 3.68419Z" fill="#CBC5C5"/>
<path d="M44.5092 142.159C44.247 142.883 43.8799 144.566 44.5092 145.513C37.82 144.273 26.8832 134.609 27.5988 127.365C33.7032 129.111 37.3423 132.207 44.5092 142.159Z" fill="#CBC5C5"/>
<path d="M36.8405 125.984C36.4472 120.264 28.3853 109.809 26.8122 110.598C25.2392 111.387 26.0257 125.59 32.5146 128.351C32.9865 127.247 35.5952 126.313 36.8405 125.984Z" fill="#CBC5C5"/>
<path d="M32.3179 140.384C29.1718 137.031 23.4695 133.677 18.1604 134.466C19.5368 139.792 27.7954 142.948 31.1381 144.526C30.7449 143.343 31.3348 140.976 32.3179 140.384Z" fill="#CBC5C5"/>
<path d="M38.0203 149.852C37.4304 148.077 38.4136 146.302 37.8237 146.104C37.3517 145.947 34.4809 145.776 33.1045 145.71C34.442 147.434 35.4848 148.353 38.0203 149.852Z" fill="#CBC5C5"/>
<path d="M27.5988 125.984C26.8122 121.842 20.52 111.584 17.7671 112.571C15.0143 113.557 18.7503 128.746 26.419 132.494C24.4526 128.351 25.5831 125.984 27.5988 125.984Z" fill="#CBC5C5"/>
<path d="M25.4358 110.203C25.0425 104.483 26.0257 101.919 24.0594 97.7762C22.093 93.6338 21.5031 94.0283 20.7166 94.2256C19.9301 94.4228 17.9637 100.341 18.7503 104.68C19.3795 108.152 20.3233 111.387 20.7166 112.571C21.0443 111.847 21.9357 110.282 22.8796 109.809C23.8234 109.336 24.977 109.875 25.4358 110.203Z" fill="#CBC5C5"/>
<path d="M18.7503 111.782C18.5739 102.905 12.6547 94.8371 10.885 95.0146C6.95231 95.4091 10.0984 113.754 15.4075 116.121C15.4075 111.782 16.5873 110.203 18.7503 111.782Z" fill="#CBC5C5"/>
<path d="M24.4526 133.085C18.5536 129.337 19.7334 126.576 16.1941 123.222C13.3625 120.54 9.63963 119.475 8.13211 119.277C11.1366 127.891 14.4264 131.19 24.4526 133.085Z" fill="#CBC5C5"/>
<path d="M14.621 119.869C13.4412 114.442 5.37925 102.905 3.01966 104.088C3.01966 106.653 7.24099 113.754 8.13211 117.699C11.1209 118.015 13.7034 119.277 14.621 119.869Z" fill="#CBC5C5"/>
<path d="M22.4863 80.2203C18.7503 81.7983 13.8345 87.5188 15.0143 95.8036C16.2727 94.2256 17.636 94.6201 18.1604 95.0146C18.8029 93.2603 19.3183 92.6724 20.7166 92.8448C22.9804 87.8957 23.1133 85.1346 22.4863 80.2203Z" fill="#CBC5C5"/>
<path d="M10.0984 73.7107C7.54221 76.2751 5.00901 87.1285 8.13211 96.5927C10.2765 93.3904 11.3125 93.9851 13.2446 93.831C13.7609 90.8812 13.8833 87.8919 13.7402 85.1517C13.4439 84.8229 12.812 83.9287 12.6547 82.9819C12.4974 82.035 13.0205 81.2723 13.3018 81.0093C12.6118 76.7859 11.3079 73.8226 10.0984 73.7107Z" fill="#CBC5C5"/>
<path d="M2.03649 87.1243C2.03649 92.8448 2.95816 95.8816 3.01966 102.313C3.60956 103.694 5.77252 103.497 5.37925 99.5515C5.66047 100.492 7.46417 101.396 7.14895 96.7899C6.83372 92.1842 2.03649 87.1243 2.03649 87.1243Z" fill="#CBC5C5"/>
<path d="M24.6493 65.8204C24.475 73.0156 22.8083 75.8925 18.7503 80.2203C17.7951 78.3103 15.9974 81.0093 14.2277 79.234C18.1604 72.1327 16.5873 69.9628 19.9301 67.793C21.8025 66.3731 22.8262 66.1477 24.6493 65.8204Z" fill="#CBC5C5"/>
<path d="M15.9974 57.3383C10.0984 63.4533 6.71775 67.3427 8.13211 75.2888C10.1522 71.1041 11.43 72.1341 13.8345 77.0641C17.3861 69.2726 18.1884 64.948 15.9974 57.3383Z" fill="#CBC5C5"/>
<path d="M5.37925 89.0969C6.06561 83.1491 6.36241 80.2203 5.77252 77.0641C4.8616 74.8731 3.93663 73.8268 1.44659 72.3299C0.497333 77.4953 0.575569 80.3813 1.44659 85.5462C3.66752 86.2633 4.32545 87.2364 5.37925 89.0969Z" fill="#CBC5C5"/>
<path d="M6.55905 75.2888C5.77252 68.7793 8.52537 65.2287 8.52537 61.2835C8.52537 57.3383 5.77252 54.9712 5.77252 54.9712C3.99495 62.0223 3.74307 65.7562 3.60956 72.3299C4.78898 72.774 5.44006 73.4615 6.55905 75.2888Z" fill="#CBC5C5"/>
<path d="M30.155 51.8151C28.4623 57.2269 27.0205 59.9237 22.8796 63.6506C22.3126 62.0294 21.9126 61.6046 21.1099 61.2835C22.4752 58.5754 22.6897 57.0644 22.8796 54.3795C27.0194 51.6044 28.1462 51.6782 30.155 51.8151Z" fill="#CBC5C5"/>
<path d="M19.3402 60.0999C16.7804 55.3277 15.5993 55.1625 13.7402 57.3383C13.8348 53.2658 14.5069 51.5823 15.9974 48.8563C17.3829 48.6541 17.6331 47.8016 17.7671 46.4892C19.8943 44.2557 20.9886 43.7567 22.8796 43.333C22.7611 50.4158 22.1873 54.1738 19.3402 60.0999Z" fill="#CBC5C5"/>
<path d="M12.0648 44.1221C9.27559 46.5605 8.14699 48.6122 7.34558 54.1822C8.10186 54.8299 8.47585 55.7449 9.11527 57.7328C10.0119 56.7355 10.5301 56.5943 11.4749 56.9438C13.392 52.038 13.3946 49.2322 12.0648 44.1221Z" fill="#CBC5C5"/>
<path d="M23.4695 52.4069C24.6192 44.756 30.155 38.9934 35.2674 38.9934C37.2338 38.9934 38.348 37.0208 39.0035 38.0071C39.355 38.536 36.6863 42.9503 32.9078 46.6864C29.6412 49.9165 25.3841 52.5898 23.4695 52.4069Z" fill="#CBC5C5"/>
<path d="M35.6607 26.5661C28.7047 28.2405 25.6699 30.3062 22.8796 37.4153C24.9163 39.2253 26.4468 39.9846 24.0594 44.7138C32.2675 38.2421 34.3459 34.1954 35.6607 26.5661Z" fill="#CBC5C5"/>
<path d="M21.6998 29.1305C16.9036 33.587 15.0133 36.5575 12.8513 42.544C12.8488 43.5088 12.9094 43.9981 13.4412 44.5166C14.3305 43.9986 15.0654 43.8603 17.1772 44.1221C21.2532 38.0764 21.9828 34.8154 21.6998 29.1305Z" fill="#CBC5C5"/>
<path d="M48.4418 17.295C39.5557 17.7883 35.6633 19.7904 30.7449 26.5661C36.4137 24.4314 37.7605 24.8229 36.8405 29.1305C43.4401 25.259 45.5943 22.5242 48.4418 17.295Z" fill="#CBC5C5"/>
<path d="M38.8068 14.1389C38.4136 17.6895 29.3685 24.5935 22.6829 34.2592C25.0425 27.3551 25.8436 26.0202 22.8796 27.9469C28.3759 18.9581 31.9152 16.1937 38.8068 14.1389Z" fill="#CBC5C5"/>
<path d="M51.588 25.9743C50.1856 24.4224 49.2306 23.8281 46.2789 24.199C42.514 27.5208 40.4782 28.6647 37.0042 30.6165L36.8405 30.7085C36.2236 31.5434 35.9423 32.3077 35.6607 33.6674C41.1385 33.6789 44.6524 31.9484 51.588 25.9743Z" fill="#CBC5C5"/>
<path d="M58.4701 17.295C54.7341 18.8731 49.8183 18.2813 49.8183 18.2813C49.6845 15.3616 48.0773 15.7372 45.8856 15.5197C53.1386 9.82028 57.4532 8.43689 65.7455 10.3707C61.8129 11.969 64.1725 14.8864 58.4701 17.295Z" fill="#CBC5C5"/>
<path d="M51.7846 23.2127C59.1189 23.14 62.354 21.9805 67.3186 18.8731C66.4342 16.5173 65.5205 15.9991 62.796 15.7169C60.3036 19.0471 58.0432 20.0676 53.161 21.0429C52.9708 22.0914 52.704 22.6556 51.7846 23.2127Z" fill="#CBC5C5"/>
<path d="M62.796 2.89516C62.195 5.76179 61.4645 7.22155 57.4869 8.8129C53.9902 9.6234 52.8794 9.01722 45.2957 14.9279C44.6607 15.3274 44.3161 15.4586 43.7226 15.5197C43.8113 13.868 43.6594 13.0898 43.1327 11.969C49.8607 6.06275 54.3414 4.51149 62.796 2.89516Z" fill="#CBC5C5"/>
<path d="M81.2795 15.5197C80.7527 14.0209 80.1317 13.3457 78.5266 12.3635C76.6193 13.445 74.6484 13.6784 69.6782 13.5471C68.4155 14.2065 67.8699 14.6289 67.3186 15.5197C72.2129 17.598 75.292 17.591 81.2795 15.5197Z" fill="#CBC5C5"/>
<path d="M81.2795 0.133552C80.3466 1.60732 79.6621 2.43004 77.9367 3.88145C73.7039 3.61194 71.4925 3.90341 67.7118 4.86774C67.916 3.94535 67.8644 3.42357 67.7118 2.50065C73.8057 0.082413 76.6818 -0.247386 81.2795 0.133552Z" fill="#CBC5C5"/>
<path d="M85.9034 162.871C90.3266 162.674 93.866 163.858 95.8323 165.238C97.7987 166.619 98.5852 168 99.765 168C100.945 168 103.698 166.619 103.698 165.436C103.093 164.861 102.218 164.338 101.173 163.858C95.7647 161.374 85.816 160.051 85.3631 158.729C85.481 160.007 85.6599 161.36 85.9034 162.871Z" fill="#CBC5C5"/>
<path d="M85.3631 151.228C85.3619 151.242 85.3608 151.255 85.3596 151.269C85.242 152.937 88.7675 149.038 90.5233 145.907C92.293 142.751 93.2761 144.724 95.4391 145.907C97.602 147.091 100.158 146.696 99.765 148.077C99.3717 149.458 94.2593 149.852 93.2761 149.852C92.293 149.852 88.5569 149.852 88.3603 151.036C88.1637 152.219 93.6694 153.206 94.6525 153.206C95.6357 153.206 98.5852 151.825 100.552 150.247C102.518 148.669 102.911 145.513 102.911 143.343C102.911 141.173 102.911 141.173 100.158 141.173C97.602 141.173 95.2424 138.411 92.0963 138.411C90.3266 140.581 86.7872 143.935 85.3631 151.228Z" fill="#CBC5C5"/>
<path d="M104.681 143.343C104.681 140.778 103.501 141.962 103.501 140.778C103.632 140.252 104.288 139.003 105.861 138.214C107.827 137.228 110.973 135.847 110.187 139.792C109.557 142.948 109.007 144.395 108.81 144.724C106.763 145.773 105.605 146.515 103.501 148.274C103.304 145.907 104.681 144.447 104.681 143.343Z" fill="#CBC5C5"/>
<path d="M104.681 148.471C107.434 145.907 113.726 143.343 118.838 143.343C118.838 144.329 119.232 145.513 117.855 146.499C116.479 147.485 114.709 146.302 112.546 147.288C110.816 148.077 109.334 150.115 108.81 151.036C107.933 149.599 107.001 149.046 104.681 148.471Z" fill="#CBC5C5"/>
<path d="M114.709 153.206C113.293 152.732 112.939 149.852 112.939 148.471C115.692 146.499 116.675 150.247 124.541 145.513C125.234 146.941 125.202 147.809 124.934 151.228C123.675 152.43 122.857 153.014 121.001 153.797C120.255 149.23 119.055 147.912 114.709 149.063C115.928 150.705 115.962 151.564 114.709 153.206Z" fill="#CBC5C5"/>
<path d="M102.125 162.082C102.125 161.096 104.288 158.729 105.074 158.729C105.861 158.729 108.024 162.871 111.366 162.871C113.73 162.871 117.47 161.885 119.458 159.912C119.913 157.465 119.938 155.77 119.698 154.587C119.3 152.624 118.173 152.071 117.069 151.825C117.069 153.403 114.316 155.178 112.546 155.178C109.99 155.178 106.451 149.852 105.467 149.852C104.484 149.852 101.535 152.022 100.945 155.178C96.2256 155.376 89.7367 153.206 85.2227 153.403C85.1898 154.203 85.1804 154.985 85.1953 155.77C90.13 156.165 99.1751 162.674 102.125 162.082Z" fill="#CBC5C5"/>
<path d="M113.333 142.751C113.647 141.489 113.267 140.515 112.939 140.187C116.28 132.94 119.306 130.03 125.131 125.392C125.965 132.222 124.783 135.552 117.462 142.554L113.333 142.751Z" fill="#CBC5C5"/>
<path d="M131.62 143.343C131.62 143.996 131.091 144.526 130.44 144.526C129.788 144.526 129.26 143.996 129.26 143.343C129.26 142.689 129.788 142.159 130.44 142.159C131.091 142.159 131.62 142.689 131.62 143.343Z" fill="#CBC5C5"/>
<path d="M128.867 129.337C128.867 129.991 128.338 130.521 127.687 130.521C127.035 130.521 126.507 129.991 126.507 129.337C126.507 128.684 127.035 128.154 127.687 128.154C128.338 128.154 128.867 128.684 128.867 129.337Z" fill="#CBC5C5"/>
<path d="M142.434 112.965C142.434 113.619 141.906 114.149 141.255 114.149C140.603 114.149 140.075 113.619 140.075 112.965C140.075 112.311 140.603 111.782 141.255 111.782C141.906 111.782 142.434 112.311 142.434 112.965Z" fill="#CBC5C5"/>
<path d="M158.755 102.905C158.755 103.559 158.227 104.088 157.575 104.088C156.923 104.088 156.395 103.559 156.395 102.905C156.395 102.251 156.923 101.721 157.575 101.721C158.227 101.721 158.755 102.251 158.755 102.905Z" fill="#CBC5C5"/>
<path d="M149.12 97.7762C149.12 98.4299 148.592 98.9598 147.94 98.9598C147.288 98.9598 146.76 98.4299 146.76 97.7762C146.76 97.1225 147.288 96.5927 147.94 96.5927C148.592 96.5927 149.12 97.1225 149.12 97.7762Z" fill="#CBC5C5"/>
<path d="M150.693 82.9819C150.693 83.6355 150.165 84.1654 149.513 84.1654C148.862 84.1654 148.333 83.6355 148.333 82.9819C148.333 82.3282 148.862 81.7983 149.513 81.7983C150.165 81.7983 150.693 82.3282 150.693 82.9819Z" fill="#CBC5C5"/>
<path d="M154.822 60.0999C154.822 60.7536 154.294 61.2835 153.642 61.2835C152.991 61.2835 152.463 60.7536 152.463 60.0999C152.463 59.4463 152.991 58.9164 153.642 58.9164C154.294 58.9164 154.822 59.4463 154.822 60.0999Z" fill="#CBC5C5"/>
<path d="M145.777 64.0451C145.777 64.6988 145.249 65.2287 144.597 65.2287C143.946 65.2287 143.417 64.6988 143.417 64.0451C143.417 63.3914 143.946 62.8616 144.597 62.8616C145.249 62.8616 145.777 63.3914 145.777 64.0451Z" fill="#CBC5C5"/>
<path d="M150.89 46.4892C150.89 47.1428 150.361 47.6727 149.71 47.6727C149.058 47.6727 148.53 47.1428 148.53 46.4892C148.53 45.8355 149.058 45.3056 149.71 45.3056C150.361 45.3056 150.89 45.8355 150.89 46.4892Z" fill="#CBC5C5"/>
<path d="M142.828 40.9659C142.828 41.6196 142.299 42.1495 141.648 42.1495C140.996 42.1495 140.468 41.6196 140.468 40.9659C140.468 40.3123 140.996 39.7824 141.648 39.7824C142.299 39.7824 142.828 40.3123 142.828 40.9659Z" fill="#CBC5C5"/>
<path d="M129.26 36.8235C129.26 37.4772 128.732 38.0071 128.08 38.0071C127.429 38.0071 126.9 37.4772 126.9 36.8235C126.9 36.1699 127.429 35.64 128.08 35.64C128.732 35.64 129.26 36.1699 129.26 36.8235Z" fill="#CBC5C5"/>
<path d="M115.299 21.2401C115.299 21.8938 114.771 22.4237 114.119 22.4237C113.468 22.4237 112.939 21.8938 112.939 21.2401C112.939 20.5865 113.468 20.0566 114.119 20.0566C114.771 20.0566 115.299 20.5865 115.299 21.2401Z" fill="#CBC5C5"/>
<path d="M124.541 14.3361C124.541 14.9898 124.013 15.5197 123.361 15.5197C122.709 15.5197 122.181 14.9898 122.181 14.3361C122.181 13.6825 122.709 13.1526 123.361 13.1526C124.013 13.1526 124.541 13.6825 124.541 14.3361Z" fill="#CBC5C5"/>
<path d="M99.5684 13.1526C99.5684 13.8062 99.0402 14.3361 98.3886 14.3361C97.737 14.3361 97.2088 13.8062 97.2088 13.1526C97.2088 12.4989 97.737 11.969 98.3886 11.969C99.0402 11.969 99.5684 12.4989 99.5684 13.1526Z" fill="#CBC5C5"/>
<path d="M100.355 3.68419C100.355 4.33785 99.8267 4.86774 99.1751 4.86774C98.5235 4.86774 97.9953 4.33785 97.9953 3.68419C97.9953 3.03054 98.5235 2.50065 99.1751 2.50065C99.8267 2.50065 100.355 3.03054 100.355 3.68419Z" fill="#CBC5C5"/>
<path d="M120.018 142.159C120.28 142.883 120.647 144.566 120.018 145.513C126.707 144.273 137.644 134.609 136.929 127.365C130.824 129.111 127.185 132.207 120.018 142.159Z" fill="#CBC5C5"/>
<path d="M127.687 125.984C128.08 120.264 136.142 109.809 137.715 110.598C139.288 111.387 138.502 125.59 132.013 128.351C131.541 127.247 128.932 126.313 127.687 125.984Z" fill="#CBC5C5"/>
<path d="M132.209 140.384C135.356 137.031 141.058 133.677 146.367 134.466C144.991 139.792 136.732 142.948 133.389 144.526C133.782 143.343 133.193 140.976 132.209 140.384Z" fill="#CBC5C5"/>
<path d="M126.507 149.852C127.097 148.077 126.114 146.302 126.704 146.104C127.176 145.947 130.046 145.776 131.423 145.71C130.085 147.434 129.043 148.353 126.507 149.852Z" fill="#CBC5C5"/>
<path d="M136.929 125.984C137.715 121.842 144.007 111.584 146.76 112.571C149.513 113.557 145.777 128.746 138.108 132.494C140.075 128.351 138.944 125.984 136.929 125.984Z" fill="#CBC5C5"/>
<path d="M139.092 110.203C139.485 104.483 138.502 101.919 140.468 97.7762C142.434 93.6338 143.024 94.0283 143.811 94.2256C144.597 94.4228 146.564 100.341 145.777 104.68C145.148 108.152 144.204 111.387 143.811 112.571C143.483 111.847 142.592 110.282 141.648 109.809C140.704 109.336 139.55 109.875 139.092 110.203Z" fill="#CBC5C5"/>
<path d="M145.777 111.782C145.953 102.905 151.873 94.8371 153.642 95.0146C157.575 95.4091 154.429 113.754 149.12 116.121C149.12 111.782 147.94 110.203 145.777 111.782Z" fill="#CBC5C5"/>
<path d="M140.075 133.085C145.974 129.337 144.794 126.576 148.333 123.222C151.165 120.54 154.888 119.475 156.395 119.277C153.391 127.891 150.101 131.19 140.075 133.085Z" fill="#CBC5C5"/>
<path d="M149.906 119.869C151.086 114.442 159.148 102.905 161.508 104.088C161.508 106.653 157.286 113.754 156.395 117.699C153.406 118.015 150.824 119.277 149.906 119.869Z" fill="#CBC5C5"/>
<path d="M142.041 80.2203C145.777 81.7983 150.693 87.5188 149.513 95.8036C148.255 94.2256 146.891 94.6201 146.367 95.0146C145.724 93.2603 145.209 92.6724 143.811 92.8448C141.547 87.8957 141.414 85.1346 142.041 80.2203Z" fill="#CBC5C5"/>
<path d="M154.429 73.7107C156.985 76.2751 159.518 87.1285 156.395 96.5927C154.251 93.3904 153.215 93.9851 151.283 93.831C150.766 90.8812 150.644 87.8919 150.787 85.1517C151.083 84.8229 151.715 83.9287 151.873 82.9819C152.03 82.035 151.507 81.2723 151.226 81.0093C151.916 76.7859 153.219 73.8226 154.429 73.7107Z" fill="#CBC5C5"/>
<path d="M162.491 87.1243C162.491 92.8448 161.569 95.8816 161.508 102.313C160.918 103.694 158.755 103.497 159.148 99.5515C158.867 100.492 157.063 101.396 157.378 96.7899C157.694 92.1842 162.491 87.1243 162.491 87.1243Z" fill="#CBC5C5"/>
<path d="M139.878 65.8204C140.052 73.0156 141.719 75.8925 145.777 80.2203C146.732 78.3103 148.53 81.0093 150.3 79.234C146.367 72.1327 147.94 69.9628 144.597 67.793C142.725 66.3731 141.701 66.1477 139.878 65.8204Z" fill="#CBC5C5"/>
<path d="M148.53 57.3383C154.429 63.4533 157.81 67.3427 156.395 75.2888C154.375 71.1041 153.097 72.1341 150.693 77.0641C147.141 69.2726 146.339 64.948 148.53 57.3383Z" fill="#CBC5C5"/>
<path d="M159.148 89.0969C158.462 83.1491 158.165 80.2203 158.755 77.0641C159.666 74.8731 160.591 73.8268 163.081 72.3299C164.03 77.4953 163.952 80.3813 163.081 85.5462C160.86 86.2633 160.202 87.2364 159.148 89.0969Z" fill="#CBC5C5"/>
<path d="M157.968 75.2888C158.755 68.7793 156.002 65.2287 156.002 61.2835C156.002 57.3383 158.755 54.9712 158.755 54.9712C160.532 62.0223 160.784 65.7562 160.918 72.3299C159.738 72.774 159.087 73.4615 157.968 75.2888Z" fill="#CBC5C5"/>
<path d="M134.372 51.8151C136.065 57.2269 137.507 59.9237 141.648 63.6506C142.215 62.0294 142.615 61.6046 143.417 61.2835C142.052 58.5754 141.838 57.0644 141.648 54.3795C137.508 51.6044 136.381 51.6782 134.372 51.8151Z" fill="#CBC5C5"/>
<path d="M145.187 60.0999C147.747 55.3277 148.928 55.1625 150.787 57.3383C150.693 53.2658 150.02 51.5823 148.53 48.8563C147.144 48.6541 146.894 47.8016 146.76 46.4892C144.633 44.2557 143.539 43.7567 141.648 43.333C141.766 50.4158 142.34 54.1738 145.187 60.0999Z" fill="#CBC5C5"/>
<path d="M152.463 44.1221C155.252 46.5605 156.38 48.6122 157.182 54.1822C156.425 54.8299 156.051 55.7449 155.412 57.7328C154.515 56.7355 153.997 56.5943 153.052 56.9438C151.135 52.038 151.133 49.2322 152.463 44.1221Z" fill="#CBC5C5"/>
<path d="M141.058 52.4069C139.908 44.756 134.372 38.9934 129.26 38.9934C127.294 38.9934 126.179 37.0208 125.524 38.0071C125.172 38.536 127.841 42.9503 131.62 46.6864C134.886 49.9165 139.143 52.5898 141.058 52.4069Z" fill="#CBC5C5"/>
<path d="M128.867 26.5661C135.823 28.2405 138.857 30.3062 141.648 37.4153C139.611 39.2253 138.081 39.9846 140.468 44.7138C132.26 38.2421 130.181 34.1954 128.867 26.5661Z" fill="#CBC5C5"/>
<path d="M142.828 29.1305C147.624 33.587 149.514 36.5575 151.676 42.544C151.678 43.5088 151.618 43.9981 151.086 44.5166C150.197 43.9986 149.462 43.8603 147.35 44.1221C143.274 38.0764 142.545 34.8154 142.828 29.1305Z" fill="#CBC5C5"/>
<path d="M116.086 17.295C124.972 17.7883 128.864 19.7904 133.782 26.5661C128.114 24.4314 126.767 24.8229 127.687 29.1305C121.087 25.259 118.933 22.5242 116.086 17.295Z" fill="#CBC5C5"/>
<path d="M125.721 14.1389C126.114 17.6895 135.159 24.5935 141.844 34.2592C139.485 27.3551 138.684 26.0202 141.648 27.9469C136.151 18.9581 132.612 16.1937 125.721 14.1389Z" fill="#CBC5C5"/>
<path d="M112.939 25.9743C114.342 24.4224 115.297 23.8281 118.248 24.199C122.013 27.5208 124.049 28.6647 127.523 30.6165L127.687 30.7085C128.304 31.5434 128.585 32.3077 128.867 33.6674C123.389 33.6789 119.875 31.9484 112.939 25.9743Z" fill="#CBC5C5"/>
<path d="M106.057 17.295C109.793 18.8731 114.709 18.2813 114.709 18.2813C114.843 15.3616 116.45 15.7372 118.642 15.5197C111.389 9.82028 107.074 8.43689 98.7818 10.3707C102.714 11.969 100.355 14.8864 106.057 17.295Z" fill="#CBC5C5"/>
<path d="M112.743 23.2127C105.408 23.14 102.173 21.9805 97.2088 18.8731C98.0932 16.5173 99.0069 15.9991 101.731 15.7169C104.224 19.0471 106.484 20.0676 111.366 21.0429C111.557 22.0914 111.823 22.6556 112.743 23.2127Z" fill="#CBC5C5"/>
<path d="M101.731 2.89516C102.332 5.76179 103.063 7.22155 107.04 8.8129C110.537 9.6234 111.648 9.01722 119.232 14.9279C119.867 15.3274 120.211 15.4586 120.805 15.5197C120.716 13.868 120.868 13.0898 121.395 11.969C114.667 6.06275 110.186 4.51149 101.731 2.89516Z" fill="#CBC5C5"/>
<path d="M83.2478 15.5197C83.7746 14.0209 84.3957 13.3457 86.0007 12.3635C87.9081 13.445 89.8789 13.6784 94.8492 13.5471C96.1118 14.2065 96.6575 14.6289 97.2088 15.5197C92.3145 17.598 89.2353 17.591 83.2478 15.5197Z" fill="#CBC5C5"/>
<path d="M83.2478 0.133552C84.1807 1.60732 84.8652 2.43004 86.5906 3.88145C90.8234 3.61194 93.0349 3.90341 96.8155 4.86774C96.6113 3.94535 96.663 3.42357 96.8155 2.50065C90.7217 0.082413 87.8455 -0.247386 83.2478 0.133552Z" fill="#CBC5C5"/>
<path d="M78.5266 163.463C78.5266 163.463 80.494 163.858 82.2637 163.858C84.0334 163.858 86.0007 163.463 86.0007 163.463C85.9672 163.263 85.9348 163.066 85.9034 162.871C85.6599 161.36 85.481 160.007 85.3631 158.729C85.2689 157.709 85.2136 156.737 85.1953 155.77C85.1804 154.985 85.1898 154.203 85.2227 153.403C85.2511 152.711 85.2969 152.004 85.3596 151.269L85.3631 151.228C85.4996 149.64 85.7144 147.915 86.0007 145.907C86.0007 145.907 84.23 145.513 82.2637 145.513C80.2973 145.513 78.5266 145.907 78.5266 145.907C78.813 147.915 79.0277 149.64 79.1643 151.228L79.1677 151.269C79.2304 152.004 79.2763 152.711 79.3047 153.403C79.3375 154.203 79.347 154.985 79.3321 155.77C79.3137 156.737 79.2584 157.709 79.1643 158.729C79.0463 160.007 78.8674 161.36 78.6239 162.871C78.5926 163.066 78.5601 163.263 78.5266 163.463Z" fill="#CBC5C5"/>
<path fill-rule="evenodd" clip-rule="evenodd" d="M78.5266 145.907C78.5266 145.907 80.2973 145.513 82.2637 145.513C84.23 145.513 86.0007 145.907 86.0007 145.907C85.7144 147.915 85.4996 149.64 85.3631 151.228C86.7872 143.935 90.3266 140.581 92.0963 138.411C95.2424 138.411 97.602 141.173 100.158 141.173C102.911 141.173 102.911 141.173 102.911 143.343C102.911 145.513 102.518 148.669 100.552 150.247C98.5852 151.825 95.6357 153.206 94.6525 153.206C93.6694 153.206 88.1637 152.219 88.3603 151.036C88.5569 149.852 92.293 149.852 93.2761 149.852C94.2593 149.852 99.3717 149.458 99.765 148.077C100.158 146.696 97.602 147.091 95.4391 145.907C93.2761 144.724 92.293 142.751 90.5233 145.907C88.7675 149.038 85.242 152.937 85.3596 151.269C85.2969 152.004 85.2511 152.711 85.2227 153.403C89.7367 153.206 96.2256 155.376 100.945 155.178C101.535 152.022 104.484 149.852 105.467 149.852C106.451 149.852 109.99 155.178 112.546 155.178C114.316 155.178 117.069 153.403 117.069 151.825C118.173 152.071 119.3 152.624 119.698 154.587L121.001 153.797C120.255 149.23 119.055 147.912 114.709 149.063C115.928 150.705 115.962 151.564 114.709 153.206C113.293 152.732 112.939 149.852 112.939 148.471C115.692 146.499 116.675 150.247 124.541 145.513C125.234 146.941 125.202 147.809 124.934 151.228L126.507 149.852C127.097 148.077 126.114 146.302 126.704 146.104C127.176 145.947 130.046 145.776 131.423 145.71L133.389 144.526C133.782 143.343 133.193 140.976 132.209 140.384C135.356 137.031 141.058 133.677 146.367 134.466L140.075 133.085C145.974 129.337 144.794 126.576 148.333 123.222C151.165 120.54 154.888 119.475 156.395 119.277V117.699C153.406 118.015 150.824 119.277 149.906 119.869C151.086 114.442 159.148 102.905 161.508 104.088V102.313C160.918 103.694 158.755 103.497 159.148 99.5515C158.867 100.492 157.063 101.396 157.378 96.7899C157.694 92.1842 162.491 87.1243 162.491 87.1243L163.081 85.5462C160.86 86.2633 160.202 87.2364 159.148 89.0969C158.462 83.1491 158.165 80.2203 158.755 77.0641C159.666 74.8731 160.591 73.8268 163.081 72.3299H160.918C159.738 72.774 159.087 73.4615 157.968 75.2888C158.755 68.7793 156.002 65.2287 156.002 61.2835C156.002 57.3383 158.755 54.9712 158.755 54.9712L157.182 54.1822C156.425 54.8299 156.051 55.7449 155.412 57.7328C154.515 56.7355 153.997 56.5943 153.052 56.9438C151.135 52.038 151.133 49.2322 152.463 44.1221L151.676 42.544C151.678 43.5088 151.618 43.9981 151.086 44.5166C150.197 43.9986 149.462 43.8603 147.35 44.1221C143.274 38.0764 142.545 34.8154 142.828 29.1305L141.648 27.9469C138.684 26.0202 139.485 27.3551 141.844 34.2592C135.159 24.5935 126.114 17.6895 125.721 14.1389L124.541 14.3361C124.541 14.9898 124.013 15.5197 123.361 15.5197C122.709 15.5197 122.181 14.9898 122.181 14.3361L121.395 11.969C120.868 13.0898 120.716 13.868 120.805 15.5197C120.211 15.4586 119.867 15.3274 119.232 14.9279C111.648 9.01722 110.537 9.6234 107.04 8.8129C103.063 7.22155 102.332 5.76179 101.731 2.89516L100.355 3.68419C100.355 4.33785 99.8267 4.86774 99.1751 4.86774C98.5235 4.86774 97.9953 4.33785 97.9953 3.68419L96.8155 2.50065C96.663 3.42357 96.6113 3.94535 96.8155 4.86774C93.0349 3.90341 90.8234 3.61194 86.5906 3.88145C84.8652 2.43004 84.1807 1.60732 83.2478 0.133552H83.2468H81.2805H81.2795C80.3466 1.60732 79.6621 2.43004 77.9367 3.88145C73.7039 3.61194 71.4925 3.90341 67.7118 4.86774C67.916 3.94535 67.8644 3.42357 67.7118 2.50065L66.532 3.68419C66.532 4.33785 66.0038 4.86774 65.3522 4.86774C64.7007 4.86774 64.1725 4.33785 64.1725 3.68419L62.796 2.89516C62.195 5.76179 61.4645 7.22155 57.4869 8.8129C53.9902 9.6234 52.8794 9.01722 45.2957 14.9279C44.6607 15.3274 44.3161 15.4586 43.7226 15.5197C43.8113 13.868 43.6594 13.0898 43.1327 11.969L42.3462 14.3361C42.3462 14.9898 41.818 15.5197 41.1664 15.5197C40.5148 15.5197 39.9866 14.9898 39.9866 14.3361L38.8068 14.1389C38.4136 17.6895 29.3685 24.5935 22.6829 34.2592C25.0425 27.3551 25.8436 26.0202 22.8796 27.9469L21.6998 29.1305C21.9828 34.8154 21.2532 38.0764 17.1772 44.1221C15.0654 43.8603 14.3305 43.9986 13.4412 44.5166C12.9094 43.9981 12.8488 43.5088 12.8513 42.544L12.0648 44.1221C13.3946 49.2322 13.392 52.038 11.4749 56.9438C10.5301 56.5943 10.0119 56.7355 9.11527 57.7328C8.47585 55.7449 8.10186 54.8299 7.34558 54.1822L5.77252 54.9712C5.77252 54.9712 8.52537 57.3383 8.52537 61.2835C8.52537 65.2287 5.77252 68.7793 6.55905 75.2888C5.44006 73.4615 4.78898 72.774 3.60956 72.3299H1.44659C3.93663 73.8268 4.8616 74.8731 5.77252 77.0641C6.36241 80.2203 6.06561 83.1491 5.37925 89.0969C4.32545 87.2364 3.66752 86.2633 1.44659 85.5462L2.03649 87.1243C2.03649 87.1243 6.83372 92.1842 7.14895 96.7899C7.46417 101.396 5.66047 100.492 5.37925 99.5515C5.77252 103.497 3.60956 103.694 3.01966 102.313V104.088C5.37925 102.905 13.4412 114.442 14.621 119.869C13.7034 119.277 11.1209 118.015 8.13211 117.699V119.277C9.63963 119.475 13.3625 120.54 16.1941 123.222C19.7334 126.576 18.5536 129.337 24.4526 133.085L18.1604 134.466C23.4695 133.677 29.1718 137.031 32.3179 140.384C31.3348 140.976 30.7449 143.343 31.1381 144.526L33.1045 145.71C34.4809 145.776 37.3517 145.947 37.8237 146.104C38.4136 146.302 37.4304 148.077 38.0203 149.852L39.5933 151.228C39.3255 147.809 39.2935 146.941 39.9866 145.513C47.8519 150.247 48.8351 146.499 51.588 148.471C51.588 149.852 51.234 152.732 49.8183 153.206C48.5655 151.564 48.5992 150.705 49.8183 149.063C45.4719 147.912 44.272 149.23 43.526 153.797L44.8289 154.587C45.2269 152.624 46.3545 152.071 47.4587 151.825C47.4587 153.403 50.2115 155.178 51.9812 155.178C54.5374 155.178 58.0768 149.852 59.06 149.852C60.0432 149.852 62.9927 152.022 63.5826 155.178C68.3017 155.376 74.7906 153.206 79.3047 153.403C79.2763 152.711 79.2304 152.004 79.1677 151.269C79.2854 152.937 75.7599 149.038 74.0041 145.907C72.2344 142.751 71.2512 144.724 69.0883 145.907C66.9253 147.091 64.3691 146.696 64.7623 148.077C65.1556 149.458 70.2681 149.852 71.2512 149.852C72.2344 149.852 75.9704 149.852 76.1671 151.036C76.3637 152.219 70.858 153.206 69.8748 153.206C68.8916 153.206 65.9421 151.825 63.9758 150.247C62.0095 148.669 61.6162 145.513 61.6162 143.343C61.6162 141.173 61.6162 141.173 64.3691 141.173C66.9253 141.173 69.2849 138.411 72.431 138.411C74.2007 140.581 77.7401 143.935 79.1643 151.228C79.0277 149.64 78.813 147.915 78.5266 145.907ZM61.0263 140.778C61.0263 141.962 59.8465 140.778 59.8465 143.343C59.8465 144.447 61.223 145.907 61.0263 148.274C58.9228 146.515 57.7644 145.773 55.7172 144.724C55.5206 144.395 54.97 142.948 54.3408 139.792C53.5543 135.847 56.7004 137.228 58.6667 138.214C60.2398 139.003 60.8952 140.252 61.0263 140.778ZM45.689 143.343C50.8014 143.343 57.0937 145.907 59.8465 148.471C57.5263 149.046 56.5941 149.599 55.7172 151.036C55.1929 150.115 53.7116 148.077 51.9812 147.288C49.8183 146.302 48.0486 147.485 46.6721 146.499C45.2957 145.513 45.689 144.329 45.689 143.343ZM51.588 140.187C51.2602 140.515 50.8801 141.489 51.1947 142.751L47.0654 142.554C39.7442 135.552 38.5628 132.222 39.3967 125.392C45.2218 130.03 48.2472 132.94 51.588 140.187ZM44.5092 145.513C43.8799 144.566 44.247 142.883 44.5092 142.159C37.3423 132.207 33.7032 129.111 27.5988 127.365C26.8832 134.609 37.82 144.273 44.5092 145.513ZM34.0876 144.526C33.4361 144.526 32.9078 143.996 32.9078 143.343C32.9078 142.689 33.4361 142.159 34.0876 142.159C34.7392 142.159 35.2674 142.689 35.2674 143.343C35.2674 143.996 34.7392 144.526 34.0876 144.526ZM36.8405 130.521C36.1889 130.521 35.6607 129.991 35.6607 129.337C35.6607 128.684 36.1889 128.154 36.8405 128.154C37.4921 128.154 38.0203 128.684 38.0203 129.337C38.0203 129.991 37.4921 130.521 36.8405 130.521ZM23.2728 114.149C22.6212 114.149 22.093 113.619 22.093 112.965C22.093 112.311 22.6212 111.782 23.2728 111.782C23.9244 111.782 24.4526 112.311 24.4526 112.965C24.4526 113.619 23.9244 114.149 23.2728 114.149ZM6.95231 104.088C6.30073 104.088 5.77252 103.559 5.77252 102.905C5.77252 102.251 6.30073 101.721 6.95231 101.721C7.6039 101.721 8.13211 102.251 8.13211 102.905C8.13211 103.559 7.6039 104.088 6.95231 104.088ZM16.5873 98.9598C15.9357 98.9598 15.4075 98.4299 15.4075 97.7762C15.4075 97.1225 15.9357 96.5927 16.5873 96.5927C17.2389 96.5927 17.7671 97.1225 17.7671 97.7762C17.7671 98.4299 17.2389 98.9598 16.5873 98.9598ZM15.0143 84.1654C14.3627 84.1654 13.8345 83.6355 13.8345 82.9819C13.8345 82.3282 14.3627 81.7983 15.0143 81.7983C15.6658 81.7983 16.1941 82.3282 16.1941 82.9819C16.1941 83.6355 15.6658 84.1654 15.0143 84.1654ZM10.885 61.2835C10.2334 61.2835 9.70517 60.7536 9.70517 60.0999C9.70517 59.4463 10.2334 58.9164 10.885 58.9164C11.5366 58.9164 12.0648 59.4463 12.0648 60.0999C12.0648 60.7536 11.5366 61.2835 10.885 61.2835ZM19.9301 65.2287C19.2785 65.2287 18.7503 64.6988 18.7503 64.0451C18.7503 63.3914 19.2785 62.8616 19.9301 62.8616C20.5817 62.8616 21.1099 63.3914 21.1099 64.0451C21.1099 64.6988 20.5817 65.2287 19.9301 65.2287ZM14.8176 47.6727C14.166 47.6727 13.6378 47.1428 13.6378 46.4892C13.6378 45.8355 14.166 45.3056 14.8176 45.3056C15.4692 45.3056 15.9974 45.8355 15.9974 46.4892C15.9974 47.1428 15.4692 47.6727 14.8176 47.6727ZM22.8796 42.1495C22.228 42.1495 21.6998 41.6196 21.6998 40.9659C21.6998 40.3123 22.228 39.7824 22.8796 39.7824C23.5312 39.7824 24.0594 40.3123 24.0594 40.9659C24.0594 41.6196 23.5312 42.1495 22.8796 42.1495ZM36.4472 38.0071C35.7956 38.0071 35.2674 37.4772 35.2674 36.8235C35.2674 36.1699 35.7956 35.64 36.4472 35.64C37.0988 35.64 37.627 36.1699 37.627 36.8235C37.627 37.4772 37.0988 38.0071 36.4472 38.0071ZM50.4082 22.4237C49.7566 22.4237 49.2284 21.8938 49.2284 21.2401C49.2284 20.5865 49.7566 20.0566 50.4082 20.0566C51.0597 20.0566 51.588 20.5865 51.588 21.2401C51.588 21.8938 51.0597 22.4237 50.4082 22.4237ZM66.1388 14.3361C65.4872 14.3361 64.959 13.8062 64.959 13.1526C64.959 12.4989 65.4872 11.969 66.1388 11.969C66.7904 11.969 67.3186 12.4989 67.3186 13.1526C67.3186 13.8062 66.7904 14.3361 66.1388 14.3361ZM26.8122 110.598C28.3853 109.809 36.4472 120.264 36.8405 125.984C35.5952 126.313 32.9865 127.247 32.5146 128.351C26.0257 125.59 25.2392 111.387 26.8122 110.598ZM17.7671 112.571C20.52 111.584 26.8122 121.842 27.5988 125.984C25.5831 125.984 24.4526 128.351 26.419 132.494C18.7503 128.746 15.0143 113.557 17.7671 112.571ZM24.0594 97.7762C26.0257 101.919 25.0425 104.483 25.4358 110.203C24.977 109.875 23.8234 109.336 22.8796 109.809C21.9357 110.282 21.0443 111.847 20.7166 112.571C20.3233 111.387 19.3795 108.152 18.7503 104.68C17.9637 100.341 19.9301 94.4228 20.7166 94.2256C21.5031 94.0283 22.093 93.6338 24.0594 97.7762ZM10.885 95.0146C12.6547 94.8371 18.5739 102.905 18.7503 111.782C16.5873 110.203 15.4075 111.782 15.4075 116.121C10.0984 113.754 6.95231 95.4091 10.885 95.0146ZM15.0143 95.8036C13.8345 87.5188 18.7503 81.7983 22.4863 80.2203C23.1133 85.1346 22.9804 87.8957 20.7166 92.8448C19.3183 92.6724 18.8029 93.2603 18.1604 95.0146C17.636 94.6201 16.2727 94.2256 15.0143 95.8036ZM8.13211 96.5927C5.00901 87.1285 7.54221 76.2751 10.0984 73.7107C11.3079 73.8226 12.6118 76.7859 13.3018 81.0093C13.0205 81.2723 12.4974 82.035 12.6547 82.9819C12.812 83.9287 13.4439 84.8229 13.7402 85.1517C13.8833 87.8919 13.7609 90.8812 13.2446 93.831C11.3125 93.9851 10.2765 93.3904 8.13211 96.5927ZM18.7503 80.2203C22.8083 75.8925 24.475 73.0156 24.6493 65.8204C22.8262 66.1477 21.8025 66.3731 19.9301 67.793C16.5873 69.9628 18.1604 72.1327 14.2277 79.234C15.9974 81.0093 17.7951 78.3103 18.7503 80.2203ZM8.13211 75.2888C6.71775 67.3427 10.0984 63.4533 15.9974 57.3383C18.1884 64.948 17.3861 69.2726 13.8345 77.0641C11.43 72.1341 10.1522 71.1041 8.13211 75.2888ZM22.8796 63.6506C27.0205 59.9237 28.4623 57.2269 30.155 51.8151C28.1462 51.6782 27.0194 51.6044 22.8796 54.3795C22.6897 57.0644 22.4752 58.5754 21.1099 61.2835C21.9126 61.6046 22.3126 62.0294 22.8796 63.6506ZM13.7402 57.3383C15.5993 55.1625 16.7804 55.3277 19.3402 60.0999C22.1873 54.1738 22.7611 50.4158 22.8796 43.333C20.9886 43.7567 19.8943 44.2557 17.7671 46.4892C17.6331 47.8016 17.3829 48.6541 15.9974 48.8563C14.5069 51.5823 13.8348 53.2658 13.7402 57.3383ZM35.2674 38.9934C30.155 38.9934 24.6192 44.756 23.4695 52.4069C25.3841 52.5898 29.6412 49.9165 32.9078 46.6864C36.6863 42.9503 39.355 38.536 39.0035 38.0071C38.348 37.0208 37.2338 38.9934 35.2674 38.9934ZM22.8796 37.4153C25.6699 30.3062 28.7047 28.2405 35.6607 26.5661C34.3459 34.1954 32.2675 38.2421 24.0594 44.7138C26.4468 39.9846 24.9163 39.2253 22.8796 37.4153ZM30.7449 26.5661C35.6633 19.7904 39.5557 17.7883 48.4418 17.295C45.5943 22.5242 43.4401 25.259 36.8405 29.1305C37.7605 24.8229 36.4137 24.4314 30.7449 26.5661ZM46.2789 24.199C49.2306 23.8281 50.1856 24.4224 51.588 25.9743C44.6524 31.9484 41.1385 33.6789 35.6607 33.6674C35.9423 32.3077 36.2236 31.5434 36.8405 30.7085L37.0042 30.6165C40.4782 28.6647 42.514 27.5208 46.2789 24.199ZM49.8183 18.2813C49.8183 18.2813 54.7341 18.8731 58.4701 17.295C64.1725 14.8864 61.8129 11.969 65.7455 10.3707C57.4532 8.43689 53.1386 9.82028 45.8856 15.5197C48.0773 15.7372 49.6845 15.3616 49.8183 18.2813ZM67.3186 18.8731C62.354 21.9805 59.1189 23.14 51.7846 23.2127C52.704 22.6556 52.9708 22.0914 53.161 21.0429C58.0432 20.0676 60.3036 19.0471 62.796 15.7169C65.5205 15.9991 66.4342 16.5173 67.3186 18.8731ZM82.2637 8.90762C79.3359 10.7866 77.6657 11.5745 73.4142 11.5745C70.0089 11.5745 68.6769 10.7657 67.4546 10.0235C66.4183 9.39425 65.4609 8.8129 63.3859 8.8129C70.6513 4.02894 75.1041 3.65858 82.2637 6.73397C89.4232 3.65858 93.8761 4.02894 101.141 8.8129C99.0664 8.8129 98.109 9.39425 97.0728 10.0235C95.8505 10.7657 94.5184 11.5745 91.1132 11.5745C86.8617 11.5745 85.1915 10.7866 82.2637 8.90762ZM78.5266 12.3635C80.1317 13.3457 80.7527 14.0209 81.2795 15.5197C75.292 17.591 72.2129 17.598 67.3186 15.5197C67.8699 14.6289 68.4155 14.2065 69.6782 13.5471C74.6484 13.6784 76.6193 13.445 78.5266 12.3635ZM103.501 140.778C103.501 141.962 104.681 140.778 104.681 143.343C104.681 144.447 103.304 145.907 103.501 148.274C105.605 146.515 106.763 145.773 108.81 144.724C109.007 144.395 109.557 142.948 110.187 139.792C110.973 135.847 107.827 137.228 105.861 138.214C104.288 139.003 103.632 140.252 103.501 140.778ZM118.838 143.343C113.726 143.343 107.434 145.907 104.681 148.471C107.001 149.046 107.933 149.599 108.81 151.036C109.334 150.115 110.816 148.077 112.546 147.288C114.709 146.302 116.479 147.485 117.855 146.499C119.232 145.513 118.838 144.329 118.838 143.343ZM112.939 140.187C113.267 140.515 113.647 141.489 113.333 142.751L117.462 142.554C124.783 135.552 125.965 132.222 125.131 125.392C119.306 130.03 116.28 132.94 112.939 140.187ZM120.018 145.513C120.647 144.566 120.28 142.883 120.018 142.159C127.185 132.207 130.824 129.111 136.929 127.365C137.644 134.609 126.707 144.273 120.018 145.513ZM130.44 144.526C131.091 144.526 131.62 143.996 131.62 143.343C131.62 142.689 131.091 142.159 130.44 142.159C129.788 142.159 129.26 142.689 129.26 143.343C129.26 143.996 129.788 144.526 130.44 144.526ZM127.687 130.521C128.338 130.521 128.867 129.991 128.867 129.337C128.867 128.684 128.338 128.154 127.687 128.154C127.035 128.154 126.507 128.684 126.507 129.337C126.507 129.991 127.035 130.521 127.687 130.521ZM141.255 114.149C141.906 114.149 142.434 113.619 142.434 112.965C142.434 112.311 141.906 111.782 141.255 111.782C140.603 111.782 140.075 112.311 140.075 112.965C140.075 113.619 140.603 114.149 141.255 114.149ZM157.575 104.088C158.227 104.088 158.755 103.559 158.755 102.905C158.755 102.251 158.227 101.721 157.575 101.721C156.923 101.721 156.395 102.251 156.395 102.905C156.395 103.559 156.923 104.088 157.575 104.088ZM147.94 98.9598C148.592 98.9598 149.12 98.4299 149.12 97.7762C149.12 97.1225 148.592 96.5927 147.94 96.5927C147.288 96.5927 146.76 97.1225 146.76 97.7762C146.76 98.4299 147.288 98.9598 147.94 98.9598ZM149.513 84.1654C150.165 84.1654 150.693 83.6355 150.693 82.9819C150.693 82.3282 150.165 81.7983 149.513 81.7983C148.862 81.7983 148.333 82.3282 148.333 82.9819C148.333 83.6355 148.862 84.1654 149.513 84.1654ZM153.642 61.2835C154.294 61.2835 154.822 60.7536 154.822 60.0999C154.822 59.4463 154.294 58.9164 153.642 58.9164C152.991 58.9164 152.463 59.4463 152.463 60.0999C152.463 60.7536 152.991 61.2835 153.642 61.2835ZM144.597 65.2287C145.249 65.2287 145.777 64.6988 145.777 64.0451C145.777 63.3914 145.249 62.8616 144.597 62.8616C143.946 62.8616 143.417 63.3914 143.417 64.0451C143.417 64.6988 143.946 65.2287 144.597 65.2287ZM149.71 47.6727C150.361 47.6727 150.89 47.1428 150.89 46.4892C150.89 45.8355 150.361 45.3056 149.71 45.3056C149.058 45.3056 148.53 45.8355 148.53 46.4892C148.53 47.1428 149.058 47.6727 149.71 47.6727ZM141.648 42.1495C142.299 42.1495 142.828 41.6196 142.828 40.9659C142.828 40.3123 142.299 39.7824 141.648 39.7824C140.996 39.7824 140.468 40.3123 140.468 40.9659C140.468 41.6196 140.996 42.1495 141.648 42.1495ZM128.08 38.0071C128.732 38.0071 129.26 37.4772 129.26 36.8235C129.26 36.1699 128.732 35.64 128.08 35.64C127.429 35.64 126.9 36.1699 126.9 36.8235C126.9 37.4772 127.429 38.0071 128.08 38.0071ZM114.119 22.4237C114.771 22.4237 115.299 21.8938 115.299 21.2401C115.299 20.5865 114.771 20.0566 114.119 20.0566C113.468 20.0566 112.939 20.5865 112.939 21.2401C112.939 21.8938 113.468 22.4237 114.119 22.4237ZM98.3886 14.3361C99.0402 14.3361 99.5684 13.8062 99.5684 13.1526C99.5684 12.4989 99.0402 11.969 98.3886 11.969C97.737 11.969 97.2088 12.4989 97.2088 13.1526C97.2088 13.8062 97.737 14.3361 98.3886 14.3361ZM137.715 110.598C136.142 109.809 128.08 120.264 127.687 125.984C128.932 126.313 131.541 127.247 132.013 128.351C138.502 125.59 139.288 111.387 137.715 110.598ZM146.76 112.571C144.007 111.584 137.715 121.842 136.929 125.984C138.944 125.984 140.075 128.351 138.108 132.494C145.777 128.746 149.513 113.557 146.76 112.571ZM140.468 97.7762C138.502 101.919 139.485 104.483 139.092 110.203C139.55 109.875 140.704 109.336 141.648 109.809C142.592 110.282 143.483 111.847 143.811 112.571C144.204 111.387 145.148 108.152 145.777 104.68C146.564 100.341 144.597 94.4228 143.811 94.2256C143.024 94.0283 142.434 93.6338 140.468 97.7762ZM153.642 95.0146C151.873 94.8371 145.953 102.905 145.777 111.782C147.94 110.203 149.12 111.782 149.12 116.121C154.429 113.754 157.575 95.4091 153.642 95.0146ZM149.513 95.8036C150.693 87.5188 145.777 81.7983 142.041 80.2203C141.414 85.1346 141.547 87.8957 143.811 92.8448C145.209 92.6724 145.724 93.2603 146.367 95.0146C146.891 94.6201 148.255 94.2256 149.513 95.8036ZM156.395 96.5927C159.518 87.1285 156.985 76.2751 154.429 73.7107C153.219 73.8226 151.916 76.7859 151.226 81.0093C151.507 81.2723 152.03 82.035 151.873 82.9819C151.715 83.9287 151.083 84.8229 150.787 85.1517C150.644 87.8919 150.766 90.8812 151.283 93.831C153.215 93.9851 154.251 93.3904 156.395 96.5927ZM145.777 80.2203C141.719 75.8925 140.052 73.0156 139.878 65.8204C141.701 66.1477 142.725 66.3731 144.597 67.793C147.94 69.9628 146.367 72.1327 150.3 79.234C148.53 81.0093 146.732 78.3103 145.777 80.2203ZM156.395 75.2888C157.81 67.3427 154.429 63.4533 148.53 57.3383C146.339 64.948 147.141 69.2726 150.693 77.0641C153.097 72.1341 154.375 71.1041 156.395 75.2888ZM141.648 63.6506C137.507 59.9237 136.065 57.2269 134.372 51.8151C136.381 51.6782 137.508 51.6044 141.648 54.3795C141.838 57.0644 142.052 58.5754 143.417 61.2835C142.615 61.6046 142.215 62.0294 141.648 63.6506ZM150.787 57.3383C148.928 55.1625 147.747 55.3277 145.187 60.0999C142.34 54.1738 141.766 50.4158 141.648 43.333C143.539 43.7567 144.633 44.2557 146.76 46.4892C146.894 47.8016 147.144 48.6541 148.53 48.8563C150.02 51.5823 150.693 53.2658 150.787 57.3383ZM129.26 38.9934C134.372 38.9934 139.908 44.756 141.058 52.4069C139.143 52.5898 134.886 49.9165 131.62 46.6864C127.841 42.9503 125.172 38.536 125.524 38.0071C126.179 37.0208 127.294 38.9934 129.26 38.9934ZM141.648 37.4153C138.857 30.3062 135.823 28.2405 128.867 26.5661C130.181 34.1954 132.26 38.2421 140.468 44.7138C138.081 39.9846 139.611 39.2253 141.648 37.4153ZM133.782 26.5661C128.864 19.7904 124.972 17.7883 116.086 17.295C118.933 22.5242 121.087 25.259 127.687 29.1305C126.767 24.8229 128.114 24.4314 133.782 26.5661ZM118.248 24.199C115.297 23.8281 114.342 24.4224 112.939 25.9743C119.875 31.9484 123.389 33.6789 128.867 33.6674C128.585 32.3077 128.304 31.5434 127.687 30.7085L127.523 30.6165C124.049 28.6647 122.013 27.5208 118.248 24.199ZM114.709 18.2813C114.709 18.2813 109.793 18.8731 106.057 17.295C100.355 14.8864 102.714 11.969 98.7818 10.3707C107.074 8.43689 111.389 9.82028 118.642 15.5197C116.45 15.7372 114.843 15.3616 114.709 18.2813ZM97.2088 18.8731C102.173 21.9805 105.408 23.14 112.743 23.2127C111.823 22.6556 111.557 22.0914 111.366 21.0429C106.484 20.0676 104.224 19.0471 101.731 15.7169C99.0069 15.9991 98.0932 16.5173 97.2088 18.8731ZM86.0007 12.3635C84.3957 13.3457 83.7746 14.0209 83.2478 15.5197C89.2353 17.591 92.3145 17.598 97.2088 15.5197C96.6575 14.6289 96.1118 14.2065 94.8492 13.5471C89.8789 13.6784 87.9081 13.445 86.0007 12.3635Z" fill="#6F6C6C"/>
<path fill-rule="evenodd" clip-rule="evenodd" d="M82.2637 6.73397C89.4232 3.65858 93.8761 4.02894 101.141 8.8129C99.0664 8.8129 98.109 9.39425 97.0728 10.0235C95.8505 10.7657 94.5184 11.5745 91.1132 11.5745C86.8617 11.5745 85.1915 10.7866 82.2637 8.90762C82.6221 8.67758 82.9994 8.43118 83.4026 8.16787C83.6664 7.99565 83.9412 7.8162 84.229 7.62935C83.5502 7.30443 82.8964 7.00574 82.2637 6.73397ZM82.2637 6.73397C81.631 7.00574 80.9771 7.30443 80.2984 7.62935C80.5862 7.8162 80.861 7.99565 81.1247 8.16787C81.5279 8.43118 81.9052 8.67758 82.2637 8.90762C79.3359 10.7866 77.6657 11.5745 73.4142 11.5745C70.0089 11.5745 68.6769 10.7657 67.4546 10.0235C66.4183 9.39425 65.4609 8.8129 63.3859 8.8129C70.6513 4.02894 75.1041 3.65858 82.2637 6.73397Z" fill="#CBC5C5"/>
<path d="M82.2637 6.73397C81.631 7.00574 80.9771 7.30443 80.2984 7.62935C80.5862 7.8162 80.861 7.99565 81.1247 8.16787C81.5279 8.43118 81.9052 8.67758 82.2637 8.90762C82.6221 8.67758 82.9994 8.43118 83.4026 8.16787C83.6664 7.99565 83.9412 7.8162 84.229 7.62935C83.5502 7.30443 82.8964 7.00574 82.2637 6.73397Z" fill="#6F6C6C"/>
<path d="M85.1953 155.77C85.2136 156.737 85.2689 157.709 85.3631 158.729C85.816 160.051 95.7647 161.374 101.173 163.858L102.125 162.082C99.1751 162.674 90.13 156.165 85.1953 155.77Z" fill="#6F6C6C"/>
<path d="M79.1643 158.729C79.2584 157.709 79.3137 156.737 79.3321 155.77C74.3974 156.165 65.3522 162.674 62.4028 162.082L63.3542 163.858C68.7627 161.374 78.7114 160.051 79.1643 158.729Z" fill="#6F6C6C"/>
<path fill-rule="evenodd" clip-rule="evenodd" d="M53.5076 99.993C54.6897 99.2134 56.0776 98.6089 57.6642 98.6089C60.6866 98.6089 62.902 100.736 64.5896 102.356C64.6318 102.397 64.6736 102.437 64.7151 102.477C65.6422 103.366 66.4482 104.139 67.2895 104.706C68.1068 105.258 68.8568 105.543 69.6403 105.543C70.4354 105.543 71.2499 105.25 72.1634 104.679C73.0905 104.099 74.0027 103.312 75.0203 102.429L75.0665 102.389C76.0336 101.549 77.1025 100.621 78.2365 99.9117C79.4022 99.1824 80.7497 98.6089 82.2816 98.6089C83.8153 98.6089 85.1568 99.1835 86.3113 99.917C87.4518 100.642 88.5133 101.591 89.4646 102.444L89.4961 102.472C90.4733 103.348 91.3373 104.123 92.211 104.695C93.0817 105.265 93.8311 105.543 94.5428 105.543C95.2736 105.543 95.9965 105.28 96.8134 104.76C97.5919 104.264 98.3495 103.607 99.2251 102.848C99.2948 102.788 99.3653 102.727 99.4366 102.665C101.249 101.096 103.598 99.0839 106.804 99.0839C110.095 99.0839 112.417 101.414 114.112 103.185C114.257 103.336 114.397 103.484 114.533 103.628C115.266 104.398 115.895 105.06 116.534 105.574C117.28 106.175 117.833 106.398 118.305 106.398C119.713 106.398 120.979 105.672 121.971 104.806C122.455 104.384 122.839 103.958 123.1 103.639C123.23 103.481 123.328 103.351 123.391 103.264C123.422 103.221 123.445 103.189 123.458 103.17C123.463 103.163 123.466 103.158 123.468 103.155L123.47 103.152C123.47 103.152 123.469 103.153 124.673 103.942C125.877 104.732 125.876 104.733 125.876 104.733L125.875 104.734L125.874 104.736L125.87 104.741L125.86 104.756C125.852 104.768 125.842 104.783 125.829 104.802C125.803 104.84 125.767 104.892 125.721 104.955C125.629 105.082 125.497 105.256 125.327 105.463C124.99 105.874 124.497 106.422 123.865 106.974C122.626 108.055 120.707 109.276 118.305 109.276C116.872 109.276 115.683 108.585 114.727 107.814C113.925 107.168 113.14 106.342 112.414 105.576C112.285 105.44 112.157 105.306 112.032 105.174C110.227 103.289 108.704 101.961 106.804 101.961C104.819 101.961 103.241 103.179 101.321 104.84C101.243 104.908 101.163 104.977 101.082 105.047C100.246 105.773 99.3286 106.57 98.3611 107.186C97.2771 107.877 96.0148 108.421 94.5428 108.421C93.0518 108.421 91.7482 107.832 90.6332 107.102C89.5734 106.408 88.5667 105.505 87.6524 104.685C87.6155 104.652 87.5786 104.619 87.542 104.586C86.5597 103.705 85.6725 102.921 84.7666 102.345C83.8746 101.779 83.0722 101.486 82.2816 101.486C81.4894 101.486 80.6769 101.78 79.7642 102.351C78.838 102.93 77.9262 103.718 76.9083 104.601L76.8672 104.637C75.8985 105.478 74.8273 106.408 73.6899 107.119C72.5228 107.848 71.1738 108.421 69.6403 108.421C68.0951 108.421 66.7879 107.84 65.6784 107.091C64.6286 106.383 63.6677 105.461 62.8092 104.637C62.7799 104.609 62.7507 104.581 62.7216 104.553C60.8092 102.719 59.4 101.486 57.6642 101.486C56.8341 101.486 55.9968 101.799 55.0934 102.395C54.1797 102.997 53.2942 103.824 52.3667 104.739C52.2196 104.884 52.0702 105.033 51.9191 105.184C51.1604 105.939 50.357 106.738 49.5665 107.364C48.6317 108.105 47.4562 108.822 46.0946 108.822C43.904 108.822 42.0709 107.731 40.8735 106.78C40.2591 106.293 39.7687 105.807 39.4309 105.443C39.2612 105.261 39.1278 105.106 39.0344 104.994C38.9876 104.938 38.9507 104.892 38.9241 104.859C38.9108 104.842 38.9 104.829 38.8919 104.818L38.8817 104.805L38.878 104.8L38.876 104.797C38.876 104.797 38.8754 104.797 40.0202 103.924C41.1651 103.052 41.1646 103.051 41.1646 103.051L41.1627 103.049C41.1627 103.049 41.1632 103.05 41.1639 103.051C41.166 103.053 41.1705 103.059 41.1773 103.068C41.1911 103.085 41.2142 103.114 41.2463 103.152C41.3106 103.229 41.4102 103.345 41.5415 103.486C41.8057 103.771 42.1897 104.15 42.6644 104.527C43.6451 105.306 44.8492 105.944 46.0946 105.944C46.4511 105.944 46.9766 105.744 47.778 105.109C48.4286 104.594 49.0906 103.936 49.8491 103.182C50.0095 103.023 50.1742 102.859 50.344 102.692C51.2752 101.773 52.3357 100.766 53.5076 99.993ZM53.5076 107.783C54.6897 107.003 56.0776 106.398 57.6642 106.398C60.6866 106.398 62.902 108.526 64.5896 110.146C64.6318 110.186 64.6736 110.227 64.7151 110.266C65.6422 111.155 66.4482 111.928 67.2895 112.496C68.1068 113.047 68.8568 113.333 69.6403 113.333C70.4354 113.333 71.2499 113.039 72.1634 112.468C73.0905 111.889 74.0027 111.102 75.0203 110.218L75.0665 110.178C76.0336 109.339 77.1025 108.411 78.2365 107.701C79.4022 106.972 80.7497 106.398 82.2816 106.398C83.8153 106.398 85.1568 106.973 86.3113 107.707C87.4518 108.431 88.5133 109.381 89.4646 110.234L89.4961 110.262C90.4733 111.138 91.3374 111.913 92.211 112.485C93.0817 113.055 93.8311 113.333 94.5428 113.333C95.2736 113.333 95.9965 113.07 96.8134 112.549C97.5919 112.053 98.3495 111.397 99.2251 110.638C99.2948 110.577 99.3653 110.516 99.4366 110.454C101.249 108.886 103.598 106.873 106.804 106.873C110.095 106.873 112.417 109.203 114.112 110.975C114.257 111.126 114.397 111.273 114.533 111.417C115.266 112.188 115.895 112.849 116.534 113.364C117.28 113.965 117.833 114.188 118.305 114.188C119.713 114.188 120.979 113.462 121.971 112.596C122.455 112.173 122.839 111.748 123.1 111.429C123.23 111.27 123.328 111.14 123.391 111.054C123.422 111.011 123.445 110.979 123.458 110.959C123.465 110.95 123.469 110.943 123.471 110.941L123.47 110.941L123.47 110.942C123.47 110.942 123.469 110.942 124.673 111.732C125.877 112.521 125.876 112.522 125.876 112.522L125.875 112.523L125.874 112.525L125.87 112.531L125.86 112.546C125.852 112.558 125.842 112.573 125.829 112.592C125.803 112.63 125.767 112.681 125.721 112.745C125.629 112.871 125.497 113.046 125.327 113.252C124.99 113.663 124.497 114.212 123.865 114.763C122.626 115.844 120.707 117.065 118.305 117.065C116.872 117.065 115.683 116.374 114.727 115.604C113.925 114.958 113.14 114.131 112.414 113.366C112.285 113.23 112.157 113.095 112.032 112.964C110.227 111.078 108.704 109.751 106.804 109.751C104.819 109.751 103.241 110.968 101.321 112.63C101.243 112.698 101.163 112.767 101.082 112.837C100.246 113.563 99.3286 114.359 98.3611 114.976C97.2771 115.666 96.0148 116.21 94.5428 116.21C93.0518 116.21 91.7482 115.622 90.6332 114.892C89.5734 114.198 88.5667 113.295 87.6524 112.474C87.6154 112.441 87.5786 112.408 87.542 112.375C86.5597 111.495 85.6725 110.71 84.7666 110.135C83.8746 109.568 83.0722 109.276 82.2816 109.276C81.4894 109.276 80.6769 109.569 79.7642 110.14C78.838 110.72 77.9262 111.507 76.9083 112.391L76.8672 112.426C75.8985 113.267 74.8273 114.197 73.6899 114.908C72.5228 115.637 71.1738 116.21 69.6403 116.21C68.0951 116.21 66.7879 115.629 65.6784 114.881C64.6286 114.172 63.6677 113.25 62.8092 112.427C62.7799 112.398 62.7507 112.37 62.7216 112.343C60.8092 110.508 59.4 109.276 57.6642 109.276C56.8341 109.276 55.9968 109.588 55.0934 110.184C54.1797 110.787 53.2942 111.614 52.3667 112.529C52.2196 112.674 52.0702 112.823 51.9191 112.973C51.1604 113.728 50.357 114.528 49.5665 115.154C48.6317 115.894 47.4562 116.611 46.0946 116.611C43.904 116.611 42.0709 115.521 40.8735 114.57C40.2591 114.082 39.7687 113.597 39.4309 113.233C39.2612 113.05 39.1278 112.896 39.0344 112.784C38.9876 112.728 38.9507 112.682 38.9241 112.648C38.9108 112.632 38.9 112.618 38.8919 112.608L38.8817 112.594L38.878 112.59L38.8766 112.588L38.876 112.587C38.876 112.587 38.8754 112.586 40.0202 111.714C41.1651 110.842 41.1646 110.841 41.1646 110.841L41.1641 110.84C41.1662 110.843 41.1705 110.849 41.1773 110.857C41.1911 110.874 41.2142 110.903 41.2463 110.942C41.3106 111.019 41.4102 111.134 41.5415 111.276C41.8057 111.56 42.1897 111.94 42.6644 112.317C43.6451 113.095 44.8492 113.734 46.0946 113.734C46.4511 113.734 46.9766 113.534 47.778 112.899C48.4286 112.384 49.0906 111.726 49.8492 110.972C50.0095 110.812 50.1742 110.649 50.344 110.481C51.2752 109.562 52.3357 108.555 53.5076 107.783ZM41.1627 110.838L41.1641 110.84C41.1631 110.839 41.1627 110.838 41.1627 110.838ZM49.9052 117.471C51.5468 115.929 53.7081 114.188 56.3981 114.188C59.4204 114.188 61.6359 116.315 63.3235 117.935C63.3656 117.976 63.4074 118.016 63.4489 118.056C64.376 118.945 65.1821 119.718 66.0233 120.285C66.8407 120.837 67.5906 121.122 68.3741 121.122C69.1692 121.122 69.9838 120.829 70.8972 120.258C71.8243 119.678 72.7366 118.891 73.7542 118.008L73.8003 117.968C74.7674 117.128 75.8363 116.2 76.9704 115.491C78.136 114.761 79.4836 114.188 81.0155 114.188C82.5491 114.188 83.8907 114.763 85.0451 115.496C86.1856 116.221 87.2471 117.17 88.1984 118.023L88.2299 118.051C89.2072 118.927 90.0712 119.702 90.9449 120.274C91.8155 120.844 92.5649 121.122 93.2767 121.122C94.0074 121.122 94.7303 120.859 95.5472 120.339C96.3257 119.843 97.0834 119.186 97.9589 118.427C98.0286 118.367 98.0991 118.306 98.1704 118.244C99.9825 116.676 102.332 114.663 105.538 114.663C108.152 114.663 110.127 116.124 111.648 117.562C112.214 118.098 112.767 118.68 113.275 119.215C113.447 119.396 113.615 119.573 113.776 119.74C114.442 120.431 115.021 120.992 115.58 121.391L113.905 123.732C113.113 123.166 112.376 122.436 111.702 121.735C111.51 121.537 111.324 121.34 111.14 121.147C110.648 120.629 110.175 120.131 109.669 119.653C108.285 118.344 107.008 117.54 105.538 117.54C103.553 117.54 101.975 118.758 100.055 120.419C99.9764 120.487 99.8967 120.557 99.8163 120.626C98.98 121.352 98.0624 122.149 97.095 122.765C96.0109 123.456 94.7487 124 93.2767 124C91.7856 124 90.482 123.411 89.367 122.681C88.3072 121.987 87.3005 121.084 86.3863 120.264C86.3493 120.231 86.3125 120.198 86.2758 120.165C85.2935 119.284 84.4063 118.5 83.5004 117.924C82.6085 117.358 81.806 117.065 81.0155 117.065C80.2232 117.065 79.4107 117.359 78.498 117.93C77.5718 118.509 76.6601 119.297 75.6422 120.18L75.601 120.216C74.6323 121.057 73.5611 121.987 72.4237 122.698C71.2566 123.427 69.9076 124 68.3741 124C66.8289 124 65.5217 123.419 64.4122 122.67C63.3624 121.962 62.4015 121.04 61.5431 120.216C61.5137 120.188 61.4845 120.16 61.4554 120.132C59.5431 118.298 58.1338 117.065 56.3981 117.065C54.94 117.065 53.5181 118.026 51.8773 119.568C51.4838 119.937 51.0964 120.321 50.7019 120.714L50.6305 120.785C50.2637 121.149 49.8884 121.523 49.5164 121.875C48.7396 122.611 47.8773 123.356 46.9522 123.837L45.6222 121.285C46.1693 121 46.7884 120.495 47.5353 119.787C47.8811 119.459 48.2331 119.109 48.6065 118.738L48.6711 118.674C49.0638 118.283 49.4781 117.872 49.9052 117.471Z" fill="#CBC5C5"/>
<path fill-rule="evenodd" clip-rule="evenodd" d="M65.598 92.6898L60.7411 89.6009L78.893 63.0216L68.5774 47.9169L72.7945 43.8912L82.3761 57.9213L91.9578 43.8912L96.1749 47.9169L85.8593 63.0216L104.011 89.6009L99.1543 92.6898L82.3761 68.122L65.598 92.6898ZM97.0146 46.6873L92.798 42.6609C92.0333 42.0076 91.2102 41.3302 90.3237 40.6192L94.2975 35.7651C95.0453 36.3148 95.7614 36.8271 96.4573 37.3026L101.461 40.1768C105.01 41.7454 108.81 42.3089 114.608 41.943C113.725 49.886 109.751 55.1813 102.245 57.3877C101.354 52.9373 99.8619 49.8569 97.0146 46.6873ZM102.212 39.0775L103.57 37.0889L98.7128 34L97.1928 36.2258L102.212 39.0775ZM62.5073 57.3877C63.3984 52.9373 64.8903 49.8569 67.7377 46.6873L71.9543 42.6609C72.719 42.0076 73.5421 41.3302 74.4286 40.6192L70.4548 35.7651C69.707 36.3148 68.9909 36.8271 68.295 37.3026L63.2915 40.1768C59.7422 41.7454 55.9426 42.3089 50.1444 41.943C51.0275 49.886 55.0012 55.1813 62.5073 57.3877ZM61.1827 37.0889L62.4238 38.9063L67.4962 36.133L66.0395 34L61.1827 37.0889Z" fill="#CBC5C5"/>
</svg>
