<svg width="164" height="124" viewBox="0 0 164 124" fill="none" xmlns="http://www.w3.org/2000/svg">
<path d="M0.887695 22C0.887695 9.84974 10.7306 0 22.8725 0H141.79C153.932 0 163.775 9.84974 163.775 22V102C163.775 114.15 153.932 124 141.79 124H22.8725C10.7306 124 0.887695 114.15 0.887695 102V22Z" fill="#C5A869"/>
<path fill-rule="evenodd" clip-rule="evenodd" d="M141.79 11H22.8725C16.8016 11 11.8801 15.9249 11.8801 22V102C11.8801 108.075 16.8016 113 22.8725 113H141.79C147.861 113 152.783 108.075 152.783 102V22C152.783 15.9249 147.861 11 141.79 11ZM22.8725 0C10.7306 0 0.887695 9.84974 0.887695 22V102C0.887695 114.15 10.7306 124 22.8725 124H141.79C153.932 124 163.775 114.15 163.775 102V22C163.775 9.84974 153.932 0 141.79 0H22.8725Z" fill="#A68C55"/>
<path d="M106.207 51.2501L117.001 62.0436L106.207 72.8374V67.206H58.4569V72.8374L47.6631 62.0436L58.4566 51.2501V57.1163H106.207V51.2501Z" fill="black"/>
<path d="M77.1697 78.4396H71.5383L82.3321 67.6458L93.1255 78.4393H87.2593V102.315L77.1697 102.315L77.1697 78.4396Z" fill="black"/>
<path d="M93.1255 45.5602L82.3321 56.354L71.5383 45.5602H77.1697V21.685L87.2593 21.6848V45.5602H93.1255Z" fill="black"/>
</svg>
