<svg width="164" height="124" viewBox="0 0 164 124" fill="none" xmlns="http://www.w3.org/2000/svg">
<path d="M0.663086 22C0.663086 9.84974 10.506 0 22.6479 0H141.566C153.708 0 163.551 9.84974 163.551 22V102C163.551 114.15 153.708 124 141.566 124H22.6479C10.506 124 0.663086 114.15 0.663086 102V22Z" fill="#C5A869"/>
<path fill-rule="evenodd" clip-rule="evenodd" d="M141.566 11H22.6479C16.577 11 11.6555 15.9249 11.6555 22V102C11.6555 108.075 16.577 113 22.6479 113H141.566C147.637 113 152.558 108.075 152.558 102V22C152.558 15.9249 147.637 11 141.566 11ZM22.6479 0C10.506 0 0.663086 9.84974 0.663086 22V102C0.663086 114.15 10.506 124 22.6479 124H141.566C153.708 124 163.551 114.15 163.551 102V22C163.551 9.84974 153.708 0 141.566 0H22.6479Z" fill="#A68C55"/>
<path fill-rule="evenodd" clip-rule="evenodd" d="M65.8375 89.3148C66.5039 88.875 67.2863 88.5341 68.1808 88.5341C69.8847 88.5341 71.1336 89.7339 72.085 90.6479C72.1088 90.6708 72.1324 90.6934 72.1558 90.7159C72.6784 91.2174 73.1328 91.6532 73.6071 91.9734C74.0679 92.2846 74.4907 92.4457 74.9323 92.4457C75.3806 92.4457 75.8398 92.2799 76.3548 91.9579C76.8774 91.6311 77.3917 91.187 77.9654 90.6887L77.9914 90.6661C78.5366 90.1925 79.1392 89.6691 79.7785 89.2689C80.4357 88.8576 81.1953 88.5341 82.059 88.5341C82.9235 88.5341 83.6799 88.8582 84.3307 89.2719C84.9737 89.6807 85.5721 90.2162 86.1084 90.6973L86.1261 90.7132C86.6771 91.2075 87.1641 91.6445 87.6567 91.9672C88.1475 92.2888 88.57 92.4457 88.9712 92.4457C89.3832 92.4457 89.7908 92.2972 90.2513 92.0036C90.6902 91.7238 91.1173 91.3534 91.6109 90.9253C91.6502 90.8912 91.6899 90.8567 91.7301 90.8219C92.7517 89.9372 94.0763 88.802 95.8835 88.802C97.7386 88.802 99.0478 90.1163 100.004 91.1156C100.085 91.2007 100.164 91.2839 100.241 91.3649C100.654 91.7998 101.009 92.1727 101.369 92.4629C101.789 92.8019 102.101 92.9279 102.367 92.9279C103.161 92.9279 103.874 92.5183 104.434 92.0297C104.707 91.7915 104.923 91.5516 105.071 91.3715C105.144 91.282 105.199 91.2088 105.234 91.1601C105.252 91.1358 105.265 91.1177 105.272 91.1068C105.275 91.103 105.277 91.1001 105.278 91.0981L105.279 91.0968C105.279 91.0968 105.279 91.0973 105.957 91.5426C106.636 91.9879 106.635 91.9884 106.635 91.9884L106.635 91.9889L106.634 91.9901L106.632 91.9931L106.627 92.0016C106.622 92.0083 106.616 92.017 106.609 92.0277C106.594 92.049 106.574 92.0781 106.548 92.1138C106.496 92.1852 106.422 92.2837 106.326 92.4002C106.136 92.632 105.858 92.9413 105.502 93.2523C104.803 93.8623 103.721 94.5511 102.367 94.5511C101.559 94.5511 100.889 94.1613 100.35 93.7267C99.8979 93.3623 99.4557 92.896 99.0463 92.4643C98.9733 92.3873 98.9014 92.3115 98.8306 92.2375C97.8132 91.1738 96.9546 90.4251 95.8835 90.4251C94.7645 90.4251 93.8749 91.1117 92.7927 92.0489C92.7482 92.0874 92.7033 92.1264 92.658 92.1658C92.1865 92.5753 91.6693 93.0246 91.1238 93.3723C90.5127 93.7619 89.8011 94.0688 88.9712 94.0688C88.1307 94.0688 87.3958 93.7367 86.7672 93.3249C86.1697 92.9335 85.6022 92.424 85.0868 91.9614C85.0659 91.9427 85.0452 91.9241 85.0245 91.9055C84.4707 91.4088 83.9706 90.9664 83.4599 90.6417C82.957 90.322 82.5046 90.1572 82.059 90.1572C81.6123 90.1572 81.1543 90.3227 80.6397 90.6447C80.1176 90.9716 79.6036 91.4157 79.0298 91.9142L79.0066 91.9343C78.4604 92.4087 77.8565 92.9332 77.2153 93.3342C76.5574 93.7456 75.7969 94.0688 74.9323 94.0688C74.0612 94.0688 73.3243 93.741 72.6988 93.3187C72.107 92.9191 71.5653 92.3991 71.0813 91.9344C71.0648 91.9186 71.0483 91.9027 71.0319 91.887C69.9538 90.8524 69.1594 90.1572 68.1808 90.1572C67.7128 90.1572 67.2408 90.3335 66.7315 90.6696C66.2164 91.0094 65.7172 91.4759 65.1943 91.9921C65.1114 92.074 65.0272 92.1578 64.9419 92.2427C64.5142 92.6686 64.0613 93.1196 63.6157 93.4729C63.0887 93.8906 62.426 94.295 61.6584 94.295C60.4234 94.295 59.39 93.6796 58.715 93.1434C58.3686 92.8682 58.0922 92.5945 57.9017 92.3893C57.806 92.2861 57.7308 92.199 57.6782 92.1358C57.6518 92.1041 57.631 92.0784 57.616 92.0595C57.6085 92.0501 57.6024 92.0424 57.5979 92.0365L57.5921 92.0291L57.59 92.0264L57.5889 92.0249C57.5889 92.0249 57.5885 92.0245 58.234 91.5324C58.8794 91.0404 58.8791 91.04 58.8791 91.04L58.878 91.0386L58.8787 91.0395C58.8799 91.041 58.8824 91.0442 58.8863 91.0491C58.894 91.0588 58.907 91.075 58.9251 91.0967C58.9614 91.1402 59.0175 91.2055 59.0916 91.2852C59.2405 91.4458 59.457 91.6599 59.7246 91.8724C60.2775 92.3117 60.9563 92.6718 61.6584 92.6718C61.8594 92.6718 62.1556 92.559 62.6074 92.2009C62.9742 91.9101 63.3474 91.539 63.775 91.1137C63.8654 91.0238 63.9583 90.9315 64.054 90.837C64.579 90.3187 65.1768 89.7507 65.8375 89.3148ZM65.8375 93.7087C66.5039 93.2689 67.2863 92.928 68.1808 92.928C69.8847 92.928 71.1336 94.1278 72.085 95.0418C72.1088 95.0647 72.1324 95.0873 72.1558 95.1098C72.6784 95.6113 73.1328 96.0471 73.6071 96.3673C74.0679 96.6785 74.4907 96.8396 74.9323 96.8396C75.3806 96.8396 75.8398 96.6738 76.3548 96.3518C76.8774 96.025 77.3917 95.5809 77.9654 95.0826L77.9914 95.06C78.5366 94.5864 79.1392 94.063 79.7785 93.6628C80.4357 93.2515 81.1953 92.928 82.059 92.928C82.9235 92.928 83.6799 93.2521 84.3307 93.6658C84.9737 94.0746 85.5721 94.6101 86.1084 95.0912L86.1261 95.1071C86.6771 95.6014 87.1642 96.0384 87.6567 96.3611C88.1475 96.6827 88.57 96.8396 88.9712 96.8396C89.3832 96.8396 89.7908 96.6911 90.2513 96.3975C90.6902 96.1177 91.1173 95.7473 91.6109 95.3192C91.6502 95.2851 91.6899 95.2506 91.7301 95.2158C92.7517 94.3311 94.0763 93.1959 95.8835 93.1959C97.7386 93.1959 99.0478 94.5102 100.004 95.5095C100.085 95.5946 100.164 95.6778 100.241 95.7588C100.654 96.1937 101.009 96.5666 101.369 96.8568C101.789 97.1958 102.101 97.3218 102.367 97.3218C103.161 97.3218 103.874 96.9122 104.434 96.4236C104.707 96.1854 104.923 95.9455 105.071 95.7654C105.144 95.6759 105.199 95.6027 105.234 95.554C105.252 95.5297 105.265 95.5116 105.272 95.5007C105.276 95.4953 105.278 95.4917 105.279 95.4901L105.279 95.4907C105.279 95.4907 105.279 95.4912 105.957 95.9365C106.636 96.3818 106.635 96.3823 106.635 96.3823L106.635 96.3828L106.634 96.384L106.632 96.387L106.627 96.3955C106.622 96.4022 106.616 96.4109 106.609 96.4216C106.594 96.4429 106.574 96.472 106.548 96.5077C106.496 96.5791 106.422 96.6776 106.326 96.7941C106.136 97.0259 105.858 97.3352 105.502 97.6463C104.803 98.2562 103.721 98.945 102.367 98.945C101.559 98.945 100.889 98.5552 100.35 98.1206C99.8979 97.7562 99.4557 97.2899 99.0463 96.8582C98.9733 96.7812 98.9014 96.7054 98.8306 96.6314C97.8132 95.5677 96.9546 94.819 95.8835 94.819C94.7645 94.819 93.8749 95.5056 92.7927 96.4428C92.7482 96.4813 92.7033 96.5203 92.658 96.5597C92.1865 96.9692 91.6693 97.4185 91.1238 97.7662C90.5127 98.1558 89.8011 98.4627 88.9712 98.4627C88.1307 98.4627 87.3958 98.1306 86.7672 97.7188C86.1697 97.3274 85.6022 96.8179 85.0868 96.3553C85.0659 96.3366 85.0452 96.318 85.0245 96.2994C84.4707 95.8027 83.9706 95.3603 83.4599 95.0356C82.957 94.7159 82.5046 94.5511 82.059 94.5511C81.6123 94.5511 81.1543 94.7166 80.6397 95.0386C80.1176 95.3655 79.6036 95.8097 79.0298 96.3081L79.0066 96.3282C78.4604 96.8026 77.8565 97.3271 77.2153 97.7281C76.5574 98.1395 75.7969 98.4627 74.9323 98.4627C74.0612 98.4627 73.3243 98.1349 72.6988 97.7126C72.107 97.313 71.5653 96.793 71.0813 96.3283C71.0648 96.3125 71.0483 96.2966 71.0319 96.2809C69.9538 95.2463 69.1594 94.5511 68.1808 94.5511C67.7128 94.5511 67.2408 94.7274 66.7315 95.0635C66.2164 95.4033 65.7172 95.8698 65.1943 96.386C65.1114 96.4678 65.0272 96.5517 64.942 96.6366C64.5143 97.0625 64.0613 97.5135 63.6157 97.8668C63.0887 98.2845 62.426 98.6889 61.6584 98.6889C60.4234 98.6889 59.39 98.0735 58.715 97.5373C58.3686 97.2621 58.0922 96.9884 57.9017 96.7832C57.806 96.68 57.7308 96.5929 57.6782 96.5297C57.6518 96.498 57.631 96.4723 57.616 96.4535C57.6085 96.444 57.6024 96.4363 57.5979 96.4304L57.5921 96.423L57.59 96.4203L57.5892 96.4192L57.5889 96.4188C57.5889 96.4188 57.5885 96.4184 58.234 95.9263C58.8794 95.4343 58.8791 95.4339 58.8791 95.4339L58.8788 95.4336C58.88 95.4351 58.8824 95.4381 58.8863 95.443C58.894 95.4527 58.907 95.4689 58.9251 95.4906C58.9614 95.5341 59.0175 95.5994 59.0916 95.6792C59.2405 95.8397 59.457 96.0537 59.7246 96.2663C60.2775 96.7056 60.9563 97.0657 61.6584 97.0657C61.8594 97.0657 62.1556 96.9529 62.6074 96.5948C62.9742 96.304 63.3474 95.9329 63.775 95.5076C63.8654 95.4177 63.9583 95.3254 64.054 95.2309C64.579 94.7126 65.1768 94.1446 65.8375 93.7087ZM58.878 95.4325L58.8788 95.4336C58.8782 95.4328 58.878 95.4325 58.878 95.4325ZM63.8066 99.1738C64.7321 98.3037 65.9505 97.3219 67.467 97.3219C69.1709 97.3219 70.4198 98.5217 71.3712 99.4357C71.395 99.4586 71.4186 99.4812 71.442 99.5037C71.9646 100.005 72.419 100.441 72.8933 100.761C73.3541 101.072 73.7769 101.233 74.2185 101.233C74.6668 101.233 75.126 101.068 75.641 100.746C76.1636 100.419 76.6779 99.9748 77.2516 99.4765L77.2776 99.4539C77.8228 98.9803 78.4254 98.4569 79.0647 98.0567C79.7219 97.6454 80.4815 97.3219 81.3452 97.3219C82.2097 97.3219 82.9661 97.646 83.6169 98.0597C84.2598 98.4685 84.8583 99.004 85.3946 99.4851L85.4123 99.5011C85.9633 99.9953 86.4503 100.432 86.9429 100.755C87.4337 101.077 87.8562 101.233 88.2574 101.233C88.6694 101.233 89.077 101.085 89.5375 100.791C89.9764 100.512 90.4035 100.141 90.8971 99.7131C90.9364 99.679 90.9761 99.6445 91.0163 99.6097C92.0379 98.725 93.3625 97.5898 95.1697 97.5898C96.6436 97.5898 97.7567 98.4141 98.6143 99.2253C98.9337 99.5275 99.2451 99.8556 99.5315 100.157C99.6287 100.26 99.7231 100.359 99.8139 100.453C100.189 100.844 100.516 101.16 100.831 101.385L99.8869 102.705C99.4402 102.386 99.025 101.974 98.6446 101.579C98.5366 101.467 98.4316 101.356 98.3281 101.247C98.0505 100.955 97.7838 100.674 97.4988 100.404C96.7183 99.6661 95.9985 99.2129 95.1697 99.2129C94.0507 99.2129 93.1611 99.8995 92.0789 100.837C92.0344 100.875 91.9895 100.914 91.9442 100.954C91.4727 101.363 90.9554 101.812 90.41 102.16C89.7989 102.55 89.0873 102.857 88.2574 102.857C87.4169 102.857 86.682 102.525 86.0534 102.113C85.4559 101.721 84.8884 101.212 84.373 100.749C84.3521 100.731 84.3314 100.712 84.3107 100.693C83.7569 100.197 83.2567 99.7542 82.7461 99.4295C82.2432 99.1098 81.7908 98.945 81.3452 98.945C80.8985 98.945 80.4405 99.1105 79.9259 99.4325C79.4038 99.7594 78.8898 100.204 78.3159 100.702L78.2928 100.722C77.7466 101.196 77.1427 101.721 76.5015 102.122C75.8435 102.533 75.0831 102.857 74.2185 102.857C73.3474 102.857 72.6105 102.529 71.985 102.106C71.3932 101.707 70.8515 101.187 70.3675 100.722C70.351 100.706 70.3345 100.691 70.3181 100.675C69.24 99.6403 68.4455 98.945 67.467 98.945C66.645 98.945 65.8434 99.4867 64.9184 100.356C64.6966 100.565 64.4782 100.782 64.2558 101.003L64.2155 101.043C64.0087 101.249 63.7972 101.459 63.5874 101.658C63.1495 102.073 62.6634 102.493 62.1418 102.765L61.3921 101.325C61.7005 101.165 62.0496 100.879 62.4706 100.48C62.6655 100.295 62.864 100.098 63.0745 99.8884L63.1109 99.8522C63.3323 99.632 63.5659 99.4001 63.8066 99.1738Z" fill="black"/>
<path d="M73.2013 26.5562L70.9159 27.7799C69.065 28.7154 67.6485 25.6237 69.2711 24.7179L75.4789 21.4329C77.6031 20.384 78.8085 23.5275 77.1654 24.4969L75.265 25.5727L82.0559 39.6832L83.2602 42.1854L87.4948 50.9843C89.0156 52.077 89.8216 53.8299 89.8216 53.8299L96.438 68.5951C94.6424 68.3702 93.475 66.9658 92.4033 65.5355C92.6904 67.2274 93.1424 69.168 91.8931 70.5405L85.8815 55.4292C85.8815 55.4292 85.1222 53.8578 85.528 51.7212L82.0632 44.6478L80.859 42.1895L73.2013 26.5562Z" fill="black"/>
<path d="M82.0632 44.6478L80.859 42.1895L76.6765 50.9477C75.159 52.045 74.3584 53.8003 74.3584 53.8003L67.7865 68.5854L72.3373 70.5172L78.3032 55.3877C78.3032 55.3877 79.0577 53.814 78.6455 51.6787L82.0632 44.6478Z" fill="black"/>
<path d="M82.0559 39.6832L83.2602 42.1854L90.8962 26.4765L93.1852 27.6933C95.0389 28.6232 96.4461 25.5272 94.8207 24.6264L88.6031 21.3601C86.4757 20.3176 85.2799 23.4648 86.9259 24.4292L88.8295 25.4993L82.0559 39.6832Z" fill="black"/>
<path fill-rule="evenodd" clip-rule="evenodd" d="M82.041 46.0172C84.2072 46.1292 86.054 44.4639 86.1659 42.2977C86.2778 40.1315 84.6125 38.2847 82.4463 38.1727C80.2801 38.0608 78.4333 39.7261 78.3214 41.8923C78.2095 44.0585 79.8748 45.9053 82.041 46.0172ZM81.9489 47.7995C85.0994 47.9623 87.7853 45.5403 87.9481 42.3897C88.1109 39.2392 85.6889 36.5533 82.5384 36.3905C79.3879 36.2277 76.7019 38.6497 76.5391 41.8002C76.3764 44.9507 78.7984 47.6367 81.9489 47.7995Z" fill="black"/>
<path d="M69.6194 83.2092V86.3121H76.3489C76.2371 85.8604 76.1778 85.388 76.1778 84.9017C76.1778 81.6691 78.7984 79.0485 82.031 79.0485C85.2637 79.0485 87.8842 81.6691 87.8842 84.9017C87.8842 85.4329 87.8135 85.9476 87.6809 86.4368H94.6048V83.3339H89.8457C89.7772 82.9904 89.6866 82.655 89.5754 82.329L93.6891 79.954L92.1377 77.2668L88.0196 79.6443C87.79 79.3829 87.5435 79.1367 87.2818 78.9073L89.6547 74.7975L86.9675 73.246L84.5954 77.3545C84.2669 77.2429 83.9287 77.1522 83.5825 77.0838V72.3491H80.4796V77.0838C80.1355 77.1517 79.7994 77.2418 79.4728 77.3524L77.102 73.246L74.4148 74.7975L76.7852 78.903C76.531 79.1254 76.2912 79.3637 76.0671 79.6164L72.0171 77.2781L70.4657 79.9653L74.4988 82.2938C74.3957 82.5913 74.3099 82.8969 74.2423 83.2092H69.6194Z" fill="black"/>
</svg>
