<svg width="164" height="168" viewBox="0 0 164 168" fill="none" xmlns="http://www.w3.org/2000/svg">
<path d="M78.5233 162.871C74.1001 162.674 70.5607 163.858 68.5944 165.238C66.6281 166.619 65.8416 168 64.6618 168C63.482 168 60.7291 166.619 60.7291 165.436C61.3339 164.861 62.209 164.338 63.2536 163.858C68.6621 161.374 78.6108 160.051 79.0637 158.729C78.9457 160.007 78.7669 161.36 78.5233 162.871Z" fill="#CBC5C5"/>
<path d="M79.0637 151.228C79.0648 151.242 79.066 151.255 79.0671 151.269C79.1848 152.937 75.6593 149.038 73.9035 145.907C72.1338 142.751 71.1506 144.724 68.9877 145.907C66.8247 147.091 64.2685 146.696 64.6618 148.077C65.055 149.458 70.1675 149.852 71.1506 149.852C72.1338 149.852 75.8698 149.852 76.0665 151.036C76.2631 152.219 70.7574 153.206 69.7742 153.206C68.7911 153.206 65.8416 151.825 63.8752 150.247C61.9089 148.669 61.5156 145.513 61.5156 143.343C61.5156 141.173 61.5156 141.173 64.2685 141.173C66.8247 141.173 69.1843 138.411 72.3304 138.411C74.1001 140.581 77.6395 143.935 79.0637 151.228Z" fill="#CBC5C5"/>
<path d="M59.7459 143.343C59.7459 140.778 60.9257 141.962 60.9257 140.778C60.7947 140.252 60.1392 139.003 58.5661 138.214C56.5998 137.228 53.4537 135.847 54.2402 139.792C54.8694 142.948 55.42 144.395 55.6167 144.724C57.6638 145.773 58.8222 146.515 60.9257 148.274C61.1224 145.907 59.7459 144.447 59.7459 143.343Z" fill="#CBC5C5"/>
<path d="M59.7459 148.471C56.9931 145.907 50.7008 143.343 45.5884 143.343C45.5884 144.329 45.1951 145.513 46.5715 146.499C47.948 147.485 49.7177 146.302 51.8806 147.288C53.611 148.077 55.0923 150.115 55.6167 151.036C56.4935 149.599 57.4257 149.046 59.7459 148.471Z" fill="#CBC5C5"/>
<path d="M49.7177 153.206C51.1334 152.732 51.4874 149.852 51.4874 148.471C48.7345 146.499 47.7513 150.247 39.886 145.513C39.1929 146.941 39.2249 147.809 39.4928 151.228C40.7515 152.43 41.57 153.014 43.4254 153.797C44.1714 149.23 45.3713 147.912 49.7177 149.063C48.4987 150.705 48.4649 151.564 49.7177 153.206Z" fill="#CBC5C5"/>
<path d="M62.3022 162.082C62.3022 161.096 60.1392 158.729 59.3527 158.729C58.5661 158.729 56.4032 162.871 53.0604 162.871C50.6967 162.871 46.9566 161.885 44.9685 159.912C44.5136 157.465 44.4884 155.77 44.7283 154.587C45.1263 152.624 46.2539 152.071 47.3581 151.825C47.3581 153.403 50.1109 155.178 51.8806 155.178C54.4369 155.178 57.9762 149.852 58.9594 149.852C59.9426 149.852 62.8921 152.022 63.482 155.178C68.2011 155.376 74.69 153.206 79.2041 153.403C79.2369 154.203 79.2464 154.985 79.2315 155.77C74.2968 156.165 65.2517 162.674 62.3022 162.082Z" fill="#CBC5C5"/>
<path d="M51.0941 142.751C50.7795 141.489 51.1596 140.515 51.4874 140.187C48.1467 132.94 45.1212 130.03 39.2961 125.392C38.4622 132.222 39.6436 135.552 46.9648 142.554L51.0941 142.751Z" fill="#CBC5C5"/>
<path d="M32.8073 143.343C32.8073 143.996 33.3355 144.526 33.987 144.526C34.6386 144.526 35.1668 143.996 35.1668 143.343C35.1668 142.689 34.6386 142.159 33.987 142.159C33.3355 142.159 32.8073 142.689 32.8073 143.343Z" fill="#CBC5C5"/>
<path d="M35.5601 129.337C35.5601 129.991 36.0883 130.521 36.7399 130.521C37.3915 130.521 37.9197 129.991 37.9197 129.337C37.9197 128.684 37.3915 128.154 36.7399 128.154C36.0883 128.154 35.5601 128.684 35.5601 129.337Z" fill="#CBC5C5"/>
<path d="M21.9925 112.965C21.9925 113.619 22.5207 114.149 23.1722 114.149C23.8238 114.149 24.352 113.619 24.352 112.965C24.352 112.311 23.8238 111.782 23.1722 111.782C22.5207 111.782 21.9925 112.311 21.9925 112.965Z" fill="#CBC5C5"/>
<path d="M5.67193 102.905C5.67193 103.559 6.20014 104.088 6.85173 104.088C7.50331 104.088 8.03152 103.559 8.03152 102.905C8.03152 102.251 7.50331 101.721 6.85173 101.721C6.20014 101.721 5.67193 102.251 5.67193 102.905Z" fill="#CBC5C5"/>
<path d="M15.3069 97.7762C15.3069 98.4299 15.8351 98.9598 16.4867 98.9598C17.1383 98.9598 17.6665 98.4299 17.6665 97.7762C17.6665 97.1225 17.1383 96.5927 16.4867 96.5927C15.8351 96.5927 15.3069 97.1225 15.3069 97.7762Z" fill="#CBC5C5"/>
<path d="M13.7339 82.9819C13.7339 83.6355 14.2621 84.1654 14.9137 84.1654C15.5653 84.1654 16.0935 83.6355 16.0935 82.9819C16.0935 82.3282 15.5653 81.7983 14.9137 81.7983C14.2621 81.7983 13.7339 82.3282 13.7339 82.9819Z" fill="#CBC5C5"/>
<path d="M9.60458 60.0999C9.60458 60.7536 10.1328 61.2835 10.7844 61.2835C11.436 61.2835 11.9642 60.7536 11.9642 60.0999C11.9642 59.4463 11.436 58.9164 10.7844 58.9164C10.1328 58.9164 9.60458 59.4463 9.60458 60.0999Z" fill="#CBC5C5"/>
<path d="M18.6497 64.0451C18.6497 64.6988 19.1779 65.2287 19.8295 65.2287C20.4811 65.2287 21.0093 64.6988 21.0093 64.0451C21.0093 63.3914 20.4811 62.8616 19.8295 62.8616C19.1779 62.8616 18.6497 63.3914 18.6497 64.0451Z" fill="#CBC5C5"/>
<path d="M13.5372 46.4892C13.5372 47.1428 14.0655 47.6727 14.717 47.6727C15.3686 47.6727 15.8968 47.1428 15.8968 46.4892C15.8968 45.8355 15.3686 45.3056 14.717 45.3056C14.0655 45.3056 13.5372 45.8355 13.5372 46.4892Z" fill="#CBC5C5"/>
<path d="M21.5992 40.9659C21.5992 41.6196 22.1274 42.1495 22.779 42.1495C23.4306 42.1495 23.9588 41.6196 23.9588 40.9659C23.9588 40.3123 23.4306 39.7824 22.779 39.7824C22.1274 39.7824 21.5992 40.3123 21.5992 40.9659Z" fill="#CBC5C5"/>
<path d="M35.1668 36.8235C35.1668 37.4772 35.6951 38.0071 36.3466 38.0071C36.9982 38.0071 37.5264 37.4772 37.5264 36.8235C37.5264 36.1699 36.9982 35.64 36.3466 35.64C35.6951 35.64 35.1668 36.1699 35.1668 36.8235Z" fill="#CBC5C5"/>
<path d="M49.1278 21.2401C49.1278 21.8938 49.656 22.4237 50.3076 22.4237C50.9592 22.4237 51.4874 21.8938 51.4874 21.2401C51.4874 20.5865 50.9592 20.0566 50.3076 20.0566C49.656 20.0566 49.1278 20.5865 49.1278 21.2401Z" fill="#CBC5C5"/>
<path d="M39.886 14.3361C39.886 14.9898 40.4142 15.5197 41.0658 15.5197C41.7174 15.5197 42.2456 14.9898 42.2456 14.3361C42.2456 13.6825 41.7174 13.1526 41.0658 13.1526C40.4142 13.1526 39.886 13.6825 39.886 14.3361Z" fill="#CBC5C5"/>
<path d="M64.8584 13.1526C64.8584 13.8062 65.3866 14.3361 66.0382 14.3361C66.6898 14.3361 67.218 13.8062 67.218 13.1526C67.218 12.4989 66.6898 11.969 66.0382 11.969C65.3866 11.969 64.8584 12.4989 64.8584 13.1526Z" fill="#CBC5C5"/>
<path d="M64.0719 3.68419C64.0719 4.33785 64.6001 4.86774 65.2517 4.86774C65.9032 4.86774 66.4315 4.33785 66.4315 3.68419C66.4315 3.03054 65.9032 2.50065 65.2517 2.50065C64.6001 2.50065 64.0719 3.03054 64.0719 3.68419Z" fill="#CBC5C5"/>
<path d="M44.4086 142.159C44.1464 142.883 43.7794 144.566 44.4086 145.513C37.7194 144.273 26.7827 134.609 27.4982 127.365C33.6026 129.111 37.2417 132.207 44.4086 142.159Z" fill="#CBC5C5"/>
<path d="M36.7399 125.984C36.3466 120.264 28.2847 109.809 26.7116 110.598C25.1386 111.387 25.9251 125.59 32.414 128.351C32.8859 127.247 35.4946 126.313 36.7399 125.984Z" fill="#CBC5C5"/>
<path d="M32.2174 140.384C29.0712 137.031 23.3689 133.677 18.0598 134.466C19.4362 139.792 27.6948 142.948 31.0376 144.526C30.6443 143.343 31.2342 140.976 32.2174 140.384Z" fill="#CBC5C5"/>
<path d="M37.9197 149.852C37.3298 148.077 38.313 146.302 37.7231 146.104C37.2512 145.947 34.3803 145.776 33.0039 145.71C34.3414 147.434 35.3842 148.353 37.9197 149.852Z" fill="#CBC5C5"/>
<path d="M27.4982 125.984C26.7116 121.842 20.4194 111.584 17.6665 112.571C14.9137 113.557 18.6497 128.746 26.3184 132.494C24.352 128.351 25.4825 125.984 27.4982 125.984Z" fill="#CBC5C5"/>
<path d="M25.3352 110.203C24.9419 104.483 25.9251 101.919 23.9588 97.7762C21.9925 93.6338 21.4026 94.0283 20.616 94.2256C19.8295 94.4228 17.8632 100.341 18.6497 104.68C19.2789 108.152 20.2228 111.387 20.616 112.571C20.9437 111.847 21.8351 110.282 22.779 109.809C23.7228 109.336 24.8764 109.875 25.3352 110.203Z" fill="#CBC5C5"/>
<path d="M18.6497 111.782C18.4733 102.905 12.5541 94.8371 10.7844 95.0146C6.85173 95.4091 9.99785 113.754 15.3069 116.121C15.3069 111.782 16.4867 110.203 18.6497 111.782Z" fill="#CBC5C5"/>
<path d="M24.352 133.085C18.4531 129.337 19.6329 126.576 16.0935 123.222C13.262 120.54 9.53904 119.475 8.03152 119.277C11.036 127.891 14.3258 131.19 24.352 133.085Z" fill="#CBC5C5"/>
<path d="M14.5204 119.869C13.3406 114.442 5.27866 102.905 2.91907 104.088C2.91907 106.653 7.1404 113.754 8.03152 117.699C11.0203 118.015 13.6028 119.277 14.5204 119.869Z" fill="#CBC5C5"/>
<path d="M22.3857 80.2203C18.6497 81.7983 13.7339 87.5188 14.9137 95.8036C16.1721 94.2256 17.5354 94.6201 18.0598 95.0146C18.7023 93.2603 19.2177 92.6724 20.616 92.8448C22.8798 87.8957 23.0128 85.1346 22.3857 80.2203Z" fill="#CBC5C5"/>
<path d="M9.99785 73.7107C7.44162 76.2751 4.90842 87.1285 8.03152 96.5927C10.1759 93.3904 11.2119 93.9851 13.144 93.831C13.6603 90.8812 13.7827 87.8919 13.6396 85.1517C13.3433 84.8229 12.7114 83.9287 12.5541 82.9819C12.3968 82.035 12.92 81.2723 13.2012 81.0093C12.5112 76.7859 11.2073 73.8226 9.99785 73.7107Z" fill="#CBC5C5"/>
<path d="M1.93591 87.1243C1.93591 92.8448 2.85757 95.8816 2.91907 102.313C3.50897 103.694 5.67193 103.497 5.27866 99.5515C5.55988 100.492 7.36359 101.396 7.04836 96.7899C6.73313 92.1842 1.93591 87.1243 1.93591 87.1243Z" fill="#CBC5C5"/>
<path d="M24.5487 65.8204C24.3745 73.0156 22.7077 75.8925 18.6497 80.2203C17.6945 78.3103 15.8968 81.0093 14.1271 79.234C18.0598 72.1327 16.4867 69.9628 19.8295 67.793C21.7019 66.3731 22.7256 66.1477 24.5487 65.8204Z" fill="#CBC5C5"/>
<path d="M15.8968 57.3383C9.99785 63.4533 6.61717 67.3427 8.03152 75.2888C10.0516 71.1041 11.3295 72.1341 13.7339 77.0641C17.2855 69.2726 18.0878 64.948 15.8968 57.3383Z" fill="#CBC5C5"/>
<path d="M5.27866 89.0969C5.96502 83.1491 6.26183 80.2203 5.67193 77.0641C4.76101 74.8731 3.83605 73.8268 1.34601 72.3299C0.396747 77.4953 0.474983 80.3813 1.34601 85.5462C3.56693 86.2633 4.22487 87.2364 5.27866 89.0969Z" fill="#CBC5C5"/>
<path d="M6.45846 75.2888C5.67193 68.7793 8.42479 65.2287 8.42479 61.2835C8.42479 57.3383 5.67193 54.9712 5.67193 54.9712C3.89437 62.0223 3.64249 65.7562 3.50897 72.3299C4.6884 72.774 5.33947 73.4615 6.45846 75.2888Z" fill="#CBC5C5"/>
<path d="M30.0544 51.8151C28.3618 57.2269 26.9199 59.9237 22.779 63.6506C22.212 62.0294 21.8121 61.6046 21.0093 61.2835C22.3746 58.5754 22.5891 57.0644 22.779 54.3795C26.9188 51.6044 28.0456 51.6782 30.0544 51.8151Z" fill="#CBC5C5"/>
<path d="M19.2396 60.0999C16.6798 55.3277 15.4988 55.1625 13.6396 57.3383C13.7342 53.2658 14.4063 51.5823 15.8968 48.8563C17.2824 48.6541 17.5326 47.8016 17.6665 46.4892C19.7937 44.2557 20.8881 43.7567 22.779 43.333C22.6605 50.4158 22.0867 54.1738 19.2396 60.0999Z" fill="#CBC5C5"/>
<path d="M11.9642 44.1221C9.175 46.5605 8.0464 48.6122 7.24499 54.1822C8.00128 54.8299 8.37527 55.7449 9.01469 57.7328C9.91136 56.7355 10.4295 56.5943 11.3743 56.9438C13.2914 52.038 13.294 49.2322 11.9642 44.1221Z" fill="#CBC5C5"/>
<path d="M23.3689 52.4069C24.5186 44.756 30.0544 38.9934 35.1668 38.9934C37.1332 38.9934 38.2474 37.0208 38.9029 38.0071C39.2544 38.536 36.5857 42.9503 32.8073 46.6864C29.5406 49.9165 25.2835 52.5898 23.3689 52.4069Z" fill="#CBC5C5"/>
<path d="M35.5601 26.5661C28.6041 28.2405 25.5693 30.3062 22.779 37.4153C24.8157 39.2253 26.3462 39.9846 23.9588 44.7138C32.1669 38.2421 34.2453 34.1954 35.5601 26.5661Z" fill="#CBC5C5"/>
<path d="M21.5992 29.1305C16.803 33.587 14.9127 36.5575 12.7507 42.544C12.7483 43.5088 12.8088 43.9981 13.3406 44.5166C14.23 43.9986 14.9648 43.8603 17.0766 44.1221C21.1526 38.0764 21.8822 34.8154 21.5992 29.1305Z" fill="#CBC5C5"/>
<path d="M48.3412 17.295C39.4551 17.7883 35.5627 19.7904 30.6443 26.5661C36.3131 24.4314 37.6599 24.8229 36.7399 29.1305C43.3395 25.259 45.4937 22.5242 48.3412 17.295Z" fill="#CBC5C5"/>
<path d="M38.7062 14.1389C38.313 17.6895 29.2679 24.5935 22.5823 34.2592C24.9419 27.3551 25.743 26.0202 22.779 27.9469C28.2753 18.9581 31.8147 16.1937 38.7062 14.1389Z" fill="#CBC5C5"/>
<path d="M51.4874 25.9743C50.085 24.4224 49.13 23.8281 46.1783 24.199C42.4134 27.5208 40.3776 28.6647 36.9036 30.6165L36.7399 30.7085C36.123 31.5434 35.8417 32.3077 35.5601 33.6674C41.0379 33.6789 44.5518 31.9484 51.4874 25.9743Z" fill="#CBC5C5"/>
<path d="M58.3695 17.295C54.6335 18.8731 49.7177 18.2813 49.7177 18.2813C49.5839 15.3616 47.9768 15.7372 45.785 15.5197C53.038 9.82028 57.3526 8.43689 65.6449 10.3707C61.7123 11.969 64.0719 14.8864 58.3695 17.295Z" fill="#CBC5C5"/>
<path d="M51.684 23.2127C59.0183 23.14 62.2535 21.9805 67.218 18.8731C66.3336 16.5173 65.4199 15.9991 62.6954 15.7169C60.203 19.0471 57.9426 20.0676 53.0604 21.0429C52.8702 22.0914 52.6034 22.6556 51.684 23.2127Z" fill="#CBC5C5"/>
<path d="M62.6954 2.89516C62.0945 5.76179 61.3639 7.22155 57.3863 8.8129C53.8896 9.6234 52.7788 9.01722 45.1951 14.9279C44.5601 15.3274 44.2155 15.4586 43.6221 15.5197C43.7107 13.868 43.5588 13.0898 43.0322 11.969C49.7602 6.06275 54.2408 4.51149 62.6954 2.89516Z" fill="#CBC5C5"/>
<path d="M81.1789 15.5197C80.6522 14.0209 80.0311 13.3457 78.4261 12.3635C76.5187 13.445 74.5478 13.6784 69.5776 13.5471C68.315 14.2065 67.7693 14.6289 67.218 15.5197C72.1123 17.598 75.1914 17.591 81.1789 15.5197Z" fill="#CBC5C5"/>
<path d="M81.1789 0.133552C80.246 1.60732 79.5616 2.43004 77.8362 3.88145C73.6033 3.61194 71.3919 3.90341 67.6113 4.86774C67.8155 3.94535 67.7638 3.42357 67.6113 2.50065C73.7051 0.082413 76.5812 -0.247386 81.1789 0.133552Z" fill="#CBC5C5"/>
<path d="M85.8029 162.871C90.226 162.674 93.7654 163.858 95.7318 165.238C97.6981 166.619 98.4846 168 99.6644 168C100.844 168 103.597 166.619 103.597 165.436C102.992 164.861 102.117 164.338 101.073 163.858C95.6641 161.374 85.7154 160.051 85.2625 158.729C85.3804 160.007 85.5593 161.36 85.8029 162.871Z" fill="#CBC5C5"/>
<path d="M85.2625 151.228C85.2613 151.242 85.2602 151.255 85.259 151.269C85.1414 152.937 88.6669 149.038 90.4227 145.907C92.1924 142.751 93.1755 144.724 95.3385 145.907C97.5014 147.091 100.058 146.696 99.6644 148.077C99.2711 149.458 94.1587 149.852 93.1755 149.852C92.1924 149.852 88.4563 149.852 88.2597 151.036C88.0631 152.219 93.5688 153.206 94.552 153.206C95.5351 153.206 98.4846 151.825 100.451 150.247C102.417 148.669 102.811 145.513 102.811 143.343C102.811 141.173 102.811 141.173 100.058 141.173C97.5014 141.173 95.1419 138.411 91.9957 138.411C90.226 140.581 86.6866 143.935 85.2625 151.228Z" fill="#CBC5C5"/>
<path d="M104.58 143.343C104.58 140.778 103.4 141.962 103.4 140.778C103.532 140.252 104.187 139.003 105.76 138.214C107.726 137.228 110.872 135.847 110.086 139.792C109.457 142.948 108.906 144.395 108.71 144.724C106.662 145.773 105.504 146.515 103.4 148.274C103.204 145.907 104.58 144.447 104.58 143.343Z" fill="#CBC5C5"/>
<path d="M104.58 148.471C107.333 145.907 113.625 143.343 118.738 143.343C118.738 144.329 119.131 145.513 117.755 146.499C116.378 147.485 114.609 146.302 112.446 147.288C110.715 148.077 109.234 150.115 108.71 151.036C107.833 149.599 106.9 149.046 104.58 148.471Z" fill="#CBC5C5"/>
<path d="M114.609 153.206C113.193 152.732 112.839 149.852 112.839 148.471C115.592 146.499 116.575 150.247 124.44 145.513C125.133 146.941 125.101 147.809 124.833 151.228C123.575 152.43 122.756 153.014 120.901 153.797C120.155 149.23 118.955 147.912 114.609 149.063C115.828 150.705 115.861 151.564 114.609 153.206Z" fill="#CBC5C5"/>
<path d="M102.024 162.082C102.024 161.096 104.187 158.729 104.974 158.729C105.76 158.729 107.923 162.871 111.266 162.871C113.629 162.871 117.37 161.885 119.358 159.912C119.813 157.465 119.838 155.77 119.598 154.587C119.2 152.624 118.072 152.071 116.968 151.825C116.968 153.403 114.215 155.178 112.446 155.178C109.889 155.178 106.35 149.852 105.367 149.852C104.384 149.852 101.434 152.022 100.844 155.178C96.125 155.376 89.6361 153.206 85.1221 153.403C85.0892 154.203 85.0798 154.985 85.0947 155.77C90.0294 156.165 99.0745 162.674 102.024 162.082Z" fill="#CBC5C5"/>
<path d="M113.232 142.751C113.547 141.489 113.167 140.515 112.839 140.187C116.18 132.94 119.205 130.03 125.03 125.392C125.864 132.222 124.683 135.552 117.361 142.554L113.232 142.751Z" fill="#CBC5C5"/>
<path d="M131.519 143.343C131.519 143.996 130.991 144.526 130.339 144.526C129.688 144.526 129.159 143.996 129.159 143.343C129.159 142.689 129.688 142.159 130.339 142.159C130.991 142.159 131.519 142.689 131.519 143.343Z" fill="#CBC5C5"/>
<path d="M128.766 129.337C128.766 129.991 128.238 130.521 127.586 130.521C126.935 130.521 126.406 129.991 126.406 129.337C126.406 128.684 126.935 128.154 127.586 128.154C128.238 128.154 128.766 128.684 128.766 129.337Z" fill="#CBC5C5"/>
<path d="M142.334 112.965C142.334 113.619 141.806 114.149 141.154 114.149C140.502 114.149 139.974 113.619 139.974 112.965C139.974 112.311 140.502 111.782 141.154 111.782C141.806 111.782 142.334 112.311 142.334 112.965Z" fill="#CBC5C5"/>
<path d="M158.654 102.905C158.654 103.559 158.126 104.088 157.474 104.088C156.823 104.088 156.295 103.559 156.295 102.905C156.295 102.251 156.823 101.721 157.474 101.721C158.126 101.721 158.654 102.251 158.654 102.905Z" fill="#CBC5C5"/>
<path d="M149.019 97.7762C149.019 98.4299 148.491 98.9598 147.839 98.9598C147.188 98.9598 146.66 98.4299 146.66 97.7762C146.66 97.1225 147.188 96.5927 147.839 96.5927C148.491 96.5927 149.019 97.1225 149.019 97.7762Z" fill="#CBC5C5"/>
<path d="M150.592 82.9819C150.592 83.6355 150.064 84.1654 149.413 84.1654C148.761 84.1654 148.233 83.6355 148.233 82.9819C148.233 82.3282 148.761 81.7983 149.413 81.7983C150.064 81.7983 150.592 82.3282 150.592 82.9819Z" fill="#CBC5C5"/>
<path d="M154.722 60.0999C154.722 60.7536 154.193 61.2835 153.542 61.2835C152.89 61.2835 152.362 60.7536 152.362 60.0999C152.362 59.4463 152.89 58.9164 153.542 58.9164C154.193 58.9164 154.722 59.4463 154.722 60.0999Z" fill="#CBC5C5"/>
<path d="M145.676 64.0451C145.676 64.6988 145.148 65.2287 144.497 65.2287C143.845 65.2287 143.317 64.6988 143.317 64.0451C143.317 63.3914 143.845 62.8616 144.497 62.8616C145.148 62.8616 145.676 63.3914 145.676 64.0451Z" fill="#CBC5C5"/>
<path d="M150.789 46.4892C150.789 47.1428 150.261 47.6727 149.609 47.6727C148.958 47.6727 148.429 47.1428 148.429 46.4892C148.429 45.8355 148.958 45.3056 149.609 45.3056C150.261 45.3056 150.789 45.8355 150.789 46.4892Z" fill="#CBC5C5"/>
<path d="M142.727 40.9659C142.727 41.6196 142.199 42.1495 141.547 42.1495C140.896 42.1495 140.367 41.6196 140.367 40.9659C140.367 40.3123 140.896 39.7824 141.547 39.7824C142.199 39.7824 142.727 40.3123 142.727 40.9659Z" fill="#CBC5C5"/>
<path d="M129.159 36.8235C129.159 37.4772 128.631 38.0071 127.98 38.0071C127.328 38.0071 126.8 37.4772 126.8 36.8235C126.8 36.1699 127.328 35.64 127.98 35.64C128.631 35.64 129.159 36.1699 129.159 36.8235Z" fill="#CBC5C5"/>
<path d="M115.198 21.2401C115.198 21.8938 114.67 22.4237 114.019 22.4237C113.367 22.4237 112.839 21.8938 112.839 21.2401C112.839 20.5865 113.367 20.0566 114.019 20.0566C114.67 20.0566 115.198 20.5865 115.198 21.2401Z" fill="#CBC5C5"/>
<path d="M124.44 14.3361C124.44 14.9898 123.912 15.5197 123.26 15.5197C122.609 15.5197 122.081 14.9898 122.081 14.3361C122.081 13.6825 122.609 13.1526 123.26 13.1526C123.912 13.1526 124.44 13.6825 124.44 14.3361Z" fill="#CBC5C5"/>
<path d="M99.4678 13.1526C99.4678 13.8062 98.9396 14.3361 98.288 14.3361C97.6364 14.3361 97.1082 13.8062 97.1082 13.1526C97.1082 12.4989 97.6364 11.969 98.288 11.969C98.9396 11.969 99.4678 12.4989 99.4678 13.1526Z" fill="#CBC5C5"/>
<path d="M100.254 3.68419C100.254 4.33785 99.7261 4.86774 99.0745 4.86774C98.4229 4.86774 97.8947 4.33785 97.8947 3.68419C97.8947 3.03054 98.4229 2.50065 99.0745 2.50065C99.7261 2.50065 100.254 3.03054 100.254 3.68419Z" fill="#CBC5C5"/>
<path d="M119.918 142.159C120.18 142.883 120.547 144.566 119.918 145.513C126.607 144.273 137.544 134.609 136.828 127.365C130.724 129.111 127.084 132.207 119.918 142.159Z" fill="#CBC5C5"/>
<path d="M127.586 125.984C127.98 120.264 136.041 109.809 137.615 110.598C139.188 111.387 138.401 125.59 131.912 128.351C131.44 127.247 128.832 126.313 127.586 125.984Z" fill="#CBC5C5"/>
<path d="M132.109 140.384C135.255 137.031 140.957 133.677 146.266 134.466C144.89 139.792 136.631 142.948 133.289 144.526C133.682 143.343 133.092 140.976 132.109 140.384Z" fill="#CBC5C5"/>
<path d="M126.406 149.852C126.996 148.077 126.013 146.302 126.603 146.104C127.075 145.947 129.946 145.776 131.322 145.71C129.985 147.434 128.942 148.353 126.406 149.852Z" fill="#CBC5C5"/>
<path d="M136.828 125.984C137.615 121.842 143.907 111.584 146.66 112.571C149.413 113.557 145.676 128.746 138.008 132.494C139.974 128.351 138.844 125.984 136.828 125.984Z" fill="#CBC5C5"/>
<path d="M138.991 110.203C139.384 104.483 138.401 101.919 140.367 97.7762C142.334 93.6338 142.924 94.0283 143.71 94.2256C144.497 94.4228 146.463 100.341 145.676 104.68C145.047 108.152 144.103 111.387 143.71 112.571C143.382 111.847 142.491 110.282 141.547 109.809C140.603 109.336 139.45 109.875 138.991 110.203Z" fill="#CBC5C5"/>
<path d="M145.676 111.782C145.853 102.905 151.772 94.8371 153.542 95.0146C157.474 95.4091 154.328 113.754 149.019 116.121C149.019 111.782 147.839 110.203 145.676 111.782Z" fill="#CBC5C5"/>
<path d="M139.974 133.085C145.873 129.337 144.693 126.576 148.233 123.222C151.064 120.54 154.787 119.475 156.295 119.277C153.29 127.891 150 131.19 139.974 133.085Z" fill="#CBC5C5"/>
<path d="M149.806 119.869C150.986 114.442 159.048 102.905 161.407 104.088C161.407 106.653 157.186 113.754 156.295 117.699C153.306 118.015 150.723 119.277 149.806 119.869Z" fill="#CBC5C5"/>
<path d="M141.94 80.2203C145.676 81.7983 150.592 87.5188 149.413 95.8036C148.154 94.2256 146.791 94.6201 146.266 95.0146C145.624 93.2603 145.108 92.6724 143.71 92.8448C141.446 87.8957 141.313 85.1346 141.94 80.2203Z" fill="#CBC5C5"/>
<path d="M154.328 73.7107C156.885 76.2751 159.418 87.1285 156.295 96.5927C154.15 93.3904 153.114 93.9851 151.182 93.831C150.666 90.8812 150.543 87.8919 150.687 85.1517C150.983 84.8229 151.615 83.9287 151.772 82.9819C151.929 82.035 151.406 81.2723 151.125 81.0093C151.815 76.7859 153.119 73.8226 154.328 73.7107Z" fill="#CBC5C5"/>
<path d="M162.39 87.1243C162.39 92.8448 161.469 95.8816 161.407 102.313C160.817 103.694 158.654 103.497 159.048 99.5515C158.766 100.492 156.963 101.396 157.278 96.7899C157.593 92.1842 162.39 87.1243 162.39 87.1243Z" fill="#CBC5C5"/>
<path d="M139.778 65.8204C139.952 73.0156 141.618 75.8925 145.676 80.2203C146.632 78.3103 148.429 81.0093 150.199 79.234C146.266 72.1327 147.839 69.9628 144.497 67.793C142.624 66.3731 141.601 66.1477 139.778 65.8204Z" fill="#CBC5C5"/>
<path d="M148.429 57.3383C154.328 63.4533 157.709 67.3427 156.295 75.2888C154.275 71.1041 152.997 72.1341 150.592 77.0641C147.041 69.2726 146.238 64.948 148.429 57.3383Z" fill="#CBC5C5"/>
<path d="M159.048 89.0969C158.361 83.1491 158.064 80.2203 158.654 77.0641C159.565 74.8731 160.49 73.8268 162.98 72.3299C163.929 77.4953 163.851 80.3813 162.98 85.5462C160.759 86.2633 160.101 87.2364 159.048 89.0969Z" fill="#CBC5C5"/>
<path d="M157.868 75.2888C158.654 68.7793 155.901 65.2287 155.901 61.2835C155.901 57.3383 158.654 54.9712 158.654 54.9712C160.432 62.0223 160.684 65.7562 160.817 72.3299C159.638 72.774 158.987 73.4615 157.868 75.2888Z" fill="#CBC5C5"/>
<path d="M134.272 51.8151C135.964 57.2269 137.406 59.9237 141.547 63.6506C142.114 62.0294 142.514 61.6046 143.317 61.2835C141.952 58.5754 141.737 57.0644 141.547 54.3795C137.407 51.6044 136.281 51.6782 134.272 51.8151Z" fill="#CBC5C5"/>
<path d="M145.087 60.0999C147.646 55.3277 148.827 55.1625 150.687 57.3383C150.592 53.2658 149.92 51.5823 148.429 48.8563C147.044 48.6541 146.794 47.8016 146.66 46.4892C144.533 44.2557 143.438 43.7567 141.547 43.333C141.666 50.4158 142.24 54.1738 145.087 60.0999Z" fill="#CBC5C5"/>
<path d="M152.362 44.1221C155.151 46.5605 156.28 48.6122 157.081 54.1822C156.325 54.8299 155.951 55.7449 155.311 57.7328C154.415 56.7355 153.897 56.5943 152.952 56.9438C151.035 52.038 151.032 49.2322 152.362 44.1221Z" fill="#CBC5C5"/>
<path d="M140.957 52.4069C139.808 44.756 134.272 38.9934 129.159 38.9934C127.193 38.9934 126.079 37.0208 125.423 38.0071C125.072 38.536 127.741 42.9503 131.519 46.6864C134.786 49.9165 139.043 52.5898 140.957 52.4069Z" fill="#CBC5C5"/>
<path d="M128.766 26.5661C135.722 28.2405 138.757 30.3062 141.547 37.4153C139.51 39.2253 137.98 39.9846 140.367 44.7138C132.159 38.2421 130.081 34.1954 128.766 26.5661Z" fill="#CBC5C5"/>
<path d="M142.727 29.1305C147.523 33.587 149.413 36.5575 151.575 42.544C151.578 43.5088 151.517 43.9981 150.986 44.5166C150.096 43.9986 149.361 43.8603 147.25 44.1221C143.174 38.0764 142.444 34.8154 142.727 29.1305Z" fill="#CBC5C5"/>
<path d="M115.985 17.295C124.871 17.7883 128.763 19.7904 133.682 26.5661C128.013 24.4314 126.666 24.8229 127.586 29.1305C120.987 25.259 118.832 22.5242 115.985 17.295Z" fill="#CBC5C5"/>
<path d="M125.62 14.1389C126.013 17.6895 135.058 24.5935 141.744 34.2592C139.384 27.3551 138.583 26.0202 141.547 27.9469C136.051 18.9581 132.512 16.1937 125.62 14.1389Z" fill="#CBC5C5"/>
<path d="M112.839 25.9743C114.241 24.4224 115.196 23.8281 118.148 24.199C121.913 27.5208 123.949 28.6647 127.423 30.6165L127.586 30.7085C128.203 31.5434 128.484 32.3077 128.766 33.6674C123.288 33.6789 119.774 31.9484 112.839 25.9743Z" fill="#CBC5C5"/>
<path d="M105.957 17.295C109.693 18.8731 114.609 18.2813 114.609 18.2813C114.742 15.3616 116.349 15.7372 118.541 15.5197C111.288 9.82028 106.974 8.43689 98.6812 10.3707C102.614 11.969 100.254 14.8864 105.957 17.295Z" fill="#CBC5C5"/>
<path d="M112.642 23.2127C105.308 23.14 102.073 21.9805 97.1082 18.8731C97.9926 16.5173 98.9063 15.9991 101.631 15.7169C104.123 19.0471 106.384 20.0676 111.266 21.0429C111.456 22.0914 111.723 22.6556 112.642 23.2127Z" fill="#CBC5C5"/>
<path d="M101.631 2.89516C102.232 5.76179 102.962 7.22155 106.94 8.8129C110.437 9.6234 111.547 9.01722 119.131 14.9279C119.766 15.3274 120.111 15.4586 120.704 15.5197C120.615 13.868 120.767 13.0898 121.294 11.969C114.566 6.06275 110.085 4.51149 101.631 2.89516Z" fill="#CBC5C5"/>
<path d="M83.1473 15.5197C83.674 14.0209 84.2951 13.3457 85.9001 12.3635C87.8075 13.445 89.7783 13.6784 94.7486 13.5471C96.0112 14.2065 96.5569 14.6289 97.1082 15.5197C92.2139 17.598 89.1348 17.591 83.1473 15.5197Z" fill="#CBC5C5"/>
<path d="M83.1473 0.133552C84.0802 1.60732 84.7646 2.43004 86.49 3.88145C90.7229 3.61194 92.9343 3.90341 96.7149 4.86774C96.5107 3.94535 96.5624 3.42357 96.7149 2.50065C90.6211 0.082413 87.745 -0.247386 83.1473 0.133552Z" fill="#CBC5C5"/>
<path d="M78.4261 163.463C78.4261 163.463 80.3934 163.858 82.1631 163.858C83.9328 163.858 85.9001 163.463 85.9001 163.463C85.8666 163.263 85.8342 163.066 85.8029 162.871C85.5593 161.36 85.3804 160.007 85.2625 158.729C85.1683 157.709 85.113 156.737 85.0947 155.77C85.0798 154.985 85.0892 154.203 85.1221 153.403C85.1505 152.711 85.1963 152.004 85.259 151.269L85.2625 151.228C85.3991 149.64 85.6138 147.915 85.9001 145.907C85.9001 145.907 84.1294 145.513 82.1631 145.513C80.1968 145.513 78.4261 145.907 78.4261 145.907C78.7124 147.915 78.9271 149.64 79.0637 151.228L79.0671 151.269C79.1298 152.004 79.1757 152.711 79.2041 153.403C79.2369 154.203 79.2464 154.985 79.2315 155.77C79.2132 156.737 79.1578 157.709 79.0637 158.729C78.9457 160.007 78.7669 161.36 78.5233 162.871C78.492 163.066 78.4596 163.263 78.4261 163.463Z" fill="#CBC5C5"/>
<path fill-rule="evenodd" clip-rule="evenodd" d="M78.4261 145.907C78.4261 145.907 80.1968 145.513 82.1631 145.513C84.1294 145.513 85.9001 145.907 85.9001 145.907C85.6138 147.915 85.3991 149.64 85.2625 151.228C86.6866 143.935 90.226 140.581 91.9957 138.411C95.1419 138.411 97.5014 141.173 100.058 141.173C102.811 141.173 102.811 141.173 102.811 143.343C102.811 145.513 102.417 148.669 100.451 150.247C98.4846 151.825 95.5351 153.206 94.552 153.206C93.5688 153.206 88.0631 152.219 88.2597 151.036C88.4563 149.852 92.1924 149.852 93.1755 149.852C94.1587 149.852 99.2711 149.458 99.6644 148.077C100.058 146.696 97.5014 147.091 95.3385 145.907C93.1755 144.724 92.1924 142.751 90.4227 145.907C88.6669 149.038 85.1414 152.937 85.259 151.269C85.1963 152.004 85.1505 152.711 85.1221 153.403C89.6361 153.206 96.125 155.376 100.844 155.178C101.434 152.022 104.384 149.852 105.367 149.852C106.35 149.852 109.889 155.178 112.446 155.178C114.215 155.178 116.968 153.403 116.968 151.825C118.072 152.071 119.2 152.624 119.598 154.587L120.901 153.797C120.155 149.23 118.955 147.912 114.609 149.063C115.828 150.705 115.861 151.564 114.609 153.206C113.193 152.732 112.839 149.852 112.839 148.471C115.592 146.499 116.575 150.247 124.44 145.513C125.133 146.941 125.101 147.809 124.833 151.228L126.406 149.852C126.996 148.077 126.013 146.302 126.603 146.104C127.075 145.947 129.946 145.776 131.322 145.71L133.289 144.526C133.682 143.343 133.092 140.976 132.109 140.384C135.255 137.031 140.957 133.677 146.266 134.466L139.974 133.085C145.873 129.337 144.693 126.576 148.233 123.222C151.064 120.54 154.787 119.475 156.295 119.277V117.699C153.306 118.015 150.723 119.277 149.806 119.869C150.986 114.442 159.048 102.905 161.407 104.088V102.313C160.817 103.694 158.654 103.497 159.048 99.5515C158.766 100.492 156.963 101.396 157.278 96.7899C157.593 92.1842 162.39 87.1243 162.39 87.1243L162.98 85.5462C160.759 86.2633 160.101 87.2364 159.048 89.0969C158.361 83.1491 158.064 80.2203 158.654 77.0641C159.565 74.8731 160.49 73.8268 162.98 72.3299H160.817C159.638 72.774 158.987 73.4615 157.868 75.2888C158.654 68.7793 155.901 65.2287 155.901 61.2835C155.901 57.3383 158.654 54.9712 158.654 54.9712L157.081 54.1822C156.325 54.8299 155.951 55.7449 155.311 57.7328C154.415 56.7355 153.897 56.5943 152.952 56.9438C151.035 52.038 151.032 49.2322 152.362 44.1221L151.575 42.544C151.578 43.5088 151.517 43.9981 150.986 44.5166C150.096 43.9986 149.361 43.8603 147.25 44.1221C143.174 38.0764 142.444 34.8154 142.727 29.1305L141.547 27.9469C138.583 26.0202 139.384 27.3551 141.744 34.2592C135.058 24.5935 126.013 17.6895 125.62 14.1389L124.44 14.3361C124.44 14.9898 123.912 15.5197 123.26 15.5197C122.609 15.5197 122.081 14.9898 122.081 14.3361L121.294 11.969C120.767 13.0898 120.615 13.868 120.704 15.5197C120.111 15.4586 119.766 15.3274 119.131 14.9279C111.547 9.01722 110.437 9.6234 106.94 8.8129C102.962 7.22155 102.232 5.76179 101.631 2.89516L100.254 3.68419C100.254 4.33785 99.7261 4.86774 99.0745 4.86774C98.4229 4.86774 97.8947 4.33785 97.8947 3.68419L96.7149 2.50065C96.5624 3.42357 96.5107 3.94535 96.7149 4.86774C92.9343 3.90341 90.7229 3.61194 86.49 3.88145C84.7646 2.43004 84.0802 1.60732 83.1473 0.133552H83.1462H81.1799H81.1789C80.246 1.60732 79.5616 2.43004 77.8362 3.88145C73.6033 3.61194 71.3919 3.90341 67.6113 4.86774C67.8155 3.94535 67.7638 3.42357 67.6113 2.50065L66.4315 3.68419C66.4315 4.33785 65.9032 4.86774 65.2517 4.86774C64.6001 4.86774 64.0719 4.33785 64.0719 3.68419L62.6954 2.89516C62.0945 5.76179 61.3639 7.22155 57.3863 8.8129C53.8896 9.6234 52.7788 9.01722 45.1951 14.9279C44.5601 15.3274 44.2155 15.4586 43.6221 15.5197C43.7107 13.868 43.5588 13.0898 43.0322 11.969L42.2456 14.3361C42.2456 14.9898 41.7174 15.5197 41.0658 15.5197C40.4142 15.5197 39.886 14.9898 39.886 14.3361L38.7062 14.1389C38.313 17.6895 29.2679 24.5935 22.5823 34.2592C24.9419 27.3551 25.743 26.0202 22.779 27.9469L21.5992 29.1305C21.8822 34.8154 21.1526 38.0764 17.0766 44.1221C14.9648 43.8603 14.23 43.9986 13.3406 44.5166C12.8088 43.9981 12.7483 43.5088 12.7507 42.544L11.9642 44.1221C13.294 49.2322 13.2914 52.038 11.3743 56.9438C10.4295 56.5943 9.91136 56.7355 9.01469 57.7328C8.37527 55.7449 8.00128 54.8299 7.24499 54.1822L5.67193 54.9712C5.67193 54.9712 8.42479 57.3383 8.42479 61.2835C8.42479 65.2287 5.67193 68.7793 6.45846 75.2888C5.33947 73.4615 4.6884 72.774 3.50897 72.3299H1.34601C3.83605 73.8268 4.76101 74.8731 5.67193 77.0641C6.26183 80.2203 5.96502 83.1491 5.27866 89.0969C4.22487 87.2364 3.56693 86.2633 1.34601 85.5462L1.93591 87.1243C1.93591 87.1243 6.73313 92.1842 7.04836 96.7899C7.36359 101.396 5.55988 100.492 5.27866 99.5515C5.67193 103.497 3.50897 103.694 2.91907 102.313V104.088C5.27866 102.905 13.3406 114.442 14.5204 119.869C13.6028 119.277 11.0203 118.015 8.03152 117.699V119.277C9.53904 119.475 13.262 120.54 16.0935 123.222C19.6329 126.576 18.4531 129.337 24.352 133.085L18.0598 134.466C23.3689 133.677 29.0712 137.031 32.2174 140.384C31.2342 140.976 30.6443 143.343 31.0376 144.526L33.0039 145.71C34.3803 145.776 37.2512 145.947 37.7231 146.104C38.313 146.302 37.3298 148.077 37.9197 149.852L39.4928 151.228C39.2249 147.809 39.1929 146.941 39.886 145.513C47.7513 150.247 48.7345 146.499 51.4874 148.471C51.4874 149.852 51.1334 152.732 49.7177 153.206C48.4649 151.564 48.4987 150.705 49.7177 149.063C45.3713 147.912 44.1714 149.23 43.4254 153.797L44.7283 154.587C45.1263 152.624 46.2539 152.071 47.3581 151.825C47.3581 153.403 50.1109 155.178 51.8806 155.178C54.4369 155.178 57.9762 149.852 58.9594 149.852C59.9426 149.852 62.8921 152.022 63.482 155.178C68.2011 155.376 74.69 153.206 79.2041 153.403C79.1757 152.711 79.1298 152.004 79.0671 151.269C79.1848 152.937 75.6593 149.038 73.9035 145.907C72.1338 142.751 71.1506 144.724 68.9877 145.907C66.8247 147.091 64.2685 146.696 64.6618 148.077C65.055 149.458 70.1675 149.852 71.1506 149.852C72.1338 149.852 75.8698 149.852 76.0665 151.036C76.2631 152.219 70.7574 153.206 69.7742 153.206C68.7911 153.206 65.8416 151.825 63.8752 150.247C61.9089 148.669 61.5156 145.513 61.5156 143.343C61.5156 141.173 61.5156 141.173 64.2685 141.173C66.8247 141.173 69.1843 138.411 72.3304 138.411C74.1001 140.581 77.6395 143.935 79.0637 151.228C78.9271 149.64 78.7124 147.915 78.4261 145.907ZM60.9257 140.778C60.9257 141.962 59.7459 140.778 59.7459 143.343C59.7459 144.447 61.1224 145.907 60.9257 148.274C58.8222 146.515 57.6638 145.773 55.6167 144.724C55.42 144.395 54.8694 142.948 54.2402 139.792C53.4537 135.847 56.5998 137.228 58.5661 138.214C60.1392 139.003 60.7947 140.252 60.9257 140.778ZM45.5884 143.343C50.7008 143.343 56.9931 145.907 59.7459 148.471C57.4257 149.046 56.4935 149.599 55.6167 151.036C55.0923 150.115 53.611 148.077 51.8806 147.288C49.7177 146.302 47.948 147.485 46.5715 146.499C45.1951 145.513 45.5884 144.329 45.5884 143.343ZM51.4874 140.187C51.1596 140.515 50.7795 141.489 51.0941 142.751L46.9648 142.554C39.6436 135.552 38.4622 132.222 39.2961 125.392C45.1212 130.03 48.1467 132.94 51.4874 140.187ZM44.4086 145.513C43.7794 144.566 44.1464 142.883 44.4086 142.159C37.2417 132.207 33.6026 129.111 27.4982 127.365C26.7827 134.609 37.7194 144.273 44.4086 145.513ZM33.987 144.526C33.3355 144.526 32.8073 143.996 32.8073 143.343C32.8073 142.689 33.3355 142.159 33.987 142.159C34.6386 142.159 35.1668 142.689 35.1668 143.343C35.1668 143.996 34.6386 144.526 33.987 144.526ZM36.7399 130.521C36.0883 130.521 35.5601 129.991 35.5601 129.337C35.5601 128.684 36.0883 128.154 36.7399 128.154C37.3915 128.154 37.9197 128.684 37.9197 129.337C37.9197 129.991 37.3915 130.521 36.7399 130.521ZM23.1722 114.149C22.5207 114.149 21.9925 113.619 21.9925 112.965C21.9925 112.311 22.5207 111.782 23.1722 111.782C23.8238 111.782 24.352 112.311 24.352 112.965C24.352 113.619 23.8238 114.149 23.1722 114.149ZM6.85173 104.088C6.20014 104.088 5.67193 103.559 5.67193 102.905C5.67193 102.251 6.20014 101.721 6.85173 101.721C7.50331 101.721 8.03152 102.251 8.03152 102.905C8.03152 103.559 7.50331 104.088 6.85173 104.088ZM16.4867 98.9598C15.8351 98.9598 15.3069 98.4299 15.3069 97.7762C15.3069 97.1225 15.8351 96.5927 16.4867 96.5927C17.1383 96.5927 17.6665 97.1225 17.6665 97.7762C17.6665 98.4299 17.1383 98.9598 16.4867 98.9598ZM14.9137 84.1654C14.2621 84.1654 13.7339 83.6355 13.7339 82.9819C13.7339 82.3282 14.2621 81.7983 14.9137 81.7983C15.5653 81.7983 16.0935 82.3282 16.0935 82.9819C16.0935 83.6355 15.5653 84.1654 14.9137 84.1654ZM10.7844 61.2835C10.1328 61.2835 9.60458 60.7536 9.60458 60.0999C9.60458 59.4463 10.1328 58.9164 10.7844 58.9164C11.436 58.9164 11.9642 59.4463 11.9642 60.0999C11.9642 60.7536 11.436 61.2835 10.7844 61.2835ZM19.8295 65.2287C19.1779 65.2287 18.6497 64.6988 18.6497 64.0451C18.6497 63.3914 19.1779 62.8616 19.8295 62.8616C20.4811 62.8616 21.0093 63.3914 21.0093 64.0451C21.0093 64.6988 20.4811 65.2287 19.8295 65.2287ZM14.717 47.6727C14.0655 47.6727 13.5372 47.1428 13.5372 46.4892C13.5372 45.8355 14.0655 45.3056 14.717 45.3056C15.3686 45.3056 15.8968 45.8355 15.8968 46.4892C15.8968 47.1428 15.3686 47.6727 14.717 47.6727ZM22.779 42.1495C22.1274 42.1495 21.5992 41.6196 21.5992 40.9659C21.5992 40.3123 22.1274 39.7824 22.779 39.7824C23.4306 39.7824 23.9588 40.3123 23.9588 40.9659C23.9588 41.6196 23.4306 42.1495 22.779 42.1495ZM36.3466 38.0071C35.6951 38.0071 35.1668 37.4772 35.1668 36.8235C35.1668 36.1699 35.6951 35.64 36.3466 35.64C36.9982 35.64 37.5264 36.1699 37.5264 36.8235C37.5264 37.4772 36.9982 38.0071 36.3466 38.0071ZM50.3076 22.4237C49.656 22.4237 49.1278 21.8938 49.1278 21.2401C49.1278 20.5865 49.656 20.0566 50.3076 20.0566C50.9592 20.0566 51.4874 20.5865 51.4874 21.2401C51.4874 21.8938 50.9592 22.4237 50.3076 22.4237ZM66.0382 14.3361C65.3866 14.3361 64.8584 13.8062 64.8584 13.1526C64.8584 12.4989 65.3866 11.969 66.0382 11.969C66.6898 11.969 67.218 12.4989 67.218 13.1526C67.218 13.8062 66.6898 14.3361 66.0382 14.3361ZM26.7116 110.598C28.2847 109.809 36.3466 120.264 36.7399 125.984C35.4946 126.313 32.8859 127.247 32.414 128.351C25.9251 125.59 25.1386 111.387 26.7116 110.598ZM17.6665 112.571C20.4194 111.584 26.7116 121.842 27.4982 125.984C25.4825 125.984 24.352 128.351 26.3184 132.494C18.6497 128.746 14.9137 113.557 17.6665 112.571ZM23.9588 97.7762C25.9251 101.919 24.9419 104.483 25.3352 110.203C24.8764 109.875 23.7228 109.336 22.779 109.809C21.8351 110.282 20.9437 111.847 20.616 112.571C20.2228 111.387 19.2789 108.152 18.6497 104.68C17.8632 100.341 19.8295 94.4228 20.616 94.2256C21.4026 94.0283 21.9925 93.6338 23.9588 97.7762ZM10.7844 95.0146C12.5541 94.8371 18.4733 102.905 18.6497 111.782C16.4867 110.203 15.3069 111.782 15.3069 116.121C9.99785 113.754 6.85173 95.4091 10.7844 95.0146ZM14.9137 95.8036C13.7339 87.5188 18.6497 81.7983 22.3857 80.2203C23.0128 85.1346 22.8798 87.8957 20.616 92.8448C19.2177 92.6724 18.7023 93.2603 18.0598 95.0146C17.5354 94.6201 16.1721 94.2256 14.9137 95.8036ZM8.03152 96.5927C4.90842 87.1285 7.44162 76.2751 9.99785 73.7107C11.2073 73.8226 12.5112 76.7859 13.2012 81.0093C12.92 81.2723 12.3968 82.035 12.5541 82.9819C12.7114 83.9287 13.3433 84.8229 13.6396 85.1517C13.7827 87.8919 13.6603 90.8812 13.144 93.831C11.2119 93.9851 10.1759 93.3904 8.03152 96.5927ZM18.6497 80.2203C22.7077 75.8925 24.3745 73.0156 24.5487 65.8204C22.7256 66.1477 21.7019 66.3731 19.8295 67.793C16.4867 69.9628 18.0598 72.1327 14.1271 79.234C15.8968 81.0093 17.6945 78.3103 18.6497 80.2203ZM8.03152 75.2888C6.61717 67.3427 9.99785 63.4533 15.8968 57.3383C18.0878 64.948 17.2855 69.2726 13.7339 77.0641C11.3295 72.1341 10.0516 71.1041 8.03152 75.2888ZM22.779 63.6506C26.9199 59.9237 28.3618 57.2269 30.0544 51.8151C28.0456 51.6782 26.9188 51.6044 22.779 54.3795C22.5891 57.0644 22.3746 58.5754 21.0093 61.2835C21.8121 61.6046 22.212 62.0294 22.779 63.6506ZM13.6396 57.3383C15.4988 55.1625 16.6798 55.3277 19.2396 60.0999C22.0867 54.1738 22.6605 50.4158 22.779 43.333C20.8881 43.7567 19.7937 44.2557 17.6665 46.4892C17.5326 47.8016 17.2824 48.6541 15.8968 48.8563C14.4063 51.5823 13.7342 53.2658 13.6396 57.3383ZM35.1668 38.9934C30.0544 38.9934 24.5186 44.756 23.3689 52.4069C25.2835 52.5898 29.5406 49.9165 32.8073 46.6864C36.5857 42.9503 39.2544 38.536 38.9029 38.0071C38.2474 37.0208 37.1332 38.9934 35.1668 38.9934ZM22.779 37.4153C25.5693 30.3062 28.6041 28.2405 35.5601 26.5661C34.2453 34.1954 32.1669 38.2421 23.9588 44.7138C26.3462 39.9846 24.8157 39.2253 22.779 37.4153ZM30.6443 26.5661C35.5627 19.7904 39.4551 17.7883 48.3412 17.295C45.4937 22.5242 43.3395 25.259 36.7399 29.1305C37.6599 24.8229 36.3131 24.4314 30.6443 26.5661ZM46.1783 24.199C49.13 23.8281 50.085 24.4224 51.4874 25.9743C44.5518 31.9484 41.0379 33.6789 35.5601 33.6674C35.8417 32.3077 36.123 31.5434 36.7399 30.7085L36.9036 30.6165C40.3776 28.6647 42.4134 27.5208 46.1783 24.199ZM49.7177 18.2813C49.7177 18.2813 54.6335 18.8731 58.3695 17.295C64.0719 14.8864 61.7123 11.969 65.6449 10.3707C57.3526 8.43689 53.038 9.82028 45.785 15.5197C47.9768 15.7372 49.5839 15.3616 49.7177 18.2813ZM67.218 18.8731C62.2535 21.9805 59.0183 23.14 51.684 23.2127C52.6034 22.6556 52.8702 22.0914 53.0604 21.0429C57.9426 20.0676 60.203 19.0471 62.6954 15.7169C65.4199 15.9991 66.3336 16.5173 67.218 18.8731ZM82.1631 8.90762C79.2353 10.7866 77.5651 11.5745 73.3136 11.5745C69.9083 11.5745 68.5763 10.7657 67.354 10.0235C66.3177 9.39425 65.3603 8.8129 63.2853 8.8129C70.5507 4.02894 75.0035 3.65858 82.1631 6.73397C89.3227 3.65858 93.7755 4.02894 101.041 8.8129C98.9658 8.8129 98.0084 9.39425 96.9722 10.0235C95.7499 10.7657 94.4179 11.5745 91.0126 11.5745C86.7611 11.5745 85.0909 10.7866 82.1631 8.90762ZM78.4261 12.3635C80.0311 13.3457 80.6522 14.0209 81.1789 15.5197C75.1914 17.591 72.1123 17.598 67.218 15.5197C67.7693 14.6289 68.315 14.2065 69.5776 13.5471C74.5478 13.6784 76.5187 13.445 78.4261 12.3635ZM103.4 140.778C103.4 141.962 104.58 140.778 104.58 143.343C104.58 144.447 103.204 145.907 103.4 148.274C105.504 146.515 106.662 145.773 108.71 144.724C108.906 144.395 109.457 142.948 110.086 139.792C110.872 135.847 107.726 137.228 105.76 138.214C104.187 139.003 103.532 140.252 103.4 140.778ZM118.738 143.343C113.625 143.343 107.333 145.907 104.58 148.471C106.9 149.046 107.833 149.599 108.71 151.036C109.234 150.115 110.715 148.077 112.446 147.288C114.609 146.302 116.378 147.485 117.755 146.499C119.131 145.513 118.738 144.329 118.738 143.343ZM112.839 140.187C113.167 140.515 113.547 141.489 113.232 142.751L117.361 142.554C124.683 135.552 125.864 132.222 125.03 125.392C119.205 130.03 116.18 132.94 112.839 140.187ZM119.918 145.513C120.547 144.566 120.18 142.883 119.918 142.159C127.084 132.207 130.724 129.111 136.828 127.365C137.544 134.609 126.607 144.273 119.918 145.513ZM130.339 144.526C130.991 144.526 131.519 143.996 131.519 143.343C131.519 142.689 130.991 142.159 130.339 142.159C129.688 142.159 129.159 142.689 129.159 143.343C129.159 143.996 129.688 144.526 130.339 144.526ZM127.586 130.521C128.238 130.521 128.766 129.991 128.766 129.337C128.766 128.684 128.238 128.154 127.586 128.154C126.935 128.154 126.406 128.684 126.406 129.337C126.406 129.991 126.935 130.521 127.586 130.521ZM141.154 114.149C141.806 114.149 142.334 113.619 142.334 112.965C142.334 112.311 141.806 111.782 141.154 111.782C140.502 111.782 139.974 112.311 139.974 112.965C139.974 113.619 140.502 114.149 141.154 114.149ZM157.474 104.088C158.126 104.088 158.654 103.559 158.654 102.905C158.654 102.251 158.126 101.721 157.474 101.721C156.823 101.721 156.295 102.251 156.295 102.905C156.295 103.559 156.823 104.088 157.474 104.088ZM147.839 98.9598C148.491 98.9598 149.019 98.4299 149.019 97.7762C149.019 97.1225 148.491 96.5927 147.839 96.5927C147.188 96.5927 146.66 97.1225 146.66 97.7762C146.66 98.4299 147.188 98.9598 147.839 98.9598ZM149.413 84.1654C150.064 84.1654 150.592 83.6355 150.592 82.9819C150.592 82.3282 150.064 81.7983 149.413 81.7983C148.761 81.7983 148.233 82.3282 148.233 82.9819C148.233 83.6355 148.761 84.1654 149.413 84.1654ZM153.542 61.2835C154.193 61.2835 154.722 60.7536 154.722 60.0999C154.722 59.4463 154.193 58.9164 153.542 58.9164C152.89 58.9164 152.362 59.4463 152.362 60.0999C152.362 60.7536 152.89 61.2835 153.542 61.2835ZM144.497 65.2287C145.148 65.2287 145.676 64.6988 145.676 64.0451C145.676 63.3914 145.148 62.8616 144.497 62.8616C143.845 62.8616 143.317 63.3914 143.317 64.0451C143.317 64.6988 143.845 65.2287 144.497 65.2287ZM149.609 47.6727C150.261 47.6727 150.789 47.1428 150.789 46.4892C150.789 45.8355 150.261 45.3056 149.609 45.3056C148.958 45.3056 148.429 45.8355 148.429 46.4892C148.429 47.1428 148.958 47.6727 149.609 47.6727ZM141.547 42.1495C142.199 42.1495 142.727 41.6196 142.727 40.9659C142.727 40.3123 142.199 39.7824 141.547 39.7824C140.896 39.7824 140.367 40.3123 140.367 40.9659C140.367 41.6196 140.896 42.1495 141.547 42.1495ZM127.98 38.0071C128.631 38.0071 129.159 37.4772 129.159 36.8235C129.159 36.1699 128.631 35.64 127.98 35.64C127.328 35.64 126.8 36.1699 126.8 36.8235C126.8 37.4772 127.328 38.0071 127.98 38.0071ZM114.019 22.4237C114.67 22.4237 115.198 21.8938 115.198 21.2401C115.198 20.5865 114.67 20.0566 114.019 20.0566C113.367 20.0566 112.839 20.5865 112.839 21.2401C112.839 21.8938 113.367 22.4237 114.019 22.4237ZM98.288 14.3361C98.9396 14.3361 99.4678 13.8062 99.4678 13.1526C99.4678 12.4989 98.9396 11.969 98.288 11.969C97.6364 11.969 97.1082 12.4989 97.1082 13.1526C97.1082 13.8062 97.6364 14.3361 98.288 14.3361ZM137.615 110.598C136.041 109.809 127.98 120.264 127.586 125.984C128.832 126.313 131.44 127.247 131.912 128.351C138.401 125.59 139.188 111.387 137.615 110.598ZM146.66 112.571C143.907 111.584 137.615 121.842 136.828 125.984C138.844 125.984 139.974 128.351 138.008 132.494C145.676 128.746 149.413 113.557 146.66 112.571ZM140.367 97.7762C138.401 101.919 139.384 104.483 138.991 110.203C139.45 109.875 140.603 109.336 141.547 109.809C142.491 110.282 143.382 111.847 143.71 112.571C144.103 111.387 145.047 108.152 145.676 104.68C146.463 100.341 144.497 94.4228 143.71 94.2256C142.924 94.0283 142.334 93.6338 140.367 97.7762ZM153.542 95.0146C151.772 94.8371 145.853 102.905 145.676 111.782C147.839 110.203 149.019 111.782 149.019 116.121C154.328 113.754 157.474 95.4091 153.542 95.0146ZM149.413 95.8036C150.592 87.5188 145.676 81.7983 141.94 80.2203C141.313 85.1346 141.446 87.8957 143.71 92.8448C145.108 92.6724 145.624 93.2603 146.266 95.0146C146.791 94.6201 148.154 94.2256 149.413 95.8036ZM156.295 96.5927C159.418 87.1285 156.885 76.2751 154.328 73.7107C153.119 73.8226 151.815 76.7859 151.125 81.0093C151.406 81.2723 151.929 82.035 151.772 82.9819C151.615 83.9287 150.983 84.8229 150.687 85.1517C150.543 87.8919 150.666 90.8812 151.182 93.831C153.114 93.9851 154.15 93.3904 156.295 96.5927ZM145.676 80.2203C141.618 75.8925 139.952 73.0156 139.778 65.8204C141.601 66.1477 142.624 66.3731 144.497 67.793C147.839 69.9628 146.266 72.1327 150.199 79.234C148.429 81.0093 146.632 78.3103 145.676 80.2203ZM156.295 75.2888C157.709 67.3427 154.328 63.4533 148.429 57.3383C146.238 64.948 147.041 69.2726 150.592 77.0641C152.997 72.1341 154.275 71.1041 156.295 75.2888ZM141.547 63.6506C137.406 59.9237 135.964 57.2269 134.272 51.8151C136.281 51.6782 137.407 51.6044 141.547 54.3795C141.737 57.0644 141.952 58.5754 143.317 61.2835C142.514 61.6046 142.114 62.0294 141.547 63.6506ZM150.687 57.3383C148.827 55.1625 147.646 55.3277 145.087 60.0999C142.24 54.1738 141.666 50.4158 141.547 43.333C143.438 43.7567 144.533 44.2557 146.66 46.4892C146.794 47.8016 147.044 48.6541 148.429 48.8563C149.92 51.5823 150.592 53.2658 150.687 57.3383ZM129.159 38.9934C134.272 38.9934 139.808 44.756 140.957 52.4069C139.043 52.5898 134.786 49.9165 131.519 46.6864C127.741 42.9503 125.072 38.536 125.423 38.0071C126.079 37.0208 127.193 38.9934 129.159 38.9934ZM141.547 37.4153C138.757 30.3062 135.722 28.2405 128.766 26.5661C130.081 34.1954 132.159 38.2421 140.367 44.7138C137.98 39.9846 139.51 39.2253 141.547 37.4153ZM133.682 26.5661C128.763 19.7904 124.871 17.7883 115.985 17.295C118.832 22.5242 120.987 25.259 127.586 29.1305C126.666 24.8229 128.013 24.4314 133.682 26.5661ZM118.148 24.199C115.196 23.8281 114.241 24.4224 112.839 25.9743C119.774 31.9484 123.288 33.6789 128.766 33.6674C128.484 32.3077 128.203 31.5434 127.586 30.7085L127.423 30.6165C123.949 28.6647 121.913 27.5208 118.148 24.199ZM114.609 18.2813C114.609 18.2813 109.693 18.8731 105.957 17.295C100.254 14.8864 102.614 11.969 98.6812 10.3707C106.974 8.43689 111.288 9.82028 118.541 15.5197C116.349 15.7372 114.742 15.3616 114.609 18.2813ZM97.1082 18.8731C102.073 21.9805 105.308 23.14 112.642 23.2127C111.723 22.6556 111.456 22.0914 111.266 21.0429C106.384 20.0676 104.123 19.0471 101.631 15.7169C98.9063 15.9991 97.9926 16.5173 97.1082 18.8731ZM85.9001 12.3635C84.2951 13.3457 83.674 14.0209 83.1473 15.5197C89.1348 17.591 92.2139 17.598 97.1082 15.5197C96.5569 14.6289 96.0112 14.2065 94.7486 13.5471C89.7783 13.6784 87.8075 13.445 85.9001 12.3635Z" fill="#6F6C6C"/>
<path fill-rule="evenodd" clip-rule="evenodd" d="M82.1631 6.73397C89.3227 3.65858 93.7755 4.02894 101.041 8.8129C98.9658 8.8129 98.0084 9.39425 96.9722 10.0235C95.7499 10.7657 94.4179 11.5745 91.0126 11.5745C86.7611 11.5745 85.0909 10.7866 82.1631 8.90762C82.5215 8.67758 82.8988 8.43118 83.302 8.16787C83.5658 7.99565 83.8406 7.8162 84.1284 7.62935C83.4496 7.30443 82.7958 7.00574 82.1631 6.73397ZM82.1631 6.73397C81.5304 7.00574 80.8766 7.30443 80.1978 7.62935C80.4856 7.8162 80.7604 7.99565 81.0241 8.16787C81.4273 8.43118 81.8046 8.67758 82.1631 8.90762C79.2353 10.7866 77.5651 11.5745 73.3136 11.5745C69.9083 11.5745 68.5763 10.7657 67.354 10.0235C66.3177 9.39425 65.3603 8.8129 63.2853 8.8129C70.5507 4.02894 75.0035 3.65858 82.1631 6.73397Z" fill="#CBC5C5"/>
<path d="M82.1631 6.73397C81.5304 7.00574 80.8766 7.30443 80.1978 7.62935C80.4856 7.8162 80.7604 7.99565 81.0241 8.16787C81.4273 8.43118 81.8046 8.67758 82.1631 8.90762C82.5215 8.67758 82.8988 8.43118 83.302 8.16787C83.5658 7.99565 83.8406 7.8162 84.1284 7.62935C83.4496 7.30443 82.7958 7.00574 82.1631 6.73397Z" fill="#6F6C6C"/>
<path d="M85.0947 155.77C85.113 156.737 85.1683 157.709 85.2625 158.729C85.7154 160.051 95.6641 161.374 101.073 163.858L102.024 162.082C99.0745 162.674 90.0294 156.165 85.0947 155.77Z" fill="#6F6C6C"/>
<path d="M79.0637 158.729C79.1578 157.709 79.2132 156.737 79.2315 155.77C74.2968 156.165 65.2517 162.674 62.3022 162.082L63.2536 163.858C68.6621 161.374 78.6108 160.051 79.0637 158.729Z" fill="#6F6C6C"/>
<path d="M64.5476 41.7248L60.0011 44.153C56.3188 46.0092 53.5007 39.8746 56.7289 38.0774L69.0787 31.559C73.3047 29.4778 75.7027 35.7153 72.4339 37.6388L68.6532 39.7734L82.1633 67.7719L84.559 72.7369L92.9835 90.1959C96.0091 92.3641 97.6124 95.8422 97.6124 95.8422L110.775 125.14C107.203 124.694 104.881 121.907 102.749 119.069C103.32 122.426 104.219 126.277 101.734 129L89.774 99.0156C89.774 99.0156 88.2635 95.8976 89.0708 91.6582L82.1777 77.6228L79.7821 72.745L64.5476 41.7248Z" fill="#CBC5C5"/>
<path d="M82.1777 77.6228L79.7821 72.745L71.4613 90.1233C68.4424 92.3006 66.8496 95.7835 66.8496 95.7835L53.7754 125.121L62.8288 128.954L74.6976 98.9333C74.6976 98.9333 76.1986 95.8107 75.3785 91.5738L82.1777 77.6228Z" fill="#CBC5C5"/>
<path d="M82.1633 67.7719L84.559 72.7369L99.7503 41.5668L104.304 43.9812C107.992 45.8264 110.792 39.6832 107.558 37.8958L95.1884 31.4147C90.9561 29.3462 88.5771 35.5909 91.8516 37.5045L95.6388 39.6277L82.1633 67.7719Z" fill="#CBC5C5"/>
<path fill-rule="evenodd" clip-rule="evenodd" d="M82.1335 80.3401C86.443 80.5622 90.1171 77.2579 90.3397 72.9596C90.5624 68.6614 87.2494 64.9969 82.9399 64.7748C78.6304 64.5527 74.9564 67.8571 74.7337 72.1553C74.511 76.4536 77.824 80.118 82.1335 80.3401ZM81.9503 83.8765C88.218 84.1995 93.5615 79.3937 93.8854 73.1423C94.2092 66.891 89.3908 61.5615 83.1231 61.2384C76.8554 60.9154 71.5119 65.7213 71.188 71.9726C70.8642 78.2239 75.6826 83.5535 81.9503 83.8765Z" fill="#CBC5C5"/>
</svg>
