<svg width="164" height="124" viewBox="0 0 164 124" fill="none" xmlns="http://www.w3.org/2000/svg">
<path d="M0.775391 22C0.775391 9.84974 10.6183 0 22.7602 0H141.678C153.82 0 163.663 9.84974 163.663 22V102C163.663 114.15 153.82 124 141.678 124H22.7602C10.6183 124 0.775391 114.15 0.775391 102V22Z" fill="#C5A869"/>
<path fill-rule="evenodd" clip-rule="evenodd" d="M141.678 11H22.7602C16.6893 11 11.7678 15.9249 11.7678 22V102C11.7678 108.075 16.6893 113 22.7602 113H141.678C147.749 113 152.671 108.075 152.671 102V22C152.671 15.9249 147.749 11 141.678 11ZM22.7602 0C10.6183 0 0.775391 9.84974 0.775391 22V102C0.775391 114.15 10.6183 124 22.7602 124H141.678C153.82 124 163.663 114.15 163.663 102V22C163.663 9.84974 153.82 0 141.678 0H22.7602Z" fill="#A68C55"/>
<path d="M68.1016 31.4474L64.4815 33.3858C61.5496 34.8677 59.3057 29.9703 61.8761 28.5355L71.7095 23.3318C75.0744 21.6703 76.9837 26.6499 74.381 28.1854L71.3706 29.8895L82.1279 52.2413L84.0355 56.2049L90.7434 70.1428C93.1524 71.8737 94.4291 74.6504 94.4291 74.6504L104.91 98.0393C102.066 97.6831 100.216 95.4583 98.5186 93.1927C98.9735 95.8727 99.6895 98.9468 97.7105 101.121L88.1878 77.1838C88.1878 77.1838 86.9851 74.6946 87.6279 71.3102L82.1394 60.1055L80.2319 56.2114L68.1016 31.4474Z" fill="black"/>
<path d="M82.1394 60.1055L80.2319 56.2114L73.6066 70.0849C71.2028 71.823 69.9346 74.6035 69.9346 74.6035L59.5244 98.024L66.7331 101.084L76.1834 77.1181C76.1834 77.1181 77.3786 74.6252 76.7256 71.2428L82.1394 60.1055Z" fill="black"/>
<path d="M82.1279 52.2413L84.0355 56.2049L96.1313 31.3212L99.7573 33.2487C102.694 34.7217 104.923 29.8175 102.348 28.3905L92.499 23.2165C89.1291 21.5652 87.2348 26.5505 89.8421 28.0782L92.8576 29.7732L82.1279 52.2413Z" fill="black"/>
<path fill-rule="evenodd" clip-rule="evenodd" d="M82.1042 62.2748C85.5356 62.4521 88.461 59.8141 88.6383 56.3827C88.8156 52.9514 86.1776 50.026 82.7463 49.8487C79.3149 49.6714 76.3895 52.3093 76.2122 55.7407C76.0349 59.1721 78.6728 62.0975 82.1042 62.2748ZM81.9583 65.0979C86.9489 65.3558 91.2036 61.5192 91.4615 56.5286C91.7193 51.538 87.8827 47.2833 82.8921 47.0255C77.9016 46.7676 73.6469 50.6042 73.389 55.5948C73.1311 60.5854 76.9678 64.8401 81.9583 65.0979Z" fill="black"/>
</svg>
