<svg width="164" height="124" viewBox="0 0 164 124" fill="none" xmlns="http://www.w3.org/2000/svg">
<path d="M0.550781 22C0.550781 9.84974 10.3937 0 22.5356 0H141.454C153.595 0 163.438 9.84974 163.438 22V102C163.438 114.15 153.595 124 141.454 124H22.5356C10.3937 124 0.550781 114.15 0.550781 102V22Z" fill="#C5A869"/>
<path fill-rule="evenodd" clip-rule="evenodd" d="M141.454 11H22.5356C16.4647 11 11.5432 15.9249 11.5432 22V102C11.5432 108.075 16.4647 113 22.5356 113H141.454C147.524 113 152.446 108.075 152.446 102V22C152.446 15.9249 147.524 11 141.454 11ZM22.5356 0C10.3937 0 0.550781 9.84974 0.550781 22V102C0.550781 114.15 10.3937 124 22.5356 124H141.454C153.595 124 163.438 114.15 163.438 102V22C163.438 9.84974 153.595 0 141.454 0H22.5356Z" fill="#A68C55"/>
<path d="M91.05 81.2672C97.1355 76.2953 99.7092 73.1772 101.478 68.0541C107.29 62.8738 110.316 59.6648 115.209 53.2865C117.382 50.4546 117.6 48.2675 116.893 44.5425C116.631 43.1568 117.375 42.2538 119.095 43.3119L128.422 50.1776C129.543 50.8773 128.422 52.5449 126.868 52.5449C125.047 52.4879 124.148 52.8639 122.334 54.9705C111.971 68.0541 102.903 77.5106 91.05 81.2672Z" fill="black"/>
<path d="M35.1113 67.8201C41.2768 56.8786 45.2718 51.2161 52.2661 41.6877C52.2661 53.9837 56.0214 61.736 65.2114 69.1906C74.4013 76.6452 86.8683 74.7944 92.7813 66.7871C97.5418 60.3405 93.8873 54.1635 90.6605 51.659C85.9979 48.0401 76.8584 48.8575 72.8461 55.4764C68.8338 62.0953 72.3314 69.1906 74.4013 71.5942C70.5385 69.4876 68.5261 68.0766 65.2114 65.2433C65.2114 65.2433 65.0018 56.9201 67.5197 52.5449C73.768 41.6877 88.5869 42.1656 95.0972 47.6289C101.608 53.0922 103.611 62.6336 97.1355 71.5942C90.6605 80.5548 80.1798 85.6226 70.0377 79.8826C59.8956 74.1425 49.338 65.2433 35.1113 67.8201Z" fill="black"/>
</svg>
