<svg width="164" height="168" viewBox="0 0 164 168" fill="none" xmlns="http://www.w3.org/2000/svg">
<path d="M78.1864 162.871C73.7632 162.674 70.2238 163.858 68.2575 165.238C66.2912 166.619 65.5046 168 64.3248 168C63.1451 168 60.3922 166.619 60.3922 165.436C60.9969 164.861 61.8721 164.338 62.9167 163.858C68.3252 161.374 78.2739 160.051 78.7268 158.729C78.6088 160.007 78.4299 161.36 78.1864 162.871Z" fill="#CBC5C5"/>
<path d="M78.7268 151.228C78.7279 151.242 78.7291 151.255 78.7302 151.269C78.8479 152.937 75.3224 149.038 73.5666 145.907C71.7969 142.751 70.8137 144.724 68.6508 145.907C66.4878 147.091 63.9316 146.696 64.3248 148.077C64.7181 149.458 69.8306 149.852 70.8137 149.852C71.7969 149.852 75.5329 149.852 75.7296 151.036C75.9262 152.219 70.4205 153.206 69.4373 153.206C68.4541 153.206 65.5046 151.825 63.5383 150.247C61.572 148.669 61.1787 145.513 61.1787 143.343C61.1787 141.173 61.1787 141.173 63.9316 141.173C66.4878 141.173 68.8474 138.411 71.9935 138.411C73.7632 140.581 77.3026 143.935 78.7268 151.228Z" fill="#CBC5C5"/>
<path d="M59.409 143.343C59.409 140.778 60.5888 141.962 60.5888 140.778C60.4577 140.252 59.8023 139.003 58.2292 138.214C56.2629 137.228 53.1168 135.847 53.9033 139.792C54.5325 142.948 55.0831 144.395 55.2797 144.724C57.3269 145.773 58.4853 146.515 60.5888 148.274C60.7855 145.907 59.409 144.447 59.409 143.343Z" fill="#CBC5C5"/>
<path d="M59.409 148.471C56.6562 145.907 50.3639 143.343 45.2515 143.343C45.2515 144.329 44.8582 145.513 46.2346 146.499C47.6111 147.485 49.3808 146.302 51.5437 147.288C53.2741 148.077 54.7554 150.115 55.2797 151.036C56.1566 149.599 57.0888 149.046 59.409 148.471Z" fill="#CBC5C5"/>
<path d="M49.3808 153.206C50.7965 152.732 51.1505 149.852 51.1505 148.471C48.3976 146.499 47.4144 150.247 39.5491 145.513C38.856 146.941 38.888 147.809 39.1558 151.228C40.4146 152.43 41.2331 153.014 43.0885 153.797C43.8345 149.23 45.0344 147.912 49.3808 149.063C48.1617 150.705 48.128 151.564 49.3808 153.206Z" fill="#CBC5C5"/>
<path d="M61.9653 162.082C61.9653 161.096 59.8023 158.729 59.0158 158.729C58.2292 158.729 56.0663 162.871 52.7235 162.871C50.3598 162.871 46.6197 161.885 44.6316 159.912C44.1766 157.465 44.1515 155.77 44.3914 154.587C44.7894 152.624 45.917 152.071 47.0212 151.825C47.0212 153.403 49.774 155.178 51.5437 155.178C54.0999 155.178 57.6393 149.852 58.6225 149.852C59.6057 149.852 62.5552 152.022 63.1451 155.178C67.8642 155.376 74.3531 153.206 78.8672 153.403C78.9 154.203 78.9095 154.985 78.8946 155.77C73.9599 156.165 64.9147 162.674 61.9653 162.082Z" fill="#CBC5C5"/>
<path d="M50.7572 142.751C50.4426 141.489 50.8227 140.515 51.1505 140.187C47.8097 132.94 44.7843 130.03 38.9592 125.392C38.1253 132.222 39.3067 135.552 46.6279 142.554L50.7572 142.751Z" fill="#CBC5C5"/>
<path d="M32.4703 143.343C32.4703 143.996 32.9986 144.526 33.6501 144.526C34.3017 144.526 34.8299 143.996 34.8299 143.343C34.8299 142.689 34.3017 142.159 33.6501 142.159C32.9986 142.159 32.4703 142.689 32.4703 143.343Z" fill="#CBC5C5"/>
<path d="M35.2232 129.337C35.2232 129.991 35.7514 130.521 36.403 130.521C37.0546 130.521 37.5828 129.991 37.5828 129.337C37.5828 128.684 37.0546 128.154 36.403 128.154C35.7514 128.154 35.2232 128.684 35.2232 129.337Z" fill="#CBC5C5"/>
<path d="M21.6555 112.965C21.6555 113.619 22.1837 114.149 22.8353 114.149C23.4869 114.149 24.0151 113.619 24.0151 112.965C24.0151 112.311 23.4869 111.782 22.8353 111.782C22.1837 111.782 21.6555 112.311 21.6555 112.965Z" fill="#CBC5C5"/>
<path d="M5.33502 102.905C5.33502 103.559 5.86323 104.088 6.51481 104.088C7.1664 104.088 7.69461 103.559 7.69461 102.905C7.69461 102.251 7.1664 101.721 6.51481 101.721C5.86323 101.721 5.33502 102.251 5.33502 102.905Z" fill="#CBC5C5"/>
<path d="M14.97 97.7762C14.97 98.4299 15.4982 98.9598 16.1498 98.9598C16.8014 98.9598 17.3296 98.4299 17.3296 97.7762C17.3296 97.1225 16.8014 96.5927 16.1498 96.5927C15.4982 96.5927 14.97 97.1225 14.97 97.7762Z" fill="#CBC5C5"/>
<path d="M13.397 82.9819C13.397 83.6355 13.9252 84.1654 14.5768 84.1654C15.2283 84.1654 15.7566 83.6355 15.7566 82.9819C15.7566 82.3282 15.2283 81.7983 14.5768 81.7983C13.9252 81.7983 13.397 82.3282 13.397 82.9819Z" fill="#CBC5C5"/>
<path d="M9.26767 60.0999C9.26767 60.7536 9.79588 61.2835 10.4475 61.2835C11.0991 61.2835 11.6273 60.7536 11.6273 60.0999C11.6273 59.4463 11.0991 58.9164 10.4475 58.9164C9.79588 58.9164 9.26767 59.4463 9.26767 60.0999Z" fill="#CBC5C5"/>
<path d="M18.3128 64.0451C18.3128 64.6988 18.841 65.2287 19.4926 65.2287C20.1442 65.2287 20.6724 64.6988 20.6724 64.0451C20.6724 63.3914 20.1442 62.8616 19.4926 62.8616C18.841 62.8616 18.3128 63.3914 18.3128 64.0451Z" fill="#CBC5C5"/>
<path d="M13.2003 46.4892C13.2003 47.1428 13.7285 47.6727 14.3801 47.6727C15.0317 47.6727 15.5599 47.1428 15.5599 46.4892C15.5599 45.8355 15.0317 45.3056 14.3801 45.3056C13.7285 45.3056 13.2003 45.8355 13.2003 46.4892Z" fill="#CBC5C5"/>
<path d="M21.2623 40.9659C21.2623 41.6196 21.7905 42.1495 22.4421 42.1495C23.0937 42.1495 23.6219 41.6196 23.6219 40.9659C23.6219 40.3123 23.0937 39.7824 22.4421 39.7824C21.7905 39.7824 21.2623 40.3123 21.2623 40.9659Z" fill="#CBC5C5"/>
<path d="M34.8299 36.8235C34.8299 37.4772 35.3581 38.0071 36.0097 38.0071C36.6613 38.0071 37.1895 37.4772 37.1895 36.8235C37.1895 36.1699 36.6613 35.64 36.0097 35.64C35.3581 35.64 34.8299 36.1699 34.8299 36.8235Z" fill="#CBC5C5"/>
<path d="M48.7909 21.2401C48.7909 21.8938 49.3191 22.4237 49.9707 22.4237C50.6222 22.4237 51.1505 21.8938 51.1505 21.2401C51.1505 20.5865 50.6222 20.0566 49.9707 20.0566C49.3191 20.0566 48.7909 20.5865 48.7909 21.2401Z" fill="#CBC5C5"/>
<path d="M39.5491 14.3361C39.5491 14.9898 40.0773 15.5197 40.7289 15.5197C41.3805 15.5197 41.9087 14.9898 41.9087 14.3361C41.9087 13.6825 41.3805 13.1526 40.7289 13.1526C40.0773 13.1526 39.5491 13.6825 39.5491 14.3361Z" fill="#CBC5C5"/>
<path d="M64.5215 13.1526C64.5215 13.8062 65.0497 14.3361 65.7013 14.3361C66.3529 14.3361 66.8811 13.8062 66.8811 13.1526C66.8811 12.4989 66.3529 11.969 65.7013 11.969C65.0497 11.969 64.5215 12.4989 64.5215 13.1526Z" fill="#CBC5C5"/>
<path d="M63.735 3.68419C63.735 4.33785 64.2632 4.86774 64.9147 4.86774C65.5663 4.86774 66.0945 4.33785 66.0945 3.68419C66.0945 3.03054 65.5663 2.50065 64.9147 2.50065C64.2632 2.50065 63.735 3.03054 63.735 3.68419Z" fill="#CBC5C5"/>
<path d="M44.0717 142.159C43.8095 142.883 43.4424 144.566 44.0717 145.513C37.3825 144.273 26.4457 134.609 27.1613 127.365C33.2657 129.111 36.9048 132.207 44.0717 142.159Z" fill="#CBC5C5"/>
<path d="M36.403 125.984C36.0097 120.264 27.9478 109.809 26.3747 110.598C24.8017 111.387 25.5882 125.59 32.0771 128.351C32.549 127.247 35.1577 126.313 36.403 125.984Z" fill="#CBC5C5"/>
<path d="M31.8804 140.384C28.7343 137.031 23.032 133.677 17.7229 134.466C19.0993 139.792 27.3579 142.948 30.7006 144.526C30.3074 143.343 30.8973 140.976 31.8804 140.384Z" fill="#CBC5C5"/>
<path d="M37.5828 149.852C36.9929 148.077 37.9761 146.302 37.3862 146.104C36.9142 145.947 34.0434 145.776 32.667 145.71C34.0045 147.434 35.0473 148.353 37.5828 149.852Z" fill="#CBC5C5"/>
<path d="M27.1613 125.984C26.3747 121.842 20.0825 111.584 17.3296 112.571C14.5768 113.557 18.3128 128.746 25.9815 132.494C24.0151 128.351 25.1456 125.984 27.1613 125.984Z" fill="#CBC5C5"/>
<path d="M24.9983 110.203C24.605 104.483 25.5882 101.919 23.6219 97.7762C21.6555 93.6338 21.0656 94.0283 20.2791 94.2256C19.4926 94.4228 17.5262 100.341 18.3128 104.68C18.942 108.152 19.8858 111.387 20.2791 112.571C20.6068 111.847 21.4982 110.282 22.4421 109.809C23.3859 109.336 24.5395 109.875 24.9983 110.203Z" fill="#CBC5C5"/>
<path d="M18.3128 111.782C18.1364 102.905 12.2172 94.8371 10.4475 95.0146C6.51481 95.4091 9.66094 113.754 14.97 116.121C14.97 111.782 16.1498 110.203 18.3128 111.782Z" fill="#CBC5C5"/>
<path d="M24.0151 133.085C18.1161 129.337 19.2959 126.576 15.7566 123.222C12.925 120.54 9.20213 119.475 7.69461 119.277C10.6991 127.891 13.9889 131.19 24.0151 133.085Z" fill="#CBC5C5"/>
<path d="M14.1835 119.869C13.0037 114.442 4.94175 102.905 2.58216 104.088C2.58216 106.653 6.80349 113.754 7.69461 117.699C10.6834 118.015 13.2659 119.277 14.1835 119.869Z" fill="#CBC5C5"/>
<path d="M22.0488 80.2203C18.3128 81.7983 13.397 87.5188 14.5768 95.8036C15.8352 94.2256 17.1985 94.6201 17.7229 95.0146C18.3654 93.2603 18.8808 92.6724 20.2791 92.8448C22.5429 87.8957 22.6758 85.1346 22.0488 80.2203Z" fill="#CBC5C5"/>
<path d="M9.66094 73.7107C7.10471 76.2751 4.57151 87.1285 7.69461 96.5927C9.83896 93.3904 10.875 93.9851 12.8071 93.831C13.3234 90.8812 13.4458 87.8919 13.3027 85.1517C13.0064 84.8229 12.3745 83.9287 12.2172 82.9819C12.0599 82.035 12.583 81.2723 12.8643 81.0093C12.1743 76.7859 10.8704 73.8226 9.66094 73.7107Z" fill="#CBC5C5"/>
<path d="M1.59899 87.1243C1.59899 92.8448 2.52066 95.8816 2.58216 102.313C3.17206 103.694 5.33502 103.497 4.94175 99.5515C5.22297 100.492 7.02667 101.396 6.71145 96.7899C6.39622 92.1842 1.59899 87.1243 1.59899 87.1243Z" fill="#CBC5C5"/>
<path d="M24.2118 65.8204C24.0375 73.0156 22.3708 75.8925 18.3128 80.2203C17.3576 78.3103 15.5599 81.0093 13.7902 79.234C17.7229 72.1327 16.1498 69.9628 19.4926 67.793C21.365 66.3731 22.3887 66.1477 24.2118 65.8204Z" fill="#CBC5C5"/>
<path d="M15.5599 57.3383C9.66094 63.4533 6.28025 67.3427 7.69461 75.2888C9.71466 71.1041 10.9925 72.1341 13.397 77.0641C16.9486 69.2726 17.7509 64.948 15.5599 57.3383Z" fill="#CBC5C5"/>
<path d="M4.94175 89.0969C5.62811 83.1491 5.92491 80.2203 5.33502 77.0641C4.4241 74.8731 3.49913 73.8268 1.00909 72.3299C0.0598327 77.4953 0.138069 80.3813 1.00909 85.5462C3.23002 86.2633 3.88795 87.2364 4.94175 89.0969Z" fill="#CBC5C5"/>
<path d="M6.12155 75.2888C5.33502 68.7793 8.08787 65.2287 8.08787 61.2835C8.08787 57.3383 5.33502 54.9712 5.33502 54.9712C3.55745 62.0223 3.30557 65.7562 3.17206 72.3299C4.35148 72.774 5.00256 73.4615 6.12155 75.2888Z" fill="#CBC5C5"/>
<path d="M29.7175 51.8151C28.0248 57.2269 26.583 59.9237 22.4421 63.6506C21.8751 62.0294 21.4751 61.6046 20.6724 61.2835C22.0377 58.5754 22.2522 57.0644 22.4421 54.3795C26.5819 51.6044 27.7087 51.6782 29.7175 51.8151Z" fill="#CBC5C5"/>
<path d="M18.9027 60.0999C16.3429 55.3277 15.1618 55.1625 13.3027 57.3383C13.3973 53.2658 14.0694 51.5823 15.5599 48.8563C16.9454 48.6541 17.1956 47.8016 17.3296 46.4892C19.4568 44.2557 20.5511 43.7567 22.4421 43.333C22.3236 50.4158 21.7498 54.1738 18.9027 60.0999Z" fill="#CBC5C5"/>
<path d="M11.6273 44.1221C8.83809 46.5605 7.70949 48.6122 6.90808 54.1822C7.66436 54.8299 8.03835 55.7449 8.67777 57.7328C9.57445 56.7355 10.0926 56.5943 11.0374 56.9438C12.9545 52.038 12.9571 49.2322 11.6273 44.1221Z" fill="#CBC5C5"/>
<path d="M23.032 52.4069C24.1817 44.756 29.7175 38.9934 34.8299 38.9934C36.7963 38.9934 37.9105 37.0208 38.566 38.0071C38.9175 38.536 36.2488 42.9503 32.4703 46.6864C29.2037 49.9165 24.9466 52.5898 23.032 52.4069Z" fill="#CBC5C5"/>
<path d="M35.2232 26.5661C28.2672 28.2405 25.2324 30.3062 22.4421 37.4153C24.4788 39.2253 26.0093 39.9846 23.6219 44.7138C31.83 38.2421 33.9084 34.1954 35.2232 26.5661Z" fill="#CBC5C5"/>
<path d="M21.2623 29.1305C16.4661 33.587 14.5758 36.5575 12.4138 42.544C12.4113 43.5088 12.4719 43.9981 13.0037 44.5166C13.893 43.9986 14.6279 43.8603 16.7397 44.1221C20.8157 38.0764 21.5453 34.8154 21.2623 29.1305Z" fill="#CBC5C5"/>
<path d="M48.0043 17.295C39.1182 17.7883 35.2258 19.7904 30.3074 26.5661C35.9762 24.4314 37.323 24.8229 36.403 29.1305C43.0026 25.259 45.1568 22.5242 48.0043 17.295Z" fill="#CBC5C5"/>
<path d="M38.3693 14.1389C37.9761 17.6895 28.931 24.5935 22.2454 34.2592C24.605 27.3551 25.4061 26.0202 22.4421 27.9469C27.9384 18.9581 31.4777 16.1937 38.3693 14.1389Z" fill="#CBC5C5"/>
<path d="M51.1505 25.9743C49.7481 24.4224 48.7931 23.8281 45.8414 24.199C42.0765 27.5208 40.0407 28.6647 36.5667 30.6165L36.403 30.7085C35.7861 31.5434 35.5048 32.3077 35.2232 33.6674C40.701 33.6789 44.2149 31.9484 51.1505 25.9743Z" fill="#CBC5C5"/>
<path d="M58.0326 17.295C54.2966 18.8731 49.3808 18.2813 49.3808 18.2813C49.247 15.3616 47.6398 15.7372 45.4481 15.5197C52.7011 9.82028 57.0157 8.43689 65.308 10.3707C61.3754 11.969 63.735 14.8864 58.0326 17.295Z" fill="#CBC5C5"/>
<path d="M51.3471 23.2127C58.6814 23.14 61.9165 21.9805 66.8811 18.8731C65.9967 16.5173 65.083 15.9991 62.3585 15.7169C59.8661 19.0471 57.6057 20.0676 52.7235 21.0429C52.5333 22.0914 52.2665 22.6556 51.3471 23.2127Z" fill="#CBC5C5"/>
<path d="M62.3585 2.89516C61.7575 5.76179 61.027 7.22155 57.0494 8.8129C53.5527 9.6234 52.4419 9.01722 44.8582 14.9279C44.2232 15.3274 43.8786 15.4586 43.2851 15.5197C43.3738 13.868 43.2219 13.0898 42.6952 11.969C49.4232 6.06275 53.9039 4.51149 62.3585 2.89516Z" fill="#CBC5C5"/>
<path d="M80.842 15.5197C80.3152 14.0209 79.6942 13.3457 78.0891 12.3635C76.1818 13.445 74.2109 13.6784 69.2407 13.5471C67.978 14.2065 67.4324 14.6289 66.8811 15.5197C71.7754 17.598 74.8545 17.591 80.842 15.5197Z" fill="#CBC5C5"/>
<path d="M80.842 0.133552C79.9091 1.60732 79.2246 2.43004 77.4992 3.88145C73.2664 3.61194 71.055 3.90341 67.2743 4.86774C67.4785 3.94535 67.4269 3.42357 67.2743 2.50065C73.3682 0.082413 76.2443 -0.247386 80.842 0.133552Z" fill="#CBC5C5"/>
<path d="M85.4659 162.871C89.8891 162.674 93.4285 163.858 95.3948 165.238C97.3612 166.619 98.1477 168 99.3275 168C100.507 168 103.26 166.619 103.26 165.436C102.655 164.861 101.78 164.338 100.736 163.858C95.3272 161.374 85.3785 160.051 84.9256 158.729C85.0435 160.007 85.2224 161.36 85.4659 162.871Z" fill="#CBC5C5"/>
<path d="M84.9256 151.228C84.9244 151.242 84.9233 151.255 84.9221 151.269C84.8045 152.937 88.33 149.038 90.0858 145.907C91.8555 142.751 92.8386 144.724 95.0016 145.907C97.1645 147.091 99.7208 146.696 99.3275 148.077C98.9342 149.458 93.8218 149.852 92.8386 149.852C91.8555 149.852 88.1194 149.852 87.9228 151.036C87.7262 152.219 93.2319 153.206 94.215 153.206C95.1982 153.206 98.1477 151.825 100.114 150.247C102.08 148.669 102.474 145.513 102.474 143.343C102.474 141.173 102.474 141.173 99.7208 141.173C97.1645 141.173 94.8049 138.411 91.6588 138.411C89.8891 140.581 86.3497 143.935 84.9256 151.228Z" fill="#CBC5C5"/>
<path d="M104.243 143.343C104.243 140.778 103.064 141.962 103.064 140.778C103.195 140.252 103.85 139.003 105.423 138.214C107.389 137.228 110.536 135.847 109.749 139.792C109.12 142.948 108.569 144.395 108.373 144.724C106.325 145.773 105.167 146.515 103.064 148.274C102.867 145.907 104.243 144.447 104.243 143.343Z" fill="#CBC5C5"/>
<path d="M104.243 148.471C106.996 145.907 113.288 143.343 118.401 143.343C118.401 144.329 118.794 145.513 117.418 146.499C116.041 147.485 114.272 146.302 112.109 147.288C110.378 148.077 108.897 150.115 108.373 151.036C107.496 149.599 106.564 149.046 104.243 148.471Z" fill="#CBC5C5"/>
<path d="M114.272 153.206C112.856 152.732 112.502 149.852 112.502 148.471C115.255 146.499 116.238 150.247 124.103 145.513C124.796 146.941 124.764 147.809 124.496 151.228C123.238 152.43 122.419 153.014 120.564 153.797C119.818 149.23 118.618 147.912 114.272 149.063C115.491 150.705 115.524 151.564 114.272 153.206Z" fill="#CBC5C5"/>
<path d="M101.687 162.082C101.687 161.096 103.85 158.729 104.637 158.729C105.423 158.729 107.586 162.871 110.929 162.871C113.293 162.871 117.033 161.885 119.021 159.912C119.476 157.465 119.501 155.77 119.261 154.587C118.863 152.624 117.735 152.071 116.631 151.825C116.631 153.403 113.878 155.178 112.109 155.178C109.552 155.178 106.013 149.852 105.03 149.852C104.047 149.852 101.097 152.022 100.507 155.178C95.7881 155.376 89.2992 153.206 84.7852 153.403C84.7523 154.203 84.7429 154.985 84.7578 155.77C89.6925 156.165 98.7376 162.674 101.687 162.082Z" fill="#CBC5C5"/>
<path d="M112.895 142.751C113.21 141.489 112.83 140.515 112.502 140.187C115.843 132.94 118.868 130.03 124.693 125.392C125.527 132.222 124.346 135.552 117.024 142.554L112.895 142.751Z" fill="#CBC5C5"/>
<path d="M131.182 143.343C131.182 143.996 130.654 144.526 130.002 144.526C129.351 144.526 128.822 143.996 128.822 143.343C128.822 142.689 129.351 142.159 130.002 142.159C130.654 142.159 131.182 142.689 131.182 143.343Z" fill="#CBC5C5"/>
<path d="M128.429 129.337C128.429 129.991 127.901 130.521 127.249 130.521C126.598 130.521 126.07 129.991 126.07 129.337C126.07 128.684 126.598 128.154 127.249 128.154C127.901 128.154 128.429 128.684 128.429 129.337Z" fill="#CBC5C5"/>
<path d="M141.997 112.965C141.997 113.619 141.469 114.149 140.817 114.149C140.165 114.149 139.637 113.619 139.637 112.965C139.637 112.311 140.165 111.782 140.817 111.782C141.469 111.782 141.997 112.311 141.997 112.965Z" fill="#CBC5C5"/>
<path d="M158.317 102.905C158.317 103.559 157.789 104.088 157.138 104.088C156.486 104.088 155.958 103.559 155.958 102.905C155.958 102.251 156.486 101.721 157.138 101.721C157.789 101.721 158.317 102.251 158.317 102.905Z" fill="#CBC5C5"/>
<path d="M148.682 97.7762C148.682 98.4299 148.154 98.9598 147.503 98.9598C146.851 98.9598 146.323 98.4299 146.323 97.7762C146.323 97.1225 146.851 96.5927 147.503 96.5927C148.154 96.5927 148.682 97.1225 148.682 97.7762Z" fill="#CBC5C5"/>
<path d="M150.255 82.9819C150.255 83.6355 149.727 84.1654 149.076 84.1654C148.424 84.1654 147.896 83.6355 147.896 82.9819C147.896 82.3282 148.424 81.7983 149.076 81.7983C149.727 81.7983 150.255 82.3282 150.255 82.9819Z" fill="#CBC5C5"/>
<path d="M154.385 60.0999C154.385 60.7536 153.856 61.2835 153.205 61.2835C152.553 61.2835 152.025 60.7536 152.025 60.0999C152.025 59.4463 152.553 58.9164 153.205 58.9164C153.856 58.9164 154.385 59.4463 154.385 60.0999Z" fill="#CBC5C5"/>
<path d="M145.34 64.0451C145.34 64.6988 144.811 65.2287 144.16 65.2287C143.508 65.2287 142.98 64.6988 142.98 64.0451C142.98 63.3914 143.508 62.8616 144.16 62.8616C144.811 62.8616 145.34 63.3914 145.34 64.0451Z" fill="#CBC5C5"/>
<path d="M150.452 46.4892C150.452 47.1428 149.924 47.6727 149.272 47.6727C148.621 47.6727 148.092 47.1428 148.092 46.4892C148.092 45.8355 148.621 45.3056 149.272 45.3056C149.924 45.3056 150.452 45.8355 150.452 46.4892Z" fill="#CBC5C5"/>
<path d="M142.39 40.9659C142.39 41.6196 141.862 42.1495 141.21 42.1495C140.559 42.1495 140.03 41.6196 140.03 40.9659C140.03 40.3123 140.559 39.7824 141.21 39.7824C141.862 39.7824 142.39 40.3123 142.39 40.9659Z" fill="#CBC5C5"/>
<path d="M128.822 36.8235C128.822 37.4772 128.294 38.0071 127.643 38.0071C126.991 38.0071 126.463 37.4772 126.463 36.8235C126.463 36.1699 126.991 35.64 127.643 35.64C128.294 35.64 128.822 36.1699 128.822 36.8235Z" fill="#CBC5C5"/>
<path d="M114.861 21.2401C114.861 21.8938 114.333 22.4237 113.682 22.4237C113.03 22.4237 112.502 21.8938 112.502 21.2401C112.502 20.5865 113.03 20.0566 113.682 20.0566C114.333 20.0566 114.861 20.5865 114.861 21.2401Z" fill="#CBC5C5"/>
<path d="M124.103 14.3361C124.103 14.9898 123.575 15.5197 122.923 15.5197C122.272 15.5197 121.744 14.9898 121.744 14.3361C121.744 13.6825 122.272 13.1526 122.923 13.1526C123.575 13.1526 124.103 13.6825 124.103 14.3361Z" fill="#CBC5C5"/>
<path d="M99.1309 13.1526C99.1309 13.8062 98.6027 14.3361 97.9511 14.3361C97.2995 14.3361 96.7713 13.8062 96.7713 13.1526C96.7713 12.4989 97.2995 11.969 97.9511 11.969C98.6027 11.969 99.1309 12.4989 99.1309 13.1526Z" fill="#CBC5C5"/>
<path d="M99.9174 3.68419C99.9174 4.33785 99.3892 4.86774 98.7376 4.86774C98.086 4.86774 97.5578 4.33785 97.5578 3.68419C97.5578 3.03054 98.086 2.50065 98.7376 2.50065C99.3892 2.50065 99.9174 3.03054 99.9174 3.68419Z" fill="#CBC5C5"/>
<path d="M119.581 142.159C119.843 142.883 120.21 144.566 119.581 145.513C126.27 144.273 137.207 134.609 136.491 127.365C130.387 129.111 126.748 132.207 119.581 142.159Z" fill="#CBC5C5"/>
<path d="M127.249 125.984C127.643 120.264 135.705 109.809 137.278 110.598C138.851 111.387 138.064 125.59 131.575 128.351C131.103 127.247 128.495 126.313 127.249 125.984Z" fill="#CBC5C5"/>
<path d="M131.772 140.384C134.918 137.031 140.62 133.677 145.929 134.466C144.553 139.792 136.294 142.948 132.952 144.526C133.345 143.343 132.755 140.976 131.772 140.384Z" fill="#CBC5C5"/>
<path d="M126.07 149.852C126.659 148.077 125.676 146.302 126.266 146.104C126.738 145.947 129.609 145.776 130.985 145.71C129.648 147.434 128.605 148.353 126.07 149.852Z" fill="#CBC5C5"/>
<path d="M136.491 125.984C137.278 121.842 143.57 111.584 146.323 112.571C149.076 113.557 145.34 128.746 137.671 132.494C139.637 128.351 138.507 125.984 136.491 125.984Z" fill="#CBC5C5"/>
<path d="M138.654 110.203C139.047 104.483 138.064 101.919 140.03 97.7762C141.997 93.6338 142.587 94.0283 143.373 94.2256C144.16 94.4228 146.126 100.341 145.34 104.68C144.71 108.152 143.767 111.387 143.373 112.571C143.046 111.847 142.154 110.282 141.21 109.809C140.266 109.336 139.113 109.875 138.654 110.203Z" fill="#CBC5C5"/>
<path d="M145.34 111.782C145.516 102.905 151.435 94.8371 153.205 95.0146C157.138 95.4091 153.991 113.754 148.682 116.121C148.682 111.782 147.503 110.203 145.34 111.782Z" fill="#CBC5C5"/>
<path d="M139.637 133.085C145.536 129.337 144.356 126.576 147.896 123.222C150.727 120.54 154.45 119.475 155.958 119.277C152.953 127.891 149.663 131.19 139.637 133.085Z" fill="#CBC5C5"/>
<path d="M149.469 119.869C150.649 114.442 158.711 102.905 161.07 104.088C161.07 106.653 156.849 113.754 155.958 117.699C152.969 118.015 150.386 119.277 149.469 119.869Z" fill="#CBC5C5"/>
<path d="M141.604 80.2203C145.34 81.7983 150.255 87.5188 149.076 95.8036C147.817 94.2256 146.454 94.6201 145.929 95.0146C145.287 93.2603 144.772 92.6724 143.373 92.8448C141.109 87.8957 140.977 85.1346 141.604 80.2203Z" fill="#CBC5C5"/>
<path d="M153.991 73.7107C156.548 76.2751 159.081 87.1285 155.958 96.5927C153.813 93.3904 152.777 93.9851 150.845 93.831C150.329 90.8812 150.207 87.8919 150.35 85.1517C150.646 84.8229 151.278 83.9287 151.435 82.9819C151.592 82.035 151.069 81.2723 150.788 81.0093C151.478 76.7859 152.782 73.8226 153.991 73.7107Z" fill="#CBC5C5"/>
<path d="M162.053 87.1243C162.053 92.8448 161.132 95.8816 161.07 102.313C160.48 103.694 158.317 103.497 158.711 99.5515C158.429 100.492 156.626 101.396 156.941 96.7899C157.256 92.1842 162.053 87.1243 162.053 87.1243Z" fill="#CBC5C5"/>
<path d="M139.441 65.8204C139.615 73.0156 141.282 75.8925 145.34 80.2203C146.295 78.3103 148.092 81.0093 149.862 79.234C145.929 72.1327 147.503 69.9628 144.16 67.793C142.287 66.3731 141.264 66.1477 139.441 65.8204Z" fill="#CBC5C5"/>
<path d="M148.092 57.3383C153.991 63.4533 157.372 67.3427 155.958 75.2888C153.938 71.1041 152.66 72.1341 150.255 77.0641C146.704 69.2726 145.901 64.948 148.092 57.3383Z" fill="#CBC5C5"/>
<path d="M158.711 89.0969C158.024 83.1491 157.727 80.2203 158.317 77.0641C159.228 74.8731 160.153 73.8268 162.643 72.3299C163.593 77.4953 163.514 80.3813 162.643 85.5462C160.422 86.2633 159.764 87.2364 158.711 89.0969Z" fill="#CBC5C5"/>
<path d="M157.531 75.2888C158.317 68.7793 155.564 65.2287 155.564 61.2835C155.564 57.3383 158.317 54.9712 158.317 54.9712C160.095 62.0223 160.347 65.7562 160.48 72.3299C159.301 72.774 158.65 73.4615 157.531 75.2888Z" fill="#CBC5C5"/>
<path d="M133.935 51.8151C135.628 57.2269 137.069 59.9237 141.21 63.6506C141.777 62.0294 142.177 61.6046 142.98 61.2835C141.615 58.5754 141.4 57.0644 141.21 54.3795C137.07 51.6044 135.944 51.6782 133.935 51.8151Z" fill="#CBC5C5"/>
<path d="M144.75 60.0999C147.309 55.3277 148.491 55.1625 150.35 57.3383C150.255 53.2658 149.583 51.5823 148.092 48.8563C146.707 48.6541 146.457 47.8016 146.323 46.4892C144.196 44.2557 143.101 43.7567 141.21 43.333C141.329 50.4158 141.903 54.1738 144.75 60.0999Z" fill="#CBC5C5"/>
<path d="M152.025 44.1221C154.814 46.5605 155.943 48.6122 156.744 54.1822C155.988 54.8299 155.614 55.7449 154.975 57.7328C154.078 56.7355 153.56 56.5943 152.615 56.9438C150.698 52.038 150.695 49.2322 152.025 44.1221Z" fill="#CBC5C5"/>
<path d="M140.62 52.4069C139.471 44.756 133.935 38.9934 128.822 38.9934C126.856 38.9934 125.742 37.0208 125.086 38.0071C124.735 38.536 127.404 42.9503 131.182 46.6864C134.449 49.9165 138.706 52.5898 140.62 52.4069Z" fill="#CBC5C5"/>
<path d="M128.429 26.5661C135.385 28.2405 138.42 30.3062 141.21 37.4153C139.174 39.2253 137.643 39.9846 140.03 44.7138C131.822 38.2421 129.744 34.1954 128.429 26.5661Z" fill="#CBC5C5"/>
<path d="M142.39 29.1305C147.186 33.587 149.077 36.5575 151.239 42.544C151.241 43.5088 151.18 43.9981 150.649 44.5166C149.759 43.9986 149.024 43.8603 146.913 44.1221C142.837 38.0764 142.107 34.8154 142.39 29.1305Z" fill="#CBC5C5"/>
<path d="M115.648 17.295C124.534 17.7883 128.427 19.7904 133.345 26.5661C127.676 24.4314 126.329 24.8229 127.249 29.1305C120.65 25.259 118.496 22.5242 115.648 17.295Z" fill="#CBC5C5"/>
<path d="M125.283 14.1389C125.676 17.6895 134.721 24.5935 141.407 34.2592C139.047 27.3551 138.246 26.0202 141.21 27.9469C135.714 18.9581 132.175 16.1937 125.283 14.1389Z" fill="#CBC5C5"/>
<path d="M112.502 25.9743C113.904 24.4224 114.859 23.8281 117.811 24.199C121.576 27.5208 123.612 28.6647 127.086 30.6165L127.249 30.7085C127.866 31.5434 128.148 32.3077 128.429 33.6674C122.951 33.6789 119.438 31.9484 112.502 25.9743Z" fill="#CBC5C5"/>
<path d="M105.62 17.295C109.356 18.8731 114.272 18.2813 114.272 18.2813C114.405 15.3616 116.013 15.7372 118.204 15.5197C110.951 9.82028 106.637 8.43689 98.3443 10.3707C102.277 11.969 99.9174 14.8864 105.62 17.295Z" fill="#CBC5C5"/>
<path d="M112.305 23.2127C104.971 23.14 101.736 21.9805 96.7713 18.8731C97.6557 16.5173 98.5694 15.9991 101.294 15.7169C103.786 19.0471 106.047 20.0676 110.929 21.0429C111.119 22.0914 111.386 22.6556 112.305 23.2127Z" fill="#CBC5C5"/>
<path d="M101.294 2.89516C101.895 5.76179 102.625 7.22155 106.603 8.8129C110.1 9.6234 111.21 9.01722 118.794 14.9279C119.429 15.3274 119.774 15.4586 120.367 15.5197C120.279 13.868 120.43 13.0898 120.957 11.969C114.229 6.06275 109.748 4.51149 101.294 2.89516Z" fill="#CBC5C5"/>
<path d="M82.8103 15.5197C83.3371 14.0209 83.9582 13.3457 85.5632 12.3635C87.4706 13.445 89.4414 13.6784 94.4117 13.5471C95.6743 14.2065 96.22 14.6289 96.7713 15.5197C91.877 17.598 88.7978 17.591 82.8103 15.5197Z" fill="#CBC5C5"/>
<path d="M82.8103 0.133552C83.7432 1.60732 84.4277 2.43004 86.1531 3.88145C90.3859 3.61194 92.5974 3.90341 96.378 4.86774C96.1738 3.94535 96.2255 3.42357 96.378 2.50065C90.2842 0.082413 87.408 -0.247386 82.8103 0.133552Z" fill="#CBC5C5"/>
<path d="M78.0891 163.463C78.0891 163.463 80.0565 163.858 81.8262 163.858C83.5959 163.858 85.5632 163.463 85.5632 163.463C85.5297 163.263 85.4973 163.066 85.4659 162.871C85.2224 161.36 85.0435 160.007 84.9256 158.729C84.8314 157.709 84.7761 156.737 84.7578 155.77C84.7429 154.985 84.7523 154.203 84.7852 153.403C84.8136 152.711 84.8594 152.004 84.9221 151.269L84.9256 151.228C85.0621 149.64 85.2769 147.915 85.5632 145.907C85.5632 145.907 83.7925 145.513 81.8262 145.513C79.8598 145.513 78.0891 145.907 78.0891 145.907C78.3755 147.915 78.5902 149.64 78.7268 151.228L78.7302 151.269C78.7929 152.004 78.8388 152.711 78.8672 153.403C78.9 154.203 78.9095 154.985 78.8946 155.77C78.8762 156.737 78.8209 157.709 78.7268 158.729C78.6088 160.007 78.4299 161.36 78.1864 162.871C78.1551 163.066 78.1226 163.263 78.0891 163.463Z" fill="#CBC5C5"/>
<path fill-rule="evenodd" clip-rule="evenodd" d="M78.0891 145.907C78.0891 145.907 79.8598 145.513 81.8262 145.513C83.7925 145.513 85.5632 145.907 85.5632 145.907C85.2769 147.915 85.0621 149.64 84.9256 151.228C86.3497 143.935 89.8891 140.581 91.6588 138.411C94.8049 138.411 97.1645 141.173 99.7208 141.173C102.474 141.173 102.474 141.173 102.474 143.343C102.474 145.513 102.08 148.669 100.114 150.247C98.1477 151.825 95.1982 153.206 94.215 153.206C93.2319 153.206 87.7262 152.219 87.9228 151.036C88.1194 149.852 91.8555 149.852 92.8386 149.852C93.8218 149.852 98.9342 149.458 99.3275 148.077C99.7208 146.696 97.1645 147.091 95.0016 145.907C92.8386 144.724 91.8555 142.751 90.0858 145.907C88.33 149.038 84.8045 152.937 84.9221 151.269C84.8594 152.004 84.8136 152.711 84.7852 153.403C89.2992 153.206 95.7881 155.376 100.507 155.178C101.097 152.022 104.047 149.852 105.03 149.852C106.013 149.852 109.552 155.178 112.109 155.178C113.878 155.178 116.631 153.403 116.631 151.825C117.735 152.071 118.863 152.624 119.261 154.587L120.564 153.797C119.818 149.23 118.618 147.912 114.272 149.063C115.491 150.705 115.524 151.564 114.272 153.206C112.856 152.732 112.502 149.852 112.502 148.471C115.255 146.499 116.238 150.247 124.103 145.513C124.796 146.941 124.764 147.809 124.496 151.228L126.07 149.852C126.659 148.077 125.676 146.302 126.266 146.104C126.738 145.947 129.609 145.776 130.985 145.71L132.952 144.526C133.345 143.343 132.755 140.976 131.772 140.384C134.918 137.031 140.62 133.677 145.929 134.466L139.637 133.085C145.536 129.337 144.356 126.576 147.896 123.222C150.727 120.54 154.45 119.475 155.958 119.277V117.699C152.969 118.015 150.386 119.277 149.469 119.869C150.649 114.442 158.711 102.905 161.07 104.088V102.313C160.48 103.694 158.317 103.497 158.711 99.5515C158.429 100.492 156.626 101.396 156.941 96.7899C157.256 92.1842 162.053 87.1243 162.053 87.1243L162.643 85.5462C160.422 86.2633 159.764 87.2364 158.711 89.0969C158.024 83.1491 157.727 80.2203 158.317 77.0641C159.228 74.8731 160.153 73.8268 162.643 72.3299H160.48C159.301 72.774 158.65 73.4615 157.531 75.2888C158.317 68.7793 155.564 65.2287 155.564 61.2835C155.564 57.3383 158.317 54.9712 158.317 54.9712L156.744 54.1822C155.988 54.8299 155.614 55.7449 154.975 57.7328C154.078 56.7355 153.56 56.5943 152.615 56.9438C150.698 52.038 150.695 49.2322 152.025 44.1221L151.239 42.544C151.241 43.5088 151.18 43.9981 150.649 44.5166C149.759 43.9986 149.024 43.8603 146.913 44.1221C142.837 38.0764 142.107 34.8154 142.39 29.1305L141.21 27.9469C138.246 26.0202 139.047 27.3551 141.407 34.2592C134.721 24.5935 125.676 17.6895 125.283 14.1389L124.103 14.3361C124.103 14.9898 123.575 15.5197 122.923 15.5197C122.272 15.5197 121.744 14.9898 121.744 14.3361L120.957 11.969C120.43 13.0898 120.279 13.868 120.367 15.5197C119.774 15.4586 119.429 15.3274 118.794 14.9279C111.21 9.01722 110.1 9.6234 106.603 8.8129C102.625 7.22155 101.895 5.76179 101.294 2.89516L99.9174 3.68419C99.9174 4.33785 99.3892 4.86774 98.7376 4.86774C98.086 4.86774 97.5578 4.33785 97.5578 3.68419L96.378 2.50065C96.2255 3.42357 96.1738 3.94535 96.378 4.86774C92.5974 3.90341 90.3859 3.61194 86.1531 3.88145C84.4277 2.43004 83.7432 1.60732 82.8103 0.133552H82.8093H80.843H80.842C79.9091 1.60732 79.2246 2.43004 77.4992 3.88145C73.2664 3.61194 71.055 3.90341 67.2743 4.86774C67.4785 3.94535 67.4269 3.42357 67.2743 2.50065L66.0945 3.68419C66.0945 4.33785 65.5663 4.86774 64.9147 4.86774C64.2632 4.86774 63.735 4.33785 63.735 3.68419L62.3585 2.89516C61.7575 5.76179 61.027 7.22155 57.0494 8.8129C53.5527 9.6234 52.4419 9.01722 44.8582 14.9279C44.2232 15.3274 43.8786 15.4586 43.2851 15.5197C43.3738 13.868 43.2219 13.0898 42.6952 11.969L41.9087 14.3361C41.9087 14.9898 41.3805 15.5197 40.7289 15.5197C40.0773 15.5197 39.5491 14.9898 39.5491 14.3361L38.3693 14.1389C37.9761 17.6895 28.931 24.5935 22.2454 34.2592C24.605 27.3551 25.4061 26.0202 22.4421 27.9469L21.2623 29.1305C21.5453 34.8154 20.8157 38.0764 16.7397 44.1221C14.6279 43.8603 13.893 43.9986 13.0037 44.5166C12.4719 43.9981 12.4113 43.5088 12.4138 42.544L11.6273 44.1221C12.9571 49.2322 12.9545 52.038 11.0374 56.9438C10.0926 56.5943 9.57445 56.7355 8.67777 57.7328C8.03835 55.7449 7.66436 54.8299 6.90808 54.1822L5.33502 54.9712C5.33502 54.9712 8.08787 57.3383 8.08787 61.2835C8.08787 65.2287 5.33502 68.7793 6.12155 75.2888C5.00256 73.4615 4.35148 72.774 3.17206 72.3299H1.00909C3.49913 73.8268 4.4241 74.8731 5.33502 77.0641C5.92491 80.2203 5.62811 83.1491 4.94175 89.0969C3.88795 87.2364 3.23002 86.2633 1.00909 85.5462L1.59899 87.1243C1.59899 87.1243 6.39622 92.1842 6.71145 96.7899C7.02667 101.396 5.22297 100.492 4.94175 99.5515C5.33502 103.497 3.17206 103.694 2.58216 102.313V104.088C4.94175 102.905 13.0037 114.442 14.1835 119.869C13.2659 119.277 10.6834 118.015 7.69461 117.699V119.277C9.20213 119.475 12.925 120.54 15.7566 123.222C19.2959 126.576 18.1161 129.337 24.0151 133.085L17.7229 134.466C23.032 133.677 28.7343 137.031 31.8804 140.384C30.8973 140.976 30.3074 143.343 30.7006 144.526L32.667 145.71C34.0434 145.776 36.9142 145.947 37.3862 146.104C37.9761 146.302 36.9929 148.077 37.5828 149.852L39.1558 151.228C38.888 147.809 38.856 146.941 39.5491 145.513C47.4144 150.247 48.3976 146.499 51.1505 148.471C51.1505 149.852 50.7965 152.732 49.3808 153.206C48.128 151.564 48.1617 150.705 49.3808 149.063C45.0344 147.912 43.8345 149.23 43.0885 153.797L44.3914 154.587C44.7894 152.624 45.917 152.071 47.0212 151.825C47.0212 153.403 49.774 155.178 51.5437 155.178C54.0999 155.178 57.6393 149.852 58.6225 149.852C59.6057 149.852 62.5552 152.022 63.1451 155.178C67.8642 155.376 74.3531 153.206 78.8672 153.403C78.8388 152.711 78.7929 152.004 78.7302 151.269C78.8479 152.937 75.3224 149.038 73.5666 145.907C71.7969 142.751 70.8137 144.724 68.6508 145.907C66.4878 147.091 63.9316 146.696 64.3248 148.077C64.7181 149.458 69.8306 149.852 70.8137 149.852C71.7969 149.852 75.5329 149.852 75.7296 151.036C75.9262 152.219 70.4205 153.206 69.4373 153.206C68.4541 153.206 65.5046 151.825 63.5383 150.247C61.572 148.669 61.1787 145.513 61.1787 143.343C61.1787 141.173 61.1787 141.173 63.9316 141.173C66.4878 141.173 68.8474 138.411 71.9935 138.411C73.7632 140.581 77.3026 143.935 78.7268 151.228C78.5902 149.64 78.3755 147.915 78.0891 145.907ZM60.5888 140.778C60.5888 141.962 59.409 140.778 59.409 143.343C59.409 144.447 60.7855 145.907 60.5888 148.274C58.4853 146.515 57.3269 145.773 55.2797 144.724C55.0831 144.395 54.5325 142.948 53.9033 139.792C53.1168 135.847 56.2629 137.228 58.2292 138.214C59.8023 139.003 60.4577 140.252 60.5888 140.778ZM45.2515 143.343C50.3639 143.343 56.6562 145.907 59.409 148.471C57.0888 149.046 56.1566 149.599 55.2797 151.036C54.7554 150.115 53.2741 148.077 51.5437 147.288C49.3808 146.302 47.6111 147.485 46.2346 146.499C44.8582 145.513 45.2515 144.329 45.2515 143.343ZM51.1505 140.187C50.8227 140.515 50.4426 141.489 50.7572 142.751L46.6279 142.554C39.3067 135.552 38.1253 132.222 38.9592 125.392C44.7843 130.03 47.8097 132.94 51.1505 140.187ZM44.0717 145.513C43.4424 144.566 43.8095 142.883 44.0717 142.159C36.9048 132.207 33.2657 129.111 27.1613 127.365C26.4457 134.609 37.3825 144.273 44.0717 145.513ZM33.6501 144.526C32.9986 144.526 32.4703 143.996 32.4703 143.343C32.4703 142.689 32.9986 142.159 33.6501 142.159C34.3017 142.159 34.8299 142.689 34.8299 143.343C34.8299 143.996 34.3017 144.526 33.6501 144.526ZM36.403 130.521C35.7514 130.521 35.2232 129.991 35.2232 129.337C35.2232 128.684 35.7514 128.154 36.403 128.154C37.0546 128.154 37.5828 128.684 37.5828 129.337C37.5828 129.991 37.0546 130.521 36.403 130.521ZM22.8353 114.149C22.1837 114.149 21.6555 113.619 21.6555 112.965C21.6555 112.311 22.1837 111.782 22.8353 111.782C23.4869 111.782 24.0151 112.311 24.0151 112.965C24.0151 113.619 23.4869 114.149 22.8353 114.149ZM6.51481 104.088C5.86323 104.088 5.33502 103.559 5.33502 102.905C5.33502 102.251 5.86323 101.721 6.51481 101.721C7.1664 101.721 7.69461 102.251 7.69461 102.905C7.69461 103.559 7.1664 104.088 6.51481 104.088ZM16.1498 98.9598C15.4982 98.9598 14.97 98.4299 14.97 97.7762C14.97 97.1225 15.4982 96.5927 16.1498 96.5927C16.8014 96.5927 17.3296 97.1225 17.3296 97.7762C17.3296 98.4299 16.8014 98.9598 16.1498 98.9598ZM14.5768 84.1654C13.9252 84.1654 13.397 83.6355 13.397 82.9819C13.397 82.3282 13.9252 81.7983 14.5768 81.7983C15.2283 81.7983 15.7566 82.3282 15.7566 82.9819C15.7566 83.6355 15.2283 84.1654 14.5768 84.1654ZM10.4475 61.2835C9.79588 61.2835 9.26767 60.7536 9.26767 60.0999C9.26767 59.4463 9.79588 58.9164 10.4475 58.9164C11.0991 58.9164 11.6273 59.4463 11.6273 60.0999C11.6273 60.7536 11.0991 61.2835 10.4475 61.2835ZM19.4926 65.2287C18.841 65.2287 18.3128 64.6988 18.3128 64.0451C18.3128 63.3914 18.841 62.8616 19.4926 62.8616C20.1442 62.8616 20.6724 63.3914 20.6724 64.0451C20.6724 64.6988 20.1442 65.2287 19.4926 65.2287ZM14.3801 47.6727C13.7285 47.6727 13.2003 47.1428 13.2003 46.4892C13.2003 45.8355 13.7285 45.3056 14.3801 45.3056C15.0317 45.3056 15.5599 45.8355 15.5599 46.4892C15.5599 47.1428 15.0317 47.6727 14.3801 47.6727ZM22.4421 42.1495C21.7905 42.1495 21.2623 41.6196 21.2623 40.9659C21.2623 40.3123 21.7905 39.7824 22.4421 39.7824C23.0937 39.7824 23.6219 40.3123 23.6219 40.9659C23.6219 41.6196 23.0937 42.1495 22.4421 42.1495ZM36.0097 38.0071C35.3581 38.0071 34.8299 37.4772 34.8299 36.8235C34.8299 36.1699 35.3581 35.64 36.0097 35.64C36.6613 35.64 37.1895 36.1699 37.1895 36.8235C37.1895 37.4772 36.6613 38.0071 36.0097 38.0071ZM49.9707 22.4237C49.3191 22.4237 48.7909 21.8938 48.7909 21.2401C48.7909 20.5865 49.3191 20.0566 49.9707 20.0566C50.6222 20.0566 51.1505 20.5865 51.1505 21.2401C51.1505 21.8938 50.6222 22.4237 49.9707 22.4237ZM65.7013 14.3361C65.0497 14.3361 64.5215 13.8062 64.5215 13.1526C64.5215 12.4989 65.0497 11.969 65.7013 11.969C66.3529 11.969 66.8811 12.4989 66.8811 13.1526C66.8811 13.8062 66.3529 14.3361 65.7013 14.3361ZM26.3747 110.598C27.9478 109.809 36.0097 120.264 36.403 125.984C35.1577 126.313 32.549 127.247 32.0771 128.351C25.5882 125.59 24.8017 111.387 26.3747 110.598ZM17.3296 112.571C20.0825 111.584 26.3747 121.842 27.1613 125.984C25.1456 125.984 24.0151 128.351 25.9815 132.494C18.3128 128.746 14.5768 113.557 17.3296 112.571ZM23.6219 97.7762C25.5882 101.919 24.605 104.483 24.9983 110.203C24.5395 109.875 23.3859 109.336 22.4421 109.809C21.4982 110.282 20.6068 111.847 20.2791 112.571C19.8858 111.387 18.942 108.152 18.3128 104.68C17.5262 100.341 19.4926 94.4228 20.2791 94.2256C21.0656 94.0283 21.6555 93.6338 23.6219 97.7762ZM10.4475 95.0146C12.2172 94.8371 18.1364 102.905 18.3128 111.782C16.1498 110.203 14.97 111.782 14.97 116.121C9.66094 113.754 6.51481 95.4091 10.4475 95.0146ZM14.5768 95.8036C13.397 87.5188 18.3128 81.7983 22.0488 80.2203C22.6758 85.1346 22.5429 87.8957 20.2791 92.8448C18.8808 92.6724 18.3654 93.2603 17.7229 95.0146C17.1985 94.6201 15.8352 94.2256 14.5768 95.8036ZM7.69461 96.5927C4.57151 87.1285 7.10471 76.2751 9.66094 73.7107C10.8704 73.8226 12.1743 76.7859 12.8643 81.0093C12.583 81.2723 12.0599 82.035 12.2172 82.9819C12.3745 83.9287 13.0064 84.8229 13.3027 85.1517C13.4458 87.8919 13.3234 90.8812 12.8071 93.831C10.875 93.9851 9.83896 93.3904 7.69461 96.5927ZM18.3128 80.2203C22.3708 75.8925 24.0375 73.0156 24.2118 65.8204C22.3887 66.1477 21.365 66.3731 19.4926 67.793C16.1498 69.9628 17.7229 72.1327 13.7902 79.234C15.5599 81.0093 17.3576 78.3103 18.3128 80.2203ZM7.69461 75.2888C6.28025 67.3427 9.66094 63.4533 15.5599 57.3383C17.7509 64.948 16.9486 69.2726 13.397 77.0641C10.9925 72.1341 9.71466 71.1041 7.69461 75.2888ZM22.4421 63.6506C26.583 59.9237 28.0248 57.2269 29.7175 51.8151C27.7087 51.6782 26.5819 51.6044 22.4421 54.3795C22.2522 57.0644 22.0377 58.5754 20.6724 61.2835C21.4751 61.6046 21.8751 62.0294 22.4421 63.6506ZM13.3027 57.3383C15.1618 55.1625 16.3429 55.3277 18.9027 60.0999C21.7498 54.1738 22.3236 50.4158 22.4421 43.333C20.5511 43.7567 19.4568 44.2557 17.3296 46.4892C17.1956 47.8016 16.9454 48.6541 15.5599 48.8563C14.0694 51.5823 13.3973 53.2658 13.3027 57.3383ZM34.8299 38.9934C29.7175 38.9934 24.1817 44.756 23.032 52.4069C24.9466 52.5898 29.2037 49.9165 32.4703 46.6864C36.2488 42.9503 38.9175 38.536 38.566 38.0071C37.9105 37.0208 36.7963 38.9934 34.8299 38.9934ZM22.4421 37.4153C25.2324 30.3062 28.2672 28.2405 35.2232 26.5661C33.9084 34.1954 31.83 38.2421 23.6219 44.7138C26.0093 39.9846 24.4788 39.2253 22.4421 37.4153ZM30.3074 26.5661C35.2258 19.7904 39.1182 17.7883 48.0043 17.295C45.1568 22.5242 43.0026 25.259 36.403 29.1305C37.323 24.8229 35.9762 24.4314 30.3074 26.5661ZM45.8414 24.199C48.7931 23.8281 49.7481 24.4224 51.1505 25.9743C44.2149 31.9484 40.701 33.6789 35.2232 33.6674C35.5048 32.3077 35.7861 31.5434 36.403 30.7085L36.5667 30.6165C40.0407 28.6647 42.0765 27.5208 45.8414 24.199ZM49.3808 18.2813C49.3808 18.2813 54.2966 18.8731 58.0326 17.295C63.735 14.8864 61.3754 11.969 65.308 10.3707C57.0157 8.43689 52.7011 9.82028 45.4481 15.5197C47.6398 15.7372 49.247 15.3616 49.3808 18.2813ZM66.8811 18.8731C61.9165 21.9805 58.6814 23.14 51.3471 23.2127C52.2665 22.6556 52.5333 22.0914 52.7235 21.0429C57.6057 20.0676 59.8661 19.0471 62.3585 15.7169C65.083 15.9991 65.9967 16.5173 66.8811 18.8731ZM81.8262 8.90762C78.8984 10.7866 77.2282 11.5745 72.9767 11.5745C69.5714 11.5745 68.2394 10.7657 67.0171 10.0235C65.9808 9.39425 65.0234 8.8129 62.9484 8.8129C70.2138 4.02894 74.6666 3.65858 81.8262 6.73397C88.9857 3.65858 93.4386 4.02894 100.704 8.8129C98.6289 8.8129 97.6715 9.39425 96.6353 10.0235C95.413 10.7657 94.0809 11.5745 90.6757 11.5745C86.4242 11.5745 84.754 10.7866 81.8262 8.90762ZM78.0891 12.3635C79.6942 13.3457 80.3152 14.0209 80.842 15.5197C74.8545 17.591 71.7754 17.598 66.8811 15.5197C67.4324 14.6289 67.978 14.2065 69.2407 13.5471C74.2109 13.6784 76.1818 13.445 78.0891 12.3635ZM103.064 140.778C103.064 141.962 104.243 140.778 104.243 143.343C104.243 144.447 102.867 145.907 103.064 148.274C105.167 146.515 106.325 145.773 108.373 144.724C108.569 144.395 109.12 142.948 109.749 139.792C110.536 135.847 107.389 137.228 105.423 138.214C103.85 139.003 103.195 140.252 103.064 140.778ZM118.401 143.343C113.288 143.343 106.996 145.907 104.243 148.471C106.564 149.046 107.496 149.599 108.373 151.036C108.897 150.115 110.378 148.077 112.109 147.288C114.272 146.302 116.041 147.485 117.418 146.499C118.794 145.513 118.401 144.329 118.401 143.343ZM112.502 140.187C112.83 140.515 113.21 141.489 112.895 142.751L117.024 142.554C124.346 135.552 125.527 132.222 124.693 125.392C118.868 130.03 115.843 132.94 112.502 140.187ZM119.581 145.513C120.21 144.566 119.843 142.883 119.581 142.159C126.748 132.207 130.387 129.111 136.491 127.365C137.207 134.609 126.27 144.273 119.581 145.513ZM130.002 144.526C130.654 144.526 131.182 143.996 131.182 143.343C131.182 142.689 130.654 142.159 130.002 142.159C129.351 142.159 128.822 142.689 128.822 143.343C128.822 143.996 129.351 144.526 130.002 144.526ZM127.249 130.521C127.901 130.521 128.429 129.991 128.429 129.337C128.429 128.684 127.901 128.154 127.249 128.154C126.598 128.154 126.07 128.684 126.07 129.337C126.07 129.991 126.598 130.521 127.249 130.521ZM140.817 114.149C141.469 114.149 141.997 113.619 141.997 112.965C141.997 112.311 141.469 111.782 140.817 111.782C140.165 111.782 139.637 112.311 139.637 112.965C139.637 113.619 140.165 114.149 140.817 114.149ZM157.138 104.088C157.789 104.088 158.317 103.559 158.317 102.905C158.317 102.251 157.789 101.721 157.138 101.721C156.486 101.721 155.958 102.251 155.958 102.905C155.958 103.559 156.486 104.088 157.138 104.088ZM147.503 98.9598C148.154 98.9598 148.682 98.4299 148.682 97.7762C148.682 97.1225 148.154 96.5927 147.503 96.5927C146.851 96.5927 146.323 97.1225 146.323 97.7762C146.323 98.4299 146.851 98.9598 147.503 98.9598ZM149.076 84.1654C149.727 84.1654 150.255 83.6355 150.255 82.9819C150.255 82.3282 149.727 81.7983 149.076 81.7983C148.424 81.7983 147.896 82.3282 147.896 82.9819C147.896 83.6355 148.424 84.1654 149.076 84.1654ZM153.205 61.2835C153.856 61.2835 154.385 60.7536 154.385 60.0999C154.385 59.4463 153.856 58.9164 153.205 58.9164C152.553 58.9164 152.025 59.4463 152.025 60.0999C152.025 60.7536 152.553 61.2835 153.205 61.2835ZM144.16 65.2287C144.811 65.2287 145.34 64.6988 145.34 64.0451C145.34 63.3914 144.811 62.8616 144.16 62.8616C143.508 62.8616 142.98 63.3914 142.98 64.0451C142.98 64.6988 143.508 65.2287 144.16 65.2287ZM149.272 47.6727C149.924 47.6727 150.452 47.1428 150.452 46.4892C150.452 45.8355 149.924 45.3056 149.272 45.3056C148.621 45.3056 148.092 45.8355 148.092 46.4892C148.092 47.1428 148.621 47.6727 149.272 47.6727ZM141.21 42.1495C141.862 42.1495 142.39 41.6196 142.39 40.9659C142.39 40.3123 141.862 39.7824 141.21 39.7824C140.559 39.7824 140.03 40.3123 140.03 40.9659C140.03 41.6196 140.559 42.1495 141.21 42.1495ZM127.643 38.0071C128.294 38.0071 128.822 37.4772 128.822 36.8235C128.822 36.1699 128.294 35.64 127.643 35.64C126.991 35.64 126.463 36.1699 126.463 36.8235C126.463 37.4772 126.991 38.0071 127.643 38.0071ZM113.682 22.4237C114.333 22.4237 114.861 21.8938 114.861 21.2401C114.861 20.5865 114.333 20.0566 113.682 20.0566C113.03 20.0566 112.502 20.5865 112.502 21.2401C112.502 21.8938 113.03 22.4237 113.682 22.4237ZM97.9511 14.3361C98.6027 14.3361 99.1309 13.8062 99.1309 13.1526C99.1309 12.4989 98.6027 11.969 97.9511 11.969C97.2995 11.969 96.7713 12.4989 96.7713 13.1526C96.7713 13.8062 97.2995 14.3361 97.9511 14.3361ZM137.278 110.598C135.705 109.809 127.643 120.264 127.249 125.984C128.495 126.313 131.103 127.247 131.575 128.351C138.064 125.59 138.851 111.387 137.278 110.598ZM146.323 112.571C143.57 111.584 137.278 121.842 136.491 125.984C138.507 125.984 139.637 128.351 137.671 132.494C145.34 128.746 149.076 113.557 146.323 112.571ZM140.03 97.7762C138.064 101.919 139.047 104.483 138.654 110.203C139.113 109.875 140.266 109.336 141.21 109.809C142.154 110.282 143.046 111.847 143.373 112.571C143.767 111.387 144.71 108.152 145.34 104.68C146.126 100.341 144.16 94.4228 143.373 94.2256C142.587 94.0283 141.997 93.6338 140.03 97.7762ZM153.205 95.0146C151.435 94.8371 145.516 102.905 145.34 111.782C147.503 110.203 148.682 111.782 148.682 116.121C153.991 113.754 157.138 95.4091 153.205 95.0146ZM149.076 95.8036C150.255 87.5188 145.34 81.7983 141.604 80.2203C140.977 85.1346 141.109 87.8957 143.373 92.8448C144.772 92.6724 145.287 93.2603 145.929 95.0146C146.454 94.6201 147.817 94.2256 149.076 95.8036ZM155.958 96.5927C159.081 87.1285 156.548 76.2751 153.991 73.7107C152.782 73.8226 151.478 76.7859 150.788 81.0093C151.069 81.2723 151.592 82.035 151.435 82.9819C151.278 83.9287 150.646 84.8229 150.35 85.1517C150.207 87.8919 150.329 90.8812 150.845 93.831C152.777 93.9851 153.813 93.3904 155.958 96.5927ZM145.34 80.2203C141.282 75.8925 139.615 73.0156 139.441 65.8204C141.264 66.1477 142.287 66.3731 144.16 67.793C147.503 69.9628 145.929 72.1327 149.862 79.234C148.092 81.0093 146.295 78.3103 145.34 80.2203ZM155.958 75.2888C157.372 67.3427 153.991 63.4533 148.092 57.3383C145.901 64.948 146.704 69.2726 150.255 77.0641C152.66 72.1341 153.938 71.1041 155.958 75.2888ZM141.21 63.6506C137.069 59.9237 135.628 57.2269 133.935 51.8151C135.944 51.6782 137.07 51.6044 141.21 54.3795C141.4 57.0644 141.615 58.5754 142.98 61.2835C142.177 61.6046 141.777 62.0294 141.21 63.6506ZM150.35 57.3383C148.491 55.1625 147.309 55.3277 144.75 60.0999C141.903 54.1738 141.329 50.4158 141.21 43.333C143.101 43.7567 144.196 44.2557 146.323 46.4892C146.457 47.8016 146.707 48.6541 148.092 48.8563C149.583 51.5823 150.255 53.2658 150.35 57.3383ZM128.822 38.9934C133.935 38.9934 139.471 44.756 140.62 52.4069C138.706 52.5898 134.449 49.9165 131.182 46.6864C127.404 42.9503 124.735 38.536 125.086 38.0071C125.742 37.0208 126.856 38.9934 128.822 38.9934ZM141.21 37.4153C138.42 30.3062 135.385 28.2405 128.429 26.5661C129.744 34.1954 131.822 38.2421 140.03 44.7138C137.643 39.9846 139.174 39.2253 141.21 37.4153ZM133.345 26.5661C128.427 19.7904 124.534 17.7883 115.648 17.295C118.496 22.5242 120.65 25.259 127.249 29.1305C126.329 24.8229 127.676 24.4314 133.345 26.5661ZM117.811 24.199C114.859 23.8281 113.904 24.4224 112.502 25.9743C119.438 31.9484 122.951 33.6789 128.429 33.6674C128.148 32.3077 127.866 31.5434 127.249 30.7085L127.086 30.6165C123.612 28.6647 121.576 27.5208 117.811 24.199ZM114.272 18.2813C114.272 18.2813 109.356 18.8731 105.62 17.295C99.9174 14.8864 102.277 11.969 98.3443 10.3707C106.637 8.43689 110.951 9.82028 118.204 15.5197C116.013 15.7372 114.405 15.3616 114.272 18.2813ZM96.7713 18.8731C101.736 21.9805 104.971 23.14 112.305 23.2127C111.386 22.6556 111.119 22.0914 110.929 21.0429C106.047 20.0676 103.786 19.0471 101.294 15.7169C98.5694 15.9991 97.6557 16.5173 96.7713 18.8731ZM85.5632 12.3635C83.9582 13.3457 83.3371 14.0209 82.8103 15.5197C88.7978 17.591 91.877 17.598 96.7713 15.5197C96.22 14.6289 95.6743 14.2065 94.4117 13.5471C89.4414 13.6784 87.4706 13.445 85.5632 12.3635Z" fill="#6F6C6C"/>
<path fill-rule="evenodd" clip-rule="evenodd" d="M81.8262 6.73397C88.9857 3.65858 93.4386 4.02894 100.704 8.8129C98.6289 8.8129 97.6715 9.39425 96.6353 10.0235C95.413 10.7657 94.0809 11.5745 90.6757 11.5745C86.4242 11.5745 84.754 10.7866 81.8262 8.90762C82.1846 8.67758 82.5619 8.43118 82.9651 8.16787C83.2289 7.99565 83.5037 7.8162 83.7915 7.62935C83.1127 7.30443 82.4589 7.00574 81.8262 6.73397ZM81.8262 6.73397C81.1935 7.00574 80.5396 7.30443 79.8609 7.62935C80.1487 7.8162 80.4235 7.99565 80.6872 8.16787C81.0904 8.43118 81.4677 8.67758 81.8262 8.90762C78.8984 10.7866 77.2282 11.5745 72.9767 11.5745C69.5714 11.5745 68.2394 10.7657 67.0171 10.0235C65.9808 9.39425 65.0234 8.8129 62.9484 8.8129C70.2138 4.02894 74.6666 3.65858 81.8262 6.73397Z" fill="#CBC5C5"/>
<path d="M81.8262 6.73397C81.1935 7.00574 80.5396 7.30443 79.8609 7.62935C80.1487 7.8162 80.4235 7.99565 80.6872 8.16787C81.0904 8.43118 81.4677 8.67758 81.8262 8.90762C82.1846 8.67758 82.5619 8.43118 82.9651 8.16787C83.2289 7.99565 83.5037 7.8162 83.7915 7.62935C83.1127 7.30443 82.4589 7.00574 81.8262 6.73397Z" fill="#6F6C6C"/>
<path d="M84.7578 155.77C84.7761 156.737 84.8314 157.709 84.9256 158.729C85.3785 160.051 95.3272 161.374 100.736 163.858L101.687 162.082C98.7376 162.674 89.6925 156.165 84.7578 155.77Z" fill="#6F6C6C"/>
<path d="M78.7268 158.729C78.8209 157.709 78.8762 156.737 78.8946 155.77C73.9599 156.165 64.9147 162.674 61.9653 162.082L62.9167 163.858C68.3252 161.374 78.2739 160.051 78.7268 158.729Z" fill="#6F6C6C"/>
<path fill-rule="evenodd" clip-rule="evenodd" d="M56.6981 79.4646H56.6986V88.0109C56.6986 106.783 71.8627 122 90.5685 122C109.274 122 124.438 106.783 124.438 88.0109H119.15V87.0898H110.31C109.83 76.5648 101.175 68.1795 90.5685 68.1795H83.6874V79.4646H90.5685C95.272 79.4646 99.0849 83.2909 99.0849 88.0109C99.0849 92.7309 95.272 96.5573 90.5685 96.5573C85.865 96.5573 82.0521 92.7309 82.0521 88.0109H82.0517V49.3618L70.8066 34V87.1067L67.9436 87.1137V34L56.6986 49.3618V54.0219V65.3069V68.1795H56.6981V79.4646ZM112.35 105.366L115.737 99.4774L106.93 94.3748C107.155 93.7227 107.343 93.0532 107.49 92.3687H117.585V88.6598H103.264C103.264 95.7437 97.5413 101.486 90.4822 101.486C83.4232 101.486 77.7006 95.7437 77.7006 88.6598L63.0251 88.6957L63.0251 92.0955L73.4175 92.0955C73.5671 92.8481 73.765 93.5833 74.0076 94.2976L65.0246 99.5022L68.4125 105.391L77.405 100.181C77.9065 100.754 78.4448 101.293 79.0161 101.796L73.8346 110.802L79.7026 114.202L84.8824 105.199C85.5998 105.443 86.3383 105.642 87.0943 105.792V116.167H93.8701V105.792C94.6214 105.643 95.3553 105.446 96.0685 105.203L101.246 114.202L107.114 110.802L101.938 101.805C102.493 101.318 103.016 100.796 103.506 100.242L112.35 105.366Z" fill="#CBC5C5"/>
<path d="M55.0624 79.4646V68.1795H39.4385V79.4646H55.0624Z" fill="#CBC5C5"/>
</svg>
