<svg width="164" height="124" viewBox="0 0 164 124" fill="none" xmlns="http://www.w3.org/2000/svg">
<path d="M0.4375 22C0.4375 9.84974 10.2804 0 22.4223 0H141.34C153.482 0 163.325 9.84974 163.325 22V102C163.325 114.15 153.482 124 141.34 124H22.4223C10.2804 124 0.4375 114.15 0.4375 102V22Z" fill="#C5A869"/>
<path fill-rule="evenodd" clip-rule="evenodd" d="M141.34 11H22.4223C16.3514 11 11.4299 15.9249 11.4299 22V102C11.4299 108.075 16.3514 113 22.4223 113H141.34C147.411 113 152.333 108.075 152.333 102V22C152.333 15.9249 147.411 11 141.34 11ZM22.4223 0C10.2804 0 0.4375 9.84974 0.4375 22V102C0.4375 114.15 10.2804 124 22.4223 124H141.34C153.482 124 163.325 114.15 163.325 102V22C163.325 9.84974 153.482 0 141.34 0H22.4223Z" fill="#A68C55"/>
<path fill-rule="evenodd" clip-rule="evenodd" d="M58.2067 63.3718H58.2071V71.36C58.2071 88.9056 72.4306 103.129 89.9762 103.129C107.522 103.129 121.745 88.9056 121.745 71.36H116.785V70.499H108.493C108.043 60.6615 99.9249 52.8238 89.9762 52.8238H83.5219V63.3718H89.9762C94.388 63.3718 97.9644 66.9482 97.9644 71.36C97.9644 75.7717 94.388 79.3481 89.9762 79.3481C85.5645 79.3481 81.9881 75.7717 81.9881 71.36H81.9876V35.2352L71.4401 20.8767V70.5148L68.7547 70.5213V20.8767L58.2071 35.2352V39.5909V50.1389V52.8238H58.2067V63.3718ZM110.406 87.5815L113.584 82.0775L105.323 77.3082C105.534 76.6987 105.71 76.0729 105.848 75.4331H115.317V71.9665H101.884C101.884 78.5877 96.5165 83.9553 89.8953 83.9553C83.2741 83.9553 77.9065 78.5877 77.9065 71.9665L64.1412 72.0001L64.1412 75.1778L73.889 75.1778C74.0294 75.8812 74.2149 76.5684 74.4425 77.236L66.0167 82.1007L69.1945 87.6047L77.6292 82.7349C78.0996 83.2703 78.6044 83.7747 79.1404 84.2445L74.2802 92.6625L79.7843 95.8402L84.6428 87.425C85.3157 87.6536 86.0084 87.8395 86.7175 87.9794V97.6774H93.073V87.9794C93.7777 87.8404 94.4661 87.6559 95.1351 87.4293L99.9911 95.8402L105.495 92.6625L100.64 84.2533C101.161 83.7978 101.652 83.3097 102.111 82.7922L110.406 87.5815Z" fill="black"/>
<path d="M56.6724 63.3718V52.8238H42.0176V63.3718H56.6724Z" fill="black"/>
</svg>
