<svg width="164" height="124" viewBox="0 0 164 124" fill="none" xmlns="http://www.w3.org/2000/svg">
<path d="M0.326172 22C0.326172 9.84974 10.1691 0 22.311 0H141.229C153.371 0 163.214 9.84974 163.214 22V102C163.214 114.15 153.371 124 141.229 124H22.311C10.1691 124 0.326172 114.15 0.326172 102V22Z" fill="#C5A869"/>
<path fill-rule="evenodd" clip-rule="evenodd" d="M141.229 11H22.311C16.2401 11 11.3186 15.9249 11.3186 22V102C11.3186 108.075 16.2401 113 22.311 113H141.229C147.3 113 152.221 108.075 152.221 102V22C152.221 15.9249 147.3 11 141.229 11ZM22.311 0C10.1691 0 0.326172 9.84974 0.326172 22V102C0.326172 114.15 10.1691 124 22.311 124H141.229C153.371 124 163.214 114.15 163.214 102V22C163.214 9.84974 153.371 0 141.229 0H22.311Z" fill="#A68C55"/>
<path d="M80.4889 29.9096V21.3743H82.8645V29.9096H80.4889Z" fill="black"/>
<path fill-rule="evenodd" clip-rule="evenodd" d="M73.2673 38.654C73.2892 38.5146 73.3144 38.3764 73.343 38.2393H75.791C75.7372 38.4212 75.6916 38.6067 75.6547 38.7952H87.6988C87.6636 38.6157 87.6206 38.439 87.5701 38.2656C89.1903 38.4321 90.8953 39.3923 92.2765 41.1708H90.107C89.5833 44.9216 86.6154 47.8896 82.8645 48.4132V55.2263H80.4889V48.4132C76.7852 47.8962 73.8449 44.9959 73.2673 41.3119V38.654ZM75.6547 41.1708C76.2079 43.9916 78.6938 46.1199 81.6767 46.1199C84.6597 46.1199 87.1456 43.9916 87.6988 41.1708H75.6547Z" fill="black"/>
<path d="M61.3453 38.7952H53.7637V41.1708H62.7996V41.0091C62.7996 40.4209 62.483 39.7784 61.6116 39.0174C61.5262 38.9428 61.4373 38.8687 61.3453 38.7952Z" fill="black"/>
<path d="M62.7996 59.7728L54.5555 42.581L36.4355 80.3678H62.7996V77.9922H40.2093L54.5555 48.0751L62.7996 65.2669V59.7728Z" fill="black"/>
<path d="M62.7996 82.3474H37.5305C39.6025 93.2865 53.3076 96.4046 62.7856 92.6102C62.7949 92.4156 62.7996 92.2156 62.7996 92.0102V82.3474Z" fill="black"/>
<path d="M82.4055 100.956H95.9302V97.1948H88.0116C88.0116 95.8091 86.8238 94.8192 85.636 94.8192V73.1019H84.0523V94.8192H82.4686V73.1019H80.8849V94.8192H79.1032V73.1019H77.5195V94.8192C76.5928 94.8192 75.7866 95.4217 75.4769 96.3446C75.6085 96.4629 75.7449 96.5784 75.8858 96.6911C77.4976 97.9799 79.4681 98.693 80.9381 98.693H82.4055V100.956Z" fill="black"/>
<path d="M77.5195 65.6445H79.1032V59.7795H80.8849V65.6445H82.4686V59.7795H84.0523V65.6445H85.636V55.8202H84.0523V58.1957H79.1032V55.8202H77.5195V65.6445Z" fill="black"/>
<path d="M94.9116 71.9518L90.8759 80.3678H127.116L108.996 42.581L107.777 45.1226C108.126 46.4146 108.367 47.755 108.49 49.1295L108.996 48.0751L123.342 77.9922H94.6496L98.4671 70.0315C97.3298 70.8046 96.1365 71.4531 94.9116 71.9518Z" fill="black"/>
<path d="M106.308 41.1708H109.788V38.7952H104.975C105.464 39.5524 105.91 40.3459 106.308 41.1708Z" fill="black"/>
<path d="M91.575 82.3474C94.6496 98.5806 123.342 97.5907 125.823 82.3474H91.575Z" fill="black"/>
<path fill-rule="evenodd" clip-rule="evenodd" d="M52.4128 31.377H89.3356C99.2294 31.377 107.118 40.3141 107.118 51.2587C107.118 62.2033 97.7663 71.6344 89.3356 71.6344H71.7999V92.0102C71.7999 96.6821 77.2059 100.16 80.9381 100.16V102.63H57.3517V100.16C61.4198 100.16 64.2671 97.2981 64.2671 92.0102V41.0091C64.2671 36.2328 53.5652 34.3847 52.4128 31.377ZM71.7999 36.7719V67.112H89.3356C94.3011 67.112 96.6112 60.3552 96.6112 51.2587C96.6112 42.1622 91.9909 36.7719 87.0626 36.7719H71.7999Z" fill="black"/>
</svg>
