<svg width="164" height="124" viewBox="0 0 164 124" fill="none" xmlns="http://www.w3.org/2000/svg">
<path d="M0.775391 22C0.775391 9.84974 10.6183 0 22.7602 0H141.678C153.82 0 163.663 9.84974 163.663 22V102C163.663 114.15 153.82 124 141.678 124H22.7602C10.6183 124 0.775391 114.15 0.775391 102V22Z" fill="#C5A869"/>
<path fill-rule="evenodd" clip-rule="evenodd" d="M141.678 11H22.7602C16.6893 11 11.7678 15.9249 11.7678 22V102C11.7678 108.075 16.6893 113 22.7602 113H141.678C147.749 113 152.671 108.075 152.671 102V22C152.671 15.9249 147.749 11 141.678 11ZM22.7602 0C10.6183 0 0.775391 9.84974 0.775391 22V102C0.775391 114.15 10.6183 124 22.7602 124H141.678C153.82 124 163.663 114.15 163.663 102V22C163.663 9.84974 153.82 0 141.678 0H22.7602Z" fill="#A68C55"/>
<path d="M102.58 86.763H110.651L93.1014 57.9641L90.4187 53.5618L89.3009 51.7275L87.5125 48.7926L82.0353 39.8044L76.5582 48.7926L74.7697 51.7275L73.6519 53.5618L70.9692 57.9641L53.4199 86.763H61.4909L82.0353 52.2778L102.58 86.763Z" fill="black"/>
<path d="M93.1014 57.9641H115.053L116.704 53.5618H90.4187L93.1014 57.9641Z" fill="black"/>
<path d="M89.3009 51.7275H123.858L125.876 47.5085H88.0886L87.5125 48.7926L89.3009 51.7275Z" fill="black"/>
<path d="M88.8223 46.0411L91.3904 41.8221H133.58L131.745 46.0411H88.8223Z" fill="black"/>
<path d="M93.1014 39.8044L95.2424 35.5854H142.751L140.917 39.8044H93.1014Z" fill="black"/>
<path d="M49.0176 57.9641H70.9692L73.6519 53.5618H47.3667L49.0176 57.9641Z" fill="black"/>
<path d="M40.2128 51.7275H74.7697L76.5582 48.7926L75.9821 47.5085H38.1951L40.2128 51.7275Z" fill="black"/>
<path d="M75.2483 46.0411L72.6803 41.8221H30.4909L32.3253 46.0411H75.2483Z" fill="black"/>
<path d="M70.9692 39.8044L68.8282 35.5854H21.3193L23.1537 39.8044H70.9692Z" fill="black"/>
<path fill-rule="evenodd" clip-rule="evenodd" d="M70.1122 77.4079H94.1418V87.3133H91.5738V79.976H83.4111V87.3133H80.843V79.976H72.6803V87.3133H70.1122V77.4079Z" fill="black"/>
</svg>
