<svg width="164" height="124" viewBox="0 0 164 124" fill="none" xmlns="http://www.w3.org/2000/svg">
<path d="M0.212891 22C0.212891 9.84974 10.0558 0 22.1977 0H141.116C153.258 0 163.1 9.84974 163.1 22V102C163.1 114.15 153.258 124 141.116 124H22.1977C10.0558 124 0.212891 114.15 0.212891 102V22Z" fill="#C5A869"/>
<path fill-rule="evenodd" clip-rule="evenodd" d="M141.116 11H22.1977C16.1268 11 11.2053 15.9249 11.2053 22V102C11.2053 108.075 16.1268 113 22.1977 113H141.116C147.187 113 152.108 108.075 152.108 102V22C152.108 15.9249 147.187 11 141.116 11ZM22.1977 0C10.0558 0 0.212891 9.84974 0.212891 22V102C0.212891 114.15 10.0558 124 22.1977 124H141.116C153.258 124 163.1 114.15 163.1 102V22C163.1 9.84974 153.258 0 141.116 0H22.1977Z" fill="#A68C55"/>
<path fill-rule="evenodd" clip-rule="evenodd" d="M66.4703 91.5137H96.8296V102.371H93.8947V94.4487H83.118V102.371H80.1819V94.4487H69.4053V102.371H66.4703V91.5137Z" fill="black"/>
<path fill-rule="evenodd" clip-rule="evenodd" d="M59.4135 99.4622L52.9767 95.366L77.0336 60.1198L63.3622 40.0897L68.9512 34.7513L81.6499 53.3564L94.3487 34.7513L99.9377 40.0897L86.2663 60.1198L110.323 95.366L103.886 99.4622L81.6499 66.8833L59.4135 99.4622ZM101.051 38.4591L95.4621 33.1199C94.4487 32.2535 93.3579 31.3552 92.183 30.4123L97.4495 23.9754C98.4407 24.7044 99.3897 25.3837 100.312 26.0143L106.943 29.8258C111.647 31.9058 116.683 32.653 124.367 32.1678C123.197 42.7008 117.93 49.7229 107.983 52.6487C106.801 46.7471 104.824 42.6623 101.051 38.4591ZM107.938 28.3679L109.738 25.7309L103.301 21.6348L101.287 24.5863L107.938 28.3679ZM55.3173 52.6487C56.4984 46.7471 58.4757 42.6623 62.2493 38.4591L67.8377 33.1199C68.8512 32.2535 69.942 31.3552 71.1169 30.4123L65.8504 23.9754C64.8592 24.7044 63.9102 25.3837 62.9879 26.0143L56.3567 29.8258C51.6528 31.9058 46.6172 32.653 38.9326 32.1678C40.103 42.7008 45.3695 49.7229 55.3173 52.6487ZM53.5618 25.7309L55.2067 28.1409L61.9293 24.4633L59.9987 21.6348L53.5618 25.7309Z" fill="black"/>
</svg>
