<svg width="163" height="124" viewBox="0 0 163 124" fill="none" xmlns="http://www.w3.org/2000/svg">
<path d="M0.101562 22C0.101562 9.84974 9.94451 0 22.0864 0H141.004C153.146 0 162.989 9.84974 162.989 22V102C162.989 114.15 153.146 124 141.004 124H22.0864C9.94451 124 0.101562 114.15 0.101562 102V22Z" fill="#C5A869"/>
<path fill-rule="evenodd" clip-rule="evenodd" d="M141.004 11H22.0864C16.0154 11 11.094 15.9249 11.094 22V102C11.094 108.075 16.0154 113 22.0864 113H141.004C147.075 113 151.997 108.075 151.997 102V22C151.997 15.9249 147.075 11 141.004 11ZM22.0864 0C9.94451 0 0.101562 9.84974 0.101562 22V102C0.101562 114.15 9.94451 124 22.0864 124H141.004C153.146 124 162.989 114.15 162.989 102V22C162.989 9.84974 153.146 0 141.004 0H22.0864Z" fill="#A68C55"/>
<path d="M71.2004 92.6872C71.2004 94.9322 69.3804 96.7522 67.1353 96.7522C64.8903 96.7522 63.0703 94.9322 63.0703 92.6872C63.0703 91.5252 63.5578 90.4771 64.3395 89.7363H61.5112C60.8803 91.1635 59.4521 92.1594 57.7913 92.1594C55.5463 92.1594 53.7263 90.3395 53.7263 88.0944C53.7263 87.1576 54.0432 86.2949 54.5756 85.6074L53.2331 84.8079H51.6131C51.6131 91.8428 58.9013 98.2629 63.4486 98.2629H120.01L130.475 89.7363L128.793 85.3685L126.584 86.3754C127.153 87.0748 127.494 87.9671 127.494 88.939C127.494 91.1841 125.674 93.0041 123.429 93.0041C121.423 93.0041 119.756 91.5508 119.424 89.6397L119.213 89.7363H115.192C115.974 90.4771 116.462 91.5252 116.462 92.6872C116.462 94.9322 114.642 96.7522 112.397 96.7522C110.152 96.7522 108.332 94.9322 108.332 92.6872C108.332 91.5252 108.819 90.4771 109.601 89.7363H103.877C104.659 90.4771 105.146 91.5252 105.146 92.6872C105.146 94.9322 103.326 96.7522 101.081 96.7522C98.8362 96.7522 97.0163 94.9322 97.0163 92.6872C97.0163 91.5252 97.5038 90.4771 98.2854 89.7363H92.5619C93.3435 90.4771 93.831 91.5252 93.831 92.6872C93.831 94.9322 92.011 96.7522 89.766 96.7522C87.5209 96.7522 85.7009 94.9322 85.7009 92.6872C85.7009 91.5252 86.1885 90.4771 86.9701 89.7363H81.2465C82.0282 90.4771 82.5157 91.5252 82.5157 92.6872C82.5157 94.9322 80.6957 96.7522 78.4507 96.7522C76.2056 96.7522 74.3856 94.9322 74.3856 92.6872C74.3856 91.5252 74.8731 90.4771 75.6548 89.7363H69.9312C70.7129 90.4771 71.2004 91.5252 71.2004 92.6872Z" fill="black"/>
<path d="M57.7913 90.9982C59.0275 90.9982 60.0832 90.2258 60.5022 89.1373L55.5838 86.2079C55.1497 86.7154 54.8876 87.3743 54.8876 88.0944C54.8876 89.6981 56.1876 90.9982 57.7913 90.9982Z" fill="black"/>
<path d="M70.0391 92.6872C70.0391 94.2909 68.7391 95.5909 67.1353 95.5909C65.5316 95.5909 64.2316 94.2909 64.2316 92.6872C64.2316 91.0835 65.5316 89.7834 67.1353 89.7834C68.7391 89.7834 70.0391 91.0835 70.0391 92.6872Z" fill="black"/>
<path d="M81.3544 92.6872C81.3544 94.2909 80.0544 95.5909 78.4507 95.5909C76.847 95.5909 75.5469 94.2909 75.5469 92.6872C75.5469 91.0835 76.847 89.7834 78.4507 89.7834C80.0544 89.7834 81.3544 91.0835 81.3544 92.6872Z" fill="black"/>
<path d="M92.6698 92.6872C92.6698 94.2909 91.3697 95.5909 89.766 95.5909C88.1623 95.5909 86.8622 94.2909 86.8622 92.6872C86.8622 91.0835 88.1623 89.7834 89.766 89.7834C91.3697 89.7834 92.6698 91.0835 92.6698 92.6872Z" fill="black"/>
<path d="M103.985 92.6872C103.985 94.2909 102.685 95.5909 101.081 95.5909C99.4776 95.5909 98.1775 94.2909 98.1775 92.6872C98.1775 91.0835 99.4776 89.7834 101.081 89.7834C102.685 89.7834 103.985 91.0835 103.985 92.6872Z" fill="black"/>
<path d="M115.3 92.6872C115.3 94.2909 114 95.5909 112.397 95.5909C110.793 95.5909 109.493 94.2909 109.493 92.6872C109.493 91.0835 110.793 89.7834 112.397 89.7834C114 89.7834 115.3 91.0835 115.3 92.6872Z" fill="black"/>
<path d="M123.429 91.8428C125.033 91.8428 126.333 90.5427 126.333 88.939C126.333 88.1343 126.006 87.4061 125.477 86.8802L120.532 89.1347C120.633 90.6472 121.891 91.8428 123.429 91.8428Z" fill="black"/>
<path d="M53.8513 84.2327H60.1937V87.7239L53.8513 84.2327Z" fill="black"/>
<path d="M61.2992 84.2327V87.7239H66.4954V84.2327H61.2992Z" fill="black"/>
<path d="M67.6416 84.2327V87.7239H73.9258V84.2327H67.6416Z" fill="black"/>
<path d="M75.2641 84.2327V87.7239H119.079L128.721 84.2327H75.2641Z" fill="black"/>
<path d="M32.623 71.7444H51.8099L52.2152 70.7249H56.587V71.7444H68.1641L86.3798 67.0486H113.339V75.3875H102.329V77.3305H128.721V83.2405H52.2152L68.1641 78.0591L66.4954 75.6377H32.623V71.7444Z" fill="black"/>
<path fill-rule="evenodd" clip-rule="evenodd" d="M67.1939 64.8965L63.0387 62.2523L78.5683 39.4997L69.743 26.5695L73.3509 23.1234L81.5483 35.1336L89.7458 23.1234L93.3537 26.5695L84.5283 39.4997L100.058 62.2523L95.9027 64.8965L81.5483 43.8657L67.1939 64.8965ZM94.0721 25.5169L90.4646 22.0703C89.8104 21.511 89.1062 20.9311 88.3478 20.3224L91.7475 16.1672C92.3873 16.6378 92.9999 17.0763 93.5953 17.4834L97.876 19.9438C100.912 21.2865 104.163 21.7689 109.124 21.4557C108.368 28.2551 104.969 32.7881 98.5469 34.6768C97.7845 30.8671 96.5081 28.2303 94.0721 25.5169ZM98.5183 19.0027L99.6802 17.3005L95.5249 14.6562L94.2245 16.5616L98.5183 19.0027ZM64.5497 34.6768C65.3121 30.8671 66.5885 28.2303 69.0245 25.5169L72.6321 22.0703C73.2863 21.511 73.9904 20.9311 74.7489 20.3224L71.3492 16.1672C70.7093 16.6378 70.0967 17.0763 69.5013 17.4834L65.2207 19.9438C62.1841 21.2865 58.9334 21.7689 53.9728 21.4557C54.7283 28.2551 58.128 32.7881 64.5497 34.6768ZM63.4165 17.3005L64.4783 18.8562L68.818 16.4822L67.5717 14.6562L63.4165 17.3005Z" fill="black"/>
</svg>
