<svg width="164" height="124" viewBox="0 0 164 124" fill="none" xmlns="http://www.w3.org/2000/svg">
<path d="M0.988281 22C0.988281 9.84974 10.8312 0 22.9731 0H141.891C154.033 0 163.876 9.84974 163.876 22V102C163.876 114.15 154.033 124 141.891 124H22.9731C10.8312 124 0.988281 114.15 0.988281 102V22Z" fill="#C5A869"/>
<path fill-rule="evenodd" clip-rule="evenodd" d="M141.891 11H22.9731C16.9022 11 11.9807 15.9249 11.9807 22V102C11.9807 108.075 16.9022 113 22.9731 113H141.891C147.962 113 152.883 108.075 152.883 102V22C152.883 15.9249 147.962 11 141.891 11ZM22.9731 0C10.8312 0 0.988281 9.84974 0.988281 22V102C0.988281 114.15 10.8312 124 22.9731 124H141.891C154.033 124 163.876 114.15 163.876 102V22C163.876 9.84974 154.033 0 141.891 0H22.9731Z" fill="#A68C55"/>
<path fill-rule="evenodd" clip-rule="evenodd" d="M104.309 97.036C104.309 91.7046 102.502 85.2023 99.3075 78.2903C96.1039 71.3587 91.4648 63.9292 85.7029 56.7217C74.189 42.3191 58.1025 28.6938 39.8373 21.7197C39.8373 21.721 39.0583 21.5565 38.1235 22.109C37.0149 22.7656 36.8595 24.0614 37.125 25.1606C37.5421 26.8869 39.0734 28.8631 41.6095 30.1776C41.2292 30.3894 40.901 30.6381 40.6313 30.9263C39.797 31.8179 39.6488 32.9482 40.025 34.0565C40.3832 35.1115 41.2084 36.1537 42.331 37.1176C43.28 37.9326 44.4845 38.7287 45.9124 39.4646C45.642 40.0903 45.5004 40.7345 45.5038 41.3868C45.5088 42.3608 45.8371 43.2833 46.4287 44.1183C47.425 45.5247 49.1757 46.7006 51.5188 47.6032C50.4077 49.2785 49.9939 51.1514 50.9497 52.8439C51.9452 54.6068 54.2455 55.7895 57.7562 56.3245C57.2558 57.8011 57.2579 59.301 58.3242 60.5984C59.3546 61.852 61.2523 62.7216 64.0704 63.291C63.5587 63.8618 63.167 64.4342 62.9119 65.0067C62.4448 66.055 62.4332 67.127 63.0029 68.0846C63.5404 68.9882 64.5159 69.6526 65.7261 70.1391C66.7365 70.5454 67.9807 70.8562 69.4363 71.0719C69.2722 72.574 69.5407 73.8963 70.3441 75.0035C71.2928 76.311 72.8722 77.1543 74.8713 77.725C78.6955 78.8166 84.6111 79.0559 92.4324 79.0729C93.9529 83.2358 94.5414 87.4356 94.5414 91.9641V92.9693L95.5171 93.2106C98.1822 93.8697 100.334 95.3887 101.967 97.7635L104.309 101.17V97.036ZM91.3451 76.4462C89.0054 71.3978 85.1536 66.2416 79.0742 60.5023L80.8371 58.635C87.0766 64.5254 91.1596 69.9386 93.6751 75.3663C96.0545 80.5005 97.0016 85.5837 97.1006 90.9936C98.7263 91.5218 100.184 92.3313 101.465 93.4042C100.877 89.2897 99.3531 84.5101 96.9764 79.3677C93.8706 72.6478 89.3473 65.3931 83.697 58.3253C72.3867 44.1773 56.7875 30.4567 39.0583 23.6872C38.9594 23.7458 38.7283 23.9857 38.908 24.7298C39.2569 26.1739 41.0533 28.4265 44.6253 29.383L44.5218 31.1763C43.1083 31.3846 42.3344 31.7909 41.9707 32.1796C41.6665 32.5048 41.5694 32.8995 41.762 33.4668C41.9727 34.0873 42.5304 34.8711 43.526 35.726C44.5087 36.5699 45.8609 37.4336 47.5584 38.2303C49.349 39.0706 51.5075 39.8286 53.9904 40.4084L53.5733 42.1947C51.3266 41.67 49.3156 41.0017 47.5725 40.2482C47.4083 40.6465 47.3362 41.0234 47.3381 41.3772C47.3409 41.9262 47.5218 42.4882 47.9254 43.0579C48.7536 44.2268 50.499 45.3899 53.2953 46.2837C54.7206 46.7392 56.3931 47.1164 58.3081 47.3888L58.0498 49.2048C56.3045 48.9566 54.7298 48.6219 53.3338 48.2135C52.1809 49.7128 52.0159 51.0016 52.5469 51.9419C53.1854 53.0725 55.0752 54.2332 59.1653 54.6548C60.3538 54.7773 61.7091 54.835 63.2434 54.8147L63.2676 56.6489C61.9429 56.6664 60.7329 56.6281 59.6326 56.5395C59.0938 57.8395 59.1706 58.7393 59.7413 59.4336C60.5011 60.3581 62.3506 61.2476 66.1579 61.7851C67.0254 61.9075 67.9847 62.0105 69.0426 62.0925L68.9008 63.9214C67.9723 63.8494 67.1106 63.7612 66.3125 63.6571C65.3923 64.4646 64.847 65.1706 64.5874 65.7532C64.3179 66.3582 64.3667 66.7892 64.5794 67.1468C64.8243 67.5584 65.3764 68.0215 66.4103 68.4372C67.4296 68.847 68.822 69.172 70.5984 69.3738C71.9242 69.5244 73.4485 69.6047 75.1675 69.6047V71.4391C73.7482 71.4391 72.4436 71.3861 71.258 71.283C71.1329 72.4393 71.3588 73.2786 71.8288 73.9263C72.4266 74.7502 73.542 75.4379 75.3748 75.9611C78.8052 76.9404 84.2148 77.2044 91.6994 77.2362C91.5852 76.9729 91.4672 76.7096 91.3451 76.4462Z" fill="black"/>
<path d="M106.308 53.5378C111.986 47.9399 119.32 46.5762 124.115 51.1679C125.659 50.2249 127.428 50.5566 128.413 51.5377C129.399 52.5188 129.791 54.9722 128.718 56.2324C127.645 57.4926 125.283 57.4926 124.115 56.5865C122.947 55.6804 122.379 54.2791 122.637 52.6574C118.677 49.75 113.976 50.1512 107.585 54.4715C106.744 55.0406 105.676 54.1613 106.308 53.5378Z" fill="black"/>
<path fill-rule="evenodd" clip-rule="evenodd" d="M92.8715 58.2144C97.8598 73.9973 117.502 68.2691 117.502 57.4926C113.448 60.2997 108.46 59.6174 101.835 53.5378C99.1245 56.3346 97.2204 57.4413 92.8715 58.2144ZM102.432 60.9681C100.069 59.9951 96.8025 61.2462 97.15 61.9412C97.4976 62.6363 101.251 62.2887 103.266 63.2618C105.282 64.2349 109.591 61.5937 109.105 60.9681C108.618 60.3426 104.796 61.9412 102.432 60.9681Z" fill="black"/>
<path fill-rule="evenodd" clip-rule="evenodd" d="M100.069 51.1679C101.796 49.2408 102.861 50.3652 104.796 52.9056C105.63 50.2655 113.136 45.9086 113.136 41.5067C113.136 37.1049 110.634 33.7932 110.634 29.8994C110.634 26.0056 114.179 26.1476 113.831 21.6978C102.432 21.6978 98.4011 33.0977 100.069 51.1679ZM103.818 35.6129C103.818 33.6581 104.745 29.1284 105.671 29.3137C106.597 29.499 106.626 33.0911 106.032 34.4494C105.438 35.8077 107.585 38.0832 107.585 39.5653C107.585 41.0475 105.671 45.4322 104.796 45.3705C103.92 45.3087 105.3 41.8503 105.3 40.1639C105.3 38.4774 103.818 37.5677 103.818 35.6129Z" fill="black"/>
<path d="M88.6254 55.6676L90.2549 57.4926C95.3669 51.8432 96.8381 43.2181 95.4693 40.1639C96.1211 38.851 93.6442 35.071 91.754 35.071C89.8638 35.071 87.5825 35.7876 87.5825 38.3948C87.5825 41.002 89.929 43.2181 91.2978 43.2181C92.6665 43.2181 93.6442 42.6315 93.6442 42.6315C94.4916 46.9991 92.471 51.692 88.6254 55.6676Z" fill="black"/>
<path d="M73.7285 40.1639L79.8046 45.9086C79.8046 43.257 82.2903 41.7656 85.3836 42.2629C85.0522 39.7218 82.4008 37.5666 79.8046 37.5677C77.2084 37.5688 73.7285 40.1639 73.7285 40.1639Z" fill="black"/>
<path fill-rule="evenodd" clip-rule="evenodd" d="M35.5049 77.1139C35.8416 88.459 45.1293 96.3691 45.1293 98.2437C45.1293 100.118 44.2886 102.898 46.6803 102.187C47.5855 101.918 46.2278 100.247 46.1632 96.6923C46.0985 93.1371 49.2659 87.7073 49.3952 81.6957C49.6135 71.5436 42.608 68.9148 42.608 62.6915C42.608 59.8315 41.1088 57.7492 40.0224 60.2998C38.5356 63.7903 35.5049 65.6156 35.5049 77.1139ZM42.1133 73.0151C42.1133 71.0941 41.1674 69.3406 40.6945 68.7039C40.3125 69.8317 39.5485 72.4693 39.5485 73.9973C39.5485 77.4354 44.6782 79.5637 44.6782 83.8748C44.6782 86.7671 44.1143 88.2393 43.9688 89.332C44.6093 89.0409 46.1632 87.6075 46.1632 84.2023C46.1632 77.9265 42.1133 77.8174 42.1133 73.0151Z" fill="black"/>
<path d="M66.9435 85.5665C70.3815 85.5665 71.8549 87.7494 71.8549 89.7686C71.8549 91.7877 70.4361 94.107 67.5165 94.107C64.5969 94.107 62.9635 92.324 62.1957 90.5326C56.7386 90.5326 51.9199 95.002 50.6265 98.882C50.19 100.192 49.0916 100.199 49.3952 98.4455C50.2397 93.5688 57.83 87.4765 62.5777 88.186C63.4509 86.7125 65.4155 85.5665 66.9435 85.5665Z" fill="black"/>
<path fill-rule="evenodd" clip-rule="evenodd" d="M49.3952 70.0153C49.3952 68.9662 49.9671 68.1186 50.253 67.8259C49.6305 67.348 48.8102 66.3198 48.8102 64.8395C48.8102 62.9892 50.575 60.2998 51.7985 60.2998C54.0628 60.2998 54.8894 63.0972 54.8894 65.2222C54.8894 67.3472 52.8932 69.0678 52.056 68.8746C51.5375 69.7796 51.5551 72.6374 52.056 73.9973C52.7062 75.7621 53.7845 76.8057 54.8894 76.8057C56.7413 76.8057 60.2198 72.1065 60.3937 70.4052C64.2897 71.0313 70.1336 75.4143 72.2555 80.0059C70.5162 81.2956 65.9942 83.8748 61.8199 83.8748C54.8894 83.8748 49.3952 77.4666 49.3952 70.0153ZM63.2809 78.8928C64.3661 78.4406 66.7246 77.0144 66.3072 76.4578C65.9942 76.11 63.2809 77.084 62.1957 77.5362C61.1106 77.9884 58.1675 79.4146 58.3762 80.0059C58.5849 80.5973 62.1957 79.345 63.2809 78.8928Z" fill="black"/>
</svg>
