<svg width="164" height="168" viewBox="0 0 164 168" fill="none" xmlns="http://www.w3.org/2000/svg">
<path d="M78.411 162.871C73.9878 162.674 70.4484 163.858 68.4821 165.238C66.5158 166.619 65.7293 168 64.5495 168C63.3697 168 60.6168 166.619 60.6168 165.436C61.2215 164.861 62.0967 164.338 63.1413 163.858C68.5498 161.374 78.4985 160.051 78.9514 158.729C78.8334 160.007 78.6545 161.36 78.411 162.871Z" fill="#CBC5C5"/>
<path d="M78.9514 151.228C78.9525 151.242 78.9537 151.255 78.9548 151.269C79.0725 152.937 75.547 149.038 73.7912 145.907C72.0215 142.751 71.0383 144.724 68.8754 145.907C66.7124 147.091 64.1562 146.696 64.5495 148.077C64.9427 149.458 70.0552 149.852 71.0383 149.852C72.0215 149.852 75.7575 149.852 75.9542 151.036C76.1508 152.219 70.6451 153.206 69.6619 153.206C68.6787 153.206 65.7293 151.825 63.7629 150.247C61.7966 148.669 61.4033 145.513 61.4033 143.343C61.4033 141.173 61.4033 141.173 64.1562 141.173C66.7124 141.173 69.072 138.411 72.2181 138.411C73.9878 140.581 77.5272 143.935 78.9514 151.228Z" fill="#CBC5C5"/>
<path d="M59.6336 143.343C59.6336 140.778 60.8134 141.962 60.8134 140.778C60.6823 140.252 60.0269 139.003 58.4538 138.214C56.4875 137.228 53.3414 135.847 54.1279 139.792C54.7571 142.948 55.3077 144.395 55.5043 144.724C57.5515 145.773 58.7099 146.515 60.8134 148.274C61.0101 145.907 59.6336 144.447 59.6336 143.343Z" fill="#CBC5C5"/>
<path d="M59.6336 148.471C56.8808 145.907 50.5885 143.343 45.4761 143.343C45.4761 144.329 45.0828 145.513 46.4592 146.499C47.8357 147.485 49.6054 146.302 51.7683 147.288C53.4987 148.077 54.98 150.115 55.5043 151.036C56.3812 149.599 57.3134 149.046 59.6336 148.471Z" fill="#CBC5C5"/>
<path d="M49.6054 153.206C51.0211 152.732 51.3751 149.852 51.3751 148.471C48.6222 146.499 47.639 150.247 39.7737 145.513C39.0806 146.941 39.1126 147.809 39.3805 151.228C40.6392 152.43 41.4577 153.014 43.3131 153.797C44.0591 149.23 45.259 147.912 49.6054 149.063C48.3864 150.705 48.3526 151.564 49.6054 153.206Z" fill="#CBC5C5"/>
<path d="M62.1899 162.082C62.1899 161.096 60.0269 158.729 59.2404 158.729C58.4538 158.729 56.2909 162.871 52.9481 162.871C50.5844 162.871 46.8443 161.885 44.8562 159.912C44.4013 157.465 44.3761 155.77 44.616 154.587C45.014 152.624 46.1416 152.071 47.2458 151.825C47.2458 153.403 49.9986 155.178 51.7683 155.178C54.3246 155.178 57.8639 149.852 58.8471 149.852C59.8303 149.852 62.7798 152.022 63.3697 155.178C68.0888 155.376 74.5777 153.206 79.0918 153.403C79.1246 154.203 79.1341 154.985 79.1192 155.77C74.1845 156.165 65.1394 162.674 62.1899 162.082Z" fill="#CBC5C5"/>
<path d="M50.9818 142.751C50.6672 141.489 51.0473 140.515 51.3751 140.187C48.0344 132.94 45.0089 130.03 39.1838 125.392C38.3499 132.222 39.5313 135.552 46.8525 142.554L50.9818 142.751Z" fill="#CBC5C5"/>
<path d="M32.695 143.343C32.695 143.996 33.2232 144.526 33.8747 144.526C34.5263 144.526 35.0545 143.996 35.0545 143.343C35.0545 142.689 34.5263 142.159 33.8747 142.159C33.2232 142.159 32.695 142.689 32.695 143.343Z" fill="#CBC5C5"/>
<path d="M35.4478 129.337C35.4478 129.991 35.976 130.521 36.6276 130.521C37.2792 130.521 37.8074 129.991 37.8074 129.337C37.8074 128.684 37.2792 128.154 36.6276 128.154C35.976 128.154 35.4478 128.684 35.4478 129.337Z" fill="#CBC5C5"/>
<path d="M21.8801 112.965C21.8801 113.619 22.4084 114.149 23.0599 114.149C23.7115 114.149 24.2397 113.619 24.2397 112.965C24.2397 112.311 23.7115 111.782 23.0599 111.782C22.4084 111.782 21.8801 112.311 21.8801 112.965Z" fill="#CBC5C5"/>
<path d="M5.55963 102.905C5.55963 103.559 6.08784 104.088 6.73942 104.088C7.39101 104.088 7.91922 103.559 7.91922 102.905C7.91922 102.251 7.39101 101.721 6.73942 101.721C6.08784 101.721 5.55963 102.251 5.55963 102.905Z" fill="#CBC5C5"/>
<path d="M15.1946 97.7762C15.1946 98.4299 15.7228 98.9598 16.3744 98.9598C17.026 98.9598 17.5542 98.4299 17.5542 97.7762C17.5542 97.1225 17.026 96.5927 16.3744 96.5927C15.7228 96.5927 15.1946 97.1225 15.1946 97.7762Z" fill="#CBC5C5"/>
<path d="M13.6216 82.9819C13.6216 83.6355 14.1498 84.1654 14.8014 84.1654C15.4529 84.1654 15.9812 83.6355 15.9812 82.9819C15.9812 82.3282 15.4529 81.7983 14.8014 81.7983C14.1498 81.7983 13.6216 82.3282 13.6216 82.9819Z" fill="#CBC5C5"/>
<path d="M9.49228 60.0999C9.49228 60.7536 10.0205 61.2835 10.6721 61.2835C11.3237 61.2835 11.8519 60.7536 11.8519 60.0999C11.8519 59.4463 11.3237 58.9164 10.6721 58.9164C10.0205 58.9164 9.49228 59.4463 9.49228 60.0999Z" fill="#CBC5C5"/>
<path d="M18.5374 64.0451C18.5374 64.6988 19.0656 65.2287 19.7172 65.2287C20.3688 65.2287 20.897 64.6988 20.897 64.0451C20.897 63.3914 20.3688 62.8616 19.7172 62.8616C19.0656 62.8616 18.5374 63.3914 18.5374 64.0451Z" fill="#CBC5C5"/>
<path d="M13.4249 46.4892C13.4249 47.1428 13.9531 47.6727 14.6047 47.6727C15.2563 47.6727 15.7845 47.1428 15.7845 46.4892C15.7845 45.8355 15.2563 45.3056 14.6047 45.3056C13.9531 45.3056 13.4249 45.8355 13.4249 46.4892Z" fill="#CBC5C5"/>
<path d="M21.4869 40.9659C21.4869 41.6196 22.0151 42.1495 22.6667 42.1495C23.3183 42.1495 23.8465 41.6196 23.8465 40.9659C23.8465 40.3123 23.3183 39.7824 22.6667 39.7824C22.0151 39.7824 21.4869 40.3123 21.4869 40.9659Z" fill="#CBC5C5"/>
<path d="M35.0545 36.8235C35.0545 37.4772 35.5828 38.0071 36.2343 38.0071C36.8859 38.0071 37.4141 37.4772 37.4141 36.8235C37.4141 36.1699 36.8859 35.64 36.2343 35.64C35.5828 35.64 35.0545 36.1699 35.0545 36.8235Z" fill="#CBC5C5"/>
<path d="M49.0155 21.2401C49.0155 21.8938 49.5437 22.4237 50.1953 22.4237C50.8468 22.4237 51.3751 21.8938 51.3751 21.2401C51.3751 20.5865 50.8468 20.0566 50.1953 20.0566C49.5437 20.0566 49.0155 20.5865 49.0155 21.2401Z" fill="#CBC5C5"/>
<path d="M39.7737 14.3361C39.7737 14.9898 40.3019 15.5197 40.9535 15.5197C41.6051 15.5197 42.1333 14.9898 42.1333 14.3361C42.1333 13.6825 41.6051 13.1526 40.9535 13.1526C40.3019 13.1526 39.7737 13.6825 39.7737 14.3361Z" fill="#CBC5C5"/>
<path d="M64.7461 13.1526C64.7461 13.8062 65.2743 14.3361 65.9259 14.3361C66.5775 14.3361 67.1057 13.8062 67.1057 13.1526C67.1057 12.4989 66.5775 11.969 65.9259 11.969C65.2743 11.969 64.7461 12.4989 64.7461 13.1526Z" fill="#CBC5C5"/>
<path d="M63.9596 3.68419C63.9596 4.33785 64.4878 4.86774 65.1394 4.86774C65.7909 4.86774 66.3192 4.33785 66.3192 3.68419C66.3192 3.03054 65.7909 2.50065 65.1394 2.50065C64.4878 2.50065 63.9596 3.03054 63.9596 3.68419Z" fill="#CBC5C5"/>
<path d="M44.2963 142.159C44.0341 142.883 43.6671 144.566 44.2963 145.513C37.6071 144.273 26.6703 134.609 27.3859 127.365C33.4903 129.111 37.1294 132.207 44.2963 142.159Z" fill="#CBC5C5"/>
<path d="M36.6276 125.984C36.2343 120.264 28.1724 109.809 26.5993 110.598C25.0263 111.387 25.8128 125.59 32.3017 128.351C32.7736 127.247 35.3823 126.313 36.6276 125.984Z" fill="#CBC5C5"/>
<path d="M32.1051 140.384C28.9589 137.031 23.2566 133.677 17.9475 134.466C19.3239 139.792 27.5825 142.948 30.9253 144.526C30.532 143.343 31.1219 140.976 32.1051 140.384Z" fill="#CBC5C5"/>
<path d="M37.8074 149.852C37.2175 148.077 38.2007 146.302 37.6108 146.104C37.1389 145.947 34.268 145.776 32.8916 145.71C34.2291 147.434 35.2719 148.353 37.8074 149.852Z" fill="#CBC5C5"/>
<path d="M27.3859 125.984C26.5993 121.842 20.3071 111.584 17.5542 112.571C14.8014 113.557 18.5374 128.746 26.2061 132.494C24.2397 128.351 25.3702 125.984 27.3859 125.984Z" fill="#CBC5C5"/>
<path d="M25.2229 110.203C24.8296 104.483 25.8128 101.919 23.8465 97.7762C21.8801 93.6338 21.2902 94.0283 20.5037 94.2256C19.7172 94.4228 17.7509 100.341 18.5374 104.68C19.1666 108.152 20.1104 111.387 20.5037 112.571C20.8314 111.847 21.7228 110.282 22.6667 109.809C23.6105 109.336 24.7641 109.875 25.2229 110.203Z" fill="#CBC5C5"/>
<path d="M18.5374 111.782C18.361 102.905 12.4418 94.8371 10.6721 95.0146C6.73942 95.4091 9.88555 113.754 15.1946 116.121C15.1946 111.782 16.3744 110.203 18.5374 111.782Z" fill="#CBC5C5"/>
<path d="M24.2397 133.085C18.3408 129.337 19.5206 126.576 15.9812 123.222C13.1496 120.54 9.42674 119.475 7.91922 119.277C10.9237 127.891 14.2135 131.19 24.2397 133.085Z" fill="#CBC5C5"/>
<path d="M14.4081 119.869C13.2283 114.442 5.16636 102.905 2.80677 104.088C2.80677 106.653 7.0281 113.754 7.91922 117.699C10.908 118.015 13.4905 119.277 14.4081 119.869Z" fill="#CBC5C5"/>
<path d="M22.2734 80.2203C18.5374 81.7983 13.6216 87.5188 14.8014 95.8036C16.0598 94.2256 17.4231 94.6201 17.9475 95.0146C18.59 93.2603 19.1054 92.6724 20.5037 92.8448C22.7675 87.8957 22.9005 85.1346 22.2734 80.2203Z" fill="#CBC5C5"/>
<path d="M9.88555 73.7107C7.32932 76.2751 4.79612 87.1285 7.91922 96.5927C10.0636 93.3904 11.0996 93.9851 13.0317 93.831C13.548 90.8812 13.6704 87.8919 13.5273 85.1517C13.231 84.8229 12.5991 83.9287 12.4418 82.9819C12.2845 82.035 12.8077 81.2723 13.0889 81.0093C12.3989 76.7859 11.095 73.8226 9.88555 73.7107Z" fill="#CBC5C5"/>
<path d="M1.8236 87.1243C1.8236 92.8448 2.74527 95.8816 2.80677 102.313C3.39666 103.694 5.55963 103.497 5.16636 99.5515C5.44758 100.492 7.25128 101.396 6.93605 96.7899C6.62083 92.1842 1.8236 87.1243 1.8236 87.1243Z" fill="#CBC5C5"/>
<path d="M24.4364 65.8204C24.2621 73.0156 22.5954 75.8925 18.5374 80.2203C17.5822 78.3103 15.7845 81.0093 14.0148 79.234C17.9475 72.1327 16.3744 69.9628 19.7172 67.793C21.5896 66.3731 22.6133 66.1477 24.4364 65.8204Z" fill="#CBC5C5"/>
<path d="M15.7845 57.3383C9.88555 63.4533 6.50486 67.3427 7.91922 75.2888C9.93927 71.1041 11.2172 72.1341 13.6216 77.0641C17.1732 69.2726 17.9755 64.948 15.7845 57.3383Z" fill="#CBC5C5"/>
<path d="M5.16636 89.0969C5.85272 83.1491 6.14952 80.2203 5.55963 77.0641C4.64871 74.8731 3.72374 73.8268 1.2337 72.3299C0.284442 77.4953 0.362678 80.3813 1.2337 85.5462C3.45463 86.2633 4.11256 87.2364 5.16636 89.0969Z" fill="#CBC5C5"/>
<path d="M6.34616 75.2888C5.55963 68.7793 8.31248 65.2287 8.31248 61.2835C8.31248 57.3383 5.55963 54.9712 5.55963 54.9712C3.78206 62.0223 3.53018 65.7562 3.39666 72.3299C4.57609 72.774 5.22717 73.4615 6.34616 75.2888Z" fill="#CBC5C5"/>
<path d="M29.9421 51.8151C28.2494 57.2269 26.8076 59.9237 22.6667 63.6506C22.0997 62.0294 21.6998 61.6046 20.897 61.2835C22.2623 58.5754 22.4768 57.0644 22.6667 54.3795C26.8065 51.6044 27.9333 51.6782 29.9421 51.8151Z" fill="#CBC5C5"/>
<path d="M19.1273 60.0999C16.5675 55.3277 15.3864 55.1625 13.5273 57.3383C13.6219 53.2658 14.294 51.5823 15.7845 48.8563C17.17 48.6541 17.4203 47.8016 17.5542 46.4892C19.6814 44.2557 20.7757 43.7567 22.6667 43.333C22.5482 50.4158 21.9744 54.1738 19.1273 60.0999Z" fill="#CBC5C5"/>
<path d="M11.8519 44.1221C9.06269 46.5605 7.9341 48.6122 7.13269 54.1822C7.88897 54.8299 8.26296 55.7449 8.90238 57.7328C9.79906 56.7355 10.3172 56.5943 11.262 56.9438C13.1791 52.038 13.1817 49.2322 11.8519 44.1221Z" fill="#CBC5C5"/>
<path d="M23.2566 52.4069C24.4063 44.756 29.9421 38.9934 35.0545 38.9934C37.0209 38.9934 38.1351 37.0208 38.7906 38.0071C39.1421 38.536 36.4734 42.9503 32.695 46.6864C29.4283 49.9165 25.1712 52.5898 23.2566 52.4069Z" fill="#CBC5C5"/>
<path d="M35.4478 26.5661C28.4918 28.2405 25.457 30.3062 22.6667 37.4153C24.7034 39.2253 26.2339 39.9846 23.8465 44.7138C32.0546 38.2421 34.133 34.1954 35.4478 26.5661Z" fill="#CBC5C5"/>
<path d="M21.4869 29.1305C16.6907 33.587 14.8004 36.5575 12.6384 42.544C12.636 43.5088 12.6965 43.9981 13.2283 44.5166C14.1176 43.9986 14.8525 43.8603 16.9643 44.1221C21.0403 38.0764 21.7699 34.8154 21.4869 29.1305Z" fill="#CBC5C5"/>
<path d="M48.2289 17.295C39.3428 17.7883 35.4504 19.7904 30.532 26.5661C36.2008 24.4314 37.5476 24.8229 36.6276 29.1305C43.2272 25.259 45.3814 22.5242 48.2289 17.295Z" fill="#CBC5C5"/>
<path d="M38.5939 14.1389C38.2007 17.6895 29.1556 24.5935 22.47 34.2592C24.8296 27.3551 25.6307 26.0202 22.6667 27.9469C28.163 18.9581 31.7024 16.1937 38.5939 14.1389Z" fill="#CBC5C5"/>
<path d="M51.3751 25.9743C49.9727 24.4224 49.0177 23.8281 46.066 24.199C42.3011 27.5208 40.2653 28.6647 36.7913 30.6165L36.6276 30.7085C36.0107 31.5434 35.7294 32.3077 35.4478 33.6674C40.9256 33.6789 44.4395 31.9484 51.3751 25.9743Z" fill="#CBC5C5"/>
<path d="M58.2572 17.295C54.5212 18.8731 49.6054 18.2813 49.6054 18.2813C49.4716 15.3616 47.8645 15.7372 45.6727 15.5197C52.9257 9.82028 57.2403 8.43689 65.5326 10.3707C61.6 11.969 63.9596 14.8864 58.2572 17.295Z" fill="#CBC5C5"/>
<path d="M51.5717 23.2127C58.906 23.14 62.1412 21.9805 67.1057 18.8731C66.2213 16.5173 65.3076 15.9991 62.5831 15.7169C60.0907 19.0471 57.8303 20.0676 52.9481 21.0429C52.7579 22.0914 52.4911 22.6556 51.5717 23.2127Z" fill="#CBC5C5"/>
<path d="M62.5831 2.89516C61.9822 5.76179 61.2516 7.22155 57.274 8.8129C53.7773 9.6234 52.6665 9.01722 45.0828 14.9279C44.4478 15.3274 44.1032 15.4586 43.5098 15.5197C43.5984 13.868 43.4465 13.0898 42.9199 11.969C49.6479 6.06275 54.1285 4.51149 62.5831 2.89516Z" fill="#CBC5C5"/>
<path d="M81.0666 15.5197C80.5399 14.0209 79.9188 13.3457 78.3138 12.3635C76.4064 13.445 74.4355 13.6784 69.4653 13.5471C68.2027 14.2065 67.657 14.6289 67.1057 15.5197C72 17.598 75.0791 17.591 81.0666 15.5197Z" fill="#CBC5C5"/>
<path d="M81.0666 0.133552C80.1337 1.60732 79.4492 2.43004 77.7239 3.88145C73.491 3.61194 71.2796 3.90341 67.4989 4.86774C67.7031 3.94535 67.6515 3.42357 67.4989 2.50065C73.5928 0.082413 76.4689 -0.247386 81.0666 0.133552Z" fill="#CBC5C5"/>
<path d="M85.6906 162.871C90.1137 162.674 93.6531 163.858 95.6195 165.238C97.5858 166.619 98.3723 168 99.5521 168C100.732 168 103.485 166.619 103.485 165.436C102.88 164.861 102.005 164.338 100.96 163.858C95.5518 161.374 85.6031 160.051 85.1502 158.729C85.2681 160.007 85.447 161.36 85.6906 162.871Z" fill="#CBC5C5"/>
<path d="M85.1502 151.228C85.149 151.242 85.1479 151.255 85.1467 151.269C85.0291 152.937 88.5546 149.038 90.3104 145.907C92.0801 142.751 93.0632 144.724 95.2262 145.907C97.3891 147.091 99.9454 146.696 99.5521 148.077C99.1588 149.458 94.0464 149.852 93.0632 149.852C92.0801 149.852 88.344 149.852 88.1474 151.036C87.9508 152.219 93.4565 153.206 94.4397 153.206C95.4228 153.206 98.3723 151.825 100.339 150.247C102.305 148.669 102.698 145.513 102.698 143.343C102.698 141.173 102.698 141.173 99.9454 141.173C97.3891 141.173 95.0296 138.411 91.8834 138.411C90.1137 140.581 86.5743 143.935 85.1502 151.228Z" fill="#CBC5C5"/>
<path d="M104.468 143.343C104.468 140.778 103.288 141.962 103.288 140.778C103.419 140.252 104.075 139.003 105.648 138.214C107.614 137.228 110.76 135.847 109.974 139.792C109.344 142.948 108.794 144.395 108.597 144.724C106.55 145.773 105.392 146.515 103.288 148.274C103.091 145.907 104.468 144.447 104.468 143.343Z" fill="#CBC5C5"/>
<path d="M104.468 148.471C107.221 145.907 113.513 143.343 118.625 143.343C118.625 144.329 119.019 145.513 117.642 146.499C116.266 147.485 114.496 146.302 112.333 147.288C110.603 148.077 109.122 150.115 108.597 151.036C107.72 149.599 106.788 149.046 104.468 148.471Z" fill="#CBC5C5"/>
<path d="M114.496 153.206C113.08 152.732 112.727 149.852 112.727 148.471C115.479 146.499 116.463 150.247 124.328 145.513C125.021 146.941 124.989 147.809 124.721 151.228C123.462 152.43 122.644 153.014 120.788 153.797C120.042 149.23 118.843 147.912 114.496 149.063C115.715 150.705 115.749 151.564 114.496 153.206Z" fill="#CBC5C5"/>
<path d="M101.912 162.082C101.912 161.096 104.075 158.729 104.861 158.729C105.648 158.729 107.811 162.871 111.153 162.871C113.517 162.871 117.257 161.885 119.245 159.912C119.7 157.465 119.725 155.77 119.486 154.587C119.088 152.624 117.96 152.071 116.856 151.825C116.856 153.403 114.103 155.178 112.333 155.178C109.777 155.178 106.238 149.852 105.254 149.852C104.271 149.852 101.322 152.022 100.732 155.178C96.0127 155.376 89.5238 153.206 85.0098 153.403C84.9769 154.203 84.9675 154.985 84.9824 155.77C89.9171 156.165 98.9622 162.674 101.912 162.082Z" fill="#CBC5C5"/>
<path d="M113.12 142.751C113.434 141.489 113.054 140.515 112.727 140.187C116.067 132.94 119.093 130.03 124.918 125.392C125.752 132.222 124.57 135.552 117.249 142.554L113.12 142.751Z" fill="#CBC5C5"/>
<path d="M131.407 143.343C131.407 143.996 130.878 144.526 130.227 144.526C129.575 144.526 129.047 143.996 129.047 143.343C129.047 142.689 129.575 142.159 130.227 142.159C130.878 142.159 131.407 142.689 131.407 143.343Z" fill="#CBC5C5"/>
<path d="M128.654 129.337C128.654 129.991 128.126 130.521 127.474 130.521C126.822 130.521 126.294 129.991 126.294 129.337C126.294 128.684 126.822 128.154 127.474 128.154C128.126 128.154 128.654 128.684 128.654 129.337Z" fill="#CBC5C5"/>
<path d="M142.221 112.965C142.221 113.619 141.693 114.149 141.042 114.149C140.39 114.149 139.862 113.619 139.862 112.965C139.862 112.311 140.39 111.782 141.042 111.782C141.693 111.782 142.221 112.311 142.221 112.965Z" fill="#CBC5C5"/>
<path d="M158.542 102.905C158.542 103.559 158.014 104.088 157.362 104.088C156.711 104.088 156.182 103.559 156.182 102.905C156.182 102.251 156.711 101.721 157.362 101.721C158.014 101.721 158.542 102.251 158.542 102.905Z" fill="#CBC5C5"/>
<path d="M148.907 97.7762C148.907 98.4299 148.379 98.9598 147.727 98.9598C147.076 98.9598 146.547 98.4299 146.547 97.7762C146.547 97.1225 147.076 96.5927 147.727 96.5927C148.379 96.5927 148.907 97.1225 148.907 97.7762Z" fill="#CBC5C5"/>
<path d="M150.48 82.9819C150.48 83.6355 149.952 84.1654 149.3 84.1654C148.649 84.1654 148.12 83.6355 148.12 82.9819C148.12 82.3282 148.649 81.7983 149.3 81.7983C149.952 81.7983 150.48 82.3282 150.48 82.9819Z" fill="#CBC5C5"/>
<path d="M154.609 60.0999C154.609 60.7536 154.081 61.2835 153.43 61.2835C152.778 61.2835 152.25 60.7536 152.25 60.0999C152.25 59.4463 152.778 58.9164 153.43 58.9164C154.081 58.9164 154.609 59.4463 154.609 60.0999Z" fill="#CBC5C5"/>
<path d="M145.564 64.0451C145.564 64.6988 145.036 65.2287 144.384 65.2287C143.733 65.2287 143.205 64.6988 143.205 64.0451C143.205 63.3914 143.733 62.8616 144.384 62.8616C145.036 62.8616 145.564 63.3914 145.564 64.0451Z" fill="#CBC5C5"/>
<path d="M150.677 46.4892C150.677 47.1428 150.148 47.6727 149.497 47.6727C148.845 47.6727 148.317 47.1428 148.317 46.4892C148.317 45.8355 148.845 45.3056 149.497 45.3056C150.148 45.3056 150.677 45.8355 150.677 46.4892Z" fill="#CBC5C5"/>
<path d="M142.615 40.9659C142.615 41.6196 142.086 42.1495 141.435 42.1495C140.783 42.1495 140.255 41.6196 140.255 40.9659C140.255 40.3123 140.783 39.7824 141.435 39.7824C142.086 39.7824 142.615 40.3123 142.615 40.9659Z" fill="#CBC5C5"/>
<path d="M129.047 36.8235C129.047 37.4772 128.519 38.0071 127.867 38.0071C127.216 38.0071 126.687 37.4772 126.687 36.8235C126.687 36.1699 127.216 35.64 127.867 35.64C128.519 35.64 129.047 36.1699 129.047 36.8235Z" fill="#CBC5C5"/>
<path d="M115.086 21.2401C115.086 21.8938 114.558 22.4237 113.906 22.4237C113.255 22.4237 112.727 21.8938 112.727 21.2401C112.727 20.5865 113.255 20.0566 113.906 20.0566C114.558 20.0566 115.086 20.5865 115.086 21.2401Z" fill="#CBC5C5"/>
<path d="M124.328 14.3361C124.328 14.9898 123.8 15.5197 123.148 15.5197C122.496 15.5197 121.968 14.9898 121.968 14.3361C121.968 13.6825 122.496 13.1526 123.148 13.1526C123.8 13.1526 124.328 13.6825 124.328 14.3361Z" fill="#CBC5C5"/>
<path d="M99.3555 13.1526C99.3555 13.8062 98.8273 14.3361 98.1757 14.3361C97.5241 14.3361 96.9959 13.8062 96.9959 13.1526C96.9959 12.4989 97.5241 11.969 98.1757 11.969C98.8273 11.969 99.3555 12.4989 99.3555 13.1526Z" fill="#CBC5C5"/>
<path d="M100.142 3.68419C100.142 4.33785 99.6138 4.86774 98.9622 4.86774C98.3106 4.86774 97.7824 4.33785 97.7824 3.68419C97.7824 3.03054 98.3106 2.50065 98.9622 2.50065C99.6138 2.50065 100.142 3.03054 100.142 3.68419Z" fill="#CBC5C5"/>
<path d="M119.805 142.159C120.067 142.883 120.435 144.566 119.805 145.513C126.494 144.273 137.431 134.609 136.716 127.365C130.611 129.111 126.972 132.207 119.805 142.159Z" fill="#CBC5C5"/>
<path d="M127.474 125.984C127.867 120.264 135.929 109.809 137.502 110.598C139.075 111.387 138.289 125.59 131.8 128.351C131.328 127.247 128.719 126.313 127.474 125.984Z" fill="#CBC5C5"/>
<path d="M131.997 140.384C135.143 137.031 140.845 133.677 146.154 134.466C144.778 139.792 136.519 142.948 133.176 144.526C133.57 143.343 132.98 140.976 131.997 140.384Z" fill="#CBC5C5"/>
<path d="M126.294 149.852C126.884 148.077 125.901 146.302 126.491 146.104C126.963 145.947 129.834 145.776 131.21 145.71C129.872 147.434 128.83 148.353 126.294 149.852Z" fill="#CBC5C5"/>
<path d="M136.716 125.984C137.502 121.842 143.794 111.584 146.547 112.571C149.3 113.557 145.564 128.746 137.895 132.494C139.862 128.351 138.731 125.984 136.716 125.984Z" fill="#CBC5C5"/>
<path d="M138.879 110.203C139.272 104.483 138.289 101.919 140.255 97.7762C142.221 93.6338 142.811 94.0283 143.598 94.2256C144.384 94.4228 146.351 100.341 145.564 104.68C144.935 108.152 143.991 111.387 143.598 112.571C143.27 111.847 142.379 110.282 141.435 109.809C140.491 109.336 139.337 109.875 138.879 110.203Z" fill="#CBC5C5"/>
<path d="M145.564 111.782C145.741 102.905 151.66 94.8371 153.43 95.0146C157.362 95.4091 154.216 113.754 148.907 116.121C148.907 111.782 147.727 110.203 145.564 111.782Z" fill="#CBC5C5"/>
<path d="M139.862 133.085C145.761 129.337 144.581 126.576 148.12 123.222C150.952 120.54 154.675 119.475 156.182 119.277C153.178 127.891 149.888 131.19 139.862 133.085Z" fill="#CBC5C5"/>
<path d="M149.693 119.869C150.873 114.442 158.935 102.905 161.295 104.088C161.295 106.653 157.073 113.754 156.182 117.699C153.194 118.015 150.611 119.277 149.693 119.869Z" fill="#CBC5C5"/>
<path d="M141.828 80.2203C145.564 81.7983 150.48 87.5188 149.3 95.8036C148.042 94.2256 146.678 94.6201 146.154 95.0146C145.512 93.2603 144.996 92.6724 143.598 92.8448C141.334 87.8957 141.201 85.1346 141.828 80.2203Z" fill="#CBC5C5"/>
<path d="M154.216 73.7107C156.772 76.2751 159.305 87.1285 156.182 96.5927C154.038 93.3904 153.002 93.9851 151.07 93.831C150.554 90.8812 150.431 87.8919 150.574 85.1517C150.871 84.8229 151.502 83.9287 151.66 82.9819C151.817 82.035 151.294 81.2723 151.013 81.0093C151.703 76.7859 153.007 73.8226 154.216 73.7107Z" fill="#CBC5C5"/>
<path d="M162.278 87.1243C162.278 92.8448 161.356 95.8816 161.295 102.313C160.705 103.694 158.542 103.497 158.935 99.5515C158.654 100.492 156.85 101.396 157.166 96.7899C157.481 92.1842 162.278 87.1243 162.278 87.1243Z" fill="#CBC5C5"/>
<path d="M139.665 65.8204C139.839 73.0156 141.506 75.8925 145.564 80.2203C146.519 78.3103 148.317 81.0093 150.087 79.234C146.154 72.1327 147.727 69.9628 144.384 67.793C142.512 66.3731 141.488 66.1477 139.665 65.8204Z" fill="#CBC5C5"/>
<path d="M148.317 57.3383C154.216 63.4533 157.597 67.3427 156.182 75.2888C154.162 71.1041 152.884 72.1341 150.48 77.0641C146.928 69.2726 146.126 64.948 148.317 57.3383Z" fill="#CBC5C5"/>
<path d="M158.935 89.0969C158.249 83.1491 157.952 80.2203 158.542 77.0641C159.453 74.8731 160.378 73.8268 162.868 72.3299C163.817 77.4953 163.739 80.3813 162.868 85.5462C160.647 86.2633 159.989 87.2364 158.935 89.0969Z" fill="#CBC5C5"/>
<path d="M157.755 75.2888C158.542 68.7793 155.789 65.2287 155.789 61.2835C155.789 57.3383 158.542 54.9712 158.542 54.9712C160.32 62.0223 160.571 65.7562 160.705 72.3299C159.525 72.774 158.874 73.4615 157.755 75.2888Z" fill="#CBC5C5"/>
<path d="M134.159 51.8151C135.852 57.2269 137.294 59.9237 141.435 63.6506C142.002 62.0294 142.402 61.6046 143.205 61.2835C141.839 58.5754 141.625 57.0644 141.435 54.3795C137.295 51.6044 136.168 51.6782 134.159 51.8151Z" fill="#CBC5C5"/>
<path d="M144.974 60.0999C147.534 55.3277 148.715 55.1625 150.574 57.3383C150.48 53.2658 149.808 51.5823 148.317 48.8563C146.932 48.6541 146.681 47.8016 146.547 46.4892C144.42 44.2557 143.326 43.7567 141.435 43.333C141.553 50.4158 142.127 54.1738 144.974 60.0999Z" fill="#CBC5C5"/>
<path d="M152.25 44.1221C155.039 46.5605 156.167 48.6122 156.969 54.1822C156.213 54.8299 155.839 55.7449 155.199 57.7328C154.303 56.7355 153.784 56.5943 152.84 56.9438C150.923 52.038 150.92 49.2322 152.25 44.1221Z" fill="#CBC5C5"/>
<path d="M140.845 52.4069C139.695 44.756 134.159 38.9934 129.047 38.9934C127.081 38.9934 125.966 37.0208 125.311 38.0071C124.959 38.536 127.628 42.9503 131.407 46.6864C134.673 49.9165 138.93 52.5898 140.845 52.4069Z" fill="#CBC5C5"/>
<path d="M128.654 26.5661C135.61 28.2405 138.645 30.3062 141.435 37.4153C139.398 39.2253 137.868 39.9846 140.255 44.7138C132.047 38.2421 129.969 34.1954 128.654 26.5661Z" fill="#CBC5C5"/>
<path d="M142.615 29.1305C147.411 33.587 149.301 36.5575 151.463 42.544C151.466 43.5088 151.405 43.9981 150.873 44.5166C149.984 43.9986 149.249 43.8603 147.137 44.1221C143.061 38.0764 142.332 34.8154 142.615 29.1305Z" fill="#CBC5C5"/>
<path d="M115.873 17.295C124.759 17.7883 128.651 19.7904 133.57 26.5661C127.901 24.4314 126.554 24.8229 127.474 29.1305C120.874 25.259 118.72 22.5242 115.873 17.295Z" fill="#CBC5C5"/>
<path d="M125.508 14.1389C125.901 17.6895 134.946 24.5935 141.632 34.2592C139.272 27.3551 138.471 26.0202 141.435 27.9469C135.939 18.9581 132.399 16.1937 125.508 14.1389Z" fill="#CBC5C5"/>
<path d="M112.727 25.9743C114.129 24.4224 115.084 23.8281 118.036 24.199C121.8 27.5208 123.836 28.6647 127.31 30.6165L127.474 30.7085C128.091 31.5434 128.372 32.3077 128.654 33.6674C123.176 33.6789 119.662 31.9484 112.727 25.9743Z" fill="#CBC5C5"/>
<path d="M105.844 17.295C109.58 18.8731 114.496 18.2813 114.496 18.2813C114.63 15.3616 116.237 15.7372 118.429 15.5197C111.176 9.82028 106.861 8.43689 98.5689 10.3707C102.502 11.969 100.142 14.8864 105.844 17.295Z" fill="#CBC5C5"/>
<path d="M112.53 23.2127C105.196 23.14 101.96 21.9805 96.9959 18.8731C97.8803 16.5173 98.794 15.9991 101.518 15.7169C104.011 19.0471 106.271 20.0676 111.153 21.0429C111.344 22.0914 111.61 22.6556 112.53 23.2127Z" fill="#CBC5C5"/>
<path d="M101.518 2.89516C102.119 5.76179 102.85 7.22155 106.828 8.8129C110.324 9.6234 111.435 9.01722 119.019 14.9279C119.654 15.3274 119.998 15.4586 120.592 15.5197C120.503 13.868 120.655 13.0898 121.182 11.969C114.454 6.06275 109.973 4.51149 101.518 2.89516Z" fill="#CBC5C5"/>
<path d="M83.035 15.5197C83.5617 14.0209 84.1828 13.3457 85.7878 12.3635C87.6952 13.445 89.666 13.6784 94.6363 13.5471C95.8989 14.2065 96.4446 14.6289 96.9959 15.5197C92.1016 17.598 89.0225 17.591 83.035 15.5197Z" fill="#CBC5C5"/>
<path d="M83.035 0.133552C83.9678 1.60732 84.6523 2.43004 86.3777 3.88145C90.6105 3.61194 92.822 3.90341 96.6026 4.86774C96.3984 3.94535 96.4501 3.42357 96.6026 2.50065C90.5088 0.082413 87.6327 -0.247386 83.035 0.133552Z" fill="#CBC5C5"/>
<path d="M78.3138 163.463C78.3138 163.463 80.2811 163.858 82.0508 163.858C83.8205 163.858 85.7878 163.463 85.7878 163.463C85.7543 163.263 85.7219 163.066 85.6906 162.871C85.447 161.36 85.2681 160.007 85.1502 158.729C85.056 157.709 85.0007 156.737 84.9824 155.77C84.9675 154.985 84.9769 154.203 85.0098 153.403C85.0382 152.711 85.084 152.004 85.1467 151.269L85.1502 151.228C85.2868 149.64 85.5015 147.915 85.7878 145.907C85.7878 145.907 84.0171 145.513 82.0508 145.513C80.0845 145.513 78.3138 145.907 78.3138 145.907C78.6001 147.915 78.8148 149.64 78.9514 151.228L78.9548 151.269C79.0175 152.004 79.0634 152.711 79.0918 153.403C79.1246 154.203 79.1341 154.985 79.1192 155.77C79.1008 156.737 79.0455 157.709 78.9514 158.729C78.8334 160.007 78.6545 161.36 78.411 162.871C78.3797 163.066 78.3473 163.263 78.3138 163.463Z" fill="#CBC5C5"/>
<path fill-rule="evenodd" clip-rule="evenodd" d="M78.3138 145.907C78.3138 145.907 80.0845 145.513 82.0508 145.513C84.0171 145.513 85.7878 145.907 85.7878 145.907C85.5015 147.915 85.2868 149.64 85.1502 151.228C86.5743 143.935 90.1137 140.581 91.8834 138.411C95.0296 138.411 97.3891 141.173 99.9454 141.173C102.698 141.173 102.698 141.173 102.698 143.343C102.698 145.513 102.305 148.669 100.339 150.247C98.3723 151.825 95.4228 153.206 94.4397 153.206C93.4565 153.206 87.9508 152.219 88.1474 151.036C88.344 149.852 92.0801 149.852 93.0632 149.852C94.0464 149.852 99.1588 149.458 99.5521 148.077C99.9454 146.696 97.3891 147.091 95.2262 145.907C93.0632 144.724 92.0801 142.751 90.3104 145.907C88.5546 149.038 85.0291 152.937 85.1467 151.269C85.084 152.004 85.0382 152.711 85.0098 153.403C89.5238 153.206 96.0127 155.376 100.732 155.178C101.322 152.022 104.271 149.852 105.254 149.852C106.238 149.852 109.777 155.178 112.333 155.178C114.103 155.178 116.856 153.403 116.856 151.825C117.96 152.071 119.088 152.624 119.486 154.587L120.788 153.797C120.042 149.23 118.843 147.912 114.496 149.063C115.715 150.705 115.749 151.564 114.496 153.206C113.08 152.732 112.727 149.852 112.727 148.471C115.479 146.499 116.463 150.247 124.328 145.513C125.021 146.941 124.989 147.809 124.721 151.228L126.294 149.852C126.884 148.077 125.901 146.302 126.491 146.104C126.963 145.947 129.834 145.776 131.21 145.71L133.176 144.526C133.57 143.343 132.98 140.976 131.997 140.384C135.143 137.031 140.845 133.677 146.154 134.466L139.862 133.085C145.761 129.337 144.581 126.576 148.12 123.222C150.952 120.54 154.675 119.475 156.182 119.277V117.699C153.194 118.015 150.611 119.277 149.693 119.869C150.873 114.442 158.935 102.905 161.295 104.088V102.313C160.705 103.694 158.542 103.497 158.935 99.5515C158.654 100.492 156.85 101.396 157.166 96.7899C157.481 92.1842 162.278 87.1243 162.278 87.1243L162.868 85.5462C160.647 86.2633 159.989 87.2364 158.935 89.0969C158.249 83.1491 157.952 80.2203 158.542 77.0641C159.453 74.8731 160.378 73.8268 162.868 72.3299H160.705C159.525 72.774 158.874 73.4615 157.755 75.2888C158.542 68.7793 155.789 65.2287 155.789 61.2835C155.789 57.3383 158.542 54.9712 158.542 54.9712L156.969 54.1822C156.213 54.8299 155.839 55.7449 155.199 57.7328C154.303 56.7355 153.784 56.5943 152.84 56.9438C150.923 52.038 150.92 49.2322 152.25 44.1221L151.463 42.544C151.466 43.5088 151.405 43.9981 150.873 44.5166C149.984 43.9986 149.249 43.8603 147.137 44.1221C143.061 38.0764 142.332 34.8154 142.615 29.1305L141.435 27.9469C138.471 26.0202 139.272 27.3551 141.632 34.2592C134.946 24.5935 125.901 17.6895 125.508 14.1389L124.328 14.3361C124.328 14.9898 123.8 15.5197 123.148 15.5197C122.496 15.5197 121.968 14.9898 121.968 14.3361L121.182 11.969C120.655 13.0898 120.503 13.868 120.592 15.5197C119.998 15.4586 119.654 15.3274 119.019 14.9279C111.435 9.01722 110.324 9.6234 106.828 8.8129C102.85 7.22155 102.119 5.76179 101.518 2.89516L100.142 3.68419C100.142 4.33785 99.6138 4.86774 98.9622 4.86774C98.3106 4.86774 97.7824 4.33785 97.7824 3.68419L96.6026 2.50065C96.4501 3.42357 96.3984 3.94535 96.6026 4.86774C92.822 3.90341 90.6105 3.61194 86.3777 3.88145C84.6523 2.43004 83.9678 1.60732 83.035 0.133552H83.0339H81.0676H81.0666C80.1337 1.60732 79.4492 2.43004 77.7239 3.88145C73.491 3.61194 71.2796 3.90341 67.4989 4.86774C67.7031 3.94535 67.6515 3.42357 67.4989 2.50065L66.3192 3.68419C66.3192 4.33785 65.7909 4.86774 65.1394 4.86774C64.4878 4.86774 63.9596 4.33785 63.9596 3.68419L62.5831 2.89516C61.9822 5.76179 61.2516 7.22155 57.274 8.8129C53.7773 9.6234 52.6665 9.01722 45.0828 14.9279C44.4478 15.3274 44.1032 15.4586 43.5098 15.5197C43.5984 13.868 43.4465 13.0898 42.9199 11.969L42.1333 14.3361C42.1333 14.9898 41.6051 15.5197 40.9535 15.5197C40.3019 15.5197 39.7737 14.9898 39.7737 14.3361L38.5939 14.1389C38.2007 17.6895 29.1556 24.5935 22.47 34.2592C24.8296 27.3551 25.6307 26.0202 22.6667 27.9469L21.4869 29.1305C21.7699 34.8154 21.0403 38.0764 16.9643 44.1221C14.8525 43.8603 14.1176 43.9986 13.2283 44.5166C12.6965 43.9981 12.636 43.5088 12.6384 42.544L11.8519 44.1221C13.1817 49.2322 13.1791 52.038 11.262 56.9438C10.3172 56.5943 9.79906 56.7355 8.90238 57.7328C8.26296 55.7449 7.88897 54.8299 7.13269 54.1822L5.55963 54.9712C5.55963 54.9712 8.31248 57.3383 8.31248 61.2835C8.31248 65.2287 5.55963 68.7793 6.34616 75.2888C5.22717 73.4615 4.57609 72.774 3.39666 72.3299H1.2337C3.72374 73.8268 4.64871 74.8731 5.55963 77.0641C6.14952 80.2203 5.85272 83.1491 5.16636 89.0969C4.11256 87.2364 3.45463 86.2633 1.2337 85.5462L1.8236 87.1243C1.8236 87.1243 6.62083 92.1842 6.93605 96.7899C7.25128 101.396 5.44758 100.492 5.16636 99.5515C5.55963 103.497 3.39666 103.694 2.80677 102.313V104.088C5.16636 102.905 13.2283 114.442 14.4081 119.869C13.4905 119.277 10.908 118.015 7.91922 117.699V119.277C9.42674 119.475 13.1496 120.54 15.9812 123.222C19.5206 126.576 18.3408 129.337 24.2397 133.085L17.9475 134.466C23.2566 133.677 28.9589 137.031 32.1051 140.384C31.1219 140.976 30.532 143.343 30.9253 144.526L32.8916 145.71C34.268 145.776 37.1389 145.947 37.6108 146.104C38.2007 146.302 37.2175 148.077 37.8074 149.852L39.3805 151.228C39.1126 147.809 39.0806 146.941 39.7737 145.513C47.639 150.247 48.6222 146.499 51.3751 148.471C51.3751 149.852 51.0211 152.732 49.6054 153.206C48.3526 151.564 48.3864 150.705 49.6054 149.063C45.259 147.912 44.0591 149.23 43.3131 153.797L44.616 154.587C45.014 152.624 46.1416 152.071 47.2458 151.825C47.2458 153.403 49.9986 155.178 51.7683 155.178C54.3246 155.178 57.8639 149.852 58.8471 149.852C59.8303 149.852 62.7798 152.022 63.3697 155.178C68.0888 155.376 74.5777 153.206 79.0918 153.403C79.0634 152.711 79.0175 152.004 78.9548 151.269C79.0725 152.937 75.547 149.038 73.7912 145.907C72.0215 142.751 71.0383 144.724 68.8754 145.907C66.7124 147.091 64.1562 146.696 64.5495 148.077C64.9427 149.458 70.0552 149.852 71.0383 149.852C72.0215 149.852 75.7575 149.852 75.9542 151.036C76.1508 152.219 70.6451 153.206 69.6619 153.206C68.6787 153.206 65.7293 151.825 63.7629 150.247C61.7966 148.669 61.4033 145.513 61.4033 143.343C61.4033 141.173 61.4033 141.173 64.1562 141.173C66.7124 141.173 69.072 138.411 72.2181 138.411C73.9878 140.581 77.5272 143.935 78.9514 151.228C78.8148 149.64 78.6001 147.915 78.3138 145.907ZM60.8134 140.778C60.8134 141.962 59.6336 140.778 59.6336 143.343C59.6336 144.447 61.0101 145.907 60.8134 148.274C58.7099 146.515 57.5515 145.773 55.5043 144.724C55.3077 144.395 54.7571 142.948 54.1279 139.792C53.3414 135.847 56.4875 137.228 58.4538 138.214C60.0269 139.003 60.6823 140.252 60.8134 140.778ZM45.4761 143.343C50.5885 143.343 56.8808 145.907 59.6336 148.471C57.3134 149.046 56.3812 149.599 55.5043 151.036C54.98 150.115 53.4987 148.077 51.7683 147.288C49.6054 146.302 47.8357 147.485 46.4592 146.499C45.0828 145.513 45.4761 144.329 45.4761 143.343ZM51.3751 140.187C51.0473 140.515 50.6672 141.489 50.9818 142.751L46.8525 142.554C39.5313 135.552 38.3499 132.222 39.1838 125.392C45.0089 130.03 48.0344 132.94 51.3751 140.187ZM44.2963 145.513C43.6671 144.566 44.0341 142.883 44.2963 142.159C37.1294 132.207 33.4903 129.111 27.3859 127.365C26.6703 134.609 37.6071 144.273 44.2963 145.513ZM33.8747 144.526C33.2232 144.526 32.695 143.996 32.695 143.343C32.695 142.689 33.2232 142.159 33.8747 142.159C34.5263 142.159 35.0545 142.689 35.0545 143.343C35.0545 143.996 34.5263 144.526 33.8747 144.526ZM36.6276 130.521C35.976 130.521 35.4478 129.991 35.4478 129.337C35.4478 128.684 35.976 128.154 36.6276 128.154C37.2792 128.154 37.8074 128.684 37.8074 129.337C37.8074 129.991 37.2792 130.521 36.6276 130.521ZM23.0599 114.149C22.4084 114.149 21.8801 113.619 21.8801 112.965C21.8801 112.311 22.4084 111.782 23.0599 111.782C23.7115 111.782 24.2397 112.311 24.2397 112.965C24.2397 113.619 23.7115 114.149 23.0599 114.149ZM6.73942 104.088C6.08784 104.088 5.55963 103.559 5.55963 102.905C5.55963 102.251 6.08784 101.721 6.73942 101.721C7.39101 101.721 7.91922 102.251 7.91922 102.905C7.91922 103.559 7.39101 104.088 6.73942 104.088ZM16.3744 98.9598C15.7228 98.9598 15.1946 98.4299 15.1946 97.7762C15.1946 97.1225 15.7228 96.5927 16.3744 96.5927C17.026 96.5927 17.5542 97.1225 17.5542 97.7762C17.5542 98.4299 17.026 98.9598 16.3744 98.9598ZM14.8014 84.1654C14.1498 84.1654 13.6216 83.6355 13.6216 82.9819C13.6216 82.3282 14.1498 81.7983 14.8014 81.7983C15.4529 81.7983 15.9812 82.3282 15.9812 82.9819C15.9812 83.6355 15.4529 84.1654 14.8014 84.1654ZM10.6721 61.2835C10.0205 61.2835 9.49228 60.7536 9.49228 60.0999C9.49228 59.4463 10.0205 58.9164 10.6721 58.9164C11.3237 58.9164 11.8519 59.4463 11.8519 60.0999C11.8519 60.7536 11.3237 61.2835 10.6721 61.2835ZM19.7172 65.2287C19.0656 65.2287 18.5374 64.6988 18.5374 64.0451C18.5374 63.3914 19.0656 62.8616 19.7172 62.8616C20.3688 62.8616 20.897 63.3914 20.897 64.0451C20.897 64.6988 20.3688 65.2287 19.7172 65.2287ZM14.6047 47.6727C13.9531 47.6727 13.4249 47.1428 13.4249 46.4892C13.4249 45.8355 13.9531 45.3056 14.6047 45.3056C15.2563 45.3056 15.7845 45.8355 15.7845 46.4892C15.7845 47.1428 15.2563 47.6727 14.6047 47.6727ZM22.6667 42.1495C22.0151 42.1495 21.4869 41.6196 21.4869 40.9659C21.4869 40.3123 22.0151 39.7824 22.6667 39.7824C23.3183 39.7824 23.8465 40.3123 23.8465 40.9659C23.8465 41.6196 23.3183 42.1495 22.6667 42.1495ZM36.2343 38.0071C35.5828 38.0071 35.0545 37.4772 35.0545 36.8235C35.0545 36.1699 35.5828 35.64 36.2343 35.64C36.8859 35.64 37.4141 36.1699 37.4141 36.8235C37.4141 37.4772 36.8859 38.0071 36.2343 38.0071ZM50.1953 22.4237C49.5437 22.4237 49.0155 21.8938 49.0155 21.2401C49.0155 20.5865 49.5437 20.0566 50.1953 20.0566C50.8468 20.0566 51.3751 20.5865 51.3751 21.2401C51.3751 21.8938 50.8468 22.4237 50.1953 22.4237ZM65.9259 14.3361C65.2743 14.3361 64.7461 13.8062 64.7461 13.1526C64.7461 12.4989 65.2743 11.969 65.9259 11.969C66.5775 11.969 67.1057 12.4989 67.1057 13.1526C67.1057 13.8062 66.5775 14.3361 65.9259 14.3361ZM26.5993 110.598C28.1724 109.809 36.2343 120.264 36.6276 125.984C35.3823 126.313 32.7736 127.247 32.3017 128.351C25.8128 125.59 25.0263 111.387 26.5993 110.598ZM17.5542 112.571C20.3071 111.584 26.5993 121.842 27.3859 125.984C25.3702 125.984 24.2397 128.351 26.2061 132.494C18.5374 128.746 14.8014 113.557 17.5542 112.571ZM23.8465 97.7762C25.8128 101.919 24.8296 104.483 25.2229 110.203C24.7641 109.875 23.6105 109.336 22.6667 109.809C21.7228 110.282 20.8314 111.847 20.5037 112.571C20.1104 111.387 19.1666 108.152 18.5374 104.68C17.7509 100.341 19.7172 94.4228 20.5037 94.2256C21.2902 94.0283 21.8801 93.6338 23.8465 97.7762ZM10.6721 95.0146C12.4418 94.8371 18.361 102.905 18.5374 111.782C16.3744 110.203 15.1946 111.782 15.1946 116.121C9.88555 113.754 6.73942 95.4091 10.6721 95.0146ZM14.8014 95.8036C13.6216 87.5188 18.5374 81.7983 22.2734 80.2203C22.9005 85.1346 22.7675 87.8957 20.5037 92.8448C19.1054 92.6724 18.59 93.2603 17.9475 95.0146C17.4231 94.6201 16.0598 94.2256 14.8014 95.8036ZM7.91922 96.5927C4.79612 87.1285 7.32932 76.2751 9.88555 73.7107C11.095 73.8226 12.3989 76.7859 13.0889 81.0093C12.8077 81.2723 12.2845 82.035 12.4418 82.9819C12.5991 83.9287 13.231 84.8229 13.5273 85.1517C13.6704 87.8919 13.548 90.8812 13.0317 93.831C11.0996 93.9851 10.0636 93.3904 7.91922 96.5927ZM18.5374 80.2203C22.5954 75.8925 24.2621 73.0156 24.4364 65.8204C22.6133 66.1477 21.5896 66.3731 19.7172 67.793C16.3744 69.9628 17.9475 72.1327 14.0148 79.234C15.7845 81.0093 17.5822 78.3103 18.5374 80.2203ZM7.91922 75.2888C6.50486 67.3427 9.88555 63.4533 15.7845 57.3383C17.9755 64.948 17.1732 69.2726 13.6216 77.0641C11.2172 72.1341 9.93927 71.1041 7.91922 75.2888ZM22.6667 63.6506C26.8076 59.9237 28.2494 57.2269 29.9421 51.8151C27.9333 51.6782 26.8065 51.6044 22.6667 54.3795C22.4768 57.0644 22.2623 58.5754 20.897 61.2835C21.6998 61.6046 22.0997 62.0294 22.6667 63.6506ZM13.5273 57.3383C15.3864 55.1625 16.5675 55.3277 19.1273 60.0999C21.9744 54.1738 22.5482 50.4158 22.6667 43.333C20.7757 43.7567 19.6814 44.2557 17.5542 46.4892C17.4203 47.8016 17.17 48.6541 15.7845 48.8563C14.294 51.5823 13.6219 53.2658 13.5273 57.3383ZM35.0545 38.9934C29.9421 38.9934 24.4063 44.756 23.2566 52.4069C25.1712 52.5898 29.4283 49.9165 32.695 46.6864C36.4734 42.9503 39.1421 38.536 38.7906 38.0071C38.1351 37.0208 37.0209 38.9934 35.0545 38.9934ZM22.6667 37.4153C25.457 30.3062 28.4918 28.2405 35.4478 26.5661C34.133 34.1954 32.0546 38.2421 23.8465 44.7138C26.2339 39.9846 24.7034 39.2253 22.6667 37.4153ZM30.532 26.5661C35.4504 19.7904 39.3428 17.7883 48.2289 17.295C45.3814 22.5242 43.2272 25.259 36.6276 29.1305C37.5476 24.8229 36.2008 24.4314 30.532 26.5661ZM46.066 24.199C49.0177 23.8281 49.9727 24.4224 51.3751 25.9743C44.4395 31.9484 40.9256 33.6789 35.4478 33.6674C35.7294 32.3077 36.0107 31.5434 36.6276 30.7085L36.7913 30.6165C40.2653 28.6647 42.3011 27.5208 46.066 24.199ZM49.6054 18.2813C49.6054 18.2813 54.5212 18.8731 58.2572 17.295C63.9596 14.8864 61.6 11.969 65.5326 10.3707C57.2403 8.43689 52.9257 9.82028 45.6727 15.5197C47.8645 15.7372 49.4716 15.3616 49.6054 18.2813ZM67.1057 18.8731C62.1412 21.9805 58.906 23.14 51.5717 23.2127C52.4911 22.6556 52.7579 22.0914 52.9481 21.0429C57.8303 20.0676 60.0907 19.0471 62.5831 15.7169C65.3076 15.9991 66.2213 16.5173 67.1057 18.8731ZM82.0508 8.90762C79.123 10.7866 77.4528 11.5745 73.2013 11.5745C69.796 11.5745 68.464 10.7657 67.2417 10.0235C66.2054 9.39425 65.248 8.8129 63.173 8.8129C70.4384 4.02894 74.8912 3.65858 82.0508 6.73397C89.2104 3.65858 93.6632 4.02894 100.929 8.8129C98.8535 8.8129 97.8961 9.39425 96.8599 10.0235C95.6376 10.7657 94.3055 11.5745 90.9003 11.5745C86.6488 11.5745 84.9786 10.7866 82.0508 8.90762ZM78.3138 12.3635C79.9188 13.3457 80.5399 14.0209 81.0666 15.5197C75.0791 17.591 72 17.598 67.1057 15.5197C67.657 14.6289 68.2027 14.2065 69.4653 13.5471C74.4355 13.6784 76.4064 13.445 78.3138 12.3635ZM103.288 140.778C103.288 141.962 104.468 140.778 104.468 143.343C104.468 144.447 103.091 145.907 103.288 148.274C105.392 146.515 106.55 145.773 108.597 144.724C108.794 144.395 109.344 142.948 109.974 139.792C110.76 135.847 107.614 137.228 105.648 138.214C104.075 139.003 103.419 140.252 103.288 140.778ZM118.625 143.343C113.513 143.343 107.221 145.907 104.468 148.471C106.788 149.046 107.72 149.599 108.597 151.036C109.122 150.115 110.603 148.077 112.333 147.288C114.496 146.302 116.266 147.485 117.642 146.499C119.019 145.513 118.625 144.329 118.625 143.343ZM112.727 140.187C113.054 140.515 113.434 141.489 113.12 142.751L117.249 142.554C124.57 135.552 125.752 132.222 124.918 125.392C119.093 130.03 116.067 132.94 112.727 140.187ZM119.805 145.513C120.435 144.566 120.067 142.883 119.805 142.159C126.972 132.207 130.611 129.111 136.716 127.365C137.431 134.609 126.494 144.273 119.805 145.513ZM130.227 144.526C130.878 144.526 131.407 143.996 131.407 143.343C131.407 142.689 130.878 142.159 130.227 142.159C129.575 142.159 129.047 142.689 129.047 143.343C129.047 143.996 129.575 144.526 130.227 144.526ZM127.474 130.521C128.126 130.521 128.654 129.991 128.654 129.337C128.654 128.684 128.126 128.154 127.474 128.154C126.822 128.154 126.294 128.684 126.294 129.337C126.294 129.991 126.822 130.521 127.474 130.521ZM141.042 114.149C141.693 114.149 142.221 113.619 142.221 112.965C142.221 112.311 141.693 111.782 141.042 111.782C140.39 111.782 139.862 112.311 139.862 112.965C139.862 113.619 140.39 114.149 141.042 114.149ZM157.362 104.088C158.014 104.088 158.542 103.559 158.542 102.905C158.542 102.251 158.014 101.721 157.362 101.721C156.711 101.721 156.182 102.251 156.182 102.905C156.182 103.559 156.711 104.088 157.362 104.088ZM147.727 98.9598C148.379 98.9598 148.907 98.4299 148.907 97.7762C148.907 97.1225 148.379 96.5927 147.727 96.5927C147.076 96.5927 146.547 97.1225 146.547 97.7762C146.547 98.4299 147.076 98.9598 147.727 98.9598ZM149.3 84.1654C149.952 84.1654 150.48 83.6355 150.48 82.9819C150.48 82.3282 149.952 81.7983 149.3 81.7983C148.649 81.7983 148.12 82.3282 148.12 82.9819C148.12 83.6355 148.649 84.1654 149.3 84.1654ZM153.43 61.2835C154.081 61.2835 154.609 60.7536 154.609 60.0999C154.609 59.4463 154.081 58.9164 153.43 58.9164C152.778 58.9164 152.25 59.4463 152.25 60.0999C152.25 60.7536 152.778 61.2835 153.43 61.2835ZM144.384 65.2287C145.036 65.2287 145.564 64.6988 145.564 64.0451C145.564 63.3914 145.036 62.8616 144.384 62.8616C143.733 62.8616 143.205 63.3914 143.205 64.0451C143.205 64.6988 143.733 65.2287 144.384 65.2287ZM149.497 47.6727C150.148 47.6727 150.677 47.1428 150.677 46.4892C150.677 45.8355 150.148 45.3056 149.497 45.3056C148.845 45.3056 148.317 45.8355 148.317 46.4892C148.317 47.1428 148.845 47.6727 149.497 47.6727ZM141.435 42.1495C142.086 42.1495 142.615 41.6196 142.615 40.9659C142.615 40.3123 142.086 39.7824 141.435 39.7824C140.783 39.7824 140.255 40.3123 140.255 40.9659C140.255 41.6196 140.783 42.1495 141.435 42.1495ZM127.867 38.0071C128.519 38.0071 129.047 37.4772 129.047 36.8235C129.047 36.1699 128.519 35.64 127.867 35.64C127.216 35.64 126.687 36.1699 126.687 36.8235C126.687 37.4772 127.216 38.0071 127.867 38.0071ZM113.906 22.4237C114.558 22.4237 115.086 21.8938 115.086 21.2401C115.086 20.5865 114.558 20.0566 113.906 20.0566C113.255 20.0566 112.727 20.5865 112.727 21.2401C112.727 21.8938 113.255 22.4237 113.906 22.4237ZM98.1757 14.3361C98.8273 14.3361 99.3555 13.8062 99.3555 13.1526C99.3555 12.4989 98.8273 11.969 98.1757 11.969C97.5241 11.969 96.9959 12.4989 96.9959 13.1526C96.9959 13.8062 97.5241 14.3361 98.1757 14.3361ZM137.502 110.598C135.929 109.809 127.867 120.264 127.474 125.984C128.719 126.313 131.328 127.247 131.8 128.351C138.289 125.59 139.075 111.387 137.502 110.598ZM146.547 112.571C143.794 111.584 137.502 121.842 136.716 125.984C138.731 125.984 139.862 128.351 137.895 132.494C145.564 128.746 149.3 113.557 146.547 112.571ZM140.255 97.7762C138.289 101.919 139.272 104.483 138.879 110.203C139.337 109.875 140.491 109.336 141.435 109.809C142.379 110.282 143.27 111.847 143.598 112.571C143.991 111.387 144.935 108.152 145.564 104.68C146.351 100.341 144.384 94.4228 143.598 94.2256C142.811 94.0283 142.221 93.6338 140.255 97.7762ZM153.43 95.0146C151.66 94.8371 145.741 102.905 145.564 111.782C147.727 110.203 148.907 111.782 148.907 116.121C154.216 113.754 157.362 95.4091 153.43 95.0146ZM149.3 95.8036C150.48 87.5188 145.564 81.7983 141.828 80.2203C141.201 85.1346 141.334 87.8957 143.598 92.8448C144.996 92.6724 145.512 93.2603 146.154 95.0146C146.678 94.6201 148.042 94.2256 149.3 95.8036ZM156.182 96.5927C159.305 87.1285 156.772 76.2751 154.216 73.7107C153.007 73.8226 151.703 76.7859 151.013 81.0093C151.294 81.2723 151.817 82.035 151.66 82.9819C151.502 83.9287 150.871 84.8229 150.574 85.1517C150.431 87.8919 150.554 90.8812 151.07 93.831C153.002 93.9851 154.038 93.3904 156.182 96.5927ZM145.564 80.2203C141.506 75.8925 139.839 73.0156 139.665 65.8204C141.488 66.1477 142.512 66.3731 144.384 67.793C147.727 69.9628 146.154 72.1327 150.087 79.234C148.317 81.0093 146.519 78.3103 145.564 80.2203ZM156.182 75.2888C157.597 67.3427 154.216 63.4533 148.317 57.3383C146.126 64.948 146.928 69.2726 150.48 77.0641C152.884 72.1341 154.162 71.1041 156.182 75.2888ZM141.435 63.6506C137.294 59.9237 135.852 57.2269 134.159 51.8151C136.168 51.6782 137.295 51.6044 141.435 54.3795C141.625 57.0644 141.839 58.5754 143.205 61.2835C142.402 61.6046 142.002 62.0294 141.435 63.6506ZM150.574 57.3383C148.715 55.1625 147.534 55.3277 144.974 60.0999C142.127 54.1738 141.553 50.4158 141.435 43.333C143.326 43.7567 144.42 44.2557 146.547 46.4892C146.681 47.8016 146.932 48.6541 148.317 48.8563C149.808 51.5823 150.48 53.2658 150.574 57.3383ZM129.047 38.9934C134.159 38.9934 139.695 44.756 140.845 52.4069C138.93 52.5898 134.673 49.9165 131.407 46.6864C127.628 42.9503 124.959 38.536 125.311 38.0071C125.966 37.0208 127.081 38.9934 129.047 38.9934ZM141.435 37.4153C138.645 30.3062 135.61 28.2405 128.654 26.5661C129.969 34.1954 132.047 38.2421 140.255 44.7138C137.868 39.9846 139.398 39.2253 141.435 37.4153ZM133.57 26.5661C128.651 19.7904 124.759 17.7883 115.873 17.295C118.72 22.5242 120.874 25.259 127.474 29.1305C126.554 24.8229 127.901 24.4314 133.57 26.5661ZM118.036 24.199C115.084 23.8281 114.129 24.4224 112.727 25.9743C119.662 31.9484 123.176 33.6789 128.654 33.6674C128.372 32.3077 128.091 31.5434 127.474 30.7085L127.31 30.6165C123.836 28.6647 121.8 27.5208 118.036 24.199ZM114.496 18.2813C114.496 18.2813 109.58 18.8731 105.844 17.295C100.142 14.8864 102.502 11.969 98.5689 10.3707C106.861 8.43689 111.176 9.82028 118.429 15.5197C116.237 15.7372 114.63 15.3616 114.496 18.2813ZM96.9959 18.8731C101.96 21.9805 105.196 23.14 112.53 23.2127C111.61 22.6556 111.344 22.0914 111.153 21.0429C106.271 20.0676 104.011 19.0471 101.518 15.7169C98.794 15.9991 97.8803 16.5173 96.9959 18.8731ZM85.7878 12.3635C84.1828 13.3457 83.5617 14.0209 83.035 15.5197C89.0225 17.591 92.1016 17.598 96.9959 15.5197C96.4446 14.6289 95.8989 14.2065 94.6363 13.5471C89.666 13.6784 87.6952 13.445 85.7878 12.3635Z" fill="#6F6C6C"/>
<path fill-rule="evenodd" clip-rule="evenodd" d="M82.0508 6.73397C89.2104 3.65858 93.6632 4.02894 100.929 8.8129C98.8535 8.8129 97.8961 9.39425 96.8599 10.0235C95.6376 10.7657 94.3055 11.5745 90.9003 11.5745C86.6488 11.5745 84.9786 10.7866 82.0508 8.90762C82.4092 8.67758 82.7865 8.43118 83.1897 8.16787C83.4535 7.99565 83.7283 7.8162 84.0161 7.62935C83.3373 7.30443 82.6835 7.00574 82.0508 6.73397ZM82.0508 6.73397C81.4181 7.00574 80.7643 7.30443 80.0855 7.62935C80.3733 7.8162 80.6481 7.99565 80.9118 8.16787C81.315 8.43118 81.6923 8.67758 82.0508 8.90762C79.123 10.7866 77.4528 11.5745 73.2013 11.5745C69.796 11.5745 68.464 10.7657 67.2417 10.0235C66.2054 9.39425 65.248 8.8129 63.173 8.8129C70.4384 4.02894 74.8912 3.65858 82.0508 6.73397Z" fill="#CBC5C5"/>
<path d="M82.0508 6.73397C81.4181 7.00574 80.7643 7.30443 80.0855 7.62935C80.3733 7.8162 80.6481 7.99565 80.9118 8.16787C81.315 8.43118 81.6923 8.67758 82.0508 8.90762C82.4092 8.67758 82.7865 8.43118 83.1897 8.16787C83.4535 7.99565 83.7283 7.8162 84.0161 7.62935C83.3373 7.30443 82.6835 7.00574 82.0508 6.73397Z" fill="#6F6C6C"/>
<path d="M84.9824 155.77C85.0007 156.737 85.056 157.709 85.1502 158.729C85.6031 160.051 95.5518 161.374 100.96 163.858L101.912 162.082C98.9622 162.674 89.9171 156.165 84.9824 155.77Z" fill="#6F6C6C"/>
<path d="M78.9514 158.729C79.0455 157.709 79.1008 156.737 79.1192 155.77C74.1845 156.165 65.1394 162.674 62.1899 162.082L63.1413 163.858C68.5498 161.374 78.4985 160.051 78.9514 158.729Z" fill="#6F6C6C"/>
<path fill-rule="evenodd" clip-rule="evenodd" d="M82.1631 115.465L56.9004 42H45.6631L76.9555 133H87.3708L118.663 42.0002H107.426L82.1631 115.465Z" fill="#CBC5C5"/>
</svg>
