<svg width="164" height="168" viewBox="0 0 164 168" fill="none" xmlns="http://www.w3.org/2000/svg">
<path d="M78.7372 162.871C74.314 162.674 70.7746 163.858 68.8083 165.238C66.842 166.619 66.0554 168 64.8756 168C63.6958 168 60.943 166.619 60.943 165.436C61.5477 164.861 62.4229 164.338 63.4675 163.858C68.876 161.374 78.8246 160.051 79.2775 158.729C79.1596 160.007 78.9807 161.36 78.7372 162.871Z" fill="#CBC5C5"/>
<path d="M79.2775 151.228C79.2787 151.242 79.2799 151.255 79.281 151.269C79.3987 152.937 75.8732 149.038 74.1174 145.907C72.3477 142.751 71.3645 144.724 69.2016 145.907C67.0386 147.091 64.4824 146.696 64.8756 148.077C65.2689 149.458 70.3813 149.852 71.3645 149.852C72.3477 149.852 76.0837 149.852 76.2803 151.036C76.477 152.219 70.9713 153.206 69.9881 153.206C69.0049 153.206 66.0554 151.825 64.0891 150.247C62.1228 148.669 61.7295 145.513 61.7295 143.343C61.7295 141.173 61.7295 141.173 64.4824 141.173C67.0386 141.173 69.3982 138.411 72.5443 138.411C74.314 140.581 77.8534 143.935 79.2775 151.228Z" fill="#CBC5C5"/>
<path d="M59.9598 143.343C59.9598 140.778 61.1396 141.962 61.1396 140.778C61.0085 140.252 60.3531 139.003 58.78 138.214C56.8137 137.228 53.6676 135.847 54.4541 139.792C55.0833 142.948 55.6339 144.395 55.8305 144.724C57.8776 145.773 59.036 146.515 61.1396 148.274C61.3362 145.907 59.9598 144.447 59.9598 143.343Z" fill="#CBC5C5"/>
<path d="M59.9598 148.471C57.207 145.907 50.9147 143.343 45.8022 143.343C45.8022 144.329 45.409 145.513 46.7854 146.499C48.1618 147.485 49.9315 146.302 52.0945 147.288C53.8249 148.077 55.3062 150.115 55.8305 151.036C56.7074 149.599 57.6396 149.046 59.9598 148.471Z" fill="#CBC5C5"/>
<path d="M49.9315 153.206C51.3473 152.732 51.7012 149.852 51.7012 148.471C48.9484 146.499 47.9652 150.247 40.0999 145.513C39.4067 146.941 39.4388 147.809 39.7066 151.228C40.9654 152.43 41.7838 153.014 43.6393 153.797C44.3853 149.23 45.5851 147.912 49.9315 149.063C48.7125 150.705 48.6788 151.564 49.9315 153.206Z" fill="#CBC5C5"/>
<path d="M62.516 162.082C62.516 161.096 60.3531 158.729 59.5665 158.729C58.78 158.729 56.6171 162.871 53.2743 162.871C50.9106 162.871 47.1705 161.885 45.1824 159.912C44.7274 157.465 44.7023 155.77 44.9422 154.587C45.3402 152.624 46.4677 152.071 47.5719 151.825C47.5719 153.403 50.3248 155.178 52.0945 155.178C54.6507 155.178 58.1901 149.852 59.1733 149.852C60.1564 149.852 63.1059 152.022 63.6958 155.178C68.415 155.376 74.9039 153.206 79.418 153.403C79.4508 154.203 79.4603 154.985 79.4454 155.77C74.5106 156.165 65.4655 162.674 62.516 162.082Z" fill="#CBC5C5"/>
<path d="M51.308 142.751C50.9934 141.489 51.3735 140.515 51.7012 140.187C48.3605 132.94 45.3351 130.03 39.51 125.392C38.6761 132.222 39.8574 135.552 47.1787 142.554L51.308 142.751Z" fill="#CBC5C5"/>
<path d="M33.0211 143.343C33.0211 143.996 33.5493 144.526 34.2009 144.526C34.8525 144.526 35.3807 143.996 35.3807 143.343C35.3807 142.689 34.8525 142.159 34.2009 142.159C33.5493 142.159 33.0211 142.689 33.0211 143.343Z" fill="#CBC5C5"/>
<path d="M35.774 129.337C35.774 129.991 36.3022 130.521 36.9538 130.521C37.6054 130.521 38.1336 129.991 38.1336 129.337C38.1336 128.684 37.6054 128.154 36.9538 128.154C36.3022 128.154 35.774 128.684 35.774 129.337Z" fill="#CBC5C5"/>
<path d="M22.2063 112.965C22.2063 113.619 22.7345 114.149 23.3861 114.149C24.0377 114.149 24.5659 113.619 24.5659 112.965C24.5659 112.311 24.0377 111.782 23.3861 111.782C22.7345 111.782 22.2063 112.311 22.2063 112.965Z" fill="#CBC5C5"/>
<path d="M5.8858 102.905C5.8858 103.559 6.41401 104.088 7.06559 104.088C7.71718 104.088 8.24539 103.559 8.24539 102.905C8.24539 102.251 7.71718 101.721 7.06559 101.721C6.41401 101.721 5.8858 102.251 5.8858 102.905Z" fill="#CBC5C5"/>
<path d="M15.5208 97.7762C15.5208 98.4299 16.049 98.9598 16.7006 98.9598C17.3522 98.9598 17.8804 98.4299 17.8804 97.7762C17.8804 97.1225 17.3522 96.5927 16.7006 96.5927C16.049 96.5927 15.5208 97.1225 15.5208 97.7762Z" fill="#CBC5C5"/>
<path d="M13.9477 82.9819C13.9477 83.6355 14.476 84.1654 15.1275 84.1654C15.7791 84.1654 16.3073 83.6355 16.3073 82.9819C16.3073 82.3282 15.7791 81.7983 15.1275 81.7983C14.476 81.7983 13.9477 82.3282 13.9477 82.9819Z" fill="#CBC5C5"/>
<path d="M9.81845 60.0999C9.81845 60.7536 10.3467 61.2835 10.9982 61.2835C11.6498 61.2835 12.178 60.7536 12.178 60.0999C12.178 59.4463 11.6498 58.9164 10.9982 58.9164C10.3467 58.9164 9.81845 59.4463 9.81845 60.0999Z" fill="#CBC5C5"/>
<path d="M18.8636 64.0451C18.8636 64.6988 19.3918 65.2287 20.0434 65.2287C20.6949 65.2287 21.2232 64.6988 21.2232 64.0451C21.2232 63.3914 20.6949 62.8616 20.0434 62.8616C19.3918 62.8616 18.8636 63.3914 18.8636 64.0451Z" fill="#CBC5C5"/>
<path d="M13.7511 46.4892C13.7511 47.1428 14.2793 47.6727 14.9309 47.6727C15.5825 47.6727 16.1107 47.1428 16.1107 46.4892C16.1107 45.8355 15.5825 45.3056 14.9309 45.3056C14.2793 45.3056 13.7511 45.8355 13.7511 46.4892Z" fill="#CBC5C5"/>
<path d="M21.8131 40.9659C21.8131 41.6196 22.3413 42.1495 22.9928 42.1495C23.6444 42.1495 24.1726 41.6196 24.1726 40.9659C24.1726 40.3123 23.6444 39.7824 22.9928 39.7824C22.3413 39.7824 21.8131 40.3123 21.8131 40.9659Z" fill="#CBC5C5"/>
<path d="M35.3807 36.8235C35.3807 37.4772 35.9089 38.0071 36.5605 38.0071C37.2121 38.0071 37.7403 37.4772 37.7403 36.8235C37.7403 36.1699 37.2121 35.64 36.5605 35.64C35.9089 35.64 35.3807 36.1699 35.3807 36.8235Z" fill="#CBC5C5"/>
<path d="M49.3416 21.2401C49.3416 21.8938 49.8699 22.4237 50.5214 22.4237C51.173 22.4237 51.7012 21.8938 51.7012 21.2401C51.7012 20.5865 51.173 20.0566 50.5214 20.0566C49.8699 20.0566 49.3416 20.5865 49.3416 21.2401Z" fill="#CBC5C5"/>
<path d="M40.0999 14.3361C40.0999 14.9898 40.6281 15.5197 41.2797 15.5197C41.9313 15.5197 42.4595 14.9898 42.4595 14.3361C42.4595 13.6825 41.9313 13.1526 41.2797 13.1526C40.6281 13.1526 40.0999 13.6825 40.0999 14.3361Z" fill="#CBC5C5"/>
<path d="M65.0723 13.1526C65.0723 13.8062 65.6005 14.3361 66.2521 14.3361C66.9036 14.3361 67.4319 13.8062 67.4319 13.1526C67.4319 12.4989 66.9036 11.969 66.2521 11.969C65.6005 11.969 65.0723 12.4989 65.0723 13.1526Z" fill="#CBC5C5"/>
<path d="M64.2857 3.68419C64.2857 4.33785 64.8139 4.86774 65.4655 4.86774C66.1171 4.86774 66.6453 4.33785 66.6453 3.68419C66.6453 3.03054 66.1171 2.50065 65.4655 2.50065C64.8139 2.50065 64.2857 3.03054 64.2857 3.68419Z" fill="#CBC5C5"/>
<path d="M44.6225 142.159C44.3603 142.883 43.9932 144.566 44.6225 145.513C37.9333 144.273 26.9965 134.609 27.712 127.365C33.8164 129.111 37.4555 132.207 44.6225 142.159Z" fill="#CBC5C5"/>
<path d="M36.9538 125.984C36.5605 120.264 28.4986 109.809 26.9255 110.598C25.3524 111.387 26.139 125.59 32.6279 128.351C33.0998 127.247 35.7084 126.313 36.9538 125.984Z" fill="#CBC5C5"/>
<path d="M32.4312 140.384C29.2851 137.031 23.5827 133.677 18.2737 134.466C19.6501 139.792 27.9087 142.948 31.2514 144.526C30.8582 143.343 31.4481 140.976 32.4312 140.384Z" fill="#CBC5C5"/>
<path d="M38.1336 149.852C37.5437 148.077 38.5268 146.302 37.9369 146.104C37.465 145.947 34.5942 145.776 33.2178 145.71C34.5553 147.434 35.5981 148.353 38.1336 149.852Z" fill="#CBC5C5"/>
<path d="M27.712 125.984C26.9255 121.842 20.6333 111.584 17.8804 112.571C15.1275 113.557 18.8636 128.746 26.5322 132.494C24.5659 128.351 25.6964 125.984 27.712 125.984Z" fill="#CBC5C5"/>
<path d="M25.5491 110.203C25.1558 104.483 26.139 101.919 24.1726 97.7762C22.2063 93.6338 21.6164 94.0283 20.8299 94.2256C20.0434 94.4228 18.077 100.341 18.8636 104.68C19.4928 108.152 20.4366 111.387 20.8299 112.571C21.1576 111.847 22.049 110.282 22.9928 109.809C23.9367 109.336 25.0903 109.875 25.5491 110.203Z" fill="#CBC5C5"/>
<path d="M18.8636 111.782C18.6872 102.905 12.7679 94.8371 10.9982 95.0146C7.06559 95.4091 10.2117 113.754 15.5208 116.121C15.5208 111.782 16.7006 110.203 18.8636 111.782Z" fill="#CBC5C5"/>
<path d="M24.5659 133.085C18.6669 129.337 19.8467 126.576 16.3073 123.222C13.4758 120.54 9.75291 119.475 8.24539 119.277C11.2499 127.891 14.5397 131.19 24.5659 133.085Z" fill="#CBC5C5"/>
<path d="M14.7343 119.869C13.5545 114.442 5.49253 102.905 3.13294 104.088C3.13294 106.653 7.35427 113.754 8.24539 117.699C11.2342 118.015 13.8167 119.277 14.7343 119.869Z" fill="#CBC5C5"/>
<path d="M22.5996 80.2203C18.8636 81.7983 13.9477 87.5188 15.1275 95.8036C16.386 94.2256 17.7493 94.6201 18.2737 95.0146C18.9161 93.2603 19.4316 92.6724 20.8299 92.8448C23.0937 87.8957 23.2266 85.1346 22.5996 80.2203Z" fill="#CBC5C5"/>
<path d="M10.2117 73.7107C7.65549 76.2751 5.12229 87.1285 8.24539 96.5927C10.3897 93.3904 11.4258 93.9851 13.3578 93.831C13.8742 90.8812 13.9966 87.8919 13.8535 85.1517C13.5572 84.8229 12.9253 83.9287 12.7679 82.9819C12.6106 82.035 13.1338 81.2723 13.4151 81.0093C12.7251 76.7859 11.4212 73.8226 10.2117 73.7107Z" fill="#CBC5C5"/>
<path d="M2.14977 87.1243C2.14977 92.8448 3.07144 95.8816 3.13294 102.313C3.72284 103.694 5.8858 103.497 5.49253 99.5515C5.77375 100.492 7.57745 101.396 7.26223 96.7899C6.947 92.1842 2.14977 87.1243 2.14977 87.1243Z" fill="#CBC5C5"/>
<path d="M24.7625 65.8204C24.5883 73.0156 22.9216 75.8925 18.8636 80.2203C17.9084 78.3103 16.1107 81.0093 14.341 79.234C18.2737 72.1327 16.7006 69.9628 20.0434 67.793C21.9158 66.3731 22.9395 66.1477 24.7625 65.8204Z" fill="#CBC5C5"/>
<path d="M16.1107 57.3383C10.2117 63.4533 6.83104 67.3427 8.24539 75.2888C10.2654 71.1041 11.5433 72.1341 13.9477 77.0641C17.4994 69.2726 18.3017 64.948 16.1107 57.3383Z" fill="#CBC5C5"/>
<path d="M5.49253 89.0969C6.17889 83.1491 6.4757 80.2203 5.8858 77.0641C4.97488 74.8731 4.04991 73.8268 1.55988 72.3299C0.610614 77.4953 0.68885 80.3813 1.55988 85.5462C3.7808 86.2633 4.43873 87.2364 5.49253 89.0969Z" fill="#CBC5C5"/>
<path d="M6.67233 75.2888C5.8858 68.7793 8.63866 65.2287 8.63866 61.2835C8.63866 57.3383 5.8858 54.9712 5.8858 54.9712C4.10823 62.0223 3.85635 65.7562 3.72284 72.3299C4.90226 72.774 5.55334 73.4615 6.67233 75.2888Z" fill="#CBC5C5"/>
<path d="M30.2683 51.8151C28.5756 57.2269 27.1337 59.9237 22.9928 63.6506C22.4259 62.0294 22.0259 61.6046 21.2232 61.2835C22.5884 58.5754 22.803 57.0644 22.9928 54.3795C27.1327 51.6044 28.2594 51.6782 30.2683 51.8151Z" fill="#CBC5C5"/>
<path d="M19.4535 60.0999C16.8937 55.3277 15.7126 55.1625 13.8535 57.3383C13.9481 53.2658 14.6202 51.5823 16.1107 48.8563C17.4962 48.6541 17.7464 47.8016 17.8804 46.4892C20.0076 44.2557 21.1019 43.7567 22.9928 43.333C22.8744 50.4158 22.3005 54.1738 19.4535 60.0999Z" fill="#CBC5C5"/>
<path d="M12.178 44.1221C9.38887 46.5605 8.26027 48.6122 7.45886 54.1822C8.21515 54.8299 8.58914 55.7449 9.22855 57.7328C10.1252 56.7355 10.6434 56.5943 11.5881 56.9438C13.5052 52.038 13.5079 49.2322 12.178 44.1221Z" fill="#CBC5C5"/>
<path d="M23.5827 52.4069C24.7325 44.756 30.2683 38.9934 35.3807 38.9934C37.347 38.9934 38.4613 37.0208 39.1167 38.0071C39.4683 38.536 36.7995 42.9503 33.0211 46.6864C29.7545 49.9165 25.4974 52.5898 23.5827 52.4069Z" fill="#CBC5C5"/>
<path d="M35.774 26.5661C28.818 28.2405 25.7831 30.3062 22.9928 37.4153C25.0296 39.2253 26.56 39.9846 24.1726 44.7138C32.3808 38.2421 34.4592 34.1954 35.774 26.5661Z" fill="#CBC5C5"/>
<path d="M21.8131 29.1305C17.0169 33.587 15.1266 36.5575 12.9646 42.544C12.9621 43.5088 13.0227 43.9981 13.5545 44.5166C14.4438 43.9986 15.1786 43.8603 17.2905 44.1221C21.3664 38.0764 22.0961 34.8154 21.8131 29.1305Z" fill="#CBC5C5"/>
<path d="M48.5551 17.295C39.6689 17.7883 35.7766 19.7904 30.8582 26.5661C36.5269 24.4314 37.8738 24.8229 36.9538 29.1305C43.5533 25.259 45.7076 22.5242 48.5551 17.295Z" fill="#CBC5C5"/>
<path d="M38.9201 14.1389C38.5268 17.6895 29.4817 24.5935 22.7962 34.2592C25.1558 27.3551 25.9568 26.0202 22.9928 27.9469C28.4892 18.9581 32.0285 16.1937 38.9201 14.1389Z" fill="#CBC5C5"/>
<path d="M51.7012 25.9743C50.2988 24.4224 49.3438 23.8281 46.3921 24.199C42.6273 27.5208 40.5915 28.6647 37.1175 30.6165L36.9538 30.7085C36.3368 31.5434 36.0556 32.3077 35.774 33.6674C41.2518 33.6789 44.7656 31.9484 51.7012 25.9743Z" fill="#CBC5C5"/>
<path d="M58.5834 17.295C54.8474 18.8731 49.9315 18.2813 49.9315 18.2813C49.7978 15.3616 48.1906 15.7372 45.9989 15.5197C53.2519 9.82028 57.5665 8.43689 65.8588 10.3707C61.9261 11.969 64.2857 14.8864 58.5834 17.295Z" fill="#CBC5C5"/>
<path d="M51.8979 23.2127C59.2321 23.14 62.4673 21.9805 67.4319 18.8731C66.5475 16.5173 65.6338 15.9991 62.9093 15.7169C60.4169 19.0471 58.1565 20.0676 53.2743 21.0429C53.0841 22.0914 52.8172 22.6556 51.8979 23.2127Z" fill="#CBC5C5"/>
<path d="M62.9093 2.89516C62.3083 5.76179 61.5778 7.22155 57.6002 8.8129C54.1035 9.6234 52.9927 9.01722 45.409 14.9279C44.774 15.3274 44.4294 15.4586 43.8359 15.5197C43.9246 13.868 43.7727 13.0898 43.246 11.969C49.974 6.06275 54.4546 4.51149 62.9093 2.89516Z" fill="#CBC5C5"/>
<path d="M81.3928 15.5197C80.866 14.0209 80.2449 13.3457 78.6399 12.3635C76.7326 13.445 74.7617 13.6784 69.7915 13.5471C68.5288 14.2065 67.9832 14.6289 67.4319 15.5197C72.3261 17.598 75.4053 17.591 81.3928 15.5197Z" fill="#CBC5C5"/>
<path d="M81.3928 0.133552C80.4599 1.60732 79.7754 2.43004 78.05 3.88145C73.8172 3.61194 71.6058 3.90341 67.8251 4.86774C68.0293 3.94535 67.9777 3.42357 67.8251 2.50065C73.9189 0.082413 76.7951 -0.247386 81.3928 0.133552Z" fill="#CBC5C5"/>
<path d="M86.0167 162.871C90.4399 162.674 93.9793 163.858 95.9456 165.238C97.912 166.619 98.6985 168 99.8783 168C101.058 168 103.811 166.619 103.811 165.436C103.206 164.861 102.331 164.338 101.286 163.858C95.878 161.374 85.9293 160.051 85.4764 158.729C85.5943 160.007 85.7732 161.36 86.0167 162.871Z" fill="#CBC5C5"/>
<path d="M85.4764 151.228C85.4752 151.242 85.474 151.255 85.4729 151.269C85.3553 152.937 88.8807 149.038 90.6365 145.907C92.4062 142.751 93.3894 144.724 95.5524 145.907C97.7153 147.091 100.272 146.696 99.8783 148.077C99.485 149.458 94.3726 149.852 93.3894 149.852C92.4062 149.852 88.6702 149.852 88.4736 151.036C88.2769 152.219 93.7827 153.206 94.7658 153.206C95.749 153.206 98.6985 151.825 100.665 150.247C102.631 148.669 103.024 145.513 103.024 143.343C103.024 141.173 103.024 141.173 100.272 141.173C97.7153 141.173 95.3557 138.411 92.2096 138.411C90.4399 140.581 86.9005 143.935 85.4764 151.228Z" fill="#CBC5C5"/>
<path d="M104.794 143.343C104.794 140.778 103.614 141.962 103.614 140.778C103.745 140.252 104.401 139.003 105.974 138.214C107.94 137.228 111.086 135.847 110.3 139.792C109.671 142.948 109.12 144.395 108.923 144.724C106.876 145.773 105.718 146.515 103.614 148.274C103.418 145.907 104.794 144.447 104.794 143.343Z" fill="#CBC5C5"/>
<path d="M104.794 148.471C107.547 145.907 113.839 143.343 118.952 143.343C118.952 144.329 119.345 145.513 117.968 146.499C116.592 147.485 114.822 146.302 112.659 147.288C110.929 148.077 109.448 150.115 108.923 151.036C108.046 149.599 107.114 149.046 104.794 148.471Z" fill="#CBC5C5"/>
<path d="M114.822 153.206C113.407 152.732 113.053 149.852 113.053 148.471C115.806 146.499 116.789 150.247 124.654 145.513C125.347 146.941 125.315 147.809 125.047 151.228C123.789 152.43 122.97 153.014 121.115 153.797C120.369 149.23 119.169 147.912 114.822 149.063C116.041 150.705 116.075 151.564 114.822 153.206Z" fill="#CBC5C5"/>
<path d="M102.238 162.082C102.238 161.096 104.401 158.729 105.187 158.729C105.974 158.729 108.137 162.871 111.48 162.871C113.843 162.871 117.583 161.885 119.572 159.912C120.026 157.465 120.052 155.77 119.812 154.587C119.414 152.624 118.286 152.071 117.182 151.825C117.182 153.403 114.429 155.178 112.659 155.178C110.103 155.178 106.564 149.852 105.581 149.852C104.597 149.852 101.648 152.022 101.058 155.178C96.3389 155.376 89.85 153.206 85.3359 153.403C85.3031 154.203 85.2936 154.985 85.3085 155.77C90.2433 156.165 99.2884 162.674 102.238 162.082Z" fill="#CBC5C5"/>
<path d="M113.446 142.751C113.761 141.489 113.38 140.515 113.053 140.187C116.393 132.94 119.419 130.03 125.244 125.392C126.078 132.222 124.896 135.552 117.575 142.554L113.446 142.751Z" fill="#CBC5C5"/>
<path d="M131.733 143.343C131.733 143.996 131.205 144.526 130.553 144.526C129.901 144.526 129.373 143.996 129.373 143.343C129.373 142.689 129.901 142.159 130.553 142.159C131.205 142.159 131.733 142.689 131.733 143.343Z" fill="#CBC5C5"/>
<path d="M128.98 129.337C128.98 129.991 128.452 130.521 127.8 130.521C127.149 130.521 126.62 129.991 126.62 129.337C126.62 128.684 127.149 128.154 127.8 128.154C128.452 128.154 128.98 128.684 128.98 129.337Z" fill="#CBC5C5"/>
<path d="M142.548 112.965C142.548 113.619 142.019 114.149 141.368 114.149C140.716 114.149 140.188 113.619 140.188 112.965C140.188 112.311 140.716 111.782 141.368 111.782C142.019 111.782 142.548 112.311 142.548 112.965Z" fill="#CBC5C5"/>
<path d="M158.868 102.905C158.868 103.559 158.34 104.088 157.688 104.088C157.037 104.088 156.509 103.559 156.509 102.905C156.509 102.251 157.037 101.721 157.688 101.721C158.34 101.721 158.868 102.251 158.868 102.905Z" fill="#CBC5C5"/>
<path d="M149.233 97.7762C149.233 98.4299 148.705 98.9598 148.053 98.9598C147.402 98.9598 146.874 98.4299 146.874 97.7762C146.874 97.1225 147.402 96.5927 148.053 96.5927C148.705 96.5927 149.233 97.1225 149.233 97.7762Z" fill="#CBC5C5"/>
<path d="M150.806 82.9819C150.806 83.6355 150.278 84.1654 149.626 84.1654C148.975 84.1654 148.447 83.6355 148.447 82.9819C148.447 82.3282 148.975 81.7983 149.626 81.7983C150.278 81.7983 150.806 82.3282 150.806 82.9819Z" fill="#CBC5C5"/>
<path d="M154.935 60.0999C154.935 60.7536 154.407 61.2835 153.756 61.2835C153.104 61.2835 152.576 60.7536 152.576 60.0999C152.576 59.4463 153.104 58.9164 153.756 58.9164C154.407 58.9164 154.935 59.4463 154.935 60.0999Z" fill="#CBC5C5"/>
<path d="M145.89 64.0451C145.89 64.6988 145.362 65.2287 144.711 65.2287C144.059 65.2287 143.531 64.6988 143.531 64.0451C143.531 63.3914 144.059 62.8616 144.711 62.8616C145.362 62.8616 145.89 63.3914 145.89 64.0451Z" fill="#CBC5C5"/>
<path d="M151.003 46.4892C151.003 47.1428 150.475 47.6727 149.823 47.6727C149.171 47.6727 148.643 47.1428 148.643 46.4892C148.643 45.8355 149.171 45.3056 149.823 45.3056C150.475 45.3056 151.003 45.8355 151.003 46.4892Z" fill="#CBC5C5"/>
<path d="M142.941 40.9659C142.941 41.6196 142.413 42.1495 141.761 42.1495C141.109 42.1495 140.581 41.6196 140.581 40.9659C140.581 40.3123 141.109 39.7824 141.761 39.7824C142.413 39.7824 142.941 40.3123 142.941 40.9659Z" fill="#CBC5C5"/>
<path d="M129.373 36.8235C129.373 37.4772 128.845 38.0071 128.193 38.0071C127.542 38.0071 127.014 37.4772 127.014 36.8235C127.014 36.1699 127.542 35.64 128.193 35.64C128.845 35.64 129.373 36.1699 129.373 36.8235Z" fill="#CBC5C5"/>
<path d="M115.412 21.2401C115.412 21.8938 114.884 22.4237 114.232 22.4237C113.581 22.4237 113.053 21.8938 113.053 21.2401C113.053 20.5865 113.581 20.0566 114.232 20.0566C114.884 20.0566 115.412 20.5865 115.412 21.2401Z" fill="#CBC5C5"/>
<path d="M124.654 14.3361C124.654 14.9898 124.126 15.5197 123.474 15.5197C122.823 15.5197 122.294 14.9898 122.294 14.3361C122.294 13.6825 122.823 13.1526 123.474 13.1526C124.126 13.1526 124.654 13.6825 124.654 14.3361Z" fill="#CBC5C5"/>
<path d="M99.6816 13.1526C99.6816 13.8062 99.1534 14.3361 98.5018 14.3361C97.8503 14.3361 97.3221 13.8062 97.3221 13.1526C97.3221 12.4989 97.8503 11.969 98.5018 11.969C99.1534 11.969 99.6816 12.4989 99.6816 13.1526Z" fill="#CBC5C5"/>
<path d="M100.468 3.68419C100.468 4.33785 99.94 4.86774 99.2884 4.86774C98.6368 4.86774 98.1086 4.33785 98.1086 3.68419C98.1086 3.03054 98.6368 2.50065 99.2884 2.50065C99.94 2.50065 100.468 3.03054 100.468 3.68419Z" fill="#CBC5C5"/>
<path d="M120.131 142.159C120.394 142.883 120.761 144.566 120.131 145.513C126.821 144.273 137.757 134.609 137.042 127.365C130.937 129.111 127.298 132.207 120.131 142.159Z" fill="#CBC5C5"/>
<path d="M127.8 125.984C128.193 120.264 136.255 109.809 137.828 110.598C139.401 111.387 138.615 125.59 132.126 128.351C131.654 127.247 129.045 126.313 127.8 125.984Z" fill="#CBC5C5"/>
<path d="M132.323 140.384C135.469 137.031 141.171 133.677 146.48 134.466C145.104 139.792 136.845 142.948 133.502 144.526C133.896 143.343 133.306 140.976 132.323 140.384Z" fill="#CBC5C5"/>
<path d="M126.62 149.852C127.21 148.077 126.227 146.302 126.817 146.104C127.289 145.947 130.16 145.776 131.536 145.71C130.199 147.434 129.156 148.353 126.62 149.852Z" fill="#CBC5C5"/>
<path d="M137.042 125.984C137.828 121.842 144.121 111.584 146.874 112.571C149.626 113.557 145.89 128.746 138.222 132.494C140.188 128.351 139.058 125.984 137.042 125.984Z" fill="#CBC5C5"/>
<path d="M139.205 110.203C139.598 104.483 138.615 101.919 140.581 97.7762C142.548 93.6338 143.137 94.0283 143.924 94.2256C144.711 94.4228 146.677 100.341 145.89 104.68C145.261 108.152 144.317 111.387 143.924 112.571C143.596 111.847 142.705 110.282 141.761 109.809C140.817 109.336 139.664 109.875 139.205 110.203Z" fill="#CBC5C5"/>
<path d="M145.89 111.782C146.067 102.905 151.986 94.8371 153.756 95.0146C157.688 95.4091 154.542 113.754 149.233 116.121C149.233 111.782 148.053 110.203 145.89 111.782Z" fill="#CBC5C5"/>
<path d="M140.188 133.085C146.087 129.337 144.907 126.576 148.447 123.222C151.278 120.54 155.001 119.475 156.509 119.277C153.504 127.891 150.214 131.19 140.188 133.085Z" fill="#CBC5C5"/>
<path d="M150.02 119.869C151.199 114.442 159.261 102.905 161.621 104.088C161.621 106.653 157.4 113.754 156.509 117.699C153.52 118.015 150.937 119.277 150.02 119.869Z" fill="#CBC5C5"/>
<path d="M142.154 80.2203C145.89 81.7983 150.806 87.5188 149.626 95.8036C148.368 94.2256 147.005 94.6201 146.48 95.0146C145.838 93.2603 145.322 92.6724 143.924 92.8448C141.66 87.8957 141.527 85.1346 142.154 80.2203Z" fill="#CBC5C5"/>
<path d="M154.542 73.7107C157.098 76.2751 159.632 87.1285 156.509 96.5927C154.364 93.3904 153.328 93.9851 151.396 93.831C150.88 90.8812 150.757 87.8919 150.9 85.1517C151.197 84.8229 151.829 83.9287 151.986 82.9819C152.143 82.035 151.62 81.2723 151.339 81.0093C152.029 76.7859 153.333 73.8226 154.542 73.7107Z" fill="#CBC5C5"/>
<path d="M162.604 87.1243C162.604 92.8448 161.682 95.8816 161.621 102.313C161.031 103.694 158.868 103.497 159.261 99.5515C158.98 100.492 157.176 101.396 157.492 96.7899C157.807 92.1842 162.604 87.1243 162.604 87.1243Z" fill="#CBC5C5"/>
<path d="M139.991 65.8204C140.166 73.0156 141.832 75.8925 145.89 80.2203C146.846 78.3103 148.643 81.0093 150.413 79.234C146.48 72.1327 148.053 69.9628 144.711 67.793C142.838 66.3731 141.814 66.1477 139.991 65.8204Z" fill="#CBC5C5"/>
<path d="M148.643 57.3383C154.542 63.4533 157.923 67.3427 156.509 75.2888C154.488 71.1041 153.211 72.1341 150.806 77.0641C147.255 69.2726 146.452 64.948 148.643 57.3383Z" fill="#CBC5C5"/>
<path d="M159.261 89.0969C158.575 83.1491 158.278 80.2203 158.868 77.0641C159.779 74.8731 160.704 73.8268 163.194 72.3299C164.143 77.4953 164.065 80.3813 163.194 85.5462C160.973 86.2633 160.315 87.2364 159.261 89.0969Z" fill="#CBC5C5"/>
<path d="M158.082 75.2888C158.868 68.7793 156.115 65.2287 156.115 61.2835C156.115 57.3383 158.868 54.9712 158.868 54.9712C160.646 62.0223 160.898 65.7562 161.031 72.3299C159.852 72.774 159.201 73.4615 158.082 75.2888Z" fill="#CBC5C5"/>
<path d="M134.486 51.8151C136.178 57.2269 137.62 59.9237 141.761 63.6506C142.328 62.0294 142.728 61.6046 143.531 61.2835C142.165 58.5754 141.951 57.0644 141.761 54.3795C137.621 51.6044 136.494 51.6782 134.486 51.8151Z" fill="#CBC5C5"/>
<path d="M145.3 60.0999C147.86 55.3277 149.041 55.1625 150.9 57.3383C150.806 53.2658 150.134 51.5823 148.643 48.8563C147.258 48.6541 147.007 47.8016 146.874 46.4892C144.746 44.2557 143.652 43.7567 141.761 43.333C141.88 50.4158 142.453 54.1738 145.3 60.0999Z" fill="#CBC5C5"/>
<path d="M152.576 44.1221C155.365 46.5605 156.494 48.6122 157.295 54.1822C156.539 54.8299 156.165 55.7449 155.525 57.7328C154.629 56.7355 154.111 56.5943 153.166 56.9438C151.249 52.038 151.246 49.2322 152.576 44.1221Z" fill="#CBC5C5"/>
<path d="M141.171 52.4069C140.021 44.756 134.486 38.9934 129.373 38.9934C127.407 38.9934 126.293 37.0208 125.637 38.0071C125.286 38.536 127.954 42.9503 131.733 46.6864C134.999 49.9165 139.256 52.5898 141.171 52.4069Z" fill="#CBC5C5"/>
<path d="M128.98 26.5661C135.936 28.2405 138.971 30.3062 141.761 37.4153C139.724 39.2253 138.194 39.9846 140.581 44.7138C132.373 38.2421 130.295 34.1954 128.98 26.5661Z" fill="#CBC5C5"/>
<path d="M142.941 29.1305C147.737 33.587 149.627 36.5575 151.789 42.544C151.792 43.5088 151.731 43.9981 151.199 44.5166C150.31 43.9986 149.575 43.8603 147.463 44.1221C143.387 38.0764 142.658 34.8154 142.941 29.1305Z" fill="#CBC5C5"/>
<path d="M116.199 17.295C125.085 17.7883 128.977 19.7904 133.896 26.5661C128.227 24.4314 126.88 24.8229 127.8 29.1305C121.201 25.259 119.046 22.5242 116.199 17.295Z" fill="#CBC5C5"/>
<path d="M125.834 14.1389C126.227 17.6895 135.272 24.5935 141.958 34.2592C139.598 27.3551 138.797 26.0202 141.761 27.9469C136.265 18.9581 132.725 16.1937 125.834 14.1389Z" fill="#CBC5C5"/>
<path d="M113.053 25.9743C114.455 24.4224 115.41 23.8281 118.362 24.199C122.127 27.5208 124.162 28.6647 127.636 30.6165L127.8 30.7085C128.417 31.5434 128.698 32.3077 128.98 33.6674C123.502 33.6789 119.988 31.9484 113.053 25.9743Z" fill="#CBC5C5"/>
<path d="M106.171 17.295C109.907 18.8731 114.822 18.2813 114.822 18.2813C114.956 15.3616 116.563 15.7372 118.755 15.5197C111.502 9.82028 107.187 8.43689 98.8951 10.3707C102.828 11.969 100.468 14.8864 106.171 17.295Z" fill="#CBC5C5"/>
<path d="M112.856 23.2127C105.522 23.14 102.287 21.9805 97.3221 18.8731C98.2064 16.5173 99.1202 15.9991 101.845 15.7169C104.337 19.0471 106.597 20.0676 111.48 21.0429C111.67 22.0914 111.937 22.6556 112.856 23.2127Z" fill="#CBC5C5"/>
<path d="M101.845 2.89516C102.446 5.76179 103.176 7.22155 107.154 8.8129C110.65 9.6234 111.761 9.01722 119.345 14.9279C119.98 15.3274 120.325 15.4586 120.918 15.5197C120.829 13.868 120.981 13.0898 121.508 11.969C114.78 6.06275 110.299 4.51149 101.845 2.89516Z" fill="#CBC5C5"/>
<path d="M83.3611 15.5197C83.8879 14.0209 84.509 13.3457 86.114 12.3635C88.0213 13.445 89.9922 13.6784 94.9625 13.5471C96.2251 14.2065 96.7707 14.6289 97.3221 15.5197C92.4278 17.598 89.3486 17.591 83.3611 15.5197Z" fill="#CBC5C5"/>
<path d="M83.3611 0.133552C84.294 1.60732 84.9785 2.43004 86.7039 3.88145C90.9367 3.61194 93.1481 3.90341 96.9288 4.86774C96.7246 3.94535 96.7763 3.42357 96.9288 2.50065C90.835 0.082413 87.9588 -0.247386 83.3611 0.133552Z" fill="#CBC5C5"/>
<path d="M78.6399 163.463C78.6399 163.463 80.6073 163.858 82.377 163.858C84.1467 163.858 86.114 163.463 86.114 163.463C86.0805 163.263 86.0481 163.066 86.0167 162.871C85.7732 161.36 85.5943 160.007 85.4764 158.729C85.3822 157.709 85.3269 156.737 85.3085 155.77C85.2936 154.985 85.3031 154.203 85.3359 153.403C85.3643 152.711 85.4102 152.004 85.4729 151.269L85.4764 151.228C85.6129 149.64 85.8277 147.915 86.114 145.907C86.114 145.907 84.3433 145.513 82.377 145.513C80.4106 145.513 78.6399 145.907 78.6399 145.907C78.9263 147.915 79.141 149.64 79.2775 151.228L79.281 151.269C79.3437 152.004 79.3896 152.711 79.418 153.403C79.4508 154.203 79.4603 154.985 79.4454 155.77C79.427 156.737 79.3717 157.709 79.2775 158.729C79.1596 160.007 78.9807 161.36 78.7372 162.871C78.7058 163.066 78.6734 163.263 78.6399 163.463Z" fill="#CBC5C5"/>
<path fill-rule="evenodd" clip-rule="evenodd" d="M78.6399 145.907C78.6399 145.907 80.4106 145.513 82.377 145.513C84.3433 145.513 86.114 145.907 86.114 145.907C85.8277 147.915 85.6129 149.64 85.4764 151.228C86.9005 143.935 90.4399 140.581 92.2096 138.411C95.3557 138.411 97.7153 141.173 100.272 141.173C103.024 141.173 103.024 141.173 103.024 143.343C103.024 145.513 102.631 148.669 100.665 150.247C98.6985 151.825 95.749 153.206 94.7658 153.206C93.7827 153.206 88.2769 152.219 88.4736 151.036C88.6702 149.852 92.4062 149.852 93.3894 149.852C94.3726 149.852 99.485 149.458 99.8783 148.077C100.272 146.696 97.7153 147.091 95.5524 145.907C93.3894 144.724 92.4062 142.751 90.6365 145.907C88.8807 149.038 85.3553 152.937 85.4729 151.269C85.4102 152.004 85.3643 152.711 85.3359 153.403C89.85 153.206 96.3389 155.376 101.058 155.178C101.648 152.022 104.597 149.852 105.581 149.852C106.564 149.852 110.103 155.178 112.659 155.178C114.429 155.178 117.182 153.403 117.182 151.825C118.286 152.071 119.414 152.624 119.812 154.587L121.115 153.797C120.369 149.23 119.169 147.912 114.822 149.063C116.041 150.705 116.075 151.564 114.822 153.206C113.407 152.732 113.053 149.852 113.053 148.471C115.806 146.499 116.789 150.247 124.654 145.513C125.347 146.941 125.315 147.809 125.047 151.228L126.62 149.852C127.21 148.077 126.227 146.302 126.817 146.104C127.289 145.947 130.16 145.776 131.536 145.71L133.502 144.526C133.896 143.343 133.306 140.976 132.323 140.384C135.469 137.031 141.171 133.677 146.48 134.466L140.188 133.085C146.087 129.337 144.907 126.576 148.447 123.222C151.278 120.54 155.001 119.475 156.509 119.277V117.699C153.52 118.015 150.937 119.277 150.02 119.869C151.199 114.442 159.261 102.905 161.621 104.088V102.313C161.031 103.694 158.868 103.497 159.261 99.5515C158.98 100.492 157.176 101.396 157.492 96.7899C157.807 92.1842 162.604 87.1243 162.604 87.1243L163.194 85.5462C160.973 86.2633 160.315 87.2364 159.261 89.0969C158.575 83.1491 158.278 80.2203 158.868 77.0641C159.779 74.8731 160.704 73.8268 163.194 72.3299H161.031C159.852 72.774 159.201 73.4615 158.082 75.2888C158.868 68.7793 156.115 65.2287 156.115 61.2835C156.115 57.3383 158.868 54.9712 158.868 54.9712L157.295 54.1822C156.539 54.8299 156.165 55.7449 155.525 57.7328C154.629 56.7355 154.111 56.5943 153.166 56.9438C151.249 52.038 151.246 49.2322 152.576 44.1221L151.789 42.544C151.792 43.5088 151.731 43.9981 151.199 44.5166C150.31 43.9986 149.575 43.8603 147.463 44.1221C143.387 38.0764 142.658 34.8154 142.941 29.1305L141.761 27.9469C138.797 26.0202 139.598 27.3551 141.958 34.2592C135.272 24.5935 126.227 17.6895 125.834 14.1389L124.654 14.3361C124.654 14.9898 124.126 15.5197 123.474 15.5197C122.823 15.5197 122.294 14.9898 122.294 14.3361L121.508 11.969C120.981 13.0898 120.829 13.868 120.918 15.5197C120.325 15.4586 119.98 15.3274 119.345 14.9279C111.761 9.01722 110.65 9.6234 107.154 8.8129C103.176 7.22155 102.446 5.76179 101.845 2.89516L100.468 3.68419C100.468 4.33785 99.94 4.86774 99.2884 4.86774C98.6368 4.86774 98.1086 4.33785 98.1086 3.68419L96.9288 2.50065C96.7763 3.42357 96.7246 3.94535 96.9288 4.86774C93.1481 3.90341 90.9367 3.61194 86.7039 3.88145C84.9785 2.43004 84.294 1.60732 83.3611 0.133552H83.3601H81.3938H81.3928C80.4599 1.60732 79.7754 2.43004 78.05 3.88145C73.8172 3.61194 71.6058 3.90341 67.8251 4.86774C68.0293 3.94535 67.9777 3.42357 67.8251 2.50065L66.6453 3.68419C66.6453 4.33785 66.1171 4.86774 65.4655 4.86774C64.8139 4.86774 64.2857 4.33785 64.2857 3.68419L62.9093 2.89516C62.3083 5.76179 61.5778 7.22155 57.6002 8.8129C54.1035 9.6234 52.9927 9.01722 45.409 14.9279C44.774 15.3274 44.4294 15.4586 43.8359 15.5197C43.9246 13.868 43.7727 13.0898 43.246 11.969L42.4595 14.3361C42.4595 14.9898 41.9313 15.5197 41.2797 15.5197C40.6281 15.5197 40.0999 14.9898 40.0999 14.3361L38.9201 14.1389C38.5268 17.6895 29.4817 24.5935 22.7962 34.2592C25.1558 27.3551 25.9568 26.0202 22.9928 27.9469L21.8131 29.1305C22.0961 34.8154 21.3664 38.0764 17.2905 44.1221C15.1786 43.8603 14.4438 43.9986 13.5545 44.5166C13.0227 43.9981 12.9621 43.5088 12.9646 42.544L12.178 44.1221C13.5079 49.2322 13.5052 52.038 11.5881 56.9438C10.6434 56.5943 10.1252 56.7355 9.22855 57.7328C8.58914 55.7449 8.21515 54.8299 7.45886 54.1822L5.8858 54.9712C5.8858 54.9712 8.63866 57.3383 8.63866 61.2835C8.63866 65.2287 5.8858 68.7793 6.67233 75.2888C5.55334 73.4615 4.90226 72.774 3.72284 72.3299H1.55988C4.04991 73.8268 4.97488 74.8731 5.8858 77.0641C6.4757 80.2203 6.17889 83.1491 5.49253 89.0969C4.43873 87.2364 3.7808 86.2633 1.55988 85.5462L2.14977 87.1243C2.14977 87.1243 6.947 92.1842 7.26223 96.7899C7.57745 101.396 5.77375 100.492 5.49253 99.5515C5.8858 103.497 3.72284 103.694 3.13294 102.313V104.088C5.49253 102.905 13.5545 114.442 14.7343 119.869C13.8167 119.277 11.2342 118.015 8.24539 117.699V119.277C9.75291 119.475 13.4758 120.54 16.3073 123.222C19.8467 126.576 18.6669 129.337 24.5659 133.085L18.2737 134.466C23.5827 133.677 29.2851 137.031 32.4312 140.384C31.4481 140.976 30.8582 143.343 31.2514 144.526L33.2178 145.71C34.5942 145.776 37.465 145.947 37.9369 146.104C38.5268 146.302 37.5437 148.077 38.1336 149.852L39.7066 151.228C39.4388 147.809 39.4067 146.941 40.0999 145.513C47.9652 150.247 48.9484 146.499 51.7012 148.471C51.7012 149.852 51.3473 152.732 49.9315 153.206C48.6788 151.564 48.7125 150.705 49.9315 149.063C45.5851 147.912 44.3853 149.23 43.6393 153.797L44.9422 154.587C45.3402 152.624 46.4677 152.071 47.5719 151.825C47.5719 153.403 50.3248 155.178 52.0945 155.178C54.6507 155.178 58.1901 149.852 59.1733 149.852C60.1564 149.852 63.1059 152.022 63.6958 155.178C68.415 155.376 74.9039 153.206 79.418 153.403C79.3896 152.711 79.3437 152.004 79.281 151.269C79.3987 152.937 75.8732 149.038 74.1174 145.907C72.3477 142.751 71.3645 144.724 69.2016 145.907C67.0386 147.091 64.4824 146.696 64.8756 148.077C65.2689 149.458 70.3813 149.852 71.3645 149.852C72.3477 149.852 76.0837 149.852 76.2803 151.036C76.477 152.219 70.9713 153.206 69.9881 153.206C69.0049 153.206 66.0554 151.825 64.0891 150.247C62.1228 148.669 61.7295 145.513 61.7295 143.343C61.7295 141.173 61.7295 141.173 64.4824 141.173C67.0386 141.173 69.3982 138.411 72.5443 138.411C74.314 140.581 77.8534 143.935 79.2775 151.228C79.141 149.64 78.9263 147.915 78.6399 145.907ZM61.1396 140.778C61.1396 141.962 59.9598 140.778 59.9598 143.343C59.9598 144.447 61.3362 145.907 61.1396 148.274C59.036 146.515 57.8776 145.773 55.8305 144.724C55.6339 144.395 55.0833 142.948 54.4541 139.792C53.6676 135.847 56.8137 137.228 58.78 138.214C60.3531 139.003 61.0085 140.252 61.1396 140.778ZM45.8022 143.343C50.9147 143.343 57.207 145.907 59.9598 148.471C57.6396 149.046 56.7074 149.599 55.8305 151.036C55.3062 150.115 53.8249 148.077 52.0945 147.288C49.9315 146.302 48.1618 147.485 46.7854 146.499C45.409 145.513 45.8022 144.329 45.8022 143.343ZM51.7012 140.187C51.3735 140.515 50.9934 141.489 51.308 142.751L47.1787 142.554C39.8574 135.552 38.6761 132.222 39.51 125.392C45.3351 130.03 48.3605 132.94 51.7012 140.187ZM44.6225 145.513C43.9932 144.566 44.3603 142.883 44.6225 142.159C37.4555 132.207 33.8164 129.111 27.712 127.365C26.9965 134.609 37.9333 144.273 44.6225 145.513ZM34.2009 144.526C33.5493 144.526 33.0211 143.996 33.0211 143.343C33.0211 142.689 33.5493 142.159 34.2009 142.159C34.8525 142.159 35.3807 142.689 35.3807 143.343C35.3807 143.996 34.8525 144.526 34.2009 144.526ZM36.9538 130.521C36.3022 130.521 35.774 129.991 35.774 129.337C35.774 128.684 36.3022 128.154 36.9538 128.154C37.6054 128.154 38.1336 128.684 38.1336 129.337C38.1336 129.991 37.6054 130.521 36.9538 130.521ZM23.3861 114.149C22.7345 114.149 22.2063 113.619 22.2063 112.965C22.2063 112.311 22.7345 111.782 23.3861 111.782C24.0377 111.782 24.5659 112.311 24.5659 112.965C24.5659 113.619 24.0377 114.149 23.3861 114.149ZM7.06559 104.088C6.41401 104.088 5.8858 103.559 5.8858 102.905C5.8858 102.251 6.41401 101.721 7.06559 101.721C7.71718 101.721 8.24539 102.251 8.24539 102.905C8.24539 103.559 7.71718 104.088 7.06559 104.088ZM16.7006 98.9598C16.049 98.9598 15.5208 98.4299 15.5208 97.7762C15.5208 97.1225 16.049 96.5927 16.7006 96.5927C17.3522 96.5927 17.8804 97.1225 17.8804 97.7762C17.8804 98.4299 17.3522 98.9598 16.7006 98.9598ZM15.1275 84.1654C14.476 84.1654 13.9477 83.6355 13.9477 82.9819C13.9477 82.3282 14.476 81.7983 15.1275 81.7983C15.7791 81.7983 16.3073 82.3282 16.3073 82.9819C16.3073 83.6355 15.7791 84.1654 15.1275 84.1654ZM10.9982 61.2835C10.3467 61.2835 9.81845 60.7536 9.81845 60.0999C9.81845 59.4463 10.3467 58.9164 10.9982 58.9164C11.6498 58.9164 12.178 59.4463 12.178 60.0999C12.178 60.7536 11.6498 61.2835 10.9982 61.2835ZM20.0434 65.2287C19.3918 65.2287 18.8636 64.6988 18.8636 64.0451C18.8636 63.3914 19.3918 62.8616 20.0434 62.8616C20.6949 62.8616 21.2232 63.3914 21.2232 64.0451C21.2232 64.6988 20.6949 65.2287 20.0434 65.2287ZM14.9309 47.6727C14.2793 47.6727 13.7511 47.1428 13.7511 46.4892C13.7511 45.8355 14.2793 45.3056 14.9309 45.3056C15.5825 45.3056 16.1107 45.8355 16.1107 46.4892C16.1107 47.1428 15.5825 47.6727 14.9309 47.6727ZM22.9928 42.1495C22.3413 42.1495 21.8131 41.6196 21.8131 40.9659C21.8131 40.3123 22.3413 39.7824 22.9928 39.7824C23.6444 39.7824 24.1726 40.3123 24.1726 40.9659C24.1726 41.6196 23.6444 42.1495 22.9928 42.1495ZM36.5605 38.0071C35.9089 38.0071 35.3807 37.4772 35.3807 36.8235C35.3807 36.1699 35.9089 35.64 36.5605 35.64C37.2121 35.64 37.7403 36.1699 37.7403 36.8235C37.7403 37.4772 37.2121 38.0071 36.5605 38.0071ZM50.5214 22.4237C49.8699 22.4237 49.3416 21.8938 49.3416 21.2401C49.3416 20.5865 49.8699 20.0566 50.5214 20.0566C51.173 20.0566 51.7012 20.5865 51.7012 21.2401C51.7012 21.8938 51.173 22.4237 50.5214 22.4237ZM66.2521 14.3361C65.6005 14.3361 65.0723 13.8062 65.0723 13.1526C65.0723 12.4989 65.6005 11.969 66.2521 11.969C66.9036 11.969 67.4319 12.4989 67.4319 13.1526C67.4319 13.8062 66.9036 14.3361 66.2521 14.3361ZM26.9255 110.598C28.4986 109.809 36.5605 120.264 36.9538 125.984C35.7084 126.313 33.0998 127.247 32.6279 128.351C26.139 125.59 25.3524 111.387 26.9255 110.598ZM17.8804 112.571C20.6333 111.584 26.9255 121.842 27.712 125.984C25.6964 125.984 24.5659 128.351 26.5322 132.494C18.8636 128.746 15.1275 113.557 17.8804 112.571ZM24.1726 97.7762C26.139 101.919 25.1558 104.483 25.5491 110.203C25.0903 109.875 23.9367 109.336 22.9928 109.809C22.049 110.282 21.1576 111.847 20.8299 112.571C20.4366 111.387 19.4928 108.152 18.8636 104.68C18.077 100.341 20.0434 94.4228 20.8299 94.2256C21.6164 94.0283 22.2063 93.6338 24.1726 97.7762ZM10.9982 95.0146C12.7679 94.8371 18.6872 102.905 18.8636 111.782C16.7006 110.203 15.5208 111.782 15.5208 116.121C10.2117 113.754 7.06559 95.4091 10.9982 95.0146ZM15.1275 95.8036C13.9477 87.5188 18.8636 81.7983 22.5996 80.2203C23.2266 85.1346 23.0937 87.8957 20.8299 92.8448C19.4316 92.6724 18.9161 93.2603 18.2737 95.0146C17.7493 94.6201 16.386 94.2256 15.1275 95.8036ZM8.24539 96.5927C5.12229 87.1285 7.65549 76.2751 10.2117 73.7107C11.4212 73.8226 12.7251 76.7859 13.4151 81.0093C13.1338 81.2723 12.6106 82.035 12.7679 82.9819C12.9253 83.9287 13.5572 84.8229 13.8535 85.1517C13.9966 87.8919 13.8742 90.8812 13.3578 93.831C11.4258 93.9851 10.3897 93.3904 8.24539 96.5927ZM18.8636 80.2203C22.9216 75.8925 24.5883 73.0156 24.7625 65.8204C22.9395 66.1477 21.9158 66.3731 20.0434 67.793C16.7006 69.9628 18.2737 72.1327 14.341 79.234C16.1107 81.0093 17.9084 78.3103 18.8636 80.2203ZM8.24539 75.2888C6.83104 67.3427 10.2117 63.4533 16.1107 57.3383C18.3017 64.948 17.4994 69.2726 13.9477 77.0641C11.5433 72.1341 10.2654 71.1041 8.24539 75.2888ZM22.9928 63.6506C27.1337 59.9237 28.5756 57.2269 30.2683 51.8151C28.2594 51.6782 27.1327 51.6044 22.9928 54.3795C22.803 57.0644 22.5884 58.5754 21.2232 61.2835C22.0259 61.6046 22.4259 62.0294 22.9928 63.6506ZM13.8535 57.3383C15.7126 55.1625 16.8937 55.3277 19.4535 60.0999C22.3005 54.1738 22.8744 50.4158 22.9928 43.333C21.1019 43.7567 20.0076 44.2557 17.8804 46.4892C17.7464 47.8016 17.4962 48.6541 16.1107 48.8563C14.6202 51.5823 13.9481 53.2658 13.8535 57.3383ZM35.3807 38.9934C30.2683 38.9934 24.7325 44.756 23.5827 52.4069C25.4974 52.5898 29.7545 49.9165 33.0211 46.6864C36.7995 42.9503 39.4683 38.536 39.1167 38.0071C38.4613 37.0208 37.347 38.9934 35.3807 38.9934ZM22.9928 37.4153C25.7831 30.3062 28.818 28.2405 35.774 26.5661C34.4592 34.1954 32.3808 38.2421 24.1726 44.7138C26.56 39.9846 25.0296 39.2253 22.9928 37.4153ZM30.8582 26.5661C35.7766 19.7904 39.6689 17.7883 48.5551 17.295C45.7076 22.5242 43.5533 25.259 36.9538 29.1305C37.8738 24.8229 36.5269 24.4314 30.8582 26.5661ZM46.3921 24.199C49.3438 23.8281 50.2988 24.4224 51.7012 25.9743C44.7656 31.9484 41.2518 33.6789 35.774 33.6674C36.0556 32.3077 36.3368 31.5434 36.9538 30.7085L37.1175 30.6165C40.5915 28.6647 42.6273 27.5208 46.3921 24.199ZM49.9315 18.2813C49.9315 18.2813 54.8474 18.8731 58.5834 17.295C64.2857 14.8864 61.9261 11.969 65.8588 10.3707C57.5665 8.43689 53.2519 9.82028 45.9989 15.5197C48.1906 15.7372 49.7978 15.3616 49.9315 18.2813ZM67.4319 18.8731C62.4673 21.9805 59.2321 23.14 51.8979 23.2127C52.8172 22.6556 53.0841 22.0914 53.2743 21.0429C58.1565 20.0676 60.4169 19.0471 62.9093 15.7169C65.6338 15.9991 66.5475 16.5173 67.4319 18.8731ZM82.377 8.90762C79.4491 10.7866 77.779 11.5745 73.5275 11.5745C70.1222 11.5745 68.7902 10.7657 67.5679 10.0235C66.5316 9.39425 65.5742 8.8129 63.4992 8.8129C70.7646 4.02894 75.2174 3.65858 82.377 6.73397C89.5365 3.65858 93.9893 4.02894 101.255 8.8129C99.1797 8.8129 98.2223 9.39425 97.1861 10.0235C95.9637 10.7657 94.6317 11.5745 91.2264 11.5745C86.9749 11.5745 85.3048 10.7866 82.377 8.90762ZM78.6399 12.3635C80.2449 13.3457 80.866 14.0209 81.3928 15.5197C75.4053 17.591 72.3261 17.598 67.4319 15.5197C67.9832 14.6289 68.5288 14.2065 69.7915 13.5471C74.7617 13.6784 76.7326 13.445 78.6399 12.3635ZM103.614 140.778C103.614 141.962 104.794 140.778 104.794 143.343C104.794 144.447 103.418 145.907 103.614 148.274C105.718 146.515 106.876 145.773 108.923 144.724C109.12 144.395 109.671 142.948 110.3 139.792C111.086 135.847 107.94 137.228 105.974 138.214C104.401 139.003 103.745 140.252 103.614 140.778ZM118.952 143.343C113.839 143.343 107.547 145.907 104.794 148.471C107.114 149.046 108.046 149.599 108.923 151.036C109.448 150.115 110.929 148.077 112.659 147.288C114.822 146.302 116.592 147.485 117.968 146.499C119.345 145.513 118.952 144.329 118.952 143.343ZM113.053 140.187C113.38 140.515 113.761 141.489 113.446 142.751L117.575 142.554C124.896 135.552 126.078 132.222 125.244 125.392C119.419 130.03 116.393 132.94 113.053 140.187ZM120.131 145.513C120.761 144.566 120.394 142.883 120.131 142.159C127.298 132.207 130.937 129.111 137.042 127.365C137.757 134.609 126.821 144.273 120.131 145.513ZM130.553 144.526C131.205 144.526 131.733 143.996 131.733 143.343C131.733 142.689 131.205 142.159 130.553 142.159C129.901 142.159 129.373 142.689 129.373 143.343C129.373 143.996 129.901 144.526 130.553 144.526ZM127.8 130.521C128.452 130.521 128.98 129.991 128.98 129.337C128.98 128.684 128.452 128.154 127.8 128.154C127.149 128.154 126.62 128.684 126.62 129.337C126.62 129.991 127.149 130.521 127.8 130.521ZM141.368 114.149C142.019 114.149 142.548 113.619 142.548 112.965C142.548 112.311 142.019 111.782 141.368 111.782C140.716 111.782 140.188 112.311 140.188 112.965C140.188 113.619 140.716 114.149 141.368 114.149ZM157.688 104.088C158.34 104.088 158.868 103.559 158.868 102.905C158.868 102.251 158.34 101.721 157.688 101.721C157.037 101.721 156.509 102.251 156.509 102.905C156.509 103.559 157.037 104.088 157.688 104.088ZM148.053 98.9598C148.705 98.9598 149.233 98.4299 149.233 97.7762C149.233 97.1225 148.705 96.5927 148.053 96.5927C147.402 96.5927 146.874 97.1225 146.874 97.7762C146.874 98.4299 147.402 98.9598 148.053 98.9598ZM149.626 84.1654C150.278 84.1654 150.806 83.6355 150.806 82.9819C150.806 82.3282 150.278 81.7983 149.626 81.7983C148.975 81.7983 148.447 82.3282 148.447 82.9819C148.447 83.6355 148.975 84.1654 149.626 84.1654ZM153.756 61.2835C154.407 61.2835 154.935 60.7536 154.935 60.0999C154.935 59.4463 154.407 58.9164 153.756 58.9164C153.104 58.9164 152.576 59.4463 152.576 60.0999C152.576 60.7536 153.104 61.2835 153.756 61.2835ZM144.711 65.2287C145.362 65.2287 145.89 64.6988 145.89 64.0451C145.89 63.3914 145.362 62.8616 144.711 62.8616C144.059 62.8616 143.531 63.3914 143.531 64.0451C143.531 64.6988 144.059 65.2287 144.711 65.2287ZM149.823 47.6727C150.475 47.6727 151.003 47.1428 151.003 46.4892C151.003 45.8355 150.475 45.3056 149.823 45.3056C149.171 45.3056 148.643 45.8355 148.643 46.4892C148.643 47.1428 149.171 47.6727 149.823 47.6727ZM141.761 42.1495C142.413 42.1495 142.941 41.6196 142.941 40.9659C142.941 40.3123 142.413 39.7824 141.761 39.7824C141.109 39.7824 140.581 40.3123 140.581 40.9659C140.581 41.6196 141.109 42.1495 141.761 42.1495ZM128.193 38.0071C128.845 38.0071 129.373 37.4772 129.373 36.8235C129.373 36.1699 128.845 35.64 128.193 35.64C127.542 35.64 127.014 36.1699 127.014 36.8235C127.014 37.4772 127.542 38.0071 128.193 38.0071ZM114.232 22.4237C114.884 22.4237 115.412 21.8938 115.412 21.2401C115.412 20.5865 114.884 20.0566 114.232 20.0566C113.581 20.0566 113.053 20.5865 113.053 21.2401C113.053 21.8938 113.581 22.4237 114.232 22.4237ZM98.5018 14.3361C99.1534 14.3361 99.6816 13.8062 99.6816 13.1526C99.6816 12.4989 99.1534 11.969 98.5018 11.969C97.8503 11.969 97.3221 12.4989 97.3221 13.1526C97.3221 13.8062 97.8503 14.3361 98.5018 14.3361ZM137.828 110.598C136.255 109.809 128.193 120.264 127.8 125.984C129.045 126.313 131.654 127.247 132.126 128.351C138.615 125.59 139.401 111.387 137.828 110.598ZM146.874 112.571C144.121 111.584 137.828 121.842 137.042 125.984C139.058 125.984 140.188 128.351 138.222 132.494C145.89 128.746 149.626 113.557 146.874 112.571ZM140.581 97.7762C138.615 101.919 139.598 104.483 139.205 110.203C139.664 109.875 140.817 109.336 141.761 109.809C142.705 110.282 143.596 111.847 143.924 112.571C144.317 111.387 145.261 108.152 145.89 104.68C146.677 100.341 144.711 94.4228 143.924 94.2256C143.137 94.0283 142.548 93.6338 140.581 97.7762ZM153.756 95.0146C151.986 94.8371 146.067 102.905 145.89 111.782C148.053 110.203 149.233 111.782 149.233 116.121C154.542 113.754 157.688 95.4091 153.756 95.0146ZM149.626 95.8036C150.806 87.5188 145.89 81.7983 142.154 80.2203C141.527 85.1346 141.66 87.8957 143.924 92.8448C145.322 92.6724 145.838 93.2603 146.48 95.0146C147.005 94.6201 148.368 94.2256 149.626 95.8036ZM156.509 96.5927C159.632 87.1285 157.098 76.2751 154.542 73.7107C153.333 73.8226 152.029 76.7859 151.339 81.0093C151.62 81.2723 152.143 82.035 151.986 82.9819C151.829 83.9287 151.197 84.8229 150.9 85.1517C150.757 87.8919 150.88 90.8812 151.396 93.831C153.328 93.9851 154.364 93.3904 156.509 96.5927ZM145.89 80.2203C141.832 75.8925 140.166 73.0156 139.991 65.8204C141.814 66.1477 142.838 66.3731 144.711 67.793C148.053 69.9628 146.48 72.1327 150.413 79.234C148.643 81.0093 146.846 78.3103 145.89 80.2203ZM156.509 75.2888C157.923 67.3427 154.542 63.4533 148.643 57.3383C146.452 64.948 147.255 69.2726 150.806 77.0641C153.211 72.1341 154.488 71.1041 156.509 75.2888ZM141.761 63.6506C137.62 59.9237 136.178 57.2269 134.486 51.8151C136.494 51.6782 137.621 51.6044 141.761 54.3795C141.951 57.0644 142.165 58.5754 143.531 61.2835C142.728 61.6046 142.328 62.0294 141.761 63.6506ZM150.9 57.3383C149.041 55.1625 147.86 55.3277 145.3 60.0999C142.453 54.1738 141.88 50.4158 141.761 43.333C143.652 43.7567 144.746 44.2557 146.874 46.4892C147.007 47.8016 147.258 48.6541 148.643 48.8563C150.134 51.5823 150.806 53.2658 150.9 57.3383ZM129.373 38.9934C134.486 38.9934 140.021 44.756 141.171 52.4069C139.256 52.5898 134.999 49.9165 131.733 46.6864C127.954 42.9503 125.286 38.536 125.637 38.0071C126.293 37.0208 127.407 38.9934 129.373 38.9934ZM141.761 37.4153C138.971 30.3062 135.936 28.2405 128.98 26.5661C130.295 34.1954 132.373 38.2421 140.581 44.7138C138.194 39.9846 139.724 39.2253 141.761 37.4153ZM133.896 26.5661C128.977 19.7904 125.085 17.7883 116.199 17.295C119.046 22.5242 121.201 25.259 127.8 29.1305C126.88 24.8229 128.227 24.4314 133.896 26.5661ZM118.362 24.199C115.41 23.8281 114.455 24.4224 113.053 25.9743C119.988 31.9484 123.502 33.6789 128.98 33.6674C128.698 32.3077 128.417 31.5434 127.8 30.7085L127.636 30.6165C124.162 28.6647 122.127 27.5208 118.362 24.199ZM114.822 18.2813C114.822 18.2813 109.907 18.8731 106.171 17.295C100.468 14.8864 102.828 11.969 98.8951 10.3707C107.187 8.43689 111.502 9.82028 118.755 15.5197C116.563 15.7372 114.956 15.3616 114.822 18.2813ZM97.3221 18.8731C102.287 21.9805 105.522 23.14 112.856 23.2127C111.937 22.6556 111.67 22.0914 111.48 21.0429C106.597 20.0676 104.337 19.0471 101.845 15.7169C99.1202 15.9991 98.2064 16.5173 97.3221 18.8731ZM86.114 12.3635C84.509 13.3457 83.8879 14.0209 83.3611 15.5197C89.3486 17.591 92.4278 17.598 97.3221 15.5197C96.7707 14.6289 96.2251 14.2065 94.9625 13.5471C89.9922 13.6784 88.0213 13.445 86.114 12.3635Z" fill="#6F6C6C"/>
<path fill-rule="evenodd" clip-rule="evenodd" d="M82.377 6.73397C89.5365 3.65858 93.9893 4.02894 101.255 8.8129C99.1797 8.8129 98.2223 9.39425 97.1861 10.0235C95.9637 10.7657 94.6317 11.5745 91.2264 11.5745C86.9749 11.5745 85.3048 10.7866 82.377 8.90762C82.7354 8.67758 83.1127 8.43118 83.5159 8.16787C83.7796 7.99565 84.0544 7.8162 84.3423 7.62935C83.6635 7.30443 83.0097 7.00574 82.377 6.73397ZM82.377 6.73397C81.7443 7.00574 81.0904 7.30443 80.4116 7.62935C80.6995 7.8162 80.9743 7.99565 81.238 8.16787C81.6412 8.43118 82.0185 8.67758 82.377 8.90762C79.4491 10.7866 77.779 11.5745 73.5275 11.5745C70.1222 11.5745 68.7902 10.7657 67.5679 10.0235C66.5316 9.39425 65.5742 8.8129 63.4992 8.8129C70.7646 4.02894 75.2174 3.65858 82.377 6.73397Z" fill="#CBC5C5"/>
<path d="M82.377 6.73397C81.7443 7.00574 81.0904 7.30443 80.4116 7.62935C80.6995 7.8162 80.9743 7.99565 81.238 8.16787C81.6412 8.43118 82.0185 8.67758 82.377 8.90762C82.7354 8.67758 83.1127 8.43118 83.5159 8.16787C83.7796 7.99565 84.0544 7.8162 84.3423 7.62935C83.6635 7.30443 83.0097 7.00574 82.377 6.73397Z" fill="#6F6C6C"/>
<path d="M85.3085 155.77C85.3269 156.737 85.3822 157.709 85.4764 158.729C85.9293 160.051 95.878 161.374 101.286 163.858L102.238 162.082C99.2884 162.674 90.2433 156.165 85.3085 155.77Z" fill="#6F6C6C"/>
<path d="M79.2775 158.729C79.3717 157.709 79.427 156.737 79.4454 155.77C74.5106 156.165 65.4655 162.674 62.516 162.082L63.4675 163.858C68.876 161.374 78.8246 160.051 79.2775 158.729Z" fill="#6F6C6C"/>
<path fill-rule="evenodd" clip-rule="evenodd" d="M98.0259 93.7891C99.4701 92.1491 98.2404 90.5391 97.7927 90.1455C97.3451 89.752 95.5845 90.8494 95.286 90.587C95.7753 89.4301 95.8528 88.4402 93.316 86.2101C90.7792 83.9801 90.4032 84.7076 89.8422 84.7435L93.2558 80.8669L92.2112 79.9487L88.9289 83.6761L68.5088 63.8737L62.2119 62.3059L64.57 68.3466L86.8282 86.0616L83.5459 89.7891L84.5905 90.7073L88.0041 86.8308C88.04 87.3914 87.0671 87.5942 89.9024 90.0866C92.7377 92.5791 93.6926 92.0959 94.4983 91.4816C94.7967 91.744 93.9315 93.6285 94.3791 94.022C94.8268 94.4156 96.5816 95.4292 98.0259 93.7891Z" fill="#CBC5C5"/>
<path fill-rule="evenodd" clip-rule="evenodd" d="M63.6062 93.7891C62.162 92.149 63.3916 90.539 63.8393 90.1455C64.287 89.7519 66.0476 90.8494 66.346 90.587C65.8567 89.4301 65.7792 88.4401 68.316 86.2101C70.8529 83.98 71.2288 84.7076 71.7898 84.7434L68.3762 80.8669L69.4208 79.9486L72.7031 83.676L93.1232 63.8736L99.4201 62.3058L97.062 68.3465L74.8038 86.0616L78.0861 89.789L77.0416 90.7073L73.6279 86.8308C73.5921 87.3913 74.5649 87.5942 71.7297 90.0866C68.8944 92.579 67.9395 92.0959 67.1338 91.4816C66.8353 91.7439 67.7006 93.6284 67.2529 94.022C66.8052 94.4155 65.0504 95.4291 63.6062 93.7891Z" fill="#CBC5C5"/>
<path fill-rule="evenodd" clip-rule="evenodd" d="M67.2744 36H107.326V38.7451H67.9823L50.0631 48.6271H107.326V51.3722H45.6429L42.7875 58.1346H107.326V60.8797H56.9508L40.0934 101.744H65.9934V104.489H35.9893L53.9792 60.8797H38.6465L43.6508 49.0278L67.2744 36ZM107.616 65.1749L109.56 67.1153L106.731 69.9438V74.8229H115.167V79.755L115.799 80.3865H120.584L125.102 75.869L128.989 79.755V93.275L126.21 96.0535H122.02L120.584 94.6178H119.296V96.7184H121.45V104.043L117.563 107.929L113.856 104.223V102.514H112.927L110.952 104.489H104.788L100.932 100.633V98.2072H100.448V105.3L93.6268 112.12V121H85.8532V114.632L82.7717 111.551L83.7325 110.591H81.9908L75.5549 104.16V99.0463H73.8814V101.142H71.1339V96.3012H78.3024V103.023L83.1288 107.846H87.7031V110.504L86.6559 111.551L88.6006 113.496V118.255H90.8793V110.983L97.7005 104.163V95.4621H103.679V99.4969L105.926 101.744H109.814L111.788 99.7694H116.603V103.086L117.563 104.046L118.703 102.907V99.4635H116.549V91.8727H121.723L123.159 93.3084H125.072L126.242 92.1385V80.8915L125.102 79.7524L121.723 83.1316H114.66L112.42 80.8915V77.568H103.983V68.8073L107.616 65.1749Z" fill="#CBC5C5"/>
</svg>
