<svg width="164" height="124" viewBox="0 0 164 124" fill="none" xmlns="http://www.w3.org/2000/svg">
<path d="M0.212891 22C0.212891 9.84974 10.0558 0 22.1977 0H141.116C153.258 0 163.1 9.84974 163.1 22V102C163.1 114.15 153.258 124 141.116 124H22.1977C10.0558 124 0.212891 114.15 0.212891 102V22Z" fill="#C5A869"/>
<path fill-rule="evenodd" clip-rule="evenodd" d="M141.116 11H22.1977C16.1268 11 11.2053 15.9249 11.2053 22V102C11.2053 108.075 16.1268 113 22.1977 113H141.116C147.187 113 152.108 108.075 152.108 102V22C152.108 15.9249 147.187 11 141.116 11ZM22.1977 0C10.0558 0 0.212891 9.84974 0.212891 22V102C0.212891 114.15 10.0558 124 22.1977 124H141.116C153.258 124 163.1 114.15 163.1 102V22C163.1 9.84974 153.258 0 141.116 0H22.1977Z" fill="#A68C55"/>
<path fill-rule="evenodd" clip-rule="evenodd" d="M81.6611 91.5097L91.6628 101.512V97.376L83.3146 89.0279V84.6657L91.6628 93.0138V89.0279L83.3146 80.6797V75.0503V70.9725V61.9172L89.5517 68.1544C87.828 69.6406 85.6803 70.6487 83.3146 70.9725V75.0503C91.4521 74.2219 97.8016 67.3489 97.8016 58.9928C97.8016 50.6368 91.4521 43.7637 83.3146 42.9353V47.0132C85.6804 47.337 87.8281 48.3451 89.5519 49.8314L83.3146 56.0686V47.0132V42.9353V36.4564L93.0168 42.7739L81.6611 22.4893L70.2994 42.7739L80.0016 36.4564V42.9353V47.0132V56.0686L73.7644 49.8314C75.4881 48.3451 77.6359 47.337 80.0016 47.0132V42.9353C71.8642 43.7637 65.5146 50.6368 65.5146 58.9928C65.5146 67.3489 71.8642 74.2219 80.0016 75.0503V70.9725C77.6359 70.6487 75.4882 69.6406 73.7645 68.1544L80.0016 61.9172V70.9725V75.0503V80.6797L71.6535 89.0279V93.0138L80.0016 84.6657V89.0279L71.6535 97.376V101.512L81.6611 91.5097ZM83.3146 58.6073V59.3786L90.8211 66.885C92.6473 64.767 93.7515 62.0089 93.7515 58.9928C93.7515 55.9768 92.6473 53.2187 90.8212 51.1007L83.3146 58.6073ZM80.0016 58.6073V59.3786L72.4952 66.885C70.669 64.767 69.5647 62.0089 69.5647 58.9928C69.5647 55.9768 70.6689 53.2187 72.4951 51.1007L80.0016 58.6073Z" fill="black"/>
</svg>
