<svg width="164" height="124" viewBox="0 0 164 124" fill="none" xmlns="http://www.w3.org/2000/svg">
<path d="M0.763672 22C0.763672 9.84974 10.6066 0 22.7485 0H141.666C153.808 0 163.651 9.84974 163.651 22V102C163.651 114.15 153.808 124 141.666 124H22.7485C10.6066 124 0.763672 114.15 0.763672 102V22Z" fill="#C5A869"/>
<path fill-rule="evenodd" clip-rule="evenodd" d="M141.666 11H22.7485C16.6776 11 11.7561 15.9249 11.7561 22V102C11.7561 108.075 16.6776 113 22.7485 113H141.666C147.737 113 152.659 108.075 152.659 102V22C152.659 15.9249 147.737 11 141.666 11ZM22.7485 0C10.6066 0 0.763672 9.84974 0.763672 22V102C0.763672 114.15 10.6066 124 22.7485 124H141.666C153.808 124 163.651 114.15 163.651 102V22C163.651 9.84974 153.808 0 141.666 0H22.7485Z" fill="#A68C55"/>
<path d="M69.0244 74.7798C69.0244 77.6399 66.7059 79.9585 63.8458 79.9585C60.9857 79.9585 58.6671 77.6399 58.6671 74.7798C58.6671 73.2995 59.2882 71.9643 60.284 71.0205H56.6809C55.8772 72.8387 54.0578 74.1075 51.942 74.1075C49.0819 74.1075 46.7633 71.789 46.7633 68.9289C46.7633 67.7355 47.167 66.6364 47.8453 65.7606L46.1351 64.7421H44.0713C44.0713 73.7042 53.356 81.883 59.149 81.883H131.205L144.537 71.0205L142.394 65.4562L139.581 66.7389C140.306 67.63 140.74 68.7667 140.74 70.0049C140.74 72.865 138.422 75.1836 135.561 75.1836C133.006 75.1836 130.882 73.3322 130.459 70.8975L130.189 71.0205H125.068C126.064 71.9643 126.685 73.2995 126.685 74.7798C126.685 77.6399 124.366 79.9585 121.506 79.9585C118.646 79.9585 116.328 77.6399 116.328 74.7798C116.328 73.2995 116.949 71.9643 117.945 71.0205H110.653C111.649 71.9643 112.27 73.2995 112.27 74.7798C112.27 77.6399 109.951 79.9585 107.091 79.9585C104.231 79.9585 101.913 77.6399 101.913 74.7798C101.913 73.2995 102.534 71.9643 103.529 71.0205H96.2378C97.2336 71.9643 97.8547 73.2995 97.8547 74.7798C97.8547 77.6399 95.5361 79.9585 92.676 79.9585C89.8159 79.9585 87.4974 77.6399 87.4974 74.7798C87.4974 73.2995 88.1185 71.9643 89.1143 71.0205H81.8227C82.8185 71.9643 83.4396 73.2995 83.4396 74.7798C83.4396 77.6399 81.121 79.9585 78.2609 79.9585C75.4008 79.9585 73.0823 77.6399 73.0823 74.7798C73.0823 73.2995 73.7033 71.9643 74.6991 71.0205H67.4076C68.4034 71.9643 69.0244 73.2995 69.0244 74.7798Z" fill="black"/>
<path d="M51.942 72.6281C53.5168 72.6281 54.8617 71.6441 55.3955 70.2575L49.1297 66.5256C48.5767 67.1721 48.2428 68.0115 48.2428 68.9289C48.2428 70.9719 49.899 72.6281 51.942 72.6281Z" fill="black"/>
<path d="M67.545 74.7798C67.545 76.8229 65.8888 78.4791 63.8458 78.4791C61.8027 78.4791 60.1465 76.8229 60.1465 74.7798C60.1465 72.7368 61.8027 71.0806 63.8458 71.0806C65.8888 71.0806 67.545 72.7368 67.545 74.7798Z" fill="black"/>
<path d="M81.9602 74.7798C81.9602 76.8229 80.304 78.4791 78.2609 78.4791C76.2179 78.4791 74.5617 76.8229 74.5617 74.7798C74.5617 72.7368 76.2179 71.0806 78.2609 71.0806C80.304 71.0806 81.9602 72.7368 81.9602 74.7798Z" fill="black"/>
<path d="M96.3753 74.7798C96.3753 76.8229 94.7191 78.4791 92.676 78.4791C90.633 78.4791 88.9768 76.8229 88.9768 74.7798C88.9768 72.7368 90.633 71.0806 92.676 71.0806C94.7191 71.0806 96.3753 72.7368 96.3753 74.7798Z" fill="black"/>
<path d="M110.79 74.7798C110.79 76.8229 109.134 78.4791 107.091 78.4791C105.048 78.4791 103.392 76.8229 103.392 74.7798C103.392 72.7368 105.048 71.0806 107.091 71.0806C109.134 71.0806 110.79 72.7368 110.79 74.7798Z" fill="black"/>
<path d="M125.206 74.7798C125.206 76.8229 123.549 78.4791 121.506 78.4791C119.463 78.4791 117.807 76.8229 117.807 74.7798C117.807 72.7368 119.463 71.0806 121.506 71.0806C123.549 71.0806 125.206 72.7368 125.206 74.7798Z" fill="black"/>
<path d="M135.561 73.7042C137.604 73.7042 139.261 72.0479 139.261 70.0049C139.261 68.9798 138.844 68.052 138.17 67.382L131.87 70.2541C131.999 72.181 133.602 73.7042 135.561 73.7042Z" fill="black"/>
<path d="M46.9226 64.0092H55.0025V68.4568L46.9226 64.0092Z" fill="black"/>
<path d="M56.4109 64.0092V68.4568H63.0306V64.0092H56.4109Z" fill="black"/>
<path d="M64.4907 64.0092V68.4568H72.4964V64.0092H64.4907Z" fill="black"/>
<path d="M74.2014 64.0092V68.4568H130.019L142.303 64.0092H74.2014Z" fill="black"/>
<path d="M19.8789 48.0998H44.322L44.8383 46.801H50.4077V48.0998H65.1564L88.3623 42.1177H122.707V52.7409H108.68V55.2162H142.303V62.7452H44.8383L65.1564 56.1444L63.0306 53.0597H19.8789V48.0998Z" fill="black"/>
</svg>
