<svg width="164" height="124" viewBox="0 0 164 124" fill="none" xmlns="http://www.w3.org/2000/svg">
<path d="M0.4375 22C0.4375 9.84974 10.2804 0 22.4223 0H141.34C153.482 0 163.325 9.84974 163.325 22V102C163.325 114.15 153.482 124 141.34 124H22.4223C10.2804 124 0.4375 114.15 0.4375 102V22Z" fill="#C5A869"/>
<path fill-rule="evenodd" clip-rule="evenodd" d="M141.34 11H22.4223C16.3514 11 11.4299 15.9249 11.4299 22V102C11.4299 108.075 16.3514 113 22.4223 113H141.34C147.411 113 152.333 108.075 152.333 102V22C152.333 15.9249 147.411 11 141.34 11ZM22.4223 0C10.2804 0 0.4375 9.84974 0.4375 22V102C0.4375 114.15 10.2804 124 22.4223 124H141.34C153.482 124 163.325 114.15 163.325 102V22C163.325 9.84974 153.482 0 141.34 0H22.4223Z" fill="#A68C55"/>
<path fill-rule="evenodd" clip-rule="evenodd" d="M101.472 76.1198L99.2918 71.8995C98.876 71.1933 98.4216 70.4532 97.9273 69.6703L102.275 66.9822C102.705 67.6039 103.121 68.1885 103.531 68.7394L106.623 72.2803C108.941 74.4296 111.718 75.8707 116.281 77.125C113.495 83.0127 109.031 86.0409 102.664 85.7526C103.158 82.0865 102.825 79.3171 101.472 76.1198ZM107.493 71.632L109.066 70.4592L106.144 66.7917L104.383 68.1043L107.493 71.632Z" fill="black"/>
<path d="M62.155 99.5822L65.0771 103.25L100.499 76.845L98.3185 72.625L62.155 99.5822Z" fill="black"/>
<path fill-rule="evenodd" clip-rule="evenodd" d="M62.2897 76.1198L64.4701 71.8995C64.8859 71.1933 65.3403 70.4532 65.8346 69.6703L61.4869 66.9822C61.0566 67.6039 60.6408 68.1885 60.2309 68.7394L57.1389 72.2803C54.8209 74.4296 52.0436 75.8707 47.4805 77.125C50.2665 83.0127 54.7312 86.0409 61.0978 85.7526C60.6043 82.0865 60.9368 79.3171 62.2897 76.1198ZM56.2692 71.632L54.6959 70.4592L57.618 66.7917L59.3789 68.1043L56.2692 71.632Z" fill="black"/>
<path d="M101.607 99.5822L98.6848 103.25L63.2625 76.845L65.4434 72.625L101.607 99.5822Z" fill="black"/>
<path fill-rule="evenodd" clip-rule="evenodd" d="M81.3791 38.2957L81.7954 40.2601C81.7053 40.2573 81.6151 40.2559 81.5246 40.2559C76.9711 40.2563 72.9874 43.8339 72.9874 47.9806V62.942H55.0986V28.3841C55.0986 26.0608 57.2041 24.1559 59.3269 24.1559H99.0526L98.3926 30.0711L87.1238 35.0712L87.3782 33.9665L82.7311 32.8961L82.4231 34.2334L86.7605 35.2324L81.4266 37.5991V35.4566H80.0543V38.2957H81.3791ZM82.4461 40.3048H87.4057L87.2521 40.5985L88.4681 41.2344L88.9543 40.3048H92.1498L92.4094 42.5982L90.3014 43.6679L90.9224 44.8916L93.3965 43.6361L98.2968 44.3507V55.6892H104.665V45.2794L107.951 45.7586V62.942H90.0618V47.9806C90.0618 44.1164 86.6023 40.7464 82.4461 40.3048ZM107.252 26.1402C106.458 24.9509 105.094 24.1559 103.722 24.1559H102.984L103.776 27.6824L107.252 26.1402ZM63.8916 28.7076V26.2853H65.2639V28.7076H63.8916ZM73.5797 28.7076V26.2853H74.9519V28.7076H73.5797ZM84.0965 28.7076V26.2853H85.4688V28.7076H84.0965ZM58.3462 29.296H66.4897V30.6683H59.7184V31.7031H58.3462V29.296ZM69.6129 29.296H79.5411V31.7031H78.1688V30.6683H69.6129V29.296ZM89.0681 30.6683H81.0858V29.296H90.4404V31.7031H89.0681V30.6683ZM72.3685 33.9827H68.593V32.6104H73.7408V34.6351H72.3685V33.9827ZM59.8336 33.6821C59.7685 33.44 59.7483 33.1582 59.7483 32.8504H61.1206C61.1206 33.0391 61.1305 33.1646 61.1428 33.2461C61.205 33.2488 61.2781 33.2485 61.3796 33.2482L61.3801 33.2482C61.4211 33.248 61.4666 33.2478 61.518 33.2478H65.9647V36.8022H64.5924V34.6201H61.518C61.4879 34.6201 61.4561 34.6203 61.4231 34.6204C61.2781 34.6212 61.1104 34.6221 60.9666 34.6096C60.7823 34.5935 60.5227 34.5496 60.2858 34.3773C60.0338 34.1941 59.9023 33.937 59.8336 33.6821ZM80.2684 34.2246L76.5171 35.2949L76.1406 33.9753L79.8918 32.9049L80.2684 34.2246ZM74.8097 36.1965L72.3127 38.3814L71.4091 37.3487L73.906 35.1638L74.8097 36.1965ZM76.9369 36.8423L78.2036 39.2665L76.9874 39.902L75.7207 37.4778L76.9369 36.8423ZM68.0831 39.4005H62.0279V38.0282H68.0831V39.4005ZM70.8361 39.8121L69.5876 43.0374L68.3079 42.542L69.5564 39.3167L70.8361 39.8121ZM73.2692 40.0096L74.7441 41.4439L73.7874 42.4277L72.3125 40.9934L73.2692 40.0096ZM57.9486 42.9361H65.661V44.3084H57.9486V42.9361ZM70.3715 43.8057L72.8653 44.0782L72.7163 45.4423L70.2224 45.1699L70.3715 43.8057ZM97.1599 44.4878V55.2864H95.7876V44.4878H97.1599ZM68.6606 44.827L68.418 47.5669L67.0511 47.4459L67.2937 44.706L68.6606 44.827ZM71.7606 49.3209H69.6129V47.9486H71.7606V49.3209ZM60.9471 48.5702C61.2071 48.3025 61.5708 48.0846 62.0279 48.0846H66.7634V49.4569L62.0275 49.4569C62.0258 49.4569 62.0226 49.4568 62.0129 49.4615C61.9997 49.4679 61.9716 49.4851 61.9315 49.5263C61.8464 49.6139 61.746 49.7704 61.6513 50.0052C61.4622 50.4737 61.358 51.0969 61.358 51.6216H59.9858C59.9858 50.9523 60.113 50.1501 60.3787 49.4917C60.5113 49.163 60.6942 48.8306 60.9471 48.5702ZM66.4417 53.8691H58.4594V52.4969H67.814V55.2864C67.814 56.0291 67.1724 56.8656 66.1165 56.8656V55.4933C66.2555 55.4933 66.3323 55.4442 66.3771 55.3981C66.4279 55.3458 66.4392 55.2967 66.4413 55.2876L66.4416 55.2867L66.4417 55.2864V53.8691ZM70.9899 53.8691H68.593V52.4969H70.9899V53.8691ZM60.4344 58.522H57.3755V57.1498H60.4344V58.522ZM62.3614 57.6526C62.7933 57.358 63.3603 57.1498 63.9037 57.1498H70.9899V58.522H63.9037C63.6832 58.522 63.3809 58.6183 63.1345 58.7863C62.9134 58.9371 62.8648 59.051 62.8542 59.0759L62.8529 59.0788L62.8523 59.08L62.852 59.0806L62.8516 59.0809C62.8516 59.0809 62.8512 59.0797 62.8512 59.0771H61.479C61.479 58.4168 61.9589 57.927 62.3614 57.6526Z" fill="black"/>
<path d="M111.176 25.9002C115.053 32.2573 115.117 38.9324 112.065 44.9718L103.292 43.6924V54.3168H99.6686V43.164L93.7565 42.3018L93.3751 38.9324H81.8044L99.6686 31.0059L100.813 20.751L102.803 29.6151L111.176 25.9002Z" fill="black"/>
</svg>
