<svg width="164" height="124" viewBox="0 0 164 124" fill="none" xmlns="http://www.w3.org/2000/svg">
<path d="M0.988281 22C0.988281 9.84974 10.8312 0 22.9731 0H141.891C154.033 0 163.876 9.84974 163.876 22V102C163.876 114.15 154.033 124 141.891 124H22.9731C10.8312 124 0.988281 114.15 0.988281 102V22Z" fill="#C5A869"/>
<path fill-rule="evenodd" clip-rule="evenodd" d="M141.891 11H22.9731C16.9022 11 11.9807 15.9249 11.9807 22V102C11.9807 108.075 16.9022 113 22.9731 113H141.891C147.962 113 152.883 108.075 152.883 102V22C152.883 15.9249 147.962 11 141.891 11ZM22.9731 0C10.8312 0 0.988281 9.84974 0.988281 22V102C0.988281 114.15 10.8312 124 22.9731 124H141.891C154.033 124 163.876 114.15 163.876 102V22C163.876 9.84974 154.033 0 141.891 0H22.9731Z" fill="#A68C55"/>
<path fill-rule="evenodd" clip-rule="evenodd" d="M80.8804 29.6466V21.2332H83.9845V29.6466L91.5694 25.2674L93.1215 27.9557L85.5365 32.3349L93.1215 36.714L91.5694 39.4023L83.9845 35.0231V59.3118L105.019 47.1677L97.4338 42.7885L98.9858 40.1003L106.571 44.4795V35.7211H109.675V44.4795L116.961 40.2727L118.513 42.9609L111.227 47.1677L118.812 51.5469L117.26 54.2351L109.675 49.8559V58.6143H106.571V49.8559L85.5365 62.0001L106.571 74.1442L106.571 65.3858H109.675L109.675 74.1442L117.26 69.765L118.812 72.4532L111.227 76.8324L118.513 81.0392L116.961 83.7274L109.675 79.5207L109.675 88.279H106.571L106.571 79.5207L98.9858 83.8998L97.4338 81.2116L105.019 76.8324L83.9845 64.6883V88.9766L91.5694 84.5974L93.1215 87.2856L85.5365 91.6648L93.1215 96.044L91.5694 98.7322L83.9845 94.353V102.767H80.8804V94.353L73.2954 98.7322L71.7433 96.044L79.3283 91.6648L71.7434 87.2856L73.2954 84.5974L80.8804 88.9766V64.6919L59.8524 76.8324L67.4373 81.2116L65.8853 83.8998L58.3003 79.5207L58.3003 88.279H55.1962L55.1962 79.5207L47.9099 83.7274L46.3579 81.0392L53.6442 76.8324L46.0592 72.4532L47.6113 69.765L55.1962 74.1442L55.1962 65.3858H58.3003L58.3003 74.1442L79.3323 62.0014L58.2958 49.8559L58.2958 58.6143H55.1917L55.1917 49.8559L47.6067 54.2351L46.0547 51.5469L53.6397 47.1677L46.3534 42.961L47.9054 40.2727L55.1917 44.4795L55.1917 35.7211H58.2958L58.2958 44.4795L65.8808 40.1003L67.4328 42.7885L59.8479 47.1677L80.8804 59.3108V35.0231L73.2954 39.4023L71.7434 36.714L79.3283 32.3349L71.7433 27.9557L73.2954 25.2674L80.8804 29.6466Z" fill="black"/>
<path fill-rule="evenodd" clip-rule="evenodd" d="M80.8804 29.6478V21.2344H83.9845V29.6478L91.5694 25.2687L93.1215 27.9569L85.5365 32.3361L93.1215 36.7153L91.5694 39.4035L83.9845 35.0243V59.313L105.019 47.1689L97.4338 42.7897L98.9858 40.1015L106.571 44.4807V35.7223H109.675V44.4807L116.961 40.2739L118.513 42.9622L111.227 47.1689L118.812 51.5481L117.26 54.2363L109.675 49.8571V58.6155H106.571V49.8571L85.5365 62.0013L106.571 74.1454L106.571 65.387H109.675L109.675 74.1454L117.26 69.7662L118.812 72.4545L111.227 76.8336L118.513 81.0404L116.961 83.7286L109.675 79.5219L109.675 88.2802H106.571L106.571 79.5219L98.9858 83.9011L97.4338 81.2128L105.019 76.8336L83.9845 64.6895V88.9778L91.5694 84.5986L93.1215 87.2868L85.5365 91.666L93.1215 96.0452L91.5694 98.7334L83.9845 94.3542V102.768H80.8804V94.3542L73.2954 98.7334L71.7433 96.0452L79.3283 91.666L71.7434 87.2868L73.2954 84.5986L80.8804 88.9778V64.6931L59.8524 76.8336L67.4373 81.2128L65.8853 83.9011L58.3003 79.5219L58.3003 88.2802H55.1962L55.1962 79.5219L47.9099 83.7286L46.3579 81.0404L53.6442 76.8336L46.0592 72.4545L47.6113 69.7662L55.1962 74.1454L55.1962 65.387H58.3003L58.3003 74.1454L79.3323 62.0026L58.2958 49.8571L58.2958 58.6155H55.1917L55.1917 49.8571L47.6067 54.2363L46.0547 51.5481L53.6397 47.1689L46.3534 42.9622L47.9054 40.274L55.1917 44.4807L55.1917 35.7223H58.2958L58.2958 44.4807L65.8808 40.1015L67.4328 42.7897L59.8479 47.1689L80.8804 59.312V35.0243L73.2954 39.4035L71.7434 36.7153L79.3283 32.3361L71.7433 27.9569L73.2954 25.2687L80.8804 29.6478Z" fill="black"/>
</svg>
