<svg width="164" height="124" viewBox="0 0 164 124" fill="none" xmlns="http://www.w3.org/2000/svg">
<path d="M0.212891 22C0.212891 9.84974 10.0558 0 22.1977 0H141.116C153.258 0 163.1 9.84974 163.1 22V102C163.1 114.15 153.258 124 141.116 124H22.1977C10.0558 124 0.212891 114.15 0.212891 102V22Z" fill="#C5A869"/>
<path fill-rule="evenodd" clip-rule="evenodd" d="M141.116 11H22.1977C16.1268 11 11.2053 15.9249 11.2053 22V102C11.2053 108.075 16.1268 113 22.1977 113H141.116C147.187 113 152.108 108.075 152.108 102V22C152.108 15.9249 147.187 11 141.116 11ZM22.1977 0C10.0558 0 0.212891 9.84974 0.212891 22V102C0.212891 114.15 10.0558 124 22.1977 124H141.116C153.258 124 163.1 114.15 163.1 102V22C163.1 9.84974 153.258 0 141.116 0H22.1977Z" fill="#A68C55"/>
<path fill-rule="evenodd" clip-rule="evenodd" d="M80.9607 19.6555L93.3619 51.4536L125.919 50.7557L99.0181 71.3764L110.137 103.114L81.2624 83.2742L55.5121 104.343L64.4184 70.7492L37.3955 52.6483L71.5017 51.7308L80.9607 19.6555ZM71.6891 53.1937L44.2836 53.931L80.1127 64.7375L71.6891 53.1937ZM65.8613 71.0331L58.5815 98.4921L80.2605 67.2813L65.8613 71.0331ZM81.9763 81.9842L105.362 98.0522L82.6318 68.1238L81.9763 81.9842ZM98.0055 70.3036L119.622 53.7331L84.3332 66.0332L98.0055 70.3036ZM92.0291 52.075L81.8787 26.048L82.6843 64.0012L92.0291 52.075Z" fill="black"/>
</svg>
