<svg width="164" height="168" viewBox="0 0 164 168" fill="none" xmlns="http://www.w3.org/2000/svg">
<path d="M78.5223 162.871C74.0992 162.674 70.5598 163.858 68.5934 165.238C66.6271 166.619 65.8406 168 64.6608 168C63.481 168 60.7281 166.619 60.7281 165.436C61.3329 164.861 62.2081 164.338 63.2526 163.858C68.6611 161.374 78.6098 160.051 79.0627 158.729C78.9448 160.007 78.7659 161.36 78.5223 162.871Z" fill="#CBC5C5"/>
<path d="M79.0627 151.228C79.0639 151.242 79.065 151.255 79.0662 151.269C79.1838 152.937 75.6583 149.038 73.9025 145.907C72.1328 142.751 71.1497 144.724 68.9867 145.907C66.8237 147.091 64.2675 146.696 64.6608 148.077C65.0541 149.458 70.1665 149.852 71.1497 149.852C72.1328 149.852 75.8689 149.852 76.0655 151.036C76.2621 152.219 70.7564 153.206 69.7732 153.206C68.7901 153.206 65.8406 151.825 63.8743 150.247C61.9079 148.669 61.5147 145.513 61.5147 143.343C61.5147 141.173 61.5147 141.173 64.2675 141.173C66.8237 141.173 69.1833 138.411 72.3295 138.411C74.0992 140.581 77.6385 143.935 79.0627 151.228Z" fill="#CBC5C5"/>
<path d="M59.745 143.343C59.745 140.778 60.9248 141.962 60.9248 140.778C60.7937 140.252 60.1382 139.003 58.5652 138.214C56.5988 137.228 53.4527 135.847 54.2392 139.792C54.8685 142.948 55.419 144.395 55.6157 144.724C57.6628 145.773 58.8212 146.515 60.9248 148.274C61.1214 145.907 59.745 144.447 59.745 143.343Z" fill="#CBC5C5"/>
<path d="M59.745 148.471C56.9921 145.907 50.6999 143.343 45.5874 143.343C45.5874 144.329 45.1941 145.513 46.5706 146.499C47.947 147.485 49.7167 146.302 51.8797 147.288C53.61 148.077 55.0913 150.115 55.6157 151.036C56.4926 149.599 57.4248 149.046 59.745 148.471Z" fill="#CBC5C5"/>
<path d="M49.7167 153.206C51.1325 152.732 51.4864 149.852 51.4864 148.471C48.7335 146.499 47.7504 150.247 39.8851 145.513C39.1919 146.941 39.2239 147.809 39.4918 151.228C40.7505 152.43 41.569 153.014 43.4244 153.797C44.1704 149.23 45.3703 147.912 49.7167 149.063C48.4977 150.705 48.4639 151.564 49.7167 153.206Z" fill="#CBC5C5"/>
<path d="M62.3012 162.082C62.3012 161.096 60.1382 158.729 59.3517 158.729C58.5652 158.729 56.4022 162.871 53.0595 162.871C50.6958 162.871 46.9557 161.885 44.9675 159.912C44.5126 157.465 44.4875 155.77 44.7273 154.587C45.1253 152.624 46.2529 152.071 47.3571 151.825C47.3571 153.403 50.11 155.178 51.8797 155.178C54.4359 155.178 57.9753 149.852 58.9584 149.852C59.9416 149.852 62.8911 152.022 63.481 155.178C68.2002 155.376 74.6891 153.206 79.2031 153.403C79.236 154.203 79.2454 154.985 79.2305 155.77C74.2958 156.165 65.2507 162.674 62.3012 162.082Z" fill="#CBC5C5"/>
<path d="M51.0931 142.751C50.7785 141.489 51.1587 140.515 51.4864 140.187C48.1457 132.94 45.1202 130.03 39.2952 125.392C38.4612 132.222 39.6426 135.552 46.9638 142.554L51.0931 142.751Z" fill="#CBC5C5"/>
<path d="M32.8063 143.343C32.8063 143.996 33.3345 144.526 33.9861 144.526C34.6377 144.526 35.1659 143.996 35.1659 143.343C35.1659 142.689 34.6377 142.159 33.9861 142.159C33.3345 142.159 32.8063 142.689 32.8063 143.343Z" fill="#CBC5C5"/>
<path d="M35.5591 129.337C35.5591 129.991 36.0873 130.521 36.7389 130.521C37.3905 130.521 37.9187 129.991 37.9187 129.337C37.9187 128.684 37.3905 128.154 36.7389 128.154C36.0873 128.154 35.5591 128.684 35.5591 129.337Z" fill="#CBC5C5"/>
<path d="M21.9915 112.965C21.9915 113.619 22.5197 114.149 23.1713 114.149C23.8229 114.149 24.3511 113.619 24.3511 112.965C24.3511 112.311 23.8229 111.782 23.1713 111.782C22.5197 111.782 21.9915 112.311 21.9915 112.965Z" fill="#CBC5C5"/>
<path d="M5.67095 102.905C5.67095 103.559 6.19917 104.088 6.85075 104.088C7.50233 104.088 8.03055 103.559 8.03055 102.905C8.03055 102.251 7.50233 101.721 6.85075 101.721C6.19917 101.721 5.67095 102.251 5.67095 102.905Z" fill="#CBC5C5"/>
<path d="M15.306 97.7762C15.306 98.4299 15.8342 98.9598 16.4858 98.9598C17.1373 98.9598 17.6656 98.4299 17.6656 97.7762C17.6656 97.1225 17.1373 96.5927 16.4858 96.5927C15.8342 96.5927 15.306 97.1225 15.306 97.7762Z" fill="#CBC5C5"/>
<path d="M13.7329 82.9819C13.7329 83.6355 14.2611 84.1654 14.9127 84.1654C15.5643 84.1654 16.0925 83.6355 16.0925 82.9819C16.0925 82.3282 15.5643 81.7983 14.9127 81.7983C14.2611 81.7983 13.7329 82.3282 13.7329 82.9819Z" fill="#CBC5C5"/>
<path d="M9.60361 60.0999C9.60361 60.7536 10.1318 61.2835 10.7834 61.2835C11.435 61.2835 11.9632 60.7536 11.9632 60.0999C11.9632 59.4463 11.435 58.9164 10.7834 58.9164C10.1318 58.9164 9.60361 59.4463 9.60361 60.0999Z" fill="#CBC5C5"/>
<path d="M18.6487 64.0451C18.6487 64.6988 19.1769 65.2287 19.8285 65.2287C20.4801 65.2287 21.0083 64.6988 21.0083 64.0451C21.0083 63.3914 20.4801 62.8616 19.8285 62.8616C19.1769 62.8616 18.6487 63.3914 18.6487 64.0451Z" fill="#CBC5C5"/>
<path d="M13.5363 46.4892C13.5363 47.1428 14.0645 47.6727 14.7161 47.6727C15.3676 47.6727 15.8959 47.1428 15.8959 46.4892C15.8959 45.8355 15.3676 45.3056 14.7161 45.3056C14.0645 45.3056 13.5363 45.8355 13.5363 46.4892Z" fill="#CBC5C5"/>
<path d="M21.5982 40.9659C21.5982 41.6196 22.1264 42.1495 22.778 42.1495C23.4296 42.1495 23.9578 41.6196 23.9578 40.9659C23.9578 40.3123 23.4296 39.7824 22.778 39.7824C22.1264 39.7824 21.5982 40.3123 21.5982 40.9659Z" fill="#CBC5C5"/>
<path d="M35.1659 36.8235C35.1659 37.4772 35.6941 38.0071 36.3457 38.0071C36.9972 38.0071 37.5255 37.4772 37.5255 36.8235C37.5255 36.1699 36.9972 35.64 36.3457 35.64C35.6941 35.64 35.1659 36.1699 35.1659 36.8235Z" fill="#CBC5C5"/>
<path d="M49.1268 21.2401C49.1268 21.8938 49.655 22.4237 50.3066 22.4237C50.9582 22.4237 51.4864 21.8938 51.4864 21.2401C51.4864 20.5865 50.9582 20.0566 50.3066 20.0566C49.655 20.0566 49.1268 20.5865 49.1268 21.2401Z" fill="#CBC5C5"/>
<path d="M39.8851 14.3361C39.8851 14.9898 40.4133 15.5197 41.0649 15.5197C41.7164 15.5197 42.2446 14.9898 42.2446 14.3361C42.2446 13.6825 41.7164 13.1526 41.0649 13.1526C40.4133 13.1526 39.8851 13.6825 39.8851 14.3361Z" fill="#CBC5C5"/>
<path d="M64.8574 13.1526C64.8574 13.8062 65.3856 14.3361 66.0372 14.3361C66.6888 14.3361 67.217 13.8062 67.217 13.1526C67.217 12.4989 66.6888 11.969 66.0372 11.969C65.3856 11.969 64.8574 12.4989 64.8574 13.1526Z" fill="#CBC5C5"/>
<path d="M64.0709 3.68419C64.0709 4.33785 64.5991 4.86774 65.2507 4.86774C65.9023 4.86774 66.4305 4.33785 66.4305 3.68419C66.4305 3.03054 65.9023 2.50065 65.2507 2.50065C64.5991 2.50065 64.0709 3.03054 64.0709 3.68419Z" fill="#CBC5C5"/>
<path d="M44.4076 142.159C44.1454 142.883 43.7784 144.566 44.4076 145.513C37.7184 144.273 26.7817 134.609 27.4972 127.365C33.6016 129.111 37.2407 132.207 44.4076 142.159Z" fill="#CBC5C5"/>
<path d="M36.7389 125.984C36.3457 120.264 28.2837 109.809 26.7107 110.598C25.1376 111.387 25.9241 125.59 32.413 128.351C32.8849 127.247 35.4936 126.313 36.7389 125.984Z" fill="#CBC5C5"/>
<path d="M32.2164 140.384C29.0703 137.031 23.3679 133.677 18.0588 134.466C19.4352 139.792 27.6938 142.948 31.0366 144.526C30.6433 143.343 31.2332 140.976 32.2164 140.384Z" fill="#CBC5C5"/>
<path d="M37.9187 149.852C37.3288 148.077 38.312 146.302 37.7221 146.104C37.2502 145.947 34.3793 145.776 33.0029 145.71C34.3405 147.434 35.3832 148.353 37.9187 149.852Z" fill="#CBC5C5"/>
<path d="M27.4972 125.984C26.7107 121.842 20.4184 111.584 17.6656 112.571C14.9127 113.557 18.6487 128.746 26.3174 132.494C24.3511 128.351 25.4815 125.984 27.4972 125.984Z" fill="#CBC5C5"/>
<path d="M25.3342 110.203C24.941 104.483 25.9241 101.919 23.9578 97.7762C21.9915 93.6338 21.4016 94.0283 20.615 94.2256C19.8285 94.4228 17.8622 100.341 18.6487 104.68C19.2779 108.152 20.2218 111.387 20.615 112.571C20.9428 111.847 21.8342 110.282 22.778 109.809C23.7218 109.336 24.8754 109.875 25.3342 110.203Z" fill="#CBC5C5"/>
<path d="M18.6487 111.782C18.4724 102.905 12.5531 94.8371 10.7834 95.0146C6.85075 95.4091 9.99687 113.754 15.306 116.121C15.306 111.782 16.4858 110.203 18.6487 111.782Z" fill="#CBC5C5"/>
<path d="M24.3511 133.085C18.4521 129.337 19.6319 126.576 16.0925 123.222C13.261 120.54 9.53806 119.475 8.03055 119.277C11.035 127.891 14.3249 131.19 24.3511 133.085Z" fill="#CBC5C5"/>
<path d="M14.5194 119.869C13.3396 114.442 5.27769 102.905 2.91809 104.088C2.91809 106.653 7.13943 113.754 8.03055 117.699C11.0194 118.015 13.6018 119.277 14.5194 119.869Z" fill="#CBC5C5"/>
<path d="M22.3847 80.2203C18.6487 81.7983 13.7329 87.5188 14.9127 95.8036C16.1711 94.2256 17.5345 94.6201 18.0588 95.0146C18.7013 93.2603 19.2167 92.6724 20.615 92.8448C22.8788 87.8957 23.0118 85.1346 22.3847 80.2203Z" fill="#CBC5C5"/>
<path d="M9.99687 73.7107C7.44065 76.2751 4.90744 87.1285 8.03055 96.5927C10.1749 93.3904 11.211 93.9851 13.143 93.831C13.6594 90.8812 13.7818 87.8919 13.6387 85.1517C13.3423 84.8229 12.7104 83.9287 12.5531 82.9819C12.3958 82.035 12.919 81.2723 13.2002 81.0093C12.5103 76.7859 11.2063 73.8226 9.99687 73.7107Z" fill="#CBC5C5"/>
<path d="M1.93493 87.1243C1.93493 92.8448 2.8566 95.8816 2.91809 102.313C3.50799 103.694 5.67095 103.497 5.27769 99.5515C5.55891 100.492 7.36261 101.396 7.04738 96.7899C6.73216 92.1842 1.93493 87.1243 1.93493 87.1243Z" fill="#CBC5C5"/>
<path d="M24.5477 65.8204C24.3735 73.0156 22.7067 75.8925 18.6487 80.2203C17.6936 78.3103 15.8959 81.0093 14.1262 79.234C18.0588 72.1327 16.4858 69.9628 19.8285 67.793C21.7009 66.3731 22.7246 66.1477 24.5477 65.8204Z" fill="#CBC5C5"/>
<path d="M15.8959 57.3383C9.99687 63.4533 6.61619 67.3427 8.03055 75.2888C10.0506 71.1041 11.3285 72.1341 13.7329 77.0641C17.2845 69.2726 18.0868 64.948 15.8959 57.3383Z" fill="#CBC5C5"/>
<path d="M5.27769 89.0969C5.96405 83.1491 6.26085 80.2203 5.67095 77.0641C4.76003 74.8731 3.83507 73.8268 1.34503 72.3299C0.39577 77.4953 0.474006 80.3813 1.34503 85.5462C3.56596 86.2633 4.22389 87.2364 5.27769 89.0969Z" fill="#CBC5C5"/>
<path d="M6.45748 75.2888C5.67095 68.7793 8.42381 65.2287 8.42381 61.2835C8.42381 57.3383 5.67095 54.9712 5.67095 54.9712C3.89339 62.0223 3.64151 65.7562 3.50799 72.3299C4.68742 72.774 5.3385 73.4615 6.45748 75.2888Z" fill="#CBC5C5"/>
<path d="M30.0534 51.8151C28.3608 57.2269 26.9189 59.9237 22.778 63.6506C22.211 62.0294 21.8111 61.6046 21.0083 61.2835C22.3736 58.5754 22.5881 57.0644 22.778 54.3795C26.9178 51.6044 28.0446 51.6782 30.0534 51.8151Z" fill="#CBC5C5"/>
<path d="M19.2386 60.0999C16.6788 55.3277 15.4978 55.1625 13.6387 57.3383C13.7332 53.2658 14.4054 51.5823 15.8959 48.8563C17.2814 48.6541 17.5316 47.8016 17.6656 46.4892C19.7927 44.2557 20.8871 43.7567 22.778 43.333C22.6595 50.4158 22.0857 54.1738 19.2386 60.0999Z" fill="#CBC5C5"/>
<path d="M11.9632 44.1221C9.17402 46.5605 8.04543 48.6122 7.24402 54.1822C8.0003 54.8299 8.37429 55.7449 9.01371 57.7328C9.91039 56.7355 10.4285 56.5943 11.3733 56.9438C13.2904 52.038 13.293 49.2322 11.9632 44.1221Z" fill="#CBC5C5"/>
<path d="M23.3679 52.4069C24.5177 44.756 30.0534 38.9934 35.1659 38.9934C37.1322 38.9934 38.2465 37.0208 38.9019 38.0071C39.2534 38.536 36.5847 42.9503 32.8063 46.6864C29.5396 49.9165 25.2826 52.5898 23.3679 52.4069Z" fill="#CBC5C5"/>
<path d="M35.5591 26.5661C28.6031 28.2405 25.5683 30.3062 22.778 37.4153C24.8148 39.2253 26.3452 39.9846 23.9578 44.7138C32.1659 38.2421 34.2443 34.1954 35.5591 26.5661Z" fill="#CBC5C5"/>
<path d="M21.5982 29.1305C16.802 33.587 14.9117 36.5575 12.7497 42.544C12.7473 43.5088 12.8078 43.9981 13.3396 44.5166C14.229 43.9986 14.9638 43.8603 17.0757 44.1221C21.1516 38.0764 21.8812 34.8154 21.5982 29.1305Z" fill="#CBC5C5"/>
<path d="M48.3403 17.295C39.4541 17.7883 35.5617 19.7904 30.6433 26.5661C36.3121 24.4314 37.6589 24.8229 36.7389 29.1305C43.3385 25.259 45.4927 22.5242 48.3403 17.295Z" fill="#CBC5C5"/>
<path d="M38.7053 14.1389C38.312 17.6895 29.2669 24.5935 22.5814 34.2592C24.941 27.3551 25.742 26.0202 22.778 27.9469C28.2743 18.9581 31.8137 16.1937 38.7053 14.1389Z" fill="#CBC5C5"/>
<path d="M51.4864 25.9743C50.084 24.4224 49.129 23.8281 46.1773 24.199C42.4125 27.5208 40.3766 28.6647 36.9027 30.6165L36.7389 30.7085C36.122 31.5434 35.8407 32.3077 35.5591 33.6674C41.037 33.6789 44.5508 31.9484 51.4864 25.9743Z" fill="#CBC5C5"/>
<path d="M58.3685 17.295C54.6325 18.8731 49.7167 18.2813 49.7167 18.2813C49.5829 15.3616 47.9758 15.7372 45.784 15.5197C53.037 9.82028 57.3516 8.43689 65.644 10.3707C61.7113 11.969 64.0709 14.8864 58.3685 17.295Z" fill="#CBC5C5"/>
<path d="M51.683 23.2127C59.0173 23.14 62.2525 21.9805 67.217 18.8731C66.3326 16.5173 65.4189 15.9991 62.6945 15.7169C60.202 19.0471 57.9416 20.0676 53.0595 21.0429C52.8692 22.0914 52.6024 22.6556 51.683 23.2127Z" fill="#CBC5C5"/>
<path d="M62.6945 2.89516C62.0935 5.76179 61.363 7.22155 57.3854 8.8129C53.8886 9.6234 52.7778 9.01722 45.1941 14.9279C44.5592 15.3274 44.2145 15.4586 43.6211 15.5197C43.7097 13.868 43.5578 13.0898 43.0312 11.969C49.7592 6.06275 54.2398 4.51149 62.6945 2.89516Z" fill="#CBC5C5"/>
<path d="M81.1779 15.5197C80.6512 14.0209 80.0301 13.3457 78.4251 12.3635C76.5177 13.445 74.5469 13.6784 69.5766 13.5471C68.314 14.2065 67.7683 14.6289 67.217 15.5197C72.1113 17.598 75.1904 17.591 81.1779 15.5197Z" fill="#CBC5C5"/>
<path d="M81.1779 0.133552C80.245 1.60732 79.5606 2.43004 77.8352 3.88145C73.6023 3.61194 71.3909 3.90341 67.6103 4.86774C67.8145 3.94535 67.7628 3.42357 67.6103 2.50065C73.7041 0.082413 76.5802 -0.247386 81.1779 0.133552Z" fill="#CBC5C5"/>
<path d="M85.8019 162.871C90.2251 162.674 93.7645 163.858 95.7308 165.238C97.6971 166.619 98.4836 168 99.6634 168C100.843 168 103.596 166.619 103.596 165.436C102.991 164.861 102.116 164.338 101.072 163.858C95.6631 161.374 85.7144 160.051 85.2615 158.729C85.3795 160.007 85.5583 161.36 85.8019 162.871Z" fill="#CBC5C5"/>
<path d="M85.2615 151.228C85.2604 151.242 85.2592 151.255 85.258 151.269C85.1404 152.937 88.6659 149.038 90.4217 145.907C92.1914 142.751 93.1746 144.724 95.3375 145.907C97.5005 147.091 100.057 146.696 99.6634 148.077C99.2702 149.458 94.1577 149.852 93.1746 149.852C92.1914 149.852 88.4554 149.852 88.2587 151.036C88.0621 152.219 93.5678 153.206 94.551 153.206C95.5341 153.206 98.4836 151.825 100.45 150.247C102.416 148.669 102.81 145.513 102.81 143.343C102.81 141.173 102.81 141.173 100.057 141.173C97.5005 141.173 95.1409 138.411 91.9948 138.411C90.2251 140.581 86.6857 143.935 85.2615 151.228Z" fill="#CBC5C5"/>
<path d="M104.579 143.343C104.579 140.778 103.399 141.962 103.399 140.778C103.531 140.252 104.186 139.003 105.759 138.214C107.725 137.228 110.872 135.847 110.085 139.792C109.456 142.948 108.905 144.395 108.709 144.724C106.661 145.773 105.503 146.515 103.399 148.274C103.203 145.907 104.579 144.447 104.579 143.343Z" fill="#CBC5C5"/>
<path d="M104.579 148.471C107.332 145.907 113.624 143.343 118.737 143.343C118.737 144.329 119.13 145.513 117.754 146.499C116.377 147.485 114.608 146.302 112.445 147.288C110.714 148.077 109.233 150.115 108.709 151.036C107.832 149.599 106.899 149.046 104.579 148.471Z" fill="#CBC5C5"/>
<path d="M114.608 153.206C113.192 152.732 112.838 149.852 112.838 148.471C115.591 146.499 116.574 150.247 124.439 145.513C125.132 146.941 125.1 147.809 124.832 151.228C123.574 152.43 122.755 153.014 120.9 153.797C120.154 149.23 118.954 147.912 114.608 149.063C115.827 150.705 115.86 151.564 114.608 153.206Z" fill="#CBC5C5"/>
<path d="M102.023 162.082C102.023 161.096 104.186 158.729 104.973 158.729C105.759 158.729 107.922 162.871 111.265 162.871C113.628 162.871 117.369 161.885 119.357 159.912C119.812 157.465 119.837 155.77 119.597 154.587C119.199 152.624 118.071 152.071 116.967 151.825C116.967 153.403 114.214 155.178 112.445 155.178C109.888 155.178 106.349 149.852 105.366 149.852C104.383 149.852 101.433 152.022 100.843 155.178C96.124 155.376 89.6352 153.206 85.1211 153.403C85.0883 154.203 85.0788 154.985 85.0937 155.77C90.0284 156.165 99.0735 162.674 102.023 162.082Z" fill="#CBC5C5"/>
<path d="M113.231 142.751C113.546 141.489 113.166 140.515 112.838 140.187C116.179 132.94 119.204 130.03 125.029 125.392C125.863 132.222 124.682 135.552 117.36 142.554L113.231 142.751Z" fill="#CBC5C5"/>
<path d="M131.518 143.343C131.518 143.996 130.99 144.526 130.338 144.526C129.687 144.526 129.158 143.996 129.158 143.343C129.158 142.689 129.687 142.159 130.338 142.159C130.99 142.159 131.518 142.689 131.518 143.343Z" fill="#CBC5C5"/>
<path d="M128.765 129.337C128.765 129.991 128.237 130.521 127.585 130.521C126.934 130.521 126.405 129.991 126.405 129.337C126.405 128.684 126.934 128.154 127.585 128.154C128.237 128.154 128.765 128.684 128.765 129.337Z" fill="#CBC5C5"/>
<path d="M142.333 112.965C142.333 113.619 141.805 114.149 141.153 114.149C140.501 114.149 139.973 113.619 139.973 112.965C139.973 112.311 140.501 111.782 141.153 111.782C141.805 111.782 142.333 112.311 142.333 112.965Z" fill="#CBC5C5"/>
<path d="M158.653 102.905C158.653 103.559 158.125 104.088 157.473 104.088C156.822 104.088 156.294 103.559 156.294 102.905C156.294 102.251 156.822 101.721 157.473 101.721C158.125 101.721 158.653 102.251 158.653 102.905Z" fill="#CBC5C5"/>
<path d="M149.018 97.7762C149.018 98.4299 148.49 98.9598 147.838 98.9598C147.187 98.9598 146.659 98.4299 146.659 97.7762C146.659 97.1225 147.187 96.5927 147.838 96.5927C148.49 96.5927 149.018 97.1225 149.018 97.7762Z" fill="#CBC5C5"/>
<path d="M150.591 82.9819C150.591 83.6355 150.063 84.1654 149.412 84.1654C148.76 84.1654 148.232 83.6355 148.232 82.9819C148.232 82.3282 148.76 81.7983 149.412 81.7983C150.063 81.7983 150.591 82.3282 150.591 82.9819Z" fill="#CBC5C5"/>
<path d="M154.721 60.0999C154.721 60.7536 154.192 61.2835 153.541 61.2835C152.889 61.2835 152.361 60.7536 152.361 60.0999C152.361 59.4463 152.889 58.9164 153.541 58.9164C154.192 58.9164 154.721 59.4463 154.721 60.0999Z" fill="#CBC5C5"/>
<path d="M145.676 64.0451C145.676 64.6988 145.147 65.2287 144.496 65.2287C143.844 65.2287 143.316 64.6988 143.316 64.0451C143.316 63.3914 143.844 62.8616 144.496 62.8616C145.147 62.8616 145.676 63.3914 145.676 64.0451Z" fill="#CBC5C5"/>
<path d="M150.788 46.4892C150.788 47.1428 150.26 47.6727 149.608 47.6727C148.957 47.6727 148.428 47.1428 148.428 46.4892C148.428 45.8355 148.957 45.3056 149.608 45.3056C150.26 45.3056 150.788 45.8355 150.788 46.4892Z" fill="#CBC5C5"/>
<path d="M142.726 40.9659C142.726 41.6196 142.198 42.1495 141.546 42.1495C140.895 42.1495 140.366 41.6196 140.366 40.9659C140.366 40.3123 140.895 39.7824 141.546 39.7824C142.198 39.7824 142.726 40.3123 142.726 40.9659Z" fill="#CBC5C5"/>
<path d="M129.158 36.8235C129.158 37.4772 128.63 38.0071 127.979 38.0071C127.327 38.0071 126.799 37.4772 126.799 36.8235C126.799 36.1699 127.327 35.64 127.979 35.64C128.63 35.64 129.158 36.1699 129.158 36.8235Z" fill="#CBC5C5"/>
<path d="M115.197 21.2401C115.197 21.8938 114.669 22.4237 114.018 22.4237C113.366 22.4237 112.838 21.8938 112.838 21.2401C112.838 20.5865 113.366 20.0566 114.018 20.0566C114.669 20.0566 115.197 20.5865 115.197 21.2401Z" fill="#CBC5C5"/>
<path d="M124.439 14.3361C124.439 14.9898 123.911 15.5197 123.259 15.5197C122.608 15.5197 122.08 14.9898 122.08 14.3361C122.08 13.6825 122.608 13.1526 123.259 13.1526C123.911 13.1526 124.439 13.6825 124.439 14.3361Z" fill="#CBC5C5"/>
<path d="M99.4668 13.1526C99.4668 13.8062 98.9386 14.3361 98.287 14.3361C97.6354 14.3361 97.1072 13.8062 97.1072 13.1526C97.1072 12.4989 97.6354 11.969 98.287 11.969C98.9386 11.969 99.4668 12.4989 99.4668 13.1526Z" fill="#CBC5C5"/>
<path d="M100.253 3.68419C100.253 4.33785 99.7251 4.86774 99.0735 4.86774C98.422 4.86774 97.8937 4.33785 97.8937 3.68419C97.8937 3.03054 98.422 2.50065 99.0735 2.50065C99.7251 2.50065 100.253 3.03054 100.253 3.68419Z" fill="#CBC5C5"/>
<path d="M119.917 142.159C120.179 142.883 120.546 144.566 119.917 145.513C126.606 144.273 137.543 134.609 136.827 127.365C130.723 129.111 127.084 132.207 119.917 142.159Z" fill="#CBC5C5"/>
<path d="M127.585 125.984C127.979 120.264 136.04 109.809 137.614 110.598C139.187 111.387 138.4 125.59 131.911 128.351C131.439 127.247 128.831 126.313 127.585 125.984Z" fill="#CBC5C5"/>
<path d="M132.108 140.384C135.254 137.031 140.956 133.677 146.265 134.466C144.889 139.792 136.63 142.948 133.288 144.526C133.681 143.343 133.091 140.976 132.108 140.384Z" fill="#CBC5C5"/>
<path d="M126.405 149.852C126.995 148.077 126.012 146.302 126.602 146.104C127.074 145.947 129.945 145.776 131.321 145.71C129.984 147.434 128.941 148.353 126.405 149.852Z" fill="#CBC5C5"/>
<path d="M136.827 125.984C137.614 121.842 143.906 111.584 146.659 112.571C149.412 113.557 145.676 128.746 138.007 132.494C139.973 128.351 138.843 125.984 136.827 125.984Z" fill="#CBC5C5"/>
<path d="M138.99 110.203C139.383 104.483 138.4 101.919 140.366 97.7762C142.333 93.6338 142.923 94.0283 143.709 94.2256C144.496 94.4228 146.462 100.341 145.676 104.68C145.046 108.152 144.102 111.387 143.709 112.571C143.381 111.847 142.49 110.282 141.546 109.809C140.602 109.336 139.449 109.875 138.99 110.203Z" fill="#CBC5C5"/>
<path d="M145.676 111.782C145.852 102.905 151.771 94.8371 153.541 95.0146C157.473 95.4091 154.327 113.754 149.018 116.121C149.018 111.782 147.838 110.203 145.676 111.782Z" fill="#CBC5C5"/>
<path d="M139.973 133.085C145.872 129.337 144.692 126.576 148.232 123.222C151.063 120.54 154.786 119.475 156.294 119.277C153.289 127.891 149.999 131.19 139.973 133.085Z" fill="#CBC5C5"/>
<path d="M149.805 119.869C150.985 114.442 159.047 102.905 161.406 104.088C161.406 106.653 157.185 113.754 156.294 117.699C153.305 118.015 150.722 119.277 149.805 119.869Z" fill="#CBC5C5"/>
<path d="M141.939 80.2203C145.676 81.7983 150.591 87.5188 149.412 95.8036C148.153 94.2256 146.79 94.6201 146.265 95.0146C145.623 93.2603 145.108 92.6724 143.709 92.8448C141.445 87.8957 141.312 85.1346 141.939 80.2203Z" fill="#CBC5C5"/>
<path d="M154.327 73.7107C156.884 76.2751 159.417 87.1285 156.294 96.5927C154.149 93.3904 153.113 93.9851 151.181 93.831C150.665 90.8812 150.542 87.8919 150.686 85.1517C150.982 84.8229 151.614 83.9287 151.771 82.9819C151.928 82.035 151.405 81.2723 151.124 81.0093C151.814 76.7859 153.118 73.8226 154.327 73.7107Z" fill="#CBC5C5"/>
<path d="M162.389 87.1243C162.389 92.8448 161.468 95.8816 161.406 102.313C160.816 103.694 158.653 103.497 159.047 99.5515C158.765 100.492 156.962 101.396 157.277 96.7899C157.592 92.1842 162.389 87.1243 162.389 87.1243Z" fill="#CBC5C5"/>
<path d="M139.777 65.8204C139.951 73.0156 141.617 75.8925 145.676 80.2203C146.631 78.3103 148.428 81.0093 150.198 79.234C146.265 72.1327 147.838 69.9628 144.496 67.793C142.623 66.3731 141.6 66.1477 139.777 65.8204Z" fill="#CBC5C5"/>
<path d="M148.428 57.3383C154.327 63.4533 157.708 67.3427 156.294 75.2888C154.274 71.1041 152.996 72.1341 150.591 77.0641C147.04 69.2726 146.237 64.948 148.428 57.3383Z" fill="#CBC5C5"/>
<path d="M159.047 89.0969C158.36 83.1491 158.063 80.2203 158.653 77.0641C159.564 74.8731 160.489 73.8268 162.979 72.3299C163.928 77.4953 163.85 80.3813 162.979 85.5462C160.758 86.2633 160.1 87.2364 159.047 89.0969Z" fill="#CBC5C5"/>
<path d="M157.867 75.2888C158.653 68.7793 155.9 65.2287 155.9 61.2835C155.9 57.3383 158.653 54.9712 158.653 54.9712C160.431 62.0223 160.683 65.7562 160.816 72.3299C159.637 72.774 158.986 73.4615 157.867 75.2888Z" fill="#CBC5C5"/>
<path d="M134.271 51.8151C135.963 57.2269 137.405 59.9237 141.546 63.6506C142.113 62.0294 142.513 61.6046 143.316 61.2835C141.951 58.5754 141.736 57.0644 141.546 54.3795C137.406 51.6044 136.28 51.6782 134.271 51.8151Z" fill="#CBC5C5"/>
<path d="M145.086 60.0999C147.645 55.3277 148.826 55.1625 150.686 57.3383C150.591 53.2658 149.919 51.5823 148.428 48.8563C147.043 48.6541 146.793 47.8016 146.659 46.4892C144.532 44.2557 143.437 43.7567 141.546 43.333C141.665 50.4158 142.239 54.1738 145.086 60.0999Z" fill="#CBC5C5"/>
<path d="M152.361 44.1221C155.15 46.5605 156.279 48.6122 157.08 54.1822C156.324 54.8299 155.95 55.7449 155.311 57.7328C154.414 56.7355 153.896 56.5943 152.951 56.9438C151.034 52.038 151.031 49.2322 152.361 44.1221Z" fill="#CBC5C5"/>
<path d="M140.956 52.4069C139.807 44.756 134.271 38.9934 129.158 38.9934C127.192 38.9934 126.078 37.0208 125.422 38.0071C125.071 38.536 127.74 42.9503 131.518 46.6864C134.785 49.9165 139.042 52.5898 140.956 52.4069Z" fill="#CBC5C5"/>
<path d="M128.765 26.5661C135.721 28.2405 138.756 30.3062 141.546 37.4153C139.509 39.2253 137.979 39.9846 140.366 44.7138C132.158 38.2421 130.08 34.1954 128.765 26.5661Z" fill="#CBC5C5"/>
<path d="M142.726 29.1305C147.522 33.587 149.412 36.5575 151.574 42.544C151.577 43.5088 151.516 43.9981 150.985 44.5166C150.095 43.9986 149.36 43.8603 147.249 44.1221C143.173 38.0764 142.443 34.8154 142.726 29.1305Z" fill="#CBC5C5"/>
<path d="M115.984 17.295C124.87 17.7883 128.762 19.7904 133.681 26.5661C128.012 24.4314 126.665 24.8229 127.585 29.1305C120.986 25.259 118.831 22.5242 115.984 17.295Z" fill="#CBC5C5"/>
<path d="M125.619 14.1389C126.012 17.6895 135.057 24.5935 141.743 34.2592C139.383 27.3551 138.582 26.0202 141.546 27.9469C136.05 18.9581 132.511 16.1937 125.619 14.1389Z" fill="#CBC5C5"/>
<path d="M112.838 25.9743C114.24 24.4224 115.195 23.8281 118.147 24.199C121.912 27.5208 123.948 28.6647 127.422 30.6165L127.585 30.7085C128.202 31.5434 128.483 32.3077 128.765 33.6674C123.287 33.6789 119.773 31.9484 112.838 25.9743Z" fill="#CBC5C5"/>
<path d="M105.956 17.295C109.692 18.8731 114.608 18.2813 114.608 18.2813C114.741 15.3616 116.348 15.7372 118.54 15.5197C111.287 9.82028 106.973 8.43689 98.6803 10.3707C102.613 11.969 100.253 14.8864 105.956 17.295Z" fill="#CBC5C5"/>
<path d="M112.641 23.2127C105.307 23.14 102.072 21.9805 97.1072 18.8731C97.9916 16.5173 98.9053 15.9991 101.63 15.7169C104.122 19.0471 106.383 20.0676 111.265 21.0429C111.455 22.0914 111.722 22.6556 112.641 23.2127Z" fill="#CBC5C5"/>
<path d="M101.63 2.89516C102.231 5.76179 102.961 7.22155 106.939 8.8129C110.436 9.6234 111.546 9.01722 119.13 14.9279C119.765 15.3274 120.11 15.4586 120.703 15.5197C120.614 13.868 120.766 13.0898 121.293 11.969C114.565 6.06275 110.084 4.51149 101.63 2.89516Z" fill="#CBC5C5"/>
<path d="M83.1463 15.5197C83.673 14.0209 84.2941 13.3457 85.8991 12.3635C87.8065 13.445 89.7774 13.6784 94.7476 13.5471C96.0102 14.2065 96.5559 14.6289 97.1072 15.5197C92.2129 17.598 89.1338 17.591 83.1463 15.5197Z" fill="#CBC5C5"/>
<path d="M83.1463 0.133552C84.0792 1.60732 84.7637 2.43004 86.489 3.88145C90.7219 3.61194 92.9333 3.90341 96.7139 4.86774C96.5097 3.94535 96.5614 3.42357 96.7139 2.50065C90.6201 0.082413 87.744 -0.247386 83.1463 0.133552Z" fill="#CBC5C5"/>
<path d="M78.4251 163.463C78.4251 163.463 80.3924 163.858 82.1621 163.858C83.9318 163.858 85.8991 163.463 85.8991 163.463C85.8656 163.263 85.8332 163.066 85.8019 162.871C85.5583 161.36 85.3795 160.007 85.2615 158.729C85.1674 157.709 85.1121 156.737 85.0937 155.77C85.0788 154.985 85.0883 154.203 85.1211 153.403C85.1495 152.711 85.1954 152.004 85.258 151.269L85.2615 151.228C85.3981 149.64 85.6128 147.915 85.8991 145.907C85.8991 145.907 84.1284 145.513 82.1621 145.513C80.1958 145.513 78.4251 145.907 78.4251 145.907C78.7114 147.915 78.9261 149.64 79.0627 151.228L79.0662 151.269C79.1289 152.004 79.1747 152.711 79.2031 153.403C79.236 154.203 79.2454 154.985 79.2305 155.77C79.2122 156.737 79.1569 157.709 79.0627 158.729C78.9448 160.007 78.7659 161.36 78.5223 162.871C78.491 163.066 78.4586 163.263 78.4251 163.463Z" fill="#CBC5C5"/>
<path fill-rule="evenodd" clip-rule="evenodd" d="M78.4251 145.907C78.4251 145.907 80.1958 145.513 82.1621 145.513C84.1284 145.513 85.8991 145.907 85.8991 145.907C85.6128 147.915 85.3981 149.64 85.2615 151.228C86.6857 143.935 90.2251 140.581 91.9948 138.411C95.1409 138.411 97.5005 141.173 100.057 141.173C102.81 141.173 102.81 141.173 102.81 143.343C102.81 145.513 102.416 148.669 100.45 150.247C98.4836 151.825 95.5341 153.206 94.551 153.206C93.5678 153.206 88.0621 152.219 88.2587 151.036C88.4554 149.852 92.1914 149.852 93.1746 149.852C94.1577 149.852 99.2702 149.458 99.6634 148.077C100.057 146.696 97.5005 147.091 95.3375 145.907C93.1746 144.724 92.1914 142.751 90.4217 145.907C88.6659 149.038 85.1404 152.937 85.258 151.269C85.1954 152.004 85.1495 152.711 85.1211 153.403C89.6352 153.206 96.124 155.376 100.843 155.178C101.433 152.022 104.383 149.852 105.366 149.852C106.349 149.852 109.888 155.178 112.445 155.178C114.214 155.178 116.967 153.403 116.967 151.825C118.071 152.071 119.199 152.624 119.597 154.587L120.9 153.797C120.154 149.23 118.954 147.912 114.608 149.063C115.827 150.705 115.86 151.564 114.608 153.206C113.192 152.732 112.838 149.852 112.838 148.471C115.591 146.499 116.574 150.247 124.439 145.513C125.132 146.941 125.1 147.809 124.832 151.228L126.405 149.852C126.995 148.077 126.012 146.302 126.602 146.104C127.074 145.947 129.945 145.776 131.321 145.71L133.288 144.526C133.681 143.343 133.091 140.976 132.108 140.384C135.254 137.031 140.956 133.677 146.265 134.466L139.973 133.085C145.872 129.337 144.692 126.576 148.232 123.222C151.063 120.54 154.786 119.475 156.294 119.277V117.699C153.305 118.015 150.722 119.277 149.805 119.869C150.985 114.442 159.047 102.905 161.406 104.088V102.313C160.816 103.694 158.653 103.497 159.047 99.5515C158.765 100.492 156.962 101.396 157.277 96.7899C157.592 92.1842 162.389 87.1243 162.389 87.1243L162.979 85.5462C160.758 86.2633 160.1 87.2364 159.047 89.0969C158.36 83.1491 158.063 80.2203 158.653 77.0641C159.564 74.8731 160.489 73.8268 162.979 72.3299H160.816C159.637 72.774 158.986 73.4615 157.867 75.2888C158.653 68.7793 155.9 65.2287 155.9 61.2835C155.9 57.3383 158.653 54.9712 158.653 54.9712L157.08 54.1822C156.324 54.8299 155.95 55.7449 155.311 57.7328C154.414 56.7355 153.896 56.5943 152.951 56.9438C151.034 52.038 151.031 49.2322 152.361 44.1221L151.574 42.544C151.577 43.5088 151.516 43.9981 150.985 44.5166C150.095 43.9986 149.36 43.8603 147.249 44.1221C143.173 38.0764 142.443 34.8154 142.726 29.1305L141.546 27.9469C138.582 26.0202 139.383 27.3551 141.743 34.2592C135.057 24.5935 126.012 17.6895 125.619 14.1389L124.439 14.3361C124.439 14.9898 123.911 15.5197 123.259 15.5197C122.608 15.5197 122.08 14.9898 122.08 14.3361L121.293 11.969C120.766 13.0898 120.614 13.868 120.703 15.5197C120.11 15.4586 119.765 15.3274 119.13 14.9279C111.546 9.01722 110.436 9.6234 106.939 8.8129C102.961 7.22155 102.231 5.76179 101.63 2.89516L100.253 3.68419C100.253 4.33785 99.7251 4.86774 99.0735 4.86774C98.422 4.86774 97.8937 4.33785 97.8937 3.68419L96.7139 2.50065C96.5614 3.42357 96.5097 3.94535 96.7139 4.86774C92.9333 3.90341 90.7219 3.61194 86.489 3.88145C84.7637 2.43004 84.0792 1.60732 83.1463 0.133552H83.1453H81.1789H81.1779C80.245 1.60732 79.5606 2.43004 77.8352 3.88145C73.6023 3.61194 71.3909 3.90341 67.6103 4.86774C67.8145 3.94535 67.7628 3.42357 67.6103 2.50065L66.4305 3.68419C66.4305 4.33785 65.9023 4.86774 65.2507 4.86774C64.5991 4.86774 64.0709 4.33785 64.0709 3.68419L62.6945 2.89516C62.0935 5.76179 61.363 7.22155 57.3854 8.8129C53.8886 9.6234 52.7778 9.01722 45.1941 14.9279C44.5592 15.3274 44.2145 15.4586 43.6211 15.5197C43.7097 13.868 43.5578 13.0898 43.0312 11.969L42.2446 14.3361C42.2446 14.9898 41.7164 15.5197 41.0649 15.5197C40.4133 15.5197 39.8851 14.9898 39.8851 14.3361L38.7053 14.1389C38.312 17.6895 29.2669 24.5935 22.5814 34.2592C24.941 27.3551 25.742 26.0202 22.778 27.9469L21.5982 29.1305C21.8812 34.8154 21.1516 38.0764 17.0757 44.1221C14.9638 43.8603 14.229 43.9986 13.3396 44.5166C12.8078 43.9981 12.7473 43.5088 12.7497 42.544L11.9632 44.1221C13.293 49.2322 13.2904 52.038 11.3733 56.9438C10.4285 56.5943 9.91039 56.7355 9.01371 57.7328C8.37429 55.7449 8.0003 54.8299 7.24402 54.1822L5.67095 54.9712C5.67095 54.9712 8.42381 57.3383 8.42381 61.2835C8.42381 65.2287 5.67095 68.7793 6.45748 75.2888C5.3385 73.4615 4.68742 72.774 3.50799 72.3299H1.34503C3.83507 73.8268 4.76003 74.8731 5.67095 77.0641C6.26085 80.2203 5.96405 83.1491 5.27769 89.0969C4.22389 87.2364 3.56596 86.2633 1.34503 85.5462L1.93493 87.1243C1.93493 87.1243 6.73216 92.1842 7.04738 96.7899C7.36261 101.396 5.55891 100.492 5.27769 99.5515C5.67095 103.497 3.50799 103.694 2.91809 102.313V104.088C5.27769 102.905 13.3396 114.442 14.5194 119.869C13.6018 119.277 11.0194 118.015 8.03055 117.699V119.277C9.53806 119.475 13.261 120.54 16.0925 123.222C19.6319 126.576 18.4521 129.337 24.3511 133.085L18.0588 134.466C23.3679 133.677 29.0703 137.031 32.2164 140.384C31.2332 140.976 30.6433 143.343 31.0366 144.526L33.0029 145.71C34.3793 145.776 37.2502 145.947 37.7221 146.104C38.312 146.302 37.3288 148.077 37.9187 149.852L39.4918 151.228C39.2239 147.809 39.1919 146.941 39.8851 145.513C47.7504 150.247 48.7335 146.499 51.4864 148.471C51.4864 149.852 51.1325 152.732 49.7167 153.206C48.4639 151.564 48.4977 150.705 49.7167 149.063C45.3703 147.912 44.1704 149.23 43.4244 153.797L44.7273 154.587C45.1253 152.624 46.2529 152.071 47.3571 151.825C47.3571 153.403 50.11 155.178 51.8797 155.178C54.4359 155.178 57.9753 149.852 58.9584 149.852C59.9416 149.852 62.8911 152.022 63.481 155.178C68.2002 155.376 74.6891 153.206 79.2031 153.403C79.1747 152.711 79.1289 152.004 79.0662 151.269C79.1838 152.937 75.6583 149.038 73.9025 145.907C72.1328 142.751 71.1497 144.724 68.9867 145.907C66.8237 147.091 64.2675 146.696 64.6608 148.077C65.0541 149.458 70.1665 149.852 71.1497 149.852C72.1328 149.852 75.8689 149.852 76.0655 151.036C76.2621 152.219 70.7564 153.206 69.7732 153.206C68.7901 153.206 65.8406 151.825 63.8743 150.247C61.9079 148.669 61.5147 145.513 61.5147 143.343C61.5147 141.173 61.5147 141.173 64.2675 141.173C66.8237 141.173 69.1833 138.411 72.3295 138.411C74.0992 140.581 77.6385 143.935 79.0627 151.228C78.9261 149.64 78.7114 147.915 78.4251 145.907ZM60.9248 140.778C60.9248 141.962 59.745 140.778 59.745 143.343C59.745 144.447 61.1214 145.907 60.9248 148.274C58.8212 146.515 57.6628 145.773 55.6157 144.724C55.419 144.395 54.8685 142.948 54.2392 139.792C53.4527 135.847 56.5988 137.228 58.5652 138.214C60.1382 139.003 60.7937 140.252 60.9248 140.778ZM45.5874 143.343C50.6999 143.343 56.9921 145.907 59.745 148.471C57.4248 149.046 56.4926 149.599 55.6157 151.036C55.0913 150.115 53.61 148.077 51.8797 147.288C49.7167 146.302 47.947 147.485 46.5706 146.499C45.1941 145.513 45.5874 144.329 45.5874 143.343ZM51.4864 140.187C51.1587 140.515 50.7785 141.489 51.0931 142.751L46.9638 142.554C39.6426 135.552 38.4612 132.222 39.2952 125.392C45.1202 130.03 48.1457 132.94 51.4864 140.187ZM44.4076 145.513C43.7784 144.566 44.1454 142.883 44.4076 142.159C37.2407 132.207 33.6016 129.111 27.4972 127.365C26.7817 134.609 37.7184 144.273 44.4076 145.513ZM33.9861 144.526C33.3345 144.526 32.8063 143.996 32.8063 143.343C32.8063 142.689 33.3345 142.159 33.9861 142.159C34.6377 142.159 35.1659 142.689 35.1659 143.343C35.1659 143.996 34.6377 144.526 33.9861 144.526ZM36.7389 130.521C36.0873 130.521 35.5591 129.991 35.5591 129.337C35.5591 128.684 36.0873 128.154 36.7389 128.154C37.3905 128.154 37.9187 128.684 37.9187 129.337C37.9187 129.991 37.3905 130.521 36.7389 130.521ZM23.1713 114.149C22.5197 114.149 21.9915 113.619 21.9915 112.965C21.9915 112.311 22.5197 111.782 23.1713 111.782C23.8229 111.782 24.3511 112.311 24.3511 112.965C24.3511 113.619 23.8229 114.149 23.1713 114.149ZM6.85075 104.088C6.19917 104.088 5.67095 103.559 5.67095 102.905C5.67095 102.251 6.19917 101.721 6.85075 101.721C7.50233 101.721 8.03055 102.251 8.03055 102.905C8.03055 103.559 7.50233 104.088 6.85075 104.088ZM16.4858 98.9598C15.8342 98.9598 15.306 98.4299 15.306 97.7762C15.306 97.1225 15.8342 96.5927 16.4858 96.5927C17.1373 96.5927 17.6656 97.1225 17.6656 97.7762C17.6656 98.4299 17.1373 98.9598 16.4858 98.9598ZM14.9127 84.1654C14.2611 84.1654 13.7329 83.6355 13.7329 82.9819C13.7329 82.3282 14.2611 81.7983 14.9127 81.7983C15.5643 81.7983 16.0925 82.3282 16.0925 82.9819C16.0925 83.6355 15.5643 84.1654 14.9127 84.1654ZM10.7834 61.2835C10.1318 61.2835 9.60361 60.7536 9.60361 60.0999C9.60361 59.4463 10.1318 58.9164 10.7834 58.9164C11.435 58.9164 11.9632 59.4463 11.9632 60.0999C11.9632 60.7536 11.435 61.2835 10.7834 61.2835ZM19.8285 65.2287C19.1769 65.2287 18.6487 64.6988 18.6487 64.0451C18.6487 63.3914 19.1769 62.8616 19.8285 62.8616C20.4801 62.8616 21.0083 63.3914 21.0083 64.0451C21.0083 64.6988 20.4801 65.2287 19.8285 65.2287ZM14.7161 47.6727C14.0645 47.6727 13.5363 47.1428 13.5363 46.4892C13.5363 45.8355 14.0645 45.3056 14.7161 45.3056C15.3676 45.3056 15.8959 45.8355 15.8959 46.4892C15.8959 47.1428 15.3676 47.6727 14.7161 47.6727ZM22.778 42.1495C22.1264 42.1495 21.5982 41.6196 21.5982 40.9659C21.5982 40.3123 22.1264 39.7824 22.778 39.7824C23.4296 39.7824 23.9578 40.3123 23.9578 40.9659C23.9578 41.6196 23.4296 42.1495 22.778 42.1495ZM36.3457 38.0071C35.6941 38.0071 35.1659 37.4772 35.1659 36.8235C35.1659 36.1699 35.6941 35.64 36.3457 35.64C36.9972 35.64 37.5255 36.1699 37.5255 36.8235C37.5255 37.4772 36.9972 38.0071 36.3457 38.0071ZM50.3066 22.4237C49.655 22.4237 49.1268 21.8938 49.1268 21.2401C49.1268 20.5865 49.655 20.0566 50.3066 20.0566C50.9582 20.0566 51.4864 20.5865 51.4864 21.2401C51.4864 21.8938 50.9582 22.4237 50.3066 22.4237ZM66.0372 14.3361C65.3856 14.3361 64.8574 13.8062 64.8574 13.1526C64.8574 12.4989 65.3856 11.969 66.0372 11.969C66.6888 11.969 67.217 12.4989 67.217 13.1526C67.217 13.8062 66.6888 14.3361 66.0372 14.3361ZM26.7107 110.598C28.2837 109.809 36.3457 120.264 36.7389 125.984C35.4936 126.313 32.8849 127.247 32.413 128.351C25.9241 125.59 25.1376 111.387 26.7107 110.598ZM17.6656 112.571C20.4184 111.584 26.7107 121.842 27.4972 125.984C25.4815 125.984 24.3511 128.351 26.3174 132.494C18.6487 128.746 14.9127 113.557 17.6656 112.571ZM23.9578 97.7762C25.9241 101.919 24.941 104.483 25.3342 110.203C24.8754 109.875 23.7218 109.336 22.778 109.809C21.8342 110.282 20.9428 111.847 20.615 112.571C20.2218 111.387 19.2779 108.152 18.6487 104.68C17.8622 100.341 19.8285 94.4228 20.615 94.2256C21.4016 94.0283 21.9915 93.6338 23.9578 97.7762ZM10.7834 95.0146C12.5531 94.8371 18.4724 102.905 18.6487 111.782C16.4858 110.203 15.306 111.782 15.306 116.121C9.99687 113.754 6.85075 95.4091 10.7834 95.0146ZM14.9127 95.8036C13.7329 87.5188 18.6487 81.7983 22.3847 80.2203C23.0118 85.1346 22.8788 87.8957 20.615 92.8448C19.2167 92.6724 18.7013 93.2603 18.0588 95.0146C17.5345 94.6201 16.1711 94.2256 14.9127 95.8036ZM8.03055 96.5927C4.90744 87.1285 7.44065 76.2751 9.99687 73.7107C11.2063 73.8226 12.5103 76.7859 13.2002 81.0093C12.919 81.2723 12.3958 82.035 12.5531 82.9819C12.7104 83.9287 13.3423 84.8229 13.6387 85.1517C13.7818 87.8919 13.6594 90.8812 13.143 93.831C11.211 93.9851 10.1749 93.3904 8.03055 96.5927ZM18.6487 80.2203C22.7067 75.8925 24.3735 73.0156 24.5477 65.8204C22.7246 66.1477 21.7009 66.3731 19.8285 67.793C16.4858 69.9628 18.0588 72.1327 14.1262 79.234C15.8959 81.0093 17.6936 78.3103 18.6487 80.2203ZM8.03055 75.2888C6.61619 67.3427 9.99687 63.4533 15.8959 57.3383C18.0868 64.948 17.2845 69.2726 13.7329 77.0641C11.3285 72.1341 10.0506 71.1041 8.03055 75.2888ZM22.778 63.6506C26.9189 59.9237 28.3608 57.2269 30.0534 51.8151C28.0446 51.6782 26.9178 51.6044 22.778 54.3795C22.5881 57.0644 22.3736 58.5754 21.0083 61.2835C21.8111 61.6046 22.211 62.0294 22.778 63.6506ZM13.6387 57.3383C15.4978 55.1625 16.6788 55.3277 19.2386 60.0999C22.0857 54.1738 22.6595 50.4158 22.778 43.333C20.8871 43.7567 19.7927 44.2557 17.6656 46.4892C17.5316 47.8016 17.2814 48.6541 15.8959 48.8563C14.4054 51.5823 13.7332 53.2658 13.6387 57.3383ZM35.1659 38.9934C30.0534 38.9934 24.5177 44.756 23.3679 52.4069C25.2826 52.5898 29.5396 49.9165 32.8063 46.6864C36.5847 42.9503 39.2534 38.536 38.9019 38.0071C38.2465 37.0208 37.1322 38.9934 35.1659 38.9934ZM22.778 37.4153C25.5683 30.3062 28.6031 28.2405 35.5591 26.5661C34.2443 34.1954 32.1659 38.2421 23.9578 44.7138C26.3452 39.9846 24.8148 39.2253 22.778 37.4153ZM30.6433 26.5661C35.5617 19.7904 39.4541 17.7883 48.3403 17.295C45.4927 22.5242 43.3385 25.259 36.7389 29.1305C37.6589 24.8229 36.3121 24.4314 30.6433 26.5661ZM46.1773 24.199C49.129 23.8281 50.084 24.4224 51.4864 25.9743C44.5508 31.9484 41.037 33.6789 35.5591 33.6674C35.8407 32.3077 36.122 31.5434 36.7389 30.7085L36.9027 30.6165C40.3766 28.6647 42.4125 27.5208 46.1773 24.199ZM49.7167 18.2813C49.7167 18.2813 54.6325 18.8731 58.3685 17.295C64.0709 14.8864 61.7113 11.969 65.644 10.3707C57.3516 8.43689 53.037 9.82028 45.784 15.5197C47.9758 15.7372 49.5829 15.3616 49.7167 18.2813ZM67.217 18.8731C62.2525 21.9805 59.0173 23.14 51.683 23.2127C52.6024 22.6556 52.8692 22.0914 53.0595 21.0429C57.9416 20.0676 60.202 19.0471 62.6945 15.7169C65.4189 15.9991 66.3326 16.5173 67.217 18.8731ZM82.1621 8.90762C79.2343 10.7866 77.5641 11.5745 73.3126 11.5745C69.9073 11.5745 68.5753 10.7657 67.353 10.0235C66.3168 9.39425 65.3594 8.8129 63.2844 8.8129C70.5497 4.02894 75.0025 3.65858 82.1621 6.73397C89.3217 3.65858 93.7745 4.02894 101.04 8.8129C98.9649 8.8129 98.0075 9.39425 96.9712 10.0235C95.7489 10.7657 94.4169 11.5745 91.0116 11.5745C86.7601 11.5745 85.0899 10.7866 82.1621 8.90762ZM78.4251 12.3635C80.0301 13.3457 80.6512 14.0209 81.1779 15.5197C75.1904 17.591 72.1113 17.598 67.217 15.5197C67.7683 14.6289 68.314 14.2065 69.5766 13.5471C74.5469 13.6784 76.5177 13.445 78.4251 12.3635ZM103.399 140.778C103.399 141.962 104.579 140.778 104.579 143.343C104.579 144.447 103.203 145.907 103.399 148.274C105.503 146.515 106.661 145.773 108.709 144.724C108.905 144.395 109.456 142.948 110.085 139.792C110.872 135.847 107.725 137.228 105.759 138.214C104.186 139.003 103.531 140.252 103.399 140.778ZM118.737 143.343C113.624 143.343 107.332 145.907 104.579 148.471C106.899 149.046 107.832 149.599 108.709 151.036C109.233 150.115 110.714 148.077 112.445 147.288C114.608 146.302 116.377 147.485 117.754 146.499C119.13 145.513 118.737 144.329 118.737 143.343ZM112.838 140.187C113.166 140.515 113.546 141.489 113.231 142.751L117.36 142.554C124.682 135.552 125.863 132.222 125.029 125.392C119.204 130.03 116.179 132.94 112.838 140.187ZM119.917 145.513C120.546 144.566 120.179 142.883 119.917 142.159C127.084 132.207 130.723 129.111 136.827 127.365C137.543 134.609 126.606 144.273 119.917 145.513ZM130.338 144.526C130.99 144.526 131.518 143.996 131.518 143.343C131.518 142.689 130.99 142.159 130.338 142.159C129.687 142.159 129.158 142.689 129.158 143.343C129.158 143.996 129.687 144.526 130.338 144.526ZM127.585 130.521C128.237 130.521 128.765 129.991 128.765 129.337C128.765 128.684 128.237 128.154 127.585 128.154C126.934 128.154 126.405 128.684 126.405 129.337C126.405 129.991 126.934 130.521 127.585 130.521ZM141.153 114.149C141.805 114.149 142.333 113.619 142.333 112.965C142.333 112.311 141.805 111.782 141.153 111.782C140.501 111.782 139.973 112.311 139.973 112.965C139.973 113.619 140.501 114.149 141.153 114.149ZM157.473 104.088C158.125 104.088 158.653 103.559 158.653 102.905C158.653 102.251 158.125 101.721 157.473 101.721C156.822 101.721 156.294 102.251 156.294 102.905C156.294 103.559 156.822 104.088 157.473 104.088ZM147.838 98.9598C148.49 98.9598 149.018 98.4299 149.018 97.7762C149.018 97.1225 148.49 96.5927 147.838 96.5927C147.187 96.5927 146.659 97.1225 146.659 97.7762C146.659 98.4299 147.187 98.9598 147.838 98.9598ZM149.412 84.1654C150.063 84.1654 150.591 83.6355 150.591 82.9819C150.591 82.3282 150.063 81.7983 149.412 81.7983C148.76 81.7983 148.232 82.3282 148.232 82.9819C148.232 83.6355 148.76 84.1654 149.412 84.1654ZM153.541 61.2835C154.192 61.2835 154.721 60.7536 154.721 60.0999C154.721 59.4463 154.192 58.9164 153.541 58.9164C152.889 58.9164 152.361 59.4463 152.361 60.0999C152.361 60.7536 152.889 61.2835 153.541 61.2835ZM144.496 65.2287C145.147 65.2287 145.676 64.6988 145.676 64.0451C145.676 63.3914 145.147 62.8616 144.496 62.8616C143.844 62.8616 143.316 63.3914 143.316 64.0451C143.316 64.6988 143.844 65.2287 144.496 65.2287ZM149.608 47.6727C150.26 47.6727 150.788 47.1428 150.788 46.4892C150.788 45.8355 150.26 45.3056 149.608 45.3056C148.957 45.3056 148.428 45.8355 148.428 46.4892C148.428 47.1428 148.957 47.6727 149.608 47.6727ZM141.546 42.1495C142.198 42.1495 142.726 41.6196 142.726 40.9659C142.726 40.3123 142.198 39.7824 141.546 39.7824C140.895 39.7824 140.366 40.3123 140.366 40.9659C140.366 41.6196 140.895 42.1495 141.546 42.1495ZM127.979 38.0071C128.63 38.0071 129.158 37.4772 129.158 36.8235C129.158 36.1699 128.63 35.64 127.979 35.64C127.327 35.64 126.799 36.1699 126.799 36.8235C126.799 37.4772 127.327 38.0071 127.979 38.0071ZM114.018 22.4237C114.669 22.4237 115.197 21.8938 115.197 21.2401C115.197 20.5865 114.669 20.0566 114.018 20.0566C113.366 20.0566 112.838 20.5865 112.838 21.2401C112.838 21.8938 113.366 22.4237 114.018 22.4237ZM98.287 14.3361C98.9386 14.3361 99.4668 13.8062 99.4668 13.1526C99.4668 12.4989 98.9386 11.969 98.287 11.969C97.6354 11.969 97.1072 12.4989 97.1072 13.1526C97.1072 13.8062 97.6354 14.3361 98.287 14.3361ZM137.614 110.598C136.04 109.809 127.979 120.264 127.585 125.984C128.831 126.313 131.439 127.247 131.911 128.351C138.4 125.59 139.187 111.387 137.614 110.598ZM146.659 112.571C143.906 111.584 137.614 121.842 136.827 125.984C138.843 125.984 139.973 128.351 138.007 132.494C145.676 128.746 149.412 113.557 146.659 112.571ZM140.366 97.7762C138.4 101.919 139.383 104.483 138.99 110.203C139.449 109.875 140.602 109.336 141.546 109.809C142.49 110.282 143.381 111.847 143.709 112.571C144.102 111.387 145.046 108.152 145.676 104.68C146.462 100.341 144.496 94.4228 143.709 94.2256C142.923 94.0283 142.333 93.6338 140.366 97.7762ZM153.541 95.0146C151.771 94.8371 145.852 102.905 145.676 111.782C147.838 110.203 149.018 111.782 149.018 116.121C154.327 113.754 157.473 95.4091 153.541 95.0146ZM149.412 95.8036C150.591 87.5188 145.676 81.7983 141.939 80.2203C141.312 85.1346 141.445 87.8957 143.709 92.8448C145.108 92.6724 145.623 93.2603 146.265 95.0146C146.79 94.6201 148.153 94.2256 149.412 95.8036ZM156.294 96.5927C159.417 87.1285 156.884 76.2751 154.327 73.7107C153.118 73.8226 151.814 76.7859 151.124 81.0093C151.405 81.2723 151.928 82.035 151.771 82.9819C151.614 83.9287 150.982 84.8229 150.686 85.1517C150.542 87.8919 150.665 90.8812 151.181 93.831C153.113 93.9851 154.149 93.3904 156.294 96.5927ZM145.676 80.2203C141.617 75.8925 139.951 73.0156 139.777 65.8204C141.6 66.1477 142.623 66.3731 144.496 67.793C147.838 69.9628 146.265 72.1327 150.198 79.234C148.428 81.0093 146.631 78.3103 145.676 80.2203ZM156.294 75.2888C157.708 67.3427 154.327 63.4533 148.428 57.3383C146.237 64.948 147.04 69.2726 150.591 77.0641C152.996 72.1341 154.274 71.1041 156.294 75.2888ZM141.546 63.6506C137.405 59.9237 135.963 57.2269 134.271 51.8151C136.28 51.6782 137.406 51.6044 141.546 54.3795C141.736 57.0644 141.951 58.5754 143.316 61.2835C142.513 61.6046 142.113 62.0294 141.546 63.6506ZM150.686 57.3383C148.826 55.1625 147.645 55.3277 145.086 60.0999C142.239 54.1738 141.665 50.4158 141.546 43.333C143.437 43.7567 144.532 44.2557 146.659 46.4892C146.793 47.8016 147.043 48.6541 148.428 48.8563C149.919 51.5823 150.591 53.2658 150.686 57.3383ZM129.158 38.9934C134.271 38.9934 139.807 44.756 140.956 52.4069C139.042 52.5898 134.785 49.9165 131.518 46.6864C127.74 42.9503 125.071 38.536 125.422 38.0071C126.078 37.0208 127.192 38.9934 129.158 38.9934ZM141.546 37.4153C138.756 30.3062 135.721 28.2405 128.765 26.5661C130.08 34.1954 132.158 38.2421 140.366 44.7138C137.979 39.9846 139.509 39.2253 141.546 37.4153ZM133.681 26.5661C128.762 19.7904 124.87 17.7883 115.984 17.295C118.831 22.5242 120.986 25.259 127.585 29.1305C126.665 24.8229 128.012 24.4314 133.681 26.5661ZM118.147 24.199C115.195 23.8281 114.24 24.4224 112.838 25.9743C119.773 31.9484 123.287 33.6789 128.765 33.6674C128.483 32.3077 128.202 31.5434 127.585 30.7085L127.422 30.6165C123.948 28.6647 121.912 27.5208 118.147 24.199ZM114.608 18.2813C114.608 18.2813 109.692 18.8731 105.956 17.295C100.253 14.8864 102.613 11.969 98.6803 10.3707C106.973 8.43689 111.287 9.82028 118.54 15.5197C116.348 15.7372 114.741 15.3616 114.608 18.2813ZM97.1072 18.8731C102.072 21.9805 105.307 23.14 112.641 23.2127C111.722 22.6556 111.455 22.0914 111.265 21.0429C106.383 20.0676 104.122 19.0471 101.63 15.7169C98.9053 15.9991 97.9916 16.5173 97.1072 18.8731ZM85.8991 12.3635C84.2941 13.3457 83.673 14.0209 83.1463 15.5197C89.1338 17.591 92.2129 17.598 97.1072 15.5197C96.5559 14.6289 96.0102 14.2065 94.7476 13.5471C89.7774 13.6784 87.8065 13.445 85.8991 12.3635Z" fill="#6F6C6C"/>
<path fill-rule="evenodd" clip-rule="evenodd" d="M82.1621 6.73397C89.3217 3.65858 93.7745 4.02894 101.04 8.8129C98.9649 8.8129 98.0075 9.39425 96.9712 10.0235C95.7489 10.7657 94.4169 11.5745 91.0116 11.5745C86.7601 11.5745 85.0899 10.7866 82.1621 8.90762C82.5206 8.67758 82.8979 8.43118 83.3011 8.16787C83.5648 7.99565 83.8396 7.8162 84.1274 7.62935C83.4486 7.30443 82.7948 7.00574 82.1621 6.73397ZM82.1621 6.73397C81.5294 7.00574 80.8756 7.30443 80.1968 7.62935C80.4846 7.8162 80.7594 7.99565 81.0232 8.16787C81.4264 8.43118 81.8037 8.67758 82.1621 8.90762C79.2343 10.7866 77.5641 11.5745 73.3126 11.5745C69.9073 11.5745 68.5753 10.7657 67.353 10.0235C66.3168 9.39425 65.3594 8.8129 63.2844 8.8129C70.5497 4.02894 75.0025 3.65858 82.1621 6.73397Z" fill="#CBC5C5"/>
<path d="M82.1621 6.73397C81.5294 7.00574 80.8756 7.30443 80.1968 7.62935C80.4846 7.8162 80.7594 7.99565 81.0232 8.16787C81.4264 8.43118 81.8037 8.67758 82.1621 8.90762C82.5206 8.67758 82.8979 8.43118 83.3011 8.16787C83.5648 7.99565 83.8396 7.8162 84.1274 7.62935C83.4486 7.30443 82.7948 7.00574 82.1621 6.73397Z" fill="#6F6C6C"/>
<path d="M85.0937 155.77C85.1121 156.737 85.1674 157.709 85.2615 158.729C85.7144 160.051 95.6631 161.374 101.072 163.858L102.023 162.082C99.0735 162.674 90.0284 156.165 85.0937 155.77Z" fill="#6F6C6C"/>
<path d="M79.0627 158.729C79.1569 157.709 79.2122 156.737 79.2305 155.77C74.2958 156.165 65.2507 162.674 62.3012 162.082L63.2526 163.858C68.6611 161.374 78.6098 160.051 79.0627 158.729Z" fill="#6F6C6C"/>
<path fill-rule="evenodd" clip-rule="evenodd" d="M81.5029 53.8933L81.9472 56.0087C81.8511 56.0057 81.7548 56.0041 81.6582 56.0041C76.7979 56.0046 72.5458 59.8572 72.5458 64.3226V80.4339H53.4518V43.2199C53.4518 40.718 55.6991 38.6666 57.9649 38.6666H100.367L99.6627 45.0365L87.6346 50.4209L87.9062 49.2313L82.9459 48.0786L82.6172 49.5187L87.2469 50.5945L81.5535 53.1431V50.8359H80.0888V53.8933H81.5029ZM82.6417 56.0568H87.9355L87.7716 56.3731L89.0696 57.0579L89.5884 56.0568H92.9992L93.2764 58.5264L91.0263 59.6784L91.6892 60.9962L94.33 59.6442L99.5604 60.4137V72.6237H106.358V61.4138L109.865 61.9298V80.4339H90.7706V64.3226C90.7706 60.1613 87.078 56.5323 82.6417 56.0568ZM109.119 40.8035C108.271 39.5228 106.815 38.6666 105.351 38.6666H104.564L105.409 42.4642L109.119 40.8035ZM62.8372 43.5682V40.9597H64.3019V43.5682H62.8372ZM73.1779 43.5682V40.9597H74.6427V43.5682H73.1779ZM84.4034 43.5682V40.9597H85.8681V43.5682H84.4034ZM56.9181 44.2019H65.6103V45.6796H58.3828V46.794H56.9181V44.2019ZM68.9439 44.2019H79.5411V46.794H78.0763V45.6796H68.9439V44.2019ZM89.7099 45.6796H81.1898V44.2019H91.1747V46.794H89.7099V45.6796ZM71.8852 49.2488H67.8553V47.771H73.3499V49.9513H71.8852V49.2488ZM58.5058 48.9251C58.4362 48.6644 58.4147 48.3609 58.4147 48.0294H59.8794C59.8794 48.2326 59.89 48.3678 59.9032 48.4555C59.9695 48.4585 60.0476 48.4582 60.1559 48.4577L60.1564 48.4577C60.2002 48.4576 60.2488 48.4574 60.3036 48.4574H65.0499V52.285H63.5852V49.9351H60.3036C60.2715 49.9351 60.2376 49.9353 60.2023 49.9355C60.0476 49.9363 59.8686 49.9373 59.7151 49.9238C59.5183 49.9065 59.2412 49.8592 58.9884 49.6737C58.7195 49.4764 58.579 49.1995 58.5058 48.9251ZM80.3173 49.5092L76.3133 50.6618L75.9114 49.2408L79.9154 48.0882L80.3173 49.5092ZM74.4909 51.6328L71.8256 53.9856L70.8611 52.8734L73.5263 50.5206L74.4909 51.6328ZM76.7614 52.3282L78.1135 54.9387L76.8153 55.6231L75.4633 53.0125L76.7614 52.3282ZM67.311 55.083H60.8479V53.6052H67.311V55.083ZM70.2495 55.5263L68.9169 58.9994L67.551 58.466L68.8836 54.9928L70.2495 55.5263ZM72.8465 55.7389L74.4209 57.2835L73.3997 58.3429L71.8254 56.7984L72.8465 55.7389ZM56.4938 58.8903H64.7258V60.3681H56.4938V58.8903ZM69.7536 59.8268L72.4155 60.1202L72.2564 61.5892L69.5945 61.2958L69.7536 59.8268ZM98.3469 60.5613V72.1899H96.8822V60.5613H98.3469ZM67.9275 60.9266L67.6686 63.877L66.2095 63.7467L66.4684 60.7963L67.9275 60.9266ZM71.2363 65.7659H68.9439V64.2881H71.2363V65.7659ZM59.6942 64.9575C59.9718 64.6692 60.36 64.4346 60.8479 64.4346H65.9025V65.9123L60.8475 65.9123C60.8457 65.9123 60.8423 65.9122 60.8319 65.9173C60.8178 65.9242 60.7878 65.9427 60.745 65.9871C60.6541 66.0815 60.547 66.25 60.4459 66.5028C60.2441 67.0073 60.1329 67.6784 60.1329 68.2434H58.6682C58.6682 67.5227 58.804 66.6589 59.0876 65.9498C59.2292 65.5959 59.4243 65.2379 59.6942 64.9575ZM65.5591 70.6637H57.039V69.186H67.0239V72.1899C67.0239 72.9897 66.339 73.8905 65.212 73.8905V72.4127C65.3604 72.4127 65.4423 72.3598 65.4901 72.3102C65.5444 72.2539 65.5564 72.201 65.5587 72.1912L65.559 72.1903L65.5591 72.1899V70.6637ZM70.4137 70.6637H67.8553V69.186H70.4137V70.6637ZM59.1471 75.6743H55.882V74.1965H59.1471V75.6743ZM61.2038 74.7379C61.6649 74.4208 62.27 74.1965 62.8501 74.1965H70.4137V75.6743H62.8501C62.6148 75.6743 62.292 75.7779 62.0291 75.9588C61.7931 76.1212 61.7411 76.2439 61.7298 76.2707L61.7285 76.2738L61.7278 76.2752L61.7275 76.2757L61.7271 76.2761C61.7271 76.2761 61.7267 76.2747 61.7267 76.272H60.262C60.262 75.5609 60.7742 75.0335 61.2038 74.7379Z" fill="#CBC5C5"/>
<path d="M113.307 40.545C117.446 47.3907 117.513 54.579 114.256 61.0825L104.892 59.7048V71.1458H101.025V59.1357L94.7142 58.2072L94.3071 54.579H81.9569L101.025 46.0432L102.246 35L104.37 44.5455L113.307 40.545Z" fill="#CBC5C5"/>
<path d="M55.0178 122.698C53.4738 123.466 51.062 122.698 50.3972 121.202C49.7323 119.706 50.5409 117.307 51.9859 116.579C53.431 115.85 64.9788 110.027 64.9788 110.027L68.0107 116.146C68.0107 116.146 56.5618 121.931 55.0178 122.698Z" fill="#CBC5C5"/>
<path d="M69.6278 115.331C69.2411 114.531 68.1112 112.27 68.1112 112.27C68.1112 112.27 66.999 110.04 66.5959 109.211C66.1929 108.382 66.5434 107.163 67.4169 106.774C68.2904 106.386 69.5061 106.883 69.8415 107.575C70.177 108.266 71.3568 110.633 71.3568 110.633C71.3568 110.633 72.5303 112.994 72.8734 113.694C73.2165 114.394 72.7716 115.781 72.0524 116.131C71.3333 116.481 70.0146 116.131 69.6278 115.331Z" fill="#CBC5C5"/>
<path fill-rule="evenodd" clip-rule="evenodd" d="M73.1968 111.09C80.9653 107.851 87.526 105.612 93.3427 103.627C108.467 98.4654 118.561 95.0209 131.774 80.1657C112.068 81.9119 103.28 87.9899 90.1125 97.096C85.0467 100.599 79.3328 104.551 72.0998 108.876L73.1968 111.09ZM104.843 94.7164C97.9381 98.1982 94.4325 99.3827 94.2794 99.0736C94.1262 98.7644 97.1707 96.6494 104.075 93.1676C110.98 89.6858 114.31 88.1481 114.638 88.8104C114.967 89.4728 111.747 91.2346 104.843 94.7164Z" fill="#CBC5C5"/>
<path d="M109.531 122.698C111.075 123.465 113.487 122.698 114.152 121.202C114.816 119.706 114.008 117.307 112.563 116.579C111.118 115.85 99.57 110.027 99.57 110.027L96.5381 116.146C96.5381 116.146 107.987 121.931 109.531 122.698Z" fill="#CBC5C5"/>
<path d="M94.921 115.331C95.3077 114.53 96.4376 112.269 96.4376 112.269C96.4376 112.269 97.5497 110.04 97.9528 109.211C98.3559 108.382 98.0053 107.163 97.1319 106.774C96.2584 106.386 95.0427 106.883 94.7072 107.574C94.3718 108.266 93.192 110.633 93.192 110.633C93.192 110.633 92.0185 112.994 91.6754 113.694C91.3323 114.394 91.7772 115.781 92.4964 116.131C93.2155 116.48 94.5342 116.131 94.921 115.331Z" fill="#CBC5C5"/>
<path fill-rule="evenodd" clip-rule="evenodd" d="M84.5387 108.373C86.7053 109.199 88.972 110.098 91.352 111.09L92.449 108.876C91.2654 108.168 90.1225 107.471 89.0164 106.783C87.5709 107.286 86.0804 107.813 84.5387 108.373ZM80.8557 101.492C79.1173 102.643 77.2868 103.828 75.3416 105.045C73.9214 104.553 72.546 104.084 71.2099 103.628L71.2061 103.627C56.0815 98.4653 45.9879 95.0207 32.7744 80.1656C52.4803 81.9117 61.269 87.9897 74.4363 97.0958C76.4548 98.4917 78.5763 99.9589 80.8557 101.492ZM70.2694 99.0734C70.1163 99.3826 66.6107 98.198 59.7061 94.7162C52.8016 91.2344 49.5822 89.4727 49.9103 88.8103C50.2385 88.1479 53.569 89.6856 60.4736 93.1674C67.3781 96.6492 70.4226 98.7643 70.2694 99.0734Z" fill="#CBC5C5"/>
</svg>
