<svg width="164" height="124" viewBox="0 0 164 124" fill="none" xmlns="http://www.w3.org/2000/svg">
<path d="M0.326172 22C0.326172 9.84974 10.1691 0 22.311 0H141.229C153.371 0 163.214 9.84974 163.214 22V102C163.214 114.15 153.371 124 141.229 124H22.311C10.1691 124 0.326172 114.15 0.326172 102V22Z" fill="#C5A869"/>
<path fill-rule="evenodd" clip-rule="evenodd" d="M141.229 11H22.311C16.2401 11 11.3186 15.9249 11.3186 22V102C11.3186 108.075 16.2401 113 22.311 113H141.229C147.3 113 152.221 108.075 152.221 102V22C152.221 15.9249 147.3 11 141.229 11ZM22.311 0C10.1691 0 0.326172 9.84974 0.326172 22V102C0.326172 114.15 10.1691 124 22.311 124H141.229C153.371 124 163.214 114.15 163.214 102V22C163.214 9.84974 153.371 0 141.229 0H22.311Z" fill="#A68C55"/>
<path fill-rule="evenodd" clip-rule="evenodd" d="M75.4397 66.3307C75.8062 66.0165 76.3579 66.0589 76.6721 66.4253L79.8826 70.1701C80.1967 70.5366 80.1544 71.0883 79.7879 71.4025C79.4214 71.7167 78.8697 71.6743 78.5555 71.3078L75.345 67.5631C75.0309 67.1966 75.0732 66.6448 75.4397 66.3307ZM78.65 66.3307C79.0165 66.0165 79.5683 66.0589 79.8824 66.4253L83.3033 70.4155C83.6175 70.782 83.5751 71.3337 83.2086 71.6479C82.8422 71.9621 82.2904 71.9197 81.9762 71.5532L78.5554 67.5631C78.2412 67.1966 78.2836 66.6448 78.65 66.3307ZM72.313 66.662C72.6795 66.3478 73.2312 66.3902 73.5454 66.7566L76.7121 70.4503C77.0263 70.8168 76.9839 71.3686 76.6174 71.6827C76.251 71.9969 75.6992 71.9545 75.385 71.5881L72.2183 67.8944C71.9042 67.5279 71.9466 66.9761 72.313 66.662ZM82.5739 66.662C82.9404 66.3478 83.4921 66.3902 83.8063 66.7566L86.5142 69.9152C86.8284 70.2817 86.786 70.8334 86.4195 71.1476C86.0531 71.4618 85.5013 71.4194 85.1871 71.0529L82.4792 67.8944C82.1651 67.5279 82.2075 66.9761 82.5739 66.662ZM85.7842 66.662C86.1507 66.3478 86.7025 66.3902 87.0166 66.7566L89.7245 69.9152C90.0387 70.2817 89.9963 70.8334 89.6299 71.1476C89.2634 71.4618 88.7116 71.4194 88.3975 71.0529L85.6896 67.8944C85.3754 67.5279 85.4178 66.9761 85.7842 66.662Z" fill="black"/>
<path d="M71.4529 67.6092C71.0373 67.8089 70.7504 68.2339 70.7504 68.7258C70.7504 69.4096 71.3047 69.964 71.9885 69.964H73.2252L71.776 68.2736C71.607 68.0764 71.4998 67.847 71.4529 67.6092Z" fill="black"/>
<path d="M90.4221 69.964H90.8448C91.5286 69.964 92.083 69.4096 92.083 68.7258C92.083 68.042 91.5286 67.4877 90.8448 67.4877H88.4108L90.1669 69.536C90.279 69.6668 90.3639 69.8118 90.4221 69.964Z" fill="black"/>
<path d="M82.7451 73.1943L83.7095 99.6817C81.791 97.7068 81.1108 96.651 80.0088 94.7621L80.794 73.1943V71.0695L81.5339 71.9325C81.8465 72.2971 82.3002 72.4692 82.7451 72.4373V73.1943Z" fill="black"/>
<path d="M83.9135 71.6919C83.9187 71.9061 83.925 72.128 83.9324 72.3591C83.9694 72.8533 84.0055 73.3375 84.0408 73.8116C84.6211 81.6073 84.9987 86.68 86.3133 88.7L88.6262 85.2987C86.5733 82.4238 86.2513 79.0493 86.0072 72.3591C85.9998 72.2141 85.993 72.0727 85.9866 71.9345C85.532 71.9767 85.0645 71.8051 84.7448 71.4322L84.0513 70.6232C84.1427 70.9817 84.0946 71.3657 83.9135 71.6919Z" fill="black"/>
<path d="M87.241 70.9193C87.2031 71.2756 87.1663 71.6565 87.1296 72.0676C87.1296 78.36 87.8346 81.8003 89.3745 84.1082L90.735 82.0334C89.2412 79.7623 89.1106 77.1956 89.1704 72.0676C89.1724 72.0235 89.1745 71.9797 89.1766 71.9362C88.7284 71.9715 88.2701 71.7996 87.9551 71.4322L87.2962 70.6636C87.2855 70.7501 87.2671 70.8357 87.241 70.9193Z" fill="black"/>
<path fill-rule="evenodd" clip-rule="evenodd" d="M89.9576 66.905C90.0564 66.5583 90.1668 66.1951 90.2903 65.8049C91.1572 63.6148 91.8001 62.581 93.195 61.0442C96.0245 61.5243 97.3057 61.3054 99.1429 60.2347C98.5699 59.4831 97.9443 59.1748 96.4793 58.7723C100.21 59.2321 101.226 58.8136 102.172 57.5189C101.265 56.8759 100.61 56.5441 99.0123 56.0043C102.325 56.737 103.673 56.6263 104.992 55.3253C104.112 54.646 103.51 54.3437 102.433 53.9674C105.866 54.0288 106.937 53.7232 107.787 52.7661C107.123 52.2446 106.688 51.9801 105.228 51.8484C107.775 50.7843 108.643 50.1377 108.878 48.8717C107.861 48.3772 107.001 48.4005 104.447 49.5317C104.981 48.6115 105.177 47.987 105.376 46.7421C103.301 46.7301 102.455 47.5049 101.537 50.473C101.833 49.2756 101.716 48.6069 101.12 47.4305C99.7717 48.042 99.2061 48.8786 98.6009 51.5117C98.8397 50.1942 98.8247 49.6168 98.6009 48.7774C97.423 49.0062 96.8298 49.4653 96.1871 52.1106C96.0097 51.3627 95.8528 51.0016 95.3267 50.5706C94.5877 51.3459 94.413 52.3406 94.2757 54.5351C94.2017 53.6606 94.1009 53.0918 93.8543 52.6589C94.0231 52.5034 94.1609 52.3223 94.2757 52.1106C93.8793 51.2739 93.3067 51.0523 92.0067 50.8481C94.0486 50.4776 94.9723 50.1597 95.6916 49.1251C95.307 48.4787 94.857 48.2089 93.4568 47.948C95.7437 47.5117 96.8524 47.1447 97.8582 45.8326C97.2056 45.2467 96.6287 45.0635 95.3505 44.8943C98.227 44.6326 99.5632 44.3774 100.076 43.1883C99.4605 42.2645 98.8344 41.991 97.4147 41.8918C98.9702 40.2059 99.507 39.3079 99.5471 37.8486C98.0808 37.7083 97.2899 38.0906 95.9305 39.5205C95.8735 38.2445 95.6319 37.776 95.0604 37.115L95.0173 37.1536C94.1737 37.909 93.6901 38.342 93.4568 41.7389C93.2151 40.3978 92.9185 39.9262 92.1603 39.4181C91.4231 40.4353 91.1208 41.2514 91.3755 44.4678C91.0928 42.6815 90.6284 42.1531 89.4102 41.7389C88.9079 43.0477 88.7018 43.9136 89.6094 46.7421C89.2039 45.6458 88.6437 45.1409 87.4314 44.5769C87.0141 46.2347 87.0761 47.3119 88.1678 49.6874C87.4058 48.0356 86.8165 47.6032 85.4869 47.5026C85.2047 50.1386 85.7936 51.2128 87.7359 52.6772C85.8628 57.0947 85.1621 60.0692 84.1988 65.8049C84.18 65.9636 84.1622 66.118 84.1454 66.2687C84.1813 66.3028 84.2157 66.339 84.2486 66.3774L84.9075 67.146C84.9506 66.7985 85.1183 66.4655 85.405 66.2196C85.6282 66.0283 85.8927 65.9163 86.1639 65.881C86.1667 65.8558 86.1695 65.8304 86.1723 65.8049C86.9774 60.7613 87.6481 58.07 89.3966 53.6459C90.7215 53.5778 91.7045 53.4887 92.4418 53.3173C92.1602 54.1562 92.0968 55.2826 92.2724 57.3029C91.9616 55.8322 91.6607 55.184 90.9758 54.2608C90.2971 56.0868 90.1157 57.1928 91.5743 59.896C89.7548 61.7835 89.141 63.1533 88.3079 65.8049C88.1795 66.1879 88.0661 66.5494 87.9649 66.905H89.9576ZM92.4418 53.3173C93.0722 53.1708 93.523 52.9641 93.8543 52.6589C93.7007 52.3892 93.4905 52.1722 93.195 51.9669C92.866 52.4017 92.6134 52.8062 92.4418 53.3173ZM89.762 47.2052C89.713 47.0397 89.6625 46.8858 89.6094 46.7421C89.6571 46.8909 89.708 47.0452 89.762 47.2052ZM90.4287 48.9204C90.1245 48.6162 88.8971 49.6874 88.8971 49.6874C88.8971 49.6874 90.2904 47.9429 90.7329 48.3854C91.1754 48.8279 90.8064 50.473 90.8064 50.473C90.8064 50.473 90.7329 49.2246 90.4287 48.9204ZM92.4183 45.7043C92.0551 45.3412 90.5047 46.5574 90.5047 46.5574C90.5047 46.5574 92.4018 44.3968 93.0062 45.0012C93.6106 45.6055 92.4183 47.7908 92.4183 47.7908C92.4183 47.7908 92.7815 46.0675 92.4183 45.7043ZM94.3665 42.8801C93.9125 42.4261 92.1416 43.9867 92.1416 43.9867C92.1416 43.9867 93.6863 43.0645 94.0783 43.4565C94.4702 43.8484 94.4702 45.2778 94.4702 45.2778C94.4702 45.2778 94.8204 43.334 94.3665 42.8801ZM96.9025 40.0558C96.257 39.4103 93.9515 41.2547 93.9515 41.2547C93.9515 41.2547 95.8888 40.241 96.3492 40.7014C96.8096 41.1618 95.9305 42.8801 95.9305 42.8801C95.9305 42.8801 97.5481 40.7014 96.9025 40.0558ZM93.6851 56.3437C93.6851 56.3437 95.9309 54.7769 96.4793 55.3253C97.0277 55.8737 95.3267 57.9367 95.3267 57.9367C95.3267 57.9367 96.3748 56.3437 95.9048 55.8737C95.4347 55.4036 93.6851 56.3437 93.6851 56.3437ZM96.3207 54.0864C96.3207 54.0864 98.7983 52.6239 99.4701 53.2956C100.142 53.9674 97.9431 56.1587 97.9431 56.1587C97.9431 56.1587 99.181 54.2608 98.7748 53.8546C98.3685 53.4484 96.3207 54.0864 96.3207 54.0864ZM99.6064 51.9669C99.6064 51.9669 101.379 51.3072 101.856 52.1106C102.333 52.9139 101.038 54.0864 101.038 54.0864C101.038 54.0864 103.092 52.3358 102.742 51.5117C102.393 50.6876 99.6064 51.9669 99.6064 51.9669ZM102.333 50.5706C102.333 50.5706 104.757 49.6294 104.992 50.5706C105.228 51.5117 103.697 52.9139 103.697 52.9139C103.697 52.9139 104.67 51.6806 104.447 50.9643C104.223 50.2479 102.333 50.5706 102.333 50.5706Z" fill="black"/>
<path fill-rule="evenodd" clip-rule="evenodd" d="M82.7451 65.9238V65.8049L82.4783 49.0209C84.7458 48.1703 85.5237 47.1612 86.4879 44.887C85.6499 44.4079 85.1102 44.2594 83.3697 45.2917C85.3618 43.8031 86.0238 42.8594 86.4879 41.0102C85.4956 40.711 84.834 40.7954 83.8903 41.3851C85.7513 40.0821 86.3989 39.1429 86.4879 37.3663C85.4275 37.1747 84.8252 37.4633 83.6885 38.4139C85.9648 36.0161 86.6315 34.8111 86.4879 32.9937C85.5412 32.8231 84.8916 33.032 83.6885 33.9046C85.0343 32.027 85.5066 30.97 85.4649 29.0766C84.4315 28.9879 83.8582 29.2612 82.8687 30.0331C82.8687 29.7622 82.8695 29.5009 82.8704 29.2491C82.8793 26.5374 82.8846 24.9312 81.7697 24.3171C80.6546 24.9313 80.6599 26.538 80.6688 29.2507C80.6696 29.502 80.6705 29.7627 80.6705 30.0331C79.681 29.2612 79.1077 28.9879 78.0743 29.0766C78.0326 30.97 78.5048 32.027 79.8506 33.9046C78.6475 33.032 77.998 32.8231 77.0513 32.9937C76.9077 34.8111 77.5744 36.0161 79.8506 38.4139C78.7139 37.4633 78.1117 37.1747 77.0513 37.3663C77.1403 39.1429 77.7878 40.0821 79.6489 41.3851C78.7051 40.7954 78.0435 40.711 77.0513 41.0102C77.5154 42.8594 78.1774 43.8031 80.1695 45.2917C78.4289 44.2594 77.8893 44.4079 77.0513 44.887C78.0155 47.1612 78.7933 48.1703 81.0608 49.0209L80.794 65.8049V66.5935L81.7313 67.6867C81.5986 67.1666 81.7596 66.5926 82.1947 66.2196C82.3602 66.0778 82.5483 65.9795 82.7451 65.9238ZM79.6489 41.3851C79.8128 41.5 79.9862 41.6176 80.1695 41.7389C79.9853 41.6053 79.8128 41.4876 79.6489 41.3851ZM83.8903 41.3851C83.7263 41.4876 83.5539 41.6053 83.3697 41.7389C83.5529 41.6176 83.7263 41.5 83.8903 41.3851ZM82.566 43.9974C82.6527 44.1864 82.7452 44.3881 82.8687 44.5769C82.7921 44.3118 82.7309 44.0654 82.6752 43.8416C82.4655 42.9985 82.3354 42.4752 81.7694 42.4752C81.2036 42.4752 81.0736 42.9983 80.8641 43.841C80.8084 44.065 80.7471 44.3116 80.6705 44.5769C80.794 44.388 80.8865 44.1863 80.9732 43.9972C81.17 43.5678 81.337 43.2036 81.7694 43.2036C82.202 43.2036 82.369 43.5679 82.566 43.9974ZM82.4581 41.2426C82.5181 41.3946 82.5845 41.5627 82.6724 41.7389C82.6342 41.5247 82.6057 41.3159 82.5788 41.1186C82.469 40.3134 82.3855 39.7006 81.7687 39.7006C81.1528 39.7006 81.0697 40.3119 80.9606 41.1156C80.9337 41.3138 80.9052 41.5236 80.8667 41.7389C80.9548 41.5626 81.0211 41.3944 81.0812 41.2423C81.2488 40.8174 81.367 40.518 81.7694 40.518C82.172 40.518 82.2903 40.8176 82.4581 41.2426ZM82.7579 37.758L82.7582 37.7588L82.7587 37.7599C82.794 37.8368 82.8305 37.9162 82.8687 37.9976C82.7995 37.7589 82.7394 37.5294 82.683 37.3142C82.4445 36.4033 82.2733 35.7497 81.7694 35.7497C81.2657 35.7497 81.0947 36.403 80.8563 37.3134C80.7999 37.5288 80.7397 37.7587 80.6705 37.9976C80.7098 37.9138 80.7473 37.8321 80.7835 37.753C81.0808 37.1048 81.2961 36.6352 81.7687 36.6352C82.2425 36.6352 82.4591 37.107 82.7577 37.7577L82.7579 37.758ZM81.7687 32.9937C82.2586 33.198 82.4958 33.5165 82.8687 34.3419C82.6678 33.1309 82.5231 32.5952 81.7694 32.2075C81.0158 32.5952 80.8714 33.1309 80.6705 34.3419C81.0434 33.5165 81.2789 33.198 81.7687 32.9937Z" fill="black"/>
<path fill-rule="evenodd" clip-rule="evenodd" d="M79.2957 65.5396C78.355 59.9764 77.6472 57.0261 75.8033 52.6772C77.7455 51.2128 78.3345 50.1386 78.0523 47.5026C76.7226 47.6032 76.1333 48.0356 75.3714 49.6874C76.463 47.3119 76.5251 46.2347 76.1077 44.5769C74.8955 45.1409 74.3353 45.6458 73.9298 46.7421C74.8373 43.9136 74.6313 43.0477 74.129 41.7389C72.9107 42.1531 72.4464 42.6815 72.1636 44.4678C72.4184 41.2514 72.1161 40.4353 71.3789 39.4181C70.6206 39.9262 70.3241 40.3978 70.0823 41.7389C69.8491 38.342 69.3655 37.909 68.5218 37.1536L68.4787 37.115C67.9072 37.776 67.6657 38.2445 67.6087 39.5205C66.2493 38.0906 65.4584 37.7083 63.992 37.8486C64.0321 39.3079 64.569 40.2059 66.1245 41.8918C64.7048 41.991 64.0787 42.2645 63.4632 43.1883C63.976 44.3774 65.3122 44.6326 68.1887 44.8943C66.9105 45.0635 66.3336 45.2467 65.6809 45.8326C66.6868 47.1447 67.7955 47.5117 70.0823 47.948C68.6821 48.2089 68.2321 48.4787 67.8475 49.1251C68.5668 50.1597 69.4906 50.4776 71.5324 50.8481C70.2324 51.0523 69.6599 51.2739 69.2635 52.1106C69.3782 52.3223 69.516 52.5034 69.6849 52.6589C69.4383 53.0918 69.3374 53.6606 69.2635 54.5351C69.1261 52.3406 68.9515 51.3459 68.2124 50.5706C67.6863 51.0016 67.5294 51.3627 67.352 52.1106C66.7093 49.4653 66.1162 49.0062 64.9383 48.7774C64.7145 49.6168 64.6995 50.1942 64.9383 51.5117C64.3331 48.8786 63.7675 48.042 62.4195 47.4305C61.8235 48.6069 61.7058 49.2756 62.002 50.473C61.084 47.5049 60.2382 46.7301 58.1632 46.7421C58.3621 47.987 58.5578 48.6115 59.0926 49.5317C56.538 48.4005 55.6783 48.3772 54.6611 48.8717C54.8963 50.1377 55.7642 50.7843 58.3113 51.8484C56.8514 51.9801 56.4164 52.2446 55.7526 52.7661C56.6022 53.7232 57.6735 54.0288 61.106 53.9674C60.029 54.3437 59.4274 54.646 58.5468 55.3253C59.8661 56.6263 61.2141 56.737 64.5269 56.0043C62.9294 56.5441 62.2745 56.8759 61.3671 57.5189C62.3128 58.8136 63.3289 59.2321 67.0599 58.7723C65.5949 59.1748 64.9693 59.4831 64.3963 60.2347C66.2334 61.3054 67.5147 61.5243 70.3442 61.0442C71.739 62.581 72.382 63.6148 73.2489 65.8049C73.2618 65.8456 73.2745 65.8861 73.2872 65.9262C73.5508 66.0023 73.7958 66.1536 73.9877 66.3774L74.5525 67.0361C74.5405 66.6119 74.7132 66.1861 75.0605 65.8883C75.1116 65.8445 75.165 65.8048 75.2201 65.7692C74.3926 63.141 73.7761 61.775 71.9649 59.896C73.4234 57.1928 73.2421 56.0868 72.5633 54.2608C71.8784 55.184 71.5775 55.8322 71.2667 57.3029C71.4423 55.2826 71.3789 54.1562 71.0973 53.3173C71.8347 53.4887 72.8177 53.5778 74.1426 53.6459C75.8911 58.07 76.5618 60.7613 77.3669 65.8049C77.3918 66.0176 77.4148 66.2225 77.4358 66.421L77.7733 66.8147C77.8164 66.4672 77.9841 66.1341 78.2708 65.8883C78.5667 65.6347 78.935 65.5205 79.2957 65.5396ZM71.0973 53.3173C70.467 53.1708 70.0162 52.9641 69.6849 52.6589C69.8385 52.3892 70.0487 52.1722 70.3442 51.9669C70.6731 52.4017 70.9257 52.8062 71.0973 53.3173ZM73.7772 47.2052C73.8312 47.0452 73.882 46.8909 73.9298 46.7421C73.8766 46.8858 73.8261 47.0397 73.7772 47.2052ZM73.1105 48.9204C73.4147 48.6162 74.6421 49.6874 74.6421 49.6874C74.6421 49.6874 73.2487 47.9429 72.8062 48.3854C72.3638 48.8279 72.7328 50.473 72.7328 50.473C72.7328 50.473 72.8062 49.2246 73.1105 48.9204ZM71.1209 45.7043C71.484 45.3412 73.0344 46.5574 73.0344 46.5574C73.0344 46.5574 71.1373 44.3968 70.533 45.0012C69.9286 45.6055 71.1209 47.7908 71.1209 47.7908C71.1209 47.7908 70.7577 46.0675 71.1209 45.7043ZM69.1727 42.8801C69.6266 42.4261 71.3975 43.9867 71.3975 43.9867C71.3975 43.9867 69.8528 43.0645 69.4609 43.4565C69.0689 43.8484 69.0689 45.2778 69.0689 45.2778C69.0689 45.2778 68.7188 43.334 69.1727 42.8801ZM66.6366 40.0558C67.2822 39.4103 69.5877 41.2547 69.5877 41.2547C69.5877 41.2547 67.6504 40.241 67.19 40.7014C66.7296 41.1618 67.6087 42.8801 67.6087 42.8801C67.6087 42.8801 65.9911 40.7014 66.6366 40.0558ZM69.8541 56.3437C69.8541 56.3437 67.6083 54.7769 67.0599 55.3253C66.5115 55.8737 68.2124 57.9367 68.2124 57.9367C68.2124 57.9367 67.1644 56.3437 67.6344 55.8737C68.1044 55.4036 69.8541 56.3437 69.8541 56.3437ZM67.2185 54.0864C67.2185 54.0864 64.7408 52.6239 64.0691 53.2956C63.3973 53.9674 65.5961 56.1587 65.5961 56.1587C65.5961 56.1587 64.3582 54.2608 64.7644 53.8546C65.1706 53.4484 67.2185 54.0864 67.2185 54.0864ZM63.9327 51.9669C63.9327 51.9669 62.1604 51.3072 61.6832 52.1106C61.206 52.9139 62.5012 54.0864 62.5012 54.0864C62.5012 54.0864 60.4474 52.3358 60.797 51.5117C61.1466 50.6876 63.9327 51.9669 63.9327 51.9669ZM61.206 50.5706C61.206 50.5706 58.7823 49.6294 58.5468 50.5706C58.3113 51.5117 59.8426 52.9139 59.8426 52.9139C59.8426 52.9139 58.869 51.6806 59.0926 50.9643C59.3162 50.2479 61.206 50.5706 61.206 50.5706Z" fill="black"/>
<path d="M77.5939 71.0814C77.5787 71.48 77.5578 71.9016 77.532 72.3591C77.2879 79.0493 76.9658 82.4238 74.913 85.2987L77.2259 88.7C78.5404 86.68 78.9181 81.6073 79.4984 73.8116C79.5337 73.3375 79.5697 72.8533 79.6068 72.3591C79.6101 72.2854 79.6134 72.2126 79.6165 72.1407C79.087 72.2905 78.4949 72.1323 78.1132 71.6871L77.5939 71.0814Z" fill="black"/>
<path d="M74.3325 71.2556L74.9427 71.9673C75.3155 72.4021 75.8889 72.5632 76.4088 72.431C76.3819 78.4932 75.6747 81.8452 74.1647 84.1082L72.8042 82.0334C74.298 79.7623 74.4286 77.1956 74.3688 72.0676C74.3594 71.783 74.3474 71.5134 74.3325 71.2556Z" fill="black"/>
<path d="M72.0219 80.8769C72.0219 80.8769 71.3756 74.1424 69.0287 74.1424C67.5662 74.1424 67.3961 77.0337 68.2124 78.1559C66.0016 79.6187 64.6751 69.6527 68.2124 69.6527C72.294 69.6527 74.5729 80.8769 72.0219 80.8769Z" fill="black"/>
<path d="M91.5173 80.8769C91.5173 80.8769 92.1635 74.1424 94.5104 74.1424C95.973 74.1424 96.143 77.0337 95.3267 78.1559C97.5376 79.6187 98.8641 69.6527 95.3267 69.6527C91.2452 69.6527 88.9663 80.8769 91.5173 80.8769Z" fill="black"/>
</svg>
