<svg width="164" height="124" viewBox="0 0 164 124" fill="none" xmlns="http://www.w3.org/2000/svg">
<path d="M0.876953 22C0.876953 9.84974 10.7199 0 22.8618 0H141.78C153.922 0 163.765 9.84974 163.765 22V102C163.765 114.15 153.922 124 141.78 124H22.8618C10.7199 124 0.876953 114.15 0.876953 102V22Z" fill="#C5A869"/>
<path fill-rule="evenodd" clip-rule="evenodd" d="M141.78 11H22.8618C16.7908 11 11.8694 15.9249 11.8694 22V102C11.8694 108.075 16.7908 113 22.8618 113H141.78C147.851 113 152.772 108.075 152.772 102V22C152.772 15.9249 147.851 11 141.78 11ZM22.8618 0C10.7199 0 0.876953 9.84974 0.876953 22V102C0.876953 114.15 10.7199 124 22.8618 124H141.78C153.922 124 163.765 114.15 163.765 102V22C163.765 9.84974 153.922 0 141.78 0H22.8618Z" fill="#A68C55"/>
<path d="M90.2325 56.0729L91.9278 53.4357H127.549L126.117 56.0729H90.2325Z" fill="black"/>
<path fill-rule="evenodd" clip-rule="evenodd" d="M74.4093 56.0729L72.8924 53.7134L70.1521 55.1514L70.5092 53.4357H37.0928L38.5244 56.0729H74.4093ZM108.297 68.9952H90.7701L91.1792 66.2261H109.88L108.297 68.9952ZM75.9181 68.9952H56.3444L54.7621 66.2261H74.1041C74.4981 67.2708 75.1275 68.2 75.9276 68.9491L75.9181 68.9952ZM73.8073 62.1384C73.6992 62.6352 73.6422 63.1511 73.6422 63.6803C73.6422 64.0527 73.6704 64.4185 73.7248 64.7757H49.8832L48.4516 62.1384H73.8073ZM75.6084 58.7294L75.0874 57.9189H44.0814L45.513 60.5561H74.3517C74.6757 59.8825 75.1012 59.267 75.6084 58.7294ZM87.859 60.5561L89.5544 57.9189H120.56L119.129 60.5561H92.0171L92.1676 59.5375L91.2917 60.5561H87.859Z" fill="black"/>
<path d="M114.759 64.7757L116.19 62.1384H91.7833L91.3936 64.7757H114.759Z" fill="black"/>
<path fill-rule="evenodd" clip-rule="evenodd" d="M80.8578 60.4996C80.1836 60.4996 79.5583 60.7094 79.0438 61.0672C78.2178 61.6417 77.6771 62.5978 77.6771 63.6803C77.6771 64.2999 77.8543 64.8781 78.1607 65.3671C78.7231 66.2643 79.7208 66.8609 80.8578 66.8609C81.5925 66.8609 82.269 66.6119 82.8074 66.1935C83.5565 65.6116 84.0385 64.7022 84.0385 63.6803C84.0385 63.0941 83.8799 62.5449 83.6033 62.0733C83.051 61.1318 82.0282 60.4996 80.8578 60.4996ZM75.109 63.6803C75.109 60.5053 77.6828 57.9315 80.8578 57.9315C84.0327 57.9315 86.6065 60.5053 86.6065 63.6803C86.6065 66.8552 84.0327 69.429 80.8578 69.429C77.6828 69.429 75.109 66.8552 75.109 63.6803Z" fill="black"/>
<path fill-rule="evenodd" clip-rule="evenodd" d="M74.3211 20.0518C74.3211 20.0518 77.1798 28.206 76.1354 33.414C75.091 38.622 72.2214 52.4079 72.2214 52.4079L81.8612 47.3493L79.0438 61.0672C79.5583 60.7094 80.1836 60.4996 80.8578 60.4996C82.0282 60.4996 83.051 61.1318 83.6033 62.0733L88.7333 35.514L78.4251 43.9132L80.7159 33.414C81.8612 27.0501 87.8743 21.9606 87.8743 21.9606C83.5962 22.1687 81.6465 22.8581 79.7614 26.1602C78.6728 22.9083 77.0261 21.6308 74.3211 20.0518ZM82.8074 66.1935C82.269 66.6119 81.5925 66.8609 80.8578 66.8609C79.7208 66.8609 78.7231 66.2643 78.1607 65.3671L73.8437 86.3867L82.8157 78.5601L81.8612 92.1135L78.4251 89.7273L81.8612 103.949L91.3104 90.6818L85.8699 92.1135L89.9741 64.3387L81.1931 74.5514L82.8074 66.1935Z" fill="black"/>
</svg>
