<svg width="163" height="124" viewBox="0 0 163 124" fill="none" xmlns="http://www.w3.org/2000/svg">
<path d="M0.101562 22C0.101562 9.84974 9.94451 0 22.0864 0H141.004C153.146 0 162.989 9.84974 162.989 22V102C162.989 114.15 153.146 124 141.004 124H22.0864C9.94451 124 0.101562 114.15 0.101562 102V22Z" fill="#C5A869"/>
<path fill-rule="evenodd" clip-rule="evenodd" d="M141.004 11H22.0864C16.0154 11 11.094 15.9249 11.094 22V102C11.094 108.075 16.0154 113 22.0864 113H141.004C147.075 113 151.997 108.075 151.997 102V22C151.997 15.9249 147.075 11 141.004 11ZM22.0864 0C9.94451 0 0.101562 9.84974 0.101562 22V102C0.101562 114.15 9.94451 124 22.0864 124H141.004C153.146 124 162.989 114.15 162.989 102V22C162.989 9.84974 153.146 0 141.004 0H22.0864Z" fill="#A68C55"/>
<path d="M58.9012 63.3085H58.9016V70.9489C58.9016 87.7306 72.5059 101.335 89.2876 101.335C106.069 101.335 119.674 87.7306 119.674 70.9489H109.585C109.585 82.1587 100.497 91.246 89.2876 91.246C78.0778 91.246 68.9904 82.1587 68.9904 70.9489H68.99V22.6636L58.9016 36.3969V40.5629V50.6517V53.2197H58.9012V63.3085Z" fill="black"/>
<path d="M81.6468 36.3969L71.5584 22.6636V70.9489C71.5584 80.7404 79.496 88.678 89.2876 88.678C99.0791 88.678 107.017 80.7404 107.017 70.9489C107.017 61.1573 99.0791 53.2197 89.2876 53.2197H83.1143V63.3085H89.2876C93.5072 63.3085 96.9279 66.7292 96.9279 70.9489C96.9279 75.1685 93.5072 78.5892 89.2876 78.5892C85.0679 78.5892 81.6472 75.1685 81.6472 70.9489H81.6468V36.3969Z" fill="black"/>
<path d="M57.4338 53.2197V63.3085H43.417V53.2197H57.4338Z" fill="black"/>
</svg>
