<svg width="163" height="124" viewBox="0 0 163 124" fill="none" xmlns="http://www.w3.org/2000/svg">
<path d="M0 22C0 9.84974 9.84294 0 21.9848 0H140.903C153.045 0 162.888 9.84974 162.888 22V102C162.888 114.15 153.045 124 140.903 124H21.9848C9.84295 124 0 114.15 0 102V22Z" fill="#C5A869"/>
<path fill-rule="evenodd" clip-rule="evenodd" d="M140.903 11H21.9848C15.9139 11 10.9924 15.9249 10.9924 22V102C10.9924 108.075 15.9139 113 21.9848 113H140.903C146.974 113 151.895 108.075 151.895 102V22C151.895 15.9249 146.974 11 140.903 11ZM21.9848 0C9.84294 0 0 9.84974 0 22V102C0 114.15 9.84295 124 21.9848 124H140.903C153.045 124 162.888 114.15 162.888 102V22C162.888 9.84974 153.045 0 140.903 0H21.9848Z" fill="#A68C55"/>
<path d="M108.109 22.0979L110.768 24.2503C108.028 27.8784 107.633 29.4034 108.457 31.5108L77.6946 69.3461C77.6946 69.3461 79.8309 74.2831 78.2168 76.5143C76.6028 78.7455 73.2323 77.6062 70.0516 82.5433C67.5438 86.0201 68.8144 92.1111 67.2508 98.5889C66.5862 101.342 64.7822 102.766 62.9783 101.342L52.1492 92.1111L67.5735 72.8134C72.1879 74.8053 73.707 72.0045 71.2025 68.273L108.109 22.0979Z" fill="black"/>
<path fill-rule="evenodd" clip-rule="evenodd" d="M82.3494 65.8128L85.2221 69.3461C85.2221 69.3461 83.0859 74.2831 84.6999 76.5143C85.3407 77.4002 86.2584 77.7547 87.3311 78.1692C88.9604 78.7986 90.9473 79.5663 92.8651 82.5433C94.3283 84.5718 94.5053 87.4903 94.7094 90.8563C94.8551 93.2594 95.0147 95.8906 95.666 98.5889C96.3306 101.342 98.1345 102.766 99.9385 101.342L110.768 92.1111L95.3433 72.8134C90.7289 74.8053 89.2098 72.0045 91.7142 68.273L86.0802 61.2241L82.3494 65.8128ZM80.5734 54.3345L54.8073 22.0979L52.1492 24.2503C54.8886 27.8784 55.2842 29.4034 54.4602 31.5108L76.8274 59.0211L80.5734 54.3345Z" fill="black"/>
<path fill-rule="evenodd" clip-rule="evenodd" d="M81.4421 78.4647C80.462 78.4647 79.437 78.4133 78.3724 78.3107C78.717 78.0486 79.0456 77.7285 79.3375 77.3248C79.9644 76.4582 80.1668 75.4218 80.1984 74.5006C80.2214 73.8325 80.157 73.1561 80.0526 72.5251C80.5101 72.5671 80.9736 72.5885 81.4421 72.5885C81.9222 72.5885 82.397 72.566 82.8656 72.522C82.7609 73.1539 82.6962 73.8314 82.7192 74.5006C82.7509 75.4218 82.9532 76.4582 83.5801 77.3248C83.8685 77.7234 84.197 78.0437 84.5434 78.3076C83.4674 78.4123 82.4318 78.4647 81.4421 78.4647ZM98.628 74.708C106.519 71.6213 115.085 66.6391 123.089 59.7854L125.565 57.6653L123.2 55.4221C117.067 49.6042 109.349 44.9558 101.914 41.7501L94.7531 50.5575C95.8539 52.6472 96.4769 55.0276 96.4769 57.5537C96.4769 61.3246 95.0886 64.7713 92.7953 67.4105L93.4277 68.2018L92.8627 69.0436C92.3101 69.867 92.0311 70.5652 91.9365 71.0845C91.8407 71.6107 91.9492 71.8352 91.9917 71.8957C92.0128 71.9259 92.1142 72.0648 92.5526 72.0885C93.0176 72.1137 93.7569 71.9925 94.7957 71.5441L95.7648 71.1258L98.628 74.708ZM93.1611 38.5863L88.5791 44.319C86.4557 43.1719 84.025 42.5208 81.4421 42.5208C78.8685 42.5208 76.4462 43.1672 74.3286 44.3065L69.7503 38.5784C74.0658 37.3296 78.1036 36.6446 81.4421 36.6446C84.7874 36.6446 88.8352 37.3325 93.1611 38.5863ZM60.9951 41.7396C53.5537 44.9455 45.8267 49.5974 39.6871 55.4214L37.3223 57.6646L39.7981 59.7847C47.81 66.6455 56.3853 71.6313 64.2821 74.7174L67.1529 71.1258L68.1219 71.5441C69.1608 71.9925 69.9 72.1137 70.365 72.0885C70.8034 72.0648 70.9049 71.9259 70.926 71.8957C70.9685 71.8352 71.0769 71.6107 70.9811 71.0845C70.8866 70.5652 70.6076 69.867 70.055 69.0436L69.49 68.2018L70.1073 67.4295C67.8046 64.7877 66.4101 61.3334 66.4101 57.553C66.4101 55.0176 67.0374 52.629 68.1454 50.534L60.9951 41.7396ZM63.2828 67.9254C57.7995 65.4612 51.9458 61.995 46.2259 57.4671C51.31 53.2232 57.3596 49.7057 63.305 47.1428C61.5421 50.208 60.5339 53.7626 60.5339 57.553C60.5339 61.3274 61.5336 64.8684 63.2828 67.9254ZM99.6038 67.9253C105.087 65.4612 110.941 61.9953 116.661 57.4678C111.577 53.224 105.527 49.7065 99.5814 47.1435C101.345 50.2087 102.353 53.7633 102.353 57.5537C102.353 61.3279 101.353 64.8686 99.6038 67.9253Z" fill="black"/>
</svg>
