<svg width="164" height="124" viewBox="0 0 164 124" fill="none" xmlns="http://www.w3.org/2000/svg">
<path d="M0.663086 22C0.663086 9.84974 10.506 0 22.6479 0H141.566C153.708 0 163.551 9.84974 163.551 22V102C163.551 114.15 153.708 124 141.566 124H22.6479C10.506 124 0.663086 114.15 0.663086 102V22Z" fill="#C5A869"/>
<path fill-rule="evenodd" clip-rule="evenodd" d="M141.566 11H22.6479C16.577 11 11.6555 15.9249 11.6555 22V102C11.6555 108.075 16.577 113 22.6479 113H141.566C147.637 113 152.558 108.075 152.558 102V22C152.558 15.9249 147.637 11 141.566 11ZM22.6479 0C10.506 0 0.663086 9.84974 0.663086 22V102C0.663086 114.15 10.506 124 22.6479 124H141.566C153.708 124 163.551 114.15 163.551 102V22C163.551 9.84974 153.708 0 141.566 0H22.6479Z" fill="#A68C55"/>
<path fill-rule="evenodd" clip-rule="evenodd" d="M72.9088 81.6449L72.9117 81.6965L72.934 81.666L72.9088 81.6449Z" fill="black"/>
<path d="M117.237 39.7939L118.895 21.5117L103.755 25.4807L108.003 30.2212L100.805 39.6393V29.3258L78.3264 60.3993V54.1124L45.3184 98.3983L47.812 102.488L72.4749 74.1473L72.9088 81.6449L72.934 81.666L94.5103 52.0486L95.07 60.8721L112.912 35.0623L117.237 39.7939Z" fill="black"/>
</svg>
