<svg width="164" height="124" viewBox="0 0 164 124" fill="none" xmlns="http://www.w3.org/2000/svg">
<path d="M0.763672 22C0.763672 9.84974 10.6066 0 22.7485 0H141.666C153.808 0 163.651 9.84974 163.651 22V102C163.651 114.15 153.808 124 141.666 124H22.7485C10.6066 124 0.763672 114.15 0.763672 102V22Z" fill="#C5A869"/>
<path fill-rule="evenodd" clip-rule="evenodd" d="M141.666 11H22.7485C16.6776 11 11.7561 15.9249 11.7561 22V102C11.7561 108.075 16.6776 113 22.7485 113H141.666C147.737 113 152.659 108.075 152.659 102V22C152.659 15.9249 147.737 11 141.666 11ZM22.7485 0C10.6066 0 0.763672 9.84974 0.763672 22V102C0.763672 114.15 10.6066 124 22.7485 124H141.666C153.808 124 163.651 114.15 163.651 102V22C163.651 9.84974 153.808 0 141.666 0H22.7485Z" fill="#A68C55"/>
<path fill-rule="evenodd" clip-rule="evenodd" d="M60.1075 69.8001C63.5328 49.6452 78.4675 33.4099 97.9118 28.094L96.1019 22.7676C75.5802 28.5078 59.6527 45.2498 55.0801 66.233L60.1075 69.8001ZM69.611 76.543C70.5286 57.8138 83.6555 42.2931 101.201 37.7721L99.3891 32.4413C80.81 37.4045 66.6868 53.2765 64.3013 72.7757L69.611 76.543Z" fill="black"/>
<path d="M104.78 48.3058L102.965 42.9648C86.9236 46.9068 75.7643 60.5143 74.2553 77.8736C74.2553 78.4674 74.2694 79.0578 74.2972 79.6447L79.2544 82.5787C80.615 64.241 91.381 51.6412 104.78 48.3058Z" fill="black"/>
<path d="M102.815 59.9045H109.335C108.353 74.4486 97.7935 86.3666 83.9119 89.4047L82.498 83.0576C93.4672 80.6649 101.846 71.3405 102.815 59.9045Z" fill="black"/>
<path d="M90.2857 88.5853V95.7227H83.4307V101.233H104.081V95.7227H97.1316V84.6062C95.0273 86.1871 92.7317 87.5271 90.2857 88.5853Z" fill="black"/>
</svg>
