<svg width="164" height="124" viewBox="0 0 164 124" fill="none" xmlns="http://www.w3.org/2000/svg">
<path d="M0.662109 22C0.662109 9.84974 10.5051 0 22.6469 0H141.565C153.707 0 163.55 9.84974 163.55 22V102C163.55 114.15 153.707 124 141.565 124H22.6469C10.5051 124 0.662109 114.15 0.662109 102V22Z" fill="#C5A869"/>
<path fill-rule="evenodd" clip-rule="evenodd" d="M141.565 11H22.6469C16.576 11 11.6545 15.9249 11.6545 22V102C11.6545 108.075 16.576 113 22.6469 113H141.565C147.636 113 152.557 108.075 152.557 102V22C152.557 15.9249 147.636 11 141.565 11ZM22.6469 0C10.5051 0 0.662109 9.84974 0.662109 22V102C0.662109 114.15 10.5051 124 22.6469 124H141.565C153.707 124 163.55 114.15 163.55 102V22C163.55 9.84974 153.707 0 141.565 0H22.6469Z" fill="#A68C55"/>
<path fill-rule="evenodd" clip-rule="evenodd" d="M82.1057 87.7512L58.5231 20.1021H48.0332L77.2444 103.898H86.967L116.178 20.1022H105.688L82.1057 87.7512Z" fill="black"/>
</svg>
