<svg width="164" height="124" viewBox="0 0 164 124" fill="none" xmlns="http://www.w3.org/2000/svg">
<path d="M0.887695 22C0.887695 9.84974 10.7306 0 22.8725 0H141.79C153.932 0 163.775 9.84974 163.775 22V102C163.775 114.15 153.932 124 141.79 124H22.8725C10.7306 124 0.887695 114.15 0.887695 102V22Z" fill="#C5A869"/>
<path fill-rule="evenodd" clip-rule="evenodd" d="M141.79 11H22.8725C16.8016 11 11.8801 15.9249 11.8801 22V102C11.8801 108.075 16.8016 113 22.8725 113H141.79C147.861 113 152.783 108.075 152.783 102V22C152.783 15.9249 147.861 11 141.79 11ZM22.8725 0C10.7306 0 0.887695 9.84974 0.887695 22V102C0.887695 114.15 10.7306 124 22.8725 124H141.79C153.932 124 163.775 114.15 163.775 102V22C163.775 9.84974 153.932 0 141.79 0H22.8725Z" fill="#A68C55"/>
<path fill-rule="evenodd" clip-rule="evenodd" d="M106.344 67.8543H97.186C96.4627 75.8974 89.5895 82.0883 81.4082 81.8545C73.5257 81.6292 67.1962 75.5191 66.5092 67.8543H57.3513L51.2926 71.1214C51.5797 73.016 52.0396 74.8559 52.6559 76.6241L59.4484 76.4804C59.9314 77.5574 60.4899 78.5939 61.1174 79.5829L57.6946 85.7354C58.8091 87.1301 60.0422 88.4269 61.3793 89.6101L67.7142 86.5137C69.3672 87.6807 71.1722 88.6492 73.0955 89.3834L73.2709 96.1534C74.9747 96.6442 76.7403 96.9929 78.5546 97.1854L81.1481 90.9809C82.2247 91.0116 83.2849 90.9838 84.3287 90.879L88.109 96.7373C89.8746 96.3736 91.5868 95.8588 93.2309 95.2066L92.8288 88.4126C94.0581 87.7961 95.2291 87.0792 96.3309 86.2723L102.117 89.7955C103.519 88.5771 104.81 87.2339 105.974 85.7826L102.191 80.1882C102.874 79.1771 103.484 78.1118 104.014 76.9996L110.839 77.1947C111.463 75.5089 111.944 73.7524 112.268 71.9396L106.281 68.7159C106.307 68.4301 106.328 68.1429 106.344 67.8543Z" fill="black"/>
<path d="M69.3678 58.9284C69.3678 61.7405 67.0882 64.0201 64.2762 64.0201C61.4641 64.0201 59.1845 61.7405 59.1845 58.9284C59.1845 57.473 59.7951 56.1602 60.7742 55.2323H57.2316C56.4414 57.02 54.6526 58.2674 52.5723 58.2674C49.7603 58.2674 47.4807 55.9878 47.4807 53.1758C47.4807 52.0024 47.8776 50.9218 48.5444 50.0607L46.863 49.0593H44.8338C44.8338 57.8708 53.9626 65.9123 59.6583 65.9123H130.504L143.612 55.2323L141.505 49.7614L138.739 51.0226C139.452 51.8987 139.879 53.0163 139.879 54.2337C139.879 57.0458 137.599 59.3254 134.787 59.3254C132.274 59.3254 130.187 57.5051 129.771 55.1113L129.505 55.2323H124.47C125.449 56.1602 126.06 57.473 126.06 58.9284C126.06 61.7405 123.78 64.0201 120.968 64.0201C118.156 64.0201 115.876 61.7405 115.876 58.9284C115.876 57.473 116.487 56.1602 117.466 55.2323H110.297C111.276 56.1602 111.887 57.473 111.887 58.9284C111.887 61.7405 109.607 64.0201 106.795 64.0201C103.983 64.0201 101.703 61.7405 101.703 58.9284C101.703 57.473 102.314 56.1602 103.293 55.2323H96.1241C97.1032 56.1602 97.7138 57.473 97.7138 58.9284C97.7138 61.7405 95.4342 64.0201 92.6221 64.0201C89.8101 64.0201 87.5305 61.7405 87.5305 58.9284C87.5305 57.473 88.1411 56.1602 89.1202 55.2323H81.9511C82.9302 56.1602 83.5408 57.473 83.5408 58.9284C83.5408 61.7405 81.2612 64.0201 78.4492 64.0201C75.6371 64.0201 73.3575 61.7405 73.3575 58.9284C73.3575 57.473 73.9681 56.1602 74.9472 55.2323H67.7781C68.7572 56.1602 69.3678 57.473 69.3678 58.9284Z" fill="black"/>
<path d="M52.5723 56.8129C54.1206 56.8129 55.443 55.8454 55.9678 54.4821L49.8072 50.8129C49.2636 51.4485 48.9352 52.2738 48.9352 53.1758C48.9352 55.1845 50.5636 56.8129 52.5723 56.8129Z" fill="black"/>
<path d="M67.9133 58.9284C67.9133 60.9372 66.2849 62.5655 64.2762 62.5655C62.2674 62.5655 60.6391 60.9372 60.6391 58.9284C60.6391 56.9197 62.2674 55.2913 64.2762 55.2913C66.2849 55.2913 67.9133 56.9197 67.9133 58.9284Z" fill="black"/>
<path d="M82.0863 58.9284C82.0863 60.9372 80.4579 62.5655 78.4492 62.5655C76.4404 62.5655 74.812 60.9372 74.812 58.9284C74.812 56.9197 76.4404 55.2913 78.4492 55.2913C80.4579 55.2913 82.0863 56.9197 82.0863 58.9284Z" fill="black"/>
<path d="M96.2592 58.9284C96.2592 60.9372 94.6309 62.5655 92.6221 62.5655C90.6134 62.5655 88.985 60.9372 88.985 58.9284C88.985 56.9197 90.6134 55.2913 92.6221 55.2913C94.6309 55.2913 96.2592 56.9197 96.2592 58.9284Z" fill="black"/>
<path d="M110.432 58.9284C110.432 60.9372 108.804 62.5655 106.795 62.5655C104.786 62.5655 103.158 60.9372 103.158 58.9284C103.158 56.9197 104.786 55.2913 106.795 55.2913C108.804 55.2913 110.432 56.9197 110.432 58.9284Z" fill="black"/>
<path d="M124.605 58.9284C124.605 60.9372 122.977 62.5655 120.968 62.5655C118.959 62.5655 117.331 60.9372 117.331 58.9284C117.331 56.9197 118.959 55.2913 120.968 55.2913C122.977 55.2913 124.605 56.9197 124.605 58.9284Z" fill="black"/>
<path d="M134.787 57.8708C136.796 57.8708 138.424 56.2424 138.424 54.2337C138.424 53.2258 138.014 52.3136 137.352 51.6549L131.158 54.4788C131.284 56.3732 132.861 57.8708 134.787 57.8708Z" fill="black"/>
<path d="M47.6373 48.3387H55.5814V52.7117L47.6373 48.3387Z" fill="black"/>
<path d="M56.9662 48.3387V52.7117H63.4747V48.3387H56.9662Z" fill="black"/>
<path d="M64.9103 48.3387V52.7117H72.7815V48.3387H64.9103Z" fill="black"/>
<path d="M74.4578 48.3387V52.7117H129.338L141.416 48.3387H74.4578Z" fill="black"/>
<path d="M21.0479 32.6966H45.0803L45.588 31.4196H51.0638V32.6966H65.5647L88.3808 26.8149H122.149V37.2597H108.358V39.6934H141.416V47.096H45.588L65.5647 40.6061L63.4747 37.5732H21.0479V32.6966Z" fill="black"/>
</svg>
