<svg width="164" height="124" viewBox="0 0 164 124" fill="none" xmlns="http://www.w3.org/2000/svg">
<path d="M0.775391 22C0.775391 9.84974 10.6183 0 22.7602 0H141.678C153.82 0 163.663 9.84974 163.663 22V102C163.663 114.15 153.82 124 141.678 124H22.7602C10.6183 124 0.775391 114.15 0.775391 102V22Z" fill="#C5A869"/>
<path fill-rule="evenodd" clip-rule="evenodd" d="M141.678 11H22.7602C16.6893 11 11.7678 15.9249 11.7678 22V102C11.7678 108.075 16.6893 113 22.7602 113H141.678C147.749 113 152.671 108.075 152.671 102V22C152.671 15.9249 147.749 11 141.678 11ZM22.7602 0C10.6183 0 0.775391 9.84974 0.775391 22V102C0.775391 114.15 10.6183 124 22.7602 124H141.678C153.82 124 163.663 114.15 163.663 102V22C163.663 9.84974 153.82 0 141.678 0H22.7602Z" fill="#A68C55"/>
<path d="M114.751 66.7928L124.73 73.3623L128.396 67.794L114.751 66.7928Z" fill="black"/>
<path d="M93.9239 53.0825L78.1592 42.7045L97.9228 47.008L93.9239 53.0825Z" fill="black"/>
<path d="M108.606 76.1272L118.585 82.6967L114.92 88.265L108.606 76.1272Z" fill="black"/>
<path d="M87.779 62.4169L72.0143 52.0389L83.7801 68.4913L87.779 62.4169Z" fill="black"/>
<path d="M126.671 76.8876L64.1912 35.7571C57.4725 31.3342 36.041 21.6682 36.041 21.6682C36.041 21.6682 52.7594 37.1156 60.111 41.9551L122.59 83.0856L126.671 76.8876Z" fill="black"/>
<path d="M122.59 90.9919L123.793 102.332H39.3319L37.914 90.9919H122.59Z" fill="black"/>
</svg>
