<svg width="164" height="124" viewBox="0 0 164 124" fill="none" xmlns="http://www.w3.org/2000/svg">
<path d="M0.662109 22C0.662109 9.84974 10.5051 0 22.6469 0H141.565C153.707 0 163.55 9.84974 163.55 22V102C163.55 114.15 153.707 124 141.565 124H22.6469C10.5051 124 0.662109 114.15 0.662109 102V22Z" fill="#C5A869"/>
<path fill-rule="evenodd" clip-rule="evenodd" d="M141.565 11H22.6469C16.576 11 11.6545 15.9249 11.6545 22V102C11.6545 108.075 16.576 113 22.6469 113H141.565C147.636 113 152.557 108.075 152.557 102V22C152.557 15.9249 147.636 11 141.565 11ZM22.6469 0C10.5051 0 0.662109 9.84974 0.662109 22V102C0.662109 114.15 10.5051 124 22.6469 124H141.565C153.707 124 163.55 114.15 163.55 102V22C163.55 9.84974 153.707 0 141.565 0H22.6469Z" fill="#A68C55"/>
<path d="M116.521 77.9657L126.5 84.5352L130.166 78.967L116.521 77.9657Z" fill="black"/>
<path d="M95.6942 64.2554L79.9295 53.8774L99.6931 58.1809L95.6942 64.2554Z" fill="black"/>
<path d="M110.376 87.3001L120.356 93.8696L116.69 99.4379L110.376 87.3001Z" fill="black"/>
<path d="M89.5493 73.5898L73.7846 63.2118L85.5504 79.6643L89.5493 73.5898Z" fill="black"/>
<path d="M126.401 91.1598L128.441 88.0605L65.9615 46.93C59.2428 42.5071 37.8113 32.8411 37.8113 32.8411C37.8113 32.8411 54.5297 48.2885 61.8813 53.128L124.361 94.2585L126.401 91.1598Z" fill="black"/>
</svg>
