<svg width="164" height="124" viewBox="0 0 164 124" fill="none" xmlns="http://www.w3.org/2000/svg">
<path d="M0.550781 22C0.550781 9.84974 10.3937 0 22.5356 0H141.454C153.595 0 163.438 9.84974 163.438 22V102C163.438 114.15 153.595 124 141.454 124H22.5356C10.3937 124 0.550781 114.15 0.550781 102V22Z" fill="#C5A869"/>
<path fill-rule="evenodd" clip-rule="evenodd" d="M141.454 11H22.5356C16.4647 11 11.5432 15.9249 11.5432 22V102C11.5432 108.075 16.4647 113 22.5356 113H141.454C147.524 113 152.446 108.075 152.446 102V22C152.446 15.9249 147.524 11 141.454 11ZM22.5356 0C10.3937 0 0.550781 9.84974 0.550781 22V102C0.550781 114.15 10.3937 124 22.5356 124H141.454C153.595 124 163.438 114.15 163.438 102V22C163.438 9.84974 153.595 0 141.454 0H22.5356Z" fill="#A68C55"/>
<path fill-rule="evenodd" clip-rule="evenodd" d="M69.6958 80.3224L67.014 78.6157L77.0371 63.9307L71.341 55.5852L73.6697 53.361L78.9605 61.1127L84.2513 53.361L86.5799 55.5852L80.8839 63.9307L90.907 78.6157L88.2251 80.3224L78.9605 66.7486L69.6958 80.3224ZM87.0436 54.9059L84.7152 52.6813C84.293 52.3204 83.8385 51.9461 83.349 51.5532L85.5433 48.8714C85.9562 49.1751 86.3516 49.4581 86.7359 49.7208L89.4987 51.3089C91.4586 52.1755 93.5567 52.4868 96.7584 52.2847C96.2708 56.6732 94.0765 59.5988 89.9318 60.8179C89.4397 58.359 88.6159 56.6571 87.0436 54.9059ZM89.9133 50.7015L90.6632 49.6028L87.9813 47.8961L87.142 49.1259L89.9133 50.7015ZM67.9892 60.8179C68.4813 58.359 69.3051 56.6571 70.8774 54.9059L73.2057 52.6813C73.628 52.3204 74.0825 51.9461 74.572 51.5532L72.3777 48.8714C71.9648 49.1751 71.5694 49.4581 71.1851 49.7208L68.4222 51.3089C66.4624 52.1755 64.3643 52.4868 61.1626 52.2847C61.6502 56.6732 63.8445 59.5988 67.9892 60.8179ZM67.2578 49.6028L67.9431 50.6069L70.744 49.0746L69.9397 47.8961L67.2578 49.6028Z" fill="black"/>
<path fill-rule="evenodd" clip-rule="evenodd" d="M67.7725 22.2415H105.209V24.8095H68.4342L51.6851 34.0541H105.209V36.6222H47.5535L44.8846 42.9485H105.209V45.5165H58.1231L42.3664 83.7448H66.5752V86.3129H38.5303L55.3455 45.5165H41.014L45.6915 34.4291L67.7725 22.2415ZM105.48 49.5346L107.297 51.3499L104.652 53.996V58.5604H112.538V63.1745L113.129 63.7652H117.601L121.824 59.539L125.457 63.1745V75.8225L122.86 78.4218H118.943L117.601 77.0786H116.397V79.0438H118.411V85.8963L114.778 89.5317L111.312 86.0642V84.466H110.444L108.598 86.3129H102.836L99.232 82.7062V80.4365H98.7799V87.0715L92.4041 93.4516V101.759H85.1381V95.8021L82.2579 92.92L83.1559 92.0213H81.5279L75.5123 86.0058V81.2215H73.9481V83.182H71.38V78.6535H78.0804V84.942L82.5916 89.4533H86.8673V91.9405L85.8885 92.92L87.7062 94.7389V99.1913H89.8361V92.3884L96.2119 86.0083V77.8685H101.8V81.643L103.9 83.7448H107.534L109.38 81.898H113.88V85.0009L114.778 85.8987L115.843 84.833V81.6118H113.829V74.5106H118.665L120.008 75.8537H121.796L122.889 74.7593V64.2377L121.824 63.172L118.665 66.3333H112.064L109.97 64.2377V61.1285H102.084V52.9328L105.48 49.5346Z" fill="black"/>
</svg>
