<svg width="163" height="124" viewBox="0 0 163 124" fill="none" xmlns="http://www.w3.org/2000/svg">
<path d="M0.101562 22C0.101562 9.84974 9.9445 0 22.0864 0H141.004C153.146 0 162.989 9.84974 162.989 22V102C162.989 114.15 153.146 124 141.004 124H22.0864C9.94451 124 0.101562 114.15 0.101562 102V22Z" fill="#C5A869"/>
<path fill-rule="evenodd" clip-rule="evenodd" d="M141.004 11H22.0864C16.0154 11 11.094 15.9249 11.094 22V102C11.094 108.075 16.0154 113 22.0864 113H141.004C147.075 113 151.997 108.075 151.997 102V22C151.997 15.9249 147.075 11 141.004 11ZM22.0864 0C9.9445 0 0.101562 9.84974 0.101562 22V102C0.101562 114.15 9.94451 124 22.0864 124H141.004C153.146 124 162.989 114.15 162.989 102V22C162.989 9.84974 153.146 0 141.004 0H22.0864Z" fill="#A68C55"/>
<path d="M72.1239 53.3691L51.6053 38.0203L56.7672 34.9317L53.4625 31.843H38.596L42.3133 47.0804L46.8561 50.9927L47.4752 43.3742L75.3884 64.1776L78.6615 58.1451L75.6521 56.007L75.3081 55.7505H70.3899L72.1239 53.3691Z" fill="black"/>
<path d="M93.2558 51.6551L83.938 68.7813H93.3561L90.2177 73.2098L100.335 79.4089V83.9388L105.291 87.0274V78.5852L112.313 75.4963L106.944 72.2017L102.195 73.4373L87.4376 64.3771L115.614 43.3742L116.236 50.9927L120.779 47.0804L124.494 31.843H109.627L106.322 34.9317L111.487 38.0203L93.2558 51.6551Z" fill="black"/>
<path d="M69.2922 75.4046L75.0903 64.7232L60.8973 73.4373L56.1481 72.2017L50.777 75.4963L57.799 78.5852V87.0274L62.7545 83.9388V79.4089L69.2922 75.4046Z" fill="black"/>
<path d="M49.1261 77.1436L54.7007 79.4089V87.8511L49.5388 91.3517V83.3211L43.1388 80.8502L49.1261 77.1436Z" fill="black"/>
<path d="M108.389 79.4089L113.964 77.1436L119.951 80.8502L113.551 83.3211V91.3517L108.389 87.8511V79.4089Z" fill="black"/>
<path d="M116.443 84.2258L122.017 81.9605L128.005 85.6671L121.605 88.138V96.1685L116.443 92.6679V84.2258Z" fill="black"/>
<path d="M46.6498 84.2258L41.0723 81.9605L35.085 85.6671L41.485 88.138V96.1685L46.6498 92.6679V84.2258Z" fill="black"/>
<path d="M73.2743 54.283L98.7111 19.3718L85.8321 48.5356H93.2827L81.4682 70.2487H90.5154L66.1423 104.628L78.1697 76.6349H70.2934L82.4272 54.283H73.2743Z" fill="black"/>
</svg>
