<svg width="164" height="124" viewBox="0 0 164 124" fill="none" xmlns="http://www.w3.org/2000/svg">
<path d="M0.876953 22C0.876953 9.84974 10.7199 0 22.8618 0H141.78C153.922 0 163.765 9.84974 163.765 22V102C163.765 114.15 153.922 124 141.78 124H22.8618C10.7199 124 0.876953 114.15 0.876953 102V22Z" fill="#C5A869"/>
<path fill-rule="evenodd" clip-rule="evenodd" d="M141.78 11H22.8618C16.7908 11 11.8694 15.9249 11.8694 22V102C11.8694 108.075 16.7908 113 22.8618 113H141.78C147.851 113 152.772 108.075 152.772 102V22C152.772 15.9249 147.851 11 141.78 11ZM22.8618 0C10.7199 0 0.876953 9.84974 0.876953 22V102C0.876953 114.15 10.7199 124 22.8618 124H141.78C153.922 124 163.765 114.15 163.765 102V22C163.765 9.84974 153.922 0 141.78 0H22.8618Z" fill="#A68C55"/>
<path d="M85.4089 97.4672C85.4089 97.4672 85.6777 101.638 82.7294 101.638C79.7812 101.638 80.0539 97.4672 80.0539 97.4672H82.7334H85.4089Z" fill="black"/>
<path d="M85.4089 96.3264H82.7334H80.0539C79.2049 96.3264 78.4415 95.6503 78.4415 94.7329C78.4415 93.8154 79.1328 93.1394 80.0539 93.1394H82.7294H85.4089C86.33 93.1394 87.0213 93.8154 87.0213 94.7329C87.0213 95.6503 86.258 96.3264 85.4089 96.3264Z" fill="black"/>
<path d="M85.4089 92.0379H82.7294H80.0539V81.2181H82.7294H85.4089V92.0379Z" fill="black"/>
<path d="M85.4089 79.8803H82.7294H80.0539C79.2863 79.8803 78.4415 79.2717 78.4415 78.3655C78.4415 77.4593 79.2272 76.8507 80.0539 76.8507H82.7294H85.4089C86.2356 76.8507 87.0213 77.4593 87.0213 78.3655C87.0213 79.2717 86.1766 79.8803 85.4089 79.8803Z" fill="black"/>
<path d="M87.2181 75.4342H82.7294H78.2448L74.7825 70.4769H82.7334H90.6803L87.2181 75.4342Z" fill="black"/>
<path d="M90.0508 68.7852H82.7334H75.412C74.3497 68.7852 73.0514 67.9197 73.0514 66.6213C73.0514 65.3229 74.3891 64.4574 74.3891 64.4574H82.7334H91.0738C91.0738 64.4574 92.4115 65.3229 92.4115 66.6213C92.4115 67.9197 91.1131 68.7852 90.0508 68.7852Z" fill="black"/>
<path d="M91.9504 52.9951C91.9504 56.2879 90.8703 58.8939 89.3044 62.5794H84.8939C87.9781 51.9173 86.8229 50.1334 84.8939 46.7624C85.5373 52.3664 84.9624 55.8607 82.7334 62.5794H79.4843C76.6241 53.6206 76.1434 49.8861 77.0736 45.1748C73.9508 48.5264 75.412 55.1707 78.1908 62.5794H75.412C75.412 62.5794 72.6048 59.6983 72.2526 51.5252C71.9004 43.3521 75.8976 40.5298 74.0754 28.3582C75.8388 29.593 77.4846 31.0042 78.1908 36.1197C77.8904 29.4166 78.9488 25.0655 81.2489 22.3608C82.7334 25.6535 79.1618 30.4261 82.7334 40.5298C83.7179 38.4717 81.6599 34.4734 82.7334 32.7095C84.8939 37.4133 91.9504 45.1748 91.9504 52.9951Z" fill="black"/>
</svg>
