<svg width="164" height="124" viewBox="0 0 164 124" fill="none" xmlns="http://www.w3.org/2000/svg">
<path d="M0.4375 22C0.4375 9.84974 10.2804 0 22.4223 0H141.34C153.482 0 163.325 9.84974 163.325 22V102C163.325 114.15 153.482 124 141.34 124H22.4223C10.2804 124 0.4375 114.15 0.4375 102V22Z" fill="#C5A869"/>
<path fill-rule="evenodd" clip-rule="evenodd" d="M141.34 11H22.4223C16.3514 11 11.4299 15.9249 11.4299 22V102C11.4299 108.075 16.3514 113 22.4223 113H141.34C147.411 113 152.333 108.075 152.333 102V22C152.333 15.9249 147.411 11 141.34 11ZM22.4223 0C10.2804 0 0.4375 9.84974 0.4375 22V102C0.4375 114.15 10.2804 124 22.4223 124H141.34C153.482 124 163.325 114.15 163.325 102V22C163.325 9.84974 153.482 0 141.34 0H22.4223Z" fill="#A68C55"/>
<path fill-rule="evenodd" clip-rule="evenodd" d="M100.915 73.745C71.9489 48.9171 48.8542 34.5065 38.1866 33.3752L54.0577 34.1967C64.1765 34.1967 89.0458 53.4075 105.884 68.7175C106.735 67.745 107.592 66.722 108.463 65.6586C116.339 56.636 124.174 55.5525 132.401 63.0232C140.628 70.4939 140.582 77.008 134.378 84.3257C128.174 91.6434 121.191 91.938 117.469 88.4983C113.177 84.5305 108.974 80.7535 104.878 77.175C99.7677 81.5988 93.8052 83.8384 89.1368 78.6158C93.6606 78.6158 97.3855 76.7648 100.915 73.745ZM109.713 72.1109C109.69 72.1394 109.667 72.1679 109.644 72.1964C114.679 76.942 118.675 81.0835 120.843 83.8216C124.377 87.3558 127.909 85.2095 131.531 81.5867C136.41 76.7078 135.555 72.2484 129.258 66.7215C122.961 61.1946 118.006 61.8038 109.78 72.0274C109.758 72.0552 109.736 72.0831 109.713 72.1109Z" fill="black"/>
<path fill-rule="evenodd" clip-rule="evenodd" d="M65.1169 73.745C94.0835 48.9171 117.178 34.5065 127.846 33.3752L111.975 34.1967C101.856 34.1967 76.9866 53.4075 60.1485 68.7175C59.2974 67.745 58.4407 66.722 57.5697 65.6586C49.6938 56.636 41.8588 55.5525 33.6318 63.0232C25.4049 70.4939 25.4502 77.008 31.6541 84.3257C37.858 91.6434 44.8416 91.938 48.563 88.4983C52.8559 84.5305 57.0587 80.7535 61.154 77.175C66.2647 81.5988 72.2272 83.8384 76.8956 78.6158C72.3718 78.6158 68.6469 76.7648 65.1169 73.745ZM56.3194 72.1109C56.3424 72.1394 56.3655 72.1679 56.3886 72.1964C51.3531 76.942 47.3575 81.0835 45.1894 83.8216C41.6553 87.3558 38.1237 85.2095 34.5009 81.5867C29.6224 76.7078 30.4771 72.2484 36.7743 66.7215C43.0715 61.1946 48.0268 61.8038 56.252 72.0274C56.2744 72.0552 56.2969 72.0831 56.3194 72.1109Z" fill="black"/>
</svg>
