<svg width="163" height="124" viewBox="0 0 163 124" fill="none" xmlns="http://www.w3.org/2000/svg">
<path d="M0 22C0 9.84974 9.84294 0 21.9848 0H140.903C153.045 0 162.888 9.84974 162.888 22V102C162.888 114.15 153.045 124 140.903 124H21.9848C9.84295 124 0 114.15 0 102V22Z" fill="#C5A869"/>
<path fill-rule="evenodd" clip-rule="evenodd" d="M140.903 11H21.9848C15.9139 11 10.9924 15.9249 10.9924 22V102C10.9924 108.075 15.9139 113 21.9848 113H140.903C146.974 113 151.895 108.075 151.895 102V22C151.895 15.9249 146.974 11 140.903 11ZM21.9848 0C9.84294 0 0 9.84974 0 22V102C0 114.15 9.84295 124 21.9848 124H140.903C153.045 124 162.888 114.15 162.888 102V22C162.888 9.84974 153.045 0 140.903 0H21.9848Z" fill="#A68C55"/>
<path d="M78.3481 21.0522H84.5361V21.06L84.5351 21.0594V31.1082L84.5361 31.109V47.4502C84.1708 47.9701 83.7854 48.4834 83.3832 48.993C82.1035 50.6144 80.6772 52.1698 79.203 53.7764L79.1477 53.8367C78.8824 54.1258 78.6155 54.4166 78.3481 54.7095V21.0522Z" fill="black"/>
<path d="M69.1309 37.8718C68.4831 38.4368 67.3281 39.7241 67.8905 40.3526C68.5934 41.1382 73.1801 43.8094 74.7927 43.3959C76.4052 42.9824 75.7322 37.0858 75.247 35.5973C74.8953 34.5186 73.9514 34.9323 72.947 35.3727C72.9017 35.3925 72.8563 35.4124 72.8108 35.4322C72.5124 34.1217 73.6182 31.1085 76.8807 29.6196V22.8901C68.3508 25.6252 67.5892 36.3173 69.1309 37.8718Z" fill="black"/>
<path d="M90.564 97.9521C91.5756 97.3456 91.3241 92.6439 89.3517 90.0148C88.8179 89.3032 87.562 88.3477 86.014 87.1699L86.0036 87.1619V92.6314C87.5145 94.1935 88.4104 95.5797 89.0384 96.5513C89.7126 97.5944 90.078 98.1597 90.564 97.9521Z" fill="black"/>
<path d="M86.0036 30.348V23.471C90.5014 25.7981 93.7844 31.0927 93.7844 36.0869C93.7844 43.0202 90.4434 49.48 86.6215 55.1762C86.2894 55.6712 85.9537 56.1604 85.6162 56.6436C84.4131 58.3664 83.1875 60.0136 82.0248 61.5763L82.0246 61.5767C80.6689 63.3988 79.3985 65.1063 78.3481 66.6856C77.7901 67.5246 77.2943 68.3273 76.8807 69.0919C76.0477 70.6318 75.5486 72.0165 75.5486 73.2293C75.5486 74.9283 76.057 76.5313 76.8807 78.0285V85.433C73.3871 82.4899 70.7081 78.9897 70.7081 73.2293C70.7081 70.1525 71.4151 67.4852 72.5558 65.0726C72.7921 64.5729 73.0469 64.0842 73.3179 63.6051C75.1508 60.3645 77.7235 57.5606 80.2853 54.7687C81.7528 53.1693 83.2168 51.5737 84.5361 49.9023C85.05 49.2512 85.5419 48.5886 86.0036 47.9097C88.1485 44.7554 89.6393 41.2503 89.6393 36.9208C89.6393 34.2622 88.1313 31.8499 86.0036 30.348Z" fill="black"/>
<path fill-rule="evenodd" clip-rule="evenodd" d="M76.6157 56.6438H43.5391V63.6052H71.6462C71.7736 63.3616 71.9048 63.1207 72.0395 62.8825C73.3184 60.6213 74.9328 58.5737 76.6157 56.6438Z" fill="black"/>
<path fill-rule="evenodd" clip-rule="evenodd" d="M78.3481 69.4683V102.95H84.5361V63.6052H119.345V56.6438H87.3987C87.2058 56.926 87.0122 57.206 86.8182 57.4837C85.6024 59.2247 84.3658 60.8867 83.2065 62.4449L83.2052 62.4467L83.2029 62.4498L83.2011 62.4522L83.2009 62.4525C81.839 64.283 80.5936 65.9575 79.569 67.4981C79.1073 68.1923 78.6978 68.8485 78.3481 69.4683Z" fill="black"/>
</svg>
