<svg width="164" height="124" viewBox="0 0 164 124" fill="none" xmlns="http://www.w3.org/2000/svg">
<path d="M0.326172 22C0.326172 9.84974 10.1691 0 22.311 0H141.229C153.371 0 163.214 9.84974 163.214 22V102C163.214 114.15 153.371 124 141.229 124H22.311C10.1691 124 0.326172 114.15 0.326172 102V22Z" fill="#C5A869"/>
<path fill-rule="evenodd" clip-rule="evenodd" d="M141.229 11H22.311C16.2401 11 11.3186 15.9249 11.3186 22V102C11.3186 108.075 16.2401 113 22.311 113H141.229C147.3 113 152.221 108.075 152.221 102V22C152.221 15.9249 147.3 11 141.229 11ZM22.311 0C10.1691 0 0.326172 9.84974 0.326172 22V102C0.326172 114.15 10.1691 124 22.311 124H141.229C153.371 124 163.214 114.15 163.214 102V22C163.214 9.84974 153.371 0 141.229 0H22.311Z" fill="#A68C55"/>
<path d="M78.6753 21.0525H84.8633V21.0602L84.8622 21.0597V31.1085L84.8633 31.1092V47.4505C84.498 47.9703 84.1125 48.4837 83.7103 48.9932C82.4306 50.6146 81.0043 52.17 79.5301 53.7767L79.4748 53.8369C79.2096 54.126 78.9427 54.4169 78.6753 54.7098V21.0525Z" fill="black"/>
<path d="M76.9428 56.644H63.4934V32.0752H57.3055V56.644H43.8662V63.6055H57.3055V91.9274H63.4934V63.6055H71.9734C72.1008 63.3618 72.232 63.1209 72.3667 62.8828C73.6456 60.6216 75.2599 58.574 76.9428 56.644Z" fill="black"/>
<path d="M78.6753 69.4685V102.95H84.8633V63.6055H100.042V91.9274H106.23V63.6055H119.672V56.644H106.23V32.0752H100.042V56.644H87.7259C87.533 56.9262 87.3394 57.2062 87.1454 57.484C85.9296 59.2249 84.693 60.8869 83.5336 62.4452L83.5323 62.4469L83.5301 62.45L83.5283 62.4524L83.528 62.4527C82.1661 64.2832 80.9208 65.9578 79.8961 67.4984C79.4345 68.1925 79.0249 68.8487 78.6753 69.4685Z" fill="black"/>
<path d="M69.458 37.872C68.8103 38.4371 67.6553 39.7244 68.2176 40.3529C68.9205 41.1385 73.5073 43.8096 75.1198 43.3961C76.7324 42.9827 76.0594 37.0861 75.5741 35.5975C75.2224 34.5188 74.2786 34.9326 73.2741 35.3729C73.2288 35.3928 73.1835 35.4127 73.138 35.4325C72.8396 34.1219 73.9454 31.1088 77.2078 29.6198V22.8904C68.678 25.6254 67.9164 36.3176 69.458 37.872Z" fill="black"/>
<path d="M90.8912 97.9524C91.9027 97.3458 91.6513 92.6442 89.6788 90.015C89.145 89.3035 87.8892 88.3479 86.3412 87.1701L86.3307 87.1622V92.6316C87.8416 94.1937 88.7376 95.5799 89.3656 96.5515C90.0398 97.5946 90.4052 98.16 90.8912 97.9524Z" fill="black"/>
<path d="M86.3307 30.3482V23.4712C90.8286 25.7983 94.1116 31.093 94.1116 36.0871C94.1116 43.0205 90.7706 49.4802 86.9487 55.1764C86.6166 55.6714 86.2808 56.1606 85.9433 56.6439C84.7402 58.3666 83.5147 60.0138 82.352 61.5766L82.3517 61.5769C80.996 63.3991 79.7256 65.1066 78.6753 66.6858C78.1173 67.5248 77.6214 68.3276 77.2078 69.0921C76.3748 70.632 75.8757 72.0167 75.8757 73.2295C75.8757 74.9286 76.3842 76.5316 77.2078 78.0288V85.4332C73.7143 82.4902 71.0353 78.9899 71.0353 73.2295C71.0353 70.1528 71.7422 67.4854 72.883 65.0728C73.1192 64.5732 73.374 64.0845 73.645 63.6053C75.4779 60.3647 78.0506 57.5609 80.6124 54.7689C82.08 53.1695 83.544 51.574 84.8633 49.9025C85.3771 49.2514 85.8691 48.5888 86.3307 47.91C88.4756 44.7557 89.9665 41.2506 89.9665 36.921C89.9665 34.2624 88.4585 31.8502 86.3307 30.3482Z" fill="black"/>
</svg>
