<svg width="164" height="168" viewBox="0 0 164 168" fill="none" xmlns="http://www.w3.org/2000/svg">
<path d="M78.0731 162.871C73.6499 162.674 70.1105 163.858 68.1442 165.238C66.1779 166.619 65.3914 168 64.2116 168C63.0318 168 60.2789 166.619 60.2789 165.436C60.8837 164.861 61.7589 164.338 62.8034 163.858C68.2119 161.374 78.1606 160.051 78.6135 158.729C78.4955 160.007 78.3167 161.36 78.0731 162.871Z" fill="#CBC5C5"/>
<path d="M78.6135 151.228C78.6146 151.242 78.6158 151.255 78.617 151.269C78.7346 152.937 75.2091 149.038 73.4533 145.907C71.6836 142.751 70.7004 144.724 68.5375 145.907C66.3745 147.091 63.8183 146.696 64.2116 148.077C64.6048 149.458 69.7173 149.852 70.7004 149.852C71.6836 149.852 75.4196 149.852 75.6163 151.036C75.8129 152.219 70.3072 153.206 69.324 153.206C68.3409 153.206 65.3914 151.825 63.425 150.247C61.4587 148.669 61.0654 145.513 61.0654 143.343C61.0654 141.173 61.0654 141.173 63.8183 141.173C66.3745 141.173 68.7341 138.411 71.8802 138.411C73.6499 140.581 77.1893 143.935 78.6135 151.228Z" fill="#CBC5C5"/>
<path d="M59.2957 143.343C59.2957 140.778 60.4755 141.962 60.4755 140.778C60.3445 140.252 59.689 139.003 58.116 138.214C56.1496 137.228 53.0035 135.847 53.79 139.792C54.4193 142.948 54.9698 144.395 55.1665 144.724C57.2136 145.773 58.372 146.515 60.4755 148.274C60.6722 145.907 59.2957 144.447 59.2957 143.343Z" fill="#CBC5C5"/>
<path d="M59.2957 148.471C56.5429 145.907 50.2506 143.343 45.1382 143.343C45.1382 144.329 44.7449 145.513 46.1214 146.499C47.4978 147.485 49.2675 146.302 51.4304 147.288C53.1608 148.077 54.6421 150.115 55.1665 151.036C56.0434 149.599 56.9755 149.046 59.2957 148.471Z" fill="#CBC5C5"/>
<path d="M49.2675 153.206C50.6832 152.732 51.0372 149.852 51.0372 148.471C48.2843 146.499 47.3011 150.247 39.4358 145.513C38.7427 146.941 38.7747 147.809 39.0426 151.228C40.3013 152.43 41.1198 153.014 42.9752 153.797C43.7212 149.23 44.9211 147.912 49.2675 149.063C48.0485 150.705 48.0147 151.564 49.2675 153.206Z" fill="#CBC5C5"/>
<path d="M61.852 162.082C61.852 161.096 59.689 158.729 58.9025 158.729C58.1159 158.729 55.953 162.871 52.6102 162.871C50.2465 162.871 46.5064 161.885 44.5183 159.912C44.0634 157.465 44.0382 155.77 44.2781 154.587C44.6761 152.624 45.8037 152.071 46.9079 151.825C46.9079 153.403 49.6607 155.178 51.4304 155.178C53.9867 155.178 57.5261 149.852 58.5092 149.852C59.4924 149.852 62.4419 152.022 63.0318 155.178C67.751 155.376 74.2398 153.206 78.7539 153.403C78.7867 154.203 78.7962 154.985 78.7813 155.77C73.8466 156.165 64.8015 162.674 61.852 162.082Z" fill="#CBC5C5"/>
<path d="M50.6439 142.751C50.3293 141.489 50.7094 140.515 51.0372 140.187C47.6965 132.94 44.671 130.03 38.8459 125.392C38.012 132.222 39.1934 135.552 46.5146 142.554L50.6439 142.751Z" fill="#CBC5C5"/>
<path d="M32.3571 143.343C32.3571 143.996 32.8853 144.526 33.5369 144.526C34.1884 144.526 34.7167 143.996 34.7167 143.343C34.7167 142.689 34.1884 142.159 33.5369 142.159C32.8853 142.159 32.3571 142.689 32.3571 143.343Z" fill="#CBC5C5"/>
<path d="M35.1099 129.337C35.1099 129.991 35.6381 130.521 36.2897 130.521C36.9413 130.521 37.4695 129.991 37.4695 129.337C37.4695 128.684 36.9413 128.154 36.2897 128.154C35.6381 128.154 35.1099 128.684 35.1099 129.337Z" fill="#CBC5C5"/>
<path d="M21.5423 112.965C21.5423 113.619 22.0705 114.149 22.722 114.149C23.3736 114.149 23.9018 113.619 23.9018 112.965C23.9018 112.311 23.3736 111.782 22.722 111.782C22.0705 111.782 21.5423 112.311 21.5423 112.965Z" fill="#CBC5C5"/>
<path d="M5.22173 102.905C5.22173 103.559 5.74995 104.088 6.40153 104.088C7.05311 104.088 7.58133 103.559 7.58133 102.905C7.58133 102.251 7.05311 101.721 6.40153 101.721C5.74995 101.721 5.22173 102.251 5.22173 102.905Z" fill="#CBC5C5"/>
<path d="M14.8567 97.7762C14.8567 98.4299 15.385 98.9598 16.0365 98.9598C16.6881 98.9598 17.2163 98.4299 17.2163 97.7762C17.2163 97.1225 16.6881 96.5927 16.0365 96.5927C15.385 96.5927 14.8567 97.1225 14.8567 97.7762Z" fill="#CBC5C5"/>
<path d="M13.2837 82.9819C13.2837 83.6355 13.8119 84.1654 14.4635 84.1654C15.1151 84.1654 15.6433 83.6355 15.6433 82.9819C15.6433 82.3282 15.1151 81.7983 14.4635 81.7983C13.8119 81.7983 13.2837 82.3282 13.2837 82.9819Z" fill="#CBC5C5"/>
<path d="M9.15439 60.0999C9.15439 60.7536 9.6826 61.2835 10.3342 61.2835C10.9858 61.2835 11.514 60.7536 11.514 60.0999C11.514 59.4463 10.9858 58.9164 10.3342 58.9164C9.6826 58.9164 9.15439 59.4463 9.15439 60.0999Z" fill="#CBC5C5"/>
<path d="M18.1995 64.0451C18.1995 64.6988 18.7277 65.2287 19.3793 65.2287C20.0309 65.2287 20.5591 64.6988 20.5591 64.0451C20.5591 63.3914 20.0309 62.8616 19.3793 62.8616C18.7277 62.8616 18.1995 63.3914 18.1995 64.0451Z" fill="#CBC5C5"/>
<path d="M13.087 46.4892C13.087 47.1428 13.6153 47.6727 14.2668 47.6727C14.9184 47.6727 15.4466 47.1428 15.4466 46.4892C15.4466 45.8355 14.9184 45.3056 14.2668 45.3056C13.6153 45.3056 13.087 45.8355 13.087 46.4892Z" fill="#CBC5C5"/>
<path d="M21.149 40.9659C21.149 41.6196 21.6772 42.1495 22.3288 42.1495C22.9804 42.1495 23.5086 41.6196 23.5086 40.9659C23.5086 40.3123 22.9804 39.7824 22.3288 39.7824C21.6772 39.7824 21.149 40.3123 21.149 40.9659Z" fill="#CBC5C5"/>
<path d="M34.7167 36.8235C34.7167 37.4772 35.2449 38.0071 35.8964 38.0071C36.548 38.0071 37.0762 37.4772 37.0762 36.8235C37.0762 36.1699 36.548 35.64 35.8964 35.64C35.2449 35.64 34.7167 36.1699 34.7167 36.8235Z" fill="#CBC5C5"/>
<path d="M48.6776 21.2401C48.6776 21.8938 49.2058 22.4237 49.8574 22.4237C50.509 22.4237 51.0372 21.8938 51.0372 21.2401C51.0372 20.5865 50.509 20.0566 49.8574 20.0566C49.2058 20.0566 48.6776 20.5865 48.6776 21.2401Z" fill="#CBC5C5"/>
<path d="M39.4358 14.3361C39.4358 14.9898 39.9641 15.5197 40.6156 15.5197C41.2672 15.5197 41.7954 14.9898 41.7954 14.3361C41.7954 13.6825 41.2672 13.1526 40.6156 13.1526C39.9641 13.1526 39.4358 13.6825 39.4358 14.3361Z" fill="#CBC5C5"/>
<path d="M64.4082 13.1526C64.4082 13.8062 64.9364 14.3361 65.588 14.3361C66.2396 14.3361 66.7678 13.8062 66.7678 13.1526C66.7678 12.4989 66.2396 11.969 65.588 11.969C64.9364 11.969 64.4082 12.4989 64.4082 13.1526Z" fill="#CBC5C5"/>
<path d="M63.6217 3.68419C63.6217 4.33785 64.1499 4.86774 64.8015 4.86774C65.453 4.86774 65.9813 4.33785 65.9813 3.68419C65.9813 3.03054 65.453 2.50065 64.8015 2.50065C64.1499 2.50065 63.6217 3.03054 63.6217 3.68419Z" fill="#CBC5C5"/>
<path d="M43.9584 142.159C43.6962 142.883 43.3292 144.566 43.9584 145.513C37.2692 144.273 26.3325 134.609 27.048 127.365C33.1524 129.111 36.7915 132.207 43.9584 142.159Z" fill="#CBC5C5"/>
<path d="M36.2897 125.984C35.8964 120.264 27.8345 109.809 26.2614 110.598C24.6884 111.387 25.4749 125.59 31.9638 128.351C32.4357 127.247 35.0444 126.313 36.2897 125.984Z" fill="#CBC5C5"/>
<path d="M31.7672 140.384C28.621 137.031 22.9187 133.677 17.6096 134.466C18.986 139.792 27.2446 142.948 30.5874 144.526C30.1941 143.343 30.784 140.976 31.7672 140.384Z" fill="#CBC5C5"/>
<path d="M37.4695 149.852C36.8796 148.077 37.8628 146.302 37.2729 146.104C36.801 145.947 33.9301 145.776 32.5537 145.71C33.8912 147.434 34.934 148.353 37.4695 149.852Z" fill="#CBC5C5"/>
<path d="M27.048 125.984C26.2614 121.842 19.9692 111.584 17.2163 112.571C14.4635 113.557 18.1995 128.746 25.8682 132.494C23.9018 128.351 25.0323 125.984 27.048 125.984Z" fill="#CBC5C5"/>
<path d="M24.885 110.203C24.4917 104.483 25.4749 101.919 23.5086 97.7762C21.5423 93.6338 20.9524 94.0283 20.1658 94.2256C19.3793 94.4228 17.413 100.341 18.1995 104.68C18.8287 108.152 19.7726 111.387 20.1658 112.571C20.4935 111.847 21.3849 110.282 22.3288 109.809C23.2726 109.336 24.4262 109.875 24.885 110.203Z" fill="#CBC5C5"/>
<path d="M18.1995 111.782C18.0231 102.905 12.1039 94.8371 10.3342 95.0146C6.40153 95.4091 9.54766 113.754 14.8567 116.121C14.8567 111.782 16.0365 110.203 18.1995 111.782Z" fill="#CBC5C5"/>
<path d="M23.9018 133.085C18.0029 129.337 19.1827 126.576 15.6433 123.222C12.8118 120.54 9.08885 119.475 7.58133 119.277C10.5858 127.891 13.8757 131.19 23.9018 133.085Z" fill="#CBC5C5"/>
<path d="M14.0702 119.869C12.8904 114.442 4.82847 102.905 2.46888 104.088C2.46888 106.653 6.69021 113.754 7.58133 117.699C10.5701 118.015 13.1526 119.277 14.0702 119.869Z" fill="#CBC5C5"/>
<path d="M21.9355 80.2203C18.1995 81.7983 13.2837 87.5188 14.4635 95.8036C15.7219 94.2256 17.0852 94.6201 17.6096 95.0146C18.2521 93.2603 18.7675 92.6724 20.1658 92.8448C22.4296 87.8957 22.5626 85.1346 21.9355 80.2203Z" fill="#CBC5C5"/>
<path d="M9.54766 73.7107C6.99143 76.2751 4.45823 87.1285 7.58133 96.5927C9.72568 93.3904 10.7617 93.9851 12.6938 93.831C13.2102 90.8812 13.3325 87.8919 13.1894 85.1517C12.8931 84.8229 12.2612 83.9287 12.1039 82.9819C11.9466 82.035 12.4698 81.2723 12.751 81.0093C12.061 76.7859 10.7571 73.8226 9.54766 73.7107Z" fill="#CBC5C5"/>
<path d="M1.48571 87.1243C1.48571 92.8448 2.40738 95.8816 2.46888 102.313C3.05877 103.694 5.22173 103.497 4.82847 99.5515C5.10969 100.492 6.91339 101.396 6.59816 96.7899C6.28294 92.1842 1.48571 87.1243 1.48571 87.1243Z" fill="#CBC5C5"/>
<path d="M24.0985 65.8204C23.9243 73.0156 22.2575 75.8925 18.1995 80.2203C17.2443 78.3103 15.4466 81.0093 13.6769 79.234C17.6096 72.1327 16.0365 69.9628 19.3793 67.793C21.2517 66.3731 22.2754 66.1477 24.0985 65.8204Z" fill="#CBC5C5"/>
<path d="M15.4466 57.3383C9.54766 63.4533 6.16697 67.3427 7.58133 75.2888C9.60138 71.1041 10.8793 72.1341 13.2837 77.0641C16.8353 69.2726 17.6376 64.948 15.4466 57.3383Z" fill="#CBC5C5"/>
<path d="M4.82847 89.0969C5.51483 83.1491 5.81163 80.2203 5.22173 77.0641C4.31082 74.8731 3.38585 73.8268 0.895813 72.3299C-0.0534485 77.4953 0.0247877 80.3813 0.895813 85.5462C3.11674 86.2633 3.77467 87.2364 4.82847 89.0969Z" fill="#CBC5C5"/>
<path d="M6.00827 75.2888C5.22173 68.7793 7.97459 65.2287 7.97459 61.2835C7.97459 57.3383 5.22173 54.9712 5.22173 54.9712C3.44417 62.0223 3.19229 65.7562 3.05877 72.3299C4.2382 72.774 4.88928 73.4615 6.00827 75.2888Z" fill="#CBC5C5"/>
<path d="M29.6042 51.8151C27.9116 57.2269 26.4697 59.9237 22.3288 63.6506C21.7618 62.0294 21.3619 61.6046 20.5591 61.2835C21.9244 58.5754 22.1389 57.0644 22.3288 54.3795C26.4686 51.6044 27.5954 51.6782 29.6042 51.8151Z" fill="#CBC5C5"/>
<path d="M18.7894 60.0999C16.2296 55.3277 15.0486 55.1625 13.1894 57.3383C13.284 53.2658 13.9561 51.5823 15.4466 48.8563C16.8322 48.6541 17.0824 47.8016 17.2163 46.4892C19.3435 44.2557 20.4379 43.7567 22.3288 43.333C22.2103 50.4158 21.6365 54.1738 18.7894 60.0999Z" fill="#CBC5C5"/>
<path d="M11.514 44.1221C8.7248 46.5605 7.59621 48.6122 6.7948 54.1822C7.55108 54.8299 7.92507 55.7449 8.56449 57.7328C9.46117 56.7355 9.97931 56.5943 10.9241 56.9438C12.8412 52.038 12.8438 49.2322 11.514 44.1221Z" fill="#CBC5C5"/>
<path d="M22.9187 52.4069C24.0685 44.756 29.6042 38.9934 34.7167 38.9934C36.683 38.9934 37.7972 37.0208 38.4527 38.0071C38.8042 38.536 36.1355 42.9503 32.3571 46.6864C29.0904 49.9165 24.8333 52.5898 22.9187 52.4069Z" fill="#CBC5C5"/>
<path d="M35.1099 26.5661C28.1539 28.2405 25.1191 30.3062 22.3288 37.4153C24.3655 39.2253 25.896 39.9846 23.5086 44.7138C31.7167 38.2421 33.7951 34.1954 35.1099 26.5661Z" fill="#CBC5C5"/>
<path d="M21.149 29.1305C16.3528 33.587 14.4625 36.5575 12.3005 42.544C12.2981 43.5088 12.3586 43.9981 12.8904 44.5166C13.7798 43.9986 14.5146 43.8603 16.6264 44.1221C20.7024 38.0764 21.432 34.8154 21.149 29.1305Z" fill="#CBC5C5"/>
<path d="M47.891 17.295C39.0049 17.7883 35.1125 19.7904 30.1941 26.5661C35.8629 24.4314 37.2097 24.8229 36.2897 29.1305C42.8893 25.259 45.0435 22.5242 47.891 17.295Z" fill="#CBC5C5"/>
<path d="M38.256 14.1389C37.8628 17.6895 28.8177 24.5935 22.1322 34.2592C24.4917 27.3551 25.2928 26.0202 22.3288 27.9469C27.8251 18.9581 31.3645 16.1937 38.256 14.1389Z" fill="#CBC5C5"/>
<path d="M51.0372 25.9743C49.6348 24.4224 48.6798 23.8281 45.7281 24.199C41.9632 27.5208 39.9274 28.6647 36.4534 30.6165L36.2897 30.7085C35.6728 31.5434 35.3915 32.3077 35.1099 33.6674C40.5877 33.6789 44.1016 31.9484 51.0372 25.9743Z" fill="#CBC5C5"/>
<path d="M57.9193 17.295C54.1833 18.8731 49.2675 18.2813 49.2675 18.2813C49.1337 15.3616 47.5266 15.7372 45.3348 15.5197C52.5878 9.82028 56.9024 8.43689 65.1947 10.3707C61.2621 11.969 63.6217 14.8864 57.9193 17.295Z" fill="#CBC5C5"/>
<path d="M51.2338 23.2127C58.5681 23.14 61.8033 21.9805 66.7678 18.8731C65.8834 16.5173 64.9697 15.9991 62.2452 15.7169C59.7528 19.0471 57.4924 20.0676 52.6102 21.0429C52.42 22.0914 52.1532 22.6556 51.2338 23.2127Z" fill="#CBC5C5"/>
<path d="M62.2452 2.89516C61.6443 5.76179 60.9137 7.22155 56.9362 8.8129C53.4394 9.6234 52.3286 9.01722 44.7449 14.9279C44.11 15.3274 43.7653 15.4586 43.1719 15.5197C43.2605 13.868 43.1086 13.0898 42.582 11.969C49.31 6.06275 53.7906 4.51149 62.2452 2.89516Z" fill="#CBC5C5"/>
<path d="M80.7287 15.5197C80.202 14.0209 79.5809 13.3457 77.9759 12.3635C76.0685 13.445 74.0976 13.6784 69.1274 13.5471C67.8648 14.2065 67.3191 14.6289 66.7678 15.5197C71.6621 17.598 74.7412 17.591 80.7287 15.5197Z" fill="#CBC5C5"/>
<path d="M80.7287 0.133552C79.7958 1.60732 79.1114 2.43004 77.386 3.88145C73.1531 3.61194 70.9417 3.90341 67.1611 4.86774C67.3653 3.94535 67.3136 3.42357 67.1611 2.50065C73.2549 0.082413 76.131 -0.247386 80.7287 0.133552Z" fill="#CBC5C5"/>
<path d="M85.3527 162.871C89.7758 162.674 93.3152 163.858 95.2816 165.238C97.2479 166.619 98.0344 168 99.2142 168C100.394 168 103.147 166.619 103.147 165.436C102.542 164.861 101.667 164.338 100.622 163.858C95.2139 161.374 85.2652 160.051 84.8123 158.729C84.9303 160.007 85.1091 161.36 85.3527 162.871Z" fill="#CBC5C5"/>
<path d="M84.8123 151.228C84.8111 151.242 84.81 151.255 84.8088 151.269C84.6912 152.937 88.2167 149.038 89.9725 145.907C91.7422 142.751 92.7253 144.724 94.8883 145.907C97.0513 147.091 99.6075 146.696 99.2142 148.077C98.821 149.458 93.7085 149.852 92.7253 149.852C91.7422 149.852 88.0061 149.852 87.8095 151.036C87.6129 152.219 93.1186 153.206 94.1018 153.206C95.0849 153.206 98.0344 151.825 100.001 150.247C101.967 148.669 102.36 145.513 102.36 143.343C102.36 141.173 102.36 141.173 99.6075 141.173C97.0513 141.173 94.6917 138.411 91.5455 138.411C89.7758 140.581 86.2365 143.935 84.8123 151.228Z" fill="#CBC5C5"/>
<path d="M104.13 143.343C104.13 140.778 102.95 141.962 102.95 140.778C103.081 140.252 103.737 139.003 105.31 138.214C107.276 137.228 110.422 135.847 109.636 139.792C109.007 142.948 108.456 144.395 108.259 144.724C106.212 145.773 105.054 146.515 102.95 148.274C102.754 145.907 104.13 144.447 104.13 143.343Z" fill="#CBC5C5"/>
<path d="M104.13 148.471C106.883 145.907 113.175 143.343 118.288 143.343C118.288 144.329 118.681 145.513 117.304 146.499C115.928 147.485 114.158 146.302 111.995 147.288C110.265 148.077 108.784 150.115 108.259 151.036C107.382 149.599 106.45 149.046 104.13 148.471Z" fill="#CBC5C5"/>
<path d="M114.158 153.206C112.743 152.732 112.389 149.852 112.389 148.471C115.141 146.499 116.125 150.247 123.99 145.513C124.683 146.941 124.651 147.809 124.383 151.228C123.124 152.43 122.306 153.014 120.451 153.797C119.705 149.23 118.505 147.912 114.158 149.063C115.377 150.705 115.411 151.564 114.158 153.206Z" fill="#CBC5C5"/>
<path d="M101.574 162.082C101.574 161.096 103.737 158.729 104.523 158.729C105.31 158.729 107.473 162.871 110.816 162.871C113.179 162.871 116.919 161.885 118.907 159.912C119.362 157.465 119.388 155.77 119.148 154.587C118.75 152.624 117.622 152.071 116.518 151.825C116.518 153.403 113.765 155.178 111.995 155.178C109.439 155.178 105.9 149.852 104.917 149.852C103.933 149.852 100.984 152.022 100.394 155.178C95.6748 155.376 89.1859 153.206 84.6719 153.403C84.639 154.203 84.6296 154.985 84.6445 155.77C89.5792 156.165 98.6243 162.674 101.574 162.082Z" fill="#CBC5C5"/>
<path d="M112.782 142.751C113.096 141.489 112.716 140.515 112.389 140.187C115.729 132.94 118.755 130.03 124.58 125.392C125.414 132.222 124.232 135.552 116.911 142.554L112.782 142.751Z" fill="#CBC5C5"/>
<path d="M131.069 143.343C131.069 143.996 130.541 144.526 129.889 144.526C129.237 144.526 128.709 143.996 128.709 143.343C128.709 142.689 129.237 142.159 129.889 142.159C130.541 142.159 131.069 142.689 131.069 143.343Z" fill="#CBC5C5"/>
<path d="M128.316 129.337C128.316 129.991 127.788 130.521 127.136 130.521C126.484 130.521 125.956 129.991 125.956 129.337C125.956 128.684 126.484 128.154 127.136 128.154C127.788 128.154 128.316 128.684 128.316 129.337Z" fill="#CBC5C5"/>
<path d="M141.884 112.965C141.884 113.619 141.355 114.149 140.704 114.149C140.052 114.149 139.524 113.619 139.524 112.965C139.524 112.311 140.052 111.782 140.704 111.782C141.355 111.782 141.884 112.311 141.884 112.965Z" fill="#CBC5C5"/>
<path d="M158.204 102.905C158.204 103.559 157.676 104.088 157.024 104.088C156.373 104.088 155.844 103.559 155.844 102.905C155.844 102.251 156.373 101.721 157.024 101.721C157.676 101.721 158.204 102.251 158.204 102.905Z" fill="#CBC5C5"/>
<path d="M148.569 97.7762C148.569 98.4299 148.041 98.9598 147.389 98.9598C146.738 98.9598 146.209 98.4299 146.209 97.7762C146.209 97.1225 146.738 96.5927 147.389 96.5927C148.041 96.5927 148.569 97.1225 148.569 97.7762Z" fill="#CBC5C5"/>
<path d="M150.142 82.9819C150.142 83.6355 149.614 84.1654 148.962 84.1654C148.311 84.1654 147.783 83.6355 147.783 82.9819C147.783 82.3282 148.311 81.7983 148.962 81.7983C149.614 81.7983 150.142 82.3282 150.142 82.9819Z" fill="#CBC5C5"/>
<path d="M154.271 60.0999C154.271 60.7536 153.743 61.2835 153.092 61.2835C152.44 61.2835 151.912 60.7536 151.912 60.0999C151.912 59.4463 152.44 58.9164 153.092 58.9164C153.743 58.9164 154.271 59.4463 154.271 60.0999Z" fill="#CBC5C5"/>
<path d="M145.226 64.0451C145.226 64.6988 144.698 65.2287 144.046 65.2287C143.395 65.2287 142.867 64.6988 142.867 64.0451C142.867 63.3914 143.395 62.8616 144.046 62.8616C144.698 62.8616 145.226 63.3914 145.226 64.0451Z" fill="#CBC5C5"/>
<path d="M150.339 46.4892C150.339 47.1428 149.811 47.6727 149.159 47.6727C148.507 47.6727 147.979 47.1428 147.979 46.4892C147.979 45.8355 148.507 45.3056 149.159 45.3056C149.811 45.3056 150.339 45.8355 150.339 46.4892Z" fill="#CBC5C5"/>
<path d="M142.277 40.9659C142.277 41.6196 141.749 42.1495 141.097 42.1495C140.445 42.1495 139.917 41.6196 139.917 40.9659C139.917 40.3123 140.445 39.7824 141.097 39.7824C141.749 39.7824 142.277 40.3123 142.277 40.9659Z" fill="#CBC5C5"/>
<path d="M128.709 36.8235C128.709 37.4772 128.181 38.0071 127.529 38.0071C126.878 38.0071 126.35 37.4772 126.35 36.8235C126.35 36.1699 126.878 35.64 127.529 35.64C128.181 35.64 128.709 36.1699 128.709 36.8235Z" fill="#CBC5C5"/>
<path d="M114.748 21.2401C114.748 21.8938 114.22 22.4237 113.568 22.4237C112.917 22.4237 112.389 21.8938 112.389 21.2401C112.389 20.5865 112.917 20.0566 113.568 20.0566C114.22 20.0566 114.748 20.5865 114.748 21.2401Z" fill="#CBC5C5"/>
<path d="M123.99 14.3361C123.99 14.9898 123.462 15.5197 122.81 15.5197C122.159 15.5197 121.63 14.9898 121.63 14.3361C121.63 13.6825 122.159 13.1526 122.81 13.1526C123.462 13.1526 123.99 13.6825 123.99 14.3361Z" fill="#CBC5C5"/>
<path d="M99.0176 13.1526C99.0176 13.8062 98.4894 14.3361 97.8378 14.3361C97.1862 14.3361 96.658 13.8062 96.658 13.1526C96.658 12.4989 97.1862 11.969 97.8378 11.969C98.4894 11.969 99.0176 12.4989 99.0176 13.1526Z" fill="#CBC5C5"/>
<path d="M99.8041 3.68419C99.8041 4.33785 99.2759 4.86774 98.6243 4.86774C97.9727 4.86774 97.4445 4.33785 97.4445 3.68419C97.4445 3.03054 97.9727 2.50065 98.6243 2.50065C99.2759 2.50065 99.8041 3.03054 99.8041 3.68419Z" fill="#CBC5C5"/>
<path d="M119.467 142.159C119.73 142.883 120.097 144.566 119.467 145.513C126.157 144.273 137.093 134.609 136.378 127.365C130.273 129.111 126.634 132.207 119.467 142.159Z" fill="#CBC5C5"/>
<path d="M127.136 125.984C127.529 120.264 135.591 109.809 137.164 110.598C138.737 111.387 137.951 125.59 131.462 128.351C130.99 127.247 128.381 126.313 127.136 125.984Z" fill="#CBC5C5"/>
<path d="M131.659 140.384C134.805 137.031 140.507 133.677 145.816 134.466C144.44 139.792 136.181 142.948 132.838 144.526C133.232 143.343 132.642 140.976 131.659 140.384Z" fill="#CBC5C5"/>
<path d="M125.956 149.852C126.546 148.077 125.563 146.302 126.153 146.104C126.625 145.947 129.496 145.776 130.872 145.71C129.535 147.434 128.492 148.353 125.956 149.852Z" fill="#CBC5C5"/>
<path d="M136.378 125.984C137.164 121.842 143.457 111.584 146.209 112.571C148.962 113.557 145.226 128.746 137.558 132.494C139.524 128.351 138.393 125.984 136.378 125.984Z" fill="#CBC5C5"/>
<path d="M138.541 110.203C138.934 104.483 137.951 101.919 139.917 97.7762C141.884 93.6338 142.473 94.0283 143.26 94.2256C144.046 94.4228 146.013 100.341 145.226 104.68C144.597 108.152 143.653 111.387 143.26 112.571C142.932 111.847 142.041 110.282 141.097 109.809C140.153 109.336 139 109.875 138.541 110.203Z" fill="#CBC5C5"/>
<path d="M145.226 111.782C145.403 102.905 151.322 94.8371 153.092 95.0146C157.024 95.4091 153.878 113.754 148.569 116.121C148.569 111.782 147.389 110.203 145.226 111.782Z" fill="#CBC5C5"/>
<path d="M139.524 133.085C145.423 129.337 144.243 126.576 147.783 123.222C150.614 120.54 154.337 119.475 155.844 119.277C152.84 127.891 149.55 131.19 139.524 133.085Z" fill="#CBC5C5"/>
<path d="M149.356 119.869C150.535 114.442 158.597 102.905 160.957 104.088C160.957 106.653 156.736 113.754 155.844 117.699C152.856 118.015 150.273 119.277 149.356 119.869Z" fill="#CBC5C5"/>
<path d="M141.49 80.2203C145.226 81.7983 150.142 87.5188 148.962 95.8036C147.704 94.2256 146.341 94.6201 145.816 95.0146C145.174 93.2603 144.658 92.6724 143.26 92.8448C140.996 87.8957 140.863 85.1346 141.49 80.2203Z" fill="#CBC5C5"/>
<path d="M153.878 73.7107C156.434 76.2751 158.968 87.1285 155.844 96.5927C153.7 93.3904 152.664 93.9851 150.732 93.831C150.216 90.8812 150.093 87.8919 150.236 85.1517C150.533 84.8229 151.165 83.9287 151.322 82.9819C151.479 82.035 150.956 81.2723 150.675 81.0093C151.365 76.7859 152.669 73.8226 153.878 73.7107Z" fill="#CBC5C5"/>
<path d="M161.94 87.1243C161.94 92.8448 161.018 95.8816 160.957 102.313C160.367 103.694 158.204 103.497 158.597 99.5515C158.316 100.492 156.512 101.396 156.828 96.7899C157.143 92.1842 161.94 87.1243 161.94 87.1243Z" fill="#CBC5C5"/>
<path d="M139.327 65.8204C139.502 73.0156 141.168 75.8925 145.226 80.2203C146.181 78.3103 147.979 81.0093 149.749 79.234C145.816 72.1327 147.389 69.9628 144.046 67.793C142.174 66.3731 141.15 66.1477 139.327 65.8204Z" fill="#CBC5C5"/>
<path d="M147.979 57.3383C153.878 63.4533 157.259 67.3427 155.844 75.2888C153.824 71.1041 152.547 72.1341 150.142 77.0641C146.59 69.2726 145.788 64.948 147.979 57.3383Z" fill="#CBC5C5"/>
<path d="M158.597 89.0969C157.911 83.1491 157.614 80.2203 158.204 77.0641C159.115 74.8731 160.04 73.8268 162.53 72.3299C163.479 77.4953 163.401 80.3813 162.53 85.5462C160.309 86.2633 159.651 87.2364 158.597 89.0969Z" fill="#CBC5C5"/>
<path d="M157.418 75.2888C158.204 68.7793 155.451 65.2287 155.451 61.2835C155.451 57.3383 158.204 54.9712 158.204 54.9712C159.982 62.0223 160.233 65.7562 160.367 72.3299C159.188 72.774 158.537 73.4615 157.418 75.2888Z" fill="#CBC5C5"/>
<path d="M133.822 51.8151C135.514 57.2269 136.956 59.9237 141.097 63.6506C141.664 62.0294 142.064 61.6046 142.867 61.2835C141.501 58.5754 141.287 57.0644 141.097 54.3795C136.957 51.6044 135.83 51.6782 133.822 51.8151Z" fill="#CBC5C5"/>
<path d="M144.636 60.0999C147.196 55.3277 148.377 55.1625 150.236 57.3383C150.142 53.2658 149.47 51.5823 147.979 48.8563C146.594 48.6541 146.343 47.8016 146.209 46.4892C144.082 44.2557 142.988 43.7567 141.097 43.333C141.215 50.4158 141.789 54.1738 144.636 60.0999Z" fill="#CBC5C5"/>
<path d="M151.912 44.1221C154.701 46.5605 155.83 48.6122 156.631 54.1822C155.875 54.8299 155.501 55.7449 154.861 57.7328C153.965 56.7355 153.446 56.5943 152.502 56.9438C150.585 52.038 150.582 49.2322 151.912 44.1221Z" fill="#CBC5C5"/>
<path d="M140.507 52.4069C139.357 44.756 133.822 38.9934 128.709 38.9934C126.743 38.9934 125.629 37.0208 124.973 38.0071C124.622 38.536 127.29 42.9503 131.069 46.6864C134.335 49.9165 138.592 52.5898 140.507 52.4069Z" fill="#CBC5C5"/>
<path d="M128.316 26.5661C135.272 28.2405 138.307 30.3062 141.097 37.4153C139.06 39.2253 137.53 39.9846 139.917 44.7138C131.709 38.2421 129.631 34.1954 128.316 26.5661Z" fill="#CBC5C5"/>
<path d="M142.277 29.1305C147.073 33.587 148.963 36.5575 151.125 42.544C151.128 43.5088 151.067 43.9981 150.535 44.5166C149.646 43.9986 148.911 43.8603 146.799 44.1221C142.723 38.0764 141.994 34.8154 142.277 29.1305Z" fill="#CBC5C5"/>
<path d="M115.535 17.295C124.421 17.7883 128.313 19.7904 133.232 26.5661C127.563 24.4314 126.216 24.8229 127.136 29.1305C120.536 25.259 118.382 22.5242 115.535 17.295Z" fill="#CBC5C5"/>
<path d="M125.17 14.1389C125.563 17.6895 134.608 24.5935 141.294 34.2592C138.934 27.3551 138.133 26.0202 141.097 27.9469C135.601 18.9581 132.061 16.1937 125.17 14.1389Z" fill="#CBC5C5"/>
<path d="M112.389 25.9743C113.791 24.4224 114.746 23.8281 117.698 24.199C121.463 27.5208 123.498 28.6647 126.972 30.6165L127.136 30.7085C127.753 31.5434 128.034 32.3077 128.316 33.6674C122.838 33.6789 119.324 31.9484 112.389 25.9743Z" fill="#CBC5C5"/>
<path d="M105.506 17.295C109.242 18.8731 114.158 18.2813 114.158 18.2813C114.292 15.3616 115.899 15.7372 118.091 15.5197C110.838 9.82028 106.523 8.43689 98.231 10.3707C102.164 11.969 99.8041 14.8864 105.506 17.295Z" fill="#CBC5C5"/>
<path d="M112.192 23.2127C104.858 23.14 101.623 21.9805 96.658 18.8731C97.5424 16.5173 98.4561 15.9991 101.181 15.7169C103.673 19.0471 105.933 20.0676 110.816 21.0429C111.006 22.0914 111.273 22.6556 112.192 23.2127Z" fill="#CBC5C5"/>
<path d="M101.181 2.89516C101.782 5.76179 102.512 7.22155 106.49 8.8129C109.986 9.6234 111.097 9.01722 118.681 14.9279C119.316 15.3274 119.66 15.4586 120.254 15.5197C120.165 13.868 120.317 13.0898 120.844 11.969C114.116 6.06275 109.635 4.51149 101.181 2.89516Z" fill="#CBC5C5"/>
<path d="M82.6971 15.5197C83.2238 14.0209 83.8449 13.3457 85.4499 12.3635C87.3573 13.445 89.3281 13.6784 94.2984 13.5471C95.561 14.2065 96.1067 14.6289 96.658 15.5197C91.7637 17.598 88.6846 17.591 82.6971 15.5197Z" fill="#CBC5C5"/>
<path d="M82.6971 0.133552C83.63 1.60732 84.3144 2.43004 86.0398 3.88145C90.2727 3.61194 92.4841 3.90341 96.2647 4.86774C96.0605 3.94535 96.1122 3.42357 96.2647 2.50065C90.1709 0.082413 87.2948 -0.247386 82.6971 0.133552Z" fill="#CBC5C5"/>
<path d="M77.9759 163.463C77.9759 163.463 79.9432 163.858 81.7129 163.858C83.4826 163.858 85.4499 163.463 85.4499 163.463C85.4164 163.263 85.384 163.066 85.3527 162.871C85.1091 161.36 84.9303 160.007 84.8123 158.729C84.7181 157.709 84.6628 156.737 84.6445 155.77C84.6296 154.985 84.639 154.203 84.6719 153.403C84.7003 152.711 84.7461 152.004 84.8088 151.269L84.8123 151.228C84.9489 149.64 85.1636 147.915 85.4499 145.907C85.4499 145.907 83.6792 145.513 81.7129 145.513C79.7466 145.513 77.9759 145.907 77.9759 145.907C78.2622 147.915 78.4769 149.64 78.6135 151.228L78.617 151.269C78.6796 152.004 78.7255 152.711 78.7539 153.403C78.7867 154.203 78.7962 154.985 78.7813 155.77C78.763 156.737 78.7076 157.709 78.6135 158.729C78.4955 160.007 78.3167 161.36 78.0731 162.871C78.0418 163.066 78.0094 163.263 77.9759 163.463Z" fill="#CBC5C5"/>
<path fill-rule="evenodd" clip-rule="evenodd" d="M77.9759 145.907C77.9759 145.907 79.7466 145.513 81.7129 145.513C83.6792 145.513 85.4499 145.907 85.4499 145.907C85.1636 147.915 84.9489 149.64 84.8123 151.228C86.2365 143.935 89.7758 140.581 91.5455 138.411C94.6917 138.411 97.0513 141.173 99.6075 141.173C102.36 141.173 102.36 141.173 102.36 143.343C102.36 145.513 101.967 148.669 100.001 150.247C98.0344 151.825 95.0849 153.206 94.1018 153.206C93.1186 153.206 87.6129 152.219 87.8095 151.036C88.0061 149.852 91.7422 149.852 92.7253 149.852C93.7085 149.852 98.821 149.458 99.2142 148.077C99.6075 146.696 97.0513 147.091 94.8883 145.907C92.7253 144.724 91.7422 142.751 89.9725 145.907C88.2167 149.038 84.6912 152.937 84.8088 151.269C84.7461 152.004 84.7003 152.711 84.6719 153.403C89.1859 153.206 95.6748 155.376 100.394 155.178C100.984 152.022 103.933 149.852 104.917 149.852C105.9 149.852 109.439 155.178 111.995 155.178C113.765 155.178 116.518 153.403 116.518 151.825C117.622 152.071 118.75 152.624 119.148 154.587L120.451 153.797C119.705 149.23 118.505 147.912 114.158 149.063C115.377 150.705 115.411 151.564 114.158 153.206C112.743 152.732 112.389 149.852 112.389 148.471C115.141 146.499 116.125 150.247 123.99 145.513C124.683 146.941 124.651 147.809 124.383 151.228L125.956 149.852C126.546 148.077 125.563 146.302 126.153 146.104C126.625 145.947 129.496 145.776 130.872 145.71L132.838 144.526C133.232 143.343 132.642 140.976 131.659 140.384C134.805 137.031 140.507 133.677 145.816 134.466L139.524 133.085C145.423 129.337 144.243 126.576 147.783 123.222C150.614 120.54 154.337 119.475 155.844 119.277V117.699C152.856 118.015 150.273 119.277 149.356 119.869C150.535 114.442 158.597 102.905 160.957 104.088V102.313C160.367 103.694 158.204 103.497 158.597 99.5515C158.316 100.492 156.512 101.396 156.828 96.7899C157.143 92.1842 161.94 87.1243 161.94 87.1243L162.53 85.5462C160.309 86.2633 159.651 87.2364 158.597 89.0969C157.911 83.1491 157.614 80.2203 158.204 77.0641C159.115 74.8731 160.04 73.8268 162.53 72.3299H160.367C159.188 72.774 158.537 73.4615 157.418 75.2888C158.204 68.7793 155.451 65.2287 155.451 61.2835C155.451 57.3383 158.204 54.9712 158.204 54.9712L156.631 54.1822C155.875 54.8299 155.501 55.7449 154.861 57.7328C153.965 56.7355 153.446 56.5943 152.502 56.9438C150.585 52.038 150.582 49.2322 151.912 44.1221L151.125 42.544C151.128 43.5088 151.067 43.9981 150.535 44.5166C149.646 43.9986 148.911 43.8603 146.799 44.1221C142.723 38.0764 141.994 34.8154 142.277 29.1305L141.097 27.9469C138.133 26.0202 138.934 27.3551 141.294 34.2592C134.608 24.5935 125.563 17.6895 125.17 14.1389L123.99 14.3361C123.99 14.9898 123.462 15.5197 122.81 15.5197C122.159 15.5197 121.63 14.9898 121.63 14.3361L120.844 11.969C120.317 13.0898 120.165 13.868 120.254 15.5197C119.66 15.4586 119.316 15.3274 118.681 14.9279C111.097 9.01722 109.986 9.6234 106.49 8.8129C102.512 7.22155 101.782 5.76179 101.181 2.89516L99.8041 3.68419C99.8041 4.33785 99.2759 4.86774 98.6243 4.86774C97.9727 4.86774 97.4445 4.33785 97.4445 3.68419L96.2647 2.50065C96.1122 3.42357 96.0605 3.94535 96.2647 4.86774C92.4841 3.90341 90.2727 3.61194 86.0398 3.88145C84.3144 2.43004 83.63 1.60732 82.6971 0.133552H82.6961H80.7297H80.7287C79.7958 1.60732 79.1114 2.43004 77.386 3.88145C73.1531 3.61194 70.9417 3.90341 67.1611 4.86774C67.3653 3.94535 67.3136 3.42357 67.1611 2.50065L65.9813 3.68419C65.9813 4.33785 65.453 4.86774 64.8015 4.86774C64.1499 4.86774 63.6217 4.33785 63.6217 3.68419L62.2452 2.89516C61.6443 5.76179 60.9137 7.22155 56.9362 8.8129C53.4394 9.6234 52.3286 9.01722 44.7449 14.9279C44.11 15.3274 43.7653 15.4586 43.1719 15.5197C43.2605 13.868 43.1086 13.0898 42.582 11.969L41.7954 14.3361C41.7954 14.9898 41.2672 15.5197 40.6156 15.5197C39.9641 15.5197 39.4358 14.9898 39.4358 14.3361L38.256 14.1389C37.8628 17.6895 28.8177 24.5935 22.1322 34.2592C24.4917 27.3551 25.2928 26.0202 22.3288 27.9469L21.149 29.1305C21.432 34.8154 20.7024 38.0764 16.6264 44.1221C14.5146 43.8603 13.7798 43.9986 12.8904 44.5166C12.3586 43.9981 12.2981 43.5088 12.3005 42.544L11.514 44.1221C12.8438 49.2322 12.8412 52.038 10.9241 56.9438C9.97931 56.5943 9.46117 56.7355 8.56449 57.7328C7.92507 55.7449 7.55108 54.8299 6.7948 54.1822L5.22173 54.9712C5.22173 54.9712 7.97459 57.3383 7.97459 61.2835C7.97459 65.2287 5.22173 68.7793 6.00827 75.2888C4.88928 73.4615 4.2382 72.774 3.05877 72.3299H0.895813C3.38585 73.8268 4.31082 74.8731 5.22173 77.0641C5.81163 80.2203 5.51483 83.1491 4.82847 89.0969C3.77467 87.2364 3.11674 86.2633 0.895813 85.5462L1.48571 87.1243C1.48571 87.1243 6.28294 92.1842 6.59816 96.7899C6.91339 101.396 5.10969 100.492 4.82847 99.5515C5.22173 103.497 3.05877 103.694 2.46888 102.313V104.088C4.82847 102.905 12.8904 114.442 14.0702 119.869C13.1526 119.277 10.5701 118.015 7.58133 117.699V119.277C9.08885 119.475 12.8118 120.54 15.6433 123.222C19.1827 126.576 18.0029 129.337 23.9018 133.085L17.6096 134.466C22.9187 133.677 28.621 137.031 31.7672 140.384C30.784 140.976 30.1941 143.343 30.5874 144.526L32.5537 145.71C33.9301 145.776 36.801 145.947 37.2729 146.104C37.8628 146.302 36.8796 148.077 37.4695 149.852L39.0426 151.228C38.7747 147.809 38.7427 146.941 39.4358 145.513C47.3011 150.247 48.2843 146.499 51.0372 148.471C51.0372 149.852 50.6832 152.732 49.2675 153.206C48.0147 151.564 48.0485 150.705 49.2675 149.063C44.9211 147.912 43.7212 149.23 42.9752 153.797L44.2781 154.587C44.6761 152.624 45.8037 152.071 46.9079 151.825C46.9079 153.403 49.6607 155.178 51.4304 155.178C53.9867 155.178 57.5261 149.852 58.5092 149.852C59.4924 149.852 62.4419 152.022 63.0318 155.178C67.751 155.376 74.2398 153.206 78.7539 153.403C78.7255 152.711 78.6796 152.004 78.617 151.269C78.7346 152.937 75.2091 149.038 73.4533 145.907C71.6836 142.751 70.7004 144.724 68.5375 145.907C66.3745 147.091 63.8183 146.696 64.2116 148.077C64.6048 149.458 69.7173 149.852 70.7004 149.852C71.6836 149.852 75.4196 149.852 75.6163 151.036C75.8129 152.219 70.3072 153.206 69.324 153.206C68.3409 153.206 65.3914 151.825 63.425 150.247C61.4587 148.669 61.0654 145.513 61.0654 143.343C61.0654 141.173 61.0654 141.173 63.8183 141.173C66.3745 141.173 68.7341 138.411 71.8802 138.411C73.6499 140.581 77.1893 143.935 78.6135 151.228C78.4769 149.64 78.2622 147.915 77.9759 145.907ZM60.4755 140.778C60.4755 141.962 59.2957 140.778 59.2957 143.343C59.2957 144.447 60.6722 145.907 60.4755 148.274C58.372 146.515 57.2136 145.773 55.1665 144.724C54.9698 144.395 54.4193 142.948 53.79 139.792C53.0035 135.847 56.1496 137.228 58.116 138.214C59.689 139.003 60.3445 140.252 60.4755 140.778ZM45.1382 143.343C50.2506 143.343 56.5429 145.907 59.2957 148.471C56.9755 149.046 56.0434 149.599 55.1665 151.036C54.6421 150.115 53.1608 148.077 51.4304 147.288C49.2675 146.302 47.4978 147.485 46.1214 146.499C44.7449 145.513 45.1382 144.329 45.1382 143.343ZM51.0372 140.187C50.7094 140.515 50.3293 141.489 50.6439 142.751L46.5146 142.554C39.1934 135.552 38.012 132.222 38.8459 125.392C44.671 130.03 47.6965 132.94 51.0372 140.187ZM43.9584 145.513C43.3292 144.566 43.6962 142.883 43.9584 142.159C36.7915 132.207 33.1524 129.111 27.048 127.365C26.3325 134.609 37.2692 144.273 43.9584 145.513ZM33.5369 144.526C32.8853 144.526 32.3571 143.996 32.3571 143.343C32.3571 142.689 32.8853 142.159 33.5369 142.159C34.1884 142.159 34.7167 142.689 34.7167 143.343C34.7167 143.996 34.1884 144.526 33.5369 144.526ZM36.2897 130.521C35.6381 130.521 35.1099 129.991 35.1099 129.337C35.1099 128.684 35.6381 128.154 36.2897 128.154C36.9413 128.154 37.4695 128.684 37.4695 129.337C37.4695 129.991 36.9413 130.521 36.2897 130.521ZM22.722 114.149C22.0705 114.149 21.5423 113.619 21.5423 112.965C21.5423 112.311 22.0705 111.782 22.722 111.782C23.3736 111.782 23.9018 112.311 23.9018 112.965C23.9018 113.619 23.3736 114.149 22.722 114.149ZM6.40153 104.088C5.74995 104.088 5.22173 103.559 5.22173 102.905C5.22173 102.251 5.74995 101.721 6.40153 101.721C7.05311 101.721 7.58133 102.251 7.58133 102.905C7.58133 103.559 7.05311 104.088 6.40153 104.088ZM16.0365 98.9598C15.385 98.9598 14.8567 98.4299 14.8567 97.7762C14.8567 97.1225 15.385 96.5927 16.0365 96.5927C16.6881 96.5927 17.2163 97.1225 17.2163 97.7762C17.2163 98.4299 16.6881 98.9598 16.0365 98.9598ZM14.4635 84.1654C13.8119 84.1654 13.2837 83.6355 13.2837 82.9819C13.2837 82.3282 13.8119 81.7983 14.4635 81.7983C15.1151 81.7983 15.6433 82.3282 15.6433 82.9819C15.6433 83.6355 15.1151 84.1654 14.4635 84.1654ZM10.3342 61.2835C9.6826 61.2835 9.15439 60.7536 9.15439 60.0999C9.15439 59.4463 9.6826 58.9164 10.3342 58.9164C10.9858 58.9164 11.514 59.4463 11.514 60.0999C11.514 60.7536 10.9858 61.2835 10.3342 61.2835ZM19.3793 65.2287C18.7277 65.2287 18.1995 64.6988 18.1995 64.0451C18.1995 63.3914 18.7277 62.8616 19.3793 62.8616C20.0309 62.8616 20.5591 63.3914 20.5591 64.0451C20.5591 64.6988 20.0309 65.2287 19.3793 65.2287ZM14.2668 47.6727C13.6153 47.6727 13.087 47.1428 13.087 46.4892C13.087 45.8355 13.6153 45.3056 14.2668 45.3056C14.9184 45.3056 15.4466 45.8355 15.4466 46.4892C15.4466 47.1428 14.9184 47.6727 14.2668 47.6727ZM22.3288 42.1495C21.6772 42.1495 21.149 41.6196 21.149 40.9659C21.149 40.3123 21.6772 39.7824 22.3288 39.7824C22.9804 39.7824 23.5086 40.3123 23.5086 40.9659C23.5086 41.6196 22.9804 42.1495 22.3288 42.1495ZM35.8964 38.0071C35.2449 38.0071 34.7167 37.4772 34.7167 36.8235C34.7167 36.1699 35.2449 35.64 35.8964 35.64C36.548 35.64 37.0762 36.1699 37.0762 36.8235C37.0762 37.4772 36.548 38.0071 35.8964 38.0071ZM49.8574 22.4237C49.2058 22.4237 48.6776 21.8938 48.6776 21.2401C48.6776 20.5865 49.2058 20.0566 49.8574 20.0566C50.509 20.0566 51.0372 20.5865 51.0372 21.2401C51.0372 21.8938 50.509 22.4237 49.8574 22.4237ZM65.588 14.3361C64.9364 14.3361 64.4082 13.8062 64.4082 13.1526C64.4082 12.4989 64.9364 11.969 65.588 11.969C66.2396 11.969 66.7678 12.4989 66.7678 13.1526C66.7678 13.8062 66.2396 14.3361 65.588 14.3361ZM26.2614 110.598C27.8345 109.809 35.8964 120.264 36.2897 125.984C35.0444 126.313 32.4357 127.247 31.9638 128.351C25.4749 125.59 24.6884 111.387 26.2614 110.598ZM17.2163 112.571C19.9692 111.584 26.2614 121.842 27.048 125.984C25.0323 125.984 23.9018 128.351 25.8682 132.494C18.1995 128.746 14.4635 113.557 17.2163 112.571ZM23.5086 97.7762C25.4749 101.919 24.4917 104.483 24.885 110.203C24.4262 109.875 23.2726 109.336 22.3288 109.809C21.3849 110.282 20.4935 111.847 20.1658 112.571C19.7726 111.387 18.8287 108.152 18.1995 104.68C17.413 100.341 19.3793 94.4228 20.1658 94.2256C20.9524 94.0283 21.5423 93.6338 23.5086 97.7762ZM10.3342 95.0146C12.1039 94.8371 18.0231 102.905 18.1995 111.782C16.0365 110.203 14.8567 111.782 14.8567 116.121C9.54766 113.754 6.40153 95.4091 10.3342 95.0146ZM14.4635 95.8036C13.2837 87.5188 18.1995 81.7983 21.9355 80.2203C22.5626 85.1346 22.4296 87.8957 20.1658 92.8448C18.7675 92.6724 18.2521 93.2603 17.6096 95.0146C17.0852 94.6201 15.7219 94.2256 14.4635 95.8036ZM7.58133 96.5927C4.45823 87.1285 6.99143 76.2751 9.54766 73.7107C10.7571 73.8226 12.061 76.7859 12.751 81.0093C12.4698 81.2723 11.9466 82.035 12.1039 82.9819C12.2612 83.9287 12.8931 84.8229 13.1894 85.1517C13.3325 87.8919 13.2102 90.8812 12.6938 93.831C10.7617 93.9851 9.72568 93.3904 7.58133 96.5927ZM18.1995 80.2203C22.2575 75.8925 23.9243 73.0156 24.0985 65.8204C22.2754 66.1477 21.2517 66.3731 19.3793 67.793C16.0365 69.9628 17.6096 72.1327 13.6769 79.234C15.4466 81.0093 17.2443 78.3103 18.1995 80.2203ZM7.58133 75.2888C6.16697 67.3427 9.54766 63.4533 15.4466 57.3383C17.6376 64.948 16.8353 69.2726 13.2837 77.0641C10.8793 72.1341 9.60138 71.1041 7.58133 75.2888ZM22.3288 63.6506C26.4697 59.9237 27.9116 57.2269 29.6042 51.8151C27.5954 51.6782 26.4686 51.6044 22.3288 54.3795C22.1389 57.0644 21.9244 58.5754 20.5591 61.2835C21.3619 61.6046 21.7618 62.0294 22.3288 63.6506ZM13.1894 57.3383C15.0486 55.1625 16.2296 55.3277 18.7894 60.0999C21.6365 54.1738 22.2103 50.4158 22.3288 43.333C20.4379 43.7567 19.3435 44.2557 17.2163 46.4892C17.0824 47.8016 16.8322 48.6541 15.4466 48.8563C13.9561 51.5823 13.284 53.2658 13.1894 57.3383ZM34.7167 38.9934C29.6042 38.9934 24.0685 44.756 22.9187 52.4069C24.8333 52.5898 29.0904 49.9165 32.3571 46.6864C36.1355 42.9503 38.8042 38.536 38.4527 38.0071C37.7972 37.0208 36.683 38.9934 34.7167 38.9934ZM22.3288 37.4153C25.1191 30.3062 28.1539 28.2405 35.1099 26.5661C33.7951 34.1954 31.7167 38.2421 23.5086 44.7138C25.896 39.9846 24.3655 39.2253 22.3288 37.4153ZM30.1941 26.5661C35.1125 19.7904 39.0049 17.7883 47.891 17.295C45.0435 22.5242 42.8893 25.259 36.2897 29.1305C37.2097 24.8229 35.8629 24.4314 30.1941 26.5661ZM45.7281 24.199C48.6798 23.8281 49.6348 24.4224 51.0372 25.9743C44.1016 31.9484 40.5877 33.6789 35.1099 33.6674C35.3915 32.3077 35.6728 31.5434 36.2897 30.7085L36.4534 30.6165C39.9274 28.6647 41.9632 27.5208 45.7281 24.199ZM49.2675 18.2813C49.2675 18.2813 54.1833 18.8731 57.9193 17.295C63.6217 14.8864 61.2621 11.969 65.1947 10.3707C56.9024 8.43689 52.5878 9.82028 45.3348 15.5197C47.5266 15.7372 49.1337 15.3616 49.2675 18.2813ZM66.7678 18.8731C61.8033 21.9805 58.5681 23.14 51.2338 23.2127C52.1532 22.6556 52.42 22.0914 52.6102 21.0429C57.4924 20.0676 59.7528 19.0471 62.2452 15.7169C64.9697 15.9991 65.8834 16.5173 66.7678 18.8731ZM81.7129 8.90762C78.7851 10.7866 77.1149 11.5745 72.8634 11.5745C69.4581 11.5745 68.1261 10.7657 66.9038 10.0235C65.8675 9.39425 64.9101 8.8129 62.8351 8.8129C70.1005 4.02894 74.5533 3.65858 81.7129 6.73397C88.8725 3.65858 93.3253 4.02894 100.591 8.8129C98.5156 8.8129 97.5583 9.39425 96.522 10.0235C95.2997 10.7657 93.9677 11.5745 90.5624 11.5745C86.3109 11.5745 84.6407 10.7866 81.7129 8.90762ZM77.9759 12.3635C79.5809 13.3457 80.202 14.0209 80.7287 15.5197C74.7412 17.591 71.6621 17.598 66.7678 15.5197C67.3191 14.6289 67.8648 14.2065 69.1274 13.5471C74.0976 13.6784 76.0685 13.445 77.9759 12.3635ZM102.95 140.778C102.95 141.962 104.13 140.778 104.13 143.343C104.13 144.447 102.754 145.907 102.95 148.274C105.054 146.515 106.212 145.773 108.259 144.724C108.456 144.395 109.007 142.948 109.636 139.792C110.422 135.847 107.276 137.228 105.31 138.214C103.737 139.003 103.081 140.252 102.95 140.778ZM118.288 143.343C113.175 143.343 106.883 145.907 104.13 148.471C106.45 149.046 107.382 149.599 108.259 151.036C108.784 150.115 110.265 148.077 111.995 147.288C114.158 146.302 115.928 147.485 117.304 146.499C118.681 145.513 118.288 144.329 118.288 143.343ZM112.389 140.187C112.716 140.515 113.096 141.489 112.782 142.751L116.911 142.554C124.232 135.552 125.414 132.222 124.58 125.392C118.755 130.03 115.729 132.94 112.389 140.187ZM119.467 145.513C120.097 144.566 119.73 142.883 119.467 142.159C126.634 132.207 130.273 129.111 136.378 127.365C137.093 134.609 126.157 144.273 119.467 145.513ZM129.889 144.526C130.541 144.526 131.069 143.996 131.069 143.343C131.069 142.689 130.541 142.159 129.889 142.159C129.237 142.159 128.709 142.689 128.709 143.343C128.709 143.996 129.237 144.526 129.889 144.526ZM127.136 130.521C127.788 130.521 128.316 129.991 128.316 129.337C128.316 128.684 127.788 128.154 127.136 128.154C126.484 128.154 125.956 128.684 125.956 129.337C125.956 129.991 126.484 130.521 127.136 130.521ZM140.704 114.149C141.355 114.149 141.884 113.619 141.884 112.965C141.884 112.311 141.355 111.782 140.704 111.782C140.052 111.782 139.524 112.311 139.524 112.965C139.524 113.619 140.052 114.149 140.704 114.149ZM157.024 104.088C157.676 104.088 158.204 103.559 158.204 102.905C158.204 102.251 157.676 101.721 157.024 101.721C156.373 101.721 155.844 102.251 155.844 102.905C155.844 103.559 156.373 104.088 157.024 104.088ZM147.389 98.9598C148.041 98.9598 148.569 98.4299 148.569 97.7762C148.569 97.1225 148.041 96.5927 147.389 96.5927C146.738 96.5927 146.209 97.1225 146.209 97.7762C146.209 98.4299 146.738 98.9598 147.389 98.9598ZM148.962 84.1654C149.614 84.1654 150.142 83.6355 150.142 82.9819C150.142 82.3282 149.614 81.7983 148.962 81.7983C148.311 81.7983 147.783 82.3282 147.783 82.9819C147.783 83.6355 148.311 84.1654 148.962 84.1654ZM153.092 61.2835C153.743 61.2835 154.271 60.7536 154.271 60.0999C154.271 59.4463 153.743 58.9164 153.092 58.9164C152.44 58.9164 151.912 59.4463 151.912 60.0999C151.912 60.7536 152.44 61.2835 153.092 61.2835ZM144.046 65.2287C144.698 65.2287 145.226 64.6988 145.226 64.0451C145.226 63.3914 144.698 62.8616 144.046 62.8616C143.395 62.8616 142.867 63.3914 142.867 64.0451C142.867 64.6988 143.395 65.2287 144.046 65.2287ZM149.159 47.6727C149.811 47.6727 150.339 47.1428 150.339 46.4892C150.339 45.8355 149.811 45.3056 149.159 45.3056C148.507 45.3056 147.979 45.8355 147.979 46.4892C147.979 47.1428 148.507 47.6727 149.159 47.6727ZM141.097 42.1495C141.749 42.1495 142.277 41.6196 142.277 40.9659C142.277 40.3123 141.749 39.7824 141.097 39.7824C140.445 39.7824 139.917 40.3123 139.917 40.9659C139.917 41.6196 140.445 42.1495 141.097 42.1495ZM127.529 38.0071C128.181 38.0071 128.709 37.4772 128.709 36.8235C128.709 36.1699 128.181 35.64 127.529 35.64C126.878 35.64 126.35 36.1699 126.35 36.8235C126.35 37.4772 126.878 38.0071 127.529 38.0071ZM113.568 22.4237C114.22 22.4237 114.748 21.8938 114.748 21.2401C114.748 20.5865 114.22 20.0566 113.568 20.0566C112.917 20.0566 112.389 20.5865 112.389 21.2401C112.389 21.8938 112.917 22.4237 113.568 22.4237ZM97.8378 14.3361C98.4894 14.3361 99.0176 13.8062 99.0176 13.1526C99.0176 12.4989 98.4894 11.969 97.8378 11.969C97.1862 11.969 96.658 12.4989 96.658 13.1526C96.658 13.8062 97.1862 14.3361 97.8378 14.3361ZM137.164 110.598C135.591 109.809 127.529 120.264 127.136 125.984C128.381 126.313 130.99 127.247 131.462 128.351C137.951 125.59 138.737 111.387 137.164 110.598ZM146.209 112.571C143.457 111.584 137.164 121.842 136.378 125.984C138.393 125.984 139.524 128.351 137.558 132.494C145.226 128.746 148.962 113.557 146.209 112.571ZM139.917 97.7762C137.951 101.919 138.934 104.483 138.541 110.203C139 109.875 140.153 109.336 141.097 109.809C142.041 110.282 142.932 111.847 143.26 112.571C143.653 111.387 144.597 108.152 145.226 104.68C146.013 100.341 144.046 94.4228 143.26 94.2256C142.473 94.0283 141.884 93.6338 139.917 97.7762ZM153.092 95.0146C151.322 94.8371 145.403 102.905 145.226 111.782C147.389 110.203 148.569 111.782 148.569 116.121C153.878 113.754 157.024 95.4091 153.092 95.0146ZM148.962 95.8036C150.142 87.5188 145.226 81.7983 141.49 80.2203C140.863 85.1346 140.996 87.8957 143.26 92.8448C144.658 92.6724 145.174 93.2603 145.816 95.0146C146.341 94.6201 147.704 94.2256 148.962 95.8036ZM155.844 96.5927C158.968 87.1285 156.434 76.2751 153.878 73.7107C152.669 73.8226 151.365 76.7859 150.675 81.0093C150.956 81.2723 151.479 82.035 151.322 82.9819C151.165 83.9287 150.533 84.8229 150.236 85.1517C150.093 87.8919 150.216 90.8812 150.732 93.831C152.664 93.9851 153.7 93.3904 155.844 96.5927ZM145.226 80.2203C141.168 75.8925 139.502 73.0156 139.327 65.8204C141.15 66.1477 142.174 66.3731 144.046 67.793C147.389 69.9628 145.816 72.1327 149.749 79.234C147.979 81.0093 146.181 78.3103 145.226 80.2203ZM155.844 75.2888C157.259 67.3427 153.878 63.4533 147.979 57.3383C145.788 64.948 146.59 69.2726 150.142 77.0641C152.547 72.1341 153.824 71.1041 155.844 75.2888ZM141.097 63.6506C136.956 59.9237 135.514 57.2269 133.822 51.8151C135.83 51.6782 136.957 51.6044 141.097 54.3795C141.287 57.0644 141.501 58.5754 142.867 61.2835C142.064 61.6046 141.664 62.0294 141.097 63.6506ZM150.236 57.3383C148.377 55.1625 147.196 55.3277 144.636 60.0999C141.789 54.1738 141.215 50.4158 141.097 43.333C142.988 43.7567 144.082 44.2557 146.209 46.4892C146.343 47.8016 146.594 48.6541 147.979 48.8563C149.47 51.5823 150.142 53.2658 150.236 57.3383ZM128.709 38.9934C133.822 38.9934 139.357 44.756 140.507 52.4069C138.592 52.5898 134.335 49.9165 131.069 46.6864C127.29 42.9503 124.622 38.536 124.973 38.0071C125.629 37.0208 126.743 38.9934 128.709 38.9934ZM141.097 37.4153C138.307 30.3062 135.272 28.2405 128.316 26.5661C129.631 34.1954 131.709 38.2421 139.917 44.7138C137.53 39.9846 139.06 39.2253 141.097 37.4153ZM133.232 26.5661C128.313 19.7904 124.421 17.7883 115.535 17.295C118.382 22.5242 120.536 25.259 127.136 29.1305C126.216 24.8229 127.563 24.4314 133.232 26.5661ZM117.698 24.199C114.746 23.8281 113.791 24.4224 112.389 25.9743C119.324 31.9484 122.838 33.6789 128.316 33.6674C128.034 32.3077 127.753 31.5434 127.136 30.7085L126.972 30.6165C123.498 28.6647 121.463 27.5208 117.698 24.199ZM114.158 18.2813C114.158 18.2813 109.242 18.8731 105.506 17.295C99.8041 14.8864 102.164 11.969 98.231 10.3707C106.523 8.43689 110.838 9.82028 118.091 15.5197C115.899 15.7372 114.292 15.3616 114.158 18.2813ZM96.658 18.8731C101.623 21.9805 104.858 23.14 112.192 23.2127C111.273 22.6556 111.006 22.0914 110.816 21.0429C105.933 20.0676 103.673 19.0471 101.181 15.7169C98.4561 15.9991 97.5424 16.5173 96.658 18.8731ZM85.4499 12.3635C83.8449 13.3457 83.2238 14.0209 82.6971 15.5197C88.6846 17.591 91.7637 17.598 96.658 15.5197C96.1067 14.6289 95.561 14.2065 94.2984 13.5471C89.3281 13.6784 87.3573 13.445 85.4499 12.3635Z" fill="#6F6C6C"/>
<path fill-rule="evenodd" clip-rule="evenodd" d="M81.7129 6.73397C88.8725 3.65858 93.3253 4.02894 100.591 8.8129C98.5156 8.8129 97.5583 9.39425 96.522 10.0235C95.2997 10.7657 93.9677 11.5745 90.5624 11.5745C86.3109 11.5745 84.6407 10.7866 81.7129 8.90762C82.0714 8.67758 82.4487 8.43118 82.8519 8.16787C83.1156 7.99565 83.3904 7.8162 83.6782 7.62935C82.9994 7.30443 82.3456 7.00574 81.7129 6.73397ZM81.7129 6.73397C81.0802 7.00574 80.4264 7.30443 79.7476 7.62935C80.0354 7.8162 80.3102 7.99565 80.5739 8.16787C80.9771 8.43118 81.3544 8.67758 81.7129 8.90762C78.7851 10.7866 77.1149 11.5745 72.8634 11.5745C69.4581 11.5745 68.1261 10.7657 66.9038 10.0235C65.8675 9.39425 64.9101 8.8129 62.8351 8.8129C70.1005 4.02894 74.5533 3.65858 81.7129 6.73397Z" fill="#CBC5C5"/>
<path d="M81.7129 6.73397C81.0802 7.00574 80.4264 7.30443 79.7476 7.62935C80.0354 7.8162 80.3102 7.99565 80.5739 8.16787C80.9771 8.43118 81.3544 8.67758 81.7129 8.90762C82.0714 8.67758 82.4487 8.43118 82.8519 8.16787C83.1156 7.99565 83.3904 7.8162 83.6782 7.62935C82.9994 7.30443 82.3456 7.00574 81.7129 6.73397Z" fill="#6F6C6C"/>
<path d="M84.6445 155.77C84.6628 156.737 84.7181 157.709 84.8123 158.729C85.2652 160.051 95.2139 161.374 100.622 163.858L101.574 162.082C98.6243 162.674 89.5792 156.165 84.6445 155.77Z" fill="#6F6C6C"/>
<path d="M78.6135 158.729C78.7076 157.709 78.763 156.737 78.7813 155.77C73.8466 156.165 64.8015 162.674 61.852 162.082L62.8034 163.858C68.2119 161.374 78.1606 160.051 78.6135 158.729Z" fill="#6F6C6C"/>
<path fill-rule="evenodd" clip-rule="evenodd" d="M73.0689 86.977C73.5758 86.5434 74.3391 86.6019 74.7737 87.1076L79.2148 92.2753C79.6494 92.7809 79.5908 93.5424 79.0839 93.9759C78.5769 94.4094 77.8137 94.351 77.3791 93.8453L72.9379 88.6776C72.5033 88.1719 72.5619 87.4105 73.0689 86.977ZM77.5098 86.977C78.0168 86.5434 78.78 86.6019 79.2146 87.1076L83.9468 92.6139C84.3814 93.1196 84.3228 93.881 83.8159 94.3145C83.3089 94.7481 82.5457 94.6896 82.1111 94.1839L77.3789 88.6776C76.9443 88.1719 77.0029 87.4105 77.5098 86.977ZM68.7436 87.4342C69.2505 87.0006 70.0138 87.0591 70.4484 87.5648L74.829 92.662C75.2636 93.1677 75.205 93.9291 74.6981 94.3626C74.1911 94.7962 73.4279 94.7377 72.9933 94.232L68.6127 89.1348C68.1781 88.6291 68.2367 87.8677 68.7436 87.4342ZM82.9378 87.4342C83.4448 87.0006 84.208 87.0591 84.6426 87.5648L88.3886 91.9235C88.8232 92.4292 88.7645 93.1906 88.2576 93.6241C87.7507 94.0577 86.9874 93.9992 86.5528 93.4935L82.8069 89.1348C82.3723 88.6291 82.4309 87.8677 82.9378 87.4342ZM87.3788 87.4342C87.8857 87.0006 88.649 87.0591 89.0836 87.5648L92.8295 91.9235C93.2641 92.4292 93.2055 93.1906 92.6986 93.6241C92.1916 94.0577 91.4284 93.9992 90.9938 93.4935L87.2478 89.1348C86.8132 88.6291 86.8719 87.8677 87.3788 87.4342Z" fill="#CBC5C5"/>
<path d="M67.5537 88.7413C66.9788 89.0169 66.5819 89.6033 66.5819 90.2822C66.5819 91.2258 67.3488 91.9908 68.2947 91.9908H70.0055L68.0008 89.6582C67.7669 89.386 67.6187 89.0695 67.5537 88.7413Z" fill="#CBC5C5"/>
<path d="M93.7945 91.9908H94.3793C95.3252 91.9908 96.0921 91.2258 96.0921 90.2822C96.0921 89.3385 95.3252 88.5736 94.3793 88.5736H91.0122L93.4415 91.4002C93.5966 91.5807 93.714 91.7807 93.7945 91.9908Z" fill="#CBC5C5"/>
<path d="M83.1747 96.4485L84.5087 133C81.8548 130.275 80.9138 128.818 79.3895 126.211L80.4757 96.4485V93.5164L81.4992 94.7072C81.9316 95.2104 82.5593 95.4479 83.1747 95.4039V96.4485Z" fill="#CBC5C5"/>
<path d="M84.791 94.3752C84.7981 94.6709 84.8068 94.9771 84.8171 95.296C84.8683 95.978 84.9182 96.6461 84.967 97.3004C85.7698 108.058 86.2922 115.058 88.1107 117.846L91.3102 113.152C88.4704 109.185 88.0249 104.528 87.6872 95.296C87.677 95.0959 87.6675 94.9007 87.6587 94.71C87.0298 94.7683 86.3832 94.5315 85.9409 94.0168L84.9815 92.9005C85.108 93.3952 85.0415 93.9251 84.791 94.3752Z" fill="#CBC5C5"/>
<path d="M89.394 93.3091C89.3415 93.8008 89.2907 94.3264 89.2399 94.8937C89.2399 103.577 90.2151 108.325 92.3453 111.509L94.2273 108.646C92.1609 105.512 91.9803 101.97 92.063 94.8937C92.0658 94.8328 92.0686 94.7724 92.0715 94.7124C91.4516 94.7611 90.8176 94.5238 90.3819 94.0168L89.4704 92.9563C89.4556 93.0756 89.43 93.1938 89.394 93.3091Z" fill="#CBC5C5"/>
<path fill-rule="evenodd" clip-rule="evenodd" d="M93.152 87.7695C93.2887 87.291 93.4414 86.7899 93.6122 86.2514C94.8113 83.2292 95.7008 81.8025 97.6304 79.6819C101.544 80.3444 103.317 80.0423 105.858 78.5648C105.066 77.5276 104.2 77.1022 102.174 76.5468C107.335 77.1813 108.74 76.6038 110.049 74.817C108.793 73.9298 107.887 73.4719 105.678 72.7269C110.26 73.7381 112.125 73.5853 113.95 71.79C112.732 70.8527 111.9 70.4354 110.41 69.9161C115.158 70.0009 116.64 69.5792 117.815 68.2585C116.897 67.5388 116.295 67.1737 114.276 66.9921C117.799 65.5236 119 64.6313 119.325 62.8843C117.918 62.2019 116.729 62.2341 113.195 63.7951C113.935 62.5252 114.206 61.6634 114.481 59.9456C111.61 59.929 110.44 60.9982 109.17 65.094C109.58 63.4417 109.417 62.519 108.593 60.8955C106.728 61.7393 105.946 62.8939 105.108 66.5274C105.439 64.7094 105.418 63.9125 105.108 62.7542C103.479 63.0699 102.659 63.7034 101.769 67.3538C101.524 66.3218 101.307 65.8235 100.579 65.2287C99.5569 66.2986 99.3153 67.6712 99.1253 70.6996C99.023 69.4928 98.8835 68.7079 98.5424 68.1105C98.7759 67.8959 98.9666 67.646 99.1253 67.3538C98.577 66.1993 97.7849 65.8934 95.9866 65.6117C98.8112 65.1004 100.089 64.6617 101.084 63.234C100.552 62.342 99.9295 61.9697 97.9925 61.6096C101.156 61.0076 102.69 60.5011 104.081 58.6904C103.178 57.8819 102.38 57.6291 100.612 57.3956C104.591 57.0345 106.44 56.6824 107.149 55.0414C106.298 53.7667 105.431 53.3892 103.468 53.2523C105.619 50.9259 106.362 49.6867 106.417 47.6729C104.389 47.4792 103.295 48.0068 101.414 49.98C101.336 48.2192 101.001 47.5727 100.211 46.6606L100.151 46.7138C98.9842 47.7562 98.3152 48.3538 97.9925 53.0413C97.6581 51.1906 97.2479 50.5398 96.199 49.8387C95.1792 51.2425 94.761 52.3686 95.1134 56.8071C94.7223 54.3421 94.0799 53.6129 92.3947 53.0413C91.6998 54.8474 91.4148 56.0424 92.6703 59.9456C92.1093 58.4327 91.3343 57.736 89.6574 56.9576C89.0801 59.2454 89.1659 60.7318 90.6761 64.0099C89.622 61.7306 88.8068 61.1338 86.9674 60.9951C86.5771 64.6325 87.3918 66.115 90.0786 68.1358C87.4875 74.2318 86.5182 78.3364 85.1856 86.2514C85.1596 86.4704 85.135 86.6835 85.1117 86.8914C85.1614 86.9385 85.209 86.9885 85.2546 87.0415L86.166 88.1021C86.2256 87.6226 86.4576 87.163 86.8542 86.8238C87.163 86.5597 87.5288 86.4051 87.9041 86.3565C87.9079 86.3216 87.9117 86.2866 87.9156 86.2514C89.0293 79.2915 89.9571 75.5776 92.3759 69.4726C94.2087 69.3786 95.5685 69.2556 96.5885 69.0191C96.1989 70.1767 96.1112 71.731 96.3541 74.519C95.9242 72.4895 95.5079 71.5951 94.5605 70.3211C93.6216 72.8408 93.3707 74.3671 95.3883 78.0974C92.8715 80.7021 92.0224 82.5924 90.8698 86.2514C90.6922 86.78 90.5354 87.2788 90.3954 87.7695H93.152ZM96.5885 69.0191C97.4605 68.8169 98.0841 68.5316 98.5424 68.1105C98.3299 67.7383 98.0391 67.4389 97.6304 67.1555C97.1753 67.7556 96.8258 68.3137 96.5885 69.0191ZM92.8814 60.5846C92.8136 60.3562 92.7438 60.1439 92.6703 59.9456C92.7363 60.1509 92.8066 60.3638 92.8814 60.5846ZM93.8036 62.9515C93.3828 62.5317 91.6849 64.0099 91.6849 64.0099C91.6849 64.0099 93.6124 61.6026 94.2245 62.2132C94.8366 62.8238 94.3261 65.094 94.3261 65.094C94.3261 65.094 94.2245 63.3713 93.8036 62.9515ZM96.5559 58.5135C96.0535 58.0123 93.9088 59.6906 93.9088 59.6906C93.9088 59.6906 96.5331 56.7091 97.3692 57.5431C98.2053 58.3771 96.5559 61.3927 96.5559 61.3927C96.5559 61.3927 97.0583 59.0146 96.5559 58.5135ZM99.2509 54.6161C98.6229 53.9897 96.1732 56.1432 96.1732 56.1432C96.1732 56.1432 98.31 54.8706 98.8522 55.4115C99.3944 55.9523 99.3944 57.9249 99.3944 57.9249C99.3944 57.9249 99.8788 55.2425 99.2509 54.6161ZM102.759 50.7188C101.866 49.8279 98.6768 52.3731 98.6768 52.3731C98.6768 52.3731 101.357 50.9742 101.994 51.6096C102.631 52.2449 101.414 54.6161 101.414 54.6161C101.414 54.6161 103.652 51.6096 102.759 50.7188ZM98.3083 73.1954C98.3083 73.1954 101.415 71.0333 102.174 71.79C102.932 72.5468 100.579 75.3936 100.579 75.3936C100.579 75.3936 102.029 73.1954 101.379 72.5468C100.729 71.8981 98.3083 73.1954 98.3083 73.1954ZM101.954 70.0804C101.954 70.0804 105.382 68.0621 106.311 68.9891C107.24 69.9161 104.199 72.9401 104.199 72.9401C104.199 72.9401 105.911 70.3211 105.349 69.7605C104.787 69.1999 101.954 70.0804 101.954 70.0804ZM106.499 67.1555C106.499 67.1555 108.951 66.2452 109.611 67.3538C110.271 68.4623 108.48 70.0804 108.48 70.0804C108.48 70.0804 111.321 67.6646 110.837 66.5274C110.354 65.3902 106.499 67.1555 106.499 67.1555ZM110.271 65.2287C110.271 65.2287 113.624 63.9299 113.95 65.2287C114.276 66.5274 112.157 68.4623 112.157 68.4623C112.157 68.4623 113.504 66.7605 113.195 65.7719C112.886 64.7834 110.271 65.2287 110.271 65.2287Z" fill="#CBC5C5"/>
<path fill-rule="evenodd" clip-rule="evenodd" d="M83.1747 86.4155V86.2514L82.8056 63.0902C85.9423 61.9164 87.0184 60.5239 88.3521 57.3856C87.1929 56.7244 86.4464 56.5195 84.0387 57.944C86.7944 55.8898 87.7101 54.5875 88.3521 52.0357C86.9796 51.6229 86.0643 51.7394 84.7588 52.5532C87.3333 50.755 88.229 49.4589 88.3521 47.0073C86.8853 46.7429 86.0522 47.1412 84.4797 48.453C87.6285 45.1441 88.5509 43.4812 88.3521 40.9733C87.0425 40.7378 86.144 41.0261 84.4797 42.2304C86.3414 39.6393 86.9947 38.1806 86.937 35.5678C85.5075 35.4455 84.7144 35.8226 83.3456 36.8878C83.3456 36.514 83.3468 36.1534 83.3479 35.8059C83.3603 32.0639 83.3676 29.8474 81.8254 29C80.2828 29.8476 80.2901 32.0647 80.3025 35.8081C80.3036 36.1548 80.3048 36.5147 80.3048 36.8878C78.936 35.8226 78.1429 35.4455 76.7134 35.5678C76.6557 38.1806 77.309 39.6393 79.1707 42.2304C77.5064 41.0261 76.6079 40.7378 75.2982 40.9733C75.0995 43.4812 76.0219 45.1441 79.1707 48.453C77.5982 47.1412 76.7651 46.7429 75.2982 47.0073C75.4213 49.4589 76.3171 50.755 78.8916 52.5532C77.5861 51.7394 76.6708 51.6229 75.2982 52.0357C75.9403 54.5875 76.856 55.8898 79.6117 57.944C77.204 56.5195 76.4575 56.7244 75.2982 57.3856C76.632 60.5239 77.708 61.9164 80.8447 63.0902L80.4757 86.2514V87.3396L81.7722 88.8482C81.5887 88.1305 81.8114 87.3385 82.4132 86.8238C82.6422 86.628 82.9024 86.4924 83.1747 86.4155ZM78.8916 52.5532C79.1184 52.7116 79.3582 52.8739 79.6117 53.0413C79.3569 52.8569 79.1184 52.6945 78.8916 52.5532ZM84.7588 52.5532C84.532 52.6945 84.2935 52.8569 84.0387 53.0413C84.2922 52.8739 84.532 52.7116 84.7588 52.5532ZM82.9269 56.1579C83.0468 56.4188 83.1748 56.6971 83.3456 56.9576C83.2397 56.5918 83.155 56.2518 83.078 55.9429C82.788 54.7796 82.6079 54.0574 81.825 54.0574C81.0423 54.0574 80.8624 54.7792 80.5726 55.9421C80.4955 56.2512 80.4107 56.5915 80.3048 56.9576C80.4757 56.697 80.6036 56.4186 80.7236 56.1576C80.9958 55.5651 81.2268 55.0626 81.825 55.0626C82.4233 55.0626 82.6544 55.5653 82.9269 56.1579ZM82.7776 52.3565C82.8607 52.5662 82.9525 52.7982 83.0742 53.0413C83.0212 52.7457 82.9818 52.4576 82.9446 52.1854C82.7928 51.0742 82.6772 50.2285 81.824 50.2285C80.972 50.2285 80.8571 51.0722 80.7061 52.1812C80.6689 52.4546 80.6294 52.7443 80.5762 53.0413C80.698 52.798 80.7898 52.5659 80.8729 52.356C81.1048 51.7697 81.2682 51.3565 81.825 51.3565C82.3819 51.3565 82.5455 51.7699 82.7776 52.3565ZM83.1923 47.5478L83.1928 47.5489L83.1935 47.5504C83.2424 47.6566 83.2928 47.7662 83.3456 47.8785C83.2499 47.5491 83.1668 47.2323 83.0888 46.9354C82.7588 45.6784 82.522 44.7765 81.825 44.7765C81.1281 44.7765 80.8916 45.6779 80.5618 46.9344C80.4838 47.2316 80.4006 47.5487 80.3048 47.8785C80.3592 47.7628 80.411 47.6501 80.4611 47.541C80.8723 46.6465 81.1702 45.9985 81.824 45.9985C82.4795 45.9985 82.779 46.6495 83.1921 47.5474L83.1923 47.5478ZM81.824 40.9733C82.5017 41.2552 82.8298 41.6948 83.3456 42.8338C83.0677 41.1627 82.8676 40.4234 81.825 39.8884C80.7824 40.4234 80.5827 41.1627 80.3048 42.8338C80.8206 41.6948 81.1464 41.2552 81.824 40.9733Z" fill="#CBC5C5"/>
<path fill-rule="evenodd" clip-rule="evenodd" d="M78.403 85.8853C77.1017 78.2084 76.1226 74.1371 73.5718 68.1358C76.2586 66.115 77.0733 64.6325 76.683 60.9951C74.8436 61.1338 74.0284 61.7306 72.9743 64.0099C74.4845 60.7318 74.5703 59.2454 73.993 56.9576C72.316 57.736 71.5411 58.4327 70.9801 59.9456C72.2356 56.0424 71.9505 54.8474 71.2557 53.0413C69.5705 53.6129 68.9281 54.3421 68.537 56.8071C68.8894 52.3686 68.4712 51.2425 67.4514 49.8387C66.4025 50.5398 65.9923 51.1906 65.6579 53.0413C65.3352 48.3538 64.6662 47.7562 63.4992 46.7138L63.4395 46.6606C62.649 47.5727 62.3148 48.2192 62.236 49.98C60.3554 48.0068 59.2614 47.4792 57.2329 47.6729C57.2884 49.6867 58.0311 50.9259 60.1828 53.2523C58.2189 53.3892 57.3528 53.7667 56.5013 55.0414C57.2108 56.6824 59.0591 57.0345 63.0383 57.3956C61.2701 57.6291 60.4721 57.8819 59.5692 58.6904C60.9607 60.5011 62.4944 61.0076 65.6579 61.6096C63.7209 61.9697 63.0984 62.342 62.5663 63.234C63.5614 64.6617 64.8392 65.1004 67.6638 65.6117C65.8655 65.8934 65.0734 66.1993 64.5251 67.3538C64.6838 67.646 64.8744 67.8959 65.108 68.1105C64.7669 68.7079 64.6274 69.4928 64.5251 70.6996C64.3351 67.6712 64.0935 66.2986 63.0711 65.2287C62.3434 65.8235 62.1264 66.3218 61.8809 67.3538C60.9918 63.7034 60.1714 63.0699 58.5419 62.7542C58.2323 63.9125 58.2116 64.7094 58.5419 66.5274C57.7047 62.8939 56.9223 61.7393 55.0576 60.8955C54.2331 62.519 54.0703 63.4417 54.48 65.094C53.2101 60.9982 52.0402 59.929 49.1697 59.9456C49.4448 61.6634 49.7156 62.5252 50.4553 63.7951C46.9216 62.2341 45.7323 62.2019 44.3252 62.8843C44.6505 64.6313 45.8511 65.5236 49.3746 66.9921C47.3551 67.1737 46.7533 67.5388 45.8351 68.2585C47.0104 69.5792 48.4924 70.0009 53.2405 69.9161C51.7507 70.4354 50.9185 70.8527 49.7004 71.79C51.5254 73.5853 53.3901 73.7381 57.9728 72.7269C55.7629 73.4719 54.857 73.9298 53.6018 74.817C54.91 76.6038 56.3155 77.1813 61.4768 76.5468C59.4502 77.1022 58.5848 77.5276 57.7922 78.5648C60.3335 80.0423 62.106 80.3444 66.02 79.6819C67.9496 81.8025 68.8391 83.2292 70.0382 86.2514C70.0561 86.3076 70.0737 86.3634 70.0912 86.4188C70.4558 86.5238 70.7949 86.7326 71.0603 87.0415L71.8415 87.9505C71.825 87.365 72.0638 86.7775 72.5443 86.3666C72.615 86.306 72.6888 86.2512 72.7651 86.2022C71.6203 82.5754 70.7676 80.6904 68.2621 78.0974C70.2797 74.3671 70.0288 72.8408 69.0899 70.3211C68.1425 71.5951 67.7262 72.4895 67.2963 74.519C67.5392 71.731 67.4515 70.1767 67.0619 69.0191C68.0819 69.2556 69.4417 69.3786 71.2745 69.4726C73.6933 75.5776 74.6211 79.2915 75.7348 86.2514C75.7693 86.545 75.8011 86.8278 75.8302 87.1016L76.2971 87.6449C76.3566 87.1654 76.5886 86.7058 76.9852 86.3666C77.3945 86.0165 77.904 85.859 78.403 85.8853ZM67.0619 69.0191C66.1899 68.8169 65.5663 68.5316 65.108 68.1105C65.3205 67.7383 65.6113 67.4389 66.02 67.1555C66.4751 67.7556 66.8246 68.3137 67.0619 69.0191ZM70.769 60.5846C70.8438 60.3638 70.9141 60.1509 70.9801 59.9456C70.9066 60.1439 70.8368 60.3562 70.769 60.5846ZM69.8467 62.9515C70.2676 62.5317 71.9655 64.0099 71.9655 64.0099C71.9655 64.0099 70.038 61.6026 69.4259 62.2132C68.8138 62.8238 69.3243 65.094 69.3243 65.094C69.3243 65.094 69.4259 63.3713 69.8467 62.9515ZM67.0945 58.5135C67.5969 58.0123 69.7416 59.6906 69.7416 59.6906C69.7416 59.6906 67.1173 56.7091 66.2812 57.5431C65.4451 58.3771 67.0945 61.3927 67.0945 61.3927C67.0945 61.3927 66.5921 59.0146 67.0945 58.5135ZM64.3995 54.6161C65.0275 53.9897 67.4772 56.1432 67.4772 56.1432C67.4772 56.1432 65.3404 54.8706 64.7982 55.4115C64.256 55.9523 64.256 57.9249 64.256 57.9249C64.256 57.9249 63.7716 55.2425 64.3995 54.6161ZM60.8913 50.7188C61.7843 49.8279 64.9736 52.3731 64.9736 52.3731C64.9736 52.3731 62.2936 50.9742 61.6567 51.6096C61.0198 52.2449 62.236 54.6161 62.236 54.6161C62.236 54.6161 59.9983 51.6096 60.8913 50.7188ZM65.3421 73.1954C65.3421 73.1954 62.2354 71.0333 61.4768 71.79C60.7182 72.5468 63.0711 75.3936 63.0711 75.3936C63.0711 75.3936 61.6213 73.1954 62.2715 72.5468C62.9218 71.8981 65.3421 73.1954 65.3421 73.1954ZM61.6962 70.0804C61.6962 70.0804 58.2688 68.0621 57.3395 68.9891C56.4102 69.9161 59.4518 72.9401 59.4518 72.9401C59.4518 72.9401 57.7394 70.3211 58.3014 69.7605C58.8633 69.1999 61.6962 70.0804 61.6962 70.0804ZM57.1509 67.1555C57.1509 67.1555 54.6991 66.2452 54.039 67.3538C53.3789 68.4623 55.1706 70.0804 55.1706 70.0804C55.1706 70.0804 52.3295 67.6646 52.8131 66.5274C53.2967 65.3902 57.1509 67.1555 57.1509 67.1555ZM53.3789 65.2287C53.3789 65.2287 50.0261 63.9299 49.7004 65.2287C49.3746 66.5274 51.4929 68.4623 51.4929 68.4623C51.4929 68.4623 50.146 66.7605 50.4553 65.7719C50.7647 64.7834 53.3789 65.2287 53.3789 65.2287Z" fill="#CBC5C5"/>
<path d="M76.0489 93.5329C76.0278 94.0828 75.9989 94.6646 75.9632 95.296C75.6255 104.528 75.18 109.185 72.3402 113.152L75.5397 117.846C77.3582 115.058 77.8806 108.058 78.6834 97.3004C78.7322 96.6461 78.7821 95.978 78.8333 95.296C78.838 95.1943 78.8425 95.0938 78.8468 94.9946C78.1143 95.2013 77.2952 94.983 76.7672 94.3686L76.0489 93.5329Z" fill="#CBC5C5"/>
<path d="M71.5372 93.7731L72.3813 94.7553C72.897 95.3553 73.6903 95.5776 74.4094 95.3952C74.3722 103.761 73.3939 108.386 71.3051 111.509L69.4231 108.646C71.4895 105.512 71.6701 101.97 71.5874 94.8937C71.5744 94.501 71.5578 94.1289 71.5372 93.7731Z" fill="#CBC5C5"/>
<path d="M68.3409 107.05C68.3409 107.05 67.4469 97.7568 64.2004 97.7568C62.1772 97.7568 61.9419 101.747 63.0711 103.295C60.0128 105.314 58.1778 91.5612 63.0711 91.5612C68.7173 91.5612 71.8697 107.05 68.3409 107.05Z" fill="#CBC5C5"/>
<path d="M95.3095 107.05C95.3095 107.05 96.2035 97.7568 99.45 97.7568C101.473 97.7568 101.708 101.747 100.579 103.295C103.638 105.314 105.473 91.5612 100.579 91.5612C94.9331 91.5612 91.7807 107.05 95.3095 107.05Z" fill="#CBC5C5"/>
</svg>
