<svg width="164" height="124" viewBox="0 0 164 124" fill="none" xmlns="http://www.w3.org/2000/svg">
<path d="M0.876953 22C0.876953 9.84974 10.7199 0 22.8618 0H141.78C153.922 0 163.765 9.84974 163.765 22V102C163.765 114.15 153.922 124 141.78 124H22.8618C10.7199 124 0.876953 114.15 0.876953 102V22Z" fill="#C5A869"/>
<path fill-rule="evenodd" clip-rule="evenodd" d="M141.78 11H22.8618C16.7908 11 11.8694 15.9249 11.8694 22V102C11.8694 108.075 16.7908 113 22.8618 113H141.78C147.851 113 152.772 108.075 152.772 102V22C152.772 15.9249 147.851 11 141.78 11ZM22.8618 0C10.7199 0 0.876953 9.84974 0.876953 22V102C0.876953 114.15 10.7199 124 22.8618 124H141.78C153.922 124 163.765 114.15 163.765 102V22C163.765 9.84974 153.922 0 141.78 0H22.8618Z" fill="#A68C55"/>
<path d="M111.438 93.7201L68.4561 50.7379C63.6033 46.5783 60.137 44.4985 51.1246 44.4985C42.1122 44.4985 34.4863 53.5109 34.4863 63.2166C34.4863 70.1492 37.9526 79.1616 49.7381 79.1616C61.5235 79.1616 64.9898 66.6829 64.9898 63.9099C64.9898 61.1368 61.5235 59.057 62.9101 57.6705C64.2966 56.284 69.1494 61.1368 69.1494 61.1368L107.972 98.5729C113.518 103.426 116.291 98.5729 111.438 93.7201Z" fill="black"/>
<path d="M53.2044 93.7201L96.1866 50.7379C101.039 46.5783 104.506 44.4985 113.518 44.4985C122.531 44.4985 130.156 53.5109 130.156 63.2166C130.156 70.1492 126.69 79.1616 114.905 79.1616C103.119 79.1616 99.6529 66.6829 99.6529 63.9099C99.6529 61.1368 103.119 59.057 101.733 57.6705C100.346 56.284 95.4934 61.1368 95.4934 61.1368L56.6707 98.5729C51.1246 103.426 48.3516 98.5729 53.2044 93.7201Z" fill="black"/>
<path fill-rule="evenodd" clip-rule="evenodd" d="M81.6408 23.4167L123.933 88.5037H40.7201L81.6408 23.4167ZM81.6917 30.2283L47.3601 84.8351H117.174L81.6917 30.2283Z" fill="black"/>
</svg>
