<svg width="164" height="124" viewBox="0 0 164 124" fill="none" xmlns="http://www.w3.org/2000/svg">
<path d="M0.988281 22C0.988281 9.84974 10.8312 0 22.9731 0H141.891C154.033 0 163.876 9.84974 163.876 22V102C163.876 114.15 154.033 124 141.891 124H22.9731C10.8312 124 0.988281 114.15 0.988281 102V22Z" fill="#C5A869"/>
<path fill-rule="evenodd" clip-rule="evenodd" d="M141.891 11H22.9731C16.9022 11 11.9807 15.9249 11.9807 22V102C11.9807 108.075 16.9022 113 22.9731 113H141.891C147.962 113 152.883 108.075 152.883 102V22C152.883 15.9249 147.962 11 141.891 11ZM22.9731 0C10.8312 0 0.988281 9.84974 0.988281 22V102C0.988281 114.15 10.8312 124 22.9731 124H141.891C154.033 124 163.876 114.15 163.876 102V22C163.876 9.84974 154.033 0 141.891 0H22.9731Z" fill="#A68C55"/>
<path fill-rule="evenodd" clip-rule="evenodd" d="M96.9535 76.3034C98.3034 74.7691 97.154 73.263 96.7356 72.8948C96.3171 72.5267 94.6715 73.5533 94.3925 73.3079C94.8499 72.2255 94.9223 71.2995 92.5512 69.2132C90.18 67.127 89.8286 67.8076 89.3042 67.8412L92.4949 64.2147L91.5185 63.3556L88.4505 66.8426L69.3638 48.3174L63.4781 46.8507L65.6823 52.5018L86.487 69.0743L83.419 72.5613L84.3954 73.4204L87.5861 69.7939C87.6196 70.3183 86.7103 70.508 89.3605 72.8397C92.0106 75.1714 92.9031 74.7194 93.6562 74.1447C93.9352 74.3902 93.1264 76.1531 93.5449 76.5213C93.9633 76.8895 95.6036 77.8377 96.9535 76.3034Z" fill="black"/>
<path fill-rule="evenodd" clip-rule="evenodd" d="M64.7813 76.3034C63.4314 74.7691 64.5808 73.2629 64.9992 72.8948C65.4177 72.5266 67.0633 73.5533 67.3423 73.3078C66.8849 72.2255 66.8125 71.2994 69.1837 69.2132C71.5548 67.1269 71.9062 67.8076 72.4306 67.8411L69.2399 64.2146L70.2163 63.3556L73.2843 66.8426L92.371 48.3173L98.2567 46.8507L96.0526 52.5018L75.2478 69.0743L78.3158 72.5613L77.3394 73.4203L74.1487 69.7938C74.1152 70.3182 75.0245 70.508 72.3744 72.8397C69.7242 75.1713 68.8317 74.7194 68.0786 74.1447C67.7996 74.3901 68.6084 76.1531 68.19 76.5213C67.7715 76.8894 66.1313 77.8377 64.7813 76.3034Z" fill="black"/>
<path fill-rule="evenodd" clip-rule="evenodd" d="M68.21 22.2415H105.647V24.8095H68.8717L52.1226 34.0541H105.647V36.6222H47.991L45.3221 42.9485H105.647V45.5165H58.5606L42.8039 83.7448H67.0127V86.3129H38.9678L55.783 45.5165H41.4515L46.129 34.4291L68.21 22.2415ZM105.918 49.5346L107.734 51.3499L105.09 53.996V58.5604H112.976V63.1745L113.566 63.7652H118.039L122.262 59.539L125.895 63.1745V75.8225L123.297 78.4218H119.381L118.039 77.0786H116.835V79.0438H118.848V85.8963L115.215 89.5317L111.75 86.0642V84.466H110.881L109.036 86.3129H103.274L99.6695 82.7062V80.4365H99.2174V87.0715L92.8416 93.4516V101.759H85.5756V95.8021L82.6954 92.92L83.5934 92.0213H81.9654L75.9498 86.0058V81.2215H74.3856V83.182H71.8175V78.6535H78.5179V84.942L83.0291 89.4533H87.3048V91.9405L86.326 92.92L88.1437 94.7389V99.1913H90.2736V92.3884L96.6494 86.0083V77.8685H102.238V81.643L104.338 83.7448H107.972L109.817 81.898H114.318V85.0009L115.215 85.8987L116.28 84.833V81.6118H114.267V74.5106H119.103L120.445 75.8537H122.233L123.327 74.7593V64.2377L122.262 63.172L119.103 66.3333H112.502L110.408 64.2377V61.1285H102.522V52.9328L105.918 49.5346Z" fill="black"/>
</svg>
