<svg width="164" height="168" viewBox="0 0 164 168" fill="none" xmlns="http://www.w3.org/2000/svg">
<path d="M78.6356 162.871C74.2124 162.674 70.673 163.858 68.7067 165.238C66.7404 166.619 65.9539 168 64.7741 168C63.5943 168 60.8414 166.619 60.8414 165.436C61.4462 164.861 62.3214 164.338 63.3659 163.858C68.7744 161.374 78.7231 160.051 79.176 158.729C79.058 160.007 78.8792 161.36 78.6356 162.871Z" fill="#CBC5C5"/>
<path d="M79.176 151.228C79.1771 151.242 79.1783 151.255 79.1795 151.269C79.2971 152.937 75.7716 149.038 74.0158 145.907C72.2461 142.751 71.2629 144.724 69.1 145.907C66.937 147.091 64.3808 146.696 64.7741 148.077C65.1673 149.458 70.2798 149.852 71.2629 149.852C72.2461 149.852 75.9821 149.852 76.1788 151.036C76.3754 152.219 70.8697 153.206 69.8865 153.206C68.9034 153.206 65.9539 151.825 63.9875 150.247C62.0212 148.669 61.6279 145.513 61.6279 143.343C61.6279 141.173 61.6279 141.173 64.3808 141.173C66.937 141.173 69.2966 138.411 72.4427 138.411C74.2124 140.581 77.7518 143.935 79.176 151.228Z" fill="#CBC5C5"/>
<path d="M59.8582 143.343C59.8582 140.778 61.038 141.962 61.038 140.778C60.907 140.252 60.2515 139.003 58.6785 138.214C56.7121 137.228 53.566 135.847 54.3525 139.792C54.9818 142.948 55.5323 144.395 55.729 144.724C57.7761 145.773 58.9345 146.515 61.038 148.274C61.2347 145.907 59.8582 144.447 59.8582 143.343Z" fill="#CBC5C5"/>
<path d="M59.8582 148.471C57.1054 145.907 50.8131 143.343 45.7007 143.343C45.7007 144.329 45.3074 145.513 46.6839 146.499C48.0603 147.485 49.83 146.302 51.9929 147.288C53.7233 148.077 55.2046 150.115 55.729 151.036C56.6059 149.599 57.538 149.046 59.8582 148.471Z" fill="#CBC5C5"/>
<path d="M49.83 153.206C51.2457 152.732 51.5997 149.852 51.5997 148.471C48.8468 146.499 47.8636 150.247 39.9983 145.513C39.3052 146.941 39.3372 147.809 39.6051 151.228C40.8638 152.43 41.6823 153.014 43.5377 153.797C44.2837 149.23 45.4836 147.912 49.83 149.063C48.611 150.705 48.5772 151.564 49.83 153.206Z" fill="#CBC5C5"/>
<path d="M62.4145 162.082C62.4145 161.096 60.2515 158.729 59.465 158.729C58.6784 158.729 56.5155 162.871 53.1727 162.871C50.809 162.871 47.0689 161.885 45.0808 159.912C44.6259 157.465 44.6007 155.77 44.8406 154.587C45.2386 152.624 46.3662 152.071 47.4704 151.825C47.4704 153.403 50.2232 155.178 51.9929 155.178C54.5492 155.178 58.0886 149.852 59.0717 149.852C60.0549 149.852 63.0044 152.022 63.5943 155.178C68.3135 155.376 74.8023 153.206 79.3164 153.403C79.3492 154.203 79.3587 154.985 79.3438 155.77C74.4091 156.165 65.364 162.674 62.4145 162.082Z" fill="#CBC5C5"/>
<path d="M51.2064 142.751C50.8918 141.489 51.2719 140.515 51.5997 140.187C48.259 132.94 45.2335 130.03 39.4084 125.392C38.5745 132.222 39.7559 135.552 47.0771 142.554L51.2064 142.751Z" fill="#CBC5C5"/>
<path d="M32.9196 143.343C32.9196 143.996 33.4478 144.526 34.0994 144.526C34.7509 144.526 35.2792 143.996 35.2792 143.343C35.2792 142.689 34.7509 142.159 34.0994 142.159C33.4478 142.159 32.9196 142.689 32.9196 143.343Z" fill="#CBC5C5"/>
<path d="M35.6724 129.337C35.6724 129.991 36.2006 130.521 36.8522 130.521C37.5038 130.521 38.032 129.991 38.032 129.337C38.032 128.684 37.5038 128.154 36.8522 128.154C36.2006 128.154 35.6724 128.684 35.6724 129.337Z" fill="#CBC5C5"/>
<path d="M22.1048 112.965C22.1048 113.619 22.633 114.149 23.2845 114.149C23.9361 114.149 24.4643 113.619 24.4643 112.965C24.4643 112.311 23.9361 111.782 23.2845 111.782C22.633 111.782 22.1048 112.311 22.1048 112.965Z" fill="#CBC5C5"/>
<path d="M5.78423 102.905C5.78423 103.559 6.31245 104.088 6.96403 104.088C7.61561 104.088 8.14383 103.559 8.14383 102.905C8.14383 102.251 7.61561 101.721 6.96403 101.721C6.31245 101.721 5.78423 102.251 5.78423 102.905Z" fill="#CBC5C5"/>
<path d="M15.4192 97.7762C15.4192 98.4299 15.9475 98.9598 16.599 98.9598C17.2506 98.9598 17.7788 98.4299 17.7788 97.7762C17.7788 97.1225 17.2506 96.5927 16.599 96.5927C15.9475 96.5927 15.4192 97.1225 15.4192 97.7762Z" fill="#CBC5C5"/>
<path d="M13.8462 82.9819C13.8462 83.6355 14.3744 84.1654 15.026 84.1654C15.6776 84.1654 16.2058 83.6355 16.2058 82.9819C16.2058 82.3282 15.6776 81.7983 15.026 81.7983C14.3744 81.7983 13.8462 82.3282 13.8462 82.9819Z" fill="#CBC5C5"/>
<path d="M9.71689 60.0999C9.71689 60.7536 10.2451 61.2835 10.8967 61.2835C11.5483 61.2835 12.0765 60.7536 12.0765 60.0999C12.0765 59.4463 11.5483 58.9164 10.8967 58.9164C10.2451 58.9164 9.71689 59.4463 9.71689 60.0999Z" fill="#CBC5C5"/>
<path d="M18.762 64.0451C18.762 64.6988 19.2902 65.2287 19.9418 65.2287C20.5934 65.2287 21.1216 64.6988 21.1216 64.0451C21.1216 63.3914 20.5934 62.8616 19.9418 62.8616C19.2902 62.8616 18.762 63.3914 18.762 64.0451Z" fill="#CBC5C5"/>
<path d="M13.6495 46.4892C13.6495 47.1428 14.1778 47.6727 14.8293 47.6727C15.4809 47.6727 16.0091 47.1428 16.0091 46.4892C16.0091 45.8355 15.4809 45.3056 14.8293 45.3056C14.1778 45.3056 13.6495 45.8355 13.6495 46.4892Z" fill="#CBC5C5"/>
<path d="M21.7115 40.9659C21.7115 41.6196 22.2397 42.1495 22.8913 42.1495C23.5429 42.1495 24.0711 41.6196 24.0711 40.9659C24.0711 40.3123 23.5429 39.7824 22.8913 39.7824C22.2397 39.7824 21.7115 40.3123 21.7115 40.9659Z" fill="#CBC5C5"/>
<path d="M35.2792 36.8235C35.2792 37.4772 35.8074 38.0071 36.4589 38.0071C37.1105 38.0071 37.6387 37.4772 37.6387 36.8235C37.6387 36.1699 37.1105 35.64 36.4589 35.64C35.8074 35.64 35.2792 36.1699 35.2792 36.8235Z" fill="#CBC5C5"/>
<path d="M49.2401 21.2401C49.2401 21.8938 49.7683 22.4237 50.4199 22.4237C51.0715 22.4237 51.5997 21.8938 51.5997 21.2401C51.5997 20.5865 51.0715 20.0566 50.4199 20.0566C49.7683 20.0566 49.2401 20.5865 49.2401 21.2401Z" fill="#CBC5C5"/>
<path d="M39.9983 14.3361C39.9983 14.9898 40.5266 15.5197 41.1781 15.5197C41.8297 15.5197 42.3579 14.9898 42.3579 14.3361C42.3579 13.6825 41.8297 13.1526 41.1781 13.1526C40.5266 13.1526 39.9983 13.6825 39.9983 14.3361Z" fill="#CBC5C5"/>
<path d="M64.9707 13.1526C64.9707 13.8062 65.4989 14.3361 66.1505 14.3361C66.8021 14.3361 67.3303 13.8062 67.3303 13.1526C67.3303 12.4989 66.8021 11.969 66.1505 11.969C65.4989 11.969 64.9707 12.4989 64.9707 13.1526Z" fill="#CBC5C5"/>
<path d="M64.1842 3.68419C64.1842 4.33785 64.7124 4.86774 65.364 4.86774C66.0155 4.86774 66.5438 4.33785 66.5438 3.68419C66.5438 3.03054 66.0155 2.50065 65.364 2.50065C64.7124 2.50065 64.1842 3.03054 64.1842 3.68419Z" fill="#CBC5C5"/>
<path d="M44.5209 142.159C44.2587 142.883 43.8917 144.566 44.5209 145.513C37.8317 144.273 26.895 134.609 27.6105 127.365C33.7149 129.111 37.354 132.207 44.5209 142.159Z" fill="#CBC5C5"/>
<path d="M36.8522 125.984C36.4589 120.264 28.397 109.809 26.8239 110.598C25.2509 111.387 26.0374 125.59 32.5263 128.351C32.9982 127.247 35.6069 126.313 36.8522 125.984Z" fill="#CBC5C5"/>
<path d="M32.3297 140.384C29.1835 137.031 23.4812 133.677 18.1721 134.466C19.5485 139.792 27.8071 142.948 31.1499 144.526C30.7566 143.343 31.3465 140.976 32.3297 140.384Z" fill="#CBC5C5"/>
<path d="M38.032 149.852C37.4421 148.077 38.4253 146.302 37.8354 146.104C37.3635 145.947 34.4926 145.776 33.1162 145.71C34.4537 147.434 35.4965 148.353 38.032 149.852Z" fill="#CBC5C5"/>
<path d="M27.6105 125.984C26.8239 121.842 20.5317 111.584 17.7788 112.571C15.026 113.557 18.762 128.746 26.4307 132.494C24.4643 128.351 25.5948 125.984 27.6105 125.984Z" fill="#CBC5C5"/>
<path d="M25.4475 110.203C25.0542 104.483 26.0374 101.919 24.0711 97.7762C22.1048 93.6338 21.5149 94.0283 20.7283 94.2256C19.9418 94.4228 17.9755 100.341 18.762 104.68C19.3912 108.152 20.3351 111.387 20.7283 112.571C21.056 111.847 21.9474 110.282 22.8913 109.809C23.8351 109.336 24.9887 109.875 25.4475 110.203Z" fill="#CBC5C5"/>
<path d="M18.762 111.782C18.5856 102.905 12.6664 94.8371 10.8967 95.0146C6.96403 95.4091 10.1102 113.754 15.4192 116.121C15.4192 111.782 16.599 110.203 18.762 111.782Z" fill="#CBC5C5"/>
<path d="M24.4643 133.085C18.5654 129.337 19.7452 126.576 16.2058 123.222C13.3743 120.54 9.65135 119.475 8.14383 119.277C11.1483 127.891 14.4382 131.19 24.4643 133.085Z" fill="#CBC5C5"/>
<path d="M14.6327 119.869C13.4529 114.442 5.39097 102.905 3.03138 104.088C3.03138 106.653 7.25271 113.754 8.14383 117.699C11.1326 118.015 13.7151 119.277 14.6327 119.869Z" fill="#CBC5C5"/>
<path d="M22.498 80.2203C18.762 81.7983 13.8462 87.5188 15.026 95.8036C16.2844 94.2256 17.6477 94.6201 18.1721 95.0146C18.8146 93.2603 19.33 92.6724 20.7283 92.8448C22.9921 87.8957 23.1251 85.1346 22.498 80.2203Z" fill="#CBC5C5"/>
<path d="M10.1102 73.7107C7.55393 76.2751 5.02073 87.1285 8.14383 96.5927C10.2882 93.3904 11.3242 93.9851 13.2563 93.831C13.7727 90.8812 13.895 87.8919 13.7519 85.1517C13.4556 84.8229 12.8237 83.9287 12.6664 82.9819C12.5091 82.035 13.0323 81.2723 13.3135 81.0093C12.6235 76.7859 11.3196 73.8226 10.1102 73.7107Z" fill="#CBC5C5"/>
<path d="M2.04821 87.1243C2.04821 92.8448 2.96988 95.8816 3.03138 102.313C3.62127 103.694 5.78423 103.497 5.39097 99.5515C5.67219 100.492 7.47589 101.396 7.16066 96.7899C6.84544 92.1842 2.04821 87.1243 2.04821 87.1243Z" fill="#CBC5C5"/>
<path d="M24.661 65.8204C24.4868 73.0156 22.82 75.8925 18.762 80.2203C17.8068 78.3103 16.0091 81.0093 14.2394 79.234C18.1721 72.1327 16.599 69.9628 19.9418 67.793C21.8142 66.3731 22.8379 66.1477 24.661 65.8204Z" fill="#CBC5C5"/>
<path d="M16.0091 57.3383C10.1102 63.4533 6.72947 67.3427 8.14383 75.2888C10.1639 71.1041 11.4418 72.1341 13.8462 77.0641C17.3978 69.2726 18.2001 64.948 16.0091 57.3383Z" fill="#CBC5C5"/>
<path d="M5.39097 89.0969C6.07733 83.1491 6.37413 80.2203 5.78423 77.0641C4.87332 74.8731 3.94835 73.8268 1.45831 72.3299C0.509051 77.4953 0.587288 80.3813 1.45831 85.5462C3.67924 86.2633 4.33717 87.2364 5.39097 89.0969Z" fill="#CBC5C5"/>
<path d="M6.57077 75.2888C5.78423 68.7793 8.53709 65.2287 8.53709 61.2835C8.53709 57.3383 5.78423 54.9712 5.78423 54.9712C4.00667 62.0223 3.75479 65.7562 3.62127 72.3299C4.8007 72.774 5.45178 73.4615 6.57077 75.2888Z" fill="#CBC5C5"/>
<path d="M30.1667 51.8151C28.4741 57.2269 27.0322 59.9237 22.8913 63.6506C22.3243 62.0294 21.9244 61.6046 21.1216 61.2835C22.4869 58.5754 22.7014 57.0644 22.8913 54.3795C27.0311 51.6044 28.1579 51.6782 30.1667 51.8151Z" fill="#CBC5C5"/>
<path d="M19.3519 60.0999C16.7921 55.3277 15.6111 55.1625 13.7519 57.3383C13.8465 53.2658 14.5186 51.5823 16.0091 48.8563C17.3947 48.6541 17.6449 47.8016 17.7788 46.4892C19.906 44.2557 21.0004 43.7567 22.8913 43.333C22.7728 50.4158 22.199 54.1738 19.3519 60.0999Z" fill="#CBC5C5"/>
<path d="M12.0765 44.1221C9.2873 46.5605 8.15871 48.6122 7.3573 54.1822C8.11358 54.8299 8.48757 55.7449 9.12699 57.7328C10.0237 56.7355 10.5418 56.5943 11.4866 56.9438C13.4037 52.038 13.4063 49.2322 12.0765 44.1221Z" fill="#CBC5C5"/>
<path d="M23.4812 52.4069C24.631 44.756 30.1667 38.9934 35.2792 38.9934C37.2455 38.9934 38.3597 37.0208 39.0152 38.0071C39.3667 38.536 36.698 42.9503 32.9196 46.6864C29.6529 49.9165 25.3958 52.5898 23.4812 52.4069Z" fill="#CBC5C5"/>
<path d="M35.6724 26.5661C28.7164 28.2405 25.6816 30.3062 22.8913 37.4153C24.928 39.2253 26.4585 39.9846 24.0711 44.7138C32.2792 38.2421 34.3576 34.1954 35.6724 26.5661Z" fill="#CBC5C5"/>
<path d="M21.7115 29.1305C16.9153 33.587 15.025 36.5575 12.863 42.544C12.8606 43.5088 12.9211 43.9981 13.4529 44.5166C14.3423 43.9986 15.0771 43.8603 17.1889 44.1221C21.2649 38.0764 21.9945 34.8154 21.7115 29.1305Z" fill="#CBC5C5"/>
<path d="M48.4535 17.295C39.5674 17.7883 35.675 19.7904 30.7566 26.5661C36.4254 24.4314 37.7722 24.8229 36.8522 29.1305C43.4518 25.259 45.606 22.5242 48.4535 17.295Z" fill="#CBC5C5"/>
<path d="M38.8185 14.1389C38.4253 17.6895 29.3802 24.5935 22.6947 34.2592C25.0542 27.3551 25.8553 26.0202 22.8913 27.9469C28.3876 18.9581 31.927 16.1937 38.8185 14.1389Z" fill="#CBC5C5"/>
<path d="M51.5997 25.9743C50.1973 24.4224 49.2423 23.8281 46.2906 24.199C42.5257 27.5208 40.4899 28.6647 37.0159 30.6165L36.8522 30.7085C36.2353 31.5434 35.954 32.3077 35.6724 33.6674C41.1502 33.6789 44.6641 31.9484 51.5997 25.9743Z" fill="#CBC5C5"/>
<path d="M58.4818 17.295C54.7458 18.8731 49.83 18.2813 49.83 18.2813C49.6962 15.3616 48.0891 15.7372 45.8973 15.5197C53.1503 9.82028 57.4649 8.43689 65.7572 10.3707C61.8246 11.969 64.1842 14.8864 58.4818 17.295Z" fill="#CBC5C5"/>
<path d="M51.7963 23.2127C59.1306 23.14 62.3658 21.9805 67.3303 18.8731C66.4459 16.5173 65.5322 15.9991 62.8077 15.7169C60.3153 19.0471 58.0549 20.0676 53.1727 21.0429C52.9825 22.0914 52.7157 22.6556 51.7963 23.2127Z" fill="#CBC5C5"/>
<path d="M62.8077 2.89516C62.2068 5.76179 61.4762 7.22155 57.4987 8.8129C54.0019 9.6234 52.8911 9.01722 45.3074 14.9279C44.6725 15.3274 44.3278 15.4586 43.7344 15.5197C43.823 13.868 43.6711 13.0898 43.1445 11.969C49.8725 6.06275 54.3531 4.51149 62.8077 2.89516Z" fill="#CBC5C5"/>
<path d="M81.2912 15.5197C80.7645 14.0209 80.1434 13.3457 78.5384 12.3635C76.631 13.445 74.6601 13.6784 69.6899 13.5471C68.4273 14.2065 67.8816 14.6289 67.3303 15.5197C72.2246 17.598 75.3037 17.591 81.2912 15.5197Z" fill="#CBC5C5"/>
<path d="M81.2912 0.133552C80.3583 1.60732 79.6739 2.43004 77.9485 3.88145C73.7156 3.61194 71.5042 3.90341 67.7236 4.86774C67.9278 3.94535 67.8761 3.42357 67.7236 2.50065C73.8174 0.082413 76.6935 -0.247386 81.2912 0.133552Z" fill="#CBC5C5"/>
<path d="M85.9152 162.871C90.3383 162.674 93.8777 163.858 95.8441 165.238C97.8104 166.619 98.5969 168 99.7767 168C100.957 168 103.709 166.619 103.709 165.436C103.105 164.861 102.229 164.338 101.185 163.858C95.7764 161.374 85.8277 160.051 85.3748 158.729C85.4928 160.007 85.6716 161.36 85.9152 162.871Z" fill="#CBC5C5"/>
<path d="M85.3748 151.228C85.3736 151.242 85.3725 151.255 85.3713 151.269C85.2537 152.937 88.7792 149.038 90.535 145.907C92.3047 142.751 93.2878 144.724 95.4508 145.907C97.6138 147.091 100.17 146.696 99.7767 148.077C99.3835 149.458 94.271 149.852 93.2878 149.852C92.3047 149.852 88.5686 149.852 88.372 151.036C88.1754 152.219 93.6811 153.206 94.6643 153.206C95.6474 153.206 98.5969 151.825 100.563 150.247C102.53 148.669 102.923 145.513 102.923 143.343C102.923 141.173 102.923 141.173 100.17 141.173C97.6138 141.173 95.2542 138.411 92.108 138.411C90.3383 140.581 86.799 143.935 85.3748 151.228Z" fill="#CBC5C5"/>
<path d="M104.693 143.343C104.693 140.778 103.513 141.962 103.513 140.778C103.644 140.252 104.299 139.003 105.872 138.214C107.839 137.228 110.985 135.847 110.198 139.792C109.569 142.948 109.018 144.395 108.822 144.724C106.775 145.773 105.616 146.515 103.513 148.274C103.316 145.907 104.693 144.447 104.693 143.343Z" fill="#CBC5C5"/>
<path d="M104.693 148.471C107.445 145.907 113.738 143.343 118.85 143.343C118.85 144.329 119.243 145.513 117.867 146.499C116.491 147.485 114.721 146.302 112.558 147.288C110.827 148.077 109.346 150.115 108.822 151.036C107.945 149.599 107.013 149.046 104.693 148.471Z" fill="#CBC5C5"/>
<path d="M114.721 153.206C113.305 152.732 112.951 149.852 112.951 148.471C115.704 146.499 116.687 150.247 124.552 145.513C125.246 146.941 125.214 147.809 124.946 151.228C123.687 152.43 122.869 153.014 121.013 153.797C120.267 149.23 119.067 147.912 114.721 149.063C115.94 150.705 115.974 151.564 114.721 153.206Z" fill="#CBC5C5"/>
<path d="M102.136 162.082C102.136 161.096 104.299 158.729 105.086 158.729C105.872 158.729 108.035 162.871 111.378 162.871C113.742 162.871 117.482 161.885 119.47 159.912C119.925 157.465 119.95 155.77 119.71 154.587C119.312 152.624 118.185 152.071 117.08 151.825C117.08 153.403 114.328 155.178 112.558 155.178C110.002 155.178 106.462 149.852 105.479 149.852C104.496 149.852 101.546 152.022 100.957 155.178C96.2373 155.376 89.7484 153.206 85.2344 153.403C85.2015 154.203 85.1921 154.985 85.207 155.77C90.1417 156.165 99.1868 162.674 102.136 162.082Z" fill="#CBC5C5"/>
<path d="M113.344 142.751C113.659 141.489 113.279 140.515 112.951 140.187C116.292 132.94 119.317 130.03 125.142 125.392C125.976 132.222 124.795 135.552 117.474 142.554L113.344 142.751Z" fill="#CBC5C5"/>
<path d="M131.631 143.343C131.631 143.996 131.103 144.526 130.451 144.526C129.8 144.526 129.272 143.996 129.272 143.343C129.272 142.689 129.8 142.159 130.451 142.159C131.103 142.159 131.631 142.689 131.631 143.343Z" fill="#CBC5C5"/>
<path d="M128.878 129.337C128.878 129.991 128.35 130.521 127.699 130.521C127.047 130.521 126.519 129.991 126.519 129.337C126.519 128.684 127.047 128.154 127.699 128.154C128.35 128.154 128.878 128.684 128.878 129.337Z" fill="#CBC5C5"/>
<path d="M142.446 112.965C142.446 113.619 141.918 114.149 141.266 114.149C140.615 114.149 140.086 113.619 140.086 112.965C140.086 112.311 140.615 111.782 141.266 111.782C141.918 111.782 142.446 112.311 142.446 112.965Z" fill="#CBC5C5"/>
<path d="M158.767 102.905C158.767 103.559 158.238 104.088 157.587 104.088C156.935 104.088 156.407 103.559 156.407 102.905C156.407 102.251 156.935 101.721 157.587 101.721C158.238 101.721 158.767 102.251 158.767 102.905Z" fill="#CBC5C5"/>
<path d="M149.132 97.7762C149.132 98.4299 148.603 98.9598 147.952 98.9598C147.3 98.9598 146.772 98.4299 146.772 97.7762C146.772 97.1225 147.3 96.5927 147.952 96.5927C148.603 96.5927 149.132 97.1225 149.132 97.7762Z" fill="#CBC5C5"/>
<path d="M150.705 82.9819C150.705 83.6355 150.176 84.1654 149.525 84.1654C148.873 84.1654 148.345 83.6355 148.345 82.9819C148.345 82.3282 148.873 81.7983 149.525 81.7983C150.176 81.7983 150.705 82.3282 150.705 82.9819Z" fill="#CBC5C5"/>
<path d="M154.834 60.0999C154.834 60.7536 154.306 61.2835 153.654 61.2835C153.003 61.2835 152.474 60.7536 152.474 60.0999C152.474 59.4463 153.003 58.9164 153.654 58.9164C154.306 58.9164 154.834 59.4463 154.834 60.0999Z" fill="#CBC5C5"/>
<path d="M145.789 64.0451C145.789 64.6988 145.261 65.2287 144.609 65.2287C143.957 65.2287 143.429 64.6988 143.429 64.0451C143.429 63.3914 143.957 62.8616 144.609 62.8616C145.261 62.8616 145.789 63.3914 145.789 64.0451Z" fill="#CBC5C5"/>
<path d="M150.901 46.4892C150.901 47.1428 150.373 47.6727 149.721 47.6727C149.07 47.6727 148.542 47.1428 148.542 46.4892C148.542 45.8355 149.07 45.3056 149.721 45.3056C150.373 45.3056 150.901 45.8355 150.901 46.4892Z" fill="#CBC5C5"/>
<path d="M142.839 40.9659C142.839 41.6196 142.311 42.1495 141.66 42.1495C141.008 42.1495 140.48 41.6196 140.48 40.9659C140.48 40.3123 141.008 39.7824 141.66 39.7824C142.311 39.7824 142.839 40.3123 142.839 40.9659Z" fill="#CBC5C5"/>
<path d="M129.272 36.8235C129.272 37.4772 128.743 38.0071 128.092 38.0071C127.44 38.0071 126.912 37.4772 126.912 36.8235C126.912 36.1699 127.44 35.64 128.092 35.64C128.743 35.64 129.272 36.1699 129.272 36.8235Z" fill="#CBC5C5"/>
<path d="M115.311 21.2401C115.311 21.8938 114.782 22.4237 114.131 22.4237C113.479 22.4237 112.951 21.8938 112.951 21.2401C112.951 20.5865 113.479 20.0566 114.131 20.0566C114.782 20.0566 115.311 20.5865 115.311 21.2401Z" fill="#CBC5C5"/>
<path d="M124.552 14.3361C124.552 14.9898 124.024 15.5197 123.373 15.5197C122.721 15.5197 122.193 14.9898 122.193 14.3361C122.193 13.6825 122.721 13.1526 123.373 13.1526C124.024 13.1526 124.552 13.6825 124.552 14.3361Z" fill="#CBC5C5"/>
<path d="M99.5801 13.1526C99.5801 13.8062 99.0519 14.3361 98.4003 14.3361C97.7487 14.3361 97.2205 13.8062 97.2205 13.1526C97.2205 12.4989 97.7487 11.969 98.4003 11.969C99.0519 11.969 99.5801 12.4989 99.5801 13.1526Z" fill="#CBC5C5"/>
<path d="M100.367 3.68419C100.367 4.33785 99.8384 4.86774 99.1868 4.86774C98.5352 4.86774 98.007 4.33785 98.007 3.68419C98.007 3.03054 98.5352 2.50065 99.1868 2.50065C99.8384 2.50065 100.367 3.03054 100.367 3.68419Z" fill="#CBC5C5"/>
<path d="M120.03 142.159C120.292 142.883 120.659 144.566 120.03 145.513C126.719 144.273 137.656 134.609 136.94 127.365C130.836 129.111 127.197 132.207 120.03 142.159Z" fill="#CBC5C5"/>
<path d="M127.699 125.984C128.092 120.264 136.154 109.809 137.727 110.598C139.3 111.387 138.513 125.59 132.024 128.351C131.553 127.247 128.944 126.313 127.699 125.984Z" fill="#CBC5C5"/>
<path d="M132.221 140.384C135.367 137.031 141.07 133.677 146.379 134.466C145.002 139.792 136.744 142.948 133.401 144.526C133.794 143.343 133.204 140.976 132.221 140.384Z" fill="#CBC5C5"/>
<path d="M126.519 149.852C127.109 148.077 126.126 146.302 126.715 146.104C127.187 145.947 130.058 145.776 131.435 145.71C130.097 147.434 129.054 148.353 126.519 149.852Z" fill="#CBC5C5"/>
<path d="M136.94 125.984C137.727 121.842 144.019 111.584 146.772 112.571C149.525 113.557 145.789 128.746 138.12 132.494C140.086 128.351 138.956 125.984 136.94 125.984Z" fill="#CBC5C5"/>
<path d="M139.103 110.203C139.497 104.483 138.513 101.919 140.48 97.7762C142.446 93.6338 143.036 94.0283 143.822 94.2256C144.609 94.4228 146.575 100.341 145.789 104.68C145.16 108.152 144.216 111.387 143.822 112.571C143.495 111.847 142.603 110.282 141.66 109.809C140.716 109.336 139.562 109.875 139.103 110.203Z" fill="#CBC5C5"/>
<path d="M145.789 111.782C145.965 102.905 151.884 94.8371 153.654 95.0146C157.587 95.4091 154.441 113.754 149.132 116.121C149.132 111.782 147.952 110.203 145.789 111.782Z" fill="#CBC5C5"/>
<path d="M140.086 133.085C145.985 129.337 144.806 126.576 148.345 123.222C151.177 120.54 154.899 119.475 156.407 119.277C153.402 127.891 150.113 131.19 140.086 133.085Z" fill="#CBC5C5"/>
<path d="M149.918 119.869C151.098 114.442 159.16 102.905 161.519 104.088C161.519 106.653 157.298 113.754 156.407 117.699C153.418 118.015 150.836 119.277 149.918 119.869Z" fill="#CBC5C5"/>
<path d="M142.053 80.2203C145.789 81.7983 150.705 87.5188 149.525 95.8036C148.266 94.2256 146.903 94.6201 146.379 95.0146C145.736 93.2603 145.221 92.6724 143.822 92.8448C141.559 87.8957 141.426 85.1346 142.053 80.2203Z" fill="#CBC5C5"/>
<path d="M154.441 73.7107C156.997 76.2751 159.53 87.1285 156.407 96.5927C154.263 93.3904 153.227 93.9851 151.295 93.831C150.778 90.8812 150.656 87.8919 150.799 85.1517C151.095 84.8229 151.727 83.9287 151.884 82.9819C152.042 82.035 151.519 81.2723 151.237 81.0093C151.927 76.7859 153.231 73.8226 154.441 73.7107Z" fill="#CBC5C5"/>
<path d="M162.503 87.1243C162.503 92.8448 161.581 95.8816 161.519 102.313C160.93 103.694 158.767 103.497 159.16 99.5515C158.879 100.492 157.075 101.396 157.39 96.7899C157.705 92.1842 162.503 87.1243 162.503 87.1243Z" fill="#CBC5C5"/>
<path d="M139.89 65.8204C140.064 73.0156 141.731 75.8925 145.789 80.2203C146.744 78.3103 148.542 81.0093 150.311 79.234C146.379 72.1327 147.952 69.9628 144.609 67.793C142.737 66.3731 141.713 66.1477 139.89 65.8204Z" fill="#CBC5C5"/>
<path d="M148.542 57.3383C154.441 63.4533 157.821 67.3427 156.407 75.2888C154.387 71.1041 153.109 72.1341 150.705 77.0641C147.153 69.2726 146.351 64.948 148.542 57.3383Z" fill="#CBC5C5"/>
<path d="M159.16 89.0969C158.473 83.1491 158.177 80.2203 158.767 77.0641C159.677 74.8731 160.602 73.8268 163.092 72.3299C164.042 77.4953 163.963 80.3813 163.092 85.5462C160.872 86.2633 160.214 87.2364 159.16 89.0969Z" fill="#CBC5C5"/>
<path d="M157.98 75.2888C158.767 68.7793 156.014 65.2287 156.014 61.2835C156.014 57.3383 158.767 54.9712 158.767 54.9712C160.544 62.0223 160.796 65.7562 160.93 72.3299C159.75 72.774 159.099 73.4615 157.98 75.2888Z" fill="#CBC5C5"/>
<path d="M134.384 51.8151C136.077 57.2269 137.519 59.9237 141.66 63.6506C142.226 62.0294 142.626 61.6046 143.429 61.2835C142.064 58.5754 141.849 57.0644 141.66 54.3795C137.52 51.6044 136.393 51.6782 134.384 51.8151Z" fill="#CBC5C5"/>
<path d="M145.199 60.0999C147.759 55.3277 148.94 55.1625 150.799 57.3383C150.704 53.2658 150.032 51.5823 148.542 48.8563C147.156 48.6541 146.906 47.8016 146.772 46.4892C144.645 44.2557 143.55 43.7567 141.66 43.333C141.778 50.4158 142.352 54.1738 145.199 60.0999Z" fill="#CBC5C5"/>
<path d="M152.474 44.1221C155.263 46.5605 156.392 48.6122 157.193 54.1822C156.437 54.8299 156.063 55.7449 155.424 57.7328C154.527 56.7355 154.009 56.5943 153.064 56.9438C151.147 52.038 151.144 49.2322 152.474 44.1221Z" fill="#CBC5C5"/>
<path d="M141.07 52.4069C139.92 44.756 134.384 38.9934 129.272 38.9934C127.305 38.9934 126.191 37.0208 125.536 38.0071C125.184 38.536 127.853 42.9503 131.631 46.6864C134.898 49.9165 139.155 52.5898 141.07 52.4069Z" fill="#CBC5C5"/>
<path d="M128.878 26.5661C135.834 28.2405 138.869 30.3062 141.66 37.4153C139.623 39.2253 138.092 39.9846 140.48 44.7138C132.272 38.2421 130.193 34.1954 128.878 26.5661Z" fill="#CBC5C5"/>
<path d="M142.839 29.1305C147.635 33.587 149.526 36.5575 151.688 42.544C151.69 43.5088 151.63 43.9981 151.098 44.5166C150.209 43.9986 149.474 43.8603 147.362 44.1221C143.286 38.0764 142.556 34.8154 142.839 29.1305Z" fill="#CBC5C5"/>
<path d="M116.097 17.295C124.983 17.7883 128.876 19.7904 133.794 26.5661C128.125 24.4314 126.779 24.8229 127.699 29.1305C121.099 25.259 118.945 22.5242 116.097 17.295Z" fill="#CBC5C5"/>
<path d="M125.732 14.1389C126.126 17.6895 135.171 24.5935 141.856 34.2592C139.497 27.3551 138.695 26.0202 141.66 27.9469C136.163 18.9581 132.624 16.1937 125.732 14.1389Z" fill="#CBC5C5"/>
<path d="M112.951 25.9743C114.354 24.4224 115.309 23.8281 118.26 24.199C122.025 27.5208 124.061 28.6647 127.535 30.6165L127.699 30.7085C128.315 31.5434 128.597 32.3077 128.878 33.6674C123.401 33.6789 119.887 31.9484 112.951 25.9743Z" fill="#CBC5C5"/>
<path d="M106.069 17.295C109.805 18.8731 114.721 18.2813 114.721 18.2813C114.855 15.3616 116.462 15.7372 118.653 15.5197C111.4 9.82028 107.086 8.43689 98.7935 10.3707C102.726 11.969 100.367 14.8864 106.069 17.295Z" fill="#CBC5C5"/>
<path d="M112.754 23.2127C105.42 23.14 102.185 21.9805 97.2205 18.8731C98.1049 16.5173 99.0186 15.9991 101.743 15.7169C104.235 19.0471 106.496 20.0676 111.378 21.0429C111.568 22.0914 111.835 22.6556 112.754 23.2127Z" fill="#CBC5C5"/>
<path d="M101.743 2.89516C102.344 5.76179 103.075 7.22155 107.052 8.8129C110.549 9.6234 111.66 9.01722 119.243 14.9279C119.878 15.3274 120.223 15.4586 120.816 15.5197C120.728 13.868 120.88 13.0898 121.406 11.969C114.678 6.06275 110.198 4.51149 101.743 2.89516Z" fill="#CBC5C5"/>
<path d="M83.2596 15.5197C83.7863 14.0209 84.4074 13.3457 86.0124 12.3635C87.9198 13.445 89.8906 13.6784 94.8609 13.5471C96.1235 14.2065 96.6692 14.6289 97.2205 15.5197C92.3262 17.598 89.2471 17.591 83.2596 15.5197Z" fill="#CBC5C5"/>
<path d="M83.2596 0.133552C84.1925 1.60732 84.8769 2.43004 86.6023 3.88145C90.8352 3.61194 93.0466 3.90341 96.8272 4.86774C96.623 3.94535 96.6747 3.42357 96.8272 2.50065C90.7334 0.082413 87.8573 -0.247386 83.2596 0.133552Z" fill="#CBC5C5"/>
<path d="M78.5384 163.463C78.5384 163.463 80.5057 163.858 82.2754 163.858C84.0451 163.858 86.0124 163.463 86.0124 163.463C85.9789 163.263 85.9465 163.066 85.9152 162.871C85.6716 161.36 85.4928 160.007 85.3748 158.729C85.2806 157.709 85.2253 156.737 85.207 155.77C85.1921 154.985 85.2015 154.203 85.2344 153.403C85.2628 152.711 85.3086 152.004 85.3713 151.269L85.3748 151.228C85.5114 149.64 85.7261 147.915 86.0124 145.907C86.0124 145.907 84.2417 145.513 82.2754 145.513C80.3091 145.513 78.5384 145.907 78.5384 145.907C78.8247 147.915 79.0394 149.64 79.176 151.228L79.1795 151.269C79.2421 152.004 79.288 152.711 79.3164 153.403C79.3492 154.203 79.3587 154.985 79.3438 155.77C79.3255 156.737 79.2701 157.709 79.176 158.729C79.058 160.007 78.8792 161.36 78.6356 162.871C78.6043 163.066 78.5719 163.263 78.5384 163.463Z" fill="#CBC5C5"/>
<path fill-rule="evenodd" clip-rule="evenodd" d="M78.5384 145.907C78.5384 145.907 80.3091 145.513 82.2754 145.513C84.2417 145.513 86.0124 145.907 86.0124 145.907C85.7261 147.915 85.5114 149.64 85.3748 151.228C86.799 143.935 90.3383 140.581 92.108 138.411C95.2542 138.411 97.6138 141.173 100.17 141.173C102.923 141.173 102.923 141.173 102.923 143.343C102.923 145.513 102.53 148.669 100.563 150.247C98.5969 151.825 95.6474 153.206 94.6643 153.206C93.6811 153.206 88.1754 152.219 88.372 151.036C88.5686 149.852 92.3047 149.852 93.2878 149.852C94.271 149.852 99.3835 149.458 99.7767 148.077C100.17 146.696 97.6138 147.091 95.4508 145.907C93.2878 144.724 92.3047 142.751 90.535 145.907C88.7792 149.038 85.2537 152.937 85.3713 151.269C85.3086 152.004 85.2628 152.711 85.2344 153.403C89.7484 153.206 96.2373 155.376 100.957 155.178C101.546 152.022 104.496 149.852 105.479 149.852C106.462 149.852 110.002 155.178 112.558 155.178C114.328 155.178 117.08 153.403 117.08 151.825C118.185 152.071 119.312 152.624 119.71 154.587L121.013 153.797C120.267 149.23 119.067 147.912 114.721 149.063C115.94 150.705 115.974 151.564 114.721 153.206C113.305 152.732 112.951 149.852 112.951 148.471C115.704 146.499 116.687 150.247 124.552 145.513C125.246 146.941 125.214 147.809 124.946 151.228L126.519 149.852C127.109 148.077 126.126 146.302 126.715 146.104C127.187 145.947 130.058 145.776 131.435 145.71L133.401 144.526C133.794 143.343 133.204 140.976 132.221 140.384C135.367 137.031 141.07 133.677 146.379 134.466L140.086 133.085C145.985 129.337 144.806 126.576 148.345 123.222C151.177 120.54 154.899 119.475 156.407 119.277V117.699C153.418 118.015 150.836 119.277 149.918 119.869C151.098 114.442 159.16 102.905 161.519 104.088V102.313C160.93 103.694 158.767 103.497 159.16 99.5515C158.879 100.492 157.075 101.396 157.39 96.7899C157.705 92.1842 162.503 87.1243 162.503 87.1243L163.092 85.5462C160.872 86.2633 160.214 87.2364 159.16 89.0969C158.473 83.1491 158.177 80.2203 158.767 77.0641C159.677 74.8731 160.602 73.8268 163.092 72.3299H160.93C159.75 72.774 159.099 73.4615 157.98 75.2888C158.767 68.7793 156.014 65.2287 156.014 61.2835C156.014 57.3383 158.767 54.9712 158.767 54.9712L157.193 54.1822C156.437 54.8299 156.063 55.7449 155.424 57.7328C154.527 56.7355 154.009 56.5943 153.064 56.9438C151.147 52.038 151.144 49.2322 152.474 44.1221L151.688 42.544C151.69 43.5088 151.63 43.9981 151.098 44.5166C150.209 43.9986 149.474 43.8603 147.362 44.1221C143.286 38.0764 142.556 34.8154 142.839 29.1305L141.66 27.9469C138.695 26.0202 139.497 27.3551 141.856 34.2592C135.171 24.5935 126.126 17.6895 125.732 14.1389L124.552 14.3361C124.552 14.9898 124.024 15.5197 123.373 15.5197C122.721 15.5197 122.193 14.9898 122.193 14.3361L121.406 11.969C120.88 13.0898 120.728 13.868 120.816 15.5197C120.223 15.4586 119.878 15.3274 119.243 14.9279C111.66 9.01722 110.549 9.6234 107.052 8.8129C103.075 7.22155 102.344 5.76179 101.743 2.89516L100.367 3.68419C100.367 4.33785 99.8384 4.86774 99.1868 4.86774C98.5352 4.86774 98.007 4.33785 98.007 3.68419L96.8272 2.50065C96.6747 3.42357 96.623 3.94535 96.8272 4.86774C93.0466 3.90341 90.8352 3.61194 86.6023 3.88145C84.8769 2.43004 84.1925 1.60732 83.2596 0.133552H83.2586H81.2922H81.2912C80.3583 1.60732 79.6739 2.43004 77.9485 3.88145C73.7156 3.61194 71.5042 3.90341 67.7236 4.86774C67.9278 3.94535 67.8761 3.42357 67.7236 2.50065L66.5438 3.68419C66.5438 4.33785 66.0155 4.86774 65.364 4.86774C64.7124 4.86774 64.1842 4.33785 64.1842 3.68419L62.8077 2.89516C62.2068 5.76179 61.4762 7.22155 57.4987 8.8129C54.0019 9.6234 52.8911 9.01722 45.3074 14.9279C44.6725 15.3274 44.3278 15.4586 43.7344 15.5197C43.823 13.868 43.6711 13.0898 43.1445 11.969L42.3579 14.3361C42.3579 14.9898 41.8297 15.5197 41.1781 15.5197C40.5266 15.5197 39.9983 14.9898 39.9983 14.3361L38.8185 14.1389C38.4253 17.6895 29.3802 24.5935 22.6947 34.2592C25.0542 27.3551 25.8553 26.0202 22.8913 27.9469L21.7115 29.1305C21.9945 34.8154 21.2649 38.0764 17.1889 44.1221C15.0771 43.8603 14.3423 43.9986 13.4529 44.5166C12.9211 43.9981 12.8606 43.5088 12.863 42.544L12.0765 44.1221C13.4063 49.2322 13.4037 52.038 11.4866 56.9438C10.5418 56.5943 10.0237 56.7355 9.12699 57.7328C8.48757 55.7449 8.11358 54.8299 7.3573 54.1822L5.78423 54.9712C5.78423 54.9712 8.53709 57.3383 8.53709 61.2835C8.53709 65.2287 5.78423 68.7793 6.57077 75.2888C5.45178 73.4615 4.8007 72.774 3.62127 72.3299H1.45831C3.94835 73.8268 4.87332 74.8731 5.78423 77.0641C6.37413 80.2203 6.07733 83.1491 5.39097 89.0969C4.33717 87.2364 3.67924 86.2633 1.45831 85.5462L2.04821 87.1243C2.04821 87.1243 6.84544 92.1842 7.16066 96.7899C7.47589 101.396 5.67219 100.492 5.39097 99.5515C5.78423 103.497 3.62127 103.694 3.03138 102.313V104.088C5.39097 102.905 13.4529 114.442 14.6327 119.869C13.7151 119.277 11.1326 118.015 8.14383 117.699V119.277C9.65135 119.475 13.3743 120.54 16.2058 123.222C19.7452 126.576 18.5654 129.337 24.4643 133.085L18.1721 134.466C23.4812 133.677 29.1835 137.031 32.3297 140.384C31.3465 140.976 30.7566 143.343 31.1499 144.526L33.1162 145.71C34.4926 145.776 37.3635 145.947 37.8354 146.104C38.4253 146.302 37.4421 148.077 38.032 149.852L39.6051 151.228C39.3372 147.809 39.3052 146.941 39.9983 145.513C47.8636 150.247 48.8468 146.499 51.5997 148.471C51.5997 149.852 51.2457 152.732 49.83 153.206C48.5772 151.564 48.611 150.705 49.83 149.063C45.4836 147.912 44.2837 149.23 43.5377 153.797L44.8406 154.587C45.2386 152.624 46.3662 152.071 47.4704 151.825C47.4704 153.403 50.2232 155.178 51.9929 155.178C54.5492 155.178 58.0886 149.852 59.0717 149.852C60.0549 149.852 63.0044 152.022 63.5943 155.178C68.3135 155.376 74.8023 153.206 79.3164 153.403C79.288 152.711 79.2421 152.004 79.1795 151.269C79.2971 152.937 75.7716 149.038 74.0158 145.907C72.2461 142.751 71.2629 144.724 69.1 145.907C66.937 147.091 64.3808 146.696 64.7741 148.077C65.1673 149.458 70.2798 149.852 71.2629 149.852C72.2461 149.852 75.9821 149.852 76.1788 151.036C76.3754 152.219 70.8697 153.206 69.8865 153.206C68.9034 153.206 65.9539 151.825 63.9875 150.247C62.0212 148.669 61.6279 145.513 61.6279 143.343C61.6279 141.173 61.6279 141.173 64.3808 141.173C66.937 141.173 69.2966 138.411 72.4427 138.411C74.2124 140.581 77.7518 143.935 79.176 151.228C79.0394 149.64 78.8247 147.915 78.5384 145.907ZM61.038 140.778C61.038 141.962 59.8582 140.778 59.8582 143.343C59.8582 144.447 61.2347 145.907 61.038 148.274C58.9345 146.515 57.7761 145.773 55.729 144.724C55.5323 144.395 54.9818 142.948 54.3525 139.792C53.566 135.847 56.7121 137.228 58.6785 138.214C60.2515 139.003 60.907 140.252 61.038 140.778ZM45.7007 143.343C50.8131 143.343 57.1054 145.907 59.8582 148.471C57.538 149.046 56.6059 149.599 55.729 151.036C55.2046 150.115 53.7233 148.077 51.9929 147.288C49.83 146.302 48.0603 147.485 46.6839 146.499C45.3074 145.513 45.7007 144.329 45.7007 143.343ZM51.5997 140.187C51.2719 140.515 50.8918 141.489 51.2064 142.751L47.0771 142.554C39.7559 135.552 38.5745 132.222 39.4084 125.392C45.2335 130.03 48.259 132.94 51.5997 140.187ZM44.5209 145.513C43.8917 144.566 44.2587 142.883 44.5209 142.159C37.354 132.207 33.7149 129.111 27.6105 127.365C26.895 134.609 37.8317 144.273 44.5209 145.513ZM34.0994 144.526C33.4478 144.526 32.9196 143.996 32.9196 143.343C32.9196 142.689 33.4478 142.159 34.0994 142.159C34.7509 142.159 35.2792 142.689 35.2792 143.343C35.2792 143.996 34.7509 144.526 34.0994 144.526ZM36.8522 130.521C36.2006 130.521 35.6724 129.991 35.6724 129.337C35.6724 128.684 36.2006 128.154 36.8522 128.154C37.5038 128.154 38.032 128.684 38.032 129.337C38.032 129.991 37.5038 130.521 36.8522 130.521ZM23.2845 114.149C22.633 114.149 22.1048 113.619 22.1048 112.965C22.1048 112.311 22.633 111.782 23.2845 111.782C23.9361 111.782 24.4643 112.311 24.4643 112.965C24.4643 113.619 23.9361 114.149 23.2845 114.149ZM6.96403 104.088C6.31245 104.088 5.78423 103.559 5.78423 102.905C5.78423 102.251 6.31245 101.721 6.96403 101.721C7.61561 101.721 8.14383 102.251 8.14383 102.905C8.14383 103.559 7.61561 104.088 6.96403 104.088ZM16.599 98.9598C15.9475 98.9598 15.4192 98.4299 15.4192 97.7762C15.4192 97.1225 15.9475 96.5927 16.599 96.5927C17.2506 96.5927 17.7788 97.1225 17.7788 97.7762C17.7788 98.4299 17.2506 98.9598 16.599 98.9598ZM15.026 84.1654C14.3744 84.1654 13.8462 83.6355 13.8462 82.9819C13.8462 82.3282 14.3744 81.7983 15.026 81.7983C15.6776 81.7983 16.2058 82.3282 16.2058 82.9819C16.2058 83.6355 15.6776 84.1654 15.026 84.1654ZM10.8967 61.2835C10.2451 61.2835 9.71689 60.7536 9.71689 60.0999C9.71689 59.4463 10.2451 58.9164 10.8967 58.9164C11.5483 58.9164 12.0765 59.4463 12.0765 60.0999C12.0765 60.7536 11.5483 61.2835 10.8967 61.2835ZM19.9418 65.2287C19.2902 65.2287 18.762 64.6988 18.762 64.0451C18.762 63.3914 19.2902 62.8616 19.9418 62.8616C20.5934 62.8616 21.1216 63.3914 21.1216 64.0451C21.1216 64.6988 20.5934 65.2287 19.9418 65.2287ZM14.8293 47.6727C14.1778 47.6727 13.6495 47.1428 13.6495 46.4892C13.6495 45.8355 14.1778 45.3056 14.8293 45.3056C15.4809 45.3056 16.0091 45.8355 16.0091 46.4892C16.0091 47.1428 15.4809 47.6727 14.8293 47.6727ZM22.8913 42.1495C22.2397 42.1495 21.7115 41.6196 21.7115 40.9659C21.7115 40.3123 22.2397 39.7824 22.8913 39.7824C23.5429 39.7824 24.0711 40.3123 24.0711 40.9659C24.0711 41.6196 23.5429 42.1495 22.8913 42.1495ZM36.4589 38.0071C35.8074 38.0071 35.2792 37.4772 35.2792 36.8235C35.2792 36.1699 35.8074 35.64 36.4589 35.64C37.1105 35.64 37.6387 36.1699 37.6387 36.8235C37.6387 37.4772 37.1105 38.0071 36.4589 38.0071ZM50.4199 22.4237C49.7683 22.4237 49.2401 21.8938 49.2401 21.2401C49.2401 20.5865 49.7683 20.0566 50.4199 20.0566C51.0715 20.0566 51.5997 20.5865 51.5997 21.2401C51.5997 21.8938 51.0715 22.4237 50.4199 22.4237ZM66.1505 14.3361C65.4989 14.3361 64.9707 13.8062 64.9707 13.1526C64.9707 12.4989 65.4989 11.969 66.1505 11.969C66.8021 11.969 67.3303 12.4989 67.3303 13.1526C67.3303 13.8062 66.8021 14.3361 66.1505 14.3361ZM26.8239 110.598C28.397 109.809 36.4589 120.264 36.8522 125.984C35.6069 126.313 32.9982 127.247 32.5263 128.351C26.0374 125.59 25.2509 111.387 26.8239 110.598ZM17.7788 112.571C20.5317 111.584 26.8239 121.842 27.6105 125.984C25.5948 125.984 24.4643 128.351 26.4307 132.494C18.762 128.746 15.026 113.557 17.7788 112.571ZM24.0711 97.7762C26.0374 101.919 25.0542 104.483 25.4475 110.203C24.9887 109.875 23.8351 109.336 22.8913 109.809C21.9474 110.282 21.056 111.847 20.7283 112.571C20.3351 111.387 19.3912 108.152 18.762 104.68C17.9755 100.341 19.9418 94.4228 20.7283 94.2256C21.5149 94.0283 22.1048 93.6338 24.0711 97.7762ZM10.8967 95.0146C12.6664 94.8371 18.5856 102.905 18.762 111.782C16.599 110.203 15.4192 111.782 15.4192 116.121C10.1102 113.754 6.96403 95.4091 10.8967 95.0146ZM15.026 95.8036C13.8462 87.5188 18.762 81.7983 22.498 80.2203C23.1251 85.1346 22.9921 87.8957 20.7283 92.8448C19.33 92.6724 18.8146 93.2603 18.1721 95.0146C17.6477 94.6201 16.2844 94.2256 15.026 95.8036ZM8.14383 96.5927C5.02073 87.1285 7.55393 76.2751 10.1102 73.7107C11.3196 73.8226 12.6235 76.7859 13.3135 81.0093C13.0323 81.2723 12.5091 82.035 12.6664 82.9819C12.8237 83.9287 13.4556 84.8229 13.7519 85.1517C13.895 87.8919 13.7727 90.8812 13.2563 93.831C11.3242 93.9851 10.2882 93.3904 8.14383 96.5927ZM18.762 80.2203C22.82 75.8925 24.4868 73.0156 24.661 65.8204C22.8379 66.1477 21.8142 66.3731 19.9418 67.793C16.599 69.9628 18.1721 72.1327 14.2394 79.234C16.0091 81.0093 17.8068 78.3103 18.762 80.2203ZM8.14383 75.2888C6.72947 67.3427 10.1102 63.4533 16.0091 57.3383C18.2001 64.948 17.3978 69.2726 13.8462 77.0641C11.4418 72.1341 10.1639 71.1041 8.14383 75.2888ZM22.8913 63.6506C27.0322 59.9237 28.4741 57.2269 30.1667 51.8151C28.1579 51.6782 27.0311 51.6044 22.8913 54.3795C22.7014 57.0644 22.4869 58.5754 21.1216 61.2835C21.9244 61.6046 22.3243 62.0294 22.8913 63.6506ZM13.7519 57.3383C15.6111 55.1625 16.7921 55.3277 19.3519 60.0999C22.199 54.1738 22.7728 50.4158 22.8913 43.333C21.0004 43.7567 19.906 44.2557 17.7788 46.4892C17.6449 47.8016 17.3947 48.6541 16.0091 48.8563C14.5186 51.5823 13.8465 53.2658 13.7519 57.3383ZM35.2792 38.9934C30.1667 38.9934 24.631 44.756 23.4812 52.4069C25.3958 52.5898 29.6529 49.9165 32.9196 46.6864C36.698 42.9503 39.3667 38.536 39.0152 38.0071C38.3597 37.0208 37.2455 38.9934 35.2792 38.9934ZM22.8913 37.4153C25.6816 30.3062 28.7164 28.2405 35.6724 26.5661C34.3576 34.1954 32.2792 38.2421 24.0711 44.7138C26.4585 39.9846 24.928 39.2253 22.8913 37.4153ZM30.7566 26.5661C35.675 19.7904 39.5674 17.7883 48.4535 17.295C45.606 22.5242 43.4518 25.259 36.8522 29.1305C37.7722 24.8229 36.4254 24.4314 30.7566 26.5661ZM46.2906 24.199C49.2423 23.8281 50.1973 24.4224 51.5997 25.9743C44.6641 31.9484 41.1502 33.6789 35.6724 33.6674C35.954 32.3077 36.2353 31.5434 36.8522 30.7085L37.0159 30.6165C40.4899 28.6647 42.5257 27.5208 46.2906 24.199ZM49.83 18.2813C49.83 18.2813 54.7458 18.8731 58.4818 17.295C64.1842 14.8864 61.8246 11.969 65.7572 10.3707C57.4649 8.43689 53.1503 9.82028 45.8973 15.5197C48.0891 15.7372 49.6962 15.3616 49.83 18.2813ZM67.3303 18.8731C62.3658 21.9805 59.1306 23.14 51.7963 23.2127C52.7157 22.6556 52.9825 22.0914 53.1727 21.0429C58.0549 20.0676 60.3153 19.0471 62.8077 15.7169C65.5322 15.9991 66.4459 16.5173 67.3303 18.8731ZM82.2754 8.90762C79.3476 10.7866 77.6774 11.5745 73.4259 11.5745C70.0206 11.5745 68.6886 10.7657 67.4663 10.0235C66.43 9.39425 65.4726 8.8129 63.3976 8.8129C70.663 4.02894 75.1158 3.65858 82.2754 6.73397C89.435 3.65858 93.8878 4.02894 101.153 8.8129C99.0781 8.8129 98.1208 9.39425 97.0845 10.0235C95.8622 10.7657 94.5302 11.5745 91.1249 11.5745C86.8734 11.5745 85.2032 10.7866 82.2754 8.90762ZM78.5384 12.3635C80.1434 13.3457 80.7645 14.0209 81.2912 15.5197C75.3037 17.591 72.2246 17.598 67.3303 15.5197C67.8816 14.6289 68.4273 14.2065 69.6899 13.5471C74.6601 13.6784 76.631 13.445 78.5384 12.3635ZM103.513 140.778C103.513 141.962 104.693 140.778 104.693 143.343C104.693 144.447 103.316 145.907 103.513 148.274C105.616 146.515 106.775 145.773 108.822 144.724C109.018 144.395 109.569 142.948 110.198 139.792C110.985 135.847 107.839 137.228 105.872 138.214C104.299 139.003 103.644 140.252 103.513 140.778ZM118.85 143.343C113.738 143.343 107.445 145.907 104.693 148.471C107.013 149.046 107.945 149.599 108.822 151.036C109.346 150.115 110.827 148.077 112.558 147.288C114.721 146.302 116.491 147.485 117.867 146.499C119.243 145.513 118.85 144.329 118.85 143.343ZM112.951 140.187C113.279 140.515 113.659 141.489 113.344 142.751L117.474 142.554C124.795 135.552 125.976 132.222 125.142 125.392C119.317 130.03 116.292 132.94 112.951 140.187ZM120.03 145.513C120.659 144.566 120.292 142.883 120.03 142.159C127.197 132.207 130.836 129.111 136.94 127.365C137.656 134.609 126.719 144.273 120.03 145.513ZM130.451 144.526C131.103 144.526 131.631 143.996 131.631 143.343C131.631 142.689 131.103 142.159 130.451 142.159C129.8 142.159 129.272 142.689 129.272 143.343C129.272 143.996 129.8 144.526 130.451 144.526ZM127.699 130.521C128.35 130.521 128.878 129.991 128.878 129.337C128.878 128.684 128.35 128.154 127.699 128.154C127.047 128.154 126.519 128.684 126.519 129.337C126.519 129.991 127.047 130.521 127.699 130.521ZM141.266 114.149C141.918 114.149 142.446 113.619 142.446 112.965C142.446 112.311 141.918 111.782 141.266 111.782C140.615 111.782 140.086 112.311 140.086 112.965C140.086 113.619 140.615 114.149 141.266 114.149ZM157.587 104.088C158.238 104.088 158.767 103.559 158.767 102.905C158.767 102.251 158.238 101.721 157.587 101.721C156.935 101.721 156.407 102.251 156.407 102.905C156.407 103.559 156.935 104.088 157.587 104.088ZM147.952 98.9598C148.603 98.9598 149.132 98.4299 149.132 97.7762C149.132 97.1225 148.603 96.5927 147.952 96.5927C147.3 96.5927 146.772 97.1225 146.772 97.7762C146.772 98.4299 147.3 98.9598 147.952 98.9598ZM149.525 84.1654C150.176 84.1654 150.705 83.6355 150.705 82.9819C150.705 82.3282 150.176 81.7983 149.525 81.7983C148.873 81.7983 148.345 82.3282 148.345 82.9819C148.345 83.6355 148.873 84.1654 149.525 84.1654ZM153.654 61.2835C154.306 61.2835 154.834 60.7536 154.834 60.0999C154.834 59.4463 154.306 58.9164 153.654 58.9164C153.003 58.9164 152.474 59.4463 152.474 60.0999C152.474 60.7536 153.003 61.2835 153.654 61.2835ZM144.609 65.2287C145.261 65.2287 145.789 64.6988 145.789 64.0451C145.789 63.3914 145.261 62.8616 144.609 62.8616C143.957 62.8616 143.429 63.3914 143.429 64.0451C143.429 64.6988 143.957 65.2287 144.609 65.2287ZM149.721 47.6727C150.373 47.6727 150.901 47.1428 150.901 46.4892C150.901 45.8355 150.373 45.3056 149.721 45.3056C149.07 45.3056 148.542 45.8355 148.542 46.4892C148.542 47.1428 149.07 47.6727 149.721 47.6727ZM141.66 42.1495C142.311 42.1495 142.839 41.6196 142.839 40.9659C142.839 40.3123 142.311 39.7824 141.66 39.7824C141.008 39.7824 140.48 40.3123 140.48 40.9659C140.48 41.6196 141.008 42.1495 141.66 42.1495ZM128.092 38.0071C128.743 38.0071 129.272 37.4772 129.272 36.8235C129.272 36.1699 128.743 35.64 128.092 35.64C127.44 35.64 126.912 36.1699 126.912 36.8235C126.912 37.4772 127.44 38.0071 128.092 38.0071ZM114.131 22.4237C114.782 22.4237 115.311 21.8938 115.311 21.2401C115.311 20.5865 114.782 20.0566 114.131 20.0566C113.479 20.0566 112.951 20.5865 112.951 21.2401C112.951 21.8938 113.479 22.4237 114.131 22.4237ZM98.4003 14.3361C99.0519 14.3361 99.5801 13.8062 99.5801 13.1526C99.5801 12.4989 99.0519 11.969 98.4003 11.969C97.7487 11.969 97.2205 12.4989 97.2205 13.1526C97.2205 13.8062 97.7487 14.3361 98.4003 14.3361ZM137.727 110.598C136.154 109.809 128.092 120.264 127.699 125.984C128.944 126.313 131.553 127.247 132.024 128.351C138.513 125.59 139.3 111.387 137.727 110.598ZM146.772 112.571C144.019 111.584 137.727 121.842 136.94 125.984C138.956 125.984 140.086 128.351 138.12 132.494C145.789 128.746 149.525 113.557 146.772 112.571ZM140.48 97.7762C138.513 101.919 139.497 104.483 139.103 110.203C139.562 109.875 140.716 109.336 141.66 109.809C142.603 110.282 143.495 111.847 143.822 112.571C144.216 111.387 145.16 108.152 145.789 104.68C146.575 100.341 144.609 94.4228 143.822 94.2256C143.036 94.0283 142.446 93.6338 140.48 97.7762ZM153.654 95.0146C151.884 94.8371 145.965 102.905 145.789 111.782C147.952 110.203 149.132 111.782 149.132 116.121C154.441 113.754 157.587 95.4091 153.654 95.0146ZM149.525 95.8036C150.705 87.5188 145.789 81.7983 142.053 80.2203C141.426 85.1346 141.559 87.8957 143.822 92.8448C145.221 92.6724 145.736 93.2603 146.379 95.0146C146.903 94.6201 148.266 94.2256 149.525 95.8036ZM156.407 96.5927C159.53 87.1285 156.997 76.2751 154.441 73.7107C153.231 73.8226 151.927 76.7859 151.237 81.0093C151.519 81.2723 152.042 82.035 151.884 82.9819C151.727 83.9287 151.095 84.8229 150.799 85.1517C150.656 87.8919 150.778 90.8812 151.295 93.831C153.227 93.9851 154.263 93.3904 156.407 96.5927ZM145.789 80.2203C141.731 75.8925 140.064 73.0156 139.89 65.8204C141.713 66.1477 142.737 66.3731 144.609 67.793C147.952 69.9628 146.379 72.1327 150.311 79.234C148.542 81.0093 146.744 78.3103 145.789 80.2203ZM156.407 75.2888C157.821 67.3427 154.441 63.4533 148.542 57.3383C146.351 64.948 147.153 69.2726 150.705 77.0641C153.109 72.1341 154.387 71.1041 156.407 75.2888ZM141.66 63.6506C137.519 59.9237 136.077 57.2269 134.384 51.8151C136.393 51.6782 137.52 51.6044 141.66 54.3795C141.849 57.0644 142.064 58.5754 143.429 61.2835C142.626 61.6046 142.226 62.0294 141.66 63.6506ZM150.799 57.3383C148.94 55.1625 147.759 55.3277 145.199 60.0999C142.352 54.1738 141.778 50.4158 141.66 43.333C143.55 43.7567 144.645 44.2557 146.772 46.4892C146.906 47.8016 147.156 48.6541 148.542 48.8563C150.032 51.5823 150.704 53.2658 150.799 57.3383ZM129.272 38.9934C134.384 38.9934 139.92 44.756 141.07 52.4069C139.155 52.5898 134.898 49.9165 131.631 46.6864C127.853 42.9503 125.184 38.536 125.536 38.0071C126.191 37.0208 127.305 38.9934 129.272 38.9934ZM141.66 37.4153C138.869 30.3062 135.834 28.2405 128.878 26.5661C130.193 34.1954 132.272 38.2421 140.48 44.7138C138.092 39.9846 139.623 39.2253 141.66 37.4153ZM133.794 26.5661C128.876 19.7904 124.983 17.7883 116.097 17.295C118.945 22.5242 121.099 25.259 127.699 29.1305C126.779 24.8229 128.125 24.4314 133.794 26.5661ZM118.26 24.199C115.309 23.8281 114.354 24.4224 112.951 25.9743C119.887 31.9484 123.401 33.6789 128.878 33.6674C128.597 32.3077 128.315 31.5434 127.699 30.7085L127.535 30.6165C124.061 28.6647 122.025 27.5208 118.26 24.199ZM114.721 18.2813C114.721 18.2813 109.805 18.8731 106.069 17.295C100.367 14.8864 102.726 11.969 98.7935 10.3707C107.086 8.43689 111.4 9.82028 118.653 15.5197C116.462 15.7372 114.855 15.3616 114.721 18.2813ZM97.2205 18.8731C102.185 21.9805 105.42 23.14 112.754 23.2127C111.835 22.6556 111.568 22.0914 111.378 21.0429C106.496 20.0676 104.235 19.0471 101.743 15.7169C99.0186 15.9991 98.1049 16.5173 97.2205 18.8731ZM86.0124 12.3635C84.4074 13.3457 83.7863 14.0209 83.2596 15.5197C89.2471 17.591 92.3262 17.598 97.2205 15.5197C96.6692 14.6289 96.1235 14.2065 94.8609 13.5471C89.8906 13.6784 87.9198 13.445 86.0124 12.3635Z" fill="#6F6C6C"/>
<path fill-rule="evenodd" clip-rule="evenodd" d="M82.2754 6.73397C89.435 3.65858 93.8878 4.02894 101.153 8.8129C99.0781 8.8129 98.1208 9.39425 97.0845 10.0235C95.8622 10.7657 94.5302 11.5745 91.1249 11.5745C86.8734 11.5745 85.2032 10.7866 82.2754 8.90762C82.6339 8.67758 83.0112 8.43118 83.4144 8.16787C83.6781 7.99565 83.9529 7.8162 84.2407 7.62935C83.5619 7.30443 82.9081 7.00574 82.2754 6.73397ZM82.2754 6.73397C81.6427 7.00574 80.9889 7.30443 80.3101 7.62935C80.5979 7.8162 80.8727 7.99565 81.1364 8.16787C81.5396 8.43118 81.9169 8.67758 82.2754 8.90762C79.3476 10.7866 77.6774 11.5745 73.4259 11.5745C70.0206 11.5745 68.6886 10.7657 67.4663 10.0235C66.43 9.39425 65.4726 8.8129 63.3976 8.8129C70.663 4.02894 75.1158 3.65858 82.2754 6.73397Z" fill="#CBC5C5"/>
<path d="M82.2754 6.73397C81.6427 7.00574 80.9889 7.30443 80.3101 7.62935C80.5979 7.8162 80.8727 7.99565 81.1364 8.16787C81.5396 8.43118 81.9169 8.67758 82.2754 8.90762C82.6339 8.67758 83.0112 8.43118 83.4144 8.16787C83.6781 7.99565 83.9529 7.8162 84.2407 7.62935C83.5619 7.30443 82.9081 7.00574 82.2754 6.73397Z" fill="#6F6C6C"/>
<path d="M85.207 155.77C85.2253 156.737 85.2806 157.709 85.3748 158.729C85.8277 160.051 95.7764 161.374 101.185 163.858L102.136 162.082C99.1868 162.674 90.1417 156.165 85.207 155.77Z" fill="#6F6C6C"/>
<path d="M79.176 158.729C79.2701 157.709 79.3255 156.737 79.3438 155.77C74.4091 156.165 65.364 162.674 62.4145 162.082L63.3659 163.858C68.7744 161.374 78.7231 160.051 79.176 158.729Z" fill="#6F6C6C"/>
<path fill-rule="evenodd" clip-rule="evenodd" d="M103.744 104.158H95.5999C94.9566 111.244 88.8441 116.699 81.5681 116.493C74.558 116.294 68.929 110.911 68.318 104.158H60.1735L54.7854 107.036C55.0407 108.705 55.4496 110.327 55.9978 111.884L62.0386 111.758C62.4681 112.707 62.9648 113.62 63.5229 114.491L60.4789 119.912C61.47 121.141 62.5667 122.283 63.7558 123.326L69.3896 120.598C70.8597 121.626 72.4649 122.479 74.1754 123.126L74.3313 129.091C75.8466 129.523 77.4169 129.83 79.0304 130L81.3368 124.533C82.2943 124.561 83.2371 124.536 84.1654 124.444L87.5274 129.605C89.0976 129.285 90.6203 128.831 92.0825 128.257L91.7249 122.271C92.8181 121.728 93.8596 121.096 94.8394 120.385L99.9851 123.489C101.232 122.416 102.38 121.232 103.415 119.954L100.051 115.025C100.659 114.134 101.201 113.195 101.672 112.215L107.742 112.387C108.297 110.902 108.725 109.354 109.013 107.757L103.688 104.917C103.711 104.665 103.73 104.412 103.744 104.158Z" fill="#CBC5C5"/>
<path d="M70.8603 96.2936C70.8603 98.7712 68.8329 100.78 66.3321 100.78C63.8312 100.78 61.8039 98.7712 61.8039 96.2936C61.8039 95.0113 62.347 93.8547 63.2177 93.0371H60.0671C59.3644 94.6122 57.7735 95.7112 55.9235 95.7112C53.4226 95.7112 51.3953 93.7028 51.3953 91.2252C51.3953 90.1914 51.7483 89.2393 52.3413 88.4807L50.846 87.5984H49.0413C49.0413 95.3618 57.1599 102.447 62.2253 102.447H125.23L136.888 93.0371L135.014 88.217L132.554 89.3282C133.188 90.1 133.568 91.0847 133.568 92.1573C133.568 94.6349 131.541 96.6434 129.04 96.6434C126.805 96.6434 124.948 95.0396 124.579 92.9305L124.343 93.0371H119.864C120.735 93.8547 121.278 95.0113 121.278 96.2936C121.278 98.7712 119.251 100.78 116.75 100.78C114.249 100.78 112.222 98.7712 112.222 96.2936C112.222 95.0113 112.765 93.8547 113.636 93.0371H107.26C108.131 93.8547 108.674 95.0113 108.674 96.2936C108.674 98.7712 106.646 100.78 104.146 100.78C101.645 100.78 99.6174 98.7712 99.6174 96.2936C99.6174 95.0113 100.16 93.8547 101.031 93.0371H94.6555C95.5262 93.8547 96.0693 95.0113 96.0693 96.2936C96.0693 98.7712 94.0419 100.78 91.5411 100.78C89.0402 100.78 87.0129 98.7712 87.0129 96.2936C87.0129 95.0113 87.556 93.8547 88.4267 93.0371H82.051C82.9217 93.8547 83.4648 95.0113 83.4648 96.2936C83.4648 98.7712 81.4374 100.78 78.9366 100.78C76.4357 100.78 74.4084 98.7712 74.4084 96.2936C74.4084 95.0113 74.9515 93.8547 75.8222 93.0371H69.4465C70.3172 93.8547 70.8603 95.0113 70.8603 96.2936Z" fill="#CBC5C5"/>
<path d="M55.9235 94.4297C57.3004 94.4297 58.4764 93.5773 58.9432 92.3761L53.4644 89.1434C52.9809 89.7034 52.6889 90.4305 52.6889 91.2252C52.6889 92.995 54.1371 94.4297 55.9235 94.4297Z" fill="#CBC5C5"/>
<path d="M69.5667 96.2936C69.5667 98.0634 68.1185 99.4981 66.3321 99.4981C64.5456 99.4981 63.0975 98.0634 63.0975 96.2936C63.0975 94.5238 64.5456 93.0891 66.3321 93.0891C68.1185 93.0891 69.5667 94.5238 69.5667 96.2936Z" fill="#CBC5C5"/>
<path d="M82.1712 96.2936C82.1712 98.0634 80.723 99.4981 78.9366 99.4981C77.1502 99.4981 75.702 98.0634 75.702 96.2936C75.702 94.5238 77.1502 93.0891 78.9366 93.0891C80.723 93.0891 82.1712 94.5238 82.1712 96.2936Z" fill="#CBC5C5"/>
<path d="M94.7757 96.2936C94.7757 98.0634 93.3275 99.4981 91.5411 99.4981C89.7547 99.4981 88.3065 98.0634 88.3065 96.2936C88.3065 94.5238 89.7547 93.0891 91.5411 93.0891C93.3275 93.0891 94.7757 94.5238 94.7757 96.2936Z" fill="#CBC5C5"/>
<path d="M107.38 96.2936C107.38 98.0634 105.932 99.4981 104.146 99.4981C102.359 99.4981 100.911 98.0634 100.911 96.2936C100.911 94.5238 102.359 93.0891 104.146 93.0891C105.932 93.0891 107.38 94.5238 107.38 96.2936Z" fill="#CBC5C5"/>
<path d="M119.985 96.2936C119.985 98.0634 118.537 99.4981 116.75 99.4981C114.964 99.4981 113.515 98.0634 113.515 96.2936C113.515 94.5238 114.964 93.0891 116.75 93.0891C118.537 93.0891 119.985 94.5238 119.985 96.2936Z" fill="#CBC5C5"/>
<path d="M129.04 95.3618C130.826 95.3618 132.274 93.9271 132.274 92.1573C132.274 91.2693 131.91 90.4656 131.321 89.8853L125.812 92.3732C125.924 94.0423 127.327 95.3618 129.04 95.3618Z" fill="#CBC5C5"/>
<path d="M51.5346 86.9636H58.5995V90.8163L51.5346 86.9636Z" fill="#CBC5C5"/>
<path d="M59.831 86.9636V90.8163H65.6193V86.9636H59.831Z" fill="#CBC5C5"/>
<path d="M66.896 86.9636V90.8163H73.8962V86.9636H66.896Z" fill="#CBC5C5"/>
<path d="M75.3869 86.9636V90.8163H124.194L134.935 86.9636H75.3869Z" fill="#CBC5C5"/>
<path d="M27.8877 73.182H49.2605L49.712 72.0569H54.5819V73.182H67.478L87.7691 68H117.8V77.2024H105.535V79.3466H134.935V85.8686H49.712L67.478 80.1507L65.6193 77.4786H27.8877V73.182Z" fill="#CBC5C5"/>
</svg>
