<svg width="163" height="124" viewBox="0 0 163 124" fill="none" xmlns="http://www.w3.org/2000/svg">
<path d="M0 22C0 9.84974 9.84294 0 21.9848 0H140.903C153.045 0 162.888 9.84974 162.888 22V102C162.888 114.15 153.045 124 140.903 124H21.9848C9.84295 124 0 114.15 0 102V22Z" fill="#C5A869"/>
<path fill-rule="evenodd" clip-rule="evenodd" d="M140.903 11H21.9848C15.9139 11 10.9924 15.9249 10.9924 22V102C10.9924 108.075 15.9139 113 21.9848 113H140.903C146.974 113 151.895 108.075 151.895 102V22C151.895 15.9249 146.974 11 140.903 11ZM21.9848 0C9.84294 0 0 9.84974 0 22V102C0 114.15 9.84295 124 21.9848 124H140.903C153.045 124 162.888 114.15 162.888 102V22C162.888 9.84974 153.045 0 140.903 0H21.9848Z" fill="#A68C55"/>
<path d="M124.313 83.6594C124.313 87.1039 121.521 89.8961 118.076 89.8961C114.632 89.8961 111.839 87.1039 111.839 83.6594C111.839 80.215 114.632 77.4227 118.076 77.4227C121.521 77.4227 124.313 80.215 124.313 83.6594Z" fill="black"/>
<path fill-rule="evenodd" clip-rule="evenodd" d="M128.348 83.6594C128.348 89.3326 123.749 93.9316 118.076 93.9316C112.403 93.9316 107.804 89.3326 107.804 83.6594C107.804 77.9863 112.403 73.3872 118.076 73.3872C123.749 73.3872 128.348 77.9863 128.348 83.6594ZM118.076 91.7304C122.534 91.7304 126.147 88.1169 126.147 83.6594C126.147 79.2019 122.534 75.5884 118.076 75.5884C113.619 75.5884 110.005 79.2019 110.005 83.6594C110.005 88.1169 113.619 91.7304 118.076 91.7304Z" fill="black"/>
<path d="M98.2655 83.6594C98.2655 87.1039 95.4732 89.8961 92.0288 89.8961C88.5844 89.8961 85.7921 87.1039 85.7921 83.6594C85.7921 80.215 88.5844 77.4227 92.0288 77.4227C95.4732 77.4227 98.2655 80.215 98.2655 83.6594Z" fill="black"/>
<path fill-rule="evenodd" clip-rule="evenodd" d="M102.301 83.6594C102.301 89.3326 97.702 93.9316 92.0288 93.9316C86.3556 93.9316 81.7566 89.3326 81.7566 83.6594C81.7566 77.9863 86.3556 73.3872 92.0288 73.3872C97.702 73.3872 102.301 77.9863 102.301 83.6594ZM92.0288 91.7304C96.4863 91.7304 100.1 88.1169 100.1 83.6594C100.1 79.2019 96.4863 75.5884 92.0288 75.5884C87.5713 75.5884 83.9578 79.2019 83.9578 83.6594C83.9578 88.1169 87.5713 91.7304 92.0288 91.7304Z" fill="black"/>
<path d="M59.2683 83.6594C59.2683 87.1039 56.4761 89.8961 53.0316 89.8961C49.5872 89.8961 46.795 87.1039 46.795 83.6594C46.795 80.215 49.5872 77.4227 53.0316 77.4227C56.4761 77.4227 59.2683 80.215 59.2683 83.6594Z" fill="black"/>
<path fill-rule="evenodd" clip-rule="evenodd" d="M63.3038 83.6594C63.3038 89.3326 58.7048 93.9316 53.0316 93.9316C47.3585 93.9316 42.7595 89.3326 42.7595 83.6594C42.7595 77.9863 47.3585 73.3872 53.0316 73.3872C58.7048 73.3872 63.3038 77.9863 63.3038 83.6594ZM53.0316 91.7304C57.4891 91.7304 61.1027 88.1169 61.1027 83.6594C61.1027 79.2019 57.4891 75.5884 53.0316 75.5884C48.5742 75.5884 44.9606 79.2019 44.9606 83.6594C44.9606 88.1169 48.5742 91.7304 53.0316 91.7304Z" fill="black"/>
<path d="M18.9473 68.7017H143.94L132.072 88.2242H130.091V82.1651C129.355 76.1839 124.256 71.5529 118.076 71.5529C111.824 71.5529 106.678 76.2928 106.037 82.3754V88.3618H104.068V82.3754C103.427 76.2928 98.2813 71.5529 92.0288 71.5529C85.7763 71.5529 80.6308 76.2928 79.9896 82.3754V88.3618H65.0709V82.3754C64.4296 76.2928 59.2842 71.5529 53.0316 71.5529C46.7791 71.5529 41.6337 76.2928 40.9924 82.3754L18.9473 68.7017Z" fill="black"/>
<path d="M18.9476 66.3171H143.94L140.694 50.8227H106.667L98.8346 35.684H70.6392V30.0681L54.3485 39.075L70.6392 46.6721V41.5989H89.2522L83.9578 50.8227L51.9206 50.5094L18.9476 66.3171Z" fill="black"/>
</svg>
