<svg width="164" height="124" viewBox="0 0 164 124" fill="none" xmlns="http://www.w3.org/2000/svg">
<path d="M0.662109 22C0.662109 9.84974 10.5051 0 22.6469 0H141.565C153.707 0 163.55 9.84974 163.55 22V102C163.55 114.15 153.707 124 141.565 124H22.6469C10.5051 124 0.662109 114.15 0.662109 102V22Z" fill="#C5A869"/>
<path fill-rule="evenodd" clip-rule="evenodd" d="M141.565 11H22.6469C16.576 11 11.6545 15.9249 11.6545 22V102C11.6545 108.075 16.576 113 22.6469 113H141.565C147.636 113 152.557 108.075 152.557 102V22C152.557 15.9249 147.636 11 141.565 11ZM22.6469 0C10.5051 0 0.662109 9.84974 0.662109 22V102C0.662109 114.15 10.5051 124 22.6469 124H141.565C153.707 124 163.55 114.15 163.55 102V22C163.55 9.84974 153.707 0 141.565 0H22.6469Z" fill="#A68C55"/>
<path d="M102.467 87.1299H110.538L92.9891 58.3311L90.3064 53.9287L89.1886 52.0944L87.4002 49.1595L81.923 40.1713L76.4459 49.1595L74.6574 52.0944L73.5396 53.9287L70.8569 58.3311L53.3076 87.1299H61.3786L81.923 52.6447L102.467 87.1299Z" fill="black"/>
<path d="M92.9891 58.3311H114.941L116.592 53.9287H90.3064L92.9891 58.3311Z" fill="black"/>
<path d="M89.1886 52.0944H123.745L125.763 47.8755H87.9763L87.4002 49.1595L89.1886 52.0944Z" fill="black"/>
<path d="M88.71 46.408L91.278 42.1891H133.467L131.633 46.408H88.71Z" fill="black"/>
<path d="M92.9891 40.1713L95.1301 35.9524H142.639L140.805 40.1713H92.9891Z" fill="black"/>
<path d="M48.9053 58.3311H70.8569L73.5396 53.9287H47.2544L48.9053 58.3311Z" fill="black"/>
<path d="M40.1005 52.0944H74.6574L76.4459 49.1595L75.8698 47.8755H38.0828L40.1005 52.0944Z" fill="black"/>
<path d="M75.136 46.408L72.568 42.1891H30.3786L32.2129 46.408H75.136Z" fill="black"/>
<path d="M70.8569 40.1713L68.7159 35.9524H21.207L23.0414 40.1713H70.8569Z" fill="black"/>
</svg>
