<svg width="164" height="124" viewBox="0 0 164 124" fill="none" xmlns="http://www.w3.org/2000/svg">
<path d="M0.887695 22C0.887695 9.84974 10.7306 0 22.8725 0H141.79C153.932 0 163.775 9.84974 163.775 22V102C163.775 114.15 153.932 124 141.79 124H22.8725C10.7306 124 0.887695 114.15 0.887695 102V22Z" fill="#C5A869"/>
<path fill-rule="evenodd" clip-rule="evenodd" d="M141.79 11H22.8725C16.8016 11 11.8801 15.9249 11.8801 22V102C11.8801 108.075 16.8016 113 22.8725 113H141.79C147.861 113 152.783 108.075 152.783 102V22C152.783 15.9249 147.861 11 141.79 11ZM22.8725 0C10.7306 0 0.887695 9.84974 0.887695 22V102C0.887695 114.15 10.7306 124 22.8725 124H141.79C153.932 124 163.775 114.15 163.775 102V22C163.775 9.84974 153.932 0 141.79 0H22.8725Z" fill="#A68C55"/>
<path d="M83.0649 103.842L85.633 99.9902H120.669L118.467 103.842H83.0649Z" fill="black"/>
<path d="M86.5502 97.9724L88.9086 94.3038H129.447L127.455 97.9724H86.5502Z" fill="black"/>
<path d="M90.0354 92.1026L92.3938 88.4339H135.526L133.535 92.1026H90.0354Z" fill="black"/>
<path d="M93.3371 85.8659L95.6955 82.1973H145.248L143.257 85.8659H93.3371Z" fill="black"/>
<path d="M81.5975 103.842L79.0294 99.9902H43.9939L46.1951 103.842H81.5975Z" fill="black"/>
<path d="M78.1123 97.9724L75.7539 94.3038H35.2154L37.207 97.9724H78.1123Z" fill="black"/>
<path d="M74.6271 92.1026L72.2687 88.4339H29.136L31.1275 92.1026H74.6271Z" fill="black"/>
<path d="M71.3253 85.8659L68.9669 82.1973H19.4141L21.4056 85.8659H71.3253Z" fill="black"/>
<path d="M100.479 20.1582L102.49 21.7868C100.417 24.5319 100.118 25.6858 100.741 27.2803L77.466 55.9078C77.466 55.9078 79.0823 59.6434 77.8611 61.3316C76.6398 63.0198 74.0896 62.1577 71.683 65.8933C69.7855 68.524 70.7468 73.1326 69.5638 78.0339C69.0609 80.1172 67.696 81.1948 66.3311 80.1172L58.1374 73.1326L69.8079 58.5313C73.2994 60.0385 74.4488 57.9193 72.5538 55.0959L100.479 20.1582Z" fill="black"/>
<path fill-rule="evenodd" clip-rule="evenodd" d="M80.9879 53.2344L83.1615 55.9078C83.1615 55.9078 81.5452 59.6434 82.7664 61.3316C83.2513 62.0018 83.9456 62.2701 84.7572 62.5837C85.99 63.0599 87.4934 63.6408 88.9445 65.8933C90.0516 67.4282 90.1855 69.6364 90.3399 72.1832C90.4502 74.0014 90.5709 75.9923 91.0637 78.0339C91.5666 80.1172 92.9315 81.1948 94.2964 80.1172L102.49 73.1326L90.8195 58.5313C87.3281 60.0385 86.1787 57.9193 88.0737 55.0959L83.8108 49.7625L80.9879 53.2344ZM79.6441 44.5495L60.1486 20.1582L58.1374 21.7868C60.2101 24.5319 60.5095 25.6858 59.886 27.2803L76.8098 48.0956L79.6441 44.5495Z" fill="black"/>
<path fill-rule="evenodd" clip-rule="evenodd" d="M80.3014 62.8073C79.5599 62.8073 78.7843 62.7684 77.9788 62.6907C78.2395 62.4925 78.4881 62.2502 78.709 61.9448C79.1834 61.2891 79.3365 60.5049 79.3604 59.8079C79.3778 59.3024 79.3291 58.7906 79.25 58.3132C79.5962 58.3449 79.9469 58.3611 80.3014 58.3611C80.6647 58.3611 81.0239 58.3441 81.3785 58.3108C81.2993 58.7889 81.2503 59.3015 81.2677 59.8079C81.2917 60.5049 81.4448 61.2891 81.9191 61.9448C82.1373 62.2464 82.3859 62.4888 82.6479 62.6884C81.8338 62.7676 81.0502 62.8073 80.3014 62.8073ZM93.3049 59.9648C99.2753 57.6293 105.757 53.8596 111.813 48.6738L113.686 47.0697L111.897 45.3724C107.256 40.9704 101.417 37.4533 95.7912 35.0277L90.373 41.6918C91.2059 43.2728 91.6773 45.074 91.6773 46.9853C91.6773 49.8385 90.6268 52.4464 88.8916 54.4433L89.3701 55.042L88.9426 55.679C88.5245 56.302 88.3134 56.8303 88.2419 57.2232C88.1694 57.6213 88.2515 57.7912 88.2836 57.837C88.2996 57.8598 88.3763 57.9649 88.708 57.9829C89.0599 58.0019 89.6192 57.9102 90.4052 57.5709L91.1385 57.2544L93.3049 59.9648ZM89.1684 32.6339L85.7015 36.9715C84.0949 36.1036 82.2557 35.6109 80.3014 35.6109C78.3541 35.6109 76.5213 36.1 74.9191 36.962L71.455 32.628C74.7203 31.683 77.7754 31.1648 80.3014 31.1648C82.8326 31.1648 85.8953 31.6852 89.1684 32.6339ZM64.8305 35.0198C59.2001 37.4455 53.3536 40.9653 48.7081 45.3719L46.9188 47.0692L48.7921 48.6734C54.8542 53.8645 61.3425 57.6369 67.3176 59.972L69.4897 57.2544L70.2229 57.5709C71.0089 57.9102 71.5683 58.0019 71.9201 57.9829C72.2518 57.9649 72.3286 57.8598 72.3446 57.837C72.3767 57.7912 72.4588 57.6213 72.3863 57.2232C72.3148 56.8303 72.1037 56.302 71.6855 55.679L71.258 55.042L71.7251 54.4576C69.9828 52.4588 68.9277 49.8451 68.9277 46.9848C68.9277 45.0664 69.4024 43.2591 70.2407 41.6739L64.8305 35.0198ZM66.5615 54.8329C62.4126 52.9683 57.9835 50.3457 53.6556 46.9198C57.5024 43.7087 62.0797 41.0472 66.5782 39.108C65.2444 41.4273 64.4816 44.1168 64.4816 46.9848C64.4816 49.8406 65.238 52.5198 66.5615 54.8329ZM94.0432 54.8328C98.1923 52.9684 102.622 50.346 106.949 46.9203C103.103 43.7093 98.5251 41.0479 94.0263 39.1086C95.3604 41.4278 96.1234 44.1173 96.1234 46.9853C96.1234 49.841 95.3668 52.52 94.0432 54.8328Z" fill="black"/>
</svg>
