<svg width="164" height="124" viewBox="0 0 164 124" fill="none" xmlns="http://www.w3.org/2000/svg">
<path d="M0.775391 22C0.775391 9.84974 10.6183 0 22.7602 0H141.678C153.82 0 163.663 9.84974 163.663 22V102C163.663 114.15 153.82 124 141.678 124H22.7602C10.6183 124 0.775391 114.15 0.775391 102V22Z" fill="#C5A869"/>
<path fill-rule="evenodd" clip-rule="evenodd" d="M141.678 11H22.7602C16.6893 11 11.7678 15.9249 11.7678 22V102C11.7678 108.075 16.6893 113 22.7602 113H141.678C147.749 113 152.671 108.075 152.671 102V22C152.671 15.9249 147.749 11 141.678 11ZM22.7602 0C10.6183 0 0.775391 9.84974 0.775391 22V102C0.775391 114.15 10.6183 124 22.7602 124H141.678C153.82 124 163.663 114.15 163.663 102V22C163.663 9.84974 153.82 0 141.678 0H22.7602Z" fill="#A68C55"/>
<path fill-rule="evenodd" clip-rule="evenodd" d="M95.6229 50.8235H89.5721C89.0942 56.1377 84.553 60.2282 79.1474 60.0737C73.9393 59.9248 69.7573 55.8878 69.3034 50.8235H63.2526L59.2495 52.9821C59.4392 54.2339 59.743 55.4496 60.1502 56.6179L64.6382 56.5229C64.9573 57.2345 65.3263 57.9193 65.7409 58.5728L63.4794 62.6378C64.2158 63.5593 65.0305 64.4162 65.9139 65.198L70.0995 63.1521C71.1917 63.9232 72.3843 64.5631 73.655 65.0482L73.7709 69.5212C74.8967 69.8455 76.0633 70.0759 77.262 70.2031L78.9756 66.1036C79.6869 66.124 80.3874 66.1056 81.077 66.0363L83.5748 69.907C84.7413 69.6667 85.8726 69.3266 86.9589 68.8957L86.6932 64.4067C87.5054 63.9994 88.2792 63.5257 89.0072 62.9926L92.8301 65.3205C93.7562 64.5154 94.6095 63.628 95.3784 62.6691L92.8789 58.9727C93.3304 58.3047 93.7336 57.6008 94.0833 56.866L98.593 56.9949C99.005 55.881 99.323 54.7205 99.537 53.5227L95.5811 51.3927C95.5983 51.2039 95.6122 51.0142 95.6229 50.8235Z" fill="black"/>
<path fill-rule="evenodd" clip-rule="evenodd" d="M67.8317 21.7925H105.701V24.3605H68.4934L51.4945 33.7431H105.701V36.3111H47.3628L44.6502 42.7412H105.701V45.3093H58.0557L42.1027 84.0139H66.6165V86.5819H38.2666L55.2781 45.3093H40.7796L45.5008 34.118L67.8317 21.7925ZM105.986 49.3999L107.803 51.2152L105.123 53.8966V58.5355H113.101V63.1946L113.707 63.801H118.244L122.511 59.5317L126.171 63.1946V75.9779L123.552 78.5987H119.602L118.244 77.2398H117.005V79.2579H119.042V86.1692L115.382 89.8321L111.891 86.3391V84.7135H110.991L109.124 86.5819H103.307L99.6695 82.942V80.637H99.1822V87.3582L92.732 93.8127V102.209H85.4112V96.1907L82.5035 93.2811L83.427 92.357H81.75L75.673 86.28V81.4311H74.0605V83.4295H71.4925V78.8631H78.2411V85.2163L82.8138 89.789H87.1305V92.284L86.1341 93.2811L87.9792 95.1275V99.6406H90.164V92.7495L96.6142 86.295V78.0689H102.238V81.8787L104.371 84.0139H108.06L109.927 82.1455H114.459V85.2759L115.382 86.1991L116.474 85.106V81.826H114.437V74.6718H119.309L120.667 76.0306H122.488L123.603 74.9146V64.2578L122.511 63.1647L119.309 66.369H112.643L110.533 64.2578V61.1035H102.555V52.8333L105.986 49.3999Z" fill="black"/>
</svg>
