<svg width="164" height="124" viewBox="0 0 164 124" fill="none" xmlns="http://www.w3.org/2000/svg">
<path d="M0.775391 22C0.775391 9.84974 10.6183 0 22.7602 0H141.678C153.82 0 163.663 9.84974 163.663 22V102C163.663 114.15 153.82 124 141.678 124H22.7602C10.6183 124 0.775391 114.15 0.775391 102V22Z" fill="#C5A869"/>
<path fill-rule="evenodd" clip-rule="evenodd" d="M141.678 11H22.7602C16.6893 11 11.7678 15.9249 11.7678 22V102C11.7678 108.075 16.6893 113 22.7602 113H141.678C147.749 113 152.671 108.075 152.671 102V22C152.671 15.9249 147.749 11 141.678 11ZM22.7602 0C10.6183 0 0.775391 9.84974 0.775391 22V102C0.775391 114.15 10.6183 124 22.7602 124H141.678C153.82 124 163.663 114.15 163.663 102V22C163.663 9.84974 153.82 0 141.678 0H22.7602Z" fill="#A68C55"/>
<path fill-rule="evenodd" clip-rule="evenodd" d="M81.4974 33.4813L81.9136 35.4457C81.8236 35.4429 81.7333 35.4415 81.6428 35.4414C77.0893 35.4419 73.1056 39.0195 73.1056 43.1662V58.1275H55.2169V23.5697C55.2169 21.2464 57.3223 19.3414 59.4451 19.3414H99.1709L98.5108 25.2567L87.242 30.2567L87.4965 29.152L82.8493 28.0817L82.5413 29.4189L86.8787 30.4179L81.5448 32.7846V30.6421H80.1725V33.4813H81.4974ZM82.5643 35.4904H87.5239L87.3703 35.7841L88.5864 36.42L89.0725 35.4904H92.268L92.5276 37.7837L90.4196 38.8535L91.0406 40.0772L93.5148 38.8217L98.415 39.5363V50.8747H104.783V40.465L108.069 40.9441V58.1275H90.18V43.1662C90.18 39.3019 86.7206 35.9319 82.5643 35.4904ZM107.37 21.3258C106.576 20.1365 105.212 19.3414 103.841 19.3414H103.103L103.894 22.868L107.37 21.3258ZM64.0099 23.8931V21.4709H65.3822V23.8931H64.0099ZM73.6979 23.8931V21.4709H75.0702V23.8931H73.6979ZM84.2147 23.8931V21.4709H85.587V23.8931H84.2147ZM58.4644 24.4816H66.6079V25.8539H59.8367V26.8887H58.4644V24.4816ZM69.7311 24.4816H79.6593V26.8887H78.2871V25.8539H69.7311V24.4816ZM89.1863 25.8539H81.204V24.4816H90.5586V26.8887H89.1863V25.8539ZM72.4868 29.1683H68.7112V27.796H73.859V29.8206H72.4868V29.1683ZM59.9519 28.8677C59.8867 28.6256 59.8665 28.3437 59.8665 28.036H61.2388C61.2388 28.2246 61.2487 28.3501 61.2611 28.4316C61.3232 28.4344 61.3963 28.4341 61.4979 28.4337L61.4983 28.4337C61.5393 28.4335 61.5849 28.4334 61.6362 28.4334H66.0829V31.9877H64.7107V29.8056H61.6362C61.6061 29.8056 61.5743 29.8058 61.5413 29.806C61.3964 29.8067 61.2287 29.8076 61.0848 29.7951C60.9005 29.7791 60.6409 29.7351 60.4041 29.5629C60.1521 29.3796 60.0205 29.1225 59.9519 28.8677ZM80.3866 29.4101L76.6353 30.4804L76.2588 29.1608L80.0101 28.0905L80.3866 29.4101ZM74.9279 31.3821L72.4309 33.5669L71.5273 32.5342L74.0243 30.3494L74.9279 31.3821ZM77.0552 32.0279L78.3219 34.4521L77.1056 35.0876L75.8389 32.6634L77.0552 32.0279ZM68.2013 34.586H62.1461V33.2138H68.2013V34.586ZM70.9543 34.9977L69.7058 38.2229L68.4261 37.7276L69.6746 34.5023L70.9543 34.9977ZM73.3874 35.1952L74.8624 36.6295L73.9057 37.6133L72.4307 36.179L73.3874 35.1952ZM58.0669 38.1216H65.7792V39.4939H58.0669V38.1216ZM70.4897 38.9913L72.9836 39.2637L72.8345 40.6279L70.3407 40.3554L70.4897 38.9913ZM97.2781 39.6734V50.4719H95.9058V39.6734H97.2781ZM68.7788 40.0126L68.5363 42.7524L67.1693 42.6314L67.4119 39.8915L68.7788 40.0126ZM71.8788 44.5064H69.7311V43.1341H71.8788V44.5064ZM61.0653 43.7558C61.3253 43.4881 61.689 43.2702 62.1461 43.2702H66.8816V44.6424L62.1458 44.6424C62.144 44.6424 62.1409 44.6423 62.1311 44.6471C62.1179 44.6535 62.0898 44.6706 62.0497 44.7119C61.9646 44.7995 61.8643 44.956 61.7695 45.1907C61.5805 45.6592 61.4763 46.2825 61.4763 46.8071H60.104C60.104 46.1378 60.2313 45.3357 60.4969 44.6772C60.6296 44.3486 60.8124 44.0162 61.0653 43.7558ZM66.56 49.0547H58.5777V47.6824H67.9323V50.4719C67.9323 51.2147 67.2906 52.0511 66.2347 52.0511V50.6788C66.3738 50.6788 66.4506 50.6297 66.4953 50.5837C66.5461 50.5314 66.5575 50.4823 66.5596 50.4732L66.5598 50.4723L66.56 50.4719V49.0547ZM71.1082 49.0547H68.7112V47.6824H71.1082V49.0547ZM60.5527 53.7076H57.4937V52.3353H60.5527V53.7076ZM62.4796 52.8381C62.9115 52.5436 63.4785 52.3353 64.022 52.3353H71.1082V53.7076H64.022C63.8015 53.7076 63.4991 53.8038 63.2527 53.9719C63.0317 54.1226 62.983 54.2366 62.9724 54.2614L62.9711 54.2643L62.9705 54.2656L62.9702 54.2661L62.9698 54.2665C62.9698 54.2665 62.9695 54.2652 62.9695 54.2627H61.5972C61.5972 53.6023 62.0771 53.1126 62.4796 52.8381Z" fill="black"/>
<path d="M111.294 21.0857C115.171 27.4428 115.235 34.118 112.183 40.1573L103.41 38.8779V49.5023H99.7869V38.3495L93.8747 37.4873L93.4933 34.118H81.9226L99.7869 26.1915L100.931 15.9365L102.921 24.8007L111.294 21.0857Z" fill="black"/>
<path d="M56.6841 97.3751C55.2375 98.0877 52.9779 97.3751 52.3551 95.986C51.7322 94.5969 52.4897 92.369 53.8436 91.6924C55.1974 91.0158 66.0163 85.6081 66.0163 85.6081L68.8568 91.2907C68.8568 91.2907 58.1306 96.6624 56.6841 97.3751Z" fill="black"/>
<path d="M70.3718 90.5335C70.0095 89.7905 68.9509 87.6908 68.9509 87.6908C68.9509 87.6908 67.909 85.6206 67.5314 84.8508C67.1537 84.0809 67.4822 82.9485 68.3005 82.588C69.1189 82.2274 70.2578 82.6889 70.5721 83.3309C70.8864 83.9729 71.9916 86.171 71.9916 86.171C71.9916 86.171 73.0911 88.3634 73.4126 89.0136C73.734 89.6638 73.3172 90.9516 72.6434 91.2764C71.9697 91.6013 70.7342 91.2764 70.3718 90.5335Z" fill="black"/>
<path fill-rule="evenodd" clip-rule="evenodd" d="M73.7155 86.5958C80.9936 83.5875 87.1403 81.5084 92.5898 79.665C106.76 74.872 116.216 71.6733 128.596 57.8785C110.134 59.5 101.9 65.1441 89.5634 73.6003C84.8174 76.8536 79.4642 80.523 72.6877 84.5398L73.7155 86.5958ZM103.364 71.3906C96.8951 74.6238 93.6108 75.7238 93.4673 75.4367C93.3238 75.1497 96.1762 73.1856 102.645 69.9523C109.114 66.719 112.234 65.291 112.541 65.9061C112.849 66.5213 109.833 68.1573 103.364 71.3906Z" fill="black"/>
<path d="M107.756 97.3749C109.203 98.0876 111.462 97.3749 112.085 95.9858C112.708 94.5968 111.951 92.3689 110.597 91.6922C109.243 91.0156 98.424 85.6079 98.424 85.6079L95.5835 91.2906C95.5835 91.2906 106.31 96.6623 107.756 97.3749Z" fill="black"/>
<path d="M94.0684 90.5333C94.4308 89.7903 95.4894 87.6907 95.4894 87.6907C95.4894 87.6907 96.5313 85.6205 96.9089 84.8506C97.2866 84.0808 96.9581 82.9483 96.1398 82.5878C95.3214 82.2273 94.1825 82.6888 93.8682 83.3308C93.5539 83.9727 92.4486 86.1708 92.4486 86.1708C92.4486 86.1708 91.3492 88.3633 91.0277 89.0134C90.7062 89.6636 91.1231 90.9514 91.7969 91.2763C92.4706 91.6011 93.7061 91.2763 94.0684 90.5333Z" fill="black"/>
<path fill-rule="evenodd" clip-rule="evenodd" d="M84.3415 84.0724C86.3714 84.8396 88.495 85.674 90.7248 86.5957L91.7525 84.5397C90.6436 83.8823 89.5728 83.2343 88.5366 82.5959C87.1823 83.0631 85.7859 83.5523 84.3415 84.0724ZM80.891 77.6829C79.2623 78.7514 77.5474 79.8515 75.7249 80.9821C74.3944 80.5254 73.1058 80.0895 71.8541 79.6661L71.8505 79.6649C57.6806 74.8718 48.2241 71.6731 35.8447 57.8783C54.3068 59.4999 62.5407 65.144 74.8768 73.6001C76.7679 74.8964 78.7555 76.2588 80.891 77.6829ZM70.973 75.4366C70.8295 75.7237 67.5452 74.6237 61.0764 71.3904C54.6077 68.1571 51.5915 66.5211 51.899 65.906C52.2064 65.2909 55.3267 66.7188 61.7954 69.9521C68.2641 73.1854 71.1165 75.1495 70.973 75.4366Z" fill="black"/>
</svg>
