<svg width="164" height="124" viewBox="0 0 164 124" fill="none" xmlns="http://www.w3.org/2000/svg">
<path d="M0.887695 22C0.887695 9.84974 10.7306 0 22.8725 0H141.79C153.932 0 163.775 9.84974 163.775 22V102C163.775 114.15 153.932 124 141.79 124H22.8725C10.7306 124 0.887695 114.15 0.887695 102V22Z" fill="#C5A869"/>
<path fill-rule="evenodd" clip-rule="evenodd" d="M141.79 11H22.8725C16.8016 11 11.8801 15.9249 11.8801 22V102C11.8801 108.075 16.8016 113 22.8725 113H141.79C147.861 113 152.783 108.075 152.783 102V22C152.783 15.9249 147.861 11 141.79 11ZM22.8725 0C10.7306 0 0.887695 9.84974 0.887695 22V102C0.887695 114.15 10.7306 124 22.8725 124H141.79C153.932 124 163.775 114.15 163.775 102V22C163.775 9.84974 153.932 0 141.79 0H22.8725Z" fill="#A68C55"/>
<path d="M104.292 90.3428L87.4866 73.5376V68.4069L104.292 85.212V90.3428Z" fill="black"/>
<path d="M87.4866 66.4735L102.061 51.8992H92.3943L106.932 37.362L108.158 38.5889L110.761 30.4094L102.805 32.6402L104.292 34.1274L87.4866 50.9325V55.6915H94.3277L87.4866 62.5325V66.4735Z" fill="black"/>
<path d="M60.3706 90.3428L77.1757 73.5376V68.4069L60.3706 85.212V90.3428Z" fill="black"/>
<path d="M77.1757 66.4735L62.6014 51.8992H72.268L57.7309 37.362L56.5039 38.5889L53.9014 30.4094L61.8578 32.6402L60.3706 34.1274L77.1757 50.9325V55.6915H70.3347L77.1757 62.5325V66.4735Z" fill="black"/>
<path d="M82.3309 103.917L85.4269 98.8034V87.5152H82.3315H79.2354V98.8034L82.3309 103.917Z" fill="black"/>
<path d="M93.4928 82.4968V85.3141H82.3309H71.1696V82.4968H82.3315H93.4928Z" fill="black"/>
<path d="M85.4269 27.7537L82.3309 20.0837L79.2354 27.7537V80.3838H82.3309H85.4269V27.7537Z" fill="black"/>
</svg>
