<svg width="164" height="124" viewBox="0 0 164 124" fill="none" xmlns="http://www.w3.org/2000/svg">
<path d="M0.4375 22C0.4375 9.84974 10.2804 0 22.4223 0H141.34C153.482 0 163.325 9.84974 163.325 22V102C163.325 114.15 153.482 124 141.34 124H22.4223C10.2804 124 0.4375 114.15 0.4375 102V22Z" fill="#C5A869"/>
<path fill-rule="evenodd" clip-rule="evenodd" d="M141.34 11H22.4223C16.3514 11 11.4299 15.9249 11.4299 22V102C11.4299 108.075 16.3514 113 22.4223 113H141.34C147.411 113 152.333 108.075 152.333 102V22C152.333 15.9249 147.411 11 141.34 11ZM22.4223 0C10.2804 0 0.4375 9.84974 0.4375 22V102C0.4375 114.15 10.2804 124 22.4223 124H141.34C153.482 124 163.325 114.15 163.325 102V22C163.325 9.84974 153.482 0 141.34 0H22.4223Z" fill="#A68C55"/>
<path d="M97.7523 104.435C97.7523 103.967 97.2527 103.813 96.9307 103.813C88.9734 103.813 84.7243 97.2712 84.7243 90.2324V82.5533C100.168 82.5533 112.555 66.3327 112.555 54.0147V30.3391C112.555 24.1522 116.909 21.5395 124.755 21.5395L124.754 18.9692H113.911C105.885 18.9692 99.6496 24.8914 99.6496 31.9979V53.2703C99.6496 65.1645 90.8734 74.8302 84.7243 77.7514V31.9979C84.7243 27.2602 90.0271 21.5395 96.5356 21.5395V18.9692H67.227V21.5395C73.7355 21.5395 79.0383 27.2602 79.0383 31.9979V77.7514C72.8892 74.8302 64.113 65.1645 64.113 53.2703V31.9979C64.113 24.8914 57.8772 18.9692 49.8516 18.9692H39.0091L39.0077 21.5395C46.8533 21.5395 51.2072 24.1522 51.2072 30.3391V54.0147C51.2072 66.3327 63.5943 82.5533 79.0383 82.5533V90.2324C79.0383 97.2712 74.7892 103.813 66.8319 103.813C66.5099 103.813 66.0103 103.967 66.0103 104.435C66.0103 104.755 66.4249 105.029 66.8319 105.029H81.8813H96.9307C97.3377 105.029 97.7523 104.755 97.7523 104.435Z" fill="black"/>
</svg>
