<svg width="164" height="124" viewBox="0 0 164 124" fill="none" xmlns="http://www.w3.org/2000/svg">
<path d="M0.550781 22C0.550781 9.84974 10.3937 0 22.5356 0H141.454C153.595 0 163.438 9.84974 163.438 22V102C163.438 114.15 153.595 124 141.454 124H22.5356C10.3937 124 0.550781 114.15 0.550781 102V22Z" fill="#C5A869"/>
<path fill-rule="evenodd" clip-rule="evenodd" d="M141.454 11H22.5356C16.4647 11 11.5432 15.9249 11.5432 22V102C11.5432 108.075 16.4647 113 22.5356 113H141.454C147.524 113 152.446 108.075 152.446 102V22C152.446 15.9249 147.524 11 141.454 11ZM22.5356 0C10.3937 0 0.550781 9.84974 0.550781 22V102C0.550781 114.15 10.3937 124 22.5356 124H141.454C153.595 124 163.438 114.15 163.438 102V22C163.438 9.84974 153.595 0 141.454 0H22.5356Z" fill="#A68C55"/>
<path d="M101.824 33.701C102.544 32.7159 103.362 31.6014 104.068 30.6494C105.75 28.3824 106.335 23.7024 104.873 21.216C103.41 18.7297 105.311 17.1208 106.774 19.4609C110.442 25.3299 110.015 31.9219 106.379 36.7037C104.945 35.5901 103.423 34.5851 101.824 33.701Z" fill="black"/>
<path d="M99.616 96.389L102.021 100.998L108.163 105.679L107.652 98.1468L104.805 93.4186C103.171 94.5491 101.435 95.5446 99.616 96.389Z" fill="black"/>
<path d="M63.4372 38.4349C55.9192 44.6174 51.1246 53.9908 51.1246 64.4842C51.1246 74.4837 55.4786 83.4663 62.3942 89.6396L63.4461 88.1553C56.989 82.3174 52.9318 73.8746 52.9318 64.4842C52.9318 54.6399 57.3907 45.837 64.399 39.985L63.4372 38.4349Z" fill="black"/>
<path d="M65.9417 42.4712C59.7487 47.7912 55.8261 55.6796 55.8261 64.4842C55.8261 72.8989 59.4091 80.4768 65.1326 85.7755L66.187 84.2875C60.9209 79.3271 57.6333 72.2896 57.6333 64.4842C57.6333 56.329 61.2222 49.012 66.9068 44.0265L65.9417 42.4712Z" fill="black"/>
<path d="M68.7654 47.0217C64.0549 51.3584 61.1036 57.5766 61.1036 64.4842C61.1036 71.1191 63.8266 77.118 68.216 81.4244L69.2754 79.9295C65.3413 75.9667 62.9108 70.5093 62.9108 64.4842C62.9108 58.2268 65.5323 52.5818 69.7369 48.5874L68.7654 47.0217Z" fill="black"/>
<path d="M84.0731 46.2975V48.6491L80.3606 46.5058L79.601 47.8215L83.3134 49.9649L79.601 52.1083L80.3606 53.424L84.0731 51.2806V63.1682L73.7787 57.2248L77.4912 55.0814L76.7315 53.7657L73.0191 55.909V51.6223H71.4998V55.909L67.9336 53.8501L67.1739 55.1658L70.7402 57.2248L67.0277 59.3682L67.7874 60.6839L71.4998 58.5405V62.8273H73.0191V58.5405L83.3154 64.4851L73.0213 70.4284V66.1416H71.502L71.502 70.4284L67.7896 68.285L67.0299 69.6007L70.7424 71.7441L67.1761 73.8031L67.9358 75.1188L71.502 73.0599L71.502 77.3466H73.0213V73.0599L76.7338 75.2032L77.4934 73.8875L73.781 71.7441L84.0731 65.802V77.688L80.3606 75.5447L79.601 76.8604L83.3134 79.0038L79.601 81.1472L80.3606 82.4629L84.0731 80.3195V84.4375H85.5924V80.3195L89.3048 82.4629L90.0644 81.1472L86.352 79.0038L90.0644 76.8604L89.3048 75.5447L85.5924 77.688V65.8002L95.8875 71.7441L92.1751 73.8875L92.9347 75.2032L96.6472 73.0599V77.3466H98.1665V73.0599L101.733 75.1188L102.492 73.8031L98.9261 71.7441L102.639 69.6007L101.879 68.285L98.1665 70.4284V66.1416H96.6472V70.4284L86.352 64.4845L96.6472 58.5405V62.8273H98.1665V58.5405L101.879 60.6839L102.639 59.3682L98.9261 57.2248L102.492 55.1658L101.733 53.8501L98.1665 55.909V51.6223H96.6472V55.909L92.9347 53.7657L92.1751 55.0814L95.8875 57.2248L85.5924 63.1687V51.2806L89.3048 53.424L90.0644 52.1083L86.352 49.9649L90.0644 47.8215L89.3048 46.5058L85.5924 48.6491V46.2923C85.3237 46.244 85.0722 46.1462 84.8477 46.0087C84.6148 46.1513 84.353 46.2512 84.0731 46.2975Z" fill="black"/>
<path d="M92.8317 44.0655C100.984 47.2612 106.757 55.1985 106.757 64.4842C106.757 76.592 96.9418 86.4074 84.834 86.4074C81.3324 86.4074 78.0226 85.5865 75.0865 84.1266L74.0586 85.6327C77.2921 87.2835 80.9543 88.2145 84.834 88.2145C97.9399 88.2145 108.564 77.5901 108.564 64.4842C108.564 54.1846 102.003 45.4175 92.8317 42.1353V44.0655Z" fill="black"/>
<path d="M92.8317 38.4782C103.951 41.8938 112.035 52.245 112.035 64.4842C112.035 79.5067 99.8565 91.6849 84.834 91.6849C80.2284 91.6849 75.8901 90.5402 72.0881 88.5199L71.0633 90.0214C75.1603 92.2353 79.8504 93.492 84.834 93.492C100.855 93.492 113.842 80.5048 113.842 64.4842C113.842 51.2376 104.963 40.0649 92.8317 36.5928V38.4782Z" fill="black"/>
<path d="M92.8317 33.5928C106.58 37.142 116.736 49.627 116.736 64.4842C116.736 82.1032 102.453 96.3863 84.834 96.3863C79.245 96.3863 73.9917 94.9491 69.4235 92.4241L68.4003 93.9233C73.2622 96.6431 78.867 98.1935 84.834 98.1935C103.451 98.1935 118.543 83.1013 118.543 64.4842C118.543 48.6227 107.588 35.3198 92.8317 31.7293V33.5928Z" fill="black"/>
<path d="M76.8637 31.7226C75.1728 32.1325 73.5318 32.6699 71.9514 33.324L72.8762 34.8987C74.1656 34.377 75.4969 33.9372 76.8637 33.5857V31.7226Z" fill="black"/>
<path d="M76.8637 36.585C76.0124 36.8277 75.1772 37.1083 74.3599 37.4249L75.2882 39.0056C75.8061 38.8115 76.3314 38.6327 76.8637 38.4698V36.585Z" fill="black"/>
<path d="M45.4434 36.7467C56.784 24.1741 64.285 20.5873 79.1273 18.6256C71.6117 22.0006 67.5216 28.6411 69.3818 31.8054L76.7292 44.3159L71.169 48.1551L63.1596 35.2474C59.2932 28.4486 53.6152 34.1231 47.0759 38.735L45.4434 36.7467Z" fill="black"/>
<path d="M74.1949 82.8672L70.7925 80.2879L55.9755 101.196L59.2133 104.818L74.1949 82.8672Z" fill="black"/>
<path d="M78.3084 30.0351C78.3084 29.6359 78.632 29.3122 79.0313 29.3122H80.2426C80.6419 29.3122 80.9655 29.6359 80.9655 30.0351V44.1582C80.9655 44.5574 80.6419 44.8811 80.2426 44.8811H79.0313C78.632 44.8811 78.3084 44.5574 78.3084 44.1582V30.0351Z" fill="black"/>
<path d="M81.7815 30.0351C81.7815 29.6359 82.1052 29.3122 82.5044 29.3122H83.7158C84.115 29.3122 84.4386 29.6359 84.4386 30.0351V44.1582C84.4386 44.5574 84.115 44.8811 83.7158 44.8811H82.5044C82.1052 44.8811 81.7815 44.5574 81.7815 44.1582V30.0351Z" fill="black"/>
<path d="M85.2547 30.0351C85.2547 29.6359 85.5783 29.3122 85.9776 29.3122H87.1889C87.5882 29.3122 87.9118 29.6359 87.9118 30.0351V44.1582C87.9118 44.5574 87.5882 44.8811 87.1889 44.8811H85.9776C85.5783 44.8811 85.2547 44.5574 85.2547 44.1582V30.0351Z" fill="black"/>
<path d="M88.7278 30.0351C88.7278 29.6359 89.0515 29.3122 89.4507 29.3122H90.6621C91.0613 29.3122 91.3849 29.6359 91.3849 30.0351V44.1582C91.3849 44.5574 91.0613 44.8811 90.6621 44.8811H89.4507C89.0515 44.8811 88.7278 44.5574 88.7278 44.1582V30.0351Z" fill="black"/>
</svg>
