<svg width="164" height="124" viewBox="0 0 164 124" fill="none" xmlns="http://www.w3.org/2000/svg">
<path d="M0.550781 22C0.550781 9.84974 10.3937 0 22.5356 0H141.454C153.595 0 163.438 9.84974 163.438 22V102C163.438 114.15 153.595 124 141.454 124H22.5356C10.3937 124 0.550781 114.15 0.550781 102V22Z" fill="#C5A869"/>
<path fill-rule="evenodd" clip-rule="evenodd" d="M141.454 11H22.5356C16.4647 11 11.5432 15.9249 11.5432 22V102C11.5432 108.075 16.4647 113 22.5356 113H141.454C147.524 113 152.446 108.075 152.446 102V22C152.446 15.9249 147.524 11 141.454 11ZM22.5356 0C10.3937 0 0.550781 9.84974 0.550781 22V102C0.550781 114.15 10.3937 124 22.5356 124H141.454C153.595 124 163.438 114.15 163.438 102V22C163.438 9.84974 153.595 0 141.454 0H22.5356Z" fill="#A68C55"/>
<path d="M102.355 85.6624H110.426L92.8768 56.8636L90.1941 52.4612L89.0763 50.6269L87.2879 47.692L81.8107 38.7038L76.3335 47.692L74.5451 50.6269L73.4273 52.4612L70.7446 56.8636L53.1953 85.6624H61.2663L81.8107 51.1772L102.355 85.6624Z" fill="black"/>
<path d="M92.8768 56.8636H114.828L116.479 52.4612H90.1941L92.8768 56.8636Z" fill="black"/>
<path d="M89.0763 50.6269H123.633L125.651 46.4079H87.864L87.2879 47.692L89.0763 50.6269Z" fill="black"/>
<path d="M88.5977 44.9405L91.1657 40.7215H133.355L131.521 44.9405H88.5977Z" fill="black"/>
<path d="M92.8768 38.7038L95.0178 34.4849H142.527L140.692 38.7038H92.8768Z" fill="black"/>
<path d="M48.793 56.8636H70.7446L73.4273 52.4612H47.1421L48.793 56.8636Z" fill="black"/>
<path d="M39.9882 50.6269H74.5451L76.3335 47.692L75.7575 46.4079H37.9705L39.9882 50.6269Z" fill="black"/>
<path d="M75.0237 44.9405L72.4557 40.7215H30.2663L32.1006 44.9405H75.0237Z" fill="black"/>
<path d="M70.7446 38.7038L68.6036 34.4849H21.0947L22.929 38.7038H70.7446Z" fill="black"/>
<path fill-rule="evenodd" clip-rule="evenodd" d="M72.7236 77.4496C73.5524 78.9906 74.5507 80.245 75.8789 81.142C77.3276 82.1204 79.2487 82.7275 81.9412 82.7275C84.6432 82.7275 86.468 82.162 87.8633 81.2125C89.1619 80.3289 90.1676 79.0605 91.1576 77.398C90.2489 75.8138 89.2459 74.551 87.9315 73.6552C86.508 72.6849 84.6348 72.0884 81.9412 72.0884C79.2775 72.0884 77.4041 72.7726 75.9671 73.798C74.643 74.7428 73.6366 76.014 72.7236 77.4496ZM74.9016 72.3049C76.6779 71.0373 78.9318 70.2541 81.9412 70.2541C84.9208 70.2541 87.1748 70.9195 88.9646 72.1394C90.7421 73.3509 91.9772 75.0525 93.0192 76.97L93.2633 77.4191L93.0097 77.863C91.8845 79.8322 90.6507 81.5346 88.8953 82.7291C87.1231 83.935 84.9124 84.5618 81.9412 84.5618C78.9606 84.5618 76.6628 83.8849 74.8522 82.6621C73.0487 81.444 71.8087 79.7381 70.8487 77.8181L70.6214 77.3634L70.8864 76.9297C71.9178 75.2419 73.145 73.5583 74.9016 72.3049Z" fill="black"/>
<path fill-rule="evenodd" clip-rule="evenodd" d="M81.9411 73.189C79.6111 73.189 77.7222 75.0779 77.7222 77.4079C77.7222 79.738 79.6111 81.6269 81.9411 81.6269C84.2712 81.6269 86.16 79.738 86.16 77.4079C86.16 75.0779 84.2712 73.189 81.9411 73.189ZM75.8879 77.4079C75.8879 74.0648 78.598 71.3547 81.9411 71.3547C85.2842 71.3547 87.9944 74.0648 87.9944 77.4079C87.9944 80.7511 85.2842 83.4612 81.9411 83.4612C78.598 83.4612 75.8879 80.7511 75.8879 77.4079Z" fill="black"/>
<path d="M92.1864 85.2926L88.5061 88.5752L85.7645 83.2708C84.9744 83.4189 84.3954 83.7779 83.3563 82.7388C82.4895 81.8721 82.2123 81.021 82.1126 80.2235C82.0638 79.8332 82.6688 79.0162 82.6662 78.7459L73.3785 68.8905L74.7948 67.537L85.895 78.8303C85.5224 79.4271 85.4876 79.7685 86.3223 80.4249L92.1864 85.2926Z" fill="black"/>
<path d="M70.9352 85.2926L74.6155 88.5752L77.3571 83.2708C78.1472 83.4189 78.7262 83.7779 79.7653 82.7388C80.6321 81.8721 80.9093 81.021 81.009 80.2235C81.0578 79.8332 80.4529 79.0162 80.4554 78.7459L89.7432 68.8905L88.3269 67.537L77.2267 78.8303C77.5993 79.4271 77.6341 79.7685 76.7994 80.4249L70.9352 85.2926Z" fill="black"/>
</svg>
