<svg width="164" height="124" viewBox="0 0 164 124" fill="none" xmlns="http://www.w3.org/2000/svg">
<path d="M0.326172 22C0.326172 9.84974 10.1691 0 22.311 0H141.229C153.371 0 163.214 9.84974 163.214 22V102C163.214 114.15 153.371 124 141.229 124H22.311C10.1691 124 0.326172 114.15 0.326172 102V22Z" fill="#C5A869"/>
<path fill-rule="evenodd" clip-rule="evenodd" d="M141.229 11H22.311C16.2401 11 11.3186 15.9249 11.3186 22V102C11.3186 108.075 16.2401 113 22.311 113H141.229C147.3 113 152.221 108.075 152.221 102V22C152.221 15.9249 147.3 11 141.229 11ZM22.311 0C10.1691 0 0.326172 9.84974 0.326172 22V102C0.326172 114.15 10.1691 124 22.311 124H141.229C153.371 124 163.214 114.15 163.214 102V22C163.214 9.84974 153.371 0 141.229 0H22.311Z" fill="#A68C55"/>
<path d="M22.7158 46.7077H52.8875V53.1414H22.7158V46.7077Z" fill="black"/>
<path d="M22.7158 62.1267H36.2497V68.6715H22.7158V62.1267Z" fill="black"/>
<path d="M28.3735 77.6564H52.8875V84.2012H28.3735V77.6564Z" fill="black"/>
<path d="M81.3968 77.6564H89.9379V84.2012H81.3968V77.6564Z" fill="black"/>
<path d="M94.154 92.2988H104.357V99.2871H94.154V92.2988Z" fill="black"/>
<path d="M40.632 92.2988H78.9549V99.2871H40.632V92.2988Z" fill="black"/>
<path d="M79.7381 32.7377L73.5252 37.5505L106.754 76.4253L109.074 74.628L79.7381 32.7377Z" fill="black"/>
<path d="M115.092 84.7219C117.24 83.0579 117.633 79.9666 115.969 77.818C114.305 75.6698 111.213 75.2777 109.065 76.9417C106.915 78.6074 106.524 81.6972 108.188 83.8455C109.852 85.994 112.942 86.3876 115.092 84.7219Z" fill="black"/>
<path d="M91.5429 23.593L85.3301 28.4058L118.559 67.2806L120.879 65.4833L91.5429 23.593Z" fill="black"/>
<path d="M127.774 68.6733C129.438 70.8219 129.045 73.9132 126.897 75.5771C124.746 77.2429 121.657 76.8493 119.993 74.7008C118.329 72.5525 118.719 69.4627 120.87 67.7969C123.018 66.133 126.109 66.5251 127.774 68.6733Z" fill="black"/>
<path fill-rule="evenodd" clip-rule="evenodd" d="M89.7335 20.9434L78.2921 20.9434L84.3978 27.2024L90.6107 22.3895L89.7335 20.9434Z" fill="black"/>
<path fill-rule="evenodd" clip-rule="evenodd" d="M66.2132 20.9434L61.2883 24.7585L72.593 36.3471L78.8058 31.5342L72.3824 20.9434L66.2132 20.9434Z" fill="black"/>
<path fill-rule="evenodd" clip-rule="evenodd" d="M26.3759 37.6117V30.9562H58.9616L51.2051 20.9434L54.4644 20.9434L56.4269 23.4768L57.757 22.4465L56.5926 20.9434L63.817 20.9434L59.089 24.6059L59.5146 25.043L58.3432 25.9505L60.519 28.7592L61.849 27.7289L60.7441 26.3026L71.4642 37.2908L71.4098 37.333L106.284 78.1356C105.31 80.2333 105.513 82.789 107.028 84.7441C109.189 87.5333 113.201 88.0426 115.991 85.8819C118.78 83.7213 119.289 79.7086 117.129 76.9194C115.594 74.9382 113.124 74.1082 110.822 74.5675L80.0561 30.635L80.0018 30.6772L74.0986 20.9434L76.2421 20.9434L83.269 28.1461L83.2147 28.1882L118.089 68.9909C117.115 71.0886 117.318 73.6443 118.833 75.5994C120.993 78.3886 125.006 78.8979 127.795 76.7372C130.585 74.5766 131.094 70.5639 128.934 67.7747C127.399 65.7935 124.929 64.9635 122.627 65.4228L91.861 21.4903L91.8066 21.5324L91.4493 20.9434L99.5004 20.9434L140.823 74.2868V80.3902L140.064 80.978L140.823 81.9575V103.056H114.815L64.1173 37.6117H26.3759ZM63.7653 30.2026L62.4353 31.2329L64.6111 34.0416L65.9411 33.0113L63.7653 30.2026ZM66.5274 36.5153L67.8574 35.485L70.0332 38.2938L68.7032 39.3241L66.5274 36.5153ZM71.9495 40.7675L70.6194 41.7978L72.7953 44.6065L74.1253 43.5762L71.9495 40.7675ZM74.7115 47.0802L76.0416 46.0499L78.2174 48.8586L76.8873 49.889L74.7115 47.0802ZM80.1336 51.3323L78.8036 52.3626L80.9794 55.1714L82.3094 54.1411L80.1336 51.3323ZM82.8957 57.6451L84.2257 56.6148L86.4015 59.4235L85.0715 60.4538L82.8957 57.6451ZM88.3178 61.8972L86.9878 62.9275L89.1636 65.7363L90.4936 64.706L88.3178 61.8972ZM91.0798 68.21L92.4099 67.1796L94.5857 69.9884L93.2557 71.0187L91.0798 68.21ZM96.502 72.4621L95.1719 73.4924L97.3477 76.3011L98.6778 75.2708L96.502 72.4621ZM99.264 78.7748L100.594 77.7445L102.77 80.5533L101.44 81.5836L99.264 78.7748ZM104.686 83.027L103.356 84.0573L105.532 86.866L106.862 85.8357L104.686 83.027ZM107.448 89.3397L108.778 88.3094L110.954 91.1181L109.624 92.1485L107.448 89.3397ZM112.87 93.5918L111.54 94.6221L113.716 97.4309L115.046 96.4006L112.87 93.5918ZM137.302 74.6653L135.972 75.6956L138.148 78.5043L139.478 77.474L137.302 74.6653ZM133.21 69.3828L131.88 70.4132L134.056 73.2219L135.386 72.1916L133.21 69.3828ZM127.788 65.1307L129.118 64.1004L131.294 66.9091L129.964 67.9395L127.788 65.1307ZM125.026 58.818L123.696 59.8483L125.872 62.657L127.202 61.6267L125.026 58.818ZM119.604 54.5658L120.934 53.5355L123.11 56.3443L121.78 57.3746L119.604 54.5658ZM116.842 48.2531L115.512 49.2834L117.688 52.0921L119.018 51.0618L116.842 48.2531ZM111.42 44.001L112.75 42.9706L114.926 45.7794L113.596 46.8097L111.42 44.001ZM108.658 37.6882L107.328 38.7185L109.504 41.5273L110.834 40.497L108.658 37.6882ZM103.236 33.4361L104.566 32.4058L106.742 35.2145L105.412 36.2448L103.236 33.4361ZM100.474 27.1233L99.1437 28.1537L101.319 30.9624L102.65 29.9321L100.474 27.1233ZM95.0516 22.8712L96.3816 21.8409L98.5574 24.6496L97.2274 25.68L95.0516 22.8712ZM116.962 98.8743L115.632 99.9046L117.808 102.713L119.138 101.683L116.962 98.8743Z" fill="black"/>
</svg>
