<svg width="164" height="124" viewBox="0 0 164 124" fill="none" xmlns="http://www.w3.org/2000/svg">
<path d="M0.212891 22C0.212891 9.84974 10.0558 0 22.1977 0H141.116C153.258 0 163.1 9.84974 163.1 22V102C163.1 114.15 153.258 124 141.116 124H22.1977C10.0558 124 0.212891 114.15 0.212891 102V22Z" fill="#C5A869"/>
<path fill-rule="evenodd" clip-rule="evenodd" d="M141.116 11H22.1977C16.1268 11 11.2053 15.9249 11.2053 22V102C11.2053 108.075 16.1268 113 22.1977 113H141.116C147.187 113 152.108 108.075 152.108 102V22C152.108 15.9249 147.187 11 141.116 11ZM22.1977 0C10.0558 0 0.212891 9.84974 0.212891 22V102C0.212891 114.15 10.0558 124 22.1977 124H141.116C153.258 124 163.1 114.15 163.1 102V22C163.1 9.84974 153.258 0 141.116 0H22.1977Z" fill="#A68C55"/>
<path d="M82.4384 77.7716C81.8798 78.3302 80.974 78.3302 80.4154 77.7716C79.8567 77.213 79.8567 76.3072 80.4154 75.7486C80.974 75.1899 81.8798 75.1899 82.4384 75.7486C82.997 76.3072 82.997 77.213 82.4384 77.7716Z" fill="black"/>
<path d="M72.8701 85.3163C74.5273 86.9735 75.2801 89.4175 75.4493 90.4323C74.4346 90.2631 71.9905 89.5102 70.3333 87.8531C68.6762 86.1959 67.923 83.7515 67.7538 82.7368C68.7686 82.906 71.2129 83.6591 72.8701 85.3163Z" fill="black"/>
<path d="M105.031 89.6929C105.197 89.7792 105.342 89.889 105.465 90.0161C106.704 89.1666 108.117 88.6503 109.79 88.6503C112.185 88.6503 114.702 88.2578 116.38 86.5796L121.191 81.768C118.93 75.3192 113.893 70.4488 107.72 68.2832L102.902 73.1014C101.223 74.7796 100.831 77.2957 100.831 79.6909C100.831 82.0861 99.7731 83.9482 98.1948 85.5266L97.7941 85.9273L105.031 89.6929Z" fill="black"/>
<path d="M108.804 62.07C108.77 61.6724 108.738 61.4291 108.738 61.4291C109.088 60.4584 110.397 59.149 111.467 58.6993C121.111 60.217 129.103 67.7272 130.782 78.0137C130.332 79.0844 129.023 80.3932 128.052 80.7435C128.052 80.7435 127.807 80.7109 127.406 80.6768C125.27 71.1089 117.85 64.0619 108.804 62.07Z" fill="black"/>
<path d="M108.856 62.8542C117.457 64.8322 124.505 71.5339 126.622 80.6244C126.324 80.61 125.994 80.6003 125.647 80.6003C123.567 72.0708 116.956 65.7758 108.881 63.8277C108.881 63.4813 108.871 63.1518 108.856 62.8542Z" fill="black"/>
<path d="M108.852 64.8145C116.26 67.0561 122.301 72.8616 124.659 80.6295C124.339 80.6492 124.017 80.68 123.703 80.7254C121.419 73.4148 115.731 67.9434 108.757 65.7706C108.802 65.456 108.833 65.134 108.852 64.8145Z" fill="black"/>
<path d="M108.548 66.7788C114.991 69.1265 120.25 74.2208 122.695 80.9355C122.375 81.0274 122.079 81.1423 121.819 81.285C119.472 74.8132 114.406 69.9074 108.2 67.6546C108.342 67.395 108.456 67.0984 108.548 66.7788Z" fill="black"/>
<path d="M105.084 91.6317C104.844 92.0931 104.275 92.2726 103.813 92.0325L96.0863 88.0117C95.6248 87.7716 95.4454 87.2028 95.6855 86.7413C95.9256 86.2799 96.4944 86.1004 96.9559 86.3405L104.683 90.3613C105.144 90.6014 105.324 91.1702 105.084 91.6317Z" fill="black"/>
<path d="M102.716 93.9994C102.476 94.4609 101.907 94.6404 101.446 94.4002L93.7185 90.3795C93.257 90.1394 93.0776 89.5706 93.3177 89.1091C93.5579 88.6476 94.1266 88.4682 94.5881 88.7083L102.315 92.729C102.777 92.9692 102.956 93.5379 102.716 93.9994Z" fill="black"/>
<path d="M100.348 96.3672C100.108 96.8287 99.5392 97.0081 99.0777 96.768L91.3507 92.7473C90.8893 92.5072 90.7098 91.9384 90.9499 91.4769C91.1901 91.0154 91.7589 90.836 92.2203 91.0761L99.9473 95.0968C100.409 95.3369 100.588 95.9057 100.348 96.3672Z" fill="black"/>
<path d="M97.9804 98.735C97.7402 99.1965 97.1714 99.3759 96.7099 99.1358L88.983 95.1151C88.5215 94.8749 88.342 94.3062 88.5822 93.8447C88.8223 93.3832 89.3911 93.2037 89.8526 93.4439L97.5796 97.4646C98.041 97.7047 98.2205 98.2735 97.9804 98.735Z" fill="black"/>
<path d="M95.6126 101.103C95.3724 101.564 94.8037 101.744 94.3422 101.504L86.6152 97.4829C86.1537 97.2427 85.9742 96.674 86.2144 96.2125C86.4545 95.751 87.0233 95.5715 87.4848 95.8117L95.2118 99.8324C95.6733 100.073 95.8527 100.641 95.6126 101.103Z" fill="black"/>
<path fill-rule="evenodd" clip-rule="evenodd" d="M79.4304 104.291L85.8629 97.8585C85.9796 97.9729 86.115 98.0722 86.2675 98.1515L93.3855 101.855L90.9499 104.291H79.4304Z" fill="black"/>
<path fill-rule="evenodd" clip-rule="evenodd" d="M76.718 89.1642C76.5489 88.1495 75.796 85.7054 74.1388 84.0483C72.4817 82.3911 70.0373 81.6379 69.0226 81.4688L130.782 19.7095H142.06V23.822L76.718 89.1642ZM82.4384 77.7716C81.8798 78.3302 80.974 78.3302 80.4154 77.7716C79.8567 77.213 79.8567 76.3072 80.4154 75.7486C80.974 75.1899 81.8798 75.1899 82.4384 75.7486C82.997 76.3072 82.997 77.213 82.4384 77.7716ZM98.4705 61.7395C97.9119 62.2981 97.0061 62.2981 96.4475 61.7395C95.8888 61.1808 95.8888 60.2751 96.4475 59.7164C97.0061 59.1578 97.9119 59.1578 98.4705 59.7164C99.0292 60.2751 99.0292 61.1808 98.4705 61.7395ZM117.022 43.188C116.463 43.7467 115.558 43.7467 114.999 43.188C114.44 42.6294 114.44 41.7237 114.999 41.165C115.558 40.6064 116.463 40.6064 117.022 41.165C117.581 41.7237 117.581 42.6294 117.022 43.188ZM132.176 28.0339C131.617 28.5926 130.712 28.5926 130.153 28.0339C129.594 27.4753 129.594 26.5695 130.153 26.0109C130.712 25.4522 131.617 25.4522 132.176 26.0109C132.735 26.5695 132.735 27.4753 132.176 28.0339Z" fill="black"/>
<path d="M77.8569 90.0997L77.02 90.9366L77.235 92.2174L75.9538 92.0039L75.7389 92.2181L75.6959 91.9612L75.2086 91.8799C74.3058 91.7294 72.4772 91.2057 70.7948 90.0997H30.9299V96.5173H84.6439C84.6611 96.1845 84.75 95.8498 84.9133 95.5349C85.048 95.2748 85.2257 95.0502 85.4292 94.8639V90.0997H77.8569Z" fill="black"/>
<path d="M88.8084 79.1486V79.6462H98.7166V73.2286H94.7298L88.8084 79.1486Z" fill="black"/>
<path d="M103.609 95.2433C103.767 95.0792 103.904 94.8897 104.016 94.6769C104.197 94.334 104.283 93.9682 104.288 93.6064C105.142 93.5906 105.962 93.1202 106.386 92.3091C106.604 91.8899 106.687 91.4364 106.65 90.9979C107.579 90.4375 108.599 90.1176 109.791 90.1176C111.689 90.1176 113.927 89.8905 115.819 88.8257H116.392V95.2433H103.609Z" fill="black"/>
<path d="M131.531 79.6462C131.772 79.3055 131.981 78.9458 132.136 78.5818L132.299 78.1935L132.23 77.7771C131.972 76.1961 131.574 74.6764 131.049 73.2286H137.558V79.6462H131.531Z" fill="black"/>
<path d="M119.883 60.0828V55.5826H112.377L110.322 57.6365C110.511 57.5262 110.706 57.428 110.898 57.3463L111.285 57.1848L111.694 57.2496C114.604 57.7075 117.369 58.678 119.883 60.0828Z" fill="black"/>
<path d="M122.313 45.645H127.65V40.3083L122.313 45.645Z" fill="black"/>
<path d="M88.8084 22.3395H50.752V28.7571H88.8084V22.3395Z" fill="black"/>
<path d="M117.742 22.3395H107.834V28.7571H117.742V22.3395Z" fill="black"/>
<path d="M91.8494 39.2274H101.758V45.645H91.8494V39.2274Z" fill="black"/>
<path d="M24.5184 40.7432H60.6602V47.1609H24.5184V40.7432Z" fill="black"/>
<path d="M43.2084 57.0078H21.251V63.4254H43.2084V57.0078Z" fill="black"/>
<path d="M22.9363 75.0737H59.7602V81.4913H22.9363V75.0737Z" fill="black"/>
</svg>
